<svg xmlns="http://www.w3.org/2000/svg" viewBox="0 0 20 20">
  <rect width="100%" height="100%"/>
  <path fill="#fff" d="M17.4 10c0-.23.37-.41.85-.45l-.03-.4c-.48.05-.88-.08-.92-.3-.04-.24.3-.48.78-.58a7.67 7.67 0 0 0-.1-.4c-.46.13-.88.07-.95-.15-.07-.23.23-.52.68-.7l-.16-.36c-.44.2-.86.2-.96-.02-.11-.2.14-.54.56-.78a7.94 7.94 0 0 0-.21-.35c-.41.27-.82.33-.96.14-.13-.18.06-.56.43-.86l-.26-.3c-.36.32-.76.45-.92.28-.17-.16-.03-.56.29-.92l-.3-.26c-.31.38-.68.57-.87.43-.2-.14-.13-.55.14-.96a6.44 6.44 0 0 0-.34-.2c-.25.4-.59.66-.8.56-.2-.1-.2-.53 0-.97l-.37-.16c-.18.46-.47.75-.7.68-.22-.07-.28-.49-.16-.95l-.39-.1c-.1.47-.34.83-.57.78-.23-.05-.36-.44-.31-.92l-.4-.03c-.03.48-.2.86-.45.86-.24 0-.41-.38-.45-.86l-.4.03c.05.48-.08.88-.3.92-.24.04-.48-.3-.58-.78l-.4.1c.13.46.07.88-.16.95-.22.07-.51-.23-.69-.68l-.37.16c.2.44.2.86 0 .96-.21.11-.55-.14-.8-.56l-.34.21c.27.41.33.82.14.96-.19.13-.56-.06-.86-.43l-.3.26c.32.36.45.76.28.92-.16.17-.56.03-.92-.29l-.26.3c.38.31.57.68.43.87-.14.2-.55.13-.96-.14a6.5 6.5 0 0 0-.2.34c.4.25.66.59.56.8-.1.2-.53.2-.97 0l-.16.37c.46.18.75.47.68.7-.07.22-.49.28-.95.16l-.1.39c.47.1.83.34.78.57-.05.23-.44.36-.92.31l-.03.4c.48.03.86.21.86.45 0 .24-.38.41-.86.45l.03.4c.48-.05.88.08.92.3.04.24-.3.48-.78.58l.1.4c.46-.13.88-.07.95.16.07.22-.23.51-.68.69l.16.37c.44-.2.86-.2.96 0 .11.21-.14.56-.56.8l.21.34c.41-.27.82-.33.96-.14.13.19-.06.56-.43.86l.26.3c.36-.31.76-.44.92-.28.17.16.03.56-.29.92.1.1.2.18.3.26.31-.37.68-.57.87-.43.2.14.13.56-.14.96l.34.2c.25-.4.59-.66.8-.55.2.1.2.52 0 .96l.37.16c.18-.45.47-.75.7-.68.22.07.28.49.16.95l.39.1c.1-.47.34-.83.57-.78.23.05.36.44.31.92l.4.03c.03-.48.2-.86.45-.86.24 0 .41.38.45.86l.4-.03c-.05-.48.08-.88.3-.92.24-.04.48.3.58.78l.4-.1c-.13-.46-.07-.88.16-.95.22-.07.51.23.69.68l.37-.16c-.2-.44-.2-.86 0-.96.21-.11.55.14.8.56l.34-.21c-.27-.41-.33-.83-.14-.96s.56.06.86.43l.3-.26c-.32-.36-.45-.76-.28-.92.16-.17.56-.03.92.29l.26-.3c-.38-.31-.57-.68-.43-.87.14-.2.55-.13.96.14l.2-.34c-.4-.24-.66-.58-.56-.8.1-.2.53-.2.97 0l.16-.37c-.46-.18-.75-.47-.68-.7.07-.21.49-.28.95-.16l.1-.39c-.48-.1-.83-.34-.78-.57.05-.23.44-.36.92-.31 0-.14.02-.27.03-.4-.48-.02-.86-.22-.86-.45Zm-3.34-4.33a.59.59 0 1 1 0 1.17.59.59 0 0 1 0-1.17ZM4.43 7.84a.59.59 0 1 1 .6 1.01.59.59 0 0 1-.6-1Zm5.33 8.35a1.27 1.27 0 0 1-.95.33 3.62 3.62 0 0 1-1.51-.39 6.79 6.79 0 0 1-2.51-2.04c-.59-.73-1-1.59-1.21-2.5-.1-.37-.11-.75-.05-1.12a1.03 1.03 0 0 1 1.23-.91c.48.07.94.25 1.35.52a9.51 9.51 0 0 1 2.33 2.04c.35.4.67.85.94 1.31.34.52.56 1.1.67 1.7.04.39.01.76-.29 1.06Zm.24-4.56a1.62 1.62 0 1 1 0-3.25 1.62 1.62 0 0 1 0 3.25Zm1.72 4.05a.59.59 0 1 1-1.02-.6.59.59 0 0 1 1.02.6Zm-2.77-8.1c-.53.1-1.07.16-1.6.16a4.58 4.58 0 0 1-1.81-.27 1.16 1.16 0 0 1-.78-.77 1.27 1.27 0 0 1 .2-1c.27-.44.65-.82 1.09-1.1a6.8 6.8 0 0 1 5.79-.95c.36.1.7.28 1 .52A1.03 1.03 0 0 1 13 5.7c-.3.38-.69.7-1.12.91a9.5 9.5 0 0 1-2.93.99Zm7.2 4.9a6.38 6.38 0 0 1-1.56 2.3c-.28.26-.6.46-.95.58a1.03 1.03 0 0 1-1.4-.61 3.33 3.33 0 0 1-.23-1.44 9.56 9.56 0 0 1 1.27-4.5c.28-.55.67-1.03 1.14-1.42.31-.24.65-.4 1.05-.3a1.27 1.27 0 0 1 .77.67c.24.46.39.98.41 1.5.1 1.1-.08 2.2-.5 3.22Z"/>
</svg>