<svg xmlns="http://www.w3.org/2000/svg" viewBox="0 0 20 20">
  <rect width="100%" height="100%" fill="#407DAE"/>
  <path fill="#fff" d="M12.103 1.008s-2.046.32-2.046 1.45S11.2 3.993 11.2 4.964c0 .97-.993 1.286-1.837 1.286S6.29 5.9 6.267 5.896c.206.038.26 2.966.248 3.226-.017.398-.093.809-.33 1.14-.197.282-.533.502-.892.48-.502-.026-.925-.477-1.318-.734-.426-.279-.911-.536-1.445-.536-1.575 0-1.806 1.953-1.27 2.971.18.345.486.645.872.761.401.12.841.035 1.225-.127.384-.162.728-.393 1.1-.58.32-.163.692-.295 1.042-.2.364.101.607.427.754.756.341.767.324 1.637.197 2.46-.03.203-.07.405-.113.607-.039.18-.217.53-.18.705.04.204.192.17.387.173.33.005.663 0 .996 0h9.175s.282-2.364.282-3.12c0-.756-.395-1.517-1.2-1.517-.804 0-1.238 1.111-2.55 1.111-1.313 0-1.838-1.533-1.838-2.098s.263-2.027 1.764-2.027c1.502 0 1.389 1.218 2.608 1.218S17 8.591 17 8.591V5.822s-4.07 1.287-4.07-.812c-.056-1.146 1.332-.864 1.332-2.52 0-1.655-2.156-1.485-2.156-1.485l-.003.003Z"/>
</svg>
