<svg  viewBox="0 0 20 20" fill="none" xmlns="http://www.w3.org/2000/svg">
<path d="M0 0H20V20H0V0Z" fill="#005982"/>
<path d="M10.9467 7.57614V7.49771C10.9464 7.46603 10.9388 7.43485 10.9243 7.40667C10.7394 6.67979 9.36829 5.96411 6.97336 5.96411C4.57843 5.96411 3.2101 6.67839 3.02383 7.39967C3.00777 7.42983 2.99958 7.46355 3.00002 7.49771V14.1041C2.99992 14.1343 3.00653 14.1642 3.01937 14.1915C3.0322 14.2189 3.05094 14.2431 3.07425 14.2623C3.39077 14.9374 4.73529 15.562 6.97476 15.562C9.21423 15.562 10.563 14.936 10.8739 14.2623C10.8967 14.2431 10.9151 14.2191 10.9277 14.192C10.9403 14.1649 10.9468 14.1354 10.9467 14.1055V13.9514V11.796V7.57614ZM10.5349 13.9514C10.5349 14.5116 9.06998 15.1475 6.97476 15.1475C4.87955 15.1475 3.41318 14.5158 3.41318 13.95V12.5243C4.00141 13.0187 5.21008 13.4066 6.97476 13.4066C8.73945 13.4066 9.94672 13.0187 10.5349 12.5243V13.9514ZM10.5349 11.7988C10.5349 12.359 9.06998 12.9948 6.97476 12.9948C4.87955 12.9948 3.41318 12.3632 3.41318 11.796V10.415C4.00141 10.9094 5.21008 11.2974 6.97476 11.2974C8.73945 11.2974 9.94672 10.9094 10.5349 10.415V11.7988ZM10.5349 9.68816C10.5349 10.2484 9.06998 10.8842 6.97476 10.8842C4.87955 10.8842 3.41318 10.2526 3.41318 9.68536V8.30442C4.00141 8.79881 5.21008 9.18676 6.97476 9.18676C8.73945 9.18676 9.94532 8.80021 10.5349 8.30442V9.68816ZM10.5349 7.57754C10.5349 8.13776 9.06998 8.7736 6.97476 8.7736C4.87955 8.7736 3.41318 8.14336 3.41318 7.57614C3.41318 7.00892 4.87535 6.37727 6.97336 6.37727C9.07138 6.37727 10.5293 7.00752 10.5335 7.57334L10.5349 7.57754Z" fill="white"/>
<path d="M13.3374 4.83936L11.4565 6.42197L13.3374 8.00599L13.7716 7.56622L12.3879 6.41637L13.7716 5.28053L13.3374 4.83936Z" fill="white"/>
<path d="M15.4999 7.97097C15.5557 7.99442 15.6158 8.00633 15.6763 8.00599C15.7374 8.00625 15.7978 7.99434 15.8542 7.97097C15.9067 7.94809 15.9542 7.91528 15.9943 7.87434C16.0352 7.83399 16.0684 7.78653 16.0923 7.73428C16.1162 7.67974 16.1285 7.62085 16.1285 7.56131C16.1285 7.50178 16.1162 7.44289 16.0923 7.38835C16.0684 7.33612 16.0352 7.28866 15.9943 7.24829C15.9542 7.20738 15.9067 7.17457 15.8542 7.15166C15.7981 7.12943 15.7381 7.11848 15.6777 7.11944C15.6182 7.11907 15.5592 7.13051 15.5042 7.15311C15.4491 7.17571 15.3991 7.20901 15.357 7.25109C15.3161 7.29142 15.2829 7.33889 15.259 7.39115C15.235 7.44567 15.2227 7.50457 15.2227 7.56412C15.2227 7.62367 15.235 7.68257 15.259 7.73708C15.2828 7.78936 15.3161 7.83683 15.357 7.87714C15.3982 7.91729 15.4467 7.94915 15.4999 7.97097V7.97097Z" fill="white"/>
<path d="M16.5755 4.37292C16.4148 4.25149 16.2336 4.15993 16.0405 4.10262C15.7969 4.03043 15.5438 3.99595 15.2898 4.00038H15.0965V4.63342H15.2618C15.4132 4.63072 15.5643 4.64766 15.7114 4.68384C15.8217 4.71144 15.9261 4.7589 16.0195 4.8239C16.0933 4.87408 16.1534 4.94183 16.1945 5.02105C16.2356 5.10026 16.2563 5.18846 16.2548 5.27768C16.255 5.34048 16.245 5.40291 16.2254 5.46255C16.2062 5.52046 16.1747 5.57351 16.1329 5.61801C16.0874 5.66519 16.0319 5.70156 15.9705 5.72445C15.8952 5.75212 15.8154 5.76542 15.7352 5.76366H15.3248L15.3752 6.81267H15.9579L15.9859 6.28887C16.1308 6.27119 16.2723 6.23251 16.406 6.17402C16.5257 6.12075 16.634 6.04517 16.7254 5.95134C16.8145 5.8596 16.8836 5.7504 16.9284 5.63061C16.9779 5.49614 17.0021 5.3537 16.9999 5.21045C16.9996 5.05332 16.9627 4.89842 16.892 4.75807C16.8168 4.60755 16.7086 4.47591 16.5755 4.37292V4.37292Z" fill="white"/>
</svg>
