<svg viewBox="0 0 20 20" fill="none" xmlns="http://www.w3.org/2000/svg">
<rect width="20" height="20" fill="#5A45FF"/>
<path fill-rule="evenodd" clip-rule="evenodd" d="M10 17C4.35438 17 3 15.6456 3 10C3 4.35438 4.35438 3 10 3C15.6456 3 17 4.35438 17 10C17 15.6456 15.6456 17 10 17ZM8.01834 6.46435L5.82281 11.4542C5.72301 11.6966 5.63747 12.0102 5.63747 12.2811C5.63747 13.5214 6.50713 14.3911 7.74744 14.3911C8.15391 14.3911 8.49142 14.2843 8.83462 14.1757C9.18948 14.0634 9.55068 13.9491 10 13.9491C10.4546 13.9491 10.8069 14.0623 11.1549 14.1741C11.4945 14.2832 11.8301 14.3911 12.2525 14.3911C13.4928 14.3911 14.3625 13.5214 14.3625 12.2811C14.3625 12.0102 14.277 11.6966 14.1772 11.4542L11.9817 6.46435C11.611 5.62322 10.8982 5.16701 10 5.16701C9.10182 5.16701 8.38899 5.62322 8.01834 6.46435ZM7.83299 12.2383L10 7.33405L12.1385 12.2383C11.5255 11.9389 10.7556 11.7964 10 11.7964C9.21588 11.7964 8.47454 11.9389 7.83299 12.2383Z" fill="white"/>
</svg>
