<svg xmlns="http://www.w3.org/2000/svg" viewBox="0 0 20 20">
  <rect width="100%" height="100%" fill="#2C5BB4"/>
  <path fill="#fff" fill-rule="evenodd" d="M18 10a8 8 0 1 1-16 0 8 8 0 0 1 16 0ZM6.33 3.59a7.4 7.4 0 0 0-3.58 7.83l.01-.1 3.18.34a.87.87 0 0 1 1.26-.58L9 8.47a1.66 1.66 0 0 1-.23-2.39l-2.5-2.42.06-.07ZM4.78 15.22a7.39 7.39 0 0 1-2.01-3.7l3.14.34c0 .36.22.67.54.8l-.5 1.66a.5.5 0 0 0-.53.5c0 .24.17.44.4.48v.79a7.39 7.39 0 0 1-1.04-.87Zm1.14.94a7.39 7.39 0 0 0 8.69-.38l-.1.04-.19-.45a.5.5 0 0 1-.38-.9l-.44-1.03a.87.87 0 0 1-1.06-.52l-1.71.46v.02a.5.5 0 1 1-.98-.1l-2.22-1a.87.87 0 0 1-.9.41l-.48 1.67a.5.5 0 0 1-.14.92v.86h-.1Zm1.7-4.04 2.21 1a.5.5 0 0 1 .84.06l1.72-.45a.88.88 0 0 1 .33-.82l-1.94-3.27a1.65 1.65 0 0 1-1.61-.06L7.36 11.2a.87.87 0 0 1 .26.92Zm6.06 1.24.45 1.04a.5.5 0 0 1 .37.89l.19.42a7.39 7.39 0 0 0 1.87-2.31l-2.48-.52a.87.87 0 0 1-.4.48Zm-2-6.2c0 .57-.29 1.08-.73 1.37l1.95 3.28c.1-.05.23-.08.35-.08a.87.87 0 0 1 .87.95l2.5.53-.01.1a7.39 7.39 0 0 0-.9-8l.03.1-1.03.33v.07a.5.5 0 0 1-.92.23l-2.16.7c.03.14.05.28.05.42ZM6.43 3.53l2.48 2.4a1.65 1.65 0 0 1 2.66.62l2.16-.7v-.04a.5.5 0 0 1 .92-.26l1-.32a7.37 7.37 0 0 0-9.22-1.7Z" clip-rule="evenodd"/>
</svg>