<svg xmlns="http://www.w3.org/2000/svg" viewBox="0 0 80 80"><defs><style>.a{fill:#2c5bb4}</style></defs><path class="a" d="M80 40A40 40 0 1140 0a40 40 0 0140 40zM40 3.06A36.94 36.94 0 1076.94 40 36.94 36.94 0 0040 3.06z"/><circle class="a" cx="40.12" cy="25.81" r="8.29"/><circle class="a" cx="56.26" cy="53.02" r="4.36"/><circle class="a" cx="23.93" cy="49.27" r="4.36"/><circle class="a" cx="41.16" cy="57.02" r="2.47"/><circle class="a" cx="61.12" cy="64.41" r="2.47"/><circle class="a" cx="19.57" cy="64.08" r="2.47"/><circle class="a" cx="61.12" cy="19.04" r="2.47"/><path class="a" d="M39.99 26.38L21.34 8.28l.69-.73 18.22 17.69 28.16-9.15.31.96-28.73 9.33z"/><path class="a" d="M72.94 57.02l-17-3.56-15.85-26.72L24.17 49.8 3.69 47.59l.11-1 19.89 2.15 16.46-23.86 16.43 27.69 16.56 3.47-.2.98z"/><path class="a" d="M20.07 70.78h-1l.02-6.84 4.52-15.36 17.6 7.91 15.34-4.07 6.93 16.27-.92.39-6.59-15.46-14.85 3.93-16.87-7.58-4.18 14.19v6.62z"/></svg>