<svg viewBox="0 0 20 20" xmlns="http://www.w3.org/2000/svg">
<rect width="100%" height="100%" fill="#FF9900"/>
<path d="M15.774 14.9176C9.29726 18 5.27771 15.4211 2.70466 13.8546C2.54544 13.7559 2.27482 13.8777 2.50962 14.1474C3.36683 15.1868 6.17609 17.692 9.84299 17.692C13.5124 17.692 15.6954 15.6898 15.9685 15.3405C16.2397 14.9942 16.0481 14.8032 15.774 14.9176H15.774ZM17.593 13.9131C17.4191 13.6866 16.5354 13.6443 15.9793 13.7127C15.4223 13.779 14.5863 14.1194 14.6589 14.3238C14.6962 14.4004 14.7724 14.366 15.155 14.3316C15.5387 14.2933 16.6135 14.1577 16.8375 14.4505C17.0625 14.7453 16.4947 16.1496 16.391 16.3761C16.2908 16.6026 16.4293 16.661 16.6175 16.5102C16.8031 16.3594 17.1391 15.9689 17.3646 15.4163C17.5886 14.8606 17.7252 14.0855 17.593 13.9131Z" fill="white"/>
<path fill-rule="evenodd" clip-rule="evenodd" d="M11.4191 8.62799C11.4191 9.43676 11.4395 10.1112 11.0307 10.8295C10.7008 11.4135 10.1782 11.7726 9.59421 11.7726C8.79706 11.7726 8.33282 11.1653 8.33282 10.2689C8.33282 8.49948 9.91824 8.17834 11.4191 8.17834V8.62799ZM13.5126 13.688C13.3753 13.8106 13.1768 13.8194 13.0221 13.7376C12.333 13.1654 12.2103 12.8997 11.8308 12.3537C10.6921 13.5158 9.88618 13.8632 8.40877 13.8632C6.66272 13.8632 5.30206 12.7858 5.30206 10.628C5.30206 8.94335 6.21602 7.79583 7.51525 7.23527C8.64234 6.73884 10.2161 6.65126 11.4191 6.51408V6.24543C11.4191 5.75195 11.457 5.16801 11.168 4.74174C10.9139 4.35924 10.4293 4.20155 10.0029 4.20155C9.2117 4.20155 8.50509 4.60739 8.33282 5.44829C8.29774 5.6352 8.16056 5.81916 7.9737 5.8279L5.959 5.61188C5.78969 5.57384 5.60284 5.43666 5.64955 5.17675C6.11379 2.73584 8.31818 2 10.2919 2C11.3022 2 12.622 2.26865 13.4191 3.03366C14.4294 3.97673 14.333 5.23515 14.333 6.60455V9.8397C14.333 10.812 14.7359 11.2383 15.1155 11.7639C15.2498 11.9507 15.279 12.1756 15.1096 12.3157C14.6863 12.669 13.9329 13.326 13.5184 13.6939L13.5125 13.688" fill="white"/>
<path d="M15.774 14.9176C9.29726 18 5.27771 15.4211 2.70466 13.8546C2.54544 13.7559 2.27482 13.8777 2.50962 14.1474C3.36683 15.1868 6.17609 17.692 9.84299 17.692C13.5124 17.692 15.6954 15.6898 15.9685 15.3405C16.2397 14.9942 16.0481 14.8032 15.774 14.9176H15.774ZM17.593 13.9131C17.4191 13.6866 16.5354 13.6443 15.9793 13.7127C15.4223 13.779 14.5863 14.1194 14.6589 14.3238C14.6962 14.4004 14.7724 14.366 15.155 14.3316C15.5387 14.2933 16.6135 14.1577 16.8375 14.4505C17.0625 14.7453 16.4947 16.1496 16.391 16.3761C16.2908 16.6026 16.4293 16.661 16.6175 16.5102C16.8031 16.3594 17.1391 15.9689 17.3646 15.4163C17.5886 14.8606 17.7252 14.0855 17.593 13.9131Z" fill="white"/>
<path fill-rule="evenodd" clip-rule="evenodd" d="M11.4191 8.62799C11.4191 9.43676 11.4395 10.1112 11.0307 10.8295C10.7008 11.4135 10.1782 11.7726 9.59421 11.7726C8.79706 11.7726 8.33282 11.1653 8.33282 10.2689C8.33282 8.49948 9.91824 8.17834 11.4191 8.17834V8.62799ZM13.5126 13.688C13.3753 13.8106 13.1768 13.8194 13.0221 13.7376C12.333 13.1654 12.2103 12.8997 11.8308 12.3537C10.6921 13.5158 9.88618 13.8632 8.40877 13.8632C6.66272 13.8632 5.30206 12.7858 5.30206 10.628C5.30206 8.94335 6.21602 7.79583 7.51525 7.23527C8.64234 6.73884 10.2161 6.65126 11.4191 6.51408V6.24543C11.4191 5.75195 11.457 5.16801 11.168 4.74174C10.9139 4.35924 10.4293 4.20155 10.0029 4.20155C9.2117 4.20155 8.50509 4.60739 8.33282 5.44829C8.29774 5.6352 8.16056 5.81916 7.9737 5.8279L5.959 5.61188C5.78969 5.57384 5.60284 5.43666 5.64955 5.17675C6.11379 2.73584 8.31818 2 10.2919 2C11.3022 2 12.622 2.26865 13.4191 3.03366C14.4294 3.97673 14.333 5.23515 14.333 6.60455V9.8397C14.333 10.812 14.7359 11.2383 15.1155 11.7639C15.2498 11.9507 15.279 12.1756 15.1096 12.3157C14.6863 12.669 13.9329 13.326 13.5184 13.6939L13.5125 13.688" fill="white"/>
</svg>
