<svg xmlns="http://www.w3.org/2000/svg" viewBox="0 0 80 80"><defs><style>.a{fill:#f90}.a,.b{fill-rule:evenodd}</style></defs><path class="a" d="M49.63 46.8c-4.63 3.43-11.39 5.25-17.19 5.25a31.09 31.09 0 01-21-8c-.43-.39 0-.93.48-.62a42.25 42.25 0 0021 5.57 41.74 41.74 0 0016-3.28c.79-.33 1.45.52.68 1.09"/><path class="a" d="M51.53 44.85c-.6-.86-4-.41-5.5-.21-.47.07-.54-.38-.12-.7 2.7-2.1 7.12-1.5 7.64-.79s-.14 5.62-2.67 8c-.39.36-.76.17-.59-.31.57-1.57 1.85-5.1 1.24-5.95"/><path class="b" d="M46.24 30.58v-1.82a.45.45 0 01.46-.46h8.14a.45.45 0 01.47.46v1.56a2.51 2.51 0 01-.61 1.14l-4.22 6a9 9 0 014.64 1 .81.81 0 01.43.7v1.94c0 .27-.29.58-.6.42a9.34 9.34 0 00-8.59 0c-.29.15-.58-.15-.58-.42v-1.81a2.18 2.18 0 01.3-1.25L51 31h-4.29a.45.45 0 01-.47-.45M16.56 41.92h-2.48a.45.45 0 01-.44-.42V28.79a.46.46 0 01.47-.45h2.31a.46.46 0 01.45.42v1.66h.05a3.4 3.4 0 016.47 0 3.66 3.66 0 016.29-1c.78 1.07.62 2.62.62 4v8a.47.47 0 01-.48.46h-2.47a.48.48 0 01-.45-.46v-6.69a15.79 15.79 0 00-.07-2.39 1.29 1.29 0 00-1.45-1.09 1.64 1.64 0 00-1.48 1 7.56 7.56 0 00-.23 2.44v6.73a.47.47 0 01-.48.46h-2.47a.48.48 0 01-.45-.46v-6.69c0-1.42.23-3.51-1.53-3.51S17 33.26 17 34.73v6.73a.46.46 0 01-.47.46M62.32 28.07c3.68 0 5.68 3.15 5.68 7.16s-2.2 7-5.66 7-5.6-3.23-5.6-7.13 2-7 5.58-7m0 2.59c-1.83 0-1.94 2.49-1.94 4s0 4.87 1.92 4.87 2-2.68 2-4.31a11.9 11.9 0 00-.3-3.36 1.56 1.56 0 00-1.62-1.23M72.74 41.92h-2.46a.48.48 0 01-.45-.46V28.75a.46.46 0 01.48-.41h2.29a.46.46 0 01.44.35v1.94c.69-1.73 1.66-2.56 3.37-2.56a3.24 3.24 0 012.89 1.5c.65 1 .65 2.72.65 4v8a.48.48 0 01-.48.4H77a.47.47 0 01-.44-.4v-6.9c0-1.39.16-3.43-1.55-3.43a1.63 1.63 0 00-1.43 1 5.61 5.61 0 00-.39 2.41v6.84a.48.48 0 01-.49.46M39.75 35.85a4.83 4.83 0 01-.46 2.63 2 2 0 01-1.71 1.12c-.95 0-1.51-.72-1.51-1.79 0-2.11 1.89-2.5 3.68-2.5v.54m2.5 6a.51.51 0 01-.58 0 5.6 5.6 0 01-1.42-1.65 4.91 4.91 0 01-4.09 1.8 3.51 3.51 0 01-3.7-3.85 4.21 4.21 0 012.64-4.05 17.05 17.05 0 014.65-.86V33a3.12 3.12 0 00-.3-1.79 1.65 1.65 0 00-1.39-.65 1.9 1.9 0 00-2 1.49.51.51 0 01-.43.45l-2.4-.26a.44.44 0 01-.37-.52c.55-2.91 3.19-3.78 5.54-3.78a5.61 5.61 0 013.73 1.23c1.2 1.12 1.09 2.62 1.09 4.26v3.87a3.39 3.39 0 00.93 2.29.47.47 0 010 .66c-.5.42-1.4 1.2-1.9 1.64M7.3 35.85a4.84 4.84 0 01-.47 2.63 2 2 0 01-1.71 1.12c-1 0-1.51-.72-1.51-1.79 0-2.11 1.9-2.5 3.69-2.5v.54m2.49 6a.51.51 0 01-.58 0 5.91 5.91 0 01-1.42-1.65A4.89 4.89 0 013.71 42 3.51 3.51 0 010 38.24a4.21 4.21 0 012.64-4.05 17.06 17.06 0 014.66-.86V33a3.2 3.2 0 00-.3-1.78 1.66 1.66 0 00-1.39-.65 1.9 1.9 0 00-2 1.49.51.51 0 01-.42.45l-2.41-.26a.44.44 0 01-.37-.52C1 28.82 3.6 28 6 28a5.61 5.61 0 013.73 1.23c1.21 1.12 1.09 2.62 1.09 4.26v3.81a3.39 3.39 0 00.93 2.29.47.47 0 010 .66c-.51.42-1.41 1.2-1.9 1.64"/></svg>