<svg xmlns="http://www.w3.org/2000/svg" viewBox="0 0 20 20">
  <rect width="100%" height="100%" fill="#fff"/>
  <mask id="a" width="16" height="14" x="4" y="2" maskUnits="userSpaceOnUse" style="mask-type:luminance">
    <path fill="#fff" d="M4.096 2.5H19.5v13.265H4.096V2.5Z"/>
  </mask>
  <g mask="url(#a)">
    <path fill="#C30F2E" d="M11.798 2.5 19.5 15.765H4.096L11.798 2.5Z"/>
  </g>
  <mask id="b" width="14" height="12" x="0" y="4" maskUnits="userSpaceOnUse" style="mask-type:luminance">
    <path fill="#fff" d="M.5 4.476h13.11V15.8H.5V4.476Z"/>
  </mask>
  <g mask="url(#b)">
    <path fill="#DD0330" d="M7.055 4.476 13.609 15.8H.5L7.055 4.476Z"/>
  </g>
  <path fill="#fff" d="M18.194 12.413H1.848v-.177h16.346v.177Z"/>
  <mask id="c" width="16" height="8" x="2" y="8" maskUnits="userSpaceOnUse" style="mask-type:luminance">
    <path fill="#fff" d="M2.537 8.965h14.685v6.066H2.537V8.965Z"/>
  </mask>
  <g mask="url(#c)">
    <path fill="#fff" d="M15.669 15.005a.246.246 0 0 1-.174-.076c-.3-.298-.314-1.508-.3-3.321.009-.991.02-2.348-.14-2.455-.156.064-.172 1.185-.182 1.927-.012.864-.024 1.757-.166 2.212-.043.135-.098.258-.207.248-.155-.013-.205-.255-.32-1.207-.049-.396-.098-.805-.157-.963a.79.79 0 0 0-.02-.048c-.062.138-.133.519-.183.783-.069.364-.134.708-.215.859-.063.115-.163.265-.302.236-.19-.039-.247-.417-.264-.638 0-1.865-.247-2.082-.296-2.107l-.008.006-.012-.003c-.177.076-.186.681-.195 1.266-.007.429-.015.915-.078 1.37-.083.59-.182.704-.306.697-.285-.02-.293-.988-.293-1.098 0-.035 0-.076.002-.12.005-.226.015-.645-.125-.778-.019-.017-.045-.037-.065-.032-.1.025-.204.346-.239.451-.01.034-.02.061-.027.08a2.376 2.376 0 0 0-.021.064c-.076.227-.162.454-.31.51a.19.19 0 0 1-.164-.014c-.07-.04-.128-.12-.182-.255-.03-.075-.054-.15-.08-.226-.031-.092-.063-.188-.103-.279-.03-.07-.109-.102-.207-.085-.206.036-.24.24-.27.55-.004.053-.01.106-.016.155-.001.015-.037.467-.06.611-.065.395-.15.55-.29.54-.345-.03-.504-1.527-.495-2.16.006-.483-.082-.659-.135-.687-.006-.002-.014-.007-.034.007-.063.042-.119.172-.101.309.19 1.489.05 3.194-.294 3.578-.109.12-.256.119-.36.017-.3-.298-.312-1.508-.298-3.321.008-.991.019-2.348-.14-2.455-.157.064-.172 1.185-.183 1.927-.012.864-.024 1.757-.166 2.212-.043.135-.097.258-.207.248-.155-.013-.205-.255-.32-1.207-.049-.396-.098-.805-.157-.963a.548.548 0 0 0-.02-.048c-.061.138-.133.519-.183.783-.068.364-.133.708-.215.859-.063.115-.163.265-.302.236-.19-.039-.246-.417-.263-.638 0-1.865-.247-2.082-.297-2.107l-.008.006-.012-.003c-.176.076-.186.681-.195 1.266-.007.429-.015.915-.078 1.37-.082.59-.18.705-.305.697-.286-.02-.294-.988-.294-1.098l.002-.12c.006-.226.016-.645-.125-.778-.018-.017-.045-.037-.065-.032-.1.025-.204.346-.238.451a3.327 3.327 0 0 1-.05.144c-.075.227-.16.454-.308.51a.19.19 0 0 1-.164-.014c-.071-.04-.129-.12-.182-.255a4.486 4.486 0 0 1-.08-.226c-.032-.092-.064-.188-.104-.279-.03-.07-.108-.102-.207-.085-.237.041-.293.33-.338.677l-.008.061-.179-.023.009-.06c.039-.304.098-.762.484-.83.182-.031.34.043.405.19.042.098.076.197.108.294.024.072.049.145.077.216.05.125.09.158.104.166.09-.028.182-.306.213-.397l.024-.071.025-.072c.08-.251.183-.523.364-.568.056-.014.142-.013.235.075.198.187.187.622.18.91l-.002.116c0 .46.07.78.122.89.027-.056.074-.192.119-.513.061-.444.07-.925.076-1.349.012-.75.02-1.294.295-1.422a.187.187 0 0 1 .181-.002c.266.132.395.87.395 2.258.017.214.076.44.124.472 0-.005.039-.028.103-.147.069-.126.137-.488.197-.808.133-.704.194-.951.35-.964.12-.012.176.138.2.202.065.177.114.578.165 1.002.04.329.097.799.155.989.007-.017.014-.037.021-.062.135-.43.147-1.31.16-2.161.016-1.183.037-1.916.255-2.069a.183.183 0 0 1 .166-.023c.256.084.276.825.261 2.623-.01 1.305-.023 2.928.247 3.195.023.024.04.024.046.024.013 0 .03-.012.05-.034.273-.305.446-1.906.25-3.438-.024-.19.05-.39.177-.477a.21.21 0 0 1 .221-.017c.16.083.237.368.23.846-.01.834.192 1.81.325 1.966.021-.034.063-.129.102-.377.023-.136.06-.597.06-.601.007-.053.012-.103.016-.154.028-.288.061-.645.417-.707.181-.032.34.042.404.189.043.098.076.197.109.294.024.072.049.145.077.216.05.125.089.158.103.166.09-.028.183-.306.213-.397l.025-.071.024-.072c.082-.251.184-.523.365-.568.055-.014.141-.013.234.075.198.187.188.622.181.91a4.06 4.06 0 0 0-.002.116c0 .46.069.78.122.89.027-.056.073-.192.118-.513.062-.444.07-.925.077-1.349.011-.75.02-1.294.295-1.422a.188.188 0 0 1 .181-.002c.266.132.395.87.395 2.258.017.214.075.44.123.472 0-.005.04-.028.104-.147.069-.126.137-.488.197-.808.133-.704.193-.951.35-.964.12-.012.176.138.2.202.065.177.113.578.165 1.002.04.329.097.799.155.989.006-.017.014-.037.021-.062.135-.43.147-1.31.159-2.161.016-1.183.037-1.916.256-2.069a.184.184 0 0 1 .166-.023c.256.084.275.825.26 2.623-.01 1.305-.022 2.928.247 3.195.024.024.04.024.047.024.012 0 .03-.012.049-.034.274-.305.446-1.906.25-3.438-.025-.2.032-.4.137-.478a.175.175 0 0 1 .176-.023c.152.064.256.34.316.841.025.21.047.438.069.662.047.49.112 1.15.2 1.295.026-.034.08-.125.162-.369l.17.055c-.125.378-.224.52-.352.506-.2-.022-.257-.42-.36-1.47-.02-.223-.043-.449-.068-.658-.077-.64-.207-.699-.208-.699-.025.013-.084.146-.063.316.19 1.489.05 3.194-.294 3.578a.247.247 0 0 1-.184.093Z"/>
  </g>
</svg>
