<svg viewBox="0 0 20 20" xmlns="http://www.w3.org/2000/svg">
  <rect width="100%" height="100%" fill="white"/>
  <path d="M18.9497 13.5877C18.9438 13.5509 18.9382 13.5144 18.9321 13.478C18.8949 13.252 18.8486 13.0287 18.7949 12.8084C18.7005 12.4235 18.5818 12.0479 18.44 11.6842C18.3202 11.3761 18.1839 11.0764 18.0325 10.7859C17.8378 10.4129 17.6183 10.0549 17.3757 9.71433C17.0784 9.29703 16.7462 8.90607 16.3836 8.54581C16.2314 8.3944 16.0739 8.24828 15.9114 8.10829C15.5592 7.80421 15.1829 7.52733 14.7866 7.27984C14.7901 7.27411 14.793 7.26799 14.7965 7.26227C14.9781 6.94854 15.1602 6.6352 15.3418 6.32147C15.5193 6.01518 15.6969 5.70888 15.8744 5.40261C16.0023 5.18276 16.1298 4.96247 16.2569 4.74263C16.2871 4.6904 16.3109 4.63643 16.3288 4.58116C16.3785 4.42713 16.3807 4.26521 16.3408 4.11468C16.3307 4.0774 16.3184 4.04098 16.3034 4.00544C16.2884 3.96987 16.271 3.93522 16.2512 3.90187C16.1833 3.78779 16.0862 3.68861 15.9643 3.61619C15.8565 3.55215 15.7359 3.51396 15.6124 3.50299C15.5605 3.49861 15.5084 3.49904 15.4565 3.5043C15.4137 3.50869 15.3712 3.51661 15.3289 3.52757C15.1786 3.56749 15.039 3.64999 14.9305 3.76934C14.8914 3.81234 14.8561 3.85975 14.8259 3.91195C14.6984 4.13179 14.5708 4.35209 14.4435 4.57193L13.9108 5.4908C13.7292 5.80456 13.5471 6.11786 13.3656 6.43162C13.3458 6.46582 13.3257 6.50005 13.3059 6.53474C13.2784 6.52375 13.2511 6.51278 13.2236 6.50225C12.2224 6.12048 11.1361 5.91163 10.0007 5.91163C9.96965 5.91163 9.9389 5.91163 9.90761 5.91206C8.89811 5.92214 7.9282 6.09767 7.02326 6.41274C6.9187 6.44916 6.81522 6.48778 6.71253 6.52816C6.69408 6.49612 6.67509 6.46409 6.6569 6.43205C6.47533 6.11829 6.29322 5.80499 6.11165 5.49123C5.93408 5.18496 5.75652 4.87866 5.57895 4.57236C5.45113 4.35252 5.32357 4.13225 5.19655 3.91241C5.16606 3.86018 5.13103 3.8128 5.09199 3.76979C4.98342 3.65042 4.84383 3.56792 4.69354 3.528C4.65129 3.51703 4.60877 3.50914 4.56572 3.50476C4.51411 3.49949 4.46196 3.49904 4.41008 3.50342C4.28654 3.51396 4.16593 3.55215 4.05789 3.61665C3.93595 3.68904 3.83968 3.78822 3.77123 3.9023C3.75144 3.93565 3.73379 3.97033 3.71908 4.00587C3.7041 4.04141 3.69127 4.07783 3.68164 4.11513C3.6418 4.26564 3.64394 4.42756 3.69341 4.58159C3.71159 4.63689 3.73513 4.69085 3.76534 4.74308C3.89317 4.96292 4.02072 5.18319 4.14775 5.40303C4.32558 5.70933 4.50314 6.01563 4.68071 6.3219C4.86228 6.63566 5.04412 6.94896 5.2257 7.26272C5.22704 7.26534 5.22891 7.26799 5.23024 7.27061C4.86388 7.49837 4.51544 7.75067 4.18652 8.02667C3.98944 8.19212 3.79957 8.36544 3.61773 8.54666C3.25538 8.90693 2.92352 9.29791 2.62562 9.71522C2.3828 10.0557 2.16299 10.4134 1.96885 10.7868C1.81749 11.0773 1.68111 11.377 1.5613 11.6851C1.41957 12.0488 1.30084 12.4244 1.20644 12.8093C1.15269 13.0296 1.10697 13.2525 1.06926 13.4789C1.06311 13.5153 1.05749 13.5522 1.05188 13.5886C1.03155 13.7198 1.01444 13.8519 1 13.9849H19C18.9856 13.8519 18.9684 13.7198 18.9484 13.5886L18.9497 13.5877Z" fill="#34A853"/>
  <path d="M14.7989 10.2564C15.0947 10.7009 15.0423 11.2556 14.682 11.4954C14.3221 11.7352 13.7905 11.5692 13.495 11.1247C13.1992 10.6802 13.2516 10.1255 13.6118 9.88575C13.9718 9.64598 14.5034 9.81191 14.7989 10.2564Z" fill="#202124"/>
  <path d="M6.40392 9.8873C6.76413 10.1271 6.81654 10.6818 6.52078 11.1263C6.22529 11.5707 5.69366 11.7367 5.33345 11.4969C4.97351 11.2571 4.9211 10.7024 5.21659 10.2579C5.51235 9.81346 6.04371 9.6475 6.40392 9.8873Z" fill="#202124"/>
</svg>
