<svg viewBox="0 0 20 20" xmlns="http://www.w3.org/2000/svg">
<rect width="100%" height="100%" fill="#34A853"/>
<path fill-rule="evenodd" clip-rule="evenodd" d="M18.945 13.5577C18.9465 13.5677 18.9481 13.5777 18.9497 13.5877L18.9484 13.5886C18.9684 13.7198 18.9856 13.8519 19 13.9848H1C1.01444 13.8519 1.03155 13.7198 1.05188 13.5886L1.05353 13.5779C1.0586 13.5449 1.06371 13.5117 1.06926 13.4789C1.10697 13.2525 1.15269 13.0296 1.20644 12.8093C1.30084 12.4244 1.41957 12.0488 1.5613 11.6851C1.68111 11.377 1.81749 11.0773 1.96885 10.7868C2.16299 10.4134 2.3828 10.0557 2.62562 9.71522C2.92352 9.29791 3.25538 8.90693 3.61773 8.54666C3.79957 8.36544 3.98944 8.19212 4.18652 8.02667C4.51544 7.75067 4.86388 7.49837 5.23024 7.27061L5.2257 7.26272C5.13494 7.1059 5.04412 6.94919 4.9533 6.79248C4.86241 6.63566 4.77153 6.47884 4.68071 6.3219L4.65373 6.27537C4.48516 5.9846 4.31657 5.69382 4.14775 5.40303C4.02072 5.18319 3.89317 4.96292 3.76534 4.74308C3.73513 4.69085 3.71159 4.63689 3.69341 4.58159C3.64394 4.42756 3.6418 4.26564 3.68164 4.11513C3.69127 4.07783 3.7041 4.04141 3.71908 4.00587C3.73379 3.97033 3.75144 3.93565 3.77123 3.9023C3.83968 3.78822 3.93595 3.68904 4.05789 3.61665C4.16593 3.55215 4.28654 3.51396 4.41008 3.50342C4.46196 3.49904 4.51411 3.49949 4.56572 3.50476C4.60877 3.50914 4.65129 3.51703 4.69354 3.528C4.84383 3.56792 4.98342 3.65042 5.09199 3.76979C5.13103 3.8128 5.16606 3.86018 5.19655 3.91241C5.32357 4.13225 5.45113 4.35252 5.57895 4.57236L6.11165 5.49123C6.2024 5.64805 6.29329 5.80477 6.38418 5.96148C6.47513 6.1183 6.56609 6.27512 6.6569 6.43205C6.6678 6.45125 6.67899 6.47045 6.69018 6.48965C6.69766 6.50248 6.70513 6.51532 6.71253 6.52816C6.81522 6.48778 6.9187 6.44916 7.02326 6.41274C7.9282 6.09767 8.89811 5.92214 9.90761 5.91206C9.9389 5.91163 9.96965 5.91163 10.0007 5.91163C11.1361 5.91163 12.2224 6.12048 13.2236 6.50225C13.2475 6.51142 13.2713 6.52092 13.2953 6.53048L13.3059 6.53474C13.3194 6.5112 13.3329 6.48787 13.3464 6.46462C13.3528 6.45361 13.3592 6.44261 13.3656 6.43162C13.4563 6.27476 13.5473 6.118 13.6382 5.96125C13.7291 5.80447 13.82 5.64769 13.9108 5.4908L14.445 4.56934C14.5718 4.35036 14.6989 4.13093 14.8259 3.91195C14.8561 3.85975 14.8914 3.81234 14.9305 3.76934C15.039 3.64999 15.1786 3.56749 15.3289 3.52757C15.3712 3.51661 15.4137 3.50869 15.4565 3.5043C15.5084 3.49904 15.5605 3.49861 15.6124 3.50299C15.7359 3.51396 15.8565 3.55215 15.9643 3.61619C16.0862 3.68861 16.1833 3.78779 16.2512 3.90187C16.271 3.93522 16.2884 3.96987 16.3034 4.00544C16.3184 4.04098 16.3307 4.0774 16.3408 4.11468C16.3807 4.26521 16.3785 4.42713 16.3288 4.58116C16.3109 4.63643 16.2871 4.6904 16.2569 4.74263C16.1298 4.96247 16.0023 5.18276 15.8744 5.40261L15.3418 6.32147C15.251 6.47823 15.1602 6.63488 15.0693 6.79153C14.9783 6.94841 14.8874 7.10529 14.7965 7.26227C14.7948 7.26513 14.7932 7.26809 14.7915 7.27105C14.7899 7.27401 14.7883 7.27698 14.7866 7.27984C15.1829 7.52733 15.5592 7.80421 15.9114 8.10829C16.0739 8.24828 16.2314 8.3944 16.3836 8.54581C16.7462 8.90607 17.0784 9.29703 17.3757 9.71433C17.6183 10.0549 17.8378 10.4129 18.0325 10.7859C18.1838 11.0764 18.3202 11.3761 18.44 11.6842C18.5818 12.0479 18.7005 12.4235 18.7949 12.8084C18.8486 13.0287 18.8949 13.252 18.9321 13.478C18.9366 13.5045 18.9407 13.531 18.945 13.5577ZM14.682 11.4953C15.0423 11.2555 15.0947 10.7008 14.7989 10.2564C14.5034 9.81185 13.9718 9.64592 13.6118 9.88569C13.2516 10.1255 13.1992 10.6802 13.495 11.1246C13.7905 11.5691 14.3221 11.7351 14.682 11.4953ZM6.52078 11.1262C6.81654 10.6817 6.76413 10.127 6.40392 9.88723C6.04371 9.64744 5.51235 9.8134 5.21659 10.2579C4.9211 10.7024 4.97351 11.2571 5.33345 11.4968C5.69366 11.7366 6.22529 11.5707 6.52078 11.1262Z" fill="white"/>
</svg>
