<svg xmlns="http://www.w3.org/2000/svg" viewBox="0 0 20 20">
  <rect width="100%" height="100%" fill="#34A853"/>
  <path fill="#fff" fill-rule="evenodd" d="M18.65 13.37v-.03a6 6 0 0 0-.15-.71 8.54 8.54 0 0 0-3.88-5.27l.01-.01v-.01l.27-.45.26-.45.52-.88a255.47 255.47 0 0 0 .43-.78.78.78 0 0 0-.35-.92.81.81 0 0 0-1 .15.8.8 0 0 0-.1.13l-.37.63-.51.88a613.53 613.53 0 0 1-.53.9l-.02.03-.04.06c-.03 0-.05-.02-.08-.03a8.82 8.82 0 0 0-3.1-.56h-.1a8.83 8.83 0 0 0-3.09.59L6.8 6.6a5.48 5.48 0 0 1-.03-.05l-.26-.45-.27-.45-.51-.88a263.97 263.97 0 0 1-.47-.76.8.8 0 0 0-1-.15.8.8 0 0 0-.35.92c.01.05.04.1.07.16a267.4 267.4 0 0 1 .85 1.46l.56.94a8.77 8.77 0 0 0-3.89 5.29 8.67 8.67 0 0 0-.14.73v.01l-.06.38h17.4a8.69 8.69 0 0 0-.05-.38Zm-4.13-2c.35-.22.4-.75.12-1.18-.29-.42-.8-.58-1.15-.35-.35.23-.4.76-.11 1.18.28.43.8.58 1.14.36Zm-8-1.53c.35.23.4.76.12 1.18-.29.43-.8.59-1.15.36-.35-.23-.4-.76-.11-1.18.28-.43.8-.59 1.15-.36Z" clip-rule="evenodd"/>
</svg>