<svg xmlns="http://www.w3.org/2000/svg" viewBox="0 0 20 20">
  <rect width="100%" height="100%" fill="#fff"/>
  <mask id="a" width="16" height="16" x="2" y="2" maskUnits="userSpaceOnUse" style="mask-type:luminance">
    <path fill="#fff" d="M2.75 2.25H17.4v15.5H2.75V2.25Z"/>
  </mask>
  <g mask="url(#a)">
    <path fill="url(#b)" d="m17.34 4.82-.53 8.27-5.04-10.84 5.57 2.57Zm-3.5 10.7-3.8 2.17-3.8-2.17.77-1.88h6.06l.78 1.88Zm-3.8-9.15 2 4.84h-4l2-4.84Zm-6.77 6.72-.52-8.27 5.56-2.57-5.04 10.84Z"/>
    <path fill="url(#c)" d="m17.34 4.82-.53 8.27-5.04-10.84 5.57 2.57Zm-3.5 10.7-3.8 2.17-3.8-2.17.77-1.88h6.06l.78 1.88Zm-3.8-9.15 2 4.84h-4l2-4.84Zm-6.77 6.72-.52-8.27 5.56-2.57-5.04 10.84Z"/>
  </g>
  <linearGradient id="b" x1="5.97" x2="17.58" y1="16.29" y2="10.77" gradientUnits="userSpaceOnUse">
    <stop stop-color="#E40035"/>
    <stop offset=".24" stop-color="#F60A48"/>
    <stop offset=".35" stop-color="#F20755"/>
    <stop offset=".49" stop-color="#DC087D"/>
    <stop offset=".74" stop-color="#9717E7"/>
    <stop offset="1" stop-color="#6C00F5"/>
  </linearGradient>
  <linearGradient id="c" x1="5.44" x2="13.04" y1="4.11" y2="12.78" gradientUnits="userSpaceOnUse">
    <stop stop-color="#FF31D9"/>
    <stop offset="1" stop-color="#FF5BE1" stop-opacity="0"/>
  </linearGradient>
</svg>