<?xml version="1.0" encoding="utf-8"?>
<!-- Generator: Adobe Illustrator 18.1.1, SVG Export Plug-In . SVG Version: 6.00 Build 0)  -->
<!DOCTYPE svg PUBLIC "-//W3C//DTD SVG 1.1 Basic//EN" "http://www.w3.org/Graphics/SVG/1.1/DTD/svg11-basic.dtd">
<svg version="1.1" baseProfile="basic" id="Layer_1"
	 xmlns="http://www.w3.org/2000/svg" xmlns:xlink="http://www.w3.org/1999/xlink" x="0px" y="0px" viewBox="0 0 64 64"
	 xml:space="preserve">
<g>
	<path fill="#010101" d="M30.993,15.917L19.772,41.383c-0.245,0.556,0.007,1.205,0.563,1.45c0.556,0.245,1.205-0.006,1.45-0.563
		l3.246-7.367h13.936l3.246,7.367c0.182,0.412,0.585,0.657,1.008,0.657c0.147,0,0.298-0.03,0.442-0.094
		c0.556-0.245,0.809-0.895,0.563-1.45L33.007,15.917c-0.176-0.399-0.571-0.657-1.007-0.657
		C31.564,15.261,31.17,15.519,30.993,15.917z M37.999,32.703H26.001L32,19.089L37.999,32.703z"/>
	<path fill="#010101" d="M53.073,15.658L32.62,8.149c-0.398-0.146-0.842-0.146-1.24,0l-20.453,7.509
		c-0.79,0.289-1.27,1.074-1.167,1.908l3.314,27.123c0.069,0.565,0.406,1.069,0.901,1.35l17.138,9.688
		c0.27,0.153,0.577,0.233,0.887,0.233c0.31,0,0.617-0.08,0.886-0.232l17.139-9.69c0.494-0.279,0.83-0.782,0.9-1.348l3.314-27.125
		C54.341,16.731,53.861,15.946,53.073,15.658z M48.766,44.223L32,53.702l-16.766-9.479l-3.251-26.608L32,10.265l20.018,7.35
		L48.766,44.223z"/>
</g>
</svg>
