<svg viewBox="0 0 20 20" xmlns="http://www.w3.org/2000/svg">
<rect width="100%" height="100%" fill="white"/>
<path d="M2.73976 17.3623L9.85804 10.0655C9.90263 10.0198 9.91118 9.94913 9.87399 9.89722C9.44098 9.29278 8.64241 9.18802 8.34638 8.78195C7.46948 7.57906 7.24699 6.89823 6.87018 6.94045C6.84386 6.94341 6.82039 6.95757 6.8019 6.97653L4.2304 9.6125C2.75107 11.1289 2.53892 14.4677 2.50001 17.2634C2.49826 17.3897 2.65153 17.4527 2.73976 17.3623Z" fill="#017CEE"/>
<path d="M17.3083 17.1818L10.0116 10.0635C9.96584 10.0189 9.89517 10.0104 9.84326 10.0475C9.23884 10.4806 9.13408 11.2791 8.72799 11.5752C7.52511 12.452 6.84427 12.6746 6.8865 13.0514C6.88945 13.0777 6.90362 13.1012 6.92258 13.1196L9.55855 15.6911C11.075 17.1705 14.4137 17.3826 17.2094 17.4215C17.3358 17.4233 17.3987 17.27 17.3083 17.1818Z" fill="#00AD46"/>
<path fill-rule="evenodd" clip-rule="evenodd" d="M9.55852 15.6912C8.73017 14.8832 8.34587 13.2846 9.93389 9.98792C7.35302 11.1413 6.4486 12.6574 6.89351 13.0915L9.55852 15.6912Z" fill="#04D659"/>
<path d="M17.1278 2.61346L10.0095 9.91023C9.96495 9.95594 9.9564 10.0266 9.99359 10.0785C10.4266 10.6829 11.2252 10.7877 11.5212 11.1938C12.3981 12.3966 12.6206 13.0775 12.9974 13.0353C13.0237 13.0324 13.0472 13.0182 13.0657 12.9992L15.6371 10.3632C17.1166 8.84679 17.3287 5.50805 17.3676 2.71232C17.3693 2.58598 17.216 2.52302 17.1278 2.61346Z" fill="#00C7D4"/>
<path fill-rule="evenodd" clip-rule="evenodd" d="M15.6372 10.3633C14.8291 11.1916 13.2305 11.576 9.93384 9.98792C11.0872 12.5688 12.6033 13.4732 13.0374 13.0283L15.6372 10.3633Z" fill="#11E1EE"/>
<path d="M2.55939 2.79384L9.85615 9.91211C9.90186 9.9567 9.97252 9.96526 10.0244 9.92807C10.6289 9.49506 10.7336 8.69649 11.1397 8.40046C12.3426 7.52356 13.0234 7.30107 12.9812 6.92426C12.9782 6.89794 12.964 6.87447 12.9452 6.85598L10.3092 4.28448C8.79272 2.80514 5.45397 2.593 2.65824 2.55409C2.5319 2.55233 2.46895 2.70561 2.55939 2.79384Z" fill="#E43921"/>
<path fill-rule="evenodd" clip-rule="evenodd" d="M10.3092 4.28442C11.1375 5.09251 11.5219 6.69111 9.93384 9.98778C12.5147 8.83442 13.4192 7.31827 12.9742 6.88424L10.3092 4.28442Z" fill="#FF7557"/>
<path fill-rule="evenodd" clip-rule="evenodd" d="M4.23047 9.61247C5.03855 8.78413 6.63716 8.39982 9.93383 9.98784C8.78046 7.40698 7.26431 6.50255 6.83028 6.94747L4.23047 9.61247Z" fill="#0CB6FF"/>
<path d="M9.93883 10.3051C10.1146 10.3029 10.2553 10.1587 10.2532 9.98288C10.251 9.8071 10.1067 9.66637 9.93094 9.66854C9.75517 9.67072 9.61444 9.81498 9.61661 9.99076C9.61879 10.1665 9.76305 10.3073 9.93883 10.3051Z" fill="#4A4848"/>
</svg>
