<svg viewBox="0 0 20 20" xmlns="http://www.w3.org/2000/svg">
<rect width="100%" height="100%" fill="white"/>
<path d="M4.75 7.50313L8.6484 9.99999L12.8565 7.30379V5.19959L4.75 2.60608V7.50313Z" fill="#FEE900"/>
<path d="M12.6257 7.45078L8.6484 9.99999L12.6671 12.5734L12.8565 12.6942V14.8004L12.5231 14.9051L4.75 17.3436V2.60608L12.5784 5.11099L12.8191 5.1875L12.8565 5.19959V7.30379L12.8191 7.32795L12.6257 7.45078Z" fill="#FFC400"/>
<path opacity="0.75" d="M4.75 12.4908L8.6484 9.99399L4.75 7.49915V7.56358V12.4908Z" fill="url(#paint0_linear_25_358)"/>
<path d="M12.8565 12.5552V14.9352L12.5231 14.905L4.75 14.2003V13.2901L12.6671 12.5733L12.8565 12.5552Z" fill="#FFE082"/>
<path d="M12.8191 5.08887V7.46893L12.6257 7.45081L4.75 6.73599V5.82181L12.5784 5.11102L12.8191 5.08887Z" fill="#FFE082"/>
<path d="M11.9293 13.7452C11.9293 14.2667 12.3436 14.6896 12.8546 14.6896V12.7988C12.3436 12.7988 11.9293 13.2217 11.9293 13.7432V13.7452Z" fill="white"/>
<path d="M11.9293 6.27891C11.9293 6.80043 12.3436 7.22328 12.8546 7.22328V5.33252C12.3436 5.33252 11.9293 5.75537 11.9293 6.27689V6.27891Z" fill="white"/>
<path d="M15.948 13.3204C15.9618 14.0191 15.8375 14.7017 15.5771 15.3501C15.3384 15.9179 14.9655 16.4254 14.496 16.816C13.987 17.2308 13.4089 17.5288 12.7816 17.702C12.0733 17.8993 11.3453 18 10.6134 18C10.5779 18 10.5404 18 10.5049 17.998H4.75V17.3456L4.76381 17.3395L12.6987 14.8165C12.7796 14.7903 12.8348 14.7138 12.8348 14.6272V12.819C12.8348 12.7465 12.7954 12.6801 12.7342 12.6438L8.63853 10L12.7342 7.35615C12.7954 7.31991 12.8348 7.25145 12.8348 7.18097V5.37277C12.8348 5.28417 12.7796 5.20967 12.6987 5.18148L4.75 2.65442V2H10.2366C10.9685 2 11.6985 2.08658 12.4107 2.25774C13.0301 2.40272 13.6062 2.66851 14.1251 3.04505C14.5887 3.39341 14.9616 3.86056 15.2003 4.39617C15.4588 5.00428 15.589 5.67682 15.5732 6.33929C15.5811 7.05009 15.3798 7.73672 14.9892 8.32469C14.6124 8.89454 14.058 9.34558 13.3419 9.66574C13.7424 9.77851 14.1192 9.9557 14.4625 10.1953C14.788 10.4249 15.0681 10.7088 15.295 11.039C15.516 11.3652 15.6817 11.7256 15.7863 12.1082C15.8948 12.5029 15.95 12.9096 15.948 13.3204Z" fill="#FF6D00"/>
<linearGradient id="paint0_linear_25_358" x1="4.6261" y1="9.86653" x2="8.51178" y2="9.86653" gradientUnits="userSpaceOnUse">
<stop stop-color="#FFC400"/>
<stop offset="0.14" stop-color="#FECD00"/>
<stop offset="0.37" stop-color="#FED400"/>
<stop offset="1" stop-color="#FED600"/>
</linearGradient>
</svg>
