<?xml version="1.0" encoding="UTF-8" standalone="no"?>
<svg
   viewBox="0 0 20 20"
   version="1.1"
   id="svg488"
   sodipodi:docname="apache-spark.svg"
   inkscape:version="1.1.2 (b8e25be8, 2022-02-05)"
   xmlns:inkscape="http://www.inkscape.org/namespaces/inkscape"
   xmlns:sodipodi="http://sodipodi.sourceforge.net/DTD/sodipodi-0.dtd"
   xmlns="http://www.w3.org/2000/svg"
   xmlns:svg="http://www.w3.org/2000/svg">
  <defs
     id="defs492" />
  <sodipodi:namedview
     id="namedview490"
     pagecolor="#ffffff"
     bordercolor="#666666"
     borderopacity="1.0"
     inkscape:pageshadow="2"
     inkscape:pageopacity="0.0"
     inkscape:pagecheckerboard="0"
     showgrid="false"
     inkscape:zoom="36.800001"
     inkscape:cx="9.9320649"
     inkscape:cy="9.9320649"
     inkscape:window-width="1778"
     inkscape:window-height="1081"
     inkscape:window-x="1405"
     inkscape:window-y="184"
     inkscape:window-maximized="0"
     inkscape:current-layer="svg488" />
  <path
     d="m 15.371305,15.68488 c -0.04655,-0.09944 -0.06745,-0.149427 -0.09253,-0.19716 -0.672763,-1.279799 -1.343795,-2.559601 -2.023472,-3.839402 -0.06814,-0.128328 -0.0595,-0.204078 0.03371,-0.314763 1.070539,-1.250404 2.127237,-2.5077205 3.199504,-3.7529325 0.03789,-0.04394 0.07159,-0.09045 0.08578,-0.168795 -0.311296,0.08111 -0.622597,0.161359 -0.93563,0.243852 -1.291897,0.342437 -2.594182,0.683138 -3.873983,1.030759 -0.120194,0.03234 -0.174673,-0.0029 -0.235203,-0.102727 C 10.796184,7.3575255 10.057701,6.1278785 9.3157648,4.9172574 9.2778724,4.8537846 9.2365547,4.7922178 9.1556147,4.7391194 9.0961228,5.0659907 9.0359363,5.3911271 8.9774815,5.7179935 8.7716737,6.8715455 8.565871,8.0181775 8.361793,9.1769145 8.339481,9.3012615 8.309045,9.4259565 8.298329,9.5504815 8.288103,9.6694665 8.226724,9.7133935 8.1184618,9.7476395 6.5948089,10.226699 5.0746157,10.70922 3.5526874,11.191743 c -0.066755,0.02093 -0.1323039,0.0486 -0.2040727,0.11345 1.2452112,0.494626 2.4904217,0.98925 3.7529278,1.492525 -0.046002,0.03651 -0.076443,0.06485 -0.110168,0.08647 -0.7782559,0.503274 -1.5582424,1.006543 -2.3347685,1.511548 -0.093222,0.06088 -0.1668937,0.06952 -0.2715275,0.02231 C 3.4546247,13.999527 2.5172551,13.587912 1.5833503,13.172842 1.1648204,12.986064 0.78952422,12.738746 0.49724753,12.37902 -0.16513501,11.569634 -0.03369672,10.649557 0.84832879,10.078836 1.1371501,9.8937825 1.4657471,9.7571535 1.7926134,9.6499295 3.2851363,9.1639505 4.7845802,8.6952655 6.2719136,8.2248505 6.3974741,8.1848945 6.4552363,8.1288665 6.4794513,7.9931035 6.6800685,6.8378265 6.8858714,5.6756295 7.0951391,4.5341869 7.2065158,3.9167686 7.2653152,3.2855158 7.5655487,2.718252 7.6805574,2.5003394 7.8180507,2.287617 7.9840795,2.1060241 8.5790127,1.4453717 9.4074232,1.4211568 10.042136,2.0492991 c 0.212723,0.2127225 0.394316,0.4617647 0.551699,0.7194518 0.691783,1.1293375 1.37319,2.2655947 2.058057,3.4070376 0.08042,0.134377 0.152709,0.161359 0.300927,0.122272 1.668926,-0.44793 3.337858,-0.88894 5.015434,-1.3299551 0.345891,-0.091143 0.693513,-0.1241746 1.048053,-0.057934 0.769607,0.1438924 1.106854,0.7298321 0.845705,1.4752281 -0.118123,0.338976 -0.323411,0.624333 -0.553426,0.89586 -1.165658,1.37146 -2.334771,2.7498405 -3.493513,4.1161195 -0.09529,0.112075 -0.0972,0.191968 -0.0311,0.318222 0.698702,1.31612 1.39049,2.62878 2.092647,3.960461 0.1662,0.314761 0.294012,0.643362 0.297468,1.004819 0.0081,0.82322 -0.594934,1.497713 -1.412971,1.618771 -0.458304,0.06694 -0.88375,-0.03096 -1.314385,-0.163432 -1.046323,-0.323407 -2.092648,-0.64163 -3.14762,-0.958121 -0.09736,-0.02905 -0.13455,-0.06763 -0.152017,-0.172255 -0.120369,-0.738476 -0.252502,-1.475228 -0.380485,-2.21371 -0.0034,-0.02024 0.0029,-0.04182 0.0063,-0.08716 1.195055,0.330327 2.386657,0.655463 3.614574,0.996169"
     style="fill:#e25a1c;fill-rule:evenodd;stroke-width:0.172947"
     id="path15" />
</svg>
