<svg viewBox="0 0 20 20" xmlns="http://www.w3.org/2000/svg">
<rect width="100%" height="100%" fill="#34668C"/>
<path fill-rule="evenodd" clip-rule="evenodd" d="M14.8512 13.8065C14.8096 13.7238 14.7902 13.6814 14.7673 13.6417C14.1575 12.5699 13.5492 11.4968 12.9344 10.4277C12.872 10.3208 12.8799 10.2569 12.9645 10.1655C13.9344 9.11787 14.8993 8.06624 15.8656 7.01529C15.8993 6.97898 15.9301 6.93931 15.9431 6.87409C15.6604 6.942 15.3778 7.00924 15.0958 7.07849C13.9236 7.36561 12.7515 7.65205 11.5807 7.94252C11.4717 7.96942 11.4222 7.9405 11.3676 7.85646C10.7026 6.82904 10.0333 5.80364 9.36474 4.77824C9.33031 4.72444 9.293 4.67267 9.21983 4.62829C9.16603 4.90196 9.11079 5.17562 9.05842 5.44928L8.50102 8.34999C8.48094 8.45489 8.45296 8.55843 8.44363 8.664C8.43359 8.76351 8.37907 8.8005 8.28079 8.82874C6.89985 9.22948 5.52034 9.63426 4.14011 10.039C4.07985 10.0565 4.02031 10.0794 3.95575 10.1339L7.35896 11.3845C7.31736 11.4148 7.2901 11.4383 7.25997 11.4571C6.55407 11.8794 5.84674 12.2996 5.14371 12.7239C5.05906 12.7743 4.99235 12.7817 4.89766 12.7421C4.05474 12.3918 3.20824 12.0475 2.36461 11.6985C1.98512 11.5418 1.64437 11.3341 1.37894 11.0342C0.778496 10.3551 0.896863 9.58316 1.69673 9.11114C1.95858 8.95649 2.25629 8.84151 2.55184 8.75208C3.90481 8.34461 5.2628 7.95193 6.61935 7.55724C6.73341 7.52429 6.7865 7.47722 6.8073 7.36359C6.98808 6.39534 7.17603 5.42911 7.36399 4.46221C7.46514 3.94581 7.51894 3.41529 7.79082 2.9426C7.89556 2.75971 8.02038 2.58152 8.1696 2.42889C8.70763 1.87618 9.46015 1.85467 10.0297 2.38182C10.222 2.55933 10.387 2.76912 10.5305 2.98362C11.1575 3.92967 11.7751 4.88178 12.3885 5.83457C12.4616 5.9482 12.5269 5.97039 12.6611 5.93744C14.1747 5.56225 15.6898 5.1931 17.2042 4.82329C17.517 4.74663 17.8326 4.71906 18.1533 4.7742C18.852 4.89523 19.1576 5.38608 18.9209 6.01006C18.8133 6.29381 18.6275 6.53453 18.4187 6.76045C17.362 7.91025 16.3068 9.06004 15.2465 10.2065C15.1597 10.3006 15.1575 10.3678 15.2178 10.4727C15.8505 11.5755 16.4775 12.6802 17.1074 13.7843C17.258 14.0485 17.3728 14.3222 17.3764 14.6261C17.3835 15.3167 16.8383 15.8815 16.0959 15.9817C15.6798 16.0381 15.2938 15.9561 14.905 15.8452C13.9559 15.5735 13.0054 15.3073 12.0542 15.043C11.9659 15.0181 11.9322 14.9865 11.9172 14.8984C11.8074 14.2798 11.6883 13.6626 11.5728 13.0446C11.5699 13.0278 11.575 13.0097 11.5778 12.9714L14.8512 13.8065Z" fill="#E25A1C"/>
</svg>
