<svg xmlns="http://www.w3.org/2000/svg" viewBox="0 0 20 20">
  <rect width="100%" height="100%" fill="#017CEE"/>
  <path fill="#fff" d="M12.97 6.88v.01l-2.81 2.87a.32.32 0 0 0-.23-.09c-.05 0-.1.01-.14.03-1.13-2.36-2.54-3.19-2.96-2.75L2.56 2.79c-.09-.08-.03-.24.1-.24 2.79.04 6.13.26 7.65 1.73l2.63 2.58.03.02Z"/>
  <path fill="#fff" d="M15.64 10.36c1.48-1.51 1.69-4.85 1.73-7.65 0-.12-.15-.19-.24-.1l-4.16 4.27v.01c.43.44-.41 1.84-2.75 2.96.02.04.03.08.03.13 0 .09-.03.17-.08.23l2.88 2.81.02-.02 2.57-2.64Z"/>
  <path fill="#fff" d="M9.56 15.69c1.52 1.48 4.85 1.69 7.65 1.73.13 0 .19-.15.1-.24l-4.26-4.16-.01.01c-.43.43-1.83-.39-2.98-2.75a.27.27 0 0 1-.12.03.32.32 0 0 1-.23-.09L6.9 13.1l.02.02 2.64 2.57ZM9.64 10.12l-.02-.13a.27.27 0 0 1 .09-.23L6.83 6.95l-2.6 2.66c-1.48 1.52-1.69 4.86-1.73 7.65 0 .13.15.19.24.1L6.9 13.1l-.01-.01c-.43-.42.39-1.83 2.75-2.97Z"/>
</svg>