<svg xmlns="http://www.w3.org/2000/svg" viewBox="0 0 20 20">
  <rect width="100%" height="100%" fill="#E25A1C"/>
  <path fill="#fff" fill-rule="evenodd" d="m14.31 13.12-.07-.14-1.63-2.76c-.06-.09-.05-.14.03-.22l2.57-2.7a.23.23 0 0 0 .07-.12l-.75.17-3.12.74c-.1.03-.15 0-.2-.07L9.45 5.38a.37.37 0 0 0-.13-.13l-.15.7-.5 2.5c-.01.08-.04.17-.04.26-.01.09-.06.12-.15.14L4.8 9.9a.42.42 0 0 0-.16.08l3.02 1.07-.09.07-1.88 1.08a.22.22 0 0 1-.22.02l-2.25-.9a2.33 2.33 0 0 1-.87-.57c-.54-.58-.43-1.24.28-1.64.23-.14.5-.24.76-.31l3.61-1.03c.1-.02.15-.07.17-.16l.5-2.49c.09-.44.13-.9.38-1.3.09-.16.2-.31.33-.44.48-.48 1.15-.5 1.66-.04.17.15.31.33.44.51.56.81 1.1 1.63 1.65 2.45.07.1.13.11.25.08l4.03-.95c.28-.07.56-.09.85-.04.62.1.89.52.68 1.06-.1.24-.26.45-.45.64l-2.82 2.95c-.07.08-.08.14-.02.23l1.68 2.84c.13.23.23.46.24.72 0 .6-.48 1.08-1.14 1.16-.37.05-.71-.02-1.06-.11-.84-.24-1.69-.46-2.53-.69-.08-.02-.11-.05-.13-.12l-.3-1.6v-.06l2.91.72Z" clip-rule="evenodd"/>
</svg>