<?xml version="1.0" encoding="utf-8"?>
<!-- Generator: Adobe Illustrator 18.1.1, SVG Export Plug-In . SVG Version: 6.00 Build 0)  -->
<!DOCTYPE svg PUBLIC "-//W3C//DTD SVG 1.1//EN" "http://www.w3.org/Graphics/SVG/1.1/DTD/svg11.dtd">
<svg version="1.1" id="Layer_1" xmlns="http://www.w3.org/2000/svg" xmlns:xlink="http://www.w3.org/1999/xlink" x="0px" y="0px"
	 viewBox="0 0 64 64.1" enable-background="new 0 0 64 64.1" xml:space="preserve">
<g>
	<path fill="#050606" d="M32,52.2c-8.4,0-15.2-6.8-15.2-15.2c0-8.4,6.8-15.2,15.2-15.2c8.4,0,15.2,6.8,15.2,15.2
		C47.2,45.4,40.4,52.2,32,52.2z M32,23.8c-7.3,0-13.3,6-13.3,13.3c0,7.3,6,13.3,13.3,13.3c7.3,0,13.3-6,13.3-13.3
		C45.3,29.7,39.3,23.8,32,23.8z"/>
</g>
<path fill="#050606" d="M39.4,31.4c-0.4-0.6-1.2-0.6-1.7-0.1L35.9,33c-1-1-2.4-1.6-3.9-1.6c-3.1,0-5.7,2.5-5.7,5.7
	c0,1.5,0.6,2.9,1.6,3.9l-1.7,1.7c-0.5,0.5-0.5,1.3,0.1,1.7c1.9,1.5,4.5,2.2,7.2,1.8c3.9-0.6,7-3.7,7.6-7.6
	C41.6,35.9,40.9,33.3,39.4,31.4z M32,33.4c2,0,3.7,1.6,3.7,3.7S34,40.7,32,40.7s-3.7-1.6-3.7-3.7S30,33.4,32,33.4z"/>
<g>
	<path fill="#050606" d="M37.4,20.1l-0.8-0.2c-3.1-0.8-6.1-0.8-9.2,0l-0.8,0.2l-0.3-0.8c-0.2-0.5-0.3-1.1-0.1-1.7l2.1-7.5
		c0.3-1.1,1.3-1.9,2.4-1.9h2.7c1.1,0,2.1,0.8,2.4,1.9l2.1,7.5c0.2,0.6,0.1,1.1-0.1,1.7L37.4,20.1z M30.7,10.2
		c-0.2,0-0.5,0.2-0.5,0.4l-2,7c2.6-0.5,5.1-0.5,7.6,0l-2-7c-0.1-0.2-0.3-0.4-0.5-0.4H30.7z"/>
</g>
<g>
	<path fill="#050606" d="M56.9,43.3h-8.2l0.4-1.3c0.5-1.6,0.7-3.3,0.7-5c0-1.3-0.1-2.5-0.4-3.8L49,31.4l8.7,3.4
		c0.8,0.3,1.4,1.1,1.4,2v4.4C59.1,42.4,58.1,43.3,56.9,43.3z M51.3,41.3h5.6c0.1,0,0.2-0.1,0.2-0.2v-4.4c0-0.1,0-0.1-0.1-0.1
		l-5.4-2.1c0.1,0.8,0.2,1.6,0.2,2.5C51.8,38.5,51.6,39.9,51.3,41.3z"/>
</g>
<g>
	<path fill="#050606" d="M15.3,43.3H7.1c-1.2,0-2.2-1-2.2-2.2v-4.4c0-0.9,0.6-1.7,1.4-2l8.7-3.4l-0.4,1.8c-0.3,1.3-0.4,2.6-0.4,3.8
		c0,1.7,0.2,3.4,0.7,5L15.3,43.3z M12.4,34.6L7,36.7c-0.1,0-0.1,0.1-0.1,0.1v4.4c0,0.1,0.1,0.2,0.2,0.2h5.6
		c-0.3-1.4-0.5-2.9-0.5-4.3C12.2,36.2,12.2,35.4,12.4,34.6z"/>
</g>
</svg>
