<svg xmlns="http://www.w3.org/2000/svg" viewBox="0 0 20 20">
  <rect width="100%" height="100%" fill="#4285F4"/>
  <path fill="#3E7AE3" d="M20 10.727V20h-9.826l-9.033-9.033c.057.049.13.09.22.122h2.221a6.406 6.406 0 0 1-.073-.971c0-.474.049-.93.147-1.372l.857.866c-.002.052-.006.104-.01.158-.007.114-.014.231-.014.348a5.514 5.514 0 0 0 5.51 5.51 5.514 5.514 0 0 0 5.512-5.51A5.509 5.509 0 0 0 10 4.607c-.147 0-.286.008-.425.024l-.882-.881.033-.058-.016.066c.416-.09.849-.13 1.29-.13.457 0 .906.048 1.347.138l-.825-2.286a.755.755 0 0 0-.122-.229l8.213 8.206-2.27-.71a6.405 6.405 0 0 1 .073 2.343h2.222c.204-.066.342-.188.342-.384V9.84a.298.298 0 0 0-.073-.204L20 10.727Z"/>
  <path fill="#3E7AE3" d="M10 11.379a1.26 1.26 0 1 0 .002-2.524A1.26 1.26 0 0 0 10 11.379Z"/>
  <path fill="#3E7AE3" fill-rule="evenodd" d="M5.82 10.118c0-2.31 1.87-4.18 4.18-4.18 2.31 0 4.18 1.87 4.18 4.18 0 2.31-1.87 4.18-4.18 4.18-2.31 0-4.18-1.87-4.18-4.18Zm2.302 2.05c.49.489 1.167.8 1.918.8a2.732 2.732 0 0 0 2.727-2.728 2.71 2.71 0 0 0-.8-1.918l-.522.514a2.004 2.004 0 0 0-1.405-.58c-.53 0-1.028.213-1.404.58a2 2 0 0 0 0 2.809l-.514.522Z" clip-rule="evenodd"/>
  <path fill="#fff" d="M11.344 3.767a6.498 6.498 0 0 0-2.637-.011l.716-2.277c.056-.205.187-.343.376-.343h.345c.189 0 .316.138.376.343l.824 2.288Z"/>
  <path fill="#fff" fill-rule="evenodd" d="m11.445 8.84.521-.52c.493.492.798 1.172.798 1.923a2.725 2.725 0 0 1-2.722 2.722c-.75 0-1.43-.305-1.924-.798l.521-.52a1.987 1.987 0 0 1 1.404-3.388c.529 0 1.028.207 1.402.58v.001ZM10 11.38a1.261 1.261 0 1 0 0-2.523 1.261 1.261 0 0 0 0 2.523Z" clip-rule="evenodd"/>
  <path fill="#fff" fill-rule="evenodd" d="M10 4.609a5.509 5.509 0 1 0 0 11.017 5.509 5.509 0 0 0 0-11.017Zm0 9.688a4.18 4.18 0 1 1-.001-8.36 4.18 4.18 0 0 1 0 8.36Z" clip-rule="evenodd"/>
  <path fill="#fff" d="m18.64 9.465-2.297-.722a6.515 6.515 0 0 1 .074 2.344h2.222c.205-.06.343-.188.343-.377v-.869c0-.189-.137-.32-.343-.376ZM3.51 10.117c0-.471.05-.93.146-1.374l-2.296.722c-.206.056-.343.187-.343.376v.87c0 .188.137.316.343.376h2.222a6.546 6.546 0 0 1-.073-.97Z"/>
</svg>