<svg id="Layer_1" data-name="Layer 1" xmlns="http://www.w3.org/2000/svg" viewBox="0 0 20 20"><defs><style>.cls-2{fill:#fff}</style></defs><path fill="#4285f4" d="M0 0h20v20H0z"/><path class="cls-2" d="M10 6a5 5 0 1 0 5 5 5 5 0 0 0-5-5zm0 9a4 4 0 1 1 4-4 4 4 0 0 1-4 4z"/><circle class="cls-2" cx="10" cy="11" r="1"/><path class="cls-2" d="M10 5a6 6 0 0 1 1.55.21l-.48-1.92A.38.38 0 0 0 10.7 3H9.3a.38.38 0 0 0-.37.29l-.48 1.92A6 6 0 0 1 10 5zM15.79 9.45a5.83 5.83 0 0 1 0 3.1l1.92-.48a.38.38 0 0 0 .29-.37v-1.4a.38.38 0 0 0-.29-.37zM4 11a6 6 0 0 1 .21-1.55l-1.92.48a.38.38 0 0 0-.29.37v1.4a.38.38 0 0 0 .29.37l1.92.48A6 6 0 0 1 4 11zM7.88 13.12a3 3 0 1 0 4.24-4.24l-.71.71a2 2 0 0 1-2.82 2.82z"/></svg>