<svg viewBox="0 0 20 20" xmlns="http://www.w3.org/2000/svg">
<rect width="100%" height="100%" fill="white"/>
<path d="M9.93986 5.27087C11.8129 5.44882 13.4294 3.31346 13.161 1.5C12.6992 1.53589 12.2492 1.66555 11.8379 1.88127C11.4266 2.09698 11.0623 2.39434 10.7668 2.75563C10.462 3.09228 10.2307 3.49036 10.0882 3.9238C9.94572 4.35724 9.89516 4.81627 9.93986 5.27087Z" fill="black"/>
<path d="M15.786 14.7421C16.054 14.2458 16.2716 13.7233 16.4353 13.1825C15.1978 12.5787 14.4241 11.635 14.3393 10.2174C14.2544 8.79982 14.8958 7.75813 16.0307 6.98836L15.9459 6.8624C15.0241 5.5188 13.1945 5.04095 11.8011 5.5188C11.4855 5.62782 11.1742 5.7466 10.8625 5.86555C10.7511 5.90805 10.6397 5.95056 10.528 5.99266C10.2614 6.09757 9.96568 6.09757 9.69906 5.99266C9.62466 5.96427 9.55027 5.93614 9.47593 5.90804C9.26237 5.82731 9.04936 5.74679 8.83853 5.66076C8.19856 5.37791 7.48554 5.31199 6.8056 5.47282C5.38848 5.82871 4.46084 6.73844 3.95162 8.09803C3.52924 9.2157 3.52924 10.3694 3.72662 11.529C4.00015 13.2344 4.70303 14.8396 5.76743 16.1896C6.02594 16.5418 6.32998 16.8572 6.67139 17.1273C6.87184 17.2908 7.107 17.405 7.35838 17.4609C7.60975 17.5167 7.87049 17.5127 8.12009 17.4492C8.45645 17.3569 8.78617 17.2413 9.10695 17.1033C9.69383 16.8375 10.3512 16.7763 10.9761 16.9294C11.3065 17.0321 11.6308 17.1542 11.9471 17.2953C12.367 17.4731 12.8303 17.517 13.2754 17.4213C13.7515 17.294 14.1756 17.0176 14.4873 16.6315C14.9898 16.0538 15.4255 15.4199 15.786 14.7421Z" fill="black"/>
</svg>
