<svg xmlns="http://www.w3.org/2000/svg" viewBox="0 0 20 20">
  <rect width="100%" height="100%"/>
  <path fill="#fff" d="M9.97 5.27c1.87.18 3.49-1.96 3.22-3.77a3.42 3.42 0 0 0-2.4 1.26 3.25 3.25 0 0 0-.82 2.51Z"/>
  <path fill="#fff" d="M15.81 14.74c.27-.5.49-1.02.65-1.56-1.24-.6-2.01-1.54-2.1-2.96-.08-1.42.56-2.46 1.7-3.23l-.09-.13c-.92-1.34-2.75-1.82-4.14-1.34-.32.1-.63.23-.94.35l-.34.12c-.26.1-.56.1-.82 0a77.06 77.06 0 0 0-.87-.33 3.2 3.2 0 0 0-2.03-.19A3.96 3.96 0 0 0 3.98 8.1a6.46 6.46 0 0 0-.23 3.43c.28 1.7.98 3.31 2.04 4.66.26.35.57.67.9.94a1.66 1.66 0 0 0 1.46.32c.33-.1.66-.2.98-.35a2.87 2.87 0 0 1 1.87-.17c.33.1.66.22.97.37.42.17.89.22 1.33.12.48-.13.9-.4 1.21-.79.5-.58.94-1.21 1.3-1.89Z"/>
</svg>