<svg viewBox="0 0 20 20" xmlns="http://www.w3.org/2000/svg">
<rect width="100%" height="100%" fill="black"/>
<path d="M9.96549 5.27087C11.8385 5.44882 13.455 3.31346 13.1866 1.5C12.7248 1.53589 12.2748 1.66555 11.8635 1.88127C11.4522 2.09698 11.088 2.39434 10.7925 2.75563C10.4876 3.09228 10.2564 3.49036 10.1139 3.9238C9.97135 4.35724 9.92079 4.81627 9.96549 5.27087Z" fill="white"/>
<path d="M15.8116 14.7421C16.0797 14.2458 16.2973 13.7233 16.461 13.1825C15.2235 12.5787 14.4498 11.635 14.3649 10.2174C14.28 8.79982 14.9215 7.75813 16.0564 6.98836L15.9715 6.8624C15.0498 5.5188 13.2201 5.04095 11.8267 5.5188C11.5111 5.62782 11.1998 5.7466 10.8881 5.86555C10.7768 5.90805 10.6653 5.95056 10.5537 5.99266C10.287 6.09757 9.99131 6.09757 9.7247 5.99266C9.6503 5.96427 9.5759 5.93614 9.50157 5.90804C9.288 5.82731 9.075 5.74679 8.86416 5.66076C8.2242 5.37791 7.51117 5.31199 6.83124 5.47282C5.41411 5.82871 4.48647 6.73844 3.97725 8.09803C3.55488 9.2157 3.55488 10.3694 3.75225 11.529C4.02578 13.2344 4.72867 14.8396 5.79307 16.1896C6.05158 16.5418 6.35562 16.8572 6.69703 17.1273C6.89748 17.2908 7.13264 17.405 7.38401 17.4609C7.63539 17.5167 7.89613 17.5127 8.14573 17.4492C8.48208 17.3569 8.8118 17.2413 9.13259 17.1033C9.71946 16.8375 10.3768 16.7763 11.0017 16.9294C11.3321 17.0321 11.6564 17.1542 11.9728 17.2953C12.3926 17.4731 12.8559 17.517 13.3011 17.4213C13.7771 17.294 14.2013 17.0176 14.5129 16.6315C15.0154 16.0538 15.4511 15.4199 15.8116 14.7421Z" fill="white"/>
</svg>
