<svg data-name="Layer 1" xmlns="http://www.w3.org/2000/svg" viewBox="0 0 20 20"><path fill="#333" d="M0 0h20v20H0z"/><path d="M15.08 12.66a6.45 6.45 0 0 1-.65 1.15 5.13 5.13 0 0 1-.83 1 1.57 1.57 0 0 1-1.06.47 2.79 2.79 0 0 1-1-.23 2.81 2.81 0 0 0-1.06-.24 2.87 2.87 0 0 0-1.09.24 2.86 2.86 0 0 1-.94.24 1.47 1.47 0 0 1-1.09-.48 6.19 6.19 0 0 1-.87-1A7.38 7.38 0 0 1 5.6 12a6.6 6.6 0 0 1-.39-2.17 4.06 4.06 0 0 1 .52-2.08 3.19 3.19 0 0 1 1.09-1.1 3 3 0 0 1 1.47-.45 3.58 3.58 0 0 1 1.14.26 3.62 3.62 0 0 0 .91.27 6.12 6.12 0 0 0 1-.31 3.26 3.26 0 0 1 1.36-.25 2.89 2.89 0 0 1 2.3 1.2 2.52 2.52 0 0 0-1.34 2.29 2.56 2.56 0 0 0 .83 1.9 2.83 2.83 0 0 0 .83.54l-.21.56zm-2.31-9.09a2.55 2.55 0 0 1-.66 1.68 2.22 2.22 0 0 1-1.85.91 1.69 1.69 0 0 1 0-.23 2.66 2.66 0 0 1 .69-1.69 2.77 2.77 0 0 1 .85-.63 2.52 2.52 0 0 1 1-.28v.24z" fill="#fff"/></svg>