<svg data-name="Layer 1" xmlns="http://www.w3.org/2000/svg" viewBox="0 0 20 20"><path fill="#333" d="M0 0h20v20H0z"/><path d="M14.83 12.84a6.54 6.54 0 0 1-.65 1.16 5.46 5.46 0 0 1-.83 1 1.62 1.62 0 0 1-1.06.47 2.62 2.62 0 0 1-1-.24 3 3 0 0 0-1.04-.23 3 3 0 0 0-1.09.23 2.93 2.93 0 0 1-.94.25A1.51 1.51 0 0 1 7.13 15a6.36 6.36 0 0 1-.87-1 7.2 7.2 0 0 1-.91-1.82A6.55 6.55 0 0 1 5 10a4 4 0 0 1 .48-2.1 3.11 3.11 0 0 1 1.09-1.1A3 3 0 0 1 8 6.38a3.38 3.38 0 0 1 1.14.27 3.9 3.9 0 0 0 .91.26 5.17 5.17 0 0 0 1-.31 3.39 3.39 0 0 1 1.36-.24 2.91 2.91 0 0 1 2.27 1.19 2.61 2.61 0 0 0-.51 4.19 2.67 2.67 0 0 0 .83.55l-.21.55zm-2.31-9.08a2.51 2.51 0 0 1-.66 1.67 2.23 2.23 0 0 1-1.86.92 1.77 1.77 0 0 1 0-.23 2.73 2.73 0 0 1 1.54-2.33 2.68 2.68 0 0 1 1-.27v.24z" fill="#fff"/></svg>