<svg viewBox="0 0 20 20" xmlns="http://www.w3.org/2000/svg">
<rect width="100%" height="100%" fill="black"/>
<path d="M9.93961 5.27087C11.8127 5.44882 13.4291 3.31346 13.1607 1.5C12.6989 1.53589 12.249 1.66555 11.8377 1.88127C11.4263 2.09698 11.0621 2.39434 10.7666 2.75563C10.4617 3.09228 10.2305 3.49036 10.088 3.9238C9.94547 4.35724 9.89491 4.81627 9.93961 5.27087Z" fill="white"/>
<path d="M15.7857 14.7421C16.0538 14.2458 16.2714 13.7233 16.4351 13.1825C15.1976 12.5787 14.4239 11.635 14.339 10.2174C14.2541 8.79982 14.8956 7.75813 16.0305 6.98836L15.9456 6.8624C15.0239 5.5188 13.1943 5.04095 11.8008 5.5188C11.4853 5.62782 11.174 5.7466 10.8622 5.86555C10.7509 5.90805 10.6395 5.95056 10.5278 5.99266C10.2612 6.09757 9.96544 6.09757 9.69882 5.99266C9.62442 5.96427 9.55002 5.93614 9.47569 5.90804C9.26212 5.82731 9.04912 5.74679 8.83828 5.66076C8.19832 5.37791 7.48529 5.31199 6.80536 5.47282C5.38824 5.82871 4.46059 6.73844 3.95137 8.09803C3.529 9.2157 3.529 10.3694 3.72637 11.529C3.9999 13.2344 4.70279 14.8396 5.76719 16.1896C6.0257 16.5418 6.32974 16.8572 6.67115 17.1273C6.8716 17.2908 7.10676 17.405 7.35813 17.4609C7.60951 17.5167 7.87025 17.5127 8.11985 17.4492C8.4562 17.3569 8.78592 17.2413 9.10671 17.1033C9.69358 16.8375 10.3509 16.7763 10.9758 16.9294C11.3063 17.0321 11.6305 17.1542 11.9469 17.2953C12.3667 17.4731 12.8301 17.517 13.2752 17.4213C13.7512 17.294 14.1754 17.0176 14.487 16.6315C14.9895 16.0538 15.4252 15.4199 15.7857 14.7421Z" fill="white"/>
</svg>
