<svg viewBox="0 0 20 20" fill="none" xmlns="http://www.w3.org/2000/svg">
<path d="M0 0H20V20H0V0Z" fill="#ECF0F1"/>
<path d="M16.7521 9.84252C16.6227 9.41276 16.5581 9.19784 16.4643 8.96929C16.2836 8.52723 16.0538 8.16785 15.7093 7.72248C14.9032 6.6819 14.5004 6.16067 13.8429 5.74538C12.4164 4.84348 10.9151 5.00307 10.7439 5.02379C10.2315 5.08547 9.10448 5.31032 8.13863 6.24221C7.59147 6.77083 7.24761 7.52875 7.0867 7.91565C6.90876 10.9996 9.9341 12.235 10.6464 12.7515C10.8753 12.8605 11.4017 13.0923 11.8289 13.3129C12.8156 13.8221 13.4995 13.9275 13.8524 13.9891C14.6213 14.1239 15.8172 13.8195 16.3848 13.1833C16.9286 12.5736 17.087 11.751 16.9573 11.0179C16.9179 10.7925 16.9173 10.3917 16.7516 9.8411L16.7521 9.84252Z" fill="#577138"/>
<path d="M16.317 9.51142C16.111 8.96171 15.8695 8.59693 15.5827 8.16433C15.2318 7.63449 14.9181 7.27332 14.6662 6.98564C14.129 6.37227 13.8601 6.06558 13.4951 5.8429C12.8649 5.45836 12.2558 5.38892 11.9096 5.35279C11.0925 5.26808 10.4679 5.44132 10.1643 5.52846C9.8519 5.61844 9.23294 5.80288 8.58636 6.3104C8.0008 6.77024 7.64057 7.46261 7.44456 7.83532C7.26464 8.17134 8.37153 10.8681 10.9286 12.4621C11.0594 12.5298 11.4237 12.6961 11.6487 12.8099C11.7219 12.8469 11.7892 12.8801 11.8521 12.9106C11.9537 12.9571 12.0484 13.0017 12.1376 13.0443C12.4248 13.174 12.6026 13.2399 12.838 13.3631C13.6534 13.7894 14.5143 13.6679 14.642 13.648C14.8112 13.622 15.9881 13.4399 16.4753 12.5034C16.7323 12.0095 16.6876 11.5177 16.6265 10.8441C16.6091 10.6531 16.5509 10.1364 16.3161 9.51028" fill="#A3B34F"/>
<path d="M12.3687 12.813C13.2257 13.1411 13.5076 13.3125 13.8747 13.3572C13.9953 13.3717 15.1461 13.444 15.8206 12.8068C16.3228 12.3326 16.3469 11.8532 16.3758 11.6271C16.4759 10.8488 16.2546 9.85057 15.996 9.36055C15.6566 8.71681 15.5689 8.58154 14.6584 7.37494C13.9841 6.4825 13.6462 6.31733 13.2943 6.08556C12.6895 5.69005 11.9898 5.68106 11.5149 5.66148C11.1656 5.64723 10.5112 5.77528 9.88405 5.99513C8.90401 6.33975 8.3317 6.91717 7.92965 7.73478C7.48334 8.67764 9.74026 11.7505 11.3096 12.3786" fill="#DDE072"/>
<path d="M12.6619 10.9682C13.2084 10.8726 13.5722 10.3118 13.6836 9.85758C13.8398 9.21507 13.5166 8.67889 13.3012 8.32131C13.0979 7.98483 12.7404 7.51401 12.0932 7.25141C11.4973 7.00924 11.0346 7.30301 10.8189 7.4231C9.86824 8.82883 10.6047 10.2554 12.0033 10.9677C12.1798 10.9851 12.523 10.9924 12.6616 10.9683" fill="#A3B34F"/>
<path d="M11.0793 12.2926C11.3192 12.0061 11.7804 11.4122 11.9669 11.0429C11.9791 11.0189 11.9912 10.9934 12.0034 10.9669C12.2046 10.5297 12.4042 9.77306 12.4232 9.17709C12.4403 8.64337 12.2578 8.28267 12.2578 8.28267C12.0716 7.79729 11.5362 7.63108 11.3014 7.54121C11.1086 7.4714 10.9359 7.43573 10.7606 7.41567C10.4154 7.38471 9.93663 7.42164 9.10889 7.5431C8.28892 7.65794 7.47045 7.8145 6.7165 7.99604C5.8024 8.21881 5.29848 8.34151 4.71765 8.62256C4.04685 8.94703 3.41314 9.25353 3.1388 9.92707C2.97099 10.3396 2.98555 10.755 3.02737 11.031C3.02737 11.031 3.20833 12.8369 4.45107 13.7573C5.49165 14.5291 7.02603 14.814 8.16972 14.5015C9.07171 14.33 9.93209 13.4845 10.6472 12.7448C10.7933 12.5968 10.9694 12.4231 11.0796 12.2919L11.0793 12.2926Z" fill="#577138"/>
<path d="M9.94695 11.9901C9.10606 12.4838 7.87241 13.1536 6.32857 13.1366C6.27885 13.136 6.22877 13.1348 6.17835 13.1328C5.66061 13.1119 4.28544 13.0565 3.57784 12.1367C3.38269 11.8826 3.26737 11.6017 3.20484 11.4108L3.20315 11.4066L3.20324 11.4066C3.1654 11.2902 3.15144 11.2219 3.15101 11.2194C3.1403 11.1698 3.13148 11.1213 3.12392 11.0711L3.12296 11.0677C3.12286 11.0671 3.12277 11.0666 3.12267 11.0661L3.12277 11.066L3.12248 11.0653C3.08275 10.8014 3.06913 10.4058 3.22815 10.0152C3.48848 9.37659 4.07745 9.09166 4.75969 8.7618C5.33135 8.48529 5.83149 8.36344 6.73869 8.14227C6.85495 8.11412 6.96676 8.08742 7.07461 8.06266C7.19654 8.03504 7.31366 8.00887 7.42604 7.98508C7.64626 7.93842 7.85674 7.89713 8.06978 7.85888L8.07084 7.85822C8.46172 7.78864 8.80464 7.73751 9.12277 7.69107C9.94266 7.57083 10.415 7.53394 10.7518 7.5643C10.9365 7.58058 11.0904 7.61635 11.2665 7.68378C11.5069 7.77584 11.9545 7.94724 12.1707 8.37813C12.2358 8.50802 12.2743 8.6519 12.2854 8.80648C12.2867 8.82145 12.2876 8.8369 12.288 8.85231C12.3012 9.24064 12.1412 9.62234 12.0552 9.82762C11.5721 10.9779 10.6741 11.5626 9.9466 11.9901" fill="#A3B34F"/>
<path d="M9.41722 12.0465C10.2178 11.6344 10.8674 11.1614 11.2023 10.7931C11.7585 10.1809 11.9853 9.55857 12.0344 9.05247C12.0894 8.48536 11.7328 8.27336 11.6118 8.17025C11.1615 7.7859 10.5495 7.79205 9.99323 7.79006C9.74047 7.78921 9.37778 7.80853 8.26587 8.05078C7.38157 8.25236 7.20069 8.29616 6.13174 8.58828C5.41913 8.78665 5.01737 8.92023 4.68911 9.12636C4.23022 9.4145 3.65894 9.77322 3.5142 10.4649C3.33437 11.3231 3.96913 12.0381 4.09816 12.1734C4.71939 12.8215 5.57578 12.8992 6.16607 12.9012C6.39793 12.9021 6.6175 12.8898 6.81104 12.8791C8.01055 12.8128 8.83639 12.345 9.41722 12.047" fill="#DDE072"/>
<path d="M6.30872 8.59398C6.2169 8.66342 6.06721 8.81061 5.9904 8.88932L5.7768 9.12818C5.39812 9.60382 5.12795 10.5207 5.33304 10.7676C5.43823 10.8944 5.49348 10.9082 5.53113 10.9335C6.0569 11.1878 6.5367 11.5368 7.32092 11.5827L7.97318 11.582C8.02599 11.5798 8.10353 11.5766 8.15925 11.5725C8.30465 11.5594 8.24119 11.5582 8.34154 11.5475C9.24382 11.3993 10.4454 10.761 10.3991 9.8674C10.3813 9.53347 9.99994 8.9865 9.74103 8.73978C9.46575 8.47718 8.95123 8.22215 8.81643 8.174C8.75334 8.15452 8.67793 8.12879 8.55212 8.10669C8.48578 8.09487 8.42044 8.08445 8.35545 8.07694C8.32449 8.07297 8.29347 8.06995 8.26246 8.06696C8.23116 8.06404 8.20024 8.06236 8.16928 8.06042C7.51419 8.01967 6.92626 8.1904 6.47313 8.47911C6.43553 8.5031 6.39851 8.52762 6.36283 8.5532C6.34437 8.56672 6.32639 8.57971 6.30842 8.59371" fill="#5E3108"/>
</svg>
