<svg xmlns="http://www.w3.org/2000/svg" viewBox="0 0 20 20">
  <rect width="100%" height="100%" fill="#CF4942"/>
  <path fill="#fff" d="m12.83 12.75-.06-.13-.94-1.7c-.04-.06-.09-.09-.17-.09H8.2a.48.48 0 0 0-.46.28L6.2 14.05c-.08.16-.2.25-.4.24a.36.36 0 0 1-.33-.24.42.42 0 0 1 .04-.38l1.06-2.04.48-.92c.23-.44.6-.66 1.1-.66h3.19l-1.45-2.6-.07.1-.6 1.09c-.09.15-.22.23-.4.22a.37.37 0 0 1-.33-.26.38.38 0 0 1 .02-.33l1-1.79c.16-.28.63-.24.77.02.25.49.53.96.8 1.44l2.75 4.95c.17.29.02.65-.37.64H9.14c-.1 0-.14.03-.18.12l-1.2 2.82c-.09.2-.22.28-.43.28H2.55a.44.44 0 0 1-.42-.22l-.4-.65c-.13-.18-.13-.35-.03-.54l2.21-4L8.54 3c.09-.16.22-.24.4-.24h1.96c.2 0 .33.08.42.25l4.15 7.37 2.83 5.04c.1.17.1.33 0 .49l-.35.6a.41.41 0 0 1-.39.23c-.59 0-1.17 0-1.76.02a.48.48 0 0 1-.4-.18c-.18-.21-.38-.41-.56-.63a.23.23 0 0 0-.2-.08h-4c-.23 0-.37-.09-.44-.27a.39.39 0 0 1 .33-.52h4.32c.18 0 .32.05.44.2l.57.62c.03.04.1.07.16.07.42 0 .85-.01 1.27-.03.04 0 .09-.03.11-.06.12-.13.12-.25.03-.42L10.97 3.97l-.2-.35c-.03-.06-.07-.08-.13-.08h-1.4c-.09 0-.12.04-.15.1L7.44 6.61l-4.91 8.87c-.05.08-.03.14 0 .22.1.21.25.27.5.27 1.31-.02 2.63-.01 3.95 0 .1 0 .15-.04.19-.13l1.2-2.82c.08-.2.22-.28.43-.28h4.03Z"/>
</svg>