<svg viewBox="0 0 20 20" xmlns="http://www.w3.org/2000/svg">
<rect width="100%" height="100%" fill="#0085B7"/>
<path d="M5.06427 7.39461H6.27442V12.5777H5.06427V12.0373C4.5315 12.6538 3.88457 12.7375 3.51163 12.7375C1.91332 12.7375 1 11.4056 1 9.98235C1 8.29271 2.15687 7.25761 3.52685 7.25761C3.9074 7.25761 4.57717 7.35655 5.06427 7.99588V7.39461ZM2.24059 10.0128C2.24059 10.9109 2.80381 11.6644 3.67907 11.6644C4.44017 11.6644 5.14799 11.1088 5.14799 10.028C5.14799 8.89397 4.44778 8.35359 3.67907 8.35359C2.80381 8.34598 2.24059 9.08425 2.24059 10.0128ZM7.7129 7.39461H8.92305V7.85888C9.06004 7.69905 9.25793 7.524 9.42537 7.42505C9.66131 7.28805 9.88964 7.25 10.1636 7.25C10.4605 7.25 10.7801 7.29567 11.115 7.49355L10.6203 8.58953C10.3463 8.41448 10.1256 8.40687 10.0038 8.40687C9.74503 8.40687 9.48626 8.44493 9.25032 8.68848C8.91543 9.04619 8.91543 9.54091 8.91543 9.8834V12.5701H7.70529L7.7129 7.39461ZM11.8837 7.39461H13.0939V7.8741C13.4973 7.37939 13.9767 7.25761 14.3725 7.25761C14.9129 7.25761 15.4228 7.51638 15.7121 8.01871C16.1459 7.40222 16.7928 7.25761 17.2495 7.25761C17.8812 7.25761 18.4292 7.55444 18.726 8.07199C18.8249 8.24704 19 8.62759 19 9.38108V12.5853H17.7899V9.73118C17.7899 9.15275 17.729 8.91681 17.6757 8.81025C17.5996 8.61237 17.4169 8.35359 16.9831 8.35359C16.6863 8.35359 16.4275 8.51342 16.2677 8.73414C16.0545 9.03097 16.0317 9.47241 16.0317 9.91385V12.5853H14.8216V9.73118C14.8216 9.15275 14.7607 8.91681 14.7074 8.81025C14.6313 8.61237 14.4486 8.35359 14.0148 8.35359C13.718 8.35359 13.4592 8.51342 13.2994 8.73414C13.0863 9.03097 13.0634 9.47241 13.0634 9.91385V12.5853H11.8837V7.39461Z" fill="white"/>
</svg>
