<svg xmlns="http://www.w3.org/2000/svg" viewBox="0 0 20 20"><path fill="#44aaae" d="M0 0h20v20H0z"/><path d="M18 10.23a.29.29 0 01-.11.3 4.84 4.84 0 01-.63.41L7.11 16c-1.24.62-2.47 1.26-3.71 1.87-.84.42-1.13.27-1.14-.66v-4.4a1.22 1.22 0 01.61-1.15A15.39 15.39 0 0110.15 9a18.75 18.75 0 017 .72 4.7 4.7 0 01.7.29.26.26 0 01.16.19zM2.35 2.12c2.79 1.37 5.48 2.69 8.25 4.13a.21.21 0 01.07.32 6.76 6.76 0 01-3.53 2.1 6.61 6.61 0 01-4.41-.06C2.34 8.45 2 8.3 2 7.83V2.65c.06-.13 0-.65.35-.53z" fill="#fff"/></svg>