<?xml version="1.0" encoding="UTF-8"?>
<svg xmlns="http://www.w3.org/2000/svg" xmlns:xlink="http://www.w3.org/1999/xlink" width="20px" height="20px"
  viewBox="0 0 20 20" version="1.1" style="background-color: #17191E">
  <defs>
    <linearGradient id="linear0" gradientUnits="userSpaceOnUse" x1="15.8877" y1="78.4797" x2="53.1292" y2="60.6489"
      gradientTransform="matrix(0.253165,0,0,0.253165,2.025316,0.0632911)">
      <stop offset="0" style="stop-color:rgb(84.705882%,20%,20%);stop-opacity:1;" />
      <stop offset="1" style="stop-color:rgb(94.117647%,25.490196%,100%);stop-opacity:1;" />
    </linearGradient>
    <clipPath id="clip1">
      <path d="M 2.023438 0.0625 L 18.226562 0.0625 L 18.226562 14 L 2.023438 14 Z M 2.023438 0.0625 " />
    </clipPath>
  </defs>
  <g id="surface1">
    <path style=" stroke:none;fill-rule:nonzero;fill:url(#linear0);"
      d="M 7.085938 16.753906 C 6.105469 15.867188 5.820312 14.007812 6.226562 12.660156 C 6.9375 13.511719 7.917969 13.78125 8.9375 13.933594 C 10.507812 14.167969 12.050781 14.078125 13.507812 13.371094 C 13.675781 13.289062 13.828125 13.179688 14.011719 13.074219 C 14.148438 13.464844 14.183594 13.859375 14.136719 14.261719 C 14.019531 15.242188 13.523438 16 12.738281 16.574219 C 12.425781 16.804688 12.089844 17.011719 11.765625 17.226562 C 10.769531 17.894531 10.5 18.671875 10.875 19.808594 C 10.882812 19.835938 10.890625 19.863281 10.910156 19.929688 C 10.402344 19.707031 10.027344 19.378906 9.746094 18.949219 C 9.445312 18.492188 9.300781 17.988281 9.296875 17.445312 C 9.292969 17.179688 9.292969 16.914062 9.253906 16.652344 C 9.167969 16.015625 8.863281 15.730469 8.292969 15.714844 C 7.707031 15.699219 7.246094 16.054688 7.121094 16.617188 C 7.113281 16.660156 7.097656 16.703125 7.085938 16.753906 Z M 7.085938 16.753906 " />
    <g clip-path="url(#clip1)" clip-rule="nonzero">
      <path style=" stroke:none;fill-rule:nonzero;fill:rgb(100%,100%,100%);fill-opacity:1;"
        d="M 2.152344 13.074219 C 2.152344 13.074219 4.835938 11.769531 7.527344 11.769531 L 9.554688 5.507812 C 9.628906 5.207031 9.851562 5 10.101562 5 C 10.351562 5 10.574219 5.207031 10.648438 5.507812 L 12.679688 11.769531 C 15.863281 11.769531 18.050781 13.074219 18.050781 13.074219 C 18.050781 13.074219 13.496094 0.691406 13.484375 0.664062 C 13.355469 0.300781 13.132812 0.0625 12.835938 0.0625 L 7.367188 0.0625 C 7.070312 0.0625 6.859375 0.300781 6.71875 0.664062 C 6.707031 0.691406 2.152344 13.074219 2.152344 13.074219 Z M 2.152344 13.074219 " />
    </g>
  </g>
</svg>