<svg xmlns="http://www.w3.org/2000/svg" viewBox="0 0 20 20">
  <rect width="100%" height="100%" fill="#1C1E24"/>
  <path fill="url(#a)" d="M7.35 16.62c-.89-.8-1.15-2.49-.78-3.7.64.77 1.53 1 2.46 1.15 1.42.21 2.82.13 4.14-.51l.45-.27c.13.35.16.71.12 1.07-.1.9-.56 1.58-1.27 2.1l-.88.6c-.9.6-1.15 1.3-.8 2.33l.02.11a2.46 2.46 0 0 1-1.46-2.25c0-.24 0-.48-.04-.72-.07-.58-.35-.83-.87-.85-.53-.01-.95.3-1.06.82l-.03.12Z"/>
  <path fill="#fff" d="M2.88 13.29S5.3 12.1 7.75 12.1l1.84-5.68c.06-.27.26-.46.5-.46.22 0 .42.2.49.46l1.84 5.68a10.3 10.3 0 0 1 4.86 1.18L13.15 2.05c-.12-.33-.32-.55-.6-.55H7.6c-.27 0-.46.22-.58.55L2.88 13.29Z"/>
  <linearGradient id="a" x1="6.41" x2="14.95" y1="19.5" y2="15.41" gradientUnits="userSpaceOnUse">
    <stop stop-color="#D83333"/>
    <stop offset="1" stop-color="#F041FF"/>
  </linearGradient>
</svg>