<svg xmlns="http://www.w3.org/2000/svg" viewBox="0 0 20 20">
  <rect width="100%" height="100%" fill="#202936"/>
  <path fill="#fff" d="M6.3 8.7c0 .2.01.36.05.49.05.12.1.25.18.4.03.04.04.09.04.13 0 .05-.03.1-.1.16l-.36.24a.27.27 0 0 1-.15.05c-.05 0-.11-.03-.17-.08a1.72 1.72 0 0 1-.2-.26l-.18-.33c-.44.51-1 .77-1.66.77-.47 0-.85-.14-1.13-.4A1.42 1.42 0 0 1 2.2 8.8c0-.47.17-.86.52-1.15.34-.29.8-.43 1.38-.43a4.55 4.55 0 0 1 1.25.17v-.41c0-.42-.09-.72-.26-.9-.18-.16-.49-.25-.93-.25a4.56 4.56 0 0 0-1.42.33.35.35 0 0 1-.08.02c-.08 0-.12-.05-.12-.17v-.27c0-.09 0-.16.04-.2a.42.42 0 0 1 .15-.11 3.48 3.48 0 0 1 1.6-.36c.67 0 1.16.15 1.48.45.31.3.47.76.47 1.37v1.8h.01ZM4 9.53c.18 0 .37-.04.58-.1.2-.07.38-.2.53-.36.1-.1.16-.22.2-.35.03-.14.05-.3.05-.49v-.23a4.8 4.8 0 0 0-1.05-.13c-.38 0-.65.07-.84.22a.77.77 0 0 0-.28.64c0 .26.07.46.21.6.14.13.34.2.6.2Zm4.54.6c-.1 0-.17-.02-.22-.06-.04-.03-.08-.1-.12-.21l-1.33-4.3a.96.96 0 0 1-.05-.23c0-.08.05-.13.14-.13h.55c.1 0 .18.01.22.05.05.03.08.11.12.22l.95 3.68.88-3.68c.03-.11.06-.19.1-.22a.4.4 0 0 1 .23-.05h.45c.11 0 .18.01.23.05.04.03.08.11.1.22l.9 3.72.98-3.72a.47.47 0 0 1 .11-.22.37.37 0 0 1 .22-.05h.53c.09 0 .14.04.14.13l-.01.1-.04.13-1.36 4.3c-.04.11-.08.18-.12.22a.37.37 0 0 1-.22.05h-.48c-.11 0-.18-.01-.23-.05-.05-.04-.09-.11-.1-.22l-.88-3.6-.87 3.59c-.03.11-.07.18-.11.22-.05.04-.13.06-.23.06h-.48Zm7.26.15a3.8 3.8 0 0 1-1.52-.32c-.1-.05-.15-.11-.18-.16a.39.39 0 0 1-.03-.16v-.28c0-.12.05-.17.13-.17.03 0 .07 0 .1.02.04 0 .09.03.14.05a3.11 3.11 0 0 0 1.3.26c.35 0 .63-.06.82-.18.2-.12.3-.3.3-.53a.54.54 0 0 0-.15-.39c-.1-.1-.3-.2-.58-.29l-.82-.25a1.73 1.73 0 0 1-.9-.57 1.31 1.31 0 0 1-.13-1.42c.1-.18.24-.33.4-.46.18-.12.37-.22.6-.29a2.5 2.5 0 0 1 1.09-.07 6.3 6.3 0 0 1 .69.15l.23.1c.08.05.14.1.17.14.04.05.05.1.05.19v.26c0 .11-.04.17-.13.17a.6.6 0 0 1-.21-.06 2.62 2.62 0 0 0-1.09-.22c-.32 0-.57.05-.75.16a.53.53 0 0 0-.26.5c0 .15.05.28.17.39.1.1.32.2.62.3l.8.25c.4.13.7.3.88.54.17.23.26.49.26.78a1.41 1.41 0 0 1-.56 1.13c-.18.14-.39.24-.63.31-.26.08-.52.12-.8.12Z"/>
  <path fill="#F90" d="M15.47 12.05c.6-.07 1.94-.23 2.17.07.24.3-.26 1.54-.49 2.09-.07.17.08.23.23.1 1-.82 1.26-2.54 1.06-2.79-.2-.24-1.96-.45-3.02.28-.16.12-.13.27.05.25Z"/>
  <path fill="#F90" d="M9.98 15.06c2.33 0 5.03-.72 6.89-2.07.3-.22.04-.56-.27-.42a17.03 17.03 0 0 1-14.83-.9c-.21-.13-.37.08-.2.24a12.58 12.58 0 0 0 8.41 3.15Z"/>
</svg>