<svg viewBox="0 0 20 20" xmlns="http://www.w3.org/2000/svg">
<rect width="100%" height="100%" fill="#D86613"/>
<path fill-rule="evenodd" clip-rule="evenodd" d="M5.47187 3.02237C5.47187 2.87194 5.59381 2.75 5.74424 2.75H10.0208C10.1251 2.75 10.2203 2.80961 10.2658 2.90349L15.2394 13.1558H16.4112C16.5617 13.1558 16.6836 13.2777 16.6836 13.4282V16.4776C16.6836 16.6281 16.5617 16.75 16.4112 16.75H12.9487C12.8444 16.75 12.7492 16.6904 12.7037 16.5966L7.73624 6.36242H5.74424C5.59381 6.36242 5.47187 6.24047 5.47187 6.09005V3.02237ZM6.01661 3.29474V5.81768H7.9068C8.01112 5.81768 8.10628 5.87726 8.15183 5.97111L13.1193 16.2053H16.1389V13.7005H15.0688C14.9644 13.7005 14.8692 13.6409 14.8237 13.5471L9.85016 3.29474H6.01661ZM7.29227 8.19444C7.39711 8.19388 7.49297 8.25355 7.53875 8.34786L9.34282 12.0642C9.37837 12.1375 9.3793 12.2228 9.34535 12.2968L7.38665 16.5654C7.34225 16.6621 7.24555 16.7241 7.13909 16.7241H3.52237C3.42906 16.7241 3.34224 16.6764 3.2923 16.5975C3.24235 16.5187 3.23624 16.4198 3.27609 16.3354L7.04744 8.35049C7.09222 8.25569 7.18743 8.195 7.29227 8.19444ZM7.2971 9.09745L3.95224 16.1794H6.9644L8.79662 12.1865L7.2971 9.09745Z" fill="white"/>
</svg>
