<svg xmlns="http://www.w3.org/2000/svg" viewBox="0 0 20 20">
  <rect width="100%" height="100%" fill="#D86613"/>
  <path fill="#fff" d="M15.24 13.16h1.17l.01-.01c.15 0 .27.12.27.27v3.05c0 .15-.12.27-.27.27h-3.46a.28.28 0 0 1-.25-.15L7.74 6.36H5.75a.27.27 0 0 1-.27-.27V3.02c0-.15.12-.27.27-.27h4.28c.1 0 .2.06.24.15l4.97 10.26Z"/>
  <path fill="#fff" d="M7.3 8.2c.1 0 .2.06.24.15h.02l1.8 3.72a.3.3 0 0 1 0 .23L7.4 16.57a.27.27 0 0 1-.25.16H3.53a.28.28 0 0 1-.23-.13.27.27 0 0 1-.02-.26l3.77-7.98c.04-.1.14-.16.24-.16Z"/>
</svg>