<svg viewBox="0 0 20 20" xmlns="http://www.w3.org/2000/svg">
<rect width="100%" height="100%" fill="white"/>
<path d="M7.45317 2.75017H11.8497L7.28567 16.273C7.23877 16.4119 7.14946 16.5327 7.03033 16.6182C6.9112 16.7038 6.76824 16.7498 6.62158 16.7498H3.19997C3.08885 16.7498 2.97933 16.7234 2.88045 16.6727C2.78158 16.622 2.69621 16.5484 2.63139 16.4582C2.56658 16.3679 2.52419 16.2635 2.50772 16.1536C2.49126 16.0437 2.5012 15.9315 2.53672 15.8262L6.78891 3.22701C6.8358 3.08799 6.92512 2.96719 7.04429 2.88162C7.16345 2.79604 7.30647 2.75018 7.45317 2.75017Z" fill="url(#paint0_linear_30_773)"/>
<path d="M13.842 11.8203H6.87015C6.80533 11.8202 6.742 11.8397 6.68839 11.8761C6.63479 11.9126 6.5934 11.9643 6.56962 12.0246C6.54584 12.0849 6.54077 12.151 6.55507 12.2142C6.56937 12.2774 6.60238 12.3349 6.6498 12.379L11.1298 16.5605C11.2602 16.6822 11.4319 16.7498 11.6103 16.7498H15.5581L13.842 11.8203Z" fill="#0078D4"/>
<path d="M7.4535 2.75025C7.30519 2.74968 7.16058 2.79655 7.0408 2.88401C6.92102 2.97147 6.83234 3.09493 6.78772 3.23637L2.54228 15.8148C2.50437 15.9205 2.49247 16.0337 2.50758 16.145C2.5227 16.2562 2.56438 16.3622 2.62911 16.4539C2.69384 16.5456 2.77971 16.6204 2.87946 16.6719C2.9792 16.7235 3.08989 16.7502 3.20216 16.7499H6.71207C6.8428 16.7265 6.96498 16.6689 7.06614 16.5829C7.1673 16.4969 7.24381 16.3855 7.28786 16.2602L8.13448 13.7651L11.1586 16.5858C11.2853 16.6906 11.4443 16.7486 11.6088 16.7499H15.5418L13.8168 11.8205L8.78827 11.8216L11.8659 2.75025H7.4535Z" fill="url(#paint1_linear_30_773)"/>
<path d="M13.0688 3.22641C13.0219 3.08762 12.9328 2.96701 12.8138 2.88159C12.6948 2.79617 12.552 2.75023 12.4055 2.75024H7.50562C7.65208 2.75025 7.79486 2.7962 7.91384 2.88162C8.03283 2.96704 8.12202 3.08763 8.16886 3.22641L12.4212 15.8261C12.4568 15.9314 12.4667 16.0437 12.4503 16.1536C12.4338 16.2635 12.3915 16.368 12.3266 16.4582C12.2618 16.5485 12.1764 16.6221 12.0776 16.6728C11.9787 16.7236 11.8691 16.7501 11.758 16.7501H16.658C16.7692 16.75 16.8787 16.7235 16.9776 16.6728C17.0764 16.622 17.1618 16.5485 17.2266 16.4582C17.2914 16.3679 17.3338 16.2635 17.3502 16.1536C17.3666 16.0437 17.3567 15.9314 17.3211 15.8261L13.0688 3.22641Z" fill="url(#paint2_linear_30_773)"/>
<linearGradient id="paint0_linear_30_773" x1="9.05558" y1="3.78759" x2="4.48966" y2="17.2765" gradientUnits="userSpaceOnUse">
<stop stop-color="#114A8B"/>
<stop offset="1" stop-color="#0669BC"/>
</linearGradient>
<linearGradient id="paint1_linear_30_773" x1="10.4822" y1="10.0739" x2="9.42603" y2="10.431" gradientUnits="userSpaceOnUse">
<stop stop-opacity="0.3"/>
<stop offset="0.071" stop-opacity="0.2"/>
<stop offset="0.321" stop-opacity="0.1"/>
<stop offset="0.623" stop-opacity="0.05"/>
<stop offset="1" stop-opacity="0"/>
</linearGradient>
<linearGradient id="paint2_linear_30_773" x1="9.90111" y1="3.39424" x2="14.9131" y2="16.7472" gradientUnits="userSpaceOnUse">
<stop stop-color="#3CCBF4"/>
<stop offset="1" stop-color="#2892DF"/>
</linearGradient>
</svg>
