<svg xmlns="http://www.w3.org/2000/svg" viewBox="0 0 20 20"><rect width="100%" height="100%" fill="#FDBC0F"/><path fill="#fff" d="M6.92 18.13 14.25 7.6H10.7l3.45-5.36H8.96l-2.79 7.96 3.4.03-2.65 7.88Z"/><path fill="#fff" d="M1.6 10.3c-.15-.17-.12-.46 0-.63l.83-.83 3.66-3.6c.16-.16.4-.16.6 0 .15.16.2.45 0 .62L2.9 9.68c-.16.16-.16.46 0 .62l3.85 3.95c.15.16.15.46 0 .62-.16.16-.45.13-.59 0l-3.72-3.6-.02-.02-.82-.96ZM18.4 10.3c.15-.17.12-.46 0-.63l-.83-.83-3.66-3.6c-.16-.16-.4-.16-.6 0-.15.16-.2.45 0 .62l3.86 3.82c.15.16.15.46 0 .62l-3.93 3.95c-.15.16-.15.46 0 .62.16.16.45.13.59 0l3.64-3.65.03-.03.9-.9Z"/></svg>