<svg viewBox="0 0 20 20" xmlns="http://www.w3.org/2000/svg">
<rect width="100%" height="100%" fill="white"/>
<path d="M18.3931 10.2923C18.5484 10.135 18.5225 9.83775 18.3931 9.67166L17.5732 8.84119L13.9053 5.2396C13.75 5.08224 13.5083 5.08224 13.3184 5.2396C13.1631 5.39695 13.1027 5.69417 13.3184 5.86026L17.1676 9.6804C17.3229 9.83775 17.3229 10.135 17.1676 10.3011L13.2408 14.2523C13.0854 14.4097 13.0854 14.7069 13.2408 14.873C13.3961 15.0303 13.6896 15.0041 13.8276 14.873L17.4696 11.2189C17.4696 11.2189 17.4696 11.2189 17.4955 11.1927L18.3931 10.2923Z" fill="#3999C6"/>
<path d="M1.60702 10.2923C1.45167 10.135 1.47757 9.83775 1.60702 9.67166L2.4269 8.84119L6.09478 5.2396C6.25013 5.08224 6.49178 5.08224 6.68164 5.2396C6.83699 5.39695 6.8974 5.69417 6.68164 5.86026L2.9102 9.6804C2.75485 9.83775 2.75485 10.135 2.9102 10.3011L6.75932 14.2523C6.91466 14.4097 6.91466 14.7069 6.75932 14.873C6.60397 15.0303 6.31054 15.0041 6.17246 14.873L2.45279 11.2714C2.45279 11.2714 2.45279 11.2714 2.4269 11.2452L1.60702 10.2923Z" fill="#3999C6"/>
<path d="M6.91457 18.125L14.2503 7.60869H10.686L14.1381 2.25H8.95995L6.17236 10.2137L9.57271 10.24L6.91457 18.125Z" fill="#FCD116"/>
<path opacity="0.3" d="M11.9633 8.89372L6.91455 18.125L14.2503 7.60869H10.686L14.1381 2.25H11.4282L8.56294 8.8675L11.9633 8.89372Z" fill="#FF8C00"/>
</svg>