<svg viewBox="0 0 20 20" xmlns="http://www.w3.org/2000/svg">
<rect width="100%" height="100%" fill="#6D32D6"/>
<path d="M7.50797 9.488C7.63114 9.488 7.70813 9.62134 7.64653 9.728L7.25856 10.4C7.19699 10.5067 7.04301 10.5067 6.98144 10.4L6.59347 9.728C6.53187 9.62135 6.60887 9.488 6.73203 9.488H7.50797Z" fill="white"/>
<path d="M4.512 6.59347C4.61866 6.53187 4.752 6.60887 4.752 6.73203V7.50797C4.752 7.63114 4.61866 7.70813 4.512 7.64653L3.84 7.25856C3.73334 7.19699 3.73334 7.04301 3.84 6.98144L4.512 6.59347Z" fill="white"/>
<path d="M9.488 6.73203C9.488 6.60887 9.62135 6.53187 9.728 6.59347L10.4 6.98144C10.5067 7.04301 10.5067 7.19699 10.4 7.25856L9.728 7.64653C9.62134 7.70813 9.488 7.63114 9.488 7.50797V6.73203Z" fill="white"/>
<path d="M6.98144 3.84C7.04301 3.73334 7.19699 3.73334 7.25856 3.84L7.64653 4.512C7.70813 4.61866 7.63114 4.752 7.50797 4.752H6.73203C6.60887 4.752 6.53187 4.61866 6.59347 4.512L6.98144 3.84Z" fill="white"/>
<path fill-rule="evenodd" clip-rule="evenodd" d="M10 2C14.4183 2 18 5.58173 18 10C18 14.4183 14.4183 18 10 18C5.58173 18 2 14.4183 2 10V5.136H2.00069C2.03436 3.41951 3.41951 2.03433 5.136 2.00066V2H10ZM12.24 8.144H12.4379C13.1062 8.144 13.648 8.68577 13.648 9.35409C13.648 11.7255 11.7255 13.648 9.35409 13.648C8.68577 13.648 8.144 13.1062 8.144 12.4379V12.24H6.096V12.4379C6.096 14.2373 7.5547 15.696 9.35409 15.696C12.8566 15.696 15.696 12.8566 15.696 9.35409C15.696 7.5547 14.2373 6.096 12.4379 6.096H12.24V8.144ZM6.096 6.096H2.96V8.144H6.096V11.28H8.144V8.144H11.28V6.096H8.144V2.96H6.096V6.096Z" fill="white"/>
</svg>
