<svg xmlns="http://www.w3.org/2000/svg" viewBox="0 0 20 20">
  <rect width="100%" height="100%" fill="#5C2D91"/>
  <path fill="#fff" d="m1.52 10.12-.02.1v.93l.03.22.05.44A6.13 6.13 0 0 0 8.04 17c.6-.01 1.18-.06 1.76-.16a8.55 8.55 0 0 0 4.9-2.68h-.05l-.08.06a11.04 11.04 0 0 1-5.25 1.7c-.76.06-1.52.03-2.26-.1a5.3 5.3 0 0 1-4.27-3.8 4.97 4.97 0 0 1-.06-2.34c.2-1.06.74-2.04 1.55-2.77.9-.86 2.09-1.37 3.34-1.42a5.19 5.19 0 0 1 5.48 4.67c.07.4.07.8 0 1.2-.08.45-.3.87-.62 1.2a1.77 1.77 0 0 1-1.58.49 1.77 1.77 0 0 1-1.16-.63l-.12-.16a.9.9 0 0 0-.02.04l-.05.05a2.5 2.5 0 0 1-2.44.77 2.59 2.59 0 0 1-2.01-2.79 2.55 2.55 0 0 1 2.59-2.27h1.44a1.1 1.1 0 0 1 1.03.67c.06.14.08.29.08.43v1.7c0 .14.02.29.05.42a.9.9 0 0 0 .47.63.91.91 0 0 0 .78.02.96.96 0 0 0 .5-.63c.1-.34.12-.7.05-1.05-.1-1-.59-1.92-1.34-2.6A4.08 4.08 0 0 0 7.29 6.6a4.03 4.03 0 0 0-2.76 1.65 3.97 3.97 0 0 0 .72 5.59c.7.59 1.58.94 2.5 1.01.42.02.82.02 1.25.02a9.86 9.86 0 0 0 7.18-3.43 9.13 9.13 0 0 0 2.28-6.9 6.69 6.69 0 0 0-.78-2.7c-.03-.05-.05-.1-.11-.09a.21.21 0 0 0-.12.1l-.22.36-.2.34a5.96 5.96 0 0 1-1.47 1.64 6.55 6.55 0 0 1-2.31 1.03.1.1 0 0 1-.05-.02c-.02-.02 0-.07 0-.1l.12-.2.22-.4a5.39 5.39 0 0 0 .52-1.82c0-.05.01-.11-.05-.13-.05-.02-.08 0-.11.04l-.02.02-.18.17-.37.34a5.47 5.47 0 0 1-3.3 1.25c-.41.02-.83.01-1.25.01H7.76a6.12 6.12 0 0 0-4.44 1.88 6.27 6.27 0 0 0-1.79 3.8l-.01.06Z"/>
  <path fill="#fff" d="M9.21 10.72V9.24c0-.12-.03-.15-.14-.15H7.66a1.56 1.56 0 0 0-1.41.93 1.52 1.52 0 0 0 1.06 2.1 1.56 1.56 0 0 0 1.6-.57c.17-.24.28-.53.3-.83Z"/>
</svg>