<svg viewBox="0 0 20 20" fill="none" xmlns="http://www.w3.org/2000/svg">
<rect width="20" height="20" fill="#1F084E"/>
<path d="M12.0898 12.3543C12.0898 12.3906 12.0815 12.4154 12.065 12.4286C12.0518 12.4419 12.0253 12.4485 11.9857 12.4485H11.6485C11.6154 12.4485 11.5923 12.4435 11.5791 12.4336C11.5659 12.4204 11.5593 12.3989 11.5593 12.3691L11.5692 8.84391C11.5692 8.79433 11.5907 8.76953 11.6336 8.76953H12.0253C12.0459 8.76953 12.0898 8.76971 12.0898 8.76971V8.84391V12.3543ZM8.21695 12.4488C8.19382 12.4488 8.17563 12.4422 8.16241 12.429C8.14919 12.4158 8.14258 12.3992 8.14258 12.3794V8.85418C8.14258 8.79798 8.16902 8.76988 8.22191 8.76988H9.42674C9.88288 8.76988 10.2333 8.85252 10.4779 9.01779C10.7225 9.17975 10.8448 9.4161 10.8448 9.72681C10.8448 9.92182 10.7935 10.0871 10.6911 10.2226C10.5886 10.3548 10.4233 10.4623 10.1953 10.5449C10.182 10.5482 10.1754 10.5565 10.1754 10.5697C10.1754 10.5796 10.182 10.5862 10.1953 10.5895C10.4398 10.6556 10.6233 10.7597 10.7456 10.9019C10.8712 11.044 10.934 11.2308 10.934 11.4621C10.934 11.7927 10.8101 12.0406 10.5621 12.2059C10.3142 12.3678 9.95065 12.4488 9.47136 12.4488H8.21695ZM9.49615 10.3714C9.70439 10.3714 9.88123 10.3251 10.0267 10.2325C10.1721 10.14 10.2448 9.99454 10.2448 9.79622C10.2448 9.59789 10.1721 9.44749 10.0267 9.34503C9.88454 9.24256 9.68787 9.19132 9.43666 9.19132H8.81689C8.76731 9.19132 8.74251 9.21281 8.74251 9.25578V10.3019C8.74251 10.3482 8.76069 10.3714 8.79706 10.3714H9.49615ZM9.44657 12.0274C10.0217 12.0274 10.3093 11.8274 10.3093 11.4274C10.3093 11.2192 10.2349 11.0638 10.0862 10.9614C9.93743 10.8589 9.74075 10.8077 9.49615 10.8077H8.82184C8.7921 10.8077 8.77061 10.8126 8.75738 10.8226C8.74747 10.8325 8.74251 10.849 8.74251 10.8721V11.953C8.74251 12.0026 8.76069 12.0274 8.79706 12.0274H9.44657ZM15.8149 12.4347C15.8249 12.4446 15.843 12.4496 15.8695 12.4496H17.8677C17.9172 12.4496 17.942 12.4264 17.942 12.3802V12.1521V12.0926H17.8775H16.5091C16.4826 12.0926 16.4694 12.0843 16.4694 12.0678C16.4694 12.0579 16.4744 12.0463 16.4843 12.0331L17.8677 10.2035C17.904 10.1473 17.9222 10.0978 17.9222 10.0548V9.8763V9.82156C17.9222 9.82156 17.8846 9.82176 17.8677 9.82176H15.9637C15.9273 9.82176 15.9092 9.84159 15.9092 9.88126V10.1044C15.9092 10.1308 15.9125 10.149 15.9191 10.1589C15.9289 10.1688 15.9472 10.1738 15.9736 10.1738H17.2082C17.2379 10.1738 17.2528 10.1821 17.2528 10.1986L17.2379 10.2283L15.8646 12.0579C15.8381 12.0942 15.8199 12.1223 15.81 12.1422C15.8034 12.162 15.8001 12.1868 15.8001 12.2165V12.3802C15.8001 12.4066 15.805 12.4248 15.8149 12.4347ZM13.3152 8.76974H12.7897V9.61346C13.08 9.61346 13.3152 9.37816 13.3152 9.0879V8.76974ZM13.3149 12.3541C13.3149 12.3904 13.3067 12.4152 13.2901 12.4284C13.2769 12.4416 13.2521 12.4483 13.2157 12.4483H12.8787C12.8456 12.4483 12.8224 12.4433 12.8092 12.4334C12.7959 12.4202 12.7894 12.3987 12.7894 12.3689V9.89482C12.7894 9.86837 12.7943 9.8502 12.8043 9.84028C12.8142 9.82706 12.8323 9.82045 12.8588 9.82045H13.3248L13.3149 12.3541ZM14.7944 10.2482C14.7944 10.2151 14.8092 10.1986 14.839 10.1986H15.434C15.4803 10.1986 15.5034 10.1787 15.5034 10.1391V9.8763V9.82176H15.4439H14.8489C14.8192 9.82176 14.8043 9.80688 14.8043 9.77713V9.00862V8.9293L14.7399 8.92929H14.3978C14.3647 8.92929 14.3448 8.95243 14.3383 8.99871L14.2787 9.77713C14.2787 9.80688 14.2655 9.82176 14.2391 9.82176H13.8424C13.8028 9.82176 13.7829 9.83993 13.7829 9.8763V10.1391C13.7829 10.1787 13.8044 10.1986 13.8474 10.1986H14.2193C14.2523 10.1986 14.2688 10.2184 14.2688 10.2581V11.8298C14.2688 12.0413 14.3218 12.1984 14.4275 12.3008C14.5333 12.4 14.6952 12.4496 14.9134 12.4496C15.1447 12.4496 15.3134 12.4413 15.4191 12.4248C15.4687 12.4149 15.4934 12.3868 15.4934 12.3405V12.1273V12.0678H15.434H15.1167C15.0043 12.0678 14.9216 12.0413 14.8688 11.9885C14.8192 11.9356 14.7944 11.8397 14.7944 11.7009V10.2482Z" fill="white"/>
<path d="M2 10.1462H3.04077C3.43682 10.1462 3.80986 10.3324 4.048 10.6489L5.07462 12.0132C5.09403 12.0389 5.09696 12.0736 5.08216 12.1022L4.49037 13.2488C4.46198 13.3038 4.38587 13.3103 4.3486 13.2609L2 10.1462Z" fill="white"/>
<path d="M6.09517 10.1481H5.05441C4.65835 10.1481 4.28532 9.96193 4.04718 9.64546L3.02055 8.28116C3.00115 8.25537 2.99822 8.22076 3.01302 8.19208L3.60481 7.0455C3.6332 6.99049 3.7093 6.98402 3.74658 7.03345L6.09517 10.1481Z" fill="white"/>
</svg>
