<svg xmlns="http://www.w3.org/2000/svg" viewBox="0 0 20 20">
  <rect width="100%" height="100%" fill="#6831ED"/>
  <path fill="#fff" fill-rule="evenodd" d="M4.74 2.75a1.8 1.8 0 0 0-1.75 1.87c.03.94-.01 2.15-.32 3.14-.3 1-.82 1.62-1.67 1.7v.91c.85.09 1.36.71 1.67 1.7.3 1 .35 2.2.32 3.15a1.8 1.8 0 0 0 1.75 1.87h10.52a1.8 1.8 0 0 0 1.76-1.87c-.04-.94 0-2.15.31-3.14.3-1 .82-1.62 1.67-1.7v-.92c-.85-.08-1.36-.7-1.67-1.7-.3-.99-.35-2.2-.31-3.14a1.8 1.8 0 0 0-1.76-1.87H4.74Zm8.46 8.83c0 1.34-1 2.15-2.66 2.15H7.71a.3.3 0 0 1-.3-.3V6.4a.3.3 0 0 1 .3-.3h2.81c1.39 0 2.3.75 2.3 1.9 0 .8-.61 1.53-1.4 1.66v.04c1.07.12 1.78.85 1.78 1.87Zm-2.97-4.5H8.62v2.27h1.36c1.05 0 1.63-.42 1.63-1.18 0-.7-.5-1.1-1.38-1.1Zm-1.61 3.18v2.5h1.67c1.1 0 1.67-.43 1.67-1.26 0-.82-.6-1.25-1.74-1.25h-1.6Z" clip-rule="evenodd"/>
</svg>