<svg xmlns="http://www.w3.org/2000/svg" viewBox="0 0 20 20">
  <rect width="100%" height="100%" fill="#28B09F"/>
  <path fill="#fff" d="m8.89 6.64 2.65-4.42c.42-.7.81-.79 1.52-.37 1.1.64 2.17 1.29 3.26 1.94.78.47.86.83.39 1.62l-2.6 4.32a5.89 5.89 0 0 1-3.71 8.48 5.92 5.92 0 0 1-7.28-4.44 5.92 5.92 0 0 1 5.77-7.13Zm.29.54a5.35 5.35 0 0 0-3.34 9.76 5.39 5.39 0 0 0 7.66-7.2l3.09-5.19L12.29 2 9.18 7.18Z"/>
  <path fill="#fff" d="M9.6 8.1a.55.55 0 0 0-.5.06c-.14.22-.13.41 0 .6.18.15.36.15.56.06.24-.27.2-.5-.05-.73ZM12.24 9.22a.8.8 0 0 1-.83.79.8.8 0 0 1-.79-.84c.01-.47.36-.8.84-.79.46.01.79.36.78.84ZM13.7 11.67c.5 1.32-.29 3.51-1.62 4.54a4.9 4.9 0 0 1-5.98.21c-1.6-1.13-2.43-3.33-1.87-5.07l.66.07.94.1c.52-1.12.74-1.2 1.92-.68.3-1 .78-1.46 1.5-1.44.72.01 1.17.45 1.44 1.43.53-.13.88.1 1.07.62l.69.06c.42.02.85.05 1.25.16Z"/>
</svg>