<?xml version="1.0" encoding="utf-8"?>
<!-- Generator: Adobe Illustrator 18.1.1, SVG Export Plug-In . SVG Version: 6.00 Build 0)  -->
<!DOCTYPE svg PUBLIC "-//W3C//DTD SVG 1.1//EN" "http://www.w3.org/Graphics/SVG/1.1/DTD/svg11.dtd">
<svg version="1.1" id="Layer_1" xmlns="http://www.w3.org/2000/svg" xmlns:xlink="http://www.w3.org/1999/xlink" x="0px" y="0px"
	 viewBox="0 0 64 64" enable-background="new 0 0 64 64" xml:space="preserve">
<g>
	<g>
		<path fill="#050606" d="M27.6,58.3C27.6,58.3,27.6,58.3,27.6,58.3c-4,0-7.9-1.3-11.2-3.7c-4.1-3-6.8-7.4-7.6-12.4
			c-0.8-5,0.4-10,3.4-14.1c3.6-4.9,9.3-7.8,15.3-7.8c0.8,0,1.7,0.1,2.5,0.2l10.2-14c0.5-0.7,1.6-1,2.5-0.6l0.5,0.2
			c1.4,0.7,3.4,1.7,6,3.5c2.5,1.8,4.1,3.4,5.1,4.5l0.5,0.5c0.7,0.7,0.8,1.7,0.2,2.5l-10.2,14c3,6.3,2.3,13.7-1.8,19.3
			C39.4,55.4,33.7,58.3,27.6,58.3z M27.6,22.3c-5.4,0-10.5,2.6-13.7,7c-2.7,3.7-3.8,8.2-3.1,12.6c0.7,4.5,3.1,8.4,6.8,11.1
			c2.9,2.1,6.4,3.3,10,3.3c0,0,0,0,0,0c5.4,0,10.6-2.6,13.7-7c3.8-5.2,4.3-12,1.4-17.8c-0.2-0.3-0.1-0.7,0.1-1L53.4,16l-0.5-0.4
			c-1-1.1-2.5-2.6-4.8-4.3c-2.4-1.7-4.4-2.7-5.7-3.4l-0.5-0.2L31.4,22.2c-0.2,0.3-0.6,0.5-1,0.4C29.5,22.4,28.6,22.3,27.6,22.3z"/>
	</g>
	<g>
		<g>
			<path fill="#050606" d="M41.9,38.9c-2.2-0.2-4.1-0.5-5.9-0.8c0-0.2,0.1-0.3,0.1-0.5c0-1.9-1.6-3.5-3.5-3.5c-1.3,0-2.4,0.7-3,1.7
				c-0.6-0.4-1.3-0.7-2.1-0.7c-1.4,0-2.6,0.8-3.2,2c-1,0-2,0-3,0.1c-0.4-0.6-1.1-0.9-1.9-0.9c-0.9,0-1.7,0.5-2.1,1.2
				c-1.3,0.1-2.6,0.3-3.8,0.4c-0.1,0.5-0.1,1-0.1,1.6c0,7.9,6.4,14.3,14.3,14.3c7.9,0,14.3-6.4,14.3-14.3
				C41.9,39.2,41.9,39.1,41.9,38.9z"/>
		</g>
		<g>
			<circle fill="#050606" cx="31.6" cy="30.2" r="2.3"/>
		</g>
		<g>
			<circle fill="#050606" cx="25.9" cy="31.6" r="1.2"/>
		</g>
	</g>
</g>
</svg>
