<svg id="Layer_1" data-name="Layer 1" xmlns="http://www.w3.org/2000/svg" viewBox="0 0 20 20"><defs><style>.cls-2{fill:#fff}</style></defs><path fill="#109985" d="M0 0h20v20H0z"/><rect class="cls-2" x="12.13" y="4.62" width="6" height="1" rx=".28" ry=".28" transform="rotate(45 15.13 5.117)"/><path class="cls-2" d="M14.17 8.91l2.37-2.37-.71-.71-2.9 2.9a5 5 0 0 1-.38 6 .36.36 0 0 1-.52 0L5.49 8.22a.36.36 0 0 1 0-.52 5 5 0 0 1 6-.38l2.9-2.9-.71-.71-2.34 2.37a6 6 0 1 0 2.83 2.83z"/><circle class="cls-2" cx="11.41" cy="11.78" r=".67"/><circle class="cls-2" cx="11.53" cy="8.19" r=".38"/><circle class="cls-2" cx="7.35" cy="10.72" r="1.79"/></svg>