<svg viewBox="0 0 20 20" xmlns="http://www.w3.org/2000/svg">
<path d="M20 0H0V20H20V0Z" fill="white"/>
<path d="M17.8709 6.37405C17.8304 6.33103 17.7874 6.28798 17.7443 6.24748C17.7013 6.20698 17.6608 6.1614 17.6177 6.12088C17.5747 6.08038 17.5342 6.0348 17.4911 5.9943C17.4481 5.9538 17.4076 5.90823 17.3645 5.86773C17.3215 5.82723 17.281 5.78165 17.238 5.74115C17.1949 5.70063 17.1544 5.65508 17.1114 5.61455C17.0684 5.57405 17.0279 5.52848 16.9848 5.48798C18.2406 6.72208 18.9599 8.40095 18.9874 10.1614C18.9874 14.3563 14.7291 17.769 9.49368 17.769C6.56203 17.769 3.93925 16.6981 2.19493 15.0196L2.32152 15.1462L2.4481 15.2728L2.57467 15.3994L2.70127 15.526L2.82785 15.6525L2.95442 15.7791L3.081 15.9057C4.82277 17.6551 7.5038 18.7817 10.5063 18.7817C15.7418 18.7817 20 15.369 20 11.1867C20 9.39938 19.2304 7.7057 17.8709 6.37405Z" fill="black"/>
<path d="M18.3544 10.1614C18.3544 14.012 14.3873 17.1335 9.49367 17.1335C4.6 17.1335 0.632912 14.012 0.632912 10.1614C0.632912 7.77404 2.1519 5.66519 4.48607 4.41454C6.82025 3.16392 8.27342 1.8829 9.49367 1.8829C10.7139 1.8829 11.7569 2.92847 14.5013 4.41454C16.8354 5.66519 18.3544 7.77404 18.3544 10.1614Z" fill="#FBF0DF"/>
<path d="M18.3544 10.1614C18.3532 9.66671 18.2851 9.17449 18.1519 8.69809C17.4607 17.1285 7.17722 17.5335 3.13417 15.012C4.95165 16.4207 7.19445 17.1689 9.49367 17.1335C14.3797 17.1335 18.3544 14.007 18.3544 10.1614Z" fill="#F6DECE"/>
<path d="M6.08355 3.95127C7.2152 3.27277 8.71897 1.99936 10.1975 1.99683C9.97002 1.92331 9.7327 1.88489 9.49367 1.8829C8.88102 1.8829 8.22785 2.19936 7.40507 2.67532C7.119 2.84239 6.82277 3.02722 6.50885 3.21962C5.91897 3.58417 5.24305 3.99682 4.48355 4.40949C2.07342 5.71329 0.632912 7.86264 0.632912 10.1614C0.632912 10.2626 0.632912 10.3639 0.632912 10.4626C2.16709 5.04239 4.95442 4.62974 6.08355 3.95127Z" fill="#FFFEFC"/>
<path fill-rule="evenodd" clip-rule="evenodd" d="M8.76455 2.52342C8.7681 3.12119 8.6426 3.71269 8.3966 4.25752C8.15062 4.80237 7.78995 5.28769 7.33925 5.68037C7.26835 5.74367 7.32405 5.86519 7.4152 5.82974C8.26835 5.49809 9.42025 4.50569 8.93417 2.50317C8.91392 2.38924 8.76455 2.41962 8.76455 2.52342ZM9.33925 2.52342C9.649 3.02884 9.84582 3.59527 9.91617 4.18387C9.98653 4.77249 9.92875 5.36934 9.74683 5.93354C9.71645 6.02214 9.82533 6.09809 9.88608 6.02467C10.4405 5.31582 10.9241 3.90822 9.47595 2.38924C9.40253 2.32341 9.2886 2.42468 9.33925 2.51329V2.52342ZM10.038 2.48038C10.5231 2.82382 10.9289 3.26727 11.2281 3.78084C11.5272 4.29444 11.7127 4.86622 11.7722 5.45759C11.7696 5.47889 11.7753 5.50039 11.7882 5.51757C11.801 5.53477 11.82 5.54637 11.8412 5.54994C11.8623 5.55352 11.884 5.54882 11.9018 5.53682C11.9196 5.52479 11.9321 5.50642 11.9367 5.48544C12.1696 4.60189 12.038 3.09557 10.1215 2.31329C10.0202 2.27278 9.95443 2.40949 10.038 2.47025V2.48038ZM5.36455 5.11329C5.9416 4.94089 6.47585 4.64892 6.93252 4.25634C7.38923 3.86377 7.75812 3.37942 8.0152 2.83479C8.06075 2.74367 8.20507 2.77912 8.18227 2.88037C7.7443 4.90569 6.27847 5.32847 5.3671 5.27277C5.27087 5.27532 5.27342 5.14114 5.36455 5.11329Z" fill="#CCBEA7"/>
<path d="M9.49368 17.769C4.25823 17.769 0 14.3563 0 10.1614C0 7.62975 1.56456 5.26772 4.1848 3.85252C4.9443 3.44747 5.59492 3.03987 6.17467 2.6829C6.49368 2.48544 6.79492 2.30063 7.08607 2.12848C7.97467 1.6019 8.73417 1.25 9.49368 1.25C10.2532 1.25 10.9165 1.5538 11.7468 2.04494C12 2.18924 12.2532 2.3462 12.524 2.51835C13.1544 2.90822 13.8658 3.34873 14.8025 3.85252C17.4228 5.26772 18.9874 7.62722 18.9874 10.1614C18.9874 14.3563 14.7291 17.769 9.49368 17.769ZM9.49368 1.88291C8.88103 1.88291 8.22785 2.19937 7.40508 2.67532C7.11898 2.8424 6.82277 3.02723 6.50885 3.21962C5.91897 3.58418 5.24305 3.99683 4.48355 4.4095C2.07342 5.7133 0.632913 7.86265 0.632913 10.1614C0.632913 14.007 4.6076 17.1361 9.49368 17.1361C14.3798 17.1361 18.3544 14.007 18.3544 10.1614C18.3544 7.86265 16.9139 5.7133 14.5013 4.41455C13.5443 3.90822 12.7975 3.43228 12.1924 3.0576C11.9164 2.88797 11.6633 2.73102 11.4329 2.59177C10.6658 2.13607 10.1063 1.88291 9.49368 1.88291Z" fill="black"/>
<path d="M11.2785 12.0095C11.1648 12.4753 10.9059 12.8929 10.5393 13.2019C10.264 13.4687 9.90765 13.6362 9.52658 13.6778C9.13405 13.6428 8.76523 13.4749 8.481 13.2019C8.11813 12.8914 7.8629 12.474 7.7519 12.0095C7.74823 11.9819 7.7509 11.9538 7.75975 11.9275C7.76858 11.9011 7.78335 11.8771 7.80288 11.8573C7.82243 11.8375 7.84625 11.8224 7.87253 11.8133C7.8988 11.8041 7.9268 11.8011 7.95443 11.8044H11.0785C11.1059 11.8015 11.1336 11.8048 11.1596 11.8142C11.1855 11.8235 11.209 11.8387 11.2283 11.8584C11.2475 11.8781 11.262 11.902 11.2707 11.9282C11.2794 11.9543 11.2821 11.9821 11.2785 12.0095Z" fill="#B71422"/>
<path d="M8.48103 13.2222C8.76465 13.4953 9.13215 13.6648 9.52405 13.7032C9.91508 13.6642 10.2816 13.4948 10.5646 13.2222C10.6551 13.1378 10.7397 13.0473 10.8177 12.9513C10.6618 12.7743 10.4713 12.6312 10.2579 12.5306C10.0446 12.43 9.81295 12.3742 9.57723 12.3665C9.325 12.3724 9.078 12.4396 8.85748 12.5622C8.63698 12.6848 8.44958 12.8592 8.3114 13.0703C8.36963 13.1234 8.42025 13.1741 8.48103 13.2222Z" fill="#FF6164"/>
<path d="M8.52153 13.0221C8.64703 12.8599 8.8077 12.7282 8.99142 12.637C9.17515 12.5458 9.37718 12.4974 9.58228 12.4956C9.9614 12.5067 10.3226 12.6594 10.5949 12.9234C10.6532 12.8601 10.7088 12.7943 10.762 12.7285C10.4399 12.4217 10.0143 12.2473 9.56962 12.2399C9.33197 12.2419 9.0977 12.2965 8.88367 12.3998C8.66962 12.5031 8.4811 12.6525 8.33165 12.8373C8.3915 12.9024 8.4549 12.9641 8.52153 13.0221Z" fill="black"/>
<path d="M9.51645 13.8297C9.0946 13.7928 8.6976 13.6144 8.38988 13.3234C7.998 12.992 7.72215 12.544 7.60253 12.0449C7.59395 12.0005 7.5954 11.9547 7.6068 11.9109C7.6182 11.8671 7.63923 11.8264 7.66835 11.7918C7.70305 11.7499 7.74685 11.7165 7.79645 11.6941C7.84603 11.6717 7.90005 11.6609 7.95443 11.6626H11.0785C11.1328 11.6615 11.1866 11.6725 11.2361 11.6948C11.2856 11.7172 11.3295 11.7503 11.3646 11.7918C11.3934 11.8265 11.4141 11.8673 11.425 11.9111C11.436 11.955 11.437 12.0007 11.4279 12.0449C11.3082 12.544 11.0324 12.992 10.6405 13.3234C10.3335 13.6139 9.93743 13.7922 9.51645 13.8297ZM7.95443 11.9563C7.91393 11.9563 7.9038 11.974 7.90128 11.9791C8.00828 12.4119 8.25035 12.7995 8.5924 13.0855C8.84253 13.3319 9.1677 13.4878 9.51645 13.5285C9.8643 13.4882 10.1891 13.3343 10.4405 13.0905C10.7815 12.804 11.0226 12.4166 11.1291 11.9842C11.1236 11.9761 11.116 11.9697 11.107 11.9656C11.0981 11.9616 11.0882 11.9601 11.0785 11.9614L7.95443 11.9563Z" fill="black"/>
<path d="M13.3468 12.1665C14.1648 12.1665 14.8279 11.7766 14.8279 11.2956C14.8279 10.8146 14.1648 10.4247 13.3468 10.4247C12.5289 10.4247 11.8658 10.8146 11.8658 11.2956C11.8658 11.7766 12.5289 12.1665 13.3468 12.1665Z" fill="#FEBBD0"/>
<path d="M5.68355 12.1665C6.50148 12.1665 7.16455 11.7766 7.16455 11.2956C7.16455 10.8146 6.50148 10.4247 5.68355 10.4247C4.8656 10.4247 4.20253 10.8146 4.20253 11.2956C4.20253 11.7766 4.8656 12.1665 5.68355 12.1665Z" fill="#FEBBD0"/>
<path fill-rule="evenodd" clip-rule="evenodd" d="M6.37975 10.9462C6.65575 10.9467 6.9257 10.8653 7.15543 10.7123C7.38515 10.5594 7.56433 10.3417 7.6703 10.0868C7.77628 9.83198 7.80425 9.55141 7.75073 9.28066C7.69718 9.00991 7.56453 8.76111 7.36955 8.56578C7.17455 8.37043 6.926 8.23733 6.65535 8.18331C6.3847 8.12926 6.10408 8.15676 5.84905 8.26226C5.594 8.36776 5.376 8.54656 5.2226 8.77601C5.06923 9.00546 4.98735 9.27523 4.98735 9.55123C4.98735 9.92076 5.13395 10.2752 5.39503 10.5367C5.65608 10.7983 6.01023 10.9455 6.37975 10.9462ZM12.6506 10.9462C12.927 10.9482 13.1976 10.8681 13.4284 10.716C13.6591 10.564 13.8394 10.3468 13.9466 10.0921C14.0537 9.83741 14.0828 9.55663 14.0301 9.28536C13.9774 9.01411 13.8454 8.76461 13.6507 8.56851C13.4561 8.37241 13.2075 8.23856 12.9367 8.18391C12.6658 8.12926 12.3848 8.15628 12.1293 8.26156C11.8738 8.36683 11.6554 8.54561 11.5016 8.77521C11.3479 9.00483 11.2658 9.27494 11.2658 9.55123C11.2652 9.91966 11.4105 10.2733 11.6701 10.5348C11.9296 10.7962 12.2822 10.9442 12.6506 10.9462Z" fill="black"/>
<path fill-rule="evenodd" clip-rule="evenodd" d="M5.94937 9.63987C6.05312 9.64037 6.1547 9.61005 6.2412 9.55277C6.32772 9.4955 6.39527 9.41382 6.43532 9.31812C6.47537 9.22242 6.48612 9.11697 6.46617 9.01515C6.44625 8.91332 6.39655 8.8197 6.32335 8.74617C6.25017 8.67262 6.1568 8.62245 6.05507 8.60202C5.95335 8.5816 5.84785 8.59182 5.75195 8.63142C5.65605 8.671 5.57405 8.73817 5.51635 8.8244C5.45865 8.91065 5.42785 9.01207 5.42785 9.11582C5.42785 9.25437 5.4827 9.38727 5.58045 9.48547C5.67817 9.5837 5.81082 9.6392 5.94937 9.63987ZM12.2202 9.63987C12.324 9.64037 12.4256 9.61005 12.5121 9.55277C12.5986 9.4955 12.6661 9.41382 12.7062 9.31812C12.7463 9.22242 12.757 9.11697 12.7371 9.01515C12.7171 8.91332 12.6674 8.8197 12.5942 8.74617C12.521 8.67262 12.4277 8.62245 12.3259 8.60202C12.2242 8.5816 12.1187 8.59182 12.0228 8.63142C11.9269 8.671 11.8449 8.73817 11.7872 8.8244C11.7295 8.91065 11.6987 9.01207 11.6987 9.11582C11.6987 9.2535 11.7529 9.38565 11.8495 9.48372C11.9462 9.58177 12.0775 9.63787 12.2152 9.63987H12.2202Z" fill="white"/>
</svg>
