<svg xmlns="http://www.w3.org/2000/svg" viewBox="0 0 20 20"><rect width="100%" height="100%" fill="#FBF0DF"/><path d="M16.69 6.544a2.572 2.572 0 0 0-.107-.108c-.037-.034-.071-.073-.108-.108-.037-.034-.071-.073-.108-.107-.036-.035-.07-.073-.107-.108-.037-.034-.071-.073-.108-.107-.036-.035-.07-.073-.107-.108-.037-.034-.071-.073-.108-.107a5.694 5.694 0 0 1 1.702 3.972c0 3.566-3.62 6.466-8.07 6.466-2.491 0-4.72-.91-6.203-2.337l.107.108.108.108.107.107.108.108.108.107.107.108.108.108c1.48 1.486 3.76 2.444 6.311 2.444 4.45 0 8.07-2.9 8.07-6.456 0-1.519-.654-2.958-1.81-4.09Z"/><path fill="#FBF0DF" d="M17.101 9.763c0 3.273-3.372 5.926-7.531 5.926-4.16 0-7.532-2.653-7.532-5.926 0-2.03 1.291-3.822 3.275-4.885 1.984-1.063 3.22-2.152 4.257-2.152 1.037 0 1.923.889 4.256 2.152 1.984 1.063 3.275 2.856 3.275 4.885Z"/><path fill="#F6DECE" d="M17.101 9.763a4.661 4.661 0 0 0-.172-1.244c-.587 7.166-9.328 7.51-12.765 5.367a8.608 8.608 0 0 0 5.406 1.803c4.153 0 7.531-2.657 7.531-5.926Z"/><path fill="#FFFEFC" d="M6.671 4.484c.962-.576 2.24-1.659 3.497-1.66a1.999 1.999 0 0 0-.598-.098c-.521 0-1.076.27-1.776.674-.243.142-.495.299-.761.463-.502.31-1.076.66-1.722 1.01-2.048 1.11-3.273 2.936-3.273 4.89v.256c1.304-4.607 3.673-4.958 4.633-5.535Z"/><path fill="#CCBEA7" fill-rule="evenodd" d="M8.95 3.27a3.53 3.53 0 0 1-1.212 2.684c-.06.054-.013.157.065.127.725-.282 1.704-1.125 1.291-2.828-.017-.096-.144-.07-.144.018Zm.488 0a3.495 3.495 0 0 1 .347 2.9c-.026.075.066.14.118.077.471-.603.882-1.8-.348-3.09-.063-.056-.16.03-.117.105v.009Zm.594-.036a3.534 3.534 0 0 1 1.474 2.53.071.071 0 0 0 .14.024c.198-.75.086-2.031-1.543-2.696-.086-.034-.142.082-.07.133v.01ZM6.06 5.472a3.645 3.645 0 0 0 2.253-1.937c.039-.077.161-.047.142.04-.372 1.72-1.618 2.08-2.393 2.033-.082.002-.08-.112-.002-.136Z" clip-rule="evenodd"/><path d="M9.57 16.23c-4.45 0-8.07-2.901-8.07-6.467 0-2.152 1.33-4.16 3.557-5.362.646-.345 1.199-.691 1.691-.995.272-.168.528-.325.775-.47.755-.449 1.401-.748 2.047-.748.645 0 1.209.259 1.915.676.215.123.43.256.66.402.536.332 1.14.706 1.937 1.135 2.227 1.202 3.557 3.208 3.557 5.362 0 3.566-3.62 6.466-8.07 6.466Zm0-13.504c-.521 0-1.076.27-1.776.674-.243.142-.495.299-.761.463-.502.31-1.076.66-1.722 1.01-2.049 1.11-3.273 2.936-3.273 4.89 0 3.269 3.378 5.928 7.532 5.928 4.153 0 7.531-2.66 7.531-5.928 0-1.954-1.224-3.78-3.275-4.885-.813-.43-1.448-.835-1.963-1.153-.234-.144-.45-.278-.645-.396-.652-.387-1.128-.603-1.648-.603Z"/><path fill="#B71422" d="M11.087 11.334c-.097.396-.317.75-.628 1.013-.234.227-.537.37-.861.405a1.472 1.472 0 0 1-.889-.405 1.922 1.922 0 0 1-.62-1.013.155.155 0 0 1 .172-.174h2.656a.154.154 0 0 1 .17.174Z"/><path fill="#FF6164" d="M8.709 12.364c.241.233.553.377.886.41.333-.034.644-.178.885-.41.077-.071.149-.148.215-.23a1.47 1.47 0 0 0-1.054-.497 1.324 1.324 0 0 0-1.076.598c.05.046.092.089.144.13Z"/><path d="M8.743 12.195a1.154 1.154 0 0 1 .902-.448c.322.01.63.14.86.364.05-.054.097-.11.143-.166a1.506 1.506 0 0 0-1.014-.415 1.368 1.368 0 0 0-1.052.508c.05.055.105.107.161.157Z"/><path d="M9.589 12.881a1.597 1.597 0 0 1-.958-.43 2.048 2.048 0 0 1-.669-1.087.258.258 0 0 1 .056-.215.303.303 0 0 1 .243-.11h2.656a.31.31 0 0 1 .243.11.257.257 0 0 1 .054.215 2.048 2.048 0 0 1-.67 1.087 1.597 1.597 0 0 1-.955.43ZM8.261 11.29c-.034 0-.043.015-.045.02.091.367.297.696.588.94.212.209.489.341.785.376.296-.034.572-.165.785-.372.29-.244.495-.573.586-.94a.046.046 0 0 0-.043-.02l-2.656-.004Z"/><path fill="#FEBBD0" d="M12.845 11.467c.695 0 1.259-.331 1.259-.74s-.564-.74-1.26-.74c-.694 0-1.258.331-1.258.74s.563.74 1.259.74ZM6.331 11.467c.695 0 1.259-.331 1.259-.74s-.564-.74-1.259-.74-1.259.331-1.259.74.564.74 1.26.74Z"/><path fill-rule="evenodd" d="M6.923 10.43a1.186 1.186 0 1 0 .004-2.372 1.186 1.186 0 0 0-.004 2.372Zm5.33 0a1.186 1.186 0 1 0 .017-2.372 1.186 1.186 0 0 0-.017 2.372Z" clip-rule="evenodd"/><path fill="#fff" fill-rule="evenodd" d="M6.557 9.32a.445.445 0 1 0 .004-.891.445.445 0 0 0-.004.89Zm5.33 0a.445.445 0 1 0-.004 0h.004Z" clip-rule="evenodd"/></svg>