<svg xmlns="http://www.w3.org/2000/svg" viewBox="0 0 20 20">
  <rect width="100%" height="100%" fill="#FBF0DF"/>
  <path d="M16.69 6.54a2.57 2.57 0 0 0-.1-.1l-.11-.11-.11-.1-.11-.12-.1-.1-.12-.11-.1-.1a5.7 5.7 0 0 1 1.7 3.96c0 3.57-3.62 6.47-8.07 6.47-2.5 0-4.72-.91-6.2-2.34l.1.11.11.1.1.12.12.1.1.11.11.1.1.12a8.92 8.92 0 0 0 6.32 2.44c4.45 0 8.07-2.9 8.07-6.46 0-1.51-.65-2.95-1.81-4.09Z"/>
  <path fill="#FBF0DF" d="M17.1 9.76c0 3.28-3.37 5.93-7.53 5.93s-7.53-2.65-7.53-5.93c0-2.03 1.29-3.82 3.27-4.88C7.3 3.82 8.53 2.73 9.57 2.73c1.04 0 1.92.89 4.26 2.15 1.98 1.06 3.27 2.85 3.27 4.88Z"/>
  <path fill="#F6DECE" d="M17.1 9.76c0-.42-.06-.84-.17-1.24-.59 7.17-9.33 7.5-12.77 5.37a8.6 8.6 0 0 0 5.41 1.8c4.15 0 7.53-2.66 7.53-5.93Z"/>
  <path fill="#FFFEFC" d="M6.67 4.48c.96-.57 2.24-1.65 3.5-1.66a2 2 0 0 0-.6-.1c-.52 0-1.08.28-1.78.68l-.76.46c-.5.31-1.07.66-1.72 1.01-2.05 1.11-3.27 2.94-3.27 4.9v.25c1.3-4.6 3.67-4.96 4.63-5.54Z"/>
  <path fill="#CCBEA7" fill-rule="evenodd" d="M8.95 3.27a3.53 3.53 0 0 1-1.21 2.68c-.06.06-.01.16.06.13.73-.28 1.7-1.12 1.3-2.83-.02-.1-.15-.07-.15.02Zm.49 0a3.5 3.5 0 0 1 .34 2.9c-.02.07.07.14.12.08.47-.6.89-1.8-.35-3.1-.06-.05-.15.04-.11.11v.01Zm.6-.04a3.53 3.53 0 0 1 1.48 2.59.07.07 0 0 0 .13-.03c.2-.75.08-2.03-1.55-2.7-.08-.03-.14.08-.07.14ZM6.05 5.47a3.65 3.65 0 0 0 2.25-1.93c.04-.08.16-.05.14.03-.37 1.73-1.61 2.08-2.39 2.04-.08 0-.08-.11 0-.14Z" clip-rule="evenodd"/>
  <path d="M9.57 16.23c-4.45 0-8.07-2.9-8.07-6.47 0-2.15 1.33-4.16 3.56-5.36.64-.34 1.2-.69 1.69-1l.77-.46c.76-.45 1.4-.75 2.05-.75.65 0 1.2.26 1.91.67l.67.4c.53.34 1.14.71 1.93 1.14 2.23 1.2 3.56 3.2 3.56 5.36 0 3.57-3.62 6.47-8.07 6.47Zm0-13.5c-.52 0-1.08.27-1.78.67l-.76.46c-.5.31-1.07.66-1.72 1.01-2.05 1.11-3.27 2.94-3.27 4.9 0 3.26 3.38 5.92 7.53 5.92s7.53-2.66 7.53-5.93c0-1.95-1.22-3.78-3.27-4.88-.82-.43-1.45-.84-1.97-1.16l-.64-.4c-.65-.38-1.13-.6-1.65-.6Z"/>
  <path fill="#B71422" d="M11.09 11.33c-.1.4-.32.75-.63 1.02-.24.22-.54.37-.86.4a1.47 1.47 0 0 1-.9-.4c-.3-.27-.52-.62-.61-1.02a.15.15 0 0 1 .17-.17h2.66a.15.15 0 0 1 .17.17Z"/>
  <path fill="#FF6164" d="M8.7 12.36c.25.24.56.38.9.41.33-.03.64-.17.88-.4l.22-.24a1.47 1.47 0 0 0-1.06-.5 1.32 1.32 0 0 0-1.08.6c.05.05.1.1.15.13Z"/>
  <path d="M8.74 12.2a1.15 1.15 0 0 1 .9-.45c.33 0 .63.14.87.36l.14-.16a1.5 1.5 0 0 0-1.02-.42 1.37 1.37 0 0 0-1.05.5c.05.06.1.12.16.16Z"/>
  <path d="M9.59 12.88a1.6 1.6 0 0 1-.96-.43 2.05 2.05 0 0 1-.67-1.09.26.26 0 0 1 .06-.21.3.3 0 0 1 .24-.11h2.66a.31.31 0 0 1 .24.1.26.26 0 0 1 .05.22c-.1.43-.33.8-.67 1.1-.26.24-.6.39-.95.42Zm-1.33-1.6c-.03 0-.04.02-.04.03.09.37.3.7.58.94.22.2.5.34.79.38.3-.04.57-.17.78-.38.3-.24.5-.57.59-.94l-.02-.01h-.02l-2.66-.01Z"/>
  <path fill="#FEBBD0" d="M12.84 11.47c.7 0 1.26-.33 1.26-.74s-.56-.74-1.26-.74-1.25.33-1.25.74c0 .4.56.74 1.25.74ZM6.33 11.47c.7 0 1.26-.33 1.26-.74s-.56-.74-1.26-.74-1.26.33-1.26.74c0 .4.57.74 1.26.74Z"/>
  <path fill-rule="evenodd" d="M6.92 10.43a1.19 1.19 0 1 0 0-2.37 1.19 1.19 0 0 0 0 2.37Zm5.33 0a1.19 1.19 0 1 0 .02-2.37 1.19 1.19 0 0 0-.02 2.37Z" clip-rule="evenodd"/>
  <path fill="#fff" fill-rule="evenodd" d="M6.56 9.32a.45.45 0 1 0 0-.9.45.45 0 0 0 0 .9Zm5.33 0Z" clip-rule="evenodd"/>
</svg>