<svg width="20" height="20" viewBox="0 0 20 20" fill="none" xmlns="http://www.w3.org/2000/svg">
<g clip-path="url(#clip0_1_5792)">
<rect width="20" height="20" fill="white"/>
<path d="M20 0H0V20H20V0Z" fill="#FBF0DF"/>
<path d="M17.1974 6.68563C17.1604 6.64629 17.1211 6.60692 17.0817 6.56988C17.0424 6.53285 17.0053 6.49117 16.966 6.45412C16.9266 6.41708 16.8896 6.3754 16.8502 6.33837C16.8108 6.30134 16.7738 6.25966 16.7344 6.22262C16.6951 6.18559 16.658 6.14391 16.6187 6.10688C16.5793 6.06982 16.5423 6.02817 16.503 5.99111C16.4636 5.95408 16.4266 5.9124 16.3872 5.87537C17.5355 7.00388 18.1933 8.53911 18.2184 10.1489C18.2184 13.9849 14.3245 17.1056 9.537 17.1056C6.85618 17.1056 4.45781 16.1264 2.86273 14.5915L2.97848 14.7072L3.09424 14.823L3.20998 14.9388L3.32575 15.0545L3.4415 15.1702L3.55724 15.286L3.67299 15.4018C5.26574 17.0015 7.71737 18.0316 10.463 18.0316C15.2505 18.0316 19.1444 14.911 19.1444 11.0865C19.1444 9.45211 18.4406 7.90334 17.1974 6.68563Z" fill="black"/>
<path d="M17.6396 10.1489C17.6396 13.6701 14.012 16.5246 9.537 16.5246C5.06202 16.5246 1.43436 13.6701 1.43436 10.1489C1.43436 7.96586 2.82338 6.03744 4.95784 4.8938C7.09231 3.75018 8.42115 2.57877 9.537 2.57877C10.6528 2.57877 11.6066 3.53487 14.1161 4.8938C16.2506 6.03744 17.6396 7.96586 17.6396 10.1489Z" fill="#FBF0DF"/>
<path d="M17.6396 10.1489C17.6385 9.69657 17.5762 9.24646 17.4544 8.81082C16.8224 16.5199 7.41874 16.8903 3.72161 14.5845C5.38358 15.8727 7.43449 16.5569 9.537 16.5245C14.005 16.5245 17.6396 13.6655 17.6396 10.1489Z" fill="#F6DECE"/>
<path d="M6.41864 4.47016C7.45347 3.84971 8.82858 2.68526 10.1806 2.68294C9.97259 2.61571 9.75557 2.58058 9.537 2.57877C8.97676 2.57877 8.37947 2.86815 7.6271 3.30338C7.3655 3.45616 7.09462 3.62517 6.80755 3.80111C6.26815 4.13447 5.65005 4.51181 4.95553 4.88918C2.75161 6.08143 1.43436 8.04688 1.43436 10.1489C1.43436 10.2415 1.43436 10.3341 1.43436 10.4244C2.83727 5.46793 5.38612 5.09059 6.41864 4.47016Z" fill="#FFFEFC"/>
<path fill-rule="evenodd" clip-rule="evenodd" d="M8.87025 3.16448C8.8735 3.71111 8.75874 4.252 8.53379 4.75021C8.30886 5.24844 7.97904 5.69224 7.5669 6.05132C7.50207 6.1092 7.553 6.22033 7.63635 6.18791C8.41651 5.88464 9.46985 4.97715 9.02537 3.14596C9.00685 3.04177 8.87025 3.06955 8.87025 3.16448ZM9.39578 3.16448C9.67903 3.62666 9.85902 4.14462 9.92335 4.68286C9.98768 5.22112 9.93485 5.7669 9.76849 6.28283C9.74071 6.36385 9.84027 6.4333 9.89582 6.36616C10.4028 5.71796 10.845 4.43079 9.52079 3.04177C9.45364 2.98158 9.34947 3.07418 9.39578 3.15522V3.16448ZM10.0347 3.12512C10.4783 3.43917 10.8494 3.84468 11.123 4.31432C11.3965 4.78397 11.5662 5.30683 11.6205 5.8476C11.6182 5.86708 11.6234 5.88674 11.6352 5.90245C11.6469 5.91818 11.6643 5.92878 11.6836 5.93205C11.703 5.93532 11.7229 5.93102 11.7391 5.92005C11.7554 5.90905 11.7668 5.89225 11.771 5.87307C11.984 5.06512 11.8636 3.68767 10.1111 2.97232C10.0185 2.93528 9.95832 3.06029 10.0347 3.11585V3.12512ZM5.76116 5.53276C6.28883 5.37511 6.77737 5.10812 7.19498 4.74913C7.6126 4.39015 7.94994 3.94724 8.18502 3.44921C8.22667 3.36588 8.35865 3.3983 8.3378 3.49089C7.9373 5.34292 6.59689 5.72953 5.76349 5.67859C5.6755 5.68092 5.67783 5.55823 5.76116 5.53276Z" fill="#CCBEA7"/>
<path d="M9.537 17.1056C4.74949 17.1056 0.855596 13.985 0.855596 10.1489C0.855596 7.8339 2.28629 5.67397 4.68235 4.37985C5.37686 4.00946 5.97182 3.63673 6.50197 3.3103C6.79367 3.12974 7.06915 2.96074 7.33539 2.80332C8.14796 2.32179 8.84248 2 9.537 2C10.2315 2 10.838 2.2778 11.5974 2.72692C11.8289 2.85888 12.0604 3.00241 12.3081 3.15983C12.8845 3.51635 13.5351 3.91916 14.3916 4.37985C16.7877 5.67397 18.2184 7.83159 18.2184 10.1489C18.2184 13.985 14.3245 17.1056 9.537 17.1056ZM9.537 2.57876C8.97676 2.57876 8.37947 2.86814 7.6271 3.30337C7.36547 3.45615 7.09462 3.62517 6.80755 3.8011C6.26815 4.13446 5.65005 4.51181 4.95553 4.88917C2.75161 6.08142 1.43436 8.04687 1.43436 10.1489C1.43436 13.6655 5.06897 16.5269 9.537 16.5269C14.005 16.5269 17.6396 13.6655 17.6396 10.1489C17.6396 8.04687 16.3224 6.08142 14.1161 4.89379C13.2411 4.43079 12.5581 3.99556 12.0048 3.65294C11.7525 3.49783 11.521 3.35431 11.3103 3.22697C10.6089 2.81026 10.0972 2.57876 9.537 2.57876Z" fill="black"/>
<path d="M11.1691 11.8389C11.0651 12.2649 10.8284 12.6467 10.4931 12.9293C10.2414 13.1733 9.91555 13.3264 9.56708 13.3645C9.20814 13.3325 8.87087 13.1789 8.61097 12.9293C8.27914 12.6454 8.04575 12.2637 7.94425 11.8389C7.94089 11.8137 7.94333 11.788 7.95143 11.7639C7.95949 11.7398 7.97301 11.7178 7.99086 11.6997C8.00874 11.6816 8.03052 11.6679 8.05455 11.6595C8.07858 11.6511 8.10418 11.6483 8.12944 11.6514H10.9862C11.0113 11.6487 11.0366 11.6518 11.0604 11.6603C11.0841 11.6689 11.1056 11.6827 11.1232 11.7007C11.1408 11.7188 11.154 11.7406 11.162 11.7645C11.17 11.7885 11.1724 11.8139 11.1691 11.8389Z" fill="#B71422"/>
<path d="M8.61099 12.9478C8.87035 13.1976 9.2064 13.3526 9.56477 13.3877C9.92234 13.3521 10.2575 13.1972 10.5162 12.9478C10.599 12.8707 10.6764 12.7879 10.7478 12.7001C10.6052 12.5383 10.4309 12.4074 10.2359 12.3154C10.0408 12.2235 9.82895 12.1724 9.6134 12.1653C9.38275 12.1708 9.15689 12.2322 8.95523 12.3443C8.7536 12.4565 8.58223 12.6159 8.45588 12.8089C8.50912 12.8575 8.55541 12.9038 8.61099 12.9478Z" fill="#FF6164"/>
<path d="M8.64802 12.7649C8.76279 12.6166 8.90971 12.4962 9.07772 12.4128C9.24572 12.3294 9.43046 12.2851 9.61802 12.2834C9.9647 12.2936 10.295 12.4332 10.544 12.6747C10.5973 12.6168 10.6482 12.5566 10.6968 12.4964C10.4023 12.2159 10.0131 12.0564 9.60645 12.0496C9.38913 12.0515 9.1749 12.1014 8.97919 12.1959C8.78345 12.2903 8.61106 12.427 8.47439 12.5959C8.52912 12.6554 8.5871 12.7118 8.64802 12.7649Z" fill="black"/>
<path d="M9.55782 13.5034C9.17207 13.4696 8.80903 13.3064 8.52764 13.0404C8.16929 12.7373 7.91704 12.3277 7.80765 11.8713C7.79981 11.8307 7.80114 11.7888 7.81156 11.7487C7.82199 11.7087 7.84121 11.6715 7.86785 11.6398C7.89958 11.6015 7.93963 11.571 7.98499 11.5505C8.03032 11.53 8.07972 11.5202 8.12944 11.5217H10.9862C11.0359 11.5207 11.0851 11.5308 11.1304 11.5512C11.1756 11.5716 11.2157 11.6019 11.2478 11.6398C11.2742 11.6716 11.2931 11.7089 11.3031 11.749C11.3131 11.789 11.314 11.8309 11.3057 11.8713C11.1963 12.3277 10.9441 12.7373 10.5857 13.0404C10.3049 13.306 9.94278 13.4691 9.55782 13.5034ZM8.12944 11.7903C8.09241 11.7903 8.08315 11.8065 8.08084 11.8111C8.17869 12.2069 8.40005 12.5613 8.71283 12.8228C8.94156 13.0481 9.23891 13.1907 9.55782 13.2279C9.87591 13.1911 10.1729 13.0503 10.4028 12.8274C10.7146 12.5655 10.9351 12.2112 11.0325 11.8158C11.0275 11.8083 11.0205 11.8025 11.0123 11.7988C11.0041 11.7951 10.9951 11.7938 10.9862 11.7949L8.12944 11.7903Z" fill="black"/>
<path d="M13.0605 11.9825C13.8084 11.9825 14.4148 11.6259 14.4148 11.1861C14.4148 10.7463 13.8084 10.3897 13.0605 10.3897C12.3125 10.3897 11.7062 10.7463 11.7062 11.1861C11.7062 11.6259 12.3125 11.9825 13.0605 11.9825Z" fill="#FEBBD0"/>
<path d="M6.05286 11.9825C6.80081 11.9825 7.40715 11.6259 7.40715 11.1861C7.40715 10.7463 6.80081 10.3897 6.05286 10.3897C5.3049 10.3897 4.69856 10.7463 4.69856 11.1861C4.69856 11.6259 5.3049 11.9825 6.05286 11.9825Z" fill="#FEBBD0"/>
<path fill-rule="evenodd" clip-rule="evenodd" d="M6.6895 10.8666C6.94188 10.867 7.18874 10.7926 7.39881 10.6527C7.60888 10.5128 7.77272 10.3138 7.86963 10.0807C7.96654 9.8477 7.99212 9.59113 7.94317 9.34355C7.8942 9.09596 7.7729 8.86845 7.59461 8.68984C7.4163 8.5112 7.18901 8.38949 6.94152 8.34009C6.69402 8.29066 6.43741 8.31581 6.2042 8.41228C5.97098 8.50876 5.77163 8.67226 5.63135 8.88208C5.4911 9.09189 5.41623 9.33859 5.41623 9.59097C5.41623 9.92888 5.55029 10.253 5.78902 10.4921C6.02774 10.7313 6.35159 10.866 6.6895 10.8666ZM12.4238 10.8666C12.6765 10.8684 12.924 10.7952 13.135 10.6561C13.346 10.5171 13.5109 10.3185 13.6089 10.0856C13.7069 9.85266 13.7335 9.59591 13.6853 9.34785C13.6371 9.0998 13.5164 8.87165 13.3384 8.69233C13.1604 8.51301 12.9331 8.39061 12.6854 8.34064C12.4377 8.29066 12.1808 8.31537 11.9471 8.41164C11.7135 8.50791 11.5137 8.67139 11.3731 8.88134C11.2326 9.09132 11.1575 9.33831 11.1575 9.59097C11.1569 9.92788 11.2898 10.2513 11.5272 10.4904C11.7645 10.7295 12.087 10.8647 12.4238 10.8666Z" fill="black"/>
<path fill-rule="evenodd" clip-rule="evenodd" d="M6.29594 9.67205C6.39082 9.67251 6.4837 9.64478 6.5628 9.59241C6.64192 9.54003 6.70369 9.46534 6.74032 9.37783C6.77694 9.29032 6.78677 9.19389 6.76853 9.10078C6.75031 9.00767 6.70486 8.92205 6.63792 8.85482C6.57101 8.78756 6.48562 8.74168 6.3926 8.723C6.29958 8.70432 6.2031 8.71367 6.11541 8.74989C6.02772 8.78607 5.95273 8.8475 5.89997 8.92635C5.8472 9.00522 5.81904 9.09797 5.81904 9.19284C5.81904 9.31954 5.8692 9.44107 5.95858 9.53086C6.04795 9.62068 6.16925 9.67144 6.29594 9.67205ZM12.0303 9.67205C12.1252 9.67251 12.218 9.64478 12.2971 9.59241C12.3763 9.54003 12.438 9.46534 12.4747 9.37783C12.5113 9.29032 12.5211 9.19389 12.5029 9.10078C12.4847 9.00767 12.4392 8.92205 12.3723 8.85482C12.3053 8.78756 12.22 8.74168 12.1269 8.723C12.0339 8.70432 11.9374 8.71367 11.8498 8.74989C11.7621 8.78607 11.6871 8.8475 11.6343 8.92635C11.5815 9.00522 11.5534 9.09797 11.5534 9.19284C11.5534 9.31874 11.6029 9.43958 11.6913 9.52926C11.7797 9.61892 11.8998 9.67023 12.0257 9.67205H12.0303Z" fill="white"/>
</g>
<defs>
<clipPath id="clip0_1_5792">
<rect width="20" height="20" fill="white"/>
</clipPath>
</defs>
</svg>
