<svg xmlns="http://www.w3.org/2000/svg" xmlns:xlink="http://www.w3.org/1999/xlink"
    viewBox="0 0 20 20" xmlns:v="https://vecta.io/nano">
    <path
        d="M228.746 74.625l-1.617-1.844-1.621-1.844-1.621-1.844-1.621-1.844-1.617-1.844-1.621-1.844-1.621-1.84c16.074 17.973 25.281 42.422 25.633 68.059 0 61.094-54.508 110.793-121.52 110.793-37.527 0-71.098-15.594-93.426-40.039l3.242 3.688 1.617 1.84 1.621 1.848 1.621 1.84 3.242 3.688c22.293 25.48 56.613 41.887 95.043 41.887 67.016 0 121.52-49.703 121.52-110.609 0-26.031-9.852-50.695-27.254-70.09zm0 0"
        fill="rgb(0%,0%,0%)" />
    <path
        d="M234.938 129.781c0 56.078-50.781 101.539-113.418 101.539S8.102 185.859 8.102 129.781c0-34.77 19.441-65.48 49.32-83.695S105.898 9.219 121.52 9.219s28.969 15.227 64.098 36.867c29.879 18.215 49.32 48.926 49.32 83.695zm0 0"
        fill="rgb(98.431373%,94.117647%,87.45098%)" />
    <path
        d="M234.938 129.781c-.016-7.203-.891-14.371-2.594-21.309-8.848 122.773-140.477 128.672-192.227 91.953 23.266 20.516 51.973 31.41 81.402 30.895 62.543 0 113.418-45.535 113.418-101.539zm0 0"
        fill="rgb(96.470588%,87.058824%,80.784314%)" />
    <path
        d="M77.871 39.34c14.484-9.879 33.73-28.426 52.656-28.465a26.76 26.76 0 0 0-9.008-1.656c-7.844 0-16.203 4.605-26.734 11.539-3.664 2.434-7.453 5.125-11.473 7.926-7.551 5.309-16.203 11.32-25.922 17.328-30.852 18.992-49.289 50.293-49.289 83.77v4.387C27.738 55.23 63.418 49.223 77.871 39.34zm0 0"
        fill="rgb(100%,99.607843%,98.823529%)" />
    <path
        d="M112.188 18.547c.09 17.617-6.57 34.402-18.246 45.977-.906.922-.195 2.691.973 2.176 10.922-4.832 25.664-19.285 19.441-48.449-.258-1.66-2.168-1.215-2.168.297zm7.355 0c8.023 14.895 9.93 33.035 5.215 49.664-.387 1.289 1.008 2.395 1.785 1.324 7.094-10.32 13.285-30.82-5.25-52.945-.941-.957-2.398.52-1.75 1.809zm8.941-.629c12.566 10.121 20.66 25.934 22.199 43.359-.059.641.328 1.223.887 1.332s1.09-.301 1.219-.926c2.98-12.867 1.297-34.805-23.234-46.199-1.297-.59-2.137 1.402-1.07 2.289zm-59.82 38.344c14.941-5.074 27.273-17.141 33.93-33.18.586-1.328 2.43-.812 2.141.664-5.605 29.492-24.371 35.652-36.035 34.84-1.23.035-1.199-1.918-.035-2.324zm0 0"
        fill="rgb(80%,74.509804%,65.490196%)" />
    <path
        d="M121.52 240.574C54.504 240.574 0 190.875 0 129.781c0-36.871 20.027-71.27 53.566-91.879 9.719-5.898 18.051-11.836 25.469-17.035l11.668-8.074C102.074 5.125 111.797 0 121.52 0s18.211 4.426 28.84 11.578c3.242 2.102 6.48 4.387 9.949 6.895 8.07 5.676 17.176 12.094 29.164 19.43 33.539 20.609 53.566 54.973 53.566 91.879 0 61.094-54.508 110.793-121.52 110.793zm0-231.355c-7.844 0-16.203 4.605-26.734 11.539-3.664 2.434-7.453 5.125-11.473 7.926-7.551 5.309-16.203 11.32-25.922 17.328-30.852 18.992-49.289 50.293-49.289 83.77 0 56.004 50.875 101.578 113.418 101.578s113.418-45.574 113.418-101.578c0-33.477-18.441-64.781-49.32-83.695-12.25-7.371-21.809-14.305-29.555-19.762l-9.723-6.781c-9.816-6.637-16.98-10.324-24.82-10.324zm0 0"
        fill="rgb(0%,0%,0%)" />
    <path
        d="M144.363 156.695c-1.453 6.785-4.77 12.867-9.461 17.367-3.523 3.887-8.086 6.324-12.961 6.934-5.027-.512-9.746-2.957-13.383-6.934-4.648-4.52-7.914-10.602-9.336-17.367-.094-.812.148-1.633.652-2.215s1.227-.867 1.941-.77h39.988c.711-.086 1.418.203 1.918.785s.734 1.395.641 2.199zm0 0"
        fill="rgb(71.764706%,7.843137%,13.333333%)" />
    <path
        d="M108.559 174.359c3.629 3.977 8.332 6.445 13.348 7.004 5.008-.566 9.699-3.035 13.32-7.004a37.82 37.82 0 0 0 3.242-3.949c-4.035-5.207-9.781-8.289-15.879-8.516-6.555.18-12.613 4.012-16.203 10.25.746.773 1.391 1.512 2.172 2.215zm0 0"
        fill="rgb(100%,38.039216%,39.215686%)" />
    <g fill="rgb(0%,0%,0%)">
        <path
            d="M109.074 171.445c3.258-4.785 8.262-7.613 13.578-7.668 4.852.16 9.477 2.383 12.961 6.23a56.8 56.8 0 0 0 2.141-2.84c-4.121-4.469-9.57-7.008-15.262-7.117-6.16.063-11.973 3.254-15.848 8.703.766.945 1.578 1.844 2.43 2.691zm0 0" />
        <path
            d="M121.809 183.207c-5.398-.539-10.48-3.137-14.418-7.375-5.016-4.828-8.547-11.352-10.078-18.621-.223-1.309.086-2.664.844-3.684.898-1.238 2.25-1.934 3.66-1.883h39.988c1.406-.031 2.754.66 3.66 1.883.75 1.023 1.047 2.379.813 3.684-1.531 7.27-5.062 13.793-10.078 18.621-3.93 4.23-9 6.828-14.387 7.375zm-19.992-27.285c-.52 0-.648.258-.68.332 1.371 6.305 4.469 11.945 8.848 16.113 3.199 3.586 7.363 5.859 11.828 6.453 4.449-.586 8.609-2.828 11.828-6.379 4.363-4.172 7.449-9.816 8.813-16.113-.145-.242-.395-.367-.648-.332zm0 0" />
    </g>
    <g fill="rgb(99.607843%,73.333333%,81.568627%)">
        <use xlink:href="#B" />
        <use xlink:href="#B" x="-98.09" />
    </g>
    <path
        d="M81.66 141.211c9.867.02 17.875-9.066 17.887-20.293s-7.977-20.332-17.844-20.34-17.867 9.094-17.863 20.316c0 11.207 7.973 20.297 17.82 20.316zm80.27 0c7.23.059 13.781-4.855 16.586-12.441s1.309-16.348-3.789-22.187-12.785-7.605-19.473-4.469-11.051 10.555-11.051 18.785c-.02 11.168 7.906 20.254 17.727 20.313zm0 0"
        fill="rgb(0%,0%,0%)" />
    <path
        d="M76.152 122.188c3.703.02 6.723-3.383 6.738-7.598s-2.969-7.648-6.676-7.668-6.723 3.379-6.738 7.594 2.969 7.648 6.676 7.672zm80.266 0c3.699-.023 6.684-3.445 6.676-7.652s-3.008-7.613-6.707-7.613-6.699 3.406-6.707 7.613 2.977 7.629 6.676 7.652zm0 0"
        fill="rgb(100%,100%,100%)" />
    <defs>
        <path id="B"
            d="M189.797 146.301c0-7.008-8.488-12.684-18.957-12.684s-18.957 5.676-18.957 12.684 8.488 12.68 18.957 12.68 18.957-5.676 18.957-12.68zm0 0" />
    </defs>
</svg>