<svg xmlns="http://www.w3.org/2000/svg" viewBox="0 0 20 20">
  <rect width="100%" height="100%" fill="#119EFF"/>
  <path fill="#fff" d="M4.84 5.67 2.52 8l3.57 3.59-3.59 3.6 2.31 2.32 3.6-3.6 3.58 3.57 2.32-2.32-9.47-9.48Z"/>
  <path fill="#E3F4FF" d="M10.73 11.58 8.41 13.9l3.58 3.57 2.32-2.32-3.58-3.57Z"/>
  <path fill="#B9E3FF" d="M10.73 11.58 8.41 13.9l.9.89 1.42-3.21Z"/>
  <path fill="#fff" d="m13.9 8.42 3.6-3.6-2.32-2.32-3.6 3.6L8 2.52 5.7 4.84l9.47 9.48L17.47 12 13.9 8.42Z"/>
  <path fill="#E3F4FF" d="m9.26 8.42 2.32-2.32L8 2.52 5.7 4.84l3.57 3.58Z"/>
  <path fill="#B9E3FF" d="m9.26 8.42 2.32-2.32-.9-.9-1.42 3.22Z"/>
</svg>