<svg viewBox="0 0 20 20" fill="none" xmlns="http://www.w3.org/2000/svg">
<path d="M0 0H20V20H0V0Z" fill="#F7F7F7"/>
<path d="M4.85373 7H16.8197C15.6011 7.08794 14.6997 8.10447 14.4013 8.60174H2.43542C3.01331 7.49622 4.28842 7.07328 4.85373 7Z" fill="#B6DE64"/>
<path d="M2.41971 8.60181H14.4013C14.0245 9.22994 13.9826 9.92088 14.0088 10.1878H2.01142C1.93604 9.45921 2.2522 8.82689 2.41971 8.60181Z" fill="#A9CC54"/>
<path d="M4.86942 13.3755H16.8353C15.6168 13.2875 14.7154 12.271 14.417 11.7738H2.45111C3.02899 12.8793 4.3041 13.3022 4.86942 13.3755Z" fill="#A9CC54"/>
<path d="M2.43127 11.7739H14.417C14.04 11.1396 13.9981 10.4418 14.0243 10.1722H2.02284C1.94744 10.908 2.26371 11.5466 2.43127 11.7739Z" fill="#B6DE64"/>
<path d="M15.6262 10.1094C15.5006 9.20485 16.4951 8.72747 17.0081 8.60184C17.9974 8.50762 17.9765 8.0784 17.9974 7.81668C17.9095 7.11317 17.3012 7.00011 17.0081 7.03151C14.5207 7.25764 13.9721 9.21951 14.0088 10.1722C14.0841 12.6219 16.0397 13.339 17.0081 13.3914C17.8372 13.3914 18.0131 12.847 17.9974 12.5748C18.0477 11.9969 17.3588 11.8001 17.0081 11.7739C15.8272 11.5478 15.5948 10.57 15.6262 10.1094Z" fill="#DDF4A4"/>
</svg>
