<svg xmlns="http://www.w3.org/2000/svg" viewBox="0 0 20 20">
  <rect width="100%" height="100%" fill="#B5DD64"/>
  <path fill="#fff" d="M5.99 6.08a9.77 9.77 0 0 1 1.68-2.06 7.88 7.88 0 0 1 3.7-1.86l.62-.14a5.15 5.15 0 0 1 1.7.12 2 2 0 0 1 .25 3.64c-.32.17-.68.26-1.04.26a4 4 0 0 0-.88 7.87c.29.08.59.12.89.11A2 2 0 0 1 15 16.16a2 2 0 0 1-1.82 1.82c-.37.02-.73.02-1.1 0-.44-.1-.9-.17-1.34-.3a7.74 7.74 0 0 1-2.64-1.36 8.74 8.74 0 0 1-2.06-2.3 7.79 7.79 0 0 1-1.04-4 6.8 6.8 0 0 1 .33-2.33L5.8 6.5c.05-.16.11-.29.19-.42Z"/>
</svg>