<svg xmlns="http://www.w3.org/2000/svg" viewBox="0 0 20 20">
  <rect width="100%" height="100%" fill="#31BCA1"/>
  <path fill="#fff" fill-rule="evenodd" d="M16.75 2.77a7.02 7.02 0 0 1-5.33 6.37c-.03.3-.1.79-.32 1l-.02.03v.76c.2.16.52.52.67 1.3a.52.52 0 0 1-.52.63h-.14c.06.64.42 2.4 2.37 3.93a.52.52 0 0 1-.33.93H6.87a.52.52 0 0 1-.5-.66c.03-.1.1-.2.18-.26a5.8 5.8 0 0 0 2.36-3.93h-.14a.53.53 0 0 1-.51-.63c.15-.78.47-1.15.66-1.3v-.78l-.01-.01c-.22-.22-.3-.71-.33-1.01a7.02 7.02 0 0 1-5.33-6.37.5.5 0 0 1 .14-.38.52.52 0 0 1 .4-.17h12.43a.53.53 0 0 1 .39.17.51.51 0 0 1 .14.38Z" clip-rule="evenodd"/>
</svg>