<svg xmlns="http://www.w3.org/2000/svg" viewBox="0 0 20 20">
  <rect width="100%" height="100%" fill="#fff"/>
  <path fill="url(#a)" d="M10 10.0001L13.4642 12L10 18C14.4183 18 18 14.4183 18 10.0001C18 8.54246 17.6083 7.17711 16.9271 6.00003H9.99994L10 10.0001Z"/>
  <path fill="url(#b)" d="M9.99992 2C7.03889 2 4.45558 3.60984 3.07227 6.00097L6.53574 12L9.99992 10.0001V6.00003H16.9271C15.5436 3.60948 12.9606 2 9.99992 2Z"/>
  <path fill="url(#c)" d="M2.00005 10.0001C2.00005 14.4183 5.58163 18 10 18L13.4642 12L10 10.0001L6.53584 12L3.07237 6.00098C2.39162 7.17773 2 8.54258 2 9.99994"/>
  <path fill="#fff" d="M14.0001 10.0001C14.0001 12.2092 12.2092 14.0001 10 14.0001C7.79091 14.0001 6 12.2092 6 10.0001C6 7.79093 7.79091 6.00003 10 6.00003C12.2092 6.00003 14.0001 7.79093 14.0001 10.0001Z"/>
  <path fill="url(#d)" d="M13.2501 10.0001C13.2501 11.795 11.795 13.2501 10 13.2501C8.20512 13.2501 6.75 11.795 6.75 10.0001C6.75 8.20514 8.20512 6.75003 10 6.75003C11.795 6.75003 13.2501 8.20514 13.2501 10.0001Z"/>
  <linearGradient id="a" x1="14.017" x2="14" y1="5.984" y2="18" gradientUnits="userSpaceOnUse">
    <stop stop-color="#AFCCFB"/>
    <stop offset="1" stop-color="#8BB5F8"/>
  </linearGradient>
  <linearGradient id="b" x1="8.84" x2="9.501" y1="2.122" y2="12.873" gradientUnits="userSpaceOnUse">
    <stop stop-color="#1972E7"/>
    <stop offset="1" stop-color="#1969D5"/>
  </linearGradient>
  <linearGradient id="c" x1="7.732" x2="7.732" y1="6.001" y2="18" gradientUnits="userSpaceOnUse">
    <stop stop-color="#659CF6"/>
    <stop offset="1" stop-color="#4285F4"/>
  </linearGradient>
  <linearGradient id="d" x1="9.967" x2="10" y1="6.762" y2="13.25" gradientUnits="userSpaceOnUse">
    <stop stop-color="#3680F0"/>
    <stop offset="1" stop-color="#2678EC"/>
  </linearGradient>
</svg>
