<svg viewBox="0 0 20 20" fill="none" xmlns="http://www.w3.org/2000/svg">
<path d="M0 0H20V20H0V0Z" fill="#F8F9FA"/>
<path d="M9.98178 3.00126C9.98178 3.00126 14.109 2.81548 16.2963 6.96328H9.63083C9.63083 6.96328 8.37197 6.92188 7.29888 8.44916C6.9894 9.08893 6.6593 9.7493 7.03068 11.0491C6.49418 10.1414 4.18289 6.11728 4.18289 6.11728C4.18289 6.11728 5.81332 3.16627 9.98178 3.00126Z" fill="#C6352E"/>
<path d="M16.0815 13.5324C16.0815 13.5324 14.1782 17.199 9.49234 17.0188C10.0704 16.0182 12.8259 11.2468 12.8259 11.2468C12.8259 11.2468 13.4911 10.1774 12.7056 8.48446C12.3063 7.89644 11.8996 7.28028 10.588 6.95175C11.6429 6.94128 16.2831 6.95243 16.2831 6.95243C16.2831 6.95243 18.0231 9.84005 16.0815 13.5324Z" fill="#F4D911"/>
<path d="M3.91145 13.5603C3.91145 13.5603 1.68773 10.0783 4.18707 6.1106C4.76462 7.11157 7.51861 11.8838 7.51861 11.8838C7.51861 11.8838 8.1119 12.9946 9.97096 13.161C10.6796 13.1093 11.4167 13.0652 12.3571 12.0937C11.8386 13.0123 9.50857 17.0254 9.50857 17.0254C9.50857 17.0254 6.13787 17.0882 3.91145 13.5603Z" fill="#81B354"/>
<path d="M9.49234 17.0527L10.4299 13.1403C10.4299 13.1403 11.4608 13.0599 12.3246 12.1118C11.7884 13.0551 9.49234 17.0527 9.49234 17.0527Z" fill="#7BAA50"/>
<path d="M6.84167 10.0702C6.84167 8.34544 8.23969 6.94727 9.96457 6.94727C11.6893 6.94727 13.0874 8.34541 13.0874 10.0702C13.0874 11.795 11.6893 13.1932 9.96457 13.1932C8.23969 13.1932 6.84167 11.795 6.84167 10.0702Z" fill="white"/>
<path d="M7.36432 10.0701C7.36432 8.6341 8.52841 7.46997 9.96456 7.46997C11.4004 7.46997 12.5646 8.6341 12.5646 10.0701C12.5646 11.5061 11.4004 12.6703 9.96456 12.6703C8.52841 12.6704 7.36432 11.506 7.36432 10.0701Z" fill="url(#paint0_linear)"/>
<path d="M16.2831 6.95235L12.4224 8.08429C12.4224 8.08429 11.8402 7.22993 10.588 6.95168C11.673 6.94798 16.2831 6.95235 16.2831 6.95235Z" fill="#E7CE12"/>
<path d="M6.95562 10.9087C6.41305 9.96913 4.18303 6.11719 4.18303 6.11719L7.04296 8.94631C7.04296 8.94631 6.74906 9.55088 6.8605 10.4144L6.95562 10.9087Z" fill="#BC332C"/>
<defs>
<linearGradient id="paint0_linear" x1="9.96447" y1="7.50675" x2="9.96447" y2="12.5148" gradientUnits="userSpaceOnUse">
<stop stop-color="#A2C0E6"/>
<stop offset="1" stop-color="#406CB1"/>
</linearGradient>
</defs>
</svg>
