<svg xmlns="http://www.w3.org/2000/svg" viewBox="0 0 20 20">
  <path fill="#fff" d="M0 0H20V20H0z"/>
  <path fill="#fff" d="M9.99976 13.9991C12.2089 13.9991 13.9998 12.2083 13.9998 9.99915C13.9998 7.79 12.2089 5.99915 9.99976 5.99915C7.79061 5.99915 5.99976 7.79 5.99976 9.99915C5.99976 12.2083 7.79061 13.9991 9.99976 13.9991Z"/>
  <path fill="url(#a)" d="M6.53564 12L3.0721 6.00098C2.36981 7.21698 2.00005 8.59646 2 10.0007C1.99995 11.4049 2.36962 12.7844 3.07182 14.0005C3.77403 15.2165 4.78403 16.2263 6.00025 16.9282C7.21648 17.6301 8.59606 17.9994 10.0003 17.999L13.4638 12V11.999C13.113 12.6073 12.6082 13.1126 12.0002 13.4639C11.3921 13.8152 10.7023 14.0002 10.0001 14.0003C9.2978 14.0004 8.6079 13.8156 7.99975 13.4645C7.39162 13.1133 6.88663 12.6082 6.53564 12Z"/>
  <path fill="url(#b)" d="M13.4636 11.9998L10.0001 17.9988C11.4043 17.999 12.7839 17.6295 14 16.9274C15.2161 16.2253 16.226 15.2155 16.928 13.9993C17.63 12.7831 17.9995 11.4036 17.9993 9.99932C17.999 8.59508 17.6291 7.21568 16.9266 5.99976H9.99952L9.99866 6.00029C10.7009 5.99993 11.3909 6.18452 11.9991 6.53543C12.6074 6.88636 13.1126 7.39125 13.4638 7.99937C13.815 8.60748 13.9999 9.29736 13.9999 9.99958C13.9999 10.7018 13.8149 11.3917 13.4636 11.9998Z"/>
  <path fill="#1A73E8" d="M9.99972 13.1667C11.7486 13.1667 13.1664 11.7489 13.1664 9.99999C13.1664 8.25109 11.7486 6.83331 9.99972 6.83331C8.25082 6.83331 6.83307 8.25109 6.83307 9.99999C6.83307 11.7489 8.25082 13.1667 9.99972 13.1667Z"/>
  <path fill="url(#c)" d="M9.99974 6H16.9268C16.2249 4.7838 15.2151 3.77383 13.999 3.07167C12.7829 2.36951 11.4034 1.9999 9.99916 2C8.59492 2.0001 7.21546 2.36991 5.99949 3.07224C4.78349 3.77457 3.77386 4.78469 3.07208 6.00097L6.53562 12L6.5365 12.0005C6.18509 11.3925 5.99995 10.7027 5.99972 10.0005C5.99949 9.29821 6.1842 8.60828 6.53523 8.00008C6.88624 7.39187 7.39126 6.88681 7.99941 6.53572C8.60759 6.18461 9.29749 5.99985 9.99974 6Z"/>
  <linearGradient id="a" x1="10.866" x2="3.938" y1="17.499" y2="5.501" gradientUnits="userSpaceOnUse">
    <stop stop-color="#1E8E3E"/>
    <stop offset="1" stop-color="#34A853"/>
  </linearGradient>
  <linearGradient id="b" x1="8.833" x2="15.76" y1="18.02" y2="6.021" gradientUnits="userSpaceOnUse">
    <stop stop-color="#FCC934"/>
    <stop offset="1" stop-color="#FBBC04"/>
  </linearGradient>
  <linearGradient id="c" x1="3.072" x2="16.927" y1="7" y2="7" gradientUnits="userSpaceOnUse">
    <stop stop-color="#D93025"/>
    <stop offset="1" stop-color="#EA4335"/>
  </linearGradient>
</svg>
