<svg xmlns="http://www.w3.org/2000/svg" viewBox="0 0 20 20">
  <rect width="100%" height="100%" fill="#161615"/>
  <path fill="#FCFF69" d="M4.4 3H3.15a.16.16 0 0 0-.16.16v13.68c0 .09.07.16.16.16H4.4c.1 0 .17-.07.17-.16V3.16A.16.16 0 0 0 4.39 3ZM7.5 3H6.27a.16.16 0 0 0-.16.16v13.68c0 .09.07.16.16.16H7.5c.1 0 .17-.07.17-.16V3.16A.16.16 0 0 0 7.5 3ZM9.39 3h1.22c.1 0 .17.07.17.16v13.68c0 .09-.08.16-.17.16H9.4a.16.16 0 0 1-.17-.16V3.16c0-.09.08-.16.17-.16ZM13.72 3H12.5a.16.16 0 0 0-.17.16v13.68c0 .09.08.16.17.16h1.22c.1 0 .17-.07.17-.16V3.16a.16.16 0 0 0-.17-.16ZM15.6 8.44h1.24c.09 0 .16.08.16.17v2.78c0 .1-.07.17-.16.17H15.6a.16.16 0 0 1-.17-.17V8.61c0-.1.08-.17.17-.17Z"/>
</svg>