<svg width="20" height="20" viewBox="0 0 20 20" fill="none" xmlns="http://www.w3.org/2000/svg">
<rect width="19" height="19" fill="#161615"/>
<path d="M2.69012 1H1.19868C1.08895 1 1 1.08895 1 1.19868V17.8005C1 17.9102 1.08895 17.9992 1.19868 17.9992H2.69012C2.79985 17.9992 2.8888 17.9102 2.8888 17.8005V1.19868C2.8888 1.08895 2.79985 1 2.69012 1Z" fill="white"/>
<path d="M6.46795 1H4.97651C4.86678 1 4.77783 1.08895 4.77783 1.19868V17.8005C4.77783 17.9102 4.86678 17.9992 4.97651 17.9992H6.46795C6.57768 17.9992 6.66663 17.9102 6.66663 17.8005V1.19868C6.66663 1.08895 6.57768 1 6.46795 1Z" fill="white"/>
<path d="M8.75469 1H10.2461C10.3559 1 10.4448 1.08895 10.4448 1.19868V17.8005C10.4448 17.9102 10.3559 17.9992 10.2461 17.9992H8.75469C8.64496 17.9992 8.55601 17.9102 8.55601 17.8005V1.19868C8.55601 1.08895 8.64496 1 8.75469 1Z" fill="white"/>
<path d="M14.0232 1H12.5318C12.422 1 12.3331 1.08895 12.3331 1.19868V17.8005C12.3331 17.9102 12.422 17.9992 12.5318 17.9992H14.0232C14.1329 17.9992 14.2219 17.9102 14.2219 17.8005V1.19868C14.2219 1.08895 14.1329 1 14.0232 1Z" fill="white"/>
<path d="M16.3106 7.6115H17.802C17.9118 7.6115 18.0007 7.70045 18.0007 7.81017V11.1904C18.0007 11.3001 17.9118 11.3891 17.802 11.3891H16.3106C16.2009 11.3891 16.1119 11.3001 16.1119 11.1904V7.81017C16.1119 7.70045 16.2009 7.6115 16.3106 7.6115Z" fill="white"/>
</svg>
