<svg xmlns="http://www.w3.org/2000/svg" viewBox="0 0 20 20">
  <rect width="100%" height="100%" fill="#91DC47"/>
  <path fill="#fff" fill-rule="evenodd" d="M5.555 3.348a8 8 0 1 1 8.89 13.304 8 8 0 0 1-8.89-13.304ZM10 2.8a7.2 7.2 0 0 0-5.86 3.01 3.69 3.69 0 0 1 1.986-.576 3.894 3.894 0 0 1 1.816.442c.076.044.148.09.22.14a4.586 4.586 0 0 1 6.438 4.198 4.571 4.571 0 0 1-1.364 3.264c.217.024.434.035.652.036.8 0 1.664-.176 2.312-.722a3.05 3.05 0 0 0 .972-1.658A7.22 7.22 0 0 0 10 2.8Zm2.262 10.298a2.048 2.048 0 0 1-.286-.098h-.008a1.688 1.688 0 0 1-.568-.6 8.86 8.86 0 0 1-.778-1.582c-.08-.208-.086-.164-.09-.134-.007.043-.008.057-.222-.758-.362-1.38-.734-2.642-1.51-3.526a3.8 3.8 0 0 1 5.026 3.62 3.825 3.825 0 0 1-1.564 3.078Zm1.07 1.302a6.315 6.315 0 0 1-1.288-.268 4.586 4.586 0 0 1-5.06-7.558 3.377 3.377 0 0 0-.8-.098c-1.346.014-2.766.758-3.358 2.77-.04.257-.054.517-.042.776a7.218 7.218 0 0 0 13.128 4.142 8.42 8.42 0 0 1-1.968.262 4.906 4.906 0 0 1-.612-.026Zm-3.624-4.256c-.072.156-.152.33-.234.516a13.218 13.218 0 0 0-.728 1.968 3 3 0 0 0-.068.66c0 .098 0 .2.014.308a3.8 3.8 0 0 0 2.518.038 2.279 2.279 0 0 1-.25-.266c-.514-.654-.8-1.612-1.252-3.224Zm-1.894-3.25a3.8 3.8 0 0 0-.044 6.2c.155-.652.478-1.27.939-2.151.223-.427.478-.916.763-1.501-.052-.144-.112-.3-.178-.466-.244-.612-.6-1.322-.91-1.644a2.6 2.6 0 0 0-.57-.438Z" clip-rule="evenodd"/>
</svg>