<svg xmlns="http://www.w3.org/2000/svg" viewBox="0 0 20 20">
  <rect width="100%" height="100%" fill="#F4801F"/>
  <path fill="#fff" fill-rule="evenodd" d="m13.27 12.83-.09.31a.16.16 0 0 1-.15.11H1.15a.12.12 0 0 1-.12-.1 2.66 2.66 0 0 1 1.5-2.82c.34-.16.72-.25 1.1-.26a1.87 1.87 0 0 1 .79-2.03 1.92 1.92 0 0 1 2.2.05 4.2 4.2 0 0 1 4.22-2.83 4.25 4.25 0 0 1 3.91 3.31c0 .03 0 .06-.02.09l-.36.95a2.32 2.32 0 0 1-1.9 1.42l-6.5.08a.17.17 0 0 0-.14.11.12.12 0 0 0 .05.16l.06.01 6.43.08a1 1 0 0 1 .79.39c.18.25.22.6.11.97Zm2.03-4.07.18-.01a3.58 3.58 0 0 1 2.8 1.37 3.44 3.44 0 0 1 .59 3.03c0 .03-.02.06-.05.07a.13.13 0 0 1-.08.03h-4.92l-.03-.01a.08.08 0 0 1-.04-.06v-.03l.1-.27a2.32 2.32 0 0 1 1.91-1.4l1.43-.08a.17.17 0 0 0 .15-.11.12.12 0 0 0-.06-.16.12.12 0 0 0-.05-.01l-1.38-.09a1 1 0 0 1-.79-.38c-.18-.25-.22-.6-.11-.96l.26-.86a.1.1 0 0 1 .06-.07h.03Z" clip-rule="evenodd"/>
</svg>