<svg viewBox="0 0 20 20" xmlns="http://www.w3.org/2000/svg">
<rect width="100%" height="100%" fill="#F38020"/>
<path d="M8.90625 3.125L8.09375 4.375H3.75V15.625H7.375L7.15625 16.875H3.125L2.5 16.25V3.75L3.125 3.125H8.90625ZM12.8438 3.125H16.875L17.5 3.75V16.25L16.875 16.875H11.0938L11.9062 15.625H16.25V4.375H12.625L12.8438 3.125Z" fill="white"/>
<path d="M8.9375 11.875H5.3125L4.78125 10.9062L11.2813 0.90625L12.4062 1.375L11.0625 8.125H14.6875L15.2188 9.09375L8.71875 19.0938L7.59375 18.625L8.9375 11.875ZM4.65625 5.71875C4.77228 5.71875 4.88356 5.67266 4.96561 5.59061C5.04766 5.50856 5.09375 5.39728 5.09375 5.28125C5.09375 5.16522 5.04766 5.05394 4.96561 4.97189C4.88356 4.88984 4.77228 4.84375 4.65625 4.84375C4.54022 4.84375 4.42894 4.88984 4.34689 4.97189C4.26484 5.05394 4.21875 5.16522 4.21875 5.28125C4.21875 5.39728 4.26484 5.50856 4.34689 5.59061C4.42894 5.67266 4.54022 5.71875 4.65625 5.71875ZM5.8125 5.71875C5.92853 5.71875 6.03981 5.67266 6.12186 5.59061C6.20391 5.50856 6.25 5.39728 6.25 5.28125C6.25 5.16522 6.20391 5.05394 6.12186 4.97189C6.03981 4.88984 5.92853 4.84375 5.8125 4.84375C5.69647 4.84375 5.58519 4.88984 5.50314 4.97189C5.42109 5.05394 5.375 5.16522 5.375 5.28125C5.375 5.39728 5.42109 5.50856 5.50314 5.59061C5.58519 5.67266 5.69647 5.71875 5.8125 5.71875ZM6.96875 5.71875C7.08478 5.71875 7.19606 5.67266 7.27811 5.59061C7.36016 5.50856 7.40625 5.39728 7.40625 5.28125C7.40625 5.16522 7.36016 5.05394 7.27811 4.97189C7.19606 4.88984 7.08478 4.84375 6.96875 4.84375C6.85272 4.84375 6.74144 4.88984 6.65939 4.97189C6.57734 5.05394 6.53125 5.16522 6.53125 5.28125C6.53125 5.39728 6.57734 5.50856 6.65939 5.59061C6.74144 5.67266 6.85272 5.71875 6.96875 5.71875Z" fill="white"/>
</svg>
