<svg width="20" height="20" viewBox="0 0 20 20" fill="none" xmlns="http://www.w3.org/2000/svg">
<g clip-path="url(#clip0_1_896)">
<rect width="20" height="20" fill="white"/>
<rect width="20" height="20" fill="#F4801F"/>
<path fill-rule="evenodd" clip-rule="evenodd" d="M13.3812 13.1641L13.2893 13.4828C13.2794 13.5154 13.2593 13.5439 13.2318 13.564C13.2044 13.5842 13.1712 13.5949 13.1372 13.5945H1.15463C1.12421 13.5944 1.09486 13.5833 1.07198 13.5632C1.04909 13.5432 1.03421 13.5156 1.03008 13.4854C0.972872 13.1035 0.997459 12.7139 1.10221 12.3422C1.20696 11.9706 1.38948 11.6254 1.63769 11.3296C1.8859 11.0338 2.19412 10.7941 2.54194 10.6264C2.88977 10.4587 3.26925 10.3668 3.65526 10.3568C3.55804 9.9726 3.58212 9.56768 3.7242 9.19766C3.86628 8.82764 4.1194 8.51067 4.44881 8.29025C4.77823 8.06982 5.16779 7.95675 5.56402 7.96656C5.96026 7.97636 6.34375 8.10856 6.66186 8.34501C6.96152 7.4644 7.54074 6.70585 8.31134 6.18485C9.08193 5.66384 10.0017 5.40893 10.9305 5.45893C11.8594 5.50893 12.7464 5.86109 13.4566 6.46181C14.1669 7.06252 14.6613 7.87886 14.8647 8.78655C14.8677 8.80184 14.8694 8.81736 14.8699 8.83293C14.8702 8.86229 14.865 8.89145 14.8544 8.91884L14.4816 9.89469C14.1869 10.6644 13.3417 11.2949 12.5685 11.3301L6.01759 11.416C5.98401 11.4184 5.95186 11.4305 5.92513 11.451C5.89841 11.4715 5.87828 11.4993 5.86726 11.5311C5.85991 11.5501 5.85727 11.5706 5.85956 11.5908C5.86184 11.6111 5.86898 11.6305 5.88037 11.6473C5.89176 11.6642 5.90706 11.6781 5.92497 11.6878C5.94288 11.6974 5.96287 11.7027 5.98323 11.7029L12.4715 11.7854C12.8142 11.8017 13.0943 11.9409 13.2661 12.178C13.4499 12.4357 13.4903 12.7853 13.3812 13.1641ZM15.271 8.99783C15.334 8.99439 15.3942 8.99268 15.4514 8.99268H15.4531C16.0008 8.99335 16.5409 9.12068 17.0312 9.36471C17.5214 9.60874 17.9486 9.96285 18.2794 10.3994C18.6101 10.8359 18.8354 11.343 18.9376 11.881C19.0398 12.4191 19.0162 12.9735 18.8686 13.5009C18.8612 13.5301 18.8441 13.556 18.8201 13.5743C18.7961 13.5925 18.7665 13.6021 18.7363 13.6014H13.7858C13.7736 13.6007 13.7618 13.5971 13.7513 13.591C13.7408 13.5849 13.7318 13.5764 13.7252 13.5662C13.7186 13.556 13.7145 13.5443 13.7132 13.5322C13.712 13.5201 13.7136 13.5079 13.7179 13.4966L13.8218 13.2251C14.1165 12.4563 14.9575 11.8266 15.7383 11.7905L17.1755 11.7046C17.2091 11.7023 17.2412 11.6901 17.2679 11.6696C17.2947 11.6492 17.3148 11.6213 17.3258 11.5895C17.333 11.5702 17.3354 11.5494 17.3329 11.5289C17.3303 11.5084 17.3229 11.4888 17.3112 11.4718C17.3002 11.4559 17.2856 11.4428 17.2686 11.4335C17.2516 11.4243 17.2326 11.4192 17.2133 11.4186L15.8294 11.3327C15.6758 11.3325 15.5244 11.297 15.3867 11.2289C15.2491 11.1609 15.129 11.062 15.0357 10.9401C14.851 10.6824 14.8106 10.3328 14.9205 9.95393L15.1783 9.07257C15.1826 9.05662 15.1909 9.04201 15.2023 9.03002C15.2137 9.01804 15.2278 9.00904 15.2435 9.00384C15.2522 9.00014 15.2616 8.9981 15.271 8.99783Z" fill="white"/>
</g>
<defs>
<clipPath id="clip0_1_896">
<rect width="20" height="20" fill="white"/>
</clipPath>
</defs>
</svg>
