<svg xmlns="http://www.w3.org/2000/svg" viewBox="0 0 20 20">
  <rect width="100%" height="100%" fill="#fff"/>
  <path fill="#355146" fill-rule="evenodd" d="M7.398 11.479c.407 0 1.216-.023 2.335-.495 1.304-.55 3.897-1.55 5.769-2.576 1.308-.718 1.882-1.667 1.882-2.945 0-1.775-1.403-3.213-3.133-3.213H7C4.514 2.25 2.5 4.316 2.5 6.864c0 2.549 1.887 4.615 4.898 4.615Z" clip-rule="evenodd"/>
  <path fill="#D9A6E5" fill-rule="evenodd" d="M8.624 14.658c0-1.25.733-2.376 1.859-2.854l2.283-.972c2.31-.983 4.851.757 4.851 3.321 0 1.987-1.57 3.597-3.508 3.596h-2.472c-1.664-.001-3.013-1.385-3.013-3.091Z" clip-rule="evenodd"/>
  <path fill="#FF7759" d="M5.094 12.085c-1.432 0-2.594 1.191-2.594 2.66v.345c0 1.47 1.162 2.66 2.594 2.66 1.433 0 2.595-1.19 2.595-2.66v-.345c0-1.469-1.162-2.66-2.595-2.66Z"/>
</svg>
