<svg xmlns="http://www.w3.org/2000/svg" viewBox="0 0 20 20">
  <rect width="100%" height="100%" fill="#009432"/>
  <path fill="#fff" fill-rule="evenodd" d="m11.5 2.43 4.39 2.5a2.79 2.79 0 0 1 1.48 2.55v5.06c0 1.1-.5 1.96-1.47 2.52-1.46.84-2.93 1.69-4.4 2.52-.99.56-1.98.56-2.97 0l-3.5-2-.93-.53a2.83 2.83 0 0 1-1.4-1.94l-.05-.18-.02-.08V7.2l.05-.22.12-.45c.25-.68.67-1.22 1.3-1.58a494.73 494.73 0 0 0 4.42-2.53c1-.56 2-.56 2.99 0Zm-7.14 7.76.08-.04c.9-.49 1.79-.49 2.69-.02.12.06.28.09.41.06a6.9 6.9 0 0 0 4-2.25c.08-.1.14-.25.15-.38.05-.93.46-1.63 1.24-2.13a3.61 3.61 0 0 0 .27-.18l-.77-.44-1.7-.99a1.3 1.3 0 0 0-1.42 0L5.43 6.04l-.5.29a1.2 1.2 0 0 0-.66 1.05c-.01.67-.01 1.34 0 2.01v.62c0 .04 0 .08.02.12l.01.08.06-.02Zm10.69 3.5c.5-.27.72-.7.72-1.25V9.94l-.02-.1h-.06l-.09.03c-.9.48-1.79.46-2.68-.02a.52.52 0 0 0-.32-.05 6.91 6.91 0 0 0-4.01 2.22c-.11.12-.19.3-.2.47-.07.93-.5 1.63-1.3 2.12l-.15.1-.1.06.69.39 1.78 1.02c.46.28.92.28 1.39.01l4.35-2.5Z" clip-rule="evenodd"/>
</svg>