<svg xmlns="http://www.w3.org/2000/svg" viewBox="0 0 20 20">
  <rect width="100%" height="100%" fill="#202628"/>
  <path fill="#fff" d="M15.93 16.85H13.6l.16-1.98H12.6l-.17 1.98H7.57l-.17-1.98H6.25l.16 1.98H4.07L2.75 8.27 6.05 3h7.9l3.3 5.27-1.32 8.58ZM13.3 5.65h-2.11l.14.98H8.68l.14-.99H6.71L5.38 8.27l.67 5.28h7.9l.67-5.28-1.33-2.63Zm-1.15 6.15c-.19 0-.33-.54-.33-1.23 0-.68.15-1.22.33-1.22.18 0 .33.54.33 1.22 0 .69-.15 1.23-.33 1.23Zm-4.16.1c-.18 0-.32-.54-.32-1.22 0-.69.15-1.23.32-1.23.19 0 .33.54.33 1.23 0 .68-.15 1.22-.33 1.22Z"/>
</svg>