<svg xmlns="http://www.w3.org/2000/svg" viewBox="0 0 20 20">
  <rect width="100%" height="100%"/>
  <path fill="#fff" fill-rule="evenodd" d="M12.78 12.65c-.1 0-.19.02-.28.03l-.04-.1.2-.28c.21-.36.4-.73.55-1.12a3.3 3.3 0 0 0-1.74-3.97 3.42 3.42 0 0 0-4.3 1.15c-.95 1.46-.78 3.92 1.33 4.96.86.41 1.8.64 2.74.67a9.96 9.96 0 0 0 5.88-1.54 8.72 8.72 0 0 0 1.83-1.53c.37-.42.4-.72.08-1.19a4.04 4.04 0 0 0-.42-.52 10.13 10.13 0 0 0-3.66-2.37A12.43 12.43 0 0 0 11.42 6l.2.08.74.3c.6.24 1.2.48 1.78.78a8.21 8.21 0 0 1 3 2.62c.33.48.32.66-.1 1.06a7.16 7.16 0 0 1-4.26 1.81Zm-4.2-3.8c.36-.37.86-.58 1.38-.58a1.95 1.95 0 0 1 1.98 1.94 1.96 1.96 0 0 1-1.97 2.04 1.98 1.98 0 0 1-1.4-3.4Z" clip-rule="evenodd"/>
  <path fill="#fff" d="M7.43 13.9h.21l.01-.05-.38-.13c-1.1-.36-2.14-.88-3.08-1.54-.58-.4-1.07-.9-1.44-1.5a.65.65 0 0 1 .02-.81l.24-.3c.14-.17.27-.34.42-.5 1.26-1.3 2.8-2.3 4.52-2.9l.15-.06.06-.03a.42.42 0 0 0-.23-.02c-1.97.3-3.83 1.08-5.43 2.27-.52.4-1.01.86-1.46 1.35-.38.43-.38.76-.02 1.18.35.4.74.77 1.17 1.1a11.72 11.72 0 0 0 5.24 1.95Z"/>
</svg>