<svg viewBox="0 0 20 20" xmlns="http://www.w3.org/2000/svg">
<rect width="100%" height="100%" fill="black"/>
<path d="M18.0465 12.093L15.9302 4.18605C15.9302 4.16279 15.907 4.13954 15.8605 4.11628L7.93023 2C7.90698 2 7.86046 2 7.83721 2.02326L2.02326 7.81395C2 7.83721 2 7.86047 2 7.90698L4.11628 15.814C4.11628 15.8372 4.13953 15.8605 4.18605 15.8837L12.1163 18C12.1395 18 12.186 18 12.2093 17.9767L18.0233 12.186C18.0465 12.1395 18.0698 12.1163 18.0465 12.093ZM10.2791 5.88372L8.18605 13.6512C8.18605 13.6744 8.16279 13.6744 8.13953 13.6512L2.46512 7.97674C2.44186 7.95349 2.46512 7.95349 2.46512 7.93023L10.2558 5.83721C10.2558 5.86046 10.2791 5.86047 10.2791 5.88372Z" fill="white"/>
</svg>