<svg xmlns="http://www.w3.org/2000/svg" viewBox="0 0 20 20">
  <rect width="100%" height="100%" fill="#A178DB"/>
  <path fill="#fff" d="M3.9 5.16 8.85 2.3a2.27 2.27 0 0 1 2.3 0l4.95 2.85a2.3 2.3 0 0 1 1.15 2v5.68a2.3 2.3 0 0 1-1.15 2l-4.95 2.85a2.27 2.27 0 0 1-2.3 0L3.9 14.82a2.3 2.3 0 0 1-1.15-2V7.15a2.29 2.29 0 0 1 1.15-2Zm8.17 5.99a2.39 2.39 0 1 1-.93-3.28 2.37 2.37 0 0 1 .95.92l2.13-1.22a4.84 4.84 0 1 0-5.46 7.09 4.86 4.86 0 0 0 5.46-2.25l-2.15-1.26Zm1.67-1.57h-.45l-.06.54h.45l.06-.54Zm-.55.92h.45l-.07.67h.44l.07-.67h.37v-.38h-.33v-.54h.38v-.34h-.34l.07-.6h-.4l-.06.6h-.45l.06-.6H13l-.06.6h-.39v.38h.35l-.05.54h-.4v.38h.36l-.07.67h.4l.05-.71Z"/>
</svg>