<svg viewBox="0 0 20 20" xmlns="http://www.w3.org/2000/svg">
<rect width="100%" height="100%" fill="#40C4FF"/>
<path d="M5.26401 14.7355L2.526 12.0015C2.19535 11.6622 2.00714 11.2092 2 10.7355C2.02487 10.4801 2.09603 10.2314 2.21 10.0015L4.73801 4.7355L5.26401 14.7355Z" fill="#01579B"/>
<path d="M14.6323 5.26151L11.8963 2.52549C11.5822 2.22265 11.1731 2.03756 10.7383 2.00149C10.4138 1.98877 10.0914 2.05753 9.8003 2.20149L4.73828 4.7355L14.6323 5.26151ZM8.5263 17.9996H15.1583V15.1575L10.2103 13.5775L5.68429 15.1575L8.5263 17.9996V17.9996Z" fill="white"/>
<path d="M4.73828 13.2615C4.73828 14.1055 4.84428 14.3135 5.26428 14.7355L5.68429 15.1576H15.1583L10.5263 9.89353L4.73828 4.7355V13.2615Z" fill="white"/>
<path d="M13.1583 4.7355H4.73828L15.1583 15.1555H18.0003V8.62952L14.6323 5.26151C14.1583 4.7875 13.7383 4.7355 13.1583 4.7355V4.7355Z" fill="#01579B"/>
<path opacity="0.2" d="M5.36828 14.8395C4.94828 14.4175 4.84428 14.0015 4.84428 13.2615V4.8415L4.73828 4.7355V13.2615C4.73828 14.0015 4.73828 14.2055 5.36828 14.8395L5.68429 15.1555L5.36828 14.8395Z" fill="white"/>
<path opacity="0.2" d="M17.8957 8.52551V15.0515H15.0537L15.1577 15.1575H17.9997V8.62951L17.8957 8.52551Z" fill="#263238"/>
<path opacity="0.2" d="M14.6323 5.26151C14.1103 4.7395 13.6823 4.7355 13.0543 4.7355H4.73828L4.84428 4.8415H13.0543C13.3683 4.8415 14.1603 4.7875 14.6323 5.26151Z" fill="white"/>
</svg>
