<svg xmlns="http://www.w3.org/2000/svg" viewBox="0 0 20 20">
  <rect width="100%" height="100%" fill="#40C4FF"/>
  <path fill="#01579B" d="M5.264 14.736 2.526 12A1.854 1.854 0 0 1 2 10.736c.025-.256.096-.505.21-.735l2.528-5.265.526 10Z"/>
  <path fill="#fff" d="m14.632 5.262-2.736-2.737a1.894 1.894 0 0 0-1.158-.524 1.944 1.944 0 0 0-.938.2L4.738 4.735l9.894.527ZM8.526 18h6.632v-2.842l-4.948-1.58-4.526 1.58L8.526 18Z"/>
  <path fill="#fff" d="M4.738 13.261c0 .845.106 1.053.526 1.475l.42.422h9.474l-4.632-5.264-5.788-5.159v8.526Z"/>
  <path fill="#01579B" d="M13.158 4.736h-8.42l10.42 10.42H18V8.63l-3.368-3.368c-.474-.474-.894-.526-1.474-.526Z"/>
  <path fill="#fff" d="M5.368 14.84c-.42-.422-.524-.838-.524-1.579v-8.42l-.106-.106v8.526c0 .74 0 .945.63 1.579l.316.316-.316-.317Z" opacity=".2"/>
  <path fill="#263238" d="M17.896 8.526v6.526h-2.842l.104.106H18V8.63l-.104-.104Z" opacity=".2"/>
  <path fill="#fff" d="M14.632 5.262c-.522-.522-.95-.526-1.578-.526H4.738l.106.106h8.21c.314 0 1.106-.054 1.578.42Z" opacity=".2"/>
</svg>