<svg id="Layer_1" data-name="Layer 1" xmlns="http://www.w3.org/2000/svg" viewBox="0 0 20 20"><defs><style>.cls-1{fill:#1c2834;}.cls-2{fill:#00c7ff;}.cls-3{fill:#0059a1;}</style></defs><rect class="cls-1" width="20" height="20"/><polygon class="cls-2" points="4.75 14.22 8.53 18 15.16 18 15.16 15.16 4.75 4.75 4.75 14.22"/><path class="cls-2" d="M14.12,4.75,11.9,2.53A1.9,1.9,0,0,0,10.74,2a1.94,1.94,0,0,0-1,.21l-5,2.53h9.38Z"/><polygon class="cls-3" points="14.12 4.75 4.75 4.75 15.16 15.16 18 15.16 18 8.63 14.12 4.75"/><path class="cls-3" d="M4.73,4.75,2.21,10a2.1,2.1,0,0,0-.21.74A1.82,1.82,0,0,0,2.53,12l2.22,2.22V4.75Z"/></svg>