<svg xmlns="http://www.w3.org/2000/svg" viewBox="0 0 20 20"><defs><style>.b{fill:#01579b}.c{fill:#fff}</style></defs><path fill="#40c4ff" d="M0 0h20v20H0z"/><path class="b" d="M5.24 14.76L2.48 12A1.89 1.89 0 012 10.74a2 2 0 01.17-.74l2.54-5.29z"/><path class="c" d="M14.66 5.24l-2.75-2.76A1.9 1.9 0 0010.74 2a1.93 1.93 0 00-1 .22L4.71 4.71zM15.19 15.19l-4.66-5.3-5.82-5.18v8.57c0 .85.1 1.06.53 1.48l.42.43 2.86 2.86h6.67v-2.86"/><path class="b" d="M13.18 4.71H4.71l10.48 10.48h2.86V8.62l-3.39-3.39a1.81 1.81 0 00-1.48-.52z"/></svg>