<svg xmlns="http://www.w3.org/2000/svg" viewBox="0 0 20 20"><path fill="#632ca6" d="M0 0h20v20H0z"/><path d="M15.05 13.36l-1.33-.88-1.11 1.86-1.3-.34-1.13 1.73.06.55 6.18-1.14-.36-3.86zm-5.77-1.67l1-.13a2.88 2.88 0 00.47.15 1.49 1.49 0 001.16-.11 2 2 0 00.47-.42l4.06-.73.42 5-7 1.26zm7.55-1.8l-.4.07-.77-8L2.53 3.52l1.61 13.13 1.54-.22a3.12 3.12 0 00-.68-.66 1.07 1.07 0 010-1.42c.35-.68 2.17-1.55 2.07-2.64a1.92 1.92 0 00-.47-1.26 1 1 0 000 .29 1.68 1.68 0 01-.23-.46 2.33 2.33 0 01-.18-.28 1 1 0 00-.05.34A2.14 2.14 0 016 9.81a.91.91 0 00-.09.32 2.2 2.2 0 01-.13-.71 3.36 3.36 0 01-.23-1.61 1.31 1.31 0 001.63-.3c.11-.16.19-.62-.06-1.52a12.93 12.93 0 00-.71-1.77c.09.27.25.82.32 1.09a2.83 2.83 0 01.15 1.46c-.07.33-.26.54-.73.78S5 7.22 5 7.19a2.54 2.54 0 01-.85-1.26c0-.32.18-.51.29-.77-.16 0-.34.13-.34.13a4.66 4.66 0 01.48-.41 2.77 2.77 0 00.29-.22h-.3a5.57 5.57 0 01.57-.26h-.42l1.12-.49a.68.68 0 01.86.18 1.48 1.48 0 001.05.66 4 4 0 01.85-.34A1.33 1.33 0 019.24 4a.68.68 0 00-.18.34c.21-.16.44-.3.44-.3a1.48 1.48 0 00-.17.28A3.5 3.5 0 019.88 4l-.18.24a5.25 5.25 0 01.7 0c.86 0 1-.91 1.37-1s.59-.24 1.29.45 1.08 1.65.84 1.89-.58-.08-1-.61a2.37 2.37 0 01-.47-1 1 1 0 00-.34-.57 1.79 1.79 0 01.16.64 2.1 2.1 0 00.28 1.12s0 .25-.07.29a3.91 3.91 0 00-1.07-.71 5.89 5.89 0 011.51 1.62c.3.62.12 1.18.28 1.33a5.11 5.11 0 01.76 1.18 2.23 2.23 0 01-.25 1.79l-.75.12a1.08 1.08 0 01-.28-.11 1.49 1.49 0 00.17-.38l-.05-.07a3.08 3.08 0 01-.94.83 1.57 1.57 0 01-1.22.1 6.94 6.94 0 01-2-1v.15a6.83 6.83 0 001.24 1.05l-1.07.11.51 3.94-.51.08a2.62 2.62 0 00-1.08-1.55 2 2 0 00-1.47-.21 1.83 1.83 0 011.24.3 2.79 2.79 0 01.92 1.41 1.84 1.84 0 01-.16 1.76 1.51 1.51 0 01-2 .15 1.23 1.23 0 00.84.64 1.57 1.57 0 001.4-.39A2.27 2.27 0 008.94 16l.48-.07.17 1.22 7.88-.95zM12 6.56a.28.28 0 000 .25 1 1 0 00.37.46h.14a.69.69 0 01.33 0v-.03c0-.24 0-.65-.42-.87a.48.48 0 00-.5 0c.12 0 0 .08 0 .13m1.31 2.27a1.63 1.63 0 00-.55 0 2.48 2.48 0 00-.88.25.28.28 0 000 .44 1.39 1.39 0 001 .38c.2 0 .37-.33.49-.61s.08-.4 0-.46M10 6.86c.11-.1-.53-.23-1 .11a.69.69 0 000 1.1v.07L9.34 8a3.64 3.64 0 01.57-.13.61.61 0 00.14-.5c0-.36-.3-.3-.1-.5" fill="#fff" fill-rule="evenodd"/></svg>