<svg viewBox="0 0 20 20" xmlns="http://www.w3.org/2000/svg">
<rect width="100%" height="100%" fill="white"/>
<path d="M19.1472 4.13306C18.953 4.03785 18.8693 4.2193 18.7557 4.31148C18.7168 4.34121 18.684 4.37986 18.6511 4.41554C18.3672 4.71883 18.0354 4.91814 17.6021 4.89431C16.9685 4.8586 16.4275 5.0579 15.9493 5.54265C15.8477 4.9449 15.51 4.58798 14.9959 4.35903C14.7269 4.24006 14.455 4.12108 14.2666 3.86234C14.1351 3.67802 14.0993 3.47281 14.0335 3.27057C13.9917 3.14866 13.9498 3.02371 13.8093 3.00288C13.6569 2.97912 13.5971 3.10694 13.5374 3.21407C13.2983 3.65126 13.2056 4.13303 13.2146 4.62075C13.2355 5.71816 13.6988 6.59243 14.6193 7.21401C14.7239 7.28539 14.7508 7.35671 14.7179 7.46087C14.6551 7.67499 14.5804 7.88314 14.5147 8.09726C14.4728 8.23409 14.41 8.26383 14.2636 8.20429C13.7585 7.99321 13.3221 7.6809 12.9366 7.30325C12.2821 6.66979 11.6903 5.97093 10.9521 5.42371C10.7788 5.29582 10.6054 5.17691 10.4261 5.06384C9.67289 4.3323 10.5247 3.73152 10.722 3.6602C10.9282 3.58584 10.7937 3.33004 10.1272 3.33308C9.46069 3.33601 8.85101 3.55908 8.07396 3.85647C7.9604 3.90109 7.84081 3.93376 7.71828 3.96053C7.01295 3.82673 6.2807 3.79693 5.51559 3.88323C4.07502 4.04379 2.9244 4.72484 2.0786 5.88766C1.06246 7.28539 0.823368 8.87342 1.11627 10.5299C1.42411 12.2756 2.31472 13.7209 3.68357 14.8511C5.10323 16.0227 6.73806 16.5967 8.60301 16.4867C9.73574 16.4213 10.997 16.2696 12.4196 15.0652C12.7782 15.2436 13.1548 15.3149 13.7795 15.3685C14.2607 15.4131 14.7239 15.3447 15.0826 15.2704C15.6444 15.1514 15.6056 14.631 15.4024 14.5358C13.7556 13.7686 14.1172 14.0808 13.7885 13.828C14.6253 12.8377 15.8866 11.8087 16.3797 8.47492C16.4185 8.21027 16.3857 8.0437 16.3797 7.82958C16.3767 7.69875 16.4066 7.64823 16.556 7.63331C16.9685 7.58572 17.3689 7.47275 17.7366 7.27051C18.8035 6.68765 19.2339 5.73004 19.3355 4.5821C19.3505 4.40662 19.3325 4.22518 19.1472 4.13306ZM9.8493 14.4644C8.25333 13.2095 7.47928 12.796 7.15946 12.8139C6.86059 12.8318 6.9144 13.1738 6.98012 13.3968C7.04888 13.6169 7.13855 13.7686 7.26405 13.9618C7.35072 14.0897 7.41053 14.28 7.17741 14.4228C6.66334 14.741 5.76969 14.3157 5.72783 14.2949C4.6878 13.6823 3.81808 12.8733 3.20536 11.7671C2.61359 10.7024 2.26992 9.56044 2.2131 8.34112C2.19816 8.04674 2.28483 7.94258 2.57773 7.88911C2.96327 7.81773 3.36078 7.80281 3.74632 7.85931C5.37521 8.09726 6.76195 8.82587 7.92454 9.97974C8.58803 10.637 9.09013 11.4221 9.60721 12.1894C10.1571 13.0042 10.7489 13.7804 11.502 14.4168C11.768 14.6399 11.9802 14.8094 12.1835 14.9343C11.5708 15.0027 10.5487 15.0176 9.8493 14.4644ZM10.6144 9.54259C10.6144 9.41173 10.719 9.30767 10.8506 9.30767C10.8805 9.30767 10.9073 9.31355 10.9313 9.32246C10.9642 9.33441 10.994 9.35226 11.0179 9.37896C11.0598 9.42064 11.0837 9.48008 11.0837 9.54256C11.0837 9.67341 10.9791 9.77747 10.8476 9.77747C10.7162 9.77747 10.6144 9.67345 10.6144 9.54259ZM12.9905 10.7619C12.838 10.8244 12.6856 10.8779 12.5392 10.8838C12.312 10.8957 12.064 10.8035 11.9295 10.6905C11.7203 10.515 11.5708 10.4169 11.5081 10.1106C11.4812 9.97975 11.4961 9.7775 11.5201 9.66156C11.5738 9.41173 11.5141 9.25117 11.3377 9.1054C11.1943 8.98643 11.012 8.95375 10.8117 8.95375C10.737 8.95375 10.6683 8.92101 10.6174 8.89425C10.5337 8.85263 10.4651 8.74854 10.5308 8.62066C10.5517 8.57907 10.6533 8.47792 10.6773 8.4601C10.9492 8.30541 11.2631 8.35601 11.553 8.47198C11.822 8.58201 12.0252 8.78425 12.3181 9.06973C12.6169 9.41467 12.6707 9.50992 12.8411 9.76859C12.9756 9.97083 13.0981 10.179 13.1818 10.4169C13.2326 10.5656 13.1668 10.6876 12.9905 10.7619Z" fill="#4D6BFE"/>
</svg>
