<svg xmlns="http://www.w3.org/2000/svg" viewBox="0 0 20 20">
  <rect width="100%" height="100%"/>
  <path fill="#fff" d="m3.88 10.1 2.38 1.61c.07.06.15.12.22.2.07.06.11.16.11.26v.9a.22.22 0 0 1-.22.22h-.05a.3.3 0 0 1-.06-.03l-3.7-2.5a1.08 1.08 0 0 1-.23-.18.38.38 0 0 1-.08-.26v-.43c0-.1.02-.2.08-.27.07-.07.14-.13.23-.18l3.7-2.5a.3.3 0 0 1 .06-.02h.05a.22.22 0 0 1 .22.22v.9c0 .1-.04.2-.11.26l-.22.2-2.38 1.6Zm7.18-4.28c.04-.08.1-.16.16-.22.08-.07.2-.1.3-.1h.8a.24.24 0 0 1 .23.23l-.02.1-3.58 8.54a.67.67 0 0 1-.15.22.43.43 0 0 1-.32.1h-.76a.22.22 0 0 1-.16-.07.23.23 0 0 1-.05-.26l3.55-8.54Zm2.68 2.69a1.71 1.71 0 0 1-.22-.2.37.37 0 0 1-.11-.26v-.9a.22.22 0 0 1 .13-.2.22.22 0 0 1 .09-.02h.05l.06.03 3.7 2.5c.09.05.16.1.23.18.06.07.09.17.08.26v.45c0 .1-.02.19-.08.26-.07.07-.14.14-.23.19l-3.7 2.46a.34.34 0 0 1-.06.03h-.05a.22.22 0 0 1-.22-.22v-.9a.37.37 0 0 1 .11-.26l.22-.2 2.38-1.6-2.38-1.6Z"/>
</svg>