<svg viewBox="0 0 20 20" xmlns="http://www.w3.org/2000/svg">
  <rect width="100%" height="100%" fill="white"/>
  <path d="M9.97143 2.25C10.1848 2.25023 10.3997 2.25844 10.6159 2.27493C11.6412 2.35321 12.6101 2.61132 13.4939 3.01598C14.207 3.34276 14.8669 3.76566 15.4572 4.26803C16.9399 5.53109 17.974 7.29052 18.3179 9.26492C18.4001 9.73815 18.4429 10.2248 18.4429 10.7214C18.4427 10.9351 18.4344 11.1504 18.4179 11.3669C18.3554 12.1852 18.1784 12.9676 17.9037 13.6996C17.5204 14.719 16.9459 15.6453 16.2242 16.4347C15.2855 17.3931 14.0925 17.8197 13.0962 17.8019C12.3717 17.789 11.6629 17.5007 11.1731 17.079C10.4733 16.4764 10.1907 15.7876 10.0938 15.019C10.0697 14.8279 10.0838 14.3073 10.1833 13.9468C10.2574 13.6781 10.4453 13.1591 10.7202 12.9322C10.3987 12.7937 9.9848 12.4921 9.85434 12.3474C9.82226 12.3118 9.82647 12.256 9.85516 12.2177C9.88391 12.1794 9.9342 12.1643 9.97931 12.1805C10.2558 12.2754 10.5925 12.3689 10.9475 12.4283C11.4144 12.5064 11.995 12.6047 12.5832 12.6336C14.0175 12.704 15.5156 12.0603 15.9806 10.7794C16.4455 9.4986 16.2651 8.23166 14.5971 7.47176C12.9291 6.7118 12.1585 5.80824 10.8108 5.26328C9.9305 4.9073 8.95071 5.11861 7.94479 5.67451C5.23534 7.17184 2.80784 11.9028 3.92683 16.286C3.94281 16.3459 3.91585 16.4091 3.86147 16.439C3.81047 16.4669 3.74774 16.459 3.7055 16.4203C3.37985 16.0624 3.08435 15.6767 2.82314 15.2669C2.62107 14.9499 2.43969 14.6188 2.28065 14.2758C1.77964 13.1947 1.5 11.9905 1.5 10.7214C1.5 10.393 1.51878 10.0689 1.55521 9.75017C1.5922 9.42808 1.64702 9.11205 1.71858 8.8029C2.1207 7.06881 3.05598 5.53803 4.34208 4.39301C5.42233 3.43255 6.74567 2.74721 8.19635 2.43659C8.76886 2.31431 9.36266 2.25 9.97143 2.25Z" fill="black"/>
  <path d="M9.66819 5.85133C10.1252 5.81553 10.5239 6.20557 10.5927 6.72431C10.6844 7.41531 10.4308 8.12913 9.59682 8.14557C8.88441 8.1598 8.66852 7.44136 8.71574 7.00615C8.76262 6.57093 9.12138 5.89426 9.66819 5.85133Z" fill="black"/>
</svg>