<svg xmlns="http://www.w3.org/2000/svg" viewBox="0 0 20 20">
  <rect width="100%" height="100%" fill="#113228"/>
  <path fill="#fff" fill-rule="evenodd" d="M11.36 3h-2.4v3.64a3.96 3.96 0 0 0-1-.12 3.79 3.79 0 0 0-4.08 3.96c0 2.51 1.5 3.82 4.4 3.82 1.04 0 2.07-.11 3.08-.33V3ZM8.18 8.4c.28.01.56.07.81.18v3.73c-.28.04-.55.06-.83.06a1.72 1.72 0 0 1-1.87-1.99 1.8 1.8 0 0 1 1.9-1.98Z" clip-rule="evenodd"/>
  <path fill="#fff" d="M15.12 12.16v-5.5h-2.36v4.69c0 2.06-.1 2.84-.45 3.51-.4.75-1.07 1.31-1.87 1.59l2.2 1.05c.83-.34 1.5-.96 1.92-1.75.49-1.13.68-2.37.56-3.6ZM15.12 3.02h-2.36v2.43h2.36V3.02Z"/>
</svg>