<svg viewBox="0 0 20 20" xmlns="http://www.w3.org/2000/svg">
<rect width="100%" height="100%" fill="#113228"/>
<path fill-rule="evenodd" clip-rule="evenodd" d="M11.2158 3H8.69379V6.8089C8.35447 6.72382 8.00576 6.68197 7.65595 6.68435C7.09364 6.63934 6.52819 6.71484 5.9974 6.90582C5.4666 7.09679 4.98266 7.39884 4.57793 7.79179C4.17319 8.18474 3.85697 8.65953 3.65039 9.18446C3.44382 9.70938 3.35164 10.2723 3.38002 10.8357C3.38002 13.4615 4.95755 14.8314 7.98806 14.8314C9.07282 14.8276 10.1543 14.7129 11.2158 14.489V3ZM7.88427 8.65626C8.17716 8.66459 8.46586 8.72796 8.73531 8.84307L8.72493 12.7454C8.43991 12.7891 8.15185 12.8099 7.86352 12.8076C7.58916 12.8347 7.31225 12.7986 7.05401 12.7021C6.79578 12.6056 6.56306 12.4512 6.37371 12.2508C6.18436 12.0505 6.0434 11.8094 5.96163 11.5461C5.87986 11.2828 5.85946 11.0043 5.90199 10.732C5.87279 10.4602 5.90323 10.1854 5.99118 9.92669C6.07914 9.66795 6.22248 9.43152 6.41122 9.23389C6.59996 9.03625 6.82955 8.88218 7.08397 8.78242C7.33838 8.68265 7.6115 8.6396 7.88427 8.65626Z" fill="white"/>
<path d="M15.1491 12.5897V6.84003H12.679V11.7387C12.679 13.8974 12.5649 14.7173 12.212 15.423C11.7862 16.2002 11.0873 16.7919 10.2505 17.0836L12.5545 18.1837C13.4202 17.8263 14.1328 17.1761 14.5679 16.3467C15.0735 15.1629 15.2733 13.871 15.1491 12.5897Z" fill="white"/>
<path d="M15.1491 3.02076H12.679V5.56348H15.1491V3.02076Z" fill="white"/>
</svg>
