<svg viewBox="0 0 20 20" fill="none" xmlns="http://www.w3.org/2000/svg">
<path d="M0 0H20V20H0V0Z" fill="#D3ECEC"/>
<path fill-rule="evenodd" clip-rule="evenodd" d="M11.4086 8.22551H13.0223V9.87417H13.8382C14.2151 9.87417 14.6026 9.80709 14.9594 9.68627C15.1348 9.62681 15.3315 9.54415 15.5045 9.44012C15.2767 9.1429 15.1604 8.76761 15.1262 8.39768C15.0796 7.89444 15.1813 7.23949 15.522 6.84565L15.6916 6.64957L15.8938 6.812C16.4027 7.22059 16.8307 7.7916 16.9061 8.44253C17.5189 8.2624 18.2384 8.305 18.7785 8.61653L19.0001 8.74433L18.8835 8.97187C18.4267 9.86281 17.4716 10.1389 16.5379 10.09C15.1408 13.5678 12.0991 15.2143 8.41106 15.2143C6.50561 15.2143 4.75754 14.5024 3.76205 12.8129L3.74574 12.7854L3.60072 12.4904C3.26423 11.7468 3.15244 10.9321 3.22824 10.118L3.25103 9.87417H4.631V8.22551H6.24464V6.61275H9.47211V5H11.4086V8.22551Z" fill="#364548"/>
<path fill-rule="evenodd" clip-rule="evenodd" d="M16.6367 8.83546C16.7449 7.99502 16.1156 7.33492 15.7253 7.02148C15.2756 7.54115 15.2057 8.9031 15.9113 9.47652C15.5175 9.82607 14.6878 10.1429 13.8382 10.1429H3.49615C3.41358 11.0293 3.56927 11.8455 3.92488 12.5441L4.04252 12.7592C4.11701 12.8855 4.19841 13.0076 4.28635 13.1249C4.71155 13.1522 5.10358 13.1615 5.46222 13.1536H5.46236C6.16717 13.1381 6.74226 13.0549 7.17812 12.904C7.20893 12.8944 7.24226 12.8972 7.27106 12.9117C7.29987 12.9262 7.32188 12.9514 7.33245 12.9819C7.34302 13.0123 7.34132 13.0457 7.3277 13.075C7.31408 13.1042 7.28962 13.127 7.25949 13.1385C7.20148 13.1587 7.14107 13.1775 7.07868 13.1953H7.07847C6.73528 13.2933 6.36724 13.3592 5.89243 13.3884C5.92066 13.3889 5.86307 13.3927 5.86293 13.3927C5.84677 13.3937 5.82645 13.396 5.81022 13.3969C5.62334 13.4074 5.42164 13.4096 5.21543 13.4096C4.98988 13.4096 4.76779 13.4054 4.51945 13.3927L4.5131 13.3969C5.37478 14.3649 6.72215 14.9454 8.41108 14.9454C11.9854 14.9454 15.0172 13.3618 16.3598 9.80674C17.3122 9.90443 18.2276 9.66166 18.644 8.84929C17.9807 8.4668 17.1278 8.58875 16.6367 8.83546" fill="#1B81A5"/>
<path fill-rule="evenodd" clip-rule="evenodd" d="M16.6367 8.83546C16.7448 7.99502 16.1155 7.33492 15.7253 7.02148C15.2755 7.54115 15.2057 8.9031 15.9112 9.47652C15.5174 9.82607 14.6877 10.1429 13.8381 10.1429H4.10853C4.06633 11.5003 4.57036 12.5307 5.46211 13.1536C6.16691 13.1381 6.74222 13.0549 7.17807 12.904C7.20888 12.8944 7.24222 12.8972 7.27102 12.9117C7.29982 12.9262 7.32184 12.9514 7.33241 12.9819C7.34298 13.0123 7.34127 13.0457 7.32766 13.075C7.31404 13.1042 7.28958 13.127 7.25944 13.1385C7.20143 13.1587 7.14102 13.1775 7.07864 13.1953C6.73544 13.2933 6.33558 13.3676 5.86077 13.3969C5.86063 13.3969 5.84927 13.386 5.84913 13.386C7.06558 14.0096 8.82939 14.0073 10.8516 13.231C13.1191 12.3604 15.2292 10.7018 16.7014 8.80471C16.6792 8.81473 16.6576 8.82496 16.6367 8.83546Z" fill="#1B81A5"/>
<path fill-rule="evenodd" clip-rule="evenodd" d="M4.89978 8.49435H6.29838V9.89212H4.89978V8.49435ZM6.51348 6.88159H7.91215V8.2793H6.51341L6.51348 6.88159Z" fill="#34BBDE"/>
<path fill-rule="evenodd" clip-rule="evenodd" d="M6.5135 8.49438H7.91217V9.89216H6.51343L6.5135 8.49438Z" fill="#34BBDE"/>
<path fill-rule="evenodd" clip-rule="evenodd" d="M8.12732 8.49438H9.52592V9.89216H8.12732V8.49438Z" fill="#34BBDE"/>
<path fill-rule="evenodd" clip-rule="evenodd" d="M8.12732 6.88159H9.52592V8.2793H8.12732V6.88159ZM9.74102 8.49435H11.1396V9.89212H9.74102V8.49435Z" fill="#34BBDE"/>
<path fill-rule="evenodd" clip-rule="evenodd" d="M9.74097 6.88159H11.1396V8.2793H9.74097V6.88159Z" fill="#34BBDE"/>
<path fill-rule="evenodd" clip-rule="evenodd" d="M9.74097 5.2688H11.1396V6.66672H9.74097V5.2688Z" fill="#34BBDE"/>
<path fill-rule="evenodd" clip-rule="evenodd" d="M11.3547 8.49438H12.7533V9.89216H11.3547V8.49438Z" fill="#34BBDE"/>
<path fill-rule="evenodd" clip-rule="evenodd" d="M7.82459 12.1582C7.8757 12.1576 7.92644 12.167 7.97385 12.1861C8.02127 12.2052 8.06442 12.2335 8.1008 12.2694C8.13718 12.3053 8.16606 12.348 8.18578 12.3951C8.20549 12.4423 8.21563 12.4929 8.21562 12.5439C8.21562 12.595 8.20545 12.6456 8.18572 12.6927C8.16599 12.7398 8.13709 12.7826 8.1007 12.8185C8.06431 12.8543 8.02114 12.8826 7.97372 12.9017C7.9263 12.9207 7.87556 12.9302 7.82445 12.9295C7.72302 12.9281 7.62621 12.8869 7.55498 12.8147C7.48375 12.7425 7.44383 12.6452 7.44385 12.5438C7.44387 12.4424 7.48383 12.3451 7.55508 12.273C7.62634 12.2008 7.72316 12.1596 7.82459 12.1582Z" fill="#D3ECEC"/>
<path fill-rule="evenodd" clip-rule="evenodd" d="M7.82461 12.2676C7.8599 12.2676 7.89356 12.2742 7.92461 12.2863C7.90319 12.2987 7.88645 12.3178 7.877 12.3407C7.86754 12.3636 7.86589 12.389 7.8723 12.4129C7.87871 12.4368 7.89282 12.458 7.91245 12.4731C7.93209 12.4882 7.95615 12.4964 7.98093 12.4964C8.02363 12.4964 8.06068 12.4728 8.07987 12.4378C8.1026 12.4925 8.10712 12.5531 8.09275 12.6106C8.07839 12.6681 8.04591 12.7194 8.00011 12.757C7.95431 12.7946 7.89762 12.8165 7.83842 12.8195C7.77921 12.8224 7.72063 12.8063 7.67132 12.7734C7.62201 12.7405 7.5846 12.6926 7.5646 12.6368C7.5446 12.5811 7.54309 12.5204 7.56027 12.4636C7.57745 12.4069 7.61243 12.3573 7.66003 12.322C7.70763 12.2867 7.76533 12.2676 7.82461 12.2676V12.2676ZM1 11.3591H18.9484C18.5577 11.26 17.712 11.1262 17.8514 10.6143C17.1408 11.4361 15.4271 11.1908 14.9945 10.7856C14.513 11.4838 11.7091 11.2184 11.5136 10.6745C10.9097 11.3827 9.03881 11.3827 8.43499 10.6745C8.2393 11.2184 5.43553 11.4838 4.95388 10.7856C4.52141 11.1908 2.80778 11.4361 2.09712 10.6143C2.23657 11.1262 1.3909 11.26 1 11.3591" fill="#364548"/>
<path fill-rule="evenodd" clip-rule="evenodd" d="M8.85021 14.937C7.89467 14.4838 7.37024 13.8678 7.07843 13.1953C6.72345 13.2965 6.29684 13.3613 5.80107 13.3891C5.61434 13.3995 5.41786 13.4049 5.21179 13.4049C4.97411 13.4049 4.72365 13.3978 4.46069 13.3839C5.33699 14.2592 6.41498 14.933 8.41104 14.9453C8.5584 14.9453 8.70462 14.9425 8.85021 14.937" fill="#BDD9D7"/>
<path fill-rule="evenodd" clip-rule="evenodd" d="M7.43341 13.816C7.30123 13.6366 7.173 13.4112 7.07872 13.1953C6.72374 13.2967 6.29699 13.3614 5.80115 13.3893C6.14173 13.574 6.62875 13.7452 7.43349 13.816" fill="#BDD9D7"/>
</svg>
