<svg viewBox="0 0 20 20" xmlns="http://www.w3.org/2000/svg">
<rect width="100%" height="100%" fill="#2D4C91"/>
<path d="M0 20V0L20 20H0Z" fill="#425D9C"/>
<path d="M8.12627 6.99209V5.25512H8.80739V11.086H8.03921C8.01724 11.0874 7.99535 11.0823 7.97623 11.0714C7.95712 11.0604 7.94163 11.0441 7.93166 11.0245L4.9844 6.44384C4.91782 6.33881 4.86661 6.22352 4.81027 6.11336L4.77699 6.05443C4.77577 6.07406 4.77577 6.09374 4.77699 6.11336C4.77699 6.33368 4.80515 6.55657 4.80515 6.77945V11.086H4.11123V5.25256H4.91014C4.93597 5.24973 4.96206 5.25483 4.98493 5.26718C5.0078 5.27954 5.02637 5.29856 5.03817 5.32173C5.79611 6.51728 6.55491 7.70686 7.31456 8.89045L8.12883 10.1714C8.13161 10.1773 8.13594 10.1823 8.14135 10.1859C8.14677 10.1895 8.15306 10.1916 8.15956 10.1919V10.0945C8.15956 9.83835 8.13139 9.58216 8.12883 9.3106V7.04589C8.12883 7.03052 8.12627 7.01258 8.12627 6.99209ZM10.3233 9.19532V5.25H13.2757V5.85717H11.0249V7.79908H13.1143V8.4165H11.0249V10.4404H13.4216V11.0886H10.3258V9.27986C10.3258 9.25168 10.3233 9.2235 10.3233 9.19532ZM2.90518 10.7171C2.90986 10.7793 2.90166 10.8419 2.88107 10.9008C2.86048 10.9597 2.82795 11.0137 2.78553 11.0595C2.7431 11.1053 2.69169 11.1418 2.63451 11.1667C2.57733 11.1917 2.51562 11.2046 2.45323 11.2046C2.39084 11.2046 2.32913 11.1917 2.27195 11.1667C2.21477 11.1418 2.16336 11.1053 2.12093 11.0595C2.0785 11.0137 2.04598 10.9597 2.02539 10.9008C2.0048 10.8419 1.99659 10.7793 2.00128 10.7171C1.99659 10.6548 2.0048 10.5923 2.02539 10.5334C2.04598 10.4745 2.0785 10.4204 2.12093 10.3747C2.16336 10.3289 2.21477 10.2924 2.27195 10.2674C2.32913 10.2425 2.39084 10.2296 2.45323 10.2296C2.51562 10.2296 2.57733 10.2425 2.63451 10.2674C2.69169 10.2924 2.7431 10.3289 2.78553 10.3747C2.82795 10.4204 2.86048 10.4745 2.88107 10.5334C2.90166 10.5923 2.90986 10.6548 2.90518 10.7171ZM15.634 5.86485H13.9542V5.25256H18V5.86485H16.3126V11.0834H15.634V5.86485Z" fill="#FEFEFE"/>
<path d="M2.59278 12.431V13.3328H3.42242V13.4737H2.59278V14.5164H2.43658V12.2747H3.48388V12.4156L2.59278 12.431ZM4.72833 13.0817C4.67937 13.0461 4.61983 13.028 4.55933 13.0305C4.49352 13.0316 4.4292 13.0503 4.37296 13.0845C4.31671 13.1187 4.27057 13.1672 4.23926 13.2252C4.14555 13.3912 4.10113 13.5805 4.11123 13.7709V14.5394H3.97039V12.9306H4.11123V13.2867C4.13856 13.1768 4.19835 13.0777 4.28279 13.0023C4.35893 12.9348 4.45759 12.8982 4.55933 12.8998C4.61366 12.8977 4.66781 12.9073 4.71809 12.928L4.72833 13.0817ZM6.06754 14.5394V14.2115C6.01603 14.3151 5.93835 14.4034 5.8422 14.4677C5.74791 14.5323 5.63641 14.5671 5.52213 14.5676C5.45644 14.5715 5.39064 14.5622 5.32862 14.5402C5.2666 14.5182 5.20963 14.484 5.16108 14.4395C5.11718 14.3987 5.08239 14.3491 5.059 14.2939C5.03561 14.2387 5.02415 14.1792 5.02537 14.1193C5.02537 13.8375 5.20973 13.6709 5.58102 13.6069L6.07266 13.5326C6.07266 13.1893 5.94463 13.0202 5.686 13.0202C5.48912 13.0196 5.29914 13.0927 5.1534 13.2252V13.051C5.22612 12.9973 5.30754 12.9566 5.39409 12.9306C5.48716 12.898 5.58487 12.8807 5.68344 12.8793C5.75402 12.8755 5.82456 12.8874 5.89005 12.9139C5.95555 12.9405 6.0144 12.9812 6.06242 13.033C6.16245 13.1591 6.21095 13.3184 6.19813 13.4788V14.5394H6.06754ZM5.62455 13.7427C5.49999 13.752 5.37957 13.7916 5.27375 13.858C5.2222 13.906 5.18681 13.9688 5.17244 14.0378C5.15808 14.1068 5.16544 14.1785 5.19353 14.2432C5.22161 14.3078 5.26903 14.3621 5.32925 14.3987C5.38948 14.4352 5.45955 14.4522 5.52981 14.4472C5.60213 14.4478 5.67375 14.433 5.73996 14.4038C5.80616 14.3747 5.86544 14.3318 5.9139 14.2781C6.01952 14.1553 6.07445 13.9968 6.06754 13.8349V13.6786L5.62455 13.7427ZM8.77923 14.5394V13.571C8.79204 13.4234 8.75799 13.2755 8.68192 13.1483C8.64527 13.1057 8.59893 13.0725 8.5468 13.0516C8.49466 13.0306 8.43826 13.0225 8.38233 13.0279C8.32031 13.0292 8.25936 13.0443 8.20397 13.0722C8.14858 13.1002 8.10015 13.1402 8.06226 13.1893C7.96823 13.3038 7.91908 13.4486 7.92398 13.5967V14.5394H7.78059V13.5762C7.78059 13.2175 7.64487 13.0407 7.37345 13.0407C7.31125 13.041 7.24998 13.0557 7.19444 13.0838C7.1389 13.1118 7.09061 13.1523 7.05337 13.2021C6.96308 13.3248 6.91867 13.4753 6.9279 13.6274V14.5394H6.78195V12.9459H6.9279V13.2021C6.96934 13.1068 7.03772 13.0258 7.12461 12.9689C7.21151 12.912 7.31313 12.8817 7.41698 12.8819C7.52591 12.8789 7.63227 12.9153 7.71657 12.9844C7.79864 13.0497 7.85783 13.1394 7.88557 13.2405C7.93129 13.1371 8.00488 13.0484 8.0981 12.9844C8.18708 12.921 8.2936 12.887 8.40282 12.887C8.75362 12.887 8.91494 13.1022 8.91494 13.53V14.5394H8.77923ZM9.51924 13.7376C9.50991 13.921 9.56418 14.102 9.67288 14.2499C9.72373 14.3112 9.78816 14.3598 9.86106 14.3918C9.93396 14.4238 10.0133 14.4384 10.0928 14.4344C10.2805 14.4265 10.4604 14.3572 10.6049 14.2371V14.3908C10.443 14.5066 10.2483 14.5677 10.0493 14.565C9.9528 14.5697 9.85652 14.5523 9.76778 14.5141C9.67903 14.4759 9.60016 14.418 9.53717 14.3447C9.39687 14.162 9.32853 13.9341 9.34512 13.7043C9.3395 13.4903 9.41032 13.2814 9.54485 13.115C9.60632 13.0386 9.68438 12.9772 9.77312 12.9354C9.86186 12.8937 9.95893 12.8728 10.057 12.8742C10.1444 12.8692 10.2318 12.8855 10.3116 12.9216C10.3914 12.9578 10.4613 13.0127 10.5153 13.0817C10.6301 13.2503 10.6867 13.4518 10.6766 13.6556V13.7196L9.51924 13.7376ZM10.5435 13.6069C10.5454 13.4526 10.4978 13.3018 10.4078 13.1765C10.3704 13.124 10.3213 13.0809 10.2645 13.0507C10.2076 13.0204 10.1444 13.0039 10.08 13.0023C10.0112 13.0012 9.94278 13.014 9.87898 13.04C9.81518 13.066 9.75728 13.1046 9.70873 13.1534C9.60153 13.2737 9.53675 13.4258 9.52437 13.5864L10.5435 13.6069ZM12.5382 14.5394H12.4051L12.0491 13.3328C12.0381 13.288 12.0296 13.2427 12.0235 13.197C12.0172 13.2414 12.0069 13.2851 11.9928 13.3277L11.6061 14.5394H11.473L10.989 12.9382H11.1478L11.5191 14.2192C11.5317 14.2626 11.5395 14.3073 11.5421 14.3524C11.5478 14.3073 11.5572 14.2627 11.5703 14.2192L11.9774 12.9382H12.0773L12.4383 14.2192C12.4497 14.2629 12.4574 14.3074 12.4614 14.3524C12.4637 14.307 12.4723 14.2622 12.487 14.2192L12.8685 12.9382H13.0145L12.5382 14.5394ZM14.072 14.5702C13.9685 14.5752 13.8652 14.5571 13.7695 14.5172C13.6739 14.4773 13.5883 14.4166 13.5189 14.3396C13.3833 14.1648 13.3097 13.9498 13.3097 13.7286C13.3097 13.5073 13.3833 13.2924 13.5189 13.1176C13.5913 13.0426 13.6786 12.9838 13.7753 12.945C13.8719 12.9061 13.9756 12.8881 14.0797 12.8921C14.1809 12.887 14.2819 12.9046 14.3754 12.9436C14.4689 12.9826 14.5525 13.042 14.62 13.1176C14.7613 13.2911 14.8317 13.5117 14.8172 13.735C14.8266 13.9555 14.7525 14.1714 14.6097 14.3396C14.5421 14.4146 14.459 14.4741 14.3662 14.5139C14.2733 14.5537 14.173 14.5729 14.072 14.5702ZM14.072 13.033C13.9874 13.03 13.9032 13.0456 13.8253 13.0788C13.7474 13.112 13.6777 13.162 13.6214 13.2252C13.501 13.3759 13.44 13.5654 13.4498 13.7581C13.4409 13.943 13.4991 14.125 13.6137 14.2704C13.6693 14.3338 13.7384 14.384 13.816 14.4173C13.8935 14.4505 13.9775 14.466 14.0618 14.4626C14.1455 14.4668 14.2292 14.452 14.3064 14.4192C14.3836 14.3863 14.4523 14.3363 14.5073 14.273C14.6087 14.1171 14.6627 13.9351 14.6627 13.7491C14.6627 13.5631 14.6087 13.3811 14.5073 13.2252C14.458 13.1582 14.3941 13.1033 14.3205 13.0647C14.2468 13.0261 14.1654 13.0047 14.0823 13.0023L14.072 13.033ZM16.0616 13.0817C16.0117 13.0461 15.9513 13.028 15.8901 13.0305C15.8243 13.0319 15.7601 13.0506 15.7039 13.0848C15.6477 13.119 15.6015 13.1674 15.57 13.2252C15.4756 13.3946 15.4312 13.5874 15.4419 13.7811V14.5394H15.3062V12.9306H15.4471V13.2867C15.4788 13.1749 15.544 13.0757 15.634 13.0023C15.7097 12.9358 15.8072 12.8993 15.908 12.8998C15.9632 12.8996 16.018 12.91 16.0693 12.9306L16.0616 13.0817ZM17.3573 14.5394L16.5891 13.7504V14.5394H16.4457V12.162H16.5891V13.6991L17.3189 12.9306H17.5058L16.7376 13.6991L17.5647 14.5394H17.3573Z" fill="#F2F2F2"/>
</svg>
