<svg xmlns="http://www.w3.org/2000/svg" viewBox="0 0 20 20">
  <rect width="100%" height="100%" fill="#2D4C91"/>
  <path fill="#425D9C" d="M0 20V0l20 20H0Z"/>
  <path fill="#fff" d="M8.13 6.82v3.14l-.82-1.29C6.56 7.45 5.8 6.27 5.05 5.1A.13.13 0 0 0 4.92 5h-.8v5.81h.67V5.8v.06l.17.33a4918.57 4918.57 0 0 1 3 4.62l.06.01h.77V5h-.66V6.82Zm2.19 2.22v1.8h3.1v-.64H11V8.18h2.09v-.62H11V5.63h2.24V5h-2.92v4.04Zm3.75 4.76a1 1 0 0 0-.11-.45.67.67 0 0 0-.59-.4.85.85 0 0 0-.87.5 1.22 1.22 0 0 0 0 1.09.74.74 0 0 0 .55.4h.39c.15-.02.3-.07.42-.15v-.31a.92.92 0 0 1-.6.2.56.56 0 0 1-.6-.51v-.14h1.35l.06-.23Zm-.67-.57a.4.4 0 0 1 .27.2c.06.1.09.23.08.35h-1a.56.56 0 0 1 .65-.55Zm-5 1.3c-.24.12-.5.17-.76.15A.9.9 0 0 1 7 14.3a1.28 1.28 0 0 1-.14-1.08 1 1 0 0 1 .75-.73c.27-.06.56-.02.81.1h.06v-.3H8.4c-.19-.06-.38-.1-.58-.09a1.3 1.3 0 0 0-1.25.78c-.16.35-.19.75-.07 1.12a1.2 1.2 0 0 0 1.07.86c.28.03.56-.01.81-.13 0 0 .06 0 .06-.06v-.24a.05.05 0 0 0-.04 0Zm2.28-.87a.87.87 0 0 0-.56-.68c-.15-.03-.3-.03-.44 0a.9.9 0 0 0-.78.55 1.3 1.3 0 0 0-.06.73c.04.22.16.42.34.55.2.15.45.21.69.18a.88.88 0 0 0 .59-.3 1 1 0 0 0 .25-.72c0-.1-.01-.21-.03-.31Zm-.39.77a.5.5 0 0 1-.31.24.61.61 0 0 1-.78-.35.93.93 0 0 1 .05-.83.62.62 0 0 1 .93-.13c.13.13.2.31.21.5v.1a.82.82 0 0 1-.1.47Zm1.23.4v-.92c0-.17.04-.33.13-.47a.41.41 0 0 1 .49-.17h.06v-.3a.51.51 0 0 0-.52.14.59.59 0 0 0-.14.22v-.35h-.34v1.9h.32v-.06ZM2.46 9.98a.47.47 0 0 0-.46.46.45.45 0 0 0 .45.44.43.43 0 0 0 .45-.43.46.46 0 0 0-.44-.47Zm13.17.82h.68V5.63H18V5h-4v.6h1.67l-.04 5.21Z"/>
</svg>