<svg viewBox="0 0 20 20" xmlns="http://www.w3.org/2000/svg">
<rect width="100%" height="100%" fill="white"/>
<path d="M9.90381 11.5201C9.59045 11.6411 9.28147 11.8255 9.00164 12.0106C9.05411 12.0222 9.10585 12.0346 9.16269 12.0477C9.50738 11.9668 9.75369 11.7468 10.0656 11.6047C10.3906 11.456 10.6857 11.3132 10.9393 11.0574C10.9903 11.0056 11.0669 10.9488 11.1069 10.8869C11.1864 10.7623 11.1018 10.7761 11.0895 10.6544C11.0749 10.5065 11.2541 10.4394 11.3474 10.3542C11.4582 10.2529 11.5493 10.1363 11.663 10.0394C11.7191 9.99126 11.7599 9.94389 11.8277 9.91037C11.8823 9.8834 12.0069 9.8783 12.0463 9.83676C12.1782 9.69976 11.9865 9.74276 11.902 9.76098C11.7613 9.79158 11.5719 9.7413 11.4677 9.84041C11.4378 9.86883 11.429 9.94972 11.389 9.98907C11.3168 10.059 11.2039 10.0794 11.1281 10.1457C11.0275 10.2347 11.0188 10.3731 10.9583 10.489C10.7739 10.8417 10.513 10.9619 10.1523 11.0967C9.84624 11.2104 9.51102 11.1893 9.22172 11.3496C9.48624 11.4662 9.73766 11.3452 9.98761 11.292C10.1516 11.2571 10.3032 11.1951 10.446 11.1099C10.5531 11.0457 10.6449 10.9576 10.7717 10.9736C10.7142 11.2979 10.1494 11.4247 9.90381 11.5201Z" fill="black"/>
<path d="M16.5046 5.31499C16.4828 5.28876 16.4624 5.26034 16.4442 5.23192C15.0771 3.3875 12.9382 2.15158 10.5043 2H9.49572C8.99144 2.03134 8.50027 2.10931 8.02587 2.22882C7.88668 2.26963 7.74677 2.30825 7.60539 2.3476C4.50246 3.31827 2.2106 6.12388 2 9.49353V10.4285C2.20477 10.4197 2.3855 10.3221 2.58809 10.2864C2.68136 10.2696 2.77974 10.301 2.87375 10.2755C3.00856 10.239 3.06832 10.2179 3.21917 10.2179C3.52377 10.2172 3.82766 10.2179 4.13154 10.2172C4.2751 10.2164 4.43396 10.2347 4.57533 10.2062C4.69047 10.1829 4.76189 10.1436 4.88067 10.1778C4.6708 10.2995 4.49371 10.4183 4.23793 10.4329C4.10384 10.4402 4.00182 10.3884 3.87502 10.3658C3.72782 10.3403 3.55948 10.36 3.40936 10.36C3.27236 10.36 3.1033 10.3338 2.96848 10.3607C2.85116 10.384 2.76225 10.4176 2.63691 10.4292C2.5327 10.4394 2.46712 10.497 2.36728 10.5159C2.24923 10.5385 2.1217 10.5721 2.0051 10.5852C2.03717 11.0312 2.10639 11.4669 2.20842 11.8896C2.29514 11.9253 2.42995 11.8641 2.54801 11.8342C2.59537 11.8218 2.64565 11.8371 2.69302 11.8247C2.74841 11.8109 2.76517 11.7766 2.81618 11.7562C2.92913 11.7111 3.07342 11.6899 3.19512 11.6768C3.33576 11.6608 3.98506 11.7555 4.03534 11.6039C4.03243 11.601 4.02951 11.5988 4.0266 11.5959C3.85243 11.5981 3.67462 11.6324 3.52596 11.5369C3.65713 11.3955 3.85826 11.3314 4.04044 11.3015C4.13737 11.2862 4.23064 11.2498 4.32756 11.2359C4.47841 11.2155 4.64165 11.2585 4.79031 11.2177C4.99435 11.1616 5.20933 11.1317 5.41847 11.0938C5.53216 11.0734 5.67353 11.069 5.75879 10.9801C5.82875 10.9073 5.83676 10.8052 5.91401 10.7309C5.90891 10.9576 5.90381 11.0829 5.81636 11.2913C5.73401 11.4873 5.82729 11.6069 6.03935 11.6025C6.13627 11.6003 6.5225 11.429 6.57132 11.5843C6.59974 11.6739 6.35125 11.8765 6.29003 11.9326C6.16105 12.0506 5.99198 12.0652 5.82802 12.1213C5.65531 12.1804 5.52633 12.2664 5.37402 12.3502C5.19475 12.4485 5.01184 12.5892 4.82674 12.6701C4.68391 12.7335 4.53088 12.7597 4.41938 12.8807C4.6176 13.0242 5.1554 12.6825 5.31791 12.5943C5.45054 12.5221 5.57369 12.4857 5.71142 12.434C5.87976 12.3713 6.08089 12.3246 6.2434 12.2525C6.37457 12.1949 6.53197 12.106 6.65586 12.0302C6.77318 11.9581 6.89488 11.9042 6.95537 11.7796C7.08144 11.5209 6.84095 11.6797 6.75569 11.5143C6.67699 11.3635 6.9131 11.3103 6.99545 11.268C6.82857 11.1827 6.66897 11.2724 6.49991 11.3081C6.3957 11.3299 6.28858 11.4064 6.22445 11.3197C6.18 11.26 6.23757 11.1638 6.2106 11.0997C6.17489 11.0137 6.11368 11.0523 6.0583 10.9954C5.93952 10.8745 6.11441 10.7418 5.92275 10.7222C6.07069 10.3163 6.47586 10.2281 6.76881 9.95409C6.52323 9.77992 6.02623 9.82146 5.75005 9.88632C5.59847 9.92203 5.48916 9.93004 5.33904 9.88559C5.2771 9.86737 5.22317 9.84551 5.15686 9.85353C5.06358 9.86446 5.01767 9.9264 4.92512 9.89652C4.99508 9.71215 5.33248 9.70122 5.49572 9.66114C5.68009 9.61596 5.84697 9.55183 6.03206 9.50446C6.13117 9.47896 6.21862 9.50009 6.31481 9.48552C6.41027 9.47094 6.47805 9.42139 6.57643 9.41337C6.77318 9.39807 6.93788 9.34341 7.13463 9.34341C7.31827 9.34341 7.56021 9.38641 7.72782 9.30261C7.81818 9.2567 7.84223 9.21516 7.94935 9.20277C8.05793 9.18965 8.1002 9.17726 8.19931 9.1401C8.25542 9.11897 8.364 9.1401 8.40845 9.10949C8.49809 9.04755 8.40845 9.05265 8.43032 8.97395C8.4806 8.79905 8.88504 8.83476 9.04609 8.83549C9.45637 8.83768 9.94243 8.91055 10.3134 8.71088C10.5057 8.60667 11.0807 8.17016 11.2301 8.49371C11.2673 8.5746 11.1966 8.7014 11.2396 8.77719C11.284 8.85516 11.3226 8.81144 11.3926 8.83257C11.5573 8.88359 11.6054 9.05046 11.7934 9.09783C11.8809 9.11969 12.0776 9.0337 11.9843 8.91784C11.9603 8.88796 11.8466 8.91565 11.8131 8.90035C11.7285 8.86245 11.7402 8.78448 11.6768 8.72764C11.5741 8.63655 11.3911 8.74294 11.3139 8.64019C11.2789 8.59355 11.3132 8.50683 11.3022 8.45436C11.2753 8.32611 11.252 8.37056 11.1507 8.32684C11.1222 8.31518 11.0873 8.27364 11.0676 8.26635C11.029 8.2525 10.9408 8.25688 10.9167 8.23574C10.8512 8.17817 10.9765 8.09437 11.0144 8.02587C11.0639 7.93624 11.029 7.84004 11.0916 7.7679C11.1587 7.68993 11.3015 7.71033 11.3671 7.62653C11.2337 7.52888 11.0435 7.63527 10.9087 7.67025C10.6989 7.7249 10.462 7.73802 10.2609 7.82037C10.1815 7.85316 10.1545 7.88668 10.0605 7.89397C9.96356 7.90199 9.863 7.87867 9.76826 7.90563C9.55475 7.96684 9.33977 7.99672 9.11095 7.94352C8.69339 7.84733 8.3057 7.93041 7.89033 7.96393C7.72345 7.97704 7.55438 8.05793 7.3875 8.09218C7.21115 8.12935 6.98597 8.22627 6.81326 8.14392C6.90144 8.07251 7.36054 7.92968 7.33795 7.82984C7.32483 7.77009 6.60776 7.81235 6.51594 7.76936C6.71197 7.68628 6.95828 7.64766 7.16378 7.59665C7.32046 7.5573 7.53398 7.59519 7.69576 7.59446H8.364C8.72982 7.59446 9.14884 7.53835 9.50884 7.59665C9.62543 7.6156 9.72818 7.68774 9.84988 7.65932C9.89871 7.64839 9.9213 7.61632 9.96502 7.60466C10.0627 7.57843 10.1844 7.58353 10.2871 7.55948C10.618 7.48369 10.9211 7.31244 11.252 7.24759C11.3999 7.21917 11.5478 7.22937 11.6979 7.22645C11.8736 7.22354 11.8728 7.12589 12.02 7.10184C12.1694 7.07706 12.3268 7.14775 12.4733 7.15868C12.6227 7.16961 12.7327 7.15358 12.8719 7.20823C13.1401 7.31317 13.3755 7.4407 13.6203 7.59155C13.7457 7.66879 13.8331 7.74895 13.9636 7.79705C14.0889 7.84369 14.207 7.90709 14.3221 7.97632C14.3928 8.01931 14.6041 8.14757 14.5509 8.23429C14.5123 8.29696 14.1698 8.22481 14.0933 8.24668C13.9978 8.27364 13.9643 8.30716 13.8659 8.32902C13.734 8.35817 13.5992 8.42157 13.4746 8.47623C13.2582 8.57096 12.9382 8.8282 12.861 9.0614C12.8151 9.1984 12.8603 9.34779 12.8224 9.48916C12.7874 9.61523 12.7663 9.7362 12.7313 9.86373C12.6497 10.1574 12.493 10.4474 12.3421 10.7156C12.2117 10.9473 12.0251 11.1572 11.8714 11.3846C11.6899 11.6535 11.4334 11.9319 11.1973 12.1483C10.9313 12.3917 10.6733 12.6548 10.3527 12.8275C10.2317 12.8931 9.92348 12.9798 9.86227 13.1066C9.79741 13.2428 9.89652 13.4527 9.73037 13.5569C9.68446 13.5861 9.61815 13.5613 9.57952 13.6058C9.5256 13.6662 9.56203 13.7894 9.55766 13.8615C9.54746 14.0561 9.44179 14.1326 9.58681 14.2857C9.76316 14.4722 10.1676 14.7972 10.1421 15.0924C9.91984 14.9291 9.79377 14.677 9.57078 14.5036C9.37621 14.3505 9.07378 14.3476 8.95719 14.1268C8.9069 14.0328 8.82529 13.5642 8.6963 13.6116C8.62416 13.6385 8.59938 13.8688 8.56805 13.93C8.49371 14.0743 8.4908 14.059 8.57898 14.2135C8.69703 14.419 8.90399 14.5779 8.96666 14.8103C9.00674 14.9605 9.00601 15.131 9.05702 15.2782C9.0869 15.3627 9.18309 15.5755 9.26253 15.6287C9.35435 15.6899 9.44398 15.6163 9.54381 15.6039C9.71507 15.5835 9.89288 15.6171 10.0641 15.6032C10.1691 15.5937 10.2813 15.5719 10.2893 15.4392C10.2973 15.3037 10.1151 15.2439 10.1516 15.1018C10.2704 15.198 10.3782 15.2971 10.5079 15.3766C10.6165 15.4436 10.763 15.5719 10.8876 15.5996C11.0195 15.6287 11.1638 15.5369 11.3015 15.534C11.4837 15.5303 11.6666 15.5325 11.8495 15.5332C12.1687 15.5332 12.4296 15.4742 12.407 15.8699C12.3902 16.1614 12.1687 16.356 12.0332 16.5979C11.9034 16.8282 11.7781 17.0986 11.5566 17.2531C11.3073 17.4265 10.9925 17.5015 10.7091 17.6007C10.4518 17.6896 10.1844 17.7697 9.91692 17.8229C9.7894 17.8477 9.6728 17.8652 9.5562 17.9038C9.4979 17.9235 9.29459 17.9322 9.22463 17.9789C9.31499 17.9869 9.40536 17.9942 9.49572 18H10.5043C14.5298 17.75 17.75 14.5298 18 10.5036V9.49645C17.9031 7.94061 17.3631 6.50574 16.5046 5.31499ZM6.02405 7.94207C5.8528 7.97996 5.66697 7.93405 5.50228 7.99235C5.63053 8.19931 5.56349 8.17089 5.33758 8.26125C5.22536 8.24813 5.04682 8.15048 5.04755 8.0164C5.04901 7.86118 5.24649 7.80725 5.37038 7.79996C5.53507 7.79049 5.70486 7.80361 5.87029 7.80361C6.03352 7.80288 6.27036 7.76061 6.40882 7.85243C6.30169 7.91437 6.14647 7.9151 6.02405 7.94207Z" fill="black"/>
<path d="M13.401 7.84587C13.3609 7.80944 13.1153 7.74458 13.0614 7.73948C13.0578 7.73511 13.0541 7.73073 13.0497 7.72563C12.9193 7.83494 12.9084 7.88304 13.0847 7.88523C13.1809 7.88668 13.3325 7.91948 13.401 7.84587Z" fill="black"/>
<path d="M2.42048 12.7524C2.55748 12.9725 3.002 12.7109 3.17471 12.6147C3.76644 12.2838 4.39971 12.0288 4.99071 11.6958C5.0614 11.6557 5.22026 11.601 5.11314 11.5354C5.03298 11.4866 4.79031 11.5267 4.70359 11.5529C4.57023 11.5937 4.43906 11.6724 4.30862 11.7249C4.1104 11.8036 3.98069 11.8277 3.76644 11.8284C3.5879 11.8298 3.41009 11.8284 3.23155 11.8284C3.08071 11.8291 2.96702 11.8918 2.81909 11.8983C2.54655 11.91 2.24194 11.9625 2 12.106V12.2634C2.17198 12.192 2.23101 12.1388 2.29003 12.3254C2.33011 12.4529 2.34833 12.6365 2.42048 12.7517V12.7524Z" fill="black"/>
<path d="M8.62051 14.5414C8.56586 14.4635 8.38222 14.2565 8.28093 14.2354C8.11769 14.2004 7.88595 14.3571 7.7096 14.3658C7.56677 14.3731 7.29714 14.4103 7.18054 14.3243C7.39115 14.1909 7.97704 14.1683 7.94498 13.8069C7.93988 13.7464 7.90782 13.6211 7.88595 13.5635C7.85608 13.487 7.78539 13.4615 7.75114 13.3893C7.68118 13.2421 7.80944 13.0716 7.65057 12.9856C7.5041 12.9062 7.2024 13.0082 7.05229 13.0388C6.93715 13.0621 6.80962 13.0271 6.69812 13.0541C6.62379 13.0716 6.58517 13.1131 6.51303 13.1343C6.34177 13.1853 6.18073 13.1758 6.02186 13.2931C5.863 13.4112 5.82875 13.5912 5.75588 13.7595C5.73256 13.8149 5.68373 13.9439 5.62252 13.9694C5.5511 13.9985 5.53726 13.941 5.46293 13.9446C5.41702 13.9475 5.34414 14.0007 5.29095 14.0138C5.21151 14.0343 5.16415 14.0255 5.08472 14.0627C4.92585 14.1363 4.8027 14.2806 4.65841 14.3804C4.5112 14.4824 4.45874 14.6369 4.26344 14.5619C4.21315 14.5429 4.18036 14.4788 4.12352 14.4693C4.02587 14.4525 3.91729 14.5414 3.83713 14.5925C3.67972 14.693 3.52377 14.7965 3.37511 14.9073C3.19002 15.0443 3.02459 15.0224 2.80306 15.0246C2.62161 15.0275 2.3221 15.0297 2.23757 15.2177C2.33667 15.2177 2.70541 15.0581 2.70687 15.1944C2.70905 15.3299 2.41392 15.4494 2.34323 15.5303C2.34615 15.5332 2.34906 15.5354 2.35198 15.5384C2.56477 15.5456 2.74841 15.3919 2.93205 15.3044C3.11058 15.2199 3.28694 15.1995 3.47422 15.158C3.65349 15.1179 3.74458 15.0465 3.89397 15.2177C4.00255 15.3423 4.07615 15.4801 4.19931 15.6076C4.40335 15.8189 4.51048 15.8313 4.80124 15.8306C5.05265 15.8291 5.30479 15.8298 5.5562 15.8298C5.77336 15.8298 5.95118 15.8124 6.16032 15.7723C6.38185 15.7285 6.63691 15.7599 6.86282 15.7599C7.08872 15.7599 7.36054 15.7912 7.59446 15.7599C7.6892 15.7468 7.73948 15.6994 7.82838 15.6761C7.93041 15.6491 8.07032 15.6732 8.17599 15.6732C8.32684 15.6732 8.64456 15.7395 8.75606 15.6258C8.79104 15.5915 8.82529 15.4108 8.83257 15.3635C8.85298 15.2352 8.80124 15.1594 8.77938 15.0428C8.7444 14.8555 8.73638 14.7076 8.62051 14.5422V14.5414Z" fill="black"/>
</svg>
