<svg xmlns="http://www.w3.org/2000/svg" viewBox="0 0 20 20">
  <rect width="100%" height="100%" fill="#00AFD1"/>
  <path fill="#fff" d="m12.86 3.9-2.21 1.3 2.13 1.23 2.25-1.24-2.17-1.28ZM15.62 2.38 13.4 3.66l2.13 1.2 2.25-1.2-2.17-1.29ZM4.55 2.46 2.33 3.7l2.13 1.24L6.72 3.7 4.55 2.46ZM7.22 3.95 5.01 5.23l2.17 1.2 2.26-1.2-2.22-1.28ZM2 4.11v2.74l2.21 1.24v-2.7L2 4.12ZM4.76 5.65v2.73L7 9.58V6.93L4.76 5.65ZM7.47 7.1v2.73l2.22 1.2V8.38L7.47 7.1ZM18 6.89V4.16l-2.26 1.28v2.7L18 6.88ZM15.2 8.42V5.7L13 6.97v2.65l2.21-1.2ZM12.49 9.87V7.14l-2.22 1.28v2.65l2.22-1.2ZM2 7.39v2.73l2.21 1.2V8.67L2 7.39ZM4.76 8.88v2.73L7 12.85V10.2L4.76 8.88ZM7.47 10.33v2.73l2.22 1.2v-2.65l-2.22-1.28ZM18 10.16V7.43L15.74 8.7v2.65l2.26-1.2ZM15.2 11.7V8.95L13 10.24v2.65l2.21-1.2ZM12.49 13.1v-2.73l-2.22 1.28v2.65l2.22-1.2ZM2 10.62v2.73l2.21 1.24V11.9L2 10.62ZM4.76 12.15v2.73L7 16.08v-2.65l-2.25-1.28ZM7.47 13.6v2.73l2.22 1.2v-2.65L7.47 13.6ZM18 13.4v-2.74l-2.26 1.32v2.65L18 13.4ZM15.2 14.92V12.2L13 13.48v2.65l2.21-1.2ZM12.49 16.37v-2.73l-2.22 1.28v2.65l2.22-1.2ZM10.02 5.44 7.81 6.72l2.17 1.2.04-2.48Z"/>
  <path fill="#fff" d="m9.98 7.92.04-2.48 2.17 1.28-2.21 1.2Z"/>
</svg>