<svg xmlns="http://www.w3.org/2000/svg" viewBox="0 0 20 20"><path fill="#828282" d="M.418 1.657 3.185.104l2.716 1.553L3.08 3.21.418 1.657ZM3.76 3.572l2.767-1.605 2.768 1.605-2.82 1.502L3.76 3.572Z"/><path fill="#C6C6C6" d="m10.81 3.52 2.767-1.604 2.715 1.604-2.82 1.554L10.81 3.52ZM14.256 1.605 17.023 0l2.716 1.605-2.82 1.501-2.663-1.501Z"/><path fill="#00AFD1" d="M0 2.174v3.417l2.768 1.553V3.78L0 2.174ZM3.446 4.09v3.417l2.82 1.501V5.695L3.446 4.09ZM6.84 5.902v3.417l2.768 1.501V7.507L6.841 5.902Z"/><path fill="#4AE1FF" d="M20 2.226v3.417l-2.82 1.553V3.831L20 2.226ZM16.501 4.142v3.417l-2.767 1.5V5.748L16.5 4.142ZM13.107 5.954V9.37l-2.768 1.5V7.56l2.768-1.605Z"/><path fill="#00AFD1" d="M0 6.264v3.417l2.768 1.502V7.868L0 6.264ZM3.446 8.128v3.417l2.82 1.553V9.785l-2.82-1.657ZM6.84 9.94v3.417l2.768 1.501v-3.313L6.841 9.94Z"/><path fill="#4AE1FF" d="M20 6.316v3.417l-2.82 1.501V7.921L20 6.316ZM16.501 8.232v3.417l-2.767 1.5V9.837L16.5 8.232ZM13.107 9.992v3.417l-2.768 1.501v-3.313l2.768-1.605Z"/><path fill="#00AFD1" d="M0 10.303v3.416l2.768 1.554v-3.366L0 10.303ZM3.446 12.218v3.417l2.82 1.501v-3.313l-2.82-1.605ZM6.84 14.03v3.417l2.768 1.501v-3.313L6.841 14.03Z"/><path fill="#4AE1FF" d="M20 10.354v3.417l-2.82 1.553v-3.313L20 10.354ZM16.501 12.27v3.417l-2.767 1.501v-3.313L16.5 12.27ZM13.107 14.082v3.417L10.339 19v-3.313l2.768-1.605Z"/><path fill="#828282" d="M10.026 3.831 7.258 5.436l2.716 1.501.052-3.106Z"/><path fill="#C6C6C6" d="m10.026 3.831-.052 3.106 2.768-1.501-2.716-1.605Z"/></svg>