<svg viewBox="0 0 20 20" xmlns="http://www.w3.org/2000/svg">
<rect width="100%" height="100%" fill="#00AFD1"/>
<path d="M12.862 3.9078L10.6484 5.191L12.778 6.4342L15.034 5.191L12.862 3.9078Z" fill="white"/>
<path d="M15.6188 2.375L13.4052 3.659L15.5356 4.8598L17.7916 3.659L15.6188 2.375Z" fill="white"/>
<path d="M4.54758 2.4582L2.33398 3.7006L4.46358 4.943L6.72038 3.7006L4.54758 2.4582Z" fill="white"/>
<path d="M7.22118 3.9486L5.00758 5.2326L7.17958 6.4342L9.43558 5.2326L7.22118 3.9486Z" fill="white"/>
<path d="M2 4.1142V6.8478L4.2144 8.0902V5.399L2 4.1142Z" fill="white"/>
<path d="M4.7568 5.647V8.3806L7.0128 9.5814V6.931L4.7568 5.647Z" fill="white"/>
<path d="M7.472 7.0966V9.8302L9.6864 11.031V8.3806L7.472 7.0966Z" fill="white"/>
<path d="M18.0003 6.8894V4.1558L15.7443 5.4398V8.1318L18.0003 6.8894Z" fill="white"/>
<path d="M15.2011 8.4222V5.6886L12.9875 6.9734V9.6222L15.2011 8.4222Z" fill="white"/>
<path d="M12.4859 9.871V7.1382L10.2715 8.423V11.071L12.4859 9.871Z" fill="white"/>
<path d="M2 7.3862V10.1198L4.2144 11.3214V8.6694L2 7.3862Z" fill="white"/>
<path d="M4.7568 8.8774V11.611L7.0128 12.8534V10.203L4.7568 8.8774Z" fill="white"/>
<path d="M7.472 10.327V13.0606L9.6864 14.2614V11.611L7.472 10.327Z" fill="white"/>
<path d="M18.0003 10.1614V7.4278L15.7443 8.71179V11.3622L18.0003 10.1614Z" fill="white"/>
<path d="M15.2011 11.6942V8.9606L12.9875 10.2446V12.8942L15.2011 11.6942Z" fill="white"/>
<path d="M12.4859 13.1022V10.3686L10.2715 11.6526V14.303L12.4859 13.1022Z" fill="white"/>
<path d="M2 10.6174V13.3502L4.2144 14.5934V11.9006L2 10.6174Z" fill="white"/>
<path d="M4.7568 12.1494V14.883L7.0128 16.0838V13.4334L4.7568 12.1494Z" fill="white"/>
<path d="M7.472 13.599V16.3326L9.6864 17.5334V14.883L7.472 13.599Z" fill="white"/>
<path d="M18.0003 13.3918V10.6582L15.7443 11.9838V14.6342L18.0003 13.3918Z" fill="white"/>
<path d="M15.2011 14.9246V12.191L12.9875 13.475V16.1254L15.2011 14.9246Z" fill="white"/>
<path d="M12.4859 16.3742V13.6406L10.2715 14.9246V17.575L12.4859 16.3742Z" fill="white"/>
<path d="M10.021 5.4398L7.80664 6.7238L9.97944 7.9246L10.021 5.4398Z" fill="white"/>
<path d="M9.97944 7.9246L10.021 5.4398L12.1939 6.7238L9.97944 7.9246Z" fill="white"/>
</svg>
