<svg xmlns="http://www.w3.org/2000/svg" viewBox="0 0 20 20">
  <rect width="100%" height="100%" fill="#0078D7"/>
  <path fill="#fff" d="M7.2175 11.5C7.2175 11.885 7.275 12.235 7.3925 12.55C7.5175 12.86 7.68 13.1375 7.8875 13.38C8.095 13.6225 8.3375 13.83 8.6225 14.005C8.8975 14.18 9.1975 14.325 9.5175 14.4375C9.835 14.5525 10.1675 14.6375 10.505 14.6925C10.8475 14.7475 11.18 14.775 11.5175 14.775C11.9425 14.775 12.3375 14.7425 12.7125 14.675C13.0875 14.605 13.4525 14.5125 13.8125 14.395C14.1725 14.2775 14.52 14.1375 14.8675 13.9775C15.2175 13.8175 15.5725 13.6425 15.9375 13.4475V16.8375C15.53 17.0375 15.13 17.205 14.73 17.35C14.33 17.49 13.93 17.6125 13.5225 17.71C13.115 17.81 12.7025 17.885 12.28 17.93C11.8575 17.975 11.425 18 10.975 18C10.375 18 9.795 17.93 9.2375 17.7925C8.68 17.655 8.1575 17.4575 7.6675 17.1975C7.1775 16.9375 6.73 16.6225 6.3225 16.2525C5.9125 15.8825 5.565 15.465 5.2725 15.0025C4.98 14.54 4.755 14.0325 4.5925 13.4875C4.435 12.9425 4.355 12.3625 4.355 11.7475C4.355 11.09 4.445 10.465 4.625 9.8675C4.8075 9.2675 5.065 8.7225 5.405 8.2225C5.7425 7.7225 6.155 7.2775 6.6425 6.89C7.13 6.5025 7.6775 6.185 8.2875 5.94C7.955 6.2725 7.695 6.665 7.5125 7.1225C7.325 7.5775 7.2075 8.035 7.155 8.4925H12.85C12.85 7.9175 12.7925 7.4175 12.675 6.9875C12.5575 6.5575 12.37 6.2 12.1075 5.9175C11.8475 5.6325 11.5125 5.4175 11.1 5.2775C10.6875 5.135 10.19 5.0625 9.6075 5.0625C8.92 5.0625 8.2325 5.1625 7.545 5.37C6.8575 5.57 6.205 5.8575 5.585 6.22C4.965 6.5875 4.395 7.02 3.875 7.515C3.355 8.015 2.9175 8.5525 2.5625 9.135C2.6375 8.46 2.7875 7.81 2.995 7.1925C3.2025 6.575 3.4775 6 3.8075 5.4675C4.1375 4.9425 4.525 4.4625 4.9675 4.0325C5.41 3.6025 5.9 3.2325 6.4425 2.9325C6.985 2.6325 7.56 2.39 8.185 2.2275C8.81 2.085 9.475 2 10.175 2C10.585 2 10.9925 2.0375 11.4 2.11C11.8075 2.185 12.205 2.285 12.5925 2.415C13.3625 2.68 14.05 3.05 14.655 3.52C15.26 3.995 15.7675 4.535 16.18 5.1525C16.5925 5.77 16.905 6.4525 17.12 7.195C17.335 7.9375 17.445 8.71 17.445 9.5125V11.5H7.2175Z"/>
</svg>
