<svg xmlns="http://www.w3.org/2000/svg" viewBox="0 0 20 20">
  <rect width="100%" height="100%" fill="#fff"/>
  <path fill="url(#a)" d="M16.4438 13.9062C16.2292 14.0177 16.0079 14.1159 15.7813 14.2C15.0635 14.4672 14.3034 14.6027 13.5375 14.6C10.5813 14.6 8.00626 12.5688 8.00626 9.95625C8.0101 9.60643 8.10709 9.26394 8.28725 8.96405C8.46741 8.66415 8.72422 8.41768 9.03126 8.25C6.35626 8.3625 5.66876 11.15 5.66876 12.7812C5.66876 17.4062 9.92501 17.8687 10.8438 17.8687C11.3375 17.8687 12.0813 17.725 12.5313 17.5813L12.6125 17.5562C14.3346 16.9611 15.8027 15.7972 16.775 14.2563C16.8033 14.2094 16.8154 14.1546 16.8095 14.1003C16.8037 14.0459 16.7801 13.9949 16.7425 13.9552C16.705 13.9155 16.6554 13.8892 16.6014 13.8804C16.5474 13.8715 16.4921 13.8806 16.4438 13.9062Z"/>
  <path fill="url(#b)" d="M16.4438 13.9062C16.2292 14.0177 16.0079 14.1159 15.7813 14.2C15.0635 14.4672 14.3034 14.6027 13.5375 14.6C10.5813 14.6 8.00626 12.5688 8.00626 9.95625C8.0101 9.60643 8.10709 9.26394 8.28725 8.96405C8.46741 8.66415 8.72422 8.41768 9.03126 8.25C6.35626 8.3625 5.66876 11.15 5.66876 12.7812C5.66876 17.4062 9.92501 17.8687 10.8438 17.8687C11.3375 17.8687 12.0813 17.725 12.5313 17.5813L12.6125 17.5562C14.3346 16.9611 15.8027 15.7972 16.775 14.2563C16.8033 14.2094 16.8154 14.1546 16.8095 14.1003C16.8037 14.0459 16.7801 13.9949 16.7425 13.9552C16.705 13.9155 16.6554 13.8892 16.6014 13.8804C16.5474 13.8715 16.4921 13.8806 16.4438 13.9062Z" opacity=".35"/>
  <path fill="url(#c)" d="M8.60625 17.0812C8.04993 16.7357 7.5677 16.2832 7.1875 15.75C6.75334 15.1557 6.45448 14.4736 6.31191 13.7516C6.16934 13.0296 6.1865 12.2851 6.36219 11.5705C6.53788 10.8558 6.86785 10.1882 7.32894 9.61458C7.79002 9.04097 8.37105 8.5752 9.03125 8.24998C9.23125 8.15623 9.5625 7.99373 10.0063 7.99998C10.3185 8.00239 10.626 8.07699 10.9046 8.21794C11.1833 8.35889 11.4255 8.56237 11.6125 8.81248C11.864 9.15065 12.0018 9.55982 12.0063 9.98123C12.0063 9.96873 13.5375 5.00623 7.00625 5.00623C4.2625 5.00623 2.00625 7.60623 2.00625 9.89373C1.99534 11.1021 2.25368 12.2977 2.7625 13.3937C3.5958 15.1681 5.05159 16.5748 6.85352 17.3467C8.65546 18.1186 10.6781 18.2021 12.5375 17.5812C11.8861 17.787 11.1977 17.8488 10.5201 17.7625C9.84239 17.6762 9.19155 17.4437 8.6125 17.0812H8.60625Z"/>
  <path fill="url(#d)" d="M8.60625 17.0812C8.04993 16.7357 7.5677 16.2832 7.1875 15.75C6.75334 15.1557 6.45448 14.4736 6.31191 13.7516C6.16934 13.0296 6.1865 12.2851 6.36219 11.5705C6.53788 10.8558 6.86785 10.1882 7.32894 9.61458C7.79002 9.04097 8.37105 8.5752 9.03125 8.24998C9.23125 8.15623 9.5625 7.99373 10.0063 7.99998C10.3185 8.00239 10.626 8.07699 10.9046 8.21794C11.1833 8.35889 11.4255 8.56237 11.6125 8.81248C11.864 9.15065 12.0018 9.55982 12.0063 9.98123C12.0063 9.96873 13.5375 5.00623 7.00625 5.00623C4.2625 5.00623 2.00625 7.60623 2.00625 9.89373C1.99534 11.1021 2.25368 12.2977 2.7625 13.3937C3.5958 15.1681 5.05159 16.5748 6.85352 17.3467C8.65546 18.1186 10.6781 18.2021 12.5375 17.5812C11.8861 17.787 11.1977 17.8488 10.5201 17.7625C9.84239 17.6762 9.19155 17.4437 8.6125 17.0812H8.60625Z" opacity=".41"/>
  <path fill="url(#e)" d="M11.525 11.3C11.4687 11.3625 11.3125 11.4562 11.3125 11.65C11.3125 11.8125 11.4187 11.975 11.6125 12.1062C12.5062 12.7312 14.2 12.6438 14.2062 12.6438C14.8725 12.6433 15.5265 12.4642 16.1 12.125C16.6774 11.7873 17.1565 11.3045 17.4897 10.7246C17.823 10.1446 17.9989 9.48764 18 8.81875C18.0188 7.41875 17.5 6.4875 17.2937 6.075C15.9625 3.4875 13.1063 2 10 2C7.89762 1.99979 5.87965 2.82719 4.38255 4.30323C2.88545 5.77928 2.02956 7.78532 2 9.8875C2.03125 7.60625 4.3 5.7625 7 5.7625C7.21875 5.7625 8.46875 5.78125 9.625 6.3875C10.4373 6.79116 11.11 7.42902 11.5562 8.21875C11.9375 8.88125 12.0062 9.725 12.0062 10.0625C12.0062 10.4 11.8375 10.8937 11.5187 11.3062L11.525 11.3Z"/>
  <path fill="url(#f)" d="M11.525 11.3C11.4687 11.3625 11.3125 11.4562 11.3125 11.65C11.3125 11.8125 11.4187 11.975 11.6125 12.1062C12.5062 12.7312 14.2 12.6438 14.2062 12.6438C14.8725 12.6433 15.5265 12.4642 16.1 12.125C16.6774 11.7873 17.1565 11.3045 17.4897 10.7246C17.823 10.1446 17.9989 9.48764 18 8.81875C18.0188 7.41875 17.5 6.4875 17.2937 6.075C15.9625 3.4875 13.1063 2 10 2C7.89762 1.99979 5.87965 2.82719 4.38255 4.30323C2.88545 5.77928 2.02956 7.78532 2 9.8875C2.03125 7.60625 4.3 5.7625 7 5.7625C7.21875 5.7625 8.46875 5.78125 9.625 6.3875C10.4373 6.79116 11.11 7.42902 11.5562 8.21875C11.9375 8.88125 12.0062 9.725 12.0062 10.0625C12.0062 10.4 11.8375 10.8937 11.5187 11.3062L11.525 11.3Z"/>
  <linearGradient id="a" x1="5.669" x2="16.819" y1="13.063" y2="13.063" gradientUnits="userSpaceOnUse">
    <stop stop-color="#0C59A4"/>
    <stop offset="1" stop-color="#114A8B"/>
  </linearGradient>
  <radialGradient id="b" cx="0" cy="0" r="1" gradientTransform="matrix(5.9625 0 0 5.66437 11.825 13.147)" gradientUnits="userSpaceOnUse">
    <stop offset=".7" stop-opacity="0"/>
    <stop offset=".9" stop-opacity=".5"/>
    <stop offset="1"/>
  </radialGradient>
  <linearGradient id="c" x1="11.544" x2="4.588" y1="8.225" y2="15.806" gradientUnits="userSpaceOnUse">
    <stop stop-color="#1B9DE2"/>
    <stop offset=".2" stop-color="#1595DF"/>
    <stop offset=".7" stop-color="#0680D7"/>
    <stop offset="1" stop-color="#0078D4"/>
  </linearGradient>
  <radialGradient id="d" cx="0" cy="0" r="1" gradientTransform="matrix(1.3425 -8.8605 7.15839 1.0846 6.41 14.434)" gradientUnits="userSpaceOnUse">
    <stop offset=".8" stop-opacity="0"/>
    <stop offset=".9" stop-opacity=".5"/>
    <stop offset="1"/>
  </radialGradient>
  <radialGradient id="e" cx="0" cy="0" r="1" gradientTransform="rotate(92.291 -.572 4.217) scale(12.6601 26.9634)" gradientUnits="userSpaceOnUse">
    <stop stop-color="#35C1F1"/>
    <stop offset=".1" stop-color="#34C1ED"/>
    <stop offset=".2" stop-color="#2FC2DF"/>
    <stop offset=".3" stop-color="#2BC3D2"/>
    <stop offset=".7" stop-color="#36C752"/>
  </radialGradient>
  <radialGradient id="f" cx="0" cy="0" r="1" gradientTransform="matrix(1.70275 5.838 -4.74746 1.38468 17.004 6.831)" gradientUnits="userSpaceOnUse">
    <stop stop-color="#66EB6E"/>
    <stop offset="1" stop-color="#66EB6E" stop-opacity="0"/>
  </radialGradient>
</svg>
