<svg version="1.2" xmlns="http://www.w3.org/2000/svg" viewBox="0 0 20 20">
  <rect width="100%" height="100%" fill="#fff" />
  <path fill-rule="evenodd" d="m17.4 14.4c0.3-0.1 0.4-0.4 0.2-0.7-0.1-0.2-0.4-0.3-0.7-0.2l-6.7 3.9-6.7-3.9c-0.2-0.1-0.5 0-0.7 0.2-0.1 0.3 0 0.6 0.2 0.7l6.9 4q0.1 0.1 0.2 0.1 0.1 0 0.2 0 0.1 0 0.2-0.1z" />
  <path fill-rule="evenodd" d="m17.9 10.8l-7.3 4.3q-0.1 0-0.2 0-0.1 0-0.3 0-0.1 0-0.2 0l-7.3-4.3c-0.2-0.1-0.3-0.3-0.2-0.5-0.1-0.2 0-0.4 0.2-0.6l7.3-4.2q0.1 0 0.2 0 0.2 0 0.3 0 0.1 0 0.1 0.1l7.4 4.2c0.2 0.1 0.3 0.3 0.2 0.5 0.1 0.2 0 0.4-0.2 0.5zm-1.3-0.5l-6.4-3.7-6.4 3.7 6.4 3.7z" />
  <path fill-rule="evenodd" d="m18.2 7.1c0.3-0.1 0.4-0.5 0.3-0.7-0.2-0.3-0.6-0.4-0.8-0.2l-7.5 4.3-7.4-4.3c-0.3-0.2-0.6-0.1-0.8 0.2-0.1 0.2 0 0.6 0.2 0.8l7.7 4.4q0.1 0 0.2 0.1 0.1 0 0.3-0.1 0.1 0 0.2 0z" />
  <path d="m3.4 6.6l6.8-4.2 6.9 4.2-6.9 4z" />
  <path fill-rule="evenodd" d="m18.2 6c0.3 0.2 0.4 0.5 0.2 0.8-0.1 0.3-0.5 0.4-0.7 0.2l-7.5-4.3-7.4 4.3c-0.3 0.1-0.6 0.1-0.8-0.2-0.1-0.3-0.1-0.6 0.2-0.8l7.7-4.4q0.1-0.1 0.2-0.1 0.1 0 0.3 0 0.1 0 0.1 0.1z" />
</svg>