<svg viewBox="0 0 20 20" xmlns="http://www.w3.org/2000/svg">
<rect width="100%" height="100%" fill="white"/>
<path d="M16.6071 13.4244C16.8508 13.2867 17.1621 13.3686 17.3027 13.607C17.4432 13.8457 17.36 14.151 17.1164 14.2886L10.2575 18.1693C10.2028 18.2002 10.1428 18.2208 10.0808 18.2303C10.0149 18.249 9.94606 18.2545 9.87812 18.2464C9.81016 18.2383 9.74436 18.2167 9.68476 18.1829L2.82587 14.3026C2.58252 14.1648 2.49913 13.8598 2.63959 13.6212C2.78036 13.3824 3.09163 13.3006 3.3349 13.4383L9.95893 17.1859L16.6071 13.4244Z" fill="black"/>
<path fill-rule="evenodd" clip-rule="evenodd" d="M9.86615 1.75397C9.94156 1.74502 10.018 1.75126 10.091 1.77204C10.159 1.78263 10.2247 1.80539 10.2846 1.83918L17.9018 6.12775C18.0955 6.2368 18.1979 6.44081 18.1845 6.64508C18.2245 6.86787 18.1224 7.1009 17.9108 7.22052L15.468 8.6026L17.5368 9.7674C17.7371 9.88017 17.8358 10.0996 17.801 10.3101C17.8256 10.4931 17.755 10.6853 17.5419 10.806L10.2905 14.9088C10.2327 14.9414 10.1695 14.9631 10.1039 14.973C10.0343 14.9927 9.96144 14.9986 9.88959 14.9901C9.81776 14.9815 9.74827 14.9588 9.68525 14.9232L2.43427 10.8206C2.22299 10.7011 2.15194 10.5112 2.17475 10.3297C2.12277 10.1093 2.22098 9.87204 2.43183 9.75324L4.46552 8.60797L2.04047 7.23615C1.8417 7.12388 1.73933 6.91117 1.76068 6.70124C1.71491 6.47456 1.81807 6.23459 2.03412 6.11286L9.65155 1.82404C9.71775 1.78672 9.79074 1.76292 9.86615 1.75397ZM10.2936 11.5306C10.233 11.5649 10.1665 11.5876 10.0976 11.598C10.0245 11.6188 9.94796 11.625 9.8725 11.616C9.79701 11.6071 9.72386 11.5832 9.65766 11.5457L5.54193 9.21711L3.64301 10.2864L9.97528 13.869L16.3039 10.2884L14.3915 9.21173L10.2936 11.5306Z" fill="black"/>
</svg>
