<svg viewBox="0 0 20 20" fill="none" xmlns="http://www.w3.org/2000/svg">
<path d="M0 0H20V20H0V0Z" fill="#F8FAFC"/>
<path fill-rule="evenodd" clip-rule="evenodd" d="M4 10C4 10.6055 4.08488 11.1896 4.22925 11.75H12.75C13.7165 11.75 14.5 10.9664 14.5 10C14.5 9.03313 13.7165 8.25 12.75 8.25H4.22925C4.08488 8.81 4 9.3945 4 10Z" fill="#343741"/>
<path fill-rule="evenodd" clip-rule="evenodd" d="M15.7792 6.3517C16.0238 6.12638 16.2513 5.88445 16.46 5.62501C15.1768 4.02594 13.2093 3 10.9999 3C8.2345 3 5.85449 4.60869 4.71918 6.93751H14.286C14.8399 6.93751 15.3723 6.72707 15.7792 6.3517Z" fill="#FEC514"/>
<path fill-rule="evenodd" clip-rule="evenodd" d="M14.286 13.0625H4.71915C5.8549 15.3909 8.23447 17 10.9999 17C13.2093 17 15.1767 15.9736 16.4599 14.375C16.2512 14.1151 16.0237 13.8732 15.7792 13.6479C15.3723 13.2721 14.8399 13.0625 14.286 13.0625Z" fill="#00BFB3"/>
</svg>
