<svg xmlns="http://www.w3.org/2000/svg" viewBox="0 0 20 20">
  <rect width="100%" height="100%" fill="#2F3242"/>
  <path fill="#A2ECFB" fill-rule="evenodd" d="M10 2c-.58 0-1.06.47-1.06 1.05 0 .58.48 1.05 1.07 1.05.37 0 .7-.19.89-.47.56.36 1.1 1.07 1.5 2.06.47 1.13.75 2.59.75 4.19 0 1.3-.19 2.5-.5 3.52a.3.3 0 0 0 .2.38.3.3 0 0 0 .37-.2c.34-1.08.54-2.35.54-3.7 0-1.67-.3-3.2-.8-4.42-.45-1.11-1.1-2-1.9-2.43A1.06 1.06 0 0 0 10.02 2Zm-.45 1.05c0-.25.2-.45.46-.45.25 0 .45.2.45.45s-.2.45-.45.45a.45.45 0 0 1-.46-.45Z" clip-rule="evenodd"/>
  <path fill="#A2ECFB" d="M7.1 13.56a.3.3 0 0 1 .39.18c.3.84.7 1.51 1.14 1.97.44.46.9.69 1.38.69.68 0 1.37-.48 1.94-1.43a.3.3 0 0 1 .42-.1c.14.08.19.27.1.4C11.85 16.3 11 17 10.01 17c-.69 0-1.3-.34-1.83-.87a6.19 6.19 0 0 1-1.26-2.18.3.3 0 0 1 .18-.39ZM8.23 5.53a.3.3 0 0 1-.35.24 5.74 5.74 0 0 0-2.3 0c-.62.14-1.05.43-1.29.83-.35.6-.25 1.46.32 2.45a.3.3 0 0 1-.11.41.3.3 0 0 1-.42-.1c-.62-1.08-.82-2.18-.31-3.06.34-.58.94-.95 1.67-1.12C6.17 5 7.04 5 8 5.18a.3.3 0 0 1 .24.35Z"/>
  <path fill="#A2ECFB" fill-rule="evenodd" d="M5.13 10.3a.3.3 0 0 1 .43.02c.74.8 1.71 1.58 2.87 2.24 1.38.79 2.78 1.27 3.99 1.45 1.06.15 1.94.06 2.54-.23a1.06 1.06 0 0 1 .97-1.48 1.06 1.06 0 1 1 0 2.1c-.2 0-.4-.05-.56-.15-.77.42-1.86.52-3.04.35-1.3-.19-2.77-.7-4.2-1.52-1.21-.69-2.24-1.5-3.02-2.35a.3.3 0 0 1 .02-.43Zm10.52 3.4a.46.46 0 0 0 .74-.34.45.45 0 0 0-.9 0c0 .1.03.2.09.27a.3.3 0 0 1 .07.08Z" clip-rule="evenodd"/>
  <path fill="#A2ECFB" d="M14.66 10.1a.3.3 0 0 0 .03.42c.13.1.32.09.43-.04a6.18 6.18 0 0 0 1.27-2.17c.21-.71.2-1.41-.15-2-.5-.86-1.55-1.23-2.76-1.25a.3.3 0 0 0-.31.3c0 .16.13.3.3.3 1.13.02 1.9.36 2.24.95.24.4.28.92.1 1.53-.18.6-.57 1.28-1.15 1.95Z"/>
  <path fill="#A2ECFB" fill-rule="evenodd" d="M11.86 5.84a.3.3 0 1 0-.13-.6c-1.14.25-2.38.72-3.6 1.42a11.97 11.97 0 0 0-3.5 2.94 4.55 4.55 0 0 0-1.14 2.87 1.05 1.05 0 0 0 .57 1.94c.59 0 1.07-.47 1.07-1.05 0-.57-.46-1.04-1.04-1.06.01-.66.35-1.48 1.02-2.34C5.87 8.98 7 8 8.43 7.18a12.08 12.08 0 0 1 3.43-1.34Zm-7.8 7.07c-.25 0-.45.2-.45.45a.45.45 0 0 0 .9 0c0-.25-.2-.45-.45-.45Z" clip-rule="evenodd"/>
  <path fill="#A2ECFB" d="M9.33 10.02a.7.7 0 0 0 1.36-.29.7.7 0 0 0-1.36.29Z"/>
</svg>