<svg viewBox="0 0 20 20" fill="none" xmlns="http://www.w3.org/2000/svg">
<path d="M0 0H20V20H0V0Z" fill="#222222"/>
<path d="M7.35604 13.7696C7.24726 13.7696 7.19287 13.6246 7.19287 13.3333V6.14053C7.19287 6.00153 7.16507 5.93626 7.10826 5.94472C6.765 6.03175 6.59216 6.07526 6.58733 6.07526C6.49184 6.08372 6.4447 5.98823 6.4447 5.7888V5.16392C6.4447 4.99108 6.49668 4.89318 6.60062 4.87143L8.31935 4.42905C8.33264 4.42543 8.35198 4.42301 8.37736 4.42301C8.47285 4.42301 8.51998 4.52454 8.51998 4.7288V13.3345C8.51998 13.6258 8.46318 13.7708 8.35077 13.7708L7.35604 13.7696V13.7696ZM11.8076 13.7829C11.6335 13.7829 11.4836 13.7708 11.3555 13.7467C11.2274 13.7225 11.0944 13.6681 10.9555 13.5835C10.8165 13.4989 10.7028 13.3829 10.6134 13.2354C10.524 13.0879 10.4514 12.8813 10.3958 12.6166C10.3402 12.3519 10.3112 12.0376 10.3112 11.6726V8.33426C10.3112 8.24723 10.2871 8.20372 10.2399 8.20372H9.83622C9.72744 8.20372 9.67305 8.09978 9.67305 7.89189V7.54016C9.67305 7.32744 9.72744 7.22108 9.83622 7.22108H10.2399C10.2871 7.22108 10.3112 7.16306 10.3112 7.04582L10.4285 4.51366C10.4418 4.28401 10.4974 4.16919 10.5977 4.16919H11.2492C11.3579 4.16919 11.4123 4.28401 11.4123 4.51366V7.04582C11.4123 7.16306 11.4377 7.22108 11.4909 7.22108H12.3212C12.43 7.22108 12.4844 7.32744 12.4844 7.54016V7.89189C12.4844 8.09978 12.43 8.20372 12.3212 8.20372H11.4885C11.4583 8.20372 11.4377 8.21097 11.4268 8.22669C11.416 8.24119 11.4111 8.27745 11.4111 8.33426V11.6931C11.4111 11.9445 11.4268 12.1549 11.4595 12.3217C11.4921 12.4885 11.5392 12.6117 11.6021 12.6891C11.6649 12.7664 11.7278 12.8196 11.7906 12.845C11.8535 12.8716 11.9308 12.8837 12.0215 12.8837H12.4832C12.6004 12.8837 12.6585 12.9647 12.6585 13.1242V13.5146C12.6585 13.6923 12.5956 13.7817 12.4699 13.7817L11.8076 13.7829V13.7829ZM14.3059 14.5637C14.405 14.5637 14.492 14.4828 14.5657 14.3196C14.6395 14.1564 14.6769 13.9256 14.6769 13.6258C14.6769 13.5557 14.6334 13.3152 14.5464 12.903L13.27 7.59818C13.2616 7.53775 13.2568 7.4894 13.2568 7.45435C13.2568 7.29843 13.2894 7.21987 13.3547 7.21987H14.1427C14.2031 7.21987 14.2527 7.24041 14.2926 7.28151C14.3325 7.3226 14.3627 7.406 14.3832 7.5317L15.2293 12.0098C15.2462 12.0618 15.2571 12.0884 15.2619 12.0884C15.2789 12.0884 15.2885 12.0642 15.2885 12.0171L15.9521 7.55104C15.969 7.42051 15.9968 7.33348 16.0331 7.28755C16.0693 7.24162 16.1165 7.21866 16.1733 7.21866H16.7196C16.7933 7.21866 16.8308 7.30326 16.8308 7.47248C16.8308 7.51116 16.8259 7.56192 16.8175 7.62235L15.6584 13.6572C15.5677 14.1564 15.4674 14.5383 15.3586 14.803C15.2498 15.0677 15.129 15.2478 14.9936 15.3433C14.8594 15.4388 14.6818 15.4884 14.4594 15.4932H14.3941C14.0424 15.4932 13.8043 15.4001 13.6786 15.2128C13.6435 15.1741 13.6266 15.0738 13.6266 14.913C13.6266 14.5915 13.6786 14.4308 13.7825 14.4308C13.791 14.4308 13.8695 14.4525 14.017 14.496C14.1669 14.542 14.2624 14.5637 14.3059 14.5637V14.5637Z" fill="white"/>
<path fill-rule="evenodd" clip-rule="evenodd" d="M10.5975 4.52251L10.4805 7.04993C10.4802 7.11404 10.4739 7.18274 10.4499 7.24154C10.437 7.2731 10.4153 7.31078 10.3781 7.34122C10.338 7.37396 10.2895 7.39031 10.2399 7.39031H9.85941C9.85128 7.41396 9.84229 7.46028 9.84229 7.54019V7.89191C9.84229 7.96799 9.85088 8.01203 9.85851 8.03453H10.2399C10.2787 8.03453 10.3204 8.0438 10.3592 8.06754C10.3977 8.09103 10.4241 8.1231 10.4416 8.15499C10.4739 8.21386 10.4805 8.28051 10.4805 8.33428V11.6726C10.4805 12.0292 10.5089 12.3313 10.5615 12.5818C10.6151 12.8373 10.6826 13.0232 10.7581 13.1477C10.8345 13.2736 10.9293 13.3695 11.0435 13.439C11.1694 13.5156 11.2833 13.5609 11.3869 13.5804C11.5019 13.6021 11.6407 13.6137 11.8073 13.6137C11.8073 13.6137 11.8073 13.6137 11.8073 13.6137C11.8074 13.6137 11.8075 13.6137 11.8076 13.6137L12.4696 13.6125H12.4699C12.4722 13.6125 12.4741 13.6125 12.4757 13.6123C12.4774 13.6085 12.4797 13.6022 12.482 13.5925C12.4861 13.575 12.4893 13.5496 12.4893 13.5146V13.1242C12.4893 13.0941 12.4865 13.073 12.4831 13.0592C12.4826 13.0568 12.482 13.0547 12.4814 13.0529H12.0215C11.9179 13.0529 11.8165 13.0394 11.726 13.0014C11.6261 12.9607 11.542 12.8834 11.4708 12.7958C11.3818 12.6863 11.3279 12.5303 11.2934 12.3542C11.2579 12.1726 11.2419 11.9504 11.2419 11.6932V8.33428C11.2419 8.30227 11.2432 8.27002 11.2474 8.2407C11.2505 8.21912 11.2583 8.17116 11.2892 8.12823C11.3483 8.04502 11.4404 8.03453 11.4885 8.03453H12.299C12.3066 8.01203 12.3152 7.96799 12.3152 7.89191V7.54019C12.3152 7.46028 12.3062 7.41396 12.2981 7.39031H11.4909C11.4448 7.39031 11.3973 7.37699 11.3558 7.34638C11.3162 7.3172 11.292 7.27966 11.2771 7.24631C11.2494 7.184 11.2431 7.11116 11.2431 7.04584V4.51368C11.2431 4.42063 11.2329 4.36625 11.223 4.33843H10.6286C10.6164 4.3684 10.6031 4.42578 10.5975 4.52251ZM11.8076 13.783V13.9522C11.6262 13.9522 11.4653 13.9396 11.3242 13.913C11.1716 13.8842 11.0196 13.8206 10.8675 13.7281C10.7037 13.6284 10.5712 13.4921 10.4687 13.3232C10.3654 13.1527 10.2878 12.9253 10.2303 12.6514C10.1717 12.3724 10.142 12.0461 10.142 11.6726V8.37296H9.83625C9.78098 8.37296 9.72479 8.35936 9.67395 8.32697C9.62379 8.29502 9.58834 8.25087 9.56394 8.20424C9.51775 8.11595 9.50386 8.0051 9.50386 7.89191V7.54019C9.50386 7.42489 9.51769 7.31285 9.56321 7.22383C9.58722 7.17688 9.6223 7.13198 9.67246 7.09929C9.72349 7.06602 9.78021 7.05189 9.83625 7.05189H10.142C10.142 7.04992 10.142 7.0479 10.142 7.04584V7.04193L10.2595 4.50488L10.2596 4.5039C10.2666 4.38195 10.2855 4.26884 10.3285 4.18094C10.3756 4.08475 10.464 4 10.5977 4H11.2492C11.3079 4 11.3665 4.01612 11.4179 4.05236C11.4679 4.08753 11.5017 4.13486 11.5245 4.18289C11.5679 4.2745 11.5816 4.39088 11.5816 4.51368V7.04584C11.5816 7.04791 11.5816 7.04992 11.5816 7.05189H12.3213C12.3773 7.05189 12.434 7.06602 12.4851 7.09929C12.5352 7.13198 12.5703 7.17688 12.5943 7.22383C12.6398 7.31285 12.6537 7.42489 12.6537 7.54019V7.89191C12.6537 8.0051 12.6398 8.11595 12.5936 8.20424C12.5692 8.25087 12.5337 8.29502 12.4836 8.32697C12.4327 8.35936 12.3765 8.37296 12.3213 8.37296H11.5804V11.6932C11.5804 11.9388 11.5958 12.1372 11.6256 12.2892C11.6564 12.4466 11.6968 12.5373 11.7334 12.5824C11.7877 12.6491 11.8288 12.6779 11.854 12.6881L11.8553 12.6886L11.8566 12.6892C11.8915 12.7039 11.9443 12.7145 12.0215 12.7145H12.4832C12.5854 12.7145 12.685 12.7527 12.7518 12.8448C12.8113 12.9268 12.8277 13.029 12.8277 13.1242V13.5146C12.8277 13.6183 12.8103 13.7263 12.7496 13.8123C12.6815 13.909 12.5785 13.9509 12.4702 13.951M12.4699 13.951L11.8079 13.9522L11.8076 13.783M10.14 8.30635C10.14 8.30631 10.14 8.30641 10.1401 8.30666C10.14 8.30648 10.14 8.30638 10.14 8.30635ZM8.33977 4.59855L6.63909 5.03628L6.63531 5.03707C6.63524 5.03709 6.63517 5.0371 6.6351 5.03712C6.63457 5.03792 6.63388 5.03905 6.63306 5.04058C6.62545 5.05487 6.61394 5.0911 6.61394 5.16395V5.78883C6.61394 5.83252 6.61656 5.86651 6.62066 5.89212C6.62072 5.8925 6.62078 5.89287 6.62084 5.89324C6.63753 5.88909 6.65714 5.88419 6.67973 5.87852C6.76622 5.85682 6.89506 5.82424 7.0667 5.78072L7.07495 5.77863L7.08336 5.77738C7.1336 5.7699 7.18964 5.77813 7.23968 5.81166C7.28606 5.84275 7.3123 5.88556 7.32731 5.92044C7.35559 5.98611 7.36211 6.06606 7.36211 6.14055V13.3333C7.36211 13.4723 7.37562 13.5565 7.39182 13.6005L8.31945 13.6016C8.31958 13.6013 8.31971 13.601 8.31984 13.6006C8.33651 13.5577 8.3508 13.4741 8.3508 13.3345V4.72883C8.3508 4.68383 8.34817 4.64819 8.34392 4.62072C8.34261 4.61219 8.34119 4.60484 8.33977 4.59855ZM7.35627 13.6004C7.3562 13.6004 7.35613 13.6004 7.35606 13.6004V13.7697L7.35627 13.6004ZM7.35606 13.9389L8.35059 13.9401H8.3508C8.4189 13.9401 8.48275 13.9168 8.5349 13.872C8.58383 13.83 8.61485 13.7758 8.63527 13.7233C8.6751 13.6208 8.68922 13.4863 8.68922 13.3345V4.72883C8.68922 4.61911 8.67742 4.51272 8.63789 4.42787C8.61708 4.38321 8.58561 4.33808 8.53811 4.30426C8.48899 4.26927 8.4331 4.25382 8.37739 4.25382C8.34348 4.25382 8.30853 4.25683 8.2763 4.26543L6.56163 4.70676C6.46024 4.72927 6.38204 4.79194 6.33435 4.88151C6.28999 4.96481 6.27551 5.06395 6.27551 5.16395V5.78883C6.27551 5.89557 6.2871 6.00159 6.32869 6.08531C6.35087 6.12994 6.385 6.17511 6.43671 6.20663C6.48946 6.23878 6.54706 6.24852 6.60113 6.24394C6.60581 6.24356 6.60909 6.24311 6.61013 6.24297L6.61031 6.24295C6.61366 6.2425 6.61636 6.24203 6.61784 6.24177C6.62089 6.24123 6.62353 6.24068 6.62507 6.24036C6.62839 6.23966 6.63199 6.23884 6.63529 6.23808C6.64214 6.23649 6.6514 6.23426 6.6627 6.2315C6.68547 6.22593 6.71866 6.21767 6.76208 6.20678C6.82625 6.19068 6.91343 6.16866 7.02368 6.14075V13.3333C7.02368 13.4847 7.03716 13.6184 7.0752 13.72C7.09465 13.772 7.12442 13.8264 7.17219 13.8689C7.22342 13.9144 7.28713 13.9388 7.35586 13.9389M6.63635 5.03546C6.63635 5.03546 6.63631 5.03552 6.63621 5.03561C6.6363 5.03551 6.63635 5.03546 6.63635 5.03546ZM16.1699 7.38808C16.1692 7.3887 16.1678 7.39003 16.1659 7.39243L16.1659 7.39239C16.1659 7.39239 16.1637 7.39532 16.1602 7.4028C16.1564 7.41065 16.1518 7.42202 16.147 7.43775C16.1371 7.46955 16.1276 7.51383 16.1199 7.57282L16.1197 7.57438L15.4576 12.0308C15.4568 12.0599 15.453 12.0957 15.4398 12.1305C15.4249 12.1698 15.3743 12.2576 15.262 12.2576C15.1887 12.2576 15.1455 12.2124 15.1379 12.2044L15.1376 12.2042C15.124 12.1899 15.1155 12.1762 15.1117 12.1699C15.1035 12.156 15.0975 12.1421 15.0938 12.1333C15.0858 12.1139 15.0772 12.0892 15.0684 12.0622L15.0651 12.0519L14.2166 7.56109L14.2163 7.55903C14.207 7.50246 14.1965 7.46117 14.1861 7.43255C14.1771 7.40771 14.1706 7.39899 14.1704 7.39855C14.1643 7.39243 14.159 7.3891 14.1427 7.3891H13.4288C13.4271 7.40664 13.426 7.42824 13.426 7.45437C13.426 7.47597 13.4291 7.51212 13.4365 7.56673L14.7115 12.8658L14.712 12.8681C14.7556 13.0748 14.7887 13.2398 14.8108 13.3626C14.8318 13.4788 14.8462 13.5726 14.8462 13.6258C14.8462 13.9359 14.808 14.1945 14.72 14.3893C14.6414 14.5632 14.5128 14.733 14.3059 14.733C14.2633 14.733 14.2124 14.7234 14.163 14.7119C14.11 14.6996 14.0449 14.6816 13.9683 14.6581C13.9076 14.6402 13.8592 14.6262 13.8229 14.6159C13.8072 14.6726 13.7958 14.7683 13.7958 14.9131C13.7958 14.9889 13.7999 15.0434 13.8062 15.08C13.8087 15.0944 13.8112 15.1038 13.8129 15.1093L13.8191 15.1185C13.8986 15.237 14.0658 15.324 14.3941 15.324H14.4575C14.657 15.3194 14.7976 15.2752 14.8955 15.2055L14.8958 15.2053L14.8961 15.2051C14.992 15.1374 15.0975 14.9934 15.2021 14.7388C15.3043 14.4902 15.4021 14.1218 15.4919 13.627L15.4921 13.6262L16.6505 7.59475C16.6582 7.53897 16.6616 7.49872 16.6616 7.4725C16.6616 7.43706 16.6597 7.40918 16.6567 7.3879H16.1733C16.1717 7.3879 16.1705 7.38799 16.1699 7.38808ZM15.9003 7.18272C15.9679 7.09706 16.0635 7.04947 16.1733 7.04947H16.7196C16.7728 7.04947 16.8255 7.06559 16.8706 7.09995C16.9135 7.13261 16.9405 7.17484 16.9578 7.21408C16.9906 7.28883 17 7.38056 17 7.4725C17 7.52299 16.9939 7.58292 16.9851 7.64584L16.9845 7.65008L15.8249 13.6875C15.8248 13.6878 15.8248 13.6881 15.8247 13.6883C15.7333 14.1915 15.6305 14.5867 15.5152 14.8674C15.4023 15.142 15.2661 15.3581 15.0914 15.4815C14.9213 15.6024 14.7073 15.6571 14.4631 15.6624L14.4612 15.6624H14.3941C14.0229 15.6624 13.7164 15.5653 13.5435 15.315C13.4992 15.2597 13.4818 15.1901 13.4727 15.1374C13.4618 15.074 13.4574 14.998 13.4574 14.9131C13.4574 14.7476 13.4703 14.6055 13.5046 14.4993C13.5368 14.3998 13.6152 14.2616 13.7825 14.2616C13.797 14.2616 13.8087 14.2635 13.8114 14.2639C13.8162 14.2647 13.8206 14.2656 13.8237 14.2662C13.83 14.2675 13.8368 14.2692 13.8431 14.2707C13.8561 14.274 13.8729 14.2785 13.893 14.2841C13.9334 14.2953 13.9909 14.3119 14.0649 14.3338L14.0658 14.334L14.0666 14.3343C14.1395 14.3566 14.1968 14.3723 14.2397 14.3823C14.2611 14.3873 14.2777 14.3906 14.29 14.3925C14.3013 14.3943 14.3061 14.3945 14.3062 14.3945C14.3071 14.3945 14.3082 14.3944 14.3103 14.3935C14.3131 14.3922 14.3197 14.3887 14.3296 14.3794C14.3508 14.3596 14.3797 14.3203 14.4116 14.2499C14.471 14.1184 14.5077 13.9152 14.5077 13.6258C14.5077 13.609 14.5003 13.5474 14.4778 13.4228C14.4566 13.3052 14.4245 13.1447 14.3814 12.9403L13.1036 7.6298L13.1025 7.62167C13.0938 7.55991 13.0876 7.50184 13.0876 7.45437C13.0876 7.36967 13.0957 7.284 13.1251 7.21354C13.1405 7.17665 13.1652 7.13524 13.2061 7.10253C13.2496 7.06769 13.3015 7.05068 13.3547 7.05068H14.1427C14.2466 7.05068 14.3407 7.08814 14.414 7.16368C14.4573 7.20823 14.485 7.26415 14.5043 7.31726C14.5239 7.37148 14.5386 7.434 14.5499 7.50231L15.2431 11.1714L15.7845 7.52774C15.8019 7.39407 15.8337 7.2671 15.9003 7.18272ZM15.119 12.0265C15.1189 12.0265 15.119 12.0263 15.119 12.0259C15.119 12.0263 15.119 12.0265 15.119 12.0265Z" fill="white"/>
<path d="M4.08053 13.7817C3.97175 13.7817 3.91735 13.6366 3.91735 13.3453V6.15256C3.91735 6.01357 3.88956 5.9483 3.83275 5.95676C3.48949 6.04378 3.31665 6.0873 3.31181 6.0873C3.21633 6.09576 3.16919 6.00027 3.16919 5.80084V5.17596C3.16919 5.00312 3.22116 4.90522 3.32511 4.88346L5.04504 4.43988C5.05834 4.43626 5.07768 4.43384 5.10306 4.43384C5.19854 4.43384 5.24568 4.53537 5.24568 4.73963V13.3453C5.24568 13.6366 5.18887 13.7817 5.07647 13.7817H4.08053V13.7817Z" fill="white"/>
<path fill-rule="evenodd" clip-rule="evenodd" d="M5.06547 4.60939L3.36361 5.04831L3.3598 5.04911C3.35972 5.04913 3.35965 5.04914 3.35958 5.04916C3.35905 5.04996 3.35836 5.05108 3.35755 5.05261C3.34994 5.06691 3.33843 5.10314 3.33843 5.17598V5.80087C3.33843 5.84455 3.34104 5.87855 3.34515 5.90416C3.34521 5.90453 3.34527 5.90491 3.34533 5.90528C3.36201 5.90113 3.38163 5.89622 3.40422 5.89056C3.49071 5.86886 3.61955 5.83627 3.79119 5.79276L3.79943 5.79067L3.80785 5.78942C3.85809 5.78193 3.91413 5.79016 3.96417 5.8237C4.01055 5.85479 4.03678 5.8976 4.0518 5.93247C4.08007 5.99815 4.08659 6.0781 4.08659 6.15259V13.3454C4.08659 13.4843 4.1001 13.5685 4.11629 13.6125H5.04513C5.04527 13.6121 5.0454 13.6118 5.04554 13.6115C5.06221 13.5686 5.07649 13.4849 5.07649 13.3454V4.73965C5.07649 4.69466 5.07387 4.65902 5.06962 4.63155C5.0683 4.62302 5.06689 4.61568 5.06547 4.60939ZM3.36084 5.0475C3.36084 5.0475 3.36079 5.04755 3.36069 5.04765C3.36079 5.04754 3.36084 5.04749 3.36084 5.0475ZM5.00194 4.27628C5.03419 4.26767 5.06915 4.26465 5.10308 4.26465C5.15879 4.26465 5.21469 4.2801 5.26381 4.31508C5.31131 4.34891 5.34278 4.39404 5.36359 4.4387C5.40311 4.52355 5.41492 4.62994 5.41492 4.73965V13.3454C5.41492 13.4971 5.4008 13.6316 5.36096 13.7341C5.34054 13.7866 5.30953 13.8408 5.2606 13.8829C5.20844 13.9276 5.14459 13.9509 5.07649 13.9509H4.08055C4.01174 13.9509 3.94795 13.9265 3.89668 13.8809C3.84891 13.8384 3.81913 13.784 3.79969 13.7321C3.76165 13.6304 3.74817 13.4967 3.74817 13.3454V6.15278C3.63791 6.1807 3.55073 6.20272 3.48657 6.21881C3.44314 6.22971 3.40995 6.23797 3.38719 6.24353C3.37589 6.24629 3.36663 6.24852 3.35978 6.25011C3.35648 6.25088 3.35288 6.2517 3.34956 6.2524C3.34802 6.25272 3.34538 6.25327 3.34232 6.25381C3.34085 6.25407 3.33814 6.25453 3.3348 6.25498L3.33461 6.25501C3.33358 6.25515 3.3303 6.2556 3.32562 6.25597C3.27154 6.26056 3.21394 6.25081 3.1612 6.21866C3.10948 6.18714 3.07535 6.14198 3.05318 6.09734C3.01158 6.01363 3 5.90761 3 5.80087V5.17598C3 5.07599 3.01447 4.97685 3.05884 4.89354C3.10652 4.80399 3.18471 4.74132 3.28607 4.71881L5.00194 4.27628Z" fill="white"/>
</svg>
