<svg id="Layer_1" data-name="Layer 1" xmlns="http://www.w3.org/2000/svg" viewBox="0 0 20 20"><defs><style>.cls-2{fill:#fff}</style></defs><path fill="#491c5d" d="M0 0h20v20H0z"/><path class="cls-2" d="M8.33 11.29a11.36 11.36 0 0 0 2.38 2.32 12.08 12.08 0 0 0 3.72-1.53.77.77 0 0 0 .34-.73 4.8 4.8 0 0 0-.55-1.82 2.44 2.44 0 0 0-.35-.43l-1.45-1.56a11.82 11.82 0 0 1-2.59-5.07l-.46.35a11.51 11.51 0 0 0-2.19 2.61A2.32 2.32 0 0 0 6.81 7a9.31 9.31 0 0 0 1.52 4.29zM9.38 13.85a7.62 7.62 0 0 1-1.63-1.47 10.69 10.69 0 0 1-1.92-4.46c-.2.43-.38.85-.54 1.27a8.09 8.09 0 0 0-.48 2.36 6.08 6.08 0 0 0 .07 1.12 1.14 1.14 0 0 0 .72.89 6.29 6.29 0 0 0 2.52.4c.44-.02.88-.06 1.26-.11zM13.56 15.31a4.35 4.35 0 0 0 .76-1.09A5.23 5.23 0 0 0 14.7 13a8.77 8.77 0 0 1-2.88 1.31 17.68 17.68 0 0 0 1.74 1zM10.46 14.63a14.19 14.19 0 0 1-2.13.16 5.62 5.62 0 0 1-3.16-1 7.47 7.47 0 0 0 .46 1 3.39 3.39 0 0 0 1.7 1.51 6.29 6.29 0 0 0 4.38.14 4.54 4.54 0 0 0 1.53-.87 16.83 16.83 0 0 1-2.43-1 .74.74 0 0 0-.35.06z"/></svg>