<svg xmlns="http://www.w3.org/2000/svg" viewBox="0 0 20 20">
  <rect width="100%" height="100%" fill="#7C6CAB"/>
  <path fill="#fff" d="M10.57 2.58V1.26a.74.74 0 0 0-.27 0c-.43.18-.82.44-1.13.79a8.38 8.38 0 0 0-.98 1.16c-.26.4-.5.81-.75 1.23-.24.41-.45.85-.65 1.27-.3.6-.56 1.22-.83 1.83l-.4 1.02c-.25.62-.47 1.26-.65 1.9-.2.7-.32 1.4-.37 2.12-.05.38-.05.77 0 1.16v.15a5.35 5.35 0 0 0 .57 1.84c.24.47.53.9.88 1.28.15.16.32.3.5.46.41.36.88.66 1.38.86.12 0 .26.1.4.14.09.04.2.08.3.1.06.03.12.06.19.07l.53.1h.53c.35 0 .7-.01 1.04-.06.28-.05.56-.1.84-.18.49-.16.96-.38 1.39-.67l.2-.13c.44-.3.83-.68 1.17-1.1.07-.08.12-.2.19-.28a5.6 5.6 0 0 0 .85-2.24v-.68c0-.42-.02-.84-.1-1.25a7.13 7.13 0 0 0-.9-2.01 20.24 20.24 0 0 0-1.36-1.8l-.43-.56-.28-.31c-.05-.1-.11-.17-.17-.25a7.95 7.95 0 0 1-.77-1.58c-.14-.3-.27-.61-.4-.93 0-.1 0-.24-.09-.34a8.15 8.15 0 0 1-.36-1.4c0-.16 0-.2-.07-.4"/>
</svg>