<?xml version="1.0" encoding="utf-8"?>
<!-- Generator: Adobe Illustrator 18.1.1, SVG Export Plug-In . SVG Version: 6.00 Build 0)  -->
<!DOCTYPE svg PUBLIC "-//W3C//DTD SVG 1.1//EN" "http://www.w3.org/Graphics/SVG/1.1/DTD/svg11.dtd">
<svg version="1.1" id="Layer_1" xmlns="http://www.w3.org/2000/svg" xmlns:xlink="http://www.w3.org/1999/xlink" x="0px" y="0px"
	 viewBox="0 0 64 64" enable-background="new 0 0 64 64" xml:space="preserve">
<path d="M44.4,25.3c-4.8-5.1-9.8-10.3-9.8-22.1V1.4l-1.5,0.9c-8.8,5.4-21.2,21.4-21.2,39.9c0,10.8,9.1,19.6,20.4,19.6
	c11.2,0,20.4-8.8,20.4-19.6C52.7,34.1,48.7,29.8,44.4,25.3z M50.7,42.2c0,0.9-0.1,1.9-0.3,2.8c-3.7,4.1-10.6,6.6-18.3,6.6
	c-4.5,0-8.6-1-12-2.5c-0.5-1.6-0.7-3.2-0.7-4.9c0-13,7-25.2,14.4-32c1.9,6.7,5.7,10.7,9.2,14.4C47.1,31.1,50.7,34.9,50.7,42.2z
	 M32.7,5c0.1,1.8,0.3,3.5,0.6,5.1c-8,7-15.9,20.1-15.9,34.2c0,1.3,0.1,2.5,0.3,3.6c-1.5-0.9-2.7-1.8-3.6-2.7c-0.2-1-0.3-1.9-0.3-2.9
	C13.9,25.5,24.4,10.9,32.7,5z M15.2,48.7c1,0.7,2.1,1.3,3.2,1.9c0.8,2.4,2.1,4.5,3.6,6.3C19,54.8,16.6,52,15.2,48.7z M32.3,59.8
	c-5,0-9-3.6-11.2-8.1c3.4,1.2,7.2,1.9,11,1.9c6.9,0,13.1-1.8,17.3-5C46.7,55.2,40.1,59.8,32.3,59.8z"/>
</svg>
