<svg viewBox="0 0 20 20" fill="none" xmlns="http://www.w3.org/2000/svg">
<rect width="100%" height="100%" fill="white"/>
<path fill-rule="evenodd" clip-rule="evenodd" d="M15.4271 16.4185C17.1572 14.9013 18.25 12.671 18.25 10.1846C18.25 5.61354 14.5564 1.90796 10 1.90796C5.44365 1.90796 1.75 5.61354 1.75 10.1846C1.75 12.5984 2.77991 14.7708 4.4229 16.2837L4.4305 16.2305L15.2576 12.6741L15.4271 16.4185Z" fill="#333333"/>
<path d="M7.87031 2.90184L6.40674 2.68389L6.62598 2.61622C6.75807 2.57544 6.88202 2.51163 6.99204 2.42772L7.02645 2.4015C7.15907 2.30037 7.26461 2.16778 7.33354 2.01563C7.37076 1.93344 7.39687 1.84661 7.41108 1.75747L7.42745 1.6548C7.44508 1.54415 7.44418 1.43132 7.42478 1.32096C7.41653 1.27409 7.46309 1.23652 7.50695 1.25465L7.56683 1.27939C7.64195 1.31042 7.71462 1.34716 7.78417 1.38928L8.03305 1.54005C8.36383 1.7404 8.65377 2.00179 8.88754 2.3104L9.05305 2.52887C9.1147 2.61027 9.18734 2.68268 9.26888 2.74402C9.3583 2.81131 9.45743 2.86454 9.56285 2.90186L9.67773 2.94254L9.07426 2.96675C8.67178 2.98291 8.26872 2.96117 7.87031 2.90184Z" fill="#CCCCCC"/>
<path d="M7.49665 4.2036L7.93071 3.40756C7.93496 3.39976 7.93522 3.39038 7.93142 3.38234L7.78343 3.06976C7.69053 2.87355 7.49336 2.74852 7.27683 2.74852L7.23591 2.7471C6.95254 2.7373 6.6711 2.69624 6.39666 2.62466L6.34239 2.6105C6.11735 2.5518 5.89902 2.46961 5.69106 2.36528L5.59931 2.31927C5.46116 2.24997 5.33032 2.16696 5.20869 2.07146L5.08704 1.97596C5.05088 1.94758 4.99851 1.95482 4.97136 1.99196C4.88772 2.10638 4.83528 2.24072 4.81922 2.3817L4.79711 2.57578C4.78525 2.6799 4.78394 2.78495 4.79318 2.88933L4.84705 3.49728C4.88713 3.94961 5.04273 4.38394 5.29886 4.75836L5.35371 4.83854C5.43241 4.95357 5.52413 5.05907 5.62703 5.15292C5.64153 5.16615 5.65999 5.17429 5.67956 5.17604C6.42376 5.24303 7.13807 4.86127 7.49665 4.2036Z" fill="#CCCCCC"/>
<path d="M5.855 5.19073L6.37056 4.96684C6.59814 4.86804 6.66743 4.57771 6.50913 4.38619C6.38045 4.2305 6.15155 4.20601 5.99302 4.33097L5.87076 4.42732C5.84146 4.45042 5.81468 4.47654 5.79083 4.50525L5.4968 4.85921C5.45552 4.90894 5.4588 4.98207 5.50444 5.02785L5.59525 5.13198C5.60982 5.14867 5.62677 5.16315 5.64552 5.17492C5.70853 5.21443 5.78684 5.22031 5.855 5.19073Z" fill="#EDEDED"/>
<path d="M6.51914 2.6465L6.50342 2.65155L6.55053 2.66659C6.75459 2.73173 6.96622 2.76988 7.18011 2.7801C7.19081 2.78062 7.20154 2.77937 7.21185 2.77641L7.30908 2.74855L7.35742 2.73238L7.04866 2.66504C7.00802 2.65618 6.97012 2.63761 6.93819 2.6109C6.91328 2.59006 6.91344 2.5516 6.93854 2.53099L6.98434 2.49341C7.03902 2.44851 7.08327 2.39213 7.11392 2.32825C6.93635 2.46934 6.73487 2.57715 6.51914 2.6465Z" fill="#B2B2B2"/>
<path d="M8.28477 8.29093L4.07967 15.8326C4.0588 15.87 4.00807 15.877 3.97784 15.8467L3.89306 15.7616L3.53857 15.3575L3.31262 15.0642C3.09838 14.786 2.9071 14.4908 2.74069 14.1815L2.70852 14.1217C2.53175 13.7931 2.38368 13.4497 2.26598 13.0955L2.15283 12.7549C1.98284 12.1367 1.94382 11.4896 2.03829 10.8554L2.04228 10.8286C2.08367 10.5507 2.14972 10.2771 2.23963 10.011L2.42675 9.45716L2.56641 9.16247C2.78298 8.70544 3.08158 8.29235 3.44727 7.94379L3.62468 7.77474C3.99145 7.42518 4.43749 7.17038 4.92431 7.03236C4.81046 7.06463 4.69424 7.08784 4.57675 7.10177L4.34424 7.12935L4.16699 7.14552L3.97363 7.17785L3.78027 7.19599L3.65136 7.21018L3.55851 7.216C3.52867 7.21787 3.51465 7.17969 3.53856 7.16168L3.66836 7.09928C4.08664 6.89822 4.43049 6.56913 4.65039 6.15943L4.79372 5.93512C4.96463 5.66762 5.19202 5.44104 5.45979 5.27137L5.51512 5.23632C5.61509 5.17299 5.72179 5.1211 5.83326 5.08162L6.34054 4.90199C6.43406 4.86889 6.50954 4.79798 6.54863 4.70652L6.55636 4.68838C6.57447 4.64593 6.58179 4.59964 6.57763 4.55366C6.57135 4.48434 6.53938 4.41993 6.48804 4.37311L6.39887 4.29178C6.39339 4.28677 6.38837 4.28125 6.38392 4.2753L5.81054 3.50831L5.35302 2.87565C5.2625 2.75045 5.20981 2.60176 5.20127 2.44732C5.19988 2.42285 5.22518 2.40588 5.24722 2.41649L5.74226 2.65487C6.17064 2.86116 6.65907 2.90454 7.11691 2.77695C7.22336 2.74729 7.33209 2.72669 7.44198 2.71539L7.66921 2.692C8.24062 2.63321 8.81793 2.68082 9.37209 2.83245L9.41992 2.84553L9.96126 3.04104C10.6403 3.28629 11.1784 3.8173 11.4341 4.4944L11.5476 4.93843C11.5792 5.06235 11.624 5.18256 11.681 5.29698C11.815 5.5659 12.014 5.79697 12.2598 5.9691L12.5486 6.17139C12.6755 6.2603 12.8088 6.33977 12.9472 6.40925L13.5865 6.72991C13.6151 6.74426 13.6237 6.78121 13.6043 6.80679C13.428 7.0395 13.1952 7.22295 12.9281 7.33966L12.5579 7.50141C12.4104 7.56582 12.2585 7.61916 12.1032 7.66103L11.8312 7.73432C11.4499 7.83707 11.0569 7.88912 10.6621 7.88912H10.0107C9.87586 7.88912 9.74222 7.86368 9.61676 7.81408C9.11638 7.61632 8.54732 7.82003 8.28477 8.29093Z" fill="white"/>
<path d="M10.4893 5.57155L10.773 5.57485C10.8115 5.5753 10.8202 5.52086 10.7835 5.50922C10.7232 5.49011 10.6646 5.46589 10.6084 5.43686L10.387 5.32241C10.2369 5.24485 10.0957 5.15099 9.96596 5.04252L9.92239 5.00612C9.82403 4.92387 9.73476 4.83124 9.65613 4.72985L9.60579 4.6649C9.58858 4.64269 9.55313 4.65624 9.555 4.6843C9.58787 5.17938 9.9948 5.5658 10.4893 5.57155Z" fill="#666666"/>
<path d="M4.39978 15.9522L9.20443 11.6524C9.65734 11.2471 10.0509 10.7796 10.3735 10.2638L10.4028 10.2169C10.5609 9.89984 10.6283 9.54501 10.5977 9.19183L10.5556 8.70573C10.5297 8.40671 10.4066 8.12449 10.2054 7.90238C10.1976 7.89378 10.1872 7.88787 10.1759 7.88554L9.40382 7.72747C8.84362 7.5578 8.24972 7.53333 7.67754 7.65634L7.64747 7.66281L7.19823 7.76818C5.88806 8.07545 4.73336 8.84886 3.94824 9.9451L3.92843 9.97274C3.71211 10.2748 3.52834 10.599 3.38021 10.9399L3.35376 11.0008C2.9796 11.862 2.85348 12.8111 2.98971 13.7405L3.03427 14.0445C3.08016 14.3575 3.1742 14.6616 3.31303 14.9457C3.44125 15.2081 3.6063 15.4507 3.80315 15.6662L4.04833 15.9345C4.14093 16.0358 4.29751 16.0437 4.39978 15.9522Z" fill="#CCCCCC"/>
<path d="M8.60617 10.2124L8.59064 10.2213C8.18519 10.4537 7.96708 10.8924 7.98842 11.3604C7.99448 11.4935 8.12741 11.6154 8.25519 11.5791L8.4906 11.5122C8.79495 11.4257 9.07681 11.2736 9.31644 11.0664L10 10.4756L10.2028 10.3251C11.3816 9.44973 12.8628 9.08905 14.3104 9.32481C14.3551 9.33208 14.3565 9.396 14.3122 9.40528L14.1411 9.44104L14.0635 9.46826C13.9042 9.52419 13.7659 9.62778 13.6671 9.76506C13.6485 9.79082 13.6732 9.82545 13.7035 9.81611L13.7596 9.79878C14.0756 9.70127 14.407 9.66425 14.7366 9.68969L14.8662 9.69968C15.5701 9.7304 16.2234 10.0756 16.6469 10.6405L16.8056 10.8523C17.276 11.4799 17.475 12.2709 17.3579 13.0474L17.2968 13.4529C17.2135 14.0049 17.0131 14.5327 16.7091 15.0004L16.687 15.0342L16.3486 15.4869L15.978 15.9072L15.6385 16.2342C15.3285 16.5327 14.9895 16.7994 14.6267 17.0303L14.5117 17.1034L14.2918 17.2085C14.2351 17.2355 14.1878 17.1577 14.2378 17.1196L14.5439 16.8286L14.6069 16.7623C14.777 16.5831 14.8993 16.3637 14.9624 16.1245L14.9915 16.0142C15.0046 15.9646 15.0112 15.9128 15.0112 15.8615C15.0112 15.5809 14.8132 15.3349 14.5387 15.281C14.3684 15.2475 14.1922 15.2917 14.0576 15.4014L13.7544 15.6485L13.2192 16.0878C12.868 16.3761 12.4874 16.6264 12.0838 16.8345L11.5308 17.1196L10.5962 17.4752L10.4 17.5289C10.0587 17.6223 9.71035 17.6873 9.35843 17.7233L9.09766 17.75H8.25977L7.14795 17.6288L6.54634 17.4982C6.22901 17.4293 5.92192 17.3194 5.63272 17.1714C5.39743 17.051 5.17546 16.906 4.97043 16.7389L4.50537 16.3598C3.94157 15.9279 3.58836 15.275 3.53454 14.5654L3.50635 14.1937L3.53952 13.6706C3.59123 12.8554 3.90245 12.0784 4.42736 11.454C4.6396 11.2016 4.88363 10.9778 5.15332 10.7884L5.25229 10.7189C5.66417 10.4297 6.12379 10.2157 6.60993 10.0869L6.93677 10.0003C7.36177 9.88762 7.80705 9.87572 8.23743 9.96544L8.57839 10.0365C8.66395 10.0544 8.68203 10.1689 8.60617 10.2124Z" fill="#5E5E5E"/>
</svg>
