<svg xmlns="http://www.w3.org/2000/svg" viewBox="0 0 80 80"><path d="M0-.08h80v80H0z" fill="#e05c43"/><path d="M32.48 40.28c.32-12.92 8.79-18.56 11.73-15.74s1.84 8.9-3.7 12.7-8 3-8 3m8 13.14c-7.52.19-6.73-4.75-6.73-4.75s27.47-9.4 20-28c-3.38-4.71-7.3-6.21-12.78-6.1S28.59 18 24.14 28a44 44 0 00-3.28 12.71s-4.86 1-7.47-1.19-4 0-4 0-4.48 5.25 0 7 11.38 2.08 11.38 2.08c.63 4.63 2.2 9.07 7.91 12.78 9.58 6.23 23.78-.38 23.78-.38A47.31 47.31 0 0069 49.28a2.2 2.2 0 00-.06-3l-2.77-2.88a2.22 2.22 0 00-3-.18c-3.7 3-13.44 10.21-22.7 10.21" fill="#fefefe" fill-rule="evenodd"/></svg>