<?xml version="1.0" encoding="utf-8"?>
<!-- Generator: Adobe Illustrator 18.1.1, SVG Export Plug-In . SVG Version: 6.00 Build 0)  -->
<!DOCTYPE svg PUBLIC "-//W3C//DTD SVG 1.1//EN" "http://www.w3.org/Graphics/SVG/1.1/DTD/svg11.dtd">
<svg version="1.1" id="Layer_1" xmlns="http://www.w3.org/2000/svg" xmlns:xlink="http://www.w3.org/1999/xlink" x="0px" y="0px"
	 viewBox="0 0 64 64" enable-background="new 0 0 64 64" xml:space="preserve">
<path fill="#1E1E1E" d="M58.7,43.8c-0.2-0.3-0.6-0.3-0.9-0.1c0,0-0.5,0.4-1.4,1.1c-0.9,0.7-2.3,1.6-4.1,2.7
	c-1.8,1.1-4.1,2.2-6.8,3.2c-2.7,0.9-5.9,1.7-9.2,1.5c-3.3-0.2-6.7-1.5-9.3-4.2c-1.3-1.3-2.3-3-3.2-4.8c-0.4-0.9-0.8-1.9-1.2-2.8
	l-0.3-0.8l-0.1-0.2l0-0.2l-0.1-0.4c0,0,0,0,0,0c2-0.1,4.1-0.4,6.4-0.8c3.7-0.8,7.8-2,11.7-4.4c0.5-0.3,0.9-0.6,1.4-1
	c0.5-0.4,0.9-0.7,1.4-1.1c0.4-0.4,0.9-0.8,1.3-1.2l0.6-0.6l0.6-0.7c1.6-1.8,3-4,3.9-6.5c0.9-2.5,1.3-5.3,0.6-8.2
	c-0.3-1.4-1-2.8-1.9-4.1C47.3,9.1,46,8,44.6,7.4c-1.4-0.7-2.9-1-4.4-1.1l-0.6,0l-0.1,0c-0.1,0,0.1,0-0.2,0l-0.1,0l-0.2,0
	c-0.3,0-0.6,0-1,0.1c-0.8,0.1-1.5,0.2-2.2,0.4c-2.8,0.8-5.2,2.1-7.4,3.8c-4.3,3.3-7.5,7.7-9.5,12.5c-1.8,4.2-2.5,8.9-1.9,13.4
	c-2.4,0.1-4.6,0.1-6.3,0C8.6,36.3,7,36,5.9,35.8c-0.6-0.1-0.9-0.2-1.2-0.3c-0.3-0.1-0.4-0.2-0.4-0.2c-0.3-0.1-0.6,0-0.8,0.3
	c-0.1,0.3,0,0.7,0.3,0.8c0,0,0.1,0.1,0.4,0.2C4.5,36.8,5,37,5.5,37.2c1.1,0.4,2.8,0.9,5,1.2c2,0.3,4.4,0.6,7.1,0.6
	c1.2,4.6,3.3,8.8,6.6,12c1.7,1.6,3.7,2.9,5.8,3.7c2.1,0.8,4.3,1.1,6.3,1.1c4,0,7.5-1.2,10.3-2.4c2.8-1.3,5.1-2.7,6.9-4.1
	c1.8-1.3,3-2.5,3.9-3.3c0.8-0.8,1.3-1.3,1.3-1.3l0,0C58.9,44.4,58.9,44.1,58.7,43.8z M21.8,31.2c0.2-2.1,0.8-4.2,1.7-6.2
	c1.7-4.1,4.6-7.8,8-10.5c1.7-1.4,3.7-2.4,5.6-3c0.5-0.1,1-0.2,1.4-0.3c0.2,0,0.5,0,0.8-0.1l0.2,0l0,0c0,0,0,0,0,0l0,0l0.4,0
	c0.9,0,1.8,0.2,2.6,0.6c1.5,0.7,2.7,2.1,3.1,3.8c0.5,1.7,0.3,3.7-0.3,5.6c-1.3,3.7-4,7-7.2,9.2c-3.2,2.2-6.8,3.6-10.2,4.5
	c-2.1,0.6-4.2,0.9-6.2,1.2C21.6,34.4,21.6,32.8,21.8,31.2z"/>
</svg>
