<svg xmlns="http://www.w3.org/2000/svg" viewBox="0 0 20 20">
  <rect width="100%" height="100%" fill="#E05C43"/>
  <path fill="#FEFEFE" fill-rule="evenodd" d="M8.5 10.17c.08-3.22 2.2-4.63 2.93-3.92.73.7.46 2.22-.92 3.16-1.39.95-2 .75-2 .75v.01Zm2 3.27c-1.87.05-1.67-1.19-1.67-1.19s6.85-2.34 4.98-6.98C12.97 4.1 12 3.72 10.63 3.75c-1.37.03-3.1.87-4.2 3.36-.44 1-.71 2.08-.82 3.17 0 0-1.22.25-1.87-.3-.65-.54-1 0-1 0s-1.11 1.31 0 1.75c1.12.43 2.84.52 2.84.52a4.1 4.1 0 0 0 1.98 3.18c2.39 1.56 5.93-.1 5.93-.1a11.8 11.8 0 0 0 4.12-2.91.55.55 0 0 0-.01-.75l-.7-.72a.55.55 0 0 0-.74-.05c-.93.75-3.35 2.55-5.66 2.55" clip-rule="evenodd"/>
</svg>