<svg xmlns="http://www.w3.org/2000/svg" viewBox="0 0 20 20">
  <rect width="100%" height="100%"/>
  <path fill="#fff" d="M18 14.44c-.58.15-.94.01-1.27-.48l-2.3-3.2-.32-.45-2.69 3.66c-.3.44-.62.63-1.2.48l3.44-4.66-3.2-4.2c.55-.11.93-.06 1.27.44l2.38 3.25 2.4-3.23c.3-.44.64-.61 1.2-.45l-1.25 1.66-1.68 2.21c-.2.25-.17.43.01.67l3.21 4.3ZM2 9.71l.29-1.4c.76-2.75 3.9-3.9 6.06-2.2 1.26 1 1.57 2.43 1.51 4.02H2.74c-.1 2.86 1.93 4.6 4.54 3.7.9-.3 1.44-1.02 1.71-1.93.14-.45.37-.52.79-.39-.22 1.13-.7 2.07-1.73 2.66-1.53.89-3.72.6-4.87-.63a4.4 4.4 0 0 1-1.09-2.58c-.02-.16-.06-.3-.09-.46V9.7Zm.75-.19H9.2c-.04-2.07-1.32-3.54-3.06-3.55-1.92-.02-3.3 1.42-3.38 3.55Z"/>
</svg>