<svg xmlns="http://www.w3.org/2000/svg" viewBox="0 0 20 20">
  <rect width="100%" height="100%" fill="#202020"/>
  <path fill="#F0AD4E" d="M16.98 2.92c.04-.1.1-.2.12-.21l.07-.04a3.93 3.93 0 0 1-.5 1.84c-.4.8-.96 1.28-2.35 2.08a3.4 3.4 0 0 0-1.8 2.2c-.1.33-.22.99-.3 1.57l-.12.74c-.13.61-.13.62-.05.62.2 0 .96.89 1.36 1.59l.19.32c.56.99 1.4 2.04 2.05 2.58a11.68 11.68 0 0 0 1.68 1.11c.14.13.09.54-.07.54-.02 0-.19-.14-.38-.3a10.37 10.37 0 0 0-1.02-.77c-.15-.14-1.03-.76-1.48-1.04a8.17 8.17 0 0 0-2.63-1.18c-.3 0-.54.18-.82.57-.2.29-.24.35-.55.65-.25.25-.53.42-.83.52-.13.03-.1.14.06.2.15.08.28.28.28.46 0 .14-.14.21-.17.09-.02-.08-.37-.3-.47-.3-.02 0-.02.08 0 .18.08.5.08.53-.02.67a.59.59 0 0 0-.1.18c0 .06-.16.21-.22.21-.05 0-.06-.03-.04-.12.02-.08 0-.15-.04-.2-.06-.07-.07-.12-.02-.28.06-.24.02-.39-.09-.3-.03.03-.07.08-.07.11 0 .04-.06.13-.13.2a.62.62 0 0 0-.16.23c-.03.18-.15.1-.24-.15-.1-.32-.08-.45.16-.64.1-.08.18-.17.18-.21 0-.13-.14-.06-.38.18-.23.23-.25.24-.31.16-.05-.07-.05-.1 0-.21l.16-.36.1-.22h.31c.18 0 .35-.02.4-.04a2.38 2.38 0 0 1 .2-.1c.4-.18.6-.56.6-1.12 0-.34-.02-.41-.16-.65a1.8 1.8 0 0 0-.91-.79 6.8 6.8 0 0 1-1.93-1.16c-.13-.14-.14-.14-.24-.05-.17.16-.3.2-.67.2-.32 0-.38.01-.48.12-.08.08-.11.15-.1.2.1.22.1.25-.02.25-.17 0-.36-.16-.42-.36-.05-.13-.05-.23 0-.43a.83.83 0 0 1 .1-.29c.02-.01.04-.18.04-.37 0-.42.08-.63.3-.83.39-.33.86-.48 2.08-.63.77-.1 1.04-.17 1.38-.4.4-.26.61-.59 1-1.57.87-2.2 1.29-2.57 3.71-3.31l.4-.12.22-.07.27-.08.23-.08c1.45-.44 2.36-1 2.64-1.6Z"/>
  <path fill="#F0AD4E" d="M2.75 5.76c0-1.14.56-2.3 1.66-3.44.28-.28.43-.38.43-.28l-.16.43a3.98 3.98 0 0 0-.36 2.09c.11.56.33 1.01.77 1.56.55.68 1.05 1.07 2.46 1.91 1.31.78 1.51 1.05 1.1 1.47-.3.29-.55.38-1.19.45-1 .1-1.33.17-1.76.36l-.17.07-.06-.34a2.43 2.43 0 0 0-1.08-1.6c-.79-.57-1.08-.86-1.28-1.27-.15-.31-.26-.64-.26-.77 0-.06-.02-.12-.05-.14a1.42 1.42 0 0 1-.05-.5ZM8.87 13.97l-.04.27c-.03.34-.25.78-.51 1.02-.3.29-.5.38-.66.32a2.23 2.23 0 0 0-.42-.08c-.24-.03-.32-.01-.44.05-.12.07-.15.12-.15.27v.02c0 .09 0 .14.02.15.02.01.06-.01.14-.05l.02-.01a.68.68 0 0 1 .2-.07c.1 0 .06.1-.07.15-.13.06-.17.18-.18.55 0 .28.08.4.15.2a.5.5 0 0 1 .2-.2.95.95 0 0 0 .29-.27c.12-.21.19-.25.19-.1 0 .3.15.32.29.02.08-.16.12-.2.18-.18.15.07.34.08.4.02.07-.06.07-.08-.02-.17-.06-.07-.1-.12-.09-.13.1-.08.34-.13.57-.13.42 0 .48-.07.48-.61 0-.55-.15-.94-.38-1.04-.12-.05-.16-.05-.17 0ZM13.1 15.23c-.22-.1-.4-.21-.4-.24 0-.05.08-.05.18.01l.34.17a11.68 11.68 0 0 1 1.91 1.15l.13.1.17.13a7.86 7.86 0 0 0 .46.36l.12.1c.21.13.78.67.78.72 0 .11-.4.19-1.1.21-.48.02-.65.03-.69-.04-.02-.04.01-.1.06-.22.1-.22.09-.32-.02-.61-.25-.67-.9-1.28-1.94-1.84Z"/>
</svg>