<svg viewBox="0 0 20 20" fill="none" xmlns="http://www.w3.org/2000/svg">
<rect width="20" height="20" fill="#F2F2F2"/>
<path d="M17.4964 6.45713L18 5.15275L17.9781 5.07194L12.9958 6.38463C13.5271 5.61625 13.3446 5 13.3446 5C13.3446 5 11.7535 6.01606 10.5503 5.9895C9.34706 5.96288 8.95919 5.64175 7.11419 6.23031C5.26919 6.81844 4.74794 8.62375 4.213 9.01156C3.67806 9.39938 2 10.6627 2 10.6627L2.00362 10.6851L3.51656 10.2034C3.51656 10.2034 3.10156 10.5944 2.22 11.7825L2.17881 11.7444L2.18037 11.7528C2.18037 11.7528 2.88888 12.8356 3.58431 12.6354C3.65419 12.6151 3.73287 12.5817 3.81887 12.5379C4.09887 12.6938 4.46431 12.8471 4.86781 12.8893C4.86781 12.8893 4.59469 12.5718 4.36681 12.2105C4.42831 12.1709 4.49144 12.1297 4.55556 12.088L4.52581 12.1089L5.10188 12.3205L5.03831 11.7789C5.04037 11.7778 5.04194 11.7763 5.044 11.7752L5.61019 11.9832L5.53981 11.4906C5.61051 11.4535 5.68211 11.4182 5.75456 11.3848L6.34475 9.15244L8.78506 7.48781L8.59113 7.97581C8.09638 9.19256 7.16738 9.47981 7.16738 9.47981L6.7795 9.62681C6.49125 9.96775 6.36975 10.0517 6.27075 11.196C6.50325 11.1376 6.72531 11.1235 6.9265 11.1778C7.96919 11.4588 8.33044 12.7152 8.04944 13.0629C7.97906 13.1499 7.81175 13.2985 7.60063 13.4732H7.17731L7.17156 13.8162C7.15694 13.8277 7.14238 13.8386 7.12825 13.8501H6.69763L6.69244 14.1848C6.65438 14.214 6.61631 14.2421 6.57987 14.2698C6.17531 14.2781 5.66281 13.9251 5.66281 13.9251C5.66281 14.2463 5.93031 14.7405 5.93031 14.7405C5.93031 14.7405 5.948 14.7322 5.97769 14.7176C5.95163 14.7369 5.93706 14.7473 5.93706 14.7473C5.93706 14.7473 7.01981 15.4693 7.70175 15.2019C8.308 14.9641 9.87775 13.7265 11.2327 13.1406L15.3329 12.0604L15.8735 10.6596L12.7487 11.4827V10.2248L16.4152 9.25875L16.9558 7.85794L12.7498 8.96631V7.70775L17.4964 6.45713Z" fill="black"/>
</svg>
