<svg xmlns="http://www.w3.org/2000/svg" viewBox="0 0 20 20">
  <rect width="100%" height="100%" fill="#fff"/>
  <path d="M18.8993 5.734 19.5 4.1858l-.0248-.0991-5.9204 1.5606C14.1864 4.7308 13.9697 4 13.9697 4s-1.8889 1.2076-3.3194 1.1767c-1.4306-.031-1.8889-.415-4.0812.2848s-2.8116 2.8426-3.4495 3.307C2.488 9.227.5 10.7566.5 10.7566l1.796-.5759s-.5079.483-1.5545 1.8888v.0062c.1672.2354.9042 1.2076 1.635.9971.0805-.0248.1734-.0681.2786-.1177.3283.1858.768.3654 1.2448.4149 0 0-.322-.3715-.5945-.805l.223-.1425-.0372.0248.6874.2477-.0743-.6441h.0062l.6688.2478-.0805-.5884.254-.1238.6997-2.6506L8.551 6.954l-.2292.5822C7.7334 8.9792 6.631 9.3198 6.631 9.3198l-.4583.1795c-.3468.4026-.4892.5017-.6069 1.8641.2787-.0743.5388-.0867.7803-.0247 1.2386.3344 1.666 1.8269 1.3315 2.2418-.0805.0991-.2786.2787-.5325.4831h-.5017l-.0062.4087-.0495.0433h-.514l-.0062.3964-.1363.0991c-.4768.0124-1.09-.4088-1.09-.4088.0063.384.3221.9723.3221.9723l.0557-.0309-.0495.0371s1.2881.8547 2.0994.5388c.7184-.2849 2.5825-1.7526 4.1926-2.4462l4.8677-1.2881.6441-1.6597-3.7096.9784v-1.4987l4.3536-1.1456.6441-1.666-4.9977 1.3191V7.2203l5.6356-1.4863Zm-8.8374 3.1646 1.1581-.3034.0124.0557-.3592.9352-1.1952.3158.3839-1.0033Zm.3964 2.0004-1.1953.3158.3902-1.0033 1.1519-.3034.0186.0557-.3654.9352Zm1.5606-.3345-1.1952.3159.3901-1.0033 1.1519-.3034.0186.0557-.3654.9351Z"/>
</svg>
