<svg viewBox="0 0 20 20" fill="none" xmlns="http://www.w3.org/2000/svg">
<rect width="100%" height="100%" fill="white"/>
<path d="M7.47827 18.0113C8.18778 18.2976 8.95748 18.4675 9.76566 18.4958C10.8594 18.5341 11.8996 18.3074 12.8294 17.8767C11.7144 17.4375 10.7045 16.7952 9.84266 15.9966C9.28396 16.8934 8.45769 17.6018 7.47827 18.0113Z" fill="#FF9100"/>
<path d="M9.84256 15.9969C7.87518 14.1726 6.68168 11.5323 6.78254 8.63622C6.78583 8.5422 6.79076 8.44819 6.79659 8.35425C5.92285 8.12714 5.00462 8.13677 4.1358 8.38214C3.61058 9.3045 3.29368 10.3628 3.2542 11.4963C3.15224 14.4217 4.91809 16.9779 7.47817 18.0116C8.45759 17.602 9.28386 16.8945 9.84256 15.9969Z" fill="#FFC400"/>
<path d="M9.84256 15.9967C10.3 15.2629 10.5773 14.4025 10.6096 13.4755C10.6945 11.0371 9.05948 8.93947 6.79656 8.35413C6.79076 8.4481 6.78583 8.54208 6.78254 8.63613C6.68168 11.5321 7.87518 14.1725 9.84256 15.9967Z" fill="#FF9100"/>
<path d="M10.3565 1.5C9.06772 2.53516 8.05 3.90015 7.43423 5.47253C7.08171 6.3732 6.86019 7.34066 6.79553 8.35477C9.05842 8.94011 10.6935 11.0377 10.6085 13.4761C10.5763 14.4031 10.2981 15.2626 9.8415 15.9974C10.7117 16.805 11.7246 17.4426 12.8282 17.8775C15.0663 16.8402 16.6543 14.6083 16.7462 11.9684C16.8058 10.258 16.1503 8.73358 15.2241 7.44686C14.246 6.08599 10.3565 1.5 10.3565 1.5Z" fill="#DD2C00"/>
</svg>
