<svg xmlns="http://www.w3.org/2000/svg" viewBox="0 0 20 20">
  <rect width="100%" height="100%" fill="#fff"/>
  <path fill="url(#a)" d="M17.6124 6.70307C17.2544 5.84166 16.5282 4.91159 15.9596 4.61758C16.3652 5.40312 16.6466 6.24675 16.794 7.11846L16.7955 7.13228C15.8639 4.80976 14.2842 3.87331 12.994 1.83418C12.9273 1.73022 12.8626 1.62504 12.7999 1.5187C12.7675 1.46315 12.7372 1.40642 12.7091 1.34863C12.6556 1.245 12.6144 1.13549 12.5862 1.0223C12.5863 1.01708 12.5844 1.01203 12.5809 1.00811C12.5775 1.00418 12.5727 1.00167 12.5675 1.00104C12.5624 0.999652 12.5571 0.999652 12.552 1.00104C12.5509 1.00104 12.5492 1.00296 12.548 1.00338C12.5467 1.00381 12.5439 1.00572 12.542 1.00657L12.5452 1.00104C10.4757 2.21279 9.77348 4.45602 9.70885 5.57805C8.88238 5.63486 8.0922 5.93942 7.44139 6.452C7.37349 6.39449 7.30253 6.34069 7.22881 6.29086C7.04107 5.63374 7.03307 4.93829 7.20563 4.27702C6.44562 4.6452 5.7703 5.16713 5.22241 5.80977H5.21858C4.89204 5.39587 4.915 4.03105 4.93371 3.74597C4.83711 3.7848 4.7449 3.83375 4.65862 3.89202C4.37036 4.09776 4.10088 4.32861 3.85334 4.58187C3.57126 4.86787 3.31362 5.17699 3.08314 5.50599V5.50726V5.50577C2.55342 6.25675 2.1777 7.10522 1.97768 8.00219L1.96663 8.05661C1.93624 8.22755 1.90923 8.39907 1.88563 8.57107C1.88563 8.57724 1.88436 8.58298 1.88372 8.58914C1.81159 8.96401 1.7669 9.34363 1.75 9.725V9.76752C1.75181 11.8305 2.52744 13.8178 3.9236 15.3366C5.31977 16.8554 7.23488 17.7952 9.29045 17.9703C11.346 18.1453 13.3925 17.5429 15.0254 16.2821C16.6583 15.0213 17.7588 13.1938 18.1095 11.1608C18.1233 11.0545 18.1345 10.9493 18.1469 10.8419C18.3166 9.43933 18.1329 8.01656 17.6124 6.70307ZM8.11615 13.1525C8.15463 13.171 8.19077 13.191 8.23031 13.2087L8.23605 13.2123C8.19608 13.1932 8.15611 13.1732 8.11615 13.1525ZM16.7961 7.13419V7.12633L16.7976 7.13505L16.7961 7.13419Z"/>
  <path fill="url(#b)" d="M17.6124 6.70304C17.2544 5.84163 16.5282 4.91156 15.9596 4.61755C16.3652 5.40309 16.6466 6.24672 16.794 7.11843V7.1263L16.7955 7.13502C17.4305 8.95231 17.3387 10.9447 16.5391 12.6959C15.5948 14.7221 13.309 16.7988 9.73117 16.6978C5.86527 16.5884 2.46068 13.7197 1.82419 9.96243C1.70833 9.36995 1.82419 9.06956 1.88244 8.58805C1.80298 8.96207 1.75864 9.3427 1.75 9.72497V9.76749C1.75181 11.8305 2.52744 13.8178 3.9236 15.3366C5.31977 16.8554 7.23488 17.7952 9.29045 17.9702C11.346 18.1453 13.3925 17.5429 15.0254 16.2821C16.6583 15.0213 17.7588 13.1938 18.1095 11.1608C18.1233 11.0545 18.1345 10.9493 18.1469 10.8419C18.3166 9.4393 18.1329 8.01653 17.6124 6.70304Z"/>
  <path fill="url(#c)" d="M17.6124 6.70304C17.2544 5.84163 16.5282 4.91156 15.9596 4.61755C16.3652 5.40309 16.6466 6.24672 16.794 7.11843V7.1263L16.7955 7.13502C17.4305 8.95231 17.3387 10.9447 16.5391 12.6959C15.5948 14.7221 13.309 16.7988 9.73117 16.6978C5.86527 16.5884 2.46068 13.7197 1.82419 9.96243C1.70833 9.36995 1.82419 9.06956 1.88244 8.58805C1.80298 8.96207 1.75864 9.3427 1.75 9.72497V9.76749C1.75181 11.8305 2.52744 13.8178 3.9236 15.3366C5.31977 16.8554 7.23488 17.7952 9.29045 17.9702C11.346 18.1453 13.3925 17.5429 15.0254 16.2821C16.6583 15.0213 17.7588 13.1938 18.1095 11.1608C18.1233 11.0545 18.1345 10.9493 18.1469 10.8419C18.3166 9.4393 18.1329 8.01653 17.6124 6.70304Z"/>
  <path fill="url(#d)" d="M13.6086 7.67161C13.6264 7.68415 13.643 7.69669 13.6598 7.70924C13.4528 7.34225 13.1952 7.00624 12.8945 6.71114C10.3337 4.14988 12.2233 1.15771 12.542 1.00571L12.5452 1.00104C10.4757 2.21279 9.77349 4.45601 9.70886 5.57805C9.80495 5.57146 9.90019 5.56338 9.99841 5.56338C10.7327 5.56472 11.4536 5.7605 12.0877 6.13081C12.7218 6.50111 13.2466 7.03273 13.6086 7.67161Z"/>
  <path fill="url(#e)" d="M10.0037 8.18307C9.99012 8.38801 9.26605 9.09486 9.01286 9.09486C6.66993 9.09486 6.28961 10.5122 6.28961 10.5122C6.39335 11.7056 7.225 12.6887 8.23032 13.2086C8.27624 13.2324 8.3228 13.2539 8.36936 13.275C8.45 13.3107 8.53064 13.3437 8.61128 13.374C8.9563 13.4961 9.31767 13.5659 9.68336 13.5809C13.7899 13.7735 14.5854 8.67011 11.6219 7.18922C12.3211 7.09826 13.029 7.27016 13.6086 7.67159C13.2466 7.0327 12.7218 6.50108 12.0877 6.13078C11.4536 5.76048 10.7327 5.5647 9.99841 5.56335C9.90062 5.56335 9.80496 5.57143 9.70887 5.57802C8.88239 5.63483 8.09222 5.93939 7.44141 6.45197C7.56705 6.55826 7.70885 6.70027 8.00753 6.99471C8.56664 7.54552 10.0005 8.11611 10.0037 8.18307Z"/>
  <path fill="url(#f)" d="M10.0037 8.18307C9.99012 8.38801 9.26605 9.09486 9.01286 9.09486C6.66993 9.09486 6.28961 10.5122 6.28961 10.5122C6.39335 11.7056 7.225 12.6887 8.23032 13.2086C8.27624 13.2324 8.3228 13.2539 8.36936 13.275C8.45 13.3107 8.53064 13.3437 8.61128 13.374C8.9563 13.4961 9.31767 13.5659 9.68336 13.5809C13.7899 13.7735 14.5854 8.67011 11.6219 7.18922C12.3211 7.09826 13.029 7.27016 13.6086 7.67159C13.2466 7.0327 12.7218 6.50108 12.0877 6.13078C11.4536 5.76048 10.7327 5.5647 9.99841 5.56335C9.90062 5.56335 9.80496 5.57143 9.70887 5.57802C8.88239 5.63483 8.09222 5.93939 7.44141 6.45197C7.56705 6.55826 7.70885 6.70027 8.00753 6.99471C8.56664 7.54552 10.0005 8.11611 10.0037 8.18307Z"/>
  <path fill="url(#g)" d="M7.05728 6.178C7.12403 6.22051 7.17909 6.2575 7.22735 6.29088C7.03961 5.63376 7.03161 4.93831 7.20418 4.27704C6.44416 4.64522 5.76884 5.16715 5.22095 5.80979C5.26113 5.80873 6.45629 5.78726 7.05728 6.178Z"/>
  <path fill="url(#h)" d="M1.82525 9.96247C2.4611 13.7197 5.86633 16.5884 9.73223 16.6979C13.3101 16.7991 15.5958 14.7221 16.5401 12.6959C17.3397 10.9448 17.4316 8.95235 16.7965 7.13505V7.12719C16.7965 7.12102 16.7952 7.11741 16.7965 7.11932L16.798 7.13314C17.0903 9.04154 16.1196 10.8904 14.6022 12.1406L14.5975 12.1513C11.6408 14.5592 8.8113 13.6041 8.23859 13.2142C8.19862 13.1951 8.15866 13.1752 8.11869 13.1545C6.39482 12.3305 5.68265 10.7599 5.83529 9.41293C5.42608 9.41897 5.0239 9.3062 4.67748 9.0883C4.33106 8.8704 4.05527 8.55671 3.88352 8.18524C4.33604 7.90801 4.85201 7.75128 5.38227 7.73C5.91252 7.70871 6.4394 7.82357 6.91268 8.06364C7.88843 8.50659 8.99875 8.55024 10.0063 8.18524C10.0031 8.11827 8.56916 7.54747 8.01006 6.99687C7.71137 6.70244 7.56958 6.56064 7.44394 6.45413C7.37604 6.39662 7.30507 6.34283 7.23135 6.29299C7.18246 6.25962 7.1274 6.22348 7.06128 6.18011C6.4603 5.78937 5.26513 5.81084 5.22559 5.81191H5.22176C4.89523 5.398 4.91819 4.03319 4.93689 3.74811C4.84029 3.78693 4.74808 3.83589 4.6618 3.89416C4.37355 4.09989 4.10407 4.33074 3.85652 4.584C3.57343 4.8692 3.31473 5.17761 3.08313 5.50599V5.50727V5.50578C2.55341 6.25676 2.1777 7.10523 1.97767 8.0022C1.97363 8.01899 1.6809 9.29877 1.82525 9.96247Z"/>
  <path fill="url(#i)" d="M12.8949 6.71115C13.1957 7.00658 13.4533 7.34294 13.6602 7.71031C13.7055 7.74453 13.7478 7.77855 13.7837 7.8115C15.6517 9.53346 14.673 11.9676 14.6001 12.1408C16.1175 10.8906 17.0873 9.04174 16.7959 7.13334C15.8639 4.80976 14.2842 3.87331 12.994 1.83418C12.9273 1.73022 12.8626 1.62504 12.7999 1.5187C12.7675 1.46315 12.7372 1.40642 12.7091 1.34863C12.6556 1.245 12.6143 1.13549 12.5862 1.0223C12.5863 1.01708 12.5844 1.01203 12.5809 1.00811C12.5775 1.00418 12.5727 1.00167 12.5675 1.00104C12.5624 0.999652 12.5571 0.999652 12.552 1.00104C12.5509 1.00104 12.5492 1.00296 12.5479 1.00338C12.5467 1.00381 12.5439 1.00572 12.542 1.00657C12.2233 1.15772 10.3336 4.14989 12.8949 6.71115Z"/>
  <path fill="url(#j)" d="M13.7825 7.81043C13.7429 7.77481 13.7017 7.74104 13.659 7.70924C13.6422 7.6967 13.6256 7.68415 13.6077 7.67161C13.0282 7.27018 12.3202 7.09829 11.6211 7.18925C14.5846 8.67099 13.7895 13.7735 9.68253 13.5809C9.31684 13.5659 8.95547 13.4962 8.61045 13.3741C8.52981 13.3439 8.44917 13.3109 8.36852 13.275C8.32197 13.2537 8.27541 13.2325 8.22949 13.2087L8.23523 13.2123C8.80794 13.6032 11.6366 14.5584 14.5942 12.1493L14.5988 12.1387C14.6726 11.9665 15.6513 9.53175 13.7825 7.81043Z"/>
  <path fill="url(#k)" d="M6.2896 10.5122C6.2896 10.5122 6.66992 9.09487 9.01285 9.09487C9.26604 9.09487 9.99075 8.38801 10.0037 8.18308C8.99621 8.54808 7.88589 8.50444 6.91014 8.06148C6.43686 7.82142 5.90998 7.70656 5.37973 7.72784C4.84947 7.74913 4.3335 7.90585 3.88098 8.18308C4.05273 8.55455 4.32852 8.86824 4.67494 9.08614C5.02136 9.30405 5.42354 9.41681 5.83275 9.41077C5.68011 10.7579 6.39228 12.3285 8.11615 13.1523C8.15463 13.1708 8.19077 13.1908 8.23031 13.2084C7.22413 12.6887 6.39334 11.7057 6.2896 10.5122Z"/>
  <path fill="url(#l)" d="M17.6124 6.70307C17.2544 5.84166 16.5282 4.91159 15.9596 4.61758C16.3652 5.40312 16.6466 6.24675 16.794 7.11846L16.7955 7.13228C15.8639 4.80976 14.2842 3.87331 12.994 1.83418C12.9273 1.73022 12.8626 1.62504 12.7999 1.5187C12.7675 1.46315 12.7372 1.40642 12.7091 1.34863C12.6556 1.245 12.6144 1.13549 12.5862 1.0223C12.5863 1.01708 12.5844 1.01203 12.5809 1.00811C12.5775 1.00418 12.5727 1.00167 12.5675 1.00104C12.5624 0.999652 12.5571 0.999652 12.552 1.00104C12.5509 1.00104 12.5492 1.00296 12.548 1.00338C12.5467 1.00381 12.5439 1.00572 12.542 1.00657L12.5452 1.00104C10.4757 2.21279 9.77348 4.45602 9.70885 5.57805C9.80494 5.57146 9.90018 5.56339 9.9984 5.56339C10.7327 5.56473 11.4536 5.76051 12.0877 6.13081C12.7218 6.50112 13.2465 7.03274 13.6086 7.67162C13.029 7.27019 12.321 7.09829 11.6219 7.18926C14.5854 8.67099 13.7903 13.7735 9.68334 13.5809C9.31766 13.5659 8.95629 13.4962 8.61126 13.3741C8.53062 13.3439 8.44998 13.3109 8.36934 13.275C8.32278 13.2537 8.27623 13.2325 8.23031 13.2087L8.23605 13.2123C8.19608 13.1932 8.15611 13.1732 8.11615 13.1525C8.15463 13.171 8.19077 13.191 8.23031 13.2087C7.22413 12.6887 6.39334 11.7057 6.28959 10.5122C6.28959 10.5122 6.66991 9.09489 9.01284 9.09489C9.26603 9.09489 9.99074 8.38804 10.0037 8.1831C10.0005 8.11614 8.56662 7.54534 8.00752 6.99474C7.70883 6.7003 7.56703 6.55851 7.44139 6.452C7.37349 6.39449 7.30253 6.34069 7.22881 6.29086C7.04107 5.63374 7.03307 4.93829 7.20563 4.27702C6.44562 4.6452 5.7703 5.16713 5.22241 5.80977H5.21858C4.89204 5.39587 4.915 4.03105 4.93371 3.74597C4.83711 3.7848 4.7449 3.83375 4.65862 3.89202C4.37036 4.09776 4.10088 4.32861 3.85334 4.58187C3.57126 4.86787 3.31362 5.17699 3.08314 5.50599V5.50726V5.50577C2.55342 6.25675 2.1777 7.10522 1.97768 8.00219L1.96663 8.05661C1.95111 8.12911 1.88159 8.49731 1.8716 8.57639C1.8716 8.58234 1.8716 8.57022 1.8716 8.57639C1.80802 8.95647 1.76741 9.34003 1.75 9.725V9.76752C1.75181 11.8305 2.52744 13.8178 3.9236 15.3366C5.31977 16.8554 7.23488 17.7952 9.29045 17.9703C11.346 18.1453 13.3925 17.5429 15.0254 16.2821C16.6583 15.0213 17.7588 13.1938 18.1095 11.1608C18.1233 11.0545 18.1345 10.9493 18.1469 10.8419C18.3166 9.43933 18.1329 8.01656 17.6124 6.70307Z"/>
  <linearGradient id="a" x1="16.522" x2="2.844" y1="3.634" y2="16.83" gradientUnits="userSpaceOnUse">
    <stop offset=".048" stop-color="#FFF44F"/>
    <stop offset=".111" stop-color="#FFE847"/>
    <stop offset=".225" stop-color="#FFC830"/>
    <stop offset=".368" stop-color="#FF980E"/>
    <stop offset=".401" stop-color="#FF8B16"/>
    <stop offset=".462" stop-color="#FF672A"/>
    <stop offset=".534" stop-color="#FF3647"/>
    <stop offset=".705" stop-color="#E31587"/>
  </linearGradient>
  <radialGradient id="b" cx="0" cy="0" r="1" gradientTransform="translate(15.89 2.887) scale(17.1764)" gradientUnits="userSpaceOnUse">
    <stop offset=".129" stop-color="#FFBD4F"/>
    <stop offset=".186" stop-color="#FFAC31"/>
    <stop offset=".247" stop-color="#FF9D17"/>
    <stop offset=".283" stop-color="#FF980E"/>
    <stop offset=".403" stop-color="#FF563B"/>
    <stop offset=".467" stop-color="#FF3750"/>
    <stop offset=".71" stop-color="#F5156C"/>
    <stop offset=".782" stop-color="#EB0878"/>
    <stop offset=".86" stop-color="#E50080"/>
  </radialGradient>
  <radialGradient id="c" cx="0" cy="0" r="1" gradientTransform="translate(9.613 9.909) scale(17.1764)" gradientUnits="userSpaceOnUse">
    <stop offset=".3" stop-color="#960E18"/>
    <stop offset=".351" stop-color="#B11927" stop-opacity=".74"/>
    <stop offset=".435" stop-color="#DB293D" stop-opacity=".343"/>
    <stop offset=".497" stop-color="#F5334B" stop-opacity=".094"/>
    <stop offset=".53" stop-color="#FF3750" stop-opacity="0"/>
  </radialGradient>
  <radialGradient id="d" cx="0" cy="0" r="1" gradientTransform="translate(11.684 -1.011) scale(12.4436)" gradientUnits="userSpaceOnUse">
    <stop offset=".132" stop-color="#FFF44F"/>
    <stop offset=".252" stop-color="#FFDC3E"/>
    <stop offset=".506" stop-color="#FF9D12"/>
    <stop offset=".526" stop-color="#FF980E"/>
  </radialGradient>
  <radialGradient id="e" cx="0" cy="0" r="1" gradientTransform="matrix(8.17846 0 0 8.17845 7.714 14.396)" gradientUnits="userSpaceOnUse">
    <stop offset=".353" stop-color="#3A8EE6"/>
    <stop offset=".472" stop-color="#5C79F0"/>
    <stop offset=".669" stop-color="#9059FF"/>
    <stop offset="1" stop-color="#C139E6"/>
  </radialGradient>
  <radialGradient id="f" cx="0" cy="0" r="1" gradientTransform="matrix(4.21474 -1.019 1.193 4.9344 10.552 8.501)" gradientUnits="userSpaceOnUse">
    <stop offset=".206" stop-color="#9059FF" stop-opacity="0"/>
    <stop offset=".278" stop-color="#8C4FF3" stop-opacity=".064"/>
    <stop offset=".747" stop-color="#7716A8" stop-opacity=".45"/>
    <stop offset=".975" stop-color="#6E008B" stop-opacity=".6"/>
  </radialGradient>
  <radialGradient id="g" cx="0" cy="0" r="1" gradientTransform="translate(9.397 2.184) scale(5.88357)" gradientUnits="userSpaceOnUse">
    <stop stop-color="#FFE226"/>
    <stop offset=".121" stop-color="#FFDB27"/>
    <stop offset=".295" stop-color="#FFC82A"/>
    <stop offset=".502" stop-color="#FFA930"/>
    <stop offset=".732" stop-color="#FF7E37"/>
    <stop offset=".792" stop-color="#FF7139"/>
  </radialGradient>
  <radialGradient id="h" cx="0" cy="0" r="1" gradientTransform="translate(14.021 -1.548) scale(25.1026)" gradientUnits="userSpaceOnUse">
    <stop offset=".113" stop-color="#FFF44F"/>
    <stop offset=".456" stop-color="#FF980E"/>
    <stop offset=".622" stop-color="#FF5634"/>
    <stop offset=".716" stop-color="#FF3647"/>
    <stop offset=".904" stop-color="#E31587"/>
  </radialGradient>
  <radialGradient id="i" cx="0" cy="0" r="1" gradientTransform="rotate(83.976 6.037 6.538) scale(18.3983 12.0746)" gradientUnits="userSpaceOnUse">
    <stop stop-color="#FFF44F"/>
    <stop offset=".06" stop-color="#FFE847"/>
    <stop offset=".168" stop-color="#FFC830"/>
    <stop offset=".304" stop-color="#FF980E"/>
    <stop offset=".356" stop-color="#FF8B16"/>
    <stop offset=".455" stop-color="#FF672A"/>
    <stop offset=".57" stop-color="#FF3647"/>
    <stop offset=".737" stop-color="#E31587"/>
  </radialGradient>
  <radialGradient id="j" cx="0" cy="0" r="1" gradientTransform="translate(9.258 4.363) scale(15.672)" gradientUnits="userSpaceOnUse">
    <stop offset=".137" stop-color="#FFF44F"/>
    <stop offset=".48" stop-color="#FF980E"/>
    <stop offset=".592" stop-color="#FF5634"/>
    <stop offset=".655" stop-color="#FF3647"/>
    <stop offset=".904" stop-color="#E31587"/>
  </radialGradient>
  <radialGradient id="k" cx="0" cy="0" r="1" gradientTransform="translate(13.395 5.28) scale(17.1528)" gradientUnits="userSpaceOnUse">
    <stop offset=".094" stop-color="#FFF44F"/>
    <stop offset=".231" stop-color="#FFE141"/>
    <stop offset=".509" stop-color="#FFAF1E"/>
    <stop offset=".626" stop-color="#FF980E"/>
  </radialGradient>
  <linearGradient id="l" x1="16.358" x2="4.719" y1="3.563" y2="15.201" gradientUnits="userSpaceOnUse">
    <stop offset=".167" stop-color="#FFF44F" stop-opacity=".8"/>
    <stop offset=".266" stop-color="#FFF44F" stop-opacity=".634"/>
    <stop offset=".489" stop-color="#FFF44F" stop-opacity=".217"/>
    <stop offset=".6" stop-color="#FFF44F" stop-opacity="0"/>
  </linearGradient>
</svg>
