<svg xmlns="http://www.w3.org/2000/svg" viewBox="0 0 20 20"><defs><style>.b{fill:#fff}</style></defs><path fill="#fd9921" d="M0 0h20v20H0z"/><path class="b" d="M9.2 14.74h-.69L8 14.57a7.19 7.19 0 01-.8-.2 8.91 8.91 0 01-1.38-.53 9.34 9.34 0 01-2.11-1.44.11.11 0 01.12-.17h.07c.23.13.47.25.71.37a11.93 11.93 0 001.39.59 11.34 11.34 0 001.3.36l.68.13.46.07.39.05h2.9l.46-.07.67-.14a12.29 12.29 0 001.89-.62.25.25 0 01.19 0 .16.16 0 01.12.13.15.15 0 010 .13l-.08.08a6 6 0 01-.73.46 8.78 8.78 0 01-1.48.63c-.33.1-.67.19-1 .26l-.53.09H9.2zM3.76 6.15h.06a3.06 3.06 0 01.4.07.12.12 0 01.09.13.34.34 0 010 .1v.15c0 .07 0 .11-.12.1L4 6.69a1.29 1.29 0 00-.34 0h-.14A.34.34 0 003.3 7a1 1 0 000 .17v.62h.9c.06 0 .09 0 .1.11v.28c0 .07 0 .1-.11.11h-.91V11a.17.17 0 010 .07.08.08 0 01-.07.07h-.43c-.11 0-.15 0-.15-.15V8.3H2.1a.1.1 0 01-.1-.08V8a.1.1 0 010-.06h.52v-.78a1.33 1.33 0 01.09-.44.76.76 0 01.39-.41 1.17 1.17 0 01.48-.15h.24zM9 9.59a1.31 1.31 0 00.13.62.8.8 0 00.5.43 1.61 1.61 0 00.44.06 2.44 2.44 0 00.85-.13h.11c.07 0 .1 0 .1.09a2.43 2.43 0 010 .27.11.11 0 010 .09l-.13.07a2.72 2.72 0 01-.49.13 3.9 3.9 0 01-.59 0 1.86 1.86 0 01-.74-.17 1.27 1.27 0 01-.62-.65 1.78 1.78 0 01-.14-.55 3.51 3.51 0 010-.56 2.18 2.18 0 01.19-.8 1.34 1.34 0 011-.76 2.19 2.19 0 01.57 0 1.57 1.57 0 01.43.09 1 1 0 01.61.6 1.6 1.6 0 01.11.43 2.66 2.66 0 010 .63v.09a.11.11 0 01-.07.06H9zm0-.44h1.64v-.21a1.54 1.54 0 000-.3.64.64 0 00-.45-.44 1.15 1.15 0 00-.32 0 .81.81 0 00-.37.09.71.71 0 00-.36.4 1 1 0 00-.1.37S9 9.12 9 9.15zm7.42 1.38v-.07l.9-2.46a.69.69 0 01.05-.13.11.11 0 01.1-.06H18l.05.06a.28.28 0 010 .09l-.27.68-.99 2.36v.09a.11.11 0 01-.09.06h-.5a.1.1 0 01-.09-.06A.25.25 0 0116 11l-.69-1.72L14.86 8a.3.3 0 010-.1.19.19 0 010-.08.06.06 0 01.06-.06h.52a.11.11 0 01.07.06l.06.12c.22.64.44 1.27.67 1.91l.21.6zM12.8 8.3h-.51s-.09 0-.09-.09a.28.28 0 010-.09v-.14a.1.1 0 01.08-.1h.5v-.6a1.23 1.23 0 000-.19.13.13 0 000-.06.12.12 0 01.22-.18h.33a.1.1 0 01.09.1v.78h.88a.1.1 0 01.11.1v.29a.11.11 0 01-.11.11h-.88v1.97a.88.88 0 000 .17.29.29 0 00.24.25 1 1 0 00.29 0l.34-.05c.06 0 .1 0 .1.08V11a.13.13 0 01-.09.12l-.21.06a1.8 1.8 0 01-.4 0 1.17 1.17 0 01-.45-.06.73.73 0 01-.47-.52 1.27 1.27 0 010-.34V8.3zM7 8.27a2.37 2.37 0 01.39-.32 1.29 1.29 0 01.46-.14h.27c.07 0 .11 0 .11.12a1 1 0 010 .17v.19c0 .08 0 .11-.13.11H8a1.4 1.4 0 00-1 .29.1.1 0 000 .01V11a.09.09 0 01-.08.09h-.45a.09.09 0 01-.09-.1V7.93a.15.15 0 010-.07.1.1 0 01.08-.07h.36a.1.1 0 01.11.08L7 8v.24zM5.51 9.45V11s0 .07-.08.08H5a.1.1 0 01-.13-.08V7.93a.17.17 0 010-.07.08.08 0 01.13-.07h.46s.09 0 .09.09v1.57z"/><path class="b" d="M14.93 12.42a3.75 3.75 0 00-.48 0h-.56a.07.07 0 01-.06-.1.34.34 0 01.08-.09 2.06 2.06 0 01.42-.21 3.16 3.16 0 01.53-.13A2.73 2.73 0 0116 12l.13.06a.11.11 0 01.07.09 1 1 0 010 .24 2.87 2.87 0 01-.3 1.11 2.15 2.15 0 01-.48.64.18.18 0 01-.07.05h-.06c-.06 0-.1 0-.09-.08a.14.14 0 010-.06c.07-.21.15-.42.23-.63a2.65 2.65 0 00.15-.57.62.62 0 000-.27.22.22 0 00-.11-.14.79.79 0 00-.22-.06 1.77 1.77 0 00-.32.04zM5.19 6.4a.42.42 0 01.22 0 .34.34 0 01.19.3.62.62 0 010 .19.34.34 0 01-.23.22.47.47 0 01-.33 0 .35.35 0 01-.22-.24.49.49 0 010-.24.35.35 0 01.28-.27z"/></svg>