<?xml version="1.0" encoding="UTF-8" standalone="no"?>
<svg
   viewBox="0 0 20 20"
   version="1.1"
   id="svg1362"
   sodipodi:docname="flask.svg"
   inkscape:version="1.1.2 (b8e25be8, 2022-02-05)"
   xmlns:inkscape="http://www.inkscape.org/namespaces/inkscape"
   xmlns:sodipodi="http://sodipodi.sourceforge.net/DTD/sodipodi-0.dtd"
   xmlns="http://www.w3.org/2000/svg"
   xmlns:svg="http://www.w3.org/2000/svg">
  <sodipodi:namedview
     id="namedview1364"
     pagecolor="#ffffff"
     bordercolor="#666666"
     borderopacity="1.0"
     inkscape:pageshadow="2"
     inkscape:pageopacity="0.0"
     inkscape:pagecheckerboard="0"
     showgrid="false"
     inkscape:zoom="36.8"
     inkscape:cx="10"
     inkscape:cy="10"
     inkscape:window-width="2395"
     inkscape:window-height="1224"
     inkscape:window-x="0"
     inkscape:window-y="25"
     inkscape:window-maximized="0"
     inkscape:current-layer="svg1362" />
  <defs
     id="defs1354">
    <style
       id="style1352">.a{fill:#fff}</style>
  </defs>
  <path
     d="m 5.0111668,14.452236 c 1.7936972,-0.908043 5.5726522,-2.819496 5.6398222,-2.837739 0.0282,-0.0083 0.0539,-0.0049 0.0539,-0.0049 a 0.05307287,0.05307287 0 0 1 0.04727,0.03732 c 0.210634,0.497558 0.607021,1.26048 1.330968,1.999354 a 6.4740607,6.4740607 0 0 0 2.352621,1.528333 c 0.0041,0.0017 1.298627,0.534045 3.042566,0.344144 0.01824,-0.0025 0.02985,-0.0066 0.03732,-0.01659 0.02322,-0.02985 -0.01244,-0.07961 -0.02322,-0.193218 -0.0041,-0.03814 0.02571,-0.06302 0.04147,-0.08293 0.05225,-0.06717 0.580484,-0.247121 0.743849,-0.305999 0.02322,-0.0083 0.08293,-0.0066 0.121902,0.01161 0.06219,0.02903 0.139316,0.06883 0.142633,0.07298 0.0066,0.01078 0.311803,-0.134341 0.548144,-0.220584 a 0.30433973,0.30433973 0 0 1 0.09702,-0.0199 0.35658334,0.35658334 0 0 1 0.143463,0.0282 c 0.146779,0.139317 0.502534,0.731411 0.504192,0.734727 0.06219,0.110293 0.152584,0.27117 0.104488,0.419607 -0.04312,0.131025 -0.179951,0.206487 -0.256244,0.247951 -0.02073,0.01161 -0.656776,0.277803 -0.671702,0.301023 -0.02156,0.03566 -0.03317,0.127706 -0.04478,0.185754 a 0.13268217,0.13268217 0 0 1 -0.05225,0.068 6.4267925,6.4267925 0 0 1 -0.348291,0.149267 c -0.197365,0.08044 -0.515803,0.198195 -0.557265,0.182439 -0.04561,-0.01742 -0.07298,-0.06302 -0.08459,-0.08209 -0.03317,-0.05307 -0.05971,-0.154243 -0.07132,-0.171658 -0.0075,-0.01161 -0.01492,-0.01824 -0.02073,-0.01576 a 10.554037,10.554037 0 0 1 -0.848341,0.364878 c -0.978529,0.373168 -2.45296,0.567215 -2.45296,0.567215 a 11.692616,11.692616 0 0 1 -2.846851,0.169128 9.9445284,9.9445284 0 0 1 -1.442919,-0.195706 C 9.8764568,17.638267 9.2876797,17.487341 8.6076833,17.199587 6.3487691,16.244275 5.1496533,14.695211 5.06341,14.597358 l -0.062193,-0.07048 c -0.00913,-0.01078 -0.00335,-0.0282 -0.00335,-0.0282 0,-0.02156 0.00828,-0.03814 0.013267,-0.04644 z M 2.7804483,11.384791 a 11.974566,11.974566 0 0 0 1.4984793,2.288767 c 0.00414,0.0058 0.029854,0.0083 0.038144,0.0033 l 5.9657234,-3.030116 c 0.0049,-0.0025 0.0091,-0.02405 0.0058,-0.03234 A 15.814056,15.814056 0 0 1 9.9162693,9.460895 c 0,0 -0.1525849,-0.5464845 -0.2670231,-1.102091 L 9.6326582,8.275048 c -0.00414,-0.022391 -0.070492,-0.026536 -0.073804,-0.02488 -0.029027,0.013268 -0.053904,0.023221 -0.05556,0.02488 -0.038972,0.03317 -2.1627204,1.0058967 -6.7195236,3.076568 -0.00581,0.0017 -0.00828,0.02488 -0.00335,0.03317 z M 8.9460221,2.1716681 c -0.1036575,-0.072975 -0.2612174,-0.018244 -0.3035097,0 L 0.27109613,5.7690172 A 0.34497364,0.34497364 0 0 0 0.06295137,5.984626 0.33336393,0.33336393 0 0 0 0.08865673,6.2276001 c 0.40302193,0.7662396 0.5978991,1.0730671 0.70487413,1.2994559 0.0107825,0.02405 0.0414651,0.091219 0.1102917,0.1219019 0.0356598,0.016587 0.0688266,0.014098 0.14677954,0.00746 0.062193,-0.00581 0.1384866,-0.013268 0.2255598,-0.02488 a 13.395923,13.395923 0 0 0 0.9967745,2.7606191 c 0.00414,0.0083 0.029027,0.01907 0.037316,0.01493 L 9.4079197,7.222714 c 0.00493,-0.00248 0.012439,-0.024877 0.01161,-0.034829 A 4.3809994,4.3809994 0 0 0 9.3747529,6.9258373 C 9.3540159,6.8346185 9.0322663,5.1628231 9.0198268,2.8997597 9.0190005,2.769565 9.0190005,2.5539561 9.0239671,2.2844453 A 0.21975484,0.21975484 0 0 0 8.9460141,2.1716655 Z"
     id="path185"
     style="display:inline;fill:#38a8be;fill-opacity:1;stroke-width:0.829262" />
</svg>
