<svg xmlns="http://www.w3.org/2000/svg" viewBox="0 0 20 20">
  <rect width="100%" height="100%" fill="#38A8BE"/>
  <path fill="#fff" d="M5.86 13.38c1.49-.74 4.62-2.32 4.68-2.33h.04a.04.04 0 0 1 .04.03 5.31 5.31 0 0 0 3.06 2.9s1.07.44 2.52.28l.03-.01c.02-.03-.01-.07-.02-.16 0-.03.02-.05.03-.07.05-.05.49-.2.62-.25h.1l.12.07.45-.18a.25.25 0 0 1 .2 0c.13.12.42.6.42.6.05.1.13.23.09.35-.04.11-.15.17-.21.2-.02.02-.55.24-.56.25-.02.03-.03.11-.04.16a.1.1 0 0 1-.04.05 5.36 5.36 0 0 1-.75.28c-.04-.02-.06-.06-.07-.07-.03-.04-.05-.13-.06-.14l-.02-.02c-.23.12-.46.22-.7.3-.81.31-2.04.47-2.04.47a9.77 9.77 0 0 1-3.55-.02c-.3-.06-.8-.19-1.36-.43-1.87-.78-2.86-2.06-2.93-2.14l-.06-.05v-.03l.01-.04Zm-1.85-2.52a9.85 9.85 0 0 0 1.28 1.89l4.94-2.5v-.02a12.9 12.9 0 0 1-.3-.95s-.13-.45-.22-.9l-.02-.08c0-.02-.05-.02-.06-.02l-.04.02A401.2 401.2 0 0 1 4 10.86Zm5.11-7.58c-.08-.06-.21-.01-.25 0L1.93 6.24a.29.29 0 0 0-.17.18.27.27 0 0 0 .02.2c.34.63.5.88.59 1.07 0 .02.03.07.09.1h.12c.05 0 .11 0 .19-.02a10.97 10.97 0 0 0 .85 2.29l5.89-2.62V7.4a18.79 18.79 0 0 1-.33-4.03.18.18 0 0 0-.06-.1Z"/>
</svg>