<?xml version="1.0" encoding="utf-8"?>
<!-- Generator: Adobe Illustrator 18.1.1, SVG Export Plug-In . SVG Version: 6.00 Build 0)  -->
<!DOCTYPE svg PUBLIC "-//W3C//DTD SVG 1.1//EN" "http://www.w3.org/Graphics/SVG/1.1/DTD/svg11.dtd">
<svg version="1.1" id="Layer_1" xmlns="http://www.w3.org/2000/svg" xmlns:xlink="http://www.w3.org/1999/xlink" x="0px" y="0px"
	 viewBox="0 0 64 64" enable-background="new 0 0 64 64" xml:space="preserve">
<g>
	<circle fill="#010101" cx="13.2" cy="30.1" r="1.1"/>
	<circle fill="#010101" cx="12.8" cy="27.2" r="1"/>
	<path fill="#010101" d="M58.5,41.1c-0.4-0.3-0.9-0.3-1.3,0c-2.4,2.1-5.2,3.5-8.2,4.1c-0.1-2-1.8-3.6-3.8-3.6
		c-2.1,0-3.8,1.7-3.8,3.7c-5.6-1-13.3-4.7-15.6-17.3c2-0.6,3.4-2.4,3.4-4.4c0-1.3-0.5-2.5-1.5-3.4c-0.7-0.7-1.6-1.1-2.5-1.3v-1.5
		c0-1.2-1-2.1-2.1-2.1h-0.7v-2.3c0-1.1-0.9-1.9-1.9-1.9l-1.5,0.3c0.1-0.3,0.1-0.7,0.1-1c0-2.1-1.7-3.8-3.8-3.8s-3.8,1.7-3.8,3.8
		c0,0.3,0,0.7,0.1,1l-1.3-0.3l-0.2,0C8.8,11.1,8,12,8,13.1v2.3H7.2c-1.2,0-2.1,1-2.1,2.1v5.1c0,16.2,10.3,33.5,29.5,33.5
		c9.9,0,19.1-5.3,24.2-13.7C59,42,58.9,41.4,58.5,41.1z M25.2,21.1c0.4,0.1,0.8,0.4,1.1,0.7c0.5,0.5,0.8,1.2,0.8,1.9
		c0,1-0.7,2-1.7,2.4c-0.2-1.2-0.3-2.4-0.3-3.5L25.2,21.1z M11.1,13.4l1.6,0.3c0.5,0.1,1-0.2,1.1-0.6l0.4-1.1c-0.6-0.3-1-0.9-1-1.6
		c0-1,0.8-1.8,1.8-1.8S17,9.4,17,10.4c0,0.7-0.4,1.3-1,1.6l0.4,1.1c0.2,0.5,0.6,0.7,1.1,0.6l1.6-0.3c0.6-0.1,1.2,0.3,1.2,1v1H10l0-1
		C9.9,13.8,10.5,13.3,11.1,13.4z M7.1,18.4c0-0.6,0.5-1,1-1h14.1c0.6,0,1,0.5,1,1l0,0.6H7.1V18.4z M7.1,21h16.1l0,1.6H7.1V21z
		 M41.3,51c-1.1,0.2-2.2,0.4-3.3,0.4c-1.7,0.1-3.4,0-5.1-0.3c-1.7-0.3-3.3-0.8-4.8-1.5c-1.5-0.7-2.9-1.5-4.2-2.5
		c-1.3-0.9-2.4-2-3.4-3.1c-1-1.1-1.8-2.2-2.5-3.3c-0.7-1.1-1.2-2.1-1.7-3c-0.2-0.5-0.4-0.9-0.6-1.3c-0.2-0.4-0.3-0.8-0.4-1.1
		c-0.3-0.7-0.4-1.3-0.5-1.7c-0.1-0.4-0.2-0.6-0.2-0.6c0,0,0,0,0,0c-0.2-0.5-0.7-0.8-1.3-0.6s-0.8,0.7-0.6,1.3c0,0,0.1,0.2,0.2,0.6
		c0.1,0.4,0.3,0.9,0.6,1.7c0.1,0.4,0.3,0.8,0.5,1.2c0.2,0.4,0.4,0.9,0.7,1.4c0.5,1,1.1,2.1,1.9,3.2c0.8,1.1,1.7,2.3,2.7,3.4
		c1.1,1.1,2.3,2.2,3.7,3.2c1.4,1,2.9,1.8,4.6,2.5c1.6,0.7,3.4,1.2,5.2,1.4c1.8,0.3,3.6,0.3,5.3,0.2c1.1-0.1,2.2-0.3,3.2-0.5v1.2
		c-2.2,0.6-4.5,0.9-6.8,0.9C17.5,54.1,8,39.3,7.2,24.6h16.2c0,0.1,0,0.3,0,0.4c0,0,0,0.1,0,0.1c0.1,0.6,0.1,1.2,0.2,1.9
		c0,0.2,0,0.3,0.1,0.5l0.2,0.9l0,0c1.4,7.2,5.5,17.3,17.5,19V51z M45,51.9c-0.5,0.2-1.1,0.5-1.7,0.7v-5c0.1,0,0.2,0,0.3,0
		c0.5,0,0.9,0,1.4,0V51.9z M45.1,45.7c-0.2,0-0.5,0-0.7,0c-0.1,0-0.3,0-0.4,0c-0.1,0-0.1,0-0.2,0c-0.1,0-0.3,0-0.4,0
		c0,0,0-0.1,0-0.1c0-1,0.8-1.8,1.8-1.8s1.8,0.8,1.8,1.8c0,0,0,0.1,0,0.1c-0.3,0-0.5,0-0.7,0.1C45.9,45.7,45.5,45.7,45.1,45.7z
		 M47,50.9v-3.4c2.3-0.2,4.6-0.8,6.7-1.8C51.8,47.9,49.5,49.6,47,50.9z"/>
</g>
</svg>
