<svg xmlns="http://www.w3.org/2000/svg" viewBox="0 0 20 20"><path d="M0 0h20v20H0z" style="stroke-width:0"/><path d="M3.55 13.84c-.06 0-.11-.02-.16-.07-.05-.04-.07-.1-.07-.17 0-.03 0-.06.02-.1l2.71-7.26c.02-.07.07-.14.13-.2s.15-.08.26-.08h1.23c.11 0 .2.03.26.08.06.06.1.12.14.2l2.71 7.26s.01.07.01.1c0 .07-.02.12-.07.17-.04.05-.1.07-.16.07h-.98c-.11 0-.18-.02-.23-.07a.527.527 0 0 1-.1-.14l-.53-1.37H5.38l-.53 1.37s-.05.09-.1.14c-.05.05-.13.07-.23.07h-.98Zm2.23-2.88h2.55L7.05 7.48l-1.27 3.48ZM13.4 13.95c-.39 0-.74-.08-1.06-.23-.31-.15-.56-.36-.75-.62-.18-.26-.28-.55-.28-.87 0-.52.21-.94.64-1.25.43-.31.99-.52 1.68-.62l1.54-.23v-.24c0-.32-.08-.56-.24-.73-.16-.17-.43-.26-.81-.26-.27 0-.49.05-.66.16-.17.11-.29.25-.38.43a.29.29 0 0 1-.26.15h-.89c-.08 0-.14-.02-.19-.07-.04-.04-.06-.1-.06-.18 0-.12.06-.27.15-.44.09-.17.24-.34.43-.5.19-.16.44-.3.75-.41s.68-.17 1.11-.17c.47 0 .87.06 1.2.17.33.12.59.27.78.47s.34.42.43.69c.09.26.14.54.14.83v3.53a.273.273 0 0 1-.27.27h-.91a.28.28 0 0 1-.2-.08.264.264 0 0 1-.07-.19v-.44c-.1.14-.23.27-.39.39-.17.13-.37.23-.6.31-.24.08-.52.12-.84.12Zm.38-1.07c.26 0 .5-.06.71-.17.21-.11.38-.29.51-.52s.19-.53.19-.89v-.24l-1.12.18c-.44.07-.77.18-.99.33-.22.15-.33.33-.33.55 0 .17.05.31.15.42.1.12.23.2.39.26s.32.08.5.08Z" style="fill:#fff;stroke-width:0"/></svg>