<svg xmlns="http://www.w3.org/2000/svg" viewBox="0 0 20 20"><defs><style>.b{fill:#fff}</style></defs><path fill="#0a2032" d="M0 0h20v20H0z"/><path class="b" d="M16.2 14.87C16.2 17 14.56 18 12.4 18a5.94 5.94 0 01-3.14-.82V15a5.21 5.21 0 003.09 1.13c1 0 1.69-.36 1.69-1.13s-.61-1.13-1.9-1.44c-2.11-.46-3-1.34-3-3.09 0-2.06 1.54-3.08 3.6-3.08a5.48 5.48 0 012.93.77v2a4.8 4.8 0 00-2.83-1c-1 0-1.49.46-1.49 1.13s.41 1 1.59 1.34c2.29.56 3.26 1.37 3.26 3.24z"/><path class="b" d="M10.13 7.61a3.09 3.09 0 00-1.31 1.91H7.65v8.38H5.39V9.52H3.8V7.61h1.59v-1.9C5.39 3.19 6.78 2 8.84 2a3.51 3.51 0 012 .52v2.01A3.07 3.07 0 009.09 4c-.92 0-1.49.46-1.49 1.7v2h2.53"/></svg>