<svg xmlns="http://www.w3.org/2000/svg" viewBox="0 0 20 20">
  <rect width="100%" height="100%" fill="#639"/>
  <path fill="#639" d="M16.29 10h-4v1.14h2.74a5.18 5.18 0 0 1-3.32 3.72L5.14 8.29a5.14 5.14 0 0 1 7.23-2.85c.74.38 1.37.92 1.86 1.59l.86-.74a6.28 6.28 0 0 0-11.2 2.34l7.54 7.54A6.43 6.43 0 0 0 16.29 10Zm-12.58.06a6.1 6.1 0 0 0 1.83 4.34 6.2 6.2 0 0 0 4.35 1.83L3.7 10.06Z"/>
  <path fill="#fff" d="M10 2a8 8 0 1 0 0 16 8 8 0 0 0 0-16ZM5.54 14.46a6.2 6.2 0 0 1-1.83-4.35l6.23 6.18a6.49 6.49 0 0 1-4.4-1.83Zm5.83 1.65L3.9 8.63a6.28 6.28 0 0 1 11.2-2.34l-.86.74A5.27 5.27 0 0 0 10 4.86a5.2 5.2 0 0 0-4.86 3.43l6.57 6.57a5.18 5.18 0 0 0 3.32-3.72h-2.74V10h4a6.3 6.3 0 0 1-4.92 6.11Z"/>
</svg>