<svg xmlns="http://www.w3.org/2000/svg" viewBox="0 0 20 20">
  <rect width="100%" height="100%" fill="#4285F4"/>
  <path fill="#fff" d="m4.84 6.45 1.83-1.92-1.22-1.28L3 5.82v7.25l2.45 2.56 1.22-1.28-1.83-1.92V6.45Z"/>
  <path fill="#fff" d="M7.34 10.35c.48 0 .87-.4.87-.9s-.39-.92-.87-.92-.86.41-.86.91.38.91.86.91ZM10.56 8.8c.33.36.33.93 0 1.28a.84.84 0 0 1-1.23 0 .94.94 0 0 1 0-1.28.84.84 0 0 1 1.23 0ZM13.15 10.08a.94.94 0 0 0 0-1.28.84.84 0 0 0-1.22 0 .94.94 0 0 0 0 1.28c.33.36.88.36 1.22 0Z"/>
  <path fill="#fff" d="m13.2 4.53 1.22-1.28 2.46 2.57v7.25l-2.46 2.56-1.22-1.28 1.84-1.92V6.45L13.2 4.53Z"/>
  <path fill="#3E7AE3" fill-rule="evenodd" d="M16.88 13.07V5.82L20 9.08V20H9.53l-4.08-4.37 1.23-1.28-1.84-1.92V6.46l1.84-1.92 5.11 5.36c.15.27.43.45.75.45.48 0 .87-.4.87-.9a.94.94 0 0 0-.06-.35l1.69 1.77v1.56l-1.84 1.92 1.23 1.28 2.45-2.56ZM6.48 9.44c0 .5.39.91.87.91s.86-.4.86-.9-.38-.91-.86-.91-.87.4-.87.9Zm2.6 0c0 .5.38.91.86.91s.87-.4.87-.9-.39-.91-.87-.91-.86.4-.86.9Z" clip-rule="evenodd"/>
</svg>