<svg viewBox="0 0 20 20" xmlns="http://www.w3.org/2000/svg">
<rect width="100%" height="100%" fill="white"/>
<path d="M18.2958 9.21848L14.8029 3.15454C14.536 2.68125 14.0373 2.38494 13.4934 2.375H6.50639C5.96254 2.38428 5.46384 2.68125 5.19689 3.15454L1.7027 9.20257C1.43243 9.67188 1.43243 10.2499 1.7027 10.7192L5.19557 16.8176C5.45985 17.2975 5.95656 17.6038 6.50506 17.625H13.4921C14.04 17.6064 14.538 17.3009 14.8029 16.8216L18.2958 10.7577C18.5681 10.2804 18.5681 9.69574 18.2958 9.21848Z" fill="#4285F4"/>
<path d="M13.9286 7.99156V11.9456L12.5275 13.3442L11.8276 12.6456L12.8768 11.5982V10.7465L11.9099 9.78132C11.9338 9.83899 11.9471 9.90262 11.9471 9.96891C11.9471 10.2427 11.7253 10.4641 11.4511 10.4641C11.2678 10.4641 11.1078 10.3646 11.0221 10.2168L8.09899 7.29224L7.0498 8.33957V11.5989L8.09899 12.6462L7.39909 13.3449L11.5885 17.6251H13.4924C14.0402 17.6065 14.5382 17.3009 14.8032 16.8217L17.7137 11.7693L13.9293 7.99223L13.9286 7.99156ZM8.48215 10.4641C8.2079 10.4641 7.98611 10.2427 7.98611 9.96891C7.98611 9.69514 8.2079 9.47374 8.48215 9.47374C8.7564 9.47374 8.97819 9.69514 8.97819 9.96891C8.97819 10.2427 8.7564 10.4641 8.48215 10.4641ZM9.96628 10.4641C9.69203 10.4641 9.47024 10.2427 9.47024 9.96891C9.47024 9.69514 9.69203 9.47374 9.96628 9.47374C10.2405 9.47374 10.4623 9.69514 10.4623 9.96891C10.4623 10.2427 10.2405 10.4641 9.96628 10.4641Z" fill="#3E7AE3"/>
<path d="M7.04989 8.33877L8.09908 7.29144L7.39918 6.59277L5.99805 7.99143V11.9455L7.39918 13.3441L8.09908 12.6454L7.04989 11.5981V8.33877Z" fill="white"/>
<path d="M8.48264 10.464C8.7566 10.464 8.97868 10.2423 8.97868 9.96879C8.97868 9.69532 8.7566 9.47363 8.48264 9.47363C8.20869 9.47363 7.9866 9.69532 7.9866 9.96879C7.9866 10.2423 8.20869 10.464 8.48264 10.464Z" fill="white"/>
<path d="M10.3177 9.61862C10.5114 9.81199 10.5114 10.1255 10.3177 10.3189C10.124 10.5123 9.80991 10.5123 9.6162 10.3189C9.42248 10.1255 9.42248 9.81199 9.6162 9.61862C9.80991 9.42525 10.124 9.42525 10.3177 9.61862Z" fill="white"/>
<path d="M11.8022 10.3186C11.996 10.1253 11.996 9.81173 11.8022 9.61836C11.6085 9.42499 11.2945 9.42499 11.1007 9.61836C10.907 9.81173 10.907 10.1253 11.1007 10.3186C11.2945 10.512 11.6085 10.512 11.8022 10.3186Z" fill="white"/>
<path d="M11.8283 7.29144L12.5282 6.59277L13.9293 7.99143V11.9455L12.5282 13.3441L11.8283 12.6454L12.8775 11.5981V8.33877L11.8283 7.29144Z" fill="white"/>
</svg>
