<svg xmlns="http://www.w3.org/2000/svg" viewBox="0 0 20 20">
  <rect width="100%" height="100%" fill="#fff"/>
  <path fill="#EA4335" d="M12.15 6.8h.49l1.4-1.4.06-.59A6.25 6.25 0 0 0 3.93 7.86a.76.76 0 0 1 .49-.02l2.78-.46s.14-.24.21-.22a3.47 3.47 0 0 1 4.75-.36Z"/>
  <path fill="#4285F4" d="M16.01 7.86a6.27 6.27 0 0 0-1.89-3.04l-1.95 1.95a3.47 3.47 0 0 1 1.28 2.75v.35a1.74 1.74 0 1 1 0 3.47H9.97l-.35.36v2.08l.35.35h3.48A4.52 4.52 0 0 0 16 7.86Z"/>
  <path fill="#34A853" d="M6.5 16.1h3.47v-2.77H6.49c-.25 0-.5-.06-.72-.16l-.48.15-1.4 1.4-.13.48c.79.6 1.75.91 2.73.9Z"/>
  <path fill="#FBBC05" d="M6.5 7.08a4.52 4.52 0 0 0-2.74 8.1l2.02-2.01a1.74 1.74 0 1 1 2.3-2.3l2.01-2.01a4.51 4.51 0 0 0-3.6-1.78Z"/>
</svg>