<svg id="Layer_1" data-name="Layer 1" xmlns="http://www.w3.org/2000/svg" viewBox="0 0 20 20"><defs><style>.cls-2{fill:#333}</style></defs><path fill="#fff" d="M0 0h20v20H0z"/><path class="cls-2" d="M6.46 7.7L5.4 6.64a.24.24 0 0 0-.35 0l-1.95 2-1.24 1.18a.27.27 0 0 0 0 .36l1.24 1.23 1.95 1.95a.24.24 0 0 0 .35 0l1.06-1.06a.25.25 0 0 0 0-.36L4.51 10l2-1.94a.25.25 0 0 0-.05-.36zM14.6 6.64L13.54 7.7a.25.25 0 0 0 0 .36l2 1.94-2 1.94a.25.25 0 0 0 0 .36l1.06 1.06a.24.24 0 0 0 .35 0l1.95-1.95 1.24-1.23a.27.27 0 0 0 0-.36L16.9 8.59 15 6.64a.24.24 0 0 0-.4 0z"/><rect class="cls-2" x="9" y="4" width="2" height="12" rx=".33" ry=".33" transform="rotate(20.96 10.013 10)"/></svg>