<svg id="Layer_1" data-name="Layer 1" xmlns="http://www.w3.org/2000/svg" viewBox="0 0 20 20"><defs><style>.cls-2{fill:#333}</style></defs><path fill="#d1ccd6" d="M0 0h20v20H0z"/><path class="cls-2" d="M6.87 8l-.93-1a.24.24 0 0 0-.32 0L3.91 8.75l-1.1 1.09a.24.24 0 0 0 0 .32l1.1 1.09L5.62 13a.24.24 0 0 0 .32 0l.93-1a.21.21 0 0 0 0-.31L5.16 10l1.71-1.72a.21.21 0 0 0 0-.28zM17.19 9.84l-1.1-1.09L14.38 7a.24.24 0 0 0-.32 0l-.93 1a.21.21 0 0 0 0 .31L14.84 10l-1.71 1.72a.21.21 0 0 0 0 .31l.93.94a.24.24 0 0 0 .32 0l1.71-1.72 1.1-1.09a.24.24 0 0 0 0-.32z"/><rect class="cls-2" x="4.7" y="9.12" width="10.6" height="1.77" rx=".29" ry=".29" transform="rotate(-69.04 9.997 10.003)"/></svg>