<svg id="Layer_1" data-name="Layer 1" xmlns="http://www.w3.org/2000/svg" viewBox="0 0 20 20"><defs><style>.cls-1{fill:#fff;}.cls-2{fill:#333;}</style></defs><title>generic</title><rect class="cls-1" width="20" height="20"/><path class="cls-2" d="M6.46,7.7,5.4,6.64a.24.24,0,0,0-.35,0l-1.95,2L1.86,9.82a.27.27,0,0,0,0,.36L3.1,11.41l1.95,1.95a.24.24,0,0,0,.35,0L6.46,12.3a.25.25,0,0,0,0-.36L4.51,10l2-1.94A.25.25,0,0,0,6.46,7.7Z"/><path class="cls-2" d="M14.6,6.64,13.54,7.7a.25.25,0,0,0,0,.36l2,1.94-2,1.94a.25.25,0,0,0,0,.36l1.06,1.06a.24.24,0,0,0,.35,0l1.95-1.95,1.24-1.23a.27.27,0,0,0,0-.36L16.9,8.59,15,6.64A.24.24,0,0,0,14.6,6.64Z"/><rect class="cls-2" x="9" y="4" width="2" height="12" rx="0.33" ry="0.33" transform="translate(4.24 -2.92) rotate(20.96)"/></svg>