<svg xmlns="http://www.w3.org/2000/svg" viewBox="0 0 20 20">
  <rect width="100%" height="100%" fill="#008FD0"/>
  <path fill="#FBFCFC" d="M1.81 6.19c.1.03.12-.08.15-.13.06-.12.23-.17.24-.33.02.02.03 0 .03-.01.09 0 .16-.03.24-.06.63-.22 1.25-.47 1.9-.6.61-.13 1.22-.18 1.83.02.26.08.46.27.7.38 1.61.76 2.28 2.9 1.39 4.44-.46.8-1.23 1.18-2.02 1.52-.24.1-.5.14-.76.14a4 4 0 0 1-3.42-1.63 2.98 2.98 0 0 1-.63-2.35c.05-.34.18-.65.3-.96.05-.14.12-.28.05-.43Zm-.1 2.45c-.01.38.21.66.63.78.22.07.45.06.68.08.55.06 1.09-.25 1.3-.78.07-.18.1-.37.02-.55-.12-.3-.27-.57-.52-.78a.98.98 0 0 0-.7-.25c-.68.03-1.4.8-1.42 1.5Z"/>
  <path fill="#030303" d="M9.86 10.42c.96.03 1.8.4 2.5 1.05.55.5.96 1.08 1.18 1.8.13.42.1.48-.28.72-.23.14-.46.28-.68.44-.56.42-.61.78-.52 1.4.09.58-.27 1.01-.88.88-.28-.06-.56-.16-.84-.22-.37-.08-.73-.08-1 .29-.1.13-.24.09-.43-.02-.46-.26-.54-.71-.61-1.17-.05-.31-.06-.62-.12-.93-.06-.32-.2-.61-.5-.8-.16-.08-.33-.11-.5-.15-.14-.03-.17-.1-.2-.23-.12-.7.25-1.2.7-1.65.36-.35.8-.62 1.12-1 .3-.33.64-.43 1.06-.4Zm2.22 3.36c.27.01.54-.03.8-.14.14-.06.24-.12.17-.3-.03-.08-.02-.17-.04-.26-.1-.45-.32-.82-.78-.98-.2-.07-.38-.04-.57-.04-.2 0-.4-.02-.59 0-.56.1-1.12.21-1.7.23-.36.01-.72-.02-1.06-.18-.05-.02-.1-.05-.16-.03-.17.04-.32.1-.47.19-.34.22-.48.57-.38.93.1.3.33.47.6.6.23.12.43.09.63-.07.05-.05.12-.07.18-.1a3.04 3.04 0 0 1 1.73-.09c.54.1 1.07.25 1.64.24Zm-.16 1.51a1.54 1.54 0 0 0-.56-1.14c-.16-.13-.35-.2-.53-.08a.66.66 0 0 0-.35.58l.03.69c.02.24.04.48.15.7.14.32.45.42.74.24.35-.2.52-.53.52-.99Zm-1.86-.18-.01-.21a1.69 1.69 0 0 0-.21-.7c-.21-.34-.48-.35-.7-.01-.06.09-.1.2-.15.3-.16.3-.12.66-.2 1-.05.16-.06.32-.04.49.01.16.1.27.26.28.4 0 .73-.1.93-.53.1-.2.12-.4.12-.62ZM15.11 11.7a4.7 4.7 0 0 1-2.24-.57 4.46 4.46 0 0 1-1.47-1.16 3.2 3.2 0 0 1-.76-1.9c-.1-1.72.87-2.79 2.2-3.63.5-.31 1.04-.42 1.63-.44.8-.02 1.55.12 2.27.48a3.83 3.83 0 0 1 2 2.24c.16.46.28.92.26 1.4-.03.5-.15.95-.37 1.37a4.11 4.11 0 0 1-3.52 2.21Zm-3.83-4.09c0 .7.14 1.21.39 1.7.58 1.13 1.82 1.93 3.12 1.72.13-.02.26-.02.38-.01.33.02.66 0 .98-.06a3.12 3.12 0 0 0 2.32-3.57 3.8 3.8 0 0 0-.73-1.46 2.79 2.79 0 0 0-.94-.87A3.9 3.9 0 0 0 13.07 5a2.95 2.95 0 0 0-1.79 2.61ZM1.81 6.19c.07.15 0 .3-.05.43-.12.31-.25.62-.3.96-.13.88.1 1.66.63 2.35a4 4 0 0 0 3.42 1.63c.26 0 .52-.04.76-.14.8-.34 1.56-.73 2.02-1.52.9-1.54.22-3.68-1.38-4.44-.25-.11-.45-.3-.71-.38-.6-.2-1.22-.15-1.83-.02-.65.13-1.27.38-1.9.6-.08.03-.15.07-.24.06.18-.34.47-.57.78-.77a3.62 3.62 0 0 1 2.4-.48c.82.08 1.6.34 2.27.83.75.55 1.3 1.24 1.48 2.18l.05.31v.64a4.57 4.57 0 0 1-.46 1.5 4.03 4.03 0 0 1-2.8 2.02c-.17.04-.35.03-.52.04H4.8a4.05 4.05 0 0 1-3.76-3.25C.98 8.37 1 8 1.06 7.6c.04-.25.03-.51.15-.75.1-.21.22-.41.4-.58.05-.05.11-.1.2-.08Z"/>
  <path fill="#030303" d="M1.7 8.64c.01-.7.74-1.47 1.41-1.5.28-.01.5.08.71.25.25.21.4.49.52.78.07.18.05.37-.02.55-.21.53-.75.84-1.3.78-.23-.02-.46-.01-.68-.08-.42-.12-.64-.4-.64-.78Zm1.96-.14c-.24 0-.36.06-.36.18s.3.47.4.5l.04-.01c.1-.03.32-.28.31-.39-.01-.17-.15-.22-.29-.27l-.1-.01Z"/>
  <path fill="#BF9769" d="M12.08 13.78c-.57 0-1.1-.14-1.64-.24a3.03 3.03 0 0 0-1.73.1c-.06.02-.13.04-.18.09-.2.16-.4.19-.63.08-.27-.14-.5-.3-.6-.61-.1-.36.04-.71.38-.93.15-.1.3-.15.47-.2.07 0 .11.02.16.04.34.16.7.2 1.06.18.58-.02 1.14-.14 1.7-.22.2-.03.4 0 .6 0 .18-.01.37-.04.55.03.47.16.68.53.79.98.02.09.01.18.04.26.06.18-.03.24-.17.3a1.9 1.9 0 0 1-.8.14Z"/>
  <path fill="#FAFBFB" d="M11.92 15.3c0 .45-.17.77-.52.98-.3.18-.6.08-.74-.23-.1-.23-.13-.47-.15-.71-.01-.23-.03-.46-.03-.7 0-.25.14-.44.35-.57.18-.11.37-.05.53.08.38.3.53.72.56 1.14ZM10.06 15.11c0 .22-.03.43-.12.62-.2.44-.54.54-.93.53-.16 0-.25-.12-.26-.28-.02-.17-.01-.33.03-.5.09-.33.05-.68.2-1l.16-.3c.22-.33.49-.32.7.03.12.21.18.44.21.69l.01.21Z"/>
  <path fill="#FBFCFC" d="M11.28 7.61A2.95 2.95 0 0 1 13.07 5a3.9 3.9 0 0 1 3.73.06c.38.21.69.5.94.87.32.45.62.9.73 1.46a3.12 3.12 0 0 1-2.32 3.57c-.32.07-.65.08-.98.06-.12-.01-.25 0-.38.01-1.3.21-2.54-.59-3.12-1.73a3.52 3.52 0 0 1-.4-1.69Zm1.87.77c.1-.09.2-.1.32-.1.18 0 .36.03.54.04.22 0 .3-.1.26-.31a2 2 0 0 0-.75-1.17.92.92 0 0 0-1.12-.04 1.7 1.7 0 0 0-.8 1.35c-.04.64.27 1.02.88 1.14.38.08.75.02 1.1-.1.3-.1.32-.22.08-.42l-.51-.4Z"/>
  <path fill="#FAFBFB" d="m3.66 8.5.1.01c.14.05.28.1.29.27 0 .1-.2.36-.3.39H3.7c-.11-.02-.41-.37-.41-.49s.12-.19.36-.18Z"/>
  <path fill="#030303" d="M13.15 8.38c.17.13.35.26.51.4.24.19.21.32-.07.41-.36.12-.73.18-1.1.1-.62-.12-.93-.5-.89-1.14a1.7 1.7 0 0 1 .8-1.35.92.92 0 0 1 1.12.04c.39.3.63.7.75 1.17.05.22-.04.32-.26.3l-.54-.03a.44.44 0 0 0-.32.1Z"/>
</svg>