<svg viewBox="0 0 20 20" xmlns="http://www.w3.org/2000/svg">
<rect width="100%" height="100%" fill="#DE4C36"/>
<path d="M17.6982 9.28711L10.7125 2.30173C10.3104 1.89942 9.65794 1.89942 9.25538 2.30173L7.80475 3.75236L9.64494 5.59254C10.0726 5.44805 10.563 5.54498 10.9038 5.88586C11.2463 6.22892 11.3426 6.72348 11.1946 7.15248L12.968 8.92598C13.397 8.77817 13.8922 8.8738 14.2348 9.21705C14.7138 9.69579 14.7138 10.4718 14.2348 10.9508C13.7558 11.4299 12.9798 11.4299 12.5005 10.9508C12.1402 10.5902 12.0513 10.0611 12.2336 9.6173L10.5798 7.96342L10.5796 12.3158C10.6994 12.375 10.809 12.4533 10.9038 12.5476C11.3827 13.0263 11.3827 13.8023 10.9038 14.2818C10.4247 14.7606 9.64844 14.7606 9.17006 14.2818C8.69113 13.8023 8.69113 13.0264 9.17006 12.5477C9.28484 12.4328 9.42124 12.3419 9.57138 12.2801V7.88723C9.42102 7.82586 9.28454 7.73486 9.17006 7.61967C8.80718 7.2573 8.71994 6.72486 8.90587 6.2793L7.09187 4.46511L2.30188 9.2548C1.89938 9.65748 1.89938 10.3101 2.30188 10.7124L9.28775 17.6979C9.68994 18.1003 10.3423 18.1003 10.745 17.6979L17.6982 10.7449C18.1006 10.3423 18.1006 9.68942 17.6982 9.28711Z" fill="white"/>
</svg>
