<svg width="20" height="20" viewBox="0 0 20 20" fill="none" xmlns="http://www.w3.org/2000/svg">
<g clip-path="url(#clip0_1_2)">
<path d="M19.6228 9.10889L10.8906 0.377168C10.388 -0.125723 9.57242 -0.125723 9.06922 0.377168L7.25594 2.19045L9.55617 4.49068C10.0907 4.31006 10.7037 4.43123 11.1298 4.85732C11.5579 5.28615 11.6782 5.90435 11.4932 6.4406L13.71 8.65748C14.2463 8.47271 14.8652 8.59225 15.2935 9.02131C15.8922 9.61974 15.8922 10.5897 15.2935 11.1885C14.6947 11.7874 13.7248 11.7874 13.1256 11.1885C12.6753 10.7377 12.5641 10.0764 12.792 9.52162L10.7247 7.45428L10.7245 12.8947C10.8743 12.9688 11.0112 13.0666 11.1298 13.1845C11.7284 13.7829 11.7284 14.7529 11.1298 15.3522C10.5309 15.9508 9.56055 15.9508 8.96258 15.3522C8.36391 14.7529 8.36391 13.783 8.96258 13.1846C9.10605 13.041 9.27655 12.9274 9.46422 12.8501V7.35904C9.27627 7.28232 9.10568 7.16858 8.96258 7.02459C8.50898 6.57162 8.39992 5.90607 8.63234 5.34912L6.36484 3.08139L0.377344 9.0685C-0.125781 9.57185 -0.125781 10.3876 0.377344 10.8905L9.10969 19.6224C9.61242 20.1254 10.4279 20.1254 10.9312 19.6224L19.6227 10.9311C20.1257 10.4279 20.1258 9.61178 19.6228 9.10889Z" fill="#DE4C36"/>
</g>
<defs>
<clipPath id="clip0_1_2">
<rect width="20" height="20" fill="white"/>
</clipPath>
</defs>
</svg>
