<svg  viewBox="0 0 20 20" fill="none" xmlns="http://www.w3.org/2000/svg">
<path d="M0 0H20V20H0V0Z" fill="#609926"/>
<path d="M4.95573 5.27711C3.74323 5.27351 2.11848 6.15026 2.20839 8.34738C2.34886 11.7804 5.44152 12.0989 6.6779 12.1265C6.81354 12.7704 8.26824 14.9914 9.34522 15.1084H14.0637C16.893 14.8942 19.0118 5.37819 17.4412 5.34197C11.4997 5.66012 11.0915 5.61658 6.18868 5.34197C5.87181 5.33851 5.43022 5.2784 4.95573 5.27711ZM5.2721 6.49191C5.44381 8.25079 5.72372 9.27961 6.29054 10.8517C4.84499 10.6584 3.61458 10.1806 3.38838 8.39722C3.2676 7.44534 3.69192 6.44901 5.27222 6.49191H5.2721Z" fill="white" stroke="white" stroke-width="0.2"/>
<path d="M13.7172 9.63613L10.9817 8.30699C10.6336 8.13785 10.2143 8.28292 10.0452 8.63102L8.71604 11.3665C8.5469 11.7146 8.69198 12.1339 9.04008 12.303L11.7755 13.6321C12.1236 13.8013 12.5429 13.6562 12.7121 13.3081L14.0412 10.5727C14.2103 10.2246 14.0653 9.80527 13.7172 9.63613Z" fill="#609926"/>
<path d="M11.5132 8.34112L11.9274 8.54675V5.51611H11.5104L11.5132 8.34112Z" fill="#609926"/>
<path d="M11.2632 10.1363C11.494 10.0532 11.6138 9.79877 11.5307 9.56798C11.4476 9.33719 11.1932 9.21745 10.9624 9.30052C10.7316 9.38359 10.6119 9.63802 10.6949 9.86881C10.778 10.0996 11.0324 10.2193 11.2632 10.1363Z" fill="white"/>
<path d="M10.3101 12.1131C10.5409 12.03 10.6606 11.7756 10.5776 11.5448C10.4945 11.314 10.2401 11.1943 10.0093 11.2773C9.77849 11.3604 9.65874 11.6148 9.74181 11.8456C9.82488 12.0764 10.0793 12.1961 10.3101 12.1131Z" fill="white"/>
<path d="M11.8774 12.8167C12.1082 12.7336 12.228 12.4792 12.1449 12.2484C12.0618 12.0176 11.8074 11.8979 11.5766 11.9809C11.3458 12.064 11.2261 12.3184 11.3091 12.5492C11.3922 12.78 11.6467 12.8998 11.8774 12.8167Z" fill="white"/>
<path d="M11.4793 8.54224L11.7863 8.69215L10.2575 11.8231L9.9505 11.6732L11.4793 8.54224Z" fill="white"/>
<path fill-rule="evenodd" clip-rule="evenodd" d="M11.4846 10.0915C11.3504 10.028 11.1974 9.95573 11.0225 9.86948L11.1739 9.56226C11.3331 9.64071 11.4804 9.71044 11.6141 9.77371C11.8184 9.87042 11.9908 9.95202 12.1248 10.0266C12.3462 10.1498 12.5286 10.2868 12.5875 10.5092C12.6432 10.7197 12.5737 10.9598 12.4549 11.2451C12.3632 11.4652 12.2287 11.7412 12.0586 12.09C12.0021 12.2059 11.9416 12.3299 11.8775 12.4625L11.5691 12.3135C11.6357 12.1756 11.6977 12.0484 11.7551 11.9308C11.9232 11.586 12.0513 11.3234 12.1386 11.1135C12.2591 10.8242 12.2793 10.6837 12.2563 10.5969C12.2365 10.5219 12.1716 10.4446 11.9582 10.3258C11.8323 10.2558 11.6778 10.1828 11.4846 10.0915Z" fill="white"/>
</svg>
