<svg xmlns="http://www.w3.org/2000/svg" viewBox="0 0 20 20"><path d="M0 0h20v20H0z"/><path d="M10 2.25a7.94 7.94 0 00-2.53 15.49c.4.07.55-.18.55-.39S8 16.66 8 16c-2.23.48-2.7-1.06-2.7-1.06a2.12 2.12 0 00-.89-1.17c-.72-.49.06-.48.06-.48a1.68 1.68 0 011.22.82 1.72 1.72 0 002.31.66 1.68 1.68 0 01.51-1.06c-1.78-.2-3.64-.88-3.64-3.93a3 3 0 01.82-2.13 2.82 2.82 0 01.08-2.1s.67-.22 2.2.81a7.54 7.54 0 014 0c1.53-1 2.2-.81 2.2-.81a2.82 2.82 0 01.08 2.1 3 3 0 01.82 2.13c0 3.05-1.87 3.73-3.65 3.92a1.89 1.89 0 01.58 1.47v2.18c0 .26.15.46.55.39A7.94 7.94 0 0010 2.25" fill="#fff"/></svg>