<svg viewBox="0 0 20 20" fill="none" xmlns="http://www.w3.org/2000/svg">
<path d="M0 0H20V20H0V0Z" fill="#F6F3FE"/>
<path d="M17.9947 9.37455C18.0131 9.81026 17.9613 10.2443 17.8411 10.6633C17.7226 11.0823 17.5356 11.478 17.2886 11.8369C17.0431 12.1961 16.7409 12.5129 16.3938 12.7751L16.3854 12.7818L13.0483 15.2825L11.4073 16.5262L10.4073 17.2808C10.3489 17.3259 10.2838 17.3593 10.2154 17.3826C10.1469 17.406 10.0735 17.4177 10 17.4177C9.92822 17.4177 9.85476 17.406 9.78632 17.3826C9.71787 17.3593 9.65277 17.3259 9.59434 17.2808L8.59437 16.5262L6.95336 15.2825L3.63628 12.7968L3.61624 12.7834L3.60957 12.7768C3.26066 12.5147 2.9585 12.1975 2.71143 11.8386C2.46436 11.4797 2.27739 11.0823 2.15719 10.6633C2.037 10.2443 1.98525 9.80859 2.00361 9.37288C2.02364 8.93717 2.11212 8.50813 2.26737 8.1008L2.28908 8.04237L4.47097 2.35809C4.4821 2.33027 4.49546 2.30356 4.51104 2.27796C4.52551 2.25236 4.54276 2.22844 4.56279 2.20618C4.58171 2.18281 4.6023 2.1611 4.62456 2.14107C4.64682 2.12215 4.67019 2.10434 4.69467 2.08765C4.74642 2.05593 4.79984 2.03256 4.85827 2.01921C4.91503 2.00418 4.97513 1.9975 5.03356 2.00084C5.09366 2.00418 5.15208 2.01587 5.20717 2.03757C5.26226 2.0576 5.31568 2.08765 5.36243 2.12438C5.38469 2.1433 5.40639 2.16333 5.42753 2.18448C5.44757 2.20673 5.46537 2.23066 5.48095 2.25626C5.49765 2.28074 5.51212 2.3069 5.52436 2.33472C5.5366 2.36143 5.54662 2.38925 5.55441 2.41819L7.02514 6.92054H12.9782L14.4489 2.41819C14.4567 2.38925 14.4673 2.36143 14.4806 2.33472C14.4929 2.30801 14.5074 2.28186 14.5241 2.25626C14.5396 2.23178 14.5574 2.2084 14.5775 2.18615C14.5975 2.16389 14.6192 2.1433 14.6426 2.12438C14.6893 2.08765 14.7411 2.05927 14.7962 2.03757C14.8529 2.01754 14.9114 2.00585 14.9698 2.00251C15.0299 1.99917 15.0883 2.00418 15.1467 2.01921C15.2035 2.03423 15.2586 2.0576 15.3087 2.08932C15.3343 2.1049 15.3582 2.12271 15.3805 2.14274C15.4027 2.16166 15.4233 2.18281 15.4422 2.20618C15.4611 2.22955 15.4784 2.25403 15.494 2.27963C15.5084 2.30523 15.5212 2.33194 15.5324 2.35976L17.7109 8.04571L17.7326 8.10414C17.8879 8.5098 17.9764 8.93884 17.9947 9.37455V9.37455Z" fill="#E24329"/>
<path d="M17.9964 9.37616C18.0148 9.8102 17.963 10.2459 17.8428 10.6649C17.7226 11.0839 17.5356 11.4813 17.2886 11.8402C17.0415 12.1991 16.7393 12.5163 16.3921 12.7784L16.3838 12.7851L13.0466 15.2858C13.0466 15.2858 11.6293 14.2157 10 12.982L14.7828 9.36281C14.9982 9.20087 15.2235 9.0523 15.4556 8.91541C15.6876 8.77685 15.928 8.65331 16.1734 8.54313C16.4205 8.43295 16.6726 8.33446 16.928 8.25266C17.1851 8.16919 17.4455 8.10074 17.7109 8.04565L17.7326 8.10408C17.8879 8.51141 17.9764 8.94045 17.9964 9.37616V9.37616Z" fill="#FC6D26"/>
<path d="M9.99999 12.9822C11.6293 14.2125 13.0483 15.2859 13.0483 15.2859L11.4073 16.5296L10.4073 17.2842C10.3489 17.3293 10.2838 17.3627 10.2153 17.386C10.1469 17.4094 10.0734 17.4211 9.99999 17.4211C9.92821 17.4211 9.85476 17.4094 9.78631 17.386C9.71787 17.3627 9.65276 17.3293 9.59433 17.2842L8.59437 16.5296L6.95335 15.2859C6.95335 15.2859 8.37067 14.2125 9.99999 12.9822V12.9822Z" fill="#FCA326"/>
<path d="M10 12.9789C8.369 14.2126 6.95336 15.2826 6.95336 15.2826L3.63628 12.7969L3.61624 12.7836L3.60957 12.7769C3.26066 12.5148 2.9585 12.1976 2.71143 11.8387C2.46436 11.4798 2.27739 11.0824 2.15719 10.6634C2.037 10.2444 1.98525 9.8087 2.00361 9.37299C2.02364 8.93727 2.11212 8.50824 2.26737 8.10091L2.28908 8.04248C2.55451 8.09757 2.81494 8.16602 3.07202 8.24948C3.32744 8.33295 3.57952 8.42978 3.82659 8.54163C4.07199 8.65181 4.31238 8.77701 4.54443 8.9139C4.77647 9.05079 5.00017 9.20104 5.21719 9.36297L10 12.9789Z" fill="#FC6D26"/>
</svg>
