<svg xmlns="http://www.w3.org/2000/svg" viewBox="0 0 80 80"><defs><style>.a{fill:#fc6d26}.b{fill:#e24329}.c{fill:#fca326}</style></defs><path class="a" d="M79.85 45.29l-4.48-13.77L66.5 4.2a1.53 1.53 0 00-2.9 0l-8.87 27.3H25.27L16.4 4.2a1.54 1.54 0 00-1.94-1 1.51 1.51 0 00-1 1L4.64 31.5.16 45.29a3 3 0 001.1 3.41L40 76.85 78.73 48.7a3 3 0 001.12-3.41"/><path class="b" d="M40 76.83L54.73 31.5H25.28z"/><path class="a" d="M40 76.83L25.27 31.5H4.65z"/><path class="c" d="M4.63 31.51L.15 45.29a3.06 3.06 0 001.1 3.41L40 76.85z"/><path class="b" d="M4.64 31.51h20.64L16.4 4.21a1.54 1.54 0 00-2.91 0z"/><path class="a" d="M40 76.83L54.73 31.5h20.65z"/><path class="c" d="M75.37 31.51l4.48 13.78a3.05 3.05 0 01-1.11 3.41L40 76.83l35.36-45.32z"/><path class="b" d="M75.38 31.51H54.74l8.86-27.3a1.53 1.53 0 012.91 0l8.87 27.3z"/></svg>