<svg xmlns="http://www.w3.org/2000/svg" viewBox="0 0 20 20">
  <rect width="100%" height="100%"/>
  <path fill="#fff" d="M5.1 11.24a.44.44 0 0 0-.37.25c-.09.15-.28.17-.37.14-.15-.05-.34-.08-.53.05-.18.13-.38.03-.35-.21.04-.25.12-.46.36-.6.5-.29.15-.5.43-.79.28-.3.21-.38.2-.78a2.82 2.82 0 0 1-2.06-1.17 3.71 3.71 0 0 1-.89-2.3c-.06-.95 0-1.56.4-2.34.4-.78.82-1.15 1.55-1.54a4.22 4.22 0 0 1 2.12-.48c.67.02 1.11.07 1.49.28.37.22.71.5.93.5.22 0 .37-.06.48-.15.03.73-.62.8-1.2.81-.58.02-.94-.23-1.48-.14-.53.1-1.4.34-1.84 1.1-.42.74-.44 1-.4 1.64.03.62.57 1.1.87 1.1.3 0 .37-.08.64-.26.26-.17 1.62-1.86 2.08-2.24.46-.38.92-.5 1.4-.5.5-.01.63 0 1.02.17.4.16.64.46.96.65.17-.1.27-.24.42-.35.53-.4.81-.5 1.45-.44.37.03.83.24 1.1.49.5.43.9 1.03 1.23 1.48.25.36.56.78.98.92.47.14.82-.47.88-.81.02-.2.06-.36.06-.57 0-.22-.02-.47-.08-.7a2.45 2.45 0 0 0-.27-.62 2.2 2.2 0 0 0-.8-.76 2.49 2.49 0 0 0-.84-.26c-.32 0-.56.1-.85.12-.36.02-.99.1-1.27-.17-.17-.18-.2-.3-.23-.52.08.06.2.1.29.11.22.02.43-.16.6-.27.16-.09.36-.24.56-.32a3.81 3.81 0 0 1 2.98.3 3.65 3.65 0 0 1 1.62 2.23c.15.67.2 1.69 0 2.35a4.67 4.67 0 0 1-1.03 1.73c-.41.4-.88.58-1.41.68.02.11.02.21.05.3.04.13.11.27.27.22.06-.01.1-.03.17.04.08.07.04.35-.19.47a.87.87 0 0 1-.42.08c-.18 0-.47 0-.67-.03-.2-.03-.32-.2-.54-.22-.35-.04-.61-.29-.89-.47-.11-.07-.15-.07-.22-.1.04.1.09.22.11.32l.03.3.05.21c.05.05.07.13.16.15.1.03.24-.01.33-.02.1-.02.16-.07.24-.06.07.02.14.07.2.12.06.05.12.06.17.19.05.12.1.38.1.55 0 .17-.01.33-.06.46-.05.14-.1.2-.23.33-.14.14-.36.34-.58.48.04.06.06.11.12.18.06.06.2.14.26.21.05.07.08.12.09.2 0 .08 0 .18-.07.26-.16.22-.34.26-.57.36.04.24.07.4.01.65-.02.1-.07.31-.19.37s-.35.03-.49.05l-.34.07c-.07.1-.17.21-.2.3-.04.1-.03.13 0 .22s.13.22.16.33c.03.1.03.22 0 .33a.59.59 0 0 1-.16.28c-.09.1-.27.18-.36.25-.09.08-.18.1-.15.22.03.18.29.46.47.53.11.04.26.03.4-.03-.01.15-.14.26-.23.36.23-.07.45-.2.6-.36-.04.14-.2.38-.45.58-.25.2-.24.16-.37.25.23.04.43.03.6 0-.09.05-.24.12-.45.15-.2.02-.33 0-.51-.04-.19-.05-.36-.22-.58-.34.02.09.04.19.13.28.1.08.24.13.39.2-.2-.02-.4-.03-.59-.07a1.33 1.33 0 0 1-.33-.12c-.1-.05-.19-.12-.28-.18.05.08.06.18.13.25.08.07.2.1.3.14-.1 0-.2.02-.3 0a.87.87 0 0 1-.32-.16 2.35 2.35 0 0 1-.56-.61c-.04-.1.02-.16.03-.24-.07.04-.15.06-.2.13-.04.06-.09.11-.07.22.03.11.12.24.2.36-.21-.17-.33-.24-.38-.44-.05-.2.07-.38.16-.52.05-.08.12-.14.16-.21-.1-.1-.2-.18-.28-.28-.08-.11-.12-.25-.2-.36-.08-.1-.2-.16-.29-.25.09.19.23.41.26.56.03.14-.04.23-.09.3-.05.08-.13.1-.2.15-.08.04-.2 0-.25.08-.04.07-.06.17-.01.24l.18.29a.87.87 0 0 1-.23-.2c-.06-.07-.13-.14-.15-.23 0-.1-.01-.17.05-.26.06-.08.22-.11.3-.18.07-.06.11-.1.1-.18 0-.09-.08-.15-.15-.2-.2-.16-.48-.3-.66-.5a.67.67 0 0 1-.17-.27c-.02-.08 0-.13.05-.23.05-.09.23-.21.25-.31.02-.1-.07-.13-.15-.16-.08-.03-.22.02-.3-.04-.07-.06.02-.2-.06-.27s-.27-.03-.37-.1a.52.52 0 0 1-.17-.29.61.61 0 0 1-.01-.3c.02-.09.09-.1.13-.14.04-.04.08-.08.02-.14-.05-.06-.23 0-.33-.08s-.04-.27-.12-.35c-.07-.08-.2-.05-.27-.07-.07-.03-.1.06-.14-.08-.04-.14-.04-.57-.1-.73-.06-.16-.17-.01-.22-.17-.05-.16 0-.4-.03-.65l-.1-.65c-.37.25-.62.33-1.01.4l-.26.11Z"/>
</svg>