<svg width="20" height="20" viewBox="0 0 20 20" fill="none" xmlns="http://www.w3.org/2000/svg">
<g clip-path="url(#clip0_1_898)">
<rect width="20" height="20" fill="white"/>
<path d="M4.80406 11.4821C4.68172 11.4906 4.52245 11.5467 4.4156 11.7426C4.32837 11.9026 4.12403 11.9281 4.02862 11.8959C3.86969 11.8422 3.66655 11.8049 3.46978 11.9483C3.27301 12.0917 3.06052 11.9833 3.09778 11.7219C3.13505 11.4605 3.22736 11.2277 3.47237 11.0835C4.00748 10.7686 3.63558 10.5494 3.92927 10.2334C4.22354 9.91674 4.15853 9.81983 4.14877 9.38978C3.15421 9.23695 2.59052 8.94371 1.96109 8.13925C1.33165 7.33476 1.08765 6.67257 1.02241 5.66396C0.957165 4.65536 1.01372 4.00171 1.43972 3.1645C1.86571 2.32729 2.31423 1.92427 3.09149 1.50624C3.86875 1.08827 4.63031 0.988161 5.33425 1.00035C6.03818 1.01251 6.50724 1.06527 6.90499 1.29741C7.3027 1.52955 7.66655 1.82168 7.89851 1.82378C8.13049 1.82588 8.28841 1.76372 8.40116 1.67536C8.43125 2.45719 7.74338 2.5251 7.12798 2.54163C6.51255 2.55813 6.1344 2.29771 5.56758 2.39458C5.00076 2.49146 4.07272 2.75531 3.62063 3.56029C3.16855 4.36526 3.15313 4.64982 3.1907 5.32486C3.22827 5.99994 3.79626 6.50358 4.11689 6.50906C4.43748 6.51453 4.50905 6.41956 4.78968 6.23232C5.07035 6.04505 6.50309 4.23075 6.99198 3.82322C7.48089 3.41569 7.96335 3.28985 8.48428 3.28331C9.00521 3.27677 9.13832 3.29484 9.55846 3.47099C9.9786 3.6471 10.2368 3.97147 10.5755 4.16976C10.7486 4.06552 10.8562 3.90986 11.0151 3.79109C11.5832 3.3663 11.8784 3.25183 12.5537 3.31905C12.9419 3.35769 13.4312 3.5845 13.7232 3.84422C14.2432 4.30668 14.6728 4.95053 15.0199 5.43964C15.2902 5.82055 15.6083 6.2763 16.0623 6.41876C16.5581 6.57425 16.9312 5.91739 16.986 5.55304C17.017 5.34659 17.0575 5.16566 17.0578 4.93844C17.0582 4.71119 17.0355 4.43541 16.9714 4.19859C16.9074 3.96176 16.7977 3.7261 16.679 3.53071C16.4857 3.21268 16.1694 2.87987 15.8403 2.70865C15.6556 2.61257 15.2211 2.43787 14.9472 2.43174C14.6116 2.4243 14.3559 2.53963 14.0456 2.56126C13.6701 2.58747 12.9992 2.67384 12.7047 2.37702C12.5174 2.18813 12.4938 2.06212 12.4618 1.81583C12.5446 1.8856 12.6603 1.93147 12.7634 1.94039C12.9986 1.96071 13.2188 1.76428 13.4086 1.65046C13.565 1.55669 13.7864 1.38912 13.9918 1.30443C14.5196 1.08679 15.1678 1.09306 15.7249 1.15136C16.1714 1.19806 16.7504 1.40127 17.142 1.62797C17.5355 1.85567 17.9146 2.23961 18.1924 2.60155C18.5418 3.05695 18.7328 3.44768 18.8593 4.01565C19.0211 4.74097 19.0659 5.83057 18.8704 6.54573C18.7163 7.1093 18.2045 7.97502 17.7689 8.39939C17.3393 8.81798 16.8432 9.02003 16.279 9.13053C16.3011 9.247 16.3047 9.35562 16.3339 9.45111C16.3754 9.58666 16.4547 9.73777 16.6177 9.68997C16.6826 9.67093 16.7174 9.65443 16.8031 9.73109C16.8887 9.80774 16.8441 10.1039 16.6032 10.2368C16.481 10.3042 16.3521 10.3188 16.1564 10.3228C15.9608 10.3268 15.6554 10.3276 15.443 10.2896C15.2306 10.2516 15.1037 10.0791 14.8684 10.0521C14.5049 10.0105 14.2265 9.74187 13.935 9.54971C13.8134 9.4695 13.7723 9.46867 13.7022 9.42814C13.7401 9.54674 13.7906 9.66993 13.8158 9.78395C13.841 9.89797 13.8303 10.0036 13.8437 10.0948C13.857 10.186 13.8817 10.2569 13.8962 10.3309C13.9544 10.3842 13.973 10.4652 14.0708 10.4907C14.1687 10.5162 14.322 10.4765 14.4222 10.4627C14.5223 10.449 14.5894 10.3931 14.668 10.4084C14.7467 10.4237 14.8212 10.4813 14.887 10.5352C14.9529 10.5892 15.0096 10.5971 15.0629 10.7317C15.1162 10.8664 15.1651 11.1421 15.1724 11.3264C15.1797 11.5107 15.1595 11.6771 15.1061 11.8234C15.0527 11.9696 15.0058 12.0345 14.8612 12.1793C14.7166 12.3242 14.4812 12.5368 14.2462 12.6848C14.2895 12.7504 14.3087 12.8104 14.3761 12.8815C14.4436 12.9526 14.5843 13.0324 14.6468 13.1074C14.7094 13.1824 14.7411 13.2363 14.742 13.3204C14.743 13.4046 14.739 13.5139 14.6722 13.6057C14.5058 13.8341 14.3091 13.875 14.0699 13.9824C14.1101 14.2394 14.1429 14.423 14.0848 14.6796C14.061 14.7842 14.0083 15.0212 13.8822 15.082C13.7561 15.1429 13.513 15.1134 13.3591 15.1384C13.2051 15.1634 13.119 15.1872 12.999 15.2116C12.9261 15.3194 12.8175 15.4384 12.7803 15.535C12.7431 15.6317 12.7543 15.6663 12.7856 15.765C12.8169 15.8637 12.9233 16.0074 12.9535 16.123C12.9837 16.2386 12.9895 16.363 12.9614 16.4789C12.9332 16.5948 12.8849 16.6789 12.7884 16.7818C12.6919 16.8847 12.502 16.9655 12.4074 17.0489C12.3127 17.1324 12.2185 17.1424 12.2443 17.2804C12.2798 17.4701 12.5506 17.7776 12.7466 17.8508C12.864 17.8947 13.0216 17.8809 13.1642 17.8193C13.1545 17.9812 13.0175 18.0904 12.928 18.198C13.1704 18.1271 13.4055 17.9913 13.5681 17.8114C13.5177 17.9676 13.3442 18.2185 13.0847 18.4388C12.8251 18.6591 12.8267 18.614 12.6977 18.7017C12.9331 18.7501 13.152 18.737 13.3343 18.7035C13.2344 18.7598 13.0705 18.8391 12.8535 18.8624C12.6364 18.8857 12.5026 18.8693 12.307 18.8207C12.1114 18.772 11.9328 18.5901 11.6958 18.4648C11.7189 18.5547 11.7353 18.6629 11.835 18.7554C11.9347 18.8479 12.0855 18.8949 12.2458 18.9749C12.0418 18.9512 11.8273 18.944 11.6268 18.8988C11.4783 18.8653 11.3786 18.8298 11.2699 18.7748C11.1613 18.7197 11.0775 18.6395 10.9813 18.5718C11.0274 18.6619 11.0411 18.7678 11.1195 18.842C11.198 18.9163 11.3255 18.9439 11.4286 18.9949C11.321 18.9925 11.2176 19.0164 11.1061 18.9877C10.9945 18.959 10.8899 18.914 10.7739 18.8265C10.6579 18.7391 10.5383 18.6315 10.4393 18.5215C10.3404 18.4115 10.2183 18.2688 10.1813 18.1674C10.1443 18.0659 10.2035 17.9949 10.2147 17.9088C10.1463 17.9547 10.0623 17.98 10.0098 18.0466C9.95735 18.1132 9.91083 18.1741 9.93406 18.2903C9.95732 18.4064 10.0621 18.5484 10.1362 18.6776C9.9151 18.4926 9.79162 18.4214 9.739 18.1983C9.68975 17.9894 9.81717 17.7998 9.91403 17.6418C9.96213 17.5634 10.0341 17.4904 10.0791 17.4147C9.9792 17.3147 9.86504 17.2288 9.77943 17.1147C9.69386 17.0007 9.6579 16.8465 9.57054 16.7374C9.48315 16.6283 9.36559 16.5593 9.26322 16.4703C9.3532 16.668 9.50109 16.9106 9.53321 17.0636C9.56529 17.2167 9.49722 17.3103 9.44413 17.393C9.39101 17.4756 9.3053 17.494 9.224 17.5448C9.1427 17.5956 9.01625 17.5555 8.96781 17.6309C8.9194 17.7062 8.9064 17.8196 8.95269 17.8943L9.14256 18.2008C9.07261 18.1647 8.95208 18.0596 8.89775 17.9851C8.84341 17.9106 8.76006 17.8417 8.74865 17.741C8.73723 17.6403 8.73168 17.5528 8.79548 17.4631C8.8593 17.3734 9.03403 17.3433 9.11223 17.2744C9.19043 17.2054 9.2343 17.1605 9.22982 17.0713C9.22538 16.9822 9.14024 16.9184 9.06705 16.8622C8.84362 16.6907 8.55699 16.5328 8.36726 16.3262C8.26007 16.2094 8.20863 16.1152 8.18708 16.0346C8.16557 15.9541 8.18833 15.8913 8.24159 15.7922C8.29484 15.6932 8.47748 15.5609 8.4997 15.4533C8.52188 15.3457 8.42964 15.3226 8.34639 15.2846C8.26313 15.2467 8.10501 15.3041 8.02778 15.2381C7.95059 15.1721 8.05047 15.0333 7.96345 14.9573C7.87646 14.8812 7.67733 14.9237 7.57455 14.8418C7.47177 14.76 7.42928 14.6584 7.39387 14.5396C7.35845 14.4209 7.35445 14.2908 7.37845 14.2048C7.40245 14.1189 7.47456 14.1038 7.51806 14.0592C7.56155 14.0147 7.59929 13.9777 7.54132 13.9113C7.48335 13.8448 7.29338 13.915 7.18417 13.8297C7.07496 13.7444 7.14182 13.5401 7.06459 13.4539C6.9874 13.3678 6.84883 13.4015 6.77571 13.374C6.70263 13.3465 6.67394 13.4436 6.6291 13.2901C6.58426 13.1365 6.58305 12.6788 6.52272 12.508C6.46239 12.3372 6.34393 12.4964 6.28892 12.3267C6.23391 12.1569 6.28606 11.8855 6.26128 11.6291L6.14901 10.9315C5.75735 11.2006 5.4988 11.2851 5.07802 11.3611C5.04291 12.4143 4.94619 13.0345 5.29563 14.2029C5.64508 15.3713 6.35228 16.0599 7.30631 17.0491C6.04741 16.0843 5.44639 15.3 5.07021 14.2952C4.69397 13.2902 4.76622 12.4498 4.80406 11.4821ZM11.4936 11.0588C11.5904 11.0633 11.7081 11.0884 11.7761 11.1336C11.8441 11.1788 11.9164 11.2157 11.9781 11.28C12.1321 11.4405 12.2477 11.634 12.2987 11.8564C12.3313 11.9982 12.3362 12.18 12.348 12.3465C12.3014 12.1926 12.27 12.0322 12.2036 11.8943C12.0989 11.6769 11.921 11.4648 11.7 11.3671C11.6271 11.3348 11.5785 11.3408 11.5383 11.3465C11.5563 11.3773 11.5863 11.4031 11.5876 11.4483C11.589 11.4934 11.5791 11.5818 11.5043 11.6189C11.3836 11.6788 11.2495 11.6366 11.1563 11.5524C11.0623 11.4675 11.0303 11.3238 11.0795 11.2003C11.1381 11.0532 11.3615 11.0528 11.4936 11.0588ZM10.2792 10.8494C10.2913 10.5965 10.3806 10.3832 10.6022 10.2592C10.7168 10.195 10.8933 10.1121 11.0555 10.0926C11.2114 10.0739 11.5904 10.0876 11.8185 10.194C11.9935 10.2758 12.1128 10.4031 12.2666 10.4961C12.4203 10.5891 12.5296 10.6515 12.676 10.7558C12.9007 10.916 13.0324 11.0924 13.1881 11.1981C13.263 11.2489 13.3684 11.2413 13.4679 11.2724C13.3905 11.2959 13.2895 11.3218 13.2061 11.2945C13.102 11.2605 12.9566 11.1632 12.8759 11.0935C12.7333 10.9702 12.6594 10.9101 12.5037 10.8172C12.4108 10.7618 12.2578 10.6965 12.1557 10.6284C12.0535 10.5603 11.8762 10.4108 11.778 10.3603C11.6532 10.296 11.4285 10.2603 11.2896 10.2644C11.0982 10.2701 10.8211 10.3024 10.673 10.4399C10.5259 10.5766 10.47 10.6968 10.5032 10.8742C10.5586 10.8089 10.5955 10.7269 10.651 10.6784C10.766 10.5779 10.898 10.573 11.0411 10.5921C11.2019 10.6135 11.2829 10.7085 11.336 10.8647C11.3002 10.8378 11.2345 10.7788 11.1827 10.7605C11.0609 10.7175 10.9688 10.7308 10.8548 10.7933C10.7201 10.8672 10.7567 10.9766 10.7373 11.0983C10.7284 11.1544 10.7077 11.1995 10.693 11.2502C10.6423 11.2365 10.5955 11.2149 10.5572 11.1761C10.5588 11.2329 10.5507 11.2826 10.5621 11.3465C10.5734 11.4104 10.6038 11.4863 10.6247 11.5562C10.5309 11.4602 10.435 11.3709 10.3744 11.247C10.3138 11.1231 10.2727 10.9855 10.2792 10.8494ZM10.4415 9.00842C10.5106 8.90349 10.5308 8.74253 10.5734 8.61167C10.5564 8.77741 10.5891 8.95969 10.51 9.07974C10.4309 9.19979 10.292 9.17875 10.1769 9.21367C10.2664 9.14383 10.3723 9.11335 10.4415 9.00842ZM8.78679 11.4661C8.87553 11.3927 9.11502 11.4514 9.29415 11.4645C9.16542 11.4982 9.03668 11.532 8.90795 11.5657C8.89597 11.6105 8.90138 11.6619 8.872 11.7C8.84257 11.7383 8.78669 11.7524 8.74407 11.7786C8.74828 11.6609 8.69805 11.5396 8.78679 11.4661ZM10.0489 6.36184C10.1558 6.42073 10.2915 6.49859 10.386 6.501C10.4804 6.50341 10.5051 6.43784 10.5607 6.39999C10.6481 6.69151 10.7484 7.01181 10.8972 7.27632C10.9595 7.38714 10.9993 7.33562 11.0467 7.44699C11.094 7.55833 11.1151 7.78489 11.16 7.92715C11.2049 8.06942 11.2636 8.17411 11.3154 8.29756C11.1838 8.10688 11.0139 7.86376 10.9405 7.70507C10.8673 7.54641 10.9142 7.53261 10.8549 7.38149C10.7955 7.23038 10.6756 6.99483 10.586 6.8015C10.5218 6.81021 10.4424 6.82216 10.3936 6.80677C10.3448 6.79138 10.3546 6.73831 10.3105 6.70401C10.2664 6.66971 10.1922 6.683 10.1304 6.62825C10.0686 6.57352 10.0545 6.46122 10.0489 6.36184ZM9.47322 7.80025C9.57384 7.79123 9.69881 7.81881 9.79303 7.81334C9.88726 7.80786 9.95453 7.78286 10.0353 7.76761C10.0203 7.62242 10.0345 7.35567 9.90349 7.25873C9.81886 7.19612 9.47126 7.24326 9.37842 7.26375C9.16949 7.30983 8.9262 7.43739 8.72414 7.51714C8.91778 7.37877 9.08506 7.25053 9.31732 7.17911C9.45692 7.13616 9.78273 7.08034 9.92682 7.12015C9.9926 7.1383 10.0059 7.16616 10.0458 7.22319C10.1829 7.41907 10.1825 7.58836 10.2181 7.81654C10.2531 7.8723 10.2904 7.90949 10.3187 7.967C10.347 8.02451 10.363 8.11501 10.3709 8.18898C10.335 8.13574 10.357 8.06897 10.2576 8.02933C10.1581 7.98969 10.0058 8.02671 9.87178 8.04104C9.96947 8.11315 10.018 8.18261 10.0218 8.33507C10.0261 8.51407 9.87797 8.6429 9.72328 8.65516C9.50853 8.67221 9.39781 8.62396 9.31095 8.43621C9.27291 8.35397 9.30048 8.25503 9.29732 8.17486C9.03928 8.19322 9.04348 8.18461 8.85489 8.34547C8.9574 8.49909 9.02197 8.58742 9.19137 8.67934C9.28638 8.73092 9.39394 8.78106 9.51166 8.80155C9.62942 8.82204 9.82256 8.84185 9.94624 8.82242C10.07 8.803 10.1401 8.76688 10.2318 8.68013C10.3235 8.59335 10.3319 8.4691 10.3677 8.37088C10.3596 8.46541 10.349 8.5858 10.3147 8.65437C10.2103 8.86282 10.0298 8.9246 9.81435 8.92529C9.60751 8.92598 9.35165 8.87718 9.15922 8.79556C9.00538 8.73034 8.75033 8.54562 8.6898 8.38514C8.64843 8.27549 8.68118 8.14094 8.67684 8.01883C8.88987 7.87391 8.94259 7.90956 9.19464 7.86713C9.30008 7.84936 9.37259 7.80931 9.47322 7.80025ZM8.23229 6.81875C8.23829 6.73194 8.24768 6.7338 8.25539 6.6913C8.06131 6.6382 7.98348 6.76699 7.86969 7.0062C7.8271 7.0957 7.86925 7.14897 7.82357 7.2079C7.77795 7.26682 7.70443 7.25855 7.63033 7.31513C7.55623 7.37168 7.48281 7.47999 7.41353 7.53856C7.27136 7.65878 7.0792 7.73217 6.91431 7.81306C7.02692 7.72807 7.24544 7.59917 7.31614 7.47568C7.35364 7.41021 7.34808 7.28676 7.40646 7.2279C7.4648 7.16902 7.48524 7.12828 7.56058 7.11326C7.63592 7.09825 7.60562 7.00892 7.62993 6.93791C7.65423 6.8669 7.70264 6.81648 7.75415 6.74554C7.80566 6.6746 7.87063 6.56808 7.97233 6.52941C8.07404 6.4907 8.23263 6.53254 8.30962 6.51026C8.38658 6.48798 8.34238 6.43075 8.3983 6.39638C8.45428 6.36201 8.56312 6.37716 8.63789 6.34042C8.77043 6.27523 8.83382 6.16641 8.91354 6.0499C8.92512 6.30068 8.92229 6.48123 8.83419 6.71716C8.73498 6.98271 8.63442 7.13912 8.35285 7.30243C8.25583 7.35866 8.15928 7.37819 8.07885 7.4077C8.12574 7.34227 8.19287 7.31386 8.21957 7.21141C8.2462 7.10889 8.2263 6.9056 8.23229 6.81875ZM12.7783 8.04152C12.6445 8.05044 12.6127 8.03243 12.5056 8.10971C12.5637 8.20214 12.6217 8.29457 12.6797 8.387C12.6746 8.20455 12.692 8.16797 12.7783 8.04152ZM12.4276 7.90894C12.613 7.82815 12.7745 7.76278 12.9763 7.74987C13.0571 7.74467 13.1827 7.75748 13.2643 7.76127C13.3339 7.65651 13.4225 7.5739 13.455 7.45433C13.4765 7.37502 13.4659 7.00692 13.4278 6.91136C13.3169 6.63324 13.2091 6.6215 13.0564 6.46219C12.9456 6.34665 12.9412 6.17071 12.9081 5.97356C12.8959 5.90113 12.8612 5.8095 12.8449 5.73477C12.6453 5.70037 12.4307 5.68904 12.2011 5.70078C12.3125 5.59154 12.4201 5.49174 12.452 5.32775C12.4839 5.16376 12.458 4.96213 12.3668 4.81508C12.2757 4.66804 12.1301 4.53993 11.9965 4.42012C11.8628 4.30031 11.6712 4.20141 11.5446 4.1034C11.7093 4.04307 11.8775 3.95442 12.0389 3.92243C12.4592 3.83902 12.8214 3.96658 13.2268 4.21732C13.4625 4.36316 13.6575 4.5017 13.9039 4.7656C14.1503 5.02946 14.4558 5.51347 14.6943 5.80051C14.9329 6.08754 15.1254 6.31456 15.3335 6.48574C15.5416 6.65697 15.73 6.70573 15.9282 6.81569L16.2371 7.15125L16.4871 6.8348L16.8893 6.88133L16.9725 6.41945L17.3417 6.31597L17.2814 5.69334L17.5469 5.50063L17.3474 5.11324L17.5501 4.68994L17.2858 4.20606L17.3877 3.74015L17.0818 3.47344L17.0418 2.97833L16.615 2.81179L16.4438 2.38105L15.964 2.37554L15.7286 2.05579L15.4055 2.07893L15.0454 2.03881L14.8418 1.88501L14.5462 2.08571L14.1886 1.89497L13.4777 2.17105L13.9411 1.75877L14.4213 1.68032L14.7891 1.58441L15.2858 1.75129L15.7231 1.63799L16.1447 1.89293L16.5908 1.86769L16.81 2.26995L17.2542 2.3224L17.4945 2.76964L17.7739 2.92568L17.848 3.49861L18.0969 3.74002L17.9875 4.24132L18.2806 4.62096L18.0057 5.02773L18.2996 5.28199L17.9239 5.62261L18.3044 6.02797L17.8449 6.17956L18.1442 6.61433L17.7689 6.68059L18.015 7.15865L17.592 7.1529L17.8051 7.51098L17.3411 7.45385L17.4521 7.969L17.1014 7.65345L16.9813 8.2778L16.7393 7.82949L16.6083 8.38865L16.3096 7.97633L16.3177 8.56266L15.9876 8.03546C16.0572 8.33458 16.0432 8.66212 16.2353 8.94413C16.8304 8.86175 17.2193 8.70837 17.6752 8.25961C18.0904 7.85091 18.5867 6.99876 18.7211 6.45826C18.8744 5.84149 18.8791 4.70712 18.7281 4.07919C18.5827 3.47461 18.3938 3.18582 18.0563 2.69247C17.7336 2.34193 17.4163 1.97162 17.0068 1.72164C16.4057 1.35471 15.6349 1.25577 14.9498 1.26531C14.5705 1.27062 14.3164 1.34514 14.0896 1.42951C13.693 1.57704 13.3758 1.89886 12.9726 2.05789C12.8411 2.10972 12.7357 2.11134 12.6321 2.05476C12.7335 2.26227 12.8438 2.35536 13.0967 2.43088C13.2796 2.4855 13.7161 2.45096 14.0166 2.42258C14.3392 2.3921 14.5075 2.29399 14.9465 2.30016C15.3753 2.30618 15.715 2.47279 15.9008 2.58144C16.284 2.80563 16.5589 3.05433 16.7977 3.4483C16.9289 3.66463 17.0207 3.90873 17.0854 4.15781C17.1501 4.4069 17.1785 4.68587 17.1826 4.92972C17.1868 5.17358 17.1686 5.39126 17.1102 5.61069C16.9739 6.12443 16.673 6.64719 16.055 6.56643C15.6768 6.51698 15.1066 5.79083 14.9157 5.52442C14.5304 4.98675 14.134 4.39178 13.6498 3.94402C13.3547 3.67111 12.9505 3.48329 12.5536 3.44613C11.8091 3.37643 11.5883 3.5211 11.0278 3.99365C11.1418 4.03084 11.2531 4.05137 11.37 4.10523C11.6293 4.22476 11.8665 4.37924 12.0733 4.5774C12.2901 4.78509 12.3874 4.91654 12.3951 5.21394C12.4002 5.41144 12.2414 5.56978 12.0958 5.71221C12.0067 5.79944 11.8888 5.8793 11.8166 5.94701C11.721 6.03685 11.6026 6.13514 11.7227 6.27826C11.7679 6.33205 11.8464 6.37262 11.9125 6.42286C12.0175 6.50258 11.9694 6.79888 11.8311 6.87747C11.6541 6.97792 11.4426 6.9667 11.2966 6.83222C11.4809 6.80401 11.5979 6.77901 11.5931 6.62484C11.5903 6.53547 11.4793 6.46122 11.3703 6.4104C11.1074 6.2878 10.9088 6.30588 10.6472 6.1133C10.3829 5.9187 10.3771 5.81215 10.3057 5.50662C10.1782 5.52026 10.0609 5.52325 9.89053 5.58097C9.72015 5.63865 9.53186 5.77599 9.37717 5.80998C8.9876 5.89573 8.90997 5.87031 8.69677 5.81387C8.3214 5.71448 7.83266 5.88464 7.34714 6.0435C7.26641 6.06991 6.9399 6.04439 6.7201 6.12329C6.38062 6.24513 5.9043 6.54019 5.62919 6.77719C5.21235 7.13633 4.66455 8.21116 4.35504 9.44484C4.32251 9.81987 4.42678 10.0725 4.19583 10.2557C3.96489 10.4389 3.97129 10.9082 3.89298 11.0398C3.81468 11.1714 3.72402 11.1132 3.55546 11.298C3.3869 11.4828 3.30109 11.452 3.30533 11.8014C3.45059 11.7037 3.66238 11.5902 3.84834 11.5833C4.01303 11.5772 4.01478 11.799 4.43748 11.3715C4.66354 11.1428 5.09785 11.1359 5.39919 11.035C5.70056 10.9341 6.24361 10.7263 6.7875 10.1042C7.33139 9.48224 7.59165 8.82742 7.69712 7.88073C7.71392 8.04858 7.74307 8.23788 7.67282 8.70089C7.60256 9.1639 7.45113 9.68394 7.77014 10.3068L7.9689 10.6949C7.85057 10.5297 7.61942 10.2603 7.54984 10.0682L7.38932 9.62526C7.03022 10.202 6.94767 10.3052 6.44883 10.7184C6.42896 10.9748 6.42408 11.2421 6.50599 11.4874C6.5879 11.7327 6.45734 12.0154 6.51966 12.177C6.58197 12.3385 6.72609 12.2466 6.77315 12.4101C6.82022 12.5737 6.74858 12.897 6.82156 13.0564C6.89455 13.2158 7.07361 13.1191 7.1604 13.1706C7.24719 13.2221 7.27557 13.2927 7.32199 13.3604C7.36838 13.4281 7.30385 13.5882 7.39825 13.6401C7.49261 13.6921 7.63982 13.6481 7.73803 13.698C7.83623 13.7479 7.85114 13.8678 7.82761 13.9753C7.80404 14.0828 7.69911 14.1321 7.65302 14.2414C7.60697 14.3507 7.61212 14.4268 7.66746 14.5271C7.72281 14.6275 7.84535 14.6828 7.96749 14.7334C8.08962 14.7841 8.26125 14.7556 8.38729 14.8257C8.51333 14.8957 8.62661 15.0353 8.69317 15.1368C8.75972 15.2382 8.7782 15.3097 8.77481 15.4164C8.77137 15.523 8.72909 15.6458 8.67344 15.7488C8.61779 15.8518 8.49502 15.9772 8.6867 16.1739C8.87839 16.3706 8.87132 16.2858 8.98114 16.4134C8.96919 16.1927 8.88004 16.0129 8.94522 15.8467C9.01043 15.6806 9.20619 15.6517 9.30937 15.5769C9.41255 15.5022 9.47197 15.3995 9.55331 15.3108C9.55213 15.4249 9.56408 15.5477 9.55139 15.6336C9.52553 15.8084 9.4751 15.9635 9.72971 15.9916C9.84441 16.0042 9.95331 15.9281 10.074 15.8824C10.0108 15.9982 9.90083 16.0914 9.8843 16.23C9.86777 16.3685 9.88763 16.5207 9.98142 16.6582C10.0752 16.7957 10.2372 16.8977 10.3559 16.9785C10.4746 17.0594 10.5382 17.0658 10.6294 17.1095C10.6339 17.2458 10.6077 17.39 10.6228 17.5183C10.638 17.6466 10.6775 17.7602 10.7501 17.8662C10.8226 17.9723 10.939 18.0332 11.0486 18.1116C10.9885 17.9685 10.8666 17.8327 10.8683 17.6822C10.8699 17.5317 10.914 17.4251 11.0575 17.2915C11.201 17.158 11.5369 17.0422 11.6953 16.9123C11.8537 16.7825 11.9048 16.7029 11.9617 16.5769C12.0185 16.4508 12.0027 16.2477 12.0132 16.1343C12.0654 16.2931 12.0728 16.3424 12.0897 16.5085C12.1068 16.6747 11.9951 16.9077 11.9478 17.0306C12.1438 16.9338 12.2681 16.7791 12.3309 16.6279C12.3729 16.6534 12.3517 16.7233 12.3672 16.8579C12.437 16.7868 12.5164 16.7321 12.5867 16.6651C12.657 16.598 12.7341 16.5391 12.769 16.4455C12.8039 16.3519 12.7896 16.2525 12.7636 16.1437C12.7377 16.035 12.6189 15.9089 12.5549 15.79C12.491 15.6712 12.5663 15.5544 12.5619 15.4112C12.4339 15.3887 12.3253 15.322 12.1782 15.3437C12.031 15.3653 11.8625 15.5342 11.7121 15.5362C11.5618 15.5382 11.4773 15.394 11.354 15.3544C11.2308 15.3148 11.106 15.3192 10.9821 15.3015C11.1391 15.1477 11.7485 15.0744 12.1653 15.0049C12.5321 14.9437 12.8961 14.9083 13.2677 14.903C13.4337 14.9006 13.647 14.9566 13.7622 14.9227C13.8776 14.8889 13.853 14.8086 13.8872 14.721C13.9828 14.4762 13.9357 14.2582 13.8836 14.0117C13.55 13.9717 13.2024 13.9227 12.8662 13.9492C12.5376 13.975 12.1484 14.1348 11.8095 14.1456C11.5148 14.155 11.0784 14.0879 10.8253 13.9301C10.5161 13.7373 10.2768 13.3231 10.1919 13.1902C10.0535 12.9736 9.87905 12.5487 9.77287 12.3545C9.66676 12.1602 9.64336 12.1059 9.55506 12.0248C9.46675 11.9437 9.3458 11.9374 9.2412 11.8937C9.36179 11.9063 9.49345 11.8673 9.603 11.9315C9.76758 12.0281 9.9518 12.4285 10.0542 12.6027C10.1627 12.2307 10.1374 12.0844 10.4514 11.8746C10.1983 12.1647 10.192 12.3844 10.1304 12.726C10.3408 13.0792 10.6333 13.6419 11.016 13.7981C11.1543 13.8545 11.3917 13.8899 11.5412 13.9088C12.0064 13.9677 12.4551 13.8169 12.912 13.7015C13.2459 13.6172 13.5848 13.6512 13.991 13.6756C14.1288 13.6838 14.454 13.599 14.5213 13.4563C14.5577 13.3793 14.555 13.2868 14.5028 13.2048C14.4505 13.1228 14.3112 13.0831 14.2366 13.0093C14.162 12.9355 14.119 12.8478 14.0603 12.7671C13.75 12.8279 13.4949 12.8513 13.2646 12.8577C13.4298 12.7881 13.5882 12.7484 13.7601 12.6796C13.932 12.6109 14.1272 12.498 14.2659 12.4043C14.4047 12.3106 14.4932 12.2563 14.5936 12.1472C14.6939 12.0382 14.8226 11.9258 14.8966 11.7924C14.9706 11.6591 14.9821 11.5099 14.9862 11.3449C14.9904 11.1799 14.9834 10.9484 14.9212 10.8155C14.859 10.6826 14.7392 10.6423 14.6429 10.6108C14.5466 10.5794 14.4806 10.6589 14.3805 10.6696C14.2803 10.6804 14.1866 10.745 14.0418 10.6753C13.8969 10.6056 13.7251 10.4637 13.5786 10.2531C13.4321 10.0425 13.3274 9.69827 13.1781 9.43345C12.9207 8.97694 12.6 8.55051 12.2933 8.12751C12.268 8.0232 12.2301 7.87905 12.2175 7.73754C12.1955 7.49097 12.1913 7.23483 12.2661 6.99445C12.3235 6.81032 12.4068 6.61581 12.5953 6.54029C12.6707 6.51006 12.7662 6.49807 12.8336 6.52362C12.901 6.54914 12.9672 6.62701 12.9407 6.71696C12.9116 6.81586 12.8446 6.81855 12.799 6.86848C12.7218 6.9532 12.6909 7.01536 12.6617 7.12098C12.7452 7.1196 12.858 7.11309 12.9266 7.13155C13.0161 7.15565 13.0994 7.21633 13.1448 7.34602C13.038 7.24915 12.985 7.20469 12.8517 7.20125C12.7906 7.1997 12.7164 7.22205 12.6489 7.23245C12.6236 7.31648 12.6088 7.41951 12.5731 7.48453C12.5375 7.54955 12.4681 7.53395 12.442 7.60992C12.4159 7.68575 12.4144 7.80924 12.4276 7.90894ZM13.3606 7.79505C13.4015 7.81155 13.4171 7.81516 13.4689 7.85549C13.5207 7.89582 13.5922 7.93607 13.6332 8.03243C13.6743 8.12882 13.6724 8.27786 13.6636 8.33858C13.6276 8.32776 13.5785 8.33507 13.5411 8.30238C13.5039 8.2697 13.4816 8.1957 13.4338 8.16402C13.3859 8.13237 13.346 8.13929 13.2931 8.13244C13.3203 8.2115 13.3335 8.29061 13.3209 8.36231C13.2935 8.51882 13.2035 8.5981 13.0579 8.61683C12.9943 8.62499 12.8933 8.60357 12.838 8.59328C12.8636 8.65189 12.9071 8.70324 12.9328 8.76185C13.0559 8.74363 13.1472 8.74621 13.2134 8.71453C13.2796 8.68285 13.3506 8.61187 13.4356 8.58181C13.5206 8.55174 13.5964 8.55223 13.6894 8.53738C13.6161 8.60195 13.5681 8.66656 13.4949 8.73113C13.5486 8.89068 13.6022 9.05019 13.6559 9.20971C13.7696 9.28251 13.8763 9.32087 14.0197 9.41075C14.1631 9.50067 14.335 9.66149 14.5217 9.7492C14.7085 9.83691 14.8197 9.88464 15.0148 9.92228C15.2099 9.95992 15.3651 10.1216 15.5571 10.1478C15.7491 10.1741 16.1077 10.1794 16.2557 10.1647C16.4236 10.1479 16.6419 10.0592 16.6615 9.8708C16.5206 9.90634 16.3055 9.87445 16.1969 9.60332C16.1487 9.48293 16.1723 9.26153 16.0985 9.11917C16.0248 8.97677 15.9219 8.93107 15.799 8.75565C15.6762 8.58022 15.4751 8.30352 15.3623 8.06849C15.2495 7.83349 15.223 7.56728 15.1275 7.3567C15.0321 7.14615 14.8882 6.97606 14.7767 6.81376C14.5332 6.45905 14.3368 6.21665 13.9355 6.03771C13.7426 5.95165 13.5229 5.92872 13.3165 5.87421C13.2326 5.91267 13.1174 5.95517 13.097 6.05562C13.0766 6.15608 13.1158 6.30443 13.1871 6.37985C13.3064 6.50592 13.4831 6.64219 13.5526 6.84258C13.5972 6.97117 13.6102 7.40226 13.5715 7.51924C13.5314 7.6407 13.4381 7.71416 13.3606 7.79505ZM13.3994 8.8154C13.3622 8.84829 13.3337 8.88207 13.2738 8.90938C13.2139 8.93669 13.1321 8.94375 13.0526 8.96406C13.1641 9.14155 13.2812 9.3209 13.3879 9.50752C13.4948 9.6941 13.5874 9.89842 13.6893 10.0938C13.6845 9.98183 13.691 9.86243 13.6751 9.75778C13.6592 9.65316 13.6128 9.56159 13.5668 9.40452C13.521 9.24745 13.4645 9.03376 13.3994 8.8154ZM10.4004 4.91282C10.3847 5.08741 10.4135 5.36036 10.4489 5.53131C10.4912 5.73594 10.532 5.84204 10.6943 5.96533C10.9916 6.19106 11.1814 6.15301 11.4101 6.28391C11.5189 6.3462 11.6568 6.45062 11.697 6.56099C11.7372 6.67136 11.6704 6.7912 11.5879 6.83831C11.7322 6.86028 11.8941 6.69385 11.8265 6.52297C11.7933 6.43887 11.6349 6.40141 11.5864 6.31655C11.538 6.23173 11.5381 6.1444 11.5609 6.05824C11.6021 5.90293 11.9025 5.7618 12.0087 5.63903C12.172 5.45011 12.2347 5.29208 12.1422 5.04878C12.0123 4.70698 11.5104 4.43272 11.21 4.29859C11.0724 4.23719 10.9953 4.23282 10.888 4.19993C11.1077 4.33162 11.3393 4.43651 11.4504 4.73088C11.5432 4.97673 11.4628 5.06937 11.4659 5.28343C11.4674 5.38268 11.5951 5.4323 11.6518 5.49501C11.7012 5.54953 11.6972 5.58999 11.6578 5.66524C11.6534 5.59736 11.6251 5.54671 11.5741 5.50982C11.4901 5.44883 11.3995 5.46196 11.3547 5.33691C11.2866 5.14682 11.4215 4.96678 11.2699 4.75334C11.1565 4.59365 11.0056 4.41492 10.8021 4.41024C10.7058 4.408 10.6334 4.42288 10.5305 4.45401L10.3933 4.28516L10.3902 4.28296C10.1112 4.02251 9.92032 3.80786 9.52897 3.62885C9.13761 3.44988 8.94475 3.42278 8.49603 3.43297C8.04731 3.44313 7.60199 3.48153 7.08227 3.93999C6.56258 4.39846 5.22315 6.15404 4.89832 6.37623C4.57352 6.59842 4.50158 6.6737 4.09571 6.67381C3.68985 6.67391 3.05641 6.08665 3.0316 5.35272C3.00675 4.61876 2.99679 4.35789 3.49554 3.47371C3.99432 2.5895 4.89788 2.31799 5.56829 2.22632C6.23872 2.13465 6.64159 2.37619 7.13751 2.37733C7.6334 2.3785 8.12349 2.29093 8.26801 1.88749C8.19728 1.93057 8.10252 1.97913 7.83602 1.96484C7.56953 1.95055 7.20003 1.63493 6.78437 1.42345C6.3687 1.212 5.90615 1.18724 5.31287 1.17578C4.71959 1.16431 3.9793 1.2107 3.24588 1.61571C2.51245 2.02073 2.01182 2.45047 1.58643 3.24315C1.16104 4.03587 1.09748 4.68308 1.16606 5.64289C1.23463 6.60269 1.52402 7.31651 2.0812 8.019C2.63839 8.72149 3.19524 9.06521 4.19933 9.193L4.41072 8.23923L4.03337 8.79319L4.04269 8.17707L3.70136 8.61032L3.55165 8.02275L3.27513 8.49382L3.13778 7.83779L2.73706 8.16932L2.86391 7.628L2.33369 7.68802L2.57726 7.31176L2.09379 7.31779L2.3751 6.81545L1.94614 6.74578L2.28818 6.2889L1.763 6.12963L2.19782 5.70371L1.76849 5.3458L2.1043 5.07863L1.79027 4.6512L2.12524 4.25231L2.00021 3.72555L2.28464 3.47192L2.36931 2.86992L2.68852 2.70593L2.96316 2.236L3.47079 2.18086L3.72126 1.75818L4.23111 1.78473L4.71293 1.51684L5.21262 1.63589L5.78021 1.46054L6.20058 1.5613L6.74919 1.64378L7.27884 2.077L6.4664 1.7869L6.05771 1.98736L5.71988 1.77643L5.48729 1.93805L5.07573 1.9802L4.70667 1.95582L4.43762 2.29179L3.88918 2.29757L3.69355 2.75018L3.20588 2.92519L3.16027 3.44544L2.81055 3.72569L2.92707 4.21525L2.62506 4.72372L2.85674 5.16848L2.62873 5.57553L2.93209 5.77802L2.86327 6.43226L3.28516 6.54102L3.3802 7.02634L3.83993 6.97748L4.12554 7.31L4.47855 6.9574C5.12209 6.62914 5.3871 6.44552 5.88864 5.89063C6.45957 5.25895 6.78679 4.67492 7.54728 4.24242C8.09272 3.93221 8.5376 3.82057 9.1503 3.92887C9.72557 4.03053 9.9182 4.38351 10.3419 4.75537C10.3868 4.6722 10.3959 4.65016 10.4699 4.58893C10.4467 4.69693 10.4098 4.80895 10.4004 4.91282Z" fill="black"/>
</g>
<defs>
<clipPath id="clip0_1_898">
<rect width="20" height="20" fill="white"/>
</clipPath>
</defs>
</svg>
