<svg id="Layer_1" data-name="Layer 1" xmlns="http://www.w3.org/2000/svg" viewBox="0 0 20 20"><defs><style>.cls-2{fill:#fefefe}</style></defs><path fill="#333" d="M0 0h20v20H0z"/><path class="cls-2" d="M9.22 11.86L9.5 13h1l.28-1.14a2.77 2.77 0 0 0-.78-.13 2.77 2.77 0 0 0-.78.13zM11.18 10.16a1.2 1.2 0 0 1-1.18.74 1.2 1.2 0 0 1-1.18-.74A1.27 1.27 0 0 0 8 11.23c0 .25.1.33.27.33a13.79 13.79 0 0 1 1.73-.33 13.79 13.79 0 0 1 1.73.33c.17 0 .27-.08.27-.33a1.27 1.27 0 0 0-.82-1.07zM6.52 8.52a.7.7 0 0 1-.14 0 1.5 1.5 0 1 0 0-2 .7.7 0 0 1 .14 0 1 1 0 0 1 1 .83.39.39 0 0 0-.37.39.41.41 0 0 0 .22.36 1 1 0 0 1-.85.42zM12.5 6a1.5 1.5 0 0 0-1.12.51.7.7 0 0 1 .14 0 1 1 0 0 1 1 .83.39.39 0 0 0-.37.39.41.41 0 0 0 .22.36 1 1 0 0 1-.83.46.7.7 0 0 1-.14 0A1.5 1.5 0 1 0 12.5 6z"/><path class="cls-2" d="M18 5.5A2.5 2.5 0 0 0 15.5 3a2.47 2.47 0 0 0-2 1 6.94 6.94 0 0 0-7.04 0 2.47 2.47 0 0 0-2-1 2.5 2.5 0 0 0-1.08 4.73A7.06 7.06 0 0 0 3 10v5a1 1 0 0 0 1 1h12a1 1 0 0 0 1-1v-5a7.06 7.06 0 0 0-.38-2.27A2.5 2.5 0 0 0 18 5.5zM3.78 6.81A1.51 1.51 0 0 1 3 5.5a1.5 1.5 0 0 1 2.64-1 7 7 0 0 0-1.86 2.31zm1.72.69a2 2 0 1 1 2 2 2 2 0 0 1-2-2zm6.23 4.56a1.9 1.9 0 0 1-.46-.07L11 13.12l-.1.38H9.11L9 13.12 8.73 12a1.9 1.9 0 0 1-.46.07.75.75 0 0 1-.77-.83 1.83 1.83 0 0 1 1.32-1.62A1.22 1.22 0 0 1 10 8.9a1.22 1.22 0 0 1 1.18.72 1.83 1.83 0 0 1 1.32 1.61.75.75 0 0 1-.77.83zm.77-2.56a2 2 0 0 1-2-2 2 2 0 1 1 2 2zm3.72-2.69a7 7 0 0 0-1.86-2.28 1.5 1.5 0 1 1 1.86 2.28z"/></svg>