<svg xmlns="http://www.w3.org/2000/svg" viewBox="0 0 20 20">
  <rect width="100%" height="100%" fill="#00ADD8"/>
  <path fill="#fff" d="M2.32 8.54h.03l3.17.02.03-.01c.03 0 .04-.02.06-.04l.15-.23c.02-.02 0-.05-.03-.05H2.6a.13.13 0 0 0-.1.04l-.18.23v.04ZM1 9.34h4.18a.08.08 0 0 0 .08-.05l.07-.21c0-.03-.01-.05-.05-.05H1.3a.13.13 0 0 0-.1.04l-.18.23v.04ZM3.13 10.15h1.93a.07.07 0 0 0 .07-.05l.01-.22c0-.02 0-.04-.02-.05H3.34a.11.11 0 0 0-.09.05l-.12.22v.05Z"/>
  <path fill="#fff" fill-rule="evenodd" d="m11.5 8.58.75-.2c.1-.02.14-.07.09-.14-.21-.5-.57-.94-1.02-1.24A3.02 3.02 0 0 0 9 6.57c-.98.17-1.86.72-2.45 1.52a3.44 3.44 0 0 0-.75 2.56 2.75 2.75 0 0 0 1.11 1.95 3.1 3.1 0 0 0 2.36.58 3.64 3.64 0 0 0 2.5-1.5c.14-.18.26-.38.36-.58.15.53.46 1 .88 1.36.6.5 1.36.78 2.14.77.23-.03.47-.03.7-.07a4.01 4.01 0 0 0 2.97-2.49c.18-.52.22-1.07.14-1.6a2.73 2.73 0 0 0-1.24-1.96c-.76-.52-1.6-.6-2.5-.45a3.67 3.67 0 0 0-2.45 1.46c-.27.34-.48.73-.6 1.14H9.36a.22.22 0 0 0-.23.14c-.12.23-.33.68-.45.96-.06.15-.01.26.17.26h1.7l-.24.32a1.62 1.62 0 0 1-1.5.58 1.37 1.37 0 0 1-1.17-1.37 1.86 1.86 0 0 1 .9-1.67 1.52 1.52 0 0 1 1.57-.13c.16.08.3.2.41.33.11.13.12.13.24.1h.01l.73-.2Zm5.7.82.03.3a1.92 1.92 0 0 1-1.12 1.66 1.6 1.6 0 0 1-1.43.06 1.44 1.44 0 0 1-.8-1.66 1.91 1.91 0 0 1 1.53-1.52 1.45 1.45 0 0 1 1.8 1.16Z" clip-rule="evenodd"/>
</svg>