<svg baseProfile="basic" xmlns="http://www.w3.org/2000/svg" viewBox="0 0 64 64"><g><path fill="#1A1C1B" d="M9 56.194c-.528 0-.969-.414-.998-.947-.039-.731-.947-17.969-.947-22.965 0-19.477 14.15-23.565 26.021-23.565 7.897 0 13.903 2.13 17.852 6.333 2.659 2.83 5.71 8.096 5.148 17.111l-.02.355c0 1.385.127 22.46.128 22.673.003.552-.441 1.003-.994 1.006h-.006c-.55 0-.997-.443-1-.994-.001-.213-.128-21.294-.128-22.685l.023-.479c.518-8.302-2.222-13.075-4.61-15.617-3.555-3.784-9.07-5.702-16.394-5.702-15.939 0-24.021 7.256-24.021 21.565 0 4.943.935 22.681.944 22.859.029.552-.394 1.022-.946 1.052h-.052zM23.085 30.839c-4.291 0-7.782-3.491-7.782-7.781s3.491-7.781 7.782-7.781 7.781 3.491 7.781 7.781-3.491 7.781-7.781 7.781zm0-13.563c-3.188 0-5.782 2.593-5.782 5.781s2.594 5.781 5.782 5.781 5.781-2.593 5.781-5.781-2.593-5.781-5.781-5.781zM41.085 30.839c-4.291 0-7.781-3.491-7.781-7.781s3.49-7.781 7.781-7.781 7.781 3.491 7.781 7.781-3.49 7.781-7.781 7.781zm0-13.563c-3.188 0-5.781 2.593-5.781 5.781s2.594 5.781 5.781 5.781 5.781-2.593 5.781-5.781-2.594-5.781-5.781-5.781zM20.632 24.155c-.116-.718.373-1.394 1.091-1.51.442-.071.851.104 1.141.403.057-.325.075-.662.019-1.007-.267-1.661-1.831-2.791-3.492-2.524s-2.791 1.831-2.523 3.492c.267 1.661 1.831 2.791 3.492 2.523.392-.063.751-.203 1.072-.395-.404-.169-.725-.517-.8-.982zM38.632 24.155c-.116-.718.373-1.394 1.091-1.51.442-.071.851.104 1.141.403.057-.325.075-.662.019-1.007-.267-1.661-1.831-2.791-3.492-2.524s-2.791 1.831-2.523 3.492c.267 1.661 1.831 2.791 3.492 2.523.392-.063.751-.203 1.072-.395-.404-.169-.725-.517-.8-.982zM9.585 26.038l-1.011-.328c-2.982-.965-4.986-3.592-4.986-6.536 0-3.817 3.327-6.923 7.416-6.923 1.776 0 3.498.601 4.847 1.691l.974.787-.982.776c-2.953 2.333-4.969 5.53-5.992 9.504l-.266 1.029zm1.418-11.787c-2.986 0-5.416 2.208-5.416 4.923 0 1.748 1.028 3.346 2.642 4.222 1.065-3.426 2.849-6.297 5.318-8.563-.778-.379-1.651-.582-2.544-.582zM53.888 26.006l-.237-1.148c-.856-4.144-2.767-7.445-5.678-9.812l-1.085-.882 1.186-.742c1.224-.766 2.651-1.171 4.128-1.171 4.089 0 7.415 3.106 7.415 6.923 0 2.833-1.818 5.352-4.633 6.417l-1.096.415zm-3.489-11.476c2.35 2.286 3.997 5.193 4.916 8.671 1.426-.909 2.301-2.398 2.301-4.027 0-2.715-2.429-4.923-5.415-4.923-.62 0-1.227.095-1.802.279z"/><ellipse fill="#1A1C1B" cx="32.085" cy="30.722" rx="4.673" ry="3.151"/><circle fill="#1A1C1B" cx="9.905" cy="19.07" r="1.574"/><circle fill="#1A1C1B" cx="53.905" cy="19.07" r="1.574"/><path fill="#1A1C1B" d="M38.328 38.335c-.873 0-1.898-.223-2.984-.46-1.122-.244-2.282-.497-3.259-.497-.709 0-1.743.227-2.744.445-1.15.252-2.339.512-3.337.512-.778.001-1.381-.157-1.845-.483-.417-.293-.915-.864-.915-1.922 0-3.481 3.883-6.208 8.84-6.208s8.84 2.727 8.84 6.208c.001.723-.252 2.405-2.596 2.405zm-6.243-2.957c1.192 0 2.459.276 3.685.543.978.213 1.9.414 2.559.414.438 0 .545-.09.546-.091.011-.013.051-.103.051-.314 0-2.281-3.132-4.208-6.84-4.208-3.708 0-6.84 1.927-6.84 4.208 0 .057.005.244.064.286.04.028.208.12.695.119.782 0 1.863-.236 2.909-.466 1.155-.252 2.246-.491 3.171-.491zM29.997 45.645h-.075c-1.708 0-3.097-1.389-3.097-3.096v-5.893l1.337-.289c1.434-.313 2.789-.609 3.925-.616l1.006-.006v6.804c.001 1.707-1.388 3.096-3.096 3.096zm-1.171-7.375v4.279c0 .604.492 1.096 1.097 1.096h.075c.604 0 1.097-.491 1.097-1.096v-4.714c-.697.097-1.486.264-2.269.435zM33.95 45.645h-.074c-1.708 0-3.097-1.389-3.097-3.096v-6.724l.941-.056.404-.02c1.328 0 2.771.286 4.134.58l.789.17v6.049c0 1.708-1.389 3.097-3.097 3.097zm-1.171-7.869v4.772c0 .604.492 1.096 1.097 1.096h.074c.604 0 1.097-.491 1.097-1.096v-4.428c-.771-.156-1.545-.289-2.268-.344z"/></g></svg>