<svg xmlns="http://www.w3.org/2000/svg" viewBox="0 0 20 20">
  <rect width="100%" height="100%" fill="#478CBE"/>
  <path fill="#fff" d="M14.52 11.1a1.1 1.1 0 0 0 .02-1.54 1.1 1.1 0 0 0-.77-.33 1.1 1.1 0 0 0-1.16 1.08 1.1 1.1 0 0 0 1.13 1.11c.3 0 .57-.1.78-.31ZM7.02 9.55a1.1 1.1 0 0 0-1.8.36 1.1 1.1 0 0 0 .81 1.5 1.1 1.1 0 0 0 1.32-1.09c0-.29-.12-.56-.33-.77Z"/>
  <path fill="#fff" fill-rule="evenodd" d="m14.02 14.68-.82.05-.65.05-.4.03h-.22l-.03-.18-.04-.27-.05-.33a35.5 35.5 0 0 0-.05-.34.3.3 0 0 0-.28-.25.7.7 0 0 0-.1 0H8.63a.34.34 0 0 0-.23.06c-.06.05-.1.1-.12.18a6.6 6.6 0 0 0-.1.63l-.08.5h-.13l-1.13-.09-.51-.03-.63-.03a42.56 42.56 0 0 1-.06-.55v-.2c0-.14-.02-.28-.04-.42v-.05a.3.3 0 0 0-.27-.28l-2.7-.25c-.02 0-.04 0-.07-.02V8.6a.55.55 0 0 0-.12-.36c-.24-.31-.47-.64-.7-.97l-.23-.34c.43-.72.95-1.4 1.54-2 .52.26 1.02.55 1.5.87a9.19 9.19 0 0 1 1.6-1.16L6 2.79A9.59 9.59 0 0 1 8.27 2c.31.53.6 1.07.85 1.63.59-.1 1.19-.1 1.77 0 .26-.56.54-1.1.85-1.63a9.7 9.7 0 0 1 2.26.79 17.7 17.7 0 0 1-.15 1.85c.58.34 1.12.73 1.62 1.18.48-.32.99-.61 1.5-.87.59.6 1.1 1.26 1.53 1.97-.29.48-.6.94-.95 1.38a.39.39 0 0 0-.08.26v4.33a.57.57 0 0 1-.09.02l-.27.03-.55.04a68.77 68.77 0 0 0-1.11.12 29.66 29.66 0 0 1-.86.09.3.3 0 0 0-.18.27l-.04.51-.03.51-.01.1-.02.08-.3.02Zm1.55-4.45a1.65 1.65 0 0 0-1.98-1.62 1.66 1.66 0 0 0-1.22 2.26 1.66 1.66 0 0 0 3.2-.64Zm-11.14 0a1.64 1.64 0 0 0 1.65 1.67 1.67 1.67 0 0 0 1.65-1.97A1.66 1.66 0 0 0 5.46 8.7a1.66 1.66 0 0 0-1.03 1.53Zm6.1.58V10a.4.4 0 0 0-.11-.29.56.56 0 0 0-.68-.11.45.45 0 0 0-.27.4v1.56a.5.5 0 0 0 .43.46.53.53 0 0 0 .59-.28.53.53 0 0 0 .05-.23 4.93 4.93 0 0 1 0-.71Z" clip-rule="evenodd"/>
  <path fill="#fff" d="M8.8 14.04h2.4v.08l.04.2.07.5.04.23v.03c.04.3.17.39.47.34a.7.7 0 0 1 .1 0l1.13-.07.9-.06.43-.04.24-.02a.3.3 0 0 0 .28-.31l.03-.4v-.13l.05-.64.1-.01.17-.03a24.9 24.9 0 0 1 .8-.07l1.12-.11h.29v.12c0 .28 0 .56-.03.83-.04.36-.16.7-.34 1.01a3.77 3.77 0 0 1-1.48 1.37c-.66.36-1.38.62-2.12.78-.42.1-.83.17-1.25.21a29.1 29.1 0 0 1-1.63.13h-.4c-.16.02-.32.02-.48.02a13.2 13.2 0 0 1-3.63-.46 7.11 7.11 0 0 1-2.14-.93 3.37 3.37 0 0 1-1.14-1.27c-.16-.3-.25-.64-.27-.98l-.02-.52v-.26a.6.6 0 0 1 0-.09 94.36 94.36 0 0 1 2.47.24v.07l.01.05.03.4a37.32 37.32 0 0 0 .06.79.3.3 0 0 0 .3.19l.93.06a143.17 143.17 0 0 0 1.89.15.32.32 0 0 0 .4-.29l.06-.43.02-.13.1-.55Z"/>
</svg>