<svg xmlns="http://www.w3.org/2000/svg" viewBox="0 0 20 20">
  <rect width="100%" height="100%" fill="#fff"/>
  <path fill="#4286F5" d="M17.38 8.6c.47 3.2-.46 5.66-2.16 7.2l-2.42-1.88a3.97 3.97 0 0 0 1.57-2.36h-4.2V8.6h7.2Z"/>
  <path fill="#EA4235" d="m15.3 4.3-2.2 2.18a4.22 4.22 0 0 0-2.94-1.15 4.6 4.6 0 0 0-4.35 3.18l-2.5-1.95A7.66 7.66 0 0 1 15.3 4.3Z"/>
  <path fill="#34A853" d="m12.8 13.92 2.42 1.89a7.43 7.43 0 0 1-5.06 1.84 7.66 7.66 0 0 1-6.85-4.23l2.5-1.95a4.6 4.6 0 0 0 4.35 3.18c1.1 0 1.97-.26 2.64-.73Z"/>
  <path fill="#FBBC05" d="m3.31 6.56 2.5 1.94c-.32.97-.32 2 0 2.97l-2.5 1.95a7.66 7.66 0 0 1 0-6.86Z"/>
</svg>