<svg viewBox="0 0 20 20" fill="none" xmlns="http://www.w3.org/2000/svg">
<rect width="20" height="20" fill="#4285F4"/>
<path d="M1 4.59279L4.591 1L6.391 2.8009L3.7 5.49774V14.4977L6.4 17.1991L4.6 19L1 15.3982V6.78086L1.00546 6.77644L1 4.59279Z" fill="white"/>
<path d="M16.3 5.50224L13.6 2.8009L15.4 1L19 4.60179L19 13.2281L18.9946 13.2325L19 15.4072L15.409 19L13.609 17.1991L16.3 14.5023V5.50224Z" fill="white"/>
<path d="M7.3 9.99497C7.3 10.492 6.89706 10.895 6.4 10.895C5.90294 10.895 5.5 10.492 5.5 9.99497C5.5 9.49791 5.90294 9.09497 6.4 9.09497C6.89706 9.09497 7.3 9.49791 7.3 9.99497Z" fill="white"/>
<path d="M10 10.895C10.4971 10.895 10.9 10.492 10.9 9.99497C10.9 9.49791 10.4971 9.09497 10 9.09497C9.50294 9.09497 9.1 9.49791 9.1 9.99497C9.1 10.492 9.50294 10.895 10 10.895Z" fill="white"/>
<path d="M14.491 9.99497C14.491 10.492 14.0881 10.895 13.591 10.895C13.0939 10.895 12.691 10.492 12.691 9.99497C12.691 9.49791 13.0939 9.09497 13.591 9.09497C14.0881 9.09497 14.491 9.49791 14.491 9.99497Z" fill="white"/>
</svg>
