<svg viewBox="0 0 20 20" fill="none" xmlns="http://www.w3.org/2000/svg">
<rect width="20" height="20" fill="#33333E"/>
<path d="M15.8623 9.17851C15.8391 8.94325 15.8005 8.67328 15.7234 8.37245C15.6463 8.07548 15.5306 7.74766 15.3609 7.40826C15.1912 7.06887 14.9713 6.71791 14.6859 6.37466C14.5741 6.23967 14.4507 6.10854 14.3196 5.98127C14.5163 5.19835 14.0804 4.51956 14.0804 4.51956C13.3284 4.47328 12.8501 4.75482 12.6727 4.88209C12.6419 4.87052 12.6149 4.8551 12.584 4.84353C12.4567 4.79339 12.3256 4.74325 12.1868 4.70083C12.0518 4.6584 11.9129 4.61983 11.7702 4.58512C11.6275 4.55041 11.4848 4.52342 11.3383 4.50028C11.3113 4.49642 11.2882 4.49256 11.2612 4.48871C10.9333 3.43967 9.99229 3 9.99229 3C8.93939 3.66722 8.7427 4.60055 8.7427 4.60055C8.7427 4.60055 8.73884 4.61983 8.73113 4.65455C8.67328 4.66997 8.61543 4.68926 8.55758 4.70468C8.47658 4.72782 8.39559 4.75868 8.31846 4.78953C8.23747 4.82039 8.16033 4.85124 8.07934 4.88595C7.92121 4.95537 7.76309 5.03251 7.60882 5.11736C7.4584 5.2022 7.31185 5.29477 7.16915 5.39118L7.13058 5.37576C5.67273 4.82039 4.38072 5.4876 4.38072 5.4876C4.26116 7.03802 4.96309 8.01377 5.10193 8.19119C5.06722 8.2876 5.03636 8.38402 5.00551 8.48044C4.89752 8.83141 4.81653 9.19008 4.76639 9.56419C4.75868 9.61818 4.75096 9.67218 4.74711 9.72617C3.39725 10.3934 3 11.7548 3 11.7548C4.12231 13.0468 5.43361 13.1278 5.43361 13.1278L5.43747 13.124C5.60331 13.4209 5.79614 13.7025 6.01212 13.9686C6.10468 14.0804 6.19724 14.1846 6.29752 14.2887C5.88871 15.4612 6.35537 16.4331 6.35537 16.4331C7.60496 16.4793 8.42645 15.8854 8.6 15.7504C8.72342 15.7928 8.85069 15.8314 8.97796 15.8623C9.36364 15.9625 9.75702 16.0204 10.1504 16.0358C10.2468 16.0397 10.3471 16.0435 10.4435 16.0397H10.5824L10.6441 16.0358V16.0397C11.2342 16.8804 12.2678 17 12.2678 17C13.0044 16.2248 13.0468 15.4534 13.0468 15.2876V15.276V15.2529V15.2182C13.2011 15.1102 13.3477 14.9945 13.4865 14.8672C13.7796 14.6011 14.038 14.2964 14.254 13.9686L14.3118 13.876C15.1449 13.9223 15.735 13.3592 15.735 13.3592C15.5961 12.4915 15.1025 12.0672 14.9983 11.9862C14.8942 11.9052 14.9945 11.9824 14.9868 11.9785C14.9791 11.9747 14.9791 11.9708 14.9791 11.9708C14.9752 11.9669 14.9675 11.9631 14.9598 11.9592C14.9636 11.9052 14.9675 11.8551 14.9713 11.8011C14.9791 11.7085 14.9791 11.6121 14.9791 11.5196V11.3961V11.373L14.9752 11.3152L14.9713 11.238C14.9713 11.211 14.9675 11.1879 14.9636 11.1647C14.9598 11.1416 14.9598 11.1146 14.9559 11.0915L14.9482 11.0182L14.9366 10.9449C14.9212 10.8485 14.9058 10.7559 14.8826 10.6595C14.7939 10.2854 14.6474 9.93058 14.4584 9.61047C14.2656 9.29036 14.0264 9.00882 13.7526 8.7697C13.4826 8.53058 13.178 8.33774 12.8617 8.19504C12.5416 8.05234 12.2099 7.95978 11.8782 7.91736C11.7124 7.89422 11.5466 7.8865 11.3807 7.89036H11.2573L11.1956 7.89422C11.1725 7.89422 11.1493 7.89807 11.13 7.89807C11.0452 7.90579 10.9603 7.91736 10.8793 7.93278C10.5477 7.99449 10.2353 8.11405 9.96143 8.27989C9.6876 8.44573 9.44848 8.65014 9.25565 8.88154C9.06281 9.11295 8.9124 9.37135 8.80826 9.63747C8.70413 9.90358 8.64628 10.1813 8.63085 10.4474C8.627 10.5129 8.627 10.5824 8.627 10.6479V10.6981L8.63085 10.7521C8.63471 10.7829 8.63471 10.8176 8.63857 10.8485C8.65014 10.9835 8.67713 11.1146 8.71185 11.238C8.78512 11.4887 8.90083 11.7163 9.04353 11.9091C9.18623 12.1019 9.35978 12.2601 9.54105 12.3873C9.72231 12.5107 9.91901 12.5994 10.1118 12.6573C10.3047 12.7152 10.4975 12.7383 10.6788 12.7383H10.7791C10.7906 12.7383 10.8022 12.7383 10.8138 12.7344C10.8331 12.7344 10.8523 12.7306 10.8716 12.7306C10.8755 12.7306 10.8832 12.7306 10.8871 12.7267L10.9063 12.7229C10.9179 12.7229 10.9295 12.719 10.941 12.719C10.9642 12.7152 10.9835 12.7113 11.0066 12.7074C11.0298 12.7036 11.049 12.6997 11.0683 12.692C11.1107 12.6843 11.1493 12.6689 11.1879 12.6573C11.265 12.6303 11.3421 12.5994 11.4077 12.5647C11.4771 12.53 11.5388 12.4876 11.6006 12.449C11.616 12.4375 11.6353 12.4259 11.6507 12.4105C11.7124 12.3603 11.724 12.2678 11.6738 12.2061C11.6314 12.1521 11.5543 12.1366 11.4926 12.1714L11.4463 12.1945C11.3923 12.2215 11.3383 12.2446 11.2804 12.2639C11.2226 12.2832 11.1609 12.2986 11.0992 12.3102C11.0683 12.314 11.0375 12.3179 11.0028 12.3218C10.9873 12.3218 10.9719 12.3256 10.9526 12.3256H10.8601C10.8408 12.3256 10.8215 12.3256 10.8022 12.3218H10.7791C10.7713 12.3218 10.7598 12.3218 10.7521 12.3179C10.7328 12.3141 10.7174 12.314 10.6981 12.3102C10.5554 12.2909 10.4127 12.2485 10.2777 12.1868C10.1388 12.1251 10.0077 12.0402 9.88815 11.9322C9.76859 11.8242 9.66446 11.697 9.58347 11.5504C9.50248 11.4039 9.44463 11.2419 9.41763 11.0722C9.40606 10.9873 9.39835 10.8986 9.4022 10.8138C9.4022 10.7906 9.40606 10.7675 9.40606 10.7444V10.7135C9.40606 10.7019 9.40992 10.6904 9.40992 10.6788C9.41377 10.6325 9.42149 10.5862 9.4292 10.5399C9.49477 10.1697 9.67989 9.80716 9.96529 9.53333C10.0386 9.46391 10.1157 9.4022 10.1967 9.34435C10.2777 9.2865 10.3664 9.23636 10.459 9.19394C10.5515 9.15152 10.6441 9.1168 10.7444 9.08981C10.8408 9.06281 10.941 9.04738 11.0452 9.03581C11.0953 9.03196 11.1455 9.0281 11.1994 9.0281H11.319L11.3614 9.03196C11.4733 9.03967 11.5813 9.0551 11.6893 9.08209C11.9052 9.12837 12.1174 9.20937 12.314 9.31736C12.7074 9.53719 13.043 9.87658 13.2474 10.2854C13.3515 10.4898 13.4248 10.7096 13.4595 10.9372C13.4672 10.995 13.4749 11.0529 13.4788 11.1107L13.4826 11.1532L13.4865 11.1956V11.3614C13.4865 11.3884 13.4826 11.4347 13.4826 11.4617C13.4788 11.5234 13.4711 11.589 13.4634 11.6507C13.4556 11.7124 13.4441 11.7741 13.4325 11.8358C13.4209 11.8975 13.4055 11.9592 13.3901 12.0171C13.3592 12.1366 13.3207 12.2562 13.2744 12.3758C13.1818 12.6072 13.0584 12.8309 12.9118 13.0353C12.6149 13.4441 12.2099 13.7758 11.7471 13.9879C11.5157 14.092 11.2727 14.1691 11.022 14.2077C10.8986 14.2309 10.7713 14.2424 10.6441 14.2463H10.4512C10.3818 14.2463 10.3163 14.2424 10.2468 14.2347C9.97686 14.2154 9.71074 14.1653 9.44848 14.092C9.19008 14.0187 8.93939 13.9146 8.70028 13.7912C8.2259 13.5366 7.7978 13.1895 7.46612 12.7691C7.30028 12.5609 7.15372 12.3333 7.03416 12.0981C6.9146 11.8628 6.81818 11.6121 6.74876 11.3614C6.67934 11.1069 6.63691 10.8485 6.61763 10.5862L6.61377 10.5361V10.3163V10.2893V10.1928C6.61763 10.0656 6.6292 9.93058 6.64463 9.79945C6.66005 9.66832 6.6832 9.53333 6.71019 9.4022C6.73719 9.27107 6.76804 9.13995 6.80661 9.00882C6.87989 8.75041 6.97245 8.49972 7.08044 8.26446C7.30028 7.79394 7.58567 7.37355 7.92893 7.03802C8.01377 6.95317 8.10248 6.87603 8.19504 6.7989C8.2876 6.72562 8.38402 6.6562 8.4843 6.59063C8.58072 6.52507 8.68485 6.46722 8.78898 6.41322C8.83912 6.38623 8.89311 6.35923 8.94711 6.33609L9.0281 6.30138L9.10909 6.26667C9.21708 6.22039 9.32893 6.18182 9.44463 6.14711C9.47163 6.13939 9.50248 6.13168 9.52948 6.12011C9.55647 6.1124 9.58733 6.10468 9.61432 6.09697C9.67218 6.08154 9.73003 6.06612 9.78788 6.05455C9.81488 6.04683 9.84573 6.04298 9.87658 6.03526C9.90744 6.02755 9.93444 6.02369 9.96529 6.01598C9.99614 6.01212 10.0231 6.00441 10.054 6.00055L10.0964 5.99284L10.1427 5.98512C10.1736 5.98127 10.2006 5.97741 10.2314 5.97355C10.2661 5.9697 10.297 5.96584 10.3317 5.96198C10.3587 5.95813 10.405 5.95427 10.432 5.95041C10.4512 5.94656 10.4744 5.94656 10.4937 5.9427L10.5361 5.93884L10.5554 5.93499H10.5785C10.6132 5.93113 10.6441 5.93113 10.6788 5.92727L10.7289 5.92342H10.7675C10.7945 5.92342 10.8253 5.91956 10.8523 5.91956C10.9642 5.9157 11.0799 5.9157 11.1917 5.91956C11.4154 5.92727 11.6353 5.95427 11.8474 5.99284C12.2755 6.07383 12.6766 6.20882 13.043 6.39008C13.4094 6.56749 13.7333 6.78733 14.0187 7.02645C14.038 7.04187 14.0534 7.0573 14.0727 7.07273C14.0882 7.08815 14.1074 7.10358 14.1229 7.11901C14.1576 7.14986 14.1884 7.18072 14.2231 7.21157C14.2579 7.24242 14.2887 7.27328 14.3196 7.30413C14.3504 7.33499 14.3813 7.36584 14.4121 7.40055C14.5317 7.52782 14.6435 7.6551 14.7438 7.78623C14.9444 8.04463 15.1063 8.30689 15.2336 8.55372L15.2567 8.6L15.2799 8.64628C15.2953 8.67713 15.3107 8.70799 15.3223 8.73884C15.3377 8.7697 15.3493 8.79669 15.3647 8.82755C15.3763 8.8584 15.3917 8.8854 15.4033 8.91625C15.4496 9.03196 15.4959 9.1438 15.5306 9.24793C15.5884 9.41763 15.6309 9.56804 15.6656 9.69917C15.6771 9.75317 15.7273 9.78788 15.7813 9.78017C15.8391 9.77631 15.8815 9.73003 15.8815 9.67218C15.8854 9.53333 15.8815 9.36749 15.8623 9.17851V9.17851Z" fill="url(#paint0_linear)"/>
<defs>
<linearGradient id="paint0_linear" x1="9.44077" y1="2.973" x2="9.5" y2="17" gradientUnits="userSpaceOnUse">
<stop stop-color="#F05A28"/>
<stop offset="1" stop-color="#FBCA0A"/>
</linearGradient>
</defs>
</svg>
