<svg viewBox="0 0 20 20" xmlns="http://www.w3.org/2000/svg">
<rect width="100%" height="100%" fill="#E10098"/>
<path fill-rule="evenodd" clip-rule="evenodd" d="M8.46244 16.9469L4.75947 14.8064C4.46786 15.1117 4.05698 15.3018 3.60176 15.3018C2.71713 15.3018 2 14.5839 2 13.6982C2 12.9434 2.52088 12.3103 3.2224 12.1398V7.86026C2.52088 7.68969 2 7.05666 2 6.30184C2 5.41616 2.71713 4.69817 3.60176 4.69817C4.05697 4.69817 4.46783 4.88829 4.75945 5.19355L8.46244 3.05309C8.42094 2.91049 8.39869 2.75968 8.39869 2.60366C8.39869 1.71798 9.11582 1 10.0004 1C10.8851 1 11.6022 1.71798 11.6022 2.60366C11.6022 2.75968 11.5799 2.91049 11.5384 3.05308L15.2409 5.19322C15.5325 4.88816 15.9432 4.69817 16.3982 4.69817C17.2829 4.69817 18 5.41616 18 6.30184C18 7.05634 17.4796 7.68915 16.7785 7.86004V12.14C17.4796 12.3109 18 12.9437 18 13.6982C18 14.5839 17.2829 15.3018 16.3982 15.3018C15.9432 15.3018 15.5324 15.1119 15.2408 14.8068L11.5384 16.9469C11.5799 17.0895 11.6022 17.2403 11.6022 17.3963C11.6022 18.282 10.8851 19 10.0004 19C9.11582 19 8.39869 18.282 8.39869 17.3963C8.39869 17.2403 8.42094 17.0895 8.46244 16.9469ZM10.0004 4.20733C10.1563 4.20733 10.3069 4.18505 10.4493 4.1435L15.291 12.5394C15.074 12.7473 14.9153 13.0157 14.8419 13.3175H5.1581C5.08477 13.0159 4.9263 12.7478 4.70962 12.54L9.55156 4.1435C9.69399 4.18505 9.84462 4.20733 10.0004 4.20733ZM5.15811 14.0789C5.15253 14.1018 5.14645 14.1246 5.13989 14.1471L8.84307 16.2877C9.13467 15.9827 9.5454 15.7927 10.0004 15.7927C10.4555 15.7927 10.8662 15.9827 11.1578 16.2877L14.8602 14.1476C14.8536 14.1249 14.8475 14.102 14.8419 14.0789H5.15811ZM3.98291 7.85982C4.68352 7.6886 5.20351 7.05602 5.20351 6.30184C5.20351 6.14598 5.18131 5.99532 5.13989 5.85286L8.84307 3.71228C8.85939 3.72936 8.87609 3.74608 8.89315 3.76243L4.0514 12.1586C4.02877 12.152 4.00594 12.1458 3.98291 12.1402V7.85982ZM15.9494 12.1583C15.972 12.1517 15.9949 12.1456 16.018 12.14V7.86004C15.3169 7.68914 14.7965 7.05634 14.7965 6.30184C14.7965 6.14582 14.8187 5.99501 14.8602 5.85242L11.1578 3.71228C11.1415 3.72936 11.1248 3.74608 11.1077 3.76243L15.9494 12.1583Z" fill="white"/>
</svg>
