<svg xmlns="http://www.w3.org/2000/svg" viewBox="0 0 20 20">
  <rect width="100%" height="100%" fill="#502077"/>
  <path fill="#fff" d="M3.713 10c.965 0 1.75.783 1.75 1.75v3.57c0 .415.335.75.75.75H7.4v2.18H5.193A2.25 2.25 0 0 1 2.943 16v-3.637c0-.986-.798-1.783-1.783-1.783V9.42c.985 0 1.783-.797 1.783-1.782V4a2.25 2.25 0 0 1 2.25-2.25H7.4v2.18H6.213a.749.749 0 0 0-.75.75v3.57A1.75 1.75 0 0 1 3.713 10Zm12.575 0a1.75 1.75 0 0 0-1.75 1.75v3.57c0 .415-.335.75-.75.75H12.6v2.18h2.207a2.25 2.25 0 0 0 2.25-2.25v-3.637c0-.986.798-1.783 1.783-1.783V9.42a1.782 1.782 0 0 1-1.782-1.782V4a2.25 2.25 0 0 0-2.25-2.25H12.6v2.18h1.188c.415 0 .75.335.75.75v3.57c0 .967.784 1.75 1.75 1.75Z"/>
</svg>
