<svg xmlns="http://www.w3.org/2000/svg" viewBox="0 0 20 20">
  <rect width="100%" height="100%" fill="#E10098"/>
  <path fill="#fff" fill-rule="evenodd" d="m8.6 16.56-3.5-2.02a1.5 1.5 0 0 1-2.6-1.05c0-.71.5-1.3 1.15-1.47V7.98a1.51 1.51 0 1 1 1.46-2.52l3.5-2.02a1.52 1.52 0 0 1 1.45-1.94 1.51 1.51 0 0 1 1.45 1.94L15 5.46a1.5 1.5 0 0 1 2.6 1.05c0 .71-.49 1.3-1.15 1.47v4.04A1.51 1.51 0 1 1 15 14.54l-3.5 2.02a1.52 1.52 0 1 1-2.9 0Zm1.46-12.03c.14 0 .29-.02.42-.06l4.57 7.93c-.2.2-.35.45-.42.73H5.48a1.51 1.51 0 0 0-.42-.73l4.57-7.93c.14.04.28.06.43.06Zm-4.58 9.32-.01.07 3.5 2.02a1.5 1.5 0 0 1 2.18 0l3.5-2.02-.02-.07H5.48Zm-1.1-5.87a1.51 1.51 0 0 0 1.09-1.9l3.5-2.02c0 .02.02.03.04.05l-4.57 7.93-.07-.02V7.98Zm11.3 4.06.06-.02V7.98a1.51 1.51 0 0 1-1.1-1.9l-3.5-2.02c0 .02-.02.03-.04.05l4.57 7.93Z" clip-rule="evenodd"/>
</svg>