<svg viewBox="0 0 20 20" fill="none" xmlns="http://www.w3.org/2000/svg">
<path d="M0 0H20V20H0V0Z" fill="#00A672"/>
<path fill-rule="evenodd" clip-rule="evenodd" d="M5.45419 9.94961C5.45419 9.27267 4.90776 8.72388 4.23365 8.72388C3.55955 8.72388 3.00098 9.27267 3.00098 9.94961C3.00098 14.2448 6.50542 17.0856 10.0486 16.9981C10.0871 16.9972 10.1252 16.9944 10.1628 16.99C14.3349 16.84 17.2356 13.2081 16.985 9.959C16.9268 9.2841 16.3308 8.76099 15.6575 8.79342C14.9842 8.82585 14.4646 9.40029 14.4969 10.0764C14.5912 12.0512 12.824 14.4639 10.0347 14.5415C10.0008 14.5424 9.96726 14.5448 9.93412 14.5484C7.68655 14.5741 5.45419 12.7523 5.45419 9.94961Z" fill="url(#paint0_linear_2434_48)"/>
<path d="M12.6084 10.0446C12.6084 9.35163 13.1729 8.78979 13.8692 8.78979H15.7067C16.403 8.78979 16.985 9.35163 16.985 10.0446C16.985 10.7377 16.403 11.2995 15.7067 11.2995H13.8692C13.1729 11.2995 12.6084 10.7377 12.6084 10.0446Z" fill="white"/>
<path d="M8.75293 10.0465C8.75293 9.3524 9.3138 8.78979 10.0049 8.78979C10.6961 8.78979 11.257 9.3524 11.257 10.0465C11.257 10.7406 10.6961 11.3032 10.0049 11.3032C9.3138 11.3032 8.75293 10.7405 8.75293 10.0465Z" fill="white"/>
<path d="M11.2224 4.17482C11.2503 4.85115 10.727 5.42219 10.0535 5.45029C7.14608 5.57158 5.37113 7.85995 5.45751 10.0328C5.48442 10.7092 4.97115 11.2795 4.29759 11.3065C3.62403 11.3335 3.0317 10.7876 3.00484 10.1111C2.86404 6.57029 5.80816 3.06983 9.95219 3.00108C10.6257 2.97297 11.1944 3.49849 11.2223 4.17482H11.2224Z" fill="white"/>
<defs>
<linearGradient id="paint0_linear_2434_48" x1="3.00006" y1="10" x2="16.9999" y2="10.0428" gradientUnits="userSpaceOnUse">
<stop offset="0.013" stop-color="#64D8A2"/>
<stop offset="0.296875" stop-color="#E1F7ED"/>
<stop offset="0.75" stop-color="#E1F7ED"/>
<stop offset="1" stop-color="#64D8A2"/>
</linearGradient>
</defs>
</svg>
