<svg width="100%" height="100%" viewBox="0 0 20 20" xmlns="http://www.w3.org/2000/svg">
<rect width="100%" height="100%" fill="black"/>
<path d="M7.89488 12.201L14.0452 7.6352C14.3468 7.41136 14.7777 7.49867 14.9214 7.84634C15.6775 9.67995 15.3397 11.8835 13.8353 13.3964C12.3309 14.9093 10.2376 15.2411 8.32429 14.4855L6.23417 15.4586C9.232 17.5193 12.8723 17.0097 15.1471 14.7204C16.9515 12.9059 17.5103 10.4325 16.9878 8.20196L16.9925 8.20671C16.2348 4.93002 17.1788 3.62028 19.1127 0.942093C19.1584 0.878591 19.2043 0.815089 19.25 0.75L16.7052 3.30912V3.30119L7.89331 12.2026" fill="white"/>
<path d="M6.62567 13.3107C4.47399 11.2437 4.84497 8.04478 6.68093 6.20006C8.03855 4.83476 10.2628 4.27754 12.2046 5.0967L14.2899 4.12831C13.9142 3.85525 13.4327 3.56155 12.8802 3.35518C10.3828 2.32167 7.39289 2.83604 5.36277 4.87604C3.40999 6.83984 2.79591 9.85935 3.85043 12.4359C4.63818 14.3616 3.34685 15.7238 2.04606 17.0986C1.5851 17.586 1.12256 18.0733 0.75 18.5893L6.62409 13.3123" fill="white"/>
</svg>
