<svg viewBox="0 0 20 20" xmlns="http://www.w3.org/2000/svg">
<rect width="100%" height="100%" fill="#F54F35"/>
<path d="M10.0105 2.5C7.17862 2.5 4.875 4.80362 4.875 7.63525C4.875 10.4669 7.17862 12.7708 10.0105 12.7708H11.6995V10.8449H10.0105C8.2407 10.8449 6.8009 9.40509 6.8009 7.63525C6.8009 5.86541 8.2407 4.42561 10.0105 4.42561C11.7804 4.42561 13.2277 5.86541 13.2277 7.63525V12.3647C13.2277 14.123 11.796 15.555 10.042 15.5735C9.20278 15.5666 8.40023 15.2293 7.80836 14.6343L6.44659 15.996C7.39046 16.9448 8.66929 17.4847 10.0074 17.4991V17.5C10.0189 17.5 10.0305 17.5 10.0418 17.5H10.0779V17.4991C12.8693 17.4613 15.1296 15.1857 15.1426 12.3879L15.1443 7.50925C15.0773 4.736 12.8 2.5 10.0105 2.5Z" fill="white"/>
</svg>
