<svg width="20" height="20" viewBox="0 0 20 20" fill="none" xmlns="http://www.w3.org/2000/svg">
<g clip-path="url(#clip0_1_902)">
<rect width="20" height="20" fill="white"/>
<rect width="20" height="20" fill="#34BEBD"/>
<path fill-rule="evenodd" clip-rule="evenodd" d="M5.18283 13.8355L0.999997 9.66562L5.15228 5.46503L6.80729 7.11493L5.3354 7.12041L2.82123 9.66418L5.3541 12.189L6.81579 12.1836L5.18283 13.8355ZM7.15501 11.8404L9.045 9.92843L5.24985 9.94256L7.15501 11.8404ZM14.4104 9.90845L15.3812 10.8763L16.3457 9.90125L14.4104 9.90845ZM15.3893 10.8844L16.4446 10.8805L17.7018 9.60863L16.4353 8.34629L15.3639 8.3502L16.3437 9.32633L14.3842 9.33363L16.5465 7.14613L19 9.592L16.5645 12.0559L15.3893 10.8844ZM9.05279 9.35348L5.24783 9.36765L7.14383 7.45042L9.05279 9.35348Z" fill="white"/>
<path d="M5.3354 7.12041L2.82123 9.66418L5.3541 12.189L7.49694 12.181L5.24985 9.94256L16.3457 9.90125L15.3732 10.8844L16.4446 10.8805L17.7018 9.60863L16.4353 8.34629L15.3639 8.3502L16.3437 9.32633L5.24783 9.36765L7.47809 7.11243L5.3354 7.12041Z" fill="#244B5A"/>
<path fill-rule="evenodd" clip-rule="evenodd" d="M6.81579 12.1885L7.49694 12.186L7.155 11.8454L6.81579 12.1885ZM9.045 9.93337L14.4104 9.9134L14.111 9.61494L14.3842 9.33857L9.05279 9.35842L9.33512 9.63988L9.045 9.93337ZM7.14383 7.45537L7.47809 7.11737L6.80729 7.11987L7.14383 7.45537ZM15.3893 10.8893L15.3812 10.8812L15.3732 10.8894L15.3893 10.8893Z" fill="#244B5A"/>
</g>
<defs>
<clipPath id="clip0_1_902">
<rect width="20" height="20" fill="white"/>
</clipPath>
</defs>
</svg>
