<?xml version="1.0" encoding="UTF-8" standalone="no"?>
<svg
   viewBox="0 0 20 20"
   version="1.1"
   id="svg488"
   sodipodi:docname="grpc.svg"
   inkscape:version="1.1.2 (b8e25be8, 2022-02-05)"
   xmlns:inkscape="http://www.inkscape.org/namespaces/inkscape"
   xmlns:sodipodi="http://sodipodi.sourceforge.net/DTD/sodipodi-0.dtd"
   xmlns="http://www.w3.org/2000/svg"
   xmlns:svg="http://www.w3.org/2000/svg">
  <defs
     id="defs492" />
  <sodipodi:namedview
     id="namedview490"
     pagecolor="#ffffff"
     bordercolor="#666666"
     borderopacity="1.0"
     inkscape:pageshadow="2"
     inkscape:pageopacity="0.0"
     inkscape:pagecheckerboard="0"
     showgrid="false"
     inkscape:zoom="26.02153"
     inkscape:cx="9.9340814"
     inkscape:cy="10.0878"
     inkscape:window-width="2560"
     inkscape:window-height="1081"
     inkscape:window-x="0"
     inkscape:window-y="25"
     inkscape:window-maximized="0"
     inkscape:current-layer="svg488"
     showguides="true"
     inkscape:guide-bbox="true">
    <sodipodi:guide
       position="-2.0752046,10.008274"
       orientation="0,-1"
       id="guide4241" />
  </sodipodi:namedview>
  <g
     id="g4239"
     transform="matrix(0.83652856,0,0,0.83652856,0.84713773,1.5052892)">
    <path
       style="display:inline;fill:#50c3c2;fill-opacity:1;stroke:none;stroke-width:0.061551px;stroke-linecap:butt;stroke-linejoin:miter;stroke-opacity:1"
       d="m 0.71686062,5.3646276 -1.6469,1.646898 1.65976,1.6452778 1.63911998,-1.6391218 z"
       id="path1813"
       inkscape:label="viereck gross" />
    <path
       style="fill:#50c3c2;fill-opacity:1;stroke:none;stroke-width:0.061551px;stroke-linecap:butt;stroke-linejoin:miter;stroke-opacity:1"
       d="m 6.1805306,6.9885156 -0.96405,-0.962831 -0.96233,0.966803 0.96947,0.9642969 z"
       id="path3008"
       inkscape:label="viereck klein" />
    <path
       d="m 1.7008106,13.709091 a 1.8670866,1.8670866 0 0 0 0.66894,0.553835 2.0051454,2.0051454 0 0 0 0.91711,0.208165 1.9699998,1.9699998 0 0 0 0.75313,-0.128456 1.3073423,1.3073423 0 0 0 0.5006,-0.349979 1.3499355,1.3499355 0 0 0 0.2747,-0.518382 2.315116,2.315116 0 0 0 0.0841,-0.633483 v -0.744274 h -0.0177 a 1.5979859,1.5979859 0 0 1 -0.69121,0.602522 2.1320635,2.1320635 0 0 1 -0.85944,0.177206 2.235346,2.235346 0 0 1 -0.84614,-0.159479 2.1523137,2.1523137 0 0 1 -0.68672,-0.438612 2.0180096,2.0180096 0 0 1 -0.46077,-0.669059 2.0993799,2.0993799 0 0 1 -0.16835,-0.841709 2.2019238,2.2019238 0 0 1 0.15954,-0.8417712 2.1637622,2.1637622 0 0 1 0.43855,-0.6822308 1.9782476,1.9782476 0 0 1 0.66457,-0.4563387 2.1408653,2.1408653 0 0 1 0.8462,-0.1639102 2.3662649,2.3662649 0 0 1 0.39424,0.035392 1.8670866,1.8670866 0 0 1 0.41645,0.1240867 1.9184201,1.9184201 0 0 1 0.79308,0.6380372 h 0.0177 V 8.7294336 h 0.58486 v 4.1113574 a 3.335877,3.335877 0 0 1 -0.0842,0.717684 1.772729,1.772729 0 0 1 -0.32783,0.699958 1.8668404,1.8668404 0 0 1 -0.67786,0.531739 q -0.43424,0.212535 -1.1342,0.212535 a 2.8487628,2.8487628 0 0 1 -1.10754,-0.203734 2.5740609,2.5740609 0 0 1 -0.88597,-0.62905 z m 0.1063,-2.95937 a 1.5876453,1.5876453 0 0 0 0.11966,0.615755 1.6176822,1.6176822 0 0 0 0.32775,0.505026 1.5853064,1.5853064 0 0 0 0.48736,0.345609 1.4340757,1.4340757 0 0 0 0.60696,0.128457 1.625376,1.625376 0 0 0 1.11641,-0.438551 1.4116096,1.4116096 0 0 0 0.34118,-0.500717 1.6126965,1.6126965 0 0 0 0.11079,-0.655579 1.7640503,1.7640503 0 0 0 -0.10636,-0.615879 1.479131,1.479131 0 0 0 -0.31016,-0.5050259 1.4986426,1.4986426 0 0 0 -0.49616,-0.3455471 1.6151586,1.6151586 0 0 0 -0.6557,-0.1285183 1.4353682,1.4353682 0 0 0 -0.60696,0.1285183 1.5896765,1.5896765 0 0 0 -0.48736,0.3455471 1.6212521,1.6212521 0 0 0 -0.32782,0.5050259 1.5888763,1.5888763 0 0 0 -0.11959,0.615879 z m 6.06055,2.126524 h -0.63791 V 6.6028486 h 1.93159 q 0.9569304,0 1.5107104,0.416453 0.55371,0.416577 0.55383,1.2582249 a 1.5676412,1.5676412 0 0 1 -0.41202,1.1031162 q -0.41208,0.4475369 -1.1917504,0.5183205 l 1.8075704,2.9772198 h -0.77979 L 8.9310206,9.9610681 h -1.0633 z m 0,-3.4999725 h 1.1342 a 2.5494405,2.5494405 0 0 0 0.72212,-0.088633 1.3410722,1.3410722 0 0 0 0.4740604,-0.2347554 0.85740478,0.85740478 0 0 0 0.25692,-0.345547 1.1466327,1.1466327 0 0 0 0.0798,-0.4298103 1.1232433,1.1232433 0 0 0 -0.0798,-0.4208242 0.89168866,0.89168866 0 0 0 -0.25692,-0.35004 1.2531774,1.2531774 0 0 0 -0.4740604,-0.234817 2.6812826,2.6812826 0 0 0 -0.72212,-0.08414 h -1.1342 z M 12.528241,6.6028486 h 1.82535 q 0.95688,0 1.51065,0.416515 0.55371,0.416577 0.55384,1.2582244 0,0.841894 -0.55384,1.2625947 -0.55377,0.420947 -1.51065,0.4208854 h -1.18731 v 2.9151769 h -0.63804 z m 0.6381,2.7734855 h 1.02784 a 2.5501175,2.5501175 0 0 0 0.72211,-0.088633 1.3418108,1.3418108 0 0 0 0.47407,-0.2347553 0.85777409,0.85777409 0 0 0 0.25691,-0.3455471 1.1457094,1.1457094 0 0 0 0.0798,-0.4298103 1.1223201,1.1223201 0 0 0 -0.0798,-0.4208238 0.89199642,0.89199642 0 0 0 -0.25691,-0.350041 1.2538545,1.2538545 0 0 0 -0.47407,-0.234817 2.6819597,2.6819597 0 0 0 -0.72211,-0.08414 h -1.0279 z m 9.65777,2.5075249 a 2.4331092,2.4331092 0 0 1 -0.39417,0.451907 2.492075,2.492075 0 0 1 -0.53611,0.367644 3.0575436,3.0575436 0 0 1 -0.65121,0.243741 3.0092261,3.0092261 0 0 1 -0.73996,0.08857 3.3558811,3.3558811 0 0 1 -1.29799,-0.24805 3.1139858,3.1139858 0 0 1 -1.72343,-1.727858 3.4332506,3.4332506 0 0 1 -0.24805,-1.3202685 3.4334968,3.4334968 0 0 1 0.24805,-1.320268 3.1136165,3.1136165 0 0 1 1.72343,-1.7277359 3.3550809,3.3550809 0 0 1 1.29799,-0.248111 3.1714129,3.1714129 0 0 1 1.16965,0.230323 2.359248,2.359248 0 0 1 1.00119,0.762063 l -0.55815,0.416453 a 1.5274485,1.5274485 0 0 0 -0.2659,-0.301292 1.9408247,1.9408247 0 0 0 -0.3853,-0.265777 2.4061499,2.4061499 0 0 0 -0.46527,-0.186068 1.799873,1.799873 0 0 0 -0.49622,-0.07091 2.5448242,2.5448242 0 0 0 -1.08096,0.221522 2.4549598,2.4549598 0 0 0 -0.81069,0.593597 2.611607,2.611607 0 0 0 -0.50958,0.8639914 3.0953974,3.0953974 0 0 0 0,2.064419 2.6104375,2.6104375 0 0 0 0.50958,0.863929 2.4519438,2.4519438 0 0 0 0.81069,0.593659 2.5421159,2.5421159 0 0 0 1.08096,0.221584 2.7392021,2.7392021 0 0 0 0.49179,-0.04432 2.0425068,2.0425068 0 0 0 0.4785,-0.150615 1.8105213,1.8105213 0 0 0 0.44304,-0.288059 2.1353257,2.1353257 0 0 0 0.38537,-0.456216 z"
       class="cls-2"
       id="path19"
       style="display:inline;fill:#244b5a;fill-opacity:1;stroke:none;stroke-width:0.061551" />
    <path
       d="m 0.78370062,6.0154056 -0.99312,1.000573 1.00051,0.9931242 0.84644998,-0.00314 -0.88762998,-0.8804862 4.38297998,-0.01625 -0.38414,0.386725 0.42323,-0.0015 0.49659,-0.500286 -0.50029,-0.496532 -0.42322,0.0015 0.38703,0.383955 -4.38297998,0.01625 0.88097998,-0.887072 z"
       class="cls-2"
       id="path303"
       style="display:inline;fill:#244b5a;fill-opacity:1;stroke:none;stroke-width:0.061551;stroke-opacity:1" />
  </g>
</svg>
