<?xml version="1.0" encoding="UTF-8" standalone="no"?>
<svg
   viewBox="0 0 20 20"
   version="1.1"
   id="svg488"
   sodipodi:docname="sanic.svg"
   inkscape:version="1.1.2 (b8e25be8, 2022-02-05)"
   xmlns:inkscape="http://www.inkscape.org/namespaces/inkscape"
   xmlns:sodipodi="http://sodipodi.sourceforge.net/DTD/sodipodi-0.dtd"
   xmlns="http://www.w3.org/2000/svg"
   xmlns:svg="http://www.w3.org/2000/svg">
  <defs
     id="defs492" />
  <sodipodi:namedview
     id="namedview490"
     pagecolor="#ffffff"
     bordercolor="#666666"
     borderopacity="1.0"
     inkscape:pageshadow="2"
     inkscape:pageopacity="0.0"
     inkscape:pagecheckerboard="0"
     showgrid="false"
     inkscape:zoom="36.800001"
     inkscape:cx="9.8641302"
     inkscape:cy="9.9320649"
     inkscape:window-width="2609"
     inkscape:window-height="1081"
     inkscape:window-x="0"
     inkscape:window-y="25"
     inkscape:window-maximized="0"
     inkscape:current-layer="svg488" />
  <g
     transform="matrix(0.00430987,0,0,-0.00430987,-1.0073371,21.043239)"
     fill="#000000"
     stroke="none"
     id="g191"
     style="fill:#ff2577;fill-opacity:1">
    <path
       d="M 2320,4859 C 2011,4827 1653,4709 1385,4549 1143,4405 872,4162 712,3946 259,3332 130,2557 365,1845 483,1484 659,1199 929,930 1291,568 1708,358 2225,273 c 154,-25 516,-25 670,0 526,86 968,314 1325,683 339,351 545,769 627,1269 25,154 25,516 0,670 -85,518 -296,935 -656,1296 -266,266 -549,442 -897,558 -313,104 -652,142 -974,110 z M 3813,3568 c 15,-11 34,-33 43,-49 21,-41 20,-121 -1,-157 -32,-53 -60,-62 -195,-62 -67,0 -130,5 -141,10 -27,15 -49,63 -49,110 0,49 35,126 66,146 56,38 225,39 277,2 z m -542,2 c 34,-19 59,-71 59,-123 0,-54 -16,-90 -54,-126 l -26,-25 -353,-9 c -193,-4 -402,-7 -464,-5 -102,3 -114,5 -137,27 -34,32 -46,79 -37,143 12,90 34,113 120,128 69,12 867,3 892,-10 z m -1223,-15 c 62,-52 76,-151 30,-210 -34,-44 -56,-50 -188,-50 -108,0 -131,-4 -165,-22 -63,-33 -128,-96 -160,-154 -26,-47 -30,-64 -30,-134 0,-104 34,-179 104,-231 73,-54 136,-68 256,-58 120,11 575,10 770,-1 159,-9 173,-15 206,-81 16,-34 20,-55 15,-87 -8,-55 -39,-105 -73,-118 -33,-12 -215,-12 -268,1 -55,13 -197,12 -325,-2 -82,-9 -137,-9 -241,0 -350,32 -367,36 -485,113 -161,105 -223,203 -244,385 -10,95 0,215 26,298 39,124 136,220 308,306 114,57 162,67 323,69 105,1 113,0 141,-24 z m 1304,-874 c 205,-14 275,-58 386,-242 155,-258 166,-358 59,-564 -74,-142 -193,-247 -345,-302 -89,-33 -245,-41 -817,-44 -461,-3 -473,-2 -514,42 -69,74 -3,235 106,255 21,4 225,2 453,-5 574,-16 639,-15 699,8 73,27 117,66 148,129 24,49 28,69 28,142 0,74 -3,91 -27,130 -30,53 -109,130 -159,156 -25,13 -66,19 -157,23 -120,6 -124,7 -148,34 -61,71 -1,222 96,240 39,7 57,7 192,-2 z M 1885,1810 c 38,-36 55,-73 55,-122 0,-51 -26,-104 -64,-133 -26,-19 -40,-20 -273,-18 -218,2 -248,4 -276,21 -96,55 -103,181 -15,244 40,28 129,36 380,34 163,-1 167,-2 193,-26 z"
       id="path189"
       style="fill:#ff2577;fill-opacity:1" />
  </g>
</svg>
