<svg xmlns="http://www.w3.org/2000/svg" viewBox="0 0 20 20">
  <rect width="100%" height="100%" fill="#FFFFFF"/>
  <path fill="#9B99A6" d="M4.8297 1.9351c.1489-.1177.3426-.2107.5366-.1787.1925.0467.3956.1217.5119.2922.2025.2858.1696.6916-.0394.9649l-.0159-.0159c-.047-.047-.0927-.097-.1494-.1324-.0626-.0412-.1623-.006-.1794.0684-.0223.1092.0302.2135.0827.306-.1846.0378-.3853.063-.5635-.0141-.2669-.1098-.473-.3715-.496-.6617.0147-.2394.1455-.4615.3124-.6287ZM7.6282 5.2025c.1522-.0262.295-.096.4509-.1025.3456-.0119.6985.0095 1.0274.125.096.0349.191.0876.2477.1764-.1422.0253-.2746.0833-.4085.134-.5286.2073-1.0481.4392-1.5469.7107-.2196.1205-.4396.2446-.629.41-.1357.1205-.2959.2144-.4109.3569-.0394-.3697.035-.7611.2602-1.0631.098-.1599.2572-.263.3853-.3954.1772-.1632.3968-.2748.6238-.352ZM17.4139 7.3235c.1366-.1284.3322-.1833.5167-.1595.2261.0348.4234.1964.5137.405.1196.2804.0443.6383-.2037.8246-.2252.1745-.569.1684-.7825-.0225.108-.1007.23-.2395.194-.3978-.1077-.1388-.3218-.119-.4603-.039-.0329-.2237.0448-.4656.2221-.6108ZM15.2859 7.8512c.4243-.0415.7925.2248 1.1061.4765a1.108 1.108 0 0 1 .3075.572c.0515.3008.0353.6125-.0699.9005-.0872.2858-.2331.5957-.5174.7278-.0033-.1656-.0408-.3276-.0689-.4902-.1202-.6406-.3069-1.2705-.5799-1.863-.0491-.113-.1043-.2238-.1775-.3236ZM4.575 12.758c.2251-.0836.471-.0046.6647.1195.4252.2477.8279.5509 1.1268.9463.2005.2663.378.5515.5201.8532.1007.2206.18.4567.1852.701.0064.2349-.1385.4417-.3038.5949-.1885.1537-.3734.3157-.5878.4328-.2758.1449-.6.2166-.9094.1587-.3795-.0635-.7349-.2456-1.0225-.4988.1034-.0662.219-.1583.219-.2932.021-.2522-.2267-.4716-.472-.453-.0932.0412-.1524.1315-.2195.2044-.1544-.2419-.2758-.5259-.2477-.8181.078-.5189.2486-1.0332.5588-1.4612.0327-.039.036-.0906.0406-.1388.157-.1061.2632-.2819.4475-.3477ZM1.5971 16.5778c.1482-.32.4869-.5375.8386-.5393.23.0198.4469.1085.6522.2089.143.0738.24.2139.2882.3645.1212.3356.0531.7254-.1668 1.0049-.137.1656-.3038.3212-.5192.3724-.32.0946-.6726-.0213-.9048-.2525-.2767-.3066-.3776-.7819-.1882-1.1589Z"/>
  <path fill="#F79727" d="M5.494 2.9336c.0172-.0744.117-.1095.1795-.0683.0567.0354.1025.0854.1494.1324.0854.1046.1846.1961.2767.2946.375.4122.7123.8563 1.068 1.2846.1632.1989.3249.399.4844.601l-.0238.0246c-.227.0772-.4466.1889-.6238.352-.0763-.0783-.1281-.1744-.1861-.266-.3151-.503-.621-1.012-.9057-1.5331-.1004-.1794-.2327-.3383-.3359-.5158-.0524-.0925-.1049-.1968-.0826-.306ZM17.1918 7.9342c.1385-.0799.3526-.0997.4603.039.036.1584-.086.2972-.194.3979-.2364.1973-.485.3856-.7586.5286a1.1073 1.1073 0 0 0-.3075-.572c.2498-.1638.5436-.241.7998-.3935ZM3.7758 15.5238c.067-.0729.1263-.1632.2196-.2043.2452-.0186.493.2007.472.453 0 .1348-.1157.2269-.2191.2931-.144.0885-.2926.169-.4335.2624-.1467.0939-.2819.2059-.4386.284-.0482-.1507-.1453-.2908-.2883-.3646.1781-.2858.47-.4719.6879-.7236Z"/>
  <path fill="#787880" d="M10.064 5.2681c.3795-.0607.7648-.0445 1.1476-.0384 1.1241.0765 2.2455.5088 3.0587 1.3016.1144.0787.1843.2013.2853.294.2873.3085.5066.6712.7302 1.026.0733.0997.1285.2104.1776.3236.273.5924.4597 1.2224.5799 1.863.0281.1625.0656.3245.0689.4902-.0137.2855.0497.571.0104.8559-.0192.1544-.0018.3112-.0302.4643-.0439.2877-.1702.5528-.2977.8111-.061.1288-.1953.1931-.3075.2694-.1144.0744-.266.1425-.399.0741-.2102-.1196-.3115-.3587-.3594-.5851-.0527-.2098-.0344-.427-.0375-.6409-.0332-.5973-.0665-1.1991-.1989-1.7845-.0888-.3837-.2407-.7706-.5369-1.042-.1876-.1584-.4023-.2862-.6329-.3704-.3451-.1025-.7047-.162-1.0653-.1543-.4353-.0098-.8642.0814-1.283.191-.4237.11-.8239.2906-1.2193.4758-.3139.133-.6107.3005-.9124.4582-.169.0912-.3361.187-.4884.3044-.2754.2102-.5716.4009-.7974.6678-.2263.2669-.4273.5719-.496.9206-.0863.5131.012 1.0408.1946 1.5228.209.532.521 1.0216.9076 1.4423.2672.3349.6229.5802.9679.8279.1888.1238.3127.3429.3142.5695-.0177.1891-.162.3374-.3109.4408-.1604.0991-.348.1635-.538.1577-.4451-.0039-.8939-.057-1.3163-.201-.1782-.0598-.342-.1522-.512-.2306.1654-.1532.3103-.36.304-.5949-.0053-.2443-.0846-.4804-.1853-.701-.1421-.3017-.3196-.5869-.52-.8532-.299-.3953-.7017-.6986-1.127-.9463-.1936-.1241-.4395-.2031-.6646-.1195-.1843.0659-.2904.2416-.4475.3477-.046-.1339-.0244-.2782-.043-.4164-.0232-.1613-.0104-.3245-.026-.4862-.0247-.223-.0128-.4478-.0167-.6717-.0065-.4378.0018-.878.0692-1.3114.0653-.4024.2306-.78.418-1.139.203-.3802.4624-.7291.7552-1.0452.1602-.1842.331-.3602.5213-.5134.1712-.1845.3933-.3148.5534-.5094.115-.1425.2752-.2364.411-.357.1893-.1652.4093-.2894.629-.4099.4987-.2715 1.0182-.5033 1.5468-.7108.134-.0506.2663-.1086.4085-.1339.2413-.018.4688-.112.7098-.1333Z"/>
</svg>
