<svg xmlns="http://www.w3.org/2000/svg" viewBox="0 0 80 80"><defs><style>.a{fill:#e34f26}.c{fill:#fff}.d{fill:#ebebeb}</style></defs><path class="a" d="M75.26 0l-6.34 71.73L40 80l-28.92-8.27L4.74 0zM63.2 67.36L68.62 6H40v8.57H17.68l2.47 26.86H40v14l-9.95-2.55-.74-7.14h-8.63l1.06 14L40 64.77V74z"/><path fill="#ef652a" d="M68.62 6L63.2 67.36 40 74v-9.23l17.93-5.11 2.56-27.08H40v-9.12h21.28l.79-8.9H40V6h28.62z"/><path class="c" d="M62.07 14.56l-.79 8.9H40v-8.9h22.07zM60.49 32.58l-2.56 27.08L40 64.77v-9.34l9.7-2.69 1.1-11.31H40v-8.85h20.49z"/><path class="a" d="M50.8 41.43l-1.1 11.31-9.7 2.69v-14h10.8z"/><path class="d" d="M40 55.43v9.34L21.73 59.7l-1.05-13.96h8.63l.74 7.14L40 55.43zM40 32.58v8.85H20.15l-2.47-26.87H40v8.9H27.55l.79 9.12H40z"/><path class="a" d="M40 23.46v9.12H28.34l-.79-9.12H40z"/></svg>