<svg xmlns="http://www.w3.org/2000/svg" viewBox="0 0 20 20">
  <rect width="100%" height="100%" fill="#1C1D34"/>
  <path fill="#DFB783" d="M18.96 8.49c.07-.08.03-.15 0-.21a1.7 1.7 0 0 0-.68-.62c-.77-.4-1.6-.55-2.46-.56-.54 0-1.1.06-1.64.06-.64.01-1.3.01-1.93.1-.43.06-.86.1-1.27.2-.09.02-.17.04-.24.1-.06.03-.12.06-.14-.05a.1.1 0 0 0-.04-.05c-.04-.03-.06-.06-.05-.11a.1.1 0 0 0-.04-.1c-.07-.03-.05-.08-.02-.14.06-.16-.01-.3-.18-.34-.13-.03-.15-.06-.1-.2.07-.29.2-.56.35-.82.34-.6.79-1.11 1.23-1.63l.4-.52c.01-.03.04-.06 0-.09-.03-.03-.06 0-.08.02a.94.94 0 0 0-.1.14c-.23.42-.56.77-.86 1.14-.34.43-.64.87-.86 1.37-.06.12-.1.25-.14.39-.02-.09-.02-.18-.11-.21-.09.03-.09.12-.11.2-.05-.13-.08-.26-.14-.38a6.3 6.3 0 0 0-.86-1.37c-.3-.37-.62-.72-.86-1.14a.94.94 0 0 0-.1-.14c-.02-.02-.05-.05-.09-.02-.03.03 0 .06.01.09l.4.52c.44.52.89 1.03 1.23 1.63.15.26.28.53.36.83.04.13.02.16-.11.19-.17.03-.24.18-.18.34.03.06.05.1-.02.15a.1.1 0 0 0-.04.09c0 .05 0 .08-.05.1a.1.1 0 0 0-.04.06c-.02.11-.08.08-.14.04-.07-.05-.15-.07-.24-.09-.41-.1-.84-.14-1.27-.2-.64-.09-1.29-.09-1.93-.1-.55 0-1.1-.06-1.64-.06-.86.01-1.69.16-2.46.56-.28.14-.5.35-.67.62-.04.06-.08.13 0 .2.02.04 0 .07-.02.1-.07.16 0 .41.13.52.08.06.13.13.18.21.07.13.2.2.34.26.1.04.18.09.25.17.12.13.25.26.45.27.05 0 .1.02.14.07.1.1.21.17.34.24.09.04.16.1.18.2 0 .06.05.12.09.16.14.13.28.28.49.3.05 0 .1.03.1.1l.02.02c.18.15.32.35.57.38.1.01.18.05.23.16.03.06.1.1.16.13.1.06.2.11.22.24.01.07.06.12.09.18.08.2.12.41.28.57.06.05.1.1.19.13.1.03.18.1.24.22.1.2.26.34.48.37.15.02.26.07.34.2.11.18.24.33.46.36.1.02.2 0 .3 0 .08 0 .13 0 .18.06.1.1.23.15.38.15.16 0 .28-.06.4-.16.05-.04.11-.06.19-.04.1.02.2.06.32 0a.25.25 0 0 1 .13 0c.13 0 .21-.09.3-.17a.54.54 0 0 1 .13-.1c.23-.1.36-.32.43-.56.06-.2.03-.42.02-.62 0-.06 0-.1.07-.08.02 0 .05 0 .07-.02.05-.06.07-.03.07.03 0 .02.02.02.02 0 0-.06.02-.09.07-.03.02.02.05.02.07.02.07-.02.07.02.07.08-.01.2-.03.41.02.62.08.24.2.45.43.57.05.02.1.05.14.1.08.07.16.16.3.15.04 0 .08 0 .12.02.11.05.22.01.32-.01.08-.02.14 0 .19.04.12.1.24.16.4.16.15 0 .28-.05.38-.15.05-.06.1-.07.18-.06.1 0 .2.02.3 0 .22-.03.35-.18.46-.35.08-.14.19-.19.34-.2a.62.62 0 0 0 .48-.38.37.37 0 0 1 .24-.22c.08-.03.13-.08.19-.13.16-.16.2-.37.28-.57.03-.06.08-.11.1-.18.02-.13.11-.18.21-.24.06-.03.13-.07.16-.13.05-.1.14-.15.23-.16.25-.03.4-.23.57-.38l.01-.03c.01-.06.06-.09.11-.09.21-.02.35-.17.49-.3.04-.04.09-.1.1-.16.01-.1.08-.16.17-.2.13-.07.25-.14.34-.24a.2.2 0 0 1 .14-.07c.2-.01.33-.14.45-.27a.63.63 0 0 1 .25-.17.66.66 0 0 0 .34-.26c.05-.08.1-.15.18-.21.14-.1.2-.36.13-.52-.01-.03-.04-.06-.01-.1Z"/>
</svg>