<svg viewBox="0 0 20 20" fill="none" xmlns="http://www.w3.org/2000/svg">
<rect width="20" height="20" fill="#1C1D34"/>
<path d="M18.9588 8.73534C19.0317 8.66134 18.9938 8.59386 18.9524 8.52638C18.7862 8.2561 18.5554 8.05423 18.2818 7.91107C17.5101 7.50696 16.6754 7.36454 15.8207 7.3528C15.2751 7.34535 14.7289 7.40667 14.1827 7.41413C13.5355 7.42308 12.8882 7.42196 12.2457 7.51367C11.8218 7.57425 11.394 7.61059 10.9757 7.71032C10.893 7.73008 10.8102 7.74946 10.7387 7.80203C10.6816 7.84397 10.6243 7.87174 10.6019 7.76419C10.5973 7.74238 10.5771 7.71964 10.5581 7.70641C10.5182 7.67882 10.5019 7.64638 10.5098 7.59643C10.5152 7.56101 10.4985 7.52336 10.4707 7.5064C10.4038 7.46539 10.4216 7.42252 10.4463 7.36324C10.5149 7.1979 10.4386 7.05083 10.2744 7.01765C10.1435 6.99118 10.1247 6.96117 10.161 6.82771C10.2414 6.53245 10.3706 6.25937 10.5211 5.99524C10.8613 5.3982 11.3095 4.88708 11.7497 4.36945C11.8914 4.2028 12.0239 4.02926 12.1476 3.84846C12.1647 3.82329 12.1862 3.79235 12.1569 3.76495C12.125 3.73494 12.0916 3.75507 12.0695 3.78191C12.0343 3.82441 12.0002 3.86896 11.973 3.91705C11.7351 4.33589 11.4131 4.69024 11.1147 5.06062C10.7723 5.48543 10.4715 5.93261 10.2469 6.43254C10.1927 6.55333 10.1559 6.68064 10.1148 6.81876C10.0865 6.73264 10.0898 6.63534 10.0001 6.60999C9.91031 6.63534 9.9136 6.73246 9.88532 6.81876C9.84446 6.68082 9.80761 6.55333 9.75325 6.43254C9.52868 5.93242 9.22786 5.48543 8.88545 5.06062C8.587 4.69024 8.26502 4.33589 8.02714 3.91705C7.99996 3.86896 7.96585 3.82441 7.93064 3.78191C7.90856 3.75507 7.87518 3.73494 7.84326 3.76495C7.81388 3.79235 7.83541 3.82329 7.85256 3.84846C7.97624 4.02926 8.10868 4.2028 8.25043 4.36945C8.69062 4.88708 9.13884 5.39838 9.47906 5.99524C9.62956 6.25937 9.75872 6.53245 9.83917 6.82771C9.87547 6.96099 9.85668 6.99118 9.7257 7.01765C9.56133 7.05083 9.48526 7.19772 9.55385 7.36324C9.57848 7.42252 9.59618 7.46539 9.52941 7.5064C9.50168 7.52336 9.48472 7.56101 9.49037 7.59643C9.49821 7.64638 9.48198 7.67863 9.44203 7.70641C9.42306 7.71964 9.40281 7.74238 9.39825 7.76419C9.37581 7.87174 9.31853 7.84397 9.26143 7.80203C9.18992 7.74946 9.1071 7.73008 9.02446 7.71032C8.60634 7.61059 8.17855 7.57425 7.75441 7.51367C7.11173 7.42196 6.46467 7.42308 5.81743 7.41413C5.27125 7.40667 4.72506 7.34516 4.17943 7.3528C3.32495 7.36454 2.48999 7.50696 1.71834 7.91107C1.4447 8.05442 1.21393 8.2561 1.04774 8.52638C1.00615 8.59386 0.968205 8.66134 1.04136 8.73534C1.07091 8.76535 1.04482 8.79946 1.03169 8.83003C0.960543 8.99463 1.0222 9.24068 1.16322 9.35009C1.23692 9.40732 1.28854 9.48039 1.3367 9.56166C1.41478 9.69344 1.5474 9.76595 1.68167 9.82001C1.78036 9.85971 1.85552 9.9093 1.92958 9.99131C2.04889 10.1237 2.18498 10.2504 2.38072 10.261C2.43362 10.2638 2.47613 10.2849 2.51608 10.3261C2.61477 10.4279 2.73353 10.5043 2.85794 10.5677C2.94642 10.6128 3.0203 10.6605 3.03617 10.7707C3.0453 10.8346 3.08652 10.887 3.13049 10.9272C3.27406 11.0588 3.40777 11.2091 3.6192 11.2296C3.67156 11.2346 3.72045 11.257 3.72629 11.3243C3.72702 11.3327 3.73304 11.3427 3.7396 11.3481C3.9182 11.4958 4.05757 11.7002 4.31406 11.7334C4.40381 11.745 4.49393 11.7843 4.53936 11.8861C4.56927 11.9532 4.63641 11.9875 4.69788 12.0209C4.79895 12.0757 4.89089 12.1325 4.91716 12.2619C4.93029 12.3266 4.98411 12.3752 5.0091 12.4404C5.08535 12.6386 5.12932 12.8543 5.29113 13.0105C5.34713 13.0645 5.3984 13.1147 5.47629 13.1378C5.58903 13.1713 5.66492 13.2381 5.72147 13.3588C5.81469 13.5581 5.98033 13.7007 6.20307 13.7315C6.35193 13.752 6.46084 13.8036 6.54439 13.9372C6.65111 14.108 6.77735 14.2627 6.99753 14.2925C7.1017 14.3067 7.20367 14.2951 7.30565 14.2884C7.37698 14.2838 7.4266 14.2942 7.48297 14.3498C7.58476 14.4502 7.7079 14.5007 7.86059 14.5C8.02221 14.4992 8.1448 14.4443 8.26064 14.3376C8.3068 14.2951 8.37302 14.2832 8.4469 14.3C8.55088 14.3237 8.65942 14.3581 8.76742 14.3093C8.81011 14.2901 8.85298 14.2869 8.90004 14.2912C9.03029 14.3028 9.11166 14.2114 9.19575 14.1315C9.23643 14.0927 9.28076 14.064 9.33038 14.039C9.56498 13.9208 9.68502 13.7097 9.75616 13.4657C9.81527 13.2628 9.79484 13.0533 9.78298 12.8462C9.77951 12.7868 9.77933 12.7549 9.84847 12.7685C9.87237 12.7732 9.89991 12.7711 9.91724 12.7517C9.97161 12.6912 9.98675 12.7187 9.99423 12.7825C9.99587 12.7967 10.005 12.7967 10.0066 12.7825C10.0141 12.7187 10.0293 12.6912 10.0836 12.7517C10.1009 12.7709 10.1285 12.7732 10.1524 12.7685C10.2215 12.7549 10.2213 12.7868 10.2179 12.8462C10.2058 13.0533 10.1856 13.2628 10.2447 13.4657C10.3158 13.7097 10.4359 13.9208 10.6705 14.039C10.7203 14.0642 10.7644 14.0929 10.8051 14.1315C10.8892 14.2114 10.9706 14.3028 11.1008 14.2912C11.1479 14.2869 11.1909 14.2901 11.2334 14.3093C11.3414 14.3581 11.45 14.3237 11.554 14.3C11.6278 14.2832 11.6941 14.2951 11.7402 14.3376C11.8562 14.4443 11.9786 14.4992 12.1403 14.5C12.293 14.5007 12.4163 14.45 12.5179 14.3498C12.5741 14.2944 12.6237 14.2838 12.6952 14.2884C12.7974 14.2951 12.8993 14.3067 13.0033 14.2925C13.2235 14.2625 13.3498 14.108 13.4565 13.9372C13.54 13.8036 13.6489 13.752 13.7978 13.7315C14.0205 13.7007 14.186 13.5581 14.2794 13.3588C14.3359 13.2381 14.4116 13.1713 14.5246 13.1378C14.6023 13.1147 14.6535 13.0645 14.7097 13.0105C14.8715 12.8543 14.9155 12.6386 14.9918 12.4404C15.0169 12.3752 15.0706 12.3266 15.0837 12.2619C15.11 12.1325 15.2019 12.0757 15.303 12.0209C15.3643 11.9875 15.4316 11.9532 15.4615 11.8861C15.5069 11.7843 15.597 11.745 15.6868 11.7334C15.9433 11.7002 16.0827 11.4958 16.2613 11.3481C16.2678 11.3427 16.2738 11.3327 16.2746 11.3243C16.2804 11.257 16.3293 11.2346 16.3817 11.2296C16.5929 11.2091 16.7268 11.0588 16.8704 10.9272C16.9143 10.887 16.9556 10.8344 16.9647 10.7707C16.9806 10.6605 17.0544 10.6128 17.1429 10.5677C17.2675 10.5043 17.3863 10.4279 17.4848 10.3261C17.5245 10.2851 17.5672 10.264 17.6201 10.261C17.8159 10.2504 17.952 10.1235 18.0713 9.99131C18.1453 9.9093 18.2205 9.85953 18.3192 9.82001C18.4535 9.76595 18.5859 9.69344 18.6642 9.56166C18.7123 9.48057 18.7638 9.40732 18.8376 9.35009C18.9787 9.24068 19.0403 8.99463 18.9692 8.83003C18.9559 8.79946 18.93 8.76517 18.9595 8.73534H18.9588Z" fill="#DFB783"/>
</svg>
