<svg viewBox="0 0 20 20" xmlns="http://www.w3.org/2000/svg">
<rect width="100%" height="100%" fill="white"/>
<path fill-rule="evenodd" clip-rule="evenodd" d="M12.26 10.8229H14.3002V7.6099H15.4537V13.5103H11.1252V12.4573H14.2791V11.9527H4.22064V8.7051H2.19561V11.908H1.02109C1.01924 11.8686 1.01681 11.8284 1.01434 11.7875C1.00894 11.6982 1.00338 11.6061 1.00338 11.514L1 6H2.15849V7.57699H5.53101V10.8187H7.55604V7.61412H12.26V10.8229ZM10.9184 8.6992H8.94234V9.15145H10.9184V8.6992ZM8.93475 10.8255H11.088V10.2897H8.93475V10.8255ZM16.6071 8.16595V9.42569H19V9.98679H16.0131V7.61159H18.4001V7.00746H16.0072V6.4472H18.9932V8.16595H16.6071Z" fill="black"/>
</svg>
