<svg xmlns="http://www.w3.org/2000/svg" viewBox="0 0 20 20">
  <rect width="100%" height="100%" fill="#fff"/>
  <path fill="#fff" d="M19.229 14.016a1.704 1.704 0 0 0-.232-.511c.023-.083.04-.167.052-.251.074-.537-.112-1.028-.463-1.409a1.615 1.615 0 0 0-.61-.429 8.143 8.143 0 0 0-.154-4.281 8.203 8.203 0 0 0-.274-.752 8.255 8.255 0 0 0-3.296-3.812 8.144 8.144 0 0 0-4.242-1.183A8.18 8.18 0 0 0 2.047 11.44c-.194.085-.38.216-.553.406-.35.38-.537.87-.462 1.407.011.085.028.17.05.252-.104.157-.182.33-.23.512-.108.41-.073.78.064 1.103-.149.423-.111.874.082 1.266.142.286.343.507.592.705.296.235.666.435 1.113.627.533.227 1.184.44 1.48.52.764.197 1.497.322 2.24.329 1.057.01 1.968-.24 2.62-.876a7.916 7.916 0 0 0 1.987-.006c.651.641 1.566.892 2.628.882.742-.006 1.475-.131 2.237-.33a12.88 12.88 0 0 0 1.482-.519c.446-.192.817-.391 1.114-.626a2.07 2.07 0 0 0 .59-.706c.196-.392.232-.842.085-1.265.135-.324.17-.694.063-1.104Zm-.758 1.076c.15.285.16.607.027.906-.201.455-.7.813-1.67 1.197-.602.239-1.154.392-1.159.393-.797.207-1.518.312-2.142.312-1.033 0-1.802-.285-2.29-.848a7.678 7.678 0 0 1-2.492.014c-.489.553-1.253.834-2.278.834-.624 0-1.345-.105-2.142-.312-.005-.001-.557-.154-1.16-.393-.969-.384-1.468-.742-1.669-1.197a1.023 1.023 0 0 1 .072-.983 1.15 1.15 0 0 1-.155-.93 1.04 1.04 0 0 1 .35-.55 1.145 1.145 0 0 1-.155-.433c-.048-.334.063-.667.312-.939.194-.211.468-.328.772-.328H2.7a7.593 7.593 0 1 1 14.495.006c.037-.003.072-.005.108-.005.303 0 .578.116.772.327.249.272.36.605.311.939-.021.153-.074.3-.155.433.167.136.29.324.35.55a1.15 1.15 0 0 1-.155.93.94.94 0 0 1 .045.077Z"/>
  <path fill="#FF9D00" d="M18.426 15.015a1.149 1.149 0 0 0 .155-.93 1.04 1.04 0 0 0-.35-.55c.08-.132.133-.28.155-.433.049-.334-.062-.667-.311-.939a1.031 1.031 0 0 0-.88-.322A7.593 7.593 0 1 0 2.7 11.836H2.69c-.303 0-.578.116-.772.327-.249.272-.36.605-.311.939.022.153.075.3.155.433a1.04 1.04 0 0 0-.35.55 1.15 1.15 0 0 0 .155.93 1.045 1.045 0 0 0-.072.984c.201.454.7.812 1.67 1.196.602.24 1.154.392 1.159.393.797.207 1.518.312 2.142.312 1.025 0 1.79-.28 2.277-.834a7.681 7.681 0 0 0 2.493-.014c.488.563 1.257.848 2.29.848.625 0 1.345-.105 2.142-.312.005-.001.557-.154 1.16-.393.969-.384 1.468-.742 1.669-1.196a1.022 1.022 0 0 0-.072-.984Zm-10.03 1.184a3.11 3.11 0 0 1-.136.215 1.371 1.371 0 0 1-.485.431c-.368.2-.834.271-1.308.271-.748 0-1.516-.175-1.945-.287-.022-.005-2.636-.744-2.305-1.372.056-.106.147-.148.263-.148.466 0 1.314.694 1.68.694.08 0 .138-.035.162-.12.155-.557-2.363-.791-2.15-1.598.037-.143.138-.201.28-.201.617 0 2 1.083 2.29 1.083.021 0 .037-.006.046-.02l.004-.006c.135-.224.057-.387-.873-.957l-.089-.054c-1.023-.62-1.742-.992-1.333-1.437.047-.051.114-.074.195-.074.095 0 .212.032.34.086.54.228 1.29.85 1.602 1.12l.147.13s.396.412.636.412a.145.145 0 0 0 .133-.075c.17-.287-1.578-1.611-1.676-2.158-.067-.37.047-.558.257-.558a.7.7 0 0 1 .357.128c.417.265 1.224 1.652 1.52 2.19.098.182.267.258.42.258.302 0 .538-.3.027-.682-.767-.574-.498-1.513-.132-1.57a.299.299 0 0 1 .048-.005c.333 0 .48.574.48.574s.43 1.082 1.17 1.821c.671.671.765 1.222.374 1.909Zm2.391.127-.038.004-.065.008a8.632 8.632 0 0 1-.104.01l-.033.003-.031.003-.044.003-.048.003-.048.004h-.011l-.038.002-.016.001-.045.002-.052.003-.048.001-.031.001h-.061l-.03.001h-.228l-.036-.001-.03-.001-.038-.001-.047-.002-.042-.002h-.01l-.04-.002-.034-.002-.026-.002a6.43 6.43 0 0 1-.098-.007l-.034-.002-.043-.004-.05-.005a6.021 6.021 0 0 1-.085-.008h-.001c.41-.916.202-1.772-.627-2.6-.544-.544-.906-1.347-.981-1.523-.153-.521-.555-1.101-1.223-1.101-.057 0-.113.004-.169.013a1.117 1.117 0 0 0-.73.468c-.198-.245-.39-.44-.563-.55-.262-.166-.523-.25-.777-.25-.317 0-.6.13-.798.366l-.005.006-.011-.046v-.002a6.612 6.612 0 0 1-.095-.487l-.001-.003-.006-.037a5.894 5.894 0 0 1-.015-.11l-.007-.05-.006-.05-.005-.047v-.004a7.087 7.087 0 0 1-.02-.194l-.002-.025-.003-.042a1.46 1.46 0 0 1-.002-.035v-.008a4.686 4.686 0 0 1-.007-.098l-.002-.051-.002-.045v-.013l-.002-.041v-.035L3.14 9.7v-.132a6.809 6.809 0 0 1 13.617 0V9.7l-.001.037-.001.032-.002.04v.002l-.001.048-.002.042v.01l-.003.044c-.005.095-.013.19-.022.286v.001l-.005.047-.004.037-.008.072-.004.037-.006.043-.006.047a2.871 2.871 0 0 1-.008.052l-.006.041-.007.047a1.798 1.798 0 0 1-.009.046l-.008.047a4.858 4.858 0 0 1-.044.23l-.01.046-.01.046a1.025 1.025 0 0 0-.726-.288 1.45 1.45 0 0 0-.776.25c-.174.11-.365.305-.563.55a1.118 1.118 0 0 0-.73-.468 1.084 1.084 0 0 0-.17-.013c-.668 0-1.07.58-1.222 1.101-.075.177-.438.98-.982 1.523-.83.827-1.039 1.678-.635 2.59Zm7.03-1.834-.003.008a.487.487 0 0 1-.095.153l-.012.014a.76.76 0 0 1-.02.02c-.121.12-.305.226-.514.322l-.072.032-.024.01a1.899 1.899 0 0 1-.098.043l-.05.02c-.118.049-.238.095-.355.14l-.05.02-.05.019a9.957 9.957 0 0 0-.097.038l-.048.02-.047.019-.023.01-.045.019c-.345.148-.593.298-.54.485a.211.211 0 0 0 .023.054l.016.02c.062.064.173.054.314.004l.059-.023.012-.005a2.68 2.68 0 0 0 .1-.045l.027-.013c.172-.084.367-.197.56-.3a4.98 4.98 0 0 1 .235-.12c.184-.086.356-.147.494-.147a.31.31 0 0 1 .17.044l.008.005a.263.263 0 0 1 .085.099c.068.13.011.264-.123.396-.128.127-.328.25-.556.365l-.05.026c-.677.332-1.563.582-1.575.585-.237.062-.574.142-.955.202l-.056.009-.01.001a6.155 6.155 0 0 1-.258.034l-.009.001c-.16.019-.32.031-.481.037h-.002a4.838 4.838 0 0 1-.175.003h-.067a4.213 4.213 0 0 1-.266-.012h-.006a2.771 2.771 0 0 1-.323-.042l-.03-.005h-.001a2.263 2.263 0 0 1-.147-.033l-.01-.003-.027-.007-.005-.001-.027-.008a1.708 1.708 0 0 1-.03-.01h-.004l-.026-.008a.923.923 0 0 1-.03-.01l-.024-.008-.017-.006a1.711 1.711 0 0 1-.051-.018l-.016-.007-.014-.005c-.025-.01-.05-.02-.075-.032l-.017-.008-.003-.002a1.382 1.382 0 0 1-.052-.025l-.003-.001-.017-.01a1.41 1.41 0 0 1-.086-.048l-.016-.01a.601.601 0 0 1-.023-.014l-.02-.014-.022-.015-.012-.009a1.001 1.001 0 0 1-.04-.03l-.022-.016a1 1 0 0 1-.045-.038.955.955 0 0 1-.022-.02l-.02-.02h-.002a.69.69 0 0 1-.02-.02l-.021-.022-.02-.022a1.217 1.217 0 0 1-.02-.021l-.002-.003a.753.753 0 0 1-.055-.068 1.639 1.639 0 0 1-.036-.05l-.01-.016a2.049 2.049 0 0 1-.074-.114l-.019-.03-.002-.004a1.855 1.855 0 0 1-.027-.046l-.01-.017-.004-.009-.004-.005a2.053 2.053 0 0 1-.017-.033l-.008-.014-.008-.016-.008-.015c-.02-.04-.04-.082-.058-.123l-.006-.015-.012-.03-.006-.015a1.53 1.53 0 0 1-.027-.075l-.008-.027a1.03 1.03 0 0 1-.035-.135l-.002-.015a.99.99 0 0 1-.014-.086l-.001-.015a1.1 1.1 0 0 1-.005-.057v-.043c-.006-.384.188-.753.604-1.169.74-.739 1.17-1.82 1.17-1.82s.012-.046.036-.11a1.21 1.21 0 0 1 .058-.136l.004-.007c.014-.03.03-.06.048-.088l.013-.02a.896.896 0 0 1 .067-.086l.01-.01a.383.383 0 0 1 .148-.1l.007-.003a.757.757 0 0 1 .03-.008h.004a.28.28 0 0 1 .035-.005h.02a.225.225 0 0 1 .047.003c.067.01.13.05.185.111a.54.54 0 0 1 .086.13l.011.024a.916.916 0 0 1 .078.426 1.069 1.069 0 0 1-.07.34l-.012.03a.895.895 0 0 1-.05.104l-.017.03c-.015.025-.03.049-.047.073l-.01.015a1.4 1.4 0 0 1-.285.287c-.054.04-.105.085-.152.133-.135.142-.166.267-.136.362a.232.232 0 0 0 .051.086l.005.005.005.004.015.014.005.005c.014.01.027.019.042.027l.012.006a.367.367 0 0 0 .063.024l.006.001.008.003.006.001.008.002.008.002h.007l.015.003h.006l.009.002h.006l.01.001h.065l.012-.002.012-.001.008-.001a.449.449 0 0 0 .105-.029l.014-.006a.362.362 0 0 0 .07-.038.454.454 0 0 0 .058-.045l.012-.012a.068.068 0 0 0 .006-.006l.012-.012a.542.542 0 0 0 .075-.104c.175-.32.36-.635.552-.945l.027-.042.026-.042.04-.064.014-.021.136-.209.028-.04c.055-.082.11-.162.164-.237l.027-.037c.059-.082.12-.161.184-.24l.026-.03.013-.014.024-.03.013-.013.024-.027.012-.014.036-.037.023-.024a.941.941 0 0 1 .15-.124l.012-.008a.445.445 0 0 1 .038-.023c.212-.12.388-.13.49-.028.06.061.094.163.092.304V11.977l-.001.02-.002.024-.002.021v.006a.326.326 0 0 1-.003.02v.005a.54.54 0 0 1-.004.025l-.004.024-.002.013a.376.376 0 0 1-.035.106 1.008 1.008 0 0 1-.107.185c-.028.04-.058.08-.088.12l-.014.017c-.05.062-.102.123-.155.183l-.017.019-.07.076-.017.02-.036.038a2.526 2.526 0 0 1-.036.039l-.037.038-.038.04-.037.039-.077.079c-.364.373-.748.746-.878.978a.484.484 0 0 0-.023.046.193.193 0 0 0-.021.108c.001.01.005.019.01.027a.172.172 0 0 0 .041.048c.027.019.06.029.092.028h.01l.01-.001.011-.001.01-.001.003-.001.008-.002h.002l.009-.002h.003a.326.326 0 0 0 .01-.003l.01-.004a.421.421 0 0 0 .07-.027l.012-.006.012-.006c.029-.015.057-.03.084-.048l.012-.008a.25.25 0 0 0 .012-.008l.012-.008.007-.005.017-.012c.016-.01.03-.022.046-.034l.002-.001.024-.019c.033-.026.064-.052.092-.077l.02-.016v-.002l.01-.008c.024-.021.045-.04.062-.057l.007-.007.017-.016.01-.01.003-.003.001-.001.011-.01.007-.008.004-.003.004-.004.004-.004.018-.016.01-.01.017-.014.012-.01.007-.006.013-.012.018-.016.01-.009a14.9 14.9 0 0 1 .142-.121l.022-.02.037-.03.038-.032.159-.13.037-.03a25.81 25.81 0 0 1 .237-.184c.077-.058.157-.116.237-.173l.035-.024.072-.05.022-.014c.043-.03.087-.058.13-.086l.022-.013.022-.014.065-.04.021-.012.043-.025.042-.024.009-.005.033-.018.042-.022.02-.01.02-.011.021-.01a1.972 1.972 0 0 1 .176-.076l.037-.013a1.06 1.06 0 0 1 .032-.01l.003-.001a.389.389 0 0 1 .017-.005h.002a.753.753 0 0 1 .177-.028h.007l.03.001.012.002h.002c.005 0 .009 0 .013.002l.013.002h.001l.013.004a.232.232 0 0 1 .091.05l.003.003a.049.049 0 0 1 .005.004l.004.005a.492.492 0 0 1 .088.128l.004.009a.298.298 0 0 1 .004.23.42.42 0 0 1-.031.063.73.73 0 0 1-.099.13l-.008.01a1.324 1.324 0 0 1-.037.037l-.018.017-.018.017-.01.008a1.767 1.767 0 0 1-.115.095 3.919 3.919 0 0 1-.261.184 9.167 9.167 0 0 1-.25.158c-.177.109-.373.225-.582.351l-.054.033c-.06.036-.115.07-.168.104l-.026.016-.05.032a21.05 21.05 0 0 0-.1.065l-.027.017a2.01 2.01 0 0 0-.039.026l-.012.008-.039.026-.02.014-.025.017-.022.015a4.586 4.586 0 0 0-.104.076l-.012.01a2.621 2.621 0 0 0-.132.107l-.011.01a1.091 1.091 0 0 0-.02.018l-.011.012-.006.006a1.167 1.167 0 0 0-.038.04l-.006.006a.518.518 0 0 0-.034.045l-.005.006a.372.372 0 0 0-.026.045l-.005.009-.003.006-.002.005-.001.004-.002.005a.23.23 0 0 0-.012.047v.006l-.001.005v.028a.03.03 0 0 0 0 .008v.004l.002.007a.106.106 0 0 0 .004.02l.002.01a.22.22 0 0 0 .011.032l.004.007.004.01.016.03.006.01.006.011a.044.044 0 0 0 .004.005l.002.002.002.002.002.002a.042.042 0 0 0 .011.005l.007.002c.052.012.158-.03.3-.106l.025-.013.043-.024.021-.011.046-.026.029-.016c.187-.108.41-.246.641-.382l.066-.037.043-.028a12.711 12.711 0 0 1 .348-.19l.042-.021.085-.041a3.66 3.66 0 0 1 .163-.073l.03-.012.003-.002c.16-.063.305-.102.422-.102a.366.366 0 0 1 .099.011.235.235 0 0 1 .174.164.352.352 0 0 1 .003.233Z"/>
  <path fill="#FFD21E" fill-rule="evenodd" d="M16.757 9.612v-.044a6.809 6.809 0 0 0-13.617 0v.015a.639.639 0 0 0 0 .073l.001.033v.027l.001.026.001.035.002.041v.013l.002.043v.002l.002.05v.001l.003.05.003.048v.002l.003.04v.004l.003.04v.002l.002.022c.006.065.012.13.02.194v.004l.005.048.006.05.005.034.002.015.015.11v.002l.006.035a6.7 6.7 0 0 0 .095.49v.002l.004.012.008.034.005-.006c.197-.236.481-.366.798-.366.254 0 .515.084.777.25.173.11.365.305.562.55.183-.253.439-.422.731-.468.056-.009.113-.013.17-.013.667 0 1.07.58 1.222 1.101.075.176.437.979.983 1.522.83.829 1.037 1.684.626 2.6h.002l.084.009.05.004h.006l.038.004.034.003.097.007.026.001.021.001.013.001.04.002h.01l.043.002.047.002.038.001h.006a.48.48 0 0 0 .024.001h.008c.054.002.106.002.16.002H10.09l.014-.001h.032l.031-.001.048-.002.052-.002.045-.002.016-.001.024-.002h.014l.01-.001.049-.003.048-.004.044-.003.03-.003.034-.003c.056-.005.113-.01.169-.018l.038-.004c-.404-.912-.195-1.764.632-2.59.544-.544.906-1.346.982-1.523.152-.521.554-1.1 1.222-1.1.057 0 .113.004.17.012.292.046.547.215.73.469.198-.246.39-.44.563-.551.261-.166.522-.25.776-.25.28 0 .534.102.726.288l.01-.046.01-.045a8.813 8.813 0 0 0 .044-.231l.003-.017.006-.03.008-.046v-.006l.007-.04.006-.042c.005-.03.01-.061.013-.092l.001-.007.006-.043.004-.037.009-.072.003-.029v-.008l.005-.047v-.001l.004-.037.016-.214.002-.035.002-.045V9.9l.005-.089v-.046l.002-.029V9.692l.001-.036v-.044ZM8.26 16.414c.54-.79.501-1.384-.238-2.124-.74-.74-1.17-1.82-1.17-1.82s-.162-.629-.528-.57c-.367.057-.636.995.132 1.57.767.574-.153.964-.448.425-.296-.54-1.102-1.925-1.52-2.19-.418-.266-.713-.117-.614.43.049.27.504.734.93 1.166.431.439.832.847.746.99-.17.287-.769-.336-.769-.336s-1.875-1.707-2.283-1.262c-.377.41.204.759 1.098 1.296l.235.141c1.023.62 1.103.783.957 1.017-.053.087-.396-.119-.817-.372-.719-.43-1.666-1-1.8-.49-.115.44.582.71 1.214.955.526.204 1.008.39.937.643-.074.263-.472.044-.906-.195-.489-.27-1.024-.564-1.199-.231-.33.628 2.283 1.367 2.305 1.372.844.22 2.989.684 3.738-.415Zm3.474 0c-.539-.79-.5-1.384.24-2.124.739-.74 1.17-1.82 1.17-1.82s.16-.629.527-.57c.367.057.635.995-.132 1.57-.768.574.153.964.448.425.296-.54 1.101-1.925 1.52-2.19.418-.266.712-.117.613.43-.049.27-.504.734-.93 1.166-.431.439-.832.847-.746.99.17.287.77-.336.77-.336s1.875-1.707 2.283-1.262c.377.41-.204.758-1.098 1.296l-.235.14c-1.023.62-1.103.784-.958 1.018.054.087.397-.119.818-.372.718-.431 1.665-1 1.8-.49.115.44-.582.71-1.214.954-.526.204-1.008.39-.937.644.073.262.471.044.906-.196.488-.268 1.023-.563 1.198-.23.331.628-2.283 1.366-2.304 1.372-.845.22-2.99.684-3.739-.415Z" clip-rule="evenodd"/>
  <path fill="#32343D" fill-rule="evenodd" d="M12.16 7.715c.107.038.186.152.26.26.102.148.197.284.342.207a.98.98 0 1 0-1.325-.405c.067.127.216.067.373.004.124-.05.252-.1.35-.066Zm-4.615 0c-.106.038-.185.152-.26.26-.102.148-.197.284-.342.207a.98.98 0 1 1 1.325-.405c-.067.127-.216.067-.373.004-.124-.05-.252-.1-.35-.066Zm3.901 4.2c.732-.576 1-1.517 1-2.097 0-.458-.308-.314-.801-.07l-.028.014c-.453.225-1.056.523-1.718.523-.662 0-1.265-.298-1.718-.523-.51-.252-.829-.41-.829.056 0 .598.286 1.58 1.07 2.15a1.704 1.704 0 0 1 1.04-.879c.079-.023.16.112.242.25.08.133.161.27.244.27.088 0 .175-.135.26-.266.088-.137.175-.27.258-.244.42.135.772.428.98.816Z" clip-rule="evenodd"/>
  <path fill="#FF323D" d="M11.446 11.915c-.38.3-.887.502-1.547.502-.62 0-1.104-.178-1.476-.448a1.703 1.703 0 0 1 1.04-.88c.153-.046.316.52.485.52.18 0 .355-.562.518-.51.42.135.771.428.98.816Z"/>
  <path fill="#FFAD03" fill-rule="evenodd" d="M5.795 8.53a.636.636 0 1 1-.707-1.057.636.636 0 0 1 .707 1.057Zm9.112 0a.636.636 0 1 1-.707-1.056.636.636 0 0 1 .707 1.056Z" clip-rule="evenodd"/>
</svg>
