<svg viewBox="0 0 20 20" fill="none" xmlns="http://www.w3.org/2000/svg">
<path d="M0 0H20V20H0V0Z" fill="#C9177E"/>
<path fill-rule="evenodd" clip-rule="evenodd" d="M11.055 2.84382L15.7853 5.59496C16.0605 5.75503 16.2889 5.98453 16.4477 6.26052C16.6064 6.53652 16.69 6.84935 16.6899 7.16775V12.8085C16.6899 13.1605 16.5963 13.5061 16.4186 13.8099C16.241 14.1138 15.9857 14.3649 15.679 14.5376L10.9843 17.1812C10.678 17.3536 10.3322 17.4434 9.98078 17.4418C9.62935 17.4401 9.2844 17.347 8.97982 17.1717L4.65631 14.6831C4.32254 14.491 4.04529 14.2143 3.8525 13.8809C3.65972 13.5476 3.5582 13.1692 3.55817 12.7841V7.43112C3.55813 7.04334 3.65726 6.66199 3.84614 6.32332C4.03501 5.98465 4.30736 5.6999 4.63729 5.49614L8.88762 2.87235C9.21246 2.67186 9.58564 2.56331 9.96734 2.55829C10.349 2.55326 10.7249 2.65195 11.055 2.84382V2.84382Z" fill="#FF4088"/>
<path fill-rule="evenodd" clip-rule="evenodd" d="M10.7743 3.32638C10.5317 3.18532 10.2553 3.11277 9.97468 3.11647C9.69404 3.12016 9.41966 3.19997 9.18081 3.34737M9.18077 3.34739L4.93058 5.9711C4.93055 5.97112 4.93052 5.97114 4.93048 5.97116C4.68158 6.1249 4.47612 6.33974 4.33362 6.59525C4.1911 6.85079 4.11631 7.13853 4.11633 7.43113V12.7842C4.11633 12.7842 4.11633 12.7842 4.11633 12.7842C4.11636 13.0712 4.19202 13.3531 4.3357 13.6016C4.47938 13.8501 4.686 14.0563 4.93476 14.1994L9.25824 16.688C9.47891 16.815 9.72882 16.8824 9.98342 16.8837C10.238 16.8849 10.4886 16.8198 10.7104 16.6949L15.4052 14.0513C15.6256 13.9272 15.8091 13.7467 15.9368 13.5283C16.0644 13.3099 16.1317 13.0615 16.1318 12.8086C16.1318 12.8086 16.1318 12.8085 16.1318 12.8085V7.16775C16.1318 6.94705 16.0739 6.7302 15.9639 6.53888C15.8538 6.34756 15.6955 6.18848 15.5047 6.07752L10.7744 3.32642C10.7744 3.3264 10.7744 3.32639 10.7743 3.32638M11.0549 2.84398L11.3355 2.36135C10.9181 2.11869 10.4427 1.99388 9.95999 2.00023C9.47725 2.00659 9.00529 2.14387 8.59446 2.39743L8.59442 2.39745L4.344 5.0213C3.93308 5.27508 3.59389 5.62972 3.35866 6.05152C3.12343 6.4733 2.99997 6.94823 3 7.43118C3 7.4312 3 7.43121 3 7.43123V12.7842C3.00004 13.2674 3.12742 13.7421 3.36931 14.1604C3.6112 14.5787 3.95907 14.9259 4.37785 15.167L8.70137 17.6555C9.08987 17.8791 9.52988 17.9978 9.97813 18C10.4264 18.0021 10.8675 17.8876 11.2581 17.6677L11.2581 17.6677L15.9529 15.024C16.3458 14.8028 16.6729 14.481 16.9005 14.0917C17.1281 13.7024 17.2481 13.2596 17.2481 12.8087V7.16786C17.2481 7.16785 17.2481 7.16783 17.2481 7.16781C17.2481 6.75174 17.139 6.34295 16.9315 5.98229C16.7241 5.62161 16.4256 5.3217 16.0659 5.11252C16.0659 5.11253 16.0659 5.11252 16.0659 5.11252L11.3356 2.36139L11.0549 2.84398Z" fill="white"/>
<path fill-rule="evenodd" clip-rule="evenodd" d="M6.84186 14.2466V5.67896H8.63419V8.79972H11.6078V5.67896H13.4055V14.2466H11.6078V10.5003H8.63419V14.2466H6.84186Z" fill="white"/>
</svg>
