<svg xmlns="http://www.w3.org/2000/svg" viewBox="0 0 20 20">
  <rect width="100%" height="100%"/>
  <path fill="#fff" d="m12.989 17.961 4.01-1.006-1.737-11.87a.154.154 0 0 0-.14-.131c-.057-.005-1.186-.022-1.186-.022s-.689-.675-.947-.93v13.96ZM12.552 3.867l-.474.148a3.375 3.375 0 0 0-.227-.563c-.337-.648-.83-.99-1.424-.992h-.002c-.042 0-.083.004-.124.008A1.24 1.24 0 0 0 9.257 2c-.768.022-1.534.582-2.154 1.578-.437.7-.769 1.58-.863 2.261l-1.513.473c-.446.142-.46.155-.518.58C4.165 7.212 3 16.311 3 16.311L12.67 18V3.847a.558.558 0 0 0-.118.02Zm-2.233.698-1.63.51c.157-.61.456-1.216.823-1.614.137-.148.328-.313.554-.407.212.448.259 1.082.253 1.51ZM9.272 2.517a.778.778 0 0 1 .462.122 2.228 2.228 0 0 0-.596.47c-.489.528-.863 1.35-1.012 2.141l-1.34.419c.265-1.247 1.3-3.117 2.486-3.152Zm-1.495 7.1c.052.831 2.216 1.013 2.338 2.958.095 1.53-.804 2.577-2.1 2.66-1.556.1-2.413-.828-2.413-.828l.33-1.416s.862.657 1.552.613c.45-.03.612-.4.595-.661-.067-1.083-1.83-1.02-1.94-2.8-.095-1.498.88-3.016 3.03-3.152.828-.053 1.252.16 1.252.16L9.93 9.01s-.549-.252-1.199-.211c-.953.06-.964.668-.954.82Zm3.053-5.212c-.005-.393-.052-.94-.233-1.412.583.112.87.778.992 1.175l-.759.237Z"/>
</svg>
