<svg viewBox="0 0 20 20" fill="none" xmlns="http://www.w3.org/2000/svg">
<path d="M0 0H20V20H0V0Z" fill="#F8FAFC"/>
<path d="M15.7385 6.66154V5H14.0769V5.46154H10.2V5H8.53846V5.46154H4.66154V5H3V6.66154H3.46154V8.69231H3V10.3538H3.46154V12.3846H3V14.0462H4.66154V13.5846H8.53846V14.0462H10.2V13.5846H14.0769V14.0462H15.7385V12.3846H15.2769V10.3538H15.7385V8.69231H15.2769V6.66154H15.7385ZM8.90769 5.36923H9.83077V6.29231H8.90769V5.36923ZM3.36923 6.29231V5.36923H4.29231V6.29231H3.36923ZM3.36923 9.98461V9.06154H4.29231V9.98461H3.36923ZM4.29231 13.6769H3.36923V12.7538H4.29231V13.6769ZM9.83077 13.6769H8.90769V12.7538H9.83077V13.6769ZM14.0769 12.8462H10.2V12.3846H8.53846V12.8462H4.66154V12.3846H4.2V10.3538H4.66154V8.69231H4.2V6.66154H4.66154V6.2H8.53846V6.66154H10.2V6.2H14.0769V6.66154H14.5385V8.69231H14.0769V10.3538H14.5385V12.3846H14.0769V12.8462ZM15.3692 12.7538V13.6769H14.4462V12.7538H15.3692ZM15.3692 9.06154V9.98461H14.4462V9.06154H15.3692ZM14.4462 6.29231V5.36923H15.3692V6.29231H14.4462Z" fill="url(#paint0_linear_2162_25)"/>
<path d="M9.55385 8.87695H9.18462V9.33849H8.72308V9.70772H9.18462V10.1693H9.55385V9.70772H10.0154V9.33849H9.55385V8.87695Z" fill="#1960C4"/>
<path fill-rule="evenodd" clip-rule="evenodd" d="M16.2185 16.2802H18L14.9446 13.2156L16.2185 16.2802Z" fill="url(#paint1_linear_2162_25)"/>
<path fill-rule="evenodd" clip-rule="evenodd" d="M14.9446 13.2156V17.554L16.2185 16.2802" fill="url(#paint2_linear_2162_25)"/>
<defs>
<linearGradient id="paint0_linear_2162_25" x1="9.36923" y1="14.0462" x2="9.36923" y2="5" gradientUnits="userSpaceOnUse">
<stop stop-color="#1D40B2"/>
<stop offset="1" stop-color="#1680D6"/>
</linearGradient>
<linearGradient id="paint1_linear_2162_25" x1="15.4273" y1="15.0271" x2="17.519" y2="14.4666" gradientUnits="userSpaceOnUse">
<stop stop-color="#1C1C1C"/>
<stop offset="1" stop-color="#3D3E3F"/>
</linearGradient>
<linearGradient id="paint2_linear_2162_25" x1="14.3996" y1="15.5301" x2="15.9091" y2="15.1256" gradientUnits="userSpaceOnUse">
<stop stop-color="#1C1C1C"/>
<stop offset="1" stop-color="#3D3E3F"/>
</linearGradient>
</defs>
</svg>
