<svg xmlns="http://www.w3.org/2000/svg" viewBox="0 0 20 20">
  <rect width="100%" height="100%" fill="#1EBBEE"/>
  <path fill="#fff" d="M17.7497 10.1764C17.7497 8.88838 17.4125 7.67836 16.8211 6.62692C19.3418 0.993712 14.1201 1.81881 13.8294 1.87498C12.7231 2.08873 11.6997 2.4319 10.7556 2.86692C10.6164 2.85917 10.4763 2.85492 10.3352 2.85492C6.81192 2.85492 3.86274 5.28148 3.10793 8.53443C4.96493 6.47731 6.26452 5.64728 7.04277 5.31511C6.91854 5.42472 6.79693 5.53554 6.67732 5.6472C6.6375 5.68432 6.59914 5.72197 6.55986 5.75931C6.48099 5.83423 6.40227 5.90923 6.3254 5.9849C6.27966 6.02992 6.23515 6.07531 6.19011 6.12063C6.12192 6.18917 6.05389 6.25763 5.98732 6.32656C5.94004 6.37552 5.89392 6.42463 5.84749 6.47366C5.7853 6.5394 5.72349 6.60521 5.66284 6.67125C5.61572 6.72256 5.56937 6.77387 5.52309 6.82533C5.46559 6.88925 5.40863 6.95316 5.35244 7.01722C5.30585 7.07036 5.25965 7.12349 5.21399 7.1767C5.16072 7.23879 5.10814 7.30088 5.0561 7.36297C5.01005 7.41793 4.96416 7.47281 4.91911 7.52769C4.87037 7.58705 4.82271 7.64633 4.77513 7.70554C4.729 7.76292 4.68288 7.82023 4.63784 7.87754C4.59494 7.93212 4.55328 7.98647 4.51131 8.04089C4.46395 8.10237 4.41622 8.16386 4.37009 8.22504C4.33711 8.26884 4.30544 8.31218 4.27308 8.35583C3.98012 8.75054 3.71245 9.13766 3.47069 9.50952C3.47008 9.51043 3.46946 9.51134 3.46893 9.51225C3.40528 9.61017 3.34385 9.70665 3.28366 9.80229C3.28044 9.80745 3.27705 9.81269 3.27382 9.81792C3.21356 9.91394 3.15536 10.0083 3.09863 10.1017C3.09663 10.1049 3.09456 10.1083 3.09256 10.1115C2.94005 10.3629 2.7986 10.6051 2.67123 10.8331C2.00344 12.0281 1.67835 12.863 1.66428 12.9125C-0.444462 20.3568 6.13699 17.2131 7.05538 16.7439C8.04425 17.2263 9.15751 17.4978 10.3352 17.4978C13.5592 17.4978 16.3022 15.4657 17.3232 12.628H13.4273C12.8509 13.5896 11.7411 14.241 10.4661 14.241C8.59804 14.241 7.08374 12.8434 7.08374 11.1193H17.689C17.7292 10.8105 17.75 10.4958 17.75 10.1764H17.7497ZM16.3646 2.97167C17.0031 3.3972 17.5152 4.06547 16.6357 6.316C15.7922 4.97649 14.5232 3.92573 13.0148 3.34816C13.7009 3.02093 15.4002 2.32882 16.3646 2.97167ZM2.79522 16.7289C2.27518 16.2022 2.18325 14.9196 3.33079 12.5823C3.90994 14.2265 5.06563 15.6042 6.5594 16.4785C5.81651 16.8823 3.84429 17.7913 2.79522 16.7289ZM7.06706 9.11701C7.12633 7.44139 8.60319 6.09975 10.4177 6.09975C12.2322 6.09975 13.7092 7.44139 13.7684 9.11701H7.06706Z"/>
</svg>
