<svg viewBox="0 0 20 20" xmlns="http://www.w3.org/2000/svg">
<rect width="100%" height="100%" fill="#176BFF"/>
<path d="M10 4.30001C6.85214 4.30001 4.3 6.85215 4.3 10C4.3 13.1479 6.85214 15.7 10 15.7C13.1479 15.7 15.7 13.1479 15.7 10C15.7 9.74521 15.6834 9.49463 15.6512 9.24916C15.6127 8.95617 15.552 8.67046 15.4708 8.39359C15.4704 8.39227 15.47 8.39096 15.4696 8.38965C15.4894 8.38862 15.5091 8.38733 15.5288 8.38576C15.824 8.36224 16.1114 8.27766 16.3727 8.13715C16.3901 8.12778 16.4073 8.11818 16.4245 8.10835C16.6813 7.96087 16.905 7.76156 17.0811 7.52286C17.082 7.5256 17.083 7.52834 17.0839 7.53108C17.3537 8.305 17.5 9.13628 17.5 10C17.5 14.1421 14.1421 17.5 10 17.5C5.85786 17.5 2.5 14.1421 2.5 10C2.5 5.85786 5.85786 2.50001 10 2.50001C11.6104 2.49779 13.1751 3.01583 14.4632 3.97175C14.611 3.92868 14.7654 3.90625 14.9221 3.90625C15.1376 3.90625 15.3509 3.94869 15.55 4.03113C15.749 4.11358 15.9299 4.23443 16.0822 4.38678C16.2346 4.53912 16.3554 4.71998 16.4379 4.91903C16.5203 5.11808 16.5628 5.33142 16.5628 5.54687C16.5628 5.76232 16.5203 5.97566 16.4379 6.17471C16.3554 6.37376 16.2346 6.55462 16.0822 6.70697C15.9299 6.85932 15.749 6.98016 15.55 7.06261C15.3509 7.14506 15.1376 7.1875 14.9221 7.1875C14.487 7.1875 14.0697 7.01465 13.762 6.70697C13.4544 6.39929 13.2815 5.98199 13.2815 5.54687C13.2815 5.47977 13.2856 5.4131 13.2937 5.34718C12.3635 4.68685 11.2275 4.30001 10 4.30001Z" fill="white"/>
<path d="M12.3191 12.3191C11.704 12.9342 10.8699 13.2803 10 13.2812C9.13019 13.2798 8.29642 12.9337 7.68137 12.3186C7.06632 11.7036 6.72017 10.8698 6.71875 10C6.71974 9.13006 7.06576 8.29604 7.6809 7.6809C8.29604 7.06576 9.13006 6.71974 10 6.71875C10.8699 6.71974 11.704 7.06576 12.3191 7.6809C12.9342 8.29604 13.2803 9.13006 13.2812 10C13.2803 10.8699 12.9342 11.704 12.3191 12.3191Z" fill="white"/>
</svg>
