<svg id="Layer_1" data-name="Layer 1" xmlns="http://www.w3.org/2000/svg" viewBox="0 0 20 20"><defs><style>.cls-1{fill:#147efb;}.cls-2{fill:#fff;}</style></defs><title>iOS</title><rect class="cls-1" width="20" height="20"/><path class="cls-2" d="M8,6.66c-2,0-3.38,1.51-3.38,3.84S6,14.35,8,14.35s3.39-1.51,3.39-3.85S10.09,6.66,8,6.66Zm0,6.87c-1.6,0-2.56-1.13-2.56-3s1-3,2.56-3,2.56,1.16,2.56,3S9.61,13.53,8,13.53Z"/><path class="cls-2" d="M14.89,10.1l-.79-.19c-1.18-.3-1.27-.67-1.27-1,0-.64.62-1.1,1.51-1.1S16,8.3,16,9l.82-.05A2.22,2.22,0,0,0,14.34,7,2.09,2.09,0,0,0,12,8.92c0,1.16,1,1.56,1.91,1.79l.78.19c1.31.33,1.49.8,1.49,1.25,0,.79-.77,1.38-1.78,1.38S12.61,13,12.57,12.2l-.82,0a2.44,2.44,0,0,0,2.65,2.11,2.37,2.37,0,0,0,2.6-2.2C17,10.8,15.8,10.33,14.89,10.1Z"/><rect class="cls-2" x="3" y="9.41" width="0.82" height="4.94"/><rect class="cls-2" x="3" y="7" width="0.82" height="0.82" rx="0.41" ry="0.41"/></svg>