<svg id="Layer_1" data-name="Layer 1" xmlns="http://www.w3.org/2000/svg" viewBox="0 0 20 20"><defs><style>.cls-2{fill:#fff}</style></defs><path fill="#147efb" d="M0 0h20v20H0z"/><path class="cls-2" d="M8 6.66c-2 0-3.38 1.51-3.38 3.84S6 14.35 8 14.35s3.39-1.51 3.39-3.85S10.09 6.66 8 6.66zm0 6.87c-1.6 0-2.56-1.13-2.56-3s1-3 2.56-3 2.56 1.16 2.56 3-.95 3-2.56 3zM14.89 10.1l-.79-.19c-1.18-.3-1.27-.67-1.27-1 0-.64.62-1.1 1.51-1.1S16 8.3 16 9l.82-.05A2.22 2.22 0 0 0 14.34 7 2.09 2.09 0 0 0 12 8.92c0 1.16 1 1.56 1.91 1.79l.78.19c1.31.33 1.49.8 1.49 1.25 0 .79-.77 1.38-1.78 1.38s-1.79-.53-1.83-1.33h-.82a2.44 2.44 0 0 0 2.65 2.11 2.37 2.37 0 0 0 2.6-2.2c0-1.31-1.2-1.78-2.11-2.01zM3 9.41h.82v4.94H3z"/><rect class="cls-2" x="3" y="7" width=".82" height=".82" rx=".41" ry=".41"/></svg>