<svg id="Layer_1" data-name="Layer 1" xmlns="http://www.w3.org/2000/svg" viewBox="0 0 20 20"><defs><style>.cls-2{fill:#333}</style></defs><path fill="#d5d4d8" d="M0 0h20v20H0z"/><path class="cls-2" d="M8.28 6.42c-2 0-3.38 1.51-3.38 3.85s1.33 3.84 3.38 3.84 3.39-1.51 3.39-3.84-1.33-3.85-3.39-3.85zm0 6.87c-1.6 0-2.56-1.13-2.56-3s1-3 2.56-3 2.56 1.15 2.56 3-.98 3-2.56 3zM15.14 9.86l-.79-.19c-1.18-.3-1.27-.66-1.27-1 0-.64.62-1.1 1.51-1.1s1.61.48 1.65 1.16l.82-.05a2.22 2.22 0 0 0-2.47-1.93 2.09 2.09 0 0 0-2.34 1.92c0 1.16 1 1.56 1.91 1.79l.78.19c1.31.33 1.49.8 1.49 1.25 0 .79-.77 1.38-1.78 1.38s-1.79-.56-1.83-1.33L12 12a2.43 2.43 0 0 0 2.65 2.11 2.37 2.37 0 0 0 2.6-2.2c0-1.35-1.2-1.82-2.11-2.05zM3.25 9.17h.82v4.94h-.82z"/><rect class="cls-2" x="3.25" y="6.76" width=".82" height=".82" rx=".41" ry=".41"/></svg>