<svg xmlns="http://www.w3.org/2000/svg" viewBox="0 0 20 20">
  <rect width="100%" height="100%" fill="#1A8CCB"/>
  <path fill="#fff" d="M13.8 10c0 2.3-1.76 4.17-3.93 4.17S5.95 12.31 5.95 10c0-2.3 1.75-4.17 3.92-4.17s3.92 1.86 3.92 4.17Z"/>
  <path fill="#fff" fill-rule="evenodd" d="M12.4 16c3.37 0 6.1-2.69 6.1-6V4H7.6a6.05 6.05 0 0 0-6.1 6v6h10.9Zm.68-10.98h4.38V10a5 5 0 0 1-4.3 4.92A6.07 6.07 0 0 0 15.62 10c0-2.07-1-3.9-2.54-4.98Zm-6.59.12A6.08 6.08 0 0 0 4.12 10c0 2.07 1 3.9 2.54 4.98H2.54V10a5 5 0 0 1 3.95-4.86Zm3.38-.12A4.85 4.85 0 0 0 5.17 10a4.85 4.85 0 0 0 4.7 4.98c2.54 0 4.7-2.17 4.7-4.98a4.85 4.85 0 0 0-4.7-4.98Z" clip-rule="evenodd"/>
</svg>