<svg id="Layer_1" data-name="Layer 1" xmlns="http://www.w3.org/2000/svg" viewBox="0 0 20 20"><defs><style>.cls-1{fill:#669cf2;}.cls-2{fill:#fff;}.cls-3{fill:none;stroke:#fff;stroke-linecap:round;stroke-linejoin:round;}</style></defs><title>java</title><rect class="cls-1" width="20" height="20"/><path class="cls-2" d="M10,16a7,7,0,0,0,7-7H3A7,7,0,0,0,10,16Z"/><path class="cls-2" d="M17,10a1,1,0,0,1,0,2H15a1,1,0,0,1,0-2h2m0-1H15a2,2,0,0,0,0,4h2a2,2,0,0,0,0-4Z"/><path class="cls-3" d="M6.69,7.41l1-1.15a.74.74,0,0,0-.25-1.21L7,4.83a.73.73,0,0,1-.25-1.2l1-1.15"/><path class="cls-3" d="M9.66,7.28l1-1.15a.74.74,0,0,0-.26-1.21L9.94,4.7a.74.74,0,0,1-.25-1.21l1-1.15"/><path class="cls-3" d="M12.63,7.14l1-1.15a.74.74,0,0,0-.25-1.21l-.46-.22a.74.74,0,0,1-.25-1.21l1-1.15"/><rect class="cls-2" x="4" y="15" width="12" height="1" rx="0.5" ry="0.5"/><path class="cls-2" d="M13.88,17H6.12a1,1,0,0,1-.9-.55L4.5,15h11l-.72,1.45A1,1,0,0,1,13.88,17Z"/></svg>