<svg xmlns="http://www.w3.org/2000/svg" viewBox="0 0 20 20">
  <rect width="100%" height="100%" fill="#F80102"/>
  <path fill="#fff" d="M10 11.03c.28.1.59.12.9.1.46-.01.92-.2 1.26-.53.74-.66.84-1.62.12-2.4a2.22 2.22 0 0 0-2.9-.22c-.92.67-1 1.87-.17 2.6.23.2.5.36.78.45Z"/>
  <path fill="#fff" fill-rule="evenodd" d="M14.9 10.1c-.06-.12-.1-.25-.16-.4l.24-.1c.08-.05.15-.11.2-.18a.59.59 0 0 1 .4-.24c.12-.02.24-.06.36-.12a.62.62 0 0 0 .38-.71 44.84 44.84 0 0 1-.12-1.54.22.22 0 0 1 .06-.07c.23-.2.4-.44.5-.71.21-.44.53-.8.93-1.08.1-.06.18-.14.24-.23a.36.36 0 0 0 0-.45c-.11-.15-.26-.07-.37-.01-.17.1-.33.2-.48.32-.17.12-.28.1-.32-.11-.03-.2-.04-.4-.03-.6v-.59a.37.37 0 0 0-.57-.3.44.44 0 0 0-.18.48c.03.23.04.46.03.69 0 .15-.1.2-.23.1a.48.48 0 0 1-.13-.16l-.27-.59c-.1-.24-.23-.34-.44-.27-.2.06-.3.2-.22.46a3.86 3.86 0 0 0 .35.84c.06.12.12.24.16.36a.28.28 0 0 1-.04.25c-.04.04-.17.02-.25 0a1.62 1.62 0 0 1-.2-.12.72.72 0 0 0-.7 0 .6.6 0 0 0-.23.63c.04.15.21.2.5.2a5.52 5.52 0 0 1 .93.15.4.4 0 0 1 .21.4.3.3 0 0 0 .23.35c.2.04.22.17.23.33l.04.33.06.66.01.4a.25.25 0 0 1-.23.27c-.04 0-.09.02-.14.04-.11.05-.23.1-.33-.02a.76.76 0 0 0-.74-.28c-.2.02-.29-.07-.37-.25a5541.71 5541.71 0 0 1-2.6-5.81c-.1-.15-.2-.15-.33-.02l-.11.13-.32.4-.94 1.23a32.37 32.37 0 0 0-2.56 3.9c-.17.3-.32.5-.71.45a.47.47 0 0 0-.53.24c-.1.27-.3.3-.53.35a2.9 2.9 0 0 0-.4.09c-.5.16-.71.21-.84.35-.12.12-.16.32-.27.74l-.02.2c-.02.15-.04.27-.23.28a.25.25 0 0 0-.17.15c-.05.17-.17.24-.31.32h-.01a.79.79 0 0 0-.21.18c-.24.29-.36.32-.7.17a4.24 4.24 0 0 1-.23-.09l-.28-.11c-.27-.1-.4 0-.4.27a.34.34 0 0 0 .34.41l.2.02.44.06c.1.04.2.09.28.15l-.26.11-.22.1c-.23.09-.43.26-.56.48a.25.25 0 0 0 .04.37c.22.15.62.26.85-.02.1-.12.2-.21.34-.29a.3.3 0 0 1 .46.26c0 .11 0 .23-.03.34-.04.2-.07.4-.08.6a.36.36 0 0 0 .18.26.3.3 0 0 0 .27-.08c.1-.13.17-.28.2-.44.03-.13.04-.26.05-.4 0-.12.02-.23.04-.35a.94.94 0 0 1 .16-.41c.15-.19.26-.17.43-.02.14.14.3.25.45.36.14.08.13.17.1.28-.19.7-.31 1.41-.36 2.13-.07.51.02 1.03.23 1.5.3.59.76.8 1.35.43.17-.1.34-.22.51-.34l.37-.26c.25-.18.5-.36.76-.51a3.86 3.86 0 0 1 4.13.02 7.01 7.01 0 0 1 .88.64c.3.24.63.43.99.55a1.16 1.16 0 0 0 1.45-.64c.16-.35.27-.73.3-1.11.1-.95.07-1.9-.1-2.84-.16-1-.43-1.97-.8-2.9Zm.16 2.14a10.32 10.32 0 0 1 .34 2.6c-.02.58-.04 1.17-.29 1.72a.94.94 0 0 1-.45.52.87.87 0 0 1-.83-.1 5.42 5.42 0 0 1-.75-.52 4.17 4.17 0 0 0-5.22-.44c-.22.13-.42.28-.63.43l-.35.26c-.16.1-.33.21-.5.3-.32.16-.56.1-.73-.2-.12-.22-.2-.46-.23-.7a5.69 5.69 0 0 1 .1-1.68 24.68 24.68 0 0 1 1.7-5.16l.06-.11a.29.29 0 0 1 .33-.2h.03c.37.04.58-.1.74-.47.3-.76.95-1.18 1.75-1.34 1.11-.22 2.16.2 2.71 1.1.12.17.2.36.25.56a.34.34 0 0 0 .4.3h.13a.51.51 0 0 1 .53.37l.38 1.14c.19.54.37 1.08.53 1.62ZM4.75 9.67l1.15-.35.12.07.48.28c.02 0 0 .14-.03.21a374.47 374.47 0 0 1-.83 2.25.3.3 0 0 1-.4.08 3.88 3.88 0 0 1-.46-.29.36.36 0 0 1-.19-.46.33.33 0 0 0-.12-.4.3.3 0 0 1-.12-.33l.07-.43.04-.28a.41.41 0 0 1 .29-.35Z" clip-rule="evenodd"/>
</svg>