<svg xmlns="http://www.w3.org/2000/svg" viewBox="0 0 20 20"><defs><style>.b{fill:#fff}</style></defs><path fill="#ec2227" d="M0 0h20v20H0z"/><path class="b" d="M9.94 10.65l-.23-.22-.36-.38-.16-.18c-.14-.15-.27-.3-.4-.46S8.48 9 8.33 8.8A3.81 3.81 0 018 8.25c0-.09-.07-.18-.1-.27s0-.07 0-.1a.88.88 0 010-.36 1.71 1.71 0 01.17-.39 2.29 2.29 0 01.32-.43l.22-.24.39-.31.12-.15.39-.33.27-.23.28-.23.33-.27.25-.21.2-.19a3 3 0 00.42-.54 2.45 2.45 0 00.26-.51 2.78 2.78 0 00.12-.38v-.3a3 3 0 000-.42 1.8 1.8 0 000-.22V2a.85.85 0 01.15.28c0 .12.06.24.08.36a2.51 2.51 0 010 .27 2.67 2.67 0 010 .4 1.79 1.79 0 010 .23 2.56 2.56 0 010 .27 3.39 3.39 0 01-.2.53 2.94 2.94 0 01-.31.47 4 4 0 01-.4.42l-.21.19-.36.35-.39.4-.09.09-.4.42a4.42 4.42 0 00-.44.53 1.9 1.9 0 00-.23.39 1.48 1.48 0 00-.12.4 1 1 0 000 .24 2.33 2.33 0 000 .28c0 .13.08.26.13.39s.18.38.28.57l.17.3c.11.19.23.36.34.54l.21.29a.26.26 0 01.09.04zm-3.37 4.9h-.48l-.31.08a2 2 0 00-.34.12.59.59 0 00-.22.12.3.3 0 00-.12.13.34.34 0 000 .1.94.94 0 00.12.09 1 1 0 00.22.08l.29.07a1.55 1.55 0 00.31.06h.28a1.86 1.86 0 00.33 0h6.39a.76.76 0 00.21 0h.74l.4-.09a2.07 2.07 0 00.45-.17L15 16a.22.22 0 000-.22.76.76 0 000-.11.5.5 0 01.15.14.21.21 0 010 .15.14.14 0 010 .06.8.8 0 01-.13.13 2 2 0 01-.5.3 3.41 3.41 0 01-.48.18l-.51.14-.32.07h-2a2.48 2.48 0 01-.38 0 2.45 2.45 0 01-.27 0H6.6a2.11 2.11 0 01-.25 0H5.14l-.26-.06a1.7 1.7 0 01-.37-.1l-.2-.08a.57.57 0 01-.13-.08.24.24 0 01-.1-.15v-.08a.52.52 0 01.19-.27 1.54 1.54 0 01.39-.23 5.6 5.6 0 01.54-.17 2.88 2.88 0 01.4-.09h.48a2.36 2.36 0 01.37 0h.12z"/><path class="b" d="M10.6 11.24l.1-.14a3.14 3.14 0 00.28-.46.72.72 0 00.07-.43.92.92 0 00-.11-.33c-.08-.14-.18-.27-.27-.4l-.28-.4a2.11 2.11 0 01-.27-.59 1 1 0 010-.23A1.15 1.15 0 0110 8a1.67 1.67 0 01.12-.58 1.87 1.87 0 01.39-.61.94.94 0 01.1-.1 2.88 2.88 0 01.46-.39 5 5 0 01.65-.41c.2-.11.41-.2.62-.29a5.87 5.87 0 01.66-.24l.44-.14a.08.08 0 01.07 0l-.44.28c-.16.1-.33.21-.49.33s-.4.28-.59.44l-.3.25-.25.24a2.29 2.29 0 00-.32.43 1 1 0 00-.14.33.87.87 0 000 .36c0 .09.07.18.11.27a4.26 4.26 0 00.32.5c.09.15.18.3.26.46a2.09 2.09 0 01.16.44.86.86 0 010 .32 1.08 1.08 0 01-.13.37 2.14 2.14 0 01-.41.49 3.29 3.29 0 01-.41.33l-.21.14-.07.02zm1.9 3.86l-.19.07-.31.09-.47.12a4 4 0 01-.5.11H9.29a1.36 1.36 0 01-.2 0 1.94 1.94 0 01-.24 0H8.4l-.35-.07a2.76 2.76 0 01-.51-.16.92.92 0 01-.3-.18.42.42 0 01-.11-.08.37.37 0 010-.18.44.44 0 01.17-.21 1.27 1.27 0 01.45-.19.21.21 0 000 .1.17.17 0 000 .12l.1.07h.09a2 2 0 00.26.06h3.11l.22-.05a.17.17 0 01.15 0l.24.13a3.16 3.16 0 00.52.26zm-5.06-2.48l-.09.11a.33.33 0 00-.07.13.28.28 0 000 .09.22.22 0 00.11.12.62.62 0 00.22.1h3.96l.34-.05h.15a.21.21 0 01.13.05l.23.17a1.11 1.11 0 00.29.14.7.7 0 01-.19.06l-.31.09-.33.08-.2.05-.26.05H7.75a4.35 4.35 0 01-.52-.1 1.4 1.4 0 01-.36-.13.36.36 0 01-.12-.08.26.26 0 01-.09-.28.48.48 0 01.17-.27 1.37 1.37 0 01.47-.23h.08z"/><path class="b" d="M13.37 11.35l-.13.09-.45.27a.39.39 0 01-.15.06h-1.46L11 12H9.24a4.18 4.18 0 01-.5 0H6.18a3.14 3.14 0 01-.4-.08 2 2 0 01-.26-.09.38.38 0 01-.13-.09v-.13l.08-.09a2.12 2.12 0 01.2-.12 4.66 4.66 0 01.66-.28l.59-.17.3-.06.31-.06H8l-.2.06-.31.09-.5.17-.3.15-.12.1a.22.22 0 000 .11.09.09 0 000 .06.18.18 0 00.07.05 1 1 0 00.25.07h.4a1.79 1.79 0 01.23 0h5.8zm2.55 5.13a.34.34 0 01-.06.15.71.71 0 01-.1.14 1.75 1.75 0 01-.33.28l-.2.12c-.12.07-.26.13-.39.19a3.66 3.66 0 01-.43.15l-.38.1a2.84 2.84 0 01-.31.06h-1.81a1.37 1.37 0 00-.28 0 2.45 2.45 0 00-.27 0H7.58l-.35-.06-.32-.07-.36-.09-.19-.06a.33.33 0 01.14 0h.75a1.49 1.49 0 01.21 0h4.64a1.25 1.25 0 00.19 0h1.33l.23-.05.3-.07.61-.19.34-.14a1.36 1.36 0 00.21-.1 3.55 3.55 0 00.53-.32zm-2.46-2.75a.23.23 0 01.1-.07l.34-.22c.15-.1.29-.21.44-.33a2.25 2.25 0 00.24-.21l.12-.11a3.88 3.88 0 00.26-.31 1.68 1.68 0 00.28-.53.93.93 0 00-.11-.76.68.68 0 00-.27-.26 1 1 0 00-.29-.1h-.73l.15-.09a1.12 1.12 0 01.26-.08 1.15 1.15 0 01.26 0h.09a2.6 2.6 0 01.39.05 1.83 1.83 0 01.32.14 1.33 1.33 0 01.3.23 1 1 0 01.28.5.78.78 0 010 .14v.17a.76.76 0 01-.06.26 1.05 1.05 0 01-.15.3l-.15.2a.65.65 0 01-.11.12l-.16.15a4.08 4.08 0 01-.33.25l-.41.23a4.35 4.35 0 01-.59.25l-.45.14z"/></svg>