<svg id="Layer_1" data-name="Layer 1" xmlns="http://www.w3.org/2000/svg" viewBox="0 0 20 20"><defs><style>.cls-2{fill:#fff}.cls-3{fill:none;stroke:#fff;stroke-linecap:round;stroke-linejoin:round}</style></defs><path fill="#669cf2" d="M0 0h20v20H0z"/><path class="cls-2" d="M10 16a7 7 0 0 0 7-7H3a7 7 0 0 0 7 7z"/><path class="cls-2" d="M17 10a1 1 0 0 1 0 2h-2a1 1 0 0 1 0-2h2m0-1h-2a2 2 0 0 0 0 4h2a2 2 0 0 0 0-4z"/><path class="cls-3" d="M6.69 7.41l1-1.15a.74.74 0 0 0-.25-1.21L7 4.83a.73.73 0 0 1-.25-1.2l1-1.15M9.66 7.28l1-1.15a.74.74 0 0 0-.26-1.21l-.46-.22a.74.74 0 0 1-.25-1.21l1-1.15M12.63 7.14l1-1.15a.74.74 0 0 0-.25-1.21l-.46-.22a.74.74 0 0 1-.25-1.21l1-1.15"/><rect class="cls-2" x="4" y="15" width="12" height="1" rx=".5" ry=".5"/><path class="cls-2" d="M13.88 17H6.12a1 1 0 0 1-.9-.55L4.5 15h11l-.72 1.45a1 1 0 0 1-.9.55z"/></svg>