<svg xmlns="http://www.w3.org/2000/svg" viewBox="0 0 20 20"><path fill="#f80102" d="M0 0h20v20H0z" data-name="Layer 1"/><g data-name="Layer 2" fill="#fff"><path d="M15.11 9.69c.06.15.12.29.17.43a14.08 14.08 0 0 1 .82 3 10.16 10.16 0 0 1 .11 2.88 3.5 3.5 0 0 1-.31 1.15 1.18 1.18 0 0 1-1.49.65 3 3 0 0 1-1-.56c-.3-.22-.59-.46-.91-.66a4 4 0 0 0-4.24 0c-.4.23-.77.53-1.16.79l-.52.35c-.61.39-1.07.16-1.38-.44a2.81 2.81 0 0 1-.2-1.56 11.42 11.42 0 0 1 .37-2.18.23.23 0 0 0-.1-.3 3.82 3.82 0 0 1-.46-.36c-.17-.16-.29-.17-.44 0a.94.94 0 0 0-.17.41c0 .25 0 .51-.08.76a1.09 1.09 0 0 1-.22.46.28.28 0 0 1-.27.08.36.36 0 0 1-.19-.26 4.58 4.58 0 0 1 .08-.62 1.39 1.39 0 0 0 0-.35.3.3 0 0 0-.52-.24 1.19 1.19 0 0 0-.34.29.65.65 0 0 1-.87 0 .26.26 0 0 1 0-.38 1.16 1.16 0 0 1 .57-.5l.49-.21a1.12 1.12 0 0 0-.28-.15c-.22 0-.44 0-.67-.08a.36.36 0 0 1-.35-.43c0-.28.14-.37.42-.28s.34.15.51.22c.35.16.48.12.73-.17a.52.52 0 0 1 .21-.18c.14-.08.28-.16.32-.34a.27.27 0 0 1 .18-.15c.19 0 .22-.14.24-.29a.75.75 0 0 1 0-.21c.24-.89.16-.79 1.14-1.11a1.87 1.87 0 0 1 .41-.09C6 9 6.16 9 6.26 8.72a.47.47 0 0 1 .54-.24c.4 0 .56-.15.73-.48a35.23 35.23 0 0 1 2.63-4c.42-.56.86-1.11 1.29-1.67l.12-.13c.13-.14.23-.14.34 0s.09.17.13.25c.85 1.91 1.7 3.81 2.54 5.72.08.19.16.28.38.26a.79.79 0 0 1 .75.28c.14.17.32 0 .48 0a.24.24 0 0 0 .24-.26v-.42c0-.34-.07-.68-.1-1 0-.15 0-.29-.25-.33a.33.33 0 0 1-.23-.36.39.39 0 0 0-.37-.46 7.28 7.28 0 0 0-.8-.1c-.3 0-.46 0-.51-.21a.61.61 0 0 1 .24-.65.74.74 0 0 1 .71 0 1.13 1.13 0 0 0 .21.12h.25a.28.28 0 0 0 0-.25c-.08-.21-.2-.4-.29-.6a4 4 0 0 1-.24-.62c-.07-.27 0-.41.23-.48s.35 0 .45.29.18.4.28.6a.52.52 0 0 0 .14.16c.12.1.23.06.23-.1a4.1 4.1 0 0 0 0-.7c0-.2 0-.38.18-.49a.38.38 0 0 1 .6.3 5.82 5.82 0 0 1 0 .59v.63c0 .2.15.24.33.11a5.25 5.25 0 0 1 .51-.37c.11-.06.26-.14.38 0a.38.38 0 0 1 0 .46.94.94 0 0 1-.25.24 2.77 2.77 0 0 0-.95 1.11 1.76 1.76 0 0 1-.52.72.21.21 0 0 0-.07.18c0 .49.08 1 .14 1.47a.64.64 0 0 1-.38.74 1.46 1.46 0 0 1-.37.12.6.6 0 0 0-.4.24.72.72 0 0 1-.21.18 1.07 1.07 0 0 1-.26.12Zm.69 5.17a11 11 0 0 0-.35-2.56c-.28-1-.64-1.88-.94-2.83a.52.52 0 0 0-.51-.39h-.14a.34.34 0 0 1-.4-.3 2.27 2.27 0 0 0-.26-.57 2.59 2.59 0 0 0-2.79-1.12 2.29 2.29 0 0 0-1.82 1.36.66.66 0 0 1-.75.49.29.29 0 0 0-.33.2 2 2 0 0 0-.13.25 24.71 24.71 0 0 0-1.68 5.16 5.78 5.78 0 0 0-.1 1.71 2 2 0 0 0 .2.74.49.49 0 0 0 .74.21 4.33 4.33 0 0 0 .51-.31c.34-.24.66-.49 1-.71a4.24 4.24 0 0 1 3.08-.67 4.77 4.77 0 0 1 2.27 1.12 5.08 5.08 0 0 0 .77.54.87.87 0 0 0 .84.1 1 1 0 0 0 .48-.53 5.17 5.17 0 0 0 .31-1.89ZM6.05 9.31l-1.18.35a.41.41 0 0 0-.29.36c0 .25-.06.49-.12.73a.3.3 0 0 0 .12.34.33.33 0 0 1 .13.41.36.36 0 0 0 .18.47 3.4 3.4 0 0 0 .48.29.31.31 0 0 0 .47-.2c.26-.73.53-1.45.79-2.18v-.22c-.17-.13-.38-.24-.58-.35Z"/><path d="M11.17 11.15a2.22 2.22 0 0 1-1.72-.55 1.68 1.68 0 0 1 .16-2.67 2.27 2.27 0 0 1 3 .23 1.63 1.63 0 0 1-.12 2.46 1.9 1.9 0 0 1-1.32.53Z"/></g></svg>