<svg id="Layer_1" data-name="Layer 1" xmlns="http://www.w3.org/2000/svg" viewBox="0 0 20 20"><defs><style>.cls-2{fill:none;stroke:#fff;stroke-linecap:round;stroke-linejoin:round}</style></defs><path fill="#c00" d="M0 0h20v20H0z"/><path class="cls-2" d="M6.05 7.91L7.2 6.58a.85.85 0 0 0-.29-1.4l-.53-.26a.86.86 0 0 1-.29-1.4l1.16-1.33M12.05 7.91l1.15-1.33a.85.85 0 0 0-.29-1.4l-.53-.26a.86.86 0 0 1-.29-1.4l1.16-1.33"/><path d="M16.5 9.5h-14a7 7 0 0 0 3.41 6H4a.5.5 0 0 0-.5.5.5.5 0 0 0 .5.5h.5l.22.45a1 1 0 0 0 .9.55h7.76a1 1 0 0 0 .9-.55l.22-.45h.5a.5.5 0 0 0 .5-.5.5.5 0 0 0-.5-.5h-1.92a7.12 7.12 0 0 0 2.16-2h1.26a2 2 0 0 0 0-4zm0 3h-.68a7.13 7.13 0 0 0 .6-2h.08a1 1 0 0 1 0 2z" fill="#fff"/><path class="cls-2" d="M9.05 7.91l1.15-1.33a.85.85 0 0 0-.29-1.4l-.53-.26a.86.86 0 0 1-.29-1.4l1.16-1.33"/></svg>