<svg viewBox="0 0 20 20" fill="none" xmlns="http://www.w3.org/2000/svg">
<rect width="20" height="20" fill="#333333"/>
<path opacity="0.1" d="M10.3583 3.28483C10.3516 3.31161 10.3516 3.3384 10.3583 3.36518C10.3583 3.36518 10.4454 3.93466 10.3449 4.1892L6.21812 14.9283C5.92338 15.7188 6.31861 16.5964 7.10913 16.8979C7.89965 17.1993 8.7773 16.8108 9.09218 16.027L13.219 5.28789C13.2993 5.08021 13.7616 4.67156 13.7616 4.67156C13.7817 4.65142 13.8018 4.63135 13.8152 4.61128V4.60456C13.8152 4.59785 13.8219 4.59785 13.8219 4.59114C13.9291 4.31653 13.239 3.79397 12.2878 3.42552C11.3364 3.05701 10.4722 2.98331 10.3651 3.26469C10.3651 3.26469 10.3583 3.27141 10.3583 3.28483Z" fill="black"/>
<path d="M10.2377 3.19126C10.231 3.21811 10.231 3.2449 10.2377 3.27168C10.2377 3.27168 10.3249 3.84109 10.2243 4.0957L6.09755 14.8348C5.80287 15.6253 6.1981 16.5029 6.98863 16.8044C7.77916 17.1058 8.65674 16.7173 8.97163 15.9335L13.0985 5.19439C13.1789 4.98671 13.6411 4.57805 13.6411 4.57805C13.6612 4.55792 13.6814 4.53784 13.6947 4.51777V4.51106C13.6947 4.50435 13.7014 4.50435 13.7014 4.49764C13.8086 4.22296 13.1186 3.70047 12.1672 3.33196C11.2159 2.96351 10.3516 2.88981 10.2444 3.17119C10.2444 3.1779 10.2444 3.18462 10.2377 3.19133V3.19126Z" fill="url(#paint0_linear_2438_24)"/>
<path d="M11.5374 8.04834L8.55611 15.7928C8.33507 16.3489 7.69859 16.6369 7.12918 16.4159C6.55969 16.1948 6.25824 15.5449 6.46599 14.9889L8.36856 10.038C8.36856 10.038 8.60303 9.65617 9.07203 9.38156C9.54096 9.10682 9.92283 9.1671 10.4387 8.93935C10.9612 8.7116 11.5374 8.04834 11.5374 8.04834V8.04834Z" fill="url(#paint1_linear_2438_24)"/>
<path d="M12.983 4.27377C13.0424 4.11878 12.615 3.80954 12.0284 3.58306C11.4418 3.35659 10.9181 3.29859 10.8587 3.45351C10.7993 3.6085 11.2268 3.91768 11.8134 4.14422C12.4 4.3707 12.9237 4.4287 12.983 4.27377Z" fill="#333333"/>
<path opacity="0.3" d="M10.21 3.271C10.21 3.271 10.2966 3.83887 10.1967 4.09273L6.09687 14.8016C5.80407 15.5898 6.19675 16.465 6.9821 16.7656C7.11521 16.8191 7.25496 16.8524 7.39471 16.8591C7.132 16.6585 6.94048 16.379 6.84825 16.0616C6.75602 15.7442 6.76792 15.4056 6.88222 15.0955L10.9022 4.60046C10.9022 4.60046 10.3498 4.08602 10.21 3.271V3.271Z" fill="white"/>
<g opacity="0.5">
<path opacity="0.5" d="M8.89226 10.2985C8.95846 10.2985 9.01212 10.2447 9.01212 10.1783C9.01212 10.1119 8.95846 10.0581 8.89226 10.0581C8.82606 10.0581 8.7724 10.1119 8.7724 10.1783C8.7724 10.2447 8.82606 10.2985 8.89226 10.2985Z" fill="white"/>
<path opacity="0.5" d="M9.6709 11.2206C9.77014 11.2206 9.85059 11.1398 9.85059 11.0402C9.85059 10.9406 9.77014 10.8599 9.6709 10.8599C9.57166 10.8599 9.49121 10.9406 9.49121 11.0402C9.49121 11.1398 9.57166 11.2206 9.6709 11.2206Z" fill="white"/>
<path opacity="0.5" d="M8.47958 12.4095C8.66706 12.4095 8.81903 12.2569 8.81903 12.0688C8.81903 11.8806 8.66706 11.728 8.47958 11.728C8.29211 11.728 8.14014 11.8806 8.14014 12.0688C8.14014 12.2569 8.29211 12.4095 8.47958 12.4095Z" fill="white"/>
<path opacity="0.5" d="M7.9339 12.8773C8.03314 12.8773 8.11359 12.7966 8.11359 12.697C8.11359 12.5973 8.03314 12.5166 7.9339 12.5166C7.83466 12.5166 7.75421 12.5973 7.75421 12.697C7.75421 12.7966 7.83466 12.8773 7.9339 12.8773Z" fill="white"/>
<path opacity="0.5" d="M8.64612 14.1533C8.7123 14.1533 8.76594 14.0995 8.76594 14.0331C8.76594 13.9667 8.7123 13.9128 8.64612 13.9128C8.57995 13.9128 8.52631 13.9667 8.52631 14.0331C8.52631 14.0995 8.57995 14.1533 8.64612 14.1533Z" fill="white"/>
</g>
<defs>
<linearGradient id="paint0_linear_2438_24" x1="7.8481" y1="9.40294" x2="11.4123" y2="9.8245" gradientUnits="userSpaceOnUse">
<stop stop-color="#919191"/>
<stop offset="1" stop-color="white"/>
</linearGradient>
<linearGradient id="paint1_linear_2438_24" x1="7.75781" y1="11.6262" x2="9.91956" y2="11.934" gradientUnits="userSpaceOnUse">
<stop stop-color="#990000"/>
<stop offset="1" stop-color="#E80000"/>
</linearGradient>
</defs>
</svg>
