<svg viewBox="0 0 20 20" fill="none" xmlns="http://www.w3.org/2000/svg">
<rect width="20" height="20" fill="#ECF0F1"/>
<path d="M5.20364 8.24364C7.06182 8.24364 8.81818 8.72727 10.3455 9.54182L15.7927 3H5V15.9818V8.24364H5.20364Z" fill="#E9478B"/>
<path d="M10.3455 9.54175L5 15.9817V16.9999H15.7673C15.1564 13.7927 13.12 11.069 10.3455 9.54175Z" fill="#3EBEB0"/>
<path d="M10.3455 9.54175L5 15.9817V16.9999H6.90909L12.1018 10.7381C12.1018 10.7381 11.7455 10.4581 11.2618 10.1017C10.9055 9.8472 10.3455 9.54175 10.3455 9.54175V9.54175Z" fill="#37A595"/>
<path d="M5.20364 8.24365H5V15.9818L10.3455 9.54183C8.81818 8.72729 7.06182 8.24365 5.20364 8.24365V8.24365Z" fill="#353535"/>
</svg>
