<svg xmlns="http://www.w3.org/2000/svg" viewBox="0 0 20 20">
  <rect width="100%" height="100%" fill="#fff"/>
  <path d="M8.82 12.1c.36-.53.9-1.07 1.27-1.43.55-.72 1.27-1.44 1.82-2.16.54-.54.9-1.08 1.45-1.44 0-.18.19-.18.37-.18 0 0 0 .18-.18.18-.91 1.08-2 2.16-2.91 3.24-.37.36-.37.36 0 .9 1.45 1.98 2.72 3.95 4.18 5.93 0 0 .18.18.18.36H13.55l-.19-.18c-.54-.72-1.09-1.62-1.63-2.34l-2-2.87c0-.18-.18-.18-.18-.36-.37.36-.55.54-.55.9V17.14c0 .18 0 .36-.36.36H7.36c-.18 0-.36 0-.36-.18V2.04c0-.54 0-.54.55-.54h.54c.36 0 .36 0 .36.36v10.25h.37Z"/>
</svg>