<svg viewBox="0 0 20 20" xmlns="http://www.w3.org/2000/svg">
<rect width="100%" height="100%" fill="white"/>
<path d="M2.88825 10.3713C3.14538 10.0894 3.37913 9.83686 3.60863 9.58225C3.95288 9.19719 4.29288 8.80792 4.63925 8.42285C4.89 8.1409 5.145 7.86104 5.4 7.58119C5.44675 7.53069 5.48713 7.45704 5.59763 7.49912C5.58147 7.53918 5.5608 7.57729 5.536 7.61275C4.992 8.22296 4.45083 8.83106 3.9125 9.43706C3.7 9.67273 3.7 9.67063 3.87 9.93154C4.62792 11.0341 5.38654 12.1367 6.14588 13.2393C6.17988 13.2877 6.20538 13.3403 6.24575 13.4076C6.19858 13.4222 6.15024 13.4328 6.10125 13.4392H5.5615C5.50877 13.4437 5.45588 13.4327 5.40941 13.4076C5.36294 13.3825 5.32493 13.3445 5.30013 13.2982C5.0005 12.8542 4.6945 12.4124 4.39063 11.9705L3.32813 10.4155C3.292 10.3608 3.2495 10.3124 3.20063 10.2451C3.037 10.4008 2.88613 10.5207 2.89038 10.7732C2.90525 11.5581 2.89038 12.345 2.89038 13.132V13.2709C2.89038 13.4182 2.87338 13.4329 2.731 13.4371H2.15087C2.04462 13.4455 2 13.4034 2 13.2982L2 4.79947C2 4.4607 2 4.50278 2.306 4.50068H2.64813C2.88613 4.50068 2.88612 4.50068 2.88825 4.74687L2.88825 10.3713ZM12.7206 10.3524C12.7115 10.8568 12.6114 11.3556 12.4253 11.8253C12.2723 12.1971 12.035 12.529 11.7318 12.7953C11.4285 13.0617 11.0674 13.2554 10.6764 13.3613C10.0072 13.5609 9.29135 13.5447 8.63212 13.3151C8.19495 13.1814 7.80565 12.9264 7.51037 12.5803C7.21509 12.2342 7.02621 11.8115 6.96613 11.3624C6.83392 10.6679 6.87995 9.95158 7.1 9.27925C7.21291 8.91852 7.40475 8.58687 7.66185 8.30792C7.91896 8.02897 8.23501 7.80957 8.5875 7.66535C9.00292 7.49011 9.4507 7.40259 9.90221 7.40839C10.3537 7.41418 10.7991 7.51317 11.2098 7.69902C11.5818 7.84796 11.9081 8.09056 12.1564 8.40279C12.4046 8.71503 12.5661 9.08607 12.625 9.47915C12.6696 9.76321 12.6866 10.0536 12.7206 10.3524ZM11.8579 10.3376C11.843 10.1272 11.8239 9.93154 11.8111 9.72744C11.7901 9.35749 11.7008 8.99448 11.5476 8.65642C11.1503 7.81475 10.3831 7.43389 9.44387 7.60433C8.9767 7.7108 8.57105 7.99598 8.3155 8.3976C7.98795 8.8833 7.80193 9.44899 7.77788 10.0325C7.75003 10.3827 7.75003 10.7345 7.77788 11.0846C7.79729 11.4801 7.88498 11.8694 8.03713 12.2356C8.46213 13.1783 9.2675 13.5402 10.245 13.3045C10.8825 13.1509 11.265 12.6733 11.52 12.1136C11.7553 11.5474 11.8703 10.9393 11.8579 10.3271V10.3376ZM17.181 10.5481V8.46915C17.1862 8.31581 17.1459 8.16434 17.0651 8.03345C16.9842 7.90256 16.8664 7.798 16.7263 7.73269C16.5527 7.64988 16.3656 7.59857 16.1737 7.58119C15.4721 7.54166 14.7713 7.67164 14.1316 7.95994C14.0445 7.9936 14.0466 7.9936 13.9191 7.95994C13.959 7.92411 14.0024 7.89238 14.0488 7.86525C14.6337 7.60578 15.2634 7.45937 15.9039 7.43389C16.3027 7.41156 16.7028 7.44128 17.0939 7.52227C17.3702 7.56856 17.6205 7.71143 17.7995 7.92494C17.9785 8.13845 18.0742 8.40844 18.0693 8.68588V12.5113C18.0692 12.643 18.0841 12.7743 18.1139 12.9026C18.1319 13.0269 18.1971 13.1396 18.2962 13.2179C18.3954 13.2961 18.5209 13.3339 18.6472 13.3235C18.7272 13.3193 18.8074 13.3193 18.8874 13.3235C18.9214 13.3235 18.9533 13.3592 19 13.3866C18.9639 13.4161 18.9511 13.4371 18.9362 13.4392C18.6021 13.4738 18.2645 13.4524 17.9375 13.3761C17.7351 13.3347 17.551 13.2311 17.4117 13.0799C17.2724 12.9287 17.185 12.7378 17.1619 12.5344C17.096 12.6186 17.0471 12.688 16.9919 12.7448C16.6952 13.117 16.2668 13.3637 15.7934 13.435C15.3677 13.5132 14.9289 13.4828 14.5184 13.3466C14.3038 13.2703 14.1119 13.142 13.9605 12.9732C13.809 12.8045 13.7027 12.6008 13.6514 12.3808C13.6115 12.2484 13.5852 12.1123 13.5728 11.9747C13.5364 11.743 13.583 11.5059 13.7044 11.3046C13.8259 11.1033 14.0146 10.9503 14.2379 10.8721C14.6281 10.7171 15.0403 10.6234 15.4598 10.5944C16.031 10.529 16.607 10.5135 17.181 10.5481ZM17.1682 10.7038C17.0642 10.6864 16.9592 10.6751 16.8538 10.6701C16.5605 10.6701 16.2694 10.6848 15.9761 10.7017C15.6701 10.7216 15.3684 10.7832 15.0794 10.8847C14.9384 10.9283 14.8116 11.0081 14.7119 11.1161C14.6122 11.224 14.5433 11.3562 14.512 11.4992C14.399 11.9519 14.4486 12.4295 14.6523 12.85C14.7203 13.006 14.8345 13.138 14.9798 13.2285C15.1251 13.319 15.2946 13.3639 15.4661 13.3571C16.161 13.3719 16.6561 13.0373 17.0429 12.5028C17.1422 12.3604 17.1915 12.1896 17.1831 12.0168V10.9079C17.181 10.849 17.1746 10.7921 17.1682 10.7038Z" fill="black"/>
</svg>
