<svg viewBox="0 0 20 20" xmlns="http://www.w3.org/2000/svg">
 <rect width="100%" height="100%" fill="#EAE8FE"/>
 <path fill-rule="evenodd" clip-rule="evenodd" d="M5.57413 5.5H14.4259C16.9481 5.5 19 7.5187 19 9.99999C19 12.4813 16.9481 14.5 14.4259 14.5H5.57413C3.05186 14.5 1 12.4813 1 9.99999C1 7.5187 3.05186 5.5 5.57413 5.5ZM9.63819 12.4756C9.74928 12.5902 9.91378 12.5845 10.0595 12.5548L10.061 12.5556C10.1286 12.5016 10.0325 12.4333 9.94063 12.368C9.88558 12.3289 9.83205 12.2909 9.81637 12.2578C9.8672 12.197 9.71688 12.059 9.59982 11.9516C9.5507 11.9065 9.50745 11.8668 9.4874 11.8404C9.40411 11.7516 9.37063 11.6395 9.33696 11.5267C9.31462 11.4518 9.2922 11.3767 9.25508 11.3078C9.02638 10.7872 8.76447 10.2709 8.39725 9.83023C8.16123 9.53734 7.89188 9.27507 7.62245 9.0127C7.44875 8.84354 7.27501 8.67438 7.11014 8.49694C6.94049 8.32522 6.83839 8.11369 6.73612 7.90181C6.65051 7.72443 6.56476 7.5468 6.43917 7.39209C6.05896 6.84038 4.85844 6.68972 4.68239 7.46919C4.68311 7.49324 4.67519 7.5088 4.65352 7.52436C4.55614 7.59439 4.46955 7.67361 4.3967 7.7698C4.21848 8.01383 4.19106 8.42761 4.41328 8.64689C4.41359 8.64219 4.41391 8.63751 4.41423 8.63283C4.42167 8.52209 4.42861 8.41859 4.51789 8.3392C4.6896 8.4842 4.95006 8.53582 5.14919 8.42761C5.38926 8.76526 5.46576 9.17341 5.54248 9.58295C5.60639 9.92414 5.6705 10.2663 5.82954 10.5694C5.8328 10.5747 5.8361 10.5801 5.8394 10.5855C5.93285 10.7381 6.02783 10.8931 6.14769 11.0263C6.19123 11.0925 6.28066 11.1639 6.36991 11.2352C6.48766 11.3293 6.60517 11.4232 6.61666 11.5045C6.61718 11.5399 6.61701 11.5757 6.61686 11.6117C6.61594 11.8252 6.61495 12.0462 6.75446 12.2217C6.83165 12.3752 6.64264 12.5294 6.49041 12.5103C6.40694 12.5216 6.31575 12.5001 6.22519 12.4787C6.10131 12.4494 5.97862 12.4203 5.8786 12.4763C5.85054 12.5061 5.81021 12.5072 5.76971 12.5082C5.72171 12.5094 5.67339 12.5107 5.64484 12.5598C5.63897 12.5744 5.62525 12.5909 5.61099 12.608C5.57969 12.6456 5.54575 12.6864 5.5864 12.7175C5.59004 12.7148 5.59366 12.7121 5.59728 12.7094C5.65884 12.6633 5.71754 12.6194 5.80066 12.6468C5.78961 12.707 5.82927 12.7232 5.86891 12.7393C5.87582 12.7421 5.88277 12.7449 5.88942 12.7479C5.88899 12.7619 5.88618 12.776 5.88338 12.79C5.87672 12.8235 5.87018 12.8562 5.89663 12.8852C5.90918 12.8727 5.92029 12.8586 5.9314 12.8445C5.95863 12.81 5.98596 12.7753 6.03515 12.7628C6.14332 12.9044 6.25227 12.8456 6.38897 12.7718C6.54318 12.6886 6.73267 12.5862 6.99615 12.731C6.89515 12.726 6.80494 12.738 6.73713 12.8201C6.72055 12.8385 6.70611 12.8597 6.73568 12.8838C6.89159 12.7847 6.95646 12.8203 7.0175 12.8538C7.06156 12.878 7.10363 12.9011 7.1765 12.8717C7.19375 12.8629 7.21096 12.8538 7.2282 12.8447C7.34526 12.7828 7.46393 12.72 7.60289 12.7416C7.49911 12.7709 7.46217 12.8354 7.42187 12.9058C7.40194 12.9406 7.38119 12.9769 7.3511 13.0111C7.33525 13.0266 7.32802 13.045 7.34607 13.0712C7.5634 13.0535 7.64551 12.9994 7.75646 12.9265C7.8094 12.8916 7.86891 12.8525 7.95281 12.8109C8.04556 12.7549 8.13832 12.7907 8.22818 12.8254C8.3257 12.8631 8.41981 12.8994 8.5069 12.8158C8.53441 12.7904 8.56893 12.7901 8.60327 12.7898C8.61576 12.7897 8.62826 12.7896 8.64038 12.7883C8.61328 12.6459 8.46038 12.6476 8.30519 12.6493C8.12567 12.6513 7.94306 12.6533 7.9485 12.4325C8.11529 12.3208 8.11682 12.127 8.11827 11.9438C8.11864 11.8996 8.11896 11.856 8.12165 11.8143C8.24432 11.8813 8.37407 11.9338 8.50305 11.9858C8.62436 12.0349 8.74497 12.0836 8.85826 12.1439C8.97659 12.3306 9.16129 12.5782 9.40732 12.5619C9.4138 12.5428 9.41958 12.5266 9.42679 12.5075C9.44096 12.5099 9.45595 12.5136 9.47117 12.5174C9.53574 12.5334 9.60489 12.5506 9.63819 12.4756ZM14.4602 10.3536C14.6026 10.4929 14.7958 10.5712 14.9973 10.5712C15.1987 10.5712 15.392 10.4929 15.5344 10.3536C15.6768 10.2142 15.7569 10.0253 15.7569 9.82827C15.7569 9.63123 15.6768 9.44227 15.5344 9.30295C15.392 9.16362 15.1987 9.08534 14.9973 9.08534C14.9029 9.08534 14.8104 9.10253 14.724 9.13509L14.2886 8.51202L13.9852 8.71585L14.4229 9.34215C14.3038 9.4767 14.2377 9.64915 14.2377 9.82827C14.2377 10.0253 14.3177 10.2142 14.4602 10.3536ZM13.0971 8.33583C13.2037 8.38748 13.3212 8.41391 13.4401 8.41301C13.6024 8.41179 13.76 8.35977 13.8899 8.26455C14.0197 8.16934 14.115 8.03596 14.1617 7.88395C14.2084 7.73194 14.2041 7.5693 14.1494 7.41985C14.0948 7.2704 13.9926 7.14201 13.8579 7.05348C13.7591 6.9886 13.6462 6.9473 13.5282 6.93291C13.4102 6.91852 13.2903 6.93145 13.1784 6.97063C13.0664 7.00982 12.9653 7.07419 12.8834 7.15854C12.8015 7.2429 12.741 7.34488 12.7068 7.45629C12.6726 7.5677 12.6655 7.68541 12.6863 7.79995C12.7071 7.91449 12.7551 8.02266 12.8265 8.11574C12.8978 8.20882 12.9905 8.28421 13.0971 8.33583ZM13.0971 12.6498C13.2037 12.7014 13.3212 12.7279 13.4401 12.727C13.6024 12.7258 13.76 12.6737 13.8899 12.5785C14.0197 12.4833 14.115 12.3499 14.1617 12.1979C14.2084 12.0459 14.2041 11.8833 14.1494 11.7338C14.0948 11.5844 13.9926 11.456 13.8579 11.3675C13.7591 11.3026 13.6462 11.2613 13.5282 11.2469C13.4102 11.2325 13.2903 11.2454 13.1784 11.2846C13.0664 11.3238 12.9653 11.3882 12.8834 11.4725C12.8015 11.5569 12.741 11.6588 12.7068 11.7702C12.6726 11.8817 12.6655 11.9994 12.6863 12.1139C12.7071 12.2285 12.7551 12.3366 12.8265 12.4297C12.8978 12.5228 12.9905 12.5982 13.0971 12.6498ZM13.7954 10.013V9.64362H12.6328C12.6036 9.53161 12.5478 9.42789 12.47 9.34076L12.9074 8.70547L12.5893 8.49864L12.1519 9.1339C12.0717 9.10551 11.9872 9.09053 11.902 9.08959C11.7011 9.08959 11.5084 9.16743 11.3664 9.30595C11.2244 9.44448 11.1445 9.63236 11.1445 9.8283C11.1445 10.0242 11.2244 10.2121 11.3664 10.3506C11.5084 10.4892 11.7011 10.567 11.902 10.567C11.9872 10.566 12.0717 10.5511 12.1519 10.5227L12.5893 11.158L12.9036 10.9511L12.47 10.3158C12.5478 10.2287 12.6036 10.125 12.6328 10.013H13.7954Z" fill="#1C3C3B"/>
</svg>
