<svg xmlns="http://www.w3.org/2000/svg" viewBox="0 0 20 20">
  <rect width="100%" height="100%" fill="#EAE8FE"/>
  <path fill="#1C3C3B" d="M15.4 8.207a.883.883 0 0 1 0 1.262l-.792.766-.008-.044c-.058-.315-.21-.6-.44-.827a1.583 1.583 0 0 0-.608-.373.73.73 0 0 0-.21.644.883.883 0 0 1 .334 1.469l-.69.678a.91.91 0 0 1-.642.26.91.91 0 0 1-.64-.26.883.883 0 0 1 0-1.262l.791-.766.008.044a1.543 1.543 0 0 0 1.036 1.188l.043-.042a.661.661 0 0 0 .188-.594.835.835 0 0 1-.341-.202.877.877 0 0 1-.258-.522l-.004-.043a.882.882 0 0 1 .262-.697l.69-.678a.908.908 0 0 1 .64-.261c.243 0 .47.092.641.26ZM19 10c0 2.482-2.052 4.5-4.574 4.5H5.574C3.052 14.5 1 12.482 1 10c0-2.481 2.052-4.5 4.574-4.5h8.852C16.948 5.5 19 7.519 19 10Zm-9.185 2.257c.072-.086-.26-.329-.329-.417-.138-.148-.139-.36-.232-.533-.228-.52-.49-1.037-.858-1.478-.388-.482-.866-.88-1.287-1.333-.312-.316-.395-.765-.67-1.105-.38-.552-1.582-.702-1.758.077.001.025-.007.04-.028.056-.098.069-.184.149-.257.245-.178.244-.206.658.017.877.007-.116.011-.225.104-.307.172.145.432.196.631.088.44.619.331 1.475.68 2.141.097.158.195.319.319.457.1.154.448.336.469.479.003.245-.026.512.137.717.077.153-.112.307-.264.288-.198.027-.439-.13-.612-.034-.061.066-.18-.006-.233.084-.019.047-.117.113-.059.158.066-.05.127-.1.215-.071-.013.07.043.08.088.1-.001.049-.03.098.008.138.043-.043.07-.104.138-.122.23.301.464-.305.961-.032-.1-.005-.19.007-.258.09-.017.018-.031.04-.002.063.268-.17.267.058.441-.012.134-.069.267-.155.426-.13-.154.044-.16.166-.251.27-.016.015-.023.033-.005.06.321-.027.348-.132.607-.261.194-.117.386.165.554.005.037-.035.087-.023.133-.028-.058-.307-.702.056-.692-.356.207-.138.16-.403.174-.618.238.13.503.206.736.33.118.187.303.435.55.418a5.19 5.19 0 0 1 .019-.054c.074.013.17.061.211-.032.112.115.276.11.422.08.108-.086-.203-.21-.245-.298Zm6.536-3.42c0-.418-.165-.812-.466-1.107-.3-.296-.7-.458-1.127-.458-.426 0-.826.162-1.126.458l-.69.678a1.552 1.552 0 0 0-.363.553l-.005.012-.012.004c-.25.075-.471.206-.656.388l-.69.678a1.552 1.552 0 0 0 0 2.216c.301.296.701.459 1.127.459.426 0 .826-.163 1.127-.459l.69-.678c.16-.158.28-.343.361-.551l.005-.012.012-.004a1.6 1.6 0 0 0 .657-.39l.69-.678c.3-.295.465-.689.465-1.108h.001ZM7.308 11.75c-.06.227-.079.615-.38.626-.024.131.093.18.2.139.105-.048.155.037.19.123.164.023.406-.054.415-.244-.244-.138-.32-.401-.425-.644Z"/>
</svg>
