<?xml version="1.0" encoding="utf-8"?>
<!-- Generator: Adobe Illustrator 18.1.1, SVG Export Plug-In . SVG Version: 6.00 Build 0)  -->
<!DOCTYPE svg PUBLIC "-//W3C//DTD SVG 1.1//EN" "http://www.w3.org/Graphics/SVG/1.1/DTD/svg11.dtd">
<svg version="1.1" id="Layer_1" xmlns="http://www.w3.org/2000/svg" xmlns:xlink="http://www.w3.org/1999/xlink" x="0px" y="0px"
	 viewBox="0 0 64 64" enable-background="new 0 0 64 64" xml:space="preserve">
<g>
	<path fill="#050606" d="M37.3,49.4c-0.7,0-1.4-0.4-1.7-1l-5.3-9.5l-9.6,2.4c-0.9,0.2-1.8-0.2-2.2-1L7.2,19.1
		c-0.3-0.6-0.3-1.3,0-1.9c0.3-0.6,0.9-1,1.5-1l9-1c0.8-0.1,1.6,0.3,1.9,1l11.4,20.3L45.9,33L42,26.9c-0.4-0.6-0.4-1.3-0.2-1.9
		c0.3-0.6,0.8-1,1.4-1.2l4.5-0.9c0.8-0.2,1.6,0.2,2.1,0.9l4.2,6.4c0.4,0.5,0.4,1.2,0.2,1.8s-0.8,1.1-1.4,1.2l-3.9,1L54,42
		c0.3,0.5,0.4,1.2,0.2,1.8c-0.2,0.6-0.7,1-1.3,1.2l-15,4.3C37.7,49.4,37.5,49.4,37.3,49.4z M32.2,38.4l5.1,9l15-4.3L47,34.8
		L32.2,38.4z M18,17.2l-9,1l11.1,21.1l9.1-2.2L18,17.2z M48.2,24.9l-4.5,0.9l4.2,6.7l4.5-1.1L48.2,24.9z"/>
</g>
</svg>
