<svg xmlns="http://www.w3.org/2000/svg" viewBox="0 0 20 20">
  <rect width="100%" height="100%"/>
  <path fill="#fff" d="M10.1407 18c-.1231 0-.2462-.0707-.3165-.1945-.0527-.1237-.0527-.2475.0351-.3536l3.7451-5.1801-6.5583 2.6873c-.0527.0177-.0879.0354-.1406.0354-.1583 0-.2989-.1061-.334-.2475-.0528-.1415.0175-.3006.1406-.389l5.767-3.4122-10.145-.5834C2.123 10.3447 2 10.1856 2 10.0088c0-.159.1055-.3359.334-.3535l10.1451-.5835-5.767-3.4121c-.123-.0884-.1934-.2475-.1407-.389.0528-.1414.1758-.2475.3341-.2475.0527 0 .0879.0177.1406.0354l6.5583 2.6872-3.745-5.1977c-.0704-.1061-.088-.2475-.0352-.3536C9.8769 2.0707 10 2 10.1407 2c.0879 0 .1758.0354.2461.106l7.455 7.4785c.1054.1061.1582.2652.1582.4067 0 .1414-.0528.2829-.1582.4066l-7.455 7.4961c-.0703.0707-.1582.1061-.2461.1061Z"/>
</svg>
