<svg xmlns="http://www.w3.org/2000/svg" xmlns:xlink="http://www.w3.org/1999/xlink" viewBox="0 0 80 80"><defs><linearGradient id="b" x1="39.5" y1="-646" x2="39.5" y2="-726" gradientTransform="matrix(1 0 0 -1 0 -646)" gradientUnits="userSpaceOnUse"><stop offset="0" stop-color="#606acb"/><stop offset="1" stop-color="#2a349a"/></linearGradient><linearGradient id="a" x1="26.97" y1="-707.4" x2="26.97" y2="-664.4" gradientTransform="matrix(1 0 0 -1 0 -646)" gradientUnits="userSpaceOnUse"><stop offset="0" stop-color="#fff" stop-opacity=".85"/><stop offset="1" stop-color="#fff"/></linearGradient><linearGradient id="c" x1="31.19" y1="-707.4" x2="31.19" y2="-664.4" xlink:href="#a"/><linearGradient id="d" x1="35.21" y1="-707.4" x2="35.21" y2="-664.4" xlink:href="#a"/><linearGradient id="e" x1="41.98" y1="-707.4" x2="41.98" y2="-664.4" xlink:href="#a"/></defs><rect x="-.5" width="80" height="80" rx="14.4" fill="url(#b)"/><path d="M18.17 43.53l17.6 17.6a21.53 21.53 0 01-17.6-17.6z" fill="url(#a)"/><path d="M17.9 38.75L40.55 61.4a21.29 21.29 0 003.93-.58l-26-26a21.16 21.16 0 00-.58 3.93z" fill="url(#c)"/><path d="M19.6 31.44L47.86 59.7a22.54 22.54 0 003-1.56L21.15 28.48a21.34 21.34 0 00-1.55 2.96z" fill="url(#d)"/><path d="M23.07 25.89a21.51 21.51 0 1130.34 30.34z" fill="url(#e)"/></svg>