<svg xmlns="http://www.w3.org/2000/svg" viewBox="0 0 20 20">
  <rect width="100%" height="100%" fill="#292929"/>
  <path fill="#fff" d="M14.32 9.7c.35.17.7.26 1.14.43.09.1.26.1.35-.08v-.1c.26-.43.61-.87.88-1.4a3.7 3.7 0 0 0 .35-2.88 3.24 3.24 0 0 0-2.2-2.54 2.75 2.75 0 0 0-2.97.88 4.9 4.9 0 0 0-1.13 4.02c0 .1 0 .1.08.18l1.23.44a2.6 2.6 0 0 1 .44-2.63c.52-.7 1.48-.87 2.18-.44.35.18.53.53.62.88.35 1.31 0 2.62-.97 3.24Zm-7.6-1.05c.08-.1.34-.1.52-.18.08-.09.17-.09.17-.17a5 5 0 0 0-.96-3.68c-.26-.44-.79-.7-1.31-.7A1.75 1.75 0 0 0 3.2 5.41a5.3 5.3 0 0 0 .88 4.55l.26.26.61-.44c-.44-.26-.7-.6-.87-1.05a2.51 2.51 0 0 1 .17-2.36c.26-.52.88-.7 1.31-.44.1.1.18.1.27.27.26.26.52.6.6 1.05.18.35.27.87.27 1.4Z"/>
  <path fill="#FAC424" d="M4 13.98c.7.35 1.4.8 2.1 1.05 1.57.62 3.32.62 4.81 0a17.29 17.29 0 0 0 3.33-1.75l1.4-.96.26-.17c-.26-.27-.61-.27-.88 0-.7.52-1.48 1.05-2.18 1.57a8.53 8.53 0 0 1-3.5 1.31 6.7 6.7 0 0 1-4.3-.87c-.52-.26-1.04-.61-1.65-.88-.18-.08-.35-.26-.27-.43 0-.35.18-.62.27-.97a4.6 4.6 0 0 1 1.05-1.22c.87-.61 1.75-1.23 2.7-1.75a4.63 4.63 0 0 1 3.6-.18c1.57.62 3.15 1.14 4.8 1.75.27.1.53.18.7.35.45.18.8.7.7 1.23 0 .35-.08.7-.17 1.05-.08.26-.26.44-.43.61-.88.61-1.75 1.23-2.63 1.93a7.8 7.8 0 0 1-3.5 1.75 4.4 4.4 0 0 1-4.55-1.58c-.52-.61-1.14-1.22-1.66-1.84Zm5.25-4.63c.35.17.61.35.96.43h.35c0-.08 0-.26-.09-.35-.35-.26-.7-.26-1.22-.08Zm-1.31 0c-.35-.18-.7-.1-.97.17v.35h.27c.26-.17.52-.35.7-.52Z"/>
</svg>