<svg viewBox="0 0 20 20" xmlns="http://www.w3.org/2000/svg">
<rect width="100%" height="100%" fill="#18181B"/>
<path d="M2.02723 10C2.02723 5.58185 5.6027 2 10.0138 2C14.4245 2 18 5.58185 18 10C18 14.4184 14.4245 18 10.0138 18C7.46251 18 5.19123 16.8021 3.72882 14.9372C4.10469 14.8197 4.47596 14.6896 4.84264 14.5465C6.10376 15.9845 7.95266 16.8925 10.0138 16.8925C13.8138 16.8925 16.8942 13.8067 16.8942 10C16.8942 6.1936 13.8138 3.10749 10.0138 3.10749C6.21345 3.10749 3.133 6.1936 3.133 10C3.133 10.6469 3.22202 11.2727 3.38856 11.8664C3.07271 12.0486 2.74077 12.2279 2.39333 12.4012C2.15558 11.6432 2.02723 10.8369 2.02723 10Z" fill="#EDB641"/>
<path fill-rule="evenodd" clip-rule="evenodd" d="M0 15.1402C2.32153 14.9298 4.9692 14.232 7.57967 12.5679L7.00854 14.5949L10.3167 11.9838L13.8178 14.328L12.3608 10.3699L15.6687 7.75882L11.4604 7.92349L10.0034 3.96537L8.85945 8.0254L4.65112 8.19035L7.08751 9.8215C5.90022 10.9032 3.38724 12.8917 0 13.9362V15.1402ZM5.06202 12.4343C4.33641 12.9105 3.4503 13.4244 2.43037 13.8907C2.76547 13.8073 3.09654 13.7134 3.42388 13.6089C4.85039 13.1532 7.23625 11.921 8.94186 10.6423L8.42731 12.4692L10.2785 11.0079L12.2379 12.3198L11.4225 10.1045L13.2737 8.64348L10.9185 8.73561L10.1033 6.52034L9.46302 8.79261L7.1079 8.88473L8.32106 9.69714C8.22372 9.83216 6.44977 11.5243 5.06202 12.4343Z" fill="#EDB641"/>
</svg>
