<svg xmlns="http://www.w3.org/2000/svg" viewBox="0 0 20 20">
  <rect width="100%" height="100%" fill="#FB70A9"/>
  <path fill="#FB70A9" fill-rule="evenodd" d="M16.855 12.877c-.286.431-.503.963-1.083.963-.976 0-1.029-1.505-2.005-1.505-.977 0-.924 1.505-1.9 1.505-.977 0-1.03-1.505-2.006-1.505-.977 0-.924 1.505-1.9 1.505-.977 0-1.03-1.505-2.006-1.505-.977 0-.924 1.505-1.9 1.505-.307 0-.523-.149-.705-.353a8.337 8.337 0 0 1-1.1-4.163c0-4.46 3.445-8.074 7.694-8.074 4.249 0 7.694 3.615 7.694 8.074a8.37 8.37 0 0 1-.783 3.553Z" clip-rule="evenodd"/>
  <path fill="#fff" fill-rule="evenodd" d="M8.51 7.706c.787 0 1.425-.704 1.425-1.573 0-.87-.638-1.574-1.426-1.574-.787 0-1.426.704-1.426 1.574 0 .869.639 1.573 1.426 1.573Zm-.239-1.21a.72.72 0 0 0 .713-.727.72.72 0 0 0-.713-.726.72.72 0 0 0-.712.726c0 .402.319.727.712.727Z" clip-rule="evenodd"/>
  <path fill="#fff" fill-rule="evenodd" d="M16.722 13.087c.044-.07.087-.142.133-.21a8.37 8.37 0 0 0 .783-3.553c0-4.46-3.445-8.074-7.694-8.074-4.25 0-7.694 3.615-7.694 8.074 0 1.523.402 2.948 1.1 4.163.182.204.398.353.705.353.488 0 .718-.376.95-.753.23-.376.461-.752.95-.752.488 0 .746.376 1.003.752.257.377.514.753 1.003.753.488 0 .718-.376.95-.753.23-.376.461-.752.95-.752.423 0 .672.282.899.602a.849.849 0 0 0-.594-.243c-.506 0-.745.411-.984.823-.173.298-.346.595-.62.737v3.289a1.207 1.207 0 1 0 2.414 0V13.25c.224.315.473.59.89.59.489 0 .72-.376.95-.753.231-.376.462-.752.95-.752.341 0 .57.183.764.421a.815.815 0 0 0-.319-.062c-.506 0-.745.411-.984.823-.16.276-.32.551-.56.703v1.776a1.087 1.087 0 0 0 2.173 0V13.19c.236.34.489.65.932.65.489 0 .72-.375.95-.752Zm-3.389-5.505c0 2.204-1.126 3.756-3.802 3.756-2.675 0-3.802-1.552-3.802-3.756 0-2.205 1.702-4.234 3.802-4.234s3.802 2.03 3.802 4.234Z" clip-rule="evenodd"/>
  <path fill="#fff" d="M6.871 13.105c-.192-.236-.42-.411-.75-.411-.506 0-.746.411-.985.823-.131.226-.263.452-.438.61v1.297a1.087 1.087 0 0 0 2.173 0v-2.319Z"/>
</svg>
