<svg xmlns="http://www.w3.org/2000/svg" viewBox="0 0 20 20">
  <rect width="100%" height="100%" fill="#069C02"/>
  <path fill="#fff" fill-rule="evenodd" d="M5.43 5.13V5.1c0-.91 2.3-1.34 4.43-1.34s4.42.42 4.43 1.33l.01.1.01.48c.74.04 2.2.25 2.41 1.37.16.83.04 1.58-.35 2.17 1.39.7 2.13 1.61 2.13 2.6 0 2.17-3.73 3.88-8.5 3.88s-8.5-1.7-8.5-3.89c0-1.38 1.5-2.6 4-3.3a27.3 27.3 0 0 1-.07-3.36Zm.5.62c.8.46 2.42.68 3.93.68 1.53 0 3.14-.22 3.93-.68.03 1.86-.14 5.28-1.14 6.13a4.34 4.34 0 0 1-2.9.96c-1.73-.1-2.63-.92-2.68-.97-.98-.84-1.15-4.25-1.13-6.12Zm9.78 4.16c.12-.09.23-.18.33-.29 1.25.62 1.94 1.38 1.94 2.17 0 1.82-3.66 3.36-7.98 3.36s-7.98-1.54-7.97-3.36c0-1.1 1.34-2.15 3.53-2.78.12.94.31 1.87.63 2.53-.79.38-1.22.87-1.22 1.4 0 1.22 2.16 2.13 5.03 2.13s5.03-.9 5.03-2.11c0-.6-.51-1.12-1.45-1.51.09-.2.17-.44.24-.68a4.28 4.28 0 0 0 1.89-.86Zm-2.39 2a2.03 2.03 0 0 1-.45.48 1.86 1.86 0 0 1-1.3 1.54c-.52.15-1.05.24-1.58.25h-.25a6.22 6.22 0 0 1-1.59-.25 1.85 1.85 0 0 1-1.3-1.55 1.84 1.84 0 0 1-.14-.12 1.65 1.65 0 0 1-.25-.27c-.62.29-.97.63-.97.96 0 .75 1.86 1.59 4.51 1.59 2.65 0 4.5-.82 4.5-1.58 0-.37-.43-.75-1.18-1.05Zm1-5.46v-.26c.55.04 1.74.2 1.89.94.19 1-.1 1.83-.82 2.36a3.8 3.8 0 0 1-1.43.71l.08-.37c.41-.1.8-.28 1.17-.5.65-.4.9-1.03.77-1.93-.06-.34-.35-.9-1.67-.95Zm-.15 2.49-.04.32c.16-.06.32-.12.48-.2l-.44-.12Zm.05-.53c.32.08.64.18.96.29.28-.28.37-.67.28-1.22-.04-.3-.47-.49-1.16-.51-.01.44-.04.94-.08 1.44Zm-4.2 4.95c.95-.05 1.68-.3 2.18-.55a1.35 1.35 0 0 1-.8.64c-.47.14-.95.2-1.44.22h-.2a5.74 5.74 0 0 1-1.44-.23 1.33 1.33 0 0 1-.8-.63c.5.25 1.23.5 2.19.55h.3ZM5.95 5.1V5.1c0-.25 1.33-.82 3.91-.82s3.91.58 3.91.82-1.33.81-3.9.81c-2.5 0-3.83-.53-3.91-.79Z" clip-rule="evenodd"/>
</svg>