<svg xmlns="http://www.w3.org/2000/svg" viewBox="0 0 20 20">
  <rect width="100%" height="100%" fill="#6A281A"/>
  <path fill="#FDD05D" stroke="#FDD05D" stroke-width=".07" d="M7.3 7.95a1.64 1.64 0 1 1 .26 3.26 1.64 1.64 0 0 1-.26-3.26Z"/>
  <path fill="#D7B259" stroke="#D7B259" stroke-width=".07" d="M11.96 8.04a1.65 1.65 0 0 1 1.76.93 1.65 1.65 0 0 1-.57 2.04 1.64 1.64 0 1 1-1.2-2.97Z"/>
  <path fill="#D68B30" stroke="#D68B30" stroke-width=".07" d="M10.12 14.7c.1.12.22.23.34.35.3.27.62.52.93.78.24.2.5.38.78.5.37.17.78.24 1.18.23.35 0 .7-.1.96-.32.11.12.24.23.38.32-.2.13-.4.26-.59.41-.12.1-.25.19-.4.26a5.94 5.94 0 0 1-2.13.6c-.12 0-.25.01-.36-.05-.05-.03-.04-.1-.01-.14l.2-.28c.08-.13.16-.28.15-.44a.36.36 0 0 0-.17-.28c-.15-.1-.33-.15-.5-.19a6.2 6.2 0 0 0-.81-.12l.06-.01v-.84c0-.26-.04-.52-.02-.78Z"/>
  <path fill="#D68B30" d="M16.64 9.1a.7.7 0 0 0-.34-.3c-.27-.13-.57-.19-.85-.31-.27-.12-.5-.32-.64-.58-.1-.2-.16-.44-.16-.67.01-.13.06-.26.08-.39.02-.17.03-.36-.07-.5 0 .19 0 .38-.08.57-.05.19-.17.35-.2.55-.01.11.01.23.07.32.13.2.32.34.43.55a.45.45 0 0 1-.1.57c.06-.12.15-.26.1-.4-.1-.33-.46-.47-.6-.79a.8.8 0 0 1 .03-.56c.08-.2.16-.42.14-.65a.86.86 0 0 0-.14-.43 2.29 2.29 0 0 0-.23-.2c.06.1.14.2.18.31.06.14.06.29 0 .42-.1.2-.3.32-.4.51-.03.08-.03.17-.04.26a.46.46 0 0 1 .04-.32c.1-.19.27-.33.32-.53.04-.12 0-.25-.07-.35-.2-.29-.51-.49-.65-.81-.15-.37-.04-.79.18-1.1.06-.07.06-.16.08-.24.05-.15.12-.3.2-.42.08-.14.16-.28.18-.44a.84.84 0 0 0-.33-.73c-.19-.15-.44-.16-.65-.29-.2-.1-.34-.28-.45-.47a.72.72 0 0 0-.35-.32l-.2.19a.8.8 0 0 0 0 .3c.03.08.13.12.22.15.24.07.5.12.72.25.12.08.24.18.28.32.05.13.04.27 0 .4a.84.84 0 0 1-.23.38c-.07.07-.16.14-.26.15a.61.61 0 0 0 .28-.24.72.72 0 0 0 .12-.63.6.6 0 0 0-.36-.29c-.2-.07-.43-.09-.65-.14a.48.48 0 0 1-.33-.22c-.05-.07-.06-.16-.07-.25-.44.23-.92.34-1.4.36-.18.03-.35.06-.53.07-.01.01-.04.02-.04.05v.39l.02.36.01 1.6c.03.32.02.65.03.97.01.25 0 .5.02.75l.02 1.17c0 .6.03 1.18.02 1.77h-.63v.02h.96a1.95 1.95 0 1 1-.04.55l-.9.01c.21.02.42 0 .63.01 0 .22.02.44.01.65l.01.56c.02.18.01.36.01.54l.02 1.29c.02.32 0 .64.02.96v.27c.01.03 0 .05-.03.07l.04.02 1.19-.7a1.3 1.3 0 0 1-.1.1c.22.22.46.42.7.63.31.25.65.47 1.02.62.22.08.45.14.68.12.1 0 .18-.06.26-.1-.07.1-.19.13-.3.15.18.04.36.04.54.03.07-.22.1-.46.06-.7-.08-.33-.25-.63-.35-.95a2.41 2.41 0 0 1-.05-1.38c.08-.3.23-.57.44-.79.28-.29.64-.49 1-.65l.27-.12c.19-.07.39-.11.56-.23.13-.08.26-.16.37-.27.12-.11.2-.26.26-.42.05-.13.07-.28 0-.41Z"/>
  <path fill="#F99E2B" stroke="#F99E2B" stroke-width=".07" d="M10.12 15.48c0-.26-.03-.52 0-.78l-.03-.04c-.2.24-.44.45-.68.66a18.86 18.86 0 0 1-.97.77 2.62 2.62 0 0 1-2 .45 1.38 1.38 0 0 1-.59-.27l-.18-.18a4.24 4.24 0 0 1-.6-.85c-.09-.13-.16-.28-.24-.4-.03.07-.06.15-.07.24a6.68 6.68 0 0 0 .32 1.24c.09.22.17.45.34.62.16.17.36.28.56.38a6.64 6.64 0 0 0 2.64.43c.13-.01.27-.01.39-.07.1-.05.13-.16.13-.26 0-.23-.09-.45-.1-.67 0-.11.04-.23.11-.3a.56.56 0 0 1 .34-.14c.2-.03.39 0 .58.02l.06-.01v-.84Z"/>
  <path fill="#F99E2B" stroke="#F99E2B" stroke-width=".07" d="M10.08 13.8c-.01-.31 0-.63-.02-.95 0-.43 0-.86-.02-1.29v-.54l-.02-.55-.01-.66h-.62a1.95 1.95 0 0 1-2.72 1.58 1.95 1.95 0 0 1 .75-3.72l-.15-.02c.12-.02.24-.02.36 0l-.15.02a1.93 1.93 0 0 1 1.88 1.55h.63l-.02-1.77-.02-1.17c-.02-.25 0-.5-.02-.75-.01-.32 0-.65-.03-.98L9.9 2.96c0-.12-.02-.24-.01-.36V2.2c-.01-.03.02-.04.03-.05h-.03c-.44.02-.88-.02-1.3-.15a2.2 2.2 0 0 1-1.06-.68c-.08.06-.17.13-.23.22-.07.11-.13.23-.23.32-.13.15-.3.25-.48.31a.9.9 0 0 0 0 .74c.14.31.38.56.53.87.11.24.14.51.06.76-.06.21-.2.4-.36.55-.14.14-.3.27-.4.45a.53.53 0 0 0 .04.5 1 1 0 0 0 .41.35c.2.08.42.14.64.1a.53.53 0 0 0 .3-.14c-.1.14-.27.19-.44.2a1.3 1.3 0 0 1-.68-.18.8.8 0 0 1-.4-.47.68.68 0 0 1 .05-.49c.15-.28.42-.45.57-.73.1-.2.13-.45.04-.66-.1-.26-.3-.47-.47-.7a1.48 1.48 0 0 1-.27-.57c-.04-.13-.03-.27-.03-.4a.83.83 0 0 0-.33.66c-.01.18.08.35.17.5.07.12.14.24.18.36.07.22.09.45.08.67 0 .33-.05.67-.22.96-.15.27-.39.49-.66.65a.37.37 0 0 0-.16.2.95.95 0 0 0-.01.5c.02.13.07.26.06.4-.02.33-.15.67-.4.9-.24.22-.55.32-.86.42-.21.07-.44.14-.61.3a.44.44 0 0 0-.16.38c.02.16.1.31.18.45.15.23.39.35.61.49.15.08.3.18.42.3.12.13.25.25.37.4.34.4.62.88.67 1.4.06.55-.14 1.08-.45 1.52a.8.8 0 0 0-.12.36c.08-.05.16-.1.25-.1l-.14.08a.34.34 0 0 0-.13.37c.05.17.2.28.35.34.2.09.41.14.63.16v-.06a.6.6 0 0 1-.35-.22c.06.05.12.1.2.13.21.1.46.1.7.07.46-.04.91-.18 1.34-.37.3-.18.56-.4.81-.64.14-.12.28-.24.4-.38a.95.95 0 0 1-.1-.1l1.16.68a.07.07 0 0 0 .04-.07l-.01-.26Z"/>
</svg>