<svg viewBox="0 0 20 20" fill="none" xmlns="http://www.w3.org/2000/svg">
<rect width="20" height="20" fill="#F99E2B"/>
<path fill-rule="evenodd" clip-rule="evenodd" d="M17.4646 12.9782C17.6018 13.0889 17.7383 13.2047 17.838 13.3515C17.9427 13.5028 18.0099 13.6851 17.9988 13.8703C17.99 14.0164 17.9413 14.1684 17.8284 14.2672C17.6845 14.3979 17.472 14.4281 17.2882 14.3816C17.1193 14.3403 16.971 14.2119 16.92 14.0444C16.8845 13.9304 16.9006 13.8111 16.9162 13.6949C16.9191 13.6736 16.9219 13.6523 16.9245 13.6312C16.9416 13.6688 16.9566 13.7072 16.9716 13.7455C16.9831 13.7749 16.9946 13.8043 17.0071 13.8334C17.0381 13.9057 17.0824 13.9765 17.1517 14.0171C17.2558 14.0769 17.3997 14.0584 17.4845 13.9736C17.5458 13.9123 17.5598 13.8194 17.548 13.7367C17.5251 13.5781 17.4402 13.4327 17.3266 13.3213C17.2743 13.2668 17.2172 13.2172 17.1603 13.1677C17.0783 13.0964 16.9964 13.0251 16.9289 12.9398C16.9141 12.9216 16.8995 12.9032 16.8848 12.8848C16.7922 12.7686 16.6983 12.6507 16.5703 12.5724L16.5769 12.579C16.6876 12.6993 16.7481 12.8579 16.7798 13.0158C16.8064 13.1855 16.7798 13.3597 16.7311 13.5227C16.6788 13.6917 16.5954 13.8503 16.4884 13.9913C16.4776 14.0059 16.4666 14.0204 16.4557 14.0351C16.3614 14.161 16.2652 14.2893 16.2176 14.4414C16.1881 14.5403 16.1792 14.6524 16.2257 14.7469C16.2633 14.8258 16.3445 14.8767 16.4301 14.8856C16.5533 14.8996 16.6788 14.8465 16.7643 14.7587C16.8094 14.7137 16.8529 14.6605 16.8625 14.5956C16.8677 14.5628 16.8496 14.5352 16.8326 14.5093C16.8305 14.506 16.8284 14.5028 16.8263 14.4997C16.9496 14.5801 17.0632 14.6834 17.1303 14.8155C17.1687 14.8915 17.1835 14.983 17.151 15.0634C17.1171 15.1461 17.0447 15.2051 16.9673 15.2464C16.878 15.2958 16.7754 15.3143 16.6743 15.315C16.5806 15.3113 16.4854 15.2995 16.3984 15.2626C16.3157 15.225 16.2368 15.1793 16.1578 15.1335C16.0294 15.0568 15.9173 14.9431 15.8649 14.8007C15.8191 14.6768 15.8243 14.5373 15.8649 14.4126C15.8958 14.3092 15.9395 14.2105 15.9833 14.1117C16.0242 14.0194 16.0652 13.927 16.0958 13.8304C16.1261 13.7308 16.1504 13.626 16.1386 13.5205C16.1268 13.4157 16.0767 13.3176 16.008 13.2387C15.9808 13.2078 15.9522 13.1781 15.9236 13.1485C15.8715 13.0944 15.8194 13.0404 15.7756 12.9789C15.8464 13.1545 15.8996 13.3412 15.8914 13.5316C15.8863 13.6548 15.859 13.7758 15.8162 13.8909C15.735 14.1042 15.6885 14.3359 15.7144 14.5646C15.7335 14.7306 15.7999 14.8952 15.9187 15.0154C15.9778 15.0774 16.0493 15.1261 16.1246 15.1667C16.2124 15.2139 16.3039 15.2553 16.4021 15.2767C16.3758 15.2808 16.3495 15.2768 16.3232 15.2728C16.317 15.2718 16.3108 15.2709 16.3047 15.27C16.0774 15.2331 15.8479 15.1512 15.6789 14.9881C15.5395 14.8568 15.4576 14.6731 15.4288 14.4849C15.414 14.3824 15.4044 14.2768 15.4251 14.175C15.4299 14.1449 15.4352 14.1148 15.4406 14.0846C15.4616 13.9659 15.4828 13.8462 15.4716 13.7256C15.4642 13.6674 15.445 13.5987 15.3867 13.5722C15.1868 13.4822 14.9971 13.3626 14.851 13.1973C14.73 13.063 14.6452 12.8948 14.6179 12.7148C14.5869 12.5133 14.6135 12.3001 14.7072 12.1171C14.7319 12.0658 14.7628 12.018 14.7937 11.97C14.8033 11.9551 14.8128 11.9402 14.8223 11.9252C14.8577 11.8455 14.8193 11.7408 14.7411 11.7009C14.7011 11.6782 14.6557 11.6746 14.6109 11.6711C14.5961 11.67 14.5814 11.6688 14.567 11.667C14.4858 11.6567 14.4083 11.619 14.353 11.5585C14.3189 11.5216 14.2902 11.4803 14.2615 11.4391C14.2317 11.3964 14.202 11.3537 14.1663 11.3158C14.108 11.2508 14.0342 11.2029 13.9567 11.1645C14.0298 11.36 14.0829 11.5637 14.1014 11.7725C14.1145 11.8798 14.111 11.9877 14.1075 12.0957C14.1059 12.1451 14.1043 12.1946 14.1043 12.244C14.1046 12.2505 14.1049 12.257 14.1052 12.2635C14.1091 12.3501 14.1132 12.4415 14.1626 12.5163C14.1835 12.5488 14.2061 12.5804 14.2286 12.612C14.2776 12.6807 14.3265 12.7493 14.3589 12.8277C14.4297 12.9863 14.4135 13.173 14.3441 13.3294C14.2726 13.4895 14.1442 13.6142 14.0069 13.719C13.9423 13.7695 13.8747 13.8155 13.8071 13.8616C13.7295 13.9144 13.6519 13.9672 13.579 14.0267C13.4823 14.1064 13.4092 14.2104 13.3495 14.3196C13.2654 14.4761 13.2071 14.6465 13.1783 14.8214C13.1525 14.9896 13.1517 15.1697 13.2255 15.3261C13.2676 15.4176 13.3414 15.4936 13.4314 15.5386C13.4299 15.5475 13.4277 15.5644 13.427 15.574C13.2735 15.5224 13.1598 15.3896 13.1067 15.2398C13.03 15.0206 13.041 14.7815 13.0831 14.5565C13.0757 14.5661 13.0682 14.5757 13.0606 14.5853C13.053 14.5949 13.0455 14.6045 13.0381 14.614C12.9591 14.7233 12.889 14.8413 12.8551 14.9727C12.8223 15.1086 12.8517 15.2456 12.8805 15.38C12.8874 15.4119 12.8942 15.4436 12.9001 15.4751C12.923 15.5962 12.94 15.7238 12.8986 15.8426C12.8699 15.9275 12.8079 15.9976 12.7341 16.0463C12.6597 16.0958 12.5734 16.1215 12.4882 16.1468C12.472 16.1516 12.4558 16.1564 12.4397 16.1614C12.4478 16.2433 12.4537 16.3266 12.436 16.4078C12.4161 16.5015 12.3821 16.593 12.3283 16.6727C12.2478 16.7952 12.1261 16.8845 11.9925 16.9413C11.8136 17.0178 11.6207 17.0484 11.429 17.0788C11.3915 17.0848 11.354 17.0907 11.3166 17.097C11.1167 17.1309 10.9078 17.1664 10.7345 17.2785C10.6142 17.3552 10.5219 17.4748 10.4799 17.612C10.4762 17.6172 10.4673 17.6268 10.4629 17.6319C10.4603 17.6282 10.4576 17.6246 10.4551 17.6211C10.4527 17.6178 10.4503 17.6145 10.4482 17.6113C10.4666 17.5316 10.5028 17.4556 10.55 17.3892C10.58 17.3454 10.6194 17.3096 10.6585 17.2743C10.6694 17.2644 10.6803 17.2546 10.6909 17.2446C10.625 17.2995 10.5596 17.3554 10.4943 17.4114C10.4375 17.46 10.3807 17.5087 10.3235 17.5567C10.2903 17.5832 10.2607 17.6142 10.2364 17.6497C10.2153 17.6788 10.1931 17.7076 10.1709 17.7365C10.093 17.8377 10.0142 17.9402 9.97518 18.0636C9.94419 18.1566 9.95452 18.2636 10.0099 18.3455C10.0526 18.4158 10.1178 18.4631 10.183 18.5105C10.2383 18.5507 10.2936 18.5909 10.3353 18.645C10.3847 18.7078 10.3987 18.7978 10.3648 18.8708C10.3264 18.9572 10.2416 19.0147 10.1537 19.0435C10.1458 19.0406 10.1378 19.0383 10.13 19.0362C10.124 19.0345 10.1182 19.0329 10.1124 19.031L10.1143 19.0277C10.1176 19.0218 10.1227 19.0129 10.1257 19.0081C10.187 18.9859 10.2452 18.9483 10.2844 18.8944C10.3109 18.8561 10.3264 18.8059 10.3139 18.7594C10.3021 18.7129 10.2674 18.676 10.2297 18.648C10.1971 18.6229 10.1622 18.6008 10.1273 18.5787C10.073 18.5444 10.0188 18.5101 9.97297 18.4643C9.91763 18.4111 9.87631 18.3433 9.85417 18.2695C9.88073 18.3824 9.89918 18.4989 9.87557 18.6148C9.86376 18.6842 9.83499 18.7491 9.79957 18.8096C9.75603 18.8922 9.72799 18.9933 9.76489 19.0826C9.79735 19.1682 9.87262 19.2272 9.95231 19.2671C9.95157 19.2722 9.95083 19.2833 9.95083 19.2892C9.8431 19.2745 9.73611 19.225 9.6697 19.1365C9.59813 19.0442 9.58042 18.9225 9.59149 18.8096C9.59325 18.7821 9.59896 18.7551 9.60465 18.7282C9.6133 18.6874 9.62192 18.6467 9.61658 18.6045C9.60625 18.5108 9.55607 18.4266 9.50368 18.3499C9.43241 18.2494 9.34937 18.1585 9.26633 18.0676C9.21955 18.0164 9.17277 17.9653 9.1281 17.9123C9.12962 17.9195 9.13123 17.9267 9.13284 17.9338C9.1375 17.9545 9.14214 17.9751 9.14434 17.9965C9.14249 18.0038 9.14046 18.0112 9.13843 18.0186C9.13641 18.026 9.13438 18.0333 9.13253 18.0407C9.12799 18.0339 9.12373 18.0271 9.11958 18.0205C9.11698 18.0163 9.11443 18.0122 9.11187 18.0083C9.07498 17.8496 8.98643 17.7057 8.87428 17.5884C8.80861 17.5161 8.74294 17.4423 8.678 17.3693C8.71332 17.3743 8.74512 17.3913 8.77615 17.4079L8.77835 17.4091C8.82216 17.4329 8.86752 17.4532 8.91285 17.4735C8.95607 17.4929 8.99925 17.5122 9.04104 17.5345C9.22919 17.6201 9.41735 17.7227 9.55828 17.8769C9.64314 17.9655 9.70143 18.0776 9.72947 18.1964C9.73099 18.2016 9.73219 18.2071 9.73341 18.2126C9.73752 18.2311 9.74173 18.2501 9.75825 18.2621C9.74128 18.1079 9.67339 17.961 9.57009 17.8459C9.43949 17.6969 9.26461 17.598 9.09269 17.5065C9.04616 17.4818 8.99855 17.4594 8.95102 17.4371C8.88773 17.4074 8.82459 17.3777 8.76433 17.3427C8.74931 17.3343 8.73391 17.3266 8.71854 17.3189C8.69087 17.3051 8.6633 17.2914 8.63816 17.2733C8.61823 17.2586 8.59388 17.2512 8.5688 17.2483C8.45221 17.1339 8.31866 17.0387 8.18437 16.9457C8.14378 16.9199 8.1032 16.8948 8.06262 16.8705C8.05899 16.8682 8.05536 16.8659 8.05169 16.8635C8.04566 16.8596 8.03952 16.8557 8.0331 16.852C7.89733 16.7716 7.75787 16.6948 7.61325 16.6307C7.72098 16.7391 7.82502 16.8542 7.89807 16.99C7.94898 17.0867 7.98366 17.1966 7.97776 17.3073C7.9726 17.3973 7.93939 17.4858 7.88479 17.5582C7.85754 17.5958 7.82569 17.63 7.79385 17.6642C7.74205 17.7199 7.69025 17.7756 7.65826 17.8459C7.65301 17.8365 7.64739 17.827 7.64193 17.8179C7.63971 17.8141 7.63752 17.8104 7.63539 17.8068C7.66367 17.7419 7.70704 17.6867 7.75043 17.6315C7.7795 17.5945 7.80857 17.5575 7.83314 17.5176C7.8811 17.4401 7.9025 17.3449 7.887 17.2549C7.86487 17.1265 7.78887 17.0151 7.70327 16.9199C7.55182 16.7539 7.36754 16.6247 7.18392 16.496C7.14389 16.4679 7.10389 16.4399 7.06427 16.4115C7.01862 16.3763 6.96591 16.3543 6.91307 16.3322C6.88393 16.3201 6.85474 16.3079 6.82668 16.2934C6.63483 16.2042 6.44815 16.1001 6.28361 15.9658C6.15079 15.8596 6.03494 15.7304 5.95009 15.5821C5.94831 15.5794 5.94653 15.5766 5.94475 15.5738C5.93838 15.5638 5.93192 15.5537 5.925 15.5445C5.96484 15.6995 6.0342 15.8478 6.13308 15.9747C6.22259 16.088 6.33858 16.1739 6.4541 16.2595C6.49285 16.2882 6.53154 16.3169 6.56916 16.3466C6.61003 16.3772 6.65168 16.4068 6.69334 16.4364C6.79232 16.5068 6.89136 16.5773 6.98016 16.6609C6.98044 16.6646 6.98096 16.6684 6.98147 16.6722C6.98228 16.6781 6.98311 16.6841 6.98311 16.6904C6.98126 16.6912 6.9785 16.6921 6.97573 16.693C6.97296 16.6939 6.9702 16.6948 6.96835 16.6956C6.87144 16.6142 6.76359 16.5486 6.65597 16.4831C6.60545 16.4524 6.55497 16.4217 6.5057 16.3894C6.46859 16.3641 6.4308 16.3397 6.39305 16.3154C6.29871 16.2546 6.20453 16.1939 6.12127 16.1186C5.98698 15.9968 5.88737 15.8404 5.81875 15.6744C5.74717 15.501 5.70511 15.3158 5.68519 15.1291C5.66896 14.9254 5.72504 14.724 5.79292 14.5336C5.87335 14.3159 5.97813 14.1079 6.09619 13.9079C6.11416 13.8685 6.11528 13.8245 6.11636 13.7817C6.11666 13.77 6.11695 13.7584 6.11758 13.747C6.01316 13.8604 5.89299 13.9565 5.77319 14.0524C5.744 14.0757 5.71484 14.0991 5.68593 14.1226C5.57672 14.2134 5.46826 14.3093 5.3893 14.4281C5.32658 14.5203 5.28748 14.6281 5.2801 14.7395C5.27475 14.7876 5.27947 14.8357 5.28416 14.8835C5.28595 14.9017 5.28773 14.9199 5.28895 14.938C5.24689 14.8066 5.23878 14.6635 5.27641 14.5299C5.31256 14.3979 5.3893 14.2813 5.47563 14.1772C5.54327 14.0959 5.61741 14.0208 5.69147 13.9457C5.77333 13.8627 5.85512 13.7798 5.92795 13.6888C5.9855 13.6135 6.04453 13.5338 6.07184 13.4423C6.04326 13.3118 6.00011 13.1857 5.95707 13.0599C5.9412 13.0135 5.92535 12.9671 5.91024 12.9206C5.84457 12.7266 5.7848 12.5296 5.75603 12.3266C5.72061 12.0765 5.73832 11.8153 5.82908 11.5784C5.77964 11.605 5.72577 11.6242 5.6697 11.6294C5.65847 11.6306 5.64709 11.6314 5.63567 11.6323C5.59153 11.6357 5.54679 11.6391 5.5081 11.6626C5.42915 11.7031 5.39225 11.8109 5.43062 11.8906C5.43429 11.8962 5.43798 11.9018 5.44166 11.9074C5.4802 11.966 5.51905 12.0251 5.54868 12.0898C5.63797 12.2661 5.66084 12.4705 5.63502 12.6646C5.60919 12.8491 5.52212 13.0217 5.3989 13.1597C5.27124 13.3028 5.11039 13.4128 4.9392 13.4976C4.92753 13.5038 4.91523 13.5092 4.90289 13.5146C4.87077 13.5287 4.83837 13.543 4.81598 13.5707C4.80196 13.5973 4.79089 13.6253 4.78425 13.6548C4.76366 13.7838 4.78646 13.9115 4.80918 14.0387C4.81985 14.0985 4.8305 14.1581 4.83664 14.2178C4.8418 14.4259 4.79974 14.6406 4.68316 14.8162C4.58133 14.9697 4.42564 15.0811 4.25593 15.1475C4.1268 15.1962 3.99103 15.2316 3.85305 15.2398C4.01686 15.1903 4.17772 15.1173 4.30537 15.0022C4.43745 14.8826 4.51345 14.7107 4.53485 14.5351C4.5651 14.2997 4.51492 14.0606 4.43007 13.8408C4.35923 13.6489 4.33857 13.4371 4.38211 13.2357C4.39753 13.1539 4.42487 13.0753 4.45225 12.9967C4.45893 12.9775 4.46561 12.9583 4.47213 12.9391C4.43243 13.0006 4.3814 13.053 4.33043 13.1054C4.2658 13.1719 4.20126 13.2382 4.16001 13.3228C4.10836 13.4216 4.09876 13.5382 4.11942 13.6467C4.14544 13.7962 4.20641 13.9339 4.26737 14.0715C4.32224 14.1954 4.3771 14.3192 4.40646 14.4517C4.44335 14.6192 4.39834 14.8015 4.28618 14.9313C4.22051 15.0103 4.1364 15.0715 4.04638 15.121C4.03368 15.128 4.02099 15.1352 4.00827 15.1424C3.92261 15.1909 3.8355 15.2402 3.73721 15.2582C3.5734 15.2907 3.39188 15.2796 3.248 15.1866C3.17495 15.1409 3.10854 15.0737 3.08862 14.9874C3.06722 14.8989 3.09821 14.8074 3.14469 14.7321C3.2207 14.6118 3.33138 14.5166 3.45165 14.4436C3.45239 14.4443 3.45386 14.4466 3.45386 14.4473C3.42951 14.462 3.40443 14.4805 3.39483 14.5085C3.37712 14.5572 3.39926 14.6096 3.4273 14.6495C3.48781 14.7343 3.57414 14.8052 3.67596 14.8332C3.7741 14.8634 3.89216 14.8516 3.97037 14.7801C4.03604 14.7218 4.06039 14.6303 4.05744 14.5454C4.05302 14.4082 3.99177 14.2813 3.91872 14.1684C3.88276 14.1132 3.84332 14.0604 3.80391 14.0077C3.73901 13.9208 3.67417 13.834 3.62505 13.7367C3.51806 13.5323 3.4546 13.3028 3.46124 13.0719C3.46346 12.9878 3.48412 12.9059 3.51068 12.8262C3.54831 12.7177 3.60144 12.6122 3.68408 12.5303C3.55361 12.6091 3.45876 12.7286 3.36538 12.8462C3.35208 12.863 3.33881 12.8797 3.32547 12.8963C3.25635 12.9839 3.17277 13.0568 3.08917 13.1297C3.03266 13.179 2.97615 13.2283 2.92407 13.2822C2.81118 13.3929 2.72632 13.5375 2.70345 13.6954C2.69385 13.7729 2.70123 13.8592 2.75436 13.9212C2.83626 14.0171 2.989 14.0407 3.09821 13.978C3.16536 13.9396 3.20889 13.8717 3.23988 13.8031C3.2531 13.773 3.26504 13.7422 3.27698 13.7115C3.29369 13.6684 3.31041 13.6253 3.33064 13.584C3.32782 13.6235 3.33402 13.6623 3.34023 13.7012C3.34539 13.7335 3.35056 13.7659 3.35056 13.7987C3.36237 13.9241 3.33138 14.0547 3.25242 14.1544C3.15502 14.2827 2.99564 14.3551 2.83553 14.3617C2.64663 14.375 2.44224 14.2968 2.33968 14.1307C2.23785 13.9596 2.22678 13.7434 2.2895 13.5574C2.34632 13.3811 2.46069 13.2305 2.59277 13.1036C2.53521 13.1147 2.47618 13.1235 2.41715 13.1169C2.41506 13.1165 2.41275 13.1162 2.41034 13.1158C2.3949 13.1135 2.37525 13.1106 2.381 13.0889C2.47618 13.0999 2.57063 13.0741 2.65696 13.0357C2.68166 13.0252 2.70223 13.008 2.72255 12.991C2.72652 12.9877 2.73047 12.9844 2.73444 12.9811C2.79889 12.9267 2.86669 12.8764 2.93438 12.8262C2.95657 12.8098 2.97876 12.7933 3.00081 12.7767C3.05615 12.7192 3.09895 12.6476 3.12256 12.5709C3.14247 12.5062 3.12743 12.4387 3.1131 12.3745L3.11149 12.3672C3.09364 12.2933 3.0695 12.2213 3.04537 12.1494C3.02062 12.0756 2.99587 12.0018 2.97794 11.926C2.96096 11.8566 2.94326 11.7814 2.97056 11.712C2.99575 11.6379 3.06518 11.5932 3.12815 11.5527L3.13289 11.5497C3.18306 11.5187 3.22881 11.4803 3.26866 11.436C3.23767 11.228 3.25021 11.0103 3.32547 10.8125C3.30895 10.7857 3.29128 10.7595 3.2736 10.7333C3.23287 10.673 3.19211 10.6126 3.16536 10.5447C3.13215 10.4643 3.13879 10.3676 3.18897 10.296C3.25095 10.2067 3.3454 10.147 3.43984 10.0968C3.6162 10.0068 3.81026 9.96102 4.0021 9.91601C4.0258 9.9102 4.04967 9.90475 4.07356 9.89931C4.17094 9.8771 4.26874 9.8548 4.35702 9.80681C4.43007 9.7677 4.49943 9.70203 4.50533 9.61496C4.5105 9.53306 4.48172 9.45115 4.43966 9.38179C4.25667 9.16855 4.1364 8.90291 4.09581 8.624C4.06777 8.44322 4.07958 8.25875 4.11205 8.07945C4.06113 8.25211 4.05892 8.43436 4.06851 8.61293C4.07294 8.70747 4.09294 8.79939 4.11296 8.89142C4.12967 8.96818 4.14639 9.04502 4.1541 9.12354C4.16148 9.25266 4.11869 9.38105 4.04859 9.48878C3.96595 9.6157 3.84346 9.719 3.69884 9.76696C3.70325 9.75702 3.70808 9.7475 3.71302 9.73777C3.71468 9.7345 3.71635 9.7312 3.71802 9.72785C3.89511 9.64005 4.02498 9.4637 4.06039 9.2689C4.08087 9.15326 4.04533 9.0426 4.01009 8.93287C3.99834 8.89627 3.98661 8.85977 3.97702 8.82322C3.93791 8.6786 3.91577 8.52881 3.91134 8.37828C3.90249 8.17168 3.93053 7.95696 4.03309 7.77397C4.11795 7.62049 4.25814 7.49358 4.42786 7.44119C4.47729 7.38289 4.52968 7.32682 4.58724 7.2759C4.62239 7.24571 4.66241 7.22271 4.70237 7.19974C4.73369 7.18173 4.76498 7.16375 4.79384 7.14235C4.86763 7.08848 4.91854 7.00953 4.95691 6.92837C5.01225 6.80588 5.02848 6.66716 5.00709 6.53434C4.99233 6.46941 4.97167 6.40448 4.93994 6.34545C4.91299 6.29262 4.87541 6.2465 4.83813 6.20073C4.82437 6.18385 4.81066 6.16701 4.79753 6.14991C4.73333 6.07465 4.68168 5.98979 4.63446 5.90346C4.60937 6.00971 4.61675 6.12408 4.66397 6.22296C4.68872 6.27532 4.71896 6.32499 4.74918 6.37464C4.79648 6.45232 4.84373 6.52994 4.86984 6.61772C4.89124 6.69298 4.89345 6.77415 4.87574 6.85015C4.84697 6.95345 4.74957 7.0265 4.647 7.0479C4.55477 7.06708 4.45442 7.07004 4.36661 7.03167C4.29209 7.00068 4.21756 6.95493 4.17919 6.88188C4.1364 6.79407 4.14008 6.68118 4.20207 6.60296C4.2611 6.53065 4.3703 6.50704 4.45516 6.54615C4.50164 6.56607 4.53706 6.60665 4.56289 6.64945C4.55695 6.6432 4.55115 6.63675 4.54533 6.63029C4.52366 6.60622 4.50179 6.58193 4.47213 6.56681C4.39686 6.52401 4.29282 6.54098 4.23527 6.60591C4.17476 6.67306 4.17255 6.77784 4.21313 6.85458C4.24781 6.92025 4.31865 6.95567 4.38506 6.98002C4.46622 7.01101 4.55624 7.00068 4.63815 6.9778C4.71046 6.95567 4.77982 6.89885 4.79458 6.82137C4.80269 6.75423 4.79532 6.68339 4.76654 6.62141C4.7362 6.55342 4.69409 6.49231 4.65196 6.43117C4.60904 6.3689 4.56612 6.3066 4.53558 6.23698C4.46696 6.0835 4.47213 5.90272 4.53116 5.74629C4.53304 5.74049 4.53543 5.73464 4.53784 5.72875C4.54585 5.70917 4.55408 5.68906 4.54444 5.66808C4.4463 5.32497 4.49205 4.94423 4.66619 4.63284C4.81229 4.36868 5.05505 4.15765 5.3406 4.05878C5.39032 4.04022 5.44211 4.02821 5.49392 4.0162C5.55746 4.00146 5.62101 3.98673 5.68076 3.9599C5.75307 3.92965 5.81653 3.88243 5.87187 3.82635C5.82306 3.82419 5.77426 3.82051 5.72545 3.81684C5.6075 3.80795 5.48955 3.79907 5.37159 3.81159C5.15909 3.83446 4.94879 3.88981 4.75768 3.98794C4.61306 4.06321 4.47877 4.1702 4.40351 4.31851L4.37399 4.31261C4.42121 4.17831 4.51714 4.06763 4.62634 3.97983C4.75842 3.87431 4.9119 3.79757 5.0698 3.73854C5.22845 3.68173 5.39447 3.6404 5.5627 3.63007C5.60999 3.62692 5.65744 3.62568 5.70487 3.62444C5.80174 3.62191 5.89851 3.61938 5.99362 3.60056C5.99833 3.57192 6.00116 3.54286 6.004 3.51372C6.0065 3.48805 6.00901 3.46232 6.01281 3.43675C6.04527 3.21834 6.14636 3.01026 6.29762 2.84867C6.51382 2.6155 6.83406 2.48194 7.15208 2.49818C7.21201 2.50172 7.27074 2.51345 7.32942 2.52516C7.39286 2.53783 7.45624 2.55048 7.52102 2.55278C7.6317 2.55499 7.74607 2.52253 7.82945 2.44726C7.92611 2.35872 7.97555 2.22738 7.98071 2.09751C7.9903 1.885 8.06778 1.67988 8.18584 1.50426C8.0854 1.59277 8.02751 1.71176 7.96973 1.83054C7.94177 1.88803 7.91383 1.94547 7.8811 1.99938C7.82502 2.0894 7.76304 2.18532 7.66416 2.23254C7.54315 2.29084 7.40001 2.28198 7.27309 2.25025C7.27309 2.24582 7.27383 2.23623 7.27457 2.23181C7.29565 2.23207 7.31664 2.23359 7.3376 2.23511C7.37459 2.2378 7.4115 2.24047 7.44871 2.23623C7.54684 2.23033 7.64941 2.19344 7.71065 2.11375C7.78636 2.01557 7.83006 1.90057 7.87364 1.78589C7.8959 1.72733 7.91812 1.66885 7.94456 1.61273C7.99916 1.49172 8.0818 1.38325 8.19101 1.30725C8.3526 1.19509 8.54371 1.13164 8.73777 1.10434C8.81156 1.0881 8.88682 1.07408 8.96282 1.07408C9.14286 1.07482 9.32807 1.11909 9.47417 1.22756C9.59518 1.31611 9.68003 1.44302 9.75382 1.57141C9.76264 1.58637 9.77137 1.60156 9.78014 1.61683C9.83666 1.71522 9.89496 1.8167 9.99142 1.88058L9.99427 1.88176C10.031 1.89688 10.0685 1.91232 10.1087 1.91304C10.1274 1.91271 10.146 1.91143 10.1647 1.91016C10.1867 1.90865 10.2089 1.90714 10.2312 1.90714C10.2364 1.90659 10.2418 1.90645 10.2473 1.90631C10.2636 1.9059 10.2805 1.90547 10.2932 1.89386C10.3661 1.83524 10.4139 1.75332 10.4603 1.6737C10.4641 1.66713 10.4679 1.66058 10.4718 1.65405C10.5419 1.53009 10.6171 1.4076 10.7219 1.31094C10.8909 1.10138 11.1477 0.962664 11.4177 0.950858C11.5675 0.943479 11.7166 0.98849 11.8413 1.07039C11.9531 1.14167 12.0413 1.23983 12.1292 1.33764C12.1596 1.37146 12.19 1.40524 12.2213 1.43785C12.2154 1.44892 12.2095 1.46073 12.2043 1.47253C12.177 1.45261 12.1526 1.43048 12.1283 1.40686C12.0006 1.28511 11.8678 1.15894 11.6981 1.09991C11.5601 1.049 11.4044 1.05859 11.2687 1.11171C11.3461 1.1154 11.4236 1.12057 11.4982 1.14123C11.704 1.19362 11.8863 1.32127 12.0191 1.48582C12.1704 1.6725 12.2604 1.90862 12.2714 2.14843C12.2723 2.15655 12.2729 2.16484 12.2734 2.17319C12.2752 2.19896 12.2769 2.22519 12.2892 2.24804C12.3511 2.31887 12.4286 2.38381 12.5238 2.40299C12.5666 2.41111 12.6234 2.41037 12.6485 2.36831C12.6775 2.3184 12.681 2.26074 12.6844 2.20429C12.6853 2.18896 12.6862 2.17372 12.6876 2.15876C12.6884 2.1496 12.6892 2.14035 12.69 2.13104C12.6968 2.0496 12.7039 1.96377 12.7562 1.89755C12.7651 1.9064 12.7739 1.91526 12.7835 1.92411C12.7486 1.99566 12.755 2.07574 12.7612 2.15372C12.7627 2.17304 12.7642 2.19224 12.7651 2.21114C12.771 2.29895 12.7739 2.40078 12.7105 2.47088C12.6573 2.53064 12.5725 2.53876 12.4972 2.54171C12.5725 2.57639 12.6544 2.59558 12.7378 2.59115C12.7999 2.58876 12.8608 2.57657 12.9217 2.56438C12.9924 2.55023 13.063 2.5361 13.1355 2.53728C13.1896 2.53923 13.2433 2.53337 13.297 2.52751C13.3451 2.52226 13.3933 2.51701 13.4417 2.51736C13.6815 2.50998 13.9353 2.55057 14.1309 2.69814C14.2689 2.80587 14.3869 2.94902 14.4356 3.1202C14.4557 3.18552 14.467 3.25335 14.4783 3.32113C14.4958 3.42563 14.5133 3.53002 14.5625 3.62491C14.6098 3.72157 14.7168 3.77322 14.8193 3.78724C14.9211 3.802 15.034 3.78577 15.1159 3.71862C15.1942 3.65516 15.2104 3.5371 15.1713 3.44782C15.1373 3.37329 15.0399 3.34821 14.9676 3.37772C14.9263 3.39174 14.8975 3.42568 14.8724 3.45963C14.8754 3.42937 14.8946 3.40576 14.9167 3.38731C14.9979 3.31722 15.1403 3.32533 15.1993 3.41904C15.262 3.52308 15.2517 3.67066 15.1654 3.7592C15.1027 3.82413 15.0149 3.85881 14.927 3.87136C14.7987 3.88907 14.6614 3.86472 14.5559 3.78724C14.4718 3.72526 14.4246 3.62712 14.3914 3.5312C14.3715 3.47566 14.3575 3.41795 14.3434 3.36026C14.3183 3.25699 14.2932 3.15381 14.2349 3.06339C14.1397 2.92393 13.9966 2.81251 13.8306 2.7734C13.8925 2.82727 13.9531 2.88261 14.004 2.9468C14.1449 3.11947 14.2312 3.3364 14.2467 3.55924C14.2512 3.63229 14.2718 3.7046 14.308 3.76879C14.381 3.89792 14.5101 3.98868 14.6518 4.02926C14.707 4.04454 14.7629 4.05736 14.8187 4.07019C14.8817 4.08464 14.9446 4.0991 15.0067 4.11707C15.1661 4.16503 15.3211 4.23144 15.4576 4.32736C15.5646 4.40263 15.659 4.49855 15.7225 4.61366C15.8354 4.80772 15.89 5.02834 15.9269 5.24749C15.9381 5.30991 15.9451 5.37321 15.9522 5.43648C15.9656 5.55645 15.979 5.6763 16.0206 5.78983C16.0412 5.84517 16.0707 5.90198 16.1224 5.93297C16.1674 5.96028 16.2294 5.95068 16.2655 5.91231C16.3043 5.87564 16.3233 5.82665 16.3423 5.77774C16.3508 5.7558 16.3593 5.73388 16.3696 5.71309C16.357 5.79057 16.3356 5.87099 16.284 5.93297C16.2346 5.992 16.1408 6.00012 16.0789 5.95659C16.0088 5.90936 15.9726 5.82967 15.9431 5.75367C15.9295 5.71971 15.9203 5.68467 15.911 5.6496C15.9031 5.6199 15.8953 5.59018 15.8848 5.56109C15.8827 5.58195 15.8814 5.60282 15.88 5.62364C15.878 5.65509 15.876 5.68644 15.8715 5.71752C15.8656 5.76274 15.8593 5.80803 15.853 5.85338C15.8224 6.07293 15.7916 6.2939 15.8014 6.51589C15.8073 6.59042 15.8154 6.6679 15.8516 6.73504C15.8737 6.77784 15.921 6.80809 15.9697 6.79924C16.0428 6.78941 16.1031 6.74684 16.1621 6.70518C16.174 6.6968 16.1858 6.68847 16.1977 6.68044C16.1445 6.73873 16.0818 6.78965 16.0095 6.82064C15.9542 6.84425 15.8855 6.83982 15.8405 6.79776C15.78 6.74242 15.7557 6.65978 15.7372 6.5823C15.7062 6.43547 15.7011 6.2842 15.6996 6.13441C15.6347 6.26059 15.5609 6.3816 15.479 6.49671C15.4766 6.50019 15.4742 6.50368 15.4718 6.50718C15.4231 6.57837 15.3731 6.65138 15.3513 6.73578C15.3403 6.77489 15.3513 6.81916 15.3831 6.84646C15.4383 6.89592 15.5108 6.91957 15.58 6.94215L15.583 6.94312C15.6086 6.95078 15.6342 6.9583 15.6599 6.96583C15.78 7.00108 15.9005 7.03641 16.0154 7.08627C16.1327 7.13866 16.2501 7.20876 16.3238 7.31722C16.3932 7.41905 16.4043 7.54892 16.3866 7.66771C16.3859 7.67358 16.3849 7.67952 16.3839 7.68549C16.3804 7.70582 16.3769 7.72654 16.3866 7.74593C16.4146 7.81086 16.4353 7.87948 16.4449 7.94958C16.4744 8.15397 16.4382 8.36058 16.3873 8.55833L16.4065 8.55611C16.3991 8.5598 16.3925 8.56349 16.3851 8.56792C16.3544 8.68085 16.3187 8.79233 16.2829 8.90385C16.2379 9.04443 16.1928 9.18506 16.1578 9.32866C16.1121 9.51682 16.0929 9.71974 16.1549 9.90716C16.1667 9.91085 16.1785 9.91491 16.1903 9.91896C16.2021 9.92302 16.2139 9.92708 16.2257 9.93077C16.2235 9.93109 16.2201 9.93168 16.2166 9.93232C16.2119 9.93315 16.2069 9.93404 16.2036 9.93446C16.2084 9.93704 16.2133 9.93944 16.2183 9.94184C16.2233 9.94423 16.2283 9.94663 16.2331 9.94922C16.2208 9.95227 16.2086 9.95482 16.1968 9.95729C16.1944 9.9578 16.1919 9.9583 16.1895 9.95881C16.188 9.95856 16.1862 9.95813 16.1842 9.95768C16.1804 9.95681 16.1762 9.95586 16.1733 9.95586C16.1763 9.96285 16.1796 9.96984 16.1831 9.97707C16.1847 9.98051 16.1864 9.98401 16.1881 9.98759C16.1844 9.99275 16.1763 10.0046 16.1726 10.0105C16.1608 9.98906 16.1497 9.96692 16.1394 9.94553C16.0929 9.92339 16.0464 9.8983 16.0095 9.86215C15.935 9.79131 15.8937 9.68801 15.8973 9.58471C15.8954 9.49646 15.9279 9.41477 15.9601 9.334C15.9653 9.32089 15.9705 9.30781 15.9756 9.29472L15.9765 9.29206C16.0102 9.20069 16.0443 9.10784 16.0604 9.01064C16.0029 9.15231 15.9246 9.28439 15.8273 9.40171C15.7697 9.46591 15.7409 9.5515 15.7313 9.63636C15.7121 9.81123 15.8007 9.99127 15.949 10.0842C16.0118 10.1264 16.084 10.1448 16.1564 10.1632C16.1929 10.1725 16.2294 10.1818 16.2648 10.1942C16.3969 10.2119 16.5282 10.2466 16.6463 10.3093C16.8175 10.3964 16.9606 10.5395 17.0366 10.7159C17.0643 10.7739 17.0796 10.8358 17.0948 10.8977C17.1048 10.938 17.1147 10.9784 17.1281 11.0177C17.1438 11.0679 17.1455 11.1196 17.1472 11.1713C17.1488 11.2168 17.1503 11.2623 17.1613 11.3069C17.1569 11.3121 17.1488 11.3224 17.1451 11.3268C17.1436 11.3224 17.1407 11.3121 17.1392 11.3069C17.1228 11.3877 17.1007 11.467 17.0786 11.5463C17.0519 11.6422 17.0251 11.7381 17.0086 11.8367C16.9916 11.937 16.9872 12.0426 17.0167 12.1407C17.0433 12.2174 17.0986 12.2794 17.1576 12.3333C17.2307 12.3982 17.317 12.4506 17.4122 12.4764C17.483 12.4949 17.5642 12.4927 17.6262 12.4491C17.6926 12.4093 17.731 12.3355 17.7406 12.261C17.7494 12.2698 17.7583 12.2787 17.7679 12.2875C17.7575 12.3783 17.7014 12.4624 17.6195 12.5045C17.5406 12.5502 17.4432 12.5465 17.3576 12.5222C17.2344 12.4868 17.1215 12.4167 17.0315 12.3266C16.9776 12.272 16.9318 12.2071 16.9119 12.1326C16.8699 11.9961 16.8795 11.8507 16.8979 11.7113C16.8853 11.734 16.8704 11.7555 16.8555 11.777C16.8293 11.8148 16.8031 11.8525 16.7894 11.8972C16.7607 11.9857 16.7555 12.0809 16.7621 12.1732C16.7769 12.3702 16.8809 12.5583 17.0418 12.6749C17.1857 12.7716 17.3296 12.8697 17.4646 12.9782ZM3.17273 12.6616C3.25316 12.6078 3.324 12.5399 3.37712 12.4587C3.49002 12.2897 3.51732 12.0713 3.46715 11.8758C3.45478 11.825 3.42593 11.7827 3.397 11.7402C3.37932 11.7143 3.36161 11.6883 3.34761 11.6603C3.33764 11.6447 3.33042 11.6275 3.32321 11.6103C3.31548 11.5918 3.30777 11.5735 3.2967 11.557C3.28188 11.5649 3.2689 11.5752 3.25597 11.5855C3.24571 11.5937 3.23548 11.6018 3.22438 11.6087C3.20982 11.619 3.19467 11.6287 3.17948 11.6384C3.14695 11.6591 3.1143 11.6799 3.08714 11.7076C3.05615 11.7408 3.04803 11.7902 3.05763 11.8345C3.07244 11.9293 3.10138 12.0212 3.13032 12.1131C3.16913 12.2363 3.20793 12.3595 3.21258 12.4897C3.21606 12.5461 3.1959 12.5999 3.17626 12.6522C3.17508 12.6554 3.1739 12.6585 3.17273 12.6616ZM4.11779 10.117C4.16938 10.1041 4.22093 10.0913 4.26774 10.0651C4.31717 10.037 4.36587 10.0038 4.39982 9.95733C4.31939 9.99496 4.23158 10.0119 4.14525 10.0274C4.1048 10.0352 4.06398 10.0426 4.02302 10.0499C3.80016 10.0899 3.57295 10.1307 3.37786 10.251C3.3026 10.2982 3.21774 10.3661 3.22143 10.4643C3.22758 10.5469 3.26754 10.6198 3.30708 10.692C3.31978 10.7152 3.33244 10.7383 3.34392 10.7616C3.35317 10.7454 3.36138 10.7288 3.36955 10.7123C3.37963 10.6919 3.38965 10.6716 3.40147 10.6524C3.53798 10.4119 3.76598 10.2259 4.0294 10.1418C4.05828 10.1318 4.08804 10.1244 4.11779 10.117ZM12.1183 16.7262C12.1062 16.7394 12.094 16.7525 12.0818 16.7657C12.1401 16.7258 12.1888 16.6712 12.2257 16.6115C12.1894 16.6494 12.1539 16.6878 12.1183 16.7262ZM12.3674 8.71476C12.281 8.90291 12.2508 9.11542 12.2796 9.31981C12.2937 9.42211 12.3232 9.52105 12.3528 9.61987C12.3894 9.74272 12.4261 9.86542 12.433 9.99423C12.4389 10.1042 12.4109 10.2126 12.3733 10.3152C12.4389 10.3196 12.509 10.31 12.5614 10.268C12.6396 10.206 12.6824 10.0909 12.6411 9.9957C12.6321 9.96928 12.6133 9.94929 12.5947 9.9295C12.5873 9.92166 12.5799 9.91385 12.5732 9.90568C12.6551 9.94331 12.6979 10.0311 12.7024 10.1182C12.7149 10.0444 12.695 9.97061 12.6684 9.90125C12.6496 9.84945 12.6267 9.79925 12.6037 9.74907C12.58 9.69705 12.5562 9.64506 12.5371 9.59135C12.498 9.47403 12.4788 9.34933 12.4906 9.2261C12.4919 9.21037 12.4947 9.19473 12.4975 9.17909C12.5026 9.15071 12.5077 9.1223 12.5039 9.09328C12.4891 8.90144 12.5378 8.70959 12.6219 8.5384C12.6383 8.50343 12.6579 8.47005 12.6774 8.43667C12.6905 8.41441 12.7035 8.39216 12.7156 8.36943C12.5703 8.44838 12.4389 8.56275 12.3674 8.71476ZM12.6928 15.954C12.7481 15.909 12.7909 15.8441 12.8005 15.7725C12.8129 15.6767 12.7893 15.5822 12.7663 15.4902C12.7646 15.4837 12.763 15.4772 12.7614 15.4707C12.6205 15.5032 12.4899 15.5991 12.4352 15.7356C12.3953 15.8391 12.4107 15.9509 12.4255 16.0584C12.4266 16.0659 12.4276 16.0735 12.4286 16.0809L12.4358 16.0785C12.5258 16.0475 12.618 16.0158 12.6928 15.954ZM13.0137 10.8319C13.0156 10.8181 13.0176 10.8042 13.0196 10.7904C13.0205 10.7838 13.0218 10.7771 13.0232 10.7704C13.0278 10.7477 13.0324 10.7245 13.0182 10.7041C12.9856 10.647 12.9631 10.5858 12.9404 10.5244C12.9276 10.4896 12.9148 10.4548 12.9001 10.4207C12.8994 10.4067 12.8986 10.3934 12.8972 10.3794C12.8797 10.3916 12.8694 10.4106 12.8593 10.4293C12.8553 10.4367 12.8514 10.4441 12.847 10.451C12.7592 10.6067 12.6559 10.7542 12.5356 10.8863C12.5563 10.9313 12.5939 10.9675 12.6293 11.0014C12.6346 11.0058 12.6398 11.0103 12.645 11.0148C12.6767 11.0418 12.7088 11.0692 12.7474 11.0863C12.7773 11.0705 12.8058 11.0528 12.8343 11.0352C12.8565 11.0214 12.8787 11.0077 12.9016 10.9948C12.9065 10.9919 12.9114 10.9891 12.9164 10.9862C12.9433 10.9706 12.9706 10.9548 12.9968 10.938C13.0037 10.9029 13.0087 10.8675 13.0137 10.8319ZM13.5443 7.62196C13.6077 7.55998 13.6505 7.48103 13.6808 7.39913C13.7066 7.32829 13.7162 7.24639 13.6815 7.17777C13.6454 7.10324 13.5731 7.05675 13.5015 7.02134C13.4235 6.9841 13.3413 6.95727 13.2592 6.93045C13.1867 6.9068 13.1143 6.88315 13.0447 6.85236C12.9038 6.78891 12.7791 6.68339 12.706 6.54615C12.6485 6.43694 12.6227 6.31224 12.6227 6.18975C12.6255 6.15156 12.6342 6.11445 12.643 6.07736C12.6505 6.04566 12.658 6.01398 12.6618 5.98167C12.6743 5.89165 12.681 5.78835 12.6249 5.71088C12.63 5.81418 12.6227 5.91896 12.5858 6.01635C12.5737 6.05539 12.5569 6.09286 12.54 6.13028C12.5136 6.18908 12.4872 6.24777 12.4795 6.31224C12.4707 6.37053 12.4839 6.43251 12.5157 6.48195C12.5452 6.52939 12.5828 6.57086 12.6203 6.61226C12.6662 6.66296 12.7121 6.71356 12.7429 6.77489C12.7747 6.83466 12.7872 6.90844 12.7621 6.97264C12.7452 7.01248 12.7238 7.05233 12.6883 7.07815C12.692 7.07125 12.6959 7.06427 12.6997 7.05722C12.7323 6.99794 12.7677 6.93341 12.7459 6.86417C12.7179 6.77158 12.6501 6.70669 12.5822 6.64169C12.5213 6.5834 12.4603 6.52503 12.4279 6.44653C12.3902 6.35061 12.4057 6.24214 12.4404 6.1477L12.4412 6.14568C12.4815 6.03561 12.5237 5.92044 12.5157 5.8009C12.509 5.71899 12.4869 5.63487 12.4375 5.56847C12.3991 5.53083 12.36 5.49468 12.3179 5.46221C12.3298 5.4862 12.3445 5.50869 12.3592 5.53117C12.3802 5.56332 12.4013 5.59545 12.4139 5.63192C12.4434 5.70128 12.4448 5.78319 12.4116 5.85181C12.386 5.90684 12.3456 5.95098 12.3052 5.9951C12.2675 6.03618 12.2299 6.07723 12.2043 6.12704C12.1862 6.16026 12.1838 6.19763 12.1814 6.23478C12.1808 6.24466 12.1801 6.25452 12.1792 6.26428C12.1659 6.20599 12.1704 6.14327 12.1991 6.09088C12.2195 6.04944 12.2479 6.01266 12.2761 5.97599C12.3152 5.92517 12.3542 5.87454 12.3718 5.81196C12.391 5.74703 12.3674 5.67841 12.3305 5.62381C12.2883 5.5611 12.2352 5.50627 12.1822 5.45148C12.1055 5.37217 12.0288 5.29293 11.9851 5.18994C11.9099 4.9944 11.9674 4.77156 12.0833 4.6048C12.1058 4.57741 12.1128 4.5439 12.1197 4.51064C12.1221 4.49912 12.1245 4.48762 12.1276 4.47641C12.1497 4.39672 12.1881 4.3222 12.2331 4.25284C12.2766 4.182 12.3165 4.10526 12.3253 4.02188C12.3371 3.87431 12.2751 3.71936 12.1549 3.63081C12.0991 3.58826 12.0334 3.56623 11.9677 3.54418C11.9126 3.52571 11.8575 3.50721 11.8081 3.4766C11.7048 3.41904 11.6265 3.32681 11.5682 3.22498C11.5277 3.14824 11.4568 3.09069 11.3779 3.05748C11.3625 3.07352 11.3459 3.08807 11.3292 3.10261C11.3106 3.11886 11.2921 3.13511 11.2753 3.15341C11.2679 3.2058 11.265 3.2604 11.2768 3.31205C11.2915 3.36075 11.3439 3.38067 11.3875 3.39395C11.4108 3.40047 11.4343 3.40671 11.4578 3.41295C11.5674 3.44208 11.6778 3.47139 11.7756 3.52972C11.8398 3.56957 11.8988 3.62565 11.9239 3.6987C11.9483 3.76658 11.9438 3.84184 11.9254 3.91047C11.9213 3.91265 11.9175 3.91483 11.9139 3.91695C11.9088 3.91986 11.9039 3.92267 11.8988 3.92522C11.9003 3.86619 11.9018 3.80716 11.8973 3.74813C11.8948 3.74629 11.8905 3.74352 11.8863 3.74076C11.882 3.73799 11.8778 3.73522 11.8752 3.73338C11.8383 3.6559 11.7638 3.60646 11.6848 3.57916C11.609 3.55124 11.5296 3.53814 11.4502 3.52507C11.4122 3.5188 11.3741 3.51253 11.3366 3.50464C11.2657 3.48914 11.1956 3.45151 11.1595 3.38658C11.1364 3.34821 11.1293 3.30325 11.1223 3.2598C11.1219 3.25729 11.1215 3.25478 11.1211 3.25228C10.8909 3.37182 10.6326 3.43159 10.3736 3.44339C10.3672 3.44448 10.3607 3.44557 10.3543 3.44666C10.2686 3.46111 10.1833 3.47548 10.0962 3.48029C10.0941 3.48029 10.0909 3.48046 10.0876 3.48063C10.0841 3.48082 10.0804 3.48102 10.0777 3.48102C9.84679 3.49283 9.61215 3.46922 9.39079 3.39912C9.17459 3.33197 8.96725 3.2176 8.82336 3.03978C8.81855 3.0434 8.81371 3.04701 8.80886 3.05063C8.76831 3.08085 8.72724 3.11147 8.70088 3.15562C8.69588 3.16366 8.69092 3.17173 8.68596 3.17979C8.65359 3.23241 8.62126 3.28497 8.57839 3.32976C8.50829 3.40576 8.41753 3.45963 8.32013 3.49283C8.26406 3.61679 8.26258 3.76363 8.31866 3.88759C8.35639 3.97165 8.40869 4.04719 8.46099 4.12275C8.51199 4.19643 8.563 4.27011 8.60053 4.35171C8.66177 4.47568 8.678 4.62325 8.63447 4.75607C8.60053 4.86896 8.526 4.96415 8.44336 5.04531C8.42656 5.06244 8.40909 5.0792 8.39157 5.096C8.33135 5.15374 8.27055 5.21205 8.23454 5.28807C8.19617 5.37145 8.2006 5.47328 8.2493 5.55149C8.30095 5.63561 8.38433 5.6939 8.47066 5.73818C8.44863 5.74569 8.4266 5.74029 8.40457 5.73489C8.39413 5.73233 8.3837 5.72977 8.37326 5.72858C8.27512 5.67546 8.18879 5.5906 8.1578 5.4814C8.13567 5.39433 8.14378 5.2984 8.18732 5.21945C8.22607 5.14634 8.28184 5.0859 8.33759 5.02549C8.39437 4.96397 8.45112 4.90247 8.48984 4.82764C8.54666 4.72213 8.55994 4.59226 8.51493 4.47937C8.4764 4.37938 8.4103 4.2952 8.34439 4.21126C8.31691 4.17626 8.28946 4.14131 8.26406 4.10526C8.19765 4.01451 8.13862 3.91489 8.11574 3.80421C8.09848 3.73721 8.09996 3.66892 8.10143 3.60116C8.10153 3.59653 8.10163 3.5919 8.10172 3.58728C7.9903 3.66697 7.92611 3.80274 7.9239 3.93924C7.92021 4.03738 7.96669 4.12814 8.01539 4.21004C8.0545 4.26981 8.08844 4.33327 8.11132 4.40041C8.15116 4.51478 8.15928 4.63727 8.1578 4.75681C8.16002 4.93168 8.12681 5.11098 8.039 5.26446C7.95784 5.41056 7.83166 5.52641 7.68851 5.61126C7.64793 5.63487 7.6162 5.67251 7.59997 5.71678C7.56898 5.80163 7.58005 5.89461 7.59554 5.98167C7.59922 6.0042 7.60447 6.02652 7.60972 6.04879C7.62131 6.09802 7.63286 6.14707 7.62727 6.19787C7.61768 6.3757 7.54832 6.55426 7.41403 6.67527C7.28933 6.79702 7.11962 6.85163 6.95654 6.90254C6.94718 6.90578 6.93776 6.90901 6.92831 6.91226C6.82388 6.94806 6.71572 6.98515 6.63114 7.05823C6.57211 7.10767 6.53891 7.18514 6.54776 7.26188C6.55736 7.35043 6.59646 7.43233 6.64295 7.50612C6.71376 7.61301 6.82631 7.67937 6.93514 7.74354C6.94651 7.75025 6.95785 7.75693 6.96909 7.76364C7.0473 7.81012 7.12478 7.85882 7.19193 7.9208C7.22118 7.95522 7.2522 7.98803 7.28319 8.02081C7.31864 8.0583 7.35405 8.09576 7.38672 8.13552C7.56677 8.35025 7.71582 8.60481 7.74385 8.88815C7.77558 9.17519 7.66933 9.46001 7.507 9.69244C7.46494 9.74851 7.4524 9.82009 7.4428 9.88797C7.44677 9.88552 7.45075 9.88302 7.45474 9.88052C7.49156 9.85741 7.52962 9.83351 7.57488 9.83485C7.56234 9.84296 7.54906 9.84979 7.53577 9.85661C7.52249 9.86344 7.50921 9.87026 7.49667 9.87838C7.43764 9.92191 7.40886 10.0031 7.43174 10.0732C7.45609 10.1617 7.5343 10.223 7.61547 10.2569C7.72246 10.3012 7.83609 10.3292 7.9512 10.3388C8.07368 10.3528 8.19691 10.358 8.31866 10.3366L8.28103 10.33C8.26634 10.3256 8.25238 10.3211 8.23843 10.3167L8.29947 10.3078C8.28103 10.3049 8.26258 10.3019 8.24487 10.2997C8.49206 10.2776 8.73187 10.2016 8.95692 10.099C9.11482 10.0038 9.25502 9.88207 9.393 9.75958C9.40516 9.74879 9.41742 9.73806 9.42969 9.72732C9.49045 9.67415 9.55161 9.62063 9.60256 9.55741C9.65218 9.60002 9.69718 9.64679 9.74231 9.6937C9.75423 9.70609 9.76615 9.71848 9.77817 9.73081C9.8592 9.81273 9.94077 9.89438 10.0224 9.97609C10.0768 10.0305 10.1312 10.085 10.1855 10.1396C10.264 10.0625 10.3415 9.98444 10.4189 9.90635C10.535 9.78926 10.6511 9.67221 10.7706 9.55888C10.8901 9.67694 11.0185 9.78613 11.1469 9.89533C11.31 10.0296 11.4893 10.1477 11.6863 10.2267C11.8029 10.2687 11.9269 10.3041 12.0523 10.2901C12.0969 10.2861 12.1367 10.2653 12.1755 10.245C12.1797 10.2428 12.1839 10.2406 12.1881 10.2385C12.1504 10.2864 12.0892 10.3071 12.0302 10.3174C12.1231 10.3396 12.2205 10.3396 12.315 10.3322C12.3541 10.2141 12.3733 10.0857 12.346 9.9625C12.3223 9.8572 12.2814 9.75765 12.2405 9.65809C12.2126 9.59021 12.1847 9.52233 12.1622 9.45263C12.0825 9.21798 12.0752 8.95899 12.1379 8.71918C12.1763 8.56128 12.2596 8.41592 12.3718 8.29933C12.5201 8.14585 12.7083 8.03886 12.9016 7.95106C12.951 7.93113 12.9997 7.91047 13.0484 7.88908C13.0772 7.8779 13.1067 7.86791 13.1361 7.8579C13.2078 7.83357 13.2798 7.80916 13.3436 7.76733C13.4144 7.72453 13.4845 7.67952 13.5443 7.62196ZM12.1596 5.26586C12.1871 5.30782 12.215 5.35028 12.2537 5.38178C12.2458 5.35992 12.2338 5.3402 12.2217 5.32043C12.2114 5.3035 12.2011 5.28653 12.1932 5.26815C12.1401 5.16633 12.115 5.05343 12.098 4.94054C12.073 5.04015 12.0825 5.15231 12.1416 5.23864C12.1476 5.24761 12.1536 5.25672 12.1596 5.26586ZM15.3683 7.0907C15.3808 7.08184 15.389 7.08406 15.3926 7.09734C15.3794 7.10545 15.372 7.10398 15.3683 7.0907ZM16.1143 9.88207C16.0678 9.71531 16.0656 9.53822 16.0973 9.36851C16.1253 9.20649 16.1693 9.04819 16.2133 8.88986C16.24 8.79365 16.2667 8.69744 16.2899 8.60038C16.2501 8.58784 16.2213 8.55537 16.2102 8.51553C16.1787 8.40862 16.1894 8.29444 16.1996 8.18454L16.1999 8.18201C16.2073 8.10333 16.2239 8.02593 16.2405 7.94846C16.2521 7.89442 16.2637 7.84035 16.2722 7.78577C16.2493 7.73412 16.2139 7.68985 16.1777 7.64779C16.0582 7.51719 15.8944 7.43897 15.7321 7.37625C15.7475 7.39753 15.7665 7.41735 15.7849 7.43643C15.9133 7.57958 16.0154 7.74814 16.0803 7.92892C16.1438 8.09863 16.1696 8.27941 16.1726 8.45945C16.1991 8.55906 16.2161 8.66237 16.2095 8.76567C16.1999 8.99736 16.1106 9.21577 16.011 9.42164C15.9733 9.49985 15.952 9.58987 15.9689 9.67694C15.9859 9.7618 16.0405 9.83706 16.1143 9.88207ZM16.2936 8.58415C16.3268 8.43584 16.3556 8.28457 16.3526 8.13184C16.3504 8.06348 16.3481 7.99137 16.3238 7.92744C16.2692 8.09568 16.2205 8.27056 16.225 8.44912C16.2279 8.50003 16.236 8.56792 16.2936 8.58415ZM15.7535 7.17998C15.6583 7.15932 15.5638 7.14013 15.4686 7.12243C15.5882 7.15637 15.7048 7.1999 15.8184 7.25008C15.9925 7.32903 16.1652 7.4279 16.2855 7.58064C16.2855 7.47734 16.2301 7.37847 16.1431 7.32313C16.0265 7.24491 15.8885 7.21097 15.7535 7.17998ZM16.5098 10.3211C16.5887 10.3809 16.6662 10.4443 16.7289 10.5218C16.7465 10.5455 16.7711 10.5617 16.7956 10.578C16.804 10.5835 16.8124 10.589 16.8204 10.5949C16.8964 10.6502 16.9651 10.7166 17.0219 10.7911C16.94 10.5639 16.7385 10.3919 16.5098 10.3211ZM12.6419 11.152C12.5666 11.1055 12.498 11.0487 12.4397 10.9815C12.2965 11.0981 12.1113 11.1512 11.9291 11.1549C11.7136 11.1594 11.4952 11.1232 11.2989 11.0332C11.1477 10.9653 11.0112 10.8679 10.8835 10.7639C10.716 10.6281 10.5485 10.4916 10.3891 10.347L10.3796 10.3381C10.3186 10.2814 10.2579 10.2249 10.2039 10.1618C10.201 10.1589 10.1969 10.1535 10.1933 10.1488C10.1914 10.1464 10.1897 10.1441 10.1884 10.1426C10.0826 10.2687 9.95834 10.3769 9.83442 10.4849L9.82761 10.4909C9.71914 10.586 9.60772 10.6775 9.49483 10.7676C9.4358 10.8163 9.37677 10.8635 9.31331 10.9055C9.1495 11.0192 8.96503 11.1055 8.76802 11.1409C8.59684 11.1719 8.41827 11.1815 8.24708 11.1453C8.13271 11.1203 8.02277 11.0716 7.93275 10.9963C7.90253 10.9741 7.87696 10.9462 7.85171 10.9187C7.84675 10.9133 7.8418 10.9079 7.83683 10.9026C7.7077 10.769 7.60587 10.6126 7.5129 10.4525C7.49614 10.4239 7.48029 10.3948 7.46445 10.3658C7.43985 10.3207 7.4153 10.2757 7.38746 10.2326C7.38616 10.2363 7.38486 10.24 7.38354 10.2437C7.36994 10.2822 7.35608 10.3214 7.35205 10.3625C7.35609 10.411 7.36937 10.4589 7.38233 10.5057C7.38355 10.5101 7.38478 10.5145 7.38599 10.5189C7.41845 10.6908 7.46642 10.8591 7.52323 11.0243C7.5675 11.1417 7.61473 11.2634 7.7018 11.3571C7.78591 11.4442 7.89291 11.5069 8.00211 11.5571C8.18732 11.6405 8.38433 11.6921 8.58282 11.729C8.85509 11.7784 9.13253 11.8028 9.4085 11.7873C9.42214 11.7858 9.43592 11.7847 9.44976 11.7835C9.50552 11.7787 9.56204 11.7739 9.61289 11.7497C9.66528 11.7246 9.6852 11.6641 9.68372 11.6095C9.68229 11.551 9.67108 11.4935 9.65985 11.436C9.648 11.3753 9.63614 11.3145 9.63576 11.2523C9.63502 11.1948 9.64904 11.1328 9.69184 11.0915C9.7398 11.0443 9.80769 11.0273 9.87262 11.0199C9.96244 11.0082 10.0528 11.0171 10.1423 11.026C10.1542 11.0272 10.1662 11.0284 10.1781 11.0295L10.2194 11.0339C10.35 11.0487 10.4806 11.0649 10.6083 11.0952C10.702 11.1173 10.7972 11.1431 10.8769 11.1992C10.9256 11.2317 10.9632 11.2841 10.9661 11.3438C10.9713 11.4294 10.9285 11.5084 10.885 11.5792C10.866 11.6113 10.8434 11.6409 10.8208 11.6705C10.8065 11.6893 10.7922 11.7081 10.7787 11.7275C10.7625 11.7497 10.7573 11.7873 10.7846 11.8028C10.8351 11.8332 10.8964 11.8318 10.954 11.8305C10.9621 11.8304 10.9701 11.8302 10.978 11.8301C11.1897 11.8168 11.3978 11.7666 11.6007 11.7083C11.7771 11.6552 11.9512 11.5925 12.1158 11.5099C12.1903 11.4715 12.2641 11.4287 12.3283 11.3741C12.4011 11.3128 12.4804 11.26 12.5596 11.2072C12.5872 11.1889 12.6147 11.1706 12.6419 11.152Z" fill="#6D3322"/>
<path d="M12.3172 7.17043C12.2227 6.84946 11.9615 6.58382 11.642 6.48347C11.4052 6.40821 11.1403 6.42001 10.9123 6.52037C10.6098 6.64949 10.3795 6.93136 10.3131 7.25381C10.1434 7.25012 9.97297 7.25381 9.80252 7.25234L9.79957 7.24127C9.7553 7.01769 9.63207 6.81109 9.45867 6.66277C9.27642 6.50635 9.03808 6.41633 8.79754 6.41485C8.82558 6.41337 8.85362 6.41116 8.88166 6.40747C8.81672 6.3964 8.75031 6.3964 8.68538 6.40747C8.71342 6.41042 8.74146 6.41337 8.77024 6.41559C8.46107 6.41706 8.15854 6.56833 7.97038 6.81256C7.74902 7.08927 7.68999 7.48403 7.81691 7.81459C7.91283 8.07359 8.11722 8.28905 8.37031 8.39825C8.61602 8.50746 8.90453 8.5141 9.15541 8.41744C9.35832 8.3407 9.53541 8.19681 9.65347 8.0153C9.74497 7.87731 9.79883 7.7172 9.81654 7.55339V7.55191C9.97518 7.54453 10.1346 7.5497 10.2932 7.5497C10.308 7.72753 10.367 7.90166 10.4681 8.04924C10.5647 8.19312 10.6983 8.31118 10.8518 8.39014C11.068 8.50229 11.3248 8.53402 11.5616 8.47794C11.873 8.40784 12.1438 8.18279 12.2722 7.8906C12.3725 7.66628 12.388 7.40581 12.3172 7.17043ZM9.62396 7.62275C9.57747 7.84042 9.44244 8.03743 9.25723 8.16066C9.05948 8.29421 8.80639 8.3407 8.57396 8.28536C8.31571 8.2278 8.08992 8.04481 7.97924 7.80426C7.90766 7.64857 7.88258 7.47222 7.9084 7.30325C7.93275 7.14092 8.00432 6.9867 8.11205 6.86274C8.25963 6.69155 8.47583 6.58161 8.70161 6.56538C8.98422 6.54029 9.2742 6.66499 9.45056 6.88709C9.61658 7.08853 9.68003 7.36744 9.62396 7.62275ZM12.149 7.77991C12.087 7.94889 11.9697 8.09572 11.8213 8.19681C11.6391 8.32151 11.4096 8.37169 11.1919 8.33627C10.9994 8.30676 10.8186 8.20862 10.6872 8.064C10.5433 7.90904 10.46 7.69949 10.4585 7.48772C10.4541 7.25898 10.5441 7.0295 10.7049 6.86717C10.8326 6.73361 11.0038 6.64359 11.186 6.61408C11.3794 6.58235 11.5837 6.61481 11.7549 6.71147C11.9158 6.80076 12.0471 6.94169 12.1239 7.10919C12.2205 7.31727 12.2294 7.56446 12.149 7.77991Z" fill="black"/>
</svg>
