<svg viewBox="0 0 20 20" fill="none" xmlns="http://www.w3.org/2000/svg">
<path d="M0 0H20V20H0V0Z" fill="#E54537"/>
<path d="M6.47003 6.43911C6.53633 6.43911 6.60369 6.42502 6.66772 6.39526L13.6895 3.1303C13.9247 3.02092 14.0267 2.74162 13.9174 2.50645C13.8081 2.27129 13.5287 2.16928 13.2936 2.27863L6.27181 5.54359C6.03658 5.65293 5.93457 5.93223 6.04395 6.16743C6.1235 6.3385 6.29305 6.43911 6.47006 6.43911H6.47003ZM13.2936 4.27454L6.27181 7.53944C6.03658 7.64878 5.93457 7.92805 6.04395 8.16322C6.12346 8.33436 6.29298 8.43496 6.47006 8.43496C6.53636 8.43496 6.60369 8.42087 6.66775 8.39105L13.6896 5.12618C13.9248 5.01681 14.0268 4.73751 13.9174 4.50234C13.8081 4.26717 13.5287 4.16517 13.2936 4.27451V4.27454ZM13.2936 6.28719L6.27181 9.55209C6.03658 9.66143 5.93457 9.9407 6.04395 10.1759C6.12346 10.347 6.29298 10.4476 6.47006 10.4476C6.53636 10.4476 6.60369 10.4335 6.66775 10.4037L13.6896 7.13883C13.9248 7.02945 14.0268 6.75016 13.9174 6.51499C13.8081 6.27982 13.5287 6.17781 13.2936 6.28716V6.28719ZM6.47003 4.44885C6.53649 4.44885 6.604 4.43467 6.66822 4.40475L9.90519 2.89531C10.1403 2.78572 10.2419 2.5063 10.1323 2.27122C10.0227 2.03615 9.74329 1.93455 9.50822 2.04408L6.27125 3.55352C6.0362 3.66314 5.93451 3.94256 6.0441 4.17761C6.12381 4.34849 6.2932 4.44885 6.47003 4.44885V4.44885ZM13.2918 8.28382L10.8095 9.45071C10.7289 9.48864 10.6607 9.54874 10.6129 9.624C10.5651 9.69926 10.5397 9.78656 10.5397 9.8757V12.2197H9.45513V10.4699C9.45513 10.2105 9.24491 10.0003 8.98554 10.0003C8.72615 10.0003 8.51592 10.2105 8.51592 10.4699V12.2197H7.84288C7.64304 12.2197 7.49187 12.4005 7.52729 12.5973L7.68571 13.4766C7.69903 13.5506 7.73794 13.6175 7.79563 13.6657C7.85331 13.714 7.92611 13.7404 8.0013 13.7404H9.64897L7.90371 14.0573C7.84244 14.0684 7.7881 14.1034 7.75264 14.1546C7.71718 14.2058 7.70351 14.269 7.71463 14.3302C7.72446 14.3843 7.75293 14.4332 7.79509 14.4684C7.83725 14.5037 7.89043 14.5231 7.94538 14.5232C7.95935 14.5232 7.97347 14.5219 7.98765 14.5193L11.9905 13.7925C12.0504 13.7816 12.1036 13.7478 12.1389 13.6983C12.2218 13.6513 12.2826 13.5685 12.298 13.4687L12.4338 12.5893C12.4638 12.395 12.3134 12.2197 12.1169 12.2197H11.4789V10.1739L13.6914 9.13381C13.9261 9.02347 14.0269 8.74374 13.9165 8.50904C13.8062 8.27443 13.5266 8.17348 13.2918 8.28382H13.2918ZM11.9066 14.5269L7.90374 15.2537C7.84247 15.2648 7.78813 15.2998 7.75267 15.351C7.7172 15.4021 7.70352 15.4653 7.71463 15.5266C7.72445 15.5807 7.75291 15.6296 7.79508 15.6648C7.83724 15.7001 7.89043 15.7194 7.94538 15.7195C7.95928 15.7195 7.97343 15.7183 7.98758 15.7157L11.9905 14.9889C12.0208 14.9834 12.0498 14.972 12.0757 14.9553C12.1016 14.9386 12.124 14.9169 12.1416 14.8916C12.1591 14.8663 12.1715 14.8377 12.178 14.8076C12.1846 14.7774 12.1851 14.7463 12.1796 14.716C12.1564 14.5884 12.0343 14.5033 11.9066 14.5269V14.5269ZM11.9066 15.768L7.90374 16.4947C7.8734 16.5002 7.84444 16.5117 7.81852 16.5283C7.7926 16.545 7.77021 16.5667 7.75265 16.592C7.73509 16.6174 7.7227 16.6459 7.71617 16.6761C7.70965 16.7062 7.70912 16.7373 7.71463 16.7677C7.72445 16.8217 7.75291 16.8707 7.79508 16.9059C7.83724 16.9412 7.89043 16.9605 7.94538 16.9606C7.95928 16.9606 7.97343 16.9594 7.98758 16.9568L11.9905 16.23C12.0208 16.2245 12.0498 16.2131 12.0757 16.1964C12.1016 16.1797 12.124 16.158 12.1416 16.1327C12.1591 16.1073 12.1715 16.0788 12.178 16.0487C12.1846 16.0185 12.1851 15.9874 12.1796 15.9571C12.1564 15.8295 12.0343 15.7444 11.9066 15.768V15.768ZM11.4279 17.0199L8.4425 17.5343C8.38168 17.5454 8.32772 17.5801 8.29232 17.6308C8.25693 17.6815 8.24297 17.7441 8.25346 17.8051C8.26396 17.866 8.29807 17.9203 8.34838 17.9563C8.3987 17.9922 8.46116 18.0068 8.5222 17.997L11.5076 17.4827C11.569 17.4721 11.6237 17.4376 11.6596 17.3867C11.6955 17.3358 11.7098 17.2728 11.6992 17.2114C11.6772 17.0837 11.5559 16.9983 11.4279 17.0199V17.0199Z" fill="white"/>
</svg>