<svg viewBox="0 0 20 20" fill="none" xmlns="http://www.w3.org/2000/svg">
<path d="M0 0H20V20H0V0Z" fill="#C0765A"/>
<path d="M18.605 4.00031C18.3269 4.00925 18.4148 4.0894 17.8137 4.2373C17.2067 4.38667 16.4653 4.34082 15.8116 4.615C13.8604 5.43336 13.4689 8.23022 11.695 9.23211C10.3691 9.98103 9.03134 10.0408 7.82866 10.4177C7.03826 10.6655 6.17363 11.1738 5.45753 11.7909C4.90172 12.27 4.88721 12.6914 4.3064 13.2924C3.68524 13.9352 1.83745 13.3033 1 14.2871C1.26974 14.5599 1.38805 14.6363 1.91963 14.5655C1.80963 14.7741 1.16078 14.9499 1.28776 15.2569C1.42143 15.5798 2.98998 15.7986 4.41592 14.9378C5.07997 14.5369 5.60895 13.959 6.6431 13.8211C7.98142 13.6427 9.52321 13.9354 11.0725 14.1589C10.8428 14.8439 10.3816 15.2994 10.0121 15.8449C9.89767 15.9682 10.2419 15.982 10.6346 15.9075C11.341 15.7329 11.85 15.5922 12.3832 15.2819C13.0381 14.9006 13.1374 13.9231 13.941 13.7115C14.3887 14.3998 15.6065 14.5623 16.3622 14.0118C15.6991 13.8242 15.5158 12.4128 15.7396 11.7909C15.9516 11.2022 16.1612 10.2606 16.3747 9.48234C16.6039 8.64665 16.6884 7.59328 16.9659 7.16755C17.3833 6.52709 17.8444 6.30714 18.2448 5.94599C18.6453 5.58477 19.0118 5.23327 18.9997 4.40681C18.9958 4.1406 18.8582 3.99228 18.605 4.00031V4.00031Z" fill="#002B64"/>
<path d="M1.57596 15.198C2.59137 15.3435 3.20888 15.198 4.02428 14.8444C4.71813 14.5435 5.38817 13.9232 6.20751 13.6602C7.41076 13.2741 8.73028 13.6607 10.0166 13.7378C10.3298 13.7566 10.641 13.7568 10.9482 13.7234C11.4273 13.4288 11.4175 12.3273 11.8839 12.2264C11.8701 13.7719 11.2365 14.6979 10.5738 15.5946C11.9704 15.348 12.8062 14.5402 13.3706 13.4613C13.5419 13.1342 13.6881 12.7823 13.8174 12.4134C14.0174 12.5668 13.9041 13.0337 14.0046 13.2867C14.9665 12.7508 15.5173 11.5279 15.8821 10.291C16.3041 8.85961 16.4769 7.41016 16.7491 6.98661C17.0147 6.5732 17.4281 6.3184 17.8055 6.05374C18.2344 5.7528 18.6168 5.43919 18.6829 4.86584C18.2307 4.82401 18.1261 4.71936 18.0592 4.49146C17.8327 4.61907 17.6246 4.64639 17.3893 4.65344C17.1852 4.65963 16.961 4.65055 16.6871 4.67865C14.4222 4.91127 14.1343 7.40769 12.6826 8.82285C12.5756 8.92654 12.4618 9.0231 12.3421 9.11188C11.8336 9.49078 11.2099 9.7615 10.6364 9.98074C9.70794 10.3355 8.82528 10.3607 7.95424 10.6669C7.31477 10.8916 6.66501 11.2176 6.13983 11.5771C6.013 11.6634 5.88993 11.7551 5.77094 11.852C5.46275 12.1041 5.26041 12.3839 5.06477 12.6718C4.86292 12.9683 4.66805 13.2734 4.37099 13.5649C3.88969 14.0375 2.09127 13.7027 1.45813 14.141C1.38757 14.1897 1.33151 14.2483 1.29333 14.3185C1.63885 14.4755 1.86957 14.3792 2.26699 14.4231C2.3191 14.8003 1.44708 15.0244 1.57596 15.198V15.198ZM15.298 12.4813C15.3251 12.914 15.5762 13.7722 15.7979 13.9809C15.3636 14.0866 14.6156 13.912 14.4237 13.6058C14.5223 13.1635 15.0355 12.7592 15.298 12.4813Z" fill="white"/>
<path d="M15.9342 5.61533C16.2548 5.89365 16.9276 5.67026 16.8074 5.11642C16.3092 5.07515 16.0205 5.24425 15.9342 5.61533ZM18.1695 4.96803C18.0843 5.14692 17.9209 5.37757 17.9209 5.83288C17.9202 5.91105 17.8616 5.96465 17.8606 5.84414C17.865 5.39905 17.9828 5.20671 18.1079 4.95388C18.1661 4.85028 18.2011 4.89303 18.1695 4.96803V4.96803Z" fill="#002B64"/>
<path d="M18.0835 4.90062C17.9829 5.07127 17.7407 5.38262 17.7006 5.83624C17.6932 5.91399 17.63 5.96217 17.6396 5.84195C17.6832 5.3991 17.8768 5.1219 18.0237 4.88097C18.0904 4.78301 18.1218 4.82865 18.0835 4.90062ZM18.0052 4.81132C17.8906 4.97288 17.5177 5.34678 17.4398 5.79554C17.4257 5.8723 17.3587 5.91512 17.3784 5.7961C17.4591 5.3584 17.7806 5.01436 17.9472 4.78681C18.0218 4.69455 18.0492 4.74279 18.0052 4.81132V4.81132ZM17.9354 4.71174C17.7992 4.85555 17.3547 5.33234 17.2145 5.7656C17.1897 5.83962 17.1174 5.87265 17.1537 5.75758C17.295 5.33558 17.6844 4.88097 17.8813 4.6792C17.9683 4.59842 17.9885 4.64997 17.9354 4.71174Z" fill="#002B64"/>
</svg>
