<svg viewBox="0 0 20 20" xmlns="http://www.w3.org/2000/svg">
<rect width="100%" height="100%" fill="black"/>
<path d="M3.81204 10.557C4.42523 10.557 5.01331 10.7999 5.4469 11.2323C5.88049 11.6646 6.12408 12.2511 6.12408 12.8625C6.12408 13.474 5.88049 14.0605 5.4469 14.4928C5.01331 14.9252 4.42523 15.1681 3.81204 15.1681C3.19885 15.1681 2.61077 14.9252 2.17718 14.4928C1.74359 14.0605 1.5 13.474 1.5 12.8625C1.5 12.2511 1.74359 11.6646 2.17718 11.2323C2.61077 10.7999 3.19885 10.557 3.81204 10.557ZM6.84338 4.56251C7.1912 4.56154 7.53476 4.63885 7.84846 4.78866C8.16216 4.93848 8.43793 5.15695 8.65521 5.42779C8.87249 5.69863 9.0257 6.01487 9.10341 6.35296C9.18112 6.69104 9.18133 7.04225 9.10404 7.38042C8.9499 8.09771 8.79577 8.91747 9.2068 9.53228L9.87472 10.4545L10.0289 10.557C10.0974 10.557 10.1487 10.5228 10.183 10.4545L10.8509 9.48105C11.2619 8.91747 11.1078 8.09771 10.9537 7.43166C10.8814 7.0955 10.8854 6.74747 10.9655 6.41306C11.0455 6.07866 11.1995 5.76633 11.4163 5.49896C11.633 5.23158 11.9069 5.01593 12.218 4.86778C12.5292 4.71963 12.8696 4.64274 13.2143 4.64274C13.5591 4.64274 13.8995 4.71963 14.2106 4.86778C14.5217 5.01593 14.7957 5.23158 15.0124 5.49896C15.2291 5.76633 15.3832 6.07866 15.4632 6.41306C15.5432 6.74747 15.5473 7.0955 15.475 7.43166C15.3209 8.09771 15.1667 8.86623 15.475 9.48105L16.1429 10.5057C16.6241 10.4964 17.0962 10.637 17.4934 10.908C17.8906 11.179 18.1931 11.5668 18.3588 12.0174C18.5244 12.468 18.5449 12.9589 18.4174 13.4217C18.2899 13.8845 18.0207 14.296 17.6475 14.599C17.2742 14.9019 16.8155 15.0812 16.3352 15.1118C15.8549 15.1423 15.377 15.0227 14.9682 14.7695C14.5593 14.5163 14.2399 14.1422 14.0545 13.6993C13.869 13.2564 13.8268 12.7669 13.9336 12.299C14.0878 11.6329 14.2419 10.8644 13.9336 10.2496L13.3171 9.22488H13.2143L12.5464 10.1983C12.1354 10.8132 12.2895 11.6329 12.4437 12.3502C12.5231 12.6845 12.5266 13.0323 12.454 13.3681C12.3813 13.704 12.2343 14.0194 12.0237 14.2913C11.8131 14.5632 11.5442 14.7847 11.2367 14.9397C10.9293 15.0946 10.5909 15.1791 10.2465 15.1869C9.90203 15.1947 9.5602 15.1257 9.24596 14.9848C8.93172 14.8439 8.65303 14.6348 8.43025 14.3727C8.20748 14.1106 8.04626 13.8022 7.95838 13.47C7.8705 13.1378 7.85818 12.7902 7.92233 12.4527C8.09359 11.7695 8.02509 11.1206 7.71682 10.5057L7.25441 9.83969C6.94614 9.46397 6.53511 9.19072 6.02132 9.01994C5.51799 8.82688 5.09816 8.46444 4.83449 7.99533C4.57082 7.52621 4.47989 6.97995 4.57743 6.45104C4.67497 5.92214 4.95485 5.44388 5.36864 5.09901C5.78243 4.75414 6.3041 4.56436 6.84338 4.56251Z" fill="white"/>
</svg>
