<svg viewBox="0 0 20 20" xmlns="http://www.w3.org/2000/svg">
<rect width="100%" height="100%" fill="black"/>
<path d="M11.8482 8.64688L10.7836 9.71149H13.1779V10.3439H10.7836L11.8476 11.4079L11.4005 11.8551L10.0202 10.4748L8.63996 11.8551L8.19283 11.4079L9.2569 10.3439H6.86313V9.71149H9.2569L8.1923 8.64688L8.63943 8.19975L10.0202 9.58054L11.401 8.19975L11.8482 8.64688Z" fill="white"/>
<path fill-rule="evenodd" clip-rule="evenodd" d="M10 2C14.4182 2.00004 18 5.58176 18 10C18 14.4182 14.4182 18 10 18C5.58175 18 2.00002 14.4182 2 10C2 5.58173 5.58173 2 10 2ZM3.23867 12.9303C4.37181 15.5412 6.97246 17.3676 10 17.3676C10.9567 17.3676 11.8708 17.1848 12.7094 16.8529C12.2223 16.8715 11.7164 16.8298 11.2041 16.7289C10.0856 16.5084 8.92146 16.0104 7.81915 15.2634C6.512 15.0121 5.33707 14.5414 4.39058 13.9066C3.9571 13.6158 3.56993 13.2878 3.23867 12.9303ZM16.1109 13.5361C15.9513 13.6649 15.7844 13.7892 15.6094 13.9066C14.1601 14.8787 12.1759 15.47 10 15.47C9.80097 15.47 9.60364 15.4627 9.40808 15.4529C10.0534 15.7642 10.7006 15.9848 11.3265 16.1082C12.902 16.4187 14.3008 16.1185 15.2097 15.2097C15.214 15.2053 15.2181 15.2007 15.2224 15.1964C15.6654 14.7482 15.961 14.1823 16.1109 13.5361ZM10 5.16242C7.93234 5.16242 6.07462 5.72515 4.74296 6.61827C4.37664 6.86397 4.05297 7.13358 3.77523 7.42099C3.76833 7.82099 3.80643 8.24083 3.89181 8.67403C4.20193 10.2471 5.11742 11.9586 6.57941 13.4206C7.05303 13.8942 7.55331 14.3098 8.06614 14.6667C8.68157 14.7771 9.32966 14.837 10 14.837C12.0677 14.837 13.9254 14.2744 15.257 13.3812C15.6232 13.1356 15.9461 12.8657 16.2237 12.5785C16.2306 12.1788 16.1935 11.7594 16.1082 11.3265C15.7981 9.75332 14.8827 8.0415 13.4206 6.57941C12.9465 6.10531 12.4456 5.68938 11.9323 5.33222C11.3173 5.22205 10.6697 5.16242 10 5.16242ZM3.17799 8.17846C2.82341 8.747 2.63238 9.36317 2.63238 10C2.63242 11.2853 3.40933 12.4867 4.74296 13.3812C5.2724 13.7363 5.88544 14.0378 6.56131 14.2739C6.4165 14.1428 6.27268 14.0081 6.13228 13.8677C4.59368 12.3291 3.6086 10.5081 3.27114 8.79593C3.23032 8.5888 3.19946 8.38268 3.17799 8.17846ZM13.4376 5.72506C13.5828 5.85649 13.727 5.99152 13.8677 6.13228C15.4063 7.67088 16.3914 9.4919 16.7289 11.2041C16.7696 11.411 16.8001 11.617 16.8215 11.821C17.176 11.2525 17.3676 10.6368 17.3676 10C17.3676 8.71459 16.5907 7.5128 15.257 6.61827C14.7273 6.26299 14.1139 5.96115 13.4376 5.72506ZM10 2.63238C9.04317 2.63238 8.1288 2.81466 7.29004 3.14658C7.77734 3.12796 8.28346 3.17015 8.79593 3.27114C9.91409 3.49153 11.0778 3.98946 12.1798 4.73604C13.4873 4.98729 14.6627 5.45791 15.6094 6.09289C16.0424 6.38331 16.4292 6.71109 16.7603 7.06807C15.6267 4.45809 13.0269 2.63241 10 2.63238ZM8.67403 3.89181C7.09844 3.58127 5.69925 3.88144 4.79034 4.79034C4.34046 5.24022 4.03998 5.81027 3.88862 6.46231C4.04804 6.33355 4.21566 6.21021 4.39058 6.09289C5.83988 5.12085 7.82409 4.53004 10 4.53004C10.1987 4.53004 10.3957 4.53632 10.5909 4.54601C9.94613 4.23508 9.2994 4.0151 8.67403 3.89181Z" fill="white"/>
</svg>
