<svg  viewBox="0 0 20 20" fill="none" xmlns="http://www.w3.org/2000/svg">
<path d="M0 0H20V20H0V0Z" fill="black"/>
<path d="M17.2331 6.58525C16.7047 5.44412 15.9398 4.48419 14.9268 3.678C14.9538 4.22525 15.0127 5.39575 15.0127 5.39575C15.0127 5.39575 15.0758 5.47869 15.1015 5.51456C16.1252 6.94431 16.4993 8.529 16.1583 10.2502C15.4746 13.7016 12.1101 15.8071 8.70053 14.9464C5.70728 14.1907 3.70816 11.1301 4.27428 8.09581C4.72116 5.70037 6.13684 4.10462 8.43578 3.29375L8.51909 3.26225L8.58447 3.21388C8.86309 2.81988 9.13497 2.42106 9.42509 2C5.94078 2.17263 2.43659 4.968 2.03516 9.22013C1.64666 13.3346 4.42078 17.0039 8.38491 17.8091C12.5159 18.6482 16.4485 16.211 17.6368 12.3106C18.2311 10.3603 18.092 8.44037 17.2331 6.58525ZM7.40122 9.1585C7.57541 10.8139 9.01028 11.9421 10.6701 11.7587C12.3008 11.5784 13.493 9.98312 13.1843 8.36919C12.9437 7.11081 12.6777 5.85731 12.4225 4.60175C12.317 4.08219 12.2102 3.56281 12.0982 3.01481C12.054 3.05362 12.0335 3.07 12.0148 3.08831C11.456 3.63606 10.8976 4.18412 10.3388 4.73187C9.65847 5.39894 8.97903 6.06688 8.29703 6.73225C7.61303 7.39956 7.30166 8.21394 7.40116 9.1585H7.40122Z" fill="white"/>
</svg>
