<svg xmlns="http://www.w3.org/2000/svg" viewBox="0 0 20 20"><path style="fill:#2d4c91" d="M0 0h20v20H0z"/><path d="m0 0 20 20H0V0Z" style="fill:#425d9c"/><path d="M2.41 11.32c.28 0 .43-.18.43-.45s-.15-.44-.43-.44-.43.18-.43.44.15.45.43.45ZM4.02 11.25h.62V7.19h.03l2.63 4.06H8V6.12h-.63v4.08h-.03L4.71 6.12h-.7v5.13ZM9.47 11.25h3.3v-.58h-2.66V8.9h2.43v-.59h-2.43V6.7h2.66v-.59h-3.3v5.13ZM15.06 11.25h.65V6.7h1.59v-.59h-3.83v.59h1.59v4.55ZM6.01 15.25h.28v-1.88h.01l.83 1.48h.03l.83-1.47H8v1.87h.28v-2.33h-.34l-.79 1.42h-.01l-.79-1.42h-.34v2.33ZM9.92 12.92h-.36l-.86 2.3v.03H9l.22-.61h1.02l.22.61h.31v-.03l-.86-2.3Zm-.6 1.46.41-1.14h.01l.41 1.14h-.83ZM12 15.28c.56 0 .89-.32.89-.85v-1.51h-.29v1.5c0 .36-.19.59-.6.59s-.6-.23-.6-.59v-1.5h-.29v1.51c0 .54.34.85.89.85ZM13.53 15.25h.29v-2.33h-.29v2.33Z" style="fill:#fff"/></svg>