<svg xmlns="http://www.w3.org/2000/svg" viewBox="0 0 20 20">
  <rect width="100%" height="100%" fill="#2D4C91"/>
  <path fill="#425D9C" d="M0 20V0l20 20H0Z"/>
  <path fill="#FEFEFE" d="M8.12 5v1.78l.02.06v2.31l.01.4.02.4v.1a.04.04 0 0 1-.03-.01L7.32 8.7 5.05 5.07A.13.13 0 0 0 4.92 5h-.8v5.96h.69v-4.4a5.47 5.47 0 0 0-.03-.68.5.5 0 0 1 0-.06l.02.03.01.03.05.1.12.24 2.95 4.67c0 .02.02.04.04.05l.07.02h.76V5h-.68ZM10.32 5.01V10.97h3.1v-.66h-2.39V8.25h2.09v-.63h-2.09V5.63h2.24v-.62h-2.95ZM2.88 10.77a.47.47 0 0 0 .03-.19.47.47 0 0 0-.12-.35.45.45 0 0 0-.34-.15.44.44 0 0 0-.33.15.47.47 0 0 0-.12.35.47.47 0 0 0 .12.35.45.45 0 0 0 .33.15.45.45 0 0 0 .34-.15c.04-.04.07-.1.1-.16ZM13.95 5.63h1.68v5.32h.67V5.63H18V5h-4.05v.63ZM6.26 15.07h-.3V12.5h.38l.88 1.57h.02l.88-1.57h.38v2.57h-.3v-2.06h-.02l-.93 1.62H7.2L6.28 13h-.02v2.07Z"/>
  <path fill="#FEFEFE" fill-rule="evenodd" d="M9.95 12.5h.4l.97 2.54v.03h-.35l-.25-.67H9.58l-.25.67h-.34v-.03l.96-2.54Zm.2.36-.47 1.25h.94l-.46-1.25h-.02Z" clip-rule="evenodd"/>
  <path fill="#FEFEFE" d="M13.7 14.17c0 .59-.38.94-1 .94s-1-.35-1-.94V12.5h.32v1.66c0 .4.22.65.67.65.46 0 .68-.26.68-.65V12.5h.33v1.67ZM14.74 15.07h-.33V12.5h.33v2.57Z"/>
</svg>