<svg viewBox="0 0 20 20" xmlns="http://www.w3.org/2000/svg">
<rect width="100%" height="100%" fill="black"/>
<path d="M9.15613 2.1919C10.4021 0.936038 12.4222 0.936028 13.6681 2.1919C14.4062 2.93584 14.707 3.95358 14.5707 4.92073C15.5049 4.78694 16.4866 5.07069 17.2189 5.77234L17.2779 5.83034L17.3155 5.86823L17.373 5.92759C18.5612 7.18748 18.542 9.17989 17.3155 10.4162L10.7863 16.9974C10.7033 17.0811 10.7033 17.2169 10.7863 17.3006L12.127 18.6521C12.3762 18.9032 12.3762 19.3105 12.127 19.5617C11.8778 19.8128 11.4738 19.8128 11.2246 19.5616L9.88387 18.2102C9.30242 17.6241 9.3024 16.6739 9.88387 16.0878L16.4131 9.50656C17.1607 8.75304 17.1607 7.53137 16.4131 6.77784L16.3755 6.73994L16.3402 6.70519C15.5902 5.98657 14.4042 5.99817 13.6682 6.73994L8.21612 12.2354C7.96692 12.4866 7.56289 12.4866 7.3137 12.2354C7.06455 11.9842 7.06452 11.5769 7.3137 11.3258L12.7657 5.83023C13.5133 5.07669 13.5133 3.85504 12.7657 3.10151C12.0182 2.34808 10.8061 2.34798 10.0586 3.10151L2.83919 10.3783C2.59 10.6294 2.18606 10.6294 1.93687 10.3783C1.68772 10.1271 1.6877 9.71983 1.93687 9.46867L9.15613 2.1919Z" fill="white"/>
<path d="M10.961 4.01112C11.2102 3.75996 11.6142 3.75996 11.8634 4.01112C12.1126 4.26229 12.1126 4.66944 11.8634 4.92062L6.52417 10.3025C5.77661 11.056 5.77658 12.2777 6.52417 13.0313C7.27174 13.7848 8.48373 13.7848 9.23133 13.0313L14.5707 7.64945C14.8198 7.39831 15.2239 7.39831 15.4731 7.64945C15.7223 7.90062 15.7222 8.30788 15.4731 8.55906L10.1337 13.9409C8.90726 15.1771 6.93068 15.1964 5.68074 13.9989L5.62175 13.9409C4.37581 12.685 4.37576 10.6487 5.62175 9.39287L10.961 4.01112Z" fill="white"/>
</svg>
