<svg  viewBox="0 0 20 20" fill="none" xmlns="http://www.w3.org/2000/svg">
<path d="M0 0H20V20H0V0Z" fill="#DCECF9"/>
<path d="M4.90909 6.7938C5.41117 6.7938 5.81819 6.38115 5.81819 5.87212C5.81819 5.36309 5.41117 4.95044 4.90909 4.95044C4.40702 4.95044 4 5.36309 4 5.87212C4 6.38115 4.40702 6.7938 4.90909 6.7938Z" fill="#509EE3"/>
<path d="M4.90909 9.37461C5.41117 9.37461 5.81819 8.96196 5.81819 8.45293C5.81819 7.9439 5.41117 7.53125 4.90909 7.53125C4.40702 7.53125 4 7.9439 4 8.45293C4 8.96196 4.40702 9.37461 4.90909 9.37461Z" fill="#509EE3"/>
<path d="M7.45455 6.7938C7.95663 6.7938 8.36364 6.38115 8.36364 5.87212C8.36364 5.36309 7.95663 4.95044 7.45455 4.95044C6.95247 4.95044 6.54546 5.36309 6.54546 5.87212C6.54546 6.38115 6.95247 6.7938 7.45455 6.7938Z" fill="white"/>
<path d="M7.45455 9.39951C7.95663 9.39951 8.36364 8.98686 8.36364 8.47783C8.36364 7.9688 7.95663 7.55615 7.45455 7.55615C6.95247 7.55615 6.54546 7.9688 6.54546 8.47783C6.54546 8.98686 6.95247 9.39951 7.45455 9.39951Z" fill="#509EE3"/>
<path d="M10 6.7938C10.5021 6.7938 10.9091 6.38115 10.9091 5.87212C10.9091 5.36309 10.5021 4.95044 10 4.95044C9.49793 4.95044 9.09091 5.36309 9.09091 5.87212C9.09091 6.38115 9.49793 6.7938 10 6.7938Z" fill="white"/>
<path d="M10 3.84458C10.5021 3.84458 10.9091 3.43193 10.9091 2.9229C10.9091 2.41387 10.5021 2.00122 10 2.00122C9.49793 2.00122 9.09091 2.41387 9.09091 2.9229C9.09091 3.43193 9.49793 3.84458 10 3.84458Z" fill="white"/>
<path d="M10 9.39951C10.5021 9.39951 10.9091 8.98686 10.9091 8.47783C10.9091 7.9688 10.5021 7.55615 10 7.55615C9.49793 7.55615 9.09091 7.9688 9.09091 8.47783C9.09091 8.98686 9.49793 9.39951 10 9.39951Z" fill="white"/>
<path d="M12.5454 6.7938C13.0475 6.7938 13.4545 6.38115 13.4545 5.87212C13.4545 5.36309 13.0475 4.95044 12.5454 4.95044C12.0434 4.95044 11.6364 5.36309 11.6364 5.87212C11.6364 6.38115 12.0434 6.7938 12.5454 6.7938Z" fill="white"/>
<path d="M15.0909 6.7938C15.593 6.7938 16 6.38115 16 5.87212C16 5.36309 15.593 4.95044 15.0909 4.95044C14.5888 4.95044 14.1818 5.36309 14.1818 5.87212C14.1818 6.38115 14.5888 6.7938 15.0909 6.7938Z" fill="#509EE3"/>
<path d="M12.5454 9.39951C13.0475 9.39951 13.4545 8.98686 13.4545 8.47783C13.4545 7.9688 13.0475 7.55615 12.5454 7.55615C12.0434 7.55615 11.6364 7.9688 11.6364 8.47783C11.6364 8.98686 12.0434 9.39951 12.5454 9.39951Z" fill="#509EE3"/>
<path d="M15.0909 9.39951C15.593 9.39951 16 8.98686 16 8.47783C16 7.9688 15.593 7.55615 15.0909 7.55615C14.5888 7.55615 14.1818 7.9688 14.1818 8.47783C14.1818 8.98686 14.5888 9.39951 15.0909 9.39951Z" fill="#509EE3"/>
<path d="M4.90909 11.9552C5.41117 11.9552 5.81819 11.5425 5.81819 11.0335C5.81819 10.5245 5.41117 10.1118 4.90909 10.1118C4.40702 10.1118 4 10.5245 4 11.0335C4 11.5425 4.40702 11.9552 4.90909 11.9552Z" fill="#509EE3"/>
<path d="M7.45455 11.9803C7.95663 11.9803 8.36364 11.5677 8.36364 11.0586C8.36364 10.5496 7.95663 10.137 7.45455 10.137C6.95247 10.137 6.54546 10.5496 6.54546 11.0586C6.54546 11.5677 6.95247 11.9803 7.45455 11.9803Z" fill="white"/>
<path d="M10 11.9803C10.5021 11.9803 10.9091 11.5677 10.9091 11.0586C10.9091 10.5496 10.5021 10.137 10 10.137C9.49793 10.137 9.09091 10.5496 9.09091 11.0586C9.09091 11.5677 9.49793 11.9803 10 11.9803Z" fill="#509EE3"/>
<path d="M12.5454 11.9803C13.0475 11.9803 13.4545 11.5677 13.4545 11.0586C13.4545 10.5496 13.0475 10.137 12.5454 10.137C12.0434 10.137 11.6364 10.5496 11.6364 11.0586C11.6364 11.5677 12.0434 11.9803 12.5454 11.9803Z" fill="white"/>
<path d="M15.0909 11.9803C15.593 11.9803 16 11.5677 16 11.0586C16 10.5496 15.593 10.137 15.0909 10.137C14.5888 10.137 14.1818 10.5496 14.1818 11.0586C14.1818 11.5677 14.5888 11.9803 15.0909 11.9803Z" fill="#509EE3"/>
<path d="M4.90909 14.536C5.41117 14.536 5.81819 14.1233 5.81819 13.6143C5.81819 13.1053 5.41117 12.6926 4.90909 12.6926C4.40702 12.6926 4 13.1053 4 13.6143C4 14.1233 4.40702 14.536 4.90909 14.536Z" fill="#509EE3"/>
<path d="M7.45455 14.5609C7.95663 14.5609 8.36364 14.1482 8.36364 13.6392C8.36364 13.1302 7.95663 12.7175 7.45455 12.7175C6.95247 12.7175 6.54546 13.1302 6.54546 13.6392C6.54546 14.1482 6.95247 14.5609 7.45455 14.5609Z" fill="white"/>
<path d="M10 14.5609C10.5021 14.5609 10.9091 14.1482 10.9091 13.6392C10.9091 13.1302 10.5021 12.7175 10 12.7175C9.49793 12.7175 9.09091 13.1302 9.09091 13.6392C9.09091 14.1482 9.49793 14.5609 10 14.5609Z" fill="white"/>
<path d="M10 17.1417C10.5021 17.1417 10.9091 16.7291 10.9091 16.22C10.9091 15.711 10.5021 15.2983 10 15.2983C9.49793 15.2983 9.09091 15.711 9.09091 16.22C9.09091 16.7291 9.49793 17.1417 10 17.1417Z" fill="white"/>
<path d="M12.5454 14.5609C13.0475 14.5609 13.4545 14.1482 13.4545 13.6392C13.4545 13.1302 13.0475 12.7175 12.5454 12.7175C12.0434 12.7175 11.6364 13.1302 11.6364 13.6392C11.6364 14.1482 12.0434 14.5609 12.5454 14.5609Z" fill="white"/>
<path d="M15.0909 14.5609C15.593 14.5609 16 14.1482 16 13.6392C16 13.1302 15.593 12.7175 15.0909 12.7175C14.5888 12.7175 14.1818 13.1302 14.1818 13.6392C14.1818 14.1482 14.5888 14.5609 15.0909 14.5609Z" fill="#509EE3"/>
</svg>
