<svg xmlns="http://www.w3.org/2000/svg" viewBox="0 0 20 20">
  <rect width="100%" height="100%" fill="#101926"/>
  <path fill="#CB5A3C" d="M7.642 0h.103L17.84 9.285a.54.54 0 0 1 0 .767.55.55 0 0 1-.774 0h.001L7.642 0ZM4.095 0h.385l12.934 11.856a.81.81 0 0 1 0 1.153.826.826 0 0 1-1.161 0L4.095 0ZM0 7.604l9.073 9.737a.55.55 0 0 0 .773 0 .54.54 0 0 0 0-.767L0 7.516v.088ZM0 4.369l11.989 12.87a.826.826 0 0 0 1.161 0 .81.81 0 0 0 0-1.152L0 3.993v.376ZM0 .233l14.784 15.55a.827.827 0 0 0 1.162 0 .81.81 0 0 0 0-1.153L.31 0H0v.233ZM1.58 11.677l4.328 4.662c.101.1.264.1.365 0a.254.254 0 0 0 0-.362l-4.692-4.3ZM16.991 6.347a.26.26 0 0 1-.365 0L12.29 1.691l4.7 4.292c.101.1.101.263 0 .363Z"/>
</svg>
