<svg xmlns="http://www.w3.org/2000/svg" viewBox="0 0 20 20">
  <rect width="100%" height="100%"/>
  <path fill="url(#a)" fill-rule="evenodd" d="M5.324 14.632c.874-1.251 2.653-2.108 4.705-2.108s3.831.857 4.705 2.108c-.874 1.25-2.653 2.107-4.705 2.107s-3.831-.856-4.705-2.107Z" clip-rule="evenodd"/>
  <path fill="url(#b)" d="M5.292 5.335C6.166 4.097 7.943 3.25 9.994 3.25s3.829.847 4.703 2.085c-.874 1.238-2.652 2.086-4.703 2.086-2.05 0-3.828-.848-4.702-2.086Z"/>
  <path fill="url(#c)" d="M10.084 10.02a6.9 6.9 0 0 1-4.792 1.917A6.9 6.9 0 0 1 .5 10.019l4.792-4.684 4.792 4.684Z"/>
  <path fill="url(#d)" d="M19.5 10.022a6.901 6.901 0 0 1-4.792 1.917 6.9 6.9 0 0 1-4.792-1.917l4.792-4.687 4.792 4.687Z"/>
  <radialGradient id="a" cx="0" cy="0" r="1" gradientTransform="rotate(92.849 -1.946 12.087) scale(1.36183 3.03561)" gradientUnits="userSpaceOnUse">
    <stop stop-color="#845CE7"/>
    <stop offset="1" stop-color="#AF73D8"/>
  </radialGradient>
  <radialGradient id="b" cx="0" cy="0" r="1" gradientTransform="matrix(-.13667 2.80356 -6.12204 -.29843 10 7.594)" gradientUnits="userSpaceOnUse">
    <stop stop-color="#845CE7"/>
    <stop offset="1" stop-color="#AF73D8"/>
  </radialGradient>
  <radialGradient id="c" cx="0" cy="0" r="1" gradientTransform="matrix(-.13667 2.80356 -6.12204 -.29843 10 7.594)" gradientUnits="userSpaceOnUse">
    <stop stop-color="#845CE7"/>
    <stop offset="1" stop-color="#AF73D8"/>
  </radialGradient>
  <radialGradient id="d" cx="0" cy="0" r="1" gradientTransform="matrix(-.13667 2.80356 -6.12204 -.29843 10 7.594)" gradientUnits="userSpaceOnUse">
    <stop stop-color="#845CE7"/>
    <stop offset="1" stop-color="#AF73D8"/>
  </radialGradient>
</svg>
