<svg viewBox="0 0 20 20" xmlns="http://www.w3.org/2000/svg">
<rect width="100%" height="100%" fill="white"/>
<path d="M6.35495 4H3.927V6.39967H6.35495V4Z" fill="black"/>
<path d="M16.0697 4H13.6417V6.39967H16.0697V4Z" fill="black"/>
<path d="M8.78288 6.39941H3.927V8.79908H8.78288V6.39941Z" fill="black"/>
<path d="M16.0705 6.39941H11.2146V8.79908H16.0705V6.39941Z" fill="black"/>
<path d="M16.0683 8.79895H3.927V11.1986H16.0683V8.79895Z" fill="black"/>
<path d="M6.35495 11.1992H3.927V13.5989H6.35495V11.1992Z" fill="black"/>
<path d="M11.2124 11.1992H8.78442V13.5989H11.2124V11.1992Z" fill="black"/>
<path d="M16.0697 11.1992H13.6417V13.5989H16.0697V11.1992Z" fill="black"/>
<path d="M8.78533 13.6003H1.5V16H8.78533V13.6003Z" fill="black"/>
<path d="M18.4999 13.6003H11.2146V16H18.4999V13.6003Z" fill="black"/>
<path d="M6.35578 4H3.92786V6.39967H6.35578V4Z" fill="#FFD800"/>
<path d="M16.0688 4H13.6409V6.39967H16.0688V4Z" fill="#FFD800"/>
<path d="M8.78375 6.39941H3.92786V8.79908H8.78375V6.39941Z" fill="#FFAF00"/>
<path d="M16.0689 6.39941H11.213V8.79908H16.0689V6.39941Z" fill="#FFAF00"/>
<path d="M16.0691 8.79895H3.92786V11.1986H16.0691V8.79895Z" fill="#FF8205"/>
<path d="M6.35578 11.1992H3.92786V13.5989H6.35578V11.1992Z" fill="#FA500F"/>
<path d="M11.2124 11.1992H8.78442V13.5989H11.2124V11.1992Z" fill="#FA500F"/>
<path d="M16.0688 11.1992H13.6409V13.5989H16.0688V11.1992Z" fill="#FA500F"/>
<path d="M8.78533 13.6003H1.5V16H8.78533V13.6003Z" fill="#E10500"/>
<path d="M18.4983 13.6003H11.213V16H18.4983V13.6003Z" fill="#E10500"/>
</svg>
