<?xml version="1.0" encoding="UTF-8" standalone="no"?>
<svg
   viewBox="0 0 20 20"
   version="1.1"
   id="svg488"
   sodipodi:docname="mongodb.svg"
   inkscape:version="1.1.2 (b8e25be8, 2022-02-05)"
   xmlns:inkscape="http://www.inkscape.org/namespaces/inkscape"
   xmlns:sodipodi="http://sodipodi.sourceforge.net/DTD/sodipodi-0.dtd"
   xmlns="http://www.w3.org/2000/svg"
   xmlns:svg="http://www.w3.org/2000/svg">
  <defs
     id="defs492" />
  <sodipodi:namedview
     id="namedview490"
     pagecolor="#ffffff"
     bordercolor="#666666"
     borderopacity="1.0"
     inkscape:pageshadow="2"
     inkscape:pageopacity="0.0"
     inkscape:pagecheckerboard="0"
     showgrid="false"
     inkscape:zoom="36.800001"
     inkscape:cx="9.7418476"
     inkscape:cy="9.6603258"
     inkscape:window-width="2560"
     inkscape:window-height="1081"
     inkscape:window-x="0"
     inkscape:window-y="25"
     inkscape:window-maximized="0"
     inkscape:current-layer="svg488"
     showguides="true"
     inkscape:guide-bbox="true">
    <sodipodi:guide
       position="9.9999997,15.597826"
       orientation="1,0"
       id="guide605" />
  </sodipodi:namedview>
  <path
     d="m 11.719865,2.2939798 c -0.838861,-0.990898 -1.561213,-1.99727851 -1.708791,-2.20629653 -0.01553,-0.01548905 -0.038842,-0.01548905 -0.054376,0 C 9.8091203,0.29670129 9.0867633,1.3030818 8.2479033,2.2939798 1.0476897,11.436517 9.3819271,17.606431 9.3819271,17.606431 l 0.069902,0.04643 c 0.062135,0.952231 0.2174799,2.322423 0.2174799,2.322423 H 9.9799991 10.29069 c 0,0 0.155353,-1.362479 0.217488,-2.322423 l 0.06989,-0.05414 c 0.0078,0 8.341998,-6.162201 1.141792,-15.3047387 z M 9.9799991,17.467059 c 0,0 -0.3728251,-0.317384 -0.4737944,-0.479972 v -0.01543 L 9.9566984,7.0162141 c 0,-0.030981 0.046609,-0.030981 0.046609,0 l 0.450495,9.9554469 v 0.01543 c -0.100978,0.162588 -0.4738022,0.479972 -0.4738022,0.479972 z"
     fill="#00684a"
     id="path508"
     style="stroke-width:0.0771286" />
</svg>
