<svg  viewBox="0 0 20 20" fill="none" xmlns="http://www.w3.org/2000/svg">
<path d="M0 0H20V20H0V0Z" fill="#F2F2F2"/>
<path d="M9.76466 2.04639L10.2183 2.89845C10.3203 3.05568 10.4308 3.19486 10.5609 3.32448C10.9408 3.70429 11.3014 4.10217 11.6255 4.5282C12.3941 5.53749 12.9126 6.65835 13.2829 7.87056C13.5049 8.61107 13.6255 9.3707 13.6345 10.1388C13.6717 12.4352 12.8844 14.4071 11.2972 16.0459C11.038 16.3051 10.7607 16.5452 10.4632 16.7588C10.306 16.7588 10.2316 16.6382 10.1668 16.5272C10.0462 16.3237 9.97236 16.0916 9.93517 15.8605C9.8794 15.5827 9.84274 15.3048 9.8608 15.018V14.8884C9.84806 14.8607 9.70941 2.11173 9.76466 2.04639Z" fill="#599636"/>
<path d="M9.76472 2.01828C9.74613 1.98109 9.72754 2.00924 9.70894 2.02731C9.71797 2.21323 9.65317 2.37897 9.55171 2.53727C9.44015 2.6945 9.29248 2.81509 9.14427 2.9447C8.32089 3.65759 7.67282 4.51868 7.15383 5.48176C6.46326 6.77791 6.10735 8.16702 6.00642 9.62944C5.9602 10.1569 6.17321 12.0183 6.33948 12.5553C6.79314 13.9811 7.60801 15.1758 8.66352 16.2127C8.92275 16.4624 9.20005 16.694 9.4869 16.9166C9.5703 16.9166 9.57933 16.8422 9.59845 16.787C9.63502 16.6687 9.66289 16.548 9.68185 16.4257L9.86778 15.0372L9.76472 2.01828Z" fill="#6CAC48"/>
<path d="M10.2184 17.3231C10.237 17.1107 10.339 16.9343 10.45 16.7585C10.3385 16.7123 10.2556 16.6204 10.1908 16.5178C10.135 16.4254 10.0888 16.3144 10.0527 16.2124C9.92306 15.8235 9.89544 15.4156 9.85825 15.0182V14.7776C9.81204 14.8148 9.80248 15.1292 9.80248 15.176C9.77545 15.596 9.71972 16.0136 9.63568 16.4259C9.60805 16.5927 9.58946 16.759 9.48694 16.9072C9.48694 16.9258 9.48694 16.9444 9.49597 16.972C9.66277 17.4629 9.70845 17.9627 9.73661 18.4721V18.6581C9.73661 18.8801 9.72758 18.8334 9.91191 18.9077C9.98628 18.9354 10.0691 18.9449 10.1435 19.0002C10.1993 19.0002 10.2083 18.954 10.2083 18.9168L10.1807 18.6113V17.7593C10.1717 17.6105 10.1993 17.4629 10.2179 17.3237L10.2184 17.3231Z" fill="#C2BFBF"/>
</svg>
