<svg viewBox="0 0 20 20" fill="none" xmlns="http://www.w3.org/2000/svg">
<rect width="20" height="20" fill="#00684A"/>
<path d="M11.5339 2.89477C10.8089 2.04824 10.1845 1.18848 10.0569 1.00992C10.0435 0.996693 10.0234 0.996693 10.0099 1.00992C9.88237 1.18848 9.25799 2.04824 8.53292 2.89477C2.30937 10.7053 9.51312 15.9763 9.51312 15.9763L9.57354 16.0159C9.62725 16.8294 9.76152 18 9.76152 18H10.0301H10.2986C10.2986 18 10.4329 16.836 10.4866 16.0159L10.547 15.9697C10.5537 15.9697 17.7575 10.7053 11.5339 2.89477ZM10.0301 15.8572C10.0301 15.8572 9.70781 15.5861 9.62054 15.4472V15.434L10.0099 6.929C10.0099 6.90254 10.0502 6.90254 10.0502 6.929L10.4396 15.434V15.4472C10.3523 15.5861 10.0301 15.8572 10.0301 15.8572Z" fill="white"/>
</svg>
