<svg viewBox="0 0 20 20" xmlns="http://www.w3.org/2000/svg">
<rect width="100%" height="100%" fill="black"/>
<path d="M4.18634 16.9571C4.18634 16.8698 7.10962 13.3574 7.17126 13.3708C7.20646 13.3784 8.51211 13.933 10.0727 14.6032C12.738 15.7479 12.9148 15.8155 12.9869 15.719C13.0959 15.5729 13.4712 14.7878 13.6698 14.2907L13.8383 13.8688L13.5545 13.7137C13.1523 13.4938 12.5623 13.004 12.193 12.5834C11.8559 12.1995 11.2479 11.2733 11.2479 11.1436C11.2479 11.1007 11.4411 11.2958 11.6772 11.5772C12.3404 12.3675 13.8688 13.6043 13.9648 13.4283C14.0788 13.2195 14.1524 12.6028 14.1487 11.8884C14.1442 11.0162 14.0299 10.3372 13.7296 9.39994L13.5613 8.87477L12.7294 8.61332C12.2719 8.46952 11.8132 8.32536 11.7102 8.29297C11.3507 8.18001 11.5756 8.18608 12.1018 8.30356C12.731 8.44403 13.37 8.56267 13.7657 8.61247C14.1142 8.6563 14.1908 8.58796 14.2281 8.20027C14.2756 7.70596 13.9566 6.34081 13.6347 5.66112C13.5062 5.38985 13.4483 5.33136 13.191 5.21363C12.3348 4.82173 9.65496 4.45469 8.51695 4.57345C8.02501 4.62479 7.51968 4.74431 7.36219 4.84657C7.3178 4.87539 7.63509 4.95711 8.18133 5.05754C8.67171 5.14771 9.02903 5.23005 8.97542 5.24052C8.92181 5.25099 8.15126 5.16632 7.26308 5.05238C5.7038 4.85234 5.64433 4.8487 5.53572 4.94698C5.30928 5.15186 4.98349 5.7119 4.91642 6.01155C4.85148 6.30167 4.85605 6.33529 5.00052 6.63054C5.24678 7.13378 5.70469 7.49995 6.74669 8.02687C7.23942 8.27604 7.63061 8.49185 7.616 8.50645C7.6014 8.52105 7.18092 8.36408 6.68159 8.15763L5.77372 7.78227L4.44153 8.15501C3.70881 8.36001 3.08473 8.52774 3.05466 8.52774C3.0203 8.52774 3 7.64273 3 6.1451C3 3.85069 3.00433 3.75352 3.11699 3.52083C3.18567 3.37899 3.31982 3.22584 3.44182 3.14999L3.64966 3.02078L9.75083 3.0038C13.1065 2.99446 15.9878 3.00293 16.1536 3.02261C16.5274 3.06697 16.8648 3.34064 16.9541 3.67191C16.9925 3.81472 17.0069 5.98662 16.9969 10.1189L16.9818 16.3505L16.8526 16.5583C16.7767 16.6803 16.6236 16.8143 16.4817 16.883C16.2419 16.9991 16.1934 17 10.2132 17C6.89842 17 4.18634 16.9807 4.18634 16.9571Z" fill="white"/>
</svg>