<svg viewBox="0 0 20 20" xmlns="http://www.w3.org/2000/svg">
<rect width="100%" height="100%" fill="#001E2B"/>
<path d="M9.99875 2C14.4758 2 18 5.60681 18 9.99982C18 14.4188 14.417 18 9.99875 18C5.58118 18.0004 2 14.4188 2 10.0002C2 5.58083 5.58118 2 9.99875 2ZM9.98096 11.6776L7.74334 4.25256L4.84587 13.759H5.38934C5.38934 13.759 5.75487 12.1054 6.34924 11.1177C6.67276 10.5814 7.17139 10.1429 7.83802 10.155C8.30746 10.1643 8.71427 10.4209 9.22216 11.1313C9.52753 11.5566 9.99769 12.6418 9.99769 12.6418C9.99769 12.6418 10.4682 11.558 10.7746 11.1313C11.2811 10.4209 11.6879 10.1643 12.1588 10.155C12.8247 10.1429 13.3244 10.5814 13.6465 11.1188C14.2412 12.105 14.6064 13.759 14.6064 13.759H15.1513L12.252 4.25256L10.0148 11.6776L9.99875 11.6908L9.98096 11.6776Z" fill="white"/>
</svg>