<svg  viewBox="0 0 20 20" fill="none" xmlns="http://www.w3.org/2000/svg">
<path d="M0 0H20V20H0V0Z" fill="#231F1F"/>
<path d="M12.2166 9.46948L9.01684 10.5158L6.2331 11.7461L5.45431 11.952C5.25597 12.1409 5.048 12.3322 4.82307 12.526C4.57638 12.7391 4.34662 12.9329 4.17004 13.0733C3.97415 13.2283 3.68392 13.519 3.5364 13.703C3.3163 13.9791 3.14217 14.2721 3.06719 14.4974C2.93416 14.9043 2.99949 15.316 3.25585 15.6963C3.58477 16.1806 4.24021 16.6747 5.00445 17.0113C5.39386 17.1833 6.04928 17.4037 6.54265 17.5272C7.36251 17.7355 8.94911 17.9607 9.82218 17.9947C9.99871 18.0019 10.2358 18.0019 10.2454 17.9947C10.2648 17.9825 10.4002 17.7234 10.5574 17.4013C11.0944 16.3042 11.4813 15.2748 11.6917 14.3957C11.8175 13.8629 11.9166 13.1533 11.9819 12.3129C11.9989 12.078 12.0061 11.2908 11.9916 11.0244C11.9698 10.5885 11.9311 10.2349 11.8707 9.88855C11.861 9.83768 11.8586 9.79165 11.8634 9.78924C11.8731 9.78198 11.9021 9.7723 12.2963 9.65844L12.2165 9.46956V9.4695H12.2166V9.46948ZM11.4862 9.89819C11.5152 9.89819 11.5926 10.6417 11.6119 11.1116C11.6168 11.2109 11.6143 11.2763 11.6095 11.2763C11.5902 11.2763 11.2008 11.0462 10.9227 10.8718C10.6808 10.7192 10.2213 10.4141 10.1487 10.3559C10.1245 10.339 10.1269 10.3366 10.3253 10.2688C10.6614 10.1549 11.4596 9.89819 11.4862 9.89819ZM9.85607 10.4359C9.87786 10.4359 9.93344 10.4673 10.0665 10.5497C10.5647 10.8621 11.2419 11.2399 11.5321 11.3659C11.6216 11.4046 11.6312 11.3901 11.4257 11.5306C10.9855 11.8309 10.4365 12.1263 9.76412 12.4243C9.64563 12.4775 9.54648 12.5187 9.54407 12.5187C9.53926 12.5187 9.55372 12.4582 9.57305 12.3855C9.7351 11.7824 9.82702 11.1721 9.83188 10.6829C9.83429 10.4407 9.83429 10.4407 9.85607 10.4334C9.85121 10.4359 9.85362 10.4359 9.85607 10.4359ZM9.51991 10.5642C9.53437 10.5787 9.52472 11.1213 9.50536 11.269C9.46183 11.6226 9.39411 11.952 9.2829 12.3225C9.25629 12.4121 9.23206 12.4872 9.22728 12.492C9.21755 12.5041 8.88621 12.1796 8.77738 12.0537C8.58872 11.8357 8.44123 11.6177 8.33239 11.4046C8.27676 11.2956 8.18971 11.0825 8.19695 11.0752C8.23564 11.0486 9.51023 10.5545 9.51991 10.5642ZM7.93815 11.1866C7.94055 11.1866 7.94296 11.1866 7.94542 11.189C7.95024 11.1939 7.9672 11.2327 7.98171 11.2762C8.05908 11.487 8.23318 11.7969 8.38318 11.9956C8.54764 12.2135 8.76291 12.446 8.94183 12.5986C8.99991 12.647 9.05308 12.693 9.06032 12.7003C9.07486 12.7149 9.07969 12.7124 8.68545 12.8626C8.2284 13.037 7.73015 13.2113 7.15935 13.3954C7.02301 13.4394 6.88678 13.4838 6.75068 13.5286C6.72888 13.5359 6.73615 13.5238 6.79903 13.4245C7.08199 12.9813 7.51248 12.1118 7.75435 11.4966C7.79547 11.3901 7.83658 11.2835 7.84385 11.2593C7.85353 11.2254 7.8656 11.2133 7.89702 11.1963C7.91395 11.1915 7.93091 11.1866 7.93815 11.1866ZM7.45448 11.3877C7.46172 11.3925 7.33837 11.6516 7.21744 11.889C6.98283 12.3467 6.72647 12.7972 6.38304 13.3446C6.325 13.439 6.26939 13.5262 6.26212 13.5359C6.25004 13.5529 6.24518 13.548 6.20649 13.4729C6.12426 13.3107 6.05652 13.1024 6.02025 12.911C5.98396 12.7221 5.99123 12.3927 6.03236 12.1893C6.06377 12.0392 6.06138 12.0416 6.13393 12.0053C6.4435 11.8478 7.4448 11.378 7.45448 11.3877ZM11.6265 11.5572V11.6589C11.6265 12.199 11.5684 12.9401 11.4837 13.4802C11.4692 13.5747 11.4571 13.6521 11.4547 13.6546C11.4547 13.6546 11.3846 13.6352 11.3024 13.611C10.9396 13.4971 10.5454 13.33 10.1898 13.1339C9.95518 13.0055 9.61419 12.7948 9.62388 12.7851C9.62626 12.7827 9.72786 12.7294 9.84635 12.6664C10.3204 12.4194 10.7751 12.153 11.1693 11.889C11.3169 11.7897 11.5393 11.6299 11.5878 11.5863L11.6265 11.5572ZM5.62844 12.274C5.63811 12.274 5.63569 12.2934 5.62118 12.3806C5.6115 12.4436 5.59942 12.5599 5.59461 12.6397C5.57522 12.9934 5.6333 13.2549 5.80743 13.6134C5.8558 13.7127 5.89452 13.795 5.89207 13.7974C5.87513 13.812 4.27408 14.2818 3.77099 14.4199C3.62105 14.461 3.49047 14.4974 3.48075 14.4998C3.46385 14.5046 3.46142 14.5022 3.46867 14.461C3.52429 14.105 3.79518 13.64 4.17246 13.2476C4.424 12.9861 4.62475 12.8335 4.96818 12.6373C5.21487 12.4969 5.59458 12.2862 5.6236 12.2765C5.62362 12.2741 5.62603 12.274 5.62844 12.274ZM9.40139 12.9498C9.40379 12.9474 9.46183 12.9789 9.53196 13.02C10.0495 13.3203 10.7703 13.5989 11.3845 13.7417L11.4402 13.7539L11.3628 13.7974C11.0411 13.9767 9.98423 14.4174 8.90317 14.8219C8.74593 14.88 8.59117 14.9382 8.5621 14.9503C8.53308 14.9624 8.50647 14.9696 8.50647 14.9672C8.50647 14.9648 8.55003 14.88 8.60562 14.7759C8.90794 14.2092 9.2127 13.5189 9.36748 13.0394C9.38688 12.9934 9.39893 12.9522 9.40139 12.9498ZM9.01684 13.0757C9.01929 13.0782 8.99992 13.129 8.97572 13.1871C8.76532 13.6981 8.48956 14.2552 8.13648 14.8801C8.04701 15.0399 7.97202 15.1683 7.96956 15.1683C7.96719 15.1683 7.8946 15.1247 7.80755 15.0714C7.29478 14.7565 6.84012 14.369 6.54266 13.9936L6.49911 13.9404L6.71917 13.8798C7.50763 13.6643 8.17754 13.4318 8.84267 13.146C8.93701 13.1072 9.01443 13.0757 9.01684 13.0757ZM11.4064 13.9113C11.4064 13.9113 11.4088 13.9137 11.4064 13.9113C11.4088 13.967 11.2854 14.4659 11.1838 14.8267C11.0992 15.1295 11.0266 15.3668 10.8936 15.7858C10.8356 15.9699 10.7848 16.1225 10.7824 16.1225C10.78 16.1225 10.7654 16.12 10.7509 16.1152C10.0326 15.9844 9.3893 15.8028 8.78466 15.5606C8.61533 15.4928 8.3735 15.3838 8.35899 15.3717C8.35417 15.3668 8.49929 15.299 8.68309 15.2191C9.78353 14.7371 10.9251 14.1898 11.3169 13.9549C11.3628 13.9258 11.3991 13.9113 11.4064 13.9113ZM5.88966 14.1002C5.8945 14.105 5.58734 14.5483 5.15682 15.1513C5.00688 15.362 4.83275 15.609 4.76746 15.7011C4.70215 15.7931 4.603 15.9384 4.54737 16.0256L4.44575 16.183L4.33691 16.091C4.20872 15.9844 3.98624 15.7568 3.88708 15.6308C3.67907 15.3717 3.53882 15.098 3.48319 14.8486C3.45658 14.7323 3.45658 14.6742 3.48074 14.667C3.51701 14.6573 4.16277 14.5047 4.76744 14.3642C5.10362 14.2867 5.49298 14.1947 5.63326 14.1608C5.77355 14.1268 5.88725 14.1002 5.88966 14.1002ZM6.19922 14.2189L6.27658 14.3061C6.6249 14.696 6.98042 14.9842 7.41092 15.2361C7.48833 15.2797 7.54636 15.3184 7.54149 15.3209C7.52461 15.333 6.04684 15.8585 5.3624 16.0958C4.97787 16.2315 4.66102 16.3404 4.65863 16.3404C4.65622 16.3404 4.63444 16.3259 4.61022 16.309L4.56671 16.2775L4.63684 16.1758C4.86417 15.8464 5.1496 15.4855 5.77116 14.7347L6.19922 14.2189ZM8.12925 15.6018C8.13162 15.5994 8.23805 15.6381 8.36863 15.6866C8.68309 15.8052 8.93215 15.8803 9.26595 15.9651C9.67711 16.0692 10.2721 16.1709 10.6228 16.2C10.676 16.2048 10.705 16.2097 10.6953 16.217C10.6784 16.2267 10.3229 16.3453 10.0617 16.4277C9.64563 16.5584 8.37592 16.9338 7.34079 17.2317C7.14972 17.2874 6.98525 17.3335 6.97558 17.3359C6.95142 17.3407 6.87158 17.3189 6.87158 17.3092C6.87158 17.3044 6.92962 17.2293 6.99977 17.147C7.34802 16.7304 7.6939 16.2654 7.98171 15.8246C8.0615 15.7035 8.12925 15.6042 8.12925 15.6018ZM7.70355 15.6139C7.70595 15.6163 7.53426 15.8924 7.23439 16.3671C7.10618 16.5681 6.96348 16.7958 6.91268 16.8757C6.86431 16.9532 6.79176 17.0743 6.75066 17.1421L6.68051 17.2656L6.64424 17.2559C6.55715 17.2317 5.94527 17.0161 5.78322 16.9508C5.58247 16.8708 5.37448 16.774 5.21968 16.6916C5.02622 16.5875 4.78438 16.4325 4.80371 16.4277C4.80854 16.4252 5.13989 16.3356 5.53893 16.2266C6.59827 15.9384 7.18595 15.7713 7.57054 15.6502C7.64069 15.6284 7.70114 15.6114 7.70355 15.6139ZM10.7146 16.3211H10.7171C10.7267 16.3453 10.335 17.4352 10.1922 17.7791C10.1608 17.8565 10.1487 17.876 10.1318 17.8735C10.0907 17.8711 9.52233 17.7912 9.17643 17.7403C8.57425 17.6483 7.56328 17.4715 7.30935 17.4134L7.25131 17.4013L7.61162 17.3189C8.38559 17.1445 8.75803 17.0501 9.13531 16.9338C9.61178 16.7885 10.0834 16.6068 10.5599 16.384C10.6348 16.3501 10.6977 16.3235 10.7146 16.3211Z" fill="url(#paint0_linear)"/>
<path d="M8.91768 2.00012C8.86447 1.9929 8.00585 2.3029 7.45203 2.52811C6.70468 2.8333 6.12426 3.12395 5.7663 3.37577C5.6333 3.47027 5.46639 3.63736 5.43982 3.70274C5.43016 3.72696 5.42529 3.75602 5.42529 3.78508L5.74939 4.09267L6.52089 4.3397L8.35658 4.66909L10.4559 5.02996L10.4776 4.84832C10.4704 4.84832 10.4655 4.8459 10.4583 4.8459L10.1826 4.80229L10.127 4.703C9.84156 4.19923 9.52715 3.57438 9.34336 3.15296C9.20068 2.826 9.06523 2.44822 8.99024 2.17695C8.94912 2.01226 8.9443 2.00258 8.91773 2.00017V2.00011H8.91768V2.00012ZM8.87893 2.12368H8.88142C8.88379 2.12607 8.89347 2.19393 8.90317 2.2738C8.94424 2.61292 9.01928 2.93983 9.13777 3.29344C9.22723 3.55986 9.22723 3.54534 9.12326 3.51383C8.87657 3.44604 7.7713 3.25471 6.97076 3.1433C6.84257 3.12634 6.73373 3.1094 6.73373 3.10698C6.72406 3.0973 7.31175 2.78969 7.57054 2.66863C7.90188 2.51601 8.81124 2.13577 8.87893 2.12368ZM6.54747 3.20868L6.64183 3.24013C7.15453 3.41454 8.44358 3.66158 9.15467 3.7197C9.23446 3.72697 9.30221 3.73425 9.30459 3.73425C9.307 3.73666 9.23932 3.773 9.15223 3.81415C8.80884 3.98611 8.43152 4.19682 8.17031 4.3591C8.09295 4.40751 8.02277 4.44629 8.01313 4.44629C8.00345 4.44629 7.95268 4.4366 7.89947 4.42932L7.80273 4.41477L7.5609 4.17741C7.13523 3.76329 6.80146 3.44361 6.67327 3.32249L6.54747 3.20868ZM6.45076 3.28374L6.79177 3.71002C6.97798 3.94494 7.16663 4.17501 7.20778 4.22585C7.24886 4.27674 7.28274 4.31793 7.28033 4.32034C7.27065 4.3276 6.78697 4.23313 6.53057 4.17503C6.26695 4.11447 6.15812 4.08541 5.99608 4.03457L5.86305 3.99096V3.95703C5.86546 3.79475 6.07106 3.55258 6.41932 3.30557L6.45076 3.28374ZM9.34816 3.86501C9.35786 3.86501 9.36991 3.8868 9.39893 3.95219C9.48116 4.13382 9.73757 4.62307 9.8004 4.71751C9.8198 4.74903 9.85361 4.75144 9.51263 4.69573C8.69277 4.5625 8.42912 4.51895 8.42912 4.5141C8.42912 4.51169 8.45331 4.49473 8.48475 4.47776C8.73871 4.33732 8.99505 4.15808 9.22242 3.96674C9.27805 3.92072 9.32884 3.87713 9.33848 3.86985C9.34089 3.86501 9.34575 3.8626 9.34816 3.86501Z" fill="url(#paint1_linear)"/>
<path d="M5.45671 3.66895C5.45671 3.66895 5.40353 3.75375 5.45431 3.87969C5.48578 3.95717 5.57767 4.05161 5.68165 4.1485C5.68165 4.1485 6.7579 5.1996 6.88851 5.34978C7.48344 6.03758 7.74224 6.71572 7.76643 7.65059C7.78094 8.25122 7.66724 8.77919 7.38429 9.39194C6.88123 10.4915 5.81947 11.7049 4.18213 13.0515L4.4216 12.9715C4.57638 12.8553 4.7868 12.7318 5.28017 12.4605C6.41928 11.8356 7.70112 11.2616 9.27319 10.6707C11.5369 9.81817 15.2591 8.82033 17.3777 8.49583L17.5978 8.4619L17.5639 8.40862C17.3705 8.10829 17.2374 7.92182 17.0778 7.72323C16.6134 7.14681 16.05 6.6794 15.3606 6.29188C14.4126 5.76151 13.1863 5.34737 11.6337 5.03978C11.341 4.98163 10.6977 4.87023 10.1753 4.79031C9.06758 4.6184 8.35169 4.4997 7.56326 4.36407C7.28032 4.31561 6.85703 4.24298 6.57648 4.18244C6.43137 4.15093 6.15327 4.08555 5.9356 4.01047C5.76147 3.94263 5.50992 3.87481 5.45671 3.66895ZM6.08073 4.27445C6.08312 4.27206 6.12181 4.28654 6.17263 4.30351C6.26453 4.33496 6.38303 4.3713 6.52334 4.41008C6.62949 4.43931 6.73591 4.46757 6.84258 4.49483C6.98769 4.53114 7.1086 4.56506 7.111 4.56506C7.12797 4.58202 7.37225 5.36424 7.45448 5.66457C7.48587 5.77843 7.51011 5.87528 7.50769 5.87528C7.5052 5.87774 7.47864 5.83654 7.44721 5.78084C7.16423 5.28192 6.7168 4.77575 6.19922 4.36885C6.13153 4.32046 6.08073 4.27686 6.08073 4.27445ZM7.27065 4.60382C7.28275 4.60382 7.33596 4.61109 7.40122 4.62561C7.81238 4.71764 8.55005 4.85812 9.02165 4.93805C9.10147 4.95014 9.16437 4.96471 9.16437 4.96952C9.16437 4.97439 9.13532 4.99131 9.09903 5.01071C9.01925 5.05186 8.69756 5.24318 8.59117 5.31585C8.32269 5.49507 8.08087 5.68882 7.90671 5.86319C7.83659 5.93344 7.77609 5.99156 7.77609 5.99156C7.77609 5.99156 7.76163 5.9504 7.74948 5.89951C7.66247 5.56286 7.48104 5.06394 7.31658 4.71278C7.28997 4.6571 7.26819 4.60623 7.26819 4.6014C7.26819 4.60624 7.26819 4.60382 7.27065 4.60382ZM9.36509 5.00344C9.3796 5.00826 9.40379 5.09062 9.45215 5.27225C9.54165 5.62345 9.58277 6.01579 9.56826 6.3815C9.5634 6.48322 9.55858 6.57766 9.55372 6.5898L9.54648 6.61399L9.42072 6.57283C9.16193 6.49049 8.74112 6.36695 8.38078 6.26525C8.17516 6.20954 8.00833 6.15868 8.00833 6.15384C8.00833 6.13929 8.30824 5.83899 8.43641 5.72517C8.68063 5.50959 9.34331 4.99616 9.36509 5.00344ZM9.53197 5.02763C9.53924 5.0204 10.5333 5.19232 10.9855 5.27952C11.3217 5.3449 11.8103 5.44663 11.8393 5.45876C11.8538 5.46358 11.803 5.49264 11.6409 5.56529C11.0024 5.85353 10.5284 6.11263 10.0568 6.42751C9.93347 6.50986 9.82946 6.57766 9.82705 6.57766C9.82464 6.57766 9.82222 6.50744 9.82222 6.42266C9.82222 5.96252 9.73031 5.4975 9.56098 5.10516C9.54406 5.0664 9.52955 5.03009 9.53197 5.02763ZM12.1029 5.53626C12.1101 5.54352 12.0787 5.73971 12.0497 5.85594C11.9626 6.21681 11.728 6.75209 11.4402 7.25581C11.3894 7.34543 11.3435 7.41809 11.3386 7.4205C11.3338 7.42291 11.2685 7.38657 11.1935 7.34298C10.913 7.17829 10.5937 7.0233 10.2454 6.87796C10.1487 6.83681 10.0641 6.80288 10.0616 6.79808C10.0447 6.78352 10.8235 6.26766 11.2346 6.02063C11.5611 5.82204 12.0932 5.52655 12.1029 5.53626ZM12.2867 5.56531C12.3085 5.56531 12.7486 5.68641 12.9784 5.75423C13.5467 5.92378 14.1997 6.16353 14.6254 6.35727L14.8019 6.43723L14.6786 6.46627C13.6387 6.70602 12.7486 6.98215 11.89 7.3309C11.8199 7.35996 11.757 7.38418 11.7522 7.38418C11.7474 7.38418 11.7715 7.32848 11.803 7.26065C12.0618 6.71089 12.2287 6.13689 12.2697 5.64764C12.2722 5.60161 12.2794 5.56531 12.2867 5.56531ZM7.9043 6.57283C7.91154 6.56555 8.24773 6.6455 8.42912 6.69631C8.70483 6.77384 9.2901 6.96999 9.2901 6.98454C9.2901 6.98696 9.22482 7.04266 9.14745 7.1105C8.83062 7.37449 8.52586 7.65297 8.16064 8.00658C8.0518 8.11076 7.95992 8.19551 7.95511 8.19551C7.95024 8.19551 7.94787 8.18095 7.95024 8.16158C8.00586 7.75469 7.99381 7.23158 7.91641 6.70118C7.90912 6.63334 7.90188 6.57525 7.9043 6.57283ZM14.9689 6.58012C14.9737 6.58493 14.8141 6.83681 14.7125 6.97968C14.5674 7.18796 14.3545 7.46411 13.8732 8.06958C13.6193 8.38924 13.3339 8.75013 13.2396 8.87122C13.1428 8.99231 13.063 9.09401 13.0606 9.09401C13.0582 9.09401 13.0268 9.05044 12.9929 8.99717C12.722 8.59027 12.3979 8.23425 12.0134 7.91456C11.9408 7.854 11.861 7.78861 11.8344 7.76923C11.8078 7.74986 11.786 7.73049 11.786 7.72807C11.786 7.72083 12.1971 7.54399 12.5092 7.41808C13.0558 7.19524 13.8006 6.92885 14.3594 6.75688C14.652 6.66486 14.964 6.57525 14.9689 6.58012ZM15.1551 6.62852C15.1647 6.62612 15.2228 6.65518 15.2929 6.69631C15.8807 7.03296 16.4562 7.4665 16.911 7.91214C17.0391 8.0381 17.356 8.36747 17.3511 8.36989C17.3511 8.36989 17.2398 8.37957 17.1093 8.38924C16.0911 8.46677 14.7875 8.68229 13.5347 8.98501C13.45 9.00437 13.3751 9.02133 13.3702 9.02133C13.3654 9.02133 13.4597 8.92689 13.5782 8.81308C14.3135 8.10346 14.6497 7.65541 15.0463 6.85616C15.1019 6.73752 15.1503 6.6358 15.1551 6.62852C15.1527 6.62852 15.1527 6.62852 15.1551 6.62852ZM9.76898 7.18075C9.80286 7.18797 10.1173 7.33576 10.3543 7.45441C10.5719 7.56335 10.8985 7.73777 10.9154 7.75228C10.9178 7.75469 10.8017 7.81524 10.6591 7.88549C10.2043 8.11315 9.81496 8.32867 9.40862 8.57572C9.29254 8.64597 9.1958 8.70412 9.19339 8.70412C9.18371 8.70412 9.18612 8.69438 9.25143 8.57572C9.46911 8.17856 9.64322 7.70386 9.74241 7.24126C9.75205 7.20494 9.76174 7.18075 9.76898 7.18075ZM9.45456 7.23885C9.46183 7.24613 9.3796 7.544 9.32883 7.70627C9.22964 8.01386 9.06277 8.39893 8.90075 8.68957C8.86201 8.75735 8.80398 8.85666 8.77254 8.91235L8.71209 9.00923L8.57665 8.87848C8.41947 8.72589 8.29125 8.63144 8.12683 8.54665C8.06148 8.51277 8.01071 8.48368 8.01071 8.47887C8.01071 8.45949 8.42428 8.0841 8.74111 7.81284C8.96844 7.61666 9.44732 7.23159 9.45456 7.23885ZM11.3773 8.03083L11.4959 8.1083C11.7667 8.28513 12.0859 8.52003 12.3302 8.72589C12.4681 8.83969 12.7341 9.0795 12.7873 9.13762L12.8163 9.16914L12.6205 9.22482C11.5128 9.53237 10.6566 9.80605 9.65773 10.1742C9.54648 10.2154 9.45215 10.2493 9.44488 10.2493C9.43041 10.2493 9.41828 10.2614 9.66742 10.0313C10.3059 9.4428 10.8718 8.79369 11.2927 8.16157L11.3773 8.03083ZM10.8719 8.15676C10.8767 8.16158 10.5453 8.629 10.347 8.893C10.11 9.20786 9.68916 9.73582 9.39894 10.0797C9.27804 10.2226 9.17407 10.3413 9.1692 10.3437C9.16193 10.3461 9.15952 10.3098 9.15952 10.2541C9.15952 9.96103 9.08456 9.6486 8.95394 9.38222C8.89831 9.27081 8.88863 9.24416 8.90076 9.23207C8.9467 9.19088 9.65049 8.78884 10.0955 8.54909C10.3954 8.38925 10.8645 8.15191 10.8719 8.15676ZM7.81479 8.90755C7.82206 8.90755 7.87769 8.93659 7.94059 8.97052C8.09536 9.05527 8.23322 9.14973 8.35656 9.25147C8.36138 9.25629 8.29852 9.30718 8.21629 9.36769C7.98652 9.53237 7.63827 9.79638 7.43514 9.95866C7.22225 10.1282 7.21505 10.133 7.23921 10.0967C7.39885 9.85209 7.47862 9.71404 7.56331 9.53725C7.63827 9.37985 7.71322 9.19335 7.76643 9.03107C7.78577 8.96084 7.80997 8.90755 7.81479 8.90755ZM8.62987 9.54692C8.64193 9.54453 8.65649 9.56629 8.72175 9.66319C8.85961 9.86901 8.96603 10.1451 8.99268 10.368L8.99746 10.4164L8.66617 10.5448C8.07358 10.7748 7.52703 11.0025 7.15694 11.172C7.05298 11.2205 6.87158 11.3076 6.75309 11.3658C6.63457 11.4263 6.53783 11.4723 6.53783 11.4699C6.53783 11.4675 6.61279 11.4118 6.70469 11.344C7.42788 10.8185 8.05425 10.242 8.52344 9.66561C8.57424 9.60505 8.62022 9.54934 8.62501 9.54693L8.62987 9.54692ZM8.255 9.63896C8.26469 9.64865 7.98898 9.96106 7.80033 10.1524C7.33355 10.6295 6.8716 11.0025 6.29839 11.3658C6.22584 11.4118 6.16055 11.453 6.15328 11.4578C6.13634 11.4675 6.1581 11.4433 6.40964 11.1696C6.56928 10.9976 6.69019 10.8523 6.82805 10.6731C6.91995 10.5545 6.93689 10.5375 7.06993 10.443C7.42546 10.1863 8.24532 9.62926 8.255 9.63896Z" fill="url(#paint2_radial)"/>
<defs>
<linearGradient id="paint0_linear" x1="5.40729" y1="16.4174" x2="6.56515" y2="15.7342" gradientUnits="userSpaceOnUse">
<stop stop-color="#909CA9"/>
<stop offset="1" stop-color="#EDEDEE"/>
</linearGradient>
<linearGradient id="paint1_linear" x1="5.43378" y1="3.5103" x2="6.36475" y2="3.5103" gradientUnits="userSpaceOnUse">
<stop stop-color="#939FAB"/>
<stop offset="1" stop-color="#DCDEE1"/>
</linearGradient>
<radialGradient id="paint2_radial" cx="0" cy="0" r="1" gradientUnits="userSpaceOnUse" gradientTransform="translate(10.1315 7.78608) rotate(-171.446) scale(1.20032 2.40442)">
<stop stop-color="#EE352C"/>
<stop offset="1" stop-color="#A91D22"/>
</radialGradient>
</defs>
</svg>
