<svg xmlns="http://www.w3.org/2000/svg" viewBox="0 0 20 20"><defs><style>.b{fill:#fff}</style></defs><path fill="#555ba4" d="M0 0h20v20H0z"/><path class="b" d="M16.05 9a1.88 1.88 0 10-1.88-1.87A1.87 1.87 0 0016.05 9zm0-3.2a1.33 1.33 0 11-1.32 1.33 1.33 1.33 0 011.32-1.37zM6.2 8.09z"/><path class="b" d="M17.45 9.58h-2.72V9.3a.65.65 0 00-.65-.64h-2.6v-.8a1.83 1.83 0 00.87.21 1.88 1.88 0 000-3.75 1.84 1.84 0 00-.87.22V2.13L2 3.77v12.57l9.48 1.53v-2.35h1.23a2 2 0 001.85-1.22h1.51A1.92 1.92 0 0018 12.37v-2.24a.55.55 0 00-.55-.55zm-6-2.38v-2a1.32 1.32 0 110 2zM9 8l-1.7.05V13H6.2V8.09l-1.53.05v-.85L9 7.09zm5.16 5.5a1.46 1.46 0 01-1.45 1.5h-1.23V9.21h2.6a.09.09 0 01.09.09zm3.28-1.13a1.38 1.38 0 01-1.38 1.38h-1.35a2.11 2.11 0 000-.25v-3.37h2.72z"/></svg>