<svg  viewBox="0 0 20 20" fill="none" xmlns="http://www.w3.org/2000/svg">
<path d="M0 0H20V20H0V0Z" fill="#00678C"/>
<path d="M16.8382 14.3749C16.0208 14.3528 15.3873 14.4415 14.856 14.6854C14.7027 14.7518 14.4574 14.7519 14.437 14.9625C14.5187 15.0512 14.529 15.1954 14.6005 15.3173C14.7232 15.5389 14.9377 15.8383 15.1318 15.9936C15.3464 16.1709 15.561 16.3482 15.7857 16.5034C16.1843 16.7695 16.6339 16.9247 17.0222 17.1908C17.2471 17.3459 17.4717 17.5456 17.6965 17.7118C17.8089 17.8004 17.8804 17.9446 18.0235 18V17.9668C17.9519 17.867 17.9315 17.7229 17.86 17.612C17.758 17.5011 17.6557 17.4014 17.5535 17.2905C17.2572 16.8582 16.8893 16.4813 16.4909 16.1709C16.1639 15.927 15.4486 15.5944 15.3158 15.1842C15.3158 15.1842 15.3055 15.1732 15.2953 15.1621C15.5201 15.1399 15.7857 15.0512 16.0004 14.9847C16.3478 14.8849 16.6645 14.9071 17.0222 14.8073C17.1856 14.763 17.3491 14.7075 17.5126 14.6521V14.5524C17.3288 14.3528 17.1959 14.0868 17.0017 13.8983C16.4806 13.4104 15.9084 12.9338 15.3158 12.5347C14.999 12.313 14.5902 12.1689 14.2531 11.9804C14.1305 11.9139 13.9261 11.8807 13.8546 11.7698C13.6706 11.5259 13.5684 11.2045 13.4356 10.9162C13.1394 10.3064 12.8532 9.63024 12.5977 8.98732C12.4139 8.55492 12.3015 8.12253 12.0767 7.72352C11.0242 5.83892 9.87982 4.69708 8.12238 3.57735C7.74427 3.34459 7.29469 3.2448 6.81445 3.12291C6.55909 3.11176 6.30356 3.08965 6.04814 3.0785C5.88463 3.00089 5.72113 2.7903 5.57806 2.69051C4.99575 2.29138 3.49361 1.42678 3.06446 2.56862C2.78855 3.28915 3.47323 3.99859 3.70815 4.36453C3.88199 4.61947 4.10669 4.90767 4.22932 5.19593C4.30085 5.38428 4.32123 5.58398 4.39277 5.78348C4.55633 6.27112 4.7095 6.81445 4.92416 7.26902C5.03657 7.50178 5.15914 7.74563 5.30221 7.95629C5.38396 8.07818 5.52697 8.13368 5.55768 8.33318C5.41467 8.55492 5.4044 8.88753 5.32259 9.16465C4.95476 10.4174 5.09788 11.9693 5.61894 12.8894C5.78238 13.1665 6.17071 13.7764 6.69182 13.5435C7.15168 13.344 7.04949 12.7121 7.18222 12.1578C7.213 12.0247 7.19256 11.9361 7.25381 11.8474V11.8696C7.39688 12.1799 7.53989 12.4794 7.67274 12.7897C7.98953 13.3329 8.54124 13.8983 9.00104 14.2753C9.24636 14.4747 9.44046 14.8184 9.74703 14.9404V14.907H9.72653C9.66522 14.8073 9.57325 14.763 9.49155 14.6853C9.30767 14.4859 9.10323 14.2419 8.96022 14.0202C8.53114 13.3993 8.15297 12.7121 7.8158 12.0025C7.65236 11.659 7.50923 11.282 7.37644 10.9384C7.31507 10.8052 7.31507 10.6058 7.21294 10.5393C7.05965 10.7832 6.83489 10.9938 6.72248 11.2931C6.52844 11.7698 6.50794 12.3573 6.4364 12.967C6.39553 12.9782 6.41591 12.967 6.39547 12.9893C6.06858 12.9005 5.95617 12.5347 5.83348 12.2243C5.52691 11.4372 5.47581 10.1734 5.74157 9.26443C5.8131 9.0316 6.11967 8.29998 5.99704 8.07824C5.93573 7.86759 5.73129 7.74563 5.61894 7.57939C5.48615 7.36874 5.34302 7.10278 5.25111 6.86988C5.00585 6.24907 4.88322 5.56174 4.61759 4.94093C4.49496 4.65267 4.28047 4.35344 4.10669 4.08735C3.91259 3.78807 3.69799 3.57735 3.5447 3.22263C3.49367 3.10073 3.42207 2.90117 3.50383 2.76812C3.52426 2.67943 3.56508 2.64623 3.64689 2.62406C3.77974 2.50203 4.15785 2.65725 4.29058 2.72377C4.66868 2.88995 4.98541 3.0453 5.30221 3.27806C5.44521 3.38893 5.5985 3.59959 5.78238 3.65502H5.99699C6.324 3.73257 6.69176 3.6772 6.99834 3.77692C7.53995 3.96533 8.03034 4.24251 8.46976 4.54186C9.80835 5.46196 10.9118 6.7701 11.6578 8.33318C11.7804 8.58806 11.8314 8.82101 11.9438 9.08697C12.1585 9.63024 12.4241 10.1845 12.6386 10.7166C12.8532 11.2376 13.0575 11.7698 13.3641 12.2022C13.5174 12.4349 14.1304 12.5569 14.4063 12.6789C14.6107 12.7786 14.9275 12.8673 15.1114 12.9892C15.4588 13.2219 15.8062 13.4881 16.1332 13.743C16.2967 13.8761 16.8075 14.1532 16.8382 14.3749Z" fill="white"/>
<path d="M6.41581 4.74121C6.24215 4.74121 6.11958 4.76351 5.99695 4.79671V4.81888H6.01739C6.0992 4.99628 6.24215 5.11823 6.34428 5.27339C6.42609 5.45072 6.49757 5.62817 6.57938 5.80557C6.58954 5.79442 6.59976 5.78339 6.59976 5.78339C6.74288 5.67246 6.81436 5.49513 6.81436 5.22904C6.75304 5.1515 6.74282 5.07389 6.69173 4.99628C6.63047 4.88534 6.49757 4.82997 6.41581 4.74121Z" fill="white"/>
</svg>
