<svg xmlns="http://www.w3.org/2000/svg" viewBox="0 0 20 20"><path style="fill:#004482" d="M0 0h20v20H0z"/><path d="m3.91 5.36 4.94-2.85c.71-.41 1.59-.41 2.3 0l4.94 2.85c.71.41 1.15 1.17 1.15 1.99v5.7c0 .82-.44 1.58-1.15 1.99l-4.94 2.85c-.71.41-1.59.41-2.3 0l-4.94-2.85a2.301 2.301 0 0 1-1.15-1.99v-5.7c0-.82.44-1.58 1.15-1.99Zm8.16 6.04c-.41.71-1.19 1.19-2.07 1.19a2.39 2.39 0 1 1 1.98-3.73c.03.05.06.09.09.14l2.11-1.23a4.854 4.854 0 0 0-4.19-2.42c-2.67 0-4.84 2.17-4.84 4.84s2.17 4.84 4.84 4.84c1.79 0 3.35-.97 4.18-2.41l-2.12-1.22Z" style="fill:#fff"/></svg>