<svg xmlns="http://www.w3.org/2000/svg" viewBox="0 0 20 20">
  <rect width="100%" height="100%" fill="#1A1A1A"/>
  <path fill="#E0234E" fill-rule="evenodd" d="M11.2154 1.75c-.1193 0-.2301.0256-.3324.0597.2173.1448.3366.3366.3963.554.0043.0297.0128.051.0171.0809.0042.0255.0085.0511.0085.0767.017.375-.098.4218-.179.6434-.1236.2855-.0895.5923.0597.8395a.5039.5039 0 0 0 .0511.0937c-.1619-1.078.7372-1.24.9034-1.5766.0127-.294-.2301-.49-.4219-.6264-.1832-.1108-.3494-.1449-.5028-.1449Zm1.355.2429c-.017.098-.0042.0724-.0085.1236-.0042.034-.0042.0767-.0085.1108-.0085.034-.017.0681-.0298.1022a.9495.9495 0 0 1-.0341.1023c-.0171.034-.0298.0639-.0469.098-.0128.017-.0213.034-.0341.0511l-.0255.0384a1.4831 1.4831 0 0 1-.064.0852c-.0255.0256-.0468.0554-.0767.0767v.0043c-.0255.0213-.0511.0468-.0809.0681-.0895.0682-.1918.1194-.2855.1833-.0298.0213-.0597.0383-.0852.0639a.621.621 0 0 0-.081.0682c-.0298.0255-.0511.0511-.0767.081-.0213.0255-.0469.0553-.0639.0852-.0213.0298-.0426.0596-.0597.0894-.017.0341-.0298.064-.0469.098-.0127.0341-.0255.064-.034.098-.0128.0384-.0213.0725-.0299.1066-.0042.017-.0042.0383-.0085.0554-.0043.017-.0043.034-.0085.0511 0 .0341-.0043.0724-.0043.1065 0 .0256 0 .0512.0043.0767 0 .0341.0043.0682.0128.1066.0043.034.0128.0681.0213.1022.0128.0341.0213.0682.0341.1023.0085.0213.0213.0426.0298.0597l-.9801-.3793a10.4914 10.4914 0 0 0-.4943-.1278l-.2684-.064a7.9133 7.9133 0 0 0-.7755-.115c-.0085 0-.0128-.0042-.0213-.0042a7.6176 7.6176 0 0 0-.7628-.0384 8.039 8.039 0 0 0-.5582.0213c-.26.017-.5199.0511-.7798.0938-.0639.0085-.1278.0213-.1917.034a8.55 8.55 0 0 0-.3835.0853l-.1918.051c-.064.0257-.1236.0555-.1832.081l-.1406.064c-.0086.0042-.017.0042-.0213.0085-.0427.0213-.081.0383-.1194.0596a.2083.2083 0 0 0-.0298.0128 1.8785 1.8785 0 0 0-.132.0682c-.03.0128-.0597.0298-.0853.0426a.385.385 0 0 1-.0383.0213c-.0384.0213-.0768.0426-.1108.064a1.071 1.071 0 0 0-.1023.0639c-.0298.0213-.0597.0383-.0852.0596-.0043.0043-.0085.0043-.0128.0085a.9833.9833 0 0 0-.081.0597l-.0085.0085-.064.0511c-.0084.0043-.017.0128-.0255.017-.0213.0171-.0426.0384-.0639.0555-.0043.0085-.0128.0128-.017.017-.0256.0256-.0512.047-.0767.0725-.0043 0-.0043.0042-.0086.0085a1.1979 1.1979 0 0 0-.0767.0724c-.0042.0043-.0042.0085-.0085.0085a1.0015 1.0015 0 0 0-.0639.0682c-.0085.0085-.0213.017-.0298.0256-.0213.0256-.0469.0511-.0725.0767-.0042.0085-.0128.0128-.017.0213-.0341.034-.064.0682-.098.1023l-.0128.0128c-.0682.0724-.1406.1448-.2173.2087a2.4213 2.4213 0 0 1-.2386.1875 3.2231 3.2231 0 0 1-.2557.162 2.597 2.597 0 0 1-.2685.1278 3.0709 3.0709 0 0 1-.277.1023c-.179.0383-.3622.1108-.5198.1235-.0341 0-.0724.0086-.1065.0128-.0384.0085-.0725.017-.1066.0256l-.1022.0383a1.09 1.09 0 0 0-.1023.047c-.0298.0212-.064.0383-.0937.0596a.6963.6963 0 0 0-.0853.0724c-.0298.0213-.0596.0511-.0852.0767-.0256.0298-.0511.0554-.0724.0852-.0213.0341-.0469.064-.064.098a.7506.7506 0 0 0-.0596.098c-.017.0384-.034.0725-.0469.1108-.0128.0341-.0255.0725-.0383.1108-.0085.0341-.017.0682-.0213.1023 0 .0043-.0043.0085-.0043.0128-.0085.0383-.0085.0895-.0128.115-.0042.0298-.0085.0554-.0085.0852 0 .0171 0 .0384.0043.0554a.4518.4518 0 0 0 .017.081.568.568 0 0 0 .0298.0767v.0043a.7396.7396 0 0 0 .047.0767c.017.0255.034.0511.0553.0767.0213.0213.0469.0468.0725.0682a.624.624 0 0 0 .081.0681c.1022.0895.1278.1193.2598.1875.0213.0128.0427.0213.0682.0341.0043 0 .0085.0043.0128.0043 0 .0085 0 .0128.0043.0213a.873.873 0 0 0 .0213.1022.5751.5751 0 0 0 .034.1023c.0129.0256.0214.0511.0342.0767.0042.0085.0085.017.0128.0213.017.0341.034.064.051.0938l.064.0895c.0213.0255.0469.0553.0724.081.0256.0255.0512.0468.081.0724 0 0 .0043.0042.0085.0042.0256.0213.0511.0426.0767.0597a.6778.6778 0 0 0 .0938.0554c.0298.017.0639.034.098.0469.0255.0127.0554.0213.0852.0298.0043.0043.0085.0043.017.0085.017.0043.0384.0085.0554.0128-.0128.23-.017.4474.017.5241.0384.0852.226-.1747.4134-.473-.0255.294-.0426.6392 0 .7415.0469.1065.3026-.2259.5241-.5923 3.0212-.6989 5.7782 1.3891 6.068 4.3378-.0555-.4602-.6222-.7159-.8821-.652-.1279.3154-.3452.7202-.6946.9716a2.732 2.732 0 0 0-.0426-.8522c-.0938.392-.277.7584-.5284 1.0738-.4048.0298-.8096-.1662-1.0227-.4602-.017-.0128-.0213-.0384-.034-.0554-.0129-.0299-.0256-.0597-.0342-.0895a.3544.3544 0 0 1-.0255-.0895c-.0043-.0298-.0043-.0597-.0043-.0937v-.064a.6801.6801 0 0 1 .0213-.0894.729.729 0 0 1 .0298-.0895c.017-.0299.0299-.0597.0512-.0895.0724-.2046.0724-.3707-.0597-.4687a.4833.4833 0 0 0-.081-.0427c-.017-.0042-.0383-.0127-.0553-.017-.0128-.0043-.0213-.0085-.0341-.0128a.6913.6913 0 0 0-.0895-.0213.3253.3253 0 0 0-.0895-.0128.7068.7068 0 0 0-.0937-.0085c-.0213 0-.0427.0043-.064.0043a.3294.3294 0 0 0-.0937.0128.6555.6555 0 0 0-.0895.017.7441.7441 0 0 0-.0895.0298c-.0298.0128-.0554.0256-.0852.0384-.0256.0128-.0511.0298-.081.0426-.9928.6477-.4005 2.1647.277 2.6036-.2557.0468-.5156.1022-.588.1576l-.0085.0085c.1832.1108.375.2046.5752.2855.2727.0895.5625.1705.6903.2046v.0042a4.12 4.12 0 0 0 1.0738.0767c1.8877-.1321 3.4345-1.5681 3.7158-3.46.0085.0383.017.0724.0255.1108.0128.0767.0299.1576.0384.2386v.0043c.0085.0383.0128.0767.017.1108v.017c.0043.0384.0085.0767.0085.1108.0043.0469.0086.0937.0086.1406v.0682c0 .0213.0042.0469.0042.0682 0 .0255-.0042.0511-.0042.0767v.0596c0 .0299-.0043.0554-.0043.0853 0 .017 0 .034-.0043.0554 0 .0298-.0042.0596-.0042.0937-.0043.0128-.0043.0256-.0043.0383-.0043.0341-.0085.064-.0128.0981 0 .0127 0 .0255-.0043.0383-.0042.0426-.0128.081-.017.1236v.0085c-.0085.0384-.0171.081-.0256.1193v.0128a47.477 47.477 0 0 1-.0256.1151c0 .0042-.0042.0127-.0042.017a1.1596 1.1596 0 0 1-.0298.1151v.0127c-.0128.0427-.0256.081-.0341.1194-.0043.0042-.0043.0085-.0043.0085l-.0384.1278c-.017.0426-.0298.081-.0468.1236-.0171.0426-.0299.0852-.0469.1236-.0171.0426-.0341.0809-.0511.1235h-.0043c-.0171.0384-.0341.081-.0554.1193a.207.207 0 0 1-.0128.0299c-.0043.0042-.0043.0085-.0085.0128-.277.5582-.686 1.0482-1.1974 1.4317-.034.0213-.0682.0469-.1022.0724-.0086.0086-.0214.0128-.0299.0213a1.7283 1.7283 0 0 1-.0937.064l.0128.0255h.0042l.179-.0255h.0043a9.218 9.218 0 0 0 .3323-.0597.7537.7537 0 0 0 .0938-.0213c.0213-.0043.0383-.0085.0596-.0128.0299-.0043.0597-.0128.0895-.017.0256-.0085.0511-.0128.0767-.0213.4261-.1023.8395-.2429 1.2357-.4091-.6775.9247-1.5851 1.6704-2.6461 2.1604.49-.0341.98-.1151 1.453-.2514 1.7173-.5071 3.1618-1.6619 4.0268-3.2172a6.8014 6.8014 0 0 1-1.1462 2.7399 6.7117 6.7117 0 0 0 1.1377-.9459 6.7537 6.7537 0 0 0 1.7939-3.622 6.7853 6.7853 0 0 1 .1236 2.0539c3.0766-4.291.2557-8.7397-.9247-9.9115-.0042-.0085-.0085-.0128-.0085-.0213-.0042.0043-.0043.0043-.0043.0085 0-.0042 0-.0042-.0042-.0085 0 .0511-.0043.1023-.0085.1534a5.8096 5.8096 0 0 1-.0426.2855c-.0213.0938-.0469.1875-.0725.2813a3.5133 3.5133 0 0 1-.1023.2727 3.6249 3.6249 0 0 1-.1278.2599c-.0469.081-.098.1662-.1534.2429a3.2451 3.2451 0 0 1-.1747.23c-.0639.0768-.1321.145-.2003.2131a2.749 2.749 0 0 1-.1235.1066c-.0341.0298-.064.0554-.098.0852a2.382 2.382 0 0 1-.2387.1662c-.0809.0511-.1662.1022-.2514.1449a7.3882 7.3882 0 0 1-.2684.1193 3.007 3.007 0 0 1-.277.0894 3.4422 3.4422 0 0 1-.2855.064c-.098.017-.196.0255-.2898.034a3.2708 3.2708 0 0 1-.2045.0086c-.098 0-.196-.0085-.2898-.017-.098-.0086-.196-.0214-.2897-.0427a2.1534 2.1534 0 0 1-.2855-.0724h-.0043c.0938-.0085.1875-.017.2813-.0341.098-.017.1917-.0384.2855-.064a3.002 3.002 0 0 0 .2769-.0894c.0938-.0341.1833-.0767.2685-.1193.0895-.0427.1704-.0895.2557-.1406.0809-.0554.1619-.1108.2386-.1705a2.3314 2.3314 0 0 0 .2173-.1917c.0724-.064.1364-.1364.2003-.2088a4.2167 4.2167 0 0 0 .1789-.2302c.0086-.0127.0171-.0298.0256-.0426.0426-.0681.0852-.1363.1236-.2045a2.9446 2.9446 0 0 0 .2301-.5326c.0298-.0895.0511-.1833.0724-.277.0171-.098.0341-.1918.0426-.2855.0085-.098.0171-.196.0171-.2898 0-.0681-.0043-.1363-.0085-.2045a5.8943 5.8943 0 0 0-.0341-.2855 3.1281 3.1281 0 0 0-.0639-.2855c-.0299-.0895-.0597-.1832-.0938-.2727-.0341-.0895-.0767-.179-.1193-.2642-.0469-.0852-.0937-.1704-.1449-.2514a4.7429 4.7429 0 0 0-.1704-.2344 9.1534 9.1534 0 0 0-.196-.2173 2.7053 2.7053 0 0 0-.1108-.1065 7.8697 7.8697 0 0 0-.5923-.4176.802.802 0 0 0-.0852-.0426c-.1407-.0895-.2728-.1364-.4049-.179Z" clip-rule="evenodd"/>
</svg>
