<svg viewBox="0 0 20 20" fill="none" xmlns="http://www.w3.org/2000/svg">
<path d="M0 0H20V20H0V0Z" fill="black"/>
<path fill-rule="evenodd" clip-rule="evenodd" d="M11.2434 3C11.1421 3 11.0481 3.02169 10.9614 3.05062C11.1457 3.17354 11.247 3.33624 11.2976 3.52064C11.3012 3.54594 11.3084 3.56402 11.3121 3.58933C11.3157 3.61102 11.3193 3.63272 11.3193 3.65441C11.3338 3.97258 11.2361 4.01235 11.1674 4.20035C11.0626 4.44259 11.0915 4.70291 11.2181 4.91261C11.2289 4.93792 11.2434 4.96684 11.2614 4.99215C11.124 4.07743 11.8869 3.94004 12.0279 3.65441C12.0388 3.40494 11.8327 3.23862 11.67 3.12293C11.5145 3.02892 11.3735 3 11.2434 3V3ZM12.3931 3.20608C12.3786 3.28924 12.3895 3.26755 12.3859 3.31094C12.3823 3.33986 12.3823 3.37601 12.3786 3.40494C12.3714 3.43386 12.3642 3.46279 12.3533 3.49171C12.3461 3.52064 12.3353 3.54956 12.3244 3.57848C12.3099 3.60741 12.2991 3.63272 12.2846 3.66164C12.2738 3.67611 12.2666 3.69056 12.2557 3.70503C12.2485 3.71587 12.2413 3.72672 12.234 3.73757C12.2159 3.76288 12.1979 3.78818 12.1798 3.80988C12.1581 3.83157 12.14 3.85688 12.1147 3.87496V3.87858C12.093 3.89665 12.0713 3.91835 12.046 3.93642C11.9701 3.99427 11.8833 4.03766 11.8038 4.09189C11.7785 4.10997 11.7532 4.12443 11.7315 4.14613C11.7062 4.1642 11.6845 4.18228 11.6628 4.20397C11.6375 4.22567 11.6194 4.24736 11.5977 4.27267C11.5796 4.29436 11.5579 4.31967 11.5435 4.34498C11.5254 4.37029 11.5073 4.3956 11.4928 4.4209C11.4784 4.44983 11.4675 4.47514 11.4531 4.50406C11.4422 4.53298 11.4314 4.55829 11.4241 4.58722C11.4133 4.61976 11.4061 4.64868 11.3988 4.67761C11.3952 4.69208 11.3952 4.71015 11.3916 4.72461C11.388 4.73908 11.388 4.75353 11.3844 4.768C11.3844 4.79692 11.3808 4.82946 11.3808 4.85838C11.3808 4.88008 11.3808 4.90177 11.3844 4.92346C11.3844 4.95239 11.388 4.98131 11.3952 5.01385C11.3989 5.04277 11.4061 5.0717 11.4133 5.10062C11.4242 5.12955 11.4314 5.15847 11.4422 5.18739C11.4495 5.20547 11.4603 5.22355 11.4675 5.23801L10.636 4.91623C10.495 4.87646 10.3576 4.84031 10.2166 4.80777C10.1406 4.78969 10.0647 4.77161 9.9888 4.75353C9.77187 4.71015 9.55132 4.67761 9.33077 4.65591C9.32355 4.65591 9.31993 4.65229 9.3127 4.65229C9.09576 4.6306 8.88245 4.61976 8.66552 4.61976C8.50643 4.61976 8.34735 4.62698 8.19188 4.63783C7.97134 4.6523 7.75079 4.68122 7.53024 4.71737C7.47601 4.7246 7.42178 4.73545 7.36754 4.7463C7.25546 4.76799 7.147 4.7933 7.04215 4.81861C6.98791 4.83308 6.93368 4.84753 6.87945 4.86199C6.82522 4.88369 6.7746 4.909 6.72398 4.93069C6.68421 4.94877 6.64444 4.96684 6.60467 4.98492C6.59744 4.98854 6.5902 4.98854 6.58659 4.99215C6.55044 5.01023 6.5179 5.02469 6.48536 5.04277C6.47451 5.04639 6.46728 5.04999 6.46005 5.05361C6.42028 5.07169 6.38051 5.09338 6.34797 5.11146C6.32266 5.12231 6.29735 5.13677 6.27566 5.14762C6.26481 5.15484 6.25035 5.16208 6.24312 5.16569C6.21058 5.18377 6.17804 5.20185 6.14911 5.21993C6.11657 5.238 6.08765 5.25608 6.06234 5.27416C6.03703 5.29224 6.01172 5.3067 5.99003 5.32477C5.98641 5.32839 5.9828 5.3284 5.97918 5.332C5.95749 5.34647 5.93218 5.36454 5.91049 5.38262C5.91049 5.38262 5.90687 5.38624 5.90326 5.38984C5.88519 5.40431 5.86711 5.41877 5.84903 5.43323C5.8418 5.43685 5.83456 5.44408 5.82734 5.4477C5.80926 5.46217 5.79118 5.48024 5.77311 5.4947C5.76948 5.50193 5.76226 5.50555 5.75864 5.50917C5.73694 5.53086 5.71525 5.54894 5.69356 5.57063C5.68994 5.57063 5.68994 5.57425 5.68633 5.57786C5.66464 5.59593 5.64295 5.61763 5.62125 5.63932C5.61763 5.64294 5.61763 5.64655 5.61403 5.64655C5.59595 5.66462 5.57787 5.6827 5.55979 5.70439C5.55257 5.71162 5.54172 5.71886 5.53449 5.72609C5.51641 5.74778 5.49472 5.76947 5.47302 5.79117C5.4694 5.79839 5.46218 5.80201 5.45855 5.80924C5.42963 5.83817 5.40432 5.86709 5.3754 5.89602C5.37178 5.89964 5.36817 5.90324 5.36455 5.90686C5.3067 5.96833 5.24524 6.02979 5.18016 6.08402C5.11508 6.14187 5.04639 6.1961 4.97769 6.24311C4.90538 6.29372 4.83669 6.33711 4.76076 6.3805C4.68845 6.42027 4.61252 6.45642 4.53298 6.48896C4.45705 6.5215 4.37751 6.55043 4.29797 6.57573C4.14612 6.60827 3.99065 6.66974 3.85688 6.68058C3.82795 6.68058 3.79541 6.68781 3.76649 6.69143C3.73395 6.69866 3.70503 6.7059 3.6761 6.71312C3.64718 6.72397 3.61825 6.73482 3.58933 6.74566C3.56041 6.75651 3.53148 6.77097 3.50256 6.78543C3.47725 6.80351 3.44833 6.81797 3.42302 6.83605C3.39771 6.85413 3.3724 6.87582 3.35071 6.89752C3.3254 6.91559 3.30009 6.9409 3.27839 6.96259C3.2567 6.98791 3.23501 7.0096 3.21693 7.0349C3.19885 7.06383 3.17716 7.08914 3.1627 7.11806C3.14462 7.14337 3.12654 7.1723 3.11208 7.20122C3.09761 7.23376 3.08316 7.26268 3.07231 7.29522C3.06146 7.32415 3.05062 7.35669 3.03977 7.38923C3.03254 7.41815 3.0253 7.44707 3.02169 7.476C3.02169 7.47962 3.01807 7.48322 3.01807 7.48684C3.01085 7.51939 3.01085 7.56277 3.00723 7.58447C3.0036 7.60977 3 7.63147 3 7.65678C3 7.67124 3 7.68932 3.00362 7.70378C3.00724 7.72909 3.01085 7.75078 3.01809 7.77247C3.02531 7.79416 3.03256 7.81586 3.0434 7.83755V7.84117C3.05424 7.86287 3.06871 7.88456 3.08317 7.90625C3.09763 7.92795 3.11209 7.94964 3.13017 7.97133C3.14825 7.98941 3.16994 8.0111 3.19163 8.02918C3.21333 8.05087 3.23502 8.06895 3.26033 8.08703C3.3471 8.16295 3.36879 8.18826 3.48088 8.24611C3.49895 8.25696 3.51703 8.26419 3.53872 8.27504C3.54235 8.27504 3.54595 8.27866 3.54957 8.27866C3.54957 8.28588 3.54957 8.2895 3.55319 8.29674C3.55681 8.32566 3.56404 8.35458 3.57127 8.38351C3.5785 8.41605 3.58935 8.44497 3.6002 8.47028C3.61104 8.49197 3.61827 8.51367 3.62912 8.53536C3.63274 8.54259 3.63634 8.54983 3.63997 8.55344C3.65443 8.58236 3.66889 8.60767 3.68335 8.63298C3.70143 8.65829 3.71951 8.68359 3.73758 8.70891C3.75566 8.7306 3.77735 8.75591 3.79905 8.7776C3.82074 8.79929 3.84243 8.81737 3.86774 8.83906C3.86774 8.83906 3.87137 8.84269 3.87497 8.84269C3.89666 8.86077 3.91836 8.87884 3.94005 8.8933C3.96536 8.91138 3.99067 8.92584 4.01959 8.94031C4.0449 8.95477 4.07382 8.96923 4.10275 8.98008C4.12444 8.99092 4.14975 8.99816 4.17506 9.00539C4.17868 9.00901 4.18228 9.00901 4.18953 9.01261C4.20399 9.01624 4.22206 9.01984 4.23653 9.02346C4.22568 9.2187 4.22206 9.40309 4.25099 9.46817C4.28353 9.54048 4.44262 9.31993 4.6017 9.06685C4.58001 9.31632 4.56554 9.60917 4.6017 9.69595C4.64147 9.78633 4.8584 9.50432 5.04641 9.19339C7.60981 8.60044 9.94906 10.372 10.1949 12.874C10.1479 12.4835 9.66704 12.2666 9.4465 12.3208C9.33803 12.5884 9.15364 12.9318 8.85717 13.1452C8.88248 12.9065 8.87164 12.6607 8.82101 12.422C8.74147 12.7547 8.586 13.0656 8.37269 13.3332C8.02921 13.3585 7.68574 13.1922 7.50496 12.9427C7.49049 12.9318 7.48688 12.9101 7.47604 12.8957C7.46519 12.8704 7.45434 12.8451 7.44711 12.8198C7.43627 12.7944 7.42904 12.7691 7.42542 12.7438C7.4218 12.7185 7.4218 12.6932 7.4218 12.6643C7.4218 12.6462 7.4218 12.6281 7.4218 12.6101C7.42542 12.5847 7.43265 12.5594 7.43988 12.5341C7.4471 12.5088 7.45434 12.4835 7.46519 12.4582C7.47965 12.4329 7.49049 12.4076 7.50857 12.3823C7.57004 12.2087 7.57004 12.0677 7.45795 11.9846C7.43626 11.9701 7.41457 11.9593 7.38926 11.9484C7.37479 11.9448 7.35672 11.9376 7.34226 11.9339C7.33141 11.9303 7.32418 11.9267 7.31333 11.9231C7.28802 11.9159 7.26272 11.9086 7.23741 11.905C7.2121 11.8978 7.18679 11.8942 7.16148 11.8942C7.13617 11.8906 7.10725 11.887 7.08194 11.887C7.06386 11.887 7.04578 11.8906 7.02771 11.8906C6.99878 11.8906 6.97347 11.8942 6.94817 11.9014C6.92286 11.905 6.89755 11.9086 6.87224 11.9159C6.84693 11.9231 6.82162 11.9304 6.79631 11.9412C6.77101 11.952 6.74931 11.9629 6.724 11.9737C6.70231 11.9846 6.68062 11.999 6.65531 12.0099C5.81289 12.5594 6.31545 13.8466 6.89032 14.219C6.67339 14.2587 6.45284 14.3057 6.39138 14.3527C6.38775 14.3564 6.38415 14.36 6.38415 14.36C6.53962 14.454 6.70232 14.5335 6.87224 14.6022C7.10364 14.6781 7.34949 14.7468 7.45796 14.7758V14.7794C7.75805 14.8408 8.06175 14.8625 8.36907 14.8445C9.97075 14.7324 11.2832 13.5139 11.5218 11.9087C11.529 11.9412 11.5363 11.9701 11.5435 12.0027C11.5543 12.0677 11.5688 12.1364 11.576 12.2051V12.2088C11.5833 12.2413 11.5869 12.2738 11.5905 12.3028V12.3172C11.5941 12.3498 11.5977 12.3823 11.5977 12.4112C11.6014 12.451 11.605 12.4908 11.605 12.5305V12.5884C11.605 12.6065 11.6086 12.6282 11.6086 12.6462C11.6086 12.6679 11.605 12.6896 11.605 12.7113V12.7619C11.605 12.7872 11.6013 12.8089 11.6013 12.8342C11.6013 12.8487 11.6013 12.8632 11.5977 12.8812C11.5977 12.9066 11.5941 12.9319 11.5941 12.9608C11.5905 12.9716 11.5905 12.9825 11.5905 12.9933C11.5868 13.0222 11.5832 13.0476 11.5796 13.0765C11.5796 13.0873 11.5796 13.0982 11.576 13.109C11.5724 13.1452 11.5652 13.1777 11.5615 13.2139V13.2175V13.2211C11.5543 13.2537 11.5471 13.2898 11.5398 13.3224V13.3332C11.5326 13.3657 11.5254 13.3983 11.5181 13.4308C11.5181 13.4344 11.5145 13.4417 11.5145 13.4453C11.5073 13.4778 11.5001 13.5104 11.4892 13.5429V13.5538C11.4784 13.5899 11.4675 13.6224 11.4603 13.655C11.4567 13.6586 11.4567 13.6622 11.4567 13.6622C11.4458 13.6984 11.435 13.7345 11.4241 13.7707C11.4097 13.8068 11.3988 13.8394 11.3844 13.8755C11.3699 13.9117 11.3591 13.9478 11.3446 13.9804C11.3301 14.0165 11.3157 14.0491 11.3012 14.0852H11.2976C11.2831 14.1178 11.2687 14.1539 11.2506 14.1865C11.247 14.1973 11.2434 14.2045 11.2397 14.2118C11.2361 14.2154 11.2361 14.219 11.2325 14.2226C10.9975 14.6962 10.6504 15.112 10.2165 15.4374C10.1876 15.4555 10.1587 15.4772 10.1298 15.4989C10.1225 15.5061 10.1117 15.5097 10.1045 15.517C10.0792 15.535 10.0538 15.5531 10.0249 15.5712L10.0358 15.5929H10.0394C10.09 15.5857 10.1406 15.5784 10.1912 15.5712H10.1949C10.2889 15.5567 10.3829 15.5387 10.4769 15.5206C10.5022 15.517 10.5311 15.5097 10.5564 15.5025C10.5745 15.4989 10.589 15.4953 10.607 15.4917C10.6323 15.488 10.6576 15.4808 10.683 15.4772C10.7047 15.47 10.7263 15.4663 10.748 15.4591C11.1096 15.3723 11.4603 15.253 11.7965 15.112C11.2217 15.8966 10.4516 16.5293 9.5513 16.9451C9.96708 16.9162 10.3829 16.8475 10.7842 16.7318C12.2412 16.3015 13.4669 15.3217 14.2009 14.0021C14.0526 14.8372 13.72 15.6327 13.2283 16.3268C13.579 16.0954 13.9008 15.8279 14.1936 15.5242C15.0035 14.6782 15.535 13.6044 15.7158 12.451C15.8387 13.0223 15.8748 13.6116 15.8206 14.1937C18.431 10.5529 16.0375 6.77825 15.036 5.78398C15.0324 5.77676 15.0288 5.77314 15.0288 5.76591C15.0252 5.76953 15.0252 5.76953 15.0252 5.77313C15.0252 5.76951 15.0252 5.76951 15.0216 5.76591C15.0216 5.80929 15.018 5.85268 15.0143 5.89606C15.0035 5.97922 14.9927 6.05876 14.9782 6.1383C14.9601 6.21785 14.9384 6.29738 14.9167 6.37693C14.8914 6.45285 14.8625 6.53239 14.83 6.60832C14.7974 6.68063 14.7613 6.75656 14.7215 6.82887C14.6817 6.89756 14.6383 6.96987 14.5913 7.03495C14.5443 7.10365 14.4937 7.16873 14.4431 7.23019C14.3889 7.29527 14.331 7.35312 14.2732 7.41097C14.237 7.44351 14.2045 7.47243 14.1683 7.50135C14.1394 7.52666 14.1141 7.54836 14.0852 7.57366C14.0201 7.62428 13.955 7.67128 13.8827 7.71467C13.814 7.75806 13.7417 7.80144 13.6694 7.8376C13.5934 7.87375 13.5175 7.90629 13.4416 7.93883C13.3657 7.96776 13.2861 7.99307 13.2066 8.01476C13.127 8.03645 13.0439 8.05453 12.9643 8.06899C12.8812 8.08346 12.798 8.09068 12.7185 8.09792C12.6606 8.10154 12.6028 8.10514 12.5449 8.10514C12.4618 8.10514 12.3786 8.09792 12.2991 8.09067C12.2159 8.08345 12.1328 8.07259 12.0532 8.05452C11.9701 8.04005 11.8905 8.01836 11.811 7.99306H11.8074C11.8869 7.98583 11.9665 7.97859 12.046 7.96413C12.1292 7.94966 12.2087 7.93159 12.2882 7.9099C12.3678 7.8882 12.4473 7.86289 12.5232 7.83397C12.6028 7.80505 12.6787 7.76889 12.751 7.73274C12.827 7.69658 12.8956 7.65681 12.968 7.61342C13.0367 7.56642 13.1053 7.51942 13.1704 7.4688C13.2355 7.41819 13.297 7.36395 13.3548 7.30611C13.4163 7.25187 13.4705 7.19041 13.5247 7.12894C13.579 7.06387 13.6296 6.99879 13.6766 6.93371C13.6838 6.92286 13.6911 6.9084 13.6983 6.89755C13.7344 6.8397 13.7706 6.78185 13.8031 6.72401C13.8429 6.6517 13.8791 6.57938 13.9116 6.50346C13.9441 6.42753 13.9731 6.35161 13.9984 6.27207C14.0237 6.19614 14.0418 6.1166 14.0598 6.03706C14.0743 5.9539 14.0888 5.87436 14.096 5.79482C14.1032 5.71166 14.1105 5.6285 14.1105 5.54896C14.1105 5.49111 14.1068 5.43327 14.1032 5.37542C14.096 5.29226 14.0852 5.21272 14.0743 5.13318C14.0599 5.05002 14.0418 4.97048 14.0201 4.89094C13.9948 4.81501 13.9695 4.73547 13.9405 4.65955C13.9116 4.58362 13.8755 4.50769 13.8393 4.43538C13.7995 4.36307 13.7598 4.29076 13.7164 4.22207C13.6694 4.15337 13.6224 4.08829 13.5718 4.02321C13.5175 3.96175 13.4633 3.90028 13.4054 3.83882C13.3765 3.8099 13.344 3.77736 13.3114 3.74843C13.1487 3.62189 12.9788 3.50258 12.8089 3.39411C12.7836 3.37964 12.7619 3.3688 12.7366 3.35796C12.6173 3.28203 12.5052 3.24226 12.3931 3.2061L12.3931 3.20608Z" fill="#E0234E"/>
</svg>
