<svg viewBox="0 0 20 20" fill="none" xmlns="http://www.w3.org/2000/svg">
<path d="M0 0H20V20H0V0Z" fill="#FAFAFA"/>
<path d="M5.77528 7.52299H8.79305V7.7634H6.05198V9.57254H8.62957V9.81295H6.05198V11.7992H8.82447V12.0396H5.77528V7.52299ZM9.06336 7.52299H9.38404L10.8049 9.50927L12.2572 7.52299L14.2325 5L10.9872 9.71804L12.6596 12.0396H12.3263L10.8049 9.92681L9.27722 12.0396H8.95025L10.6351 9.71804L9.06336 7.52299ZM12.7791 7.7634V7.52299H16.2179V7.7634H14.6337V12.0395H14.357V7.7634H12.7791ZM2 7.52299H2.34582L7.11391 14.6737L5.14345 12.0396L2.28916 7.86458L2.27659 12.0396H2V7.52299ZM16.1902 11.7266C16.1335 11.7266 16.0912 11.6828 16.0912 11.6261C16.0912 11.5693 16.1335 11.5255 16.1901 11.5255C16.2473 11.5255 16.289 11.5693 16.289 11.6261C16.289 11.6828 16.2474 11.7266 16.1902 11.7266ZM16.4619 11.462H16.61C16.6121 11.5424 16.6707 11.5963 16.7567 11.5963C16.8529 11.5963 16.9074 11.5383 16.9074 11.4296V10.741H17.0581V11.4302C17.0581 11.6261 16.9451 11.7389 16.758 11.7389C16.5825 11.7389 16.4619 11.6295 16.4619 11.462ZM17.2552 11.4533H17.4046C17.4174 11.5457 17.5075 11.6044 17.6374 11.6044C17.7584 11.6044 17.8472 11.5416 17.8472 11.4553C17.8472 11.381 17.7908 11.3364 17.6622 11.3061L17.5371 11.2757C17.3616 11.2346 17.2814 11.1494 17.2814 11.0063C17.2814 10.8327 17.4227 10.7172 17.6346 10.7172C17.8317 10.7172 17.9758 10.8327 17.9845 10.9968H17.8378C17.8237 10.9071 17.7457 10.8509 17.6326 10.8509C17.5135 10.8509 17.4341 10.9084 17.4341 10.9961C17.4341 11.0657 17.4853 11.1055 17.6118 11.1352L17.7188 11.1615C17.9179 11.2081 18 11.2892 18 11.4356C18 11.622 17.8559 11.7389 17.6259 11.7389C17.4106 11.7389 17.2659 11.6275 17.2552 11.4533Z" fill="black"/>
</svg>
