<svg  viewBox="0 0 20 20" fill="none" xmlns="http://www.w3.org/2000/svg">
<path d="M0 0H20V20H0V0Z" fill="#0082C9"/>
<path d="M10.0122 6C8.35374 6 6.94807 7.12432 6.51241 8.64764C6.13377 7.83965 5.31325 7.27358 4.36815 7.27358C3.06842 7.27358 2 8.342 2 9.64173C2 10.9415 3.06842 12.0104 4.36815 12.0104C5.31325 12.0104 6.13377 11.444 6.51241 10.6358C6.94807 12.1593 8.35374 13.2839 10.0122 13.2839C11.6584 13.2839 13.0569 12.1762 13.5037 10.67C13.8893 11.4598 14.6997 12.0104 15.6314 12.0104C16.9311 12.0104 18 10.9415 18 9.64173C18 8.342 16.9311 7.27358 15.6314 7.27358C14.6997 7.27358 13.8893 7.82385 13.5037 8.6135C13.0569 7.10736 11.6584 6 10.0122 6ZM10.0122 7.39016C11.2641 7.39016 12.2643 8.38979 12.2643 9.64173C12.2643 10.8937 11.2641 11.8938 10.0122 11.8938C8.76026 11.8938 7.76063 10.8937 7.76063 9.64173C7.76063 8.38979 8.76026 7.39016 10.0122 7.39016ZM4.36815 8.66374C4.91665 8.66374 5.34663 9.09323 5.34663 9.64173C5.34663 10.1902 4.91665 10.6202 4.36815 10.6202C3.81964 10.6202 3.39016 10.1902 3.39016 9.64173C3.39016 9.09323 3.81964 8.66374 4.36815 8.66374ZM15.6314 8.66374C16.1799 8.66374 16.6098 9.09323 16.6098 9.64173C16.6098 10.1902 16.1799 10.6202 15.6314 10.6202C15.0829 10.6202 14.6534 10.1902 14.6534 9.64173C14.6534 9.09323 15.0829 8.66374 15.6314 8.66374Z" fill="white"/>
</svg>
