<svg viewBox="0 0 20 20" fill="none" xmlns="http://www.w3.org/2000/svg">
<path d="M0 0H20V20H0V0Z" fill="#222222"/>
<path d="M3.10862 13.9363C3.18055 14.0615 3.28488 14.165 3.41065 14.236L9.5893 17.8032L9.58949 17.803C9.71398 17.8762 9.85573 17.9147 10.0001 17.9147C10.1445 17.9147 10.2862 17.8762 10.4107 17.803L16.5896 14.2358C16.7151 14.1646 16.8193 14.0611 16.8915 13.9362C16.9636 13.8112 17.0011 13.6692 17 13.5249V6.3904L16.9998 6.39021C17.0009 6.24585 16.9634 6.10382 16.8912 5.97881C16.819 5.8538 16.7147 5.75033 16.5892 5.67911L10.4103 2.11186V2.11167C10.2859 2.03855 10.1443 2 10 2C9.85573 2 9.71407 2.03855 9.58968 2.11167V2.11186L3.41103 5.67911C3.28541 5.75028 3.18108 5.85373 3.10886 5.97875C3.03663 6.10377 2.99913 6.24582 3.00023 6.39021L3.00004 6.3904V13.5249C2.99865 13.6693 3.03609 13.8113 3.10843 13.9363" fill="#009639"/>
<path d="M8.02174 12.6736C8.02174 12.8844 7.93802 13.0865 7.78901 13.2355C7.63999 13.3845 7.43788 13.4682 7.22713 13.4682C7.01639 13.4682 6.81428 13.3845 6.66526 13.2355C6.51624 13.0865 6.43253 12.8844 6.43253 12.6736L6.43272 12.6738L6.43349 7.21918C6.43349 6.79661 6.80688 6.44714 7.33572 6.44714C7.54057 6.44452 7.74355 6.48647 7.93058 6.5701C8.11761 6.65372 8.28421 6.77702 8.41885 6.93143L8.65896 7.2188L11.9786 11.1914V7.24137H11.9782C11.9785 7.03086 12.0624 6.82909 12.2114 6.68035C12.3604 6.53162 12.5623 6.44809 12.7728 6.44809C12.9833 6.44809 13.1852 6.53162 13.3342 6.68035C13.4832 6.82909 13.5671 7.03086 13.5674 7.24137H13.5672L13.5664 12.6956C13.5664 13.1182 13.1929 13.4677 12.6642 13.4677C12.4594 13.4703 12.2564 13.4284 12.0693 13.3448C11.8823 13.2612 11.7157 13.1378 11.5811 12.9834L8.02135 8.72334V12.6738L8.02174 12.6736Z" fill="white"/>
</svg>