<svg viewBox="0 0 20 20" xmlns="http://www.w3.org/2000/svg">
<rect width="100%" height="100%" fill="#E30013"/>
<path d="M5.99724 3.04637C4.60269 3.29566 3.48066 4.32759 3.12695 5.68417C2.99938 6.17405 2.99069 6.46102 3.00518 10.2612C3.01388 13.7512 3.01678 13.8323 3.07477 14.1019C3.39659 15.5542 4.42873 16.589 5.89576 16.931C6.08712 16.9745 6.33066 16.9832 7.89917 16.9919C9.52276 17.0035 9.69092 17.0006 9.73441 16.9571C9.7779 16.9136 9.7808 16.3542 9.7808 10.0119C9.7808 5.31024 9.7721 3.09565 9.75181 3.05507C9.72281 3.00289 9.67352 3 7.97455 3.00289C6.59449 3.00579 6.17989 3.01449 5.99724 3.04637ZM8.62109 15.8759L7.44108 15.8614C6.35385 15.8498 6.23788 15.844 6.02043 15.789C5.08687 15.5484 4.39394 14.8295 4.19969 13.8932C4.1359 13.6005 4.1359 6.38855 4.19679 6.10158C4.37074 5.28705 4.9361 4.61166 5.69861 4.3073C6.08132 4.15367 6.25817 4.13628 7.49907 4.13338L8.62109 4.13048V15.8759Z" fill="white"/>
<path d="M6.24659 5.90157C6.06393 5.93635 5.7856 6.07549 5.63774 6.20593C5.33331 6.46971 5.18255 6.84364 5.20574 7.28423C5.21734 7.51323 5.23184 7.5741 5.32462 7.75962C5.46088 8.04079 5.66673 8.2466 5.94796 8.38573C6.14221 8.48139 6.1915 8.49298 6.44374 8.50168C6.67278 8.51037 6.75396 8.50168 6.90762 8.4495C7.53677 8.2379 7.91657 7.62628 7.8093 7.00016C7.68463 6.25521 6.9772 5.75663 6.24659 5.90157Z" fill="white"/>
<path d="M11.1927 3.02029C11.1811 3.02899 11.1724 6.17115 11.1724 10.0032C11.1724 16.3252 11.1753 16.9658 11.2188 16.9832C11.2971 17.0122 13.5469 17.0006 13.8253 16.9716C15.0024 16.8383 16.0403 16.1223 16.6057 15.0585C16.6782 14.9223 16.7738 14.6933 16.8231 14.5512C17.0058 14.0063 17 14.1512 17 9.98581C17 6.66103 16.9942 6.16535 16.9536 5.95375C16.6666 4.44354 15.5155 3.30436 14.0021 3.04348C13.7992 3.0087 13.4861 3 12.4771 3C11.7813 3 11.2014 3.0087 11.1927 3.02029ZM14.2892 9.33361C14.7414 9.45245 15.1125 9.79739 15.2633 10.238C15.359 10.5105 15.3561 10.9105 15.2604 11.1598C15.0836 11.6178 14.7356 11.9395 14.2892 12.0584C13.5643 12.2468 12.7931 11.8091 12.5815 11.0902C12.5177 10.8699 12.5206 10.4989 12.5931 10.2728C12.8105 9.5626 13.5643 9.14519 14.2892 9.33361Z" fill="white"/>
</svg>
