<svg viewBox="0 0 20 20" xmlns="http://www.w3.org/2000/svg">
<rect width="100%" height="100%" fill="#E60012"/>
<path d="M3.66001 12.98L4.22001 13.74H4.44001V12.62H4.22001V13.36L3.66001 12.62H3.44001V13.74H3.66001V12.98ZM8.20001 12.62V12.86H8.56001V13.74H8.80001V12.86H9.16001V12.62H8.20001ZM9.06001 16.42H9.54001V14.3H9.06001V16.42ZM6.62001 12.98L7.18001 13.74H7.40001V12.62H7.18001V13.36L6.60001 12.62H6.38001V13.74H6.60001V12.98H6.62001ZM7.68001 15.84L7.24001 14.3H6.86001L6.40001 15.84L6.00001 14.32H5.54001L6.14001 16.44H6.64001L7.04001 15.04L7.44001 16.44H7.96001L8.56001 14.32H8.10001L7.68001 15.84ZM4.32001 15.14C4.02001 15.08 3.82001 15.04 3.82001 14.9C3.82001 14.74 4.04001 14.68 4.34001 14.68C4.62001 14.68 4.88001 14.78 4.98001 14.82L5.14001 14.46C5.04001 14.42 4.70001 14.3 4.32001 14.3C3.86001 14.3 3.38001 14.52 3.38001 14.94C3.38001 15.28 3.62001 15.44 4.22001 15.56C4.64001 15.64 4.88001 15.68 4.88001 15.86C4.88001 15.96 4.80001 16.14 4.32001 16.14C3.94001 16.14 3.66001 16 3.56001 15.94L3.36001 16.3C3.46001 16.36 3.82001 16.52 4.28001 16.52C4.96001 16.52 5.30001 16.28 5.30001 15.84C5.30001 15.56 5.20001 15.28 4.32001 15.14ZM5.54001 12.62H5.30001V13.74H5.54001V12.62ZM12.76 13.74V12.62H12.54V13.36L11.98 12.62H11.76V13.74H11.98V12.98L12.54 13.74H12.76ZM10.84 13.52H10.2V13.26H10.8V13.06H10.2V12.82H10.84V12.62H9.96001V13.74H10.84V13.52ZM16.8 16.16H16.9V16.42H16.96V16.16H17.06V16.1H16.8V16.16ZM16.08 12.58C15.76 12.58 15.48 12.84 15.48 13.18C15.48 13.5 15.74 13.78 16.08 13.78C16.42 13.78 16.68 13.52 16.68 13.18C16.68 12.84 16.4 12.58 16.08 12.58ZM16.08 13.52C15.88 13.52 15.74 13.36 15.74 13.18C15.74 12.98 15.9 12.84 16.08 12.84C16.28 12.84 16.42 13 16.42 13.18C16.42 13.36 16.26 13.52 16.08 13.52ZM17.38 16.1L17.3 16.34L17.22 16.1H17.14V16.42H17.2V16.18L17.28 16.42H17.34L17.42 16.18V16.42H17.48V16.1H17.38ZM16.16 15.14H15.18V14.3H14.74V16.42H15.18V15.58H16.16V16.42H16.6V14.3H16.16V15.14ZM10.06 14.76H10.74V16.42H11.2V14.76H11.86V14.32H10.06V14.76ZM13.32 14.7C13.56 14.7 13.78 14.82 13.9 15.02L14.24 14.72C14.02 14.4 13.68 14.22 13.3 14.22C12.68 14.22 12.18 14.72 12.18 15.34C12.18 15.96 12.68 16.46 13.3 16.46C13.68 16.46 14.02 16.28 14.24 15.96L13.9 15.66C13.78 15.86 13.56 15.98 13.32 15.98C12.94 15.98 12.64 15.68 12.64 15.32C12.64 15 12.94 14.7 13.32 14.7ZM14.18 12.62H13.72V13.74H14.18C14.5 13.74 14.76 13.48 14.76 13.18C14.76 12.86 14.5 12.62 14.18 12.62ZM14.18 13.5H13.94V12.84H14.18C14.36 12.84 14.5 12.98 14.5 13.16C14.52 13.36 14.36 13.5 14.18 13.5Z" fill="white"/>
<path d="M6.36001 3.5H4.70001C3.62001 3.5 2.76001 4.36 2.76001 5.44V9.12C2.76001 10.2 3.62001 11.06 4.70001 11.06H6.36001C6.40001 11.06 6.42001 11.04 6.42001 11V3.56C6.42001 3.52 6.40001 3.5 6.36001 3.5ZM5.82001 10.46H4.72001C4.36001 10.46 4.04001 10.32 3.78001 10.08C3.52001 9.82 3.40001 9.5 3.40001 9.14V5.44C3.40001 5.08 3.54001 4.76 3.78001 4.5C4.04001 4.24 4.36001 4.12 4.72001 4.12H5.82001V10.46ZM4.66001 5.06C5.06001 5.06 5.38001 5.38 5.38001 5.78C5.38001 6.18 5.06001 6.5 4.66001 6.5C4.26001 6.5 3.94001 6.18 3.94001 5.78C3.96001 5.38 4.28001 5.06 4.66001 5.06ZM8.40001 3.5H7.24001C7.22001 3.5 7.20001 3.52 7.20001 3.54V11C7.20001 11.04 7.22001 11.06 7.26001 11.06H8.40001C9.48001 11.06 10.34 10.2 10.34 9.12V5.44C10.34 4.38 9.46001 3.5 8.40001 3.5ZM8.68001 8.42C8.26001 8.42 7.92001 8.08 7.92001 7.66C7.92001 7.24 8.26001 6.9 8.68001 6.9C9.10001 6.9 9.44001 7.24 9.44001 7.66C9.44001 8.08 9.10001 8.42 8.68001 8.42Z" fill="white"/>
<path d="M11.6 11.06V9.76C11.74 9.64 12.24 9.22 12.78 8.76C13.26 8.34 13.74 7.92 14.24 7.52C14.62 7.22 15.32 6.66 15.34 6.1C15.36 5.46 14.9 5.04 14.22 5.04C13.82 5.04 13.34 5.26 13.04 5.52C12.74 5.78 12.38 6.08 12.38 6.08L11.32 4.92C12.22 3.9 13.2 3.38 14.22 3.38C16.38 3.32 18.02 5.74 16.38 7.64C15.78 8.3 15.1 8.92 14.4 9.46H17.24V11.04H11.6V11.06Z" fill="white"/>
</svg>
