<svg viewBox="0 0 20 20" xmlns="http://www.w3.org/2000/svg">
<rect width="100%" height="100%" fill="#E60012"/>
<path d="M11.03 16.23H12.95C14.71 16.23 16.14 14.8 16.14 13.04V6.97002C16.14 5.21002 14.71 3.78002 12.95 3.78002H11.02C10.98 3.78002 10.94 3.82002 10.94 3.86002V16.14C10.94 16.19 10.98 16.23 11.03 16.23ZM13.4 9.36002C14.1 9.36002 14.66 9.92002 14.66 10.62C14.66 11.32 14.1 11.88 13.4 11.88C12.7 11.88 12.14 11.32 12.14 10.62C12.14 9.93002 12.71 9.36002 13.4 9.36002ZM9.6 3.77002H6.88C5.12 3.77002 3.69 5.20002 3.69 6.96002V13.03C3.69 14.79 5.12 16.22 6.88 16.22H9.6C9.65 16.22 9.69 16.18 9.69 16.13V3.86002C9.69 3.81002 9.65 3.77002 9.6 3.77002ZM8.69 15.22H6.88C6.3 15.22 5.75 14.99 5.33 14.58C4.92 14.17 4.69 13.62 4.69 13.03V6.97002C4.69 6.38002 4.92 5.84002 5.33 5.42002C5.75 5.00002 6.3 4.78002 6.88 4.78002H8.69V15.22ZM5.63 7.51002C5.63 8.16002 6.15 8.68002 6.8 8.68002C7.45 8.68002 7.97 8.16002 7.97 7.51002C7.97 6.86002 7.45 6.34002 6.8 6.34002C6.15 6.34002 5.63 6.86002 5.63 7.51002Z" fill="white"/>
</svg>