<svg xmlns="http://www.w3.org/2000/svg" viewBox="0 0 20 20"><rect width="100%" height="100%" fill="#fff"/><path fill="#F2F2F2" d="M10 18a8 8 0 1 0 0-16 8 8 0 0 0 0 16Z"/><path fill="#282828" d="M11.36 13.47 8.785 8.72a2.73 2.73 0 0 1-.108-.23c-.042-.1-.085-.203-.127-.31a7.031 7.031 0 0 1-.115-.315 2.483 2.483 0 0 1-.083-.25h-.027a99 99 0 0 1 .042.75c.015.287.023.597.023.907v4.198h-.983V6.45h1.278l2.565 4.715c.05.085.098.178.145.28a11.661 11.661 0 0 1 .26.602c.031.074.059.149.083.226h.027c0-.078-.015-.18-.023-.31-.007-.13-.02-.265-.027-.41-.008-.146-.018-.29-.022-.436-.005-.145 0-.277 0-.392V6.45h.982v7.02H11.36Z"/></svg>