<svg xmlns="http://www.w3.org/2000/svg" viewBox="0 0 20 20">
  <rect width="100%" height="100%" fill="#333"/>
  <path fill="url(#a)" d="M10.38 2.1a.8.8 0 0 0-.78 0L3.16 5.72a.74.74 0 0 0-.38.65v7.25c0 .27.15.52.38.66L9.6 17.9a.8.8 0 0 0 .78 0l6.44-3.62a.74.74 0 0 0 .38-.66V6.37a.77.77 0 0 0-.38-.65L10.38 2.1Z"/>
  <path fill="url(#b)" d="M16.84 5.72 10.37 2.1a1.08 1.08 0 0 0-.2-.07L2.92 14.1a.8.8 0 0 0 .21.18L9.6 17.9c.19.1.4.13.6.07L17 5.85a.48.48 0 0 0-.16-.13Z"/>
  <path fill="url(#c)" d="M16.84 14.28c.18-.1.32-.28.38-.48L10.14 2.01a.8.8 0 0 0-.55.1L3.16 5.7 10.1 18l.3-.09 6.45-3.63Z"/>
  <linearGradient id="a" x1="12.61" x2="7.04" y1="4.8" y2="16.47" gradientUnits="userSpaceOnUse">
    <stop stop-color="#3F873F"/>
    <stop offset=".33" stop-color="#3F8B3D"/>
    <stop offset=".64" stop-color="#3E9638"/>
    <stop offset=".93" stop-color="#3DA92E"/>
    <stop offset="1" stop-color="#3DAE2B"/>
  </linearGradient>
  <linearGradient id="b" x1="9.01" x2="25.03" y1="10.85" y2="-1.32" gradientUnits="userSpaceOnUse">
    <stop offset=".14" stop-color="#3F873F"/>
    <stop offset=".4" stop-color="#52A044"/>
    <stop offset=".71" stop-color="#64B749"/>
    <stop offset=".91" stop-color="#6ABF4B"/>
  </linearGradient>
  <linearGradient id="c" x1="2.55" x2="17.44" y1="10" y2="10" gradientUnits="userSpaceOnUse">
    <stop offset=".09" stop-color="#6ABF4B"/>
    <stop offset=".29" stop-color="#64B749"/>
    <stop offset=".6" stop-color="#52A044"/>
    <stop offset=".86" stop-color="#3F873F"/>
  </linearGradient>
</svg>