<svg viewBox="0 0 20 20" xmlns="http://www.w3.org/2000/svg">
<rect width="100%" height="100%" fill="#026E00"/>
<path fill-rule="evenodd" clip-rule="evenodd" d="M17.219 13.8019C17.1579 13.9954 17.0202 14.174 16.8367 14.2782L10.3828 17.91C10.291 17.9546 10.1839 17.9844 10.0921 17.9993L10.0888 17.9934C9.9255 18.0155 9.7577 17.9815 9.60932 17.8992L9.60227 17.8954L9.54908 17.8655L3.13302 14.2784C3.0566 14.2337 2.9801 14.1742 2.91895 14.0998L2.93464 14.0736C2.83816 13.9449 2.78125 13.787 2.78125 13.6236V6.37497C2.78125 6.10699 2.9189 5.85402 3.16359 5.72003L3.17045 5.71617L3.16406 5.70484L9.58747 2.10285C9.75566 1.99863 9.95454 1.98378 10.138 2.01355L10.1397 2.01633C10.2232 2.03192 10.305 2.06084 10.3823 2.10312L13.557 3.88651L16.8362 5.71991C16.8974 5.74968 16.9586 5.79437 17.0045 5.8539L16.999 5.8637C17.126 6.00166 17.2032 6.18453 17.2032 6.37497V13.6236C17.2032 13.6684 17.1994 13.7129 17.1918 13.7565L17.219 13.8019Z" fill="white"/>
</svg>
