<svg viewBox="0 0 20 20" xmlns="http://www.w3.org/2000/svg">
<rect width="100%" height="100%" fill="#020420"/>
<path d="M11.02 15.0833H17.31C17.5107 15.0833 17.7028 15.0128 17.8767 14.9133C18.0505 14.8139 18.2297 14.689 18.33 14.5167C18.4303 14.3444 18.5001 14.1489 18.5 13.95C18.4999 13.751 18.4305 13.5556 18.33 13.3834L14.08 6.07335C13.9797 5.90106 13.8571 5.77613 13.6833 5.67665C13.5095 5.57722 13.2607 5.50665 13.06 5.50665C12.8593 5.50665 12.6671 5.57722 12.4933 5.67665C12.3195 5.77613 12.197 5.90106 12.0967 6.07335L11.02 7.94335L8.86665 4.31653C8.76626 4.14429 8.64385 3.96278 8.47 3.86335C8.29615 3.76387 8.10406 3.75 7.90335 3.75C7.70263 3.75 7.5105 3.76387 7.33665 3.86335C7.16284 3.96278 6.98374 4.14429 6.88335 4.31653L1.61334 13.3834C1.51286 13.5556 1.50009 13.751 1.5 13.95C1.49991 14.1489 1.51301 14.3443 1.61334 14.5167C1.71366 14.6889 1.89284 14.8139 2.06667 14.9133C2.24049 15.0128 2.43261 15.0833 2.63334 15.0833H6.6C8.17174 15.0833 9.31575 14.3783 10.1133 13.0433L12.04 9.7L13.06 7.94335L16.1767 13.27H12.04L11.02 15.0833ZM6.54335 13.27H3.76665L7.90335 6.13L10 9.7L8.61117 12.1211C8.08153 12.9872 7.47763 13.27 6.54335 13.27Z" fill="#00DC82"/>
</svg>
