<svg viewBox="0 0 20 20" fill="none" xmlns="http://www.w3.org/2000/svg">
<path d="M0 0H20V20H0V0Z" fill="#F8FAFC"/>
<path d="M10.9927 4.8913L10.5126 5.7365L8.87089 2.84522L3.83109 11.7198H7.24337C7.24337 12.1866 7.61553 12.565 8.07462 12.565H3.83109C3.53414 12.565 3.25978 12.4038 3.11133 12.1423C2.96288 11.8808 2.96289 11.5587 3.11137 11.2972L8.15116 2.42262C8.29965 2.1611 8.57407 2 8.87106 2C9.16805 2 9.44247 2.1611 9.59096 2.42262L10.9927 4.8913V4.8913Z" fill="#00C58E"/>
<path d="M14.6308 11.2972L11.4727 5.73655L10.9927 4.89136L10.5126 5.73655L7.3549 11.2972C7.20642 11.5587 7.20641 11.8809 7.35486 12.1424C7.50331 12.4039 7.77767 12.565 8.07462 12.565H13.91C14.207 12.565 14.4815 12.404 14.63 12.1425C14.7785 11.881 14.7786 11.5588 14.6301 11.2972H14.6308ZM8.07462 11.7198L10.9927 6.58175L13.91 11.7198H8.07462H8.07462Z" fill="#2F495E"/>
<path d="M16.8886 12.1422C16.7402 12.4037 16.4658 12.5648 16.1689 12.5648H13.91C14.3691 12.5648 14.7412 12.1864 14.7412 11.7196H16.1672L12.1211 4.59424L11.4727 5.73632L10.9926 4.89112L11.4013 4.17165C11.5498 3.91013 11.8243 3.74902 12.1212 3.74902C12.4182 3.74902 12.6927 3.91013 12.8411 4.17165L16.8886 11.297C17.0371 11.5585 17.0371 11.8807 16.8886 12.1422Z" fill="#108775"/>
<path fill-rule="evenodd" clip-rule="evenodd" d="M4.14362 14.1076C4.17244 14.1393 4.1926 14.1825 4.18972 14.2286V16.5768C4.18972 16.6258 4.17244 16.6748 4.13786 16.7122C4.12075 16.73 4.10014 16.7441 4.07733 16.7535C4.05452 16.7629 4.03 16.7675 4.00533 16.767C3.97651 16.767 3.9477 16.7612 3.91889 16.7526C3.8956 16.7445 3.87477 16.7306 3.85838 16.7122L2.3371 14.7329V16.5941C2.33793 16.6169 2.33401 16.6396 2.32558 16.6608C2.31715 16.682 2.30439 16.7012 2.28813 16.7172C2.27187 16.7332 2.25245 16.7456 2.23112 16.7537C2.20979 16.7618 2.18701 16.7653 2.16423 16.7641C2.12101 16.7641 2.07779 16.7468 2.04898 16.7151C2.01764 16.6838 2.00002 16.6413 2 16.597V14.243C2 14.1941 2.02017 14.1451 2.05762 14.1105C2.07377 14.094 2.09305 14.081 2.11433 14.0721C2.13561 14.0631 2.15845 14.0586 2.18152 14.0586C2.21033 14.0586 2.24202 14.0644 2.26795 14.0759C2.29677 14.0846 2.31981 14.1047 2.3371 14.1249L3.84974 16.1101V14.2286C3.84891 14.2058 3.85283 14.1831 3.86126 14.1619C3.86969 14.1407 3.88245 14.1215 3.89871 14.1055C3.91498 14.0896 3.93439 14.0771 3.95572 14.069C3.97706 14.061 3.99984 14.0574 4.02261 14.0586C4.06583 14.0586 4.10905 14.0731 4.13786 14.1076H4.14362ZM7.2755 14.1134C7.3072 14.1508 7.32737 14.1998 7.32448 14.2459V15.7326C7.32737 15.9228 7.28127 16.113 7.18907 16.2801C7.10263 16.4414 6.97298 16.5739 6.81451 16.6633C6.65316 16.7583 6.46876 16.8073 6.2786 16.8044C6.09132 16.8044 5.90405 16.7583 5.73693 16.6661C5.57928 16.5765 5.44962 16.4448 5.36238 16.2858C5.27047 16.1172 5.22382 15.9276 5.22696 15.7355V14.2488C5.22696 14.1998 5.24425 14.1508 5.28458 14.1163C5.32056 14.0816 5.36859 14.0622 5.41856 14.0622C5.46853 14.0622 5.51656 14.0816 5.55254 14.1163C5.58711 14.1508 5.60728 14.1969 5.60728 14.2488V15.7298C5.6044 15.8565 5.63609 15.9804 5.69948 16.0928C5.7578 16.195 5.84206 16.28 5.94375 16.3391C6.04544 16.3983 6.16094 16.4296 6.2786 16.4299C6.37039 16.4303 6.46133 16.4124 6.54612 16.3773C6.63092 16.3422 6.70788 16.2905 6.77251 16.2253C6.83714 16.1602 6.88816 16.0828 6.92257 15.9977C6.95699 15.9126 6.97412 15.8215 6.97298 15.7298V14.2488C6.97298 14.1998 6.98738 14.1508 7.01908 14.1134C7.05365 14.0759 7.09975 14.0558 7.14873 14.0586C7.19771 14.0586 7.24381 14.0788 7.2755 14.1134ZM10.2691 16.4702C10.2911 16.5024 10.3022 16.5408 10.3008 16.5797C10.3037 16.6287 10.2835 16.6777 10.246 16.7122C10.2123 16.7434 10.1681 16.7609 10.1221 16.7612C10.0616 16.7641 10.004 16.7324 9.96944 16.6834L9.22032 15.6808L8.48273 16.6834C8.46644 16.7083 8.4442 16.7287 8.41804 16.7428C8.39188 16.7568 8.36262 16.7642 8.33291 16.7641C8.28681 16.7641 8.24647 16.7468 8.21478 16.7151C8.18597 16.6863 8.1658 16.646 8.1658 16.6056C8.1658 16.5595 8.18309 16.5134 8.2119 16.4789L9.00711 15.3984L8.20902 14.3266C8.18054 14.2918 8.1662 14.2476 8.16887 14.2028C8.17154 14.1579 8.19102 14.1157 8.22342 14.0846C8.25057 14.0567 8.28594 14.0384 8.32433 14.0321C8.36271 14.0259 8.40208 14.0322 8.43663 14.05C8.46437 14.0628 8.48823 14.0826 8.50578 14.1076L9.24914 15.1045L9.98096 14.1163C10.0127 14.0673 10.0674 14.0356 10.1279 14.0298C10.174 14.0298 10.2201 14.0529 10.2518 14.0875C10.2835 14.1163 10.3037 14.1595 10.3065 14.2027C10.3065 14.2459 10.2921 14.2834 10.2662 14.318L9.45946 15.3898L10.2662 16.4702H10.2691ZM13.0495 14.1076C13.084 14.1393 13.1071 14.1883 13.1042 14.2373C13.1042 14.2863 13.084 14.3324 13.0466 14.3641C13.012 14.3957 12.963 14.413 12.914 14.4102H12.2283V16.5826C12.2283 16.6316 12.211 16.6777 12.1736 16.7122C12.1346 16.7467 12.0844 16.7657 12.0324 16.7657C11.9804 16.7657 11.9302 16.7467 11.8912 16.7122C11.8733 16.6957 11.8589 16.6757 11.849 16.6534C11.8391 16.6311 11.8338 16.607 11.8336 16.5826V14.4102H11.1479C11.0989 14.4102 11.0528 14.3957 11.0153 14.3612C10.9975 14.3447 10.9833 14.3246 10.9739 14.3023C10.9645 14.2799 10.9599 14.2558 10.9606 14.2315C10.9606 14.1854 10.9779 14.1393 11.0124 14.1076C11.0499 14.0731 11.0989 14.0558 11.145 14.0586H12.914C12.963 14.0586 13.012 14.0731 13.0495 14.1076Z" fill="#2E495E"/>
<path fill-rule="evenodd" clip-rule="evenodd" d="M13.8908 16.6979C13.7669 16.6287 13.6603 16.525 13.5882 16.4011C13.5681 16.3723 13.5565 16.3349 13.5537 16.2974C13.5537 16.2484 13.5738 16.2023 13.6113 16.1706C13.643 16.1361 13.6862 16.1188 13.7323 16.113C13.8014 16.1217 13.8648 16.1562 13.9052 16.211C13.9916 16.355 14.1472 16.4415 14.3114 16.4357C14.3777 16.4376 14.4437 16.4262 14.5055 16.4022C14.5673 16.3782 14.6236 16.342 14.6712 16.2957C14.7187 16.2495 14.7565 16.1943 14.7823 16.1332C14.8081 16.0721 14.8214 16.0064 14.8214 15.9401V14.246C14.8209 14.221 14.8258 14.1963 14.8357 14.1734C14.8456 14.1505 14.8604 14.1301 14.879 14.1134C14.9165 14.0789 14.9655 14.0587 15.0144 14.0587C15.0663 14.0587 15.1153 14.076 15.1527 14.1106C15.1699 14.128 15.1833 14.1488 15.1922 14.1715C15.2011 14.1943 15.2053 14.2187 15.2046 14.2431V15.943C15.2078 16.0954 15.1692 16.2458 15.093 16.3778C15.0168 16.5099 14.9059 16.6186 14.7724 16.6921C14.6387 16.7682 14.4877 16.8087 14.3338 16.8097C14.1799 16.8107 14.0284 16.7722 13.8936 16.6979H13.8908ZM16.5559 16.7094C16.4032 16.6518 16.262 16.5654 16.141 16.4501C16.117 16.4316 16.0974 16.4081 16.0834 16.3813C16.0695 16.3544 16.0616 16.3248 16.0603 16.2945C16.0606 16.2706 16.0659 16.2469 16.0758 16.2251C16.0857 16.2033 16.1001 16.1837 16.1179 16.1678C16.1338 16.1508 16.153 16.1371 16.1743 16.1277C16.1956 16.1183 16.2186 16.1133 16.2418 16.113C16.2851 16.113 16.3225 16.1274 16.3542 16.1562C16.4464 16.2427 16.5559 16.3147 16.6711 16.3666C16.7922 16.4127 16.9189 16.4357 17.0457 16.4357C17.1898 16.4386 17.3338 16.4011 17.4577 16.3205C17.5586 16.2628 17.6248 16.1562 17.6248 16.0381C17.6277 15.9142 17.5643 15.7961 17.4577 15.7269C17.3028 15.6369 17.133 15.5755 16.9564 15.5454C16.6913 15.4878 16.4867 15.4013 16.3427 15.2775C16.1986 15.1536 16.1295 14.9807 16.1295 14.7617C16.1266 14.6177 16.1669 14.4765 16.2505 14.3583C16.334 14.2431 16.4464 14.1509 16.5789 14.0933C16.8778 13.9741 17.2101 13.969 17.5125 14.0789C17.641 14.1217 17.7588 14.1914 17.8582 14.2834C17.9101 14.3238 17.9446 14.3843 17.9446 14.4477C17.9447 14.4707 17.9401 14.4936 17.9312 14.5149C17.9223 14.5361 17.9092 14.5554 17.8928 14.5716C17.8772 14.5899 17.8577 14.6045 17.8358 14.6145C17.8139 14.6244 17.7901 14.6295 17.766 14.6292C17.7372 14.6292 17.7026 14.6177 17.6796 14.5975C17.5101 14.4456 17.2906 14.3614 17.063 14.3612C16.9189 14.3526 16.7749 14.39 16.651 14.465C16.604 14.4963 16.5655 14.5387 16.5389 14.5884C16.5123 14.6382 16.4984 14.6938 16.4984 14.7502C16.4984 14.8066 16.5123 14.8622 16.5389 14.9119C16.5655 14.9617 16.604 15.0041 16.651 15.0354C16.7918 15.1185 16.9457 15.1769 17.1062 15.2083C17.2762 15.24 17.4404 15.2947 17.5989 15.361C17.7199 15.4158 17.8236 15.4993 17.8957 15.6088C17.9706 15.7356 18.0051 15.8767 17.9994 16.0237C18.0023 16.1678 17.959 16.3061 17.8755 16.4213C17.7891 16.5423 17.668 16.6345 17.5297 16.6921C17.2162 16.812 16.8706 16.8181 16.553 16.7094H16.5559Z" fill="#00C48D"/>
</svg>
