<svg viewBox="0 0 20 20" xmlns="http://www.w3.org/2000/svg">
<rect width="100%" height="100%" fill="#76B900"/>
<path d="M7.71108 7.60451V6.53398C7.81708 6.52737 7.92308 6.52076 8.02908 6.52076C10.9706 6.42825 12.8984 9.04511 12.8984 9.04511C12.8984 9.04511 10.8182 11.9263 8.58557 11.9263C8.28745 11.9263 7.99595 11.88 7.7177 11.7875V8.53628C8.86382 8.67505 9.09569 9.17727 9.77806 10.3205L11.3084 9.0385C11.3084 9.0385 10.1888 7.57808 8.30732 7.57808C8.10858 7.57147 7.90983 7.58469 7.71108 7.60451ZM7.71108 4.0625V5.66169L8.02908 5.64187C12.1167 5.5031 14.7865 8.98564 14.7865 8.98564C14.7865 8.98564 11.7258 12.6995 8.5392 12.6995C8.26095 12.6995 7.98933 12.673 7.7177 12.6268V13.618C7.94295 13.6444 8.17482 13.6643 8.40007 13.6643C11.3681 13.6643 13.5145 12.151 15.5948 10.3668C15.9393 10.6443 17.3504 11.3117 17.6419 11.6025C15.6676 13.2546 11.0633 14.5828 8.45307 14.5828C8.20132 14.5828 7.96283 14.5696 7.72433 14.5432V15.9375H19V4.0625L7.71108 4.0625ZM7.71108 11.7875V12.6334C4.96835 12.1444 4.20648 9.29622 4.20648 9.29622C4.20648 9.29622 5.52484 7.84241 7.71108 7.60451V8.52967H7.70445C6.55834 8.39089 5.65734 9.46143 5.65734 9.46143C5.65734 9.46143 6.16746 11.2655 7.71108 11.7875ZM2.84174 9.17727C2.84174 9.17727 4.46485 6.78509 7.7177 6.53398V5.66169C4.11373 5.95246 1 8.99224 1 8.99224C1 8.99224 2.76224 14.0806 7.71108 14.5432V13.618C4.0806 13.1686 2.84174 9.17727 2.84174 9.17727Z" fill="white"/>
</svg>
