<svg viewBox="0 0 20 20" fill="none" xmlns="http://www.w3.org/2000/svg">
<path d="M0 0H20V20H0V0Z" fill="#A24689"/>
<path d="M3.93821 8.22988C4.19868 8.22988 4.44467 8.28173 4.67605 8.3854C4.90732 8.48906 5.11069 8.62868 5.28622 8.80411C5.46167 8.9796 5.60127 9.18435 5.70496 9.41827C5.80862 9.65238 5.86048 9.9022 5.86048 10.168C5.86048 10.434 5.80988 10.6825 5.70892 10.9138C5.60783 11.1451 5.47088 11.3485 5.29813 11.524C5.12527 11.6994 4.92188 11.8378 4.68796 11.9387C4.45388 12.0398 4.20141 12.0903 3.93021 12.0903C3.66427 12.0903 3.41439 12.0425 3.18047 11.9468C2.94642 11.851 2.74179 11.7168 2.56631 11.544C2.39088 11.3712 2.25252 11.1678 2.15156 10.9338C2.05049 10.6998 2 10.4446 2 10.168C2 9.9022 2.0491 9.65356 2.14755 9.42226C2.24586 9.19096 2.38281 8.98893 2.55834 8.81613C2.73379 8.64335 2.93981 8.50501 3.17648 8.40137C3.41303 8.29766 3.66702 8.24058 3.93821 8.22988V8.22988ZM3.93024 9.01949C3.77595 9.01949 3.62841 9.04882 3.48758 9.10723C3.34664 9.1658 3.22438 9.24683 3.12064 9.35052C3.01698 9.45418 2.93448 9.57521 2.87342 9.71342C2.81222 9.85176 2.78169 10.0033 2.78169 10.168C2.78169 10.3223 2.81225 10.4699 2.87342 10.6107C2.93448 10.7517 3.01698 10.8753 3.12064 10.9816C3.22433 11.0881 3.34659 11.1718 3.48758 11.2329C3.62841 11.2941 3.77595 11.3246 3.93024 11.3246C4.08256 11.325 4.2333 11.2938 4.37293 11.2329C4.51376 11.1718 4.6361 11.0881 4.73984 10.9816C4.84353 10.8753 4.92589 10.7517 4.98709 10.6107C5.04793 10.4711 5.07915 10.3204 5.07876 10.168C5.06284 9.8544 4.95115 9.58982 4.74383 9.37442C4.53642 9.15906 4.26785 9.04077 3.93824 9.01944L3.93024 9.01949V9.01949ZM9.48956 7.00156C9.57992 6.99631 9.66501 7.03217 9.7448 7.10924C9.82457 7.18638 9.86442 7.27013 9.86442 7.3605V10.1601C9.86442 10.4207 9.81122 10.6679 9.70491 10.9019C9.59844 11.1359 9.45491 11.3406 9.2742 11.516C9.09337 11.6915 8.88736 11.8311 8.65606 11.9348C8.42476 12.0384 8.18147 12.0903 7.92625 12.0903C7.66565 12.0903 7.41841 12.0398 7.18446 11.9387C6.95041 11.8378 6.74578 11.6994 6.5703 11.524C6.39484 11.3485 6.25525 11.1439 6.15156 10.9098C6.0479 10.6759 5.99604 10.426 5.99604 10.1601C5.99604 9.87295 6.04255 9.62045 6.13564 9.40235C6.22857 9.18435 6.36817 8.9796 6.55435 8.78819V8.79619C6.75103 8.61014 6.96774 8.46915 7.20439 8.37344C7.44091 8.2777 7.68418 8.22988 7.9342 8.22988C8.08298 8.22988 8.25983 8.2538 8.46461 8.30167C8.66923 8.34949 8.87262 8.44261 9.0748 8.58084V7.40037C9.0748 7.34727 9.08537 7.29668 9.1067 7.24878C9.12784 7.20096 9.15608 7.15661 9.19045 7.11721C9.22431 7.07781 9.26655 7.04647 9.31408 7.02548C9.36192 7.00431 9.40982 6.99631 9.45766 7.00156H9.48956V7.00156ZM9.0748 10.1601C9.0748 10.0165 9.04414 9.87565 8.98307 9.73731C8.92223 9.59963 8.83712 9.474 8.73181 9.36644C8.62646 9.25823 8.50207 9.17035 8.36488 9.10721C8.22654 9.04344 8.08036 9.01149 7.9262 9.01149C7.77389 9.01113 7.62315 9.04234 7.48351 9.10317C7.34258 9.16439 7.22034 9.24675 7.1166 9.35044C7.01294 9.45411 6.93042 9.57649 6.86935 9.71735C6.80816 9.85829 6.77768 10.0059 6.77768 10.16C6.77768 10.3196 6.80821 10.4685 6.86935 10.6067C6.93042 10.745 7.01294 10.8659 7.1166 10.9696C7.22029 11.0733 7.34255 11.1557 7.48351 11.2168C7.6244 11.278 7.77192 11.3085 7.9262 11.3085C8.08036 11.3085 8.22654 11.278 8.36488 11.2168C8.50309 11.1557 8.62537 11.0733 8.73181 10.9696C8.83813 10.8659 8.92188 10.745 8.98307 10.6067C9.04411 10.4686 9.0748 10.3196 9.0748 10.1601V10.1601ZM12.0259 8.22988C12.2864 8.22988 12.5324 8.28173 12.7638 8.3854C12.9951 8.48906 13.1984 8.62868 13.3739 8.80411C13.5494 8.9796 13.689 9.18435 13.7927 9.41827C13.8964 9.65238 13.9482 9.9022 13.9482 10.168C13.9482 10.434 13.8976 10.6825 13.7966 10.9138C13.6955 11.1451 13.5586 11.3485 13.3858 11.524C13.213 11.6994 13.0096 11.8378 12.7757 11.9387C12.5416 12.0398 12.2891 12.0903 12.0179 12.0903C11.752 12.0903 11.5021 12.0425 11.2682 11.9468C11.0341 11.851 10.8295 11.7168 10.654 11.544C10.4786 11.3712 10.3403 11.1678 10.2393 10.9338C10.1382 10.6998 10.0877 10.4446 10.0877 10.168C10.0877 9.9022 10.1368 9.65356 10.2353 9.42226C10.3336 9.19096 10.4705 8.98893 10.6461 8.81613C10.8215 8.64335 11.0275 8.50501 11.2642 8.40137C11.5008 8.29766 11.7547 8.24058 12.0259 8.22988V8.22988ZM12.018 9.01949C11.8637 9.01949 11.7161 9.04882 11.5753 9.10723C11.4344 9.1658 11.3121 9.24683 11.2084 9.35052C11.1047 9.45418 11.0222 9.57521 10.9611 9.71342C10.8999 9.85176 10.8694 10.0033 10.8694 10.168C10.8694 10.3223 10.9 10.4699 10.9611 10.6107C11.0222 10.7517 11.1047 10.8753 11.2084 10.9816C11.312 11.0881 11.4343 11.1718 11.5753 11.2329C11.7161 11.2941 11.8637 11.3246 12.018 11.3246C12.1703 11.325 12.321 11.2938 12.4606 11.2329C12.6015 11.1718 12.7238 11.0881 12.8276 10.9816C12.9312 10.8753 13.0136 10.7517 13.0748 10.6107C13.1357 10.4711 13.1669 10.3204 13.1665 10.168C13.1506 9.8544 13.0389 9.58982 12.8315 9.37442C12.6241 9.15906 12.3556 9.04077 12.026 9.01944L12.018 9.01949V9.01949ZM16.0778 8.22988C16.3382 8.22988 16.5842 8.28173 16.8156 8.3854C17.0469 8.48906 17.2502 8.62868 17.4258 8.80411C17.6012 8.9796 17.7408 9.18435 17.8445 9.41827C17.9482 9.65238 18 9.9022 18 10.168C18 10.434 17.9494 10.6825 17.8485 10.9138C17.7474 11.1451 17.6104 11.3485 17.4377 11.524C17.2648 11.6994 17.0614 11.8378 16.8275 11.9387C16.5934 12.0398 16.341 12.0903 16.0698 12.0903C15.8038 12.0903 15.5539 12.0425 15.32 11.9468C15.086 11.851 14.8813 11.7168 14.7059 11.544C14.5304 11.3712 14.3921 11.1678 14.2911 10.9338C14.19 10.6998 14.1395 10.4446 14.1395 10.168C14.1395 9.9022 14.1886 9.65356 14.2871 9.42226C14.3854 9.19096 14.5224 8.98893 14.6979 8.81613C14.8733 8.64335 15.0793 8.50501 15.316 8.40137C15.5526 8.29766 15.8066 8.24058 16.0778 8.22988V8.22988ZM16.0698 9.01949C15.9155 9.01949 15.768 9.04882 15.6271 9.10723C15.4862 9.1658 15.3639 9.24683 15.2602 9.35052C15.1565 9.45418 15.074 9.57521 15.0129 9.71342C14.9517 9.85176 14.9212 10.0033 14.9212 10.168C14.9212 10.3223 14.9518 10.4699 15.0129 10.6107C15.074 10.7517 15.1565 10.8753 15.2602 10.9816C15.3639 11.0881 15.4861 11.1718 15.6271 11.2329C15.768 11.2941 15.9155 11.3246 16.0698 11.3246C16.2221 11.325 16.3728 11.2938 16.5125 11.2329C16.6533 11.1718 16.7756 11.0881 16.8794 10.9816C16.983 10.8753 17.0654 10.7517 17.1266 10.6107C17.1875 10.4711 17.2187 10.3204 17.2183 10.168C17.2024 9.8544 17.0907 9.58982 16.8833 9.37442C16.6759 9.15906 16.4074 9.04077 16.0778 9.01944L16.0698 9.01949V9.01949Z" fill="white"/>
</svg>
