<svg xmlns="http://www.w3.org/2000/svg" viewBox="0 0 20 20">
  <rect width="100%" height="100%"/>
  <path fill="#fff" fill-rule="evenodd" d="M1.948 12.104a1.767 1.767 0 0 1-.71-.768c-.159-.33-.238-.717-.238-1.16 0-.312.027-.618.082-.917.057-.302.14-.59.25-.862.109-.273.246-.526.41-.757.166-.232.359-.432.577-.601.219-.172.463-.305.734-.398a2.74 2.74 0 0 1 .894-.141c.666 0 1.176.196 1.53.59.356.392.534.926.534 1.6 0 .312-.026.62-.078.924-.05.302-.127.591-.234.867a3.6 3.6 0 0 1-.394.757 2.726 2.726 0 0 1-.562.597c-.214.17-.457.302-.73.398-.27.094-.571.14-.902.14-.46 0-.848-.09-1.163-.269Zm1.218-.53c.19 0 .368-.034.535-.102a1.58 1.58 0 0 0 .456-.285c.14-.125.266-.274.375-.449.112-.174.206-.368.281-.581.078-.213.138-.442.18-.687.041-.247.062-.505.062-.773 0-.434-.103-.776-.308-1.026-.203-.25-.493-.375-.87-.375a1.44 1.44 0 0 0-.551.106c-.17.067-.325.166-.468.296-.143.128-.27.28-.383.457a3.09 3.09 0 0 0-.28.581 3.918 3.918 0 0 0-.18.683c-.04.24-.059.49-.059.75 0 .296.047.55.14.76.097.211.235.371.414.48.183.11.401.165.656.165ZM7.21 7.975l-1.324 6.237h.91l.335-1.585c.034-.15.063-.31.086-.476.024-.166.042-.326.055-.48h.035c.062.128.14.245.23.351.091.107.203.193.336.258.135.062.297.094.484.094.255 0 .489-.054.702-.16.214-.11.404-.26.57-.45.17-.192.312-.413.43-.663a4.086 4.086 0 0 0 .359-1.674c0-.354-.055-.643-.164-.866a1.1 1.1 0 0 0-1.035-.664c-.197 0-.38.04-.546.117-.164.078-.312.18-.445.305a3.074 3.074 0 0 0-.359.402h-.031l.086-.746h-.715Zm1.44 3.532a.76.76 0 0 1-.414.121c-.226 0-.4-.073-.52-.218-.116-.146-.175-.339-.175-.578a2.947 2.947 0 0 1 .176-.991c.057-.164.126-.318.207-.46.08-.146.17-.274.269-.383.099-.11.205-.195.32-.258a.717.717 0 0 1 .359-.097c.206 0 .36.067.46.203.105.132.157.331.157.597a3.486 3.486 0 0 1-.227 1.23 2.186 2.186 0 0 1-.265.495c-.104.143-.22.256-.347.34ZM12.646 12.374c-.33 0-.62-.063-.866-.188a1.355 1.355 0 0 1-.57-.558c-.133-.247-.2-.549-.2-.905 0-.354.052-.699.153-1.034.102-.339.251-.643.449-.914.198-.27.438-.485.722-.644.284-.158.606-.238.968-.238.442 0 .774.1.995.3.224.199.336.461.336.79 0 .223-.051.427-.153.612a1.356 1.356 0 0 1-.464.48 2.454 2.454 0 0 1-.784.308c-.315.073-.686.11-1.113.11h-.175a30.465 30.465 0 0 0-.01.162c-.002.025-.002.05-.002.076 0 .288.075.516.226.683.151.164.371.245.66.245.218 0 .42-.027.605-.082.184-.054.391-.136.62-.245v.722c-.21.101-.424.18-.64.238a3.11 3.11 0 0 1-.757.082Zm-.59-2.545h.134c.317 0 .593-.03.827-.09.234-.062.415-.153.542-.273a.594.594 0 0 0 .192-.445.399.399 0 0 0-.13-.316c-.082-.078-.207-.117-.374-.117a.89.89 0 0 0-.484.152c-.159.1-.3.242-.425.43a2.03 2.03 0 0 0-.281.66Z" clip-rule="evenodd"/>
  <path fill="#fff" d="m15.792 7.964-.921 4.332h.936l.39-1.846c.084-.38.197-.704.34-.972.143-.268.303-.472.48-.613a.862.862 0 0 1 .539-.21c.166 0 .291.042.375.128.085.086.128.215.128.386a2.855 2.855 0 0 1-.07.5l-.554 2.627h.933l.542-2.553A3.774 3.774 0 0 0 19 9.05a1.4 1.4 0 0 0-.129-.625.913.913 0 0 0-.378-.402 1.225 1.225 0 0 0-.61-.14 1.34 1.34 0 0 0-.592.128c-.175.086-.33.198-.469.336-.138.135-.259.28-.363.433h-.023l.093-.815h-.737Z"/>
</svg>
