<svg xmlns="http://www.w3.org/2000/svg" viewBox="0 0 20 20"><rect width="100%" height="100%" fill="#fff"/><path fill="#000" d="M17.067 8.503a4.11 4.11 0 0 0-.353-3.376 4.157 4.157 0 0 0-4.478-1.995 4.112 4.112 0 0 0-3.1-1.382A4.158 4.158 0 0 0 5.17 4.628a4.112 4.112 0 0 0-2.749 1.994 4.158 4.158 0 0 0 .512 4.875 4.11 4.11 0 0 0 .353 3.376 4.157 4.157 0 0 0 4.478 1.995 4.109 4.109 0 0 0 3.1 1.381 4.158 4.158 0 0 0 3.967-2.88 4.112 4.112 0 0 0 2.75-1.994 4.159 4.159 0 0 0-.513-4.873v.001Zm-6.202 8.668a3.082 3.082 0 0 1-1.98-.715c.026-.014.07-.038.098-.056l3.286-1.897a.534.534 0 0 0 .27-.468V9.403l1.389.802a.048.048 0 0 1 .026.038v3.836a3.096 3.096 0 0 1-3.089 3.092Zm-6.643-2.837a3.079 3.079 0 0 1-.369-2.072l.098.058 3.285 1.898a.535.535 0 0 0 .54 0l4.011-2.316v1.603a.051.051 0 0 1-.02.043l-3.32 1.918a3.096 3.096 0 0 1-4.225-1.132Zm-.865-7.172c.361-.627.93-1.107 1.61-1.356l-.002.114v3.795a.535.535 0 0 0 .27.467l4.01 2.316-1.388.802a.05.05 0 0 1-.047.004l-3.322-1.92a3.096 3.096 0 0 1-1.131-4.222Zm11.409 2.655L10.755 7.5l1.388-.802a.049.049 0 0 1 .047-.004l3.322 1.918a3.093 3.093 0 0 1-.477 5.58v-3.909a.534.534 0 0 0-.269-.467Zm1.382-2.08a4.184 4.184 0 0 0-.098-.058L12.765 5.78a.535.535 0 0 0-.54 0L8.214 8.097V6.494a.051.051 0 0 1 .02-.043l3.32-1.916a3.092 3.092 0 0 1 4.593 3.202Zm-8.689 2.858-1.39-.802a.049.049 0 0 1-.026-.038V5.919a3.093 3.093 0 0 1 5.071-2.375 2.305 2.305 0 0 0-.097.055L7.73 5.497a.533.533 0 0 0-.27.467l-.002 4.63v.001Zm.754-1.626L10 7.937l1.787 1.031v2.063L10 12.062l-1.787-1.03V8.968Z"/></svg>