<svg xmlns="http://www.w3.org/2000/svg" viewBox="0 0 20 20">
  <rect width="100%" height="100%" fill="#fff"/>
  <path fill="#231F20" d="M13.2366 15.75H6.7634a5.7703 5.7703 0 0 1-4.0753-1.6841A5.7435 5.7435 0 0 1 1 10c0-1.525.6072-2.9875 1.688-4.0659A5.7702 5.7702 0 0 1 6.7635 4.25h6.4732a5.7703 5.7703 0 0 1 4.0754 1.6841A5.7433 5.7433 0 0 1 19 10a5.7436 5.7436 0 0 1-1.688 4.0659 5.7705 5.7705 0 0 1-4.0754 1.6841Zm.0251-9.9856a4.2523 4.2523 0 0 0-2.3586.7138 4.2376 4.2376 0 0 0-1.5637 1.9009 4.2264 4.2264 0 0 0-.2416 2.4472 4.2329 4.2329 0 0 0 1.1619 2.1688 4.2496 4.2496 0 0 0 2.1738 1.1592 4.2548 4.2548 0 0 0 2.4529-.2411 4.2428 4.2428 0 0 0 1.9053-1.56A4.2289 4.2289 0 0 0 17.5072 10a4.2252 4.2252 0 0 0-.3234-1.6234 4.2319 4.2319 0 0 0-.9226-1.3755 4.2447 4.2447 0 0 0-1.3807-.9175 4.2515 4.2515 0 0 0-1.6279-.3192h.0091Z"/>
</svg>
