<svg xmlns="http://www.w3.org/2000/svg" viewBox="0 0 20 20">
  <rect width="100%" height="100%" fill="#fff"/>
  <path fill="#FF1B2D" d="M17.9688 10.0099C17.9688 12.3811 16.936 14.5131 15.3073 15.9875C13.2616 16.9838 11.3548 16.2864 10.7193 15.8481C12.7253 15.4097 14.2546 12.9589 14.2546 10.0099C14.2546 7.06101 12.7253 4.6102 10.7193 4.17184C11.3548 3.73349 13.2616 3.0361 15.3073 4.03236C16.936 5.50684 17.9688 7.63884 17.9688 10.0099Z"/>
  <path fill="#FF1B2D" d="M7.36266 5.48693C6.48874 6.52304 5.91275 8.07722 5.87302 9.8107V10.1893C5.91275 11.9228 6.48874 13.477 7.36266 14.5131C8.51462 16.0075 10.2029 16.944 12.1096 16.944C13.2814 16.944 14.3738 16.5853 15.3073 15.9676C13.8971 17.2428 12.0301 18 9.98438 18C9.86522 18 9.72619 18 9.60702 18C5.37648 17.8207 2 14.3138 2 10.01C2 5.58654 5.5751 2 9.98438 2C10.0043 2 10.0043 2 10.0241 2C12.05 2 13.8971 2.77707 15.3073 4.03236C14.3738 3.41468 13.2814 3.05604 12.1096 3.05604C10.2029 3.05604 8.49477 4.01245 7.36266 5.48693Z"/>
</svg>
