<svg xmlns="http://www.w3.org/2000/svg" viewBox="0 0 20 20"><path fill="#f99500" d="M0 0h20v20H0z"/><path d="M10.08 18a8 8 0 118-8 8 8 0 01-8 8zm1.32-8.12a1.53 1.53 0 00.49.83 4 4 0 001.67.77c.46.14.92.27 1.37.42a.93.93 0 01.63.67 2.75 2.75 0 01.09 1.21c0 .24-.06.48-.1.74h.09a4 4 0 00.67-1.52 1.24 1.24 0 00-.94-1.55 10.6 10.6 0 00-1.25-.24 5 5 0 01-2.28-.9 4.58 4.58 0 01-.44-.43zm-2.68 0a5.46 5.46 0 01-.45.39 5.2 5.2 0 01-2.57.9 3 3 0 00-1.3.38 1.12 1.12 0 00-.57 1 3.29 3.29 0 00.54 1.63c0 .09.12.18.18.27a.22.22 0 000-.16A13.26 13.26 0 014.53 13a1.09 1.09 0 01.83-1.11l1.24-.36a4.21 4.21 0 001.58-.69 1.45 1.45 0 00.54-.92zM13.11 14v-.09c-.34-.18-.66-.38-1-.54a3.85 3.85 0 00-1.82-.37 6.93 6.93 0 00-2.77.78c-.2.1-.4.22-.59.33v.07C9 13.43 11 13 13.11 14zM9.3 3.75v-.08a8.09 8.09 0 00-.84.4 1.94 1.94 0 00-1 1.83 4.25 4.25 0 00.74 2.19l.13.09a1.83 1.83 0 00-.08-.27A4.83 4.83 0 018 5.65 2.39 2.39 0 019.05 3.9zm2.34 4.73a2.71 2.71 0 001.17-2.67 4.39 4.39 0 01-.87 2 1.73 1.73 0 00-.5-1.24A2 2 0 0010.26 6a2.48 2.48 0 011.38 2.48zM10.21 15l-.06-.07A8.07 8.07 0 017 16.4c.38.19.71.45 1.18.26a4.29 4.29 0 001.63-1.12c.12-.17.26-.37.4-.54zm3.22 1.41A8.68 8.68 0 0110.32 15a.36.36 0 00.07.2 4.16 4.16 0 001.74 1.45 1.28 1.28 0 001.3-.25zm-4-10.13A2.05 2.05 0 008.53 8 2.39 2.39 0 0010 9.78a2.69 2.69 0 01-.62-3.51zm1.1-1.07a4.86 4.86 0 00-.23-.59.33.33 0 00-.56-.05 1.08 1.08 0 000 1.25.31.31 0 00.53 0 4.07 4.07 0 00.21-.62zm-4.8 8.64a3.2 3.2 0 013-.91v-.06a3.42 3.42 0 00-2.12-.12 1.21 1.21 0 00-.88 1.09zm4.8-10.15a3.87 3.87 0 012.31 1.76c.16-.94-1.28-2.07-2.31-1.76zm-.3.51c-.26-.39-.07-.69.07-1a.54.54 0 00-.17-.63c0 .13-.05.26-.09.38a2.33 2.33 0 01-.2.34c-.23.4-.12.7.39.91z" fill="#fff"/></svg>