<svg  viewBox="0 0 20 20" fill="none" xmlns="http://www.w3.org/2000/svg">
<path d="M0 0H20V20H0V0Z" fill="#169CEE"/>
<path d="M11.3333 11.9467H7.4C6.82669 11.9467 6.49331 12.3 6.49331 12.8067C6.49331 13.26 6.8 13.58 7.24 13.58C7.75331 13.58 8.04669 13.2267 8.07331 12.72H9.21331C9.15331 13.96 8.38 14.62 7.22669 14.62C6.14669 14.62 5.34 13.8867 5.34 12.7933C5.34 11.6533 6.18669 10.86 7.46 10.86H11.3533C12.6667 10.86 13.6667 9.89331 13.6667 8.59331C13.6667 7.28 12.7733 6.35331 11.5 6.35331C10.24 6.35331 9.22 7.27331 9.22 8.97331V10.0867H8.06669V8.97331C8.06669 6.72 9.51331 5.26 11.52 5.26C13.4333 5.26 14.8267 6.63331 14.8267 8.58C14.84 10.5267 13.3467 11.9467 11.3333 11.9467ZM10 18C14.4733 18 18 14.46 18 10C18 5.54 14.4733 2 10 2C5.52669 2 2 5.55331 2 10C2 14.46 5.52669 18 10 18Z" fill="white"/>
</svg>
