<svg viewBox="0 0 20 20" xmlns="http://www.w3.org/2000/svg">
  <rect width="100%" height="100%" fill="#4C00FF"/>
  <path d="M15.4368 3.50021C15.8773 3.50021 16.3168 3.61471 16.7184 3.84544C17.5205 4.30604 18 5.13172 18 6.05291V13.9471C18 14.8683 17.5205 15.694 16.7184 16.1546C15.9162 16.6151 14.9573 16.6151 14.1552 16.1546L11.5557 14.6619L13.1119 13.7687L14.9329 14.8142C15.3879 15.0747 15.7884 14.9008 15.9398 14.8142C16.0912 14.7277 16.4428 14.469 16.4428 13.9471V6.05291C16.4428 5.53103 16.0912 5.27232 15.9398 5.18579C15.7884 5.09925 15.3869 4.92534 14.9329 5.18579L8.05898 9.13288C7.60492 9.39337 7.55597 9.82604 7.55597 10C7.55597 10.174 7.60492 10.6066 8.05898 10.8671L8.4433 11.088L6.92426 11.9605V11.9596C6.33966 11.481 5.99976 10.7752 5.99976 10C5.99976 9.07882 6.4792 8.25313 7.28132 7.79254L14.1552 3.84544C14.5567 3.61561 14.9963 3.50021 15.4368 3.50021Z" fill="white"/>
  <path d="M3.28156 3.84544C4.08368 3.38485 5.04174 3.38486 5.84477 3.84544L8.44419 5.33816L6.88797 6.23143L5.06711 5.18579C4.61217 4.92534 4.21159 5.09925 4.0602 5.18579C3.90884 5.27232 3.55711 5.53103 3.5571 6.05291V13.948C3.5571 14.4699 3.90884 14.7286 4.0602 14.8151C4.21158 14.9016 4.61305 15.0756 5.06711 14.8151L11.9409 10.868C12.395 10.6075 12.444 10.1748 12.444 10.0009C12.444 9.8269 12.395 9.39432 11.9409 9.13385L11.5567 8.913L13.0757 8.04041C13.6603 8.51903 14.0002 9.22484 14.0002 10C14.0002 10.9212 13.5207 11.7469 12.7186 12.2075L5.84477 16.1546C5.44327 16.3844 5.00369 16.4998 4.56321 16.4998C4.12272 16.4998 3.68308 16.3853 3.28156 16.1546C2.47944 15.694 2 14.8683 2 13.9471V6.05291C2.00001 5.13173 2.47944 4.30694 3.28156 3.84544Z" fill="white"/>
</svg>
