<?xml version="1.0" encoding="utf-8"?>
<!-- Generator: Adobe Illustrator 18.1.1, SVG Export Plug-In . SVG Version: 6.00 Build 0)  -->
<!DOCTYPE svg PUBLIC "-//W3C//DTD SVG 1.1 Basic//EN" "http://www.w3.org/Graphics/SVG/1.1/DTD/svg11-basic.dtd">
<svg version="1.1" baseProfile="basic" id="Layer_1"
	 xmlns="http://www.w3.org/2000/svg" xmlns:xlink="http://www.w3.org/1999/xlink" x="0px" y="0px" viewBox="0 0 64 64"
	 xml:space="preserve">
<path fill="none" stroke="#000000" stroke-width="2" stroke-miterlimit="10" d="M133.406,15.349"/>
<path fill="none" stroke="#000000" stroke-width="2" stroke-miterlimit="10" d="M118.079,17.665c-1.281,0-2.32,1.039-2.32,2.32
	v5.365h11.609v-2.673"/>
<path fill="none" stroke="#000000" stroke-width="2" stroke-miterlimit="10" d="M140.456,32.197"/>
<path fill="none" stroke="#000000" stroke-width="2" stroke-miterlimit="10" d="M140.454,39.076"/>
<path fill="none" stroke="#000000" stroke-width="2" stroke-miterlimit="10" d="M141,9.23"/>
<g>
	<path fill="none" stroke="#000000" stroke-width="2" stroke-linecap="round" stroke-linejoin="round" stroke-miterlimit="10" d="
		M133.32,25.349c0-5.5-4.414-10-9.914-10v2.316h-5.327"/>
	<path fill="none" stroke="#000000" stroke-width="2" stroke-linecap="round" stroke-linejoin="round" stroke-miterlimit="10" d="
		M153.147,24.649"/>
	<path fill="none" stroke="#000000" stroke-width="2" stroke-linecap="round" stroke-linejoin="round" stroke-miterlimit="10" d="
		M153.23,25.852"/>
	<path fill="none" stroke="#000000" stroke-width="2" stroke-linecap="round" stroke-linejoin="round" stroke-miterlimit="10" d="
		M133.32,24.533c0-4.794,2.886-8.68,7.68-8.68c0.011,0,0.021,0.002,0.031,0.002c0.312-3.202,3.01-5.704,6.294-5.704
		c3.142,0,5.742,2.294,6.234,5.297c0.354-0.063,0.717-0.097,1.089-0.097c3.345,0.014,9.168-0.122,9.168,4.998
		c0,2.756,1.495,7.785-2.976,9.997v14.978h-2.763V30.59c-0.074-0.011-0.147-0.017-0.221-0.031c-2.438-0.47-4.224-2.399-4.628-4.707"
		/>
</g>
<path fill="none" stroke="#000000" stroke-width="2" stroke-miterlimit="10" d="M145.316,32.554"/>
<line fill="none" stroke="#000000" stroke-width="2" stroke-miterlimit="10" x1="142" y1="44.907" x2="144.763" y2="44.907"/>
<line fill="none" stroke="#000000" stroke-width="2" stroke-miterlimit="10" x1="152.781" y1="37.076" x2="155.544" y2="37.076"/>
<line fill="none" stroke="#000000" stroke-width="2" stroke-miterlimit="10" x1="136.515" y1="42.208" x2="139.279" y2="42.208"/>
<line fill="none" stroke="#000000" stroke-width="2" stroke-miterlimit="10" x1="158.078" y1="41.663" x2="160.841" y2="41.663"/>
<path fill="none" stroke="#000000" stroke-width="2" stroke-linejoin="round" stroke-miterlimit="10" d="M153.585,32.073"/>
<path fill="none" stroke="#000000" stroke-width="2" stroke-linejoin="round" stroke-miterlimit="10" d="M154.163,28.134
	c-2.236,1.687-5.677,3.481-8.523,4.063"/>
<path fill="none" stroke="#000000" stroke-width="2" stroke-miterlimit="10" d="M127.369,25.349
	c0.625,4.948,5.003,8.915,10.528,9.769"/>
<path fill="none" stroke="#000000" stroke-width="2" stroke-linecap="round" stroke-linejoin="round" stroke-miterlimit="10" d="
	M144.324,30.946"/>
<path fill="none" stroke="#000000" stroke-width="2" stroke-linecap="round" stroke-linejoin="round" stroke-miterlimit="10" d="
	M137.801,35.148c0.519,1.616,2.035,2.786,3.824,2.786v11.097h2.763V36.82c0.768-0.731,1.252-1.758,1.252-2.902v-1.722"/>
<path fill="none" stroke="#000000" stroke-width="2" stroke-linecap="round" stroke-linejoin="round" stroke-miterlimit="10" d="
	M137.609,32.918c0,0.429,0.067,1.842,0.192,2.229"/>
<polyline fill="none" stroke="#000000" stroke-width="2" stroke-linejoin="round" stroke-miterlimit="10" points="138.991,36.948 
	138.991,46.324 136.227,46.324 136.227,34.75 "/>
<polyline fill="none" stroke="#000000" stroke-width="2" stroke-linejoin="round" stroke-miterlimit="10" points="155.544,29.95 
	155.544,41.208 152.781,41.208 152.781,29.095 "/>
<path d="M56.861,22.24c-0.047-0.326-0.106-0.652-0.18-0.977c-0.261-1.15-0.676-2.198-1.282-3.225
	c-0.193-0.311-0.402-0.606-0.625-0.887c-1.854-2.332-4.675-3.557-7.687-3.377l-1.065-0.001c-1.089-3.097-4.007-5.198-7.349-5.198
	c-3.35,0-6.273,2.111-7.357,5.22c-3.391,0.24-6.256,2.411-7.502,5.416c-1.889-3.762-5.564-6.438-9.581-6.438c-0.552,0-1,0.448-1,1
	v2.316H9.906c-1.83,0-3.319,1.489-3.319,3.32v6.364h10.769c0.959,4.513,4.801,8.199,9.809,9.464
	c0.033,0.197,0.065,0.394,0.099,0.595l0.144,0.869c0.444,2.728,0.837,13.096-1.5,17.231c-0.175,0.31-0.172,0.689,0.007,0.996
	c0.179,0.308,0.508,0.496,0.864,0.496h5.705c0.553,0,1-0.447,1-1c0-3.369-0.151-5.791-0.273-7.737
	c-0.089-1.435-0.166-2.673-0.166-3.94c0-1.459,0.443-3.734,1.099-5.878c3.304-0.073,7.723-0.623,10.816-1.592
	c0.071,0.582,0.359,1.26,0.788,2.231c1.327,3.005,3.798,8.598,1.285,16.618c-0.096,0.304-0.04,0.635,0.148,0.891
	c0.188,0.257,0.487,0.408,0.806,0.408h5.249c0.285,0,0.558-0.122,0.747-0.335c0.189-0.214,0.279-0.498,0.246-0.781
	c-0.014-0.118-1.361-11.863,0.491-17.84l0.149-0.519c0.254-0.849,0.546-1.692,0.839-2.537C56.915,29.93,58.162,26.331,56.861,22.24z
	 M53.819,32.758c-0.302,0.872-0.604,1.744-0.866,2.623l-0.15,0.523c-1.642,5.292-0.978,14.353-0.676,17.521h-2.812
	c2.099-8.04-0.376-13.643-1.737-16.725c-0.284-0.645-0.639-1.445-0.647-1.682c0-3.001,0.635-5.253,1.999-7.087
	c0.329-0.443,0.237-1.069-0.206-1.399c-0.441-0.33-1.07-0.237-1.399,0.206c-1.323,1.779-2.064,3.851-2.301,6.407
	c-2.598,0.947-6.82,1.558-10.176,1.7c0.488-1.239,1.031-2.303,1.572-2.946c0.356-0.422,0.302-1.053-0.12-1.409
	c-0.425-0.356-1.055-0.299-1.409,0.121c-0.869,1.032-1.716,2.859-2.392,4.864c-0.007,0.016-0.01,0.034-0.016,0.05
	c-0.856,2.55-1.436,5.378-1.436,7.221c0,1.33,0.079,2.598,0.171,4.064c0.113,1.809,0.239,3.834,0.265,6.613h-3.152
	c1.977-5.367,1.431-14.735,1.054-17.046l-0.145-0.877c-0.33-1.975-0.615-3.681-0.613-6.071c0-0.552-0.447-1-0.999-1.001
	c0,0,0,0-0.001,0c-0.552,0-1,0.447-1,0.999c-0.001,1.386,0.087,2.542,0.222,3.641c-4.116-1.323-7.147-4.554-7.65-8.377v-2.591h-2
	v1.672H8.586v-4.364c0-0.728,0.592-1.32,1.319-1.32h4.327c0.552,0,1-0.448,1-1v-2.248c4.592,0.632,7.914,5.525,7.914,9.932
	c0,0.552,0.448,1,1,1s1-0.448,1-1v-2.201c0-3.749,3.05-6.799,6.799-6.799h0.124c0.461,0,0.863-0.316,0.972-0.765
	c0.632-2.61,2.948-4.433,5.632-4.433s5,1.823,5.632,4.433c0.108,0.449,0.51,0.765,0.972,0.765l1.869-0.001
	c2.461-0.151,4.599,0.783,6.062,2.625c0.177,0.222,0.341,0.455,0.48,0.679c0.487,0.824,0.827,1.684,1.042,2.63
	c0.067,0.298,0.12,0.596,0.161,0.895c0.008,0.059,0.021,0.117,0.039,0.174C56.069,26.261,54.976,29.417,53.819,32.758z"/>
</svg>
