<svg id="Layer_1" data-name="Layer 1" xmlns="http://www.w3.org/2000/svg" viewBox="0 0 20 20"><defs><style>.cls-2{fill:#fff}</style></defs><path fill="#3a3c5b" d="M0 0h20v20H0z"/><path class="cls-2" d="M9.08 17.09l-.5.81.72-.42.33.41.37-.41.74.47-.56-.86h-1.1z"/><path class="cls-2" d="M15.33 9.42C14 7.47 11.6 7 10.93 5.94a.94.94 0 0 1-.24-.47 2.92 2.92 0 0 0 1.79-3 3.2 3.2 0 0 0-2.65 2A2.92 2.92 0 0 0 7.36 2a3.16 3.16 0 0 0 1.4 3.31c.06.12 0 .34-.08.48a2.2 2.2 0 0 1-.63.66c-1 .8-2.8 1.46-3.8 3.22a5.11 5.11 0 0 0-.62 3.2c.43 2.52 3.37 4.52 6.22 4.51s5.94-2.17 6.28-4.75a4.94 4.94 0 0 0-.8-3.21zM5.16 13.11c-.62-2.66 2-4.95 2.09-4.88s-1.66 1.9-1.42 4.17a5.45 5.45 0 0 0 2.07 3.7 4.32 4.32 0 0 1-2.74-2.99zm3.44-1.69c-.76 1.73.55 4.9.55 4.9l-.3-.41a5.82 5.82 0 0 1-1.22-4.14A4.55 4.55 0 0 1 8 10.4a20.18 20.18 0 0 0 1.6-3.71 4 4 0 0 0 .12-.83c.06 0 .3.14.38.37.42 1.14-.89 3.77-1.5 5.19zm4.4 3.37a2.77 2.77 0 0 1-2.08 1.57c0-.05.71-.61 1.21-1.28a5.59 5.59 0 0 0 1-2.09c.01-.13.15.94-.13 1.8z"/></svg>