<svg xmlns="http://www.w3.org/2000/svg" viewBox="0 0 20 20">
  <rect width="100%" height="100%" fill="#004065"/>
  <path fill="#fff" d="M11.98 10.56c.15.87.25 1.75.3 2.63.02.55-.14 1.09-.45 1.54-.07.26-.3 0-.45 0-.39 0-.53-.43-.74-.68-.21-.25-.06-.5.08-.7.15-.1.21-.35.42-.35.22 0 .2-.3.16-.45.14-.22.06-.55.2-.79.25-.11.17-.5.26-.72.07-.16 0-.46.2-.53 0 0 .02 0 .02.04v.01Zm-.24-8.98c-.33-.04-.57.19-.85.31-.22.08-.46.14-.7.19-.16.35-.56.55-.77.88a3.5 3.5 0 0 1-1.16 1.65c-.77.4-1.16 1.28-1.42 2.1-.09.18-.07.46-.17.61-.3.1-.14-.31-.17-.5-.05-.29.2-.47.22-.75.1-.2.14-.42.12-.64-.03-.5.12-1.1-.23-1.52-.22-.12-.15-.38-.22-.58-.2-.28-.47-.52-.77-.7-.25-.02-.48-.35-.74-.2-.16.2-.46.19-.55.44-.06.31-.41.23-.63.3-.3.12-.67 0-.91.24s-.64.58-.52.97c.28.55.99.27 1.37.6-.12.37-.26.72-.42 1.06-.06.48-.07.96-.03 1.43.08.48-.05 1.1.35 1.42.23.09.21.35.3.55.09.2.25-.07.32.12.21.11.02.35.14.49.18.04.35.13.49.26.21.15.41.32.6.5.13.3.3-.27.46-.06a.35.35 0 0 0 .46.2l.03-.02c.29-.05.55-.17.78-.34.15.53.04 1.11.1 1.66.1.4.15.82.18 1.23.1.4.16.82.18 1.24.11.87-.04 1.76-.43 2.55a.62.62 0 0 1-.48.49c-.18.08-.54.21-.43.47.4.35 1.05.32 1.51.14.3-.15.04-.53.2-.75.21-.8.1-1.65.35-2.45.19-.4.26-.85.21-1.29.05-.27-.06-.6.11-.81 0-.27.1-.53.28-.73.05-.41.08-.83.08-1.24.25-.08.5-.1.76-.08 0 .23-.16.5-.11.75.05.3 0 .6-.16.85-.1.46-.18 1.02.1 1.4.47.52 1.08.88 1.52 1.43a.32.32 0 0 1 .05.45l-.03.03a.93.93 0 0 1-.59.64c-.18.07-.48.35-.27.54.44.1.9.06 1.3-.1.3-.1.2-.45.3-.67.16.21.3.43.43.66.17.26.48.04.7-.04a2.2 2.2 0 0 0-.23-1.13c-.1-.24-.48-.24-.46-.52.19-.7.65-1.24 1.02-1.83.3-.3.08-.73.1-1.1a4.2 4.2 0 0 1 .65-2.72c.1.44.25.88.42 1.3.12.5.34.98.65 1.4.14.49.1 1.04.2 1.55.13.9.08 1.8-.16 2.68.02.31-.27.55-.25.86.09.29.43.06.6.18a.65.65 0 0 0 .79-.35c-.07-.24-.12-.5-.15-.74a4.67 4.67 0 0 1-.15-2.3c.03-.4.27-.9-.04-1.27-.1-.37.06-.78-.03-1.17-.22-1-.24-2.02-.07-3.02.05-.14 0-.4.15-.47.14.22.21.48.18.75.14.41.15.85.05 1.27-.25.33-.1.77-.06 1.14.04.25.3.07.34-.1.24-.43.43-.9.57-1.37.16-.21 0-.47 0-.7.24-.03.15-.31.02-.42-.14-.45-.1-.97-.4-1.35a6.38 6.38 0 0 1-1.17-1.67c-.32-1-1.22-1.67-1.52-2.68a2.2 2.2 0 0 0-.98-1.43c-.22-.1-.45-.18-.7-.25-.2.04-.4.07-.6.08"/>
</svg>