<svg xmlns="http://www.w3.org/2000/svg" viewBox="0 0 80 80"><path d="M50.67 42.64A111.93 111.93 0 0152.08 55a12.16 12.16 0 01-2.15 7.25c-.34 1.24-1.38 0-2.12 0-1.83 0-2.5-2-3.49-3.19s-.28-2.32.38-3.29c.71-.51 1-1.64 2-1.64s.89-1.4.74-2.14c.67-1 .26-2.56.92-3.7 1.18-.52.84-2.37 1.25-3.4.33-.74 0-2.16.94-2.47 0 0 .11 0 .09.17M49.52.38c-1.55-.18-2.71.87-4 1.46a29.07 29.07 0 01-3.29.89c-.81 1.64-2.67 2.61-3.67 4.16a16.5 16.5 0 01-5.49 7.76c-3.65 1.89-5.49 6-6.69 9.87-.41.87-.35 2.15-.79 2.89-1.45.41-.68-1.48-.84-2.38-.22-1.35 1-2.22 1.05-3.54a5.34 5.34 0 00.59-3c-.16-2.35.55-5.21-1.12-7.14-1-.57-.67-1.79-1-2.73a11.92 11.92 0 00-3.67-3.29c-1.18-.11-2.27-1.64-3.48-.93-.76.89-2.16.87-2.6 2.05-.28 1.48-1.94 1.09-3 1.45-1.38.54-3.16 0-4.29 1.1s-3 2.72-2.43 4.57c1.3 2.55 4.65 1.27 6.48 2.82-.58 1.71-1.25 3.38-2 5a29.62 29.62 0 00-.14 6.72c.35 2.24-.23 5.12 1.65 6.69 1.07.4 1 1.65 1.41 2.57s1.2-.33 1.53.56c1 .53.1 1.64.63 2.3a4.57 4.57 0 012.32 1.23 20.05 20.05 0 012.81 2.39c.66 1.35 1.49-1.32 2.22-.31a1.64 1.64 0 002.14.9l.18-.08a8.38 8.38 0 003.68-1.6c.71 2.52.16 5.25.48 7.85a35 35 0 01.81 5.76 27.54 27.54 0 01.85 5.85 20.86 20.86 0 01-2 12 2.9 2.9 0 01-2.29 2.3c-.82.38-2.53 1-2 2.24 1.91 1.64 4.94 1.46 7.12.62 1.45-.7.2-2.46.94-3.53 1-3.75.5-7.76 1.65-11.51a11.13 11.13 0 001-6.07c.23-1.27-.3-2.8.52-3.83A5.32 5.32 0 0136.08 51a44 44 0 00.42-5.84 8.84 8.84 0 013.58-.36c0 1.08-.77 2.33-.54 3.55a5.72 5.72 0 01-.74 4c-.51 2.14-.86 4.77.47 6.58 2.21 2.42 5.09 4.13 7.17 6.71a1.5 1.5 0 01.23 2.12l-.13.15a4.37 4.37 0 01-2.79 3c-.87.35-2.27 1.65-1.25 2.55a10.88 10.88 0 006.16-.46c1.35-.49.86-2.12 1.39-3.14a34.35 34.35 0 012 3.07c.84 1.25 2.29.22 3.29-.18a10.33 10.33 0 00-1.07-5.29C53.81 66.33 52 66.3 52.1 65c.89-3.29 3.09-5.85 4.84-8.63 1.44-1.39.36-3.44.44-5.18a19.73 19.73 0 013.07-12.79 47.42 47.42 0 002 6.16 17.87 17.87 0 003.06 6.51c.67 2.34.49 4.94.94 7.35A30.79 30.79 0 0165.72 71c.11 1.5-1.3 2.6-1.17 4.07.39 1.34 2 .26 2.79.83a3.1 3.1 0 003.75-1.64 18.85 18.85 0 01-.69-3.5A21.91 21.91 0 0169.68 60c.13-1.94 1.3-4.31-.21-6-.42-1.78.29-3.7-.14-5.53a37.79 37.79 0 01-.33-14.2c.26-.66 0-1.88.71-2.24a5.38 5.38 0 01.88 3.55 10.87 10.87 0 01.23 6c-1.2 1.53-.46 3.6-.31 5.32.2 1.22 1.46.35 1.65-.41A35 35 0 0074.81 40c.76-1 0-2.22 0-3.29 1.17-.15.72-1.46.1-2-.63-2.1-.48-4.54-1.89-6.33a30 30 0 01-5.49-7.86C66 15.8 61.75 12.66 60.31 7.89a10.29 10.29 0 00-4.59-6.69A21.21 21.21 0 0052.43 0a17.8 17.8 0 01-2.91.36" fill="#004065"/></svg>