<svg viewBox="0 0 20 20" xmlns="http://www.w3.org/2000/svg">
<rect width="100%" height="100%" fill="white"/>
<path d="M10.3604 1.5V6.08144L14.8484 1.5898V6.40424H16.7691V13.2743H14.8484V18.1159L10.3604 13.6234V18.4756H9.88887V13.6441L5.42163 18.1159V13.2743H3.5V6.40424H5.42117V1.5898L9.88887 6.06118V1.5H10.3604ZM5.89318 11.2187V16.9767L9.88887 12.9778V7.21931L5.89318 11.2187ZM10.371 12.9672L14.3768 16.9767V13.2743H14.3759L14.3764 13.0386V11.2191L10.371 7.20964V12.9672ZM14.8484 6.87671H10.7049L14.8484 11.0239V12.8028H16.2975V6.87579H14.8484V6.87671ZM3.97154 12.8028H5.42117L5.42163 11.0239L9.56468 6.87671H5.42117V6.87579H3.97154V12.8028ZM10.7049 6.40424H14.3768V2.72813L10.7049 6.40424ZM5.89272 6.40424H9.56468L5.89272 2.72813V6.40424Z" fill="#20808D"/>
</svg>
