<svg viewBox="0 0 20 20" fill="none" xmlns="http://www.w3.org/2000/svg">
<rect width="20" height="20" fill="#336791"/>
<path d="M3.24749 8.50697V14.6305H2.36456V7.51961H3.17154L3.24749 8.50697ZM6.708 10.045V10.1447C6.708 10.5181 6.6637 10.8646 6.57509 11.1842C6.48648 11.5007 6.35673 11.776 6.18584 12.0102C6.01812 12.2444 5.81083 12.4264 5.56399 12.5561C5.31715 12.6858 5.03392 12.7507 4.71429 12.7507C4.38834 12.7507 4.10036 12.6969 3.85035 12.5893C3.60035 12.4817 3.38832 12.3251 3.21426 12.1194C3.04021 11.9137 2.90097 11.6668 2.79653 11.3789C2.69527 11.0909 2.62564 10.7665 2.58767 10.4057V9.87408C2.62564 9.49433 2.69685 9.15413 2.80128 8.8535C2.90571 8.55286 3.04337 8.29652 3.21426 8.08449C3.38832 7.8693 3.59876 7.70632 3.8456 7.59556C4.09245 7.48163 4.37726 7.42467 4.70005 7.42467C5.02284 7.42467 5.30924 7.48796 5.55925 7.61455C5.80925 7.73797 6.0197 7.91519 6.19059 8.1462C6.36148 8.37722 6.48964 8.65412 6.57509 8.97692C6.6637 9.29654 6.708 9.65256 6.708 10.045ZM5.82507 10.1447V10.045C5.82507 9.78864 5.79818 9.54813 5.74438 9.32344C5.69058 9.09559 5.60672 8.89622 5.49279 8.72533C5.38203 8.55127 5.23962 8.4152 5.06557 8.31709C4.89151 8.21582 4.68423 8.16519 4.44372 8.16519C4.22219 8.16519 4.02915 8.20317 3.86459 8.27912C3.7032 8.35507 3.56554 8.45792 3.45161 8.58767C3.33768 8.71425 3.24433 8.85982 3.17154 9.02438C3.10192 9.18578 3.0497 9.3535 3.01489 9.52756V10.757C3.07818 10.9785 3.16679 11.1874 3.28072 11.3836C3.39465 11.5767 3.54655 11.7333 3.73643 11.8536C3.9263 11.9706 4.16523 12.0292 4.45321 12.0292C4.69056 12.0292 4.89468 11.9801 5.06557 11.882C5.23962 11.7808 5.38203 11.6431 5.49279 11.4691C5.60672 11.295 5.69058 11.0956 5.74438 10.8709C5.79818 10.6431 5.82507 10.401 5.82507 10.1447Z" fill="white"/>
<path d="M11.1559 7.51961H11.9534V12.5466C11.9534 12.9991 11.8616 13.3852 11.678 13.7049C11.4945 14.0245 11.2382 14.2666 10.909 14.4311C10.5831 14.5989 10.2065 14.6827 9.77927 14.6827C9.60205 14.6827 9.39318 14.6542 9.15267 14.5973C8.91533 14.5435 8.68114 14.4501 8.45013 14.3172C8.22227 14.1875 8.03081 14.0118 7.87575 13.7903L8.3362 13.2681C8.55139 13.5276 8.77608 13.708 9.01026 13.8093C9.24761 13.9106 9.48179 13.9612 9.71281 13.9612C9.9913 13.9612 10.2318 13.909 10.4343 13.8045C10.6369 13.7001 10.7935 13.545 10.9043 13.3393C11.0182 13.1368 11.0752 12.8868 11.0752 12.5893V8.64938L11.1559 7.51961ZM7.61941 10.1447V10.045C7.61941 9.65256 7.6653 9.29654 7.75707 8.97692C7.85201 8.65412 7.98651 8.37722 8.16056 8.1462C8.33778 7.91519 8.55139 7.73797 8.8014 7.61455C9.0514 7.48796 9.33306 7.42467 9.64635 7.42467C9.96914 7.42467 10.2508 7.48163 10.4913 7.59556C10.735 7.70632 10.9407 7.8693 11.1084 8.08449C11.2793 8.29652 11.4138 8.55286 11.5119 8.8535C11.61 9.15413 11.678 9.49433 11.716 9.87408V10.3108C11.6812 10.6874 11.6132 11.026 11.5119 11.3266C11.4138 11.6273 11.2793 11.8836 11.1084 12.0956C10.9407 12.3077 10.735 12.4707 10.4913 12.5846C10.2476 12.6953 9.96281 12.7507 9.63686 12.7507C9.32989 12.7507 9.0514 12.6858 8.8014 12.5561C8.55456 12.4264 8.34253 12.2444 8.16531 12.0102C7.98809 11.776 7.85201 11.5007 7.75707 11.1842C7.6653 10.8646 7.61941 10.5181 7.61941 10.1447ZM8.4976 10.045V10.1447C8.4976 10.401 8.52291 10.6415 8.57355 10.8662C8.62735 11.0909 8.70804 11.2887 8.81564 11.4596C8.9264 11.6304 9.06723 11.7649 9.23812 11.863C9.40901 11.958 9.61312 12.0055 9.85047 12.0055C10.1416 12.0055 10.3821 11.9437 10.572 11.8203C10.7619 11.6969 10.9122 11.5339 11.023 11.3314C11.1369 11.1289 11.2255 10.9089 11.2888 10.6716V9.52756C11.254 9.3535 11.2002 9.18578 11.1274 9.02438C11.0578 8.85982 10.966 8.71425 10.8521 8.58767C10.7413 8.45792 10.6036 8.35507 10.4391 8.27912C10.2745 8.20317 10.0815 8.16519 9.85996 8.16519C9.61945 8.16519 9.41217 8.21582 9.23812 8.31709C9.06723 8.4152 8.9264 8.55127 8.81564 8.72533C8.70804 8.89622 8.62735 9.09559 8.57355 9.32344C8.52291 9.54813 8.4976 9.78864 8.4976 10.045Z" fill="white"/>
<path d="M13.2825 5.3645H14.1654V11.6589L14.0895 12.6558H13.2825V5.3645ZM17.6354 10.045V10.1447C17.6354 10.5181 17.5911 10.8646 17.5025 11.1842C17.4139 11.5007 17.2842 11.776 17.1133 12.0102C16.9424 12.2444 16.7335 12.4264 16.4867 12.5561C16.2398 12.6858 15.9566 12.7507 15.637 12.7507C15.311 12.7507 15.0246 12.6953 14.7778 12.5846C14.5341 12.4707 14.3284 12.3077 14.1607 12.0956C13.993 11.8836 13.8585 11.6273 13.7572 11.3266C13.6591 11.026 13.5911 10.6874 13.5531 10.3108V9.87408C13.5911 9.49433 13.6591 9.15413 13.7572 8.8535C13.8585 8.55286 13.993 8.29652 14.1607 8.08449C14.3284 7.8693 14.5341 7.70632 14.7778 7.59556C15.0215 7.48163 15.3047 7.42467 15.6275 7.42467C15.9503 7.42467 16.2367 7.48796 16.4867 7.61455C16.7367 7.73797 16.9455 7.91519 17.1133 8.1462C17.2842 8.37722 17.4139 8.65412 17.5025 8.97692C17.5911 9.29654 17.6354 9.65256 17.6354 10.045ZM16.7525 10.1447V10.045C16.7525 9.78864 16.7288 9.54813 16.6813 9.32344C16.6338 9.09559 16.5579 8.89622 16.4534 8.72533C16.349 8.55127 16.2114 8.4152 16.0405 8.31709C15.8696 8.21582 15.6591 8.16519 15.4091 8.16519C15.1876 8.16519 14.9946 8.20317 14.83 8.27912C14.6686 8.35507 14.5309 8.45792 14.417 8.58767C14.3031 8.71425 14.2097 8.85982 14.1369 9.02438C14.0673 9.18578 14.0151 9.3535 13.9803 9.52756V10.6716C14.0309 10.8931 14.1132 11.1067 14.2271 11.3124C14.3442 11.5149 14.4993 11.6811 14.6923 11.8108C14.8885 11.9406 15.1306 12.0055 15.4186 12.0055C15.656 12.0055 15.8585 11.958 16.0262 11.863C16.1971 11.7649 16.3348 11.6304 16.4392 11.4596C16.5468 11.2887 16.6259 11.0909 16.6766 10.8662C16.7272 10.6415 16.7525 10.401 16.7525 10.1447Z" fill="white"/>
<path fill-rule="evenodd" clip-rule="evenodd" d="M3.24749 8.87273C3.30599 8.76893 3.37403 8.67393 3.45161 8.58773C3.47634 8.55956 3.50219 8.53266 3.52916 8.50703C3.53758 8.49903 3.54611 8.49115 3.55475 8.4834C3.57201 8.46789 3.58972 8.45289 3.60785 8.43837C3.68546 8.37627 3.77104 8.3232 3.86459 8.27918C4.02915 8.20323 4.2222 8.16525 4.44372 8.16525C4.68423 8.16525 4.89151 8.21589 5.06557 8.31715C5.23962 8.41526 5.38203 8.55134 5.49279 8.72539C5.60672 8.89628 5.69058 9.09565 5.74438 9.3235C5.79818 9.54819 5.82508 9.7887 5.82508 10.045V10.1447C5.82508 10.4011 5.79818 10.6431 5.74438 10.871C5.69058 11.0957 5.60672 11.2951 5.49279 11.4691C5.38203 11.6432 5.23962 11.7808 5.06557 11.8821C4.89468 11.9802 4.69056 12.0293 4.45321 12.0293C4.16523 12.0293 3.9263 11.9707 3.73643 11.8536C3.69298 11.8261 3.65153 11.7967 3.61206 11.7654C3.47903 11.6598 3.36858 11.5325 3.28072 11.3837C3.2694 11.3642 3.25832 11.3445 3.24749 11.3248V8.87273ZM3.55578 7.76143C3.64606 7.69708 3.74267 7.64181 3.84561 7.59562C4.09245 7.48169 4.37726 7.42473 4.70005 7.42473C5.02284 7.42473 5.30924 7.48802 5.55925 7.61461C5.80925 7.73803 6.0197 7.91525 6.19059 8.14626C6.36148 8.37728 6.48965 8.65419 6.57509 8.97698C6.6637 9.2966 6.708 9.65262 6.708 10.045V10.1447C6.708 10.5181 6.6637 10.8647 6.57509 11.1843C6.48648 11.5008 6.35673 11.7761 6.18584 12.0103C6.01812 12.2444 5.81083 12.4264 5.56399 12.5562C5.31715 12.6859 5.03392 12.7508 4.71429 12.7508C4.38834 12.7508 4.10036 12.697 3.85035 12.5894C3.76667 12.5534 3.68723 12.5119 3.61206 12.4648C3.47675 12.3802 3.35523 12.2778 3.24749 12.1576V14.6306H2.36456V7.51967H3.17154L3.21493 8.08373C3.31623 7.95863 3.42985 7.8512 3.55578 7.76143ZM3.52413 7.35003L3.50914 7.15511H2V14.9951H3.61206V12.8811C3.64296 12.8961 3.67436 12.9105 3.70623 12.9243C4.00982 13.0549 4.34839 13.1154 4.71429 13.1154C5.08432 13.1154 5.42727 13.0399 5.73362 12.8789C6.03195 12.722 6.28177 12.502 6.48128 12.2239C6.68055 11.9504 6.82751 11.6349 6.92615 11.2826L6.9264 11.2817C7.02483 10.9267 7.07257 10.547 7.07257 10.1447V10.045C7.07257 9.62634 7.02542 9.23758 6.92697 8.88162C6.8316 8.52223 6.68565 8.20249 6.48368 7.92946C6.27974 7.65376 6.02522 7.4384 5.72227 7.28852C5.41439 7.133 5.07068 7.06017 4.70005 7.06017C4.33498 7.06017 3.99701 7.12458 3.69458 7.2638C3.63608 7.29012 3.57926 7.31887 3.52413 7.35003ZM3.61206 11.2268V8.97477C3.64592 8.92347 3.68279 8.87583 3.72259 8.83161L3.72408 8.82995L3.72556 8.82827C3.80508 8.73771 3.90149 8.66493 4.01856 8.60964C4.12563 8.56047 4.26414 8.52982 4.44372 8.52982C4.63238 8.52982 4.77378 8.56917 4.88223 8.63226L4.88439 8.63352L4.88656 8.63475C5.00665 8.70243 5.10555 8.79592 5.18522 8.92112L5.1873 8.92439L5.18945 8.92761C5.27619 9.05772 5.34436 9.21582 5.38957 9.40728L5.38984 9.40839C5.4363 9.60243 5.46051 9.81422 5.46051 10.045V10.1447C5.46051 10.3753 5.43635 10.5889 5.3897 10.7867C5.3446 10.9748 5.27621 11.1343 5.18776 11.2695L5.18648 11.2714L5.18522 11.2734C5.10514 11.3992 5.00517 11.4953 4.88316 11.5664C4.77791 11.6266 4.63936 11.6647 4.45321 11.6647C4.21467 11.6647 4.04731 11.6165 3.92954 11.5444C3.79871 11.4612 3.69382 11.3562 3.61206 11.2268ZM10.8164 7.15511H12.3179V12.5467C12.3179 13.0485 12.2159 13.5003 11.9942 13.8865C11.7753 14.2676 11.4664 14.5597 11.074 14.7563C10.689 14.954 10.2541 15.0474 9.77927 15.0474C9.56557 15.0474 9.32779 15.0134 9.07031 14.9525C8.79512 14.8899 8.52788 14.7825 8.26906 14.6337C7.9931 14.4764 7.76196 14.2635 7.57709 13.9994L7.41257 13.7644L8.34471 12.7073L8.61683 13.0355C8.80641 13.2641 8.98713 13.402 9.15425 13.4744C9.35133 13.5584 9.53669 13.5967 9.71281 13.5967C9.9459 13.5967 10.1266 13.5531 10.2673 13.4806C10.4027 13.4108 10.5065 13.3092 10.5833 13.1666L10.5849 13.1636L10.5865 13.1607C10.6273 13.0883 10.66 13.0015 10.6817 12.8977C10.6697 12.9035 10.6578 12.9093 10.6457 12.9149L10.6439 12.9157L10.6422 12.9165C10.342 13.053 10.0038 13.1154 9.63686 13.1154C9.2768 13.1154 8.93991 13.0388 8.63347 12.8797L8.63177 12.8789C8.33501 12.7229 8.08239 12.5048 7.87461 12.2303C7.66812 11.9574 7.51375 11.6419 7.40789 11.2891L7.40727 11.287L7.40667 11.2849C7.30443 10.9288 7.25485 10.5481 7.25485 10.1447V10.045C7.25485 9.62453 7.30399 9.23396 7.40667 8.87637L7.40732 8.87411C7.51264 8.51602 7.66505 8.19811 7.86939 7.92689L7.8713 7.92436C8.0806 7.65152 8.33674 7.43775 8.63838 7.28852C8.94476 7.13374 9.28332 7.06017 9.64635 7.06017C10.0108 7.06017 10.3468 7.12435 10.6448 7.26491C10.699 7.28965 10.7517 7.31653 10.8028 7.34553L10.8164 7.15511ZM11.116 8.07847L11.1149 8.09271C11.1128 8.08998 11.1106 8.08727 11.1084 8.08455C11.0098 7.95806 10.8981 7.84961 10.7733 7.7592C10.6857 7.6958 10.5917 7.64128 10.4913 7.59562C10.2508 7.48169 9.96914 7.42473 9.64635 7.42473C9.33306 7.42473 9.05141 7.48802 8.8014 7.61461C8.5514 7.73803 8.33778 7.91525 8.16056 8.14626C7.98651 8.37728 7.85201 8.65419 7.75708 8.97698C7.6653 9.2966 7.61941 9.65262 7.61941 10.045V10.1447C7.61941 10.5181 7.6653 10.8647 7.75708 11.1843C7.85201 11.5008 7.98809 11.7761 8.16531 12.0103C8.34253 12.2444 8.55456 12.4264 8.8014 12.5562C9.05141 12.6859 9.32989 12.7508 9.63686 12.7508C9.96282 12.7508 10.2476 12.6954 10.4913 12.5846C10.5682 12.5487 10.6413 12.5079 10.7106 12.4622C10.8467 12.3724 10.9682 12.2639 11.0752 12.1365V12.5894C11.0752 12.6088 11.0749 12.6279 11.0745 12.6469C11.0675 12.9192 11.0108 13.1501 10.9043 13.3394C10.7935 13.5451 10.6369 13.7002 10.4343 13.8046C10.2318 13.909 9.9913 13.9613 9.71281 13.9613C9.48179 13.9613 9.24761 13.9106 9.01027 13.8094C8.86625 13.7471 8.72582 13.6549 8.58898 13.5327C8.50331 13.4563 8.41905 13.3681 8.3362 13.2682L7.87575 13.7904C8.03082 14.0119 8.22227 14.1875 8.45013 14.3173C8.68114 14.4502 8.91533 14.5435 9.15267 14.5973C9.39318 14.6543 9.60205 14.6828 9.77927 14.6828C10.2065 14.6828 10.5831 14.5989 10.909 14.4312C11.2382 14.2666 11.4945 14.0245 11.678 13.7049C11.8616 13.3853 11.9534 12.9992 11.9534 12.5467V7.51967H11.1559L11.116 8.07847ZM10.7233 8.45915C10.6397 8.38803 10.545 8.32804 10.4391 8.27918C10.2745 8.20323 10.0815 8.16525 9.85997 8.16525C9.61945 8.16525 9.41217 8.21589 9.23812 8.31715C9.06723 8.41526 8.9264 8.55134 8.81564 8.72539C8.70804 8.89628 8.62735 9.09565 8.57355 9.3235C8.52291 9.54819 8.4976 9.7887 8.4976 10.045V10.1447C8.4976 10.4011 8.52291 10.6416 8.57355 10.8663C8.62735 11.0909 8.70804 11.2887 8.81564 11.4596C8.9264 11.6305 9.06723 11.765 9.23812 11.8631C9.40901 11.958 9.61313 12.0055 9.85047 12.0055C10.1416 12.0055 10.3821 11.9438 10.572 11.8204C10.6208 11.7887 10.667 11.7543 10.7106 11.7173C10.8366 11.6105 10.9407 11.4819 11.023 11.3315C11.041 11.2994 11.0584 11.2669 11.0752 11.2339V8.91262C11.0265 8.81786 10.9697 8.73014 10.9046 8.64944C10.9012 8.64511 10.8976 8.6408 10.8941 8.63651C10.8804 8.61994 10.8664 8.60369 10.8521 8.58773C10.8126 8.54145 10.7696 8.49859 10.7233 8.45915ZM10.7106 9.00681C10.6723 8.94315 10.6291 8.8849 10.5811 8.83161L10.5779 8.82806L10.5748 8.82443C10.5003 8.73721 10.4061 8.66547 10.2863 8.61019C10.1791 8.56069 10.0402 8.52982 9.85997 8.52982C9.6713 8.52982 9.5299 8.56917 9.42146 8.63226L9.41963 8.63333C9.30254 8.70054 9.20424 8.79402 9.12369 8.92035C9.04109 9.05175 8.97469 9.2118 8.92878 9.40547C8.88497 9.6006 8.86216 9.8134 8.86216 10.045V10.1447C8.86216 10.3761 8.88492 10.5888 8.92866 10.7837C8.97424 10.9731 9.04023 11.1315 9.12285 11.2633C9.20244 11.3855 9.30006 11.4778 9.41734 11.5456C9.52334 11.604 9.66318 11.641 9.85047 11.641C10.091 11.641 10.2573 11.5901 10.3733 11.5147C10.5116 11.4248 10.6207 11.3072 10.7031 11.1565L10.7042 11.1546L10.7052 11.1527C10.707 11.1495 10.7088 11.1463 10.7106 11.1431V9.00681ZM12.9179 5H14.53V7.31091C14.5612 7.2947 14.5929 7.27925 14.6251 7.26455C14.9254 7.12453 15.2626 7.06017 15.6275 7.06017C15.9981 7.06017 16.3418 7.133 16.6497 7.28853C16.9529 7.43851 17.2063 7.65424 17.4074 7.93081C17.6084 8.20299 17.7555 8.52164 17.8539 8.87996C17.9527 9.23637 18 9.62569 18 10.045V10.1447C18 10.547 17.9523 10.9267 17.8538 11.2817L17.8536 11.2826C17.7548 11.6354 17.6075 11.9514 17.4078 12.2252C17.2054 12.5025 16.9544 12.7222 16.6563 12.8789C16.35 13.0399 16.007 13.1154 15.637 13.1154C15.2699 13.1154 14.9309 13.0529 14.6285 12.9173L14.6259 12.9161L14.6234 12.9149C14.5611 12.8858 14.5009 12.854 14.4426 12.8195L14.4273 13.0204H12.9179V5ZM14.1347 12.0622C14.1433 12.0735 14.1519 12.0847 14.1607 12.0957C14.2536 12.2132 14.3582 12.3156 14.4744 12.4029C14.568 12.4732 14.6691 12.5338 14.7778 12.5846C15.0246 12.6954 15.311 12.7508 15.637 12.7508C15.9566 12.7508 16.2398 12.6859 16.4867 12.5562C16.7335 12.4264 16.9424 12.2444 17.1133 12.0103C17.2842 11.7761 17.4139 11.5008 17.5025 11.1843C17.5911 10.8647 17.6354 10.5181 17.6354 10.1447V10.045C17.6354 9.65262 17.5911 9.2966 17.5025 8.97698C17.4139 8.65419 17.2842 8.37728 17.1133 8.14626C16.9455 7.91525 16.7367 7.73803 16.4867 7.61461C16.2367 7.48802 15.9503 7.42473 15.6275 7.42473C15.3047 7.42473 15.0215 7.48169 14.7778 7.59562C14.6903 7.63539 14.6077 7.68189 14.53 7.73512C14.3933 7.82875 14.2718 7.94321 14.1654 8.07849V5.36456H13.2825V12.6558H14.0895L14.1347 12.0622ZM16.6813 9.3235C16.7288 9.54819 16.7525 9.7887 16.7525 10.045V10.1447C16.7525 10.4011 16.7272 10.6416 16.6766 10.8663C16.6259 11.0909 16.5468 11.2887 16.4392 11.4596C16.3348 11.6305 16.1971 11.765 16.0262 11.8631C15.8585 11.958 15.656 12.0055 15.4186 12.0055C15.1306 12.0055 14.8885 11.9406 14.6923 11.8109C14.6345 11.772 14.5801 11.7299 14.5291 11.6845C14.5197 11.6761 14.5104 11.6676 14.5012 11.659C14.394 11.5586 14.3027 11.4431 14.2271 11.3125C14.2054 11.2732 14.1849 11.2337 14.1654 11.194V8.96317C14.2336 8.82352 14.3174 8.69837 14.417 8.58773C14.4524 8.54745 14.49 8.50975 14.53 8.47466C14.6187 8.39671 14.7187 8.33155 14.83 8.27918C14.9946 8.20323 15.1876 8.16525 15.4091 8.16525C15.6591 8.16525 15.8696 8.21589 16.0405 8.31715C16.2114 8.41526 16.349 8.55134 16.4535 8.72539C16.5579 8.89628 16.6338 9.09565 16.6813 9.3235ZM14.984 8.60964C15.091 8.56047 15.2295 8.52982 15.4091 8.52982C15.6104 8.52982 15.7528 8.57045 15.8546 8.63079L15.8568 8.63207L15.859 8.63332C15.9742 8.69949 16.0674 8.79058 16.1408 8.91296L16.1424 8.91549C16.2218 9.04545 16.2841 9.20442 16.3244 9.39786L16.3246 9.39886C16.3663 9.5961 16.3879 9.81115 16.3879 10.045V10.1447C16.3879 10.3771 16.365 10.5905 16.3209 10.7861C16.2781 10.976 16.2133 11.1341 16.1307 11.2654L16.1294 11.2674L16.1281 11.2695C16.0553 11.3887 15.9622 11.4793 15.8457 11.5464C15.7442 11.6036 15.6069 11.641 15.4186 11.641C15.1867 11.641 15.0188 11.5894 14.8945 11.5075C14.7493 11.4096 14.6334 11.2859 14.5444 11.1328C14.5395 11.124 14.5347 11.1152 14.53 11.1063V9.05262C14.576 8.97084 14.6288 8.89744 14.688 8.83161L14.6895 8.82995L14.691 8.82827C14.7705 8.7377 14.8669 8.66493 14.984 8.60964Z" fill="black"/>
</svg>
