<svg id="Layer_1" data-name="Layer 1" xmlns="http://www.w3.org/2000/svg" viewBox="0 0 20 20"><defs><style>.cls-2{fill:#fff}</style></defs><path fill="#696eaf" d="M0 0h20v20H0z"/><g id="g4"><g id="g6"><path id="path8" class="cls-2" d="M3.43 7.35h2.38A1.86 1.86 0 0 1 7.32 8a2 2 0 0 1 .31 1.61 2.87 2.87 0 0 1-.28.92 2.62 2.62 0 0 1-.56.81 1.94 1.94 0 0 1-1 .58 4.48 4.48 0 0 1-1 .12H3.73l-.33 1.63H2.17l1.26-6.32m1 1L3.94 11h.23a4.73 4.73 0 0 0 1.41-.17c.38-.12.64-.55.77-1.29s0-1-.32-1.06a3.73 3.73 0 0 0-1.18-.13h-.38"/><path id="path10" class="cls-2" d="M9 5.67h1.22l-.31 1.68H11a2.21 2.21 0 0 1 1.34.37c.3.24.39.68.27 1.34L12 12h-1.22l.57-2.81a.79.79 0 0 0 0-.62.74.74 0 0 0-.61-.19h-1L9 12H7.76L9 5.67"/><path id="path12" class="cls-2" d="M13.93 7.35h2.37a1.88 1.88 0 0 1 1.52.6 2 2 0 0 1 .31 1.61 3.14 3.14 0 0 1-.28.92 2.62 2.62 0 0 1-.56.81 2 2 0 0 1-.95.58 4.57 4.57 0 0 1-1.05.12h-1.06l-.34 1.68h-1.23l1.27-6.32m1 1l-.5 2.65h.23a4.8 4.8 0 0 0 1.42-.17c.38-.12.63-.55.76-1.29s0-1-.32-1.06a3.63 3.63 0 0 0-1.17-.13H15"/></g></g></svg>