<svg  viewBox="0 0 20 20" fill="none" xmlns="http://www.w3.org/2000/svg">
<path d="M0 0H20V20H0V0Z" fill="#CCCCCC"/>
<path d="M11.1321 1.04808L11.1161 1.01605C11.1082 1.00811 11.1001 1 11.0842 1L11.0521 1.00811C11.0361 1.02408 11.0281 1.03211 11.0281 1.04808L10.3477 13.3744L10.4519 13.3584L11.1082 1.36766L11.8926 2.65731H11.8845C12.4768 4.40339 12.7249 6.26169 12.6289 8.23213L12.677 8.30421L13.4533 9.68185L13.5013 9.72993C14.6939 10.7792 16.0305 11.4841 17.5113 11.8445L17.8715 12.4293L17.9195 12.4453L17.9276 12.4293L11.1161 1.2796L11.1321 1.0473" fill="white"/>
<path d="M10.8921 5.39746C11.7325 7.11962 12.0365 9.72276 11.8125 13.2071L15.0861 12.8066L10.8921 5.39746Z" fill="white"/>
<path d="M18.3517 12.9667C18.6878 12.9267 18.9039 12.8546 19 12.7505L1.87162 14.8411H1.8636C1.87162 15.5539 2.19175 16.1146 2.81605 16.5151C2.9841 16.6352 3.16025 16.7233 3.32027 16.7794C3.47236 16.6032 3.64048 16.4751 3.84061 16.3549H3.84855C5.64148 15.2656 8.3068 15.0973 11.8285 15.8423L11.8685 15.8503C12.2527 15.9304 12.6369 16.0265 12.9971 16.1386C13.1011 16.1547 13.1891 16.1226 13.2612 16.0585C13.3893 15.9624 13.5494 15.8903 13.7655 15.8423V15.8343C14.3338 14.825 15.102 14.0801 16.0626 13.5915C16.7269 13.2631 17.4953 13.0468 18.3517 12.9667" fill="white"/>
<path d="M10.1543 13.3115L10.9386 1.28076C9.80204 5.67012 7.97712 9.77114 5.4719 13.5758L10.1543 13.3115Z" fill="white"/>
<path d="M5.71351 3.58734L5.6815 3.57129L5.6495 3.57932L5.63345 3.61929L4.98517 14.0321L5.08119 14.0241L5.72955 3.61929L5.71351 3.58734" fill="white"/>
<path d="M4.80108 13.8078L5.48939 3.65137L1.8636 14.1202L4.80108 13.8078" fill="white"/>
<path fill-rule="evenodd" clip-rule="evenodd" d="M4.98771 17.1729C4.99895 17.1964 4.989 17.2246 4.96549 17.2358C4.05967 17.669 3.38181 17.7521 2.94286 17.4734C2.94266 17.4733 2.94247 17.4732 2.94228 17.473C2.94211 17.4729 2.94195 17.4728 2.94179 17.4727C2.54821 17.2076 1.92985 17.2608 1.06734 17.6684C1.04378 17.6796 1.01566 17.6695 1.00453 17.6459C0.993402 17.6223 1.00348 17.5942 1.02705 17.583C1.89293 17.1739 2.55506 17.0988 2.99393 17.394C3.38747 17.6435 4.02206 17.5823 4.9248 17.1506C4.94831 17.1394 4.97648 17.1493 4.98771 17.1729Z" fill="white"/>
<path fill-rule="evenodd" clip-rule="evenodd" d="M5.08107 17.5531C5.63663 17.2228 6.1192 17.0649 6.52573 17.0981L6.52582 17.0981C6.72188 17.1145 6.90965 17.1553 7.08107 17.2125C7.10579 17.2207 7.11914 17.2475 7.1109 17.2722C7.10266 17.297 7.07594 17.3103 7.05122 17.3021C6.88655 17.2471 6.70616 17.2079 6.51801 17.1922C6.14028 17.1614 5.67834 17.3078 5.12948 17.6342C4.5667 17.9769 3.89178 18.106 3.09188 18.0332C3.06593 18.0309 3.04681 18.0079 3.04917 17.9819C3.05153 17.9559 3.07448 17.9368 3.10043 17.9392C3.88527 18.0106 4.53893 17.8834 5.08064 17.5534C5.08075 17.5533 5.08086 17.5533 5.08097 17.5532L5.08107 17.5531Z" fill="white"/>
<path fill-rule="evenodd" clip-rule="evenodd" d="M3.74177 16.9621C5.43945 15.789 8.20183 15.6086 12.0141 16.394C12.0397 16.3992 12.0561 16.4242 12.0508 16.4497C12.0456 16.4753 12.0206 16.4917 11.9951 16.4865C8.18748 15.702 5.45928 15.89 3.79539 17.0398C3.77395 17.0546 3.74456 17.0492 3.72975 17.0278C3.71495 17.0063 3.72033 16.9769 3.74177 16.9621Z" fill="white"/>
<path fill-rule="evenodd" clip-rule="evenodd" d="M13.8644 16.6573C13.458 16.6245 12.9759 16.7823 12.4207 17.1125C11.8788 17.4347 11.2248 17.5619 10.4396 17.4985C10.4136 17.4964 10.3909 17.5157 10.3888 17.5417C10.3867 17.5677 10.406 17.5905 10.432 17.5926C11.2317 17.6572 11.9063 17.5281 12.4689 17.1937L12.4689 17.1937C13.0179 16.8672 13.4798 16.7207 13.8576 16.7515C13.8583 16.7516 13.8589 16.7516 13.8595 16.7516C14.0463 16.7594 14.2254 16.7984 14.389 16.8608C14.4133 16.87 14.4406 16.8578 14.4499 16.8335C14.4592 16.8091 14.4469 16.7818 14.4226 16.7725C14.2502 16.7068 14.0614 16.6657 13.8644 16.6573Z" fill="white"/>
<path fill-rule="evenodd" clip-rule="evenodd" d="M8.07169 3.73007C7.89871 3.57307 7.71551 3.47313 7.52169 3.43979C7.29744 3.40121 7.0739 3.45437 6.85539 3.58557C6.80139 3.618 6.78388 3.68809 6.81628 3.74213C6.84868 3.79617 6.91872 3.81369 6.97272 3.78127C7.15446 3.67214 7.32313 3.63719 7.48306 3.6647C7.64462 3.69249 7.81218 3.7866 7.98515 3.96344C8.02767 4.00691 8.09679 4.00936 8.14228 3.969C8.3439 3.79012 8.53282 3.69344 8.70915 3.66489C8.88309 3.63673 9.05588 3.673 9.23171 3.78073C9.28542 3.81364 9.35561 3.79675 9.38849 3.743C9.42138 3.68926 9.4045 3.61901 9.35079 3.5861C9.13438 3.45351 8.90699 3.40168 8.67274 3.4396C8.46883 3.47261 8.26846 3.57218 8.07169 3.73007Z" fill="white"/>
<path fill-rule="evenodd" clip-rule="evenodd" d="M7.77968 2.11855C8.01122 2.06238 8.23979 2.10662 8.46147 2.23971C8.51547 2.27213 8.53299 2.34222 8.50059 2.39627C8.46819 2.45031 8.39815 2.46783 8.34415 2.43541C8.16565 2.32825 7.99805 2.3004 7.8334 2.34034C7.66494 2.38121 7.48535 2.49652 7.29386 2.70344C7.27214 2.7269 7.24159 2.74017 7.20963 2.74001C7.17767 2.73985 7.14725 2.72627 7.12577 2.70259C6.93883 2.49645 6.75951 2.38124 6.59017 2.34037C6.42425 2.30032 6.25458 2.32837 6.07625 2.43542C6.02224 2.46783 5.9522 2.4503 5.91981 2.39626C5.88742 2.34221 5.90494 2.27212 5.95895 2.23971C6.18087 2.1065 6.41139 2.06246 6.64364 2.11852C6.84161 2.1663 7.0306 2.28432 7.2109 2.46184C7.39357 2.28453 7.58246 2.16639 7.77968 2.11855Z" fill="white"/>
</svg>
