<svg viewBox="0 0 20 20" fill="none" xmlns="http://www.w3.org/2000/svg">
<path d="M0 0H20V20H0V0Z" fill="#CCCCCC"/>
<path d="M11.1322 1.04808L11.1161 1.01605C11.1082 1.00811 11.1002 1 11.0842 1L11.0521 1.00811C11.0362 1.02408 11.0281 1.03211 11.0281 1.04808L10.3478 13.3744L10.4519 13.3584L11.1082 1.36766L11.8926 2.65731H11.8846C12.4769 4.40339 12.725 6.26169 12.629 8.23213L12.677 8.30421L13.4534 9.68185L13.5014 9.72993C14.694 10.7792 16.0306 11.4841 17.5114 11.8445L17.8715 12.4293L17.9196 12.4453L17.9276 12.4293L11.1161 1.2796L11.1322 1.0473" fill="#F89C0E"/>
<path d="M10.8921 5.39746C11.7325 7.11962 12.0366 9.72276 11.8125 13.2071L15.0861 12.8066L10.8921 5.39746Z" fill="#F89C0E"/>
<path d="M18.3518 12.9667C18.6879 12.9267 18.904 12.8546 19 12.7505L1.87167 14.8411H1.86365C1.87167 15.5539 2.1918 16.1146 2.8161 16.5151C2.98414 16.6352 3.16029 16.7233 3.32032 16.7794C3.4724 16.6032 3.64053 16.4751 3.84066 16.3549H3.8486C5.64152 15.2656 8.30684 15.0973 11.8285 15.8423L11.8685 15.8503C12.2528 15.9304 12.6369 16.0265 12.9971 16.1386C13.1011 16.1547 13.1892 16.1226 13.2612 16.0585C13.3893 15.9624 13.5494 15.8903 13.7655 15.8423V15.8343C14.3338 14.825 15.1021 14.0801 16.0626 13.5915C16.727 13.2631 17.4953 13.0468 18.3518 12.9667Z" fill="#F89C0E"/>
<path d="M10.1543 13.3115L10.9386 1.28076C9.80206 5.67012 7.97714 9.77114 5.47192 13.5758L10.1543 13.3115Z" fill="#F89C0E"/>
<path d="M5.71357 3.58734L5.68156 3.57129L5.64955 3.57932L5.63351 3.61929L4.98523 14.0321L5.08124 14.0241L5.72961 3.61929L5.71357 3.58734Z" fill="#F89C0E"/>
<path d="M4.80113 13.8078L5.48944 3.65137L1.86365 14.1202L4.80113 13.8078Z" fill="#F89C0E"/>
<path fill-rule="evenodd" clip-rule="evenodd" d="M4.98771 17.1729C4.99895 17.1964 4.989 17.2246 4.96549 17.2358C4.05967 17.669 3.38181 17.7521 2.94286 17.4734C2.94266 17.4733 2.94247 17.4732 2.94228 17.473C2.94211 17.4729 2.94195 17.4728 2.94179 17.4727C2.54821 17.2076 1.92985 17.2608 1.06734 17.6684C1.04378 17.6796 1.01566 17.6695 1.00453 17.6459C0.993402 17.6223 1.00348 17.5942 1.02705 17.583C1.89293 17.1739 2.55506 17.0988 2.99393 17.394C3.38747 17.6435 4.02206 17.5823 4.9248 17.1506C4.94831 17.1394 4.97648 17.1493 4.98771 17.1729Z" fill="#F89C0E"/>
<path fill-rule="evenodd" clip-rule="evenodd" d="M5.08105 17.5531C5.63661 17.2228 6.11918 17.0649 6.52571 17.0981L6.5258 17.0981C6.72186 17.1145 6.90963 17.1553 7.08105 17.2125C7.10577 17.2207 7.11912 17.2475 7.11088 17.2722C7.10264 17.297 7.07592 17.3103 7.0512 17.3021C6.88653 17.2471 6.70614 17.2079 6.518 17.1922C6.14026 17.1614 5.67833 17.3078 5.12946 17.6342C4.56668 17.9769 3.89176 18.106 3.09186 18.0332C3.06591 18.0309 3.04679 18.0079 3.04915 17.9819C3.05151 17.9559 3.07446 17.9368 3.10041 17.9392C3.88525 18.0106 4.53891 17.8834 5.08062 17.5534C5.08073 17.5533 5.08084 17.5533 5.08095 17.5532L5.08105 17.5531Z" fill="#F89C0E"/>
<path fill-rule="evenodd" clip-rule="evenodd" d="M3.74181 16.9621C5.43949 15.789 8.20187 15.6086 12.0142 16.394C12.0397 16.3992 12.0561 16.4242 12.0509 16.4497C12.0456 16.4753 12.0207 16.4917 11.9951 16.4865C8.18753 15.702 5.45932 15.89 3.79543 17.0398C3.77399 17.0546 3.7446 17.0492 3.7298 17.0278C3.71499 17.0063 3.72037 16.9769 3.74181 16.9621Z" fill="#F89C0E"/>
<path fill-rule="evenodd" clip-rule="evenodd" d="M13.8644 16.6573C13.4581 16.6245 12.9759 16.7823 12.4208 17.1125C11.8788 17.4347 11.2248 17.5619 10.4397 17.4985C10.4137 17.4964 10.3909 17.5157 10.3888 17.5417C10.3867 17.5677 10.4061 17.5905 10.4321 17.5926C11.2318 17.6572 11.9064 17.5281 12.469 17.1937L12.469 17.1937C13.018 16.8672 13.4799 16.7207 13.8577 16.7515C13.8583 16.7516 13.8589 16.7516 13.8595 16.7516C14.0464 16.7594 14.2255 16.7984 14.389 16.8608C14.4134 16.87 14.4407 16.8578 14.4499 16.8335C14.4592 16.8091 14.447 16.7818 14.4226 16.7725C14.2502 16.7068 14.0615 16.6657 13.8644 16.6573Z" fill="#F89C0E"/>
<path fill-rule="evenodd" clip-rule="evenodd" d="M8.07172 3.73007C7.89875 3.57307 7.71555 3.47313 7.52173 3.43979C7.29748 3.40121 7.07394 3.45437 6.85543 3.58557C6.80143 3.618 6.78392 3.68809 6.81632 3.74213C6.84871 3.79617 6.91876 3.81369 6.97275 3.78127C7.1545 3.67214 7.32317 3.63719 7.4831 3.6647C7.64466 3.69249 7.81222 3.7866 7.98519 3.96344C8.02771 4.00691 8.09683 4.00936 8.14232 3.969C8.34394 3.79012 8.53286 3.69344 8.70919 3.66489C8.88313 3.63673 9.05591 3.673 9.23175 3.78073C9.28546 3.81364 9.35565 3.79675 9.38853 3.743C9.42142 3.68926 9.40453 3.61901 9.35083 3.5861C9.13442 3.45351 8.90703 3.40168 8.67277 3.4396C8.46886 3.47261 8.2685 3.57218 8.07172 3.73007Z" fill="#F89C0E"/>
<path fill-rule="evenodd" clip-rule="evenodd" d="M7.77969 2.11855C8.01123 2.06238 8.2398 2.10662 8.46148 2.23971C8.51548 2.27213 8.533 2.34222 8.5006 2.39627C8.4682 2.45031 8.39816 2.46783 8.34416 2.43541C8.16566 2.32825 7.99806 2.3004 7.83341 2.34034C7.66495 2.38121 7.48536 2.49652 7.29387 2.70344C7.27215 2.7269 7.2416 2.74017 7.20964 2.74001C7.17768 2.73985 7.14726 2.72627 7.12578 2.70259C6.93884 2.49645 6.75952 2.38124 6.59018 2.34037C6.42426 2.30032 6.25459 2.32837 6.07626 2.43542C6.02225 2.46783 5.95221 2.4503 5.91982 2.39626C5.88743 2.34221 5.90495 2.27212 5.95895 2.23971C6.18088 2.1065 6.4114 2.06246 6.64365 2.11852C6.84162 2.1663 7.03061 2.28432 7.21091 2.46184C7.39358 2.28453 7.58247 2.16639 7.77969 2.11855Z" fill="#F89C0E"/>
</svg>
