<svg xmlns="http://www.w3.org/2000/svg" viewBox="0 0 20 20"><defs><mask id="a" x="2.01" y="1.7" width="15.99" height="16" maskUnits="userSpaceOnUse"><path class="a" d="M2.01 17.7H18v-16H2.01v16z"/></mask><mask id="b" x="2" y="1.7" width="16" height="16" maskUnits="userSpaceOnUse"><path class="a" d="M2.01 17.7H18v-16H2.01v16z"/></mask><style>.a{fill:#fff;fill-rule:evenodd}</style></defs><path fill="#de752c" d="M0 0h20v20H0z"/><path class="a" d="M7.88 5.37l1.79 3.09a1.31 1.31 0 01.87.08l.94-1.63L9.91 4.2l-2 1.18M5.19 9.37h3.57a1.29 1.29 0 01.51-.72L8.33 7H5.19v2.39m5.92.95a1.25 1.25 0 01-.38.41l.94 1.63h3.14V10h-3.57a1.2 1.2 0 01-.13.31m-.2-1.51a1.3 1.3 0 01.37.79h1.87l1.57-2.72-2-1.17-1.81 3.1m-3.6 4.9l1.78-3.09a1.35 1.35 0 01-.37-.8H6.84l-1.57 2.72 2.05 1.18"/><g mask="url(#a)"><path class="a" d="M12.12 14l-1.79-3.1a1.2 1.2 0 01-.87-.08l-.94 1.63 1.57 2.72L12.14 14"/></g><g mask="url(#b)"><path class="a" d="M10 1.7a8 8 0 108 8 8 8 0 00-8-8zm0 1.62A6.38 6.38 0 113.62 9.7 6.38 6.38 0 0110 3.32z"/></g></svg>