<svg viewBox="0 0 20 20" xmlns="http://www.w3.org/2000/svg">
<rect width="100%" height="100%" fill="#0070D1"/>
<path d="M2.08395 12.8171C1.46556 13.2293 1.67169 14.0126 2.99092 14.3836C4.35138 14.8371 5.83551 14.9608 7.27842 14.7135C7.36087 14.7135 7.44333 14.6722 7.48455 14.6722V13.2705L6.08287 13.724C5.54693 13.8889 5.01099 13.9302 4.47506 13.8065C4.0628 13.6828 4.14525 13.4355 4.63996 13.2293L7.48455 12.2399V10.7145L3.52686 12.075C3.03215 12.2399 2.53744 12.4873 2.08395 12.8171ZM11.6484 6.63317V10.6321C13.3386 11.4566 14.6579 10.6321 14.6579 8.48834C14.6579 6.30336 13.8746 5.31394 11.6071 4.53065C10.4116 4.11839 9.17482 3.74736 7.93804 3.5V15.4143L10.8239 16.28V6.26214C10.8239 5.80865 10.8239 5.47885 11.1537 5.60252C11.6071 5.7262 11.6484 6.17969 11.6484 6.63317ZM17.0077 11.8689C15.8122 11.4566 14.5342 11.2917 13.2974 11.4154C12.6378 11.4566 12.0194 11.6215 11.4422 11.8276L11.3186 11.8689V13.4767L13.9983 12.4873C14.5342 12.3224 15.0701 12.2811 15.6061 12.4048C16.0183 12.5285 15.9359 12.7758 15.4412 12.982L11.3186 14.5073V16.0739L17.0077 13.9714C17.42 13.8065 17.791 13.6004 18.1208 13.2705C18.4094 12.8583 18.2857 12.2811 17.0077 11.8689Z" fill="white"/>
</svg>
