<svg  viewBox="0 0 20 20" fill="none" xmlns="http://www.w3.org/2000/svg">
<path d="M0 0H20V20H0V0Z" fill="#336791"/>
<path d="M17.9577 11.8813C17.8615 11.59 17.6096 11.3871 17.2838 11.3385C17.1302 11.3155 16.9543 11.3253 16.7461 11.3682C16.3832 11.4431 16.114 11.4716 15.9175 11.4771C16.6591 10.2251 17.2621 8.79726 17.6093 7.45322C18.1706 5.27995 17.8706 4.28989 17.5201 3.84207C16.5924 2.65673 15.239 2.01996 13.6062 2.00047C12.7352 1.98982 11.9706 2.1618 11.5717 2.28547C11.2003 2.21994 10.8009 2.18335 10.3819 2.17658C9.5965 2.16405 8.90252 2.33527 8.30954 2.68718C7.98125 2.57616 7.45437 2.41966 6.84591 2.3198C5.41485 2.08486 4.26147 2.26793 3.41782 2.86392C2.39625 3.58552 1.92267 4.83927 2.01026 6.59034C2.03808 7.1463 2.34907 8.83785 2.83874 10.4421C3.12017 11.3642 3.42026 12.1299 3.73069 12.7182C4.17094 13.5523 4.642 14.0436 5.17083 14.22C5.46723 14.3187 6.00577 14.3879 6.57219 13.9161C6.64399 14.0031 6.73978 14.0895 6.8669 14.1698C7.02835 14.2716 7.22576 14.3548 7.42292 14.4041C8.13343 14.5817 8.79896 14.5373 9.36676 14.2883C9.37027 14.3893 9.37296 14.4858 9.37522 14.5691C9.37898 14.7042 9.38274 14.8367 9.38769 14.9607C9.42133 15.7985 9.47834 16.45 9.64725 16.9059C9.65652 16.9309 9.66898 16.9692 9.68214 17.0097C9.76641 17.2677 9.90731 17.6996 10.2658 18.0378C10.637 18.3882 11.086 18.4957 11.4972 18.4957C11.7035 18.4957 11.9003 18.4686 12.0729 18.4317C12.6881 18.2998 13.3868 18.0989 13.8923 17.3792C14.3702 16.6988 14.6025 15.674 14.6445 14.0594C14.65 14.0137 14.655 13.9701 14.6598 13.9286L14.6698 13.8432L14.7824 13.8531L14.8114 13.8551C15.4381 13.8836 16.2043 13.7508 16.6748 13.5322C17.0467 13.3596 18.2382 12.7306 17.9577 11.8813Z" fill="black"/>
<path d="M16.8862 12.0465C15.023 12.4309 14.8949 11.8 14.8949 11.8C16.8621 8.88098 17.6845 5.17566 16.9749 4.2688C15.0387 1.79506 11.6873 2.96499 11.6313 2.99531L11.6133 2.99857C11.2452 2.92214 10.8333 2.87665 10.3702 2.86907C9.52721 2.85529 8.88768 3.0901 8.40239 3.45811C8.40239 3.45811 2.42369 0.995083 2.70179 6.55578C2.76093 7.73874 4.39736 15.5068 6.34916 13.1605C7.06255 12.3025 7.75189 11.5771 7.75189 11.5771C8.09421 11.8045 8.50407 11.9205 8.93372 11.8788L8.96712 11.8505C8.95672 11.957 8.96148 12.0612 8.98046 12.1846C8.47763 12.7464 8.62542 12.845 7.62026 13.0519C6.60314 13.2615 7.20063 13.6347 7.59076 13.7323C8.0637 13.8505 9.15782 14.018 9.89709 12.9831L9.86765 13.1012C10.0646 13.259 10.203 14.1276 10.1798 14.9151C10.1566 15.7024 10.1411 16.2431 10.2963 16.6653C10.4516 17.0876 10.6063 18.0377 11.9277 17.7546C13.0318 17.5179 13.604 16.9048 13.6836 15.8819C13.7401 15.1548 13.8679 15.2623 13.8759 14.6122L13.9785 14.3045C14.0967 13.3188 13.9973 13.0008 14.6775 13.1487L14.8429 13.1632C15.3435 13.186 15.9988 13.0827 16.3834 12.9039C17.2115 12.5196 17.7027 11.8779 16.8861 12.0465H16.8862Z" fill="#336791"/>
<path d="M8.75235 7.08468C8.58445 7.06132 8.4324 7.08293 8.35546 7.14119C8.31223 7.17396 8.29883 7.21193 8.29519 7.23805C8.28555 7.30728 8.33404 7.38384 8.36386 7.42331C8.44819 7.53508 8.57136 7.61189 8.69327 7.6288C8.71094 7.63131 8.72854 7.63243 8.74602 7.63243C8.94932 7.63243 9.1342 7.47412 9.15049 7.35728C9.17085 7.21092 8.95841 7.11338 8.75235 7.08475V7.08468ZM14.3147 7.08932C14.2986 6.97461 14.0945 6.9419 13.9008 6.96884C13.7073 6.99578 13.5198 7.08312 13.5354 7.19808C13.548 7.28748 13.7094 7.4401 13.9005 7.4401C13.9167 7.4401 13.933 7.43903 13.9494 7.43672C14.0769 7.41905 14.1705 7.33804 14.215 7.29137C14.2827 7.2202 14.3219 7.14088 14.3147 7.08932Z" fill="white"/>
<path d="M17.5062 12.003C17.4352 11.7882 17.2065 11.7191 16.8266 11.7975C15.6986 12.0303 15.2946 11.8691 15.162 11.7714C16.0388 10.4357 16.7601 8.82106 17.1492 7.31464C17.3335 6.60105 17.4353 5.93834 17.4437 5.39817C17.4529 4.80531 17.3519 4.36965 17.1436 4.10351C16.304 3.03062 15.0717 2.45512 13.58 2.43933C12.5544 2.42781 11.688 2.69025 11.52 2.76405C11.1663 2.67609 10.7807 2.62208 10.3609 2.61519C9.59103 2.60272 8.92556 2.78704 8.37462 3.16275C8.13529 3.07367 7.51681 2.86134 6.76044 2.73949C5.4528 2.52899 4.41369 2.68849 3.67216 3.21381C2.78735 3.84069 2.37887 4.96125 2.458 6.54429C2.48463 7.07688 2.7881 8.71531 3.267 10.2844C3.89739 12.3496 4.58265 13.5187 5.30363 13.7592C5.38802 13.7873 5.48532 13.807 5.59264 13.807C5.85564 13.807 6.1781 13.6885 6.51359 13.2851C6.9228 12.7942 7.34609 12.3153 7.78295 11.8488C8.06638 12.0009 8.37775 12.0859 8.6962 12.0944C8.69683 12.1027 8.69764 12.1111 8.69839 12.1193C8.64357 12.1847 8.5899 12.251 8.53738 12.3183C8.31673 12.5984 8.2708 12.6567 7.56054 12.8029C7.35849 12.8446 6.8219 12.9552 6.814 13.3314C6.80548 13.7424 7.44833 13.915 7.52157 13.9332C7.77681 13.9972 8.02271 14.0287 8.25721 14.0287C8.82751 14.0287 9.3294 13.8412 9.73049 13.4785C9.71815 14.9437 9.77923 16.3874 9.95515 16.8272C10.0992 17.1874 10.4512 18.0674 11.563 18.0673C11.7261 18.0673 11.9057 18.0484 12.1032 18.006C13.2636 17.7573 13.7675 17.2444 13.9624 16.1138C14.0667 15.5095 14.2457 14.0666 14.3299 13.2926C14.5076 13.3481 14.7363 13.3735 14.9836 13.3734C15.4993 13.3734 16.0944 13.2638 16.4676 13.0906C16.8869 12.8959 17.6435 12.4181 17.5062 12.003ZM14.743 6.77297C14.7392 7.00145 14.7077 7.20889 14.6744 7.4254C14.6385 7.65827 14.6014 7.89904 14.5921 8.1913C14.5829 8.47573 14.6184 8.77144 14.6527 9.05744C14.7221 9.63507 14.7934 10.2297 14.5176 10.8165C14.4718 10.7354 14.431 10.6515 14.3955 10.5654C14.3612 10.4823 14.2868 10.3488 14.1837 10.1642C13.7828 9.44518 12.844 7.76152 13.3246 7.0745C13.4678 6.87001 13.8311 6.65976 14.743 6.77297ZM13.6376 2.902C14.9742 2.93151 16.0315 3.43152 16.78 4.38806C17.3541 5.12176 16.7219 8.4602 14.8917 11.3403C14.8733 11.3169 14.8548 11.2936 14.8362 11.2703L14.813 11.2414C15.286 10.4603 15.1935 9.68751 15.1112 9.00237C15.0774 8.7212 15.0454 8.45562 15.0536 8.20615C15.062 7.94177 15.0969 7.71497 15.1307 7.4957C15.1723 7.22549 15.2146 6.94588 15.2029 6.61628C15.2116 6.5817 15.2151 6.54085 15.2106 6.49236C15.1808 6.17629 14.8199 5.23033 14.0844 4.37416C13.6821 3.90585 13.0954 3.38178 12.2943 3.02831C12.6388 2.95689 13.11 2.89029 13.6376 2.902ZM6.15856 12.9899C5.78892 13.4344 5.53368 13.3492 5.44973 13.3212C4.9028 13.1388 4.26815 11.9828 3.70862 10.1496C3.22446 8.56344 2.94153 6.96843 2.91911 6.52118C2.84844 5.10666 3.19132 4.12086 3.9383 3.59109C5.15396 2.72903 7.15263 3.24501 7.95574 3.5067C7.94421 3.51811 7.93218 3.52876 7.92078 3.54035C6.60287 4.87128 6.63413 7.14523 6.63739 7.28425C6.63727 7.33788 6.64178 7.41381 6.64792 7.51825C6.6706 7.90073 6.71282 8.61256 6.60005 9.41868C6.4953 10.1678 6.72623 10.901 7.23351 11.4303C7.28557 11.4845 7.34029 11.5361 7.39746 11.5849C7.17167 11.8268 6.68093 12.3615 6.15856 12.9899ZM7.56687 11.1109C7.15801 10.6842 6.97232 10.0908 7.05733 9.48258C7.17637 8.63104 7.13245 7.88939 7.10883 7.49094C7.10551 7.43518 7.10257 7.38631 7.10088 7.34778C7.2934 7.17706 8.1856 6.69904 8.82187 6.84483C9.1122 6.9113 9.28912 7.10902 9.36267 7.44909C9.74333 9.20974 9.41304 9.94356 9.14766 10.5333C9.09296 10.6548 9.04128 10.7696 8.99717 10.8884L8.96296 10.9802C8.87638 11.2124 8.79581 11.4283 8.74588 11.6333C8.31121 11.632 7.88839 11.4464 7.56687 11.1108V11.1109ZM7.63359 13.4853C7.50666 13.4536 7.39251 13.3985 7.32554 13.3529C7.38149 13.3265 7.48104 13.2907 7.6537 13.2551C8.48927 13.0831 8.61832 12.9617 8.90012 12.6039C8.96472 12.5219 9.03795 12.4289 9.13939 12.3156L9.13951 12.3155C9.29056 12.1463 9.35966 12.175 9.48496 12.227C9.58652 12.269 9.68544 12.3963 9.72554 12.5364C9.74452 12.6026 9.76582 12.7281 9.69609 12.8258C9.10743 13.6501 8.24963 13.6395 7.63359 13.4853ZM12.0065 17.5545C10.9843 17.7736 10.6224 17.252 10.3839 16.6558C10.2299 16.2708 10.1543 14.5351 10.2079 12.6182C10.2086 12.5927 10.205 12.568 10.198 12.5449C10.1917 12.4991 10.1822 12.4538 10.1694 12.4094C10.0896 12.1305 9.89507 11.8972 9.6617 11.8004C9.56898 11.762 9.39882 11.6916 9.19433 11.7439C9.23793 11.5642 9.31355 11.3613 9.39556 11.1416L9.42996 11.0491C9.46867 10.945 9.51729 10.837 9.56866 10.7227C9.84639 10.1058 10.2267 9.26068 9.81394 7.35154C9.65932 6.63645 9.14296 6.28724 8.36021 6.36837C7.89096 6.41693 7.46162 6.60625 7.24748 6.71483C7.20143 6.73813 7.15933 6.76069 7.11998 6.78261C7.17975 6.06214 7.40554 4.71566 8.25019 3.86375C8.78203 3.32746 9.49029 3.06258 10.3532 3.07686C12.0536 3.10468 13.1439 3.97727 13.7593 4.70445C14.2895 5.33101 14.5767 5.96221 14.6913 6.30265C13.8295 6.215 13.2434 6.3851 12.9463 6.80987C12.3 7.73383 13.2999 9.52713 13.7805 10.389C13.8687 10.5469 13.9447 10.6835 13.9686 10.7415C14.1251 11.1208 14.3278 11.374 14.4757 11.5588C14.521 11.6154 14.565 11.6704 14.5985 11.7184C14.3375 11.7936 13.8687 11.9675 13.9114 12.8365C13.8769 13.2725 13.6319 15.3141 13.5074 16.0353C13.3431 16.9883 12.9924 17.3432 12.0065 17.5546V17.5545ZM16.2732 12.6718C16.0063 12.7957 15.5597 12.8886 15.1354 12.9086C14.6668 12.9305 14.4282 12.8561 14.3721 12.8103C14.3458 12.2688 14.5473 12.2122 14.7607 12.1523C14.7942 12.1429 14.8269 12.1337 14.8585 12.1227C14.8781 12.1386 14.8996 12.1545 14.9231 12.17C15.2998 12.4186 15.9716 12.4454 16.92 12.2497L16.9304 12.2476C16.8025 12.3672 16.5836 12.5277 16.2732 12.6718Z" fill="white"/>
</svg>
