<svg width="20" height="20" viewBox="0 0 20 20" fill="none" xmlns="http://www.w3.org/2000/svg">
<g clip-path="url(#clip0_1_910)">
<rect width="20" height="20" fill="white"/>
<path d="M0 0H20V20H0V0Z" fill="#336791"/>
<path d="M17.956 11.6951C17.8565 11.3931 17.5948 11.1825 17.257 11.1321C17.0975 11.1083 16.9149 11.1183 16.6989 11.1629C16.3227 11.2405 16.0433 11.2701 15.8393 11.2759C16.6086 9.97691 17.2343 8.49542 17.5948 7.10077C18.177 4.84606 17.8657 3.81881 17.5021 3.35419C16.5395 2.12442 15.1356 1.4638 13.4412 1.44343C12.5381 1.43228 11.7441 1.61099 11.3306 1.73934C10.9451 1.67132 10.5309 1.63328 10.0958 1.62636C9.28149 1.61329 8.56092 1.79084 7.94603 2.15593C7.60515 2.04102 7.05867 1.87846 6.42726 1.7747C4.94269 1.53105 3.74597 1.7209 2.87052 2.33924C1.81061 3.08787 1.31947 4.38874 1.41016 6.20573C1.43899 6.78257 1.7618 8.5373 2.26985 10.2021C2.56192 11.1586 2.87321 11.953 3.19526 12.5633C3.65181 13.4287 4.14065 13.9387 4.68943 14.1216C4.99688 14.2242 5.55566 14.2957 6.14326 13.8065C6.21781 13.8964 6.31696 13.9864 6.44916 14.0694C6.61672 14.175 6.82155 14.2615 7.026 14.3126C7.7631 14.4971 8.45369 14.451 9.04283 14.1923C9.04629 14.2973 9.04898 14.3976 9.05167 14.4836C9.05552 14.6239 9.05936 14.7615 9.06435 14.8902C9.09933 15.7595 9.15851 16.4355 9.33375 16.9082C9.34336 16.9344 9.35643 16.9739 9.36988 17.0158C9.4575 17.2837 9.60353 17.7318 9.97554 18.0827C10.3606 18.4462 10.8264 18.5577 11.2534 18.5577C11.467 18.5577 11.6715 18.5296 11.8506 18.4916C12.4889 18.3547 13.2137 18.1461 13.7383 17.3994C14.234 16.6934 14.475 15.6304 14.5188 13.9548C14.5242 13.9076 14.5295 13.8622 14.5345 13.8192C14.538 13.7904 14.5415 13.7604 14.5449 13.7308L14.6617 13.7412L14.6917 13.7431C15.342 13.7727 16.1371 13.6347 16.6252 13.408C17.011 13.2289 18.2473 12.5763 17.956 11.6951Z" fill="black"/>
<path d="M16.4099 12.9495C16.0229 13.1293 15.4054 13.2431 14.8704 13.2431C14.6141 13.2431 14.3762 13.2169 14.1921 13.1589C14.1049 13.9617 13.9189 15.4594 13.8109 16.0862C13.6087 17.2594 13.0857 17.7913 11.8821 18.0496C11.6768 18.0934 11.4904 18.113 11.3214 18.113C10.1677 18.1134 9.80258 17.1999 9.65309 16.8263C9.47054 16.3702 9.40713 14.8725 9.4202 13.3526C9.004 13.7292 8.48288 13.9229 7.89144 13.9229C7.64817 13.9229 7.39299 13.8902 7.12821 13.8238C7.05212 13.8049 6.38535 13.6258 6.39419 13.1993C6.40226 12.8092 6.95912 12.6943 7.16856 12.6512C7.90566 12.4994 7.95331 12.4387 8.18236 12.1482C8.22847 12.0894 8.28266 12.0206 8.34914 11.9418C8.34799 11.9334 8.34761 11.9245 8.34684 11.9161C8.01634 11.9072 7.69314 11.8196 7.39914 11.6617C7.19969 11.8738 6.66013 12.4568 6.08252 13.1516C5.73434 13.5697 5.39999 13.6927 5.12675 13.6927C5.01569 13.6927 4.91462 13.6723 4.82699 13.6431C4.07914 13.3937 3.36818 12.1809 2.71409 10.038C2.21718 8.41006 1.90244 6.71028 1.87477 6.15765C1.79253 4.51513 2.21642 3.35261 3.13452 2.70199C3.9039 2.15704 4.98187 1.99141 6.33846 2.21008C7.12168 2.33613 7.76308 2.55595 8.01211 2.64895C8.58357 2.2585 9.27493 2.06827 10.0743 2.08095C10.5097 2.08825 10.9101 2.14359 11.2772 2.23506C11.4532 2.15858 12.3521 1.88726 13.4139 1.8984C14.9619 1.91493 16.2401 2.51214 17.1113 3.62508C17.3276 3.9014 17.4322 4.35334 17.4226 4.96861C17.4141 5.52893 17.3084 6.21645 17.117 6.957C16.7135 8.51997 15.9657 10.1955 15.056 11.5813C15.194 11.6828 15.6137 11.8492 16.7827 11.6079C17.1766 11.5264 17.4141 11.5982 17.4875 11.8211C17.6301 12.2519 16.845 12.7477 16.4099 12.9495Z" fill="white"/>
<path d="M9.41751 12.6094C9.41021 12.6321 9.39945 12.654 9.38446 12.6747C8.7738 13.5302 7.88375 13.5191 7.24465 13.3592C7.11284 13.3261 6.99447 13.2693 6.92491 13.2216C6.98294 13.1943 7.08632 13.1574 7.26541 13.1205C8.1324 12.9418 8.26613 12.8158 8.55859 12.4445C8.62546 12.3596 8.70155 12.2631 8.80685 12.1455C8.96365 11.9699 9.03551 11.9999 9.16541 12.0537C9.24457 12.0864 9.3222 12.1694 9.37332 12.2701C9.39061 12.3035 9.40444 12.3385 9.41482 12.3746C9.43019 12.4292 9.44749 12.5226 9.41751 12.6094Z" fill="#336791"/>
<path d="M9.03859 7.09658C8.96211 6.7434 8.77841 6.53857 8.4775 6.46939C7.81727 6.31836 6.89148 6.81412 6.69164 6.99128C6.69356 7.03125 6.69663 7.08198 6.70009 7.14001C6.72469 7.55313 6.77004 8.32251 6.64667 9.20641C6.5702 9.75174 6.70394 10.2859 7.01599 10.7064C7.06441 10.7725 7.11783 10.8355 7.17509 10.8954C7.50867 11.2436 7.94755 11.4361 8.39833 11.4377C8.45022 11.2252 8.53399 11.0011 8.62354 10.7602L8.6439 10.7056L8.65928 10.6648C8.70501 10.5415 8.75843 10.4223 8.8153 10.2963C9.09085 9.68448 9.43327 8.92318 9.03859 7.09658ZM8.81838 7.00127C8.80147 7.12271 8.6097 7.28681 8.39872 7.28681C8.38066 7.28681 8.36221 7.28566 8.34415 7.28297C8.21733 7.26567 8.08974 7.18574 8.00212 7.07006C7.97137 7.02894 7.92103 6.94939 7.93102 6.87791C7.93486 6.85062 7.9487 6.81104 7.99366 6.77722C8.07321 6.71689 8.23116 6.69421 8.40525 6.71881C8.61893 6.7484 8.83952 6.84947 8.81838 7.00127Z" fill="#336791"/>
<path d="M6.82922 11.2271C6.88379 11.2839 6.94028 11.3373 6.99908 11.3877C6.76466 11.639 6.25545 12.194 5.71397 12.8454C5.33043 13.3061 5.06565 13.2177 4.97879 13.1889C4.41118 12.9995 3.75286 11.8 3.17218 9.89813C2.66989 8.25253 2.37628 6.59772 2.35323 6.13348C2.27982 4.66621 2.63531 3.64319 3.41045 3.09363C4.67135 2.19936 6.74429 2.73392 7.57823 3.00563C7.56632 3.01716 7.5544 3.02907 7.54249 3.04098C7.42182 3.16281 7.31191 3.29232 7.21199 3.42721C6.17475 4.82915 6.20818 6.81716 6.21087 6.92784V6.92976C6.21087 6.9851 6.21549 7.06273 6.22163 7.16803C6.24546 7.56501 6.28927 8.30365 6.17206 9.13989C6.07406 9.84087 6.2593 10.5284 6.6828 11.0595C6.72892 11.1171 6.77772 11.1732 6.82922 11.2271Z" fill="#336791"/>
<path d="M14.3435 11.3604C14.3904 11.4192 14.4361 11.4761 14.4707 11.526C14.3562 11.5591 14.2033 11.6102 14.0684 11.7262C13.9315 11.8431 13.8132 12.0268 13.7709 12.325C13.7563 12.4311 13.7509 12.5517 13.7578 12.6889C13.7429 12.8784 13.691 13.3457 13.6264 13.8826C13.6256 13.888 13.6249 13.8937 13.6245 13.8991C13.5323 14.6654 13.4139 15.5681 13.3386 16.0047C13.1683 16.9935 12.8044 17.3617 11.7814 17.5811C10.7211 17.8082 10.3456 17.2671 10.0981 16.6488C9.93978 16.2534 9.86138 14.4859 9.91403 12.5218H9.91326C9.91442 12.4768 9.91173 12.4303 9.90519 12.3834C9.90519 12.383 9.90481 12.3826 9.90481 12.3826C9.89866 12.3365 9.88905 12.2896 9.8756 12.2428C9.79336 11.9557 9.59429 11.7155 9.35487 11.6136C9.35295 11.6125 9.35064 11.6117 9.34872 11.611C9.25264 11.5714 9.07625 11.498 8.86411 11.5522C8.90908 11.3658 8.98747 11.1552 9.0724 10.9273L9.10814 10.8316C9.1485 10.7236 9.19884 10.6114 9.25226 10.493C9.31682 10.3497 9.38677 10.1944 9.45094 10.0176C9.67576 9.40466 9.83909 8.53229 9.50667 6.99508C9.34603 6.25337 8.81031 5.89097 7.99827 5.97513C7.51136 6.02548 7.06595 6.22185 6.84382 6.33446C6.79617 6.35867 6.75236 6.38211 6.71162 6.4044C6.76888 5.71457 6.97295 4.47212 7.69237 3.59014C7.75232 3.51635 7.8165 3.44487 7.88414 3.37646C8.436 2.81999 9.17079 2.54521 10.0662 2.55982C10.8529 2.57288 11.5135 2.76004 12.0611 3.03059C12.7414 3.36647 13.2463 3.83071 13.5999 4.24884C14.1502 4.89869 14.4481 5.55355 14.5672 5.90673C13.6729 5.81603 13.0649 5.99243 12.7567 6.43322C12.0861 7.39168 13.1234 9.25248 13.6222 10.1468C13.7136 10.3105 13.7924 10.4523 13.8174 10.5122C13.9339 10.7947 14.0749 11.0095 14.2025 11.1794C14.2521 11.2463 14.3001 11.3062 14.3435 11.3604Z" fill="#336791"/>
<path d="M14.4642 7.86632C14.4738 7.5631 14.5122 7.3133 14.5495 7.07196C14.5841 6.84714 14.6171 6.63231 14.621 6.3952C13.6745 6.27722 13.2974 6.4955 13.1491 6.70764C12.6503 7.42052 13.6245 9.16757 14.0403 9.91312C14.1475 10.1049 14.2244 10.2436 14.2601 10.3297C14.2993 10.425 14.3424 10.5115 14.387 10.5903C14.6733 9.98153 14.5991 9.36433 14.5272 8.7652C14.4915 8.46852 14.4546 8.16146 14.4642 7.86632ZM14.073 6.93284C14.0269 6.98165 13.9296 7.06542 13.7974 7.08387C13.7801 7.08618 13.7632 7.08733 13.7467 7.08733C13.5484 7.08733 13.3808 6.929 13.3678 6.83638C13.3516 6.71686 13.5461 6.62616 13.7471 6.59849C13.9477 6.57044 14.1598 6.60426 14.1764 6.72339C14.1767 6.72762 14.1771 6.73185 14.1771 6.73646C14.1771 6.78949 14.1379 6.86482 14.073 6.93284Z" fill="#336791"/>
<path d="M16.7343 3.92025C17.3296 4.68156 16.6739 8.14568 14.7751 11.1336C14.7563 11.1098 14.7371 11.0856 14.7175 11.061C14.7098 11.0514 14.7021 11.0414 14.6936 11.0314C14.9684 10.5776 15.0591 10.1264 15.0706 9.6925C15.0706 9.6925 15.0706 9.69173 15.071 9.69135C15.0799 9.35047 15.0403 9.02035 15.0026 8.70791C14.9676 8.41623 14.9346 8.14068 14.943 7.88204C14.9515 7.60765 14.988 7.37207 15.023 7.14456C15.0664 6.86402 15.111 6.57387 15.0983 6.23146C15.1071 6.19572 15.1106 6.15344 15.106 6.10387C15.0749 5.77567 14.7005 4.79454 13.9373 3.90603C13.6533 3.57514 13.2809 3.21812 12.8098 2.90761C12.5888 2.76234 12.3463 2.62706 12.0807 2.50985C12.4381 2.43568 12.927 2.36651 13.4738 2.37842C14.8604 2.40916 15.9576 2.92798 16.7343 3.92025Z" fill="#336791"/>
<path d="M16.8903 12.0748C16.7573 12.199 16.5302 12.3657 16.2082 12.5152C15.9315 12.6436 15.468 12.7401 15.028 12.7608C14.5414 12.7835 14.2943 12.7062 14.2359 12.659C14.2267 12.4691 14.2444 12.3369 14.2809 12.2424C14.287 12.2259 14.2936 12.2105 14.3013 12.1963C14.3766 12.0498 14.5053 12.0137 14.6391 11.9761C14.674 11.9664 14.7078 11.9568 14.7405 11.9453C14.7609 11.9618 14.7832 11.9784 14.8074 11.9945C15.1982 12.2524 15.8953 12.2804 16.8795 12.0771C16.883 12.0764 16.8869 12.0756 16.8903 12.0748Z" fill="#336791"/>
</g>
<defs>
<clipPath id="clip0_1_910">
<rect width="20" height="20" fill="white"/>
</clipPath>
</defs>
</svg>
