<svg xmlns="http://www.w3.org/2000/svg" viewBox="0 0 20 20">
  <rect width="100%" height="100%" fill="#336791"/>
  <path d="M17.96 11.76a.81.81 0 0 0-.68-.54 1.54 1.54 0 0 0-.53.03c-.37.07-.64.1-.83.1a16 16 0 0 0 1.69-4.02c.56-2.17.26-3.16-.09-3.61a4.85 4.85 0 0 0-3.91-1.84 6.93 6.93 0 0 0-2.04.28c-.37-.06-.77-.1-1.19-.1a3.87 3.87 0 0 0-2.07.5 9.5 9.5 0 0 0-1.46-.37c-1.44-.23-2.59-.05-3.43.55C2.4 3.46 1.92 4.7 2 6.47c.03.55.34 2.24.83 3.85.28.92.58 1.69.9 2.28.43.83.9 1.32 1.43 1.5.3.1.84.17 1.4-.3.07.08.17.17.3.25a2.98 2.98 0 0 0 2.5.12v.28l.02.39a6.86 6.86 0 0 0 .3 2.05c.08.26.22.69.58 1.03.37.35.82.45 1.23.45.2 0 .4-.02.57-.06.62-.13 1.32-.33 1.82-1.05.48-.68.71-1.7.75-3.32l.02-.13.01-.09.11.01h.03c.63.03 1.4-.1 1.86-.32.38-.17 1.57-.8 1.29-1.65Z"/>
  <path fill="#fff" d="M16.47 12.97c-.37.17-.97.28-1.49.28-.24 0-.47-.02-.65-.08-.08.77-.26 2.22-.37 2.82-.2 1.13-.7 1.65-1.86 1.9-.2.04-.37.06-.54.06-1.1 0-1.46-.88-1.6-1.24-.18-.44-.24-1.89-.23-3.35-.4.36-.9.55-1.47.55-.24 0-.48-.03-.74-.1-.07-.02-.71-.19-.7-.6 0-.38.54-.49.74-.53.71-.15.76-.2.98-.48l.16-.2v-.03c-.32 0-.63-.1-.92-.24-.19.2-.7.76-1.27 1.43-.33.4-.65.52-.92.52-.1 0-.2-.01-.29-.04-.72-.24-1.4-1.41-2.03-3.48-.48-1.57-.78-3.2-.81-3.74-.08-1.58.33-2.7 1.21-3.33.74-.53 1.78-.69 3.1-.48.75.13 1.36.34 1.6.43a3.35 3.35 0 0 1 2-.55c.41 0 .8.06 1.15.15a6.15 6.15 0 0 1 2.06-.33c1.5.02 2.72.6 3.56 1.67.21.27.31.7.3 1.3 0 .53-.1 1.2-.29 1.91a15.51 15.51 0 0 1-1.99 4.46c.14.1.54.26 1.67.02.38-.07.6 0 .68.21.13.42-.62.9-1.04 1.09Z"/>
  <path fill="#336791" d="m9.73 12.64-.04.06c-.58.83-1.44.82-2.06.66a1.02 1.02 0 0 1-.3-.13c.05-.03.15-.06.32-.1.84-.17.97-.3 1.25-.65l.24-.29c.15-.17.22-.14.34-.09.08.04.15.12.2.21l.04.1a.4.4 0 0 1 0 .23ZM9.36 7.33c-.07-.34-.25-.54-.54-.6-.63-.15-1.53.32-1.72.5v.14c.03.4.08 1.14-.04 1.99a1.96 1.96 0 0 0 .5 1.63c.33.33.75.52 1.19.52.05-.2.13-.42.21-.65l.02-.05.02-.04.15-.36c.26-.59.6-1.32.21-3.08Zm-.2-.1c-.03.12-.21.28-.41.28h-.06a.52.52 0 0 1-.33-.21c-.03-.04-.07-.12-.06-.19 0-.02.01-.06.06-.1.07-.05.22-.07.4-.05.2.03.41.13.4.27Z"/>
  <path fill="#336791" d="m7.23 11.3.17.16c-.23.24-.72.78-1.24 1.4-.37.45-.63.37-.71.34-.55-.18-1.18-1.34-1.74-3.17a20.7 20.7 0 0 1-.8-3.63C2.86 4.98 3.2 4 3.95 3.47c1.21-.87 3.21-.35 4.02-.09l-.04.04c-.12.11-.22.24-.32.37a6.1 6.1 0 0 0-.96 3.37v.23c.03.39.07 1.1-.04 1.9a2.41 2.41 0 0 0 .63 2.02Z"/>
  <path fill="#336791" d="M14.48 11.44c.04.05.09.1.12.16a1 1 0 0 0-.39.19.88.88 0 0 0-.29.58v.35a39.05 39.05 0 0 1-.14 1.16c-.08.74-.2 1.61-.27 2.03-.17.96-.52 1.31-1.5 1.52-1.02.22-1.39-.3-1.62-.9-.16-.38-.23-2.08-.18-3.97a.83.83 0 0 0-.04-.27.94.94 0 0 0-.5-.6v-.01c-.1-.04-.27-.11-.47-.06.04-.18.11-.38.2-.6l.03-.1.14-.32.2-.46c.2-.59.37-1.43.05-2.91-.16-.72-.68-1.07-1.46-.99a3.35 3.35 0 0 0-1.24.42 5.13 5.13 0 0 1 1.13-2.92c.53-.54 1.24-.8 2.1-.79a4.45 4.45 0 0 1 3.41 1.63c.53.63.82 1.26.93 1.6-.86-.09-1.45.08-1.74.5-.65.93.35 2.72.83 3.59l.19.35c.11.27.25.48.37.64l.14.18Z"/>
  <path fill="#336791" d="M14.6 8.07a6 6 0 0 1 .08-.77c.03-.21.06-.42.06-.65-.9-.11-1.27.1-1.41.3-.49.69.45 2.37.85 3.1a4.96 4.96 0 0 1 .34.64c.27-.58.2-1.18.13-1.76a5.8 5.8 0 0 1-.06-.86Zm-.38-.9a.47.47 0 0 1-.27.14h-.05c-.19 0-.35-.15-.36-.24-.02-.11.17-.2.36-.22.2-.03.4 0 .42.12 0 .06-.04.13-.1.2Z"/>
  <path fill="#336791" d="M16.78 4.26c.57.74-.06 4.08-1.89 6.96l-.05-.07-.03-.03c.27-.44.36-.87.37-1.3 0-.32-.03-.64-.07-.94-.03-.28-.06-.55-.06-.8.01-.26.05-.49.08-.7a4.42 4.42 0 0 0 .08-1.01 4.94 4.94 0 0 0-1.13-2.12A5.23 5.23 0 0 0 12.3 2.9c.35-.07.82-.13 1.35-.12a3.9 3.9 0 0 1 3.14 1.48ZM16.93 12.13c-.13.11-.35.28-.66.42-.26.12-.71.22-1.14.24-.46.02-.7-.06-.76-.1a1 1 0 0 1 .06-.45c.08-.14.2-.17.33-.21l.1-.03a.8.8 0 0 0 .06.05c.38.25 1.05.27 2 .08h.01Z"/>
</svg>