<svg xmlns="http://www.w3.org/2000/svg" viewBox="0 0 20 20">
  <rect width="100%" height="100%" fill="#2671BE"/>
  <path fill="#fff" fill-rule="evenodd" d="M11.4977 3.5268c1.9278-.0006 3.8556-.0065 5.7833.0016 1.146.0047 1.4691.3876 1.222 1.5194-.7235 3.3146-1.4632 6.6258-2.2129 9.9347-.237 1.0458-.7817 1.4742-1.8819 1.4775-3.8556.0114-7.711.0127-11.5664-.0005-1.2603-.0045-1.5917-.4313-1.3202-1.6256a3273.0342 3273.0342 0 0 1 2.2239-9.727c.2844-1.2353.7118-1.5744 1.9688-1.578 1.9278-.0054 3.8556-.0014 5.7834-.002Z" clip-rule="evenodd"/>
  <path fill="#2671BE" fill-rule="evenodd" d="M10.2249 9.7194c-.1292-.1517-.2712-.3263-.4215-.4931-.8522-.9467-1.6969-1.9004-2.5642-2.8328-.397-.4268-.5235-.8412-.0468-1.2624.471-.4164.934-.3795 1.366.0995 1.2034 1.3336 2.4054 2.6687 3.6287 3.984.4568.4912.3504.8252-.1527 1.1892-1.9308 1.3976-3.8509 2.8103-5.7688 4.2257-.431.3183-.842.398-1.1903-.0721-.3842-.5184-.0288-.8269.3698-1.1171 1.4252-1.0381 2.8477-2.0801 4.264-3.1303.1973-.1462.4806-.2315.5158-.5907ZM10.8356 14.7346c-.5191 0-1.0389.0178-1.5568-.0058-.4131-.0186-.6618-.2495-.6566-.6846.005-.4116.2125-.721.6252-.7321 1.1345-.0304 2.2706-.0239 3.4055-.0016.3606.007.6269.242.6247.6177-.0026.4311-.2294.7651-.6912.7929-.5817.0352-1.167.0088-1.7507.0088l-.0001.0047Z" clip-rule="evenodd"/>
</svg>
