<svg width="20" height="20" xmlns="http://www.w3.org/2000/svg">
<path fill-rule="evenodd" clip-rule="evenodd" d="M11.7117 2.60217C13.9148 2.60141 16.118 2.59471 18.3211 2.60399C19.6308 2.60936 20.0001 3.04699 19.7177 4.34045C18.8909 8.12853 18.0455 11.9128 17.1887 15.6943C16.9178 16.8895 16.2953 17.3791 15.0379 17.3829C10.6316 17.396 6.22533 17.3974 1.81914 17.3823C0.378908 17.3772 6.12559e-05 16.8894 0.310358 15.5245C1.15192 11.8177 1.99913 8.11211 2.85199 4.40785C3.17703 2.99624 3.6655 2.60869 5.1021 2.60457C7.30529 2.59835 9.50848 2.60294 11.7117 2.60217Z" fill="#E0EAF5"/>
<path fill-rule="evenodd" clip-rule="evenodd" d="M8.38226 16.9424C6.17888 16.9417 3.9754 16.9518 1.77211 16.9374C0.654815 16.9301 0.451652 16.6664 0.703164 15.5736C1.55583 11.8675 2.43598 8.16759 3.26969 4.45725C3.49325 3.46212 3.97549 3.02228 5.04167 3.03214C9.44805 3.07303 13.8552 3.04526 18.2619 3.04976C19.367 3.05081 19.5525 3.2872 19.3045 4.40804C18.499 8.04686 17.6885 11.6846 16.8637 15.3192C16.555 16.6793 16.1994 16.9389 14.7684 16.9421C12.6397 16.9466 10.5109 16.9432 8.38226 16.9424Z" fill="#2671BE"/>
<path fill-rule="evenodd" clip-rule="evenodd" d="M10.2571 9.67926C10.1094 9.50597 9.94717 9.30645 9.77541 9.11573C8.80144 8.03386 7.83608 6.94394 6.84478 5.87825C6.39116 5.39055 6.24659 4.91692 6.79136 4.43553C7.32971 3.9597 7.85868 4.00182 8.35251 4.54927C9.72783 6.07337 11.1015 7.59919 12.4996 9.10233C13.0216 9.66375 12.9 10.0455 12.3251 10.4615C10.1184 12.0587 7.92407 13.6733 5.73217 15.2909C5.23949 15.6546 4.76979 15.7457 4.37179 15.2085C3.93272 14.616 4.33895 14.2634 4.79439 13.9318C6.42323 12.7454 8.04891 11.5545 9.66761 10.3543C9.89308 10.1872 10.2168 10.0897 10.2571 9.67926Z" fill="#FDFDFE"/>
<path fill-rule="evenodd" clip-rule="evenodd" d="M10.955 15.411C10.3617 15.411 9.76767 15.4313 9.1758 15.4044C8.70361 15.3831 8.41945 15.1192 8.42538 14.6219C8.43113 14.1516 8.66818 13.798 9.1399 13.7853C10.4364 13.7505 11.7349 13.758 13.0319 13.7834C13.444 13.7914 13.7483 14.06 13.7458 14.4894C13.7428 14.9821 13.4836 15.3638 12.9559 15.3956C12.2911 15.4358 11.6222 15.4056 10.9551 15.4056L10.955 15.411Z" fill="#FCFDFD"/>
</svg>
