<svg viewBox="0 0 20 20" fill="none" xmlns="http://www.w3.org/2000/svg">
<path d="M0 0H20V20H0V0Z" fill="#A5DBE8"/>
<path d="M12.6168 13.1141L13.1254 14.8629L13.2696 14.8696C13.3633 14.8696 13.4291 14.8943 13.4291 14.9879C13.4291 15.1436 13.4372 15.3185 13.4521 15.4712C13.5788 15.5788 13.7331 15.7002 13.8501 15.818C14.2882 15.5629 14.7017 15.2677 15.0854 14.9363C14.405 14.1565 13.5625 13.5346 12.6168 13.1141V13.1141ZM11.6224 13.0966L12.2195 12.952C12.0685 12.8952 11.9162 12.8418 11.7619 12.7954C11.5698 12.7375 11.3761 12.6852 11.1799 12.6435C10.915 12.5872 10.6472 12.5458 10.3777 12.5195C10.53 12.9974 10.6966 13.4705 10.8774 13.9383C10.87 14.0297 10.8652 14.1212 10.8631 14.2128C11.2862 14.2962 11.7022 14.4413 12.0869 14.6114L11.6224 13.0966" fill="#525353"/>
<path d="M5.6203 15.8181C5.71541 15.8735 5.81148 15.9276 5.90914 15.9792C5.94332 15.8151 5.99798 15.5876 6.01449 15.4187C5.88777 15.5263 5.7373 15.7002 5.6203 15.8181ZM12.0769 14.5963C11.6877 14.424 11.2806 14.2953 10.8631 14.2128C10.4916 14.1394 10.1139 14.1024 9.73523 14.1023C9.34916 14.1023 8.97232 14.1408 8.60737 14.2128C8.18431 14.2962 7.74289 14.4228 7.35836 14.5928L7.31746 14.8476H12.1531L12.0769 14.5963" fill="black"/>
<path d="M5.99951 15.4671C6.01449 15.3144 6.0253 15.1783 6.0253 15.0226C6.0253 14.929 6.0895 14.869 6.18313 14.869L6.33668 14.8637L6.85375 13.114C5.90801 13.5345 5.06548 14.1564 4.38504 14.9363C4.76869 15.2677 5.18221 15.5629 5.62029 15.818C5.73728 15.7 5.85926 15.587 5.98588 15.4794" fill="#525353"/>
<path d="M13.5146 15.7786C13.5478 15.945 13.5553 15.9781 13.5613 15.9793C13.6587 15.9276 13.755 15.8739 13.8502 15.8182C13.7319 15.6989 13.6086 15.5847 13.4807 15.4758L13.5146 15.7786" fill="black"/>
<path d="M12.0769 14.5962L12.1531 14.8475H13.1422L12.6168 13.114C12.486 13.0561 12.3535 13.002 12.2195 12.9519L11.6224 13.0966L12.0769 14.5962Z" fill="#AA9678"/>
<path d="M6.34557 15.1978C6.35075 15.1941 6.356 15.1905 6.36111 15.1868H6.34627C6.34614 15.1904 6.34576 15.1941 6.34557 15.1978Z" fill="#C4B6A1"/>
<path d="M13.1242 15.1868H13.1093L13.1248 15.1978C13.1247 15.1941 13.1243 15.1904 13.1242 15.1868Z" fill="#AA9678"/>
<path d="M13.1071 15.1614L9.72818 15.1652L9.73522 16.9276C10.9927 16.9276 12.1837 16.6435 13.2485 16.1371C13.179 15.8317 13.172 15.5027 13.1607 15.1826C13.1556 15.1788 13.1071 15.1614 13.1071 15.1614" fill="#AA9678"/>
<path d="M9.72978 15.1725C9.72978 15.1725 6.3322 15.1682 6.32702 15.1719C6.31575 15.4921 6.2497 15.872 6.22192 16.1371C7.28674 16.6435 8.4777 16.9276 9.73522 16.9276L9.73714 15.1782L9.72978 15.1725Z" fill="#C4B6A1"/>
<path d="M9.73521 15.0168H9.73527V15.1864H9.73521V15.0168Z" fill="#786453"/>
<path d="M12.2693 13.8656L12.2711 13.8709L12.2693 13.8656C12.2693 13.8656 12.1863 13.7997 12.0809 13.6785C12.1863 13.7997 12.2693 13.8656 12.2693 13.8656Z" fill="#AA9678"/>
<path d="M14.7726 6.45337V6.45375V6.45337ZM15.1023 8.81207L15.1024 8.80963L15.1023 8.81207Z" fill="white"/>
<path d="M15.1024 8.80941L15.1023 8.80737L15.1024 8.80941Z" fill="#BBBCBD"/>
<path d="M15.0931 8.68192C15.0934 8.68409 15.094 8.68601 15.0943 8.68819C15.0945 8.68953 15.0949 8.69075 15.0951 8.69203V8.69254C15.099 8.72384 15.1004 8.75654 15.1011 8.78951C15.1013 8.79559 15.1023 8.80128 15.1023 8.8073L15.1024 8.80954L15.1023 8.81197C15.1022 8.8185 15.1011 8.82458 15.1011 8.83104C15.1006 8.86282 15.0987 8.89456 15.0951 8.92615V8.9266L15.0942 8.93127C15.094 8.93377 15.0932 8.93601 15.0929 8.93844C15.0886 8.97108 15.0825 9.00345 15.0745 9.0354L15.0744 9.03585V9.03592L15.0755 9.03463L15.076 9.03316V9.03323L15.2904 8.80877L15.0743 8.58252L15.0743 8.58297C15.0824 8.61452 15.0885 8.64767 15.0931 8.68192Z" fill="#676A6A"/>
<path d="M15.0929 8.93873C15.0935 8.9345 15.0945 8.93073 15.0951 8.92644C15.0989 8.89572 15.1003 8.86365 15.1011 8.83133C15.1011 8.82403 15.1023 8.81719 15.1023 8.80983C15.1023 8.80298 15.1013 8.79658 15.1011 8.78979C15.1008 8.75739 15.0987 8.72503 15.0951 8.69283C15.0945 8.68912 15.0936 8.68585 15.0931 8.6822C15.0888 8.64888 15.0825 8.61585 15.0743 8.58326C15.0715 8.57225 15.0676 8.56246 15.0643 8.55183C15.0449 8.4877 15.0185 8.43106 14.9872 8.38402C14.9751 8.36613 14.962 8.34903 14.9479 8.33281C14.9349 8.31849 14.9207 8.30532 14.9055 8.29345C14.8999 8.28916 14.8939 8.28615 14.8881 8.28244C14.8705 8.27084 14.8514 8.26161 14.8313 8.25499C14.8124 8.24869 14.7926 8.24528 14.7726 8.24487C14.7525 8.24487 14.7331 8.2491 14.7139 8.25499C14.6938 8.26158 14.6747 8.27081 14.657 8.28244C14.6514 8.28615 14.6454 8.2891 14.6398 8.29339C14.6135 8.31394 14.5903 8.33829 14.5711 8.36565C14.5666 8.37168 14.5622 8.37782 14.5581 8.38408C14.5267 8.43112 14.5002 8.48776 14.4809 8.55189L14.4785 8.55957C14.4699 8.58902 14.4632 8.61999 14.4577 8.6518C14.456 8.66153 14.4538 8.67088 14.4524 8.68086C14.4473 8.71645 14.4447 8.75357 14.444 8.79158C14.444 8.79683 14.4431 8.80182 14.4431 8.80707H14.4444C14.4444 9.11915 14.5921 9.37209 14.7742 9.37209C14.8055 9.37209 14.8357 9.3639 14.8644 9.34988C14.8816 9.34144 14.8979 9.33116 14.9129 9.31922C14.9191 9.31423 14.9249 9.30821 14.9309 9.30258C14.9454 9.28901 14.9592 9.27365 14.9724 9.25656C14.9815 9.2446 14.9904 9.23263 14.9987 9.21925C15.004 9.21074 15.0089 9.20152 15.0138 9.19243C15.0231 9.17541 15.0318 9.15768 15.0396 9.13886C15.0426 9.13208 15.0456 9.12549 15.0483 9.11851C15.0583 9.09233 15.0671 9.06468 15.0745 9.03569C15.0824 9.00478 15.0883 8.97226 15.0929 8.93873V8.93873ZM14.7845 8.73462C14.7162 8.73462 14.6608 8.63971 14.6608 8.52271C14.6608 8.40578 14.7162 8.31086 14.7845 8.31086C14.8527 8.31086 14.908 8.40578 14.908 8.52271C14.908 8.63971 14.8527 8.73462 14.7845 8.73462Z" fill="black"/>
<path d="M14.7845 8.31055C14.7162 8.31055 14.6608 8.40546 14.6608 8.5224C14.6608 8.63939 14.7162 8.73431 14.7845 8.73431C14.8528 8.73431 14.9081 8.63939 14.9081 8.5224C14.9081 8.40546 14.8528 8.31055 14.7845 8.31055" fill="white"/>
<path d="M14.4809 8.5517C14.5002 8.48757 14.5267 8.43093 14.5581 8.38388C14.5623 8.37748 14.5666 8.37153 14.5711 8.36545C14.5902 8.33806 14.6134 8.3137 14.6398 8.29319C14.6454 8.2889 14.6514 8.28596 14.657 8.28225C14.6747 8.27059 14.6938 8.26135 14.7139 8.25479C14.733 8.24877 14.7525 8.24468 14.7726 8.24468C14.7927 8.24468 14.8122 8.24877 14.8313 8.25479C14.8514 8.26141 14.8705 8.27064 14.8882 8.28225C14.8939 8.28596 14.8999 8.28897 14.9055 8.29326C14.9202 8.30452 14.9343 8.31783 14.9479 8.33262C14.962 8.34884 14.9752 8.36594 14.9872 8.38382C15.0185 8.43086 15.045 8.48751 15.0644 8.55164V8.55176L14.7726 7.21558L14.4808 8.5517H14.4809" fill="#909393"/>
<path d="M10.9064 8.79736C10.906 8.77048 10.9043 8.74392 10.9013 8.7178C10.9012 8.71748 10.9011 8.7171 10.9011 8.71671C10.8981 8.69117 10.8938 8.6658 10.8882 8.64068L10.8877 8.63876C10.8822 8.61425 10.8755 8.59003 10.8677 8.56618L10.867 8.56458C10.8592 8.54092 10.8502 8.51768 10.84 8.49494C10.8399 8.4945 10.8396 8.49405 10.8394 8.49354C10.7581 8.3126 10.6106 8.16969 10.4272 8.09416L10.4249 8.09333C10.3803 8.07512 10.334 8.06117 10.2868 8.05166C10.2856 8.05147 10.2844 8.05141 10.2832 8.05115C10.2344 8.04152 10.1849 8.03666 10.1352 8.03662C10.0853 8.03662 10.0369 8.04174 9.98969 8.05077L9.9847 8.05153C9.93778 8.06088 9.89253 8.07457 9.84908 8.09198L9.84562 8.09333C9.80168 8.11116 9.75949 8.13303 9.7196 8.15867C9.67972 8.1844 9.64228 8.21365 9.60785 8.24597L9.60702 8.2486L9.60414 8.24924C9.54898 8.30171 9.50178 8.36195 9.46403 8.42806L9.46262 8.43043C9.4511 8.45072 9.44067 8.47184 9.43107 8.49334C9.43005 8.49565 9.42877 8.49782 9.42781 8.50013C9.41904 8.52003 9.41149 8.54064 9.40445 8.56138C9.4031 8.56548 9.40131 8.56932 9.40003 8.57335C9.39389 8.59274 9.38889 8.61265 9.38416 8.63255C9.38294 8.63831 9.38108 8.64381 9.37987 8.64951C9.37577 8.66922 9.37296 8.68939 9.37033 8.70961C9.36956 8.71582 9.36822 8.72177 9.36758 8.72798C9.35954 8.80462 9.36308 8.88203 9.37808 8.95762C9.3782 8.95858 9.37827 8.95967 9.37852 8.96069C9.38819 9.00889 9.4024 9.05535 9.42064 9.09983C9.42089 9.10047 9.42102 9.10112 9.42134 9.10169C9.45827 9.19101 9.51158 9.27263 9.57853 9.34234C9.63102 9.39706 9.69144 9.44398 9.75787 9.48148L9.75883 9.48206C9.77957 9.49371 9.80101 9.5042 9.82283 9.51393C9.82463 9.5147 9.82635 9.51572 9.82821 9.51649C9.84844 9.52532 9.86936 9.53294 9.89042 9.54005C9.89401 9.54126 9.89746 9.5428 9.90105 9.54395C9.9205 9.55016 9.9406 9.55515 9.9607 9.55976C9.96614 9.56104 9.97139 9.56283 9.97689 9.56398C9.99641 9.56801 10.0165 9.57077 10.0367 9.57339C10.0428 9.5741 10.0488 9.5755 10.055 9.57614C10.2353 9.59513 10.4165 9.54994 10.5667 9.44852C10.6489 9.39299 10.7196 9.32223 10.7752 9.24006C10.8613 9.11261 10.9072 8.96229 10.907 8.80849C10.907 8.80664 10.9068 8.80491 10.9068 8.80318C10.9067 8.8012 10.9065 8.79934 10.9064 8.79736V8.79736ZM10.1352 8.70692C10.0971 8.70692 10.0594 8.69941 10.0242 8.68484C9.98903 8.67026 9.95706 8.6489 9.93014 8.62197C9.90322 8.59504 9.88186 8.56307 9.8673 8.52789C9.85273 8.49271 9.84523 8.455 9.84523 8.41693C9.84524 8.37885 9.85274 8.34114 9.86732 8.30596C9.8819 8.27078 9.90326 8.23882 9.93019 8.2119C9.95712 8.18498 9.98908 8.16362 10.0243 8.14905C10.0594 8.13448 10.0972 8.12699 10.1352 8.12699C10.2121 8.127 10.2859 8.15756 10.3403 8.21194C10.3946 8.26633 10.4252 8.34009 10.4252 8.41699C10.4252 8.49389 10.3946 8.56764 10.3402 8.62202C10.2858 8.67639 10.2121 8.70693 10.1352 8.70692V8.70692Z" fill="black"/>
<path d="M10.1352 8.12695C10.0583 8.12695 9.98452 8.1575 9.93015 8.21187C9.87578 8.26624 9.84523 8.33999 9.84523 8.41688C9.84523 8.49378 9.87578 8.56752 9.93015 8.6219C9.98452 8.67627 10.0583 8.70682 10.1352 8.70682C10.2121 8.70682 10.2858 8.67627 10.3402 8.6219C10.3945 8.56752 10.4251 8.49378 10.4251 8.41688C10.4251 8.33999 10.3945 8.26624 10.3402 8.21187C10.2858 8.1575 10.2121 8.12695 10.1352 8.12695" fill="white"/>
<path d="M9.60414 8.24928L9.60702 8.24864L9.60786 8.24602L10.1395 6.62022V6.23973L10.1394 6.23544C9.83935 6.17332 9.53377 6.1418 9.22736 6.14136C9.12335 6.14136 9.02018 6.14577 8.91765 6.15275C8.90274 6.15377 8.88776 6.15467 8.87278 6.15582C8.33919 6.19634 7.81373 6.33541 7.32718 6.5575C6.90995 6.74804 6.52228 6.99899 6.17379 7.29654V7.2966L6.17321 7.29712C6.07997 7.37696 5.98964 7.46016 5.90242 7.54654C5.88603 7.56254 5.86939 7.57841 5.8532 7.59466C5.77074 7.67783 5.69098 7.76361 5.61402 7.85189C5.59732 7.87116 5.58087 7.89081 5.56435 7.91026C5.48669 8.00138 5.41194 8.09493 5.34022 8.19079C5.33426 8.19885 5.3287 8.2073 5.32281 8.21536C5.25477 8.30827 5.18954 8.40321 5.12722 8.50005C5.11499 8.51893 5.10245 8.53755 5.09048 8.55662C5.03992 8.63682 4.99287 8.71919 4.94615 8.80175H7.36782L9.60414 8.24928Z" fill="#BBBCBD"/>
<path d="M11.6486 8.06627C11.6535 8.00285 11.6576 7.93948 11.6608 7.87599C11.6652 7.7901 11.6682 7.70408 11.6699 7.61813C11.6712 7.55137 11.671 7.48455 11.6707 7.4178C11.6707 7.39854 11.6711 7.37927 11.6709 7.35994C11.6689 7.18758 11.6626 7.01529 11.6519 6.84325L11.6504 6.84229L11.6498 6.84107C11.5858 6.80431 11.5218 6.7677 11.4576 6.73124L11.4531 6.72868L11.403 6.70033L11.4021 6.69982L11.3674 6.68036L11.3605 6.67652C11.3521 6.67186 11.3437 6.66728 11.3352 6.66276C11.2239 6.60498 11.1103 6.55163 10.9948 6.50282C10.7194 6.38653 10.3484 6.28457 10.1395 6.23535V6.62013L10.6664 8.24855L10.667 8.2499C10.7214 8.30174 10.7682 8.36133 10.8057 8.42699V8.42706C10.818 8.44856 10.8292 8.47077 10.8394 8.49349C10.8397 8.494 10.8399 8.49445 10.84 8.4949C10.8502 8.51756 10.8592 8.54079 10.8671 8.56453L10.8677 8.56613C10.8755 8.58988 10.8822 8.61407 10.8877 8.63871L10.8882 8.64063C10.8937 8.66553 10.898 8.69094 10.9011 8.71667C10.9011 8.71705 10.9012 8.71744 10.9013 8.71776C10.9043 8.74387 10.906 8.77043 10.9064 8.79731L10.9084 8.80166H11.5536C11.5969 8.56488 11.628 8.32603 11.6469 8.08605C11.6473 8.07946 11.6481 8.07287 11.6486 8.06627" fill="#E3DDDB"/>
<path d="M12.4923 7.49023C12.4919 7.49088 12.4916 7.49164 12.4912 7.49228L12.4923 7.49029" fill="#FCB03F"/>
<path d="M9.60786 8.24567C9.64254 8.21317 9.68009 8.18389 9.72006 8.15818C9.75982 8.13263 9.80185 8.11082 9.84563 8.09302C9.84679 8.09251 9.848 8.09219 9.84909 8.09168C9.89296 8.07405 9.93835 8.06051 9.98471 8.05123L9.9897 8.05046C10.0376 8.04116 10.0864 8.03642 10.1352 8.03632C10.1859 8.03632 10.2353 8.04144 10.2832 8.05085C10.2844 8.0511 10.2856 8.05117 10.2868 8.05136C10.3348 8.061 10.3818 8.07523 10.4272 8.09386C10.516 8.13051 10.5974 8.18333 10.667 8.24964L10.6664 8.24829L10.1395 6.61987L9.60786 8.24567" fill="#909393"/>
<path d="M9.42064 9.09962C9.40219 9.05469 9.38809 9.0081 9.37853 8.96048C9.37827 8.95946 9.37821 8.95837 9.37808 8.95741C9.36308 8.88182 9.35954 8.80441 9.36758 8.72776C9.36822 8.72156 9.36957 8.7156 9.37033 8.7094C9.37296 8.68917 9.37577 8.66901 9.37987 8.6493C9.38109 8.6436 9.38294 8.6381 9.38416 8.63234C9.38889 8.61243 9.39389 8.59253 9.40003 8.57313C9.40137 8.5691 9.40304 8.56526 9.40445 8.56117C9.41149 8.54043 9.41904 8.51982 9.42781 8.49991C9.42877 8.49761 9.43005 8.49543 9.43107 8.49313C9.44067 8.47163 9.4511 8.4505 9.46262 8.43022L9.46403 8.42785C9.50178 8.36174 9.54898 8.3015 9.60414 8.24902L7.36781 8.8015H7.36353L9.57853 9.34213C9.51158 9.27242 9.45827 9.1908 9.42134 9.10148C9.42102 9.1009 9.4209 9.10026 9.42064 9.09962" fill="#676A6A"/>
<path d="M14.4524 8.68067C14.4538 8.67068 14.4559 8.66134 14.4577 8.65161C14.4632 8.6198 14.4699 8.58882 14.4785 8.55938C14.4794 8.55606 14.4798 8.55228 14.4808 8.54902L14.7726 7.2129L14.7726 6.45107C14.5341 6.25414 14.2788 6.14648 14.013 6.14648C13.6771 6.14648 13.364 6.33196 13.1298 6.56103C12.8735 6.81173 12.6755 7.12713 12.5154 7.44542C12.508 7.46007 12.5005 7.47415 12.4932 7.48888C12.5425 7.53163 12.5913 7.57496 12.6395 7.61906C12.7484 7.71905 12.8555 7.82106 12.9606 7.92505C13.0096 7.97344 13.0577 8.02285 13.106 8.07207C13.1572 8.12423 13.2085 8.17626 13.2589 8.22926C13.3511 8.32614 13.4421 8.42424 13.5317 8.52354C13.6086 8.60836 13.6846 8.69393 13.7598 8.78026L13.76 8.78038C13.7726 8.79357 13.7814 8.80304 13.7848 8.80688H14.4429C14.4429 8.80157 14.444 8.79671 14.444 8.79139C14.4447 8.75338 14.4473 8.71625 14.4524 8.68067V8.68067ZM12.4931 7.4924L12.4924 7.49041L12.4912 7.49259L12.4941 7.4954C12.4938 7.49439 12.4935 7.49339 12.4931 7.4924" fill="#E3DDDB"/>
<path d="M4.5494 9.64233L4.55529 9.62761C4.64365 9.39833 4.74555 9.17451 4.86045 8.95731C4.87825 8.92352 4.89565 8.8896 4.91409 8.85612C4.92426 8.83763 4.93578 8.81996 4.94615 8.80153C4.99287 8.71897 5.03992 8.63659 5.09048 8.5564C5.10245 8.53726 5.11499 8.5187 5.12722 8.49982C5.18954 8.40299 5.25477 8.30805 5.32281 8.21514C5.3287 8.20707 5.33427 8.19862 5.34022 8.19056C5.41194 8.0947 5.48669 8.00115 5.56435 7.91003C5.58087 7.89058 5.59725 7.87099 5.61402 7.85166C5.69098 7.76339 5.77074 7.6776 5.8532 7.59444C5.86946 7.57818 5.88603 7.56231 5.90242 7.54631C5.98965 7.45993 6.07997 7.37674 6.17321 7.29689L6.17379 7.29631C6.54187 6.06336 7.7304 5.3057 9.063 5.3057C9.59934 5.3057 10.1327 5.46027 10.5898 5.73989C11.0587 6.02669 11.3784 6.30689 11.6266 6.79671L11.6303 6.80407C11.6366 6.81648 11.6437 6.82839 11.6498 6.84093L11.6504 6.84215L11.6519 6.84311C11.8603 6.97208 12.0589 7.11638 12.2459 7.27481C12.3088 7.3279 12.3705 7.3824 12.431 7.43827C12.451 7.45658 12.4715 7.47398 12.4912 7.49261C12.4916 7.49184 12.4919 7.49107 12.4924 7.49037C12.4926 7.48984 12.4928 7.48933 12.4931 7.48883C12.4999 7.47494 12.5065 7.4608 12.5134 7.4471C12.7012 6.26196 13.2978 5.61573 13.9144 5.61573C14.3792 5.61573 14.7171 5.89286 14.9722 6.63888L14.9749 6.64688L14.9755 6.64777C15.0507 6.72985 15.121 6.81637 15.1859 6.90686L15.1858 6.90679C15.1871 6.90858 15.1885 6.91025 15.1899 6.9121L15.1898 6.91204L15.1899 6.9121C15.1935 6.92292 15.1966 6.93406 15.2002 6.94487V6.94481L15.1906 6.90596C14.4235 4.63501 12.2756 3 9.74565 3C6.5724 3 4 5.5724 4 8.74565C4 9.37122 4.09997 9.97348 4.28558 10.5339L4.28635 10.5306C4.3516 10.2283 4.43954 9.93141 4.5494 9.64233" fill="#525353"/>
<path d="M15.2764 8.80933L15.076 9.03353V9.03347L15.0756 9.03494C15.0679 9.06444 15.0586 9.09197 15.0483 9.11853C15.0456 9.1255 15.0426 9.1321 15.0396 9.13888C15.032 9.15716 15.0234 9.17504 15.0139 9.19245C15.0089 9.20154 15.0041 9.21076 14.9987 9.21927C14.9904 9.23258 14.9815 9.24468 14.9724 9.25658C14.9598 9.27303 14.946 9.28843 14.9309 9.3026C14.925 9.30817 14.9192 9.31425 14.9129 9.31924C14.8979 9.33117 14.8816 9.34145 14.8644 9.3499C14.8357 9.36391 14.8055 9.37211 14.7742 9.37211C14.5921 9.37211 14.4444 9.11917 14.4444 8.80709H13.7828L13.7832 8.8076C13.9075 8.95126 14.0298 9.09661 14.1502 9.24359C14.2659 9.38492 14.3801 9.52742 14.4929 9.67106L14.5095 9.69212C14.6164 9.82855 14.7223 9.96573 14.8272 10.1037L14.8578 10.1436C14.9693 10.2903 15.08 10.4376 15.1901 10.5854C15.3837 10.0122 15.4854 9.41205 15.4914 8.80709L15.3054 8.80005L15.2764 8.80933" fill="white"/>
<path d="M8.87278 6.15558C8.88776 6.15443 8.90273 6.15353 8.91765 6.15251C9.02072 6.1452 9.12402 6.1414 9.22736 6.14111C9.53892 6.14111 9.84332 6.17446 10.1394 6.2352H10.1395C10.3484 6.28442 10.7194 6.38637 10.9948 6.50267C11.1103 6.55148 11.2239 6.60483 11.3352 6.66261L11.3605 6.67637L11.3674 6.68021C11.3777 6.68597 11.3889 6.69218 11.4021 6.69967L11.403 6.70018L11.4531 6.72853L11.4576 6.73109C11.5284 6.77122 11.6067 6.81622 11.6367 6.83337L11.6444 6.83779L11.6498 6.84092C11.6437 6.82838 11.6366 6.81647 11.6303 6.80406L11.6266 6.7967C11.3784 6.30688 10.9963 5.88677 10.5274 5.59997C10.0703 5.32034 9.53694 5.16577 9.00053 5.16577C7.66799 5.16577 6.54186 6.06335 6.17378 7.2963C6.52228 6.99875 6.90994 6.7478 7.32718 6.55726C7.81373 6.33517 8.33919 6.19609 8.87278 6.15558" fill="black"/>
<path d="M15.1899 6.91208L15.1898 6.91201L15.1899 6.91208C15.1885 6.91022 15.1871 6.90856 15.1858 6.90676L15.1859 6.90683C15.121 6.81634 15.0508 6.72983 14.9755 6.64775L14.9737 6.64551C14.9416 6.61069 14.9085 6.57686 14.8744 6.54406C14.8618 6.53196 14.8487 6.5214 14.836 6.50982C14.8149 6.49068 14.794 6.47091 14.7726 6.45337V7.21558L15.0644 8.55183V8.55176C15.0676 8.56213 15.0715 8.57186 15.0743 8.58261L15.2764 8.80912L15.2784 8.80688H15.4899C15.4902 8.78729 15.4914 8.76796 15.4914 8.74832V8.748C15.4913 8.13523 15.393 7.52643 15.2002 6.94478V6.94485C15.1966 6.93403 15.1935 6.92289 15.1899 6.91208" fill="#BBBCBD"/>
<path d="M13.1298 6.56084C13.364 6.33178 13.6772 6.1463 14.013 6.1463C14.2789 6.1463 14.5342 6.25395 14.7726 6.45088L14.7726 6.45319V6.45357V6.45319C14.794 6.47073 14.8149 6.4905 14.836 6.50964C14.8487 6.52122 14.8618 6.53178 14.8744 6.54388C14.9085 6.57668 14.9416 6.61051 14.9737 6.64533L14.9755 6.64757C14.9754 6.64728 14.9752 6.64703 14.9749 6.6468L14.9749 6.64673L14.9723 6.63867C14.7171 5.89265 14.3053 5.40796 13.8407 5.40796C13.224 5.40796 12.7012 6.26176 12.5134 7.4469L12.5154 7.44523C12.6755 7.12695 12.8735 6.81154 13.1298 6.56084V6.56084ZM12.2966 13.8447C12.2966 13.8447 12.2135 13.779 12.1081 13.6577C12.0591 13.6016 12.0134 13.5427 11.9712 13.4812C11.9578 13.4616 11.9445 13.4413 11.9312 13.4203C11.8914 13.3572 11.8595 13.2805 11.8245 13.2047C11.7839 13.1168 11.7838 13.0584 11.7605 12.9766C11.7433 12.9164 11.7297 12.8552 11.7197 12.7934C11.7035 12.6934 11.697 12.592 11.7003 12.4908C11.7021 12.4323 11.7081 12.3718 11.7169 12.3103C11.7256 12.2491 11.7375 12.1885 11.7525 12.1286C11.799 11.9428 11.8793 11.7449 12.0046 11.536L12.0365 11.4644C12.0775 11.3962 12.0866 11.3992 12.1255 11.3335C12.6736 10.4084 12.9693 9.70895 12.8246 8.63191C12.8088 8.52157 12.7908 8.41155 12.7706 8.30191C12.758 8.38137 12.7447 8.46072 12.7306 8.53994C12.7252 8.56451 12.7103 8.5912 12.7046 8.60791C12.4665 9.31258 12.0917 9.83094 11.5525 10.4162C11.4774 10.4974 11.4014 10.5778 11.3245 10.6572C11.1871 10.7992 11.0483 10.9398 10.9081 11.079C10.8498 11.137 10.7902 11.1959 10.7297 11.256C10.6741 11.311 10.6049 11.4287 10.5223 11.5154C10.4714 11.6581 10.4135 11.819 10.3645 11.9882C10.3424 11.9798 10.3214 11.9723 10.2989 11.9636C9.2513 11.5584 8.5499 11.017 8.5499 11.017C8.5499 11.017 9.08957 11.7197 9.99879 12.3793C10.0824 12.4399 10.1691 12.4961 10.2586 12.5475C10.2211 13.1412 10.483 13.7112 11.6652 13.8812C11.865 13.9099 12.0697 13.9086 12.2759 13.8853C12.2738 13.8792 12.2874 13.8793 12.2863 13.8759C12.2852 13.8725 12.2973 13.8634 12.2973 13.8634" fill="black"/>
<path d="M11.6642 12.3166C12.7137 12.4859 14.267 12.4582 15.8795 11.7032C15.9183 11.685 15.9611 11.7329 16 11.7138C16 11.7138 14.8979 12.8394 13.5818 13.4758C13.5433 13.4944 13.5054 13.5141 13.4665 13.5318C13.3393 13.5899 13.21 13.6405 13.0801 13.6873C12.8255 13.7788 12.5674 13.8482 12.3112 13.8803C12.2994 13.8818 12.2876 13.8841 12.2759 13.8853C12.2742 13.8805 12.2726 13.8757 12.2711 13.8708L12.2693 13.8655C12.2693 13.8655 12.1863 13.7996 12.0808 13.6784C12.0318 13.6223 11.9861 13.5634 11.944 13.5019C11.8853 13.4166 11.8339 13.3265 11.7903 13.2325C11.7536 13.1531 11.723 13.071 11.699 12.9869C11.6538 12.829 11.6335 12.6651 11.6388 12.501C11.641 12.4406 11.6465 12.3804 11.6554 12.3205L11.6642 12.3166" fill="#9F2254"/>
<path d="M10.912 11.1218C11.0522 10.9826 11.191 10.842 11.3284 10.7C11.4053 10.6205 11.4812 10.5402 11.5564 10.459C12.0956 9.87374 12.4914 9.326 12.7296 8.62133C12.7352 8.60463 12.7408 8.58261 12.7462 8.55784L12.7488 8.54639C12.7544 8.52008 12.7598 8.49083 12.7652 8.45787C12.7674 8.43515 12.8386 8.38932 12.8406 8.36801C12.7809 8.06118 12.6433 7.73861 12.4931 7.49233C12.4935 7.49332 12.4938 7.49432 12.4941 7.49533L12.4912 7.49252C12.4715 7.47389 12.451 7.45648 12.431 7.43818C12.3705 7.38231 12.3088 7.32781 12.2459 7.27472C12.0589 7.1163 11.8603 6.972 11.6519 6.84302C11.6624 7.01544 11.6691 7.18767 11.6709 7.35971C11.6712 7.37904 11.6707 7.39831 11.6707 7.41757C11.671 7.48433 11.6712 7.55114 11.6699 7.6179C11.6682 7.7039 11.6652 7.78986 11.6608 7.87577C11.6575 7.93926 11.6535 8.00262 11.6486 8.06605C11.6481 8.07264 11.6473 8.07923 11.6469 8.08582C11.628 8.3258 11.5969 8.56465 11.5536 8.80144L11.4778 9.15979C11.3195 9.80148 10.9981 10.3835 10.7337 10.9845C10.6636 11.1439 10.5971 11.305 10.5388 11.4692L10.5223 11.5155C10.5917 11.4423 10.6621 11.37 10.7335 11.2988C10.7941 11.2388 10.8537 11.1798 10.912 11.1218" fill="#FCB03F"/>
<path d="M7.4438 14.5731C7.8284 14.403 8.18432 14.2962 8.60737 14.2128C8.60527 14.1212 8.60049 14.0297 8.59304 13.9383C8.77377 13.4705 8.94042 12.9974 9.09277 12.5195C8.82325 12.5458 8.55543 12.5872 8.29056 12.6435C8.09426 12.6852 7.90059 12.7375 7.70852 12.7954C7.55421 12.8418 7.40195 12.8952 7.2509 12.952L7.84811 13.0966L7.36758 14.6049L7.4438 14.5731" fill="#525353"/>
<path d="M14.8272 10.1034C14.7223 9.96548 14.6164 9.8283 14.5095 9.69187L14.4929 9.67081C14.3787 9.52539 14.263 9.38114 14.1459 9.23809C14.0269 9.0929 13.906 8.94931 13.7832 8.80735C13.7755 8.79833 13.7677 8.78918 13.7598 8.78022C13.6586 8.66397 13.5559 8.54907 13.4516 8.43556C13.388 8.36618 13.3238 8.2974 13.2589 8.22922C13.2083 8.17643 13.1574 8.12403 13.106 8.07203C13.0577 8.02281 13.0096 7.9734 12.9606 7.92501C12.8554 7.82106 12.7484 7.71904 12.6395 7.61901C12.5913 7.57496 12.5425 7.53154 12.4931 7.48877C12.4928 7.48926 12.4926 7.48978 12.4924 7.49031C12.5962 7.78869 12.7147 8.09078 12.774 8.40196C12.7894 8.48292 12.8022 8.56165 12.8125 8.63858C12.9572 9.71555 12.6121 10.4187 12.064 11.3438C12.0239 11.4114 11.9836 11.4789 11.9431 11.5463C11.8178 11.7553 11.7375 11.9531 11.691 12.1389C11.676 12.1989 11.6641 12.2595 11.6554 12.3207C12.7302 12.4941 14.3464 12.5264 16 11.7139C16 11.7139 15.6757 11.2373 15.1877 10.5821C15.0785 10.4353 14.9685 10.2891 14.8578 10.1433C14.8477 10.13 14.8374 10.1167 14.8272 10.1034" fill="#DF0067"/>
<path d="M7.31048 14.8744L7.84811 13.0966L7.2509 12.9519C7.11713 13.0021 6.98458 13.0557 6.85376 13.114L6.32132 14.8744L6.91571 14.8837L7.31048 14.8744" fill="#AA9678"/>
<path d="M7.6884 14.1053C7.74088 14.1255 7.79426 14.1436 7.84751 14.1623C8.45747 14.3763 9.09927 14.4855 9.7457 14.4853C10.4811 14.4857 11.2096 14.3445 11.8916 14.0694C11.9267 14.0553 11.961 14.0398 11.9957 14.025C12.052 14.0011 12.1079 13.9764 12.1633 13.9507C12.2129 13.9277 12.2624 13.9048 12.3112 13.8805C12.2994 13.882 12.2876 13.8842 12.2759 13.8855C12.0697 13.9087 11.865 13.9101 11.6651 13.8813C10.483 13.7114 10.2211 13.1414 10.2586 12.5477C10.1691 12.4962 10.0824 12.4401 9.99877 12.3795C9.08955 11.7199 8.54988 11.0172 8.54988 11.0172C8.54988 11.0172 9.25128 11.5586 10.2989 11.9638C10.3213 11.9725 10.3424 11.98 10.3645 11.9884C10.4134 11.8192 10.4714 11.6583 10.5223 11.5156L10.5388 11.4693C10.5971 11.3051 10.6636 11.144 10.7337 10.9846C10.998 10.3836 11.3195 9.80156 11.4778 9.15986L11.5536 8.80151H10.907L10.907 8.80158L10.907 8.80286L10.9068 8.80299C10.9068 8.80471 10.907 8.80644 10.907 8.8083C10.9072 8.9621 10.8613 9.11241 10.7752 9.23987C10.6913 9.36383 10.5734 9.46092 10.4356 9.51943C10.3156 9.57023 10.1846 9.58967 10.055 9.57595C10.0488 9.57531 10.0429 9.57396 10.0367 9.5732C10.0165 9.57057 9.9964 9.56782 9.97688 9.56379C9.97138 9.56257 9.96613 9.56084 9.96069 9.55956C9.94059 9.55495 9.92049 9.54996 9.90104 9.54375C9.89745 9.54254 9.894 9.54107 9.89041 9.53985C9.86936 9.53275 9.84843 9.52513 9.8282 9.5163C9.82635 9.51553 9.82462 9.51457 9.82283 9.51374C9.80101 9.5041 9.77966 9.49347 9.75882 9.48186L9.75786 9.48129C9.69161 9.44391 9.6312 9.39703 9.57853 9.34215L7.36352 8.80151H4.94614C4.93577 8.81995 4.92425 8.83761 4.91407 8.85611C4.89564 8.88958 4.87823 8.92357 4.86044 8.9573C4.80103 9.06951 4.74511 9.18353 4.69275 9.2992C4.64379 9.40733 4.59795 9.51684 4.55527 9.6276L4.54938 9.64232C4.43952 9.93139 4.35159 10.2283 4.28633 10.5306C4.66689 11.6914 5.40734 12.6888 6.37525 13.3918C6.40341 13.4122 6.43311 13.4304 6.46166 13.4504C6.62545 13.5654 6.79514 13.6717 6.97003 13.769C7.20137 13.8977 7.44141 14.0101 7.6884 14.1053" fill="white"/>
<path d="M13.4845 15.4793C13.469 15.3257 13.461 15.1714 13.4604 15.017C13.4604 14.972 13.4426 14.9289 13.4108 14.8971C13.379 14.8653 13.3359 14.8474 13.291 14.8474H6.17948C6.13452 14.8474 6.09141 14.8653 6.05961 14.8971C6.02782 14.9289 6.00995 14.972 6.00994 15.017C6.00994 15.1726 6.00079 15.3266 5.98587 15.4793C5.9693 15.6471 5.94368 15.814 5.90913 15.979C6.01224 16.0336 6.11618 16.0866 6.22192 16.1369C6.29262 15.8284 6.33403 15.5138 6.34557 15.1975C6.34576 15.1939 6.34614 15.1901 6.34627 15.1865H13.1242C13.1243 15.1901 13.1247 15.1939 13.1248 15.1975C13.1364 15.5138 13.1778 15.8284 13.2485 16.1369C13.3539 16.0865 13.4582 16.0339 13.5613 15.979C13.5268 15.814 13.5011 15.6471 13.4845 15.4793" fill="#8B7460"/>
</svg>
