<svg xmlns="http://www.w3.org/2000/svg" viewBox="0 0 20 20"><path fill="#249df1" d="M0 0h20v20H0z"/><path d="M15.58 15.43a8 8 0 11-.51-11.3 8 8 0 01.51 11.3zM5.46 15h1.9L9 11.27h.1a4.43 4.43 0 001.67-.27 5.37 5.37 0 001.4-.82 5.17 5.17 0 001-1.14 4 4 0 00.54-1.25 2.57 2.57 0 000-1 1.77 1.77 0 00-.36-.83 2 2 0 00-.81-.57 3.28 3.28 0 00-1.29-.22 6 6 0 00-1.79.28 7.22 7.22 0 00-1.69.77 6.1 6.1 0 00-1.28 1.07 3.15 3.15 0 00-.72 1.34c-.1.45 0 .76.16.94a1.45 1.45 0 001 .27v-.1a.57.57 0 010-.16 2.45 2.45 0 010-.25 2.14 2.14 0 01.08-.4 4.08 4.08 0 01.49-1.37 4.09 4.09 0 01.94-1A3.91 3.91 0 019.6 6a4 4 0 011.27-.21 2.16 2.16 0 01.88.14 1.11 1.11 0 01.48.38 1.06 1.06 0 01.17.56 2.59 2.59 0 01-.08.66 4.65 4.65 0 01-.43 1.13 5.07 5.07 0 01-.72 1 4.43 4.43 0 01-.91.78 2.23 2.23 0 01-1 .35l1.94-4.42-2 .26z" fill="#fff" fill-rule="evenodd"/></svg>