<svg width="20" height="20" viewBox="0 0 20 20" fill="none" xmlns="http://www.w3.org/2000/svg">
<rect width="20" height="20" fill="#300D4F"/>
<path d="M10 17.4386V13.5628C9.99989 13.5545 10.0044 13.5468 10.0117 13.5429L14.9883 10.6669C14.9956 10.6629 15.0001 10.6552 15 10.6469V9.54472C15.0001 9.53643 14.9957 9.52876 14.9885 9.52461C14.9814 9.52047 14.9725 9.52051 14.9654 9.52473L10.0346 12.3739C10.0275 12.3782 10.0186 12.3782 10.0115 12.3741C10.0043 12.3699 9.99989 12.3622 10 12.3539V11.2513C10 11.243 10.0045 11.2354 10.0117 11.2313L14.9883 8.35532C14.9954 8.35113 14.9998 8.34358 15 8.33533V7.23321C14.9998 7.22504 14.9954 7.21757 14.9883 7.21351C14.9812 7.20941 14.9726 7.20933 14.9654 7.21323L10.0346 10.0624C10.0275 10.0666 10.0186 10.0667 10.0115 10.0625C10.0043 10.0584 9.99989 10.0507 10 10.0424V8.94027C9.99989 8.93198 10.0044 8.92427 10.0117 8.92029L14.9883 6.04576C14.9955 6.04171 15 6.03407 15 6.02578V4.90853C14.9995 4.89221 14.991 4.8772 14.9771 4.86856L10.0229 2.00622C10.0088 1.99793 9.99124 1.99793 9.97712 2.00622L9.03468 2.55071C9.02746 2.55476 9.02299 2.5624 9.02299 2.57069C9.02299 2.57898 9.02746 2.58662 9.03468 2.59068L13.9655 5.43986C13.9725 5.4441 13.9767 5.45168 13.9767 5.45984C13.9767 5.46801 13.9725 5.47558 13.9655 5.47983L13.0231 6.02432C13.0087 6.03212 12.9913 6.03212 12.9768 6.02432L8.02309 3.16198C8.00802 3.15327 7.98945 3.15327 7.97439 3.16198L7.03488 3.70598C7.02765 3.71003 7.02318 3.71767 7.02318 3.72596C7.02318 3.73425 7.02765 3.74189 7.03488 3.74595L11.9648 6.59561C11.972 6.59967 11.9765 6.6073 11.9765 6.61559C11.9765 6.62388 11.972 6.63155 11.9648 6.63557L11.0228 7.18007C11.0077 7.18877 10.9892 7.18877 10.9741 7.18007L6.0228 4.31725C6.00773 4.30854 5.98916 4.30854 5.97409 4.31725L5 4.88172V14.5763C4.9999 14.5846 5.00439 14.5923 5.01169 14.5962L5.96533 15.1475C5.97245 15.1518 5.9813 15.1519 5.98846 15.1477C5.99564 15.1436 6.00001 15.1358 5.99991 15.1276V5.49981C5.9998 5.49153 6.00418 5.48383 6.01135 5.47969C6.01852 5.47554 6.02737 5.4756 6.03449 5.47983L6.98861 6.03114C6.99564 6.03532 6.99991 6.04294 6.99981 6.05113V15.732C6.99981 15.7403 7.00428 15.7479 7.0115 15.752L7.96513 16.3033C7.9724 16.3075 7.98135 16.3075 7.9886 16.3033C7.99585 16.299 8.00027 16.2912 8.0002 16.2828V6.65556C8.0001 6.64727 8.00447 6.6396 8.01164 6.63545C8.01881 6.63131 8.02766 6.63135 8.03478 6.63557L8.98842 7.18643C8.99563 7.19045 9.00011 7.19813 9.0001 7.20641V16.8878C9.00019 16.8959 9.00441 16.9034 9.01131 16.9077L9.96785 17.4586C9.97478 17.4616 9.98278 17.4611 9.98922 17.4571C9.99567 17.4531 9.99969 17.4462 10 17.4386Z" fill="#00DC72"/>
</svg>
