<svg viewBox="0 0 20 20" xmlns="http://www.w3.org/2000/svg">
<rect width="100%" height="100%" fill="white"/>
<path d="M18.7631 13.7092L10.5045 2.26786C10.2445 1.91071 9.64529 1.91071 9.38789 2.26786L1.12928 13.7092C1.04522 13.8262 1 13.9667 1 14.1109C1.0002 14.2556 1.04587 14.3966 1.13054 14.514C1.21522 14.6314 1.33463 14.7192 1.47192 14.765L9.73066 17.4661H9.73195C9.8706 17.5113 10.02 17.5113 10.1587 17.4661H10.16L18.4186 14.7652C18.5216 14.7318 18.6152 14.6744 18.6917 14.5977C18.7681 14.5209 18.8252 14.4271 18.8582 14.324C18.8922 14.2212 18.9011 14.1117 18.8843 14.0048C18.8674 13.8978 18.8252 13.7965 18.7612 13.7092H18.7631ZM9.9466 3.8445L13.2568 8.43063L10.1613 7.41853C10.1373 7.41075 10.112 7.41205 10.0882 7.40635C10.0648 7.40057 10.041 7.39667 10.0169 7.39469C9.99311 7.39145 9.97044 7.38239 9.9466 7.38239C9.92264 7.38239 9.90062 7.39145 9.87665 7.39469C9.85281 7.39728 9.82885 7.40117 9.80566 7.40635C9.78105 7.41088 9.75579 7.41088 9.7339 7.41853L6.65704 8.4248L6.63761 8.43128L9.9479 3.84424H9.9466V3.8445ZM5.26966 10.3249L8.87336 9.14556L9.25809 9.0203V15.865L2.7966 13.7511L5.26966 10.3249ZM10.6358 15.8637V9.0203L14.6241 10.3249L17.0971 13.7492L10.6351 15.8637H10.6358Z" fill="#E72564"/>
</svg>
