<svg viewBox="0 0 20 20" xmlns="http://www.w3.org/2000/svg">
<rect width="100%" height="100%" fill="#AB2430"/>
<path d="M11.9434 3.722C11.9434 4.53496 11.2843 5.194 10.4714 5.194C9.65842 5.194 8.99938 4.53496 8.99938 3.722C8.99938 2.90904 9.65842 2.25 10.4714 2.25C11.2843 2.25 11.9434 2.90904 11.9434 3.722Z" fill="white"/>
<path d="M7.22794 11.7159C7.22794 12.1122 6.90669 12.4334 6.51041 12.4334C6.11413 12.4334 5.79288 12.1122 5.79288 11.7159C5.79288 11.3196 6.11413 10.9984 6.51041 10.9984C6.90669 10.9984 7.22794 11.3196 7.22794 11.7159Z" fill="white"/>
<path d="M8.57358 13.1432C8.57358 13.4353 8.33678 13.6721 8.04467 13.6721C7.75256 13.6721 7.51576 13.4353 7.51576 13.1432C7.51576 12.8511 7.75256 12.6143 8.04467 12.6143C8.33678 12.6143 8.57358 12.8511 8.57358 13.1432Z" fill="white"/>
<path d="M6.87978 9.13164C6.87978 9.63853 6.46886 10.0495 5.96197 10.0495C5.45507 10.0495 5.04416 9.63853 5.04416 9.13164C5.04416 8.62475 5.45507 8.21383 5.96197 8.21383C6.46886 8.21383 6.87978 8.62475 6.87978 9.13164Z" fill="white"/>
<path d="M8.23335 6.12931C8.23335 6.75649 7.72493 7.26491 7.09776 7.26491C6.47058 7.26491 5.96216 6.75649 5.96216 6.12931C5.96216 5.50214 6.47058 4.99372 7.09776 4.99372C7.72493 4.99372 8.23335 5.50214 8.23335 6.12931Z" fill="white"/>
<path d="M10.2188 13.4776C10.2188 13.7268 10.0168 13.9288 9.76763 13.9288C9.51848 13.9288 9.3165 13.7268 9.3165 13.4776C9.3165 13.2285 9.51848 13.0265 9.76763 13.0265C10.0168 13.0265 10.2188 13.2285 10.2188 13.4776Z" fill="white"/>
<path d="M11.2219 12.8496C11.2219 13.0117 11.0904 13.1432 10.9283 13.1432C10.7661 13.1432 10.6346 13.0117 10.6346 12.8496C10.6346 12.6874 10.7661 12.5559 10.9283 12.5559C11.0904 12.5559 11.2219 12.6874 11.2219 12.8496Z" fill="white"/>
<path d="M5.194 14.3974C5.194 15.2104 4.53496 15.8694 3.722 15.8694C2.90904 15.8694 2.25 15.2104 2.25 14.3974C2.25 13.5844 2.90904 12.9254 3.722 12.9254C4.53496 12.9254 5.194 13.5844 5.194 14.3974Z" fill="white"/>
<path d="M13.3433 13.8296C13.3433 14.2259 13.0221 14.5471 12.6258 14.5471C12.2295 14.5471 11.9083 14.2259 11.9083 13.8296C11.9083 13.4333 12.2295 13.1121 12.6258 13.1121C13.0221 13.1121 13.3433 13.4333 13.3433 13.8296Z" fill="white"/>
<path d="M13.6253 11.7879C13.6253 12.08 13.3885 12.3168 13.0964 12.3168C12.8043 12.3168 12.5675 12.08 12.5675 11.7879C12.5675 11.4958 12.8043 11.2589 13.0964 11.2589C13.3885 11.2589 13.6253 11.4958 13.6253 11.7879Z" fill="white"/>
<path d="M11.5797 15.5972C11.5797 16.1041 11.1687 16.515 10.6618 16.515C10.155 16.515 9.74404 16.1041 9.74404 15.5972C9.74404 15.0903 10.155 14.6793 10.6618 14.6793C11.1687 14.6793 11.5797 15.0903 11.5797 15.5972Z" fill="white"/>
<path d="M8.62996 16.1144C8.62996 16.7416 8.12154 17.25 7.49436 17.25C6.86719 17.25 6.35877 16.7416 6.35877 16.1144C6.35877 15.4872 6.86719 14.9788 7.49436 14.9788C8.12154 14.9788 8.62996 15.4872 8.62996 16.1144Z" fill="white"/>
<path d="M12.9741 10.1292C12.9741 10.3783 12.7721 10.5803 12.523 10.5803C12.2738 10.5803 12.0719 10.3783 12.0719 10.1292C12.0719 9.88004 12.2738 9.67806 12.523 9.67806C12.7721 9.67806 12.9741 9.88004 12.9741 10.1292Z" fill="white"/>
<path d="M11.6926 9.43693C11.6926 9.59909 11.5611 9.73055 11.3989 9.73055C11.2368 9.73055 11.1053 9.59909 11.1053 9.43693C11.1053 9.27477 11.2368 9.14331 11.3989 9.14331C11.5611 9.14331 11.6926 9.27477 11.6926 9.43693Z" fill="white"/>
<path d="M17.8062 14.9049C17.8062 15.7179 17.1472 16.3769 16.3342 16.3769C15.5213 16.3769 14.8622 15.7179 14.8622 14.9049C14.8622 14.092 15.5213 13.4329 16.3342 13.4329C17.1472 13.4329 17.8062 14.092 17.8062 14.9049Z" fill="white"/>
<path d="M12.1107 7.47687C12.1107 7.87315 11.7894 8.19439 11.3931 8.19439C10.9968 8.19439 10.6756 7.87315 10.6756 7.47687C10.6756 7.08059 10.9968 6.75934 11.3931 6.75934C11.7894 6.75934 12.1107 7.08059 12.1107 7.47687Z" fill="white"/>
<path d="M9.91722 8.09133C9.91722 8.38344 9.68042 8.62024 9.38831 8.62024C9.0962 8.62024 8.8594 8.38344 8.8594 8.09133C8.8594 7.79922 9.0962 7.56242 9.38831 7.56242C9.68042 7.56242 9.91722 7.79922 9.91722 8.09133Z" fill="white"/>
<path d="M13.9036 9.21359C14.4105 9.21359 14.8214 8.80268 14.8214 8.29578C14.8214 7.78889 14.4105 7.37797 13.9036 7.37797C13.3967 7.37797 12.9858 7.78889 12.9858 8.29578C12.9858 8.80268 13.3967 9.21359 13.9036 9.21359Z" fill="white"/>
<path d="M17.071 10.7789C17.071 11.4061 16.5626 11.9145 15.9354 11.9145C15.3083 11.9145 14.7998 11.4061 14.7998 10.7789C14.7998 10.1517 15.3083 9.64332 15.9354 9.64332C16.5626 9.64332 17.071 10.1517 17.071 10.7789Z" fill="white"/>
<path d="M8.23708 9.86695C8.48624 9.86695 8.68821 9.66497 8.68821 9.41582C8.68821 9.16667 8.48624 8.96469 8.23708 8.96469C7.98793 8.96469 7.78596 9.16667 7.78596 9.41582C7.78596 9.66497 7.98793 9.86695 8.23708 9.86695Z" fill="white"/>
<path d="M8.49392 10.7361C8.49392 10.8983 8.36246 11.0298 8.2003 11.0298C8.03813 11.0298 7.90667 10.8983 7.90667 10.7361C7.90667 10.574 8.03813 10.4425 8.2003 10.4425C8.36246 10.4425 8.49392 10.574 8.49392 10.7361Z" fill="white"/>
</svg>
