<svg xmlns="http://www.w3.org/2000/svg" viewBox="0 0 80 80"><defs><style>.a{fill:#ab2430}</style></defs><circle class="a" cx="42.28" cy="9" r="7.57"/><circle class="a" cx="21.91" cy="50.11" r="3.69"/><circle class="a" cx="29.8" cy="57.45" r="2.72"/><circle class="a" cx="19.09" cy="36.82" r="4.72"/><circle class="a" cx="24.93" cy="21.38" r="5.84"/><circle class="a" cx="38.66" cy="59.17" r="2.32"/><circle class="a" cx="44.63" cy="55.94" r="1.51"/><circle class="a" cx="7.57" cy="63.9" r="7.57"/><circle class="a" cx="53.36" cy="60.98" r="3.69"/><circle class="a" cx="55.78" cy="50.48" r="2.72"/><circle class="a" cx="43.26" cy="70.07" r="4.72"/><circle class="a" cx="26.97" cy="72.73" r="5.84"/><circle class="a" cx="52.83" cy="41.95" r="2.32"/><circle class="a" cx="47.05" cy="38.39" r="1.51"/><circle class="a" cx="72.43" cy="66.51" r="7.57"/><circle class="a" cx="47.02" cy="28.31" r="3.69"/><circle class="a" cx="36.71" cy="31.47" r="2.72"/><circle class="a" cx="59.93" cy="32.52" r="4.72"/><circle class="a" cx="70.38" cy="45.29" r="5.84"/><circle class="a" cx="30.79" cy="38.28" r="2.32"/><circle class="a" cx="30.6" cy="45.07" r="1.51"/></svg>