<svg id="Layer_1" data-name="Layer 1" xmlns="http://www.w3.org/2000/svg" viewBox="0 0 20 20"><defs><style>.cls-1{fill:#4aade5;}.cls-2{fill:#fff;}</style></defs><title>python</title><rect class="cls-1" width="20" height="20"/><path class="cls-2" d="M8,2A2,2,0,0,0,6,4V5h4.5a.5.5,0,0,1,0,1H5A3,3,0,0,0,2,9H2v1a3,3,0,0,0,3,3V11A2,2,0,0,1,7,9h5a1,1,0,0,0,1-1V2.25A.25.25,0,0,0,12.75,2ZM8,4a.5.5,0,1,1,.5-.5A.5.5,0,0,1,8,4Z"/><path class="cls-2" d="M12,18a2,2,0,0,0,2-2V15H9.5a.5.5,0,0,1,0-1H15a3,3,0,0,0,3-3h0V10a3,3,0,0,0-3-3V9a2,2,0,0,1-2,2H8a1,1,0,0,0-1,1v6Zm0-2a.5.5,0,1,1-.5.5A.5.5,0,0,1,12,16Z"/></svg>