<svg viewBox="0 0 20 20" fill="none" xmlns="http://www.w3.org/2000/svg">
<path d="M0 0H20V20H0V0Z" fill="#ECF0F1"/>
<path d="M9.94957 3C6.39549 3 6.6174 4.54126 6.6174 4.54126L6.62134 6.13805H10.0129V6.61745H5.27426C5.27426 6.61745 3 6.35952 3 9.94556C3 13.5317 4.98503 13.4045 4.98503 13.4045H6.16968V11.7404C6.16968 11.7404 6.10582 9.75539 8.12302 9.75539H11.4869C11.4869 9.75539 13.3768 9.78593 13.3768 7.92885V4.85828C13.3768 4.85828 13.6638 3 9.94957 3ZM8.07944 4.07381C8.15959 4.07374 8.23896 4.08947 8.31302 4.12011C8.38708 4.15075 8.45437 4.19569 8.51104 4.25236C8.56771 4.30903 8.61265 4.37632 8.64329 4.45038C8.67393 4.52444 8.68966 4.60381 8.68959 4.68396C8.68966 4.7641 8.67393 4.84347 8.64329 4.91753C8.61265 4.99159 8.56771 5.05888 8.51104 5.11555C8.45437 5.17223 8.38708 5.21717 8.31302 5.2478C8.23896 5.27844 8.15959 5.29417 8.07944 5.2941C7.9993 5.29417 7.91992 5.27844 7.84586 5.2478C7.77181 5.21717 7.70452 5.17223 7.64784 5.11555C7.59117 5.05888 7.54623 4.99159 7.51559 4.91753C7.48496 4.84347 7.46923 4.7641 7.4693 4.68396C7.46923 4.60381 7.48496 4.52444 7.51559 4.45038C7.54623 4.37632 7.59117 4.30903 7.64784 4.25236C7.70452 4.19569 7.77181 4.15075 7.84586 4.12011C7.91992 4.08947 7.9993 4.07374 8.07944 4.07381V4.07381Z" fill="url(#paint0_linear_2535_51)"/>
<path d="M10.0505 16.9273C13.6046 16.9273 13.3827 15.386 13.3827 15.386L13.3787 13.7893H9.9871V13.3099H14.7258C14.7258 13.3099 17 13.5678 17 9.98169C17 6.39559 15.015 6.52277 15.015 6.52277H13.8304V8.18683C13.8304 8.18683 13.8942 10.1719 11.877 10.1719H8.51316C8.51316 10.1719 6.62324 10.1413 6.62324 11.9985V15.0691C6.62324 15.0691 6.33626 16.9273 10.0505 16.9273H10.0505ZM11.9207 15.8536C11.8405 15.8537 11.7611 15.8379 11.6871 15.8073C11.613 15.7767 11.5457 15.7317 11.4891 15.6751C11.4324 15.6184 11.3874 15.5511 11.3568 15.477C11.3262 15.403 11.3104 15.3236 11.3105 15.2435C11.3104 15.1633 11.3262 15.0839 11.3568 15.0099C11.3874 14.9358 11.4324 14.8685 11.489 14.8118C11.5457 14.7551 11.613 14.7102 11.6871 14.6796C11.7611 14.6489 11.8405 14.6332 11.9207 14.6333C12.0008 14.6332 12.0802 14.6489 12.1542 14.6796C12.2283 14.7102 12.2956 14.7551 12.3522 14.8118C12.4089 14.8685 12.4539 14.9358 12.4845 15.0098C12.5151 15.0839 12.5309 15.1633 12.5308 15.2434C12.5309 15.3236 12.5151 15.4029 12.4845 15.477C12.4539 15.551 12.4089 15.6183 12.3522 15.675C12.2956 15.7317 12.2283 15.7766 12.1542 15.8073C12.0802 15.8379 12.0008 15.8536 11.9207 15.8535V15.8536Z" fill="url(#paint1_linear_2535_51)"/>
<defs>
<linearGradient id="paint0_linear_2535_51" x1="4.3454" y1="4.25267" x2="11.2834" y2="11.1214" gradientUnits="userSpaceOnUse">
<stop stop-color="#387EB8"/>
<stop offset="1" stop-color="#366994"/>
</linearGradient>
<linearGradient id="paint1_linear_2535_51" x1="8.60396" y1="8.66348" x2="16.0545" y2="15.7068" gradientUnits="userSpaceOnUse">
<stop stop-color="#FFE052"/>
<stop offset="1" stop-color="#FFC331"/>
</linearGradient>
</defs>
</svg>
