<svg id="Layer_1" data-name="Layer 1" xmlns="http://www.w3.org/2000/svg" viewBox="0 0 20 20"><defs><style>.cls-2{fill:#fff}</style></defs><path fill="#3b88bc" d="M0 0h20v20H0z"/><path class="cls-2" d="M8 2a2 2 0 0 0-2 2v1h4.5a.5.5 0 0 1 0 1H5a3 3 0 0 0-3 3v1a3 3 0 0 0 3 3v-2a2 2 0 0 1 2-2h5a1 1 0 0 0 1-1V4a2 2 0 0 0-2-2zm0 2a.5.5 0 1 1 .5-.5.5.5 0 0 1-.5.5z"/><path class="cls-2" d="M12 18a2 2 0 0 0 2-2v-1H9.5a.5.5 0 0 1 0-1H15a3 3 0 0 0 3-3v-1a3 3 0 0 0-3-3v2a2 2 0 0 1-2 2H8a1 1 0 0 0-1 1v4a2 2 0 0 0 2 2zm0-2a.5.5 0 1 1-.5.5.5.5 0 0 1 .5-.5z"/></svg>