<svg xmlns="http://www.w3.org/2000/svg" viewBox="0 0 20 20">
  <rect width="100%" height="100%" fill="#5A9FD4"/>
  <path fill="#fff" d="M9.9 2c-.6 0-1.22.05-1.82.16-1.61.28-1.9.88-1.9 1.98V5.6H10v.48H4.74c-1.1 0-2.08.67-2.38 1.93a7.18 7.18 0 0 0 0 3.88c.27 1.13.92 1.94 2.02 1.94H5.7v-1.74A2.43 2.43 0 0 1 8.08 9.7h3.81a1.92 1.92 0 0 0 1.91-1.94V4.14c0-1.03-.87-1.81-1.9-1.98-.66-.11-1.33-.16-2-.16ZM7.85 3.17a.73.73 0 1 1 .03 1.46.73.73 0 0 1-.03-1.46Z"/>
  <path fill="#fff" d="M14.28 6.08v1.7a2.45 2.45 0 0 1-2.39 2.42H8.1a1.95 1.95 0 0 0-1.92 1.94v3.63c0 1.03.9 1.64 1.91 1.94 1.24.39 2.57.39 3.81 0 .97-.28 1.91-.84 1.91-1.94v-1.46H10v-.48h5.71c1.11 0 1.52-.77 1.91-1.94.4-1.2.38-2.34 0-3.88-.27-1.1-.8-1.93-1.9-1.93h-1.44Zm-2.15 9.2a.73.73 0 1 1-.5.22.72.72 0 0 1 .5-.22Z"/>
</svg>