<svg xmlns="http://www.w3.org/2000/svg" viewBox="0 0 20 20">
  <rect width="100%" height="100%" fill="#46A4DA"/>
  <path fill="#fff" d="M14.747 17.6773C15.3586 17.7063 15.9673 17.5763 16.5133 17.3C16.744 17.1828 16.9482 17.0196 17.1131 16.8206C17.278 16.6215 17.4002 16.3909 17.4721 16.1428C17.7749 15.0612 17.2703 14.0801 16.16 13.6776C15.9792 13.6278 15.8144 13.5321 15.6817 13.3998C15.549 13.2676 15.453 13.1033 15.4031 12.9229C15.2962 12.5191 15.0793 12.1527 14.7765 11.8641C14.4737 11.5755 14.0967 11.3761 13.6873 11.2878C13.1538 11.1241 12.5802 11.1471 12.0616 11.353C11.543 11.5588 11.1106 11.9353 10.836 12.4198C10.7754 12.5379 10.6802 12.6349 10.563 12.6978C10.4459 12.7607 10.3123 12.7866 10.18 12.772C9.94774 12.7609 9.71716 12.8166 9.51581 12.9326C9.31447 13.0486 9.15086 13.2199 9.04455 13.4261C8.8427 13.7279 8.71654 13.7531 8.41375 13.6021C7.00074 12.9229 6.14285 11.8413 6.01669 10.2062C5.81483 7.18749 8.767 5.45177 11.0127 6.10581C12.7285 6.60892 14.0405 8.09309 13.9648 9.82882C13.9508 10.0231 13.9678 10.2184 14.0153 10.4074C14.054 10.5448 14.1444 10.6619 14.2676 10.7344C15.0588 11.0772 15.69 11.7065 16.0339 12.4953L16.1348 12.7217C16.2163 12.8591 16.3359 12.9701 16.4791 13.0415C16.6223 13.1129 16.7831 13.1416 16.9422 13.1242C17.1946 13.1242 17.1946 12.8223 17.245 12.6462L17.3207 12.4701C17.7249 11.3251 17.8461 10.0998 17.674 8.89807C17.3971 6.93375 16.3727 5.15097 14.8131 3.91925C13.2535 2.68754 11.2783 2.10134 9.29688 2.28218C7.80297 2.40822 6.37852 2.96654 5.19852 3.88856C4.01851 4.81059 3.13434 6.05615 2.65461 7.47225C2.17488 8.88836 2.1205 10.4133 2.49813 11.8598C2.87576 13.3063 3.66897 14.6113 4.78031 15.6146C6.36994 17.1239 8.31282 17.627 10.4071 17.7276C11.2145 17.778 12.022 17.7276 12.8294 17.7276L14.747 17.6773Z"/>
</svg>
