<svg xmlns="http://www.w3.org/2000/svg" viewBox="0 0 20 20">
  <rect width="100%" height="100%" fill="#41CD52"/>
  <path fill="#fff" fill-rule="evenodd" d="M7.24 4a4.51 4.51 0 0 0-2.62.66A3.54 3.54 0 0 0 3.37 6.6c-.28 1-.4 2.05-.36 3.09a9.6 9.6 0 0 0 .39 2.84 3.37 3.37 0 0 0 .86 1.44c.57.47 1.26.76 1.99.82a6.38 6.38 0 0 0 1.8-.03L9.35 17l1.55-.73c-.4-.7-.83-1.37-1.23-2.05a3.5 3.5 0 0 0 1.22-1.72c.3-1.02.42-2.08.38-3.14a9.33 9.33 0 0 0-.48-3.1 3.3 3.3 0 0 0-1.08-1.55A4.16 4.16 0 0 0 7.24 4Zm.88 1.67a3.02 3.02 0 0 0-1.56-.15c-.42.04-.8.22-1.11.52-.31.38-.52.84-.6 1.32a10.39 10.39 0 0 0-.03 3.84c.06.4.17.8.33 1.17.15.3.38.56.68.72.5.25 1.06.34 1.61.27a2 2 0 0 0 1.42-.64c.3-.44.5-.97.55-1.51.1-.9.13-1.79.06-2.68a5.92 5.92 0 0 0-.43-1.97c-.19-.4-.51-.73-.92-.9Z" clip-rule="evenodd"/>
  <path fill="#fff" d="M14.94 4.62h-1.6v2.2H12.2v1.44h1.11v3.57c-.02.67.08 1.33.3 1.96a1.28 1.28 0 0 0 .82.7 5 5 0 0 0 2.43-.02l.13-.02-.04-.74-.04-.58-.5.02-.76.02a.63.63 0 0 1-.35-.07.66.66 0 0 1-.26-.24 2.55 2.55 0 0 1-.14-.98V8.26h2.05c.01-.48.03-.95.03-1.43h-2.05v-2.2Z"/>
</svg>