<svg xmlns="http://www.w3.org/2000/svg" viewBox="0 0 20 20">
  <path fill="#F0773E" d="M20 0H0v20h20V0Z"/>
  <path fill="#fff" d="M8.53 2.44a.46.46 0 1 1 .24.88l-3.02.85a.47.47 0 0 1-.57-.31.46.46 0 0 1 .32-.57l-.35-1.23a.28.28 0 0 1 .03-.22.26.26 0 0 1 .16-.13l2.49-.7a.26.26 0 0 1 .21.03c.07.03.11.09.14.16l.34 1.24h.01Z"/>
  <path fill="#fff" fill-rule="evenodd" d="M9.61 6.64a6.01 6.01 0 0 1 2.16 11.8A6.03 6.03 0 0 1 6.88 7.57l-.93-3.26 2.78-.78.88 3.11Zm-4.81 7.5a5.53 5.53 0 0 0 10.64-3c-.34-1.23-.91-2.59-2.04-2.94-1.83-.57-2.43.61-3.1 1.9-.45.9-.94 1.85-1.89 2.28-2.32 1.05-3.65-1.07-3.65-1.07-.24.93-.22 1.91.04 2.83Z" clip-rule="evenodd"/>
</svg>