<?xml version="1.0" encoding="UTF-8" standalone="no"?>
<svg
   viewBox="0 0 20 20"
   version="1.1"
   id="svg488"
   sodipodi:docname="quart.svg"
   inkscape:version="1.1.2 (b8e25be8, 2022-02-05)"
   xmlns:inkscape="http://www.inkscape.org/namespaces/inkscape"
   xmlns:sodipodi="http://sodipodi.sourceforge.net/DTD/sodipodi-0.dtd"
   xmlns="http://www.w3.org/2000/svg"
   xmlns:svg="http://www.w3.org/2000/svg">
  <defs
     id="defs492">
    <linearGradient
       id="a"
       gradientUnits="userSpaceOnUse"
       x1="75.414001"
       y1="134.814"
       x2="151.33299"
       y2="134.814"
       gradientTransform="translate(0,-0.05)">
      <stop
         offset="0"
         stop-color="#faeb48"
         id="stop29" />
      <stop
         offset=".04"
         stop-color="#fee72f"
         id="stop31" />
      <stop
         offset=".117"
         stop-color="#ffd51d"
         id="stop33" />
      <stop
         offset=".196"
         stop-color="#fdca12"
         id="stop35" />
      <stop
         offset=".281"
         stop-color="#fdc710"
         id="stop37" />
      <stop
         offset=".668"
         stop-color="#f39040"
         id="stop39" />
      <stop
         offset=".888"
         stop-color="#ed683c"
         id="stop41" />
      <stop
         offset="1"
         stop-color="#e83e3b"
         id="stop43" />
    </linearGradient>
  </defs>
  <sodipodi:namedview
     id="namedview490"
     pagecolor="#ffffff"
     bordercolor="#666666"
     borderopacity="1.0"
     inkscape:pageshadow="2"
     inkscape:pageopacity="0.0"
     inkscape:pagecheckerboard="0"
     showgrid="false"
     inkscape:zoom="26.02153"
     inkscape:cx="9.8380071"
     inkscape:cy="9.9340814"
     inkscape:window-width="2609"
     inkscape:window-height="1081"
     inkscape:window-x="0"
     inkscape:window-y="25"
     inkscape:window-maximized="0"
     inkscape:current-layer="svg488" />
  <g
     id="g77"
     transform="matrix(0.15973303,0,0,0.15973303,-8.0736673,-8.1034351)">
    <path
       d="M 103.45,72.132 86.393,76.949 A 1.972,1.972 0 0 1 84.007,75.623 L 79.234,58.654 A 1.973,1.973 0 0 1 80.56,56.267 L 97.618,51.45 a 1.972,1.972 0 0 1 2.386,1.326 l 4.773,16.969 c 0.309,1.017 -0.31,2.077 -1.327,2.387 z"
       fill="#b7895b"
       id="path9" />
    <path
       d="m 82.548,65.812 -1.193,-4.286 c -0.619,-2.165 0.663,-4.375 2.784,-4.994 l 10.606,-3.005 c 2.165,-0.619 4.375,0.663 4.994,2.784 l 1.193,4.286 z"
       fill="#c49a6c"
       id="path11" />
    <path
       d="m 92.226,63.073 c 0,0 5.612,-7.38 1.591,-9.28 l 2.607,-1.37 3.359,2.298 1.723,6.187 z"
       fill="#b7895b"
       id="path13" />
    <path
       d="m 81.533,69.311 22.328,-6.306 13.044,46.188 -22.328,6.306 z"
       fill="#99d5e8"
       id="path15" />
    <circle
       transform="rotate(-15.771,113.382,131.62)"
       cx="113.385"
       cy="131.623"
       fill="#99d5e8"
       id="ellipse17"
       r="43.750999" />
    <circle
       transform="rotate(-15.771,113.382,131.62)"
       cx="113.385"
       cy="131.623"
       fill="#bce3f4"
       id="ellipse19"
       r="41.497002" />
    <path
       d="m 104.113,67.359 -20.77,5.877 c -1.679,0.486 -3.403,-0.53 -3.889,-2.165 -0.486,-1.679 0.53,-3.403 2.165,-3.889 l 20.77,-5.877 c 1.679,-0.486 3.403,0.53 3.889,2.165 0.487,1.635 -0.485,3.403 -2.165,3.889 z"
       fill="#bce3f4"
       id="path21" />
    <path
       d="m 103.76,101.872 c 3.977,4.11 -6.408,4.198 -13.08,10.65 -6.672,6.452 -7.159,16.837 -11.136,12.683 -3.977,-4.11 -1.768,-12.683 4.905,-19.135 6.716,-6.452 15.334,-8.352 19.311,-4.198 z"
       opacity="0.35"
       fill="#ffffff"
       id="path23" />
    <path
       d="m 84.757,74.172 19.054,-5.38 6.378,22.583 -19.054,5.38 z"
       fill="#bce3f4"
       id="path25" />
    <path
       d="m 103.76,68.773 c 0,0 0.928,21.742 -5.612,23.996 0,0 21.919,-3.756 31.154,0.53 0,0 -11.313,-4.596 -15.644,-3.756 -4.374,0.795 -9.898,-20.77 -9.898,-20.77 z"
       fill="#99d5e8"
       id="path27" />
    <g
       id="g48">
      <linearGradient
         id="linearGradient158"
         gradientUnits="userSpaceOnUse"
         x1="75.414001"
         y1="134.814"
         x2="151.33299"
         y2="134.814"
         gradientTransform="translate(0,-0.05)">
        <stop
           offset="0"
           stop-color="#faeb48"
           id="stop142" />
        <stop
           offset=".04"
           stop-color="#fee72f"
           id="stop144" />
        <stop
           offset=".117"
           stop-color="#ffd51d"
           id="stop146" />
        <stop
           offset=".196"
           stop-color="#fdca12"
           id="stop148" />
        <stop
           offset=".281"
           stop-color="#fdc710"
           id="stop150" />
        <stop
           offset=".668"
           stop-color="#f39040"
           id="stop152" />
        <stop
           offset=".888"
           stop-color="#ed683c"
           id="stop154" />
        <stop
           offset="1"
           stop-color="#e83e3b"
           id="stop156" />
      </linearGradient>
      <path
         d="m 135.842,100.988 c 7.778,2.43 11.666,11.799 14.053,20.284 5.701,20.195 -6.054,41.142 -26.205,46.842 -20.151,5.7 -41.142,-6.054 -46.842,-26.205 a 37.908,37.908 0 0 1 -0.309,-19.488 c 0,0 9.147,14.583 25.056,7.336 15.908,-7.204 12.903,-35.442 34.247,-28.769 z"
         fill="url(#a)"
         id="path46"
         style="fill:url(#a)" />
    </g>
  </g>
</svg>
