<svg viewBox="0 0 20 20" xmlns="http://www.w3.org/2000/svg">
<rect width="100%" height="100%" fill="white"/>
<path d="M8.67759 4.01166L6.19283 4.71091C6.12117 4.72969 6.04499 4.72015 5.98022 4.68428C5.91545 4.64841 5.86709 4.58899 5.84526 4.51842L5.14996 2.05516C5.1311 1.98373 5.14067 1.9078 5.17667 1.84324C5.21266 1.77867 5.2723 1.73045 5.34312 1.70866L7.82802 1.00941C7.89968 0.990633 7.97586 1.00017 8.04063 1.03604C8.1054 1.07191 8.15376 1.13134 8.1756 1.2019L8.8709 3.66516C8.91591 3.81279 8.82574 3.96666 8.67759 4.01166Z" fill="#B7895B"/>
<path d="M5.63281 3.09431L5.45902 2.47214C5.36885 2.15787 5.5556 1.83706 5.86457 1.7472L7.40959 1.31099C7.72497 1.22113 8.04691 1.40723 8.13708 1.71512L8.31087 2.33729L5.63281 3.09431Z" fill="#C49A6C"/>
<path d="M7.0426 2.69661C7.0426 2.69661 7.86012 1.62532 7.27437 1.34951L7.65414 1.15063L8.14346 1.48422L8.39445 2.38234L7.0426 2.69661Z" fill="#B7895B"/>
<path d="M5.48486 3.60216L8.73747 2.68677L10.6376 9.39152L7.38503 10.3069L5.48486 3.60216Z" fill="#99D5E8"/>
<path d="M11.8572 18.7593C15.2446 17.806 17.2151 14.2968 16.2584 10.9213C15.3018 7.54575 11.7802 5.58217 8.39276 6.5355C5.00535 7.48883 3.03486 10.9981 3.99155 14.3736C4.94824 17.7491 8.46983 19.7127 11.8572 18.7593Z" fill="#99D5E8"/>
<path d="M11.7679 18.4444C14.9808 17.5402 16.8498 14.2118 15.9424 11.0102C15.035 7.80857 11.6948 5.94616 8.48194 6.85037C5.26905 7.75459 3.40008 11.083 4.30748 14.2846C5.21488 17.4863 8.55504 19.3487 11.7679 18.4444Z" fill="#BCE3F4"/>
<path d="M8.77424 3.31876L5.7486 4.17188C5.50401 4.24243 5.25287 4.09494 5.18208 3.8576C5.11128 3.61387 5.25928 3.36361 5.49746 3.29307L8.5231 2.43995C8.76769 2.3694 9.01883 2.51688 9.08963 2.75422C9.16057 2.99156 9.01897 3.24821 8.77424 3.31876Z" fill="#BCE3F4"/>
<path opacity="0.35" d="M8.72279 8.32877C9.30213 8.92539 7.78931 8.93816 6.81738 9.87475C5.84544 10.8113 5.7745 12.3188 5.19515 11.7158C4.61581 11.1192 4.9376 9.87475 5.90968 8.93816C6.88803 8.00157 8.14344 7.72577 8.72279 8.32877Z" fill="white"/>
<path d="M5.95459 4.30783L8.73026 3.52686L9.65936 6.80506L6.8837 7.58603L5.95459 4.30783Z" fill="#BCE3F4"/>
<path d="M8.72279 3.52405C8.72279 3.52405 8.85798 6.68017 7.90527 7.00736C7.90527 7.00736 11.0983 6.46213 12.4436 7.0843C12.4436 7.0843 10.7956 6.41713 10.1647 6.53907C9.52749 6.65447 8.72279 3.52405 8.72279 3.52405Z" fill="#99D5E8"/>
<path d="M13.3963 8.20039C14.5293 8.55313 15.0957 9.91316 15.4434 11.1449C16.2739 14.0764 14.5615 17.1171 11.626 17.9446C8.69058 18.772 5.63274 17.0657 4.8024 14.1406C4.54022 13.2176 4.52471 12.2424 4.75739 11.3117C4.75739 11.3117 6.08986 13.4286 8.40739 12.3766C10.7248 11.3308 10.287 7.23172 13.3963 8.20039Z" fill="url(#paint0_linear_26_508)"/>
<linearGradient id="paint0_linear_26_508" x1="4.5935" y1="13.1034" x2="15.6529" y2="13.1034" gradientUnits="userSpaceOnUse">
<stop stop-color="#FAEB48"/>
<stop offset="0.04" stop-color="#FEE72F"/>
<stop offset="0.117" stop-color="#FFD51D"/>
<stop offset="0.196" stop-color="#FDCA12"/>
<stop offset="0.281" stop-color="#FDC710"/>
<stop offset="0.668" stop-color="#F39040"/>
<stop offset="0.888" stop-color="#ED683C"/>
<stop offset="1" stop-color="#E83E3B"/>
</linearGradient>
</svg>
