<svg xmlns="http://www.w3.org/2000/svg" viewBox="0 0 20 20">
  <rect width="100%" height="100%" fill="#AC7EF4"/>
  <path fill="#fff" fill-rule="evenodd" d="m17.855 8.555-.617-1.14-.323-.583-.127-.228-.014.013-1.692-2.93A2.369 2.369 0 0 0 13.008 2.5l-1.484.04-4.424.014A2.37 2.37 0 0 0 5.072 3.72L2.398 9.023a2.484 2.484 0 0 0-.065 2.59l2.806 4.653a2.357 2.357 0 0 0 2.048 1.14l1.39-.014 7.6 2.233-.02-.02c.106.061.249-.05.18-.168l-1.57-3.09 2.74-5.063.086-.1v-.001a2.327 2.327 0 0 0 .261-2.628Zm-4.8 8.02.007-.002v-.012l-.007.013Zm-.11-.883.105.844-.014-.014.005.045-6.56-6.51 1.612-1.563-.595-3.577L7.18 3.1l.013-.016.766.842 5.565 6.065-.023.024.003.003-.06.06-.994 1.086.495 4.53Z" clip-rule="evenodd"/>
</svg>
