<svg viewBox="0 0 20 20" fill="none" xmlns="http://www.w3.org/2000/svg">
<path d="M0 0H20V20H0V0Z" fill="#FF6600"/>
<path d="M15.505 9.07694H11.5164C11.4203 9.0769 11.3281 9.03869 11.2601 8.97072C11.1921 8.90274 11.1539 8.81055 11.1538 8.71441V4.55753C11.1538 4.2497 10.9042 4 10.5965 4H9.1727C8.86483 4 8.61536 4.2497 8.61536 4.55753V8.68923C8.61536 8.90359 8.44206 9.07783 8.2277 9.07877L6.92059 9.085C6.70441 9.08617 6.52877 8.91077 6.52919 8.69477L6.5373 4.55847C6.538 4.25017 6.2883 4 5.98 4H4.55734C4.24942 4 4 4.2497 4 4.55753V16.1973C4 16.4708 4.22153 16.6923 4.49477 16.6923H15.505C15.7785 16.6923 16 16.4708 16 16.1973V9.57194C16 9.29847 15.7785 9.07694 15.505 9.07694ZM13.6346 13.4472C13.6346 13.8056 13.3441 14.0962 12.9857 14.0962H11.8605C11.5021 14.0962 11.2115 13.8056 11.2115 13.4472V12.322C11.2115 11.9636 11.5021 11.6731 11.8605 11.6731H12.9857C13.3441 11.6731 13.6346 11.9636 13.6346 12.322V13.4472Z" fill="white"/>
</svg>
