<svg xmlns="http://www.w3.org/2000/svg" viewBox="0 0 20 20">
  <rect width="100%" height="100%" fill="#C00"/>
  <path fill="#fff" d="M11.02 4.49h-.09a6 6 0 0 0-.68.03l-.15-.47c.25-.03.5-.05.76-.05l.16.49ZM13.83 7.5l.04-.5c.26.01.52.05.77.1l-.03.5a4.4 4.4 0 0 0-.78-.1ZM11.32 7.45l.18.56c.22-.11.45-.21.68-.29l-.17-.53c-.24.07-.47.16-.7.26h.01ZM7.36 4.78l.36.56h-.01c-.21.1-.41.22-.6.35l-.37-.56.62-.35ZM9.33 8.95l.38.58c.14-.2.3-.4.47-.58l-.36-.55c-.18.17-.34.35-.5.55ZM8.83 12.05l-.65-.51c.06-.3.14-.6.24-.88l.57.45c-.08.31-.13.63-.16.94ZM4.7 7.72l-.55-.5-.59.6.61.54c.16-.22.35-.44.54-.64ZM1.4 10.98l.91.33-.02.06-.38.9-.91-.33c.08-.22.25-.62.4-.96ZM8.06 13.6c.01.33.05.67.1 1l.95.35c-.08-.34-.14-.7-.19-1.04l-.86-.32Z"/>
  <path fill="#fff" d="M9.34 8.39c-2.43 2.56-1.51 6.8-1.51 6.8H1.56s.23-2.38 1.9-5.2A12.1 12.1 0 0 1 7.8 5.67a6.36 6.36 0 0 1 2.47-.82c4.6-.47 8.72 3.7 8.72 3.7l-.02.02-.26.2c-4.34-3.26-7.06-1.9-8.02-1.41l-.1.05c-.5.28-.92.61-1.26.98ZM14.62 5.3l.03-.53c-.25-.13-.5-.22-.77-.29l-.03.53c.26.08.52.18.77.3Z"/>
</svg>