<svg id="Layer_1" data-name="Layer 1" xmlns="http://www.w3.org/2000/svg" viewBox="0 0 20 20"><defs><style>.cls-2{fill:#fefefe}</style></defs><path fill="#c00" d="M0 0h20v20H0z"/><path class="cls-2" d="M2.49 15H8s-1-4.8 2.43-6.75c.76-.36 3.18-1.74 7.14 1.18l.24-.19S14.18 5.63 10.15 6c-2 .18-4.53 2-6 4.47A12.1 12.1 0 0 0 2.49 15z"/><path class="cls-2" d="M2.49 15H8s-1-4.8 2.43-6.75c.76-.36 3.18-1.74 7.14 1.18l.24-.19S14.18 5.63 10.15 6c-2 .18-4.53 2-6 4.47A12.1 12.1 0 0 0 2.49 15z"/><path class="cls-2" d="M2.49 15H8s-1-4.8 2.43-6.75c.76-.36 3.18-1.74 7.14 1.18l.24-.19S14.18 5.63 10.15 6c-2 .18-4.53 2-6 4.47A12 12 0 0 0 2.49 15zM14 6.42V6a3.44 3.44 0 0 0-.68-.25v.46z"/><path class="cls-2" d="M13.3 7.9v.44a4.06 4.06 0 0 1 .69.08L14 8a4.36 4.36 0 0 0-.7-.1zm-2.58-2.17h.07l-.14-.43a5.12 5.12 0 0 0-.67 0l.13.41c.2.02.41.02.61.02zm.33 2.56l.16.48a3.85 3.85 0 0 1 .61-.24l-.16-.46a5.31 5.31 0 0 0-.61.22zM7.89 6.46L7.57 6c-.17.09-.35.18-.54.3l.32.48zm1.43 3.13l.33.5a4.63 4.63 0 0 1 .41-.49l-.31-.47a3.09 3.09 0 0 0-.43.46zm-1 2.25l.56.44a5.76 5.76 0 0 1 .12-.81l-.5-.4a4.66 4.66 0 0 0-.19.77zM5.25 8.53l-.49-.44c-.18.18-.36.35-.52.53l.54.46c.15-.19.31-.38.47-.55zm-2.1 3.11l-.8-.29c-.13.3-.28.65-.35.83l.8.3c.09-.24.2-.58.35-.84zm5 2a6.69 6.69 0 0 0 .09.87l.83.3c-.06-.27-.12-.57-.17-.9z"/></svg>