<svg viewBox="0 0 20 20" xmlns="http://www.w3.org/2000/svg">
<rect width="100%" height="100%" fill="#3C8AE9"/>
<path d="M9.77856 2.0125C9.61359 2.03085 9.32911 2.09676 9.2301 2.13952C8.97131 2.25136 8.91713 2.27768 8.83205 2.33296C7.92338 2.92264 7.57091 4.0405 7.97795 5.04147C8.03682 5.1862 8.05164 5.21251 8.19407 5.42822C8.31891 5.61723 8.69138 5.99284 8.75418 5.99284C8.76102 5.99284 8.8085 6.02106 8.85952 6.0556C9.44685 6.45158 10.4598 6.47094 11.0619 6.0976C11.1197 6.06167 13.9601 8.87961 13.9087 8.92224C13.8811 8.94514 13.8071 9.11087 13.7268 9.32961L13.6822 9.45094H12.8925C12.1588 9.45094 12.1027 9.44828 12.1027 9.4145C12.1027 9.2909 11.88 8.85557 11.7038 8.63455C11.1939 7.99554 10.25 7.66294 9.52281 7.86599C9.4328 7.89104 9.34493 7.91166 9.32759 7.91166C9.23326 7.91166 8.73494 8.19252 8.57883 8.33371C8.53819 8.37052 8.47856 8.42303 8.4464 8.45048C8.33815 8.54258 8.11646 8.85911 8.02986 9.04521C7.98276 9.14655 7.93503 9.24599 7.92389 9.26611C7.91275 9.28622 7.90363 9.32101 7.90363 9.3434C7.90363 9.45575 7.93997 9.45094 7.09145 9.45094H6.30496L6.2799 9.38237C6.26622 9.34467 6.23596 9.26636 6.21267 9.20842C6.1895 9.15047 6.16734 9.08873 6.16342 9.0714C6.1524 9.02206 5.98629 8.75474 5.9021 8.65087C5.55709 8.22503 5.1717 7.98985 4.58019 7.8441C4.16125 7.74087 3.19258 7.93203 3.00786 8.15444C2.99355 8.17164 2.97266 8.18581 2.96139 8.18581C2.91176 8.18581 2.41723 8.64847 2.41723 8.6949C2.41723 8.70578 2.40065 8.73248 2.38039 8.75424C2.02678 9.13352 1.88206 10.1834 2.10932 10.7214C2.21618 10.9743 2.24505 11.0341 2.30974 11.1377C2.3495 11.2015 2.39001 11.2569 2.39976 11.2607C2.40938 11.2646 2.41723 11.2802 2.41723 11.2954C2.41723 11.3265 2.75768 11.6803 2.83934 11.7341C2.86834 11.7532 2.92999 11.7956 2.97646 11.8282C3.84283 12.4369 5.2759 12.2101 5.88855 11.3674C5.90033 11.3512 5.94071 11.2988 5.97832 11.2507C6.01592 11.2026 6.04668 11.1562 6.04668 11.1476C6.04668 11.1389 6.07505 11.0857 6.10974 11.0293C6.14455 10.973 6.1681 10.9268 6.16215 10.9268C6.15633 10.9268 6.17532 10.8798 6.20456 10.8222C6.23381 10.7645 6.25774 10.7033 6.25774 10.6861C6.25774 10.6689 6.26875 10.6305 6.28217 10.6011L6.30674 10.5473H7.09423H7.88173L7.89452 10.6054C8.0291 11.2162 8.73304 11.942 9.32797 12.0833C9.3743 12.0943 9.47407 12.1197 9.54953 12.1397C10.5592 12.4077 11.8959 11.607 12.0945 10.6152L12.108 10.5473H12.8951H13.6822L13.7268 10.6686C13.8081 10.8901 13.8813 11.0532 13.91 11.077C13.9325 11.0957 13.6449 11.3937 12.5248 12.5122L11.1112 13.9238L11.0108 13.8727C10.8475 13.7894 10.8132 13.7754 10.6362 13.7196C9.9729 13.5107 9.09438 13.6822 8.60643 14.1157C8.42766 14.2746 8.23838 14.4836 8.16229 14.6063C7.58762 15.5328 7.72613 16.6718 8.50287 17.4071C8.62846 17.5259 8.93207 17.7332 9.05361 17.7831C9.291 17.8806 9.36785 17.9102 9.39912 17.9163C9.41798 17.9201 9.50661 17.9383 9.59612 17.9568C10.9113 18.2294 12.1751 17.1769 12.1764 15.8082C12.1766 15.4137 12.1284 15.2051 11.95 14.8305L11.8861 14.6963L13.2923 13.2912L14.6985 11.8863L14.809 11.9429C14.9919 12.0364 15.232 12.1164 15.4507 12.1568C15.654 12.1944 16.089 12.1853 16.2597 12.1398C16.335 12.1197 16.4332 12.0945 16.4775 12.0839C16.6292 12.0475 17.0002 11.8534 17.151 11.7315C18.3805 10.7374 18.2545 8.89441 16.9033 8.10497C16.4596 7.84587 15.8065 7.74163 15.3628 7.85928C15.2932 7.87776 15.203 7.90065 15.1624 7.91027C15.0847 7.92849 14.9378 7.98959 14.7879 8.06613L14.6981 8.11193L13.2922 6.70701L11.8862 5.30196L11.9228 5.23099C12.3037 4.49342 12.263 3.65072 11.8138 2.9759C11.7812 2.92706 11.745 2.87203 11.7335 2.85381C11.5565 2.57511 10.9303 2.15496 10.5834 2.08221C10.1914 1.99985 10.0233 1.9853 9.77856 2.0125ZM10.297 3.13999C11.0694 3.35657 11.3499 4.34451 10.8026 4.92103C10.0394 5.72502 8.75089 5.08866 8.92143 3.99179C8.9922 3.53673 9.32252 3.22677 9.87656 3.09558C9.94568 3.07913 10.1613 3.10191 10.297 3.13999ZM4.52056 8.96323C4.81353 9.0652 5.03471 9.26307 5.17284 9.54709L5.25438 9.71447V9.99912V10.2838L5.17234 10.4523C4.69781 11.4278 3.30792 11.2475 3.10079 10.1836C2.94595 9.38857 3.7518 8.69579 4.52056 8.96323ZM10.2247 8.92528C11.1702 9.13972 11.3984 10.3864 10.5881 10.9108C9.66069 11.5112 8.53908 10.5209 9.01385 9.5209C9.08475 9.37174 9.32695 9.0924 9.38545 9.0924C9.39836 9.0924 9.42495 9.07811 9.44432 9.06052C9.57637 8.94109 9.98354 8.8705 10.2247 8.92528ZM16.1045 8.94691C16.6637 9.11771 16.9939 9.64779 16.8829 10.1965C16.8441 10.388 16.7736 10.5607 16.7137 10.6103C16.6961 10.625 16.6817 10.649 16.6817 10.6639C16.6817 10.7028 16.4866 10.8727 16.3583 10.9453C15.4207 11.4765 14.3652 10.4859 14.8326 9.51344C14.9278 9.31545 15.2486 9.00815 15.3602 9.00815C15.3743 9.00815 15.3951 8.99942 15.4061 8.98879C15.4964 8.90188 15.8814 8.87872 16.1045 8.94691ZM10.4358 14.8118C11.5033 15.3383 11.1709 16.9063 9.99265 16.9022C9.66702 16.901 9.08526 16.5908 9.08526 16.4184C9.08526 16.4045 9.07184 16.3821 9.05538 16.3684C8.92054 16.2566 8.86332 15.7065 8.95992 15.4497C9.18731 14.8448 9.88846 14.5418 10.4358 14.8118Z" fill="white"/>
</svg>
