<svg id="Layer_1" data-name="Layer 1" xmlns="http://www.w3.org/2000/svg" viewBox="0 0 20 20"><defs><style>.cls-2{fill:#00d8ff}</style></defs><path fill="#333" d="M0 0h20v20H0z"/><path class="cls-2" d="M18 10c0-1.19-1.13-2.24-2.9-2.95.28-1.88-.07-3.39-1.1-4a2.1 2.1 0 0 0-1-.26 5.15 5.15 0 0 0-3 1.31 5.15 5.15 0 0 0-3-1.29 2.1 2.1 0 0 0-1 .26c-1 .59-1.38 2.1-1.1 4C3.13 7.76 2 8.81 2 10s1.13 2.24 2.9 3c-.28 1.88.07 3.39 1.1 4a2.1 2.1 0 0 0 1 .26 5.15 5.15 0 0 0 3-1.31 5.15 5.15 0 0 0 3 1.31 2.1 2.1 0 0 0 1-.26c1-.59 1.38-2.1 1.1-4 1.77-.76 2.9-1.81 2.9-3zm-5-6.19a1 1 0 0 1 .53.13c.54.31.82 1.34.64 2.79a14.38 14.38 0 0 0-2-.42 14.42 14.42 0 0 0-1.4-1.51A4.12 4.12 0 0 1 13 3.81zm.69 7.46c.12.35.21.69.29 1a9.29 9.29 0 0 1-1 .26c.13-.21.27-.41.4-.64s.17-.41.28-.62zm-1.21.14a15.54 15.54 0 0 1-.88 1.34 15.7 15.7 0 0 1-1.57.08 15.7 15.7 0 0 1-1.57-.08 15.54 15.54 0 0 1-.88-1.34c-.27-.48-.51-.95-.72-1.4a14.57 14.57 0 0 1 .72-1.42 14.13 14.13 0 0 1 .88-1.34 15.45 15.45 0 0 1 3.14 0 15.54 15.54 0 0 1 .88 1.34 14.57 14.57 0 0 1 .69 1.41c-.17.46-.45.93-.72 1.41zM10 14.55c-.24-.23-.48-.47-.72-.74h1.44c-.24.27-.48.51-.72.74zm-3.31-2.64c.13.23.27.43.4.64a9.29 9.29 0 0 1-1-.26c.08-.33.17-.67.29-1 .07.19.18.41.31.62zm-.36-3.17c-.12-.36-.21-.7-.29-1a10.07 10.07 0 0 1 1-.26c-.13.21-.27.41-.4.64s-.2.4-.31.62zM10 5.45c.24.23.48.47.72.74H9.28c.24-.27.48-.51.72-.74zm3.31 2.64c-.13-.23-.27-.43-.4-.64a10.07 10.07 0 0 1 1.09.26c-.08.33-.17.67-.29 1-.15-.19-.27-.4-.4-.62zM6.5 3.94a1 1 0 0 1 .5-.13 4.12 4.12 0 0 1 2.2 1 14.42 14.42 0 0 0-1.32 1.5 14.38 14.38 0 0 0-2 .42c-.2-1.45.12-2.48.62-2.79zM3 10c0-.62.75-1.38 2.1-1.95A12.73 12.73 0 0 0 5.75 10a12.73 12.73 0 0 0-.65 2C3.75 11.38 3 10.62 3 10zm4 6.19a1 1 0 0 1-.53-.13c-.52-.3-.77-1.21-.67-2.44v-.35a14.39 14.39 0 0 0 2 .42 14.42 14.42 0 0 0 1.43 1.51 4.12 4.12 0 0 1-2.23.99zm7.14-2.57c.1 1.23-.15 2.14-.67 2.44a1 1 0 0 1-.53.13 4.12 4.12 0 0 1-2.2-1 14.42 14.42 0 0 0 1.35-1.51 14.39 14.39 0 0 0 2-.42c.04.13.08.25.08.36zM14.9 12a12.73 12.73 0 0 0-.65-2 12.73 12.73 0 0 0 .65-1.95C16.25 8.62 17 9.38 17 10s-.75 1.38-2.1 2z"/><circle class="cls-2" cx="10" cy="10" r="1"/></svg>