<svg xmlns="http://www.w3.org/2000/svg" viewBox="0 0 20 20"><path d="M0 0h20v20H0z" style="fill:#20232a"/><circle cx="10" cy="10" r="1.43" style="fill:#61dafb"/><path d="M10 13.27c-4.49 0-8-1.44-8-3.27s3.51-3.27 8-3.27 8 1.44 8 3.27-3.51 3.27-8 3.27Zm0-5.84c-4.3 0-7.3 1.36-7.3 2.57s3 2.57 7.3 2.57 7.3-1.36 7.3-2.57-3-2.57-7.3-2.57Z" style="fill:#61dafb"/><path d="M13.19 17.13c-.71 0-1.57-.39-2.5-1.15-1.23-1-2.49-2.55-3.53-4.35C4.92 7.75 4.4 3.98 5.99 3.07c.81-.47 1.98-.13 3.3.94 1.23 1 2.49 2.55 3.53 4.35 2.24 3.88 2.76 7.65 1.17 8.56-.24.14-.51.21-.81.21ZM6.82 3.56c-.18 0-.33.04-.47.11-1.05.61-.73 3.89 1.42 7.61 1 1.73 2.2 3.21 3.36 4.16 1.06.87 1.98 1.18 2.52.88 1.05-.61.73-3.89-1.42-7.61-1-1.73-2.2-3.21-3.36-4.16-.8-.65-1.51-.99-2.05-.99Z" style="fill:#61dafb"/><path d="M6.81 17.13c-.3 0-.57-.07-.81-.21-1.59-.92-1.07-4.68 1.17-8.56 1.04-1.81 2.3-3.35 3.53-4.35 1.32-1.07 2.49-1.41 3.3-.94 1.59.92 1.07 4.68-1.17 8.56-1.04 1.81-2.3 3.35-3.53 4.35-.93.76-1.79 1.15-2.5 1.15Zm6.37-13.57c-.53 0-1.25.34-2.05.99-1.17.95-2.36 2.43-3.36 4.16-2.15 3.73-2.48 7-1.42 7.61.53.31 1.45-.01 2.52-.88 1.17-.95 2.36-2.43 3.36-4.16 2.15-3.73 2.48-7 1.42-7.61a.885.885 0 0 0-.47-.11Z" style="fill:#61dafb"/></svg>