<svg xmlns="http://www.w3.org/2000/svg" viewBox="0 0 20 20">
  <rect width="100%" height="100%" fill="#202329"/>
  <path fill="#61DAFB" d="M11.52 10a1.52 1.52 0 1 1-3.04 0 1.52 1.52 0 0 1 3.04 0Z"/>
  <path fill="#61DAFB" fill-rule="evenodd" d="M10 4.27c-.25-.24-.5-.46-.74-.66a5.96 5.96 0 0 0-1.85-1.08c-.58-.2-1.17-.2-1.66.08-.5.28-.77.8-.9 1.4a6 6 0 0 0 .01 2.15c.05.31.12.64.2.97-.33.1-.65.2-.94.31-.76.3-1.4.65-1.86 1.07-.46.4-.76.91-.76 1.48s.3 1.08.76 1.49c.46.41 1.1.77 1.86 1.06.3.11.6.22.94.31-.08.34-.15.67-.2.98a6 6 0 0 0-.01 2.14c.13.6.4 1.12.9 1.4.5.3 1.08.28 1.66.09a5.96 5.96 0 0 0 1.85-1.08c.24-.2.5-.42.74-.67.25.24.5.47.74.67.63.51 1.26.89 1.85 1.08.58.19 1.17.2 1.66-.08.5-.29.77-.8.9-1.4a6 6 0 0 0-.01-2.15 11.3 11.3 0 0 0-.2-.98l.94-.3c.76-.3 1.4-.66 1.86-1.07.46-.41.76-.92.76-1.49s-.3-1.07-.76-1.48a5.96 5.96 0 0 0-1.86-1.07c-.3-.1-.6-.21-.94-.3.08-.34.15-.67.2-.98A6 6 0 0 0 15.15 4c-.13-.6-.4-1.12-.9-1.4-.5-.29-1.08-.27-1.66-.08-.59.19-1.22.56-1.85 1.08-.24.2-.5.42-.74.66Zm3.88-1.02c.25.14.45.43.55.92.1.48.1 1.12-.02 1.87-.05.29-.1.6-.19.91-.7-.16-1.46-.28-2.27-.35-.46-.67-.95-1.27-1.43-1.8.23-.22.46-.43.69-.62.59-.48 1.13-.8 1.6-.95.47-.15.82-.12 1.07.02ZM9.48 4.8c-.23-.22-.46-.43-.69-.62-.59-.48-1.13-.8-1.6-.95-.47-.15-.82-.12-1.07.02-.25.14-.45.43-.55.92-.1.48-.1 1.12.02 1.87.05.29.1.6.19.91.7-.16 1.46-.28 2.27-.35.46-.67.95-1.27 1.43-1.8Zm4.54 2.86c-.48-.1-.99-.2-1.53-.26a21.92 21.92 0 0 1 1 1.72c.2-.5.38-.99.53-1.46ZM13.9 10c.34-.73.61-1.46.83-2.14.31.09.6.18.88.29.7.27 1.26.58 1.62.92.37.33.52.64.52.93 0 .3-.15.6-.52.94-.36.33-.91.65-1.62.92-.28.1-.57.2-.88.29-.22-.69-.5-1.41-.83-2.15Zm-.82 0a20.86 20.86 0 0 0-1.54-2.68 20.67 20.67 0 0 0-3.1 0 20.81 20.81 0 0 0-1.54 2.68 20.82 20.82 0 0 0 1.54 2.69 20.67 20.67 0 0 0 3.1 0 20.8 20.8 0 0 0 1.54-2.69Zm-.6 2.6a21.9 21.9 0 0 0 1-1.73c.2.5.38 1 .53 1.46-.48.1-.99.2-1.53.26Zm-1.5.87a21.62 21.62 0 0 1-1.98 0c.33.43.66.83.99 1.19.33-.36.66-.76.99-1.2Zm-.47 1.72c.48-.53.97-1.13 1.43-1.8.81-.07 1.57-.19 2.27-.34.08.31.14.62.2.9.11.76.11 1.4.01 1.88s-.3.77-.55.92c-.25.14-.6.17-1.07.01a5.24 5.24 0 0 1-1.6-.95c-.23-.18-.46-.4-.7-.62Zm-1.04 0c-.48-.53-.97-1.13-1.43-1.8-.81-.07-1.57-.19-2.27-.34-.08.31-.14.62-.2.9a5.28 5.28 0 0 0-.01 1.88c.1.48.3.77.55.92.25.14.6.17 1.07.01a5.24 5.24 0 0 0 1.6-.95c.23-.18.46-.4.7-.62Zm-3.5-2.86c.48.1.99.2 1.53.26a21.83 21.83 0 0 1-1-1.72c-.2.5-.38 1-.53 1.46Zm.54-3.2A21.85 21.85 0 0 1 7.5 7.4c-.54.07-1.05.16-1.53.26.15.47.33.96.54 1.46Zm-.43.87a17.8 17.8 0 0 0-.83 2.15c-.31-.09-.6-.19-.88-.3a5.24 5.24 0 0 1-1.62-.91c-.37-.33-.52-.65-.52-.94 0-.29.15-.6.52-.93.36-.34.91-.65 1.62-.92l.88-.3c.22.7.5 1.42.83 2.15Zm2.92-3.46a21.7 21.7 0 0 1 1.98 0 16.4 16.4 0 0 0-.99-1.2c-.33.37-.66.77-.99 1.2Z" clip-rule="evenodd"/>
</svg>