<svg viewBox="0 0 20 20" xmlns="http://www.w3.org/2000/svg">
<rect width="100%" height="100%" fill="black"/>
<path d="M15.3928 9.38206C15.3928 9.87757 15.1918 10.3261 14.8665 10.6504C14.5411 10.9751 14.0917 11.1761 13.5952 11.1761C13.0987 11.1761 12.6493 11.3767 12.3243 11.7014C11.9989 12.0261 11.7976 12.4746 11.7976 12.9701C11.7976 13.4656 11.5966 13.9141 11.2713 14.2385C10.9459 14.5632 10.4965 14.7641 10 14.7641C9.50351 14.7641 9.05411 14.5632 8.72909 14.2385C8.40372 13.9141 8.2024 13.4656 8.2024 12.9701C8.2024 12.4746 8.40372 12.0261 8.72909 11.7014C9.05411 11.3767 9.50351 11.1761 10 11.1761C10.4965 11.1761 10.9459 10.9751 11.2713 10.6504C11.5966 10.3261 11.7976 9.87757 11.7976 9.38206C11.7976 8.39104 10.993 7.58804 10 7.58804C9.50351 7.58804 9.05411 7.38711 8.72909 7.06239C8.40372 6.73803 8.2024 6.28953 8.2024 5.79402C8.2024 5.29851 8.40372 4.85001 8.72909 4.52529C9.05411 4.20057 9.50351 4 10 4C10.993 4 11.7976 4.803 11.7976 5.79402C11.7976 6.28953 11.9989 6.73803 12.3243 7.06239C12.6493 7.38711 13.0987 7.58804 13.5952 7.58804C14.5882 7.58804 15.3928 8.39104 15.3928 9.38206Z" fill="#F44250"/>
<path d="M8.2024 9.38206C8.2024 8.39122 7.39757 7.58804 6.40479 7.58804C5.41201 7.58804 4.60718 8.39122 4.60718 9.38206C4.60718 10.3729 5.41201 11.1761 6.40479 11.1761C7.39757 11.1761 8.2024 10.3729 8.2024 9.38206Z" fill="white"/>
<path d="M4.60718 12.9701C4.60718 11.9793 3.80236 11.1761 2.80957 11.1761C1.81678 11.1761 1.01196 11.9793 1.01196 12.9701C1.01196 13.9609 1.81678 14.7641 2.80957 14.7641C3.80236 14.7641 4.60718 13.9609 4.60718 12.9701Z" fill="white"/>
<path d="M18.988 12.9701C18.988 11.9793 18.1832 11.1761 17.1904 11.1761C16.1977 11.1761 15.3928 11.9793 15.3928 12.9701C15.3928 13.9609 16.1977 14.7641 17.1904 14.7641C18.1832 14.7641 18.988 13.9609 18.988 12.9701Z" fill="white"/>
</svg>
