<?xml version="1.0" encoding="utf-8"?>
<!-- Generator: Adobe Illustrator 18.1.1, SVG Export Plug-In . SVG Version: 6.00 Build 0)  -->
<!DOCTYPE svg PUBLIC "-//W3C//DTD SVG 1.1//EN" "http://www.w3.org/Graphics/SVG/1.1/DTD/svg11.dtd">
<svg version="1.1" id="Layer_1" xmlns="http://www.w3.org/2000/svg" xmlns:xlink="http://www.w3.org/1999/xlink" x="0px" y="0px"
	 viewBox="0 0 64 64" enable-background="new 0 0 64 64" xml:space="preserve">
<g>
	<circle cx="31.5" cy="32.1" r="4.7"/>
	<path d="M48.5,24c-0.6-0.2-1.2-0.4-1.8-0.6c0.1-0.4,0.2-0.9,0.3-1.3c1.3-6.3,0.4-11.2-2.4-12.8c-2.6-1.5-7.1,0-11.6,4
		c-0.5,0.4-0.9,0.8-1.4,1.3c-0.3-0.3-0.6-0.6-0.9-0.9c-3.5-3.1-7.1-4.9-9.8-4.9c-0.9,0-1.7,0.2-2.4,0.6c-2.6,1.5-3.5,6.1-2.3,12.1
		c0.1,0.6,0.3,1.2,0.4,1.9c-0.7,0.2-1.4,0.4-2.1,0.6c-5.7,2-9.1,5-9.1,8c0,3.2,3.7,6.4,9.5,8.4c0.5,0.2,1,0.3,1.5,0.5
		c-0.2,0.7-0.3,1.3-0.4,2c-1.1,5.9-0.2,10.3,2.4,11.9c0.7,0.4,1.5,0.6,2.5,0.6c2.7,0,6.2-1.7,9.6-4.7c0.4-0.3,0.8-0.7,1.2-1.1
		c0.5,0.5,1,0.9,1.5,1.4c3.3,2.8,6.5,4.4,9.1,4.4c0.9,0,1.7-0.2,2.4-0.6c2.7-1.6,3.7-6.4,2.5-12.5c-0.1-0.5-0.2-1-0.3-1.5
		c0.4-0.1,0.7-0.2,1.1-0.3c6.1-2,9.9-5.2,9.9-8.4C57.7,29,54.2,25.9,48.5,24z M42.2,10.8c0.5,0,1,0.1,1.3,0.3
		c1.5,0.9,2.6,4.6,1.4,10.6c-0.1,0.4-0.2,0.8-0.3,1.2c-2.2-0.5-4.7-0.9-7.2-1.1c-1.5-2.1-3-4-4.6-5.7c0.4-0.4,0.9-0.8,1.3-1.2
		C37.2,12.3,40.2,10.8,42.2,10.8z M39,36.4c-0.8,1.5-1.7,2.8-2.6,4.1c-1.6,0.1-3.2,0.2-4.9,0.2c-1.7,0-3.3-0.1-4.8-0.2
		c-0.9-1.3-1.8-2.7-2.6-4.1c-0.8-1.4-1.6-2.9-2.3-4.3c0.7-1.4,1.4-2.9,2.3-4.3c0.8-1.4,1.7-2.8,2.6-4.1c1.6-0.1,3.2-0.2,4.9-0.2
		c1.7,0,3.3,0.1,4.9,0.2c0.9,1.3,1.8,2.7,2.6,4.1c0.8,1.5,1.6,2.9,2.3,4.3C40.6,33.5,39.8,35,39,36.4z M42.4,34.4
		c0.8,1.7,1.4,3.4,1.9,5c-1.6,0.4-3.4,0.7-5.3,0.9c0.6-0.9,1.2-1.9,1.8-2.9C41.3,36.4,41.8,35.4,42.4,34.4z M28.2,42.6
		c1.1,0,2.2,0.1,3.3,0.1c1.2,0,2.3,0,3.4-0.1c-1.1,1.5-2.2,2.9-3.3,4.1C30.5,45.5,29.3,44.1,28.2,42.6z M24.2,40.3
		c-1.9-0.2-3.6-0.5-5.3-0.8c0.5-1.6,1.1-3.3,1.9-5c0.5,1,1,2,1.6,3C22.9,38.4,23.5,39.4,24.2,40.3z M20.7,29.8
		c-0.7-1.7-1.3-3.3-1.8-4.9c1.6-0.4,3.4-0.7,5.2-0.9c-0.6,0.9-1.2,1.9-1.8,2.9C21.8,27.8,21.3,28.8,20.7,29.8z M31.6,17.5
		c1.1,1.2,2.2,2.6,3.4,4.1c-1.1-0.1-2.2-0.1-3.4-0.1c-1.1,0-2.2,0-3.4,0.1C29.3,20.1,30.4,18.8,31.6,17.5z M40.7,26.8
		c-0.6-1-1.2-1.9-1.7-2.8c1.8,0.2,3.6,0.5,5.2,0.9c-0.5,1.6-1.1,3.2-1.8,4.9C41.8,28.8,41.3,27.8,40.7,26.8z M18,21.1
		c-1.1-5.7-0.1-9.1,1.4-10c0.4-0.2,0.8-0.3,1.4-0.3c2.2,0,5.4,1.7,8.5,4.4c0.3,0.3,0.6,0.5,0.9,0.8c-1.6,1.7-3.1,3.6-4.6,5.7
		c-2.5,0.2-5,0.6-7.2,1.1C18.2,22.3,18.1,21.7,18,21.1z M15.5,38.6c-5.6-1.9-8.2-4.7-8.2-6.5c0-1.7,2.4-4.3,7.7-6.1
		c0.6-0.2,1.3-0.4,1.9-0.6c0.7,2.2,1.6,4.5,2.6,6.8c-1.1,2.4-2,4.7-2.7,6.9C16.5,38.9,16,38.7,15.5,38.6z M29.1,49.2
		c-3,2.6-6.1,4.2-8.3,4.2c-0.6,0-1.1-0.1-1.5-0.3c-1.5-0.9-2.5-4.2-1.5-9.7c0.1-0.6,0.3-1.2,0.4-1.9c2.2,0.5,4.6,0.8,7.3,1
		c1.5,2.1,3,4,4.6,5.7C29.9,48.5,29.5,48.9,29.1,49.2z M45.1,42.7c1.2,5.8,0,9.5-1.5,10.3c-0.4,0.2-0.8,0.3-1.4,0.3
		c-2.1,0-4.9-1.4-7.8-3.9c-0.5-0.4-0.9-0.8-1.4-1.3c1.5-1.6,3-3.6,4.5-5.7c2.6-0.2,5.1-0.6,7.3-1.1C44.9,41.8,45.1,42.3,45.1,42.7z
		 M47.2,38.6c-0.3,0.1-0.7,0.2-1,0.3c-0.7-2.1-1.6-4.4-2.7-6.8c1.1-2.3,2-4.6,2.6-6.7c0.6,0.2,1.2,0.3,1.7,0.5
		c5.5,1.9,7.9,4.5,7.9,6.2C55.7,33.8,53.1,36.6,47.2,38.6z"/>
</g>
</svg>
