<svg  viewBox="0 0 20 20" fill="none" xmlns="http://www.w3.org/2000/svg">
<path d="M0 0H20V20H0V0Z" fill="#636466"/>
<path d="M17.373 13.4099C16.5192 13.8502 12.096 15.6494 11.1543 16.135C10.2126 16.6208 9.68946 16.6161 8.94553 16.2643C8.20166 15.9125 3.49456 14.0314 2.64662 13.6305C2.22287 13.4301 2 13.261 2 13.1012V11.5013C2 11.5013 8.12809 10.1815 9.1174 9.83038C10.1066 9.47924 10.4499 9.46656 11.2918 9.77164C12.1338 10.0768 17.1679 10.9754 17.9999 11.2768L17.9995 12.8541C17.9997 13.0123 17.8077 13.1858 17.373 13.4099Z" fill="#912626"/>
<path d="M17.3727 11.8193C16.5189 12.2594 12.0958 14.0586 11.1541 14.5443C10.2125 15.0301 9.68938 15.0253 8.94551 14.6735C8.20158 14.3219 3.49467 12.4406 2.6468 12.0399C1.79892 11.6389 1.78117 11.363 2.61405 11.0403C3.44692 10.7176 8.12802 8.90069 9.11745 8.54955C10.1067 8.19854 10.4499 8.18574 11.2918 8.49094C12.1337 8.79601 16.5304 10.5273 17.3623 10.8287C18.1946 11.1305 18.2265 11.379 17.3727 11.8193Z" fill="#C6302B"/>
<path d="M17.373 10.821C16.5192 11.2613 12.096 13.0605 11.1543 13.5463C10.2126 14.0319 9.68946 14.0272 8.94553 13.6754C8.20159 13.3237 3.49456 11.4425 2.64662 11.0416C2.22287 10.8412 2 10.6723 2 10.5125V8.91238C2 8.91238 8.12809 7.59267 9.1174 7.24153C10.1066 6.8904 10.4499 6.87766 11.2918 7.18279C12.1338 7.48793 17.1679 8.38626 17.9999 8.68781L17.9995 10.2653C17.9997 10.4234 17.8077 10.5969 17.373 10.821Z" fill="#912626"/>
<path d="M17.3727 9.23037C16.5189 9.67061 12.0958 11.4697 11.1541 11.9555C10.2125 12.4412 9.68938 12.4364 8.94551 12.0846C8.20158 11.733 3.49467 9.85177 2.6468 9.45098C1.79892 9.05014 1.78117 8.77413 2.61405 8.45137C3.44692 8.1288 8.12808 6.31179 9.11745 5.96072C10.1067 5.60964 10.4499 5.5969 11.2918 5.90204C12.1337 6.20711 16.5304 7.9383 17.3623 8.23985C18.1946 8.54158 18.2265 8.79014 17.3727 9.23037Z" fill="#C6302B"/>
<path d="M17.373 8.13626C16.5192 8.5765 12.096 10.3758 11.1543 10.8616C10.2126 11.3472 9.68946 11.3425 8.94553 10.9907C8.20159 10.639 3.49456 8.75778 2.64662 8.357C2.22287 8.15648 2 7.9875 2 7.82785V6.22768C2 6.22768 8.12809 4.90803 9.1174 4.55696C10.1066 4.20576 10.4499 4.19315 11.2918 4.49822C12.1338 4.80335 17.1679 5.70169 17.9999 6.00324L17.9995 7.58065C17.9997 7.73863 17.8077 7.91213 17.373 8.13626Z" fill="#912626"/>
<path d="M17.3728 6.54573C16.519 6.98596 12.0959 8.78523 11.1542 9.27084C10.2126 9.75646 9.68948 9.7517 8.9456 9.40007C8.20173 9.04825 3.49476 7.16712 2.64695 6.76628C1.79902 6.36549 1.78133 6.08942 2.61414 5.76673C3.44701 5.44409 8.12817 3.62733 9.11754 3.27613C10.1068 2.925 10.45 2.91238 11.2918 3.21752C12.1338 3.52265 16.5305 5.25384 17.3624 5.55539C18.1947 5.85687 18.2266 6.1055 17.3728 6.54573Z" fill="#C6302B"/>
<path d="M11.9551 4.98937L10.5795 5.13065L10.2715 5.86371L9.77417 5.04569L8.18574 4.90447L9.37098 4.48162L9.01536 3.83252L10.125 4.26187L11.1712 3.92304L10.8884 4.59421L11.9551 4.98937ZM10.1894 8.54573L7.62212 7.49233L11.3008 6.93369L10.1894 8.54573ZM6.63006 5.39683C7.71599 5.39683 8.5963 5.73442 8.5963 6.15079C8.5963 6.56728 7.71599 6.90481 6.63006 6.90481C5.54413 6.90481 4.66382 6.56722 4.66382 6.15079C4.66382 5.73442 5.54413 5.39683 6.63006 5.39683Z" fill="white"/>
<path d="M13.5809 5.18976L15.7582 6.04092L13.5828 6.89127L13.5809 5.1897" fill="#621B1C"/>
<path d="M11.1721 6.1323L13.5809 5.1897L13.5827 6.89121L13.3465 6.9826L11.1721 6.1323Z" fill="#9A2928"/>
</svg>
