<svg xmlns="http://www.w3.org/2000/svg" viewBox="0 0 80 80"><defs><style>.a{fill:#a41e11}.b{fill:#d82c20}.c{fill:#fff}</style></defs><path class="a" d="M76.87 58.41c-4.27 2.23-26.39 11.32-31.1 13.77s-7.32 2.43-11 .66S7.47 61.55 3.23 59.53C1.12 58.51 0 57.66 0 56.85v-8.09s30.64-6.67 35.59-8.44 6.66-1.84 10.87-.3S75.84 46.11 80 47.63v8c0 .8-1 1.68-3.13 2.81z"/><path class="b" d="M76.87 50.32c-4.27 2.23-26.39 11.32-31.1 13.77s-7.32 2.44-11 .66S7.47 53.46 3.23 51.44s-4.32-3.42-.16-5L35.59 33.8c4.94-1.8 6.66-1.8 10.87-.3s26.19 10.29 30.35 11.82 4.32 2.78 0 5z"/><path class="a" d="M76.87 45.22C72.6 47.45 50.48 56.54 45.77 59s-7.32 2.43-11 .65S7.47 48.37 3.23 46.34C1.12 45.33 0 44.47 0 43.67v-8.09s30.64-6.67 35.59-8.45 6.66-1.83 10.87-.29 29.38 6.08 33.54 7.6v8c0 .8-1 1.67-3.13 2.8z"/><path class="b" d="M76.87 37.14c-4.27 2.22-26.39 11.31-31.1 13.77s-7.32 2.43-11 .65S7.47 40.28 3.23 38.25s-4.32-3.42-.16-5l32.52-12.64c4.94-1.77 6.66-1.83 10.87-.3s26.19 10.3 30.35 11.82 4.32 2.78 0 5z"/><path class="a" d="M76.87 31.55c-4.27 2.23-26.39 11.32-31.1 13.78s-7.32 2.43-11 .65S7.47 34.7 3.23 32.67C1.12 31.66 0 30.8 0 30v-8.09s30.64-6.68 35.59-8.45 6.66-1.83 10.87-.3S75.84 19.25 80 20.77v8c0 .8-1 1.68-3.13 2.81z"/><path class="b" d="M76.87 23.46c-4.27 2.23-26.39 11.32-31.1 13.78s-7.32 2.43-11 .65S7.47 26.6 3.23 24.58s-4.32-3.42-.16-5L35.59 6.94c4.94-1.78 6.66-1.84 10.87-.3s26.19 10.29 30.35 11.82 4.32 2.78 0 5z"/><path class="c" d="M43.55 16.39L42 20.13 39.49 16l-8-.72 6-2.15-1.82-3.35L41.26 12l5.28-1.73-1.43 3.42 5.37 2zm-14.91 12l18.54-2.84-5.59 8.21z"/><ellipse class="c" cx="23.65" cy="21.59" rx="9.91" ry="3.84"/><path d="M69.65 21l-11 4.33v-8.64z" fill="#7a0c00"/><path d="M58.68 16.69v8.67l-1.19.47-11-4.34z" fill="#ad2115"/></svg>