<svg xmlns="http://www.w3.org/2000/svg" viewBox="0 0 20 20">
  <rect width="100%" height="100%" fill="#A32422"/>
  <path fill="#fff" d="M17.31 5.64c.42.15.64.3.64.45l.05.02v1.62c0 .17-.19.35-.63.58-.41.22-1.68.78-2.97 1.35-1.36.6-2.74 1.2-3.23 1.46a2.04 2.04 0 0 1-2.2.14l-1.6-.69a96.53 96.53 0 0 1-4.72-2.06C2.22 8.3 2 8.13 2 7.96V6.34c0-.16.2-.32.62-.49L9.1 3.28a2.5 2.5 0 0 1 2.16-.06c.44.16 1.87.74 3.24 1.3l2.81 1.12ZM17.32 12.14c.43-.22.63-.4.63-.56v1.64c0 .16-.19.34-.63.58-.41.22-1.68.78-2.97 1.34-1.36.6-2.74 1.21-3.23 1.47a2.04 2.04 0 0 1-2.2.13c-.35-.17-1.6-.7-2.89-1.25-1.44-.61-2.94-1.25-3.38-1.47-.43-.2-.65-.37-.65-.55v-1.64c0 .21.22.33.7.56.46.23 2.08.92 3.57 1.55 1.23.52 2.37 1 2.7 1.17a2.03 2.03 0 0 0 2.15-.16c.49-.25 1.87-.86 3.23-1.46 1.3-.57 2.56-1.13 2.97-1.35Z"/>
  <path fill="#fff" d="M17.32 9.51c.43-.2.63-.36.63-.51H18v1.54c0 .15-.19.31-.63.53-.41.2-1.68.7-2.97 1.23-1.36.54-2.74 1.1-3.23 1.34a2.14 2.14 0 0 1-2.2.12c-.4-.18-1.77-.72-3.15-1.26s-2.75-1.07-3.17-1.27c-.43-.18-.65-.34-.65-.5v-1.5c0 .14.22.3.65.5.44.2 1.94.78 3.38 1.34 1.3.5 2.54 1 2.9 1.15a2.2 2.2 0 0 0 2.2-.13c.46-.22 1.78-.75 3.1-1.28a75.58 75.58 0 0 0 3.1-1.3Z"/>
</svg>