<svg xmlns="http://www.w3.org/2000/svg" viewBox="0 0 20 20"><defs><style>.b{fill:#fff;fill-rule:evenodd}</style></defs><path fill="#ce3129" d="M0 0h20v20H0z"/><path class="b" d="M2 15.03h3.47l.25-2.98-3.22-.74-.5 3.72zm.62-4.22l3.1.75.74-2.61-2.6-1.36-1.24 3.22zm1.49-3.72l2.48 1.37 1.98-1.37-1.86-2.1-2.6 2.1zM18 15.03h-3.47l-.25-2.98 3.22-.74.5 3.72zm-.62-4.22l-3.1.75-.74-2.61 2.6-1.36 1.24 3.22zm-1.49-3.72l-2.48 1.37-1.98-1.37 1.86-2.1 2.6 2.1zM7.33 4.61l1.86 2.23h1.74l1.61-2.23-1.61-.49H9.15l-1.82.49z"/><path class="b" d="M2 15.03h3.47l.25-2.98-3.22-.74-.5 3.72zm.62-4.22l3.1.75.74-2.61-2.6-1.36-1.24 3.22zm1.49-3.72l2.48 1.37 1.98-1.37-1.86-2.1-2.6 2.1zM18 15.03h-3.47l-.25-2.98 3.22-.74.5 3.72zm-.62-4.22l-3.1.75-.74-2.61 2.6-1.36 1.24 3.22zm-1.49-3.72l-2.48 1.37-1.98-1.37 1.86-2.1 2.6 2.1zM7.33 4.61l1.86 2.23h1.74l1.61-2.23-1.61-.49H9.15l-1.82.49z"/></svg>