<svg id="Layer_1" data-name="Layer 1" xmlns="http://www.w3.org/2000/svg" viewBox="0 0 20 20"><defs><style>.cls-2{fill:#fff}</style></defs><path fill="#764abc" d="M0 0h20v20H0z"/><path class="cls-2" d="M12.84 12.78a1.05 1.05 0 0 0-.11-2.1 1 1 0 0 0-1 1.08 1.08 1.08 0 0 0 .3.7A6.63 6.63 0 0 1 8.9 15.4a5 5 0 0 1-3.06.6 2.63 2.63 0 0 1-1.91-1.11A2.75 2.75 0 0 1 3.78 12a4.42 4.42 0 0 1 1.28-1.5 9.51 9.51 0 0 1-.25-1c-2.72 2-2.44 4.64-1.61 5.89a3.88 3.88 0 0 0 3.26 1.52 4.36 4.36 0 0 0 1.13-.13 7.19 7.19 0 0 0 5.25-4z"/><path class="cls-2" d="M16.15 10.45a7.63 7.63 0 0 0-5.93-2.59h-.3A1 1 0 0 0 9 7.3a1.05 1.05 0 0 0 0 2.1 1 1 0 0 0 1-.64h.34a7.13 7.13 0 0 1 4 1.22 5.07 5.07 0 0 1 2 2.4 2.6 2.6 0 0 1 0 2.22 2.76 2.76 0 0 1-2.57 1.54 4.8 4.8 0 0 1-1.84-.4c-.21.19-.58.49-.84.68a5.84 5.84 0 0 0 2.42.58 4.07 4.07 0 0 0 3.64-2 4.24 4.24 0 0 0-1-4.55z"/><path class="cls-2" d="M6.61 13.1a1.06 1.06 0 0 0 1.06 1 1.05 1.05 0 0 0 0-2.1.27.27 0 0 0-.13 0 6.91 6.91 0 0 1-1-4.17A5 5 0 0 1 7.63 5a3.26 3.26 0 0 1 2.31-1.1c2 0 2.83 2.44 2.89 3.44a8.64 8.64 0 0 1 .93.28c-.22-3-2.1-4.62-3.9-4.62A4.25 4.25 0 0 0 6 6a7.66 7.66 0 0 0 .76 6.53.87.87 0 0 0-.15.57z"/></svg>