<svg xmlns="http://www.w3.org/2000/svg" viewBox="0 0 20 20">
  <rect width="100%" height="100%" fill="#764ABC"/>
  <path fill="#fff" d="M7.47 14.3c-.61 0-1.12-.49-1.14-1.1a.91.91 0 0 1 .14-.59 8.33 8.33 0 0 1-.82-7.08c.68-1.96 2.37-3.28 4.2-3.28 1.95 0 3.99 1.71 4.23 5-.3-.1-.75-.24-1.01-.3-.07-1.08-.98-3.76-3.14-3.72-.77.02-1.91.38-2.5 1.14a5.46 5.46 0 0 0-1.2 3.15 7.46 7.46 0 0 0 1.05 4.52c.04-.02.1-.02.15-.02h.04a1.14 1.14 0 0 1 .04 2.28h-.04Z"/>
  <path fill="#fff" d="M16.67 10.33a8.27 8.27 0 0 0-6.43-2.8H9.9a1.12 1.12 0 0 0-1-.62h-.04a1.14 1.14 0 0 0 .04 2.28h.04c.45-.02.84-.3 1-.69h.37c1.54 0 3.01.45 4.33 1.32a5.45 5.45 0 0 1 2.16 2.61c.35.86.33 1.69-.04 2.4a2.99 2.99 0 0 1-2.79 1.67 5.2 5.2 0 0 1-2-.43 12 12 0 0 1-.9.74c.87.4 1.76.63 2.62.63 1.95 0 3.4-1.08 3.95-2.16.59-1.18.55-3.22-.98-4.95Z"/>
  <path fill="#fff" d="M13.09 12.86a1.14 1.14 0 0 0-.12-2.28h-.05a1.14 1.14 0 0 0-.77 1.93 7.28 7.28 0 0 1-3.34 3.2 5.5 5.5 0 0 1-3.32.63 2.83 2.83 0 0 1-2.08-1.2 3 3 0 0 1-.16-3.16 4.8 4.8 0 0 1 1.39-1.63c-.08-.26-.2-.7-.27-1.03-2.95 2.13-2.64 5.02-1.75 6.39.67 1.02 2.04 1.65 3.54 1.65a5 5 0 0 0 1.23-.14 7.81 7.81 0 0 0 5.7-4.36Z"/>
</svg>