<svg viewBox="0 0 20 20" fill="none" xmlns="http://www.w3.org/2000/svg">
<path d="M0 0H20V20H0V0Z" fill="#F2F2F2"/>
<path fill-rule="evenodd" clip-rule="evenodd" d="M6.99379 5.02414L9.71219 6.87971C9.77354 6.92057 9.84522 6.94294 9.91876 6.94419C9.99242 6.94365 10.0643 6.92122 10.1253 6.87971L12.8458 5.0179C12.9515 4.94222 13.0098 4.81605 12.9992 4.68588C12.9886 4.55569 12.9107 4.44077 12.7942 4.38343L10.0758 3.03753C9.97264 2.98749 9.8525 2.98749 9.74938 3.03753L7.03924 4.38343C6.92061 4.44108 6.84167 4.55823 6.83227 4.69053C6.8229 4.82284 6.8845 4.9501 6.99379 5.02414ZM10.8421 7.46216C10.8423 7.58522 10.9026 7.70031 11.0032 7.77003L13.1825 9.25949C13.322 9.35566 13.5087 9.34365 13.6349 9.23036L15.463 7.5953C15.5445 7.52251 15.5897 7.4171 15.5865 7.30746C15.5833 7.19783 15.532 7.09526 15.4465 7.02741L13.701 5.63156C13.5741 5.53078 13.3971 5.52405 13.2631 5.61492L11.0032 7.16054C10.9043 7.22901 10.8443 7.34133 10.8421 7.46216ZM5.42183 9.4883C5.5099 9.56741 5.55518 9.68412 5.54371 9.80242C5.53226 9.92139 5.46354 10.0271 5.35985 10.0853L4.0585 10.8654C3.92658 10.9443 3.76002 10.9329 3.63987 10.8368C3.51973 10.7408 3.47095 10.58 3.51729 10.4327L3.99859 8.91832C4.03634 8.79833 4.13205 8.70587 4.25266 8.67286C4.37319 8.63778 4.50316 8.66853 4.59557 8.75398L5.42183 9.4883ZM12.4802 9.6464L10.1274 8.03631C10.0024 7.95218 9.8393 7.95218 9.71426 8.03631L7.36147 9.6464C7.26789 9.71118 7.20861 9.81526 7.20036 9.92931C7.19426 10.0442 7.23978 10.1557 7.3243 10.233L9.67502 12.3361C9.7428 12.3966 9.83027 12.4299 9.92082 12.4297C10.0114 12.4297 10.0988 12.3964 10.1666 12.3361L12.5174 10.233C12.6021 10.156 12.6471 10.044 12.6392 9.92931C12.6327 9.81527 12.5739 9.71075 12.4802 9.6464ZM6.20471 9.23036L4.37867 7.5953C4.29651 7.52066 4.25117 7.41337 4.25473 7.302C4.25671 7.19221 4.30752 7.08914 4.39313 7.02116L6.1386 5.61701C6.26637 5.5165 6.44372 5.50979 6.5786 5.60037L8.83636 7.14597C8.94114 7.21469 9.00435 7.33208 9.00435 7.45801C9.00435 7.58393 8.94114 7.70132 8.83636 7.77003L6.65916 9.25949C6.51879 9.35524 6.33188 9.34327 6.20471 9.23036ZM15.5807 11.5789L13.7216 10.466C13.5836 10.3828 13.4078 10.3997 13.2878 10.5076L11.0156 12.5358C10.9198 12.6214 10.8748 12.7509 10.8966 12.878C10.9185 13.0051 11.0042 13.1118 11.123 13.1599L14.2752 14.4372C14.3185 14.4551 14.3648 14.4643 14.4116 14.4642C14.5579 14.4647 14.6907 14.3782 14.7503 14.2437L15.7274 12.0553C15.8069 11.8821 15.7436 11.6764 15.5807 11.5789ZM15.8389 8.91832L16.3202 10.4327H16.3161C16.3517 10.546 16.3315 10.6696 16.2617 10.7654C16.1919 10.8612 16.0808 10.9176 15.9629 10.9174C15.8967 10.9176 15.8317 10.8997 15.7749 10.8654L14.4715 10.0853C14.3699 10.0259 14.3036 9.92029 14.2938 9.80242C14.2816 9.68404 14.327 9.56702 14.4157 9.4883L15.242 8.7519C15.3353 8.66825 15.4643 8.63773 15.5849 8.67077C15.7054 8.70522 15.8008 8.79814 15.8389 8.91832ZM8.94377 12.877C8.96599 12.7504 8.92142 12.6213 8.82604 12.5358L6.55381 10.5076C6.43383 10.3997 6.25809 10.3828 6.12003 10.466L4.26093 11.5789C4.09996 11.6769 4.03627 11.88 4.11221 12.0532L5.09132 14.2416C5.17244 14.4241 5.38217 14.5095 5.56643 14.4351L8.71654 13.1578C8.83544 13.1101 8.9214 13.0039 8.94377 12.877ZM10.0592 13.5011L12.5876 14.5245C12.7112 14.5774 12.7966 14.6937 12.8107 14.8282C12.8267 14.9645 12.7662 15.0983 12.6537 15.1756L10.1233 16.9335C10.0626 16.9761 9.99063 16.9993 9.91669 17C9.84283 16.9988 9.77095 16.9756 9.71014 16.9335L7.18176 15.1756C7.06886 15.0985 7.00763 14.9648 7.0227 14.8282C7.03959 14.6923 7.12807 14.5762 7.25407 14.5245L9.78242 13.5011C9.87134 13.4656 9.97032 13.4656 10.0592 13.5011Z" fill="#BF4722"/>
</svg>
