<svg xmlns="http://www.w3.org/2000/svg" viewBox="0 0 20 20"><defs><style>.b{fill:#fff}</style></defs><path fill="#5e2b62" d="M0 0h20v20H0z"/><path class="b" d="M10.52 2c1.69 0 5.63.5 5.63 5.16a4.85 4.85 0 01-2.46 4.48L16.42 18H3.36V2zm5.13 5.16c0-1.74-.67-4.66-5.13-4.66H3.86v15h5.25v-4.92h.18L10 17.5h5.63l-2.61-6.08a4.4 4.4 0 002.63-4.26z"/><path class="b" d="M10.55 16.9h4.2l-.5-1.16-2-4.68A3.83 3.83 0 0015 7.16c-.19-3.34-2.38-4.06-4.45-4.06H4.46v13.8h4.05V12h1.3zm.35-8.21a.21.21 0 01-.16-.08.2.2 0 010-.28 1.27 1.27 0 00.5-1 1.28 1.28 0 00-.5-1 .2.2 0 010-.28A.2.2 0 0111 6a1.69 1.69 0 010 2.68.19.19 0 01-.1.01zm.66.74a.22.22 0 01-.17-.1.2.2 0 01.06-.27 2.07 2.07 0 001-1.75 2 2 0 00-1-1.74.2.2 0 11.22-.34 2.48 2.48 0 010 4.16.15.15 0 01-.11.04zm.71.78a.2.2 0 01-.11-.37 3 3 0 000-5.07.2.2 0 01-.06-.27.21.21 0 01.28-.06 3.43 3.43 0 010 5.74.2.2 0 01-.11.03zM9.06 6.44a.77.77 0 11-.77.77.77.77 0 01.77-.77z"/></svg>