<svg viewBox="0 0 20 20" fill="none" xmlns="http://www.w3.org/2000/svg">
<rect width="20" height="20" fill="#212121"/>
<path fill-rule="evenodd" clip-rule="evenodd" d="M15.6331 13.7851C15.7588 15.401 15.7588 16.1584 15.7588 16.9852H12.0202C12.0202 16.8051 12.0235 16.6404 12.0267 16.4733C12.0368 15.954 12.0474 15.4125 11.9632 14.3188C11.852 12.7177 11.1625 12.3619 9.8948 12.3619H8.77161H4.01477V9.44884H10.0727C11.6741 9.44884 12.4748 8.96169 12.4748 7.67192C12.4748 6.53782 11.6741 5.85056 10.0727 5.85056H4.01477V3H10.74C14.3653 3 16.1668 4.71229 16.1668 7.44748C16.1668 9.49331 14.8991 10.8276 13.1865 11.0499C14.6322 11.339 15.4774 12.1618 15.6331 13.7851Z" fill="white"/>
<path d="M4.01477 16.9851V14.8135H7.9678C8.62809 14.8135 8.77146 15.3032 8.77146 15.5953V16.9851H4.01477Z" fill="white"/>
</svg>
