<svg xmlns="http://www.w3.org/2000/svg" viewBox="0 0 20 20"><defs><style>.a{fill:#fff}</style></defs><path d="M0 0h20v20H0z"/><path class="a" d="M18 9.87a8 8 0 11-8-8 8 8 0 018 8zm-8-6.26a6.27 6.27 0 106.26 6.26A6.26 6.26 0 0010 3.61z"/><path class="a" d="M15.29 9.87A5.29 5.29 0 1110 4.59a5.29 5.29 0 015.29 5.28zM10 5.66a4.22 4.22 0 104.22 4.21A4.22 4.22 0 0010 5.66z"/><path class="a" d="M13.05 9.87a3.05 3.05 0 11-3.05-3 3 3 0 013.05 3zM10 7.67a2.21 2.21 0 102.21 2.2A2.2 2.2 0 0010 7.67z"/></svg>