<svg  viewBox="0 0 20 20" fill="none" xmlns="http://www.w3.org/2000/svg">
<path d="M0 0H20V20H0V0Z" fill="#9EA2A8"/>
<path d="M16.0258 8.46008L16.0261 8.46052C16.0261 8.46045 16.026 8.46037 16.026 8.4603C16.0259 8.46023 16.0259 8.46015 16.0258 8.46008ZM6.8187 3.59448C7.31172 3.86826 7.77775 4.21465 8.17574 4.59966C8.81728 4.48348 9.47879 4.4249 10.1499 4.4249C12.1588 4.4249 14.0635 4.95183 15.5127 5.90833C16.2632 6.40391 16.8597 6.9919 17.2855 7.65614C17.7596 8.39629 18 9.19222 18 10.0451C18 10.875 17.7596 11.6713 17.2855 12.4112C16.8597 13.0758 16.2632 13.6636 15.5127 14.1592C14.0635 15.1157 12.159 15.6423 10.1499 15.6423C9.47879 15.6423 8.81744 15.5837 8.17574 15.4677C7.77759 15.8526 7.31172 16.1991 6.8187 16.4729C4.18448 17.792 2 16.5039 2 16.5039C2 16.5039 4.031 14.7799 3.70073 13.2686C2.79199 12.3373 2.29961 11.2141 2.29961 10.0225C2.29961 8.85325 2.79215 7.73007 3.70073 6.79866C4.03095 5.28775 2.00067 3.56402 2 3.56345C2.00065 3.56307 4.18487 2.27544 6.8187 3.59448Z" fill="#DB2323"/>
<path fill-rule="evenodd" clip-rule="evenodd" d="M5.24313 12.6449C4.34028 11.9335 3.79835 11.0232 3.79835 10.031C3.79835 7.75417 6.65188 5.90845 10.1719 5.90845C13.6919 5.90845 16.5455 7.75417 16.5455 10.031C16.5455 12.3078 13.6919 14.1535 10.1719 14.1535C9.30436 14.1535 8.4773 14.0414 7.72347 13.8384L7.17235 14.3698C6.87289 14.6586 6.5219 14.9199 6.15604 15.1258C5.6711 15.3639 5.19223 15.4938 4.71846 15.5335C4.74518 15.4849 4.76979 15.4357 4.79621 15.387C5.34844 14.3699 5.49741 13.4559 5.24313 12.6449Z" fill="white"/>
<path d="M7.11552 11.0118C6.59802 11.0118 6.17851 10.5856 6.17851 10.0598C6.17851 9.5341 6.59802 9.10791 7.11552 9.10791C7.63301 9.10791 8.05253 9.5341 8.05253 10.0598C8.05253 10.5856 7.63301 11.0118 7.11552 11.0118ZM10.1322 11.0118C9.61473 11.0118 9.19522 10.5856 9.19522 10.0598C9.19522 9.5341 9.61473 9.10791 10.1322 9.10791C10.6497 9.10791 11.0692 9.5341 11.0692 10.0598C11.0692 10.5856 10.6497 11.0118 10.1322 11.0118ZM13.1489 11.0118C12.6314 11.0118 12.2119 10.5856 12.2119 10.0598C12.2119 9.5341 12.6314 9.10791 13.1489 9.10791C13.6664 9.10791 14.0859 9.5341 14.0859 10.0598C14.0859 10.5856 13.6664 11.0118 13.1489 11.0118Z" fill="#DB2323"/>
</svg>
