<svg xmlns="http://www.w3.org/2000/svg" viewBox="0 0 20 20"><path fill="#db2323" d="M0 0h20v20H0z"/><path d="M17.29 7.5a6 6 0 00-1.78-1.75 9.79 9.79 0 00-5.36-1.49 10.69 10.69 0 00-2 .18 6.76 6.76 0 00-1.36-1A5.27 5.27 0 002 3.4s2 1.73 1.7 3.24a4.59 4.59 0 00-1.4 3.22 4.62 4.62 0 001.4 3.25C4 14.62 2 16.35 2 16.35a5.29 5.29 0 004.82 0 6.72 6.72 0 001.36-1 11.64 11.64 0 002 .17A9.78 9.78 0 0015.51 14a6.07 6.07 0 001.78-1.75 4.33 4.33 0 000-4.75zM10.17 14a9.61 9.61 0 01-2.45-.31l-.55.53a5.34 5.34 0 01-1 .76 3.81 3.81 0 01-1.44.4s0-.09.08-.14a3.47 3.47 0 00.44-2.74A3.41 3.41 0 013.8 9.87c0-2.28 2.85-4.12 6.37-4.12s6.38 1.84 6.38 4.12S13.69 14 10.17 14zm5.86-5.7z" fill="#fff" fill-rule="evenodd"/><path d="M7.12 10.85a1 1 0 11.93-.95.94.94 0 01-.93.95zm3 0a1 1 0 11.94-.95.93.93 0 01-.93.95zm3 0a1 1 0 11.94-.95.94.94 0 01-.91.95z" fill="#fff"/></svg>