<svg xmlns="http://www.w3.org/2000/svg" viewBox="0 0 20 20"><path fill="#af6bd6" d="M0 0h20v20H0z"/><path d="M11.82 2.42a2.37 2.37 0 01-.45.58 1.85 1.85 0 01-1.37.31 2.85 2.85 0 00-2.86 2.85v1.25l-.06.06a3.06 3.06 0 00-1 2.4 5.93 5.93 0 001 3H5.26a1.09 1.09 0 01-1.09-.79h-1v.13c0 1.22 1 1.77 2.06 1.77H7.5L7 15.74a1.81 1.81 0 00.09 1.35 1.16 1.16 0 00.78.62 1.22 1.22 0 00.73-.06h.15l.07.13.11.16a1.32 1.32 0 002.12 0l.1-.16.08-.13h.14a1.15 1.15 0 00.71.06 1.24 1.24 0 00.79-.62 1.8 1.8 0 00.13-1.35L12.5 14h2.27c1.08 0 2.06-.55 2.06-1.77v-.11h-1a1.08 1.08 0 01-1.09.79h-1.81a6 6 0 001-3 3 3 0 00-1-2.4l1.38-.9a4.23 4.23 0 00-1.67-1.71 2.2 2.2 0 00-.28-.44l-.07-.07V4.3a2.49 2.49 0 00-.46-1.84" fill="#fff" fill-rule="evenodd"/></svg>