<svg xmlns="http://www.w3.org/2000/svg" viewBox="0 0 20 20">
  <rect width="100%" height="100%" fill="#BD0012"/>
  <path fill="#fff" d="m6.63 15.68 6.57-4.2 3.36 5.57-9.93-1.35v-.02ZM17.5 5.3v.1c0 .42-.05.85-.07 1.27v.84c0 .56-.06 1.12-.09 1.7v.84l-.08 1.66v.86c0 .3-.05.86-.07 1.3 0 .28 0 .56-.05.83 0 .45-.04.89-.06 1.33-.02.44 0 .63-.05.94l-.05-.05-.54-.83-2.86-4.6c-.12-.2-.12-.2 0-.41l3.13-4.69c.24-.34.46-.7.7-1.03l.09-.06ZM3.6 9.61l1.15-1.72c.16-.23.35-.43.56-.62L7.33 5.4c.26-.25.56-.46.87-.64l2.12-1.2a.3.3 0 0 1 .27 0c.3.13.61.23.94.35h.06v.07l-.82 1.63a.74.74 0 0 1-.18.24l-2.65 2.4-.46.45a1.8 1.8 0 0 1-.3.21 44.84 44.84 0 0 1-2.8 1.4.2.2 0 0 1-.12-.05l-.65-.65Zm4.03-.12 5.18 1.66-6.56 4.22c0-.07 1.31-5.7 1.38-5.88Zm9.26-4.2-3.68 5.54-1.88-4.6c.05 0 4.88-.87 5.56-.94ZM7.7 9.04l3.24-2.87 1.87 4.55-5.1-1.68Zm-1.8 6.48-3.4.09 1.77-4.24 1.62 4.15Zm.04-.98L4.5 10.79l2.69-1.37-.2.86-.2.86-.22.86-.2.84-.2.85-.22.85Zm5.25-8.75a.3.3 0 0 1 0-.12l.8-1.62c.06-.11.1-.13.21-.1l1.2.31 2.66.7h.13c-.05.1-4.42.77-5 .83Zm1.88-2.08 3.65-.8.78 2.02-4.43-1.22ZM3.16 16.12a.22.22 0 0 1 .17-.05h.69l1.65-.05c.28 0 .56.01.84.06l.94.1 1.13.16 1.13.16 1.06.15 1 .14 1.4.19 1.12.15h.1-.05l-.77-.08-.87-.07-1.1-.1-.87-.1-1.07-.09-.86-.08-1.08-.07-.86-.07-1.06-.1-.87-.08-.94-.08-.83-.09Zm-.66-1.7.88-4.34.33.34.27.27c.1.12.12.17.06.31l-.69 1.59-.73 1.7-.12.15v-.01Zm8.7-11.16c.43-.08 3.47-.48 3.55-.46h-.07l-.69.16-1.83.46c-.25.06-.5.04-.73-.07l-.22-.09Z"/>
</svg>