<svg baseProfile="basic" xmlns="http://www.w3.org/2000/svg" viewBox="0 0 64 64"><g><path d="M31.929 26.533h-25.947c-.552 0-1-.448-1-1s.448-1 1-1h25.946c.552 0 1 .448 1 1s-.447 1-.999 1zM20.779 26.426l-.207-.021c-.331-.07-.604-.302-.726-.617l-4.056-10.469c-.199-.515.056-1.094.571-1.294.516-.199 1.095.057 1.294.571l3.501 9.038 10.127-10.127c.391-.391 1.023-.391 1.414 0 .39.391.39 1.023 0 1.414l-11.211 11.212c-.189.19-.444.293-.707.293zM31.311 51.811c-.393 0-.765-.232-.924-.617l-10.532-25.384c-.211-.51.03-1.095.541-1.307.512-.212 1.096.03 1.307.541l10.531 25.385c.211.51-.03 1.095-.541 1.307-.125.05-.255.075-.382.075zM57.882 26.533h-25.946c-.552 0-1-.448-1-1s.448-1 1-1h25.946c.553 0 1 .448 1 1s-.447 1-1 1zM43.085 26.426c-.263 0-.518-.104-.707-.293l-11.212-11.212c-.391-.391-.391-1.023 0-1.414s1.023-.391 1.414 0l10.127 10.127 3.501-9.038c.199-.515.778-.771 1.294-.571.515.2.771.779.571 1.294l-4.056 10.469c-.122.315-.396.547-.727.617l-.205.021zM32.554 51.811c-.127 0-.257-.024-.383-.076-.51-.212-.752-.797-.541-1.307l10.531-25.385c.213-.51.799-.75 1.307-.541.511.212.753.797.541 1.307l-10.531 25.384c-.16.385-.532.618-.924.618zM31.873 52.634c-.621 0-1.21-.259-1.636-.715-.463-.357-1.072-.922-2.061-1.911l-22.491-22.491c-1.093-1.094-1.093-2.873 0-3.966l9.515-9.515c.529-.53 1.234-.821 1.983-.821h29.499c.75 0 1.454.292 1.983.822l9.515 9.515c1.093 1.093 1.093 2.872.001 3.966l-22.493 22.49c-1.236 1.236-1.889 1.814-2.397 2.117-.402.329-.901.509-1.418.509zm-14.69-37.42c-.215 0-.417.083-.569.235l-9.515 9.515c-.313.314-.313.824 0 1.138l22.491 22.492c.965.965 1.542 1.499 1.927 1.786l.171.162c.058.07.227.137.348.024l.199-.142c.456-.247 1.566-1.357 2.04-1.831l22.491-22.491c.313-.314.313-.825 0-1.138l-9.516-9.515c-.149-.15-.356-.235-.568-.235h-29.499z"/></g></svg>