<svg xmlns="http://www.w3.org/2000/svg" viewBox="0 0 80 80"><path d="M79.32 38.77l-3.69-2.28 3.17-3a1.44 1.44 0 00.43-1.33 1.47 1.47 0 00-.91-1.08l-4-1.51 2.52-3.52a1.44 1.44 0 00.17-1.4 1.46 1.46 0 00-1.11-.87l-4.27-.7 1.79-3.94a1.45 1.45 0 00-.11-1.41 1.43 1.43 0 00-1.31-.6l-4.33.16 1-4.22a1.44 1.44 0 00-1.74-1.74l-4.22 1L62.87 8a1.45 1.45 0 00-.64-1.25 1.48 1.48 0 00-1.41-.12l-3.94 1.8-.7-4.28a1.45 1.45 0 00-2.27-.94l-3.52 2.52-1.52-4.05A1.44 1.44 0 0047.8.77a1.46 1.46 0 00-1.34.43l-3 3.16L41.23.68a1.45 1.45 0 00-2.46 0l-2.28 3.69-3-3.17A1.44 1.44 0 0032.2.77a1.47 1.47 0 00-1.08.91l-1.51 4.05-3.52-2.53a1.45 1.45 0 00-2.27.94l-.7 4.28-3.94-1.8a1.48 1.48 0 00-1.41.12A1.45 1.45 0 0017.13 8l.16 4.33-4.22-1a1.44 1.44 0 00-1.74 1.74l1 4.22L8 17.13a1.43 1.43 0 00-1.25.64 1.48 1.48 0 00-.12 1.41l1.8 3.94-4.28.7a1.45 1.45 0 00-.94 2.27l2.53 3.52-4.06 1.51a1.47 1.47 0 00-.91 1.08 1.44 1.44 0 00.43 1.33l3.17 3-3.69 2.24a1.45 1.45 0 000 2.46l3.69 2.28-3.17 3a1.46 1.46 0 00-.43 1.29 1.44 1.44 0 00.91 1.07l4.05 1.52-2.53 3.52a1.45 1.45 0 00.94 2.27l4.28.7-1.8 3.94a1.48 1.48 0 00.12 1.41 1.45 1.45 0 001.26.64l4.33-.16-1 4.22a1.44 1.44 0 001.74 1.74l4.22-1-.16 4.33a1.44 1.44 0 002.05 1.36l3.94-1.79.7 4.27a1.46 1.46 0 00.87 1.16 1.44 1.44 0 001.4-.17l3.52-2.52 1.51 4a1.47 1.47 0 001.08.91 1.44 1.44 0 001.33-.43l3-3.17 2.28 3.69a1.45 1.45 0 002.46 0l2.28-3.69 3 3.17a1.46 1.46 0 001.34.43 1.44 1.44 0 001.07-.91l1.52-4L54 76.83a1.44 1.44 0 001.4.17 1.46 1.46 0 00.87-1.11l.7-4.27 3.94 1.79a1.44 1.44 0 002-1.36l-.16-4.33 4.22 1a1.44 1.44 0 001.74-1.74l-1-4.22 4.33.16a1.44 1.44 0 001.36-2l-1.79-3.94 4.27-.7a1.46 1.46 0 001.12-.97 1.43 1.43 0 00-.17-1.4l-2.52-3.52 4-1.52a1.44 1.44 0 00.91-1.07 1.46 1.46 0 00-.43-1.34l-3.17-3 3.69-2.28a1.45 1.45 0 000-2.46zM39.88 7.28H40a2.4 2.4 0 11-.07 0zM9.35 31a2.36 2.36 0 012.36-2.36h.07A2.36 2.36 0 119.35 31zM12 47.71a29.08 29.08 0 01-.95-11.1l5.09-2.26a2.16 2.16 0 001.1-2.84l-1.05-2.37h4.12v18.57zm10.38 18.94a2.37 2.37 0 010-4.73h.07a2.37 2.37 0 01-.07 4.73zm35 .11a2.37 2.37 0 110-4.73h.06a2.37 2.37 0 01-.06 4.73zm3.35-6.64l-5-1.08a2.16 2.16 0 00-2.56 1.66L52 66.23a29.07 29.07 0 01-24.24-.11l-1.19-5.53A2.15 2.15 0 0024 58.93l-4.89 1a29.84 29.84 0 01-2.52-3h23.77c.26 0 .44 0 .44-.29V48.3c0-.24-.18-.29-.44-.29h-7v-5.33h7.52c.68 0 3.67.2 4.62 4 .29 1.17 1 5 1.4 6.21.45 1.37 2.26 4.1 4.2 4.1h12.31a29.5 29.5 0 01-2.69 3.13zm-27.32-25.3v-5.48h9.81c.51 0 3.58.59 3.58 2.89 0 1.9-2.36 2.59-4.29 2.59zM69 41.91h-3c-.29 0-.41.19-.41.48v1.37c0 3.22-1.82 3.93-3.42 4.1s-3.17-.64-3.41-1.56c-.89-5-2.38-6.11-4.74-8 2.93-1.86 6-4.6 6-8.26 0-4-2.72-6.45-4.56-7.67a13 13 0 00-6.25-2H18.34a29.07 29.07 0 0116.27-9.18L38.24 15a2.14 2.14 0 003 .07l4.08-3.88a29.07 29.07 0 0119.9 14.18l-2.79 6.29a2.16 2.16 0 001.1 2.84l5.36 2.38a29.37 29.37 0 01.11 5.03zm-1-8.42a2.37 2.37 0 010-4.73h.07a2.37 2.37 0 01-.07 4.73z"/></svg>