<svg xmlns="http://www.w3.org/2000/svg" viewBox="0 0 20 20">
  <rect width="100%" height="100%"/>
  <path fill="#fff" d="m18.36 9.74-.79-.48.68-.64a.3.3 0 0 0-.1-.51l-.86-.33.54-.74a.3.3 0 0 0-.2-.49l-.9-.14.37-.84a.3.3 0 0 0-.02-.3.3.3 0 0 0-.28-.13l-.92.03.21-.9a.3.3 0 0 0-.37-.36l-.9.21.04-.92a.3.3 0 0 0-.43-.3l-.84.4-.15-.92a.3.3 0 0 0-.48-.2l-.75.54-.32-.86a.3.3 0 0 0-.52-.1l-.63.67-.48-.79a.3.3 0 0 0-.52 0l-.48.79-.64-.67a.3.3 0 0 0-.28-.1.31.31 0 0 0-.23.2l-.32.86-.75-.54a.3.3 0 0 0-.48.2l-.15.91-.83-.38a.31.31 0 0 0-.3.02.3.3 0 0 0-.14.27l.03.92-.9-.21a.3.3 0 0 0-.36.37l.21.9-.92-.04a.3.3 0 0 0-.32.28c0 .06 0 .1.03.16l.38.83-.9.15a.3.3 0 0 0-.2.48l.53.75-.86.32a.31.31 0 0 0-.19.39c.02.05.05.1.09.13l.67.63-.79.48a.3.3 0 0 0 0 .52l.79.49-.67.63a.31.31 0 0 0-.1.28.3.3 0 0 0 .2.23l.86.32-.54.75a.3.3 0 0 0 .2.48l.91.15-.38.84a.31.31 0 0 0 .02.3.3.3 0 0 0 .27.13l.92-.03-.21.9a.3.3 0 0 0 .37.36l.9-.2-.04.91a.3.3 0 0 0 .44.3l.83-.39.15.9a.31.31 0 0 0 .19.25.3.3 0 0 0 .3-.03l.74-.54.32.85a.31.31 0 0 0 .23.2.3.3 0 0 0 .29-.1l.63-.67.49.79a.3.3 0 0 0 .52 0l.49-.79.63.67a.31.31 0 0 0 .43.03.3.3 0 0 0 .09-.13l.32-.85.75.54a.3.3 0 0 0 .3.03.31.31 0 0 0 .18-.23l.15-.9.83.37a.3.3 0 0 0 .4-.14.3.3 0 0 0 .03-.15l-.03-.92.9.21a.3.3 0 0 0 .36-.37l-.21-.9.92.04a.3.3 0 0 0 .29-.42l-.38-.84.9-.15a.31.31 0 0 0 .24-.2.3.3 0 0 0-.03-.3l-.54-.75.85-.32a.3.3 0 0 0 .1-.52l-.67-.63.79-.49a.3.3 0 0 0 0-.52v.01Zm-8.38-6.7H10a.51.51 0 1 1-.01 0h-.01ZM3.48 8.1a.5.5 0 0 1 .5-.5H4a.5.5 0 1 1-.51.5Zm.57 3.55a6.18 6.18 0 0 1-.2-2.36l1.08-.48a.46.46 0 0 0 .23-.6l-.22-.5h.88v3.94H4.05Zm2.2 4.02a.5.5 0 0 1 0-1h.02a.5.5 0 0 1-.01 1Zm7.44.03a.5.5 0 1 1 0-1h.02a.5.5 0 0 1-.02 1Zm.72-1.41-1.07-.23a.46.46 0 0 0-.54.35l-.25 1.18a6.18 6.18 0 0 1-5.15-.03l-.25-1.17a.46.46 0 0 0-.55-.36l-1.04.22c-.2-.2-.37-.42-.53-.64h5.05c.05 0 .1 0 .1-.06v-1.78c0-.05-.05-.06-.1-.06H8.59v-1.13h1.6c.14 0 .78.04.98.85.06.25.21 1.06.3 1.32.1.3.48.87.89.87h2.62c-.18.24-.37.46-.58.67ZM8.6 8.9V7.74h2.08c.1 0 .76.12.76.61 0 .4-.5.55-.92.55H8.6Zm7.55 1.5h-.63c-.07 0-.1.05-.1.1v.3c0 .68-.38.84-.72.87-.34.04-.67-.13-.72-.33-.2-1.06-.5-1.3-1.01-1.7.62-.4 1.28-.98 1.28-1.76 0-.85-.58-1.37-.97-1.63-.4-.25-.86-.4-1.33-.42H5.4a6.18 6.18 0 0 1 3.46-1.95l.77.8a.45.45 0 0 0 .63.02l.87-.82a6.18 6.18 0 0 1 4.23 3.01l-.6 1.34a.46.46 0 0 0 .24.6l1.14.5c.04.36.05.72.02 1.08Zm-.2-1.78a.5.5 0 0 1 0-1 .5.5 0 0 1 0 1Z"/>
</svg>