<svg viewBox="0 0 20 20" xmlns="http://www.w3.org/2000/svg">
<rect width="100%" height="100%" fill="white"/>
<path d="M17.8656 9.75498L17.1275 9.29895L17.7616 8.69891C17.7973 8.66552 17.8239 8.62357 17.839 8.57703C17.854 8.53049 17.857 8.48088 17.8476 8.43289C17.8378 8.3845 17.816 8.33934 17.7842 8.30159C17.7524 8.26384 17.7116 8.2347 17.6655 8.21687L16.8655 7.91485L17.3695 7.2108C17.3987 7.17096 17.4172 7.12428 17.4232 7.07524C17.4291 7.0262 17.4223 6.97645 17.4035 6.93078C17.3842 6.88539 17.3537 6.84562 17.3149 6.81519C17.2761 6.78476 17.2302 6.76466 17.1815 6.75677L16.3274 6.61676L16.6855 5.8287C16.7062 5.78373 16.715 5.73419 16.7112 5.68483C16.7073 5.63546 16.6909 5.5879 16.6635 5.54668C16.6343 5.50528 16.5947 5.47235 16.5487 5.45127C16.5027 5.43018 16.4518 5.42169 16.4015 5.42667L15.5354 5.45868L15.7354 4.61462C15.7471 4.56657 15.7463 4.51633 15.7329 4.46872C15.7196 4.4211 15.6942 4.37772 15.6592 4.34276C15.6243 4.3078 15.5809 4.28242 15.5333 4.26908C15.4857 4.25574 15.4354 4.25488 15.3874 4.26659L14.5433 4.46661L14.5753 3.60054C14.5769 3.55144 14.566 3.50274 14.5436 3.459C14.5212 3.41527 14.4881 3.37795 14.4473 3.35053C14.4061 3.32329 14.3586 3.30683 14.3094 3.30263C14.2601 3.29844 14.2106 3.30665 14.1653 3.32652L13.3772 3.68655L13.2372 2.83049C13.229 2.78206 13.2087 2.7365 13.1781 2.69809C13.1475 2.65968 13.1076 2.62967 13.0622 2.61088C13.0168 2.59209 12.9674 2.58513 12.9186 2.59065C12.8698 2.59618 12.8232 2.61401 12.7832 2.64247L12.0791 3.14651L11.7751 2.33645C11.758 2.29037 11.7293 2.24944 11.6918 2.21758C11.6544 2.18572 11.6094 2.16398 11.5611 2.15444C11.5128 2.14503 11.4629 2.14798 11.4161 2.16302C11.3692 2.17806 11.3269 2.20469 11.2931 2.24045L10.693 2.87249L10.247 2.13644C10.221 2.09469 10.1847 2.06026 10.1417 2.03639C10.0986 2.01252 10.0502 2 10.001 2C9.95179 2 9.90338 2.01252 9.86034 2.03639C9.8173 2.06026 9.78104 2.09469 9.75498 2.13644L9.29895 2.87449L8.69891 2.24045C8.66631 2.20597 8.6257 2.18007 8.58069 2.16507C8.53568 2.15007 8.48765 2.14641 8.44089 2.15444C8.3925 2.1642 8.34734 2.186 8.30959 2.21781C8.27184 2.24962 8.2427 2.29042 8.22487 2.33645L7.92285 3.14651L7.2188 2.64047C7.17877 2.61201 7.13217 2.59418 7.08337 2.58865C7.03456 2.58313 6.98515 2.59009 6.93977 2.60888C6.89439 2.62767 6.85453 2.65768 6.82392 2.69609C6.79331 2.7345 6.77296 2.78006 6.76477 2.82849L6.62476 3.68455L5.8367 3.32452C5.79143 3.30465 5.7419 3.29644 5.69264 3.30063C5.64338 3.30483 5.59595 3.32129 5.55468 3.34853C5.51362 3.37613 5.4803 3.41377 5.4579 3.45788C5.43549 3.502 5.42474 3.55111 5.42667 3.60054L5.45868 4.46661L4.61462 4.26659C4.56657 4.25488 4.51633 4.25574 4.46872 4.26908C4.4211 4.28242 4.37772 4.3078 4.34276 4.34276C4.3078 4.37772 4.28242 4.4211 4.26908 4.46872C4.25574 4.51633 4.25488 4.56657 4.26659 4.61462L4.46661 5.45868L3.60054 5.42667C3.55138 5.4247 3.50254 5.43545 3.45874 5.45787C3.41494 5.4803 3.37767 5.51364 3.35053 5.55468C3.32329 5.59595 3.30683 5.64338 3.30263 5.69264C3.29844 5.7419 3.30665 5.79143 3.32652 5.8367L3.68655 6.62476L2.83049 6.76477C2.78206 6.77296 2.7365 6.79331 2.69809 6.82392C2.65968 6.85453 2.62967 6.89439 2.61088 6.93977C2.59209 6.98515 2.58513 7.03456 2.59065 7.08337C2.59618 7.13217 2.61401 7.17877 2.64247 7.2188L3.14851 7.92285L2.33645 8.22487C2.29042 8.2427 2.24962 8.27184 2.21781 8.30959C2.186 8.34734 2.1642 8.3925 2.15444 8.44089C2.14501 8.48888 2.14795 8.53849 2.163 8.58503C2.17805 8.63158 2.2047 8.67352 2.24045 8.70691L2.87449 9.30695L2.13644 9.75498C2.09469 9.78104 2.06026 9.8173 2.03639 9.86034C2.01252 9.90338 2 9.95179 2 10.001C2 10.0502 2.01252 10.0986 2.03639 10.1417C2.06026 10.1847 2.09469 10.221 2.13644 10.247L2.87449 10.703L2.24045 11.3031C2.20625 11.3359 2.18056 11.3765 2.16557 11.4215C2.15059 11.4664 2.14677 11.5144 2.15444 11.5611C2.16398 11.6094 2.18572 11.6544 2.21758 11.6918C2.24944 11.7293 2.29037 11.758 2.33645 11.7751L3.14651 12.0791L2.64047 12.7832C2.61201 12.8232 2.59418 12.8698 2.58865 12.9186C2.58313 12.9674 2.59009 13.0168 2.60888 13.0622C2.62767 13.1076 2.65768 13.1475 2.69609 13.1781C2.7345 13.2087 2.78006 13.229 2.82849 13.2372L3.68455 13.3772L3.32452 14.1653C3.30465 14.2106 3.29644 14.2601 3.30063 14.3094C3.30483 14.3586 3.32129 14.4061 3.34853 14.4473C3.37613 14.4884 3.41377 14.5217 3.45788 14.5441C3.502 14.5665 3.55111 14.5773 3.60054 14.5753L4.46661 14.5433L4.26659 15.3874C4.25488 15.4354 4.25574 15.4857 4.26908 15.5333C4.28242 15.5809 4.3078 15.6243 4.34276 15.6592C4.37772 15.6942 4.4211 15.7196 4.46872 15.7329C4.51633 15.7463 4.56657 15.7471 4.61462 15.7354L5.45868 15.5354L5.42667 16.4015C5.42475 16.4508 5.43557 16.4999 5.45808 16.5439C5.4806 16.5879 5.51406 16.6254 5.55525 16.6527C5.59644 16.68 5.64396 16.6963 5.69326 16.6999C5.74255 16.7036 5.79195 16.6945 5.8367 16.6735L6.62476 16.3154L6.76477 17.1695C6.77105 17.22 6.79041 17.268 6.82094 17.3086C6.85146 17.3493 6.89208 17.3814 6.93878 17.4015C6.98445 17.4203 7.0342 17.4271 7.08324 17.4212C7.13228 17.4152 7.17896 17.3967 7.2188 17.3675L7.92285 16.8635L8.22487 17.6635C8.2427 17.7096 8.27184 17.7504 8.30959 17.7822C8.34734 17.814 8.3925 17.8358 8.44089 17.8456C8.48888 17.855 8.53849 17.852 8.58503 17.837C8.63158 17.822 8.67352 17.7953 8.70691 17.7596L9.30695 17.1255L9.76298 17.8636C9.78905 17.9053 9.8253 17.9397 9.86834 17.9636C9.91138 17.9875 9.95979 18 10.009 18C10.0582 18 10.1066 17.9875 10.1497 17.9636C10.1927 17.9397 10.229 17.9053 10.255 17.8636L10.7111 17.1255L11.3111 17.7596C11.3449 17.7953 11.3872 17.8219 11.4341 17.837C11.4809 17.852 11.5308 17.855 11.5791 17.8456C11.6274 17.836 11.6724 17.8143 11.7098 17.7824C11.7473 17.7506 11.776 17.7096 11.7931 17.6635L12.0971 16.8635L12.8012 17.3675C12.841 17.3967 12.8877 17.4152 12.9368 17.4212C12.9858 17.4271 13.0355 17.4203 13.0812 17.4015C13.1266 17.3822 13.1664 17.3517 13.1968 17.3129C13.2272 17.2741 13.2473 17.2282 13.2552 17.1795L13.3952 16.3255L14.1833 16.6835C14.2276 16.7022 14.2759 16.7095 14.3238 16.7048C14.3716 16.7 14.4176 16.6834 14.4573 16.6563C14.4971 16.6293 14.5295 16.5927 14.5515 16.5499C14.5735 16.5072 14.5844 16.4595 14.5833 16.4115L14.5513 15.5454L15.3954 15.7454C15.4434 15.7571 15.4937 15.7563 15.5413 15.7429C15.5889 15.7296 15.6323 15.7042 15.6672 15.6692C15.7022 15.6343 15.7276 15.5909 15.7409 15.5433C15.7543 15.4957 15.7551 15.4454 15.7434 15.3974L15.5434 14.5533L16.4095 14.5853C16.4575 14.5864 16.5052 14.5755 16.5479 14.5535C16.5907 14.5315 16.6273 14.4991 16.6543 14.4593C16.6814 14.4196 16.698 14.3736 16.7028 14.3258C16.7075 14.2779 16.7002 14.2296 16.6815 14.1853L16.3235 13.3972L17.1775 13.2572C17.2288 13.2478 17.2766 13.2249 17.316 13.1908C17.3553 13.1566 17.3849 13.1126 17.4015 13.0632C17.4205 13.0176 17.4274 12.9678 17.4214 12.9187C17.4155 12.8696 17.3969 12.823 17.3675 12.7832L16.8635 12.0791L17.6635 11.7751C17.7096 11.758 17.7506 11.7293 17.7824 11.6918C17.8143 11.6544 17.836 11.6094 17.8456 11.5611C17.855 11.5128 17.852 11.4629 17.837 11.4161C17.8219 11.3692 17.7953 11.3269 17.7596 11.2931L17.1255 10.693L17.8636 10.237C17.9053 10.211 17.9397 10.1747 17.9636 10.1317C17.9875 10.0886 18 10.0402 18 9.991C18 9.94178 17.9875 9.89338 17.9636 9.85034C17.9397 9.8073 17.9053 9.77104 17.8636 9.74498L17.8656 9.75498ZM9.977 3.45653H10.001C10.1277 3.45838 10.2485 3.51024 10.3371 3.60081C10.4257 3.69138 10.4749 3.81331 10.474 3.94002C10.4731 4.06672 10.4221 4.18792 10.3322 4.27719C10.2423 4.36645 10.1207 4.41655 9.994 4.41655C9.86729 4.41655 9.74573 4.36645 9.6558 4.27719C9.56588 4.18792 9.5149 4.06672 9.51398 3.94002C9.51305 3.81331 9.56226 3.69138 9.65087 3.60081C9.73948 3.51024 9.86031 3.45838 9.987 3.45653H9.977ZM3.87056 8.20087C3.87056 8.07568 3.92029 7.95562 4.00882 7.86709C4.09734 7.77857 4.21741 7.72884 4.3426 7.72884H4.3566C4.44931 7.73159 4.53916 7.76159 4.61492 7.81511C4.69068 7.86862 4.749 7.94326 4.78259 8.02972C4.81618 8.11618 4.82355 8.21062 4.80379 8.30124C4.78403 8.39187 4.738 8.47466 4.67146 8.53928C4.60492 8.60391 4.52082 8.64749 4.42966 8.6646C4.33849 8.68171 4.24431 8.67158 4.15887 8.63548C4.07343 8.59937 4.00052 8.5389 3.94925 8.46161C3.89797 8.38431 3.8706 8.29363 3.87056 8.20087V8.20087ZM4.4006 11.5431C4.19477 10.8222 4.13025 10.0683 4.21059 9.32295L5.22866 8.87092C5.33293 8.8245 5.41459 8.73871 5.45582 8.63227C5.49704 8.52584 5.49447 8.40742 5.44868 8.30288L5.23866 7.82884H6.06272V11.5431H4.4006ZM6.47675 15.3314C6.35661 15.3236 6.24394 15.2703 6.16162 15.1825C6.0793 15.0946 6.03349 14.9787 6.03349 14.8583C6.03349 14.738 6.0793 14.6221 6.16162 14.5342C6.24394 14.4464 6.35661 14.3931 6.47675 14.3853H6.49075C6.61092 14.3947 6.72299 14.4495 6.80417 14.5386C6.88535 14.6277 6.92955 14.7444 6.92777 14.8649C6.92598 14.9854 6.87835 15.1008 6.79457 15.1874C6.71079 15.2741 6.59714 15.3255 6.47675 15.3314V15.3314ZM13.4772 15.3534C13.4125 15.3576 13.3477 15.3485 13.2866 15.3266C13.2256 15.3047 13.1697 15.2706 13.1223 15.2262C13.075 15.1819 13.0373 15.1283 13.0115 15.0688C12.9857 15.0093 12.9724 14.9452 12.9724 14.8803C12.9724 14.8155 12.9857 14.7514 13.0115 14.6919C13.0373 14.6324 13.075 14.5788 13.1223 14.5344C13.1697 14.4901 13.2256 14.4559 13.2866 14.4341C13.3477 14.4122 13.4125 14.4031 13.4772 14.4073H13.4892C13.6094 14.4165 13.7215 14.4711 13.8029 14.56C13.8842 14.6489 13.9286 14.7655 13.9271 14.886C13.9255 15.0065 13.8782 15.1218 13.7946 15.2087C13.7111 15.2955 13.5976 15.3472 13.4772 15.3534V15.3534ZM14.1473 14.0253L13.1472 13.8093C13.0353 13.7855 12.9185 13.8072 12.8226 13.8694C12.7266 13.9317 12.6592 14.0294 12.6352 14.1413L12.4012 15.2474C11.639 15.5928 10.8113 15.7696 9.9746 15.7658C9.13785 15.762 8.31179 15.5777 7.55283 15.2254L7.31481 14.1193C7.30318 14.0636 7.28061 14.0107 7.2484 13.9638C7.21619 13.9168 7.17498 13.8768 7.12716 13.8459C7.07935 13.815 7.02587 13.7939 6.96984 13.7838C6.91382 13.7738 6.85635 13.775 6.80077 13.7873L5.8227 13.9873C5.64173 13.7985 5.47335 13.5981 5.31867 13.3872H10.073C10.125 13.3872 10.161 13.3872 10.161 13.3292V11.6611C10.161 11.6131 10.125 11.6031 10.073 11.6031H8.67291V10.537H10.177C10.313 10.537 10.9111 10.577 11.1011 11.3371C11.1591 11.5711 11.3011 12.3372 11.3811 12.5792C11.4711 12.8532 11.8331 13.3992 12.2212 13.3992H14.6833C14.5188 13.6202 14.339 13.8294 14.1453 14.0253H14.1473ZM8.68291 8.96493V7.86885H10.645C10.7471 7.86885 11.3611 7.98686 11.3611 8.44689C11.3611 8.82692 10.8891 8.96493 10.503 8.96493H8.68291ZM15.8014 10.383H15.2014C15.1434 10.383 15.1194 10.421 15.1194 10.479V10.7531C15.1194 11.3971 14.7553 11.5391 14.4353 11.5731C14.1153 11.6071 13.8013 11.4451 13.7533 11.2611C13.5753 10.261 13.2772 10.039 12.8052 9.66098C13.3912 9.28895 14.0053 8.74091 14.0053 8.00886C14.0053 7.2088 13.4612 6.71877 13.0932 6.47475C12.7176 6.2367 12.2872 6.09897 11.8431 6.07472H5.66869C6.52188 5.12131 7.66571 4.47593 8.92292 4.23859L9.64898 5.00064C9.72717 5.08121 9.83389 5.12782 9.94613 5.13044C10.0584 5.13306 10.1671 5.09147 10.249 5.01464L11.0651 4.23859C11.8946 4.39413 12.6803 4.7284 13.3677 5.21817C14.055 5.70795 14.6275 6.34149 15.0454 7.07479L14.4873 8.33288C14.4415 8.43743 14.439 8.55585 14.4802 8.66228C14.5214 8.76871 14.6031 8.8545 14.7073 8.90092L15.7794 9.37696C15.8155 9.71107 15.8229 10.0477 15.8014 10.383V10.383ZM15.6014 8.69891C15.4813 8.69109 15.3686 8.63785 15.2863 8.55C15.2039 8.46215 15.1581 8.34627 15.1581 8.22587C15.1581 8.10548 15.2039 7.9896 15.2863 7.90174C15.3686 7.81389 15.4813 7.76066 15.6014 7.75284H15.6154C15.7356 7.76224 15.8476 7.81706 15.9288 7.90616C16.01 7.99525 16.0542 8.11192 16.0524 8.23244C16.0506 8.35296 16.003 8.46828 15.9192 8.55493C15.8354 8.64159 15.7218 8.69307 15.6014 8.69891V8.69891Z" fill="black"/>
</svg>
