<svg xmlns="http://www.w3.org/2000/svg" viewBox="0 0 20 20">
  <rect width="100%" height="100%" fill="#fff"/>
  <g filter="url(#a)" opacity=".53">
    <path d="M17.6325 10.6143C17.6325 11.5842 17.4341 12.5446 17.0486 13.4407C16.6632 14.3368 16.0982 15.151 15.386 15.8369C14.6737 16.5227 13.8282 17.0667 12.8976 17.4379C11.967 17.8091 10.9697 18.0001 9.96242 18.0001C8.95518 18.0001 7.9578 17.8091 7.02723 17.4379C6.09666 17.0667 5.25112 16.5227 4.53889 15.8369C3.82666 15.151 3.26169 14.3368 2.87624 13.4407C2.49078 12.5446 2.29239 11.5842 2.29239 10.6143C2.29239 8.65547 3.10048 6.77687 4.53889 5.39176C5.9773 4.00666 7.9282 3.22852 9.96242 3.22852C10.9697 3.22852 11.967 3.41955 12.8976 3.79073C13.8282 4.1619 14.6737 4.70593 15.386 5.39176C16.0982 6.0776 16.6632 6.8918 17.0486 7.78789C17.4341 8.68397 17.6325 9.64439 17.6325 10.6143Z"/>
  </g>
  <path fill="url(#b)" stroke="#CDCDCD" stroke-linecap="round" stroke-linejoin="round" stroke-width=".15" d="M17.9241 9.96204C17.9241 11.0076 17.7181 12.043 17.318 13.009C16.9179 13.975 16.3314 14.8527 15.5921 15.5921C14.8527 16.3314 13.975 16.9179 13.009 17.318C12.043 17.7181 11.0076 17.9241 9.96203 17.9241C7.85037 17.9241 5.8252 17.0852 4.33203 15.5921C2.83885 14.0989 2 12.0737 2 9.96204C2 7.85038 2.83885 5.8252 4.33203 4.33203C5.8252 2.83886 7.85037 2 9.96203 2C11.0076 2 12.043 2.20595 13.009 2.60608C13.975 3.00621 14.8527 3.59269 15.5921 4.33203C16.3314 5.07137 16.9179 5.9491 17.318 6.9151C17.7181 7.8811 17.9241 8.91645 17.9241 9.96204Z"/>
  <path fill="url(#c)" d="M17.3002 9.96217C17.3002 11.9084 16.5271 13.7748 15.1509 15.151C13.7747 16.5272 11.9082 17.3003 9.96204 17.3003C8.01585 17.3003 6.14936 16.5272 4.77319 15.151C3.39702 13.7748 2.6239 11.9084 2.6239 9.96217C2.6239 8.01597 3.39702 6.14948 4.77319 4.77332C6.14936 3.39715 8.01585 2.62402 9.96204 2.62402C11.9082 2.62402 13.7747 3.39715 15.1509 4.77332C16.5271 6.14948 17.3002 8.01597 17.3002 9.96217Z"/>
  <path fill="#F4F2F3" d="M9.96203 3.00659C9.90276 3.00659 9.85504 3.05431 9.85504 3.11358V4.34764C9.85504 4.40691 9.90276 4.45462 9.96203 4.45462C10.0213 4.45462 10.069 4.40691 10.069 4.34764V3.11358C10.069 3.05431 10.0213 3.00659 9.96203 3.00659ZM9.26212 3.05083C9.25503 3.05007 9.24773 3.05007 9.24036 3.05092C9.18141 3.05707 9.1389 3.10948 9.14506 3.16843L9.19899 3.68471C9.20514 3.74366 9.25755 3.78617 9.3165 3.78001C9.37546 3.77386 9.41797 3.72145 9.41181 3.6625L9.35792 3.14622C9.35253 3.09464 9.31173 3.05564 9.26212 3.05083ZM10.6668 3.05134C10.6172 3.05612 10.5764 3.09511 10.571 3.14668L10.5167 3.66292C10.5105 3.72186 10.553 3.77432 10.6119 3.78052C10.6709 3.78672 10.7233 3.74426 10.7295 3.68531L10.7838 3.16903C10.79 3.11009 10.7475 3.05767 10.6885 3.05147C10.6812 3.05071 10.6739 3.05071 10.6668 3.05134ZM8.54314 3.15509C8.53602 3.15515 8.52878 3.15585 8.52153 3.15738C8.46355 3.16965 8.42674 3.22623 8.43902 3.28422L8.6946 4.4915C8.70687 4.54948 8.76345 4.58628 8.82143 4.57401C8.87942 4.56173 8.91622 4.5052 8.90395 4.44721L8.64837 3.23989C8.63762 3.18915 8.59298 3.1547 8.54314 3.15509ZM11.3858 3.15611C11.3359 3.1556 11.2913 3.19015 11.2805 3.24088L11.024 4.44802C11.0117 4.506 11.0485 4.56259 11.1065 4.5749C11.1644 4.58723 11.221 4.55045 11.2333 4.49248L11.4898 3.28534C11.5021 3.22737 11.4654 3.17077 11.4074 3.15846C11.4001 3.15693 11.3929 3.15611 11.3858 3.15611ZM7.85698 3.34856C7.84313 3.34729 7.82883 3.34881 7.81473 3.35349C7.75836 3.37182 7.72771 3.4319 7.74603 3.48827L7.90644 3.98197C7.92476 4.03834 7.9849 4.06899 8.04127 4.05068C8.09764 4.03235 8.12825 3.97222 8.10993 3.91585L7.94952 3.42215C7.93579 3.37987 7.89854 3.35209 7.85698 3.34856ZM12.068 3.34881C12.0265 3.35235 11.9893 3.38014 11.9755 3.42242L11.815 3.91607C11.7967 3.97243 11.8273 4.03257 11.8837 4.0509C11.94 4.06922 12.0002 4.03859 12.0185 3.98224L12.179 3.48854C12.1973 3.43217 12.1667 3.37203 12.1103 3.35371C12.0963 3.34913 12.0819 3.34764 12.068 3.34881ZM7.17845 3.59686C7.16455 3.59712 7.15048 3.60017 7.13694 3.60619C7.08281 3.63026 7.05856 3.69323 7.08264 3.74739L7.58386 4.87506C7.60793 4.92922 7.6709 4.95344 7.72506 4.92937C7.7792 4.9053 7.80349 4.84233 7.77941 4.78816L7.27814 3.66049C7.26009 3.61987 7.22015 3.59605 7.17845 3.59686ZM12.7542 3.60065C12.7126 3.59989 12.6726 3.62355 12.6545 3.66414L12.1517 4.79112C12.1276 4.84525 12.1517 4.90826 12.2058 4.93241C12.26 4.95656 12.323 4.93243 12.3471 4.8783L12.8499 3.75132C12.874 3.69719 12.8499 3.63417 12.7958 3.61002C12.7822 3.604 12.7681 3.60095 12.7542 3.60065ZM6.54863 3.9301C6.52809 3.92858 6.50693 3.93315 6.48768 3.94429C6.43635 3.97392 6.41889 4.0391 6.44852 4.09043L6.70807 4.53998C6.73771 4.59132 6.80288 4.60878 6.85421 4.57914C6.90554 4.5495 6.92301 4.48433 6.89337 4.433L6.63382 3.98345C6.61529 3.95136 6.58287 3.9325 6.54863 3.9301ZM13.3754 3.9301C13.3412 3.93239 13.3088 3.95135 13.2903 3.98344L13.0307 4.43299C13.0011 4.48432 13.0186 4.5495 13.0699 4.57913C13.1212 4.60877 13.1864 4.59131 13.216 4.53998L13.4756 4.09042C13.5052 4.03909 13.4878 3.97392 13.4364 3.94428C13.4172 3.93317 13.396 3.92868 13.3754 3.9301ZM5.93705 4.31155C5.91647 4.31231 5.89585 4.31892 5.87786 4.33196C5.82988 4.36676 5.81927 4.4334 5.85409 4.48138L6.57871 5.48027C6.61351 5.52825 6.68019 5.53886 6.72817 5.50406C6.77615 5.46926 6.78676 5.40262 6.75194 5.35464L6.02728 4.35575C6.00552 4.32576 5.97135 4.31038 5.93705 4.31155ZM13.9947 4.31699C13.9604 4.31572 13.9262 4.3311 13.9044 4.36104L13.1784 5.35896C13.1435 5.40689 13.1541 5.47356 13.202 5.50843C13.2499 5.5433 13.3166 5.5328 13.3515 5.48489L14.0774 4.48697C14.1123 4.43904 14.1017 4.37237 14.0538 4.3375C14.0359 4.32444 14.0152 4.31773 13.9947 4.31699ZM5.39039 4.77001C5.36308 4.76848 5.33522 4.77761 5.31319 4.79743C5.26914 4.83709 5.2656 4.90446 5.30526 4.94852L5.65258 5.33435C5.69224 5.3784 5.75961 5.38195 5.80367 5.34228C5.84772 5.30262 5.85126 5.2352 5.8116 5.19115L5.46432 4.80536C5.44449 4.78333 5.41771 4.77144 5.39039 4.77001ZM14.5345 4.77077C14.5071 4.77229 14.4804 4.78411 14.4605 4.80614L14.1132 5.19188C14.0735 5.23593 14.077 5.30335 14.1211 5.34301C14.1652 5.38267 14.2325 5.37911 14.2722 5.33508L14.6196 4.94934C14.6592 4.90529 14.6557 4.83787 14.6116 4.79821C14.5896 4.77838 14.5618 4.76934 14.5345 4.77077ZM4.86645 5.27328C4.83914 5.27481 4.8124 5.28663 4.79257 5.30865C4.75292 5.35271 4.75646 5.42008 4.8005 5.45974L5.71767 6.28538C5.76172 6.32504 5.82909 6.32149 5.86875 6.27745C5.90841 6.2334 5.90491 6.16602 5.86084 6.12637L4.94364 5.30072C4.9216 5.2809 4.89377 5.27185 4.86645 5.27328ZM15.0609 5.27689C15.0336 5.27537 15.0057 5.28447 14.9837 5.30427L14.066 6.12927C14.0219 6.1689 14.0183 6.23627 14.0579 6.28035C14.0975 6.32443 14.1649 6.32801 14.209 6.28839L15.1268 5.46339C15.1709 5.42376 15.1744 5.35639 15.1348 5.31231C15.115 5.29027 15.0882 5.27835 15.0609 5.27689ZM4.43075 5.83353C4.39645 5.83226 4.36225 5.84771 4.34048 5.87767C4.30564 5.92562 4.31621 5.99225 4.36417 6.02709L4.78413 6.33221C4.83208 6.36705 4.89871 6.35654 4.93355 6.30857C4.96839 6.26062 4.95784 6.19395 4.90991 6.15911L4.48995 5.85399C4.47198 5.84092 4.45133 5.83426 4.43075 5.83353ZM15.4962 5.83742C15.4756 5.83818 15.455 5.84476 15.437 5.85783L15.0169 6.16267C14.9689 6.19748 14.9583 6.26416 14.9931 6.31214C15.0279 6.36011 15.0945 6.37068 15.1425 6.33588L15.5627 6.03104C15.6107 5.99623 15.6212 5.92959 15.5864 5.88161C15.5647 5.85163 15.5305 5.83624 15.4962 5.83742ZM4.02359 6.43113C3.98935 6.43342 3.95696 6.45238 3.93844 6.48446C3.9088 6.53579 3.92626 6.60096 3.9776 6.6306L5.0463 7.24763C5.09763 7.27726 5.16281 7.2598 5.19244 7.20847C5.22208 7.15714 5.20462 7.09197 5.15329 7.06233L4.08458 6.4453C4.06534 6.43419 4.04413 6.4297 4.02359 6.43113ZM15.9005 6.43113C15.8799 6.4296 15.8587 6.43418 15.8395 6.44531L14.7708 7.06234C14.7194 7.09198 14.702 7.15715 14.7316 7.20848C14.7613 7.25981 14.8264 7.27727 14.8778 7.24764L15.9465 6.63061C15.9978 6.60097 16.0153 6.5358 15.9857 6.48447C15.9671 6.45239 15.9347 6.43352 15.9005 6.43113ZM3.71574 7.0681C3.67405 7.06709 3.63407 7.09095 3.61596 7.13154C3.59181 7.18568 3.61594 7.2487 3.67008 7.27284L4.14419 7.48432C4.19832 7.50846 4.26134 7.48434 4.28549 7.4302C4.30963 7.37607 4.28546 7.31305 4.23132 7.28891L3.75725 7.07743C3.74373 7.07138 3.72964 7.06838 3.71574 7.0681ZM16.2104 7.0725C16.1965 7.07275 16.1824 7.0758 16.1688 7.08183L15.6946 7.29294C15.6405 7.31706 15.6163 7.38004 15.6404 7.43418C15.6645 7.48833 15.7275 7.51255 15.7817 7.48844L16.2559 7.27728C16.31 7.25319 16.3342 7.19019 16.3101 7.13604C16.292 7.09542 16.2521 7.07167 16.2104 7.0725ZM3.44137 7.73386C3.39982 7.73734 3.36256 7.7651 3.34879 7.80737C3.33044 7.86372 3.36099 7.92388 3.41736 7.94224L4.5907 8.32457C4.64705 8.34292 4.70721 8.31234 4.72558 8.256C4.74393 8.19964 4.71337 8.13948 4.65701 8.12112L3.48367 7.7388C3.46959 7.7342 3.45522 7.73269 3.44137 7.73386ZM16.4843 7.73843C16.4704 7.73716 16.4561 7.73869 16.442 7.74336L15.2684 8.12486C15.212 8.14318 15.1814 8.20332 15.1997 8.25969C15.2181 8.31606 15.2782 8.34667 15.3346 8.32835L16.5081 7.94686C16.5645 7.92853 16.5952 7.86839 16.5768 7.81203C16.5631 7.76975 16.5258 7.74196 16.4843 7.73843ZM3.27044 8.43271C3.22059 8.43221 3.17589 8.4668 3.16511 8.51753C3.15278 8.57551 3.18956 8.6321 3.24753 8.64442L3.75531 8.75233C3.81329 8.76466 3.86987 8.72788 3.8822 8.66991C3.89453 8.61193 3.85775 8.55534 3.79978 8.54302L3.29204 8.43511C3.2848 8.43359 3.27755 8.43271 3.27044 8.43271ZM16.6539 8.43373C16.6467 8.43379 16.6395 8.43475 16.6323 8.43602L16.1245 8.54388C16.0665 8.55621 16.0298 8.61274 16.0421 8.67072C16.0544 8.7287 16.111 8.76551 16.169 8.75319L16.6767 8.64533C16.7347 8.633 16.7715 8.57642 16.7592 8.51844C16.7484 8.46771 16.7037 8.43331 16.6539 8.43373ZM3.14105 9.13567C3.09144 9.14043 3.0506 9.17935 3.04515 9.23093C3.03892 9.28987 3.08133 9.34236 3.14027 9.34858L4.36749 9.47833C4.42644 9.48456 4.47892 9.44211 4.48514 9.38317C4.49137 9.32423 4.44892 9.27174 4.38998 9.26552L3.16276 9.13577C3.15539 9.135 3.14814 9.135 3.14105 9.13567ZM16.7842 9.1449C16.7771 9.14414 16.7698 9.14414 16.7624 9.14499L15.535 9.27308C15.4761 9.27923 15.4336 9.33164 15.4397 9.39059C15.4459 9.44954 15.4983 9.49205 15.5573 9.4859L16.7846 9.35781C16.8436 9.35166 16.8861 9.29925 16.8799 9.24029C16.8745 9.18871 16.8338 9.14972 16.7842 9.1449ZM3.12027 9.85525C3.061 9.85525 3.01329 9.90296 3.01329 9.96223C3.01329 10.0215 3.061 10.0692 3.12027 10.0692H3.63937C3.69864 10.0692 3.7464 10.0215 3.7464 9.96223C3.7464 9.90296 3.69864 9.85525 3.63937 9.85525H3.12027ZM16.2847 9.85525C16.2254 9.85525 16.1777 9.90296 16.1777 9.96223C16.1777 10.0215 16.2254 10.0692 16.2847 10.0692H16.8038C16.8631 10.0692 16.9108 10.0215 16.9108 9.96223C16.9108 9.90296 16.8631 9.85525 16.8038 9.85525H16.2847ZM4.38855 10.4385C4.38146 10.4377 4.37421 10.4377 4.36684 10.4386L3.13943 10.5667C3.08048 10.5728 3.03798 10.6252 3.04413 10.6842C3.05028 10.7431 3.10269 10.7856 3.16164 10.7795L4.38905 10.6514C4.448 10.6452 4.4905 10.5928 4.48435 10.5339C4.47897 10.4823 4.43816 10.4433 4.38855 10.4385ZM15.5349 10.4461C15.4852 10.4508 15.4444 10.4897 15.439 10.5413C15.4327 10.6003 15.4751 10.6527 15.5341 10.659L16.7613 10.7887C16.8202 10.7949 16.8727 10.7525 16.879 10.6935C16.8852 10.6346 16.8427 10.5821 16.7838 10.5759L15.5566 10.4461C15.5492 10.4454 15.542 10.4454 15.5349 10.4461ZM3.77674 11.1688C3.76962 11.1689 3.76238 11.1696 3.75513 11.1711L3.24735 11.279C3.18937 11.2913 3.15262 11.3479 3.16493 11.4059C3.17726 11.4638 3.23384 11.5006 3.29182 11.4883L3.7996 11.3805C3.85758 11.3681 3.89433 11.3116 3.88202 11.2536C3.87124 11.2028 3.82658 11.1684 3.77674 11.1688ZM16.1472 11.1698C16.0973 11.1693 16.0527 11.2039 16.0419 11.2546C16.0296 11.3126 16.0663 11.3692 16.1243 11.3815L16.6321 11.4894C16.69 11.5017 16.7466 11.465 16.7589 11.407C16.7713 11.3491 16.7345 11.2924 16.6765 11.2801L16.1688 11.1722C16.1615 11.1707 16.1543 11.1698 16.1472 11.1698ZM4.63179 11.5912C4.61794 11.59 4.60364 11.5915 4.58954 11.5962L3.41593 11.9776C3.35956 11.996 3.32895 12.0561 3.34727 12.1125C3.3656 12.1688 3.42573 12.1995 3.4821 12.1811L4.65567 11.7996C4.71204 11.7813 4.7427 11.7212 4.72438 11.6648C4.71062 11.6225 4.67334 11.5947 4.63179 11.5912ZM15.2911 11.595C15.2496 11.5985 15.2123 11.6263 15.1985 11.6685C15.1802 11.7249 15.2107 11.785 15.2671 11.8034L16.4404 12.1857C16.4968 12.2041 16.557 12.1735 16.5753 12.1172C16.5937 12.0608 16.5631 12.0006 16.5067 11.9823L15.3334 11.6C15.3193 11.5954 15.305 11.5938 15.2911 11.595ZM4.18395 12.4268C4.17005 12.4271 4.15597 12.4301 4.14244 12.4361L3.66818 12.6472C3.61403 12.6713 3.58987 12.7343 3.61397 12.7885C3.63809 12.8426 3.70107 12.8668 3.75522 12.8427L4.22948 12.6316C4.28363 12.6075 4.30779 12.5445 4.28369 12.4903C4.26561 12.4497 4.22564 12.426 4.18395 12.4268ZM15.7384 12.4309C15.6967 12.4298 15.6567 12.4537 15.6386 12.4943C15.6145 12.5484 15.6386 12.6115 15.6927 12.6356L16.1668 12.8471C16.2209 12.8712 16.284 12.8471 16.3081 12.793C16.3322 12.7388 16.3081 12.6758 16.254 12.6517L15.7799 12.4402C15.7664 12.4341 15.7523 12.4311 15.7384 12.4309ZM5.1073 12.6627C5.08676 12.6612 5.06555 12.6658 5.0463 12.6769L3.9776 13.2939C3.92626 13.3236 3.9088 13.3887 3.93844 13.4401C3.96808 13.4914 4.03325 13.5089 4.08458 13.4792L5.15329 12.8622C5.20462 12.8326 5.22208 12.7674 5.19244 12.716C5.17391 12.684 5.14153 12.6651 5.1073 12.6627ZM14.8168 12.6627C14.7826 12.665 14.7501 12.684 14.7316 12.716C14.702 12.7674 14.7194 12.8326 14.7708 12.8622L15.8395 13.4792C15.8908 13.5088 15.956 13.4914 15.9857 13.4401C16.0153 13.3887 15.9978 13.3235 15.9465 13.2939L14.8778 12.6769C14.8585 12.6658 14.8373 12.6613 14.8168 12.6627ZM4.84073 13.5682C4.82015 13.5689 4.79953 13.5756 4.78154 13.5886L4.3614 13.8935C4.31342 13.9283 4.30281 13.9949 4.33761 14.0429C4.37242 14.0909 4.43905 14.1015 4.48703 14.0667L4.90721 13.7618C4.95519 13.727 4.9658 13.6604 4.931 13.6124C4.90925 13.5824 4.87503 13.567 4.84073 13.5682ZM15.0808 13.5718C15.0465 13.5705 15.0123 13.586 14.9905 13.6159C14.9557 13.6639 14.9662 13.7306 15.0142 13.7654L15.4342 14.0705C15.4821 14.1054 15.5487 14.0948 15.5836 14.0468C15.6184 13.9989 15.6079 13.9323 15.5599 13.8974L15.14 13.5923C15.122 13.5792 15.1014 13.5725 15.0808 13.5718ZM5.79229 13.6087C5.76499 13.6072 5.73713 13.6163 5.71509 13.6361L4.79733 14.4611C4.75325 14.5007 4.74967 14.5681 4.7893 14.6122C4.82892 14.6563 4.8963 14.6599 4.94038 14.6202L5.85814 13.7952C5.90222 13.7556 5.9058 13.6882 5.86617 13.6441C5.84637 13.6221 5.81961 13.6102 5.79229 13.6087ZM14.1292 13.6117C14.1019 13.6132 14.0751 13.625 14.0553 13.6471C14.0156 13.6911 14.0192 13.7585 14.0632 13.7981L14.9804 14.6238C15.0244 14.6634 15.0919 14.6599 15.1315 14.6158C15.1712 14.5718 15.1676 14.5044 15.1236 14.4648L14.2064 13.6391C14.1843 13.6193 14.1565 13.6102 14.1292 13.6117ZM6.66296 14.3954C6.62867 14.3942 6.59444 14.4095 6.57264 14.4395L5.84669 15.4374C5.81182 15.4853 5.82231 15.552 5.87023 15.5869C5.91816 15.6218 5.98483 15.6113 6.01969 15.5633L6.74565 14.5654C6.78051 14.5175 6.77002 14.4508 6.72211 14.4159C6.70414 14.4029 6.68354 14.3962 6.66296 14.3954ZM13.2551 14.3999C13.2346 14.4007 13.2139 14.4073 13.1959 14.4203C13.148 14.4551 13.1374 14.5218 13.1722 14.5698L13.8968 15.5686C13.9316 15.6166 13.9982 15.6272 14.0462 15.5924C14.0942 15.5576 14.1048 15.491 14.07 15.443L13.3454 14.4441C13.3236 14.4141 13.2894 14.3987 13.2551 14.3999ZM5.7258 14.5541C5.69849 14.5556 5.67171 14.5674 5.65188 14.5894L5.30455 14.9752C5.26489 15.0192 5.2684 15.0866 5.31246 15.1263C5.35651 15.166 5.42388 15.1624 5.46354 15.1183L5.81091 14.7326C5.85058 14.6885 5.84702 14.6211 5.80298 14.5815C5.78094 14.5616 5.75312 14.5526 5.7258 14.5541ZM14.1976 14.5546C14.1703 14.553 14.1425 14.5622 14.1205 14.582C14.0764 14.6216 14.0729 14.689 14.1125 14.7331L14.4598 15.1189C14.4994 15.163 14.5668 15.1665 14.6109 15.1268C14.6549 15.0872 14.6585 15.0198 14.6188 14.9757L14.2715 14.5899C14.2517 14.5679 14.2249 14.556 14.1976 14.5546ZM7.67672 14.9825C7.63503 14.9815 7.5951 15.0054 7.57699 15.0459L7.07419 16.1729C7.05004 16.2271 7.07418 16.2901 7.12831 16.3142C7.18244 16.3384 7.24545 16.3142 7.2696 16.2601L7.77239 15.1331C7.79654 15.079 7.77241 15.016 7.71828 14.9918C7.70475 14.9858 7.69062 14.9828 7.67672 14.9825ZM12.2406 14.9856C12.2266 14.9859 12.2125 14.9889 12.199 14.9949C12.1449 15.019 12.1206 15.0819 12.1447 15.1361L12.6459 16.2638C12.67 16.3179 12.733 16.3421 12.7872 16.3181C12.8413 16.294 12.8655 16.231 12.8415 16.1769L12.3402 15.0492C12.3222 15.0086 12.2822 14.9848 12.2406 14.9856ZM6.79322 15.3309C6.75899 15.3332 6.72659 15.3522 6.70807 15.3843L6.44852 15.8338C6.41889 15.8852 6.43635 15.9503 6.48768 15.98C6.53901 16.0096 6.60419 15.9921 6.63382 15.9408L6.89337 15.4913C6.92301 15.4399 6.90555 15.3748 6.85421 15.3451C6.83497 15.334 6.81376 15.3295 6.79322 15.3309ZM13.1308 15.3309C13.1103 15.3294 13.0891 15.334 13.0699 15.3451C13.0186 15.3748 13.0011 15.4399 13.0307 15.4913L13.2903 15.9408C13.3199 15.9922 13.3851 16.0096 13.4364 15.98C13.4878 15.9503 13.5052 15.8852 13.4756 15.8338L13.216 15.3843C13.1975 15.3522 13.1651 15.3333 13.1308 15.3309ZM8.79603 15.3471C8.74619 15.3465 8.70153 15.3811 8.69076 15.4318L8.4343 16.639C8.42198 16.6969 8.45875 16.7535 8.51672 16.7659C8.5747 16.7782 8.6313 16.7414 8.64361 16.6834L8.90006 15.4763C8.91239 15.4183 8.87561 15.3617 8.81764 15.3494C8.8104 15.3479 8.80315 15.3471 8.79603 15.3471ZM11.1242 15.3478C11.1171 15.3479 11.1099 15.3486 11.1027 15.3501C11.0447 15.3624 11.0079 15.4189 11.0202 15.4769L11.2757 16.6842C11.288 16.7422 11.3446 16.779 11.4026 16.7667C11.4606 16.7545 11.4974 16.6979 11.4851 16.6399L11.2295 15.4327C11.2187 15.3819 11.1741 15.3474 11.1242 15.3478ZM9.96203 15.4696C9.90276 15.4696 9.85504 15.5173 9.85504 15.5766V16.8106C9.85504 16.8699 9.90276 16.9176 9.96203 16.9176C10.0213 16.9176 10.069 16.8699 10.069 16.8106V15.5766C10.069 15.5173 10.0213 15.4696 9.96203 15.4696ZM7.99814 15.8683C7.95659 15.8719 7.9193 15.8997 7.90556 15.9419L7.7451 16.4356C7.72678 16.492 7.75741 16.5521 7.81377 16.5705C7.87013 16.5888 7.93027 16.5581 7.94859 16.5018L8.10905 16.0081C8.12738 15.9517 8.09675 15.8916 8.04039 15.8733C8.02631 15.8687 8.01199 15.8672 7.99814 15.8683ZM11.9251 15.8686C11.9112 15.8673 11.8969 15.8689 11.8828 15.8735C11.8265 15.8918 11.7958 15.952 11.8141 16.0083L11.9745 16.502C11.9929 16.5584 12.053 16.589 12.1094 16.5707C12.1657 16.5524 12.1964 16.4923 12.1781 16.4359L12.0176 15.9422C12.0039 15.8999 11.9666 15.8721 11.9251 15.8686ZM9.29047 16.1436C9.24086 16.1483 9.19998 16.1873 9.19457 16.2389L9.14031 16.7551C9.13411 16.8141 9.17657 16.8665 9.23552 16.8727C9.29447 16.8789 9.34693 16.8364 9.35313 16.7775L9.40738 16.2613C9.41358 16.2023 9.37112 16.1499 9.31217 16.1437C9.3048 16.1429 9.29756 16.1429 9.29047 16.1436ZM10.6293 16.1441C10.6222 16.1433 10.6149 16.1433 10.6075 16.1442C10.5486 16.1503 10.5061 16.2027 10.5122 16.2617L10.5662 16.778C10.5723 16.8369 10.6247 16.8794 10.6837 16.8733C10.7426 16.8671 10.7851 16.8147 10.779 16.7557L10.7251 16.2395C10.7197 16.1879 10.6789 16.1489 10.6293 16.1441Z"/>
  <g filter="url(#d)" opacity=".409">
    <path d="M14.9763 5.68262L9.12289 9.08348L5.42194 14.9098L10.8361 10.8996L14.9763 5.68262Z"/>
  </g>
  <path fill="#FF5150" d="M10.8009 10.8406L9.12314 9.08358L15.0749 5.07983L10.8009 10.8406Z"/>
  <path fill="#F1F1F1" d="M10.8009 10.8405L9.12315 9.0835L4.84918 14.8443L10.8009 10.8405Z"/>
  <path d="M4.84918 14.8444L10.8009 10.8406L15.0749 5.07983L4.84918 14.8444Z" opacity=".243"/>
  <defs>
    <filter id="a" width="17.34" height="16.771" x="1.292" y="2.229" color-interpolation-filters="sRGB" filterUnits="userSpaceOnUse">
      <feFlood flood-opacity="0" result="BackgroundImageFix"/>
      <feBlend in="SourceGraphic" in2="BackgroundImageFix" result="shape"/>
      <feGaussianBlur result="effect1_foregroundBlur_312_309" stdDeviation=".5"/>
    </filter>
    <filter id="d" width="14.644" height="14.317" x="2.877" y="3.138" color-interpolation-filters="sRGB" filterUnits="userSpaceOnUse">
      <feFlood flood-opacity="0" result="BackgroundImageFix"/>
      <feBlend in="SourceGraphic" in2="BackgroundImageFix" result="shape"/>
      <feGaussianBlur result="effect1_foregroundBlur_312_309" stdDeviation="1.272"/>
    </filter>
    <radialGradient id="c" cx="0" cy="0" r="1" gradientTransform="translate(9.995 8.892) scale(7.96201)" gradientUnits="userSpaceOnUse">
      <stop stop-color="#06C2E7"/>
      <stop offset=".25" stop-color="#0DB8EC"/>
      <stop offset=".5" stop-color="#12AEF1"/>
      <stop offset=".75" stop-color="#1F86F9"/>
      <stop offset="1" stop-color="#107DDD"/>
    </radialGradient>
    <linearGradient id="b" x1="9.962" x2="9.962" y1="17.924" y2="2" gradientUnits="userSpaceOnUse">
      <stop stop-color="#BDBDBD"/>
      <stop offset="1" stop-color="#fff"/>
    </linearGradient>
  </defs>
</svg>
