<svg xmlns="http://www.w3.org/2000/svg" viewBox="0 0 20 20"><defs><style>.b{fill:#fff}</style></defs><path fill="#ed0000" d="M0 0h20v20H0z"/><path class="b" d="M18 13.18c-.05-.08-4.87-8-7.7-7.27 0 0-2.41.41-3.6 5.61 0 0 0 .05-.06 0v-.06c0-.06 1-6.06 3.09-9a.06.06 0 01.07 0c.05 0 4.66 3.17 8.32 10.67v.07z"/><path class="b" d="M7.16 2.94v.05c0 .08-4.46 8.2-2.44 10.3 0 0 1.56 1.88 6.66.31a.06.06 0 01.06 0v.06c-.06 0-5.72 2.2-9.36 1.84a.06.06 0 010-.06c0-.05.42-5.62 5.08-12.54a.06.06 0 01.07 0s-.07.03-.07.04z"/><path class="b" d="M3.68 17.4c.09 0 9.33-.24 10.14-3 0 0 .85-2.29-3-5.93V8.4h.07c.05 0 4.77 3.86 6.27 7.19v.06c0 .01-5.16 2.4-13.44 1.83a.05.05 0 01-.05-.05l.01-.03z"/></svg>