<svg xmlns="http://www.w3.org/2000/svg" viewBox="0 0 20 20">
  <rect width="100%" height="100%"/>
  <path fill="#fff" d="M5 12.1971V13.1946C5 16.1162 7.275 17 9.7355 17C12.0796 17 14.0186 16.1845 14.3345 14.011C14.4554 13.2979 14.448 12.569 14.3126 11.8585C13.771 9.11712 8.8325 8.30075 8.45012 6.7835C8.39861 6.56048 8.39089 6.32959 8.42737 6.10362C8.4786 5.83299 8.63006 5.59165 8.85147 5.42782C9.07289 5.26399 9.34797 5.18973 9.62175 5.21987C9.78208 5.2048 9.94377 5.22461 10.0957 5.27795C10.2477 5.33129 10.3863 5.4169 10.502 5.52888C10.6177 5.64087 10.7078 5.77658 10.7661 5.92669C10.8244 6.0768 10.8496 6.23776 10.8397 6.3985V7.214H14.086V6.28475C14.086 3.4305 11.538 3 9.68912 3C7.36687 3 5.49612 3.77 5.13562 5.89887C5.03054 6.48408 5.03797 7.08395 5.1575 7.66638C5.74462 10.3176 10.3664 11.0876 11.0427 12.7886C11.1511 13.103 11.1591 13.4434 11.0655 13.7625C11.0038 14.0411 10.8396 14.2863 10.6056 14.4495C10.3716 14.6127 10.0847 14.682 9.802 14.6436C9.63649 14.6636 9.46862 14.648 9.30968 14.5977C9.15073 14.5474 9.00441 14.4636 8.88055 14.352C8.75669 14.2404 8.65817 14.1036 8.59162 13.9508C8.52508 13.7979 8.49204 13.6326 8.49475 13.4659V12.1971H5Z"/>
</svg>
