<svg xmlns="http://www.w3.org/2000/svg" viewBox="0 0 20 20">
  <rect width="100%" height="100%" fill="#FF0D68"/>
  <path fill="#fff" d="M16.25 5.81h-.15c-.35 0-.65.01-.83-.29a.7.7 0 0 1-.1-.3.93.93 0 0 1 .04-.37c.04-.11.08-.23.15-.36a.66.66 0 0 1 .53-.35c.15-.04.55-.05.83-.03.48 0 .8.46.78.94a.76.76 0 0 1-.79.76h-.46ZM13.25 9.36a1.06 1.06 0 0 0-.53.97.7.7 0 0 0 .11.32c.2.26.52.24 1 .23l.22-.01c.47 0 .82.24 1.12.55.31.3.52.65.52 1.12 0 .47-.1.93-.4 1.25-.3.3-.77.5-1.24.5-.41 0-.62 0-.83-.02l-.82-.02c-.4 0-.61 0-.82-.02l-.83-.01c-.4 0-.61-.02-.82-.04-.2-.02-.41-.04-.83-.04h-.31c-.32 0-.63-.01-.91.1a1.06 1.06 0 0 0-.54.98c.09.68.58.68 1.29.68h.47c.42 0 .62-.01.83-.02l.82-.02.82.01c.2 0 .41.02.83.02.4 0 .61-.02.82-.04.2-.02.42-.04.83-.04.6 0 1.14-.16 1.63-.45.5-.3.92-.67 1.22-1.17.28-.5.56-1.04.56-1.65 0-.58-.3-1.1-.59-1.57l-.02-.04c-.28-.5-.6-1.06-1.1-1.34a3.4 3.4 0 0 0-1.7-.3h-.23c-.24 0-.41-.01-.57.07ZM6.02 15.78c.1-.06.2-.14.28-.23a.97.97 0 0 0 .2-.7.96.96 0 0 0-.33-.6c-.19-.14-.32-.14-.76-.15h-.38l-.8.02c-.22.01-.42.03-.82.03-.45 0-.86.37-.88.81-.01.48.39.86.85.86l.84.02a16.5 16.5 0 0 0 1.12.01c.26 0 .52 0 .68-.07ZM13.62 4.16l-.29.01c-.24.02-.49.03-.93.03-.4 0-.61-.02-.82-.04-.2-.01-.41-.03-.83-.03-.41 0-.63 0-.86.02l-.65.02c-.83 0-.99.38-.97 1.12a.7.7 0 0 0 .11.32c.06.09.15.16.24.22.1.05.2.05.3.05H10.75c.4 0 .61-.01.82-.03.2-.01.41-.03.83-.03l.9.01a107.85 107.85 0 0 0 .26 0l.3-.03.04-.01c.03 0 .06-.01.08-.03.1-.05.18-.13.25-.22a.96.96 0 0 0 .18-.67.96.96 0 0 0-.3-.57.5.5 0 0 0-.25-.13l-.2-.01h-.04Z"/>
  <path fill="#fff" d="m6.27 4.2.34-.02c.28.02.34.02.49.14.16.16.29.35.32.6a.96.96 0 0 1-.2.7c-.29.25-.55.23-.96.2l-.45-.01c-.46 0-.84.28-1.15.58-.3.31-.5.68-.5 1.15 0 .46.13.9.43 1.22.3.3.76.5 1.22.5.4 0 .6-.03.81-.06.21-.03.42-.06.84-.06h.82l.82-.01c.42 0 .62.04.83.07.2.04.41.08.82.08l.2-.02c.21-.02.42-.04.6.1a.93.93 0 0 1 .32.6c.02.13 0 .25-.03.37l-.02.04c-.15.46-.18.56-1.07.57-.4 0-.61-.04-.82-.08a4.35 4.35 0 0 0-1.65-.02 4.47 4.47 0 0 1-1.65 0c-.21-.03-.42-.06-.82-.06a3.44 3.44 0 0 1-2.92-1.56 3.37 3.37 0 0 1-.37-1.68c0-.62.1-1.2.38-1.69.29-.5.78-.85 1.28-1.13.5-.3 1.02-.5 1.63-.5l.46-.02Z"/>
</svg>