<svg xmlns="http://www.w3.org/2000/svg" viewBox="0 0 20 20">
  <rect width="100%" height="100%" fill="#2F515D"/>
  <path fill="#8B9396" fill-rule="evenodd" d="M4.5 7.5c.2.2 1.5.6 3.4 1s3.9 1.9 5.4 1.4c1.1-.3 2.2-3 2.2-3.4 0-.3-.2-.6-.5-.7-1.5-.8-1.8-1-2.3-1-2.8.9-7.8.5-8.2 2.7ZM4.5 13c.2.2 1.5.6 3.4 1 2.1.4 4 1.7 5.5 1.2 1-.3 2.1-2.8 2.1-3.2 0-.3-.2-.6-.5-.7-1.1-.6-2.6-1.3-3.2-1.1-2.8.7-6.6.9-7.3 2.8Z" clip-rule="evenodd"/>
  <path fill="#fff" fill-rule="evenodd" d="M13.4 2a39 39 0 0 1-8.9 1.2v4.3A46.6 46.6 0 0 0 15 5.8l.5-.5V1c0 .4-1 .8-2 1ZM13.4 7.6a34.1 34.1 0 0 1-8.9 1.1V13A46.7 46.7 0 0 0 15 11.3l.5-.5V6.5c0 .4-1 .8-2 1ZM13.4 13a34.2 34.2 0 0 1-8.9 1.2v4.3c1.5 0 6.2-.5 9-1.3 1-.3 2-.6 2-1V12c0 .4-1 .7-2 1Z" clip-rule="evenodd"/>
</svg>