<svg xmlns="http://www.w3.org/2000/svg" viewBox="0 0 20 20"><path fill="#12424a" d="M0 0h20v20H0z"/><path d="M2.07 8.08a.27.27 0 010-.23A8.15 8.15 0 0112 2c.22 0 .43.12.64.19a.32.32 0 01.19.4l-.4 1.06a.3.3 0 01-.43.15 6.4 6.4 0 00-2.08-.35 6.32 6.32 0 00-4 1.44 6.42 6.42 0 00-2.19 3.36.3.3 0 01-.37.22l-1.1-.24a.29.29 0 01-.19-.15zm15.87 2.61a.3.3 0 00-.21-.12l-1.12-.11a.3.3 0 00-.34.26 6.41 6.41 0 01-7.21 5.5 6.88 6.88 0 01-1.42-.36.3.3 0 00-.39.17l-.44 1a.31.31 0 00.17.4H7a8.15 8.15 0 0010.52-4.63 8.74 8.74 0 00.48-1.89.29.29 0 00-.06-.22zm-6.18 1.51v-1.12a.3.3 0 00-.3-.31H2.31a.31.31 0 00-.31.31v1.13a.3.3 0 00.31.3h9.14a.3.3 0 00.31-.3zM8.25 7v1.11a.3.3 0 00.3.31h9.15a.31.31 0 00.3-.31V7a.3.3 0 00-.31-.3H8.55a.3.3 0 00-.31.3zm6.68-3.73a.92.92 0 10.92.92.92.92 0 00-.92-.92zM4.75 14.41a.92.92 0 10.92.92.92.92 0 00-.92-.92z" fill="#fff"/></svg>