<svg xmlns="http://www.w3.org/2000/svg" viewBox="0 0 20 20">
  <rect width="100%" height="100%" fill="#352E56"/>
  <path fill="#fff" d="M18.04 16.58a1.58 1.58 0 0 0 0-1.57L11.32 3.03a1.5 1.5 0 0 0-2.64 0L6.5 6.9l.56.33c1.63.97 2.97 2.35 3.89 4a11.13 11.13 0 0 1 1.41 4.86h-1.52A9.58 9.58 0 0 0 6.3 8.58l-.55-.32-2.06 3.62.55.33a5.28 5.28 0 0 1 2.52 3.88H3.28a.26.26 0 0 1-.22-.12.25.25 0 0 1 0-.26l.97-1.73c-.32-.28-.7-.5-1.1-.65l-.97 1.73a1.58 1.58 0 0 0 .55 2.14c.23.14.5.21.77.21h4.8v-.7a6.75 6.75 0 0 0-2.64-5.32l.77-1.36a8.1 8.1 0 0 1 3.36 6.65v.65h4.06v-.62c.01-2.16-.54-4.3-1.6-6.18A12.17 12.17 0 0 0 8.22 6.4l1.56-2.68a.25.25 0 0 1 .44 0l6.72 12a.25.25 0 0 1 0 .25.25.25 0 0 1-.22.12h-1.57v1.31h1.58a1.5 1.5 0 0 0 1.32-.78"/>
</svg>