<svg xmlns="http://www.w3.org/2000/svg" viewBox="0 0 20 20">
  <rect width="100%" height="100%" fill="#B1003E"/>
  <path fill="#fff" d="M4.77 3.2c-.82.04-1.36.2-1.61.49-.25.28-.27.68-.06 1.2.15.24.28.42.38.53.11.11.28.23.5.36l-.3.17-.2.63-.5.9-.82 2.04-.16.49c.1.63.2.98.28 1.05.09.08.23.1.45.1.22.24.36.32.43.25.03-.03.06-.07.05-.2a.4.4 0 0 0-.04-.1c-.03-.05-.05-.1-.05-.15 0-.04.02-.07.03-.11.03-.06.06-.12.07-.22v-.4l1.31-1.34.75.16 1 .17.24.07-.03.07c-.04.2-.01.41 0 .53.1.62-.51.78-.51.78l.32.27c.64-.11.64-.93.64-.93a2.58 2.58 0 0 1-.05-.59s.38-.44.7-1.12c.15-.32.29-.7.4-.99l.03-.1c.1-.28.13-.46.11-.51L8 6.66a3.89 3.89 0 0 0-.24-.08l-.32-.3c.77-.3 1.21-.52 1.32-.65.16-.21.45-.83.45-1.07l.06-1.63c-.45.06-.71.06-.79 0-.11-.08-.22-.42-.22-.71 0-.2-.06-.45-.18-.77l-.32-.1c-.05-.23-.1-.35-.15-.35-.05 0-.11.06-.17.17a2.86 2.86 0 0 0-.1.56c-.02.12-.04.33.1.49.11.13.25.37.4.71-.1.36-.1.58 0 .68.1.1.06.22.03.32a.43.43 0 0 0-.03.12c0 .07-.03.25-.08.51-.88.16-1.39.2-1.51.16-.13-.05-.33 0-.61.16l-.36.34c.07-.26.07-.45 0-.57a.97.97 0 0 1-.14-.47l-.04-.13c-.02-.07-.05-.15-.05-.21 0-.05.01-.13.04-.23l-.26-.24c.06 0 .1-.02.1-.05.01-.03-.04-.07-.16-.12ZM8.55 7.02c-.29.82-.49 1.36-.62 1.62a7.9 7.9 0 0 1-.67 1.07c.27.3.4.51.4.63 0 .17-.03 1.15-.12 1.6-.06.31-.13 1.84-.2 4.6 0 .47-.04.77-.14.88-.14.17-.3.63-.3.75 0 .13-.51.57-.51.57s.14.26.26.26.66-.34.89-.62a.86.86 0 0 1 .36-.28c.05-.03.1-.05.15-.1.13-.12.37-.44.25-.58-.08-.1-.12-.3-.12-.61.18-.11.32-.16.4-.16.08 0 .09-.12.1-.3 0-.2.02-.46.12-.72.12-.35.4-2.15.85-5.42.28-.82.47-1.27.57-1.35.1-.07.49-.4 1.17-1a28.2 28.2 0 0 0 1.83-1.17c.07-.06.39-.18.76-.31.6-.23 1.36-.5 1.52-.7.17-.23.52-.49 1.07-.78v-.2c.34-.13.57-.19.67-.19l.11.01c.14.02.3.04.38-.16.05-.1.07-.22.08-.33.02-.13.03-.26.12-.33a2.83 2.83 0 0 0 .6-.62c.07-.08.13-.15.08-.23-.1-.1-.55-.05-.61.05a1.3 1.3 0 0 1-.29.23c-.12.09-.25.18-.36.28-.16.14-.49.3-.99.51-.32-.28-.52-.4-.62-.35l-.17.08c-.36.18-1.16.59-1.58.71-.25.08-.8.41-1.35.75-.57.34-1.14.69-1.37.75-.46.11-.85.24-1.05.4-.14.1-.3.1-.5.1-.07 0-.15 0-.24.02-.06 0-.14.05-.23.1-.14.1-.32.2-.57.27a.6.6 0 0 0-.13.27Z"/>
</svg>