<svg xmlns="http://www.w3.org/2000/svg" viewBox="0 0 20 20">
  <rect width="100%" height="100%" fill="#CEC5B5"/>
  <path fill="#fff" d="M4.4 8.65c.34-.54.6-1.12.79-1.73.15-.95.5-1.86 1.02-2.67a3.01 3.01 0 0 1 2.48-.39c1.7.21 3.37.53 5.03.97.77.27 1.77.78 1.72 1.99v.64a4.71 4.71 0 0 1 3.2 1.83c.77 1.2.3 2.66-1.21 3.8a16.07 16.07 0 0 1-4.22 1.73c-1.97.55-4.02.81-6.06.76-2.13-.11-4.79-.43-5.93-2.36 0 0-1.45-2.81 3.16-4.5l.02-.07Zm11 .43s0 .07-.05.11a2.9 2.9 0 0 1-2.61 1.07h-4.5c-2.71 0-3.56-.75-3.77-1.3v-.12.12L4.25 11c0 .94 2.42 1.7 5.54 1.7s5.8-.45 5.8-1.7V9.2c-.09-.05-.1-.12-.14-.12h-.05Z"/>
</svg>