<svg xmlns="http://www.w3.org/2000/svg" viewBox="0 0 20 20"><path fill="#e01e5a" d="M0 0h20v20H0z"/><path d="M7.87 2.21a1.6 1.6 0 000 3.2h1.6v-1.6a1.6 1.6 0 00-1.6-1.6m0 4.27H3.61a1.6 1.6 0 000 3.2h4.26a1.6 1.6 0 100-3.2M18 8.08a1.6 1.6 0 10-3.19 0v1.6h1.6A1.6 1.6 0 0018 8.08m-4.27 0V3.81a1.6 1.6 0 10-3.2 0v4.27a1.6 1.6 0 103.2 0m-1.6 10.13a1.6 1.6 0 000-3.2h-1.6v1.6a1.6 1.6 0 001.6 1.6m0-4.27h4.26a1.6 1.6 0 000-3.2h-4.26a1.6 1.6 0 000 3.2M2 12.34a1.58 1.58 0 001.59 1.6 1.59 1.59 0 001.6-1.6v-1.6H3.61A1.6 1.6 0 002 12.34m4.27 0v4.27a1.6 1.6 0 003.2 0v-4.27a1.6 1.6 0 00-1.6-1.6 1.6 1.6 0 00-1.6 1.6" fill="#fff"/></svg>