<svg viewBox="0 0 20 20" fill="none" xmlns="http://www.w3.org/2000/svg">
<rect width="20" height="20" fill="#F2F2F2"/>
<path d="M11.9458 3.08722C11.3864 3.20548 11.1271 3.29645 10.6632 3.53298C9.40321 4.19251 8.51625 5.40697 8.24334 6.84886C8.13872 7.41742 8.17511 8.32258 8.33431 8.89569C8.5208 9.56888 8.82555 10.1283 9.38956 10.8288C9.70796 11.2291 9.82622 11.452 9.93084 11.8431C10.1446 12.671 9.78074 13.6125 9.06207 14.0901C8.70274 14.3266 8.38889 14.4176 7.81577 14.454C7.4246 14.4813 7.24721 14.5131 7.11075 14.5859C6.3557 14.9771 6.16921 15.9323 6.72867 16.5691C6.98794 16.8647 7.23811 16.9693 7.743 16.9966C8.41618 17.0285 9.29405 16.8329 9.97178 16.5008C10.9452 16.0187 11.8048 15.0862 12.2006 14.081C12.4644 13.4169 12.5144 13.1258 12.5144 12.3435C12.5144 11.6976 12.5008 11.5657 12.3961 11.1654C12.2278 10.5332 11.9413 9.98279 11.4455 9.30961C10.9725 8.68191 10.8542 8.44539 10.7723 7.99963C10.6404 7.27187 10.9679 6.45313 11.5774 5.98918C11.9822 5.68443 12.4325 5.54343 13.0193 5.54343C13.5924 5.54343 14.0018 5.27506 14.2383 4.73834C14.3111 4.57004 14.3247 4.46543 14.3111 4.20616C14.2747 3.67853 14.0245 3.31465 13.556 3.10542C13.3513 3.0099 13.2513 2.99625 12.8283 3.0008C12.5417 3.0008 12.1778 3.03719 11.9458 3.08722Z" fill="#8C52FF"/>
<path d="M12.6235 5.95268C12.0959 6.04365 11.5819 6.43482 11.3363 6.93061C11.2181 7.18078 11.2044 7.24446 11.2044 7.68112C11.2044 8.10414 11.2181 8.19056 11.3272 8.41798C11.591 8.98655 12.1414 9.38227 12.7373 9.4414C13.5196 9.51418 14.1791 9.1321 14.5385 8.40889C14.6476 8.18601 14.6613 8.10868 14.6613 7.70386C14.6613 7.30359 14.6476 7.21717 14.5385 6.9852C14.3838 6.66225 14.2428 6.48031 13.9517 6.26198C13.5969 5.99817 13.0829 5.87536 12.6235 5.95268Z" fill="#5E17EB"/>
<path d="M7.43371 10.5467C6.64681 10.6832 6.05096 11.3427 6.00547 12.1387C5.97818 12.5936 6.05096 12.8892 6.26929 13.2303C6.60133 13.7352 7.12441 14.0127 7.74756 14.0127C8.23425 14.0127 8.55265 13.8899 8.89834 13.5715C9.33954 13.1621 9.53513 12.6709 9.48055 12.0978C9.38958 11.1016 8.43439 10.3784 7.43371 10.5467Z" fill="#8C52FF"/>
<path d="M9.54965 11.0386L9.567 11.0243C8.99844 9.7735 10.8178 8.52266 12.0687 10.342C12.087 10.3686 12.1057 10.3939 12.1248 10.4181C11.9591 10.0633 11.7389 9.70793 11.4455 9.30957C10.9725 8.68187 10.8542 8.44535 10.7724 7.99959C10.6405 7.27183 10.968 6.45309 11.5775 5.98914C11.9823 5.68439 12.4326 5.54339 13.0193 5.54339C13.5925 5.54339 14.0018 5.27502 14.2383 4.7383C14.3111 4.57 14.3248 4.46538 14.3111 4.20612C14.2747 3.67849 14.0246 3.31461 13.5561 3.10537C13.3514 3.00985 13.2513 2.99621 12.8283 3.00076C12.5417 3.00076 12.1779 3.03714 11.9459 3.08718C11.3864 3.20544 11.1271 3.29641 10.6632 3.53294C9.40326 4.19247 8.51629 5.40693 8.24338 6.84881C8.13877 7.41738 8.17515 8.32254 8.33435 8.89565C8.52084 9.56883 8.82559 10.1283 9.38961 10.8288C9.44966 10.9043 9.50259 10.9734 9.54965 11.0386Z" fill="#5E17EB"/>
</svg>
