<svg xmlns="http://www.w3.org/2000/svg" viewBox="0 0 20 20">
  <rect width="100%" height="100%" fill="#528AC7"/>
  <path fill="#fff" d="M8.359 1.903C13 .883 19 5.299 19 5.299l-2.038 3.396-2.233.757c.368.266.7.582.988.941.566.906.68 1.812.226 2.604l-2.264 4.076-.046-.008c-.338.507-.9.918-1.652 1.14l-.34.113c-4.626 1.128-10.603-3.368-10.64-3.396l2.263-3.963 2.179-.702a4.29 4.29 0 0 1-.934-.883c-.684-1.063-.653-2.23.022-3.052l-.022-.004 1.699-2.944.226-.34c.34-.452.906-.792 1.585-1.018l.34-.113Z"/>
</svg>
