<svg xmlns="http://www.w3.org/2000/svg" viewBox="0 0 20 20">
  <rect width="100%" height="100%" fill="#5AC4FF"/>
  <path fill="#fff" d="M7.647 2.4a75.71 75.71 0 0 1 2.41-.15h.093c.91 0 1.556.45 1.556.45L19.5 8.24l-.047.002.035.01c-.622 1.013-1.717 1.174-1.717 1.174l-2.624.16a2.423 2.423 0 0 1-.56.035h-.01.002a2.48 2.48 0 0 1-1.293-.46l-3.528-2.51-2.122-1.498-2.12-1.51c.01-.01.022-.022.022-.034A2.495 2.495 0 0 1 7.636 2.4h.01ZM7.948 17.524a2.304 2.304 0 0 0 1.787.401l2.64-.206s1.052-.171 1.676-1.186h.007l-.005-.004.005-.008-.024-.006-7.458-5.396s-.6-.426-1.464-.426h-.127c-.708.035-1.876.138-2.382.184h-.005c-.807 0-1.602.427-2.086 1.221-.012.012-.012.023-.012.035l2.04 1.474 5.408 3.917ZM4.04 5.314l2.651-.161L8.812 6.66l2.11 1.498 3.528 2.51c1.188.842 1.51 2.546.727 3.802l-2.652.161-2.145-1.52-2.155-1.52L4.73 9.104c-1.164-.83-1.487-2.512-.715-3.755.012-.012.024-.023.024-.035Z"/>
</svg>
