<svg xmlns="http://www.w3.org/2000/svg" viewBox="0 0 20 20">
  <rect width="100%" height="100%" fill="#fff"/>
  <g clip-path="url(#a)">
    <path fill="#76B3E1" d="M18.66 5.06S12.59.54 7.9 1.58l-.35.12c-.68.23-1.25.57-1.6 1.04l-.23.35L4.01 6.1l2.97.58c1.26.81 2.86 1.16 4.35.81l5.27 1.04 2.06-3.47Z"/>
    <path fill="url(#b)" d="M18.66 5.06S12.59.54 7.9 1.58l-.35.12c-.68.23-1.25.57-1.6 1.04l-.23.35L4.01 6.1l2.97.58c1.26.81 2.86 1.16 4.35.81l5.27 1.04 2.06-3.47Z" opacity=".3"/>
    <path fill="#518AC8" d="m5.95 5.06-.46.11c-1.94.58-2.51 2.44-1.48 4.06a5.38 5.38 0 0 0 5.49 1.74l7.1-2.44S10.53 4.01 5.95 5.06Z"/>
    <path fill="url(#c)" d="m5.95 5.06-.46.11c-1.94.58-2.51 2.44-1.48 4.06a5.38 5.38 0 0 0 5.49 1.74l7.1-2.44S10.53 4.01 5.95 5.06Z" opacity=".3"/>
    <path fill="url(#d)" d="M15.34 10.27a5.15 5.15 0 0 0-5.5-1.74l-7.1 2.32-2.28 4.06 12.82 2.2 2.29-4.17c.45-.81.34-1.74-.23-2.67Z"/>
    <path fill="url(#e)" d="M13.05 14.33a5.15 5.15 0 0 0-5.5-1.74l-7.1 2.32s6.07 4.63 10.77 3.48l.34-.12c1.95-.58 2.63-2.43 1.49-3.94Z"/>
  </g>
  <defs>
    <linearGradient id="b" x1="3.15" x2="17.47" y1="1.35" y2="8.22" gradientUnits="userSpaceOnUse">
      <stop offset=".1" stop-color="#76B3E1"/>
      <stop offset=".3" stop-color="#DCF2FD"/>
      <stop offset="1" stop-color="#76B3E1"/>
    </linearGradient>
    <linearGradient id="c" x1="10.97" x2="8.41" y1="4.78" y2="13.18" gradientUnits="userSpaceOnUse">
      <stop stop-color="#76B3E1"/>
      <stop offset=".5" stop-color="#4377BB"/>
      <stop offset="1" stop-color="#1F3B77"/>
    </linearGradient>
    <linearGradient id="d" x1="2.11" x2="16.63" y1="8.44" y2="18.19" gradientUnits="userSpaceOnUse">
      <stop stop-color="#315AA9"/>
      <stop offset=".5" stop-color="#518AC8"/>
      <stop offset="1" stop-color="#315AA9"/>
    </linearGradient>
    <linearGradient id="e" x1="8.61" x2="2.66" y1="9.63" y2="31.19" gradientUnits="userSpaceOnUse">
      <stop stop-color="#4377BB"/>
      <stop offset=".5" stop-color="#1A336B"/>
      <stop offset="1" stop-color="#1A336B"/>
    </linearGradient>
    <clipPath id="a">
      <path fill="#fff" d="M0 1h19v18H0z"/>
    </clipPath>
  </defs>
</svg>