<svg viewBox="0 0 20 20" xmlns="http://www.w3.org/2000/svg">
<rect width="100%" height="100%" fill="#65A741"/>
<path fill-rule="evenodd" clip-rule="evenodd" d="M6.35108 2.5H13.6489C13.86 2.50006 14.0674 2.55567 14.2501 2.66124C14.4329 2.76681 14.5847 2.91862 14.6903 3.10142L18.3392 9.42169C18.4445 9.60461 18.5 9.81201 18.5 10.0231C18.5 10.2342 18.4445 10.4416 18.3392 10.6245L14.6903 16.9448C14.5847 17.1276 14.4329 17.2794 14.2501 17.385C14.0674 17.4906 13.86 17.5462 13.6489 17.5462H6.35108C6.14 17.5462 5.93265 17.4906 5.74986 17.385C5.56707 17.2794 5.41529 17.1276 5.30974 16.9448L1.66082 10.6245C1.55546 10.4416 1.5 10.2342 1.5 10.0231C1.5 9.81201 1.55546 9.60461 1.66082 9.42169L5.30974 3.10142C5.41529 2.91862 5.56707 2.76681 5.74986 2.66124C5.93265 2.55567 6.14 2.50006 6.35108 2.5ZM10.0003 10.3759C9.87293 10.3759 9.75076 10.3253 9.66069 10.2352C9.57062 10.1451 9.52002 10.023 9.52002 9.8956V5.25635C9.52002 5.12897 9.57062 5.00681 9.66069 4.91674C9.75076 4.82666 9.87293 4.77606 10.0003 4.77606C10.1277 4.77606 10.2499 4.82666 10.3399 4.91674C10.43 5.00681 10.4806 5.12897 10.4806 5.25635V9.8956C10.4806 10.023 10.43 10.1451 10.3399 10.2352C10.2499 10.3253 10.1277 10.3759 10.0003 10.3759ZM10.0003 14.2735C8.99804 14.2732 8.02467 13.9379 7.23483 13.321C6.44499 12.7041 5.88399 11.8409 5.64098 10.8686C5.39796 9.89629 5.48688 8.87066 5.89359 7.95468C6.3003 7.0387 7.00148 6.28493 7.8857 5.81314C7.99843 5.75283 8.1305 5.73978 8.25285 5.77684C8.37521 5.8139 8.47782 5.89806 8.53813 6.01078C8.59844 6.12351 8.6115 6.25558 8.57443 6.37793C8.53737 6.50028 8.45322 6.6029 8.34049 6.66321C7.64498 7.03347 7.09324 7.62566 6.77303 8.34559C6.45283 9.06552 6.38254 9.87184 6.57335 10.6363C6.76416 11.4008 7.20511 12.0795 7.82606 12.5645C8.44702 13.0496 9.21232 13.313 10.0003 13.313C10.7882 13.313 11.5535 13.0496 12.1744 12.5645C12.7954 12.0795 13.2363 11.4008 13.4272 10.6363C13.618 9.87184 13.5477 9.06552 13.2275 8.34559C12.9073 7.62566 12.3555 7.03347 11.66 6.66321C11.6042 6.63335 11.5548 6.59279 11.5147 6.54384C11.4745 6.49489 11.4444 6.43851 11.4261 6.37793C11.4077 6.31735 11.4015 6.25374 11.4077 6.19075C11.4139 6.12775 11.4325 6.0666 11.4624 6.01078C11.4922 5.95497 11.5328 5.90558 11.5817 5.86544C11.6307 5.8253 11.6871 5.79519 11.7477 5.77684C11.8082 5.75849 11.8718 5.75225 11.9348 5.75848C11.9978 5.7647 12.059 5.78328 12.1148 5.81314C12.999 6.28493 13.7002 7.0387 14.1069 7.95468C14.5136 8.87066 14.6025 9.89629 14.3595 10.8686C14.1165 11.8409 13.5555 12.7041 12.7657 13.321C11.9758 13.9379 11.0025 14.2732 10.0003 14.2735Z" fill="white"/>
</svg>
