<svg xmlns="http://www.w3.org/2000/svg" viewBox="0 0 20 20"><defs><style>.a{fill:#6db33f;}.b{fill:#fff;}</style></defs><rect class="a" y="0.01" width="20" height="20"/><path class="b" d="M16.56,3a6.78,6.78,0,0,1-.86,1.5,8,8,0,1,0-11.45,11,2.5,2.5,0,0,0,.33.32l.29.26a8,8,0,0,0,11.21-.95,8.05,8.05,0,0,0,1.86-4.57C18.17,8.6,17.56,6,16.56,3Zm-10.83,13a.68.68,0,1,1-.1-.95A.69.69,0,0,1,5.73,15.93Zm10.78-2.38c-2,2.61-6.17,1.72-8.84,1.85l-1,.1.41-.16A31.78,31.78,0,0,0,11.05,14a9.2,9.2,0,0,0,4.73-6,9.71,9.71,0,0,1-5.58,5.31,36.75,36.75,0,0,1-4.37,1.13l-.12-.06c-1.91-.94-2-5.08,1.51-6.41,1.53-.59,3-.26,4.64-.66A7.15,7.15,0,0,0,16.47,3.8C17.39,6.58,18.51,10.88,16.51,13.55Z"/></svg>