<svg xmlns="http://www.w3.org/2000/svg" viewBox="0 0 20 20">
  <rect width="100%" height="100%" fill="#65A741"/>
  <path fill="#fff" fill-rule="evenodd" d="M6.35 2.5h7.3a1.2 1.2 0 0 1 1.04.6l3.65 6.32a1.2 1.2 0 0 1 0 1.2l-3.65 6.32a1.2 1.2 0 0 1-1.04.6h-7.3a1.2 1.2 0 0 1-1.04-.6l-3.65-6.32a1.2 1.2 0 0 1 0-1.2L5.31 3.1a1.2 1.2 0 0 1 1.04-.6ZM10 10.38a.48.48 0 0 1-.48-.48V5.26a.48.48 0 1 1 .96 0V9.9a.48.48 0 0 1-.48.48Zm0 3.9A4.5 4.5 0 0 1 7.89 5.8a.48.48 0 0 1 .45.85 3.53 3.53 0 1 0 3.32 0 .48.48 0 0 1-.23-.28.48.48 0 0 1 .69-.56A4.5 4.5 0 0 1 10 14.26Z" clip-rule="evenodd"/>
</svg>