<svg xmlns="http://www.w3.org/2000/svg" viewBox="0 0 20 20"><path d="M0 0h20v20H0z"/><path d="M3.6 16.54l.69-2.18c.14-.45.27-.92.39-1.34.88.22 1.72.49 2.58.63a11.56 11.56 0 002.12.06c.38 0 .76-.11.87-.55s-.18-.73-.54-.91-.88-.38-1.32-.57-.7-.26-1-.41A3.89 3.89 0 015 6.21 5.62 5.62 0 0110 2a11.24 11.24 0 014.36.24l.25.07a2.08 2.08 0 011.5 3.13v.08a4.17 4.17 0 01-.64 1.14c-.37.32-.81-.12-1.21-.2a8 8 0 00-3-.21c-.36.06-.71.16-.79.59a.74.74 0 00.51.8c.58.27 1.19.48 1.76.75a13.55 13.55 0 011.82.93A3.26 3.26 0 0116 13a5.72 5.72 0 01-4.67 4.64 12.23 12.23 0 01-7.33-.7l-.4-.14z" fill="#fff"/></svg>