<svg viewBox="0 0 20 20" xmlns="http://www.w3.org/2000/svg">
<rect width="100%" height="100%" fill="#0072C6"/>
<path d="M14.7746 3.30513C14.3341 4.04572 12.308 4.60479 9.87503 4.60479C7.11999 4.60479 4.88623 3.8879 4.88623 3.00235C4.88623 2.11679 7.11999 1.3999 9.87503 1.3999C12.2834 1.3999 14.2932 1.94808 14.7608 2.67732C14.8284 2.78256 14.864 2.89158 14.864 3.00328C14.864 3.1065 14.8332 3.2074 14.7746 3.30513Z" fill="white"/>
<path fill-rule="evenodd" clip-rule="evenodd" d="M3.60449 16.0623V3.14233C3.60455 4.47254 6.36573 5.55293 9.78908 5.57073V9.04523C9.58284 9.09015 9.39174 9.16658 9.21553 9.27453C8.91371 9.45941 8.67962 9.72364 8.51324 10.067C8.34686 10.4103 8.26367 10.8014 8.26367 11.2401C8.26367 11.6354 8.3408 11.9941 8.49422 12.3159C8.64764 12.6376 8.86585 12.891 9.14823 13.0759C9.34504 13.2047 9.5587 13.2921 9.78908 13.3379V18.4912H9.87498C9.8463 18.4912 9.81767 18.4914 9.78908 18.4912C6.36569 18.4734 3.60449 17.3928 3.60449 16.0623ZM7.47485 13.0434C7.7474 12.8232 7.88347 12.5123 7.88347 12.1107C7.88347 11.8239 7.80614 11.5834 7.64854 11.3905C7.49094 11.1976 7.22758 11.0081 6.85762 10.821C6.60931 10.695 6.44544 10.5892 6.36518 10.5036C6.28492 10.4181 6.24499 10.3083 6.24499 10.1745C6.24349 10.1136 6.25632 10.0532 6.2823 9.99881C6.30829 9.94445 6.34661 9.89784 6.39381 9.86319C6.4931 9.78564 6.62833 9.74697 6.7993 9.74697C7.13958 9.74697 7.44328 9.84519 7.70999 10.0421V9.15964C7.45562 9.05164 7.13582 8.99719 6.74935 8.99719C6.31355 8.99719 5.96428 9.11164 5.70092 9.34097C5.43756 9.5703 5.30609 9.87475 5.30609 10.2543C5.30609 10.7772 5.6077 11.191 6.21134 11.4936C6.50752 11.6432 6.70399 11.7652 6.80056 11.8596C6.89712 11.9541 6.94541 12.0652 6.94541 12.193C6.94541 12.3232 6.89524 12.4272 6.79492 12.5061C6.69459 12.585 6.55225 12.6243 6.36831 12.6243C5.98748 12.6243 5.63885 12.4805 5.32239 12.1932V13.1379C5.59662 13.2954 5.93795 13.3741 6.34637 13.3741C6.82648 13.3741 7.20229 13.2636 7.47485 13.0434Z" fill="white"/>
<path d="M9.78908 9.91996V12.4553C9.6698 12.3936 9.56516 12.3017 9.47513 12.1796C9.29308 11.9327 9.20216 11.603 9.20216 11.1896C9.20216 10.7745 9.29475 10.4416 9.48078 10.1921C9.56957 10.073 9.67231 9.98225 9.78908 9.91996Z" fill="white"/>
<path fill-rule="evenodd" clip-rule="evenodd" d="M16.1455 3.14771C16.1379 4.48655 13.3333 5.57096 9.87498 5.57096C9.8463 5.57096 9.81766 5.57088 9.78906 5.57073V9.04523C9.93608 9.01321 10.0908 8.99719 10.2533 8.99719C10.6172 8.99719 10.9435 9.08675 11.2315 9.26586C11.5195 9.44497 11.7428 9.69941 11.902 10.0301C12.0613 10.3607 12.1411 10.7359 12.1411 11.1547C12.1411 11.6525 12.0352 12.0847 11.8236 12.4503C11.6121 12.8159 11.3141 13.0727 10.9297 13.2205L12.0774 14.3567H10.9186L10.099 13.3739C9.99257 13.3698 9.88923 13.3577 9.78906 13.3379V18.4912H9.87497C13.338 18.4912 16.1455 17.4041 16.1455 16.0625V3.14771ZM12.7954 13.3001H15.152L15.1518 12.527H13.6866V9.0683H12.7954V13.3001Z" fill="white"/>
<path d="M9.78906 12.4553C9.91101 12.5183 10.0483 12.5499 10.2008 12.5499C10.5083 12.5499 10.7518 12.4303 10.9322 12.1914C11.1126 11.9525 11.2031 11.625 11.2031 11.2081C11.2031 10.779 11.1157 10.4403 10.9408 10.1912C10.7658 9.94208 10.5269 9.81764 10.2232 9.81764C10.0616 9.81764 9.91693 9.85176 9.78906 9.91997V12.4553Z" fill="white"/>
</svg>
