<svg xmlns="http://www.w3.org/2000/svg" viewBox="0 0 20 20">
  <rect width="100%" height="100%" fill="#0072C6"/>
  <path fill="#fff" fill-rule="evenodd" d="M15.24 3.42c-.53.73-2.67 1.27-5.24 1.27-2.97 0-5.37-.73-5.37-1.62 0-.9 2.4-1.63 5.37-1.63 2.63 0 4.81.57 5.28 1.33.06.1.1.2.1.3-.01.12-.05.24-.14.35Z" clip-rule="evenodd"/>
  <path fill="#fff" fill-rule="evenodd" d="M3.25 3.2V16.3c0 1.36 3.02 2.46 6.75 2.46s6.75-1.1 6.75-2.46V3.21c0 1.36-3.02 2.46-6.75 2.46h-.1C6.23 5.65 3.26 4.56 3.26 3.2Zm4.17 10.03c.29-.22.44-.53.44-.94 0-.3-.09-.53-.26-.73-.17-.2-.45-.39-.85-.58a2.09 2.09 0 0 1-.53-.32.45.45 0 0 1-.13-.33.37.37 0 0 1 .16-.32c.11-.07.26-.11.44-.11.37 0 .7.1.98.3v-.9a2.8 2.8 0 0 0-1.03-.16c-.47 0-.85.11-1.13.35-.29.23-.43.54-.43.92 0 .53.33.95.98 1.25.32.16.53.28.63.38.1.1.16.2.16.33s-.06.24-.17.32a.76.76 0 0 1-.45.12 1.7 1.7 0 0 1-1.13-.44v.96c.3.16.66.24 1.1.24.52 0 .92-.11 1.22-.34Zm4.68-.6c.23-.37.34-.8.34-1.3 0-.43-.09-.81-.26-1.15-.17-.33-.41-.59-.72-.77a2.05 2.05 0 0 0-1.05-.27c-.42 0-.8.1-1.12.28-.32.18-.58.45-.76.8-.17.35-.26.74-.26 1.19 0 .4.08.76.24 1.09.17.32.4.58.7.77.31.18.65.28 1.03.3l.88 1h1.25l-1.23-1.16c.4-.15.73-.4.96-.78Zm-.95-2.28c.19.25.28.6.28 1.03 0 .42-.1.75-.3 1a.96.96 0 0 1-.78.35.94.94 0 0 1-.78-.37c-.2-.25-.3-.58-.3-1 0-.42.1-.76.3-1.01.2-.26.47-.38.8-.38.33 0 .59.12.78.38Zm2 3.14h2.53v-.78H14.1v-3.5h-.96v4.28Z" clip-rule="evenodd"/>
</svg>