<svg viewBox="0 0 20 20" fill="none" xmlns="http://www.w3.org/2000/svg">
<rect width="20" height="20" fill="#333333"/>
<path d="M2.32097 11.7218C2.21433 11.7054 1.94114 11.6394 1.715 11.5797L1.30291 11.4683L1.51428 11.0933L1.72549 10.7183L1.5548 10.5142C1.31356 10.2258 1.00207 9.59326 1.00001 9.38949C0.997781 8.91336 1.63792 8.22317 2.42331 7.8523C2.96317 7.59682 3.3921 7.59068 3.92989 7.83389L4.3353 8.0171L4.45275 7.85445C4.51663 7.76576 4.57003 7.64838 4.57003 7.59682C4.57003 7.54527 4.62343 7.5 4.68748 7.5C4.75152 7.5 4.80476 7.51642 4.80476 7.53498C4.80476 7.5804 4.33324 8.72999 4.30336 8.75884C4.29049 8.77112 4.1624 8.71358 4.0173 8.63118C3.6076 8.39825 3.09333 8.24374 2.69427 8.23346C1.76601 8.21075 1.44372 9.08659 2.09895 9.85289L2.32939 10.1229L2.95888 9.63039C3.66529 9.0803 3.74634 9.06787 4.297 9.43476C4.91569 9.84675 4.92634 10.4731 4.32879 11.1283C3.79958 11.7114 3.25559 11.8722 2.32081 11.7217L2.32097 11.7218ZM3.90447 11.0935C4.21166 10.8607 4.19037 10.43 3.85743 10.088C3.43914 9.65939 3.30914 9.67796 2.57286 10.2713C1.84086 10.8605 1.83657 10.838 2.7116 11.1079C3.28976 11.2891 3.65258 11.283 3.90447 11.0935ZM9.84974 13.364C9.64044 13.2898 9.07706 13.0652 8.59489 12.8633C7.29316 12.3152 7.10961 12.3049 6.7212 12.7603C6.63157 12.8654 6.53352 12.9312 6.5057 12.9045C6.42243 12.8241 6.67003 12.4388 6.9688 12.1855C7.21195 11.9794 7.293 11.9506 7.56206 11.9794C7.73274 11.9979 8.30041 12.1897 8.82311 12.4039C10.0033 12.888 10.3489 12.9911 10.7993 12.9911C11.3476 12.9911 11.6294 12.6202 11.4564 12.1278C11.4139 12.0041 11.4266 11.9629 11.5121 11.9629C11.6719 11.9629 11.7532 12.5398 11.6379 12.8716C11.5887 13.0136 11.4458 13.2156 11.3199 13.3165C11.1321 13.4691 11.0126 13.5021 10.6604 13.4999C10.4236 13.4979 10.0589 13.4382 9.84974 13.364ZM6.80877 11.6024C6.32437 11.3839 5.88686 10.9678 5.63497 10.4815C5.23178 9.70267 5.35543 9.20413 6.11952 8.53037C6.76173 7.9637 7.28681 7.74321 7.99322 7.74321C8.50304 7.74321 8.6119 7.77006 8.94262 7.9657C9.72578 8.43354 9.91999 9.32566 9.44847 10.298C8.89573 11.4396 7.72845 12.0146 6.80877 11.6024ZM8.43057 11.0605C8.79323 10.8874 9.04305 10.088 8.94055 9.42447C8.81246 8.60663 7.66663 8.0481 6.82577 8.39442C5.96155 8.75086 5.94868 9.70067 6.79812 10.5557C7.39122 11.1553 7.90136 11.3118 8.43057 11.0605ZM10.0759 11.7528C10.0759 11.7177 10.2102 11.656 10.3767 11.6167L10.6776 11.5446L10.7416 10.4981C10.812 9.34008 10.7607 8.20062 10.6307 8.04825C10.5836 7.99455 10.4408 7.92856 10.3106 7.89987C9.78141 7.78648 10.1334 7.70822 11.1599 7.70822C12.1864 7.70822 12.5128 7.78034 12.0241 7.89987C11.6038 8.00084 11.6015 8.00697 11.6015 9.65939C11.6015 10.5762 11.6357 11.2666 11.6848 11.3551C11.7532 11.4788 11.8555 11.5055 12.2482 11.5055C13.059 11.5055 13.3386 11.3201 13.5585 10.6339C13.6246 10.428 13.7953 10.4651 13.7355 10.6732C13.7077 10.7699 13.6631 11.0645 13.6353 11.3324L13.5841 11.8166H11.8299C10.8653 11.8166 10.0759 11.7878 10.0759 11.7528Z" fill="white"/>
<path d="M14.0599 11.7032C14.0599 11.6416 14.1219 11.5797 14.2242 11.5323C14.3609 11.4705 14.4504 11.3407 14.7747 10.7287C15.289 9.76051 16.1 8.09765 16.1767 7.84831C16.2365 7.65881 16.2494 7.64852 16.4712 7.62382C16.5993 7.6094 16.706 7.60111 16.708 7.60525C16.7103 7.6094 16.8874 7.98426 17.1029 8.43967C17.3164 8.89494 17.7453 9.76035 18.0568 10.362C18.5776 11.3736 18.6353 11.4643 18.8101 11.5466C18.9169 11.5961 19 11.6724 19 11.7177C19 11.7898 18.9083 11.7981 18.1188 11.7981C17.327 11.7981 17.2374 11.7898 17.2374 11.7157C17.2374 11.6663 17.3057 11.6127 17.4144 11.5776C17.5149 11.5467 17.5916 11.489 17.5916 11.4458C17.5916 11.4045 17.4871 11.1326 17.359 10.8421L17.1265 10.3126H15.3637L15.1952 10.671C14.8793 11.3428 14.873 11.5015 15.1674 11.5776C15.3148 11.6167 15.3553 11.6477 15.3381 11.7115C15.319 11.7858 15.2421 11.7959 14.6873 11.7959C14.0918 11.8002 14.0599 11.7959 14.0599 11.7032ZM16.9493 10.0364C16.9791 9.98499 16.3155 8.5859 16.2537 8.57148C16.2089 8.55921 15.5217 9.9273 15.5217 10.0303C15.5217 10.0818 16.9173 10.088 16.9493 10.0364Z" fill="#CA2727"/>
</svg>
