<svg xmlns="http://www.w3.org/2000/svg" viewBox="0 0 20 20">
  <rect width="100%" height="100%" fill="#333"/>
  <path fill="#fff" d="M8 15.84c-.33-.05-1.18-.25-1.88-.43l-1.28-.34.66-1.14.65-1.14-.53-.62c-.75-.88-1.71-2.8-1.72-3.42 0-1.45 1.98-3.55 4.42-4.68 1.68-.78 3.01-.8 4.68-.05l1.26.55.37-.5c.2-.26.36-.62.36-.78 0-.15.17-.29.36-.29.2 0 .37.05.37.1 0 .14-1.47 3.64-1.56 3.73-.04.04-.44-.14-.89-.39a9.66 9.66 0 0 0-4.1-1.21c-2.89-.07-3.9 2.6-1.86 4.93l.72.82 1.95-1.5c2.2-1.67 2.45-1.71 4.16-.6 1.92 1.26 1.96 3.16.1 5.15-1.64 1.78-3.33 2.27-6.24 1.8Zm4.92-1.91c.96-.71.89-2.02-.14-3.06-1.3-1.3-1.7-1.25-4 .56-2.27 1.79-2.28 1.72.44 2.54 1.8.55 2.92.53 3.7-.04Z"/>
</svg>