<?xml version="1.0" encoding="UTF-8" standalone="no"?>
<svg
   viewBox="0 0 20 20"
   version="1.1"
   id="svg488"
   sodipodi:docname="sqlalchemy.svg"
   inkscape:version="1.1.2 (b8e25be8, 2022-02-05)"
   xmlns:inkscape="http://www.inkscape.org/namespaces/inkscape"
   xmlns:sodipodi="http://sodipodi.sourceforge.net/DTD/sodipodi-0.dtd"
   xmlns="http://www.w3.org/2000/svg"
   xmlns:svg="http://www.w3.org/2000/svg">
  <defs
     id="defs492" />
  <sodipodi:namedview
     id="namedview490"
     pagecolor="#ffffff"
     bordercolor="#666666"
     borderopacity="1.0"
     inkscape:pageshadow="2"
     inkscape:pageopacity="0.0"
     inkscape:pagecheckerboard="0"
     showgrid="false"
     inkscape:zoom="73.600002"
     inkscape:cx="9.9116845"
     inkscape:cy="9.9252715"
     inkscape:window-width="2560"
     inkscape:window-height="1081"
     inkscape:window-x="0"
     inkscape:window-y="25"
     inkscape:window-maximized="0"
     inkscape:current-layer="svg488"
     showguides="true"
     inkscape:guide-bbox="true">
    <sodipodi:guide
       position="-3.3152173,10"
       orientation="0,-1"
       id="guide485" />
  </sodipodi:namedview>
  <path
     fill="#333333"
     d="M 1.5034569,11.421131 C 1.3851992,11.402275 1.0822432,11.326489 0.83145349,11.257932 l -0.45699107,-0.12795 0.23439984,-0.430729 0.2342233,-0.430732 -0.1892825,-0.234398 C 0.38627113,9.7027916 0.04084011,8.9763307 0.03854899,8.7422838 0.03612304,8.1954108 0.74597662,7.4026828 1.6169557,6.9767106 2.2156433,6.6832711 2.6913153,6.6762212 3.2877118,6.9555619 l 0.449588,0.2104307 0.1302419,-0.1868145 c 0.070848,-0.1018669 0.1300644,-0.2366904 0.1300644,-0.295907 0,-0.059213 0.059213,-0.1112078 0.1302419,-0.1112078 0.071023,0 0.1300655,0.018855 0.1300655,0.040183 0,0.052168 -0.522905,1.372558 -0.5560379,1.405691 -0.014274,0.0141 -0.156325,-0.05199 -0.3172325,-0.1466311 C 2.9302964,7.6037739 2.3599842,7.4263001 1.9174451,7.4144922 0.88802626,7.3884089 0.53061189,8.394387 1.2572492,9.27453 L 1.5127978,9.5847124 2.2108844,9.0189819 C 2.9942714,8.3871612 3.0841539,8.3728856 3.6948257,8.7942758 4.380929,9.2674801 4.3927367,9.9868895 3.7300706,10.739435 3.1431908,11.409149 2.539921,11.593847 1.5032766,11.420957 Z M 3.2595131,10.699428 C 3.6001854,10.432071 3.576569,9.9373658 3.2073447,9.5445289 2.7434804,9.0522901 2.5993162,9.0736153 1.7827963,9.7551349 0.97103434,10.431895 0.96627548,10.405988 1.9366539,10.715994 c 0.6411614,0.208141 1.0435175,0.20109 1.322859,-0.01657 z m 6.5931414,2.607823 C 9.6205464,13.222129 8.995775,12.964111 8.4610621,12.732178 7.0174801,12.102651 6.8139232,12.090842 6.3831929,12.613922 c -0.0994,0.120724 -0.2081402,0.196331 -0.238982,0.165667 -0.092352,-0.09235 0.1822326,-0.534891 0.5135639,-0.825862 0.2696472,-0.23669 0.3595298,-0.269823 0.6579035,-0.23669 0.1892823,0.02115 0.8188113,0.241448 1.3984653,0.48748 1.3087594,0.556037 1.6920814,0.674471 2.1915454,0.674471 0.608028,0 0.920503,-0.425973 0.728752,-0.991527 -0.04723,-0.142049 -0.03313,-0.189458 0.06169,-0.189458 0.177299,0 0.267356,0.662662 0.139583,1.043693 -0.05464,0.163198 -0.213074,0.395131 -0.352656,0.511096 -0.208315,0.175183 -0.340849,0.213075 -0.731396,0.210606 -0.262598,-0.0023 -0.667247,-0.07085 -0.8991778,-0.156147 z M 6.4803009,11.284017 C 5.9431206,11.03305 5.4579319,10.555087 5.1785912,9.9965826 4.73147,9.1019897 4.8685853,8.5293857 5.7159473,7.7555154 6.4281336,7.1046608 7.0104313,6.8514039 7.7938178,6.8514039 c 0.5653785,0 0.6861025,0.030842 1.0528583,0.255548 0.8685115,0.5373562 1.0838767,1.562016 0.5609732,2.6788481 -0.612964,1.311227 -1.9074475,1.971421 -2.9273484,1.498039 z m 1.7985298,-0.62248 C 8.6810099,10.462737 8.9580598,9.5445289 8.8443853,8.7824666 8.7023361,7.8431068 7.4316447,7.2015929 6.4991583,7.5993668 5.5407644,8.0087724 5.526489,9.0996987 6.4684941,10.081706 c 0.657728,0.688747 1.2234588,0.868511 1.8103387,0.579831 z m 1.8246143,0.795194 c 0,-0.04036 0.148923,-0.111208 0.333622,-0.156324 l 0.333622,-0.08282 0.07102,-1.201958 C 10.919793,8.6855348 10.862861,7.3767757 10.718697,7.2017694 10.666529,7.1400855 10.50809,7.064302 10.363749,7.0313452 9.776869,6.9011037 10.167241,6.8112213 11.305576,6.8112213 c 1.138335,0 1.500331,0.082833 0.958394,0.2201239 -0.466155,0.1159659 -0.468623,0.1230156 -0.468623,2.0209452 0,1.0530326 0.03789,1.8459356 0.09235,1.9476266 0.07577,0.142049 0.189282,0.172716 0.624771,0.172716 0.899176,0 1.209184,-0.212898 1.453099,-1.001044 0.07331,-0.2365135 0.262599,-0.1938649 0.196332,0.04511 -0.03084,0.111032 -0.08036,0.449413 -0.111207,0.757127 l -0.05676,0.556213 h -1.945337 c -1.069778,0 -1.945162,-0.03313 -1.945162,-0.07331 z"
     id="path368"
     style="stroke-width:0.17624" />
  <path
     fill="#ca2727"
     d="m 14.521607,11.399806 c 0,-0.07084 0.06873,-0.141874 0.182232,-0.196331 0.151567,-0.07102 0.25079,-0.220124 0.610496,-0.922971 0.570314,-1.1120717 1.469666,-3.0219855 1.554791,-3.3083756 0.06626,-0.2176566 0.08055,-0.2294646 0.326572,-0.2578394 0.142049,-0.016567 0.260306,-0.026083 0.262598,-0.021325 0.0024,0.00476 0.198976,0.4353131 0.437956,0.9583936 0.236691,0.5229044 0.712364,1.5168985 1.057793,2.2079345 0.577539,1.1619499 0.641514,1.2661069 0.835379,1.3605729 0.118432,0.05693 0.210607,0.144516 0.210607,0.196507 0,0.08282 -0.101688,0.09235 -0.977252,0.09235 -0.878028,0 -0.977427,-0.0095 -0.977427,-0.09465 0,-0.05676 0.07579,-0.118258 0.196331,-0.158616 0.111383,-0.03543 0.196508,-0.101688 0.196508,-0.15139 0,-0.0474 -0.115965,-0.359706 -0.258017,-0.69333 L 17.922336,9.8025434 H 15.967481 L 15.780667,10.21424 c -0.350366,0.771579 -0.357414,0.953811 -0.03084,1.041226 0.163376,0.04493 0.208316,0.08055 0.189284,0.153859 -0.02117,0.08529 -0.10645,0.09692 -0.721704,0.09692 -0.660373,0.005 -0.695796,0 -0.695796,-0.106449 z m 3.204221,-1.9144945 c 0.03313,-0.059037 -0.702845,-1.6659969 -0.771402,-1.6825636 -0.04971,-0.014099 -0.811762,1.5572569 -0.811762,1.6755149 0,0.059216 1.54774,0.066265 1.583164,0.00708 z"
     id="path370"
     style="stroke-width:0.17624" />
</svg>
