<svg xmlns="http://www.w3.org/2000/svg" viewBox="0 0 20 20">
  <rect width="100%" height="100%" fill="#CD2A28"/>
  <path fill="url(#a)" d="m12.13 9.4-3.6 1.18-3.14 1.38-.88.24a21.82 21.82 0 0 1-1.44 1.26c-.22.17-.55.5-.72.7-.25.32-.44.65-.52.9-.15.46-.08.92.21 1.35.37.55 1.1 1.1 1.97 1.48.44.2 1.18.44 1.73.58a23 23 0 0 0 4.17.52 16.82 16.82 0 0 0 1.63-4.05 15.69 15.69 0 0 0 .34-3.79 10.18 10.18 0 0 0-.15-1.4l.5-.14-.1-.2Zm-.82.49a8.87 8.87 0 0 1 .14 1.55A21.69 21.69 0 0 1 9.8 10.4c-.02-.03-.02-.03.2-.1l1.3-.42Zm-1.84.6a17.11 17.11 0 0 0 1.89 1.05c.1.04.11.02-.12.18a12.07 12.07 0 0 1-2.12 1.12s0-.07.03-.15a7.85 7.85 0 0 0 .32-2.2Zm-.38.14c.02.02 0 .63-.01.8a6.9 6.9 0 0 1-.31 1.37 3.69 3.69 0 0 1-1.16-1.6c.04-.02 1.47-.58 1.48-.57Zm-1.78.7h.01l.04.1a3.7 3.7 0 0 0 1.08 1.5l.14.11c.01.02.02.01-.42.18-.52.2-1.08.4-1.73.6l-.46.15c-.02.01-.01 0 .06-.12a15.13 15.13 0 0 0 1.17-2.43c.02-.04.03-.05.06-.07l.05-.01Zm-.54.23s-.13.3-.27.57a21.72 21.72 0 0 1-1.08 1.85c-.01.02-.02.01-.06-.07-.09-.18-.17-.42-.2-.63-.05-.22-.04-.59 0-.81.04-.17.04-.17.12-.21.35-.18 1.48-.7 1.49-.7Zm4.7.2v.1a15.08 15.08 0 0 1-.2 2.25l-.16-.05a7.02 7.02 0 0 1-1.9-.93l.26-.13a15.92 15.92 0 0 0 1.96-1.21l.04-.04Zm-6.76.8-.01.12-.03.3a2 2 0 0 0 .24 1.09l.1.2a96.96 96.96 0 0 1-2.72.8c-.02 0-.02 0-.01-.05a3.56 3.56 0 0 1 1.69-2.05 23.02 23.02 0 0 1 .74-.41Zm4.25.76.15.08c.58.34 1.4.65 2.09.81l.06.01-.09.05a30.88 30.88 0 0 1-3.21 1.32l.1-.21a13.5 13.5 0 0 0 .9-2.06Zm-.43.14-.05.13a17.64 17.64 0 0 1-1.14 2.23l-.18-.11a5.58 5.58 0 0 1-1.42-1.21l-.05-.06.25-.07a17.7 17.7 0 0 0 2.59-.9Zm2.69.94a32.26 32.26 0 0 1-.7 2.48h-.04a11.25 11.25 0 0 1-2.7-.84l.37-.17a35.93 35.93 0 0 0 3.07-1.47ZM5 14.61a31.24 31.24 0 0 1-1.26 1.8l-.25.37-.11.18-.12-.1c-.15-.13-.4-.38-.51-.52-.24-.3-.4-.6-.46-.88-.03-.13-.03-.2 0-.2A134 134 0 0 1 5 14.6Zm.35.14.1.1a5.07 5.07 0 0 0 1.42 1.14 209.74 209.74 0 0 1-3.25 1.14l-.05-.03-.06-.04.08-.11c.26-.37.58-.78 1.28-1.62l.48-.58Zm2.18 1.55.27.1a11.48 11.48 0 0 0 2.62.6l-.71.23a193.53 193.53 0 0 1-3.48 1.03l-.12-.03.15-.19a16.51 16.51 0 0 0 1.27-1.74Zm-.48.02a26.8 26.8 0 0 1-.9 1.42l-.18.3-.08.14-.04-.02c-.1-.02-.78-.27-.97-.34a6.32 6.32 0 0 1-1.1-.59l.83-.22a73.48 73.48 0 0 0 2.44-.7Zm3.39.8a24.4 24.4 0 0 1-.66 1.74 41.65 41.65 0 0 1-3.18-.52l-.06-.01.4-.1c.88-.2 1.3-.3 1.72-.43a12.41 12.41 0 0 0 1.78-.69Z"/>
  <path fill="url(#b)" d="M8.42 1a17.67 17.67 0 0 0-3.55 1.55c-.15.1-.34.3-.37.37a.27.27 0 0 0-.02.09l.37.34.87.28L7.79 4l2.36.4.03-.2h-.02l-.32-.05-.06-.11c-.32-.57-.68-1.27-.88-1.74a9.2 9.2 0 0 1-.4-1.1c-.05-.18-.06-.2-.08-.2Zm-.05.14.03.17c.05.38.13.75.26 1.15.1.3.1.28-.01.25a33.05 33.05 0 0 0-2.7-.46c0-.01.65-.36.95-.5.37-.17 1.4-.6 1.47-.61ZM5.74 2.36l.11.04a16.28 16.28 0 0 0 3 .55l-.17.1a14.6 14.6 0 0 0-1.28.7l-.13-.01-.11-.02-.27-.27-1-.96-.15-.13Zm-.1.09.38.47a67.6 67.6 0 0 0 .55.69 11.73 11.73 0 0 1-1.44-.32l-.15-.05V3.2c0-.18.23-.45.62-.73l.04-.02Zm3.26.65a12.76 12.76 0 0 0 .51.96c.02.03.06.04-.32-.03l-1.22-.2.06-.04a5.35 5.35 0 0 0 .97-.7Z"/>
  <path fill="#fff" d="M4.52 2.88s-.06.1 0 .24c.03.08.13.19.25.3 0 0 1.21 1.18 1.36 1.35.67.78.96 1.54.99 2.6.01.67-.12 1.26-.43 1.95-.57 1.24-1.76 2.6-3.61 4.12l.27-.1c.18-.12.41-.26.97-.57a34.7 34.7 0 0 1 4.5-2.01 56.24 56.24 0 0 1 9.13-2.45l.25-.04-.04-.06a6.54 6.54 0 0 0-2.48-2.38 14.38 14.38 0 0 0-4.2-1.4c-.33-.07-1.06-.2-1.65-.29-1.24-.2-2.05-.32-2.94-.48-.32-.05-.8-.13-1.1-.2a7.05 7.05 0 0 1-.73-.2c-.2-.07-.48-.15-.54-.38Zm.7.68.1.03a7.9 7.9 0 0 0 1.06.3 24.06 24.06 0 0 1 .44 1.47 5.69 5.69 0 0 0-1.6-1.8Zm1.34.37.15.03a44.67 44.67 0 0 0 1.99.38l-.08.05-.57.34a5.33 5.33 0 0 0-.92.76l-.03-.1a9.07 9.07 0 0 0-.54-1.46Zm2.36.45a4.54 4.54 0 0 1 .21 1.79v.02l-.15-.04a35.48 35.48 0 0 0-1.59-.47c0-.02.34-.36.48-.49.28-.24 1.02-.82 1.05-.81Zm.19.03a47.58 47.58 0 0 1 2.6.48 11.72 11.72 0 0 0-2.27 1.26v-.17A3.83 3.83 0 0 0 9.1 4.4Zm2.9.57-.07.36a6.87 6.87 0 0 1-.8 1.76L10.98 7A8.68 8.68 0 0 0 9.7 6.4 16.3 16.3 0 0 1 12 4.98Zm.2.03a15.6 15.6 0 0 1 2.63.9l.2.08-.14.03a20.23 20.23 0 0 0-3.3 1.04l.06-.14a5.6 5.6 0 0 0 .55-1.9ZM7.27 6.15a10.39 10.39 0 0 1 1.56.46l-.16.14a20.5 20.5 0 0 0-1.34 1.22v-.04a6.21 6.21 0 0 0-.06-1.78Zm7.96 0s-.17.3-.29.45c-.16.24-.4.55-.94 1.23a425.23 425.23 0 0 0-.92 1.15l-.08-.1a5.69 5.69 0 0 0-1.36-1.44l.82-.35a27.77 27.77 0 0 1 2.77-.94Zm.21.06a9.2 9.2 0 0 1 2.47 1.96l-.27.02a26.87 26.87 0 0 0-4.21.71l.23-.23a6.9 6.9 0 0 0 1.78-2.46Zm-6.06.62a9.77 9.77 0 0 1 1.29.64l-.3.15a18.45 18.45 0 0 0-1.64.93c-.02 0-.01-.01.06-.15a5.78 5.78 0 0 0 .59-1.57Zm-.36.06-.14.53a6.82 6.82 0 0 1-.63 1.35l-.07.11-.15-.14a2 2 0 0 0-.5-.38.76.76 0 0 1-.14-.07 18.08 18.08 0 0 1 1.63-1.4Zm2.17.9.13.08a10.64 10.64 0 0 1 1.45 1.16l.04.03-.22.06A40.34 40.34 0 0 0 9 10.27c-.02 0-.03.02.25-.24.72-.66 1.35-1.4 1.83-2.1l.1-.15Zm-.57.14s-.37.53-.6.83a35.6 35.6 0 0 1-1.33 1.63v-.1c0-.33-.1-.68-.24-.98-.06-.13-.07-.16-.06-.17a25.22 25.22 0 0 1 2.23-1.21Zm-3.45.84.15.07c.17.1.33.2.46.32l-.16.13a28.38 28.38 0 0 0-1.1.82 4.89 4.89 0 0 0 .65-1.34Zm.92.72a1.97 1.97 0 0 1 .4.93l.02.05-.38.14a33.61 33.61 0 0 0-2.4 1.04l.2-.14A11.04 11.04 0 0 0 8.08 9.5Zm-.42.1a9.09 9.09 0 0 1-2.37 2.05l.29-.32.47-.56c.1-.13.12-.15.27-.26.4-.3 1.33-.92 1.34-.9Z"/>
  <linearGradient id="a" x1="5.15" x2="12.22" y1="18.38" y2="14.2" gradientUnits="userSpaceOnUse">
    <stop stop-color="#fff"/>
    <stop offset="1" stop-color="#EDEDEE"/>
  </linearGradient>
  <linearGradient id="b" x1="4.48" x2="10.18" y1="2.7" y2="2.7" gradientUnits="userSpaceOnUse">
    <stop stop-color="#fff"/>
    <stop offset="1" stop-color="#DCDEE1"/>
  </linearGradient>
</svg>