<svg viewBox="0 0 20 20" xmlns="http://www.w3.org/2000/svg">
<rect width="100%" height="100%" fill="#CD2A28"/>
<path d="M12.133 9.40381L8.52705 10.5797L5.39221 11.9644L4.51398 12.1965C4.29132 12.4081 4.05503 12.6231 3.8034 12.842C3.5268 13.0827 3.26667 13.3009 3.06888 13.4585C2.84863 13.6341 2.52114 13.959 2.35374 14.1674C2.10471 14.4774 1.90996 14.8079 1.82623 15.0622C1.67559 15.5195 1.74899 15.9828 2.03952 16.4103C2.41065 16.9564 3.14946 17.5113 4.0087 17.889C4.447 18.0817 5.18662 18.3301 5.74122 18.4702C6.66547 18.7036 8.45175 18.9571 9.43551 18.9948C9.63503 19.0025 9.90063 19.0017 9.91284 18.9937C9.93443 18.9794 10.0876 18.6894 10.2653 18.3265C10.8699 17.0914 11.3073 15.9335 11.5427 14.9447C11.6852 14.3459 11.7964 13.5475 11.8683 12.6008C11.8885 12.3356 11.8958 11.4512 11.8803 11.1506C11.8551 10.6614 11.812 10.2627 11.7429 9.87144C11.7327 9.81409 11.729 9.76366 11.7343 9.75909C11.7443 9.75049 11.7784 9.73956 12.2213 9.61082L12.133 9.40381ZM11.3089 9.88741C11.3417 9.88741 11.4288 10.7231 11.4515 11.2532C11.4563 11.3659 11.4553 11.438 11.4486 11.438C11.4271 11.438 10.9868 11.1795 10.6747 10.9835C10.4022 10.8123 9.885 10.4686 9.80277 10.4041C9.77683 10.3837 9.77957 10.3827 10.0024 10.306C10.3815 10.1755 11.2802 9.88741 11.3089 9.88741ZM9.47201 10.4902C9.49531 10.4901 9.55875 10.5252 9.70868 10.6191C10.2711 10.9714 11.0327 11.3953 11.3591 11.5378C11.4603 11.582 11.4718 11.5649 11.2387 11.7231C10.7419 12.0605 10.1243 12.3922 9.36594 12.7291C9.23377 12.7878 9.12181 12.8358 9.1173 12.8358C9.11278 12.8358 9.12753 12.7687 9.1498 12.6864C9.33351 12.0068 9.43717 11.3209 9.44007 10.7708C9.44151 10.4987 9.44159 10.4973 9.46745 10.4908C9.46866 10.4905 9.47046 10.4902 9.47201 10.4902ZM9.09391 10.6345C9.11019 10.6508 9.0984 11.2605 9.07852 11.4266C9.0308 11.8251 8.95283 12.1937 8.82816 12.6128C8.79837 12.7129 8.77045 12.7993 8.766 12.8044C8.75517 12.817 8.38237 12.4537 8.25845 12.31C8.04671 12.0643 7.8792 11.8204 7.75717 11.58C7.69515 11.4578 7.59625 11.2166 7.60548 11.2099C7.64736 11.1795 9.08368 10.6242 9.09391 10.6345ZM7.31292 11.3365C7.31627 11.3368 7.31888 11.3377 7.32033 11.3393C7.32571 11.3453 7.3447 11.3896 7.36254 11.438C7.44937 11.6739 7.64463 12.0242 7.8142 12.2484C7.99932 12.4931 8.24069 12.7538 8.44265 12.927C8.5075 12.9826 8.568 13.0345 8.57667 13.0422C8.59396 13.0575 8.59978 13.0549 8.15523 13.2236C7.64002 13.419 7.07891 13.6147 6.43469 13.8229C6.18918 13.9023 5.9814 13.9694 5.97333 13.9723C5.94879 13.9814 5.95631 13.9663 6.02807 13.8543C6.34818 13.3545 6.83309 12.377 7.1042 11.6855C7.15122 11.5656 7.19597 11.4455 7.204 11.4186C7.21579 11.3792 7.22741 11.3657 7.26445 11.349C7.28494 11.3398 7.30286 11.3355 7.31292 11.3365ZM6.76716 11.5618C6.77441 11.5681 6.63622 11.86 6.50027 12.1252C6.23658 12.6396 5.94586 13.1458 5.55987 13.7636C5.49327 13.8702 5.4319 13.9677 5.42357 13.9798C5.40987 13.9997 5.40425 13.9931 5.36198 13.909C5.26958 13.7253 5.19217 13.4934 5.15212 13.2777C5.11249 13.0643 5.11923 12.6948 5.16695 12.4657C5.2024 12.2954 5.20083 12.2992 5.281 12.2581C5.62762 12.0804 6.75587 11.5518 6.76716 11.5618ZM11.468 11.7528V11.8686C11.4674 12.4766 11.4025 13.3091 11.3083 13.9165C11.2918 14.023 11.2775 14.111 11.2764 14.1121C11.2753 14.1131 11.1985 14.0906 11.1059 14.0619C10.6967 13.9349 10.2531 13.7451 9.85296 13.5258C9.58794 13.3806 9.20464 13.1453 9.21538 13.1346C9.2183 13.1317 9.3312 13.0719 9.46631 13.0017C10.0014 12.724 10.5126 12.4245 10.957 12.1275C11.1238 12.016 11.3733 11.8357 11.4287 11.787L11.468 11.7528ZM4.70901 12.5586C4.72012 12.5581 4.7173 12.5792 4.69989 12.6795C4.68778 12.7493 4.67409 12.8811 4.66909 12.9721C4.64717 13.3706 4.71181 13.6647 4.90975 14.067C4.96478 14.1789 5.00783 14.2721 5.00556 14.274C4.98574 14.2906 3.18331 14.8181 2.61664 14.9732C2.44867 15.0192 2.30186 15.0597 2.28987 15.0633C2.27021 15.0692 2.26846 15.0649 2.27562 15.0188C2.33768 14.6189 2.64271 14.0941 3.06888 13.6536C3.35221 13.3607 3.57907 13.1871 3.96479 12.9669C4.24162 12.8089 4.67156 12.5717 4.70331 12.5598C4.70544 12.559 4.70742 12.5587 4.70901 12.5586ZM8.96047 13.3199C8.96218 13.3179 9.02896 13.3536 9.10874 13.3998C9.69093 13.7365 10.5033 14.0523 11.196 14.2107L11.2587 14.225L11.1726 14.2729C10.8108 14.4737 9.6192 14.9694 8.40216 15.426C8.2245 15.4926 8.05114 15.558 8.01722 15.5714C7.9833 15.5848 7.95563 15.594 7.95563 15.5914C7.95563 15.5887 8.00583 15.4921 8.0674 15.377C8.40906 14.7381 8.75011 13.9618 8.92511 13.4232C8.94295 13.3682 8.95875 13.322 8.96047 13.3199ZM8.52705 13.4619C8.52892 13.4638 8.50764 13.521 8.47972 13.5885C8.2422 14.1629 7.931 14.7895 7.53419 15.4933C7.43321 15.6724 7.34809 15.8186 7.34486 15.8183C7.34163 15.8181 7.25949 15.7695 7.16237 15.71C6.58439 15.3562 6.073 14.9206 5.73723 14.497L5.68933 14.4371L5.93854 14.3687C6.82747 14.1252 7.58132 13.8648 8.33088 13.5418C8.43701 13.496 8.52519 13.4601 8.52705 13.4619ZM11.2194 14.4018C11.2206 14.402 11.2211 14.4029 11.2211 14.404C11.2211 14.4646 11.0836 15.0253 10.969 15.4311C10.8729 15.7715 10.7922 16.0378 10.6428 16.5095C10.5768 16.7179 10.5201 16.8879 10.5168 16.8871C10.5134 16.8862 10.4976 16.8831 10.4814 16.8802C9.67167 16.7337 8.9464 16.5293 8.267 16.2563C8.07693 16.18 7.80246 16.0584 7.78797 16.0442C7.78306 16.0394 7.94719 15.9621 8.15238 15.8725C9.39322 15.3311 10.6789 14.7146 11.1184 14.4502C11.1713 14.4184 11.2104 14.3999 11.2194 14.4018ZM5.00442 14.6145C5.01107 14.6208 4.66398 15.1176 4.17922 15.7961C4.01073 16.0319 3.81281 16.3099 3.73953 16.4137C3.66625 16.5176 3.55541 16.682 3.4926 16.7793L3.37797 16.9561L3.25593 16.8534C3.11273 16.7332 2.86208 16.4779 2.74838 16.3362C2.5144 16.0445 2.35586 15.7376 2.29329 15.4556C2.26441 15.3255 2.26356 15.2592 2.29101 15.2509C2.33069 15.239 3.0586 15.0676 3.74124 14.9093C4.12043 14.8214 4.55882 14.7185 4.71585 14.6806C4.87289 14.6428 5.00288 14.613 5.00442 14.6145ZM5.35343 14.7479L5.44125 14.846C5.83389 15.2834 6.2332 15.6098 6.7204 15.8913C6.80642 15.9411 6.87198 15.9843 6.86639 15.9877C6.84611 16.0003 5.18166 16.5921 4.41189 16.8603C3.97777 17.0115 3.62117 17.1348 3.6192 17.1346C3.61723 17.1343 3.59264 17.1182 3.56503 17.0986L3.51484 17.0627L3.59354 16.9492C3.84894 16.5793 4.16983 16.1724 4.87211 15.3273L5.35343 14.7479ZM7.52849 16.3025C7.53041 16.3001 7.65211 16.3433 7.79937 16.3983C8.15435 16.5311 8.43295 16.6176 8.80991 16.712C9.27292 16.8279 9.94203 16.9438 10.3383 16.9772C10.3991 16.9823 10.4302 16.9892 10.4204 16.9954C10.402 17.0071 10.0008 17.1411 9.70583 17.2338C9.23761 17.381 7.80671 17.8037 6.63999 18.1394C6.42356 18.2017 6.2385 18.2543 6.22881 18.2563C6.20268 18.2617 6.11134 18.2378 6.11134 18.2255C6.11134 18.2197 6.17676 18.1369 6.25619 18.0419C6.64835 17.5728 7.03793 17.0489 7.36311 16.5534C7.45205 16.4179 7.52656 16.3049 7.52849 16.3025ZM7.0466 16.3162C7.05011 16.3197 6.8568 16.6293 6.51681 17.1648C6.37325 17.3909 6.21047 17.6483 6.15468 17.7368C6.09889 17.8253 6.01714 17.9597 5.97333 18.0362L5.89349 18.1753L5.853 18.1645C5.7553 18.138 5.06614 17.8946 4.88409 17.8223C4.65846 17.7328 4.42332 17.6246 4.24993 17.5309C4.03327 17.4138 3.75848 17.2401 3.78002 17.2332C3.78622 17.2313 4.15906 17.1292 4.60807 17.0068C5.80254 16.6812 6.46325 16.4942 6.89661 16.359C6.97759 16.3337 7.04505 16.3147 7.0466 16.3162ZM10.4392 17.1118C10.4418 17.1112 10.443 17.1112 10.4432 17.1118C10.4545 17.14 10.0123 18.3648 9.85068 18.753C9.81448 18.84 9.80108 18.8611 9.78224 18.8602C9.7365 18.8582 9.09532 18.7686 8.70726 18.7097C8.02793 18.6066 6.89006 18.4078 6.60292 18.3424L6.5362 18.3276L6.94338 18.2358C7.81614 18.0391 8.23528 17.9337 8.6605 17.8035C9.19677 17.6393 9.72779 17.4346 10.2641 17.1853C10.3489 17.1459 10.4212 17.1157 10.4392 17.1118Z" fill="url(#paint0_linear_195_92)"/>
<path d="M8.41672 1.0001C8.35641 0.993064 7.38866 1.34173 6.76689 1.59434C5.9244 1.93662 5.27026 2.26458 4.86671 2.54785C4.7165 2.65329 4.52762 2.84292 4.50002 2.91568C4.48969 2.94291 4.48484 2.97474 4.48462 3.0075L4.85074 3.35309L5.71928 3.63025L7.78827 3.99979L10.1532 4.4064L10.1772 4.20338C10.17 4.20225 10.1633 4.20109 10.1561 4.19996L9.8447 4.15092L9.7814 4.03971C9.45998 3.47255 9.10478 2.77071 8.89861 2.29579C8.73894 1.92798 8.58561 1.50427 8.50055 1.19742C8.45003 1.01518 8.44477 1.00338 8.41672 1.0001ZM8.37109 1.14039C8.3735 1.13996 8.37471 1.13994 8.37509 1.14039C8.377 1.14268 8.38799 1.21875 8.39904 1.3092C8.44559 1.69012 8.53082 2.05955 8.66422 2.45718C8.76474 2.75681 8.76618 2.73921 8.64654 2.70582C8.36845 2.62821 7.12246 2.41433 6.22113 2.28951C6.0759 2.2694 5.95502 2.25152 5.9531 2.24959C5.94165 2.23815 6.60312 1.89159 6.89634 1.75516C7.27243 1.58018 8.29653 1.1538 8.37109 1.14039ZM5.74494 2.36023L5.85045 2.39616C6.42912 2.59313 7.87959 2.87021 8.68133 2.93678C8.77178 2.9443 8.84783 2.95235 8.85013 2.95446C8.85244 2.95657 8.7756 2.99763 8.67962 3.04571C8.29285 3.23945 7.86717 3.4756 7.5727 3.6599C7.48622 3.71403 7.40691 3.75768 7.39648 3.75685C7.38605 3.75602 7.32902 3.74686 7.26931 3.73689L7.16038 3.71921L6.88665 3.45346C6.4061 2.98836 6.03092 2.62854 5.8858 2.49253L5.74494 2.36023ZM5.63773 2.44577L6.02096 2.92424C6.23193 3.18741 6.44336 3.44858 6.4903 3.50479C6.53725 3.56099 6.57356 3.60862 6.57128 3.61029C6.56041 3.61824 6.01585 3.51222 5.72726 3.44605C5.431 3.37811 5.30846 3.3456 5.12505 3.28694L4.97563 3.23903L4.9762 3.20197C4.9781 3.01817 5.20976 2.74707 5.60294 2.46972L5.63773 2.44577ZM8.90146 3.0976C8.91295 3.09849 8.92509 3.12186 8.95906 3.19626C9.05201 3.39989 9.34134 3.95178 9.41129 4.05853C9.43433 4.09369 9.47085 4.09604 9.0868 4.03401C8.16383 3.88493 7.86524 3.83502 7.86525 3.82928C7.86526 3.82577 7.89293 3.80764 7.92684 3.78879C8.21267 3.62984 8.50105 3.42978 8.75775 3.21337C8.81912 3.16163 8.8781 3.11233 8.88891 3.10331C8.89336 3.0996 8.89763 3.09731 8.90146 3.0976Z" fill="url(#paint1_linear_195_92)"/>
<path d="M4.51642 2.87891C4.51642 2.87891 4.45653 2.97386 4.51299 3.115C4.54793 3.20234 4.65285 3.30726 4.76848 3.41839C4.76848 3.41839 5.97964 4.59984 6.12803 4.7711C6.7991 5.5456 7.09056 6.30809 7.11748 7.36076C7.13475 8.03627 7.00447 8.6301 6.68805 9.32025C6.12093 10.5572 4.92598 11.9214 3.08044 13.4383L3.35133 13.3487C3.52545 13.2183 3.7619 13.079 4.31967 12.7739C5.6042 12.0713 7.04668 11.425 8.81863 10.7591C11.368 9.801 15.5616 8.6769 17.9477 8.31142L18.1964 8.27321L18.1581 8.21333C17.94 7.8742 17.791 7.66508 17.6118 7.44345C17.0885 6.79623 16.4549 6.26815 15.6786 5.83354C14.6118 5.23631 13.2281 4.77215 11.479 4.42437C11.1483 4.35862 10.4242 4.23449 9.83487 4.14265C8.5866 3.94813 7.7815 3.81676 6.89221 3.6619C6.57338 3.60658 6.09733 3.52664 5.7813 3.45831C5.61663 3.42271 5.30369 3.34871 5.06047 3.26499C4.85967 3.18593 4.5769 3.1095 4.51642 2.87891ZM5.21844 3.56039C5.22013 3.55886 5.26563 3.57293 5.32109 3.59176C5.4233 3.62646 5.55817 3.66708 5.71515 3.71095C5.82512 3.74168 5.94603 3.77393 6.07443 3.80676C6.2383 3.84865 6.37381 3.88465 6.37554 3.88659C6.39368 3.90699 6.6689 4.78537 6.76276 5.1224C6.79858 5.25103 6.82578 5.35821 6.82321 5.36078C6.82064 5.36334 6.79011 5.31598 6.75592 5.25584C6.43751 4.6959 5.93327 4.12647 5.35017 3.66818C5.27749 3.61105 5.21844 3.56255 5.21844 3.56039ZM6.56031 3.93108C6.57434 3.93011 6.6348 3.94023 6.70687 3.95617C7.1712 4.05885 8.0003 4.21892 8.53349 4.3086C8.62232 4.32355 8.69545 4.33964 8.69545 4.34453C8.69545 4.34943 8.66226 4.37042 8.62188 4.39072C8.53242 4.43572 8.17043 4.6524 8.04932 4.73347C7.74697 4.93583 7.47513 5.15243 7.27716 5.34937C7.1976 5.42851 7.13102 5.49308 7.12888 5.49308C7.12674 5.49308 7.11283 5.44696 7.09809 5.39043C6.99911 5.01104 6.79447 4.45082 6.61107 4.05654C6.58155 3.99309 6.55746 3.93714 6.55746 3.93222C6.55746 3.9316 6.5583 3.93121 6.56031 3.93108ZM8.92071 4.37989C8.93625 4.38507 8.96562 4.47672 9.01766 4.68271C9.11731 5.07715 9.1637 5.52011 9.14825 5.92992C9.14395 6.04396 9.13674 6.14987 9.13228 6.16544L9.12373 6.19396L8.98287 6.14834C8.6925 6.05552 8.21806 5.91583 7.81151 5.80332C7.58054 5.7394 7.39121 5.68233 7.39121 5.67671C7.39121 5.65983 7.72823 5.3229 7.8731 5.19482C8.14983 4.95019 8.89432 4.37109 8.92071 4.37989ZM9.10833 4.40669C9.11674 4.39887 10.2363 4.59273 10.745 4.69012C11.1243 4.76272 11.6729 4.87762 11.706 4.89143C11.7219 4.8981 11.6652 4.92904 11.483 5.01119C10.7624 5.33613 10.2286 5.62613 9.698 5.98124C9.55823 6.07478 9.44208 6.15119 9.43967 6.15119C9.43725 6.15119 9.43518 6.07311 9.4351 5.97782C9.43474 5.46036 9.33143 4.93806 9.14198 4.4968C9.12159 4.44931 9.10629 4.40859 9.10833 4.40669ZM12.0031 4.97926C12.0118 4.98793 11.975 5.2087 11.9432 5.33911C11.8441 5.74499 11.5817 6.34741 11.2577 6.91365C11.2006 7.01343 11.1496 7.09663 11.1437 7.09843C11.1377 7.10023 11.064 7.06144 10.98 7.01231C10.6632 6.82705 10.3046 6.65178 9.91072 6.48936C9.80089 6.44408 9.70735 6.40375 9.70257 6.39926C9.6846 6.38241 10.5599 5.80292 11.0239 5.52445C11.3951 5.30172 11.9927 4.96884 12.0031 4.97926ZM12.2101 5.01176C12.2353 5.01176 12.7318 5.14713 12.9885 5.22391C13.628 5.41516 14.3657 5.68464 14.8442 5.90197L15.0433 5.99208L14.903 6.02458C13.7321 6.29358 12.7285 6.60399 11.7619 6.99635C11.6815 7.02895 11.6116 7.05566 11.6067 7.05566C11.6018 7.05566 11.6275 6.99356 11.6632 6.91765C11.9538 6.30029 12.1414 5.6525 12.1901 5.10244C12.1946 5.05237 12.2036 5.01176 12.2101 5.01176ZM7.27487 6.14605C7.2828 6.13822 7.6607 6.22676 7.86683 6.28463C8.17664 6.37161 8.83589 6.59221 8.83631 6.60912C8.83631 6.61241 8.76365 6.67575 8.67492 6.74998C8.3185 7.04817 7.9747 7.35996 7.56287 7.75767C7.44078 7.87558 7.33703 7.97153 7.3319 7.97153C7.32677 7.97153 7.32449 7.95432 7.32734 7.93332C7.38936 7.47549 7.37604 6.88761 7.2897 6.2892C7.27876 6.21334 7.27213 6.14877 7.27487 6.14605ZM15.2326 6.15347C15.2383 6.15914 15.0573 6.44203 14.9446 6.60342C14.7802 6.8389 14.5419 7.14805 13.9991 7.83067C13.7139 8.18923 13.3923 8.595 13.2839 8.73229C13.1756 8.86957 13.0847 8.98207 13.0821 8.98207C13.0795 8.98207 13.0445 8.93291 13.0045 8.87315C12.6985 8.41598 12.3354 8.0144 11.9021 7.65388C11.8213 7.5866 11.7301 7.51282 11.6997 7.49021C11.6693 7.4676 11.6445 7.44668 11.6444 7.44345C11.6441 7.436 12.1068 7.23757 12.4599 7.09386C13.0747 6.84369 13.9149 6.54413 14.5437 6.35136C14.8753 6.2497 15.2276 6.14843 15.2326 6.15347ZM15.4413 6.20822C15.4513 6.20619 15.5172 6.23813 15.5964 6.28349C16.2587 6.66285 16.9076 7.15001 17.4179 7.65103C17.5631 7.79355 17.9182 8.16295 17.9129 8.166C17.9116 8.16678 17.7889 8.17649 17.6403 8.18767C16.4927 8.27397 15.0256 8.5181 13.613 8.85775C13.5171 8.88082 13.4341 8.89995 13.4288 8.89995C13.4235 8.89995 13.5285 8.79455 13.662 8.66613C14.4916 7.86863 14.87 7.36507 15.3153 6.46541C15.3816 6.33142 15.4378 6.21583 15.4402 6.20879C15.4403 6.20835 15.4407 6.20834 15.4413 6.20822ZM9.3758 6.82982C9.41369 6.83833 9.76747 7.00295 10.0345 7.13664C10.2786 7.2589 10.6485 7.45579 10.6669 7.4731C10.6692 7.47528 10.539 7.5433 10.3772 7.62423C9.86516 7.88041 9.42655 8.12235 8.96861 8.40209C8.83803 8.48187 8.72857 8.54752 8.7251 8.54752C8.71368 8.54752 8.71818 8.53764 8.79125 8.4038C9.03512 7.95717 9.23183 7.42391 9.345 6.90282C9.3551 6.85631 9.36725 6.82791 9.3758 6.82982ZM9.01937 6.8937C9.02675 6.90108 8.93495 7.23828 8.8768 7.41836C8.76526 7.76374 8.57668 8.19791 8.39548 8.5247C8.35292 8.60145 8.28763 8.7138 8.25063 8.77449L8.18333 8.88455L8.0305 8.73685C7.8529 8.56468 7.70824 8.45776 7.52352 8.36274C7.45091 8.3254 7.39187 8.29084 7.39178 8.28576C7.39144 8.26329 7.85641 7.84044 8.21527 7.53697C8.47214 7.31975 9.0128 6.88713 9.01937 6.8937ZM11.1853 7.78448L11.3182 7.87059C11.623 8.0685 11.9839 8.33474 12.2591 8.56405C12.4134 8.69256 12.7131 8.96095 12.7747 9.02598L12.8078 9.06077L12.5871 9.12236C11.3388 9.46869 10.3744 9.777 9.24919 10.1905C9.12431 10.2364 9.01649 10.2743 9.0091 10.2743C8.99358 10.2743 8.97815 10.2886 9.25889 10.0303C9.97861 9.36792 10.6144 8.63817 11.0895 7.92819L11.1853 7.78448ZM10.6162 7.92705C10.6227 7.93357 10.2473 8.45933 10.0242 8.75624C9.75732 9.11145 9.28198 9.70526 8.95493 10.0918C8.81828 10.2534 8.70122 10.3874 8.69488 10.3895C8.68792 10.3919 8.6836 10.3523 8.68347 10.2897C8.68284 9.95988 8.59939 9.60735 8.45194 9.30884C8.38966 9.18276 8.37922 9.15225 8.39206 9.14061C8.44337 9.09409 9.23738 8.64135 9.73792 8.37301C10.0817 8.18869 10.6096 7.92051 10.6162 7.92705ZM7.17393 8.77049C7.18075 8.77049 7.24445 8.80249 7.31536 8.84178C7.48914 8.93805 7.64526 9.04397 7.78299 9.15886C7.78831 9.16329 7.71699 9.22155 7.62446 9.28831C7.36618 9.47466 6.97288 9.77149 6.74508 9.95269C6.50475 10.1439 6.49677 10.1497 6.52381 10.1084C6.7038 9.83311 6.79429 9.67726 6.88879 9.47822C6.9728 9.30127 7.05653 9.09123 7.11634 8.9085C7.14118 8.83259 7.16711 8.77049 7.17393 8.77049ZM8.09095 9.49019C8.10336 9.48866 8.12101 9.51176 8.19474 9.62193C8.35012 9.8541 8.46911 10.1637 8.49984 10.4158L8.50611 10.4699L8.13372 10.6142C7.46525 10.8736 6.84993 11.1293 6.43428 11.3197C6.31799 11.3729 6.11268 11.471 5.97862 11.5381C5.84457 11.6052 5.73511 11.6579 5.73511 11.655C5.73511 11.6521 5.8193 11.5888 5.92216 11.5141C6.73794 10.9219 7.44129 10.2735 7.97119 9.62535C8.02786 9.55603 8.07933 9.49591 8.08582 9.4919C8.08753 9.49084 8.08918 9.49041 8.09095 9.49019ZM7.6678 9.59512C7.67859 9.60591 7.3668 9.95851 7.15682 10.1728C6.63127 10.7092 6.11025 11.1298 5.4648 11.5392C5.38404 11.5904 5.31025 11.6368 5.30056 11.6424C5.28284 11.6528 5.30628 11.6262 5.58969 11.3174C5.76828 11.1228 5.90497 10.9613 6.06017 10.7596C6.16238 10.6269 6.1819 10.6082 6.33163 10.5002C6.73494 10.209 7.65707 9.5844 7.6678 9.59512Z" fill="white"/>
<linearGradient id="paint0_linear_195_92" x1="5.14656" y1="18.3824" x2="12.2213" y2="14.202" gradientUnits="userSpaceOnUse">
<stop stop-color="white"/>
<stop offset="1" stop-color="#EDEDEE"/>
</linearGradient>
<linearGradient id="paint1_linear_195_92" x1="4.48462" y1="2.7032" x2="10.1772" y2="2.7032" gradientUnits="userSpaceOnUse">
<stop stop-color="white"/>
<stop offset="1" stop-color="#DCDEE1"/>
</linearGradient>
</svg>