<svg xmlns="http://www.w3.org/2000/svg" viewBox="0 0 20 20">
  <rect width="100%" height="100%" fill="#FFC74F"/>
  <path fill="#fff" d="M.54 13.85c-.12-.32.02-.67.55-.8l3.07-.62-2.68 1.63c-.47.27-.81.11-.94-.2v-.01ZM3.89 2.37c.27-.2.64-.16.9.31l1.44 2.79-2.3-2.14c-.38-.38-.32-.76-.05-.96ZM19.46 13.85c.12-.32-.02-.67-.55-.8l-3.07-.62 2.68 1.63c.47.27.81.11.94-.2v-.01ZM16.11 2.37c-.27-.2-.64-.16-.9.31l-1.44 2.79 2.3-2.14c.38-.38.32-.76.05-.96Z"/>
  <path fill="#fff" d="M17.7 7.8c.1.02.15.16.07.24l-3.7 3.67a.13.13 0 0 0-.04.12l.92 5.13c.02.11-.1.2-.2.15l-4.63-2.4a.15.15 0 0 0-.13 0L6.31 16.7v.01l-.91.49a.14.14 0 0 1-.2-.14l.84-5.15a.13.13 0 0 0-.04-.12L2.23 8.17a.13.13 0 0 1 .07-.23l5.16-.8a.13.13 0 0 0 .1-.07l2.27-4.7c.05-.1.19-.1.24 0l2.35 4.66c.02.04.06.06.1.07l5.17.7Z"/>
</svg>