<svg xmlns="http://www.w3.org/2000/svg" viewBox="0 0 20 20"><path style="fill:#ffc74f" d="M0 0h20v20H0z"/><path d="M1.29 13.79c-.11-.29.02-.61.51-.73l2.82-.58-2.47 1.5c-.43.25-.75.1-.86-.19ZM4.37 3.22c.25-.19.6-.15.84.29l1.32 2.56-2.1-1.97c-.35-.35-.3-.69-.05-.88ZM18.71 13.79c.11-.29-.02-.61-.51-.73l-2.82-.58 2.47 1.5c.43.25.75.1.86-.19ZM15.63 3.22c-.25-.19-.6-.15-.84.29l-1.32 2.56 2.1-1.97c.35-.35.3-.69.05-.88Z" style="fill:#fff"/><path d="m10.07 3.22 2.16 4.29s.05.06.09.07l4.76.65c.1.01.14.14.07.21l-3.41 3.38s-.04.07-.03.11l.85 4.73c.02.1-.09.18-.18.13l-4.27-2.2s-.08-.02-.12 0l-4.24 2.27c-.09.05-.2-.03-.18-.13l.77-4.74s0-.08-.04-.11L2.83 8.56c-.07-.07-.03-.2.07-.21l4.75-.73s.08-.03.09-.07l2.09-4.33c.04-.09.18-.09.22 0Z" style="fill:#fff"/></svg>