<svg viewBox="0 0 20 20" xmlns="http://www.w3.org/2000/svg">
<rect width="100%" height="100%" fill="white"/>
<path d="M2.32629 12.3005C3.31543 15.5965 6.37464 18 9.99472 18C14.4158 18 17.9999 14.4183 17.9999 10C17.9999 5.58175 14.4158 2 9.99472 2C5.75249 2 2.28101 5.29825 2.00684 9.4685C2.52567 10.3378 2.72705 10.8755 2.32579 12.3005H2.32629Z" fill="url(#paint0_linear_2427_574)"/>
<path d="M9.58234 7.99614L9.58309 8.03564L7.62433 10.8794C7.30713 10.8649 6.98893 10.9206 6.68673 11.0449C6.55518 11.0983 6.42958 11.1653 6.31199 11.2449L2.01048 9.47314C2.01048 9.47314 1.91091 11.1096 2.32568 12.3291L5.36663 13.5831C5.51673 14.2651 5.98703 14.8631 6.67798 15.1506C7.22156 15.3764 7.83257 15.3772 8.3768 15.1531C8.92104 14.9289 9.354 14.4981 9.58059 13.9551C9.70148 13.6659 9.75979 13.3545 9.7517 13.0411L12.5517 11.0399L12.6205 11.0411C14.2979 11.0411 15.6612 9.67464 15.6612 7.99614C15.6612 6.31764 14.3004 4.95614 12.6205 4.95264C10.944 4.95264 9.57984 6.31764 9.57984 7.99614H9.58234ZM9.11204 13.7586C8.74831 14.6336 7.74466 15.0454 6.87235 14.6821C6.48526 14.5196 6.17149 14.2204 5.99078 13.8416L6.98067 14.2516C7.13359 14.3152 7.29755 14.3481 7.46319 14.3484C7.62882 14.3487 7.79289 14.3163 7.94601 14.2532C8.09913 14.19 8.2383 14.0974 8.35557 13.9805C8.47284 13.8636 8.56592 13.7247 8.62948 13.5719C8.75818 13.263 8.75895 12.9157 8.6316 12.6063C8.50425 12.2969 8.2592 12.0506 7.95029 11.9216L6.92463 11.4979C7.31939 11.3479 7.76818 11.3429 8.18795 11.5171C8.61322 11.6929 8.93843 12.0239 9.11254 12.4471C9.28665 12.8704 9.28565 13.3371 9.11004 13.7586M12.6233 10.0249C12.0858 10.0234 11.5708 9.80916 11.1911 9.42899C10.8114 9.04883 10.598 8.53377 10.5975 7.99664C10.5981 7.45959 10.8116 6.94466 11.1913 6.5646C11.571 6.18455 12.0859 5.97034 12.6233 5.96889C13.1608 5.97021 13.6758 6.18436 14.0556 6.56443C14.4354 6.9445 14.649 7.4595 14.6496 7.99664C14.6491 8.53386 14.4356 9.04899 14.0558 9.42917C13.676 9.80935 13.1609 10.0236 12.6233 10.0249ZM11.1053 7.99339C11.105 7.58981 11.265 7.20261 11.5502 6.91689C11.8354 6.63117 12.2225 6.4703 12.6263 6.46964C13.4656 6.46964 14.1483 7.15214 14.1483 7.99339C14.1485 8.39705 13.9883 8.78427 13.7029 9.06991C13.4174 9.35556 13.0302 9.51624 12.6263 9.51664C12.2225 9.51604 11.8355 9.35527 11.5502 9.06965C11.265 8.78403 11.1051 8.39692 11.1053 7.99339Z" fill="white"/>
<linearGradient id="paint0_linear_2427_574" x1="801.658" y1="2" x2="801.658" y2="1602" gradientUnits="userSpaceOnUse">
<stop stop-color="#111D2E"/>
<stop offset="0.212" stop-color="#051839"/>
<stop offset="0.407" stop-color="#0A1B48"/>
<stop offset="0.581" stop-color="#132E62"/>
<stop offset="0.738" stop-color="#144B7E"/>
<stop offset="0.873" stop-color="#136497"/>
<stop offset="1" stop-color="#1387B8"/>
</linearGradient>
</svg>
