<svg xmlns="http://www.w3.org/2000/svg" viewBox="0 0 20 20">
  <rect width="100%" height="100%" fill="#FFE100"/>
  <path fill="#1D1D1B" d="M8.77 6.93c-.89 0-1.76-.3-2.48-.86-.65-.5-1.76-1.49-1.85-2.38a1 1 0 0 1 .23-.75c.17-.21.43-.33.75-.36h.1c.57 0 1.3.32 2.01.87-.05-.68.14-1.17.53-1.34a.64.64 0 0 1 .22-.05h.03c.42 0 .74.44.98.95.4-1.17 1.09-2.2 1.81-2.26h.05c.1 0 .21.02.3.07 1.02.45.59 2.52.22 3.54A4.36 4.36 0 0 1 9.5 6.84l-.06.03-.08.01c-.2.03-.39.05-.59.05Z"/>
  <path fill="url(#a)" d="M9 6.37c-.86.06-1.71-.2-2.41-.75-.96-.75-1.59-1.5-1.63-1.98a.42.42 0 0 1 .1-.33c.08-.12.2-.17.39-.18.56-.04 1.45.42 2.22 1.13l.72.68-.25-.99c-.17-.66-.12-1.23.11-1.33h.01l.05-.02c.12-.01.43.31.73 1.2l.31.96.25-.98c.36-1.44 1.08-2.45 1.53-2.48.04 0 .08 0 .13.02.49.22.35 1.65-.07 2.85a3.83 3.83 0 0 1-1.9 2.18L9 6.37Z"/>
  <path fill="#1D1D1B" d="M10.74 18.75c-.24 0-.47-.1-.65-.25-.2.12-.43.18-.66.17-.31.01-.62-.1-.86-.3-.2-.15-.38-.34-.55-.54a.62.62 0 0 1-.29.07.95.95 0 0 1-.56-.23 12.7 12.7 0 0 1-3.09-4.07c-.09-.17-.48-1-.53-1.69A3.47 3.47 0 0 1 3 10.77a1.6 1.6 0 0 1 .23-1.34 2.26 2.26 0 0 1-.44-1.88c.24-.9.72-1.7 1.4-2.32.19-.19.39-.29.6-.29a.64.64 0 0 1 .5.22c.2-.23.45-.43.71-.58.25-.13.53-.21.81-.21.3 0 .6.1.85.26.15-.3.37-.55.65-.73.27-.18.6-.27.92-.27a1.57 1.57 0 0 1 1.16.53c.06-.1.1-.18.17-.26a.99.99 0 0 1 .96-.32c.56.1 1.08.39 1.48.82l.08-.12a.64.64 0 0 1 .49-.24c.04 0 .08 0 .12.02.21.03.56.2.94.72a.6.6 0 0 1 .3.02h.01a.55.55 0 0 1 .63-.1c1.15.52 1.53 2.31 1.65 3.72.05.62.1 2-.49 2.54v.1a12.9 12.9 0 0 1-2.24 6.02c-.06.07-.18.23-.37.32-.15.36-.38.66-.77.67h-.01a.55.55 0 0 1-.25-.05.7.7 0 0 1-.44.24h-.15l-.2-.01-.03.03a.88.88 0 0 1-.65.31h-.02a.64.64 0 0 1-.31-.08c-.1.11-.23.2-.38.22l-.17.02Z"/>
  <path fill="url(#b)" d="M16.64 8.42c-.09-1.03-.38-2.84-1.34-3.28-.24-.11-.02.78.03 1.06l-.03-.01c-.1-.25-.35-.86-.58-.92-.19-.05-.2.22-.14.56h-.02c-.21-.5-.63-1.2-1.03-1.3-.31-.05-.24.87-.14 1.53-.42-1-1.07-1.83-2.03-2-.84-.16-.78 1.24-.7 2.06-.13-.97-.72-2.25-1.83-1.95-.66.18-.93.79-1.03 1.5-.25-.7-.96-1.03-1.63-.66-.47.25-.89.76-1.08 1.32-.04-.45-.17-1.2-.63-.75A4.24 4.24 0 0 0 3.23 7.6c-.15.72.14 1.53.86 1.76v.04l-.14.03c-.46.14-.64.68-.53 1.12.11.4.3.78.57 1.1-.04.53.35 1.4.47 1.64a12.3 12.3 0 0 0 2.95 3.88c.6.48.33-.51.16-1.03.4.74.62 1.24 1.24 1.74.45.36 1.28.17 1.16-.42.23.55.55.72.77.67.19-.04.23-.49.17-.88a9.2 9.2 0 0 0-.12-.63h.03c.13.49.4 1.36.72 1.36.29 0 .48-.34.44-.77l-.05-.46c.19.86.34.94.58.9.28-.04.34-.62.35-1.19l-.01-.42.02-.01c.05.38.04 1.43.4 1.43.27-.01.4-.61.51-1.06-.04.36 0 .6.23.27a12.2 12.2 0 0 0 2.13-5.73c.02-.13.01-.26-.01-.4.04.01.1 0 .13-.02.43-.22.43-1.52.38-2.11Zm-4.46-.22h.03c.12 0 .27.23.28.39 0 .11-.03.2-.14.2-.14 0-.25-.19-.26-.36-.01-.11.02-.19.09-.23Zm.25 1.52.05-.02c.05.28.16.83.34 1.21-.1-.03-.23-.04-.34-.04.05-.37 0-.85-.05-1.15Zm-1.75-3.43.03.26c.03.33.14 1.28.32 2.24-.15-.37-.38-.67-.72-.78v-.06c.4-.49.43-1.06.37-1.66Zm.25 5.2c.38-.04.47-.8.44-1.27.12.38.25.7.4.9-.44.44-.46 1.35-.39 2.15-.11-.92-.59-1.87-1.48-1.95.05-.41 0-.99-.04-1.3l-.15-.87h.04c.18.6.55 2.4 1.18 2.34ZM9.8 7.83c-.14.03-.28-.18-.3-.39-.02-.16.06-.26.13-.28.14-.03.27.2.3.41 0 .1 0 .23-.13.26Zm-4.8-.62c.07.47.3.68.67.55.05-.01.18-.14.23-.18a5.98 5.98 0 0 0-.07 1.86c.07.6.33 1.5.77 2.07-.78.11-.66.95-.43 1.63.13.39.28.77.45 1.15-.23-.27-.5-.46-.81-.47l-.02-.04c.16-.08.34-.28.07-1.02a3.85 3.85 0 0 0-.23-.5c.51-.4.32-1.7.23-2.2-.15-.81-.48-2-1.46-2.12V7.9c.26-.16.47-.4.6-.69Zm.4 6.35c-.1-.03-.25-.2-.31-.35-.04-.09-.03-.16.03-.16.1.02.27.22.33.36.04.1.05.16-.04.15Zm.6 1.03c-.11-.03-.26-.22-.33-.36-.05-.1-.04-.18.03-.16.09.02.28.25.35.39.03.09.03.16-.06.13Zm1.81-1.27-.01-.05c.27-.07.59-.06.42-.87a.97.97 0 0 0-.31-.54c.38-.37.32-1.29.24-1.74A7.7 7.7 0 0 0 7.1 7.24c.33.08.54-.15.67-.46.03.45.08.87.13 1.19.08.7.59 2.75 1.2 3.53-.57.45-.44 1.55-.25 2.4-.24-.34-.58-.59-1.04-.58Zm1.2 2.81c.19-.1.28-.27.32-.48l.3.93c-.14-.21-.32-.37-.58-.32l-.04-.13ZM10.69 15c-.11.03-.24-.2-.27-.4-.03-.16.01-.25.07-.26.1-.02.26.2.3.4.01.12-.01.25-.1.26Zm.47.19v-.07c.27-.5.29-1.04.24-1.6l.13.96c.03.19.13.84.26 1.55-.12-.38-.3-.71-.63-.84Zm1.83-.93c-.12.05-.2-.14-.22-.33-.01-.16.05-.26.1-.28.1-.04.23.15.24.34 0 .1-.03.23-.12.27Zm.92 1.32c.04-.52 0-1.2-.5-1.26v-.06c.28-.43.45-.94.48-1.46.14.37.37.66.73.53-.37.7-.56 1.47-.7 2.24Zm1.24-3.82c-.03-.54-.4-1.18-.94-1.1-.4.07-.52.6-.53 1.01a1.43 1.43 0 0 0-.25-.37c.44-.31.56-1.67.54-2.2v-.1c.3 1.05.67 2 1.09 1.89.33-.11.44-1.12.46-1.57h.04c.04.28.12.55.21.81h-.02c-.54.16-.62 1.07-.6 1.63Z"/>
  <path fill="#fff" d="M5.16 3.35c.08.03-.08.55.2.87-.27-.2-.37-.55-.28-.77.03-.07.06-.11.08-.1Zm3.44-.23c-.04 0-.14-.32-.35-.37.08 0 .15.02.22.07s.11.12.13.2v.1Zm2.78-.48c-.03.06-.05.1-.07.08-.03-.05.15-.6.04-1.05.13.31.14.74.03.97Zm3.46 8.6c0 .04 0 .09-.02.1-.07.01-.12-.4-.48-.5.3.02.5.2.5.4Zm1.07-5.22-.01.08c-.03-.03-.11-.4-.31-.65.15.14.29.4.32.57Zm-.87-.12-.01.06c-.03-.02-.08-.33-.24-.5.14.1.24.3.25.44Zm-.87-.47c.03.07.03.12.01.1-.06 0-.28-.53-.64-.78.29.13.56.44.63.68Zm-1.64-.46c.02.07 0 .14-.01.13-.27-.13-.54-.65-.94-.84.36.09.86.35.95.71ZM12.2 8.9a.57.57 0 0 1-.25-.23.6.6 0 0 1-.08-.33c0-.08.01-.12.04-.12.05 0 .05.49.3.68Zm-1.5-.28-.01.11c-.07 0-.2-.51-.5-.62.12.02.24.07.33.16.1.1.15.22.17.35Zm-1.4-1.18c.06 0 .17.5.49.62-.26 0-.48-.25-.5-.48l.01-.14Zm.5-2.63c.02.08-.01.15-.03.15-.27-.08-.55-.59-1.05-.59.38-.1.97.02 1.07.44Zm-2.48.75c0 .09 0 .16-.03.18-.16.07-.38-.58-.98-.46.5-.2.97-.03 1.01.28ZM4.58 8.2c.3-.03.57.29.65.6.02.1-.02.14-.04.15-.1.03-.24-.66-.6-.75Zm.3-1.99c-.01.1-.03.2-.06.21-.1.07-.13-.67-.4-.58.27-.19.48 0 .45.37Zm0 7.01c-.03-.06-.03-.08-.01-.08.02.01.17.34.35.5a.9.9 0 0 1-.35-.42Zm.66 1.02c-.02-.04-.02-.06-.01-.06.03.01.16.3.33.45a1 1 0 0 1-.32-.4Zm1.22.87c-.09-.04-.38-.73-.82-1.07a2 2 0 0 1 .81.93c.03.08.03.14.01.14Zm1.96-.78c-.1 0-.43-.59-.96-.78.42.06.84.37.95.63.03.1.03.15.01.15Zm1.04 2.9c-.06-.02-.2-.46-.54-.73.28.15.52.42.55.64v.1ZM7.83 12.1c-.09.03-.59-.41-1.14-.4.41-.09.9.05 1.08.27.06.07.08.12.06.13Zm1.95-.41c.35.03.75.17.83.52.02.07 0 .14-.02.14-.23-.05-.5-.42-.86-.6l.05-.06Zm.4 2.98v-.13c.06 0 .2.54.47.69-.21-.03-.41-.31-.46-.56Zm1.3 1.55c-.05.02-.15-.54-.43-.65.22.01.41.25.44.52v.13Zm1.16-2.33c.01-.08.03-.13.04-.13.05-.01-.02.5.16.64-.17-.03-.25-.3-.2-.51Zm1.04 1.07c0 .06 0 .12-.02.12-.05.04-.06-.45-.33-.48.22-.05.37.12.35.36Zm-.46-3.16c-.15.04-.3-.4-.87-.55l.01-.03c.5.03.89.25.9.46 0 .07-.01.11-.04.12Zm2.77-.98c0 .04-.01.07-.02.07-.03.02-.04-.33-.26-.43.08.01.16.06.21.12.05.07.07.15.07.24Z"/>
  <linearGradient id="a" x1="7.8" x2="9.69" y1="1.38" y2="6.39" gradientUnits="userSpaceOnUse">
    <stop stop-color="#11998E"/>
    <stop offset="1" stop-color="#38EF7D"/>
  </linearGradient>
  <linearGradient id="b" x1="9.06" x2="12.27" y1="4.66" y2="18.27" gradientUnits="userSpaceOnUse">
    <stop stop-color="#EE0979"/>
    <stop offset="1" stop-color="#FF6A00"/>
  </linearGradient>
</svg>