<svg width="20" height="20" viewBox="0 0 20 20" fill="none" xmlns="http://www.w3.org/2000/svg">
<rect width="20" height="20" fill="#4E26DF"/>
<path fill-rule="evenodd" clip-rule="evenodd" d="M11.648 12.8498V8.62901C11.648 8.47868 11.5261 8.35682 11.3758 8.35682H7.15988V4H15.7278C15.8782 4 16 4.12186 16 4.27219V12.8498H11.648Z" fill="white"/>
<path opacity="0.404989" fill-rule="evenodd" clip-rule="evenodd" d="M7.15986 4V8.35682H3.1361C3.06093 8.35682 3 8.29588 3 8.22072C3 8.18465 3.01432 8.15006 3.03981 8.12454L7.15986 4Z" fill="#967EEC"/>
<path opacity="0.404989" fill-rule="evenodd" clip-rule="evenodd" d="M11.6479 16.8781V12.8501H16L11.8803 16.9742C11.8272 17.0274 11.741 17.0275 11.6878 16.9744C11.6623 16.9488 11.6479 16.9142 11.6479 16.8781Z" fill="#967EEC"/>
<path opacity="0.404989" fill-rule="evenodd" clip-rule="evenodd" d="M7.15988 8.35669H11.5119C11.587 8.35669 11.648 8.41762 11.648 8.49279V12.8497H7.43207C7.28175 12.8497 7.15988 12.7278 7.15988 12.5775V8.35669Z" fill="#967EEC"/>
</svg>
