<svg xmlns="http://www.w3.org/2000/svg" viewBox="0 0 20 20">
  <rect width="100%" height="100%" fill="#333638"/>
  <path fill="#fff" d="m10.17 9.59 7.01-4.14-6.71-3.95a113.47 113.47 0 0 0-6.89 4.22l6.59 3.87ZM17.08 14.45l-3.2-1.86-3.7 2.16-.19-.1-.18-.1-.68-.4-2.49-1.49a.56.56 0 0 0-.67 0c-.32.2-.66.39-1 .58l-.45.25-1.52.87.07.05.07.05 6.77 3.97a.47.47 0 0 0 .54-.04l6.4-3.77.23-.17Z"/>
  <path fill="#fff" d="m3.08 9.79 6.7 3.94v-3.55l-6.7-3.94V9.8ZM16.9 10l-3.03-1.78-3.32 1.97v3.54L16.9 10ZM17.2 13.71v-3.07l-2.62 1.54 2.61 1.53Z"/>
</svg>