<svg viewBox="0 0 20 20" fill="none" xmlns="http://www.w3.org/2000/svg">
<path d="M0 0H20V20H0V0Z" fill="#F2F2F2"/>
<path d="M14.9131 4.85231C13.6124 2.99169 11.0433 2.44018 9.1859 3.62311L5.92408 5.7013C5.70465 5.83918 5.49993 5.99949 5.31368 6.17966C5.1272 6.35984 4.96011 6.55894 4.81499 6.7737C4.66987 6.98846 4.54742 7.21771 4.44951 7.45771C4.35183 7.69781 4.27931 7.9474 4.23311 8.20247C4.19455 8.41629 4.17352 8.63316 4.17072 8.85049C4.16768 9.06805 4.18287 9.28538 4.21582 9.50014C4.24877 9.71513 4.29948 9.92709 4.36725 10.1337C4.43502 10.3403 4.51985 10.5408 4.6208 10.7333C4.55135 10.8389 4.48724 10.9478 4.42871 11.0598C4.37005 11.1717 4.31724 11.2867 4.27027 11.404C4.2233 11.5213 4.1824 11.641 4.14758 11.7625C4.11276 11.884 4.08425 12.0071 4.06182 12.1315C3.9686 12.6543 3.98091 13.1904 4.09804 13.7084C4.15646 13.9666 4.24035 14.2185 4.34879 14.4602C4.45722 14.7018 4.58925 14.9322 4.74349 15.1477C6.04419 17.0083 8.61313 17.5598 10.4705 16.3769L13.7323 14.3073C13.9517 14.1692 14.156 14.0087 14.3422 13.8283C14.5284 13.648 14.6955 13.4489 14.8407 13.2342C14.9858 13.0197 15.1083 12.7905 15.2062 12.5505C15.3041 12.3107 15.3768 12.0611 15.4233 11.8062C15.4618 11.5924 15.4826 11.3757 15.4854 11.1584C15.4882 10.9411 15.473 10.7237 15.4399 10.509C15.4069 10.2942 15.3562 10.0825 15.2882 9.87591C15.2202 9.66957 15.1354 9.46906 15.0344 9.2765C15.1038 9.17111 15.1681 9.06198 15.2267 8.95004C15.2852 8.8381 15.3382 8.72313 15.3852 8.60582C15.4322 8.4885 15.4733 8.36886 15.5083 8.24734C15.5432 8.12605 15.5721 8.0029 15.5948 7.87858C15.6411 7.61778 15.6612 7.35301 15.6551 7.08824C15.649 6.82348 15.6165 6.56011 15.5581 6.30165C15.4997 6.04342 15.4158 5.79151 15.3074 5.54987C15.1991 5.3082 15.067 5.0779 14.9131 4.86236" fill="#FF3E00"/>
<path d="M8.86715 15.3276C8.61186 15.3939 8.34795 15.4209 8.08452 15.4075C7.82116 15.394 7.5613 15.3407 7.31405 15.2489C7.0668 15.1572 6.83497 15.0283 6.62654 14.8668C6.41829 14.7051 6.23587 14.5127 6.08556 14.2961C5.99278 14.1664 5.91333 14.0281 5.84836 13.8827C5.78321 13.7375 5.73271 13.5861 5.69763 13.4308C5.66281 13.2754 5.64318 13.1169 5.63968 12.9578C5.63617 12.7986 5.64856 12.6395 5.6766 12.4827C5.68104 12.4572 5.68618 12.4317 5.69179 12.4065C5.69717 12.381 5.70324 12.3558 5.70979 12.3308C5.7161 12.3056 5.72311 12.2805 5.73058 12.2555C5.73783 12.2308 5.74577 12.206 5.75395 12.1815L5.81541 11.9938L5.98297 12.1188C6.07901 12.1889 6.1781 12.2551 6.27975 12.3168C6.38141 12.3787 6.48563 12.4362 6.59219 12.489C6.69852 12.542 6.80742 12.5907 6.91795 12.6344C7.02849 12.6783 7.14089 12.7173 7.25493 12.7517L7.37995 12.7879L7.36874 12.9129C7.36271 12.998 7.37157 13.0835 7.39491 13.1655C7.40636 13.2067 7.42155 13.2464 7.44001 13.2847C7.45847 13.323 7.48021 13.3597 7.50498 13.3943C7.55037 13.4595 7.60545 13.5175 7.66833 13.5661C7.73095 13.6147 7.80083 13.6535 7.87537 13.681C7.94992 13.7086 8.02797 13.7245 8.10743 13.7285C8.18665 13.7327 8.2661 13.7245 8.34298 13.7044C8.36074 13.6997 8.37804 13.6944 8.39533 13.6883C8.41262 13.6822 8.42968 13.6757 8.44627 13.6682C8.4631 13.6609 8.47946 13.653 8.49582 13.6444C8.51194 13.6359 8.5276 13.6268 8.54302 13.617L11.7999 11.5386C11.8399 11.5136 11.8771 11.4844 11.9109 11.4517C11.9448 11.4187 11.975 11.3825 12.0014 11.3435C12.0278 11.3044 12.0497 11.2626 12.0675 11.2189C12.085 11.1752 12.0981 11.1299 12.1065 11.0836C12.1147 11.0362 12.1182 10.9883 12.117 10.9401C12.1159 10.8922 12.1098 10.8445 12.0991 10.7976C12.0885 10.7508 12.0731 10.7053 12.0532 10.6613C12.0336 10.6176 12.0093 10.576 11.9813 10.537C11.9359 10.4718 11.881 10.4141 11.8182 10.3655C11.7553 10.3169 11.6854 10.2781 11.6111 10.2505C11.5366 10.2229 11.4584 10.2068 11.3791 10.2028C11.2996 10.1989 11.2202 10.207 11.1433 10.2269C11.1257 10.2316 11.1082 10.2369 11.0909 10.243C11.0736 10.2491 11.0568 10.2556 11.04 10.2629C11.0232 10.2704 11.0068 10.2783 10.9907 10.287C10.9745 10.2954 10.9587 10.3047 10.9432 10.3145L9.69253 11.1086C9.64159 11.1408 9.58924 11.1712 9.53596 11.1997C9.48245 11.228 9.42823 11.2544 9.37285 11.2787C9.31746 11.303 9.26114 11.3252 9.20412 11.3451C9.1471 11.3652 9.08938 11.383 9.03096 11.3986C8.77601 11.4645 8.51264 11.4911 8.24974 11.4776C7.98684 11.464 7.72768 11.4105 7.48091 11.3192C7.23413 11.2275 7.00278 11.0988 6.7948 10.9375C6.58682 10.7763 6.40454 10.5844 6.25428 10.3683C6.16197 10.2386 6.08275 10.1 6.01802 9.95465C5.95306 9.80929 5.90281 9.65786 5.86799 9.5027C5.83317 9.34729 5.81401 9.18885 5.81074 9.02971C5.80723 8.8708 5.81962 8.71166 5.8479 8.55509C5.90314 8.24682 6.02205 7.95346 6.19703 7.69371C6.37212 7.43397 6.59952 7.21366 6.86467 7.04686L10.1316 4.96867C10.1823 4.93643 10.2342 4.90605 10.2873 4.87754C10.3403 4.84926 10.3945 4.82285 10.4494 4.79855C10.5045 4.77424 10.5605 4.7521 10.6172 4.73218C10.6738 4.71209 10.7313 4.69409 10.7895 4.67843C11.0447 4.6123 11.3085 4.58519 11.5716 4.59851C11.835 4.61207 12.0946 4.66535 12.3419 4.75719C12.5891 4.84879 12.8207 4.97779 13.0291 5.13927C13.2373 5.30101 13.4197 5.49352 13.5699 5.71017C13.6624 5.83963 13.7421 5.97797 13.8073 6.12333C13.8725 6.26868 13.923 6.41988 13.9583 6.57528C13.9933 6.73068 14.013 6.88913 14.0165 7.04827C14.0202 7.20741 14.0081 7.36655 13.98 7.52336C13.9751 7.54906 13.97 7.57477 13.9641 7.60024C13.9585 7.62571 13.9524 7.65118 13.9459 7.67642C13.9396 7.70189 13.9326 7.72713 13.9253 7.75214C13.9181 7.77737 13.9106 7.80238 13.9024 7.82715L13.84 8.0148L13.6736 7.88978C13.5774 7.81897 13.478 7.7526 13.3762 7.69021C13.2743 7.62805 13.1696 7.57009 13.0628 7.51658C12.849 7.40992 12.6266 7.32143 12.3979 7.25204L12.2727 7.21582L12.2841 7.0908C12.2876 7.04803 12.2874 7.00503 12.2834 6.9625C12.2797 6.91997 12.272 6.87767 12.2608 6.83631C12.2493 6.79518 12.2346 6.75475 12.2161 6.7162C12.1979 6.6774 12.1762 6.64048 12.1514 6.60543C12.1058 6.54138 12.0507 6.48464 11.9881 6.43717C11.9255 6.38948 11.856 6.35166 11.7819 6.325C11.6332 6.27104 11.4715 6.26378 11.3185 6.3042C11.3008 6.30888 11.2832 6.31425 11.2662 6.32009C11.2489 6.32617 11.2318 6.33295 11.215 6.34019C11.1984 6.34744 11.1818 6.35562 11.1657 6.36403C11.1496 6.37267 11.1337 6.38179 11.1183 6.3916L7.85528 8.46629C7.81555 8.49129 7.77839 8.5205 7.74474 8.55322C7.71109 8.58594 7.68071 8.62216 7.6543 8.66095C7.62812 8.69997 7.60596 8.74155 7.58817 8.78504C7.57041 8.82874 7.55732 8.87384 7.54891 8.92011C7.54073 8.96755 7.53723 9.01569 7.5384 9.06383C7.5412 9.16019 7.56287 9.25507 7.60219 9.34309C7.62202 9.3869 7.64604 9.4287 7.67393 9.46788C7.71904 9.53237 7.77372 9.58986 7.83611 9.638C7.89838 9.68637 7.96764 9.72498 8.04153 9.75251C8.19009 9.80774 8.35191 9.81662 8.50563 9.77798C8.52316 9.77307 8.54068 9.7677 8.55798 9.76162C8.57504 9.75555 8.59209 9.74877 8.60892 9.74152C8.62567 9.73424 8.64212 9.72629 8.65823 9.71769C8.67435 9.70928 8.69024 9.70016 8.70567 9.69035L9.95637 8.89768C10.0075 8.86496 10.0597 8.83411 10.1132 8.8056C10.1665 8.77686 10.2209 8.75045 10.2765 8.72592C10.332 8.7016 10.3883 8.67946 10.4455 8.65955C10.5027 8.63945 10.5607 8.62169 10.6193 8.60627C10.8745 8.5399 11.1381 8.51279 11.4015 8.52588C11.6649 8.5392 11.9245 8.59248 12.1717 8.68409C12.4187 8.77569 12.6506 8.90445 12.8588 9.06617C13.0672 9.22764 13.2495 9.41997 13.3998 9.6366C13.4923 9.7663 13.5718 9.90464 13.637 10.05C13.7021 10.1953 13.7527 10.3467 13.7879 10.5019C13.823 10.6571 13.8426 10.8156 13.8463 10.9747C13.8501 11.1341 13.8377 11.2932 13.8099 11.4498C13.7823 11.6035 13.7389 11.754 13.6802 11.8987C13.6216 12.0435 13.5479 12.1817 13.4605 12.3112C13.3734 12.4406 13.2729 12.5607 13.1607 12.6694C13.0485 12.7781 12.9254 12.8748 12.7931 12.958L9.52989 15.0362C9.47871 15.0687 9.42636 15.0993 9.37308 15.1278C9.31957 15.1563 9.26512 15.1827 9.2095 15.207C9.15412 15.2316 9.0978 15.2538 9.04054 15.2739C8.98352 15.294 8.92557 15.312 8.86715 15.3276" fill="white"/>
</svg>
