<svg data-name="Layer 1" xmlns="http://www.w3.org/2000/svg" viewBox="0 0 20 20"><path style="fill:#ff3e00" d="M0 0h20v20H0z"/><path d="M15.85 4.28c-1.49-2.14-4.45-2.77-6.58-1.41L5.52 5.26a4.289 4.289 0 0 0-1.94 2.88c-.18.99-.02 2.02.45 2.91-.32.49-.54 1.03-.64 1.61-.22 1.21.07 2.46.78 3.47 1.5 2.14 4.45 2.77 6.58 1.41l3.75-2.39a4.289 4.289 0 0 0 1.94-2.88c.18-.99.02-2.02-.45-2.91.32-.49.54-1.03.64-1.61.22-1.21-.07-2.46-.78-3.47M8.9 16.32c-1.21.31-2.48-.16-3.2-1.18-.43-.6-.6-1.35-.47-2.08.02-.12.05-.24.09-.35l.07-.22.19.14c.44.33.94.57 1.47.73l.14.04v.14c-.03.2.02.4.14.56.21.31.6.45.96.36.08-.02.16-.06.23-.1l3.75-2.39c.19-.12.31-.31.35-.52a.828.828 0 0 0-.14-.63.9.9 0 0 0-.96-.36c-.08.02-.16.06-.23.1l-1.43.91c-.24.15-.49.26-.76.33-1.21.31-2.48-.16-3.2-1.18-.43-.6-.6-1.35-.47-2.08.13-.72.55-1.35 1.17-1.73l3.75-2.39c.24-.15.49-.26.76-.33 1.21-.31 2.48.16 3.2 1.18.43.6.6 1.35.47 2.08-.02.12-.05.24-.09.35l-.07.22-.19-.14c-.44-.33-.94-.57-1.47-.73l-.14-.04v-.14c.03-.2-.02-.4-.14-.56a.9.9 0 0 0-.96-.36c-.08.02-.16.06-.23.1L7.74 8.44c-.19.12-.31.31-.35.52-.04.22.01.45.14.63.21.31.6.45.96.36.08-.02.16-.06.23-.1l1.43-.91c.24-.15.49-.26.76-.33 1.21-.31 2.48.16 3.2 1.18.43.6.6 1.35.47 2.08a2.55 2.55 0 0 1-1.17 1.73l-3.75 2.39c-.24.15-.49.26-.76.33" style="fill:#fff"/></svg>