<svg xmlns="http://www.w3.org/2000/svg" viewBox="0 0 20 20">
  <rect width="100%" height="100%" fill="#FF3E00"/>
  <path fill="#fff" fill-rule="evenodd" d="M9.27 2.71a4.88 4.88 0 0 1 7.28 3.05 4.29 4.29 0 0 1-.6 3.4 4.5 4.5 0 0 1-.22 4.53c-.34.49-.77.9-1.27 1.22l-3.73 2.38a4.88 4.88 0 0 1-7.27-3.05 4.29 4.29 0 0 1 .6-3.4 4.5 4.5 0 0 1 .21-4.53c.34-.49.77-.9 1.27-1.22L9.27 2.7ZM7.13 16c.57.21 1.19.25 1.77.1.27-.08.53-.2.76-.34l3.73-2.37a2.57 2.57 0 0 0 1.16-1.73 2.74 2.74 0 0 0-.47-2.07 2.96 2.96 0 0 0-3.18-1.17c-.26.07-.52.18-.75.33l-1.43.9a.82.82 0 0 1-.22.1.9.9 0 0 1-1.1-.65.77.77 0 0 1 .34-.85l3.73-2.37a.9.9 0 0 1 1.19.25c.11.17.17.36.15.56l-.01.14.14.04c.52.16 1.01.4 1.45.73l.2.14.06-.22a2.64 2.64 0 0 0 .07-1.43 2.96 2.96 0 0 0-3.62-2.17c-.27.08-.52.2-.76.34L6.62 6.62a2.57 2.57 0 0 0-1.14 2.8A2.96 2.96 0 0 0 9.1 11.6c.27-.07.52-.18.75-.33l1.43-.9a.83.83 0 0 1 .23-.1.9.9 0 0 1 1.09.65c.02.1.02.22 0 .33a.77.77 0 0 1-.35.51l-3.72 2.38a.9.9 0 0 1-1.19-.26.84.84 0 0 1-.15-.55l.01-.14-.13-.04a4.8 4.8 0 0 1-1.46-.73l-.2-.14-.06.22a2.6 2.6 0 0 0-.07 1.43A2.96 2.96 0 0 0 7.13 16Z" clip-rule="evenodd"/>
</svg>