<svg xmlns="http://www.w3.org/2000/svg" viewBox="0 0 20 20">
  <rect width="100%" height="100%" fill="#F05138"/>
  <path fill="#fff" d="m16.12 12.47.06-.24c.87-3.47-1.25-7.6-4.87-9.76 1.58 2.15 2.28 4.74 1.67 7-.06.2-.12.4-.2.6a45.83 45.83 0 0 1-7.79-6.3 47.05 47.05 0 0 0 4.54 5.7A50.01 50.01 0 0 1 3.07 4.6c.26.42.55.82.87 1.2 1.7 2.18 3.94 4.86 6.62 6.92-1.88 1.15-4.54 1.25-7.17 0-.65-.3-1.27-.67-1.84-1.09a11.05 11.05 0 0 0 4.93 4.25c2.5 1.07 4.99 1.01 6.84.02 1.85-1 .02 0 .02-.02l.24-.14c.89-.46 2.63-.91 3.59.91.28.42.77-1.96-1.05-4.18Z"/>
</svg>