<svg xmlns="http://www.w3.org/2000/svg" viewBox="0 0 80 80"><path d="M80 22.13v-2.41a42.9 42.9 0 00-.45-5.29 16.88 16.88 0 00-1.67-5 15.84 15.84 0 00-3.09-4.23 18.64 18.64 0 00-4.23-3.09 16.88 16.88 0 00-5-1.67A30.79 30.79 0 0060.28 0H19.72a6.57 6.57 0 00-1.29.08 35 35 0 00-3.93.37 22.2 22.2 0 00-3.77 1.06c-.38.15-.83.38-1.21.53a19.33 19.33 0 00-3.33 2.19c-.3.3-.68.6-1 .91a18.42 18.42 0 00-3.07 4.23 16.82 16.82 0 00-1.67 5A41.77 41.77 0 000 19.64v40.57a42.9 42.9 0 00.45 5.29 16.82 16.82 0 001.67 5 15.68 15.68 0 003.09 4.23 18.39 18.39 0 004.23 3.1 16.86 16.86 0 005 1.66 30.79 30.79 0 005.29.45h40.55a41 41 0 005.29-.45 16.86 16.86 0 005-1.66 15.66 15.66 0 004.23-3.1 18.42 18.42 0 003.09-4.23 16.82 16.82 0 001.67-5 30.88 30.88 0 00.44-5.29V22.13z" fill="#f05138"/><path d="M63.31 49.41l.22-.91C66.86 35.28 58.77 19.57 45 11.33c6 8.16 8.69 18.06 6.35 26.67-.23.75-.45 1.51-.76 2.26a6.3 6.3 0 00-1.2-.68 174.57 174.57 0 01-28.46-23.34A179.22 179.22 0 0038.22 38c-4.45-2.49-16.77-11.48-24.62-18.59A38.46 38.46 0 0016.92 24c6.5 8.31 15 18.51 25.23 26.37-7.17 4.38-17.3 4.76-27.34 0a40.9 40.9 0 01-7-4.16A42.09 42.09 0 0026.59 62.4c9.52 4.08 19 3.85 26.06.07s.08 0 .08-.07c.3-.15.6-.38.91-.53 3.39-1.74 10-3.48 13.67 3.47 1.06 1.59 2.94-7.47-4-15.93z" fill="#fff"/></svg>