<svg xmlns="http://www.w3.org/2000/svg" viewBox="0 0 20 20">
  <rect width="100%" height="100%" fill="#1A171B"/>
  <path fill="#fff" d="M15.8 1.5a4.5 4.5 0 0 0-3.23 1.72 10.85 10.85 0 0 0-1.97 3.63C9.82 6.2 9.2 5.37 7.94 5c-.97-.28-2-.16-2.94.54-.45.34-.76.84-.9 1.31-.38 1.24.4 2.33.75 2.73l.77.82c.16.17.54.59.36 1.2-.2.66-1 1.08-1.82.83-.36-.11-.88-.38-.77-.76.05-.16.16-.28.22-.41.06-.12.08-.2.1-.26.15-.48-.05-1.12-.57-1.28-.5-.15-.99-.03-1.18.6-.22.71.12 2 1.94 2.56 2.14.66 3.95-.5 4.2-2.02.16-.95-.26-1.66-1.05-2.56l-.64-.71a1.17 1.17 0 0 1-.12-1.56c.34-.43.82-.61 1.61-.4 1.15.32 1.67 1.12 2.53 1.76-.36 1.17-.59 2.33-.8 3.38l-.13.78c-.61 3.21-1.08 4.98-2.3 6-.24.17-.59.43-1.12.45-.27 0-.36-.18-.37-.27 0-.2.16-.28.27-.37.16-.09.4-.23.39-.7a1.07 1.07 0 0 0-1.15-1.02c-.5.02-1.26.49-1.23 1.35.03.88.86 1.55 2.1 1.5.68-.01 2.17-.29 3.64-2.03 1.7-2 2.18-4.3 2.54-5.98l.4-2.22c.23.03.47.05.73.05 2.13.05 3.2-1.05 3.2-1.86.02-.48-.31-.96-.77-.95a.89.89 0 0 0-.85.69c-.1.44.68.85.08 1.24-.43.28-1.2.47-2.3.32l.2-1.1c.4-2.07.9-4.61 2.8-4.67.13-.01.63 0 .64.33 0 .12-.02.14-.15.4a.9.9 0 0 0-.18.56c.02.53.42.88 1 .85.78-.02 1-.78 1-1.17-.04-.91-1-1.49-2.28-1.45Z"/>
</svg>