<svg xmlns="http://www.w3.org/2000/svg" viewBox="0 0 20 20"><path fill="#3c3647" d="M0 0h20v20H0z"/><path d="M15.66 4.34l-.47 3.51-1.15-.87-2.95 2.21-.28-.28 2.21-2.95-.87-1.14 3.51-.48zm-3.51 10.85L10 18l-2.15-2.81 1.43-.2.48-3.33.24.25.24-.25.47 3.33 1.44.2zM10 2l2.15 2.82-1.44.19-.47 3.33-.24-.25-.24.25-.48-3.33-1.43-.19L10 2zm4.99 8.72l-3.32-.48.24-.24-.25-.24 3.33-.48.2-1.43L18 10l-2.81 2.15-.2-1.43zm-4.18.37l.28-.28 2.95 2.21 1.15-.87.47 3.51-3.51-.47.87-1.15-2.21-2.95zM6.97 5.96l2.21 2.95-.27.28-2.95-2.21-1.14.87-.48-3.51 3.51.48-.88 1.14zm2.21 5.13l-2.21 2.95.88 1.15-3.51.47.48-3.51 1.14.87 2.94-2.21.28.28zm-.85-1.33l-.24.24.24.24-3.32.48-.19 1.43L2 10l2.82-2.15.19 1.43 3.32.48z" fill="#fff"/></svg>