<svg xmlns="http://www.w3.org/2000/svg" viewBox="0 0 20 20"><defs><mask id="a" x="2.6" y="2.04" width="6.71" height="15.91" maskUnits="userSpaceOnUse"><path class="a" d="M2.6 2.04h6.71v15.91H2.6V2.04z"/></mask><mask id="b" x="11.8" y="12.43" width="5.6" height="5.53" maskUnits="userSpaceOnUse"><path class="a" d="M11.79 12.43h5.61v5.53h-5.61v-5.53z"/></mask><style>.a,.d{fill:#fff}.a{fill-rule:evenodd}</style></defs><path fill="#1d1c39" d="M0 0h20v20H0z"/><g mask="url(#a)"><path class="d" d="M7.86 8a1.28 1.28 0 001.45-1.38 1.31 1.31 0 00-1.42-1.36H5.8V3.72a1.6 1.6 0 10-3.2 0v10.56c0 2.54 1 3.67 3.32 3.67a4.56 4.56 0 002.49-.62A1.18 1.18 0 009 16.27c0-.68-.46-1.44-1.12-1.44a1 1 0 00-.28.05h-.12a1.67 1.67 0 01-.76.19c-.41 0-.88-.14-.88-1.26V8z"/></g><g mask="url(#b)"><path class="d" d="M14.6 12.43a2.77 2.77 0 102.8 2.76 2.78 2.78 0 00-2.8-2.76"/></g></svg>