<svg viewBox="0 0 20 20" xmlns="http://www.w3.org/2000/svg">
<rect width="100%" height="100%" fill="white"/>
<path d="M10 9.50977C10.2623 9.50977 10.4751 9.72253 10.4751 9.98486C10.4751 10.2472 10.2623 10.4597 10 10.4597C9.73768 10.4597 9.52492 10.2472 9.5249 9.98486C9.5249 9.72253 9.73767 9.50977 10 9.50977Z" fill="black"/>
<path fill-rule="evenodd" clip-rule="evenodd" d="M15.0217 1.81885L11.7874 7.37085C12.101 7.58571 12.3733 7.85584 12.5918 8.16675L14.7175 6.9397L15.0342 7.48828L12.9028 8.71851C13.0321 9.01432 13.1179 9.33351 13.1511 9.66821H19.5V10.3015H13.1511C13.1179 10.6361 13.032 10.9552 12.9028 11.251L15.0342 12.4814L14.7175 13.03L12.5918 11.8027C12.4159 12.0531 12.2049 12.2767 11.9656 12.4666L15.2195 18.052L14.6721 18.3708L11.4319 12.8088C11.0909 12.9821 10.7149 13.096 10.3167 13.1355V15.5264H9.68335V13.1355C9.29999 13.0974 8.93697 12.9908 8.6062 12.8284L8.54761 12.9292L5.35962 18.4016L4.81226 18.083L8.06836 12.4934C7.81486 12.2979 7.59198 12.065 7.40771 11.8027L5.28247 13.0298L4.96582 12.4814L7.09692 11.251C6.96776 10.9553 6.8821 10.6361 6.84888 10.3015H0.5V9.66821H6.84888C6.88209 9.33354 6.96772 9.0143 7.09692 8.71851L4.96582 7.48828L5.28247 6.9397L7.40796 8.16675C7.62213 7.86196 7.88824 7.59654 8.19409 7.38379L4.95215 1.81885L5.49927 1.5L8.74731 7.07544C9.03923 6.94958 9.35388 6.86645 9.68335 6.83374V4.44312H10.3167V6.83374C10.6382 6.86566 10.9455 6.94561 11.2314 7.06641L11.2864 6.97241L14.4746 1.5L15.0217 1.81885ZM10 7.48828C8.62124 7.48828 7.50342 8.6061 7.50342 9.98486C7.50346 11.3636 8.62126 12.4812 10 12.4812C11.3787 12.4812 12.4965 11.3636 12.4966 9.98486C12.4966 8.6061 11.3788 7.48828 10 7.48828Z" fill="black"/>
<path d="M10 16.1597C10.2623 16.1597 10.4751 16.3724 10.4751 16.6348C10.4751 16.8971 10.2623 17.1096 10 17.1096C9.73768 17.1096 9.52492 16.8971 9.5249 16.6348C9.5249 16.3724 9.73767 16.1597 10 16.1597Z" fill="black"/>
<path d="M4.30005 12.835C4.56236 12.835 4.77489 13.0475 4.7749 13.3098C4.7749 13.5721 4.56236 13.7849 4.30005 13.7849C4.03771 13.7849 3.82495 13.5721 3.82495 13.3098C3.82496 13.0475 4.03772 12.835 4.30005 12.835Z" fill="black"/>
<path d="M15.7 12.835C15.9623 12.835 16.175 13.0475 16.175 13.3098C16.175 13.5721 15.9623 13.7849 15.7 13.7849C15.4376 13.7849 15.2251 13.5721 15.2251 13.3098C15.2251 13.0475 15.4376 12.835 15.7 12.835Z" fill="black"/>
<path d="M4.30005 6.18481C4.56234 6.18484 4.77486 6.39739 4.7749 6.65967C4.7749 6.92199 4.56236 7.13474 4.30005 7.13477C4.03771 7.13477 3.82495 6.922 3.82495 6.65967C3.825 6.39737 4.03774 6.18481 4.30005 6.18481Z" fill="black"/>
<path d="M15.7 6.18481C15.9623 6.18481 16.175 6.39737 16.175 6.65967C16.175 6.922 15.9623 7.13477 15.7 7.13477C15.4376 7.13474 15.2251 6.92199 15.2251 6.65967C15.2251 6.39739 15.4377 6.18484 15.7 6.18481Z" fill="black"/>
<path d="M10 2.85986C10.2623 2.85986 10.4751 3.07263 10.4751 3.33496C10.475 3.59725 10.2623 3.80981 10 3.80981C9.7377 3.80981 9.52496 3.59725 9.5249 3.33496C9.5249 3.07263 9.73767 2.85987 10 2.85986Z" fill="black"/>
</svg>
