<svg viewBox="0 0 20 20" fill="none" xmlns="http://www.w3.org/2000/svg">
<rect width="20" height="20" fill="#4D72FA"/>
<path d="M4.48086 8.0566V8.54815C4.48086 8.56532 4.4668 8.57936 4.44965 8.57936H3.55517V11.1654C3.55517 11.1826 3.54111 11.1966 3.52396 11.1966H2.95468C2.93751 11.1966 2.92348 11.1826 2.92348 11.1654V8.57936H2.03121C2.01403 8.57936 2 8.56532 2 8.54815V8.0566C2 8.03945 2.01406 8.02539 2.03121 8.02539H4.44965C4.4668 8.02539 4.48086 8.03945 4.48086 8.0566Z" fill="white"/>
<path d="M6.85372 9.42163C6.78756 9.26683 6.69454 9.13013 6.5772 9.01495C6.45984 8.89978 6.31784 8.80774 6.15586 8.74095C5.99326 8.67416 5.81381 8.64014 5.62154 8.64014C5.43085 8.64014 5.25233 8.67416 5.09066 8.74095C4.92929 8.80774 4.78794 8.89981 4.67058 9.01495C4.55292 9.13013 4.46022 9.26683 4.39502 9.42163C4.32976 9.57644 4.29669 9.74402 4.29669 9.91939C4.29669 10.0951 4.33009 10.2627 4.39625 10.4175C4.46211 10.5723 4.5548 10.7091 4.67153 10.8242C4.78827 10.9393 4.92901 11.0311 5.08973 11.097C5.25047 11.1631 5.42866 11.1965 5.61938 11.1965C5.81286 11.1965 5.99326 11.1631 6.15556 11.097C6.31786 11.0311 6.46017 10.9393 6.57813 10.8242C6.69643 10.7091 6.78975 10.5727 6.85498 10.4188C6.92021 10.2646 6.9536 10.0967 6.9536 9.91942C6.9536 9.74402 6.91988 9.57641 6.85372 9.42163ZM5.62624 10.6541C5.52731 10.6541 5.43367 10.6357 5.34817 10.5994C5.26234 10.5633 5.1865 10.5121 5.12252 10.4474C5.05885 10.3829 5.00767 10.3045 4.97053 10.2149C4.93339 10.1257 4.91435 10.0255 4.91435 9.91721C4.91435 9.81078 4.93342 9.71123 4.97053 9.62165C5.00767 9.53208 5.05885 9.45405 5.12252 9.38944C5.1865 9.32484 5.26234 9.27427 5.34786 9.23869C5.43369 9.20313 5.52731 9.18502 5.62624 9.18502C5.72364 9.18502 5.81663 9.20343 5.90306 9.23964C5.98982 9.27616 6.06599 9.32673 6.12996 9.3907C6.19364 9.45468 6.24481 9.53238 6.28195 9.62165C6.31909 9.71123 6.33783 9.81078 6.33783 9.91721C6.33783 10.0255 6.31909 10.126 6.28195 10.2162C6.24478 10.3064 6.19361 10.385 6.12964 10.4496C6.06596 10.5142 5.99015 10.5648 5.90462 10.6004C5.81879 10.636 5.72517 10.6541 5.62624 10.6541Z" fill="white"/>
<path d="M9.84524 9.42163C9.77938 9.26683 9.68638 9.13013 9.5687 9.01495C9.45136 8.89978 9.30966 8.80774 9.14736 8.74095C8.98508 8.67416 8.80531 8.64014 8.61306 8.64014C8.42269 8.64014 8.24382 8.67416 8.0822 8.74095C7.92083 8.80774 7.77946 8.89981 7.66212 9.01495C7.54478 9.1301 7.45204 9.26683 7.38653 9.42163C7.3213 9.57644 7.28821 9.74402 7.28821 9.91939C7.28821 10.0951 7.3216 10.2627 7.38779 10.4175C7.45395 10.5723 7.54662 10.7091 7.66305 10.8242C7.77981 10.9393 7.92053 11.0311 8.08125 11.097C8.24201 11.1631 8.4202 11.1965 8.61092 11.1965C8.80438 11.1965 8.98478 11.1631 9.14708 11.097C9.30968 11.0311 9.45169 10.9393 9.56995 10.8242C9.68824 10.7091 9.78126 10.5727 9.84649 10.4188C9.912 10.2646 9.94512 10.0967 9.94512 9.91942C9.94512 9.74402 9.9114 9.57641 9.84524 9.42163ZM8.61773 10.6541C8.51878 10.6541 8.42518 10.6357 8.33963 10.5994C8.25381 10.5633 8.17799 10.5121 8.11401 10.4474C8.05034 10.3829 7.99914 10.3048 7.962 10.2149C7.92483 10.1254 7.90612 10.0252 7.90612 9.91721C7.90612 9.81078 7.92483 9.71123 7.962 9.62165C7.99914 9.53208 8.05034 9.45405 8.11401 9.38944C8.17799 9.32484 8.25381 9.27427 8.33933 9.23869C8.42516 9.20313 8.51878 9.18502 8.61771 9.18502C8.71508 9.18502 8.80842 9.20343 8.89485 9.23964C8.98131 9.27616 9.05746 9.32673 9.12145 9.3907C9.1851 9.45468 9.2363 9.53238 9.27344 9.62165C9.31061 9.71123 9.32932 9.81078 9.32932 9.91721C9.32932 10.0255 9.31061 10.126 9.27344 10.2162C9.2363 10.3067 9.1851 10.385 9.12113 10.4496C9.05746 10.5142 8.98164 10.5648 8.89611 10.6004C8.81031 10.636 8.71669 10.6541 8.61773 10.6541Z" fill="white"/>
<path d="M11.0324 8.0566V11.1654C11.0324 11.1826 11.0184 11.1966 11.0012 11.1966H10.4457C10.4285 11.1966 10.4145 11.1826 10.4145 11.1654V8.0566C10.4145 8.03945 10.4285 8.02539 10.4457 8.02539H11.0012C11.0184 8.02539 11.0324 8.03945 11.0324 8.0566Z" fill="white"/>
<path d="M12.8969 8.05662V10.1461C12.8969 10.3171 12.8713 10.4694 12.8204 10.5987C12.7692 10.7291 12.6946 10.8402 12.5988 10.9291C12.503 11.0178 12.3844 11.0855 12.2468 11.1298C12.1107 11.1742 11.9543 11.1966 11.782 11.1966H11.421C11.4038 11.1966 11.3898 11.1826 11.3898 11.1654V10.6738C11.3898 10.6567 11.4038 10.6426 11.421 10.6426H11.782C11.9565 10.6426 12.082 10.5996 12.155 10.5144C12.2299 10.4276 12.2677 10.3031 12.2677 10.1436L12.2695 8.0566C12.2695 8.03945 12.2836 8.02539 12.3007 8.02539H12.8656C12.8828 8.02539 12.8969 8.03947 12.8969 8.05662Z" fill="white"/>
<path d="M15.8711 9.42163C15.805 9.26683 15.712 9.13013 15.5943 9.01495C15.477 8.89978 15.3353 8.80774 15.173 8.74095C15.0107 8.67416 14.8309 8.64014 14.6387 8.64014C14.4483 8.64014 14.2697 8.67416 14.1081 8.74095C13.9464 8.80774 13.805 8.89981 13.6877 9.01495C13.5704 9.1301 13.4776 9.26683 13.4124 9.42163C13.3469 9.57644 13.3138 9.74402 13.3138 9.91939C13.3138 10.0951 13.3469 10.2624 13.4124 10.4163C13.4776 10.5705 13.5704 10.7068 13.6877 10.822C13.805 10.9368 13.9464 11.0292 14.1081 11.096C14.2697 11.1628 14.4483 11.1965 14.6387 11.1965C14.7969 11.1965 14.9445 11.174 15.0772 11.1297C15.2101 11.0857 15.3303 11.0252 15.4352 10.9509C15.54 10.8763 15.6311 10.7889 15.7061 10.6919C15.7806 10.5945 15.8384 10.4915 15.8774 10.3851C15.8808 10.3757 15.8795 10.3651 15.8736 10.3567C15.8677 10.3483 15.8583 10.3432 15.848 10.3432H15.2469C15.2354 10.3432 15.2251 10.3495 15.2195 10.3595C15.1677 10.4528 15.0909 10.5296 14.991 10.5873C14.8914 10.6454 14.7744 10.6747 14.6433 10.6747C14.5606 10.6747 14.4788 10.6604 14.4002 10.632C14.3216 10.6036 14.2488 10.563 14.1839 10.5112C14.1193 10.4597 14.0631 10.396 14.0172 10.3214C13.9776 10.2574 13.9483 10.186 13.9299 10.1086H15.9257C15.9413 10.1086 15.9545 10.097 15.9566 10.0817C15.9598 10.0602 15.9626 10.0381 15.9657 10.0153C15.9691 9.99061 15.9707 9.95938 15.9707 9.91942C15.9707 9.74402 15.9373 9.57641 15.8711 9.42163ZM14.6434 9.14853C14.7308 9.14853 14.8122 9.16196 14.8853 9.1888C14.9586 9.21563 15.0251 9.2534 15.0831 9.30115C15.1411 9.34921 15.1911 9.40697 15.2317 9.47311C15.2657 9.52836 15.2928 9.58858 15.3128 9.65286H13.9486C13.9689 9.58891 13.9967 9.52866 14.0319 9.47341C14.0741 9.40727 14.1259 9.34951 14.1861 9.30176C14.2464 9.25367 14.3156 9.21593 14.3921 9.18877C14.4683 9.16194 14.5528 9.14853 14.6434 9.14853Z" fill="white"/>
<path d="M18 10.7084L17.9953 11.1656C17.995 11.1828 17.9812 11.1965 17.9641 11.1965H17.5137C17.3858 11.1965 17.2634 11.1831 17.1501 11.1566C17.0343 11.1297 16.932 11.0795 16.8465 11.0074C16.761 10.935 16.6923 10.8351 16.6424 10.7106C16.5931 10.587 16.5681 10.4269 16.5681 10.2349V9.29927H16.2064C16.1892 9.29927 16.1752 9.28522 16.1752 9.26807V8.8383C16.1752 8.82425 16.1845 8.81207 16.1979 8.80833L16.5578 8.70847L16.6664 8.02623C16.6689 8.01124 16.682 8 16.6973 8H17.1548C17.172 8 17.186 8.01406 17.186 8.03121V8.75683H17.9048C17.922 8.75683 17.936 8.77088 17.936 8.78803V9.26804C17.936 9.28519 17.922 9.29925 17.9048 9.29925H17.1838V10.2302C17.1838 10.321 17.1945 10.3963 17.2151 10.454C17.2356 10.5111 17.2628 10.5564 17.2965 10.5885C17.3299 10.6207 17.3698 10.6435 17.4151 10.6562C17.4619 10.67 17.5128 10.6768 17.5665 10.6768H17.9688C17.9772 10.6768 17.985 10.6803 17.9909 10.6862C17.9968 10.6922 18 10.7 18 10.7084Z" fill="white"/>
</svg>
