<svg xmlns="http://www.w3.org/2000/svg" xmlns:xlink="http://www.w3.org/1999/xlink" viewBox="0 0 80 80"><defs><linearGradient id="a" x1="38.86" y1="74.19" x2="48.52" y2="74.19" gradientUnits="userSpaceOnUse"><stop offset="0" stop-color="#aedfe4"/><stop offset="1" stop-color="#5e9dd0"/></linearGradient><linearGradient id="b" x1="44.26" y1="72.24" x2="59.21" y2="72.24" xlink:href="#a"/><linearGradient id="c" x1="32.03" y1="68.86" x2="51.13" y2="68.86" xlink:href="#a"/><linearGradient id="d" x1="55.08" y1="56.16" x2="66.26" y2="56.16" xlink:href="#a"/><linearGradient id="e" x1="23.87" y1="62.86" x2="44.17" y2="62.86" xlink:href="#a"/><linearGradient id="f" x1="6.13" y1="30.98" x2="52.55" y2="30.98" xlink:href="#a"/><linearGradient id="g" x1="15.25" y1="21.66" x2="53.43" y2="21.66" xlink:href="#a"/><linearGradient id="h" x1="56.77" y1="30.8" x2="65.9" y2="30.8" xlink:href="#a"/><linearGradient id="i" x1="21.1" y1="35.27" x2="70.47" y2="35.27" xlink:href="#a"/></defs><path d="M46.33 80a2 2 0 01-.85-.19 2.05 2.05 0 01-1.09-2.57c.07-.57-.59-2.5-4.58-5.06A2.07 2.07 0 0142 68.7c3.21 2.06 5.26 4.22 6.08 6.4a4.85 4.85 0 01.09 3.69A2.05 2.05 0 0146.33 80zm-1.95-2.73zm.07-.19zm0 0z" fill="url(#a)"/><path d="M46.33 80a2.07 2.07 0 01-.62-4 13.52 13.52 0 009.4-9.75 2.06 2.06 0 114.07.69A17.51 17.51 0 0147 79.9a1.87 1.87 0 01-.67.1z" fill="url(#b)"/><path d="M41.27 72.51a10.86 10.86 0 01-4.55-.94A8.81 8.81 0 0132 66.39l4-1.15a4.7 4.7 0 002.53 2.64c2.25 1 5.6.56 9.69-1.28a2.07 2.07 0 011.69 3.77 21.36 21.36 0 01-8.64 2.14z" fill="url(#c)"/><path d="M57.15 68.62a2.06 2.06 0 01-.89-3.93c2.78-1.32 2.57-3.32 2.49-3.76a1.88 1.88 0 01.71-2.08c.3-.26 4.24-3.91 2-12.57a2.07 2.07 0 014-1.05c2.36 9-.86 14.08-2.51 16A7.78 7.78 0 0158 68.42a2 2 0 01-.85.2z" fill="url(#d)"/><path d="M34.66 67.9a11.88 11.88 0 01-5.27-1.15 10.82 10.82 0 01-5.45-6.3 2.07 2.07 0 014-1.13 6.57 6.57 0 003.34 3.74c2.47 1.18 5.85.89 10.05-.85A2.07 2.07 0 1142.89 66a21.7 21.7 0 01-8.23 1.9z" fill="url(#e)"/><path d="M26.8 62a19.15 19.15 0 01-3.51-.28c-.89-.14-10.18-1.88-14.65-10.82S6.93 31.69 7.13 31C11 15.81 27.84 6.88 29.17 6.2A46.16 46.16 0 0150.48 0a2.07 2.07 0 110 4.13 42.9 42.9 0 00-19.27 5.66l-.11.06c-.16.09-16.48 8.53-20 22.18 0 .09-2.53 9.42 1.23 16.94C16 56.32 23.89 57.59 24 57.61h.12a18.34 18.34 0 004.38.14 29.19 29.19 0 0010.73-3 2.07 2.07 0 111.77 3.7A32.24 32.24 0 0126.8 62z" fill="url(#f)"/><path d="M16.83 36.9h-.11a1.57 1.57 0 01-1.08-.54 1.54 1.54 0 01-.38-1.14c.67-9.74 7-15.64 9.76-17.73C37.39 8 47.72 6.63 51 6.45l.08.16-.08-.16h.81a1.58 1.58 0 110 3.16C50.65 9.6 40 9.94 27 20c-2.37 1.83-8 7-8.54 15.44a1.59 1.59 0 01-1.63 1.46z" fill="url(#g)"/><path d="M58.35 41.84a1.56 1.56 0 01-1.3-.68 1.59 1.59 0 01.41-2.2c1.26-.88 4.66-3.86 5.18-7.11.62-3.94-1.7-8.27-2.61-9h-.05.05l-.08-.06a1.58 1.58 0 01.73-3 1.66 1.66 0 01.66.14c1.72.79 3 3.83 3.38 4.74a15.3 15.3 0 011.05 7.71c-.84 5.28-6.28 9.06-6.51 9.22a1.61 1.61 0 01-.91.24z" fill="url(#h)"/><path d="M28.12 38.35a9.73 9.73 0 01.66-8c2.32-4.07 6.94-7.62 13.73-10.55 9-3.9 15.58-2.19 19.49-.06a18.59 18.59 0 016.42 5.7c.53.76 4.69 7.38-.62 17.16s-16.62 15.78-17.09 16a2.05 2.05 0 01-2.79-.88 2.08 2.08 0 01.89-2.79c.15-.07 10.61-5.58 15.36-14.32 4.23-7.8 1-12.64.85-12.84l-.07-.1c-.26-.41-6.72-10.18-20.8-4.1A8.14 8.14 0 0147 26.2c1.57 2.43 2.53 8.31-4.88 13.75-2.45 1.8-6 3.72-9.94 3.72a11.92 11.92 0 01-2.75-.32 10.59 10.59 0 01-5-2.67c-2.47-2.6-3.58-5.35-3.31-8.21.49-5.2 5.46-9.4 9.74-12.48 6.81-4.91 17.15-8 17.59-8.18a2.07 2.07 0 011.19 4c-.1 0-10.12 3.07-16.36 7.57-3.29 2.37-7.71 5.94-8 9.52-.15 1.63 0 4.42 2.87 5.49l5 1.26" fill="url(#i)"/></svg>