<svg viewBox="0 0 20 20" xmlns="http://www.w3.org/2000/svg">
<rect width="100%" height="100%" fill="#73AED6"/>
<path d="M6.24069 14.637C6.33351 14.6531 6.42679 14.6661 6.52038 14.6761C6.61107 14.858 6.7244 15.0283 6.858 15.1827C7.06847 15.426 7.32509 15.6252 7.613 15.7688C7.84241 15.8778 8.08545 15.9533 8.33468 15.9936C8.41052 16.1328 8.50298 16.2628 8.61032 16.3806C8.79299 16.5811 9.01486 16.742 9.2622 16.8533C9.51478 16.9658 9.78413 17.0345 10.0587 17.0569C10.8666 17.5997 11.0032 18.0057 10.9881 18.129C10.9484 18.2385 10.9516 18.3591 10.9971 18.4663C11.0426 18.5736 11.127 18.6597 11.2333 18.7073C11.2932 18.7354 11.3585 18.75 11.4246 18.75C11.4758 18.7517 11.5275 18.7441 11.576 18.7275C12.2516 18.5305 12.8621 18.1562 13.344 17.6434C13.7699 17.1902 14.0816 16.6436 14.2552 16.0488C14.4939 15.9179 14.6998 15.7326 14.8554 15.5065C15.054 15.2182 15.1615 14.8769 15.1641 14.5268C15.5249 14.1068 16.2195 13.0152 15.7705 11.0947C15.9476 10.8544 16.1117 10.6009 16.2561 10.335C17.4508 8.13451 16.5148 6.64501 16.3956 6.47401C16.0207 5.93965 15.526 5.50044 14.9511 5.19151C14.0713 4.71226 12.5908 4.32751 10.5658 5.20501C9.03806 5.86426 7.99856 6.66301 7.47656 7.57876C7.32519 7.85096 7.23364 8.15232 7.20804 8.46273C7.18243 8.77313 7.22335 9.08543 7.32806 9.37875L8.45981 9.67126L7.33481 9.38776C6.68906 9.14701 6.65531 8.51926 6.68906 8.15251C6.75431 7.34701 7.74881 6.54376 8.48906 6.01051C9.89306 4.99801 12.1476 4.30726 12.1701 4.30726C12.2292 4.28968 12.2842 4.26063 12.3321 4.22177C12.3799 4.18291 12.4197 4.13501 12.449 4.08079C12.4784 4.02657 12.4968 3.9671 12.5032 3.90578C12.5095 3.84445 12.5038 3.78248 12.4862 3.72338C12.4686 3.66429 12.4396 3.60923 12.4007 3.56136C12.3618 3.51349 12.3139 3.47375 12.2597 3.44439C12.2055 3.41504 12.146 3.39665 12.0847 3.39028C12.0234 3.38391 11.9614 3.38968 11.9023 3.40726C11.8921 3.41144 11.8581 3.4226 11.8037 3.44047C11.3314 3.59568 9.31862 4.25706 7.94456 5.24776C6.98156 5.94076 5.86331 6.88576 5.75306 8.05576C5.69231 8.69926 5.94206 9.31801 6.49781 9.90301C6.81126 10.2018 7.20019 10.4094 7.62281 10.5038C7.82556 10.5517 8.03321 10.5759 8.24156 10.5758C9.12806 10.5758 9.92681 10.1438 10.4781 9.73876C12.1453 8.51476 11.9293 7.19176 11.5761 6.64501C11.4131 6.39897 11.1931 6.19596 10.9348 6.05326C12.6862 5.29695 13.9137 5.63066 14.671 6.0959C14.9037 6.46399 15.2049 7.21739 15.0949 7.91626C14.9779 8.64751 14.2129 9.31801 13.9294 9.51601C13.8519 9.56971 13.7987 9.65183 13.7814 9.74453C13.7642 9.83722 13.7842 9.93299 13.8372 10.011C13.8696 10.0585 13.9133 10.0974 13.9643 10.124C14.0153 10.1507 14.0721 10.1644 14.1297 10.164C14.2018 10.1668 14.2731 10.148 14.3344 10.11C14.3882 10.0726 15.6103 9.22243 15.7992 8.03551C15.8246 7.82765 15.8309 7.61872 15.8185 7.41127C15.9672 7.88509 16.0587 8.74514 15.4393 9.88726C14.3706 11.8538 12.0171 13.0935 11.9833 13.1093C11.8739 13.1664 11.7915 13.2643 11.754 13.3819C11.7165 13.4995 11.7269 13.6271 11.7831 13.737C11.8109 13.7916 11.8492 13.8402 11.896 13.8798C11.9428 13.9194 11.997 13.9493 12.0554 13.9677C12.1138 13.9861 12.1754 13.9927 12.2364 13.9871C12.2974 13.9815 12.3567 13.9638 12.4108 13.935C12.486 13.8998 13.7941 13.2072 14.9734 12.0189C15.0683 13.3564 14.4354 13.9422 14.3788 13.9913C14.3064 14.0426 14.2521 14.1155 14.2234 14.1995C14.1947 14.2835 14.1932 14.3743 14.2191 14.4593C14.2371 14.5583 14.2843 15.0083 13.6588 15.3053C13.5624 15.3498 13.4843 15.426 13.4374 15.5212C13.4103 15.5762 13.3946 15.6356 13.3906 15.6959C13.2587 16.1998 12.9996 16.6617 12.6377 17.0371C12.399 17.2846 12.1211 17.4889 11.8164 17.6424C11.7234 17.3977 11.5615 17.1541 11.3327 16.9139C11.6412 16.834 11.9418 16.7234 12.2299 16.5833C12.3346 16.528 12.4143 16.435 12.4529 16.3231C12.4914 16.2112 12.486 16.0888 12.4375 15.9808C12.3891 15.8728 12.3014 15.7873 12.1922 15.7417C12.0831 15.696 11.9606 15.6936 11.8497 15.735C10.9294 16.149 10.1757 16.248 9.66945 16.023C9.62078 16.002 9.57388 15.9775 9.52911 15.9496C9.91473 15.8788 10.2913 15.7616 10.6505 15.6C10.7152 15.5836 10.7756 15.5534 10.8276 15.5117C10.8796 15.4699 10.922 15.4174 10.952 15.3578C10.9819 15.2982 10.9987 15.2328 11.0013 15.1661C11.0038 15.0994 10.9919 15.033 10.9665 14.9713C10.9411 14.9096 10.9028 14.8541 10.8541 14.8085C10.8053 14.7629 10.7474 14.7283 10.6841 14.7071C10.6209 14.6858 10.5538 14.6784 10.4875 14.6854C10.4211 14.6923 10.357 14.7134 10.2995 14.7473C9.3545 15.1388 8.594 15.204 8.03825 14.9385C7.89257 14.8681 7.76088 14.7749 7.6474 14.6638C8.54495 14.5727 9.41951 14.3147 10.2254 13.9013C10.2888 13.881 10.347 13.8474 10.3963 13.8027C10.4456 13.758 10.4847 13.7033 10.5111 13.6422C10.5374 13.5811 10.5504 13.5151 10.5491 13.4486C10.5478 13.3821 10.5323 13.3167 10.5036 13.2567C10.4749 13.1967 10.4337 13.1435 10.3827 13.1008C10.3317 13.0581 10.2722 13.0267 10.2081 13.0089C10.144 12.9911 10.0769 12.9873 10.0112 12.9976C9.94546 13.0079 9.88273 13.0322 9.82719 13.0688C9.07324 13.4467 8.25356 13.6758 7.41294 13.7438C7.08436 13.7727 6.7535 13.7621 6.42744 13.7123H6.40044L6.39867 13.7119C6.33102 13.7003 4.59001 13.4011 3.77469 11.7683C2.97794 10.1748 3.43645 8.22006 3.49254 7.98094C3.49601 7.96616 3.49794 7.95793 3.49794 7.95675C4.27411 4.94689 7.81629 3.06289 7.99147 2.96971L7.99794 2.96625L8.02269 2.95275C9.34681 2.19116 10.8328 1.7547 12.3584 1.67925C12.4222 1.68369 12.4861 1.67497 12.5464 1.65363C12.6066 1.63229 12.6618 1.59879 12.7085 1.55521C12.7552 1.51163 12.7925 1.45891 12.8179 1.40031C12.8434 1.34172 12.8565 1.27852 12.8565 1.21463C12.8565 1.15074 12.8434 1.08753 12.8179 1.02894C12.7925 0.970351 12.7552 0.917626 12.7085 0.874047C12.6618 0.830468 12.6066 0.796967 12.5464 0.775628C12.4861 0.754288 12.4222 0.745566 12.3584 0.750004C10.6705 0.818149 9.0247 1.29699 7.56369 2.145C7.26444 2.298 3.47544 4.30725 2.60469 7.725C2.55969 7.88025 1.93869 10.191 2.94444 12.2025C3.95019 14.214 6.04044 14.6055 6.24069 14.637Z" fill="white"/>
<path d="M4.7622 9.05251H4.78695C4.87851 9.05511 4.96759 9.0225 5.03582 8.96138C5.10406 8.90027 5.14625 8.8153 5.1537 8.724C5.2752 6.82501 6.54195 5.66176 7.0752 5.25001C10.0002 2.98651 12.3964 2.91001 12.6574 2.91226C12.7041 2.91226 12.7504 2.90306 12.7935 2.8852C12.8366 2.86733 12.8758 2.84114 12.9088 2.80813C12.9418 2.77512 12.968 2.73593 12.9859 2.6928C13.0038 2.64967 13.0129 2.60344 13.0129 2.55676C13.0129 2.51007 13.0038 2.46384 12.9859 2.42071C12.968 2.37758 12.9418 2.33839 12.9088 2.30538C12.8758 2.27237 12.8366 2.24618 12.7935 2.22832C12.7504 2.21045 12.7041 2.20126 12.6574 2.20126H12.4752C11.7372 2.24176 9.41295 2.55001 6.6297 4.68526C6.0087 5.15551 4.58445 6.48301 4.4337 8.67451C4.43003 8.72081 4.43571 8.76737 4.4504 8.81144C4.46509 8.8555 4.48848 8.89616 4.5192 8.93101C4.54968 8.96629 4.58684 8.9952 4.62855 9.01605C4.67026 9.0369 4.71568 9.04929 4.7622 9.05251Z" fill="white"/>
</svg>
