<svg xmlns="http://www.w3.org/2000/svg" viewBox="0 0 20 20">
  <rect width="100%" height="100%" fill="#61A0D1"/>
  <path fill="#fff" d="m6.62 14.64.28.04a2.43 2.43 0 0 0 1.81 1.31 1.98 1.98 0 0 0 .93.86c.25.12.52.18.8.2.8.55.94.96.92 1.08a.46.46 0 0 0 .25.58c.06.03.12.04.19.04.05 0 .1 0 .15-.02a3.94 3.94 0 0 0 2.68-2.68 1.75 1.75 0 0 0 .9-1.52c.37-.42 1.06-1.51.62-3.44.17-.24.34-.49.48-.75 1.2-2.2.26-3.7.14-3.87a4.18 4.18 0 0 0-1.44-1.28c-.88-.48-2.36-.86-4.39.02-1.53.65-2.57 1.45-3.09 2.37a2.19 2.19 0 0 0-.15 1.8l1.13.3-1.12-.3c-.65-.23-.68-.86-.65-1.23.07-.8 1.06-1.6 1.8-2.14a14.7 14.7 0 0 1 3.68-1.7.47.47 0 0 0-.26-.9l-.1.03c-.47.16-2.49.82-3.86 1.8-.96.7-2.08 1.65-2.2 2.82-.05.64.2 1.26.75 1.84.32.3.7.51 1.13.6.2.05.4.08.62.08a3.9 3.9 0 0 0 2.23-.84c1.67-1.22 1.45-2.55 1.1-3.1a1.83 1.83 0 0 0-.64-.59c1.75-.75 2.98-.42 3.74.05.23.37.53 1.12.42 1.82-.12.73-.88 1.4-1.17 1.6a.36.36 0 0 0 .04.6c.05.03.1.04.16.04.08 0 .15-.01.2-.05.06-.04 1.29-.89 1.47-2.07.03-.21.04-.42.02-.63.15.48.24 1.34-.38 2.48-1.07 1.96-3.42 3.2-3.45 3.22a.47.47 0 0 0 .07.86.46.46 0 0 0 .36-.03 11.3 11.3 0 0 0 2.56-1.92c.1 1.34-.54 1.92-.6 1.97a.42.42 0 0 0-.16.47c.02.1.07.55-.56.85a.46.46 0 0 0-.26.38 3.04 3.04 0 0 1-1.58 1.95c-.1-.24-.25-.49-.48-.73.3-.08.6-.19.9-.33a.47.47 0 0 0-.38-.84c-.92.4-1.68.5-2.18.28l-.15-.07a4.88 4.88 0 0 0 1.3-.44.47.47 0 0 0-.52-.76c-.95.39-1.71.45-2.27.19a1.48 1.48 0 0 1-.39-.28 7.26 7.26 0 0 0 2.75-.86.47.47 0 0 0-.57-.73c-.75.38-1.57.6-2.41.67-.33.03-.66.02-.99-.03h-.02a3.81 3.81 0 0 1-2.63-1.94c-.8-1.6-.34-3.55-.28-3.79v-.02c.78-3.01 4.32-4.9 4.5-4.99l.03-.02a9.65 9.65 0 0 1 4.52-1.3.47.47 0 0 0-.19-.9c-1.68.07-3.33.55-4.8 1.4-.29.15-4.08 2.16-4.95 5.58-.04.15-.67 2.46.34 4.47 1 2.01 3.1 2.4 3.3 2.44Z"/>
  <path fill="#fff" d="M5.14 9.05h.02a.36.36 0 0 0 .37-.33 4.87 4.87 0 0 1 1.92-3.47c2.93-2.26 5.32-2.34 5.58-2.34a.36.36 0 1 0 0-.7h-.18c-.74.03-3.06.34-5.84 2.48a5.57 5.57 0 0 0-2.2 3.99.35.35 0 0 0 .09.25.35.35 0 0 0 .24.12Z"/>
</svg>