<svg viewBox="0 0 20 20" xmlns="http://www.w3.org/2000/svg">
<rect width="100%" height="100%" fill="white"/>
<path d="M10.0757 6.39111C10.543 6.39113 10.9585 6.80659 10.9585 7.27393C10.9585 7.74128 10.595 8.15673 10.0757 8.15674C9.60832 8.15674 9.19287 7.79321 9.19287 7.27393C9.19289 6.80658 9.55641 6.39111 10.0757 6.39111Z" fill="#95CA51"/>
<path fill-rule="evenodd" clip-rule="evenodd" d="M10.0757 1.25C13.3991 1.25001 16.0993 3.95027 16.0994 7.27368C16.0994 7.741 16.0474 8.20837 15.9436 8.62378C16.0475 9.03921 16.0994 9.50676 16.1514 9.97412C16.1514 10.4415 16.0995 10.9088 15.9956 11.3242C16.0995 11.7396 16.1514 12.207 16.1514 12.6743C16.1514 16.0497 13.3991 18.75 10.0757 18.75C6.70031 18.75 4 15.9978 4 12.6743C4 12.207 4.05191 11.7396 4.15576 11.3242C4.05191 10.9088 4.00001 10.4415 4 9.97412C4 9.50676 4.0519 9.09121 4.15576 8.67578C4.05191 8.26037 4 7.79302 4 7.32568C4 3.95031 6.70031 1.25 10.0757 1.25ZM14.6973 13.8167C13.5548 15.1668 11.9451 15.9978 10.0757 15.9978C8.20625 15.9978 6.54461 15.1149 5.4541 13.8167C6.02532 15.8938 7.84275 17.3999 10.0757 17.3999C12.2567 17.3999 14.1261 15.8938 14.6973 13.8167ZM14.5415 11.2722C13.451 12.5185 11.8412 13.3494 10.0237 13.3494C8.2062 13.3493 6.59635 12.5185 5.50586 11.2722V11.3242C6.07708 13.2975 7.89478 14.6995 9.97192 14.7515C12.1529 14.7514 13.9703 13.2975 14.5415 11.3242V11.2722ZM10.0757 2.49634C7.42733 2.49634 5.29837 4.62534 5.29834 7.27368C5.29834 9.92205 7.42732 12.0513 10.0757 12.0513C12.6721 12.0513 14.8011 9.92204 14.853 7.27368C14.853 4.62535 12.724 2.49635 10.0757 2.49634Z" fill="#95CA51"/>
</svg>
