<svg viewBox="0 0 20 20" xmlns="http://www.w3.org/2000/svg">
<rect width="100%" height="100%" fill="white"/>
<path d="M4.65229 12.2982C5.07171 12.2982 5.36531 12.6337 5.36531 13.0112C5.36531 13.4306 5.02977 13.7242 4.65229 13.7242C4.23286 13.7242 3.93926 13.3887 3.93926 13.0112C3.89732 12.6337 4.23286 12.2982 4.65229 12.2982Z" fill="#A674E5"/>
<path d="M14.5507 9.15248C14.9701 9.15248 15.2637 9.48802 15.2637 9.86551C15.2637 10.2849 14.9282 10.5785 14.5507 10.5785C14.1732 10.5785 13.8377 10.243 13.8377 9.86551C13.8796 9.48802 14.2151 9.15248 14.5507 9.15248Z" fill="#A674E5"/>
<path d="M0.5 6.25828V7.22296H10.5243C10.1049 7.8521 9.8532 8.60706 9.76932 9.40397H4.27484V10.4106H9.72738C9.81126 11.2075 10.0629 11.9625 10.4823 12.5916H6.33002V13.5563H11.3212C12.202 14.3113 13.3344 14.8146 14.5927 14.8146C17.319 14.8146 19.5 12.6336 19.5 9.90728C19.5 7.18101 17.277 5 14.5508 5C13.2925 5 12.16 5.46137 11.2793 6.25828H0.5ZM10.6921 9.86534C10.6921 7.72627 12.4117 6.00662 14.5508 6.00662C16.6898 6.00662 18.4095 7.72627 18.4095 9.86534C18.4095 12.0044 16.6898 13.7241 14.5508 13.7241C12.4536 13.7241 10.6921 12.0044 10.6921 9.86534Z" fill="#A674E5"/>
</svg>
