<svg xmlns="http://www.w3.org/2000/svg" viewBox="0 0 80 80"><path d="M2.32 64.2a12.07 12.07 0 002.52 1.09c3.93 1.1 7.88 2.12 11.8 3.27C22.35 70.22 28 72 33.74 73.67a32.07 32.07 0 0014 1.43 10.81 10.81 0 005-2 15.77 15.77 0 003.48-3.72c1.12-1.59 2.18-3.22 3.23-4.86l1.64-2.71c2.74-4.37 5.44-8.77 8.26-13.09A47.65 47.65 0 0173.09 44a8.5 8.5 0 014.29-2.85 3.3 3.3 0 002.46-4.34A21.4 21.4 0 0078.36 33 4.53 4.53 0 0074 30.43a4.29 4.29 0 00-4.64 4 8.51 8.51 0 01-1.56 4.32 30.79 30.79 0 01-3.37 3.83c-1.89 1.76-3.88 3.41-5.91 5a46.72 46.72 0 01-4.14 2.78 2.69 2.69 0 01-2.42.2 5.66 5.66 0 01-3.86-3.74 17.75 17.75 0 01-.77-4.44c0-4.32.08-8.65.21-13 .09-2.77.29-5.54.52-8.31a28.42 28.42 0 01.7-4.09 3.4 3.4 0 011-1.71 3.66 3.66 0 001.08-3.8 9.22 9.22 0 00-6.71-6.74c-3.39-.64-5.12 1.65-5 4.13a6.81 6.81 0 001.3 3.65 6.06 6.06 0 011.14 3.92c-.2 2.57-.3 5.08-.57 7.57-.46 3.94-1 7.86-1.62 11.77-.3 1.88-.77 3.73-1.21 5.58A3.61 3.61 0 0133.33 44a12.22 12.22 0 01-2.51-1.31 22.75 22.75 0 01-5.15-5.57A64.82 64.82 0 0120.41 28c-1-2-1.89-4-2.71-6.09a10.29 10.29 0 01-.58-6.64 2.73 2.73 0 00.12-.94 8.18 8.18 0 00-5.39-7.21 4.8 4.8 0 00-5.18 1.1 9.53 9.53 0 00-.85.83 2.57 2.57 0 00-.5 3.46A21.22 21.22 0 007.2 15.3a38.8 38.8 0 014.63 7.05c1 2 1.9 4.1 2.89 6.14 2.22 4.57 4.6 9.06 6.66 13.7a30 30 0 012.49 16.15c-.29 2.36-1.53 3.59-3.94 3.57-4.44 0-8.45-1.14-11.48-4.72a8.56 8.56 0 00-4.36-3A2.79 2.79 0 00.82 55.5 7.57 7.57 0 00.06 58a7.41 7.41 0 00.85 4.52 6.27 6.27 0 001.41 1.68"/></svg>