<svg xmlns="http://www.w3.org/2000/svg" viewBox="0 0 20 20">
  <rect width="100%" height="100%" fill="#202628"/>
  <path fill="#fff" d="M17.5 9.91c-1 .27-1.82 1.89-2.33 2.86-.53.97-1.48 3.23-2.9 3.78-1.4.55-3.6-.17-4.68-.6-1.07-.4-3.23-.62-4.8-1.37-1.54-.74-.5-2.3.38-1.77.9.52.74 1.18 2.16 1.37 1.41.19 1.78-.15 1.86-.74.08-.6-.04-1.78-.38-2.41-.33-.63-1.7-3.86-2.26-4.8-.55-.92-1.89-2.7-.7-3 1.2-.3 1.63 1.08 1.6 1.97-.04.89.78 2.23 1.52 3.64.45.84 1.16 1.5 2.04 1.88.82.23.93-.55 1.08-.85.15-.3.67-3.74.19-5.3-.49-1.57.4-2.23 1.26-1.57.86.66.78 1.63.38 1.86-.4.23-.34 3.05-.34 3.05s-.23 3.48.81 3.97c1.04.48 3.05-1.6 3.7-2.94.68-1.33 1.05-.78 1.34-.78.3.02 1.08 1.5.07 1.75Z"/>
</svg>