<svg viewBox="0 0 20 20" xmlns="http://www.w3.org/2000/svg">
<rect width="100%" height="100%" fill="#202628"/>
<path d="M17.0302 9.90067C16.0952 10.1508 15.3246 11.6512 14.8445 12.5515C14.3518 13.4518 13.4547 15.5524 12.1282 16.0651C10.8142 16.5777 8.75488 15.9025 7.74415 15.5149C6.73343 15.1398 4.71198 14.9272 3.24644 14.2395C1.79352 13.5518 2.76634 12.1013 3.60019 12.589C4.43403 13.0766 4.29506 13.6893 5.62164 13.8644C6.94821 14.0394 7.28932 13.7269 7.36513 13.1767C7.44093 12.6265 7.32723 11.5262 7.01138 10.9385C6.69553 10.3508 5.40686 7.34989 4.88886 6.48713C4.37086 5.62436 3.1201 3.97386 4.23189 3.69877C5.35632 3.42369 5.76061 4.69908 5.73534 5.52433C5.69744 6.34958 6.46812 7.59997 7.16299 8.90037C7.57715 9.68321 8.25072 10.3013 9.07072 10.6509C9.8414 10.8635 9.94247 10.1382 10.0814 9.86316C10.2204 9.58808 10.7131 6.3871 10.2583 4.93665C9.8035 3.4862 10.6373 2.87352 11.4459 3.48621C12.2545 4.09889 12.1787 4.99917 11.7997 5.21173C11.4207 5.4243 11.4838 8.0376 11.4838 8.0376C11.4838 8.0376 11.269 11.2761 12.2419 11.7262C13.2147 12.1764 15.0972 10.2383 15.7162 9.0004C16.3479 7.76252 16.689 8.27518 16.967 8.27518C17.2449 8.28768 17.9777 9.6631 17.0302 9.90067Z" fill="white"/>
</svg>
