<svg viewBox="0 0 20 20" xmlns="http://www.w3.org/2000/svg">
<rect width="100%" height="100%" fill="black"/>
<path d="M17.7072 3.75H2.29282C1.57882 3.75 1 4.32882 1 5.04282V14.9874C1 15.7014 1.57882 16.2802 2.29282 16.2802H17.7072C18.4212 16.2802 19 15.7014 19 14.9874V5.04282C19 4.32882 18.4212 3.75 17.7072 3.75Z" fill="white"/>
<path d="M17.0415 4.58887H2.95849C2.34007 4.58887 1.83875 5.09019 1.83875 5.70861V14.3219C1.83875 14.9403 2.34007 15.4416 2.95849 15.4416H17.0415C17.6599 15.4416 18.1613 14.9403 18.1613 14.3219V5.70861C18.1613 5.09019 17.6599 4.58887 17.0415 4.58887Z" fill="black"/>
<path d="M15.558 7.42678V8.08076C15.558 8.14796 15.5448 8.21451 15.5191 8.2766C15.4934 8.33868 15.4557 8.3951 15.4082 8.44262C15.3606 8.49014 15.3042 8.52783 15.2421 8.55355C15.18 8.57927 15.1135 8.59251 15.0463 8.59251H13.8647C13.7975 8.59251 13.731 8.60574 13.6689 8.63146C13.6068 8.65718 13.5504 8.69487 13.5029 8.74239C13.4553 8.78991 13.4177 8.84633 13.3919 8.90841C13.3662 8.9705 13.353 9.03705 13.353 9.10425V12.6035C13.353 12.6707 13.3397 12.7372 13.314 12.7993C13.2883 12.8614 13.2506 12.9178 13.2031 12.9653C13.1556 13.0128 13.0992 13.0505 13.0371 13.0762C12.975 13.102 12.9084 13.1152 12.8412 13.1152H12.1873C12.0515 13.1152 11.9214 13.0613 11.8254 12.9653C11.7294 12.8693 11.6755 12.7392 11.6755 12.6035V9.10425C11.6755 8.96853 11.6216 8.83836 11.5256 8.74239C11.4297 8.64642 11.2995 8.59251 11.1638 8.59251H9.9822C9.84648 8.59251 9.71632 8.53859 9.62034 8.44262C9.52437 8.34665 9.47046 8.21648 9.47046 8.08076V7.42678C9.47046 7.29106 9.52437 7.1609 9.62034 7.06493C9.71632 6.96895 9.84648 6.91504 9.9822 6.91504H15.0463C15.1135 6.91504 15.18 6.92828 15.2421 6.95399C15.3042 6.97971 15.3606 7.01741 15.4082 7.06493C15.4557 7.11245 15.4934 7.16886 15.5191 7.23095C15.5448 7.29304 15.558 7.35958 15.558 7.42678Z" fill="white"/>
<path d="M4.29198 7.39248L5.80802 9.70695C5.86835 9.79906 5.90047 9.90678 5.90043 10.0169C5.90039 10.127 5.8682 10.2347 5.8078 10.3268L4.29176 12.6379C4.27196 12.6681 4.2607 12.7031 4.25915 12.7391C4.25761 12.7752 4.26585 12.811 4.283 12.8427C4.30015 12.8745 4.32556 12.901 4.35656 12.9195C4.38755 12.938 4.42297 12.9477 4.45906 12.9478H5.52898C5.64264 12.9478 5.7545 12.9192 5.85428 12.8648C5.95407 12.8104 6.0386 12.7318 6.10014 12.6362L7.58611 10.3285C7.64594 10.2356 7.67777 10.1274 7.67781 10.0169C7.67785 9.90638 7.64609 9.7982 7.58632 9.70525L6.10019 7.39418C6.03872 7.29859 5.95423 7.21995 5.85447 7.1655C5.75471 7.11104 5.64287 7.08251 5.52922 7.08251H4.45951C4.4234 7.08251 4.38797 7.09227 4.35695 7.11077C4.32594 7.12926 4.30051 7.15579 4.28334 7.18755C4.26618 7.21932 4.25792 7.25514 4.25944 7.29121C4.26097 7.32729 4.2722 7.36228 4.29198 7.39248Z" fill="white"/>
</svg>
