<svg viewBox="0 0 20 20" xmlns="http://www.w3.org/2000/svg">
<rect width="100%" height="100%" fill="#E95420"/>
<path d="M15.7665 4.67049C15.7665 5.90374 14.7667 6.90349 13.5335 6.90349C12.3002 6.90349 11.3005 5.90374 11.3005 4.67049C11.3005 3.43725 12.3002 2.4375 13.5335 2.4375C14.7667 2.4375 15.7665 3.43725 15.7665 4.67049Z" fill="white"/>
<path d="M6.46599 9.5655C6.46599 10.7987 5.46624 11.7985 4.23299 11.7985C2.99975 11.7985 2 10.7987 2 9.5655C2 8.33225 2.99975 7.3325 4.23299 7.3325C5.46624 7.3325 6.46599 8.33225 6.46599 9.5655Z" fill="white"/>
<path d="M3.595 12.673C4.14423 14.0588 5.10271 15.2444 6.34275 16.0717C7.58278 16.8991 9.04549 17.3289 10.536 17.304C10.1005 16.7561 9.85959 16.0789 9.85123 15.379C9.6514 15.3515 9.45982 15.3185 9.27648 15.28C8.48597 15.1124 7.74319 14.7694 7.103 14.2763C6.46281 13.7832 5.94156 13.1526 5.57774 12.431C4.96038 12.7239 4.26469 12.8089 3.595 12.673Z" fill="white"/>
<path d="M15.2632 15.324C15.2632 16.5572 14.2635 17.557 13.0302 17.557C11.797 17.557 10.7972 16.5572 10.7972 15.324C10.7972 14.0907 11.797 13.091 13.0302 13.091C14.2635 13.091 15.2632 14.0907 15.2632 15.324Z" fill="white"/>
<path d="M15.024 12.838C15.5692 13.2747 15.9558 13.8786 16.124 14.5567C17.1084 13.3375 17.6759 11.8347 17.7432 10.2692C17.8106 8.7036 17.3741 7.15769 16.498 5.85848C16.2436 6.49294 15.79 7.0276 15.2055 7.38197C15.6601 8.22631 15.8827 9.17605 15.8509 10.1345C15.819 11.0929 15.5337 12.0257 15.024 12.838Z" fill="white"/>
<path d="M4.8985 6.45527C4.68154 6.40915 4.46031 6.38611 4.2385 6.38652C4.15875 6.38652 4.08175 6.38927 4.002 6.39477C4.69604 5.1652 5.72746 4.15993 6.97444 3.4977C8.22143 2.83547 9.63189 2.54393 11.0392 2.65753C10.7228 3.04949 10.5025 3.51 10.3957 4.00228C10.3619 4.17458 10.3416 4.34929 10.3352 4.52477C9.46698 4.53643 8.61421 4.7563 7.84856 5.16592C7.08292 5.57554 6.42677 6.16294 5.93524 6.87877C5.61702 6.67818 5.26615 6.53485 4.8985 6.45527Z" fill="white"/>
</svg>
