<svg viewBox="0 0 20 20" xmlns="http://www.w3.org/2000/svg">
<rect width="100%" height="100%" fill="black"/>
<path d="M10.6129 4.86258L13.199 6.3245C13.2919 6.37583 13.2953 6.51821 13.199 6.56954L10.1261 8.30795C10.0332 8.36093 9.92332 8.35761 9.83709 8.30795L6.76428 6.56954C6.66963 6.51987 6.66794 6.37417 6.76428 6.3245L9.34864 4.86258V2L2.75 5.73179V13.1953L5.28027 11.7649V8.84107C5.27857 8.73673 5.40365 8.66225 5.49662 8.71853L8.56944 10.4569C8.6624 10.5099 8.7148 10.6043 8.7148 10.702V14.1771C8.71649 14.2815 8.59142 14.3559 8.49846 14.2997L5.91241 12.8377L3.38214 14.2682L9.9808 18L16.5794 14.2682L14.0491 12.8377L11.4631 14.2997C11.3718 14.3543 11.2434 14.2831 11.2468 14.1771V10.702C11.2468 10.5977 11.3059 10.505 11.3921 10.4569L14.4649 8.71853C14.5562 8.66391 14.6847 8.73347 14.6813 8.84107V11.7649L17.2115 13.1953V5.73179L10.6129 2V4.86258Z" fill="white"/>
</svg>
