<svg xmlns="http://www.w3.org/2000/svg" viewBox="0 0 20 20"><path d="M0 0h20v20H0z"/><path d="M16.76 13.05V5.93l-6.17-3.56V5.1l2.42 1.4c.09.05.09.19 0 .23l-2.87 1.66c-.09.05-.19.05-.27 0L7 6.73c-.09-.05-.09-.19 0-.23l2.42-1.39V2.37L3.24 5.93v7.12l2.37-1.37V8.89c0-.1.12-.17.2-.12l2.87 1.66c.09.05.14.14.14.23v3.32c0 .1-.11.17-.2.12L6.2 12.7l-2.37 1.37L10 17.63l6.17-3.56-2.37-1.37-2.42 1.4c-.09.05-.21-.02-.2-.12v-3.32c0-.1.05-.19.14-.23l2.87-1.66c.09-.05.21.01.2.12v2.79l2.37 1.37z" fill="#fff"/></svg>