<svg viewBox="0 0 20 20" xmlns="http://www.w3.org/2000/svg">
<rect width="100%" height="100%" fill="white"/>
<path d="M9.99999 18C14.4183 18 18 14.4183 18 9.99999C18 5.58172 14.4183 2 9.99999 2C5.58172 2 2 5.58172 2 9.99999C2 14.4183 5.58172 18 9.99999 18Z" fill="#1A4049"/>
<path d="M11.143 6.57104V8.85703V11.143H13.428V8.85703V6.57104H11.143Z" fill="white"/>
<path d="M8.85703 8.85703V6.57104H6.57104V8.85703V11.143V13.428H8.85703H11.143V11.143H8.85703V8.85703Z" fill="white"/>
<path d="M11.143 6.57104V8.85703V11.143H13.428V8.85703V6.57104H11.143Z" fill="white"/>
<path d="M8.85703 8.85703V6.57104H6.57104V8.85703V11.143V13.428H8.85703H11.143V11.143H8.85703V8.85703Z" fill="white"/>
<path d="M13.429 11.1431H11.143V13.4291H13.429V11.1431Z" fill="#817AFE"/>
</svg>
