<svg xmlns="http://www.w3.org/2000/svg" viewBox="0 0 20 20">
  <rect width="100%" height="100%" fill="#7A67F8"/>
  <path fill="#fff" fill-rule="evenodd" d="M5.98 14.43c-1.14-.25-2.16-1.2-2.93-2.03a3.28 3.28 0 0 1-1.04-1.84c-.08-.77.26-1.54 1.05-2.34l1.12-1.15a7.18 7.18 0 0 1 1.37-1.2c.3-1.09 1.19-2.06 1.98-2.8.89-.9 2.28-1.87 4.13 0L12.8 4.2c.42.42.77.82 1.05 1.2 1.2.17 2.28 1.18 3.1 2.06.88.9 1.84 2.3 0 4.17l-1.13 1.15c-1.04 1.04-1.86 1.69-2.78 1.69-.9 0-1.72-.64-2.73-1.66l-2.2-2.2-.3.3c-.98.99-1.36 1.57-1.37 2.06 0 .5.4 1.12 1.39 2.11l1.14 1.14c1.16 1.17 1.86.9 2.75 0h.01a7.76 7.76 0 0 0 1.46-1.75A2.6 2.6 0 0 0 14.4 14c-.26 1.14-1.19 2.15-2 2.93-.52.52-1.2 1.06-2.05 1.06-.61 0-1.3-.28-2.08-1.07L7.14 15.8c-.5-.5-.89-.95-1.16-1.36Zm6.15-5.35-.2.2-2.24-2.24C8.68 6.02 7.87 5.38 6.96 5.38a1.96 1.96 0 0 0-.14 0 8.2 8.2 0 0 1 1.38-1.6l.01-.01c.9-.9 1.6-1.17 2.76 0l1.14 1.14c.98 1 1.38 1.6 1.38 2.1s-.38 1.08-1.36 2.07ZM9.97 8.7 11.24 10l-1.17 1.2L8.79 9.9l1.18-1.2Zm-.04-.03-.66-.66-2.16 2.2c-1.18 1.2-1.73 2.07-1.64 2.96a7.7 7.7 0 0 1-1.71-1.46l-.01-.02c-.48-.48-.72-.88-.76-1.25-.06-.46.2-.96.76-1.53l1.13-1.15c.98-1 1.58-1.4 2.08-1.4S8.02 6.76 9 7.75l.93.93Zm4.13-2.96Zm.37.9c.02.14.04.27.04.4 0 .91-.63 1.73-1.65 2.76l-2.06 2.1.24.24c.97.99 1.55 1.37 2.04 1.37.5 0 1.1-.4 2.08-1.4l1.13-1.15c.57-.57.81-1.07.76-1.53-.04-.37-.28-.77-.76-1.25l-.01-.01a7.35 7.35 0 0 0-1.81-1.52Z" clip-rule="evenodd"/>
</svg>