<svg xmlns="http://www.w3.org/2000/svg" viewBox="0 0 20 20">
  <rect width="100%" height="100%" fill="#2D4C91"/>
  <path fill="#425D9C" d="M0 20V0l20 20H0Z"/>
  <path fill="#fff" d="M10.5 5.04 6.87 15h-1.3L2 5.04h1.3l2.74 7.9c.08.28.15.6.2.87h.03c.04-.31.12-.59.24-.9L9.29 5l1.22.04ZM11.93 15V5.04h2.82c.75-.04 1.45.2 2.04.63.51.4.78 1.03.75 1.66a2.5 2.5 0 0 1-.48 1.46c-.3.44-.74.76-1.25.87v.04c.59.04 1.18.32 1.6.75.4.48.64 1.07.6 1.66.04.8-.32 1.55-.9 2.06-.63.55-1.46.83-2.28.79h-2.9V15Zm1.18-8.9v3.2h1.17c.55.05 1.06-.15 1.5-.47.34-.31.58-.79.54-1.3 0-.95-.63-1.46-1.88-1.46l-1.33.04Zm0 4.24v3.6h1.56c.55.03 1.14-.17 1.57-.48.4-.32.59-.83.55-1.35 0-1.18-.78-1.77-2.4-1.77H13.1Z"/>
</svg>