<svg xmlns="http://www.w3.org/2000/svg" viewBox="0 0 20 20"><defs><style>.b{fill:#fff}</style></defs><path fill="#3c99d4" d="M0 0h20v20H0z"/><path class="b" d="M2.15 7.69s-.39-.28.08-.66l1.09-1A.46.46 0 014 6l10 7.63v3.65s0 .57-.75.51z"/><path class="b" d="M4.74 10l-2.59 2.4s-.26.2 0 .55l1.21 1.1s.28.3.7-.05l2.75-2.08zm4.55.06l4.76-3.63L14 2.8s-.21-.79-.88-.38L6.81 8.18z"/><path class="b" d="M13.27 17.8a.68.68 0 00.62.19l3.7-1.83a.79.79 0 00.41-.72V4.54a.74.74 0 00-.49-.65L14.3 2.35a.88.88 0 00-1.16.07s.59-.42.88.38v14.41a.73.73 0 01-.07.29c-.08.17-.27.33-.71.26z"/></svg>