<svg viewBox="0 0 20 20" xmlns="http://www.w3.org/2000/svg">
<rect width="100%" height="100%" fill="white"/>
<path d="M2.37198 7.672C2.37198 7.672 1.99358 7.3992 2.44798 7.0344L3.50638 6.0872C3.50638 6.0872 3.81038 5.7688 4.13038 6.0472L13.9016 13.4448V16.9928C13.9016 16.9928 13.8968 17.5496 13.1816 17.488L2.37198 7.672Z" fill="#2489CA"/>
<path d="M4.89031 9.95837L2.37191 12.2488C2.37191 12.2488 2.11271 12.4408 2.37191 12.7848L3.54151 13.8488C3.54151 13.8488 3.81911 14.1472 4.22951 13.808L6.89991 11.7832L4.89031 9.95917V9.95837Z" fill="#1070B3"/>
<path d="M9.3119 9.97767L13.9319 6.45047L13.9015 2.92247C13.9015 2.92247 13.7047 2.15047 13.0463 2.55207L6.8999 8.14727L9.3119 9.97767Z" fill="#0877B9"/>
<path d="M13.1824 17.4928C13.4504 17.7672 13.776 17.6768 13.776 17.6768L17.376 15.9032C17.836 15.5896 17.7712 15.1992 17.7712 15.1992V4.60802C17.7712 4.14242 17.2952 3.98162 17.2952 3.98162L14.1752 2.47762C13.4928 2.05602 13.0472 2.55362 13.0472 2.55362C13.0472 2.55362 13.6208 2.14002 13.9016 2.92242V16.928C13.9016 17.024 13.8816 17.1184 13.84 17.204C13.7584 17.3696 13.58 17.524 13.152 17.46L13.1824 17.4928Z" fill="#3C99D4"/>
</svg>
