<svg xmlns="http://www.w3.org/2000/svg" width="20" height="20"><g clip-path="url(#a)"><path fill="#2489CA" d="M.465 7.09s-.473-.341.095-.797l1.323-1.184s.38-.398.78-.05l12.214 9.247v4.435s-.006.696-.9.619L.466 7.09Z"/><path fill="#1070B3" d="M3.613 9.948.465 12.811s-.324.24 0 .67l1.462 1.33s.347.373.86-.051l3.338-2.531-2.512-2.28Z"/><path fill="#0877B9" d="m9.14 9.972 5.775-4.409-.038-4.41S14.631.188 13.808.69L6.125 7.684 9.14 9.972Z"/><path fill="#3C99D4" d="M13.978 19.366c.335.343.742.23.742.23l4.5-2.217c.575-.392.494-.88.494-.88V3.26c0-.582-.595-.783-.595-.783l-3.9-1.88c-.853-.527-1.41.095-1.41.095s.717-.517 1.068.461V18.66c0 .12-.025.238-.077.345-.102.207-.325.4-.86.32l.038.04Z"/></g><defs><clipPath id="a"><path fill="#fff" d="M0 0h20v20H0z"/></clipPath></defs></svg>