<svg width="20" height="20" fill="none" xmlns="http://www.w3.org/2000/svg"><g clip-path="url(#a)"><path d="M0 0h20v20H0V0Z" fill="#654FF0"/><path d="M7.817 13.681 6.682 8.066h-.02l-1.227 5.615H3.87L2.1 5.431h1.544L4.7 11.046h.02l1.273-5.615h1.444l1.143 5.684h.02l1.206-5.684h1.516l-1.969 8.25H7.817Zm8.502 0-.527-1.836h-2.778l-.405 1.836h-1.544l1.997-8.25h2.436l2.427 8.25H16.32Z" fill="#fff"/><path d="m13.99 7.464-.673 3.028h2.097l-.774-3.028h-.65Z" fill="#654FF0"/></g><defs><clipPath id="a"><path fill="#fff" d="M0 0h20v20H0z"/></clipPath></defs></svg>