<svg  viewBox="0 0 20 20" fill="none" xmlns="http://www.w3.org/2000/svg">
<path d="M0 0H20V20H0V0Z" fill="#21759B"/>
<path d="M10.0009 18C5.56744 18 1.96744 14.4666 2.00088 10C2.03431 5.53344 5.40088 2 10.0009 2C14.6012 2 18.0009 5.6 18.0009 10C18.0009 14.4 14.4343 18 10.0009 18ZM12.3674 16.7666L10.1009 10.6666L7.96744 16.9C9.53432 17.2669 10.6009 17.3666 12.3674 16.7666ZM6.83431 16.4334L3.43431 7.13344C2.96744 8.13344 2.86775 8.96687 2.80088 10C2.83431 12.7331 4.36744 15.2331 6.83431 16.4334ZM17.1678 10C17.2009 8.23344 16.4012 6.83344 16.3343 6.63344C16.4012 8.00031 16.2009 8.7 15.9678 9.46687L13.6343 16.1669C16.5678 14.4 17.134 11.7666 17.2009 10H17.1678ZM9.76775 9.7L8.63432 6.6L7.80088 6.53344C7.46775 6.3 7.66744 5.93344 7.90088 5.93344C9.40088 6.03344 10.234 6.03344 11.7343 5.93344C12.1012 5.93344 12.2009 6.46687 11.7674 6.53344L10.9674 6.6L13.5671 14.2666L14.8003 10.0666C14.8671 8.23344 14.3668 8.03344 13.7003 6.7C13.1668 5.66656 13.7337 4.66656 14.7671 4.63344C13.9334 3.83344 12.2337 2.83344 10.0003 2.8C7.76682 2.76656 5.40025 3.9 4.00025 6.03344L6.46713 5.96687C6.76713 6.10031 6.63369 6.53344 6.46713 6.56687L5.60056 6.63344L8.20057 14.4334L9.76775 9.7Z" fill="white"/>
</svg>
