<svg xmlns="http://www.w3.org/2000/svg" viewBox="0 0 20 20">
  <rect width="100%" height="100%" fill="#3598DA"/>
  <path fill="#fff" d="M9.96 17.6H6.62a1.52 1.52 0 0 1-1.45-.8l-3.43-6a1.5 1.5 0 0 1 .02-1.65C2.9 7.2 4.03 5.21 5.16 3.23a1.58 1.58 0 0 1 1.5-.85c2.23.02 4.46.02 6.68 0a1.58 1.58 0 0 1 1.51.85c1.13 1.98 2.25 3.96 3.4 5.92a1.56 1.56 0 0 1-.02 1.72 416.1 416.1 0 0 0-3.36 5.85 1.6 1.6 0 0 1-1.57.88c-1.12-.02-2.23 0-3.34 0Zm-2.11-3.72 2.15-3.8 2.14 3.78h1.6L11.6 10l2.13-3.89h-1.58l-2.17 3.8-2.14-3.78H6.26L8.39 10l-2.12 3.88h1.58Z"/>
</svg>