<svg viewBox="0 0 20 20" xmlns="http://www.w3.org/2000/svg">
<rect width="100%" height="100%" fill="black"/>
<path d="M10 8.41594C12.414 10.2491 16.5037 14.7522 15.2668 16.0274C13.8504 17.2628 12.015 18 10 18C7.98504 18 6.12968 17.2628 4.73317 16.0274C3.47631 14.7522 7.58603 10.2491 9.98005 8.43587C9.98005 8.41594 10 8.41594 10 8.41594ZM14.1696 3.17559C12.9526 2.43836 11.616 2 10 2C8.38404 2 7.04738 2.43836 5.83042 3.17559C5.81047 3.17559 5.81047 3.19552 5.81047 3.21544C5.81047 3.23537 5.83042 3.23537 5.85037 3.23537C7.40648 2.89664 9.7606 4.23163 9.98005 4.37111H10.02C10.2394 4.23163 12.5935 2.89664 14.1496 3.23537C14.1696 3.23537 14.1895 3.23537 14.1895 3.21544C14.1895 3.19552 14.1895 3.17559 14.1696 3.17559ZM4.39401 4.29141C4.37406 4.29141 4.37407 4.31133 4.35412 4.31133C2.89776 5.76588 2 7.77833 2 9.99004C2 11.8032 2.61845 13.4969 3.63591 14.8319C3.63591 14.8518 3.65586 14.8518 3.67581 14.8518C3.69576 14.8518 3.69576 14.8319 3.67581 14.812C3.05736 12.9191 6.18953 8.35616 7.80549 6.44334L7.82544 6.42341C7.82544 6.40349 7.82544 6.40349 7.80549 6.40349C5.35162 3.9726 4.53367 4.23163 4.39401 4.29141ZM12.1945 6.38356L12.1746 6.40349C12.1746 6.40349 12.1746 6.42341 12.1945 6.42341C13.8105 8.33624 16.9227 12.8991 16.3242 14.792V14.8319C16.3441 14.8319 16.3641 14.8319 16.3641 14.812C17.3815 13.477 18 11.7833 18 9.97011C18 7.75841 17.1022 5.74595 15.6259 4.29141C15.606 4.27148 15.606 4.27148 15.586 4.27148C15.4663 4.23163 14.6484 3.9726 12.1945 6.38356Z" fill="white"/>
</svg>
