<svg viewBox="0 0 20 20" fill="none" xmlns="http://www.w3.org/2000/svg">
<path d="M0 0H20V20H0V0Z" fill="#1E6887"/>
<path d="M12.4245 11.8994C12.33 10.6524 11.9278 9.84405 11.7319 9.38588C11.5361 8.92785 11.2351 8.49905 11.2349 8.49976C11.2343 8.5017 10.9639 9.95902 10.4777 11.0134C10.3965 11.1895 10.2887 11.4094 10.1799 11.5864C9.84426 12.1791 9.35719 12.7461 9.0669 13.3208C8.77907 13.8904 8.72565 14.4545 8.75243 15.0958C8.77939 15.7406 8.92838 16.3731 9.07143 17.0001C9.61062 16.8837 10.0799 16.6847 10.4859 16.4302C11.5542 15.7604 12.1998 14.6891 12.3833 13.535C12.3833 13.535 12.3922 13.4881 12.3962 13.4309C12.4789 12.5389 12.4516 12.2575 12.4245 11.8994Z" fill="#40B3D8"/>
<path d="M12.4245 11.8994C12.33 10.6523 11.9278 9.84402 11.7319 9.38585C11.5361 8.92782 11.2351 8.49901 11.2349 8.49972L11.2349 8.50005C11.2349 8.49985 11.2349 8.49966 11.2349 8.49966L11.1631 8.39283C9.58754 6.18117 6.56599 5.07692 4.01308 6.1004C3.89015 7.65065 4.60885 10.318 7.23089 11.0619C8.29091 11.3881 9.13972 11.3035 10.18 11.5863C10.18 11.5863 10.18 11.5864 10.18 11.5864C10.18 11.5864 11.2374 11.9549 11.8526 12.5076C12.1293 12.7561 12.4064 13.0832 12.3925 13.4722C12.4801 12.5464 12.452 12.2631 12.4245 11.8994Z" fill="#83C933"/>
<path fill-rule="evenodd" clip-rule="evenodd" d="M11.2795 7.20184C10.9069 6.11189 11.0648 5.38154 11.7464 4.36518C12.0715 3.88024 12.6327 3.31777 13.1246 3C15.1093 4.24367 15.8431 6.56016 15.1133 8.71155C14.5821 10.2769 14.0837 10.9333 12.8235 12.5439C12.9704 10.819 12.3633 9.62309 11.7673 8.29432C11.6156 7.95625 11.4058 7.57141 11.2795 7.20184Z" fill="#F18A2A"/>
<path d="M12.3925 13.4722C12.4064 13.0832 12.1293 12.7561 11.8526 12.5076C11.2374 11.955 10.18 11.5864 10.18 11.5864C10.2888 11.4094 10.3966 11.1895 10.4777 11.0134C10.964 9.95902 11.2344 8.5017 11.235 8.49976C11.2352 8.49911 11.5361 8.92785 11.732 9.38588C11.9278 9.84405 12.33 10.6523 12.4245 11.8994C12.452 12.2632 12.4801 12.5464 12.3925 13.4722Z" fill="#7FB93C"/>
</svg>
