<svg xmlns="http://www.w3.org/2000/svg" viewBox="0 0 20 20"><defs><style>.b{fill:#fff}</style></defs><path fill="#905cfb" d="M0 0h20v20H0z"/><path class="b" d="M5.65 13.03h3.7v.62h-3.7zm1.46-4.25L5.56 6.31h1.05l.96 1.63 1.01-1.63h1.03L8.03 8.76v1.64h-.92V8.78zm4.07-1.64H9.93v-.83h3.4v.83h-1.26v3.26h-.89V7.14z"/><path class="b" d="M5.67 17.93a3.92 3.92 0 01-2.24-.46 3.52 3.52 0 01-1.28-4.82 3.88 3.88 0 01.69-.85c.24-.23 1-.88 1.9-1.73v4.82h9.87v-4.35c.87.84 2.33 2.23 2.36 2.27a1.86 1.86 0 01.43 2.42 1.94 1.94 0 01-1.3.89c-.44.09-9.38 1.65-10.43 1.81zm8.94-8.68V5h-4.33c1.29-1.18 2.24-2 2.28-2.1a2.54 2.54 0 01.44-.36 2.92 2.92 0 014.27 3.82 2.15 2.15 0 01-.45.59c-.4.39-1.5 1.55-2.21 2.3zM8.85 5H4.74v3.54c-.88-.61-1.62-1.13-1.83-1.29A2.93 2.93 0 014.21 2a2.89 2.89 0 012.49.8C6.9 3 7.85 4 8.85 5z"/></svg>