<svg viewBox="0 0 20 20" fill="none" xmlns="http://www.w3.org/2000/svg">
<path d="M0 0H20V20H0V0Z" fill="#0C344B"/>
<path fill-rule="evenodd" clip-rule="evenodd" d="M14.4398 14.1047L8.153 15.9641C7.96094 16.021 7.77686 15.8548 7.81722 15.6611L10.0631 4.90517C10.1051 4.70414 10.3832 4.6722 10.4709 4.85847L14.6293 13.689C14.7078 13.8556 14.6183 14.052 14.4398 14.1047ZM15.5179 13.6661L10.703 3.44151C10.6432 3.31561 10.5504 3.20802 10.4345 3.13057C10.3186 3.05312 10.1839 3.00849 10.0446 3.00139C9.75163 2.98433 9.48913 3.12564 9.34104 3.36615L4.11902 11.8241C4.03969 11.9519 3.99842 12.0996 4.00005 12.25C4.00167 12.4004 4.04613 12.5472 4.12821 12.6732L6.68081 16.6274C6.83295 16.8634 7.09655 17 7.37053 17C7.44819 17 7.52628 16.9891 7.60306 16.9663L15.0126 14.7749C15.1241 14.7422 15.2273 14.6859 15.3153 14.6099C15.4032 14.5339 15.4738 14.4399 15.5223 14.3343C15.5701 14.2293 15.5945 14.1151 15.5938 13.9997C15.593 13.8843 15.5671 13.7705 15.5179 13.6661Z" fill="white"/>
</svg>
