<svg xmlns="http://www.w3.org/2000/svg" viewBox="0 0 80 80">
  <rect width="100%" height="100%"/>
  <path fill="#fff" d="M69.57 40c0-.93 1.5-1.65 3.43-1.79 0-.53-.07-1.07-.12-1.6-1.93.2-3.53-.31-3.67-1.23-.15-.93 1.22-1.91 3.1-2.3-.11-.53-.23-1.05-.37-1.57-1.87.5-3.53.24-3.82-.65-.28-.89.9-2.07 2.71-2.76-.2-.5-.4-1-.61-1.48-1.77.78-3.45.78-3.88-.04-.43-.83.57-2.2 2.25-3.15-.27-.47-.55-.93-.83-1.37-1.65 1.05-3.3 1.32-3.83.56-.52-.76.22-2.25 1.72-3.47l-1.04-1.22c-1.44 1.3-3.04 1.82-3.7 1.17-.66-.66-.13-2.26 1.17-3.7-.4-.36-.83-.71-1.22-1.04-1.23 1.5-2.71 2.27-3.48 1.72-.76-.56-.5-2.22.56-3.83-.44-.3-.9-.57-1.36-.83-.96 1.65-2.32 2.67-3.16 2.25-.83-.42-.82-2.12-.04-3.87a25.4 25.4 0 0 0-1.48-.62c-.69 1.8-1.88 3-2.76 2.7-.88-.28-1.15-1.94-.65-3.8-.52-.16-1.07-.25-1.56-.4-.4 1.9-1.39 3.3-2.3 3.12-.92-.2-1.45-1.75-1.24-3.68-.54-.05-1.06-.12-1.6-.12-.09 1.93-.82 3.43-1.79 3.43-.97 0-1.65-1.5-1.79-3.43-.54 0-1.07.07-1.6.12.2 1.93-.31 3.53-1.24 3.68-.92.14-1.9-1.23-2.3-3.12-.53.12-1.05.24-1.56.38.5 1.87.24 3.53-.65 3.82-.9.29-2.07-.9-2.76-2.71-.5.2-1 .4-1.48.61.78 1.77.78 3.45-.04 3.88-.83.43-2.2-.57-3.15-2.25-.47.27-.93.55-1.37.83 1.05 1.65 1.32 3.3.56 3.83-.76.53-2.26-.22-3.47-1.72l-1.22 1.04c1.3 1.44 1.82 3.04 1.16 3.7-.65.66-2.26.13-3.7-1.17-.35.4-.7.83-1.03 1.23 1.5 1.22 2.27 2.7 1.71 3.47-.55.77-2.2.5-3.82-.56-.3.44-.57.9-.83 1.36 1.65.96 2.67 2.33 2.25 3.16-.42.83-2.12.82-3.87.04-.23.49-.43.98-.62 1.48 1.8.7 3 1.88 2.7 2.76-.28.88-1.94 1.16-3.8.65-.16.52-.25 1.07-.4 1.56 1.9.4 3.3 1.39 3.12 2.3-.2.92-1.75 1.45-3.68 1.24-.05.54-.12 1.07-.12 1.6 1.93.1 3.43.83 3.43 1.8 0 .96-1.5 1.64-3.43 1.78 0 .54.07 1.08.12 1.6 1.93-.2 3.53.32 3.67 1.24.15.93-1.22 1.9-3.1 2.3.11.53.23 1.05.37 1.56 1.87-.5 3.53-.23 3.82.66.28.89-.9 2.07-2.71 2.76.2.5.4 1 .61 1.48 1.77-.79 3.45-.79 3.88.04.43.82-.57 2.2-2.25 3.15.27.47.55.92.83 1.37 1.65-1.06 3.3-1.32 3.83-.56.52.76-.22 2.25-1.72 3.46.34.42.69.83 1.04 1.23 1.44-1.3 3.04-1.82 3.7-1.17.66.65.13 2.26-1.17 3.7l1.22 1.04c1.22-1.5 2.71-2.27 3.48-1.72.76.55.5 2.21-.56 3.83.44.29.9.57 1.36.83.96-1.65 2.32-2.67 3.16-2.25.83.42.82 2.11.04 3.87.49.22.98.43 1.48.62.69-1.8 1.88-3 2.76-2.7.88.28 1.15 1.94.65 3.8.52.15 1.04.27 1.56.39.4-1.9 1.39-3.3 2.3-3.12.92.2 1.45 1.75 1.24 3.68.54.05 1.06.09 1.6.12.09-1.93.82-3.43 1.79-3.43.97 0 1.65 1.5 1.79 3.43.54 0 1.07-.07 1.6-.12-.2-1.93.31-3.53 1.24-3.68.92-.14 1.9 1.23 2.3 3.12.53-.12 1.05-.24 1.56-.38-.5-1.87-.24-3.53.65-3.82.9-.29 2.07.9 2.76 2.71.5-.2 1-.4 1.48-.61-.78-1.77-.78-3.45.04-3.88.83-.43 2.2.57 3.15 2.25.47-.27.93-.55 1.37-.83-1.05-1.65-1.32-3.3-.56-3.83.76-.53 2.25.22 3.47 1.72l1.22-1.04c-1.3-1.44-1.82-3.04-1.16-3.7.65-.66 2.26-.13 3.7 1.17.35-.4.7-.83 1.03-1.23-1.5-1.2-2.27-2.7-1.72-3.46.56-.77 2.22-.5 3.83.56.3-.45.57-.9.83-1.36-1.65-.97-2.67-2.33-2.25-3.16.42-.83 2.12-.83 3.87-.04.23-.49.43-.98.62-1.48-1.8-.7-3-1.88-2.7-2.76.28-.89 1.94-1.16 3.8-.66.15-.52.27-1.04.39-1.55-1.9-.4-3.3-1.4-3.11-2.3.19-.92 1.75-1.45 3.67-1.24l.12-1.6c-1.92-.1-3.42-.86-3.42-1.8ZM56.24 22.68a2.35 2.35 0 1 1 0 4.7 2.35 2.35 0 0 1 0-4.7Zm-38.52 8.7a2.35 2.35 0 1 1 2.4 4.04 2.35 2.35 0 0 1-2.4-4.05Zm21.32 33.38a5.07 5.07 0 0 1-3.8 1.33c-2.11-.07-4.18-.61-6.06-1.57a27.16 27.16 0 0 1-10.02-8.15c-2.34-2.93-4-6.35-4.85-10.01-.37-1.47-.43-3-.18-4.5a4.13 4.13 0 0 1 4.9-3.62c1.94.3 3.78 1 5.41 2.08a38.03 38.03 0 0 1 9.3 8.15 35.93 35.93 0 0 1 3.78 5.26 18.3 18.3 0 0 1 2.67 6.8c.18 1.55.05 3.04-1.15 4.23ZM40 46.5a6.5 6.5 0 1 1 0-13 6.5 6.5 0 0 1 0 13Zm6.86 16.2a2.35 2.35 0 1 1-4.05-2.37 2.35 2.35 0 0 1 4.05 2.38ZM35.8 30.36c-2.11.4-4.26.6-6.42.62-2.45.13-4.91-.25-7.22-1.09a4.63 4.63 0 0 1-3.1-3.08 5.08 5.08 0 0 1 .75-3.97 14.5 14.5 0 0 1 4.4-4.45 27.22 27.22 0 0 1 12.05-4.6c3.72-.55 7.5-.27 11.1.82a11 11 0 0 1 3.98 2.09 4.12 4.12 0 0 1 .68 6.06 13.4 13.4 0 0 1-4.5 3.65 38 38 0 0 1-11.72 3.95Zm28.8 19.56a25.51 25.51 0 0 1-6.24 9.2 10.99 10.99 0 0 1-3.8 2.35 4.12 4.12 0 0 1-5.59-2.48 13.34 13.34 0 0 1-.9-5.72c.13-4.15.94-8.25 2.4-12.14.71-2.03 1.61-4 2.67-5.87a18.15 18.15 0 0 1 4.57-5.7c1.23-.97 2.59-1.6 4.2-1.16a5.07 5.07 0 0 1 3.06 2.64 14.5 14.5 0 0 1 1.65 6.02 27.3 27.3 0 0 1-2.03 12.86Z"/>
</svg>