<svg xmlns="http://www.w3.org/2000/svg" viewBox="0 0 80 80"><path d="M10.18 66.75zM3.37 56.22zm2.99 5.53zM.15 44.11zm13.1-33.93zm48.5 63.46zm-5.53 2.99zm17.42-58.38zm2.99 5.53zm-6.81-10.53zM75.84 40c0-1.13 1.82-2 4.16-2.17 0-.65-.09-1.3-.15-1.94-2.33.25-4.27-.38-4.45-1.5s1.48-2.31 3.77-2.79c-.14-.64-.29-1.27-.46-1.89-2.26.61-4.27.29-4.62-.79s1.09-2.51 3.28-3.35c-.24-.6-.48-1.2-.74-1.79-2.14.95-4.18.95-4.7-.05s.69-2.66 2.72-3.82c-.32-.57-.66-1.12-1-1.66-2 1.28-4 1.6-4.64.68s.26-2.73 2.08-4.2c-.41-.5-.83-1-1.26-1.48-1.74 1.57-3.68 2.2-4.48 1.41s-.16-2.74 1.41-4.48c-.49-.43-1-.86-1.48-1.26C63.8 10.74 62 11.67 61.07 11s-.6-2.68.68-4.64c-.54-.35-1.1-.69-1.65-1-1.17 2-2.82 3.23-3.83 2.72s-1-2.56-.05-4.69c-.59-.27-1.19-.52-1.79-.75-.84 2.19-2.28 3.63-3.35 3.28s-1.4-2.36-.79-4.62C49.66 1.12 49 1 48.4.83c-.48 2.29-1.68 4-2.79 3.77s-1.75-2.12-1.5-4.45C43.46.09 42.82 0 42.17 0c-.11 2.34-1 4.16-2.17 4.16S38 2.34 37.83 0c-.65 0-1.3.09-1.94.15.25 2.33-.38 4.27-1.5 4.45S32.08 3.12 31.6.83c-.64.14-1.27.29-1.89.46.61 2.26.29 4.27-.79 4.62s-2.51-1.09-3.35-3.28c-.6.24-1.2.48-1.79.74.95 2.14.95 4.18-.05 4.7s-2.66-.69-3.82-2.72c-.57.32-1.12.66-1.66 1 1.28 2 1.6 4 .68 4.64s-2.73-.26-4.2-2.08c-.5.41-1 .83-1.48 1.26 1.57 1.74 2.2 3.68 1.41 4.48s-2.74.16-4.48-1.41c-.43.49-.86 1-1.26 1.48C10.74 16.2 11.67 18 11 18.93s-2.68.6-4.64-.68c-.35.54-.69 1.1-1 1.65 2 1.17 3.23 2.82 2.72 3.83s-2.56 1-4.69.05c-.27.59-.52 1.19-.75 1.79 2.19.84 3.63 2.28 3.28 3.35s-2.36 1.4-4.62.79c-.18.63-.3 1.29-.47 1.89 2.29.48 4 1.68 3.77 2.79s-2.12 1.75-4.45 1.5c-.06.65-.15 1.29-.15 1.94 2.34.11 4.16 1 4.16 2.17S2.34 42 0 42.17c0 .65.09 1.3.15 1.94 2.33-.25 4.27.38 4.45 1.5S3.12 47.92.83 48.4c.14.64.29 1.27.46 1.89 2.26-.61 4.27-.29 4.62.79s-1.09 2.51-3.28 3.35c.24.6.48 1.2.74 1.79 2.14-.95 4.18-.95 4.7.05s-.69 2.66-2.72 3.82c.32.57.66 1.12 1 1.66 2-1.28 4-1.6 4.64-.68s-.26 2.73-2.08 4.2c.41.5.83 1 1.26 1.48 1.74-1.57 3.68-2.2 4.48-1.41s.16 2.74-1.41 4.48c.49.43 1 .86 1.48 1.26C16.2 69.26 18 68.33 18.93 69s.6 2.68-.68 4.64c.54.35 1.1.69 1.65 1 1.17-2 2.82-3.23 3.83-2.72s1 2.56.05 4.69c.59.27 1.19.52 1.79.75.84-2.19 2.28-3.63 3.35-3.28s1.4 2.36.79 4.62c.63.17 1.26.32 1.89.46.48-2.29 1.68-4 2.79-3.77s1.75 2.12 1.5 4.45c.65.06 1.29.11 1.94.15.11-2.34 1-4.16 2.17-4.16s2 1.82 2.17 4.16c.65 0 1.3-.09 1.94-.15-.25-2.33.38-4.27 1.5-4.45s2.31 1.48 2.79 3.77c.64-.14 1.27-.29 1.89-.46-.61-2.26-.29-4.27.79-4.62s2.51 1.09 3.35 3.28c.6-.24 1.2-.48 1.79-.74-.95-2.14-.95-4.18.05-4.7s2.66.69 3.82 2.72c.57-.32 1.12-.66 1.66-1-1.28-2-1.6-4-.68-4.64s2.73.26 4.2 2.08c.5-.41 1-.83 1.48-1.26-1.57-1.74-2.2-3.68-1.41-4.48s2.74-.16 4.48 1.41c.43-.49.86-1 1.26-1.48-1.82-1.47-2.75-3.27-2.08-4.2s2.68-.6 4.64.68c.35-.54.69-1.1 1-1.65-2-1.17-3.23-2.82-2.72-3.83s2.56-1 4.69-.05c.27-.59.52-1.19.75-1.79-2.19-.84-3.63-2.28-3.28-3.35s2.36-1.4 4.62-.79c.17-.63.32-1.26.46-1.89-2.29-.48-4-1.68-3.77-2.79s2.12-1.75 4.45-1.5c.06-.65.11-1.29.15-1.94-2.33-.11-4.15-1.04-4.15-2.17zM59.68 19a2.85 2.85 0 11-2.85 2.85A2.86 2.86 0 0159.68 19zM13 29.54a2.85 2.85 0 11-1 3.9 2.86 2.86 0 011-3.9zM38.84 70a6.15 6.15 0 01-4.61 1.62 17.54 17.54 0 01-7.34-1.91 32.92 32.92 0 01-12.15-9.87A30.63 30.63 0 018.86 47.7a13.3 13.3 0 01-.22-5.44 5 5 0 015.95-4.4 16.29 16.29 0 016.55 2.52 46.1 46.1 0 0111.28 9.88A43.54 43.54 0 0137 56.63a22.19 22.19 0 013.23 8.24c.22 1.88.06 3.69-1.39 5.13zM40 47.88A7.88 7.88 0 1147.88 40 7.88 7.88 0 0140 47.88zm8.32 19.65a2.85 2.85 0 11-1-3.89 2.86 2.86 0 011 3.89zM34.9 28.3a43.55 43.55 0 01-7.78.75 22.22 22.22 0 01-8.76-1.32A5.61 5.61 0 0114.61 24a6.16 6.16 0 01.91-4.81 17.57 17.57 0 015.32-5.4 33 33 0 0114.62-5.58 30.84 30.84 0 0113.44 1 13.33 13.33 0 014.83 2.53 5 5 0 01.83 7.35 16.25 16.25 0 01-5.46 4.42 46.07 46.07 0 01-14.2 4.79zM69.8 52a30.92 30.92 0 01-7.56 11.15A13.32 13.32 0 0157.63 66a5 5 0 01-6.77-3 16.16 16.16 0 01-1.1-6.94 46.31 46.31 0 012.92-14.71 43.68 43.68 0 013.24-7.11 22 22 0 015.53-6.92c1.49-1.16 3.14-1.93 5.09-1.39a6.14 6.14 0 013.71 3.19 17.57 17.57 0 012 7.3A33.08 33.08 0 0169.8 52zM18.25 6.36zm5.53-2.99zM35.89.15z"/></svg>