<svg xmlns="http://www.w3.org/2000/svg" viewBox="0 0 80 80">
  <rect width="100%" height="100%" fill="#2C5BB4"/>
  <path fill="#fff" fill-rule="evenodd" d="M72 40a32 32 0 1 1-64 0 32 32 0 0 1 64 0ZM25.34 14.34A29.48 29.48 0 0 0 12.7 28.7 29.55 29.55 0 0 0 11 45.67l.04-.4 12.7 1.38a3.49 3.49 0 0 1 5.04-2.31l7.23-10.47a6.62 6.62 0 0 1-.94-9.55l-10-9.7.27-.28ZM19.1 60.9a29.55 29.55 0 0 1-8.02-14.81l12.58 1.35a3.49 3.49 0 0 0 2.12 3.19l-1.96 6.66h-.16a1.98 1.98 0 0 0-.4 3.91v3.15a29.55 29.55 0 0 1-4.16-3.45Zm4.56 3.72a29.55 29.55 0 0 0 34.77-1.52l-.38.16-.77-1.8a1.98 1.98 0 0 1-2.36-1.93c0-.67.33-1.27.84-1.62L54 53.76a3.49 3.49 0 0 1-4.24-2.07l-6.86 1.82v.1a1.98 1.98 0 1 1-3.9-.42l-8.86-3.98a3.49 3.49 0 0 1-3.59 1.64l-1.96 6.67a1.98 1.98 0 0 1-.53 3.68v3.42h-.4Zm6.8-16.15 8.87 3.99a1.97 1.97 0 0 1 3.37.27l6.86-1.82a3.5 3.5 0 0 1 1.34-3.27l-7.77-13.1a6.6 6.6 0 0 1-6.46-.21l-7.23 10.46a3.48 3.48 0 0 1 1.03 3.68Zm24.28 4.98 1.76 4.14a1.99 1.99 0 0 1 2.37 1.94c0 .67-.34 1.27-.85 1.62l.72 1.7a29.55 29.55 0 0 0 7.5-9.26l-9.92-2.07a3.5 3.5 0 0 1-1.58 1.93Zm-8.01-24.8c0 2.28-1.16 4.3-2.91 5.49l7.77 13.09a3.48 3.48 0 0 1 4.9 3.19v.31l10.02 2.1-.08.38a29.55 29.55 0 0 0-3.57-31.94l.12.37-4.12 1.34.01.25a1.98 1.98 0 0 1-3.7.95l-8.65 2.8c.13.54.2 1.1.2 1.67ZM25.72 14.13l9.9 9.62a6.63 6.63 0 0 1 10.64 2.47l8.67-2.81-.01-.18a1.98 1.98 0 0 1 3.67-1.01l3.98-1.3a29.55 29.55 0 0 0-36.85-6.8Z" clip-rule="evenodd"/>
</svg>