<svg viewBox="0 0 80 80" xmlns="http://www.w3.org/2000/svg">
<rect width="100%" height="100%" fill="white"/>
<path d="M63.0962 59.6704C37.1891 72 21.1109 61.6842 10.8187 55.4186C10.1818 55.0237 9.09936 55.5109 10.0385 56.5897C13.4674 60.7472 24.7044 70.7681 39.372 70.7681C54.0497 70.7681 62.7816 62.7593 63.8739 61.3622C64.9588 59.9769 64.1924 59.2128 63.0959 59.6704H63.0962ZM70.3721 55.6522C69.6764 54.7463 66.1417 54.5774 63.9172 54.8506C61.6893 55.116 58.3451 56.4777 58.6358 57.2952C58.785 57.6015 59.0896 57.4641 60.6201 57.3265C62.1548 57.1734 66.4541 56.6308 67.35 57.8019C68.25 58.9811 65.9788 64.5985 65.5639 65.5045C65.1631 66.4104 65.7171 66.644 66.4699 66.0406C67.2124 65.4375 68.5565 63.8755 69.4586 61.665C70.3544 59.4424 70.9009 56.342 70.3721 55.6522Z" fill="#FF9900"/>
<path fill-rule="evenodd" clip-rule="evenodd" d="M45.6765 34.512C45.6765 37.7471 45.7583 40.445 44.1231 43.3179C42.8033 45.654 40.7127 47.0904 38.3769 47.0904C35.1884 47.0904 33.3314 44.6611 33.3314 41.0757C33.3314 33.9979 39.6731 32.7133 45.6765 32.7133V34.512ZM54.0504 54.7522C53.5015 55.2426 52.7073 55.2778 52.0884 54.9506C49.3321 52.6616 48.8415 51.5988 47.3232 49.4147C42.7684 54.0631 39.5448 55.4528 33.6352 55.4528C26.651 55.4528 21.2084 51.1431 21.2084 42.5122C21.2084 35.7734 24.8642 31.1833 30.0611 28.9411C34.5695 26.9554 40.8646 26.605 45.6765 26.0563V24.9817C45.6765 23.0078 45.8282 20.672 44.6721 18.967C43.6558 17.4369 41.7172 16.8062 40.0118 16.8062C36.8469 16.8062 34.0205 18.4296 33.3314 21.7932C33.1911 22.5408 32.6424 23.2767 31.8949 23.3116L23.8361 22.4475C23.1589 22.2954 22.4115 21.7466 22.5983 20.707C24.4553 10.9434 33.2728 8 41.1679 8C45.209 8 50.4879 9.07459 53.6765 12.1346C57.7176 15.9069 57.3321 20.9406 57.3321 26.4182V39.3588C57.3321 43.248 58.9438 44.9531 60.462 47.0555C60.9992 47.8029 61.1161 48.7025 60.4386 49.2628C58.7452 50.6759 55.7319 53.3039 54.0736 54.7755L54.0502 54.7522" fill="black"/>
<path d="M63.0962 59.6704C37.1891 72 21.1109 61.6842 10.8187 55.4186C10.1818 55.0237 9.09936 55.5109 10.0385 56.5897C13.4674 60.7472 24.7044 70.7681 39.372 70.7681C54.0497 70.7681 62.7816 62.7593 63.8739 61.3622C64.9588 59.9769 64.1924 59.2128 63.0959 59.6704H63.0962ZM70.3721 55.6522C69.6764 54.7463 66.1417 54.5774 63.9172 54.8506C61.6893 55.116 58.3451 56.4777 58.6358 57.2952C58.785 57.6015 59.0896 57.4641 60.6201 57.3265C62.1548 57.1734 66.4541 56.6308 67.35 57.8019C68.25 58.9811 65.9788 64.5985 65.5639 65.5045C65.1631 66.4104 65.7171 66.644 66.4699 66.0406C67.2124 65.4375 68.5565 63.8755 69.4586 61.665C70.3544 59.4424 70.9009 56.342 70.3721 55.6522Z" fill="#FF9900"/>
<path fill-rule="evenodd" clip-rule="evenodd" d="M45.6765 34.512C45.6765 37.7471 45.7583 40.445 44.1231 43.3179C42.8033 45.654 40.7127 47.0904 38.3769 47.0904C35.1884 47.0904 33.3314 44.6611 33.3314 41.0757C33.3314 33.9979 39.6731 32.7133 45.6765 32.7133V34.512ZM54.0504 54.7522C53.5015 55.2426 52.7073 55.2778 52.0884 54.9506C49.3321 52.6616 48.8415 51.5988 47.3232 49.4147C42.7684 54.0631 39.5448 55.4528 33.6352 55.4528C26.651 55.4528 21.2084 51.1431 21.2084 42.5122C21.2084 35.7734 24.8642 31.1833 30.0611 28.9411C34.5695 26.9554 40.8646 26.605 45.6765 26.0563V24.9817C45.6765 23.0078 45.8282 20.672 44.6721 18.967C43.6558 17.4369 41.7172 16.8062 40.0118 16.8062C36.8469 16.8062 34.0205 18.4296 33.3314 21.7932C33.1911 22.5408 32.6424 23.2767 31.8949 23.3116L23.8361 22.4475C23.1589 22.2954 22.4115 21.7466 22.5983 20.707C24.4553 10.9434 33.2728 8 41.1679 8C45.209 8 50.4879 9.07459 53.6765 12.1346C57.7176 15.9069 57.3321 20.9406 57.3321 26.4182V39.3588C57.3321 43.248 58.9438 44.9531 60.462 47.0555C60.9992 47.8029 61.1161 48.7025 60.4386 49.2628C58.7452 50.6759 55.7319 53.3039 54.0736 54.7755L54.0502 54.7522" fill="black"/>
</svg>
