<svg xmlns="http://www.w3.org/2000/svg" viewBox="0 0 80 80"><path d="M0 48.24l1-2.35 5.63-14a.25.25 0 01.28-.19h4.38a.24.24 0 01.27.17l7.14 16.2a2 2 0 01.07.19h-4.24a.23.23 0 01-.25-.17c-.4-1-.81-2-1.2-2.94a.26.26 0 00-.28-.15h-7a.24.24 0 00-.27.19c-.36 1-.73 1.92-1.08 2.88a.29.29 0 01-.33.22H0zm9.12-12.57L6.7 42.09h5.08zM80 49.36l-.16-.14-4.9-4.9a.44.44 0 01-.14-.32v-8.36h-8.33a.4.4 0 01-.33-.13l-5.06-5.07H80zm-19.08.2v-7.3a.49.49 0 01.16-.38l5-5a1 1 0 00.12-.17h.07v7.45h7.47l-.19.2-5.09 5.1-.06.07zM24.82 38v10.26h-4.11V31.73h3.4a.35.35 0 01.3.14l5 5.83.18.2a.52.52 0 01.07-.15c1.7-2 3.39-3.93 5.09-5.88a.34.34 0 01.22-.13h3.47v16.52h-4.07V38l-.24.28c-1.34 1.57-2.69 3.13-4 4.69a.67.67 0 01-.93 0l-4-4.71c-.07-.08-.15-.16-.22-.25zm16.83 10.27V31.74h7.71a9.7 9.7 0 015 1.36A7.51 7.51 0 0158 38.52a9.08 9.08 0 01-.4 4.65 7.05 7.05 0 01-4 4.19 10.68 10.68 0 01-4.09.87h-7.66zm4.12-3h2.81a8 8 0 001.42-.2 4.38 4.38 0 003.39-2.79 6.29 6.29 0 00.39-2.88 5.38 5.38 0 00-.78-2.56 4.55 4.55 0 00-3.66-2c-1.17-.09-2.35 0-3.52-.06z"/></svg>