<svg xmlns="http://www.w3.org/2000/svg" viewBox="0 0 80 80">
  <rect width="100%" height="100%" fill="#fff"/>
  <mask id="a" width="62" height="54" x="16" y="10" maskUnits="userSpaceOnUse" style="mask-type:luminance">
    <path fill="#fff" d="M16.385 10H78v53.06H16.385V10Z"/>
  </mask>
  <g mask="url(#a)">
    <path fill="#C30F2E" d="M47.192 10.001 78 63.061H16.385L47.192 10Z"/>
  </g>
  <mask id="b" width="53" height="47" x="2" y="17" maskUnits="userSpaceOnUse" style="mask-type:luminance">
    <path fill="#fff" d="M2 17.904h52.438V63.2H2V17.904Z"/>
  </mask>
  <g mask="url(#b)">
    <path fill="#DD0330" d="M28.218 17.904 54.437 63.2H2l26.218-45.296Z"/>
  </g>
  <path fill="#fff" d="M72.776 49.652H7.393v-.709h65.383v.709Z"/>
  <mask id="c" width="59" height="26" x="10" y="35" maskUnits="userSpaceOnUse" style="mask-type:luminance">
    <path fill="#fff" d="M10.148 35.86h58.741v24.266H10.148V35.86Z"/>
  </mask>
  <g mask="url(#c)">
    <path fill="#fff" d="M62.675 60.019a.982.982 0 0 1-.697-.303c-1.2-1.191-1.253-6.033-1.195-13.285.033-3.963.076-9.39-.564-9.82-.625.257-.687 4.74-.728 7.709-.048 3.454-.097 7.028-.665 8.847-.17.54-.388 1.034-.827.994-.62-.054-.82-1.02-1.282-4.83-.192-1.582-.391-3.217-.624-3.85a3.263 3.263 0 0 0-.08-.193c-.248.553-.534 2.074-.733 3.13-.275 1.458-.535 2.836-.86 3.437-.252.461-.65 1.063-1.208.947-.76-.158-.987-1.67-1.055-2.556 0-7.46-.988-8.328-1.186-8.426l-.032.023-.048-.01c-.706.304-.744 2.723-.78 5.063-.028 1.716-.06 3.66-.313 5.48-.329 2.36-.726 2.815-1.221 2.787-1.14-.077-1.173-3.951-1.173-4.392 0-.139.004-.302.008-.482.022-.901.061-2.579-.5-3.107-.075-.07-.18-.151-.262-.129-.4.1-.815 1.382-.952 1.804-.044.134-.079.244-.108.32a8.321 8.321 0 0 0-.088.257c-.303.907-.647 1.812-1.235 2.035a.758.758 0 0 1-.657-.053c-.283-.16-.514-.483-.73-1.02-.117-.299-.218-.6-.32-.904-.125-.37-.253-.753-.411-1.116-.125-.283-.435-.41-.83-.341-.822.145-.96.964-1.076 2.198-.02.215-.04.425-.068.624-.003.058-.148 1.87-.241 2.445-.257 1.58-.595 2.202-1.155 2.156-1.383-.116-2.018-6.106-1.984-8.636.026-1.932-.328-2.638-.54-2.75-.022-.01-.056-.028-.137.028-.25.167-.473.688-.404 1.235.762 5.955.2 12.776-1.176 14.312-.433.483-1.023.477-1.434.069-1.202-1.191-1.253-6.033-1.196-13.285.033-3.963.076-9.39-.564-9.82-.625.257-.686 4.74-.727 7.709-.048 3.454-.098 7.028-.667 8.847-.17.54-.388 1.034-.826.994-.62-.054-.82-1.02-1.283-4.83-.192-1.582-.39-3.217-.623-3.85a2.2 2.2 0 0 0-.08-.193c-.247.553-.534 2.074-.732 3.13-.276 1.458-.536 2.836-.862 3.437-.252.461-.65 1.063-1.207.947-.76-.158-.986-1.67-1.054-2.556-.001-7.46-.99-8.328-1.187-8.426l-.032.023-.049-.01c-.704.304-.743 2.723-.78 5.063-.027 1.716-.058 3.66-.311 5.48-.33 2.36-.724 2.82-1.22 2.787-1.143-.077-1.175-3.951-1.175-4.392 0-.139.004-.302.008-.482.022-.901.062-2.579-.5-3.107-.074-.07-.18-.151-.261-.129-.4.1-.816 1.382-.952 1.804-.044.133-.08.244-.108.32-.024.06-.054.15-.089.256-.302.907-.646 1.813-1.233 2.036a.76.76 0 0 1-.66-.053c-.282-.16-.514-.483-.728-1.02-.118-.299-.22-.6-.321-.904-.125-.37-.254-.753-.412-1.116-.123-.283-.435-.41-.83-.341-.947.166-1.17 1.325-1.351 2.707l-.032.246-.715-.093.034-.242c.156-1.213.394-3.045 1.938-3.315.726-.127 1.361.17 1.617.757.171.393.306.79.435 1.175.096.29.194.58.308.867.2.5.355.63.413.661.362-.11.731-1.22.853-1.586.039-.118.071-.215.098-.284.025-.068.058-.167.097-.287.325-1.005.734-2.093 1.46-2.275.222-.056.565-.048.937.303.791.746.75 2.486.722 3.638-.004.172-.008.33-.008.463 0 1.838.276 3.123.487 3.564.11-.225.296-.77.474-2.053.247-1.778.279-3.7.305-5.396.048-3 .082-5.176 1.182-5.688a.75.75 0 0 1 .724-.01c1.064.53 1.58 3.484 1.58 9.032.067.858.301 1.76.494 1.89 0-.02.157-.114.414-.589.274-.504.547-1.953.788-3.232.532-2.817.773-3.806 1.402-3.858.48-.046.702.556.795.809.262.71.457 2.312.662 4.008.16 1.316.389 3.195.622 3.956.025-.067.053-.147.084-.245.538-1.723.588-5.242.635-8.648.065-4.73.15-7.66 1.024-8.272a.734.734 0 0 1 .663-.093c1.024.336 1.102 3.299 1.044 10.492-.041 5.217-.093 11.71.987 12.78.094.093.16.093.185.093.05 0 .122-.047.199-.132 1.092-1.22 1.784-7.627 1-13.753-.097-.763.201-1.564.71-1.91.281-.19.605-.215.885-.068.637.335.946 1.473.92 3.384-.044 3.337.768 7.243 1.298 7.867.084-.138.25-.517.41-1.508.089-.548.237-2.39.239-2.408.026-.208.046-.41.064-.614.11-1.15.244-2.58 1.666-2.83.726-.127 1.36.17 1.618.757.171.393.305.79.433 1.175.099.29.197.58.31.867.2.5.356.63.413.661.361-.11.732-1.22.853-1.585.04-.118.072-.216.097-.285.026-.067.058-.167.096-.287.327-1.005.736-2.094 1.462-2.275.22-.056.564-.048.937.303.79.746.75 2.486.723 3.638-.005.172-.01.33-.01.463 0 1.838.277 3.123.488 3.564.108-.225.295-.77.475-2.053.247-1.778.276-3.7.305-5.396.047-3 .08-5.176 1.181-5.688a.752.752 0 0 1 .724-.01c1.064.53 1.581 3.483 1.581 9.032.067.858.301 1.76.492 1.89.002-.02.156-.114.415-.589.275-.504.547-1.953.788-3.232.53-2.817.773-3.806 1.402-3.858.48-.046.703.556.796.809.26.71.455 2.312.663 4.008.158 1.316.387 3.195.62 3.956.025-.067.053-.147.084-.245.538-1.723.586-5.242.634-8.648.065-4.73.15-7.66 1.024-8.272a.734.734 0 0 1 .663-.093c1.025.336 1.104 3.299 1.045 10.492-.042 5.217-.093 11.71.986 12.78.096.093.161.093.186.093.05 0 .122-.047.197-.132 1.095-1.22 1.785-7.627 1.002-13.753-.102-.799.128-1.603.546-1.913a.702.702 0 0 1 .704-.092c.61.257 1.023 1.357 1.263 3.366.1.841.19 1.75.277 2.648.19 1.959.448 4.598.796 5.179.107-.135.326-.5.65-1.477l.685.221c-.503 1.511-.898 2.08-1.411 2.023-.8-.088-1.03-1.681-1.437-5.878-.087-.893-.175-1.797-.276-2.634-.306-2.562-.826-2.794-.831-2.796-.102.05-.338.583-.25 1.263.76 5.955.2 12.777-1.177 14.312-.222.247-.471.372-.738.372Z"/>
  </g>
</svg>
