<svg xmlns="http://www.w3.org/2000/svg" viewBox="0 0 80 80">
  <rect width="100%" height="100%" fill="#fff"/>
  <path fill="#34A853" d="m74.13 53.48-.07-.41a34.17 34.17 0 0 0-5.94-14.36 34.54 34.54 0 0 0-9.87-9.29l.03-.07c.7-1.2 1.4-2.39 2.08-3.59l2.04-3.5 1.46-2.52a3.2 3.2 0 0 0 .17-2.81 3.13 3.13 0 0 0-3.72-1.82 3.15 3.15 0 0 0-1.91 1.46l-1.46 2.52-2.03 3.5c-.7 1.2-1.4 2.4-2.08 3.6l-.23.39-.32-.13a34.43 34.43 0 0 0-12.65-2.25 34.45 34.45 0 0 0-12.19 2.35l-.2-.36-2.09-3.6-2.03-3.5-1.46-2.52a3.23 3.23 0 0 0-1.92-1.46 3.25 3.25 0 0 0-1.08-.1 3.14 3.14 0 0 0-2.73 4.12c.06.2.15.41.27.61l1.46 2.52 2.03 3.5 2.08 3.6.02.03A34.65 34.65 0 0 0 5.9 53.06l-.06.42c-.08.5-.14 1-.2 1.51h68.67c-.05-.5-.12-1.01-.2-1.51Z"/>
  <path fill="#202124" d="M58.3 40.78c1.12 1.7.92 3.8-.45 4.72-1.38.92-3.4.28-4.53-1.41-1.13-1.7-.93-3.81.44-4.73 1.38-.91 3.4-.28 4.53 1.42ZM26.27 39.37c1.37.91 1.57 3.03.44 4.72-1.13 1.7-3.15 2.33-4.53 1.42-1.37-.92-1.57-3.03-.44-4.73 1.12-1.7 3.15-2.33 4.53-1.41Z"/>
</svg>