<svg viewBox="0 0 80 80" xmlns="http://www.w3.org/2000/svg">
<rect width="100%" height="100%" fill="#34A853"/>
<path d="M58.52 10.7238C59.3943 10.7232 60.2349 11.0453 60.8652 11.6225C61.4954 12.1996 61.8663 12.9869 61.9 13.819V101.229C61.9 102.082 61.5438 102.901 60.91 103.505C60.2761 104.108 59.4164 104.448 58.52 104.448H20.82C19.9235 104.448 19.0638 104.108 18.4299 103.505C17.7961 102.901 17.44 102.082 17.44 101.229V13.9429C17.44 13.0891 17.7961 12.2703 18.4299 11.6666C19.0638 11.063 19.9235 10.7238 20.82 10.7238H58.52ZM20.43 15.181C20.7385 15.181 21.0401 15.0938 21.2967 14.9306C21.5532 14.7673 21.7531 14.5353 21.8712 14.2638C21.9893 13.9923 22.0202 13.6936 21.96 13.4054C21.8998 13.1172 21.7512 12.8525 21.533 12.6447C21.3149 12.4369 21.0369 12.2954 20.7343 12.2381C20.4317 12.1807 20.118 12.2102 19.833 12.3226C19.5479 12.4351 19.3043 12.6255 19.1329 12.8698C18.9615 13.1141 18.87 13.4014 18.87 13.6952C18.87 14.0893 19.0343 14.4672 19.3269 14.7458C19.6194 15.0244 20.0162 15.181 20.43 15.181ZM64.63 13.9429C64.6473 13.1683 64.502 12.3983 64.2027 11.678C63.9034 10.9576 63.4561 10.3014 62.887 9.7479C62.3179 9.19437 61.6385 8.75463 60.8886 8.45449C60.1387 8.15434 59.3334 7.99982 58.52 8H20.82C19.1995 8 17.6454 8.61308 16.4995 9.70436C15.3537 10.7956 14.71 12.2757 14.71 13.819V101.229C14.71 102.772 15.3537 104.252 16.4995 105.343C17.6454 106.435 19.1995 107.048 20.82 107.048H58.52C60.1404 107.048 61.6945 106.435 62.8404 105.343C63.9862 104.252 64.63 102.772 64.63 101.229V56.9048H65.15V43.9048H64.63V37.7143H65.15V31.2762H64.63V13.9429Z" fill="white"/>
<path fill-rule="evenodd" clip-rule="evenodd" d="M55.7339 54.1597C55.7367 54.1777 55.7396 54.1958 55.7425 54.2139L55.7401 54.2155C55.7763 54.4524 55.8072 54.6909 55.8332 54.931H23.3333C23.3593 54.6909 23.3902 54.4524 23.4269 54.2155L23.4299 54.1961C23.4391 54.1367 23.4483 54.0768 23.4583 54.0175C23.5264 53.6086 23.6089 53.2062 23.706 52.8084C23.8764 52.1136 24.0908 51.4354 24.3467 50.7786C24.563 50.2223 24.8093 49.6812 25.0826 49.1567C25.4331 48.4824 25.83 47.8368 26.2684 47.2219C26.8063 46.4685 27.4055 45.7625 28.0597 45.112C28.388 44.7848 28.7308 44.4719 29.0867 44.1732C29.6806 43.6748 30.3097 43.2193 30.9712 42.808L30.963 42.7938C30.7991 42.5106 30.6351 42.2277 30.4712 41.9448C30.3071 41.6616 30.143 41.3785 29.979 41.0951L29.9303 41.0111C29.6259 40.4861 29.3215 39.9611 29.0167 39.436C28.7873 39.0391 28.557 38.6414 28.3262 38.2444C28.2717 38.1502 28.2292 38.0527 28.1963 37.9529C28.107 37.6748 28.1032 37.3824 28.1751 37.1107C28.1925 37.0433 28.2157 36.9775 28.2427 36.9134C28.2693 36.8492 28.3011 36.7866 28.3369 36.7264C28.4605 36.5204 28.6343 36.3413 28.8545 36.2106C29.0495 36.0942 29.2673 36.0252 29.4903 36.0062C29.584 35.9983 29.6782 35.9991 29.7714 36.0086C29.8491 36.0165 29.9259 36.0308 30.0021 36.0506C30.2735 36.1226 30.5255 36.2716 30.7216 36.4871C30.7921 36.5648 30.8553 36.6503 30.9104 36.7446C31.1397 37.1416 31.37 37.5393 31.6008 37.9362L32.5626 39.5953C32.7265 39.8784 32.8906 40.1614 33.0547 40.4443C33.2189 40.7275 33.3831 41.0106 33.5471 41.294C33.5668 41.3286 33.587 41.3633 33.6072 41.398C33.6207 41.4212 33.6342 41.4443 33.6475 41.4675C33.8329 41.3946 34.0198 41.3249 34.2086 41.2591C35.8425 40.6902 37.5937 40.3733 39.4164 40.3551C39.4729 40.3543 39.5284 40.3543 39.5845 40.3543C41.6346 40.3543 43.5958 40.7314 45.4036 41.4207C45.4469 41.4373 45.4898 41.4544 45.533 41.4717L45.5523 41.4794C45.5765 41.4369 45.601 41.3948 45.6254 41.3528C45.6369 41.3329 45.6485 41.3131 45.66 41.2932C45.8239 41.01 45.988 40.727 46.1522 40.4439C46.3163 40.1609 46.4805 39.8778 46.6444 39.5945L47.609 37.9308C47.8379 37.5354 48.0673 37.1392 48.2967 36.7438C48.3513 36.6496 48.415 36.5639 48.4855 36.4863C48.6815 36.2708 48.9336 36.1219 49.2049 36.0498C49.2812 36.03 49.358 36.0157 49.4352 36.0078C49.5289 35.9983 49.623 35.9975 49.7167 36.0054C49.9398 36.0252 50.1575 36.0942 50.3521 36.2098C50.5723 36.3405 50.7476 36.5196 50.8702 36.7256C50.9059 36.7858 50.9373 36.8484 50.9644 36.9126C50.9914 36.9768 51.0136 37.0425 51.032 37.1098C51.1039 37.3816 51.1 37.674 51.0102 37.9521C50.9779 38.0519 50.9349 38.1493 50.8803 38.2436C50.651 38.6406 50.4207 39.0383 50.1899 39.4353L49.2281 41.0943C49.0643 41.3774 48.9002 41.6602 48.7362 41.943C48.5719 42.2263 48.4076 42.5095 48.2436 42.793C48.2405 42.7981 48.2376 42.8035 48.2347 42.8088C48.2318 42.8142 48.2289 42.8195 48.2257 42.8247C48.9413 43.2716 49.6206 43.7715 50.2565 44.3205C50.5501 44.5733 50.8345 44.8371 51.1092 45.1105C51.7639 45.761 52.3636 46.4669 52.9005 47.2203C53.3384 47.8352 53.7349 48.4817 54.0864 49.1551C54.3596 49.6796 54.6059 50.2207 54.8222 50.777C55.0781 51.4338 55.2925 52.112 55.4629 52.8068C55.56 53.2046 55.6435 53.6078 55.7106 54.0159C55.7187 54.0637 55.7263 54.1116 55.7339 54.1597ZM48.0369 50.436C48.6873 50.0031 48.7819 49.0015 48.2479 48.199C47.7144 47.3964 46.7545 47.0968 46.1046 47.5297C45.4543 47.9627 45.3596 48.9642 45.8936 49.7667C46.4272 50.5693 47.387 50.8689 48.0369 50.436ZM33.3013 49.7695C33.8353 48.967 33.7407 47.9654 33.0903 47.5325C32.4399 47.0995 31.4806 47.3992 30.9465 48.2017C30.413 49.0043 30.5076 50.0058 31.1575 50.4387C31.8079 50.8717 32.7678 50.572 33.3013 49.7695Z" fill="white"/>
</svg>
