<svg xmlns="http://www.w3.org/2000/svg" viewBox="0 0 80 80">
  <rect width="100%" height="100%" fill="#fff"/>
  <mask id="a" width="59" height="62" x="11" y="9" maskUnits="userSpaceOnUse" style="mask-type:luminance">
    <path fill="#fff" d="M11 9h58.58v62H11V9Z"/>
  </mask>
  <g mask="url(#a)">
    <path fill="url(#b)" d="m69.34 19.3-2.1 33.08L47.09 9l22.25 10.3ZM55.4 62.07l-15.22 8.69-15.22-8.69 3.1-7.5H52.3l3.1 7.5Zm-15.22-36.6 7.98 19.38H32.2l7.97-19.38ZM13.1 52.37 11 19.3 33.25 9 13.09 52.38Z"/>
    <path fill="url(#c)" d="m69.34 19.3-2.1 33.08L47.09 9l22.25 10.3ZM55.4 62.07l-15.22 8.69-15.22-8.69 3.1-7.5H52.3l3.1 7.5Zm-15.22-36.6 7.98 19.38H32.2l7.97-19.38ZM13.1 52.37 11 19.3 33.25 9 13.09 52.38Z"/>
  </g>
  <linearGradient id="b" x1="23.88" x2="70.33" y1="65.15" y2="43.08" gradientUnits="userSpaceOnUse">
    <stop stop-color="#E40035"/>
    <stop offset=".24" stop-color="#F60A48"/>
    <stop offset=".35" stop-color="#F20755"/>
    <stop offset=".49" stop-color="#DC087D"/>
    <stop offset=".74" stop-color="#9717E7"/>
    <stop offset="1" stop-color="#6C00F5"/>
  </linearGradient>
  <linearGradient id="c" x1="21.78" x2="52.18" y1="16.45" y2="51.12" gradientUnits="userSpaceOnUse">
    <stop stop-color="#FF31D9"/>
    <stop offset="1" stop-color="#FF5BE1" stop-opacity="0"/>
  </linearGradient>
</svg>