<svg xmlns="http://www.w3.org/2000/svg" viewBox="0 0 80 80">
  <rect width="100%" height="100%" fill="#fff"/>
  <path fill="#017CEE" d="m10.96 69.45 28.47-29.19a.53.53 0 0 0 .07-.67c-1.74-2.42-4.93-2.84-6.11-4.46-3.51-4.81-4.4-7.54-5.9-7.37-.11.01-.2.07-.28.15L16.92 38.45C11 44.52 10.16 57.87 10 69.05c0 .5.6.76.96.4Z"/>
  <path fill="#00AD46" d="M69.23 68.73 40.05 40.25a.53.53 0 0 0-.68-.06c-2.41 1.73-2.83 4.93-4.46 6.11-4.81 3.5-7.53 4.4-7.36 5.9 0 .11.06.2.14.28l10.54 10.28c6.07 5.92 19.42 6.77 30.6 6.93.51 0 .76-.61.4-.96Z"/>
  <path fill="#04D659" fill-rule="evenodd" d="M38.23 62.76c-3.3-3.23-4.85-9.62 1.5-22.8-10.32 4.6-13.94 10.67-12.16 12.4l10.66 10.4Z" clip-rule="evenodd"/>
  <path fill="#00C7D4" d="m68.51 10.45-28.47 29.2a.53.53 0 0 0-.07.66c1.74 2.42 4.93 2.84 6.11 4.47 3.51 4.8 4.4 7.53 5.9 7.36.11-.01.2-.07.28-.14l10.29-10.55c5.92-6.06 6.76-19.42 6.92-30.6 0-.5-.6-.76-.96-.4Z"/>
  <path fill="#11E1EE" fill-rule="evenodd" d="M62.55 41.45c-3.23 3.32-9.63 4.85-22.81-1.5 4.6 10.32 10.67 13.94 12.4 12.16l10.4-10.66Z" clip-rule="evenodd"/>
  <path fill="#E43921" d="m10.24 11.18 29.18 28.47c.19.18.47.21.68.06 2.42-1.73 2.83-4.92 4.46-6.1 4.81-3.52 7.53-4.4 7.36-5.91a.46.46 0 0 0-.14-.28L41.24 17.14c-6.07-5.92-19.42-6.77-30.6-6.92-.51-.01-.76.6-.4.96Z"/>
  <path fill="#FF7557" fill-rule="evenodd" d="M41.24 17.14c3.31 3.23 4.85 9.62-1.5 22.81 10.32-4.61 13.94-10.68 12.16-12.41l-10.66-10.4Z" clip-rule="evenodd"/>
  <path fill="#0CB6FF" fill-rule="evenodd" d="M16.92 38.45c3.23-3.31 9.63-4.85 22.82 1.5-4.62-10.32-10.68-13.94-12.42-12.16l-10.4 10.66Z" clip-rule="evenodd"/>
  <path fill="#4A4848" d="M39.76 41.22a1.27 1.27 0 1 0-.04-2.55 1.27 1.27 0 0 0 .04 2.55Z"/>
</svg>