<?xml version="1.0" encoding="UTF-8" standalone="no"?>
<svg
   viewBox="0 0 80 80"
   version="1.1"
   id="svg95"
   sodipodi:docname="apache-spark.svg"
   inkscape:version="1.1.2 (b8e25be8, 2022-02-05)"
   xmlns:inkscape="http://www.inkscape.org/namespaces/inkscape"
   xmlns:sodipodi="http://sodipodi.sourceforge.net/DTD/sodipodi-0.dtd"
   xmlns="http://www.w3.org/2000/svg"
   xmlns:svg="http://www.w3.org/2000/svg">
  <defs
     id="defs99" />
  <sodipodi:namedview
     id="namedview97"
     pagecolor="#ffffff"
     bordercolor="#666666"
     borderopacity="1.0"
     inkscape:pageshadow="2"
     inkscape:pageopacity="0.0"
     inkscape:pagecheckerboard="0"
     showgrid="false"
     inkscape:zoom="6.6644814"
     inkscape:cx="40.288206"
     inkscape:cy="48.240813"
     inkscape:window-width="2306"
     inkscape:window-height="1281"
     inkscape:window-x="0"
     inkscape:window-y="25"
     inkscape:window-maximized="0"
     inkscape:current-layer="svg95" />
  <path
     d="m 61.401202,62.696976 c -0.185182,-0.395585 -0.268325,-0.59444 -0.368096,-0.784327 -2.676337,-5.091204 -5.345788,-10.182419 -8.04963,-15.27363 -0.271069,-0.510506 -0.236698,-0.811849 0.134103,-1.252168 4.25874,-4.974266 8.46242,-9.976033 12.728034,-14.929645 0.150732,-0.174799 0.284794,-0.359822 0.341244,-0.671488 -1.238375,0.322666 -2.47677,0.641907 -3.722055,0.970074 -5.139331,1.362258 -10.319986,2.71761 -15.411198,4.100491 -0.478147,0.128652 -0.694871,-0.01154 -0.935667,-0.408662 -2.917149,-4.877923 -5.854928,-9.769615 -8.806445,-14.58562 -0.150732,-0.252504 -0.315108,-0.497424 -0.637098,-0.708656 -0.236658,1.300336 -0.476098,2.59377 -0.708639,3.894086 -0.818727,4.588977 -1.637437,9.150424 -2.449286,13.760027 -0.08875,0.494669 -0.209846,0.990721 -0.252452,1.486098 -0.0407,0.473337 -0.284833,0.648084 -0.715533,0.784319 -6.061286,1.905762 -12.108807,3.825292 -18.163235,5.74483 -0.265579,0.08326 -0.526318,0.193337 -0.811824,0.451319 4.953608,1.967685 9.907212,3.935362 14.929621,5.937454 -0.182993,0.145242 -0.304088,0.257982 -0.438258,0.343989 -3.096001,2.002088 -6.198889,4.004156 -9.288008,6.01313 -0.370841,0.242189 -0.663926,0.27656 -1.080173,0.08875 C 13.995146,55.992427 10.266169,54.35497 6.5509764,52.703769 4.8860108,51.960742 3.3930355,50.97688 2.2303245,49.545844 -0.40471939,46.326004 0.1181577,42.66582 3.6269693,40.395419 4.775936,39.659251 6.0831367,39.115723 7.3834512,38.689172 13.320898,36.755886 19.285877,34.891397 25.202681,33.020027 c 0.499493,-0.158966 0.729278,-0.381821 0.825608,-0.921919 0.79808,-4.595839 1.616791,-9.219207 2.449286,-13.760011 0.443071,-2.456168 0.676981,-4.967368 1.87135,-7.224013 0.457517,-0.866883 1.004485,-1.7131194 1.664966,-2.4355191 2.366723,-2.6281593 5.662244,-2.7244893 8.187214,-0.2256593 0.846239,0.8462371 1.568639,1.8369584 2.194729,2.8620694 2.752001,4.492642 5.462724,9.012817 8.187213,13.553622 0.319921,0.534569 0.607495,0.641907 1.197125,0.486414 6.639201,-1.781923 13.278424,-3.536316 19.952035,-5.290731 1.375999,-0.362578 2.758883,-0.493982 4.169289,-0.230469 3.061594,0.572423 4.403206,2.903365 3.364322,5.868646 -0.469909,1.348489 -1.28657,2.483676 -2.201599,3.563845 -4.637136,5.455842 -9.288017,10.939217 -13.89764,16.374449 -0.379075,0.445849 -0.386674,0.763673 -0.12372,1.265928 2.779526,5.235693 5.531547,10.457621 8.324817,15.755218 0.661164,1.252159 1.169617,2.559376 1.183365,3.997298 0.03222,3.274874 -2.366723,5.958093 -5.620978,6.439677 -1.823192,0.266296 -3.51567,-0.123163 -5.228791,-0.650153 -4.162406,-1.286555 -8.32482,-2.552486 -12.521633,-3.811528 -0.387311,-0.115564 -0.535257,-0.269041 -0.604743,-0.685252 -0.478843,-2.937752 -1.004485,-5.868645 -1.513618,-8.80642 -0.01353,-0.08052 0.01154,-0.166366 0.02506,-0.346734 4.754081,1.314083 9.494426,2.607515 14.379236,3.962887"
     style="fill:#e25a1c;fill-rule:evenodd;stroke-width:0.688005"
     id="path15" />
</svg>
