<svg xmlns="http://www.w3.org/2000/svg" viewBox="0 0 80 80">
  <rect width="100%" height="100%" fill="#fff"/>
  <path fill="#FEE900" d="m19 30 15.6 10 16.8-10.8v-8.4L19 10.4V30Z"/>
  <path fill="#FFC400" d="M50.5 29.8 34.5 40l16.2 10.3.7.5v8.4l-1.3.4L19 69.4v-59l31.3 10 1 .4h.1v8.4l-.1.1-.8.5Z"/>
  <path fill="url(#a)" d="m19 50 15.6-10L19 30v20Z" opacity=".8"/>
  <path fill="#FFE082" d="M51.4 50.2v9.5h-1.3L19 56.7v-3.6l31.7-3h.7ZM51.3 20.4v9.5l-.8-.1L19 26.9v-3.6l31.3-2.9h1Z"/>
  <path fill="#fff" d="M47.7 55c0 2 1.7 3.8 3.7 3.8v-7.6c-2 0-3.7 1.7-3.7 3.8ZM47.7 25.1c0 2.1 1.7 3.8 3.7 3.8v-7.6c-2 0-3.7 1.7-3.7 3.8Z"/>
  <path fill="#FF6D00" d="M63.8 53.3c0 2.8-.4 5.5-1.5 8.1-1 2.3-2.4 4.3-4.3 5.9-2 1.6-4.4 2.8-6.9 3.5-2.8.8-5.7 1.2-8.6 1.2H19v-2.6l31.8-10.1c.3-.1.5-.4.5-.8v-7.2c0-.3-.1-.6-.4-.7L34.6 40l16.3-10.6c.3-.1.4-.4.4-.7v-7.2c0-.4-.2-.7-.5-.8L19 10.7V8h22c2.9 0 5.8.3 8.6 1a19 19 0 0 1 6.9 3.2c1.9 1.4 3.3 3.2 4.3 5.4 1 2.4 1.6 5.1 1.5 7.8a14 14 0 0 1-9 13.3 13.4 13.4 0 0 1 9.8 9.8c.5 1.5.7 3.1.7 4.8Z"/>
  <linearGradient id="a" x1="18.5" x2="34" y1="39.5" y2="39.5" gradientUnits="userSpaceOnUse">
    <stop stop-color="#FFC400"/>
    <stop offset=".1" stop-color="#FECD00"/>
    <stop offset=".4" stop-color="#FED400"/>
    <stop offset="1" stop-color="#FED600"/>
  </linearGradient>
</svg>