<svg xmlns="http://www.w3.org/2000/svg" viewBox="0 0 80 80">
  <rect width="100%" height="100%" fill="#34668C"/>
  <path fill="#E25A1C" fill-rule="evenodd" d="M69.71 36.25 69.6 36l-2.7-4.91c-.1-.17-.09-.26.04-.4l4.28-4.82c.05-.05.1-.12.11-.21l-1.25.3-5.19 1.33c-.16.04-.23 0-.31-.13l-2.96-4.7a.64.64 0 0 0-.21-.24l-.24 1.26-.82 4.43-.09.48c-.01.15-.1.21-.24.25l-6.1 1.85a.68.68 0 0 0-.28.15l5.02 1.9c-.06.06-.1.1-.14.12l-3.13 1.94c-.12.07-.22.09-.36.02l-3.74-1.6a3.86 3.86 0 0 1-1.45-1c-.89-1.04-.71-2.22.47-2.95.38-.23.82-.4 1.26-.54 2-.63 4-1.23 6-1.83.17-.05.25-.12.28-.3l.82-4.43c.15-.8.23-1.6.63-2.32.16-.28.34-.56.56-.79.8-.84 1.9-.88 2.75-.07.28.27.52.59.73.92.93 1.44 1.84 2.9 2.75 4.36.1.17.2.2.4.15l6.7-1.7c.47-.12.93-.16 1.4-.07 1.04.18 1.49.93 1.14 1.88-.16.44-.43.8-.74 1.15l-4.68 5.27c-.13.14-.14.25-.05.4l2.8 5.07c.21.4.38.82.39 1.28a2.1 2.1 0 0 1-1.9 2.08 4.08 4.08 0 0 1-1.75-.21l-4.2-1.23c-.14-.04-.19-.08-.2-.22l-.52-2.83.01-.12 4.83 1.28Z" clip-rule="evenodd"/>
  <path fill="#fff" fill-rule="evenodd" d="M66.98 50.03H63.2c-.16 0-.26-.05-.35-.19l-4.5-6.53-.18-.26-.96 6.96h-3.3l.1-.9.98-7.09.93-6.76a.3.3 0 0 1 .11-.2l3.43-2.11.1-.03-1.04 7.53.04.02 5.42-5.74.14.8c.13.71.25 1.43.39 2.14.03.15-.01.24-.11.34l-3.47 3.49-.16.16.1.16 5.99 8.03c.03.05.09.09.13.13v.05Zm-39.2-6.97c-.05-.24-.1-.6-.2-.94-.56-1.64-2.31-2.54-4.13-2.13a4.47 4.47 0 0 0-3.62 3.89A3.15 3.15 0 0 0 22 47.22c1.22.42 2.38.24 3.47-.38a4.37 4.37 0 0 0 2.32-3.78Zm-8.75 6.09c-.1.7-.2 1.36-.28 2.03l-.36 2.65c-.01.1-.05.14-.16.14H15.5l-.09-.02.17-1.26.6-4.39c.23-1.67.42-3.35.72-5.02.52-2.94 3.13-5.48 6.2-6.1a6.66 6.66 0 0 1 5.02.75 5.34 5.34 0 0 1 2.63 4.08c.29 2.46-.66 4.5-2.48 6.2a7.85 7.85 0 0 1-4.3 2.05c-1.7.24-3.3-.03-4.74-1l-.2-.11Zm-1.48-14-2.99 2.14c-.15-.24-.3-.48-.46-.7-.43-.58-.96-1-1.74-1.06-.64-.04-1.19.16-1.63.61-.39.41-.44.99-.07 1.45.4.5.84.98 1.29 1.45.75.77 1.53 1.52 2.27 2.3.67.7 1.2 1.5 1.37 2.47a4.85 4.85 0 0 1-.6 3.25 6.46 6.46 0 0 1-4.9 3.3 6.7 6.7 0 0 1-2.88-.14 4.18 4.18 0 0 1-2.68-2.25c-.2-.39-.35-.8-.53-1.23l3.24-1.66.1.23c.18.35.33.73.56 1.05a2.26 2.26 0 0 0 2.88.78c.28-.12.56-.3.8-.49.7-.6.84-1.45.31-2.22-.3-.43-.68-.83-1.05-1.22-.89-.94-1.8-1.85-2.67-2.8-.6-.67-1-1.44-1.13-2.32-.14-.96.06-1.87.59-2.69a6.15 6.15 0 0 1 5.7-2.98c1.43.05 2.56.7 3.45 1.75l.77.99ZM41.75 46l-.49 3.53c0 .05-.06.13-.1.16-2.47 1.09-5.72.94-7.74-1.26a5.53 5.53 0 0 1-1.48-4.15c.16-3.62 3.29-6.77 7.03-7.21 2.19-.26 4.1.3 5.59 1.93 1 1.1 1.47 2.43 1.4 3.9-.04.96-.2 1.92-.32 2.88l-.56 4.08-.03.15H42.1l.12-.92c.21-1.57.45-3.14.63-4.7.12-.99.04-1.96-.42-2.87A2.89 2.89 0 0 0 40 39.93a4.59 4.59 0 0 0-4.92 3.42 3.2 3.2 0 0 0 1.36 3.51c1.15.73 2.37.73 3.62.26A4.73 4.73 0 0 0 41.74 46Zm12.41-8.66-.4 2.93h-1.84c-.5 0-.95.31-1.1.75-.06.18-.08.36-.1.54l-.93 6.75-.23 1.7h-3.07a1953.68 1953.68 0 0 1 .77-5.64c.17-1.25.33-2.51.53-3.77a4.2 4.2 0 0 1 3.8-3.25c.85-.04 1.7 0 2.57 0Z" clip-rule="evenodd"/>
  <path fill="#fff" d="M70.6 50v-1.23L70.08 50h-.17l-.5-1.24h-.01V50h-.26v-1.49h.4l.46 1.13.45-1.13h.4v1.49h-.26Zm-2.25-1.28V50h-.26v-1.3h-.49v-.19h1.23v.2h-.48ZM21.66 33.07h.77l-.18-1.1-.59 1.1Zm.88.71h-1.26l-.4.76h-.9L21.96 31h.86l.68 3.54h-.84l-.12-.76Zm4.54-2.07h-.46l-.15.82h.45c.27 0 .5-.17.5-.5 0-.2-.14-.32-.35-.32Zm-1.1-.71h1.19c.62 0 1.05.35 1.05.96 0 .77-.56 1.28-1.37 1.28h-.5l-.25 1.3h-.77l.65-3.54Zm4.86 2.07h.76l-.18-1.1-.58 1.1Zm.88.71h-1.26l-.4.76h-.9L31.14 31H32l.68 3.54h-.84l-.12-.76Zm5.01.63a2.1 2.1 0 0 1-.84.18c-.97 0-1.59-.7-1.59-1.58 0-1.12.99-2.07 2.16-2.07.3 0 .56.07.78.18l-.1.85c-.17-.17-.43-.29-.76-.29a1.3 1.3 0 0 0-1.27 1.26c0 .51.34.92.87.92.33 0 .64-.12.85-.3l-.1.85Zm4.72-1.3h-1.61l-.26 1.43h-.77l.65-3.54h.77l-.26 1.4h1.6l.27-1.4h.77l-.65 3.54h-.77l.26-1.43Zm2.83 1.43.65-3.54h2.05l-.13.71h-1.28l-.13.69h1.17l-.13.71h-1.17l-.13.71h1.28l-.13.72h-2.05Z"/>
</svg>