<svg xmlns="http://www.w3.org/2000/svg" viewBox="0 0 80 80"><defs><style>.b{fill:#3c76df}.c{fill:#fff}</style></defs><path d="M79.24 37.18a5.65 5.65 0 010 5.65L75 50.16l-33.56-33-.11-.31a.61.61 0 00-.59-.43h-1.5a.61.61 0 00-.59.43l-2 6.07h.12l2.7 2.66A14.46 14.46 0 0025.56 39l-2.63-2.58-6.08 2.23a.64.64 0 00-.42.59v2.62a.64.64 0 00.54.62l33.4 32.92H22.82a5.66 5.66 0 01-4.89-2.83L.76 42.83a5.65 5.65 0 010-5.65L17.93 7.43a5.66 5.66 0 014.89-2.83h34.36a5.66 5.66 0 014.89 2.83z" fill="#3f83fe"/><path class="b" d="M22.73 42.5a17.11 17.11 0 01-.18-2.5 18.14 18.14 0 01.36-3.56L25.54 39v1A14.46 14.46 0 1040 25.54h-.54l-2.7-2.66a18.25 18.25 0 013.24-.3 17.72 17.72 0 013.36.32l-1.91-5.76L75 50.16 62.07 72.57a5.66 5.66 0 01-4.89 2.83h-6.81L17 42.5h5.78zm40.86-.62v-2.62a.64.64 0 00-.42-.59l-6.1-2.24a18.24 18.24 0 01.36 3.57 17.11 17.11 0 01-.18 2.5H63a.63.63 0 00.59-.62z"/><path class="c" d="M63.59 39.26v2.62a.63.63 0 01-.63.62h-5.71a17.11 17.11 0 00.18-2.5 18.24 18.24 0 00-.36-3.57l6.1 2.24a.64.64 0 01.42.59zM40 25.54A14.46 14.46 0 1125.53 40v-1a14.46 14.46 0 0113.92-13.45zM51.1 40A11.11 11.11 0 1040 51.11 11.1 11.1 0 0051.1 40z"/><path class="b" d="M40 28.89A11.11 11.11 0 1128.88 40 11.1 11.1 0 0140 28.89zM47.25 40a7.25 7.25 0 00-2.19-5.2l-.05.05-1.54 1.54a4.92 4.92 0 00-1.57-1 5 5 0 00-5.52 8.12l-1.57 1.57A7.26 7.26 0 0047.25 40z"/><path class="c" d="M45.06 34.8A7.26 7.26 0 1134.8 45.07l1.57-1.57a5 5 0 015.52-8.12 4.92 4.92 0 011.57 1L45 34.85zM43.23 40A3.24 3.24 0 1040 43.24 3.24 3.24 0 0043.23 40zm-1.79-22.88l1.91 5.76a17.72 17.72 0 00-3.35-.32 18.25 18.25 0 00-3.24.3h-.12l2-6.07a.61.61 0 01.59-.43h1.5a.61.61 0 01.59.43z"/><circle class="b" cx="39.99" cy="40" r="3.24"/><path class="c" d="M17 42.5a.64.64 0 01-.54-.62v-2.62a.64.64 0 01.42-.59l6.08-2.23a18.14 18.14 0 00-.41 3.56 17.11 17.11 0 00.18 2.5H17z"/></svg>