<svg xmlns="http://www.w3.org/2000/svg" viewBox="0 0 80 80">
  <rect width="100%" height="100%" fill="#fff"/>
  <path fill="#4285F4" d="m73.18 43.31-3.39 5.86-10.56 18.29a6.11 6.11 0 0 1-5.28 3.07h-27.9a6.11 6.11 0 0 1-5.28-3.07L6.82 43.31a6.13 6.13 0 0 1 0-6.11l13.95-24.15A6.1 6.1 0 0 1 26.05 10h27.9a6.1 6.1 0 0 1 5.28 3.05L73.18 37.2a6.13 6.13 0 0 1 0 6.11Z"/>
  <path fill="#3E7AE3" d="M59.23 67.46 69.8 49.17l-10-9.98c.11.13.17.27.17.46v1.92c0 .43-.31.7-.77.85h-4.93a14.23 14.23 0 0 0-.16-5.2l5.04 1.57-18.25-18.23c.1.13.2.3.27.5l1.83 5.09a14.96 14.96 0 0 0-5.86-.02l.04-.15-.07.13 1.96 1.96a12.24 12.24 0 1 1-11.3 12.2c0-.27 0-.53.03-.78l.02-.35-1.9-1.93a14.01 14.01 0 0 0-.17 5.21H20.8c-.2-.07-.36-.16-.49-.27L48.7 70.52h5.26c2.18 0 4.2-1.17 5.28-3.06Z"/>
  <path fill="#3E7AE3" d="M40 43.06a2.8 2.8 0 1 0 0-5.6 2.8 2.8 0 0 0 0 5.6Z"/>
  <path fill="#3E7AE3" fill-rule="evenodd" d="M40 30.97a9.28 9.28 0 1 0-.01 18.57 9.28 9.28 0 0 0 0-18.57Zm.09 15.62a6.02 6.02 0 0 1-4.26-1.77l1.14-1.17a4.45 4.45 0 0 1 0-6.24 4.45 4.45 0 0 1 6.24 0l1.16-1.14a6.02 6.02 0 0 1 1.78 4.26 6.07 6.07 0 0 1-6.06 6.06Z" clip-rule="evenodd"/>
  <path fill="#fff" d="M42.99 26.15a14.45 14.45 0 0 0-5.86-.03l1.59-5.06c.12-.45.41-.76.83-.76h.77c.42 0 .7.3.84.76l1.83 5.09Z"/>
  <path fill="#fff" fill-rule="evenodd" d="m43.21 37.42 1.16-1.15a6.06 6.06 0 0 1-8.55 8.55l1.16-1.16a4.41 4.41 0 0 1 6.23-6.24ZM40 43.06a2.8 2.8 0 1 0 0-5.6 2.8 2.8 0 0 0 0 5.6Z" clip-rule="evenodd"/>
  <path fill="#fff" fill-rule="evenodd" d="M40 28.02a12.24 12.24 0 1 0 0 24.48 12.24 12.24 0 0 0 0-24.48Zm0 21.53a9.29 9.29 0 1 1 0-18.58 9.29 9.29 0 0 1 0 18.58Z" clip-rule="evenodd"/>
  <path fill="#fff" d="m59.2 38.81-5.1-1.6a14.47 14.47 0 0 1 .16 5.2h4.94c.45-.13.76-.41.76-.83v-1.93c0-.42-.3-.71-.76-.84ZM25.58 40.26c0-1.05.11-2.07.32-3.05l-5.1 1.6c-.46.13-.76.42-.76.84v1.93c0 .42.3.7.76.83h4.94c-.1-.7-.16-1.42-.16-2.15Z"/>
</svg>