<svg viewBox="0 0 80 80" xmlns="http://www.w3.org/2000/svg">
<rect width="100%" height="100%" fill="black"/>
<path d="M5 80V11.45C5 10.535 5.36348 9.65748 6.01048 9.01048C6.65748 8.36348 7.535 8 8.45 8H71.93C72.845 8 73.7225 8.36348 74.3695 9.01048C75.0165 9.65748 75.38 10.535 75.38 11.45V80H72.85V11.45C72.85 11.206 72.7531 10.972 72.5805 10.7995C72.408 10.6269 72.174 10.53 71.93 10.53H8.45C8.206 10.53 7.972 10.6269 7.79946 10.7995C7.62693 10.972 7.53 11.206 7.53 11.45V80H5Z" fill="white"/>
<path d="M39.8796 39.8753C42.798 40.1525 45.3165 36.8255 44.8983 34C44.1788 34.0559 43.4777 34.2579 42.8369 34.594C42.1961 34.9301 41.6285 35.3934 41.1681 35.9563C40.6931 36.4809 40.3328 37.1011 40.1108 37.7764C39.8888 38.4518 39.81 39.167 39.8796 39.8753Z" fill="white"/>
<path d="M50 52.2021C49.7449 53.0447 49.4059 53.8588 48.9883 54.6319C48.4266 55.688 47.7477 56.6757 46.9648 57.5758C46.4792 58.1774 45.8184 58.608 45.0767 58.8063C44.3831 58.9555 43.6612 58.8871 43.0071 58.61C42.5142 58.3903 42.009 58.1999 41.4941 58.04C40.5205 57.8014 39.4963 57.8967 38.5819 58.311C38.0821 58.5259 37.5684 58.706 37.0443 58.8499C36.6554 58.9488 36.2492 58.955 35.8575 58.868C35.4659 58.781 35.0995 58.6031 34.7872 58.3484C34.2552 57.9274 33.7815 57.436 33.3787 56.8873C31.7203 54.7839 30.6252 52.2829 30.199 49.6258C29.8915 47.819 29.8915 46.0215 30.5496 44.2801C31.343 42.1618 32.7883 40.7444 34.9963 40.1899C36.0557 39.9393 37.1666 40.042 38.1637 40.4827C38.4922 40.6168 38.8241 40.7422 39.1568 40.868C39.2724 40.9117 39.3888 40.9557 39.5045 40.9998C39.9199 41.1633 40.3806 41.1633 40.796 40.9998C40.9701 40.9342 41.1436 40.868 41.3171 40.8018C41.8027 40.6165 42.288 40.4313 42.7795 40.2615C44.9506 39.517 47.8013 40.2615 49.2374 42.355L49.3696 42.5512C47.6014 43.7506 46.6019 45.3736 46.7342 47.5823C46.8664 49.7909 48.0719 51.2613 50 52.2021Z" fill="white"/>
</svg>
