<svg viewBox="0 0 80 80" xmlns="http://www.w3.org/2000/svg">
<rect width="100%" height="100%" fill="black"/>
<path d="M39.8796 37.8753C42.798 38.1525 45.3165 34.8255 44.8983 32C44.1788 32.0559 43.4777 32.2579 42.8369 32.594C42.1961 32.9301 41.6285 33.3934 41.1681 33.9563C40.6932 34.4809 40.3328 35.1011 40.1108 35.7764C39.8888 36.4518 39.81 37.167 39.8796 37.8753Z" fill="white"/>
<path d="M50 50.2021C49.7449 51.0447 49.4059 51.8588 48.9883 52.6319C48.4266 53.688 47.7477 54.6757 46.9648 55.5758C46.4792 56.1774 45.8184 56.608 45.0767 56.8063C44.3832 56.9555 43.6612 56.8871 43.0071 56.61C42.5142 56.3903 42.009 56.1999 41.4941 56.04C40.5205 55.8014 39.4963 55.8967 38.5819 56.311C38.0821 56.5259 37.5684 56.706 37.0443 56.8499C36.6554 56.9488 36.2492 56.955 35.8575 56.868C35.4659 56.781 35.0995 56.6031 34.7872 56.3484C34.2552 55.9274 33.7815 55.436 33.3787 54.8873C31.7203 52.7839 30.6252 50.2829 30.199 47.6258C29.8915 45.819 29.8915 44.0215 30.5496 42.2801C31.343 40.1618 32.7883 38.7444 34.9963 38.1899C36.0557 37.9393 37.1666 38.042 38.1637 38.4827C38.4922 38.6168 38.8241 38.7422 39.1568 38.868C39.2724 38.9117 39.3888 38.9557 39.5045 38.9998C39.9199 39.1633 40.3806 39.1633 40.796 38.9998C40.9701 38.9342 41.1436 38.868 41.3171 38.8018C41.8027 38.6165 42.288 38.4313 42.7795 38.2615C44.9506 37.517 47.8013 38.2615 49.2374 40.355L49.3696 40.5512C47.6014 41.7506 46.6019 43.3736 46.7342 45.5823C46.8664 47.7909 48.0719 49.2613 50 50.2021Z" fill="white"/>
<path fill-rule="evenodd" clip-rule="evenodd" d="M17.3347 68.0441C18.2122 69.6431 19.4799 70.9962 21.0209 71.9787V71.8723C22.9483 73.2914 24.3405 75.3148 24.9735 77.617C25.174 78.4067 25.3532 79.2014 25.5107 80H54.2758C54.4218 79.2017 54.5894 78.4071 54.7783 77.617C55.4113 75.3148 56.8035 73.2914 58.7309 71.8723C60.2718 70.8898 61.5395 69.5367 62.417 67.9377C63.2945 66.3388 63.7535 64.5455 63.7518 62.7234V40.5957H64.82C64.9838 40.5964 65.1458 40.563 65.2958 40.4977C65.4459 40.4323 65.5805 40.3365 65.6911 40.2163C65.8018 40.0961 65.886 39.9542 65.9383 39.7997C65.9907 39.6452 66.01 39.4815 65.9951 39.3191V32.2979C65.9684 32.0063 65.8329 31.7353 65.6154 31.5384C65.3978 31.3414 65.114 31.2328 64.82 31.234H63.7518V30.1702C63.759 28.3855 63.3241 26.6266 62.4856 25.0493C61.647 23.472 60.4308 22.125 58.9445 21.1277C57.206 20.0367 55.8017 18.4911 54.8851 16.6596C54.2075 15.1259 53.8496 12.4957 53.5451 10.2579C53.3215 8.61502 53.1267 7.18371 52.8554 6.55319C52.2144 5.06383 51.1462 4.21277 46.9799 4H32.8787C28.7124 4.31915 27.5373 5.2766 26.8964 6.65957C26.6117 7.27381 26.4113 8.81139 26.1829 10.564C25.897 12.7574 25.5673 15.2876 24.9735 16.766C24.0569 18.5975 22.6526 20.1431 20.9141 21.234C19.4081 22.2192 18.1709 23.5608 17.3133 25.1389C16.4557 26.717 16.0045 28.4822 16 30.2766V62.8298C15.9982 64.6519 16.4573 66.4452 17.3347 68.0441ZM20.1667 69.7129C21.9868 71.5055 24.4434 72.5108 27.0032 72.5106L52.7486 72.4043C55.3268 72.4043 57.7994 71.3843 59.6225 69.5688C61.4456 67.7533 62.4698 65.2909 62.4698 62.7234V30.0638C62.4417 27.5148 61.4051 25.0797 59.585 23.2871C57.765 21.4945 55.3084 20.4892 52.7486 20.4894H26.8964C24.3367 20.5174 21.8914 21.5497 20.0914 23.3622C18.2913 25.1746 17.2818 27.621 17.2819 30.1702V62.9362C17.3101 65.4852 18.3467 67.9203 20.1667 69.7129Z" fill="white"/>
</svg>
