<svg viewBox="0 0 80 80" xmlns="http://www.w3.org/2000/svg">
<rect width="100%" height="100%" fill="white"/>
<path d="M39.7593 21.0835C47.2515 21.7953 53.7174 13.2538 52.6437 6C50.7965 6.14355 48.9967 6.6622 47.3515 7.52506C45.7062 8.38792 44.2493 9.57734 43.0673 11.0225C41.8478 12.3691 40.9228 13.9614 40.3528 15.6952C39.7827 17.4289 39.5805 19.2651 39.7593 21.0835Z" fill="black"/>
<path d="M63.1438 58.9682C64.2161 56.9834 65.0864 54.8932 65.7412 52.7301C60.7912 50.3148 57.6964 46.5399 57.3569 40.8696C57.0174 35.1993 59.5832 31.0325 64.1228 27.9535L63.7833 27.4496C60.0964 22.0752 52.7779 20.1638 47.2041 22.0752C45.9419 22.5113 44.6967 22.9864 43.4498 23.4622C43.0044 23.6322 42.5587 23.8022 42.112 23.9706C41.0455 24.3903 39.8626 24.3903 38.7961 23.9706C38.4985 23.8571 38.2009 23.7446 37.9036 23.6322C37.0493 23.3092 36.1973 22.9871 35.354 22.643C32.7941 21.5116 29.942 21.2479 27.2223 21.8913C21.5538 23.3148 17.8432 26.9538 15.8064 32.3921C14.1169 36.8628 14.1169 41.4774 14.9063 46.116C16.0005 52.9377 18.812 59.3584 23.0696 64.7585C24.1037 66.1671 25.3198 67.4287 26.6854 68.5094C27.4873 69.1634 28.4279 69.62 29.4334 69.8434C30.4389 70.0669 31.4818 70.051 32.4803 69.797C33.8257 69.4275 35.1445 68.9652 36.4277 68.4134C38.7752 67.3499 41.4046 67.1052 43.9041 67.7176C45.2259 68.1282 46.5229 68.6169 47.7884 69.1812C49.4677 69.8924 51.3211 70.0681 53.1016 69.685C55.0058 69.176 56.7024 68.0704 57.949 66.5259C59.9589 64.2152 61.7018 61.6795 63.1438 58.9682Z" fill="black"/>
</svg>