<svg viewBox="0 0 80 80" xmlns="http://www.w3.org/2000/svg">
<rect width="100%" height="100%" fill="black"/>
<path fill-rule="evenodd" clip-rule="evenodd" d="M25 12C17.8203 12 12 17.8203 12 25V55C12 62.1797 17.8203 68 25 68H55C62.1797 68 68 62.1797 68 55V25C68 17.8203 62.1797 12 55 12H25ZM31.5547 30C31.6725 31.1297 31.2258 32.2353 30.5675 33.0586C29.8855 33.8589 28.8048 34.4934 27.723 34.3996C27.582 33.3172 28.123 32.1654 28.7343 31.4597C29.4151 30.6357 30.591 30.0479 31.5547 30ZM29.0155 35.173C29.7182 34.8962 30.5866 34.554 31.5421 34.6109C32.1517 34.6581 33.9101 34.8457 35.0355 36.5102L35.0291 36.5147L35.0179 36.5223L34.999 36.5347C34.7101 36.7237 32.9503 37.8753 32.9725 40.1463C32.9944 42.852 35.2016 43.8665 35.4955 44.0015C35.5149 44.0105 35.526 44.0156 35.5275 44.017L35.5209 44.0378C35.4636 44.2221 35.0821 45.4476 34.2151 46.7145C33.418 47.8879 32.5972 49.0373 31.2843 49.0607C30.6663 49.0722 30.2494 48.8935 29.8155 48.7076C29.3605 48.5127 28.8869 48.3098 28.1432 48.3098C27.3632 48.3098 26.8668 48.5192 26.3894 48.7206C25.977 48.8945 25.5789 49.0624 25.0246 49.0842C23.7588 49.1306 22.7981 47.8398 22.001 46.6676C20.3595 44.2981 19.117 39.9826 20.805 37.0733C21.6257 35.619 23.1262 34.7046 24.7435 34.6808C25.4495 34.6679 26.1253 34.935 26.7149 35.168C27.163 35.3451 27.5613 35.5025 27.8854 35.5025C28.1793 35.5025 28.563 35.3513 29.0155 35.173ZM43.7017 31.3095V34.7166H46.4273V36.8971H43.7017V44.9654C43.7017 46.2055 44.2468 46.7915 45.4326 46.7915C45.7324 46.7915 46.2366 46.7508 46.4137 46.7235V48.904C46.1138 48.9859 45.4462 49.0268 44.8329 49.0268C42.0661 49.0268 40.9759 47.9499 40.9759 45.2107V36.8971H38.9043V34.7166H40.9759V31.3095H43.7017ZM52.9726 48.9449H55.8482L61.0001 34.7166H58.1651L54.4445 46.2055H54.39L50.6694 34.7166H47.8074L52.9726 48.9449Z" fill="white"/>
</svg>
