<svg xmlns="http://www.w3.org/2000/svg" viewBox="0 0 80 80">
  <rect width="100%" height="100%" fill="#fff"/>
  <path d="M39.9 21c7.5.8 14-7.7 12.8-15a13.7 13.7 0 0 0-9.5 5 13 13 0 0 0-3.3 10Z"/>
  <path d="M63.2 59c1.1-2 2-4.1 2.6-6.3-4.9-2.4-8-6.2-8.3-11.8-.4-5.7 2.2-9.9 6.7-13l-.3-.5c-3.7-5.3-11-7.2-16.6-5.3a125.4 125.4 0 0 0-5 1.9c-1.1.4-2.3.4-3.4 0l-.9-.4-2.5-1a12.8 12.8 0 0 0-8.2-.7c-5.6 1.4-9.4 5-11.4 10.5-1.7 4.5-1.7 9-.9 13.7a40.5 40.5 0 0 0 11.8 22.4 6.6 6.6 0 0 0 5.8 1.3c1.3-.4 2.6-.8 4-1.4 2.3-1 5-1.3 7.4-.7l3.9 1.5c1.7.7 3.5.9 5.3.5a9.3 9.3 0 0 0 4.9-3.2c2-2.3 3.7-4.8 5.1-7.5Z"/>
</svg>