<svg xmlns="http://www.w3.org/2000/svg" fill="none" viewBox="0 0 80 80">
  <rect width="100%" height="100%" fill="#fff"/>
  <path fill="#CF4942" d="m51.3 51-.2-.5-3.8-6.8c-.1-.3-.3-.4-.6-.4h-14a2 2 0 0 0-1.8 1.2l-6 11.7c-.4.6-1 1-1.7 1-.6-.1-1-.4-1.3-1-.2-.5-.1-1 .1-1.5l4.3-8.2 2-3.6c.8-1.8 2.3-2.7 4.3-2.7H45.4l-5.8-10.4-.3.4-2.4 4.4c-.4.6-.9.9-1.6.8-.7 0-1.1-.4-1.3-1-.2-.4-.2-.9 0-1.3l4-7.2c.7-1.1 2.5-1 3.1.1l3.2 5.8 11 19.8c.7 1.1 0 2.5-1.5 2.5H36.6c-.4 0-.6.1-.8.5L31 66c-.3.8-.9 1.1-1.7 1.1H10.2c-.8 0-1.3-.3-1.7-.9L7 63.5c-.5-.7-.5-1.4 0-2.2l8.8-16L34.2 12c.3-.7.8-1 1.6-1h7.8c.8 0 1.3.3 1.7 1l16.6 29.5 11.3 20.1c.4.7.4 1.3 0 2L71.8 66c-.4.6-.8 1-1.6 1h-7a2 2 0 0 1-1.6-.7l-2.2-2.5a1 1 0 0 0-.8-.4h-16c-1 0-1.5-.3-1.8-1-.4-1 .3-2 1.3-2.1h17.3c.7 0 1.3.2 1.8.7a60 60 0 0 0 2.2 2.5c.2.2.4.3.7.3a195.9 195.9 0 0 0 5.5-.3c.5-.6.5-1 .1-1.7L43.9 15.9l-.8-1.4c-.2-.3-.3-.3-.6-.3H37c-.4 0-.5.1-.6.4l-6.6 11.8L10 62c-.2.3-.1.6 0 .9.4.8 1 1 2 1h15.8c.4 0 .6-.1.8-.4L33.5 52c.3-.8.9-1.1 1.7-1.1h16.1Z"/>
</svg>