<svg viewBox="0 0 80 80" xmlns="http://www.w3.org/2000/svg">
<rect width="100%" height="100%" fill="#0085B7"/>
<path d="M20.2571 29.5784H25.0977V50.3108H20.2571V48.1493C18.126 50.6152 15.5383 50.9501 14.0465 50.9501C7.65328 50.9501 4 45.6224 4 39.9294C4 33.1708 8.62748 29.0304 14.1074 29.0304C15.6296 29.0304 18.3087 29.4262 20.2571 31.9835V29.5784ZM8.96237 40.0512C8.96237 43.6436 11.2152 46.6575 14.7163 46.6575C17.7607 46.6575 20.592 44.4351 20.592 40.1121C20.592 35.5759 17.7911 33.4144 14.7163 33.4144C11.2152 33.3839 8.96237 36.337 8.96237 40.0512ZM30.8516 29.5784H35.6922V31.4355C36.2402 30.7962 37.0317 30.096 37.7015 29.7002C38.6452 29.1522 39.5586 29 40.6545 29C41.8419 29 43.1205 29.1827 44.46 29.9742L42.4812 34.3581C41.3852 33.6579 40.5023 33.6275 40.0152 33.6275C38.9801 33.6275 37.945 33.7797 37.0013 34.7539C35.6617 36.1848 35.6617 38.1636 35.6617 39.5336V50.2803H30.8211L30.8516 29.5784ZM47.5349 29.5784H52.3755V31.4964C53.989 29.5175 55.907 29.0304 57.4901 29.0304C59.6516 29.0304 61.6913 30.0655 62.8482 32.0748C64.5835 29.6089 67.1712 29.0304 68.9979 29.0304C71.5247 29.0304 73.7167 30.2178 74.904 32.2879C75.2998 32.9882 76 34.5104 76 37.5243V50.3412H71.1594V38.9247C71.1594 36.611 70.9159 35.6672 70.7028 35.241C70.3983 34.4495 69.6677 33.4144 67.9323 33.4144C66.745 33.4144 65.7099 34.0537 65.0706 34.9366C64.2182 36.1239 64.1269 37.8896 64.1269 39.6554V50.3412H59.2863V38.9247C59.2863 36.611 59.0427 35.6672 58.8296 35.241C58.5252 34.4495 57.7945 33.4144 56.0592 33.4144C54.8719 33.4144 53.8368 34.0537 53.1975 34.9366C52.345 36.1239 52.2537 37.8896 52.2537 39.6554V50.3412H47.5349V29.5784Z" fill="white"/>
</svg>
