<?xml version="1.0" encoding="UTF-8"?>
<svg xmlns="http://www.w3.org/2000/svg" xmlns:xlink="http://www.w3.org/1999/xlink" width="80px" height="80px"
  viewBox="0 0 80 80" version="1.1" style="background-color: #17191E">
  <defs>
    <linearGradient id="linear0" gradientUnits="userSpaceOnUse" x1="15.8877" y1="78.4797" x2="53.1292" y2="60.6489"
      gradientTransform="matrix(1.01266,0,0,1.01266,8.101264,0.253164)">
      <stop offset="0" style="stop-color:rgb(84.705882%,20%,20%);stop-opacity:1;" />
      <stop offset="1" style="stop-color:rgb(94.117647%,25.490196%,100%);stop-opacity:1;" />
    </linearGradient>
    <clipPath id="clip1">
      <path d="M 8.09375 0.25 L 72.90625 0.25 L 72.90625 53 L 8.09375 53 Z M 8.09375 0.25 " />
    </clipPath>
  </defs>
  <g id="surface1">
    <path style=" stroke:none;fill-rule:nonzero;fill:url(#linear0);"
      d="M 28.34375 67.015625 C 24.421875 63.46875 23.28125 56.03125 24.90625 50.640625 C 27.75 54.046875 31.671875 55.125 35.75 55.734375 C 42.03125 56.671875 48.203125 56.3125 54.03125 53.484375 C 54.703125 53.15625 55.3125 52.71875 56.046875 52.296875 C 56.59375 53.859375 56.734375 55.4375 56.546875 57.046875 C 56.078125 60.96875 54.09375 64 50.953125 66.296875 C 49.703125 67.21875 48.359375 68.046875 47.0625 68.90625 C 43.078125 71.578125 42 74.6875 43.5 79.234375 C 43.53125 79.34375 43.5625 79.453125 43.640625 79.71875 C 41.609375 78.828125 40.109375 77.515625 38.984375 75.796875 C 37.78125 73.96875 37.203125 71.953125 37.1875 69.78125 C 37.171875 68.71875 37.171875 67.65625 37.015625 66.609375 C 36.671875 64.0625 35.453125 62.921875 33.171875 62.859375 C 30.828125 62.796875 28.984375 64.21875 28.484375 66.46875 C 28.453125 66.640625 28.390625 66.8125 28.34375 67.015625 Z M 28.34375 67.015625 " />
    <g clip-path="url(#clip1)" clip-rule="nonzero">
      <path style=" stroke:none;fill-rule:nonzero;fill:rgb(100%,100%,100%);fill-opacity:1;"
        d="M 8.609375 52.296875 C 8.609375 52.296875 19.34375 47.078125 30.109375 47.078125 L 38.21875 22.03125 C 38.515625 20.828125 39.40625 20 40.40625 20 C 41.40625 20 42.296875 20.828125 42.59375 22.03125 L 50.71875 47.078125 C 63.453125 47.078125 72.203125 52.296875 72.203125 52.296875 C 72.203125 52.296875 53.984375 2.765625 53.9375 2.65625 C 53.421875 1.203125 52.53125 0.25 51.34375 0.25 L 29.46875 0.25 C 28.28125 0.25 27.4375 1.203125 26.875 2.65625 C 26.828125 2.765625 8.609375 52.296875 8.609375 52.296875 Z M 8.609375 52.296875 " />
    </g>
  </g>
</svg>