<svg viewBox="0 0 80 80" xmlns="http://www.w3.org/2000/svg">
  <rect width="100%" height="100%" fill="#1C1E24" />
  <path
    d="M29.3962 66.4907C25.8429 63.2772 24.8095 56.5387 26.2817 51.6547C28.8582 54.7408 32.4115 55.7176 36.1064 56.2697C41.7973 57.1191 47.3891 56.7935 52.6695 54.2311C53.2782 53.9339 53.8303 53.5375 54.4957 53.1553C54.9911 54.5709 55.1186 56.0007 54.9487 57.4588C54.524 61.0121 52.7261 63.7585 49.8806 65.8395C48.7481 66.6747 47.5307 67.425 46.3557 68.2036C42.7458 70.6244 41.769 73.4415 43.128 77.5611C43.1563 77.6602 43.1846 77.7593 43.2554 77.9999C41.4151 77.193 40.056 76.0039 39.0368 74.4466C37.9467 72.7903 37.4229 70.9641 37.4088 68.9964C37.3946 68.0337 37.3946 67.0711 37.253 66.1226C36.9416 63.8151 35.8374 62.7817 33.7705 62.7251C31.6471 62.6684 29.9766 63.9567 29.5236 65.9952C29.4953 66.1509 29.4386 66.3066 29.3962 66.4907Z"
    fill="url(#paint0_linear_24_18)" />
  <path
    d="M11.5165 53.1553C11.5165 53.1553 21.242 48.4271 30.9958 48.4271L38.3431 25.7342C38.612 24.6441 39.419 23.8938 40.325 23.8938C41.231 23.8938 42.0379 24.6441 42.3069 25.7342L49.6683 48.4271C61.2058 48.4271 69.1335 53.1553 69.1335 53.1553C69.1335 53.1553 52.627 8.2792 52.5845 8.1801C52.1173 6.86355 51.3104 6 50.2345 6H30.4154C29.3395 6 28.5751 6.86355 28.0654 8.1801C28.023 8.2792 11.5165 53.1553 11.5165 53.1553Z"
    fill="white" />
  <linearGradient id="paint0_linear_24_18" x1="25.6329" y1="78.0069" x2="59.8015" y2="61.6473"
    gradientUnits="userSpaceOnUse">
    <stop stop-color="#D83333" />
    <stop offset="1" stop-color="#F041FF" />
  </linearGradient>
</svg>