<svg xmlns="http://www.w3.org/2000/svg" viewBox="0 0 80 80">
  <rect width="100%" height="100%" fill="#1C1E24"/>
  <path fill="url(#a)" d="M29.4 66.5c-3.6-3.2-4.6-10-3.1-14.8 2.6 3 6.1 4 9.8 4.6 5.7.8 11.3.5 16.6-2 .6-.4 1.1-.8 1.8-1.1.5 1.4.6 2.8.4 4.3-.4 3.5-2.2 6.3-5 8.3l-3.5 2.4c-3.7 2.4-4.6 5.2-3.3 9.4l.2.4a9.8 9.8 0 0 1-5.8-9l-.2-2.9c-.4-2.3-1.5-3.3-3.5-3.4a4 4 0 0 0-4.3 3.3l-.1.5Z"/>
  <path fill="#fff" d="M11.5 53.2s9.7-4.8 19.5-4.8l7.3-22.7c.3-1 1.1-1.8 2-1.8 1 0 1.7.7 2 1.8l7.4 22.7c11.5 0 19.4 4.8 19.4 4.8l-16.5-45C52 6.9 51.3 6 50.2 6H30.4c-1 0-1.8.9-2.3 2.2l-16.6 45Z"/>
  <linearGradient id="a" x1="25.6" x2="59.8" y1="78" y2="61.6" gradientUnits="userSpaceOnUse">
    <stop stop-color="#D83333"/>
    <stop offset="1" stop-color="#F041FF"/>
  </linearGradient>
</svg>