<svg viewBox="0 0 80 80" xmlns="http://www.w3.org/2000/svg">
<rect width="100%" height="100%" fill="#202936"/>
<path d="M25.1632 34.769C25.1632 35.5921 25.2537 36.2595 25.412 36.7489C25.5929 37.2384 25.8191 37.7723 26.1357 38.3507C26.2488 38.5287 26.294 38.7067 26.294 38.8624C26.294 39.0849 26.1583 39.3073 25.8643 39.5298L24.4395 40.4642C24.2359 40.5977 24.0324 40.6644 23.8515 40.6644C23.6253 40.6644 23.3991 40.5532 23.173 40.3529C22.8564 40.0192 22.585 39.6633 22.3588 39.3073C22.1326 38.9291 21.9065 38.5064 21.6577 37.9948C19.8936 40.0415 17.6773 41.0648 15.0086 41.0648C13.1088 41.0648 11.5935 40.5309 10.4854 39.4631C9.37717 38.3952 8.81177 36.9714 8.81177 35.1916C8.81177 33.3007 9.49025 31.7656 10.8698 30.6088C12.2494 29.4519 14.0813 28.8735 16.4108 28.8735C17.1797 28.8735 17.9713 28.9403 18.8081 29.0515C19.6449 29.1627 20.5043 29.3407 21.4089 29.5409V27.9169C21.4089 26.2261 21.0471 25.047 20.346 24.3574C19.6223 23.6677 18.401 23.334 16.6595 23.334C15.868 23.334 15.0538 23.423 14.217 23.6232C13.3802 23.8235 12.566 24.0682 11.7745 24.3796C11.4126 24.5354 11.1412 24.6243 10.9829 24.6688C10.8246 24.7133 10.7115 24.7356 10.6211 24.7356C10.3044 24.7356 10.1461 24.5131 10.1461 24.0459V22.9558C10.1461 22.5999 10.1913 22.3329 10.3044 22.1772C10.4175 22.0215 10.6211 21.8657 10.9377 21.71C11.7292 21.3096 12.6791 20.9758 13.7873 20.7089C14.8955 20.4197 16.0715 20.2862 17.3154 20.2862C20.0067 20.2862 21.9743 20.8869 23.2408 22.0882C24.4847 23.2895 25.118 25.1138 25.118 27.5609V34.769H25.1632ZM15.9811 38.1505C16.7274 38.1505 17.4963 38.017 18.3105 37.75C19.1247 37.4831 19.8484 36.9936 20.4591 36.3262C20.8209 35.9035 21.0923 35.4364 21.228 34.9024C21.3637 34.3685 21.4542 33.7233 21.4542 32.967V32.0326C20.7983 31.8769 20.0972 31.7434 19.3735 31.6544C18.6498 31.5654 17.9487 31.5209 17.2476 31.5209C15.7323 31.5209 14.6241 31.8101 13.8778 32.4108C13.1314 33.0114 12.7696 33.8568 12.7696 34.9692C12.7696 36.0148 13.041 36.7934 13.6064 37.3274C14.1492 37.8835 14.9407 38.1505 15.9811 38.1505ZM34.1418 40.5532C33.7347 40.5532 33.4633 40.4864 33.2824 40.3307C33.1014 40.1972 32.9431 39.8857 32.8074 39.4631L27.4927 22.2662C27.357 21.8212 27.2891 21.532 27.2891 21.3763C27.2891 21.0203 27.47 20.8201 27.8319 20.8201H30.0483C30.478 20.8201 30.772 20.8869 30.9303 21.0426C31.1112 21.1761 31.2469 21.4875 31.3826 21.9102L35.1821 36.6377L38.7102 21.9102C38.8233 21.4653 38.959 21.1761 39.1399 21.0426C39.3209 20.9091 39.6375 20.8201 40.0446 20.8201H41.8539C42.2836 20.8201 42.5776 20.8869 42.7585 21.0426C42.9394 21.1761 43.0977 21.4875 43.1882 21.9102L46.7616 36.8157L50.6741 21.9102C50.8098 21.4653 50.9681 21.1761 51.1265 21.0426C51.3074 20.9091 51.6014 20.8201 52.0085 20.8201H54.1118C54.4736 20.8201 54.6772 20.9981 54.6772 21.3763C54.6772 21.4875 54.6546 21.5988 54.632 21.7322C54.6093 21.8657 54.5641 22.0437 54.4736 22.2884L49.0232 39.4853C48.8875 39.9302 48.7292 40.2195 48.5482 40.3529C48.3673 40.4864 48.0733 40.5754 47.6888 40.5754H45.7438C45.3141 40.5754 45.0201 40.5087 44.8392 40.3529C44.6583 40.1972 44.4999 39.908 44.4095 39.4631L40.904 25.1138L37.4211 39.4408C37.308 39.8858 37.1723 40.175 36.9914 40.3307C36.8105 40.4864 36.4939 40.5532 36.0868 40.5532H34.1418ZM63.2034 41.1538C62.0274 41.1538 60.8514 41.0203 59.7206 40.7534C58.5898 40.4864 57.7077 40.1972 57.1197 39.8635C56.7579 39.6633 56.5091 39.4408 56.4186 39.2406C56.3282 39.0404 56.2829 38.8179 56.2829 38.6177V37.4831C56.2829 37.0159 56.4639 36.7934 56.8031 36.7934C56.9388 36.7934 57.0745 36.8157 57.2102 36.8602C57.3459 36.9047 57.5494 36.9936 57.7756 37.0826C58.5445 37.4163 59.3813 37.6833 60.2634 37.8613C61.168 38.0393 62.05 38.1282 62.9547 38.1282C64.3795 38.1282 65.4877 37.8835 66.2566 37.3941C67.0256 36.9047 67.4326 36.1928 67.4326 35.2806C67.4326 34.6577 67.2291 34.146 66.822 33.7233C66.4149 33.3007 65.646 32.9225 64.5378 32.5665L61.2585 31.5654C59.6075 31.0537 58.3862 30.2973 57.6399 29.2962C56.8936 28.3173 56.5091 27.2272 56.5091 26.0704C56.5091 25.136 56.7126 24.3129 57.1197 23.601C57.5268 22.8891 58.0696 22.2662 58.7481 21.7767C59.4266 21.2651 60.1955 20.8869 61.1002 20.6199C62.0048 20.3529 62.9547 20.2417 63.9498 20.2417C64.4473 20.2417 64.9675 20.2639 65.4651 20.3307C65.9852 20.3974 66.4602 20.4864 66.9351 20.5754C67.3874 20.6866 67.8171 20.7979 68.2242 20.9314C68.6313 21.0648 68.9479 21.1983 69.1741 21.3318C69.4907 21.5098 69.7169 21.6878 69.8526 21.888C69.9883 22.0659 70.0561 22.3107 70.0561 22.6221V23.6677C70.0561 24.1349 69.8752 24.3796 69.5359 24.3796C69.355 24.3796 69.061 24.2906 68.6765 24.1127C67.3874 23.5342 65.94 23.245 64.3343 23.245C63.0451 23.245 62.0274 23.4453 61.3263 23.868C60.6252 24.2906 60.2634 24.9358 60.2634 25.8479C60.2634 26.4708 60.4895 27.0048 60.9418 27.4275C61.3942 27.8502 62.231 28.2728 63.4296 28.651L66.6411 29.6522C68.2694 30.1638 69.4455 30.8757 70.1466 31.7879C70.8477 32.7 71.1869 33.7456 71.1869 34.9024C71.1869 35.8591 70.9834 36.7267 70.5989 37.4831C70.1918 38.2395 69.649 38.9069 68.9479 39.4408C68.2468 39.997 67.41 40.3974 66.4375 40.6866C65.4198 40.9981 64.3569 41.1538 63.2034 41.1538Z" fill="white"/>
<path d="M61.869 48.2061C64.2889 47.9169 69.6264 47.294 70.5762 48.4954C71.5261 49.6744 69.5133 54.6355 68.6086 56.838C68.3372 57.5054 68.9253 57.7723 69.5359 57.2606C73.5163 53.9681 74.5567 47.0938 73.7425 46.0927C72.9283 45.1138 65.9399 44.2684 61.6881 47.205C61.0322 47.6722 61.1453 48.2951 61.869 48.2061Z" fill="#FF9900"/>
<path d="M39.9314 60.2417C49.2266 60.2417 60.0371 57.3719 67.4778 51.9659C68.699 51.076 67.6361 49.7189 66.3922 50.2751C58.0469 53.7456 48.9778 55.4364 40.7229 55.4364C28.4876 55.4364 16.6594 52.1216 7.0702 46.6489C6.2334 46.1594 5.60015 47.0048 6.30125 47.6277C15.1668 55.5031 26.9045 60.2417 39.9314 60.2417Z" fill="#FF9900"/>
</svg>
