<svg xmlns="http://www.w3.org/2000/svg" viewBox="0 0 80 80">
  <rect width="100%" height="100%" fill="#202936"/>
  <path fill="#fff" d="M25.2 34.8c0 .8 0 1.5.2 2l.7 1.6.2.5c0 .2-.1.4-.4.6l-1.5 1-.5.2c-.3 0-.5-.1-.7-.3l-.8-1-.7-1.4c-1.8 2-4 3-6.7 3-1.9 0-3.4-.5-4.5-1.5a5.7 5.7 0 0 1-1.7-4.3c0-1.9.7-3.4 2-4.6a8.3 8.3 0 0 1 5.6-1.7 18.2 18.2 0 0 1 5 .6V28c0-1.7-.4-2.9-1-3.5-.8-.7-2-1-3.7-1-.8 0-1.6 0-2.5.2a18.3 18.3 0 0 0-3.2 1l-.4.1c-.3 0-.5-.2-.5-.7v-1c0-.4 0-.7.2-.8l.6-.5c.8-.4 1.8-.7 2.9-1a14 14 0 0 1 3.5-.4c2.7 0 4.7.6 6 1.8 1.2 1.2 1.8 3 1.8 5.5v7.2ZM16 38.2c.7 0 1.5-.2 2.3-.5a5 5 0 0 0 2.2-1.4c.3-.4.6-.9.7-1.4.2-.5.3-1.2.3-2V32a19.2 19.2 0 0 0-4.3-.5c-1.5 0-2.6.3-3.3 1-.8.5-1.1 1.4-1.1 2.5 0 1 .2 1.8.8 2.3.5.6 1.3.9 2.4.9ZM34 40.6c-.4 0-.6-.1-.8-.3-.2-.1-.4-.4-.5-.8l-5.3-17.2-.2-1c0-.3.2-.5.5-.5H30c.5 0 .8 0 1 .2l.4 1 3.8 14.6L38.7 22l.4-.9 1-.2h1.8c.4 0 .7 0 .9.2l.4 1 3.6 14.8L50.7 22l.4-.9 1-.2h2c.4 0 .6.2.6.6v.3l-.2.6L49 39.5c-.1.4-.3.7-.5.9l-.8.2h-2c-.4 0-.7 0-.9-.2l-.4-1L41 25.2l-3.5 14.3c0 .5-.2.8-.4 1l-1 .2h-1.9Zm29.1.6a15.2 15.2 0 0 1-6-1.3c-.4-.2-.7-.5-.8-.7l-.1-.6v-1.1c0-.5.2-.7.5-.7h.4l.6.3a12.4 12.4 0 0 0 5.2 1c1.4 0 2.5-.2 3.3-.7.7-.5 1.1-1.2 1.1-2.1 0-.6-.2-1.2-.6-1.6-.4-.4-1.2-.8-2.3-1.1l-3.2-1a7 7 0 0 1-3.7-2.3 5.2 5.2 0 0 1-.5-5.7c.4-.7 1-1.3 1.6-1.8.7-.5 1.5-1 2.4-1.2a10 10 0 0 1 4.4-.3 25.2 25.2 0 0 1 2.7.6l1 .4.7.6.2.7v1c0 .5-.2.8-.6.8l-.8-.3c-1.3-.6-2.8-.9-4.4-.9a6 6 0 0 0-3 .7c-.7.4-1 1-1 2 0 .6.2 1.1.6 1.5.5.5 1.3.9 2.5 1.3l3.2 1c1.7.5 2.8 1.2 3.5 2 .7 1 1 2 1 3.2a5.6 5.6 0 0 1-2.2 4.5c-.7.6-1.5 1-2.5 1.3-1 .3-2 .5-3.2.5Z"/>
  <path fill="#F90" d="M61.9 48.2c2.4-.3 7.7-1 8.7.3 1 1.2-1 6.1-2 8.3-.3.7.3 1 1 .5 4-3.3 5-10.2 4.1-11.2-.8-1-7.8-1.8-12 1.1-.7.5-.6 1.1.2 1Z"/>
  <path fill="#F90" d="M40 60.2c9.2 0 20-2.8 27.5-8.2 1.2-1 .1-2.3-1.1-1.7A68.1 68.1 0 0 1 7 46.6c-.9-.4-1.5.4-.8 1a50.3 50.3 0 0 0 33.6 12.6Z"/>
</svg>