<svg xmlns="http://www.w3.org/2000/svg" viewBox="0 0 80 80">
  <rect width="100%" height="100%" fill="#D86613"/>
  <path fill="#fff" fill-rule="evenodd" d="M21.9 12c0-.5.5-1 1-1h17.2c.4 0 .8.2 1 .6l19.9 41h4.6c.6 0 1.1.5 1.1 1.1V66c0 .6-.5 1.1-1 1.1h-14a1 1 0 0 1-.9-.6L31 25.4h-8a1 1 0 0 1-1-1V12Zm2.2 1.2v10h7.5c.4 0 .8.3 1 .7l19.9 41h12V54.7h-4.2a1 1 0 0 1-1-.6l-19.9-41H24.1Zm5 19.6c.5 0 .9.2 1 .6l7.3 14.9v.9l-7.9 17a1 1 0 0 1-1 .7H14.2a1 1 0 0 1-1-1.6l15-31.9a1 1 0 0 1 1-.6Zm0 3.6L15.9 64.7h12l7.4-16-6-12.3Z" clip-rule="evenodd"/>
</svg>