<svg viewBox="0 0 80 80" xmlns="http://www.w3.org/2000/svg">
<rect width="100%" height="100%" fill="#D86613"/>
<path fill-rule="evenodd" clip-rule="evenodd" d="M21.8875 12.0895C21.8875 11.4878 22.3752 11 22.977 11H40.083C40.5004 11 40.8811 11.2384 41.0633 11.614L60.9574 52.6232H65.645C66.2467 52.6232 66.7345 53.111 66.7345 53.7127V65.9105C66.7345 66.5122 66.2467 67 65.645 67H51.7949C51.3776 67 50.997 66.7616 50.8148 66.3862L30.945 25.4497H22.977C22.3752 25.4497 21.8875 24.9619 21.8875 24.3602V12.0895ZM24.0664 13.179V23.2707H31.6272C32.0445 23.2707 32.4251 23.5091 32.6073 23.8845L52.4771 64.821H64.5555V54.8022H60.275C59.8577 54.8022 59.477 54.5637 59.2948 54.1882L39.4007 13.179H24.0664ZM29.1691 32.7778C29.5885 32.7755 29.9719 33.0142 30.155 33.3915L37.3713 48.2569C37.5135 48.5499 37.5172 48.8911 37.3814 49.1871L29.5466 66.2614C29.369 66.6484 28.9822 66.8965 28.5564 66.8965H14.0895C13.7162 66.8965 13.369 66.7054 13.1692 66.3901C12.9694 66.0749 12.9449 65.6792 13.1044 65.3417L28.1898 33.4019C28.3689 33.0227 28.7497 32.78 29.1691 32.7778ZM29.1884 36.3898L15.809 64.7175H27.8576L35.1865 48.7458L29.1884 36.3898Z" fill="white"/>
</svg>
