<svg xmlns="http://www.w3.org/2000/svg" viewBox="0 0 80 80">
  <rect width="100%" height="100%" fill="#fff"/>
  <path fill="#3999C6" d="M73.6 41.2c.6-.7.5-1.8 0-2.5l-3.3-3.3L55.6 21c-.6-.7-1.6-.7-2.3 0-.6.6-.9 1.8 0 2.4l15.4 15.3c.6.7.6 1.8 0 2.5L53 57c-.7.6-.7 1.8 0 2.5.6.6 1.8.5 2.3 0L70 44.9v-.1l3.7-3.6ZM6.4 41.2c-.6-.7-.5-1.8 0-2.5l3.3-3.3L24.4 21c.6-.7 1.6-.7 2.3 0 .6.6.9 1.8 0 2.4l-15 15.3c-.7.7-.7 1.8 0 2.5L27 57c.7.6.7 1.8 0 2.5-.6.6-1.8.5-2.3 0L9.8 45V45l-3.4-3.8Z"/>
  <path fill="#FCD116" d="m27.7 72.5 29.3-42H42.7L56.6 9H35.8L24.7 40.9h13.6L27.7 72.6Z"/>
  <path fill="#FF8C00" d="M47.9 35.6 27.7 72.5l29.3-42H42.7L56.6 9H45.7L34.3 35.5h13.6Z" opacity=".3"/>
</svg>