<svg viewBox="0 0 80 80" xmlns="http://www.w3.org/2000/svg">
<rect width="100%" height="100%" fill="white"/>
<path d="M29.8127 11.0007H47.3989L29.1427 65.092C28.9551 65.6478 28.5978 66.1308 28.1213 66.4729C27.6448 66.8151 27.073 66.9992 26.4863 66.9993H12.7999C12.3554 66.9994 11.9173 66.8936 11.5218 66.6907C11.1263 66.4878 10.7848 66.1937 10.5256 65.8327C10.2663 65.4717 10.0967 65.0541 10.0309 64.6145C9.96504 64.1749 10.0048 63.726 10.1469 63.3048L27.1556 12.908C27.3432 12.352 27.7005 11.8688 28.1772 11.5265C28.6538 11.1842 29.2259 11.0007 29.8127 11.0007Z" fill="url(#paint0_linear_30_771)"/>
<path d="M55.3681 47.2815H27.4806C27.2213 47.2812 26.968 47.359 26.7536 47.5048C26.5392 47.6505 26.3736 47.8575 26.2785 48.0987C26.1834 48.3399 26.1631 48.6041 26.2203 48.857C26.2775 49.1099 26.4095 49.3396 26.5992 49.5164L44.5191 66.2422C45.0408 66.7289 45.7278 66.9995 46.4413 66.9993H62.2323L55.3681 47.2815Z" fill="#0078D4"/>
<path d="M29.8128 11.0008C29.2195 10.9985 28.6411 11.1859 28.162 11.5358C27.6829 11.8856 27.3281 12.3795 27.1497 12.9452L10.1679 63.259C10.0163 63.6817 9.96866 64.1347 10.0291 64.5796C10.0896 65.0246 10.2563 65.4485 10.5152 65.8154C10.7741 66.1823 11.1176 66.4815 11.5166 66.6875C11.9156 66.8936 12.3583 67.0006 12.8074 66.9994H26.8471C27.37 66.906 27.8587 66.6754 28.2633 66.3313C28.668 65.9872 28.974 65.5418 29.1502 65.0407L32.5367 55.0602L44.6332 66.3429C45.1401 66.7622 45.776 66.994 46.4339 66.9994H62.1661L55.2662 47.2816L35.1519 47.2863L47.4625 11.0008H29.8128Z" fill="url(#paint1_linear_30_771)"/>
<path d="M52.2748 12.9054C52.0875 12.3502 51.7308 11.8678 51.2548 11.5261C50.7789 11.1844 50.2077 11.0007 49.6218 11.0007H30.0222C30.6081 11.0008 31.1792 11.1846 31.6551 11.5262C32.1311 11.8679 32.4878 12.3503 32.6752 12.9054L49.6846 63.3042C49.8268 63.7255 49.8667 64.1745 49.8009 64.6142C49.7351 65.0539 49.5656 65.4716 49.3063 65.8327C49.0471 66.1939 48.7055 66.4882 48.31 66.6911C47.9144 66.8941 47.4762 67 47.0317 67H66.6319C67.0765 66.9999 67.5146 66.8939 67.91 66.6909C68.3055 66.4879 68.6469 66.1936 68.9061 65.8325C69.1653 65.4713 69.3348 65.0537 69.4005 64.614C69.4663 64.1744 69.4264 63.7254 69.2843 63.3042L52.2748 12.9054Z" fill="url(#paint2_linear_30_771)"/>
<linearGradient id="paint0_linear_30_771" x1="36.2223" y1="15.1504" x2="17.9586" y2="69.1059" gradientUnits="userSpaceOnUse">
<stop stop-color="#114A8B"/>
<stop offset="1" stop-color="#0669BC"/>
</linearGradient>
<linearGradient id="paint1_linear_30_771" x1="41.9276" y1="40.2952" x2="37.7029" y2="41.7236" gradientUnits="userSpaceOnUse">
<stop stop-opacity="0.3"/>
<stop offset="0.071" stop-opacity="0.2"/>
<stop offset="0.321" stop-opacity="0.1"/>
<stop offset="0.623" stop-opacity="0.05"/>
<stop offset="1" stop-opacity="0"/>
</linearGradient>
<linearGradient id="paint2_linear_30_771" x1="39.6042" y1="13.5767" x2="59.6523" y2="66.9886" gradientUnits="userSpaceOnUse">
<stop stop-color="#3CCBF4"/>
<stop offset="1" stop-color="#2892DF"/>
</linearGradient>
</svg>
