<svg xmlns="http://www.w3.org/2000/svg" viewBox="0 0 80 80">
  <rect width="100%" height="100%" fill="#fff"/>
  <path fill="url(#a)" d="M29.8 11h17.6L29.1 65a2.8 2.8 0 0 1-2.6 2H12.8a2.8 2.8 0 0 1-2.7-3.7l17-50.4a2.8 2.8 0 0 1 2.7-1.9Z"/>
  <path fill="#0078D4" d="M55.4 47.3h-28a1.3 1.3 0 0 0-.8 2.2l18 16.7c.4.5 1.1.8 1.8.8h15.8l-6.8-19.7Z"/>
  <path fill="url(#b)" d="M29.8 11a2.8 2.8 0 0 0-2.7 2l-17 50.3a2.8 2.8 0 0 0 2.7 3.7h14a3 3 0 0 0 2.4-2l3.3-10 12.1 11.3c.5.5 1.2.7 1.8.7h15.8l-7-19.7h-20L47.5 11H29.8Z"/>
  <path fill="url(#c)" d="M52.3 13a2.8 2.8 0 0 0-2.7-2H30a2.8 2.8 0 0 1 2.7 2l17 50.3A2.8 2.8 0 0 1 47 67h19.6a2.8 2.8 0 0 0 2.7-3.7l-17-50.4Z"/>
  <linearGradient id="a" x1="36.2" x2="18" y1="15.2" y2="69.1" gradientUnits="userSpaceOnUse">
    <stop stop-color="#114A8B"/>
    <stop offset="1" stop-color="#0669BC"/>
  </linearGradient>
  <linearGradient id="b" x1="41.9" x2="37.7" y1="40.3" y2="41.7" gradientUnits="userSpaceOnUse">
    <stop stop-opacity=".3"/>
    <stop offset=".1" stop-opacity=".2"/>
    <stop offset=".3" stop-opacity=".1"/>
    <stop offset=".6" stop-opacity=".1"/>
    <stop offset="1" stop-opacity="0"/>
  </linearGradient>
  <linearGradient id="c" x1="39.6" x2="59.7" y1="13.6" y2="67" gradientUnits="userSpaceOnUse">
    <stop stop-color="#3CCBF4"/>
    <stop offset="1" stop-color="#2892DF"/>
  </linearGradient>
</svg>