<svg viewBox="0 0 80 80" xmlns="http://www.w3.org/2000/svg">
<rect width="100%" height="100%" fill="#5C2D91"/>
<path d="M6.06297 40.4824C6.03154 40.612 6 40.742 6 40.8691V44.4472C6.01051 44.4942 6.0162 44.5421 6.01699 44.5903C6.05113 44.8836 6.07956 45.1816 6.10801 45.4799C6.1645 46.0721 6.2211 46.6655 6.32278 47.2254C7.15453 52.5846 9.74949 57.5214 13.7042 61.2681C15.968 63.4138 18.6385 65.0935 21.5613 66.2099C24.9429 67.4968 28.55 68.1008 32.1705 67.9863C34.525 67.9568 36.8737 67.7457 39.1951 67.3549C44.4136 66.4929 49.3576 64.4377 53.6352 61.3522C55.4163 60.054 57.0739 58.5971 58.5873 56.9997C58.6619 56.8916 58.7245 56.7759 58.7741 56.6545H58.6127C58.4938 56.7219 58.3749 56.7892 58.2645 56.865C55.124 58.85 51.7417 60.4313 48.1989 61.5711C44.6548 62.709 40.9835 63.413 37.267 63.6674C34.2513 63.9249 31.215 63.8062 28.2292 63.3138C23.3282 62.5233 18.865 60.0462 15.6239 56.3178C13.4959 53.96 11.9605 51.137 11.1427 48.0792C10.3249 45.0214 10.2479 41.8152 10.9181 38.7223C11.721 34.461 13.8933 30.5715 17.1103 27.6347C20.7208 24.1871 25.4796 22.1687 30.4886 21.9604C34.2066 21.7452 37.9124 22.5491 41.1997 24.284C45.1875 26.3366 48.3993 29.6115 50.3564 33.6205C51.4328 35.8359 52.1249 38.2153 52.4035 40.6587C52.6711 42.2473 52.6711 43.8688 52.4035 45.4574C52.0755 47.2568 51.2048 48.9153 49.9062 50.2141C49.0967 51.0316 48.0974 51.6402 46.9957 51.9865C45.8941 52.3329 44.7236 52.4065 43.5866 52.2009C41.7781 51.9799 40.1257 51.075 38.9743 49.6753L38.4986 49.0354C38.456 49.0874 38.4185 49.1381 38.3826 49.1866C38.3254 49.2638 38.2724 49.3354 38.2098 49.3975C37.0153 50.7342 35.4786 51.7263 33.7622 52.2686C32.0457 52.811 30.2132 52.8836 28.4585 52.4788C25.9604 51.9387 23.7529 50.5001 22.2624 48.441C20.772 46.382 20.1043 43.8485 20.3884 41.33C20.6725 38.8115 21.8882 36.4867 23.8007 34.8047C25.7131 33.1228 28.1867 32.2029 30.7434 32.223H36.5025C37.0933 32.2067 37.6812 32.3101 38.2303 32.527C38.7793 32.7439 39.2779 33.0696 39.6954 33.4842C40.113 33.8989 40.4407 34.3936 40.6584 34.9382C40.8762 35.4828 40.9795 36.0657 40.9619 36.6513V43.4537C40.9603 44.0197 41.0201 44.5842 41.1403 45.1375C41.2453 45.666 41.469 46.1643 41.7948 46.5953C42.1207 47.0264 42.5404 47.3792 43.0226 47.6274C43.5049 47.8757 44.0374 48.0132 44.5806 48.0296C45.1238 48.046 45.6637 47.9409 46.1603 47.7221C46.6649 47.4744 47.1083 47.1198 47.4591 46.6833C47.8099 46.2468 48.0596 45.7392 48.1904 45.1964C48.5589 43.8232 48.6226 42.3871 48.3773 40.987C47.925 36.993 46.0049 33.3039 42.9835 30.6234C41.1609 28.9142 38.9648 27.6451 36.5662 26.915C34.1677 26.1848 31.6314 26.0134 29.155 26.414C26.9542 26.6948 24.8362 27.4258 22.9354 28.5605C21.0345 29.6953 19.3922 31.2091 18.1127 33.0059C15.5218 36.3529 14.3699 40.5788 14.9076 44.7635C15.4453 48.9483 17.6292 52.7531 20.9837 55.3496C23.8174 57.7016 27.3216 59.1174 31.0068 59.3991C32.6631 59.4917 34.294 59.4917 35.9928 59.4917C38.8922 59.4422 41.7741 59.035 44.5719 58.2794C52.4236 56.2575 59.4541 51.8826 64.703 45.7521C68.043 42.0201 70.5775 37.6505 72.1508 32.9118C73.724 28.1732 74.3027 23.1656 73.8512 18.1971C73.5924 14.4265 72.5361 10.7521 70.7509 7.41257C70.7409 7.39426 70.7309 7.37546 70.7207 7.35645C70.6193 7.16583 70.5069 6.95488 70.2752 7.00847C70.0673 7.07631 69.8939 7.22107 69.791 7.41257C69.4882 7.88427 69.2052 8.3647 68.9229 8.84385C68.651 9.30542 68.3798 9.7658 68.0922 10.2161C66.5626 12.734 64.5754 14.9491 62.2312 16.7491C59.5162 18.6979 56.4476 20.11 53.1935 20.908C53.1269 20.92 53.0584 20.9163 52.9935 20.8973C52.9286 20.8783 52.8691 20.8445 52.8197 20.7986C52.7348 20.7312 52.7688 20.5376 52.8197 20.4366C52.9698 20.1643 53.1246 19.8949 53.2794 19.6255C53.5889 19.0867 53.8985 18.5479 54.1703 17.9867C55.272 15.7208 55.9675 13.2823 56.2259 10.7801C56.2284 10.7595 56.2313 10.7383 56.2342 10.7167C56.2615 10.517 56.2936 10.2819 56.056 10.1908C55.8406 10.1082 55.7218 10.2339 55.6021 10.3608C55.5754 10.389 55.5487 10.4173 55.5209 10.4434C55.2826 10.6632 55.0488 10.8874 54.8151 11.1115C54.3239 11.5825 53.8334 12.0529 53.3039 12.4807C49.5942 15.5508 44.9593 17.3102 40.1295 17.4815C38.4646 17.5416 36.7971 17.5307 35.1299 17.5197C33.7605 17.5107 32.3913 17.5017 31.0238 17.532C29.5541 17.5554 28.0886 17.6934 26.6408 17.9446C21.5266 18.84 16.834 21.3292 13.2455 25.0501C9.19627 29.1484 6.68178 34.4952 6.11892 40.2041C6.10824 40.2958 6.08563 40.389 6.06297 40.4824Z" fill="white"/>
<path d="M36.8423 42.8981V39.7663H36.8677V36.9376C36.8677 36.4914 36.7233 36.3567 36.2731 36.3567H30.633C29.4294 36.3643 28.2543 36.7199 27.2516 37.3798C26.249 38.0398 25.4624 38.9754 24.9884 40.072C24.5145 41.1685 24.3737 42.3783 24.5833 43.553C24.793 44.7277 25.344 45.8163 26.1687 46.6851C26.9934 47.554 28.0561 48.1654 29.2263 48.4444C30.3965 48.7234 31.6235 48.6579 32.7567 48.2558C33.8898 47.8538 34.88 47.1327 35.6057 46.181C36.3315 45.2293 36.7612 44.0884 36.8423 42.8981Z" fill="white"/>
</svg>
