<svg xmlns="http://www.w3.org/2000/svg" viewBox="0 0 80 80"><defs><style>.a{fill:#5c2d91}</style></defs><path class="a" d="M0 44c0-.26.11-.53.14-.79a29.88 29.88 0 018.39-18 28.73 28.73 0 0115.77-8.44 33 33 0 015.16-.49c3.57-.08 7.15.07 10.72-.06a25.63 25.63 0 0015.51-5.94c.92-.75 1.74-1.61 2.61-2.42.18-.17.32-.42.63-.3s.23.45.2.7a25.76 25.76 0 01-2.42 8.56c-.48 1-1.06 1.94-1.59 2.91-.06.12-.1.35 0 .43a.51.51 0 00.44.13 30.72 30.72 0 0010.64-4.94 28.25 28.25 0 006.9-7.76c.69-1.09 1.3-2.23 2-3.33a1 1 0 01.57-.48c.3-.07.43.24.56.48a32 32 0 013.65 12.81A43.45 43.45 0 0169.11 49.8a46.38 46.38 0 01-23.7 14.88 41.11 41.11 0 01-10.1 1.44c-2 0-3.92 0-5.87-.11a20.88 20.88 0 01-11.8-4.81 19 19 0 01-3.38-26.54 18.86 18.86 0 0113-7.83 19.19 19.19 0 0116.28 5 19.43 19.43 0 016.35 12.31 11.68 11.68 0 01-.22 5 4.52 4.52 0 01-2.39 3 4.26 4.26 0 01-5.91-3.07 9.38 9.38 0 01-.21-2v-8.08a5.11 5.11 0 00-5.25-5.26h-6.78a12.17 12.17 0 00-2.69 24.06 11.77 11.77 0 0011.48-3.66c.12-.12.21-.27.34-.43l.56.76a8.32 8.32 0 005.43 3 8.33 8.33 0 007.44-2.36 10.74 10.74 0 002.94-5.65 17.31 17.31 0 000-5.7 26 26 0 00-2.41-8.36A24.54 24.54 0 0041.44 24.3a23.87 23.87 0 00-12.61-2.76 24.16 24.16 0 00-15.75 6.74 23.86 23.86 0 00-7.29 13.17 23.84 23.84 0 005.54 20.9 24.86 24.86 0 0014.84 8.31 42.57 42.57 0 0010.64.42 53.79 53.79 0 0012.87-2.49A51.76 51.76 0 0061.53 63c.13-.09.27-.17.41-.25h.19a2.17 2.17 0 01-.22.41 42.7 42.7 0 01-5.83 5.17 40.09 40.09 0 01-17 7.13 53.42 53.42 0 01-8.27.75 32 32 0 01-12.49-2.11 27.9 27.9 0 01-9.25-5.87A29.22 29.22 0 01.38 51.55c-.18-1-.24-2.09-.36-3.13a.85.85 0 00-.02-.17z"/><path class="a" d="M36.31 42.69v3.72A7.28 7.28 0 1129 38.64h6.64c.53 0 .7.16.7.69v3.36z"/></svg>