<svg xmlns="http://www.w3.org/2000/svg" viewBox="0 0 80 80">
  <rect width="100%" height="100%" fill="#5C2D91"/>
  <path fill="#fff" d="M6 40.5v4.1l.1.9.2 1.7A24.5 24.5 0 0 0 32.2 68c2.3 0 4.7-.3 7-.6a34.2 34.2 0 0 0 19.6-10.7h-.2c-.1 0-.2 0-.3.2a44.1 44.1 0 0 1-30 6.4A21.2 21.2 0 0 1 11 48.1c-.8-3-.9-6.3-.2-9.4a20 20 0 0 1 6.2-11c3.6-3.5 8.4-5.5 13.4-5.7a20.7 20.7 0 0 1 22 18.7c.2 1.5.2 3.2-.1 4.8a9 9 0 0 1-2.5 4.7 7 7 0 0 1-6.3 2 7 7 0 0 1-4.6-2.5l-.5-.7-.1.2-.2.2a10 10 0 0 1-9.7 3 10.3 10.3 0 0 1-8.1-11 10.2 10.2 0 0 1 10.3-9.2h5.8a4.4 4.4 0 0 1 4.2 2.7l.3 1.8v6.8L41 45a3.6 3.6 0 0 0 3.5 3c.5 0 1-.2 1.6-.4a3.8 3.8 0 0 0 2-2.5c.4-1.4.4-2.8.2-4.2-.5-4-2.4-7.7-5.4-10.4a16.3 16.3 0 0 0-13.8-4.2 16.1 16.1 0 0 0-11 6.6A15.9 15.9 0 0 0 21 55.3c2.8 2.4 6.3 3.8 10 4.1h5a39.4 39.4 0 0 0 36.2-26.6c1.5-4.6 2.1-9.6 1.7-14.6-.3-3.8-1.4-7.4-3.1-10.8-.2-.2-.3-.4-.5-.4s-.4.2-.5.4l-.9 1.4-.8 1.4a23.9 23.9 0 0 1-5.9 6.5A26.2 26.2 0 0 1 53 21l-.2-.1v-.4l.5-.8.9-1.6c1-2.3 1.8-4.7 2-7.2l-.1-.6c-.3 0-.4 0-.5.2l-.8.7-1.5 1.4c-3.7 3-8.3 4.8-13.2 5h-9c-1.5 0-3 .2-4.5.4-5 1-9.8 3.4-13.4 7.2a25 25 0 0 0-7.1 15.4Z"/>
  <path fill="#fff" d="M36.8 42.9v-6c0-.4 0-.5-.5-.5h-5.7A6.2 6.2 0 0 0 25 40a6 6 0 0 0 4.2 8.3 6.2 6.2 0 0 0 6.4-2.2c.7-1 1.2-2.1 1.2-3.3Z"/>
</svg>