<svg xmlns="http://www.w3.org/2000/svg" viewBox="0 0 80 80">
  <rect width="100%" height="100%" fill="#6831ED"/>
  <path fill="#fff" fill-rule="evenodd" d="M19 11a7.2 7.2 0 0 0-7 7.5c0 3.7-.1 8.6-1.3 12.6S7.4 37.5 4 37.9v3.6c3.4.3 5.5 2.8 6.7 6.8 1.2 4 1.4 8.8 1.2 12.6a7.2 7.2 0 0 0 7 7.5h42.2c4 0 7.1-3.6 7-7.5-.2-3.8 0-8.6 1.2-12.6s3.3-6.5 6.7-6.8v-3.6c-3.4-.4-5.5-2.9-6.7-6.8-1.2-4-1.4-8.9-1.2-12.6a7.2 7.2 0 0 0-7-7.5H19Zm33.8 35.3c0 5.4-4 8.6-10.6 8.6H30.8a1.2 1.2 0 0 1-1.2-1.2v-28a1.2 1.2 0 0 1 1.2-1.3h11.3c5.5 0 9.2 3 9.2 7.6 0 3.3-2.5 6.2-5.6 6.7v.1c4.3.5 7.1 3.4 7.1 7.5ZM41 28.3h-6.4v9.1h5.4c4.2 0 6.5-1.7 6.5-4.7 0-2.8-2-4.4-5.5-4.4ZM34.5 41v10h6.7c4.3 0 6.7-1.7 6.7-5s-2.4-5-7-5h-6.4Z" clip-rule="evenodd"/>
</svg>