<svg xmlns="http://www.w3.org/2000/svg" viewBox="0 0 80 80"><path d="M0 0h80v80H0z" fill="#4d337f"/><path d="M43.32 16a16.77 16.77 0 0110.36 3 10.49 10.49 0 014 8.92 10.59 10.59 0 01-1.68 6.2 11.48 11.48 0 01-5.08 4 10.57 10.57 0 016.72 4 14 14 0 012.28 8.2 13.39 13.39 0 01-1.2 5.68 10.64 10.64 0 01-3.16 4A16.19 16.19 0 0150 62.84a27.39 27.39 0 01-8 1H20V16zM28.4 36h13.72a7.53 7.53 0 005-1.76 6 6 0 002-4.92 6.32 6.32 0 00-1.8-5.12 8.3 8.3 0 00-5.24-1.48H28.4zm0 21h14.88a8.36 8.36 0 005.92-2 7.39 7.39 0 002.12-5.64A7 7 0 0049.2 44a8.54 8.54 0 00-5.92-1.92H28.4z" fill="#fff"/></svg>