<svg xmlns="http://www.w3.org/2000/svg" viewBox="0 0 80 80">
  <rect width="100%" height="100%" fill="#fff"/>
  <path fill="#020202" d="M35.5 26.6 46.2 8.9c1.6-2.8 3.2-3.2 6-1.5l13 7.7c3.2 2 3.5 3.4 1.6 6.5L56.4 39a23.6 23.6 0 0 1-14.8 34c-13 3.3-26.6-5-29.1-17.8a23.7 23.7 0 0 1 23-28.5Zm1.2 2.1a21.4 21.4 0 0 0-13.3 39A21.5 21.5 0 0 0 54 39l12.4-20.8L49.2 8 36.7 28.7Z"/>
  <path fill="#28B09F" d="M38.4 32.4c-.6-.2-1.3-.2-2 .2-.5.9-.5 1.7 0 2.4.7.7 1.5.6 2.2.3 1-1 .9-2-.2-3ZM49 36.9c0 1.8-1.5 3.2-3.4 3.1a3.2 3.2 0 0 1-3.1-3.3c0-1.9 1.4-3.2 3.3-3.2S49 35 49 37ZM54.8 46.7c2 5.3-1.1 14-6.5 18.1-7.4 5.8-16.5 6-23.9.9-6.4-4.5-9.7-13.3-7.5-20.3l2.7.3 3.7.4c2.1-4.5 3-4.8 7.7-2.8 1.2-3.9 3.1-5.8 6-5.7 2.9 0 4.7 1.8 5.7 5.7 2.2-.5 3.6.4 4.3 2.5l2.8.2c1.7.1 3.4.2 5 .7Z"/>
</svg>