<svg xmlns="http://www.w3.org/2000/svg" viewBox="0 0 80 80"><defs><style>.b{fill:#fff}</style></defs><path fill="#109985" d="M0 0h80v80H0z"/><rect class="b" x="48.51" y="18.49" width="24" height="4" rx=".28" transform="rotate(45 60.502 20.49)"/><path class="b" d="M56.69 35.62l9.47-9.47-2.83-2.83-11.59 11.6A20 20 0 0150.21 59a1.42 1.42 0 01-2.07 0L22 32.86a1.42 1.42 0 010-2.07 20 20 0 0124.07-1.53l11.6-11.59-2.83-2.83-9.47 9.47a24 24 0 1011.32 11.31z"/><circle class="b" cx="45.66" cy="47.13" r="2.67"/><circle class="b" cx="46.13" cy="32.75" r="1.5"/><circle class="b" cx="29.39" cy="42.89" r="7.17"/></svg>