<svg xmlns="http://www.w3.org/2000/svg" xmlns:xlink="http://www.w3.org/1999/xlink" version="1.1" viewBox="0 0 80 80">
    <path style=" stroke:none;fill-rule:nonzero;fill:rgb(0%,0%,0%);fill-opacity:1;" d="M 228.746094 74.625 C 228.222656 73.992188 227.683594 73.378906 227.128906 72.78125 C 226.578125 72.191406 226.058594 71.527344 225.507812 70.9375 C 224.957031 70.347656 224.4375 69.683594 223.886719 69.09375 C 223.335938 68.503906 222.816406 67.839844 222.265625 67.25 C 221.714844 66.660156 221.195312 65.996094 220.648438 65.40625 C 220.09375 64.816406 219.578125 64.152344 219.027344 63.5625 C 218.476562 62.972656 217.957031 62.308594 217.40625 61.722656 C 233.480469 79.695312 242.6875 104.144531 243.039062 129.78125 C 243.039062 190.875 188.53125 240.574219 121.519531 240.574219 C 83.992188 240.574219 50.421875 224.980469 28.09375 200.535156 L 31.335938 204.222656 L 32.953125 206.0625 L 34.574219 207.910156 L 36.195312 209.75 L 39.4375 213.4375 C 61.730469 238.917969 96.050781 255.324219 134.480469 255.324219 C 201.496094 255.324219 256 205.621094 256 144.714844 C 256 118.683594 246.148438 94.019531 228.746094 74.625 Z M 228.746094 74.625 "/>
    <path style=" stroke:none;fill-rule:nonzero;fill:rgb(98.431373%,94.117647%,87.45098%);fill-opacity:1;" d="M 234.9375 129.78125 C 234.9375 185.859375 184.15625 231.320312 121.519531 231.320312 C 58.878906 231.320312 8.101562 185.859375 8.101562 129.78125 C 8.101562 95.011719 27.542969 64.300781 57.421875 46.085938 C 87.300781 27.875 105.898438 9.21875 121.519531 9.21875 C 137.140625 9.21875 150.488281 24.445312 185.617188 46.085938 C 215.496094 64.300781 234.9375 95.011719 234.9375 129.78125 Z M 234.9375 129.78125 "/>
    <path style=" stroke:none;fill-rule:nonzero;fill:rgb(96.470588%,87.058824%,80.784314%);fill-opacity:1;" d="M 234.9375 129.78125 C 234.921875 122.578125 234.046875 115.410156 232.34375 108.472656 C 223.496094 231.246094 91.867188 237.144531 40.117188 200.425781 C 63.382812 220.941406 92.089844 231.835938 121.519531 231.320312 C 184.0625 231.320312 234.9375 185.785156 234.9375 129.78125 Z M 234.9375 129.78125 "/>
    <path style=" stroke:none;fill-rule:nonzero;fill:rgb(100%,99.607843%,98.823529%);fill-opacity:1;" d="M 77.871094 39.339844 C 92.355469 29.460938 111.601562 10.914062 130.527344 10.875 C 127.617188 9.804688 124.578125 9.246094 121.519531 9.21875 C 113.675781 9.21875 105.316406 13.824219 94.785156 20.757812 C 91.121094 23.191406 87.332031 25.882812 83.3125 28.683594 C 75.761719 33.992188 67.109375 40.003906 57.390625 46.011719 C 26.539062 65.003906 8.101562 96.304688 8.101562 129.78125 L 8.101562 134.167969 C 27.738281 55.230469 63.417969 49.222656 77.871094 39.339844 Z M 77.871094 39.339844 "/>
    <path style=" stroke:none;fill-rule:nonzero;fill:rgb(80%,74.509804%,65.490196%);fill-opacity:1;" d="M 112.1875 18.546875 C 112.277344 36.164062 105.617188 52.949219 93.941406 64.523438 C 93.035156 65.445312 93.746094 67.214844 94.914062 66.699219 C 105.835938 61.867188 120.578125 47.414062 114.355469 18.25 C 114.097656 16.589844 112.1875 17.035156 112.1875 18.546875 Z M 119.542969 18.546875 C 127.566406 33.441406 129.472656 51.582031 124.757812 68.210938 C 124.371094 69.5 125.765625 70.605469 126.542969 69.535156 C 133.636719 59.214844 139.828125 38.714844 121.292969 16.589844 C 120.351562 15.632812 118.894531 17.109375 119.542969 18.398438 Z M 128.484375 17.917969 C 141.050781 28.039062 149.144531 43.851562 150.683594 61.277344 C 150.625 61.917969 151.011719 62.5 151.570312 62.609375 C 152.125 62.714844 152.660156 62.308594 152.789062 61.683594 C 155.769531 48.816406 154.085938 26.878906 129.554688 15.484375 C 128.257812 14.894531 127.417969 16.886719 128.484375 17.773438 Z M 68.664062 56.261719 C 83.605469 51.1875 95.9375 39.121094 102.59375 23.082031 C 103.179688 21.753906 105.023438 22.269531 104.734375 23.746094 C 99.128906 53.238281 80.363281 59.398438 68.699219 58.585938 C 67.46875 58.621094 67.5 56.667969 68.664062 56.261719 Z M 68.664062 56.261719 "/>
    <path style=" stroke:none;fill-rule:nonzero;fill:rgb(0%,0%,0%);fill-opacity:1;" d="M 121.519531 240.574219 C 54.503906 240.574219 0 190.875 0 129.78125 C 0 92.910156 20.027344 58.511719 53.566406 37.902344 C 63.285156 32.003906 71.617188 26.066406 79.035156 20.867188 C 83.117188 17.992188 86.976562 15.300781 90.703125 12.792969 C 102.074219 5.125 111.796875 0 121.519531 0 C 131.242188 0 139.730469 4.425781 150.359375 11.578125 C 153.601562 13.679688 156.839844 15.964844 160.308594 18.472656 C 168.378906 24.148438 177.484375 30.566406 189.472656 37.902344 C 223.011719 58.511719 243.039062 92.875 243.039062 129.78125 C 243.039062 190.875 188.53125 240.574219 121.519531 240.574219 Z M 121.519531 9.21875 C 113.675781 9.21875 105.316406 13.824219 94.785156 20.757812 C 91.121094 23.191406 87.332031 25.882812 83.3125 28.683594 C 75.761719 33.992188 67.109375 40.003906 57.390625 46.011719 C 26.539062 65.003906 8.101562 96.304688 8.101562 129.78125 C 8.101562 185.785156 58.976562 231.359375 121.519531 231.359375 C 184.0625 231.359375 234.9375 185.785156 234.9375 129.78125 C 234.9375 96.304688 216.496094 65 185.617188 46.085938 C 173.367188 38.714844 163.808594 31.78125 156.0625 26.324219 C 152.53125 23.855469 149.289062 21.570312 146.339844 19.542969 C 136.523438 12.90625 129.359375 9.21875 121.519531 9.21875 Z M 121.519531 9.21875 "/>
    <path style=" stroke:none;fill-rule:nonzero;fill:rgb(71.764706%,7.843137%,13.333333%);fill-opacity:1;" d="M 144.363281 156.695312 C 142.910156 163.480469 139.59375 169.5625 134.902344 174.0625 C 131.378906 177.949219 126.816406 180.386719 121.941406 180.996094 C 116.914062 180.484375 112.195312 178.039062 108.558594 174.0625 C 103.910156 169.542969 100.644531 163.460938 99.222656 156.695312 C 99.128906 155.882812 99.371094 155.0625 99.875 154.480469 C 100.382812 153.894531 101.101562 153.613281 101.816406 153.710938 L 141.804688 153.710938 C 142.515625 153.625 143.222656 153.914062 143.722656 154.496094 C 144.222656 155.078125 144.457031 155.890625 144.363281 156.695312 Z M 144.363281 156.695312 "/>
    <path style=" stroke:none;fill-rule:nonzero;fill:rgb(100%,38.039216%,39.215686%);fill-opacity:1;" d="M 108.558594 174.359375 C 112.1875 178.335938 116.890625 180.804688 121.90625 181.363281 C 126.914062 180.796875 131.605469 178.328125 135.226562 174.359375 C 136.386719 173.128906 137.46875 171.808594 138.46875 170.410156 C 134.433594 165.203125 128.6875 162.121094 122.589844 161.894531 C 116.035156 162.074219 109.976562 165.90625 106.386719 172.144531 C 107.132812 172.917969 107.777344 173.65625 108.558594 174.359375 Z M 108.558594 174.359375 "/>
    <path style=" stroke:none;fill-rule:nonzero;fill:rgb(0%,0%,0%);fill-opacity:1;" d="M 109.074219 171.445312 C 112.332031 166.660156 117.335938 163.832031 122.652344 163.777344 C 127.503906 163.9375 132.128906 166.160156 135.613281 170.007812 C 136.355469 169.085938 137.066406 168.140625 137.753906 167.167969 C 133.632812 162.699219 128.183594 160.160156 122.492188 160.050781 C 116.332031 160.113281 110.519531 163.304688 106.644531 168.753906 C 107.410156 169.699219 108.222656 170.597656 109.074219 171.445312 Z M 109.074219 171.445312 "/>
    <path style=" stroke:none;fill-rule:nonzero;fill:rgb(0%,0%,0%);fill-opacity:1;" d="M 121.808594 183.207031 C 116.410156 182.667969 111.328125 180.070312 107.390625 175.832031 C 102.375 171.003906 98.84375 164.480469 97.3125 157.210938 C 97.089844 155.902344 97.398438 154.546875 98.15625 153.527344 C 99.054688 152.289062 100.40625 151.59375 101.816406 151.644531 L 141.804688 151.644531 C 143.210938 151.613281 144.558594 152.304688 145.464844 153.527344 C 146.214844 154.550781 146.511719 155.90625 146.277344 157.210938 C 144.746094 164.480469 141.214844 171.003906 136.199219 175.832031 C 132.269531 180.0625 127.199219 182.660156 121.8125 183.207031 Z M 101.816406 155.921875 C 101.296875 155.921875 101.167969 156.179688 101.136719 156.253906 C 102.507812 162.558594 105.605469 168.199219 109.984375 172.367188 C 113.183594 175.953125 117.347656 178.226562 121.8125 178.820312 C 126.261719 178.234375 130.421875 175.992188 133.640625 172.441406 C 138.003906 168.269531 141.089844 162.625 142.453125 156.328125 C 142.308594 156.085938 142.058594 155.960938 141.804688 155.996094 Z M 101.816406 155.921875 "/>
    <path style=" stroke:none;fill-rule:nonzero;fill:rgb(99.607843%,73.333333%,81.568627%);fill-opacity:1;" d="M 189.796875 146.300781 C 189.796875 139.292969 181.308594 133.617188 170.839844 133.617188 C 160.371094 133.617188 151.882812 139.292969 151.882812 146.300781 C 151.882812 153.304688 160.371094 158.980469 170.839844 158.980469 C 181.308594 158.980469 189.796875 153.304688 189.796875 146.300781 Z M 189.796875 146.300781 "/>
    <path style=" stroke:none;fill-rule:nonzero;fill:rgb(99.607843%,73.333333%,81.568627%);fill-opacity:1;" d="M 91.707031 146.300781 C 91.707031 139.292969 83.21875 133.617188 72.75 133.617188 C 62.28125 133.617188 53.792969 139.292969 53.792969 146.300781 C 53.792969 153.304688 62.28125 158.980469 72.75 158.980469 C 83.21875 158.980469 91.707031 153.304688 91.707031 146.300781 Z M 91.707031 146.300781 "/>
    <path style=" stroke:none;fill-rule:nonzero;fill:rgb(0%,0%,0%);fill-opacity:1;" d="M 81.660156 141.210938 C 91.527344 141.230469 99.535156 132.144531 99.546875 120.917969 C 99.558594 109.695312 91.570312 100.585938 81.703125 100.578125 C 71.835938 100.574219 63.835938 109.671875 63.839844 120.894531 C 63.839844 132.101562 71.8125 141.191406 81.660156 141.210938 Z M 161.929688 141.210938 C 169.160156 141.269531 175.710938 136.355469 178.515625 128.769531 C 181.320312 121.183594 179.824219 112.421875 174.726562 106.582031 C 169.628906 100.742188 161.941406 98.976562 155.253906 102.113281 C 148.566406 105.25 144.203125 112.667969 144.203125 120.898438 C 144.183594 132.066406 152.109375 141.152344 161.929688 141.210938 Z M 161.929688 141.210938 "/>
    <path style=" stroke:none;fill-rule:nonzero;fill:rgb(100%,100%,100%);fill-opacity:1;" d="M 76.152344 122.1875 C 79.855469 122.207031 82.875 118.804688 82.890625 114.589844 C 82.910156 110.375 79.921875 106.941406 76.214844 106.921875 C 72.511719 106.902344 69.492188 110.300781 69.476562 114.515625 C 69.457031 118.730469 72.445312 122.164062 76.152344 122.1875 Z M 156.417969 122.1875 C 160.117188 122.164062 163.101562 118.742188 163.09375 114.535156 C 163.085938 110.328125 160.085938 106.921875 156.386719 106.921875 C 152.6875 106.921875 149.6875 110.328125 149.679688 114.535156 C 149.667969 118.742188 152.65625 122.164062 156.355469 122.1875 Z M 156.417969 122.1875 "/>
    </svg>