<svg xmlns="http://www.w3.org/2000/svg" viewBox="0 0 80 80"><rect width="100%" height="100%" fill="#FBF0DF"/><path d="m66.76 26.18-.43-.44c-.15-.13-.28-.29-.43-.43-.15-.13-.28-.29-.43-.43-.15-.13-.28-.29-.43-.43-.15-.13-.28-.29-.43-.43-.15-.13-.28-.29-.43-.43l-.43-.43c4.27 4.2 6.71 9.9 6.8 15.9 0 14.25-14.47 25.86-32.27 25.86-9.97 0-18.89-3.64-24.82-9.35l.43.43.43.43.43.43.43.43.43.43.44.43.43.43c5.92 5.95 15.03 9.78 25.24 9.78 17.8 0 32.28-11.6 32.28-25.82 0-6.08-2.62-11.84-7.24-16.36Z"/><path fill="#FBF0DF" d="M68.4 39.05c0 13.1-13.48 23.7-30.12 23.7S8.15 52.16 8.15 39.06c0-8.11 5.17-15.29 13.1-19.54 7.94-4.25 12.88-8.6 17.03-8.6s7.7 3.55 17.02 8.6c7.94 4.25 13.1 11.42 13.1 19.54Z"/><path fill="#F6DECE" d="M68.4 39.05c0-1.68-.23-3.35-.68-4.97-2.35 28.66-37.32 30.04-51.06 21.46a34.43 34.43 0 0 0 21.62 7.22c16.61 0 30.12-10.63 30.12-23.7Z"/><path fill="#FFFEFC" d="M26.68 17.94c3.85-2.3 8.96-6.64 14-6.65a8 8 0 0 0-2.4-.38c-2.08 0-4.3 1.07-7.1 2.69-.98.57-1.98 1.2-3.05 1.85-2 1.24-4.3 2.64-6.89 4.05-8.19 4.43-13.09 11.74-13.09 19.55v1.03c5.22-18.43 14.7-19.84 18.53-22.14Z"/><path fill="#CCBEA7" fill-rule="evenodd" d="M35.8 13.08a14.12 14.12 0 0 1-4.85 10.74c-.24.21-.05.62.26.5 2.9-1.12 6.82-4.5 5.17-11.3-.07-.4-.58-.29-.58.06Zm1.95 0a13.98 13.98 0 0 1 1.39 11.6c-.1.3.27.56.47.3 1.89-2.4 3.53-7.19-1.4-12.35-.24-.23-.63.12-.46.42v.03Zm2.38-.14a14.13 14.13 0 0 1 5.9 10.12.28.28 0 0 0 .55.1c.8-3.01.35-8.13-6.17-10.8-.34-.13-.56.34-.28.54v.04Zm-15.9 8.95a14.58 14.58 0 0 0 9.02-7.75c.16-.3.65-.19.57.16-1.49 6.88-6.47 8.32-9.57 8.13-.33 0-.32-.45-.01-.54Z" clip-rule="evenodd"/><path d="M38.28 64.92C20.48 64.92 6 53.32 6 39.05c0-8.6 5.32-16.64 14.23-21.45 2.58-1.38 4.8-2.76 6.76-3.97 1.09-.68 2.11-1.3 3.1-1.89 3.02-1.79 5.6-2.99 8.19-2.99 2.58 0 4.84 1.04 7.66 2.7.86.5 1.72 1.03 2.64 1.62 2.14 1.32 4.56 2.82 7.75 4.53 8.9 4.81 14.23 12.84 14.23 21.45 0 14.26-14.48 25.87-32.28 25.87Zm0-54.01c-2.08 0-4.3 1.07-7.1 2.69-.98.57-1.98 1.2-3.05 1.85-2 1.24-4.3 2.64-6.89 4.05-8.19 4.43-13.09 11.74-13.09 19.55 0 13.08 13.52 23.72 30.13 23.72S68.4 52.13 68.4 39.05c0-7.81-4.9-15.12-13.1-19.54-3.25-1.72-5.79-3.34-7.85-4.61l-2.58-1.58c-2.6-1.55-4.5-2.41-6.6-2.41Z"/><path fill="#B71422" d="M44.35 45.34a7.69 7.69 0 0 1-2.52 4.05 5.86 5.86 0 0 1-3.44 1.62 5.89 5.89 0 0 1-3.55-1.62 7.69 7.69 0 0 1-2.48-4.05.62.62 0 0 1 .69-.7h10.62a.62.62 0 0 1 .68.7Z"/><path fill="#FF6164" d="M34.84 49.46c.96.93 2.2 1.5 3.54 1.63a5.95 5.95 0 0 0 3.54-1.63c.3-.29.6-.6.86-.92a5.88 5.88 0 0 0-4.22-2 5.3 5.3 0 0 0-4.3 2.4c.2.18.37.35.58.52Z"/><path d="M34.97 48.78a4.61 4.61 0 0 1 3.61-1.8c1.29.05 2.52.57 3.44 1.46.2-.21.39-.44.57-.66a6.02 6.02 0 0 0-4.05-1.66 5.47 5.47 0 0 0-4.21 2.03c.2.22.42.43.64.63Z"/><path d="M38.36 51.52a6.39 6.39 0 0 1-3.83-1.72 8.2 8.2 0 0 1-2.68-4.34 1.03 1.03 0 0 1 .22-.86 1.21 1.21 0 0 1 .98-.44h10.62a1.24 1.24 0 0 1 .97.44 1.02 1.02 0 0 1 .21.86 8.2 8.2 0 0 1-2.67 4.34 6.39 6.39 0 0 1-3.82 1.72Zm-5.31-6.37c-.14 0-.18.07-.19.08A7.14 7.14 0 0 0 35.21 49a5.36 5.36 0 0 0 3.15 1.51 5.4 5.4 0 0 0 3.14-1.49 7.14 7.14 0 0 0 2.34-3.76.18.18 0 0 0-.17-.08l-10.63-.02Z"/><path fill="#FEBBD0" d="M51.38 45.87c2.78 0 5.03-1.33 5.03-2.96 0-1.64-2.25-2.96-5.03-2.96-2.78 0-5.04 1.32-5.04 2.96 0 1.63 2.26 2.96 5.04 2.96ZM25.32 45.87c2.79 0 5.04-1.33 5.04-2.96 0-1.64-2.25-2.96-5.04-2.96-2.78 0-5.03 1.32-5.03 2.96 0 1.63 2.25 2.96 5.03 2.96Z"/><path fill-rule="evenodd" d="M27.7 41.72a4.74 4.74 0 1 0 0-9.49 4.74 4.74 0 0 0 0 9.49Zm21.31 0a4.74 4.74 0 1 0 .07-9.49 4.74 4.74 0 0 0-.07 9.49Z" clip-rule="evenodd"/><path fill="#fff" fill-rule="evenodd" d="M26.23 37.28a1.78 1.78 0 1 0 .01-3.56 1.78 1.78 0 0 0-.01 3.56Zm21.32 0a1.78 1.78 0 1 0-.02 0h.02Z" clip-rule="evenodd"/></svg>