<svg viewBox="0 0 80 80" xmlns="http://www.w3.org/2000/svg">
<rect width="100%" height="100%" fill="#FBF0DF"/>
<path d="M66.761 26.175C66.6233 26.0287 66.477 25.8823 66.3306 25.7446C66.1843 25.6069 66.0465 25.452 65.9003 25.3142C65.7539 25.1765 65.6162 25.0216 65.4698 24.8839C65.3235 24.7462 65.1858 24.5912 65.0395 24.4535C64.8932 24.3158 64.7554 24.1608 64.6091 24.0231C64.4627 23.8854 64.325 23.7305 64.1788 23.5927C64.0324 23.455 63.8947 23.3001 63.7483 23.1624C68.0179 27.3583 70.4637 33.0664 70.557 39.052C70.557 53.3147 56.0789 64.9177 38.2785 64.9177C28.311 64.9177 19.3935 61.2767 13.4629 55.5699L13.8933 56.0002L14.3236 56.4306L14.754 56.861L15.1844 57.2914L15.6148 57.7217L16.0452 58.1522L16.4755 58.5825C22.3975 64.5304 31.513 68.3607 41.7215 68.3607C59.522 68.3607 74 56.7578 74 42.538C74 36.4611 71.3832 30.7026 66.761 26.175Z" fill="black"/>
<path d="M68.4049 39.0519C68.4049 52.144 54.9168 62.7572 38.2784 62.7572C21.6399 62.7572 8.15186 52.144 8.15186 39.0519C8.15186 30.935 13.3164 23.7649 21.2526 19.5127C29.1888 15.2606 34.1295 10.9052 38.2784 10.9052C42.4272 10.9052 45.9735 14.4601 55.3042 19.5127C63.2403 23.7649 68.4049 30.935 68.4049 39.0519Z" fill="#FBF0DF"/>
<path d="M68.4047 39.0519C68.4006 37.37 68.1689 35.6964 67.7161 34.0767C65.3662 62.7399 30.4023 64.1171 16.656 55.544C22.8354 60.3335 30.4609 62.8774 38.2783 62.7571C54.8909 62.7571 68.4047 52.1268 68.4047 39.0519Z" fill="#F6DECE"/>
<path d="M26.684 17.9376C30.5316 15.6307 35.6444 11.3011 40.6713 11.2925C39.898 11.0425 39.0911 10.9119 38.2784 10.9052C36.1954 10.9052 33.9746 11.9811 31.1772 13.5993C30.2045 14.1674 29.1973 14.7958 28.13 15.45C26.1244 16.6894 23.8263 18.0924 21.244 19.4955C13.0496 23.9284 8.15186 31.2362 8.15186 39.0519C8.15186 39.3962 8.15186 39.7405 8.15186 40.0762C13.368 21.6474 22.845 20.2444 26.684 17.9376Z" fill="#FFFEFC"/>
<path fill-rule="evenodd" clip-rule="evenodd" d="M35.7994 13.0829C35.8115 15.1153 35.3848 17.1264 34.5484 18.9788C33.712 20.8313 32.4858 22.4814 30.9534 23.8165C30.7123 24.0317 30.9017 24.4449 31.2116 24.3244C34.1123 23.1968 38.0288 19.8226 36.3761 13.0141C36.3073 12.6267 35.7994 12.73 35.7994 13.0829ZM37.7534 13.0829C38.8065 14.8014 39.4757 16.7272 39.7149 18.7284C39.9541 20.7298 39.7577 22.759 39.1391 24.6773C39.0358 24.9786 39.406 25.2368 39.6126 24.9871C41.4976 22.5771 43.1417 17.7912 38.2181 12.6267C37.9685 12.4029 37.5812 12.7472 37.7534 13.0485V13.0829ZM40.129 12.9366C41.7784 14.1043 43.1581 15.612 44.1753 17.3581C45.1924 19.1044 45.8232 21.0484 46.0252 23.0591C46.0165 23.1315 46.036 23.2046 46.0797 23.263C46.1234 23.3215 46.1879 23.3609 46.2598 23.3731C46.3318 23.3852 46.4057 23.3693 46.4662 23.3285C46.5266 23.2876 46.5691 23.2251 46.5847 23.1538C47.3766 20.1497 46.929 15.0282 40.4131 12.3685C40.0688 12.2307 39.845 12.6956 40.129 12.9021V12.9366ZM24.2394 21.8885C26.2014 21.3023 28.0178 20.3096 29.5705 18.9748C31.1233 17.6401 32.3776 15.9933 33.2516 14.1416C33.4065 13.8318 33.8972 13.9523 33.8197 14.2965C32.3305 21.1826 27.3468 22.6201 24.2481 22.4307C23.9209 22.4394 23.9296 21.9832 24.2394 21.8885Z" fill="#CCBEA7"/>
<path d="M38.2784 64.9177C20.4779 64.9177 6 53.3147 6 39.052C6 30.4444 11.3195 22.4135 20.2283 17.6019C22.8106 16.2247 25.0227 14.8389 26.9938 13.6251C28.0784 12.9538 29.1027 12.3254 30.0926 11.7401C33.1138 9.94974 35.6961 8.7533 38.2784 8.7533C40.8607 8.7533 43.1158 9.78621 45.9391 11.4561C46.7999 11.9467 47.6607 12.4804 48.5817 13.0657C50.7249 14.3912 53.1437 15.8889 56.3285 17.6019C65.2373 22.4135 70.5568 30.4358 70.5568 39.052C70.5568 53.3147 56.0789 64.9177 38.2784 64.9177ZM38.2784 10.9052C36.1954 10.9052 33.9746 11.9811 31.1772 13.5994C30.2045 14.1674 29.1974 14.7958 28.13 15.45C26.1245 16.6895 23.8263 18.0925 21.244 19.4956C13.0496 23.9285 8.1519 31.2363 8.1519 39.052C8.1519 52.1268 21.6658 62.7658 38.2784 62.7658C54.891 62.7658 68.4049 52.1268 68.4049 39.052C68.4049 31.2363 63.5072 23.9285 55.3042 19.5127C52.0505 17.7912 49.5113 16.173 47.4541 14.8991C46.5158 14.3224 45.6551 13.7888 44.8718 13.3153C42.2637 11.7659 40.3614 10.9052 38.2784 10.9052Z" fill="black"/>
<path d="M44.3468 45.3354C43.9602 46.9192 43.08 48.339 41.8335 49.3897C40.8976 50.2969 39.686 50.8662 38.3904 51.0079C37.0558 50.8887 35.8018 50.3179 34.8354 49.3897C33.6017 48.334 32.7339 46.9148 32.3565 45.3354C32.344 45.2417 32.3531 45.1463 32.3832 45.0566C32.4132 44.967 32.4634 44.8854 32.5298 44.8181C32.5963 44.7507 32.6773 44.6996 32.7666 44.6684C32.856 44.6373 32.9512 44.6269 33.0451 44.6383H43.6668C43.7601 44.6283 43.8544 44.6397 43.9426 44.6715C44.0308 44.7033 44.1106 44.7547 44.1761 44.8218C44.2415 44.8889 44.2909 44.97 44.3205 45.059C44.3501 45.148 44.3591 45.2425 44.3468 45.3354Z" fill="#B71422"/>
<path d="M34.8355 49.4584C35.7998 50.3872 37.0493 50.9634 38.3818 51.0938C39.7113 50.9615 40.9575 50.3855 41.9195 49.4584C42.2273 49.1716 42.5148 48.8639 42.7803 48.5374C42.25 47.9358 41.6023 47.4491 40.877 47.1072C40.1517 46.7652 39.364 46.5753 38.5626 46.5491C37.705 46.5694 36.8652 46.7978 36.1154 47.2146C35.3657 47.6315 34.7286 48.2242 34.2588 48.942C34.4568 49.1227 34.6289 49.2949 34.8355 49.4584Z" fill="#FF6164"/>
<path d="M34.973 48.7785C35.3997 48.2269 35.946 47.7792 36.5706 47.4691C37.1953 47.159 37.8822 46.9945 38.5795 46.9882C39.8685 47.0261 41.0968 47.5451 42.0225 48.4428C42.2206 48.2276 42.4099 48.0038 42.5906 47.78C41.4956 46.7371 40.0485 46.1441 38.5365 46.1188C37.7285 46.1257 36.932 46.3115 36.2043 46.6627C35.4765 47.0139 34.8355 47.5219 34.3274 48.1501C34.5309 48.3713 34.7464 48.581 34.973 48.7785Z" fill="black"/>
<path d="M38.3559 51.5244C36.9216 51.3986 35.5718 50.792 34.5255 49.8029C33.1932 48.6759 32.2553 47.153 31.8486 45.456C31.8194 45.3049 31.8243 45.1492 31.8631 45.0003C31.9019 44.8514 31.9733 44.713 32.0724 44.5953C32.1903 44.4528 32.3393 44.3392 32.5079 44.2631C32.6765 44.187 32.8601 44.1505 33.045 44.1562H43.6668C43.8514 44.1524 44.0345 44.1898 44.2028 44.2657C44.3711 44.3417 44.5202 44.4542 44.6394 44.5953C44.7375 44.7134 44.8078 44.8521 44.845 45.0011C44.8823 45.1501 44.8856 45.3056 44.8546 45.456C44.4479 47.153 43.5101 48.6759 42.1776 49.8029C41.1337 50.7903 39.7872 51.3968 38.3559 51.5244ZM33.045 45.1547C32.9073 45.1547 32.8729 45.215 32.8643 45.2322C33.2281 46.7038 34.0512 48.0213 35.2141 48.9937C36.0645 49.8315 37.1701 50.3616 38.3559 50.5C39.5386 50.3632 40.643 49.8397 41.4977 49.0109C42.657 48.0369 43.4769 46.7197 43.839 45.2494C43.8202 45.2219 43.7942 45.2001 43.7637 45.1864C43.7334 45.1727 43.6998 45.1677 43.6668 45.172L33.045 45.1547Z" fill="black"/>
<path d="M51.3791 45.869C54.1602 45.869 56.4146 44.5434 56.4146 42.9081C56.4146 41.2728 54.1602 39.947 51.3791 39.947C48.5982 39.947 46.3438 41.2728 46.3438 42.9081C46.3438 44.5434 48.5982 45.869 51.3791 45.869Z" fill="#FEBBD0"/>
<path d="M25.3243 45.869C28.1052 45.869 30.3597 44.5434 30.3597 42.9081C30.3597 41.2728 28.1052 39.947 25.3243 39.947C22.5433 39.947 20.2888 41.2728 20.2888 42.9081C20.2888 44.5434 22.5433 45.869 25.3243 45.869Z" fill="#FEBBD0"/>
<path fill-rule="evenodd" clip-rule="evenodd" d="M27.6914 41.7202C28.6298 41.7219 29.5477 41.4452 30.3287 40.9251C31.1098 40.405 31.719 39.6648 32.0793 38.7983C32.4396 37.9319 32.5347 36.9779 32.3527 36.0574C32.1707 35.1368 31.7197 34.2909 31.0567 33.6268C30.3937 32.9626 29.5487 32.5101 28.6285 32.3264C27.7083 32.1426 26.7541 32.2361 25.887 32.5948C25.0199 32.9535 24.2787 33.5615 23.7571 34.3416C23.2356 35.1217 22.9573 36.039 22.9573 36.9773C22.9573 38.2337 23.4557 39.4388 24.3434 40.328C25.2309 41.2172 26.435 41.7179 27.6914 41.7202ZM49.0123 41.7202C49.9519 41.727 50.8721 41.4546 51.6566 40.9377C52.4411 40.4207 53.0543 39.6824 53.4186 38.8163C53.7829 37.9503 53.8817 36.9957 53.7026 36.0734C53.5235 35.1511 53.0746 34.3028 52.4127 33.6361C51.7508 32.9694 50.9057 32.5143 49.9848 32.3285C49.0639 32.1426 48.1085 32.2345 47.2398 32.5925C46.3712 32.9504 45.6285 33.5582 45.1058 34.3389C44.5831 35.1196 44.304 36.0379 44.304 36.9773C44.3017 38.23 44.7959 39.4325 45.6785 40.3214C46.561 41.2103 47.7598 41.7134 49.0123 41.7202Z" fill="black"/>
<path fill-rule="evenodd" clip-rule="evenodd" d="M26.2278 37.2788C26.5805 37.2805 26.9259 37.1774 27.22 36.9826C27.5142 36.7879 27.7438 36.5102 27.88 36.1848C28.0162 35.8594 28.0527 35.5009 27.9849 35.1547C27.9171 34.8085 27.7482 34.4902 27.4993 34.2402C27.2505 33.9901 26.933 33.8195 26.5872 33.7501C26.2413 33.6806 25.8826 33.7154 25.5565 33.85C25.2305 33.9846 24.9517 34.213 24.7555 34.5062C24.5593 34.7994 24.4546 35.1442 24.4546 35.497C24.4546 35.9681 24.6411 36.4199 24.9734 36.7538C25.3057 37.0878 25.7567 37.2765 26.2278 37.2788ZM47.5487 37.2788C47.9014 37.2805 48.2468 37.1774 48.5409 36.9826C48.8351 36.7879 49.0648 36.5102 49.201 36.1848C49.3372 35.8594 49.3736 35.5009 49.3059 35.1547C49.2382 34.8085 49.0691 34.4902 48.8203 34.2402C48.5714 33.9901 48.2539 33.8195 47.9081 33.7501C47.5622 33.6806 47.2035 33.7154 46.8775 33.85C46.5514 33.9846 46.2726 34.213 46.0764 34.5062C45.8802 34.7994 45.7755 35.1442 45.7755 35.497C45.7755 35.9651 45.9597 36.4144 46.2882 36.7479C46.6168 37.0812 47.0634 37.272 47.5315 37.2788H47.5487Z" fill="white"/>
</svg>
