<svg viewBox="0 0 80 80" fill="none" xmlns="http://www.w3.org/2000/svg">
<path d="M80 0H0V80H80V0Z" fill="white"/>
<path d="M71.4835 25.4962C71.3215 25.3241 71.1494 25.1519 70.9772 24.9899C70.8051 24.8279 70.643 24.6456 70.4709 24.4835C70.2987 24.3215 70.1367 24.1392 69.9645 23.9772C69.7924 23.8152 69.6304 23.6329 69.4582 23.4709C69.2861 23.3089 69.124 23.1266 68.9519 22.9646C68.7797 22.8025 68.6177 22.6203 68.4456 22.4582C68.2734 22.2962 68.1114 22.1139 67.9392 21.9519C72.9622 26.8883 75.8397 33.6038 75.9494 40.6456C75.9494 57.4253 58.9164 71.076 37.9747 71.076C26.2481 71.076 15.757 66.7924 8.77974 60.0785L9.28607 60.5848L9.7924 61.0911L10.2987 61.5975L10.8051 62.1038L11.3114 62.6101L11.8177 63.1165L12.324 63.6228C19.2911 70.6203 30.0152 75.1266 42.0253 75.1266C62.9671 75.1266 80 61.476 80 44.7468C80 37.5975 76.9215 30.8228 71.4835 25.4962Z" fill="black"/>
<path d="M73.4177 40.6456C73.4177 56.0481 57.5494 68.5342 37.9747 68.5342C18.4 68.5342 2.53165 56.0481 2.53165 40.6456C2.53165 31.0962 8.6076 22.6608 17.9443 17.6582C27.281 12.6557 33.0937 7.53165 37.9747 7.53165C42.8557 7.53165 47.0278 11.7139 58.0051 17.6582C67.3418 22.6608 73.4177 31.0962 73.4177 40.6456Z" fill="#FBF0DF"/>
<path d="M73.4177 40.6456C73.4128 38.6669 73.1403 36.698 72.6076 34.7924C69.843 68.5139 28.7089 70.1342 12.5367 60.0481C19.8066 65.6829 28.7778 68.6757 37.9747 68.5342C57.519 68.5342 73.4177 56.0279 73.4177 40.6456Z" fill="#F6DECE"/>
<path d="M24.3342 15.8051C28.8608 13.0911 34.8759 7.99747 40.7899 7.98734C39.8801 7.69327 38.9308 7.5396 37.9747 7.53165C35.5241 7.53165 32.9114 8.79747 29.6203 10.7013C28.476 11.3696 27.2911 12.1089 26.0354 12.8785C23.6759 14.3367 20.9722 15.9873 17.9342 17.638C8.29367 22.8532 2.53165 31.4506 2.53165 40.6456C2.53165 41.0506 2.53165 41.4557 2.53165 41.8506C8.66836 20.1696 19.8177 18.519 24.3342 15.8051Z" fill="#FFFEFC"/>
<path fill-rule="evenodd" clip-rule="evenodd" d="M35.0582 10.0937C35.0724 12.4848 34.5704 14.8508 33.5864 17.0301C32.6025 19.2095 31.1598 21.1508 29.357 22.7215C29.0734 22.9747 29.2962 23.4608 29.6608 23.319C33.0734 21.9924 37.681 18.0228 35.7367 10.0127C35.6557 9.55697 35.0582 9.67849 35.0582 10.0937ZM37.357 10.0937C38.596 12.1154 39.3833 14.3811 39.6647 16.7355C39.9461 19.09 39.715 21.4774 38.9873 23.7342C38.8658 24.0886 39.3013 24.3924 39.5443 24.0987C41.762 21.2633 43.6962 15.6329 37.9038 9.55697C37.6101 9.29368 37.1544 9.69874 37.357 10.0532V10.0937ZM40.1519 9.92153C42.0923 11.2953 43.7155 13.0691 44.9122 15.1234C46.1088 17.1778 46.8509 19.4649 47.0886 21.8304C47.0784 21.9156 47.1013 22.0016 47.1527 22.0703C47.2041 22.1391 47.28 22.1855 47.3646 22.1998C47.4493 22.2141 47.5362 22.1953 47.6074 22.1473C47.6785 22.0992 47.7285 22.0257 47.7468 21.9418C48.6785 18.4076 48.1519 12.3823 40.4861 9.25317C40.081 9.09115 39.8177 9.63798 40.1519 9.88102V9.92153ZM21.4582 20.4532C23.7664 19.7636 25.9034 18.5957 27.7301 17.0254C29.5569 15.4551 31.0325 13.5177 32.0608 11.3392C32.243 10.9747 32.8203 11.1165 32.7291 11.5215C30.9772 19.6228 25.1139 21.3139 21.4684 21.0911C21.0835 21.1013 21.0937 20.5646 21.4582 20.4532Z" fill="#CCBEA7"/>
<path d="M37.9747 71.0759C17.0329 71.0759 0 57.4253 0 40.6456C0 30.519 6.25823 21.0709 16.7392 15.4101C19.7772 13.7899 22.3797 12.1595 24.6987 10.7316C25.9747 9.94177 27.1797 9.20253 28.3443 8.51392C31.8987 6.40759 34.9367 5 37.9747 5C41.0127 5 43.6658 6.21519 46.9873 8.17975C48 8.75696 49.0127 9.38481 50.0962 10.0734C52.6177 11.6329 55.4633 13.3949 59.2101 15.4101C69.6911 21.0709 75.9494 30.5089 75.9494 40.6456C75.9494 57.4253 58.9165 71.0759 37.9747 71.0759ZM37.9747 7.53165C35.5241 7.53165 32.9114 8.79747 29.6203 10.7013C28.4759 11.3696 27.2911 12.1089 26.0354 12.8785C23.6759 14.3367 20.9722 15.9873 17.9342 17.638C8.29367 22.8532 2.53165 31.4506 2.53165 40.6456C2.53165 56.0278 18.4304 68.5443 37.9747 68.5443C57.519 68.5443 73.4177 56.0278 73.4177 40.6456C73.4177 31.4506 67.6557 22.8532 58.0051 17.6582C54.1772 15.6329 51.1899 13.7291 48.7696 12.2304C47.6658 11.5519 46.6532 10.9241 45.7316 10.3671C42.6633 8.5443 40.4253 7.53165 37.9747 7.53165Z" fill="black"/>
<path d="M45.1139 48.0379C44.659 49.9012 43.6235 51.5715 42.157 52.8076C41.056 53.8749 39.6306 54.5447 38.1063 54.7114C36.5362 54.5712 35.0609 53.8996 33.924 52.8076C32.4725 51.5656 31.4516 49.896 31.0076 48.0379C30.9929 47.9276 31.0036 47.8154 31.039 47.7099C31.0743 47.6044 31.1334 47.5084 31.2115 47.4292C31.2897 47.35 31.385 47.2898 31.4901 47.2531C31.5952 47.2165 31.7072 47.2043 31.8177 47.2177H44.3139C44.4236 47.206 44.5345 47.2194 44.6383 47.2568C44.7421 47.2942 44.836 47.3547 44.913 47.4336C44.99 47.5126 45.0481 47.608 45.0829 47.7127C45.1177 47.8174 45.1283 47.9286 45.1139 48.0379Z" fill="#B71422"/>
<path d="M33.9241 52.8886C35.0586 53.9812 36.5286 54.6591 38.0962 54.8126C39.6603 54.6569 41.1264 53.9792 42.2582 52.8886C42.6203 52.5511 42.9586 52.1891 43.2709 51.805C42.6471 51.0973 41.885 50.5247 41.0317 50.1224C40.1784 49.7201 39.2518 49.4967 38.3089 49.4658C37.3 49.4897 36.312 49.7584 35.4299 50.2488C34.5479 50.7392 33.7983 51.4366 33.2456 52.281C33.4785 52.4936 33.681 52.6962 33.9241 52.8886Z" fill="#FF6164"/>
<path d="M34.0861 52.0886C34.5881 51.4396 35.2308 50.9129 35.9657 50.5481C36.7006 50.1833 37.5087 49.9898 38.3291 49.9823C39.8456 50.027 41.2906 50.6375 42.3797 51.6937C42.6127 51.4405 42.8354 51.1772 43.0481 50.9139C41.7598 49.687 40.0573 48.9893 38.2785 48.9595C37.3279 48.9677 36.3908 49.1862 35.5347 49.5994C34.6785 50.0126 33.9244 50.6102 33.3266 51.3493C33.566 51.6095 33.8196 51.8563 34.0861 52.0886Z" fill="black"/>
<path d="M38.0658 55.319C36.3784 55.1711 34.7904 54.4574 33.5595 53.2937C31.992 51.9679 30.8886 50.1762 30.4101 48.1797C30.3758 48.002 30.3816 47.8188 30.4272 47.6436C30.4728 47.4684 30.5569 47.3056 30.6734 47.1671C30.8122 46.9995 30.9874 46.8659 31.1858 46.7763C31.3841 46.6868 31.6002 46.6438 31.8177 46.6506H44.3139C44.5311 46.6461 44.7465 46.6901 44.9445 46.7794C45.1425 46.8688 45.318 47.0012 45.4582 47.1671C45.5736 47.3061 45.6563 47.4693 45.7001 47.6446C45.744 47.8199 45.7478 48.0028 45.7114 48.1797C45.2329 50.1762 44.1296 51.9679 42.562 53.2937C41.3338 54.4554 39.7497 55.1689 38.0658 55.319ZM31.8177 47.8253C31.6557 47.8253 31.6152 47.8962 31.6051 47.9165C32.0331 49.6478 33.0014 51.1978 34.3696 52.3418C35.3701 53.3274 36.6708 53.9511 38.0658 54.1139C39.4572 53.9529 40.7565 53.3371 41.762 52.362C43.1259 51.2161 44.0905 49.6664 44.5165 47.9367C44.4944 47.9043 44.4638 47.8787 44.428 47.8626C44.3923 47.8465 44.3528 47.8406 44.3139 47.8456L31.8177 47.8253Z" fill="black"/>
<path d="M53.3873 48.6658C56.6591 48.6658 59.3114 47.1062 59.3114 45.1823C59.3114 43.2584 56.6591 41.6987 53.3873 41.6987C50.1156 41.6987 47.4633 43.2584 47.4633 45.1823C47.4633 47.1062 50.1156 48.6658 53.3873 48.6658Z" fill="#FEBBD0"/>
<path d="M22.7342 48.6658C26.0059 48.6658 28.6582 47.1062 28.6582 45.1823C28.6582 43.2584 26.0059 41.6987 22.7342 41.6987C19.4624 41.6987 16.8101 43.2584 16.8101 45.1823C16.8101 47.1062 19.4624 48.6658 22.7342 48.6658Z" fill="#FEBBD0"/>
<path fill-rule="evenodd" clip-rule="evenodd" d="M25.519 43.7848C26.623 43.7868 27.7028 43.4613 28.6217 42.8494C29.5406 42.2375 30.2573 41.3667 30.6812 40.3473C31.1051 39.328 31.217 38.2057 31.0029 37.1227C30.7887 36.0397 30.2581 35.0445 29.4782 34.2632C28.6982 33.4818 27.704 32.9494 26.6214 32.7333C25.5388 32.5171 24.4163 32.6271 23.3962 33.0491C22.376 33.4711 21.504 34.1863 20.8904 35.1041C20.2769 36.0219 19.9494 37.101 19.9494 38.205C19.9494 39.6831 20.5358 41.1008 21.5801 42.1469C22.6243 43.1931 24.0409 43.7821 25.519 43.7848ZM50.6025 43.7848C51.7078 43.7928 52.7905 43.4724 53.7134 42.8642C54.6363 42.256 55.3578 41.3874 55.7863 40.3685C56.2149 39.3497 56.3312 38.2266 56.1205 37.1415C55.9098 36.0565 55.3816 35.0585 54.6029 34.2741C53.8242 33.4897 52.83 32.9543 51.7466 32.7357C50.6631 32.5171 49.5392 32.6252 48.5172 33.0463C47.4953 33.4674 46.6215 34.1825 46.0065 35.1009C45.3916 36.0194 45.0633 37.0998 45.0633 38.205C45.0606 39.6787 45.642 41.0934 46.6803 42.1392C47.7185 43.185 49.1289 43.7768 50.6025 43.7848Z" fill="black"/>
<path fill-rule="evenodd" clip-rule="evenodd" d="M23.7975 38.5595C24.2125 38.5615 24.6188 38.4402 24.9648 38.2111C25.3109 37.982 25.5811 37.6553 25.7413 37.2725C25.9015 36.8897 25.9445 36.4679 25.8647 36.0606C25.785 35.6533 25.5862 35.2788 25.2934 34.9847C25.0007 34.6905 24.6272 34.4898 24.2203 34.4081C23.8134 34.3264 23.3914 34.3673 23.0078 34.5257C22.6242 34.684 22.2962 34.9527 22.0654 35.2976C21.8346 35.6426 21.7114 36.0483 21.7114 36.4633C21.7114 37.0175 21.9308 37.5491 22.3218 37.9419C22.7127 38.3348 23.2433 38.5568 23.7975 38.5595ZM48.881 38.5595C49.296 38.5615 49.7023 38.4402 50.0483 38.2111C50.3944 37.982 50.6646 37.6553 50.8249 37.2725C50.9851 36.8897 51.028 36.4679 50.9483 36.0606C50.8686 35.6533 50.6697 35.2788 50.377 34.9847C50.0842 34.6905 49.7107 34.4898 49.3038 34.4081C48.8969 34.3264 48.4749 34.3673 48.0913 34.5257C47.7077 34.684 47.3797 34.9527 47.1489 35.2976C46.9181 35.6426 46.7949 36.0483 46.7949 36.4633C46.7949 37.014 47.0116 37.5426 47.3981 37.9349C47.7847 38.3271 48.3101 38.5515 48.8608 38.5595H48.881Z" fill="white"/>
</svg>
