<svg xmlns="http://www.w3.org/2000/svg" viewBox="0 0 80 80">
  <rect width="100%" height="100%" fill="#FBF0DF"/>
  <path d="m66.8 26.2-.5-.5-.4-.4-.4-.4-.5-.4-.4-.5-.4-.4-.5-.4C68 27.4 70.5 33 70.6 39c0 14.2-14.5 25.8-32.3 25.8-10 0-19-3.6-24.8-9.3l.4.4.4.4.5.5.4.4.4.4.4.5.5.4c5.9 6 15 9.8 25.2 9.8C59.5 68.4 74 56.8 74 42.5c0-6-2.6-11.8-7.2-16.3Z"/>
  <path fill="#FBF0DF" d="M68.4 39c0 13.1-13.5 23.8-30.1 23.8C21.6 62.8 8.2 52 8.2 39c0-8.2 5.1-15.3 13-19.6 8-4.2 13-8.6 17-8.6 4.2 0 7.8 3.6 17.1 8.6 8 4.3 13.1 11.4 13.1 19.6Z"/>
  <path fill="#F6DECE" d="M68.4 39c0-1.6-.2-3.3-.7-5-2.3 28.7-37.3 30.1-51 21.5a34.4 34.4 0 0 0 21.6 7.3C54.9 62.8 68.4 52 68.4 39Z"/>
  <path fill="#FFFEFC" d="M26.7 18c3.8-2.4 9-6.7 14-6.7a8 8 0 0 0-2.4-.4c-2.1 0-4.3 1-7.1 2.7l-3 1.8c-2 1.3-4.4 2.7-7 4.1-8.2 4.4-13 11.7-13 19.6v1c5.2-18.5 14.6-19.9 18.5-22.2Z"/>
  <path fill="#CCBEA7" fill-rule="evenodd" d="M35.8 13A14.1 14.1 0 0 1 31 23.9c-.3.2-.1.6.2.5 3-1.1 6.8-4.5 5.2-11.3 0-.4-.6-.3-.6 0Zm2 0A14 14 0 0 1 39 24.8c0 .3.3.5.5.3 1.9-2.4 3.5-7.2-1.4-12.4-.2-.2-.6.1-.4.4Zm2.3 0a14.1 14.1 0 0 1 6 10.3.3.3 0 0 0 .5-.1c.8-3 .3-8.2-6.2-10.8-.3-.2-.6.3-.3.5Zm-15.9 8.9a14.6 14.6 0 0 0 9-7.8c.2-.3.7-.1.6.2-1.5 6.9-6.5 8.3-9.6 8.1-.3 0-.3-.4 0-.5Z" clip-rule="evenodd"/>
  <path d="M38.3 65C20.5 65 6 53.2 6 39c0-8.6 5.3-16.6 14.2-21.4 2.6-1.4 4.8-2.8 6.8-4l3-1.9c3.1-1.8 5.7-3 8.3-3 2.6 0 4.8 1 7.6 2.8.9.4 1.8 1 2.7 1.6 2.1 1.3 4.5 2.8 7.7 4.5 9 4.8 14.3 12.8 14.3 21.5 0 14.2-14.5 25.8-32.3 25.8Zm0-54c-2.1 0-4.3 1-7.1 2.6l-3 1.8c-2 1.3-4.4 2.7-7 4.1-8.2 4.4-13 11.7-13 19.6 0 13 13.5 23.7 30 23.7C55 62.8 68.5 52 68.5 39c0-7.9-4.9-15.2-13.1-19.6-3.2-1.7-5.8-3.3-7.8-4.6l-2.6-1.6c-2.6-1.5-4.5-2.4-6.6-2.4Z"/>
  <path fill="#B71422" d="M44.3 45.3c-.3 1.6-1.2 3-2.5 4-.9 1-2.1 1.6-3.4 1.7a5.9 5.9 0 0 1-3.6-1.6 7.7 7.7 0 0 1-2.4-4 .6.6 0 0 1 .6-.8h10.7a.6.6 0 0 1 .6.7Z"/>
  <path fill="#FF6164" d="M34.8 49.5a6 6 0 0 0 3.6 1.6 6 6 0 0 0 3.5-1.6l.9-1a5.9 5.9 0 0 0-4.2-2 5.3 5.3 0 0 0-4.3 2.4l.5.6Z"/>
  <path d="M35 48.8a4.6 4.6 0 0 1 3.6-1.8c1.3 0 2.5.5 3.4 1.4l.6-.6a6 6 0 0 0-4-1.7 5.5 5.5 0 0 0-4.3 2l.7.7Z"/>
  <path d="M38.4 51.5a6.4 6.4 0 0 1-3.9-1.7 8.2 8.2 0 0 1-2.7-4.3 1 1 0 0 1 .3-.9 1.2 1.2 0 0 1 1-.4h10.6a1.2 1.2 0 0 1 1 .4 1 1 0 0 1 .2.9 8.2 8.2 0 0 1-2.7 4.3c-1 1-2.4 1.6-3.8 1.7ZM33 45.2H33a7.1 7.1 0 0 0 2.3 3.8c.9.8 2 1.4 3.2 1.5 1.1-.1 2.2-.7 3.1-1.5 1.2-1 2-2.3 2.3-3.8a.2.2 0 0 0-.1 0H33Z"/>
  <path fill="#FEBBD0" d="M51.4 45.9c2.8 0 5-1.4 5-3s-2.2-3-5-3-5 1.4-5 3 2.2 3 5 3ZM25.3 45.9c2.8 0 5-1.4 5-3s-2.2-3-5-3-5 1.4-5 3 2.2 3 5 3Z"/>
  <path fill-rule="evenodd" d="M27.7 41.7a4.7 4.7 0 1 0 0-9.5 4.7 4.7 0 0 0 0 9.5Zm21.3 0a4.7 4.7 0 1 0 0-9.5 4.7 4.7 0 0 0 0 9.5Z" clip-rule="evenodd"/>
  <path fill="#fff" fill-rule="evenodd" d="M26.2 37.3a1.8 1.8 0 1 0 0-3.6 1.8 1.8 0 0 0 0 3.6Zm21.3 0Z" clip-rule="evenodd"/>
</svg>