<svg xmlns="http://www.w3.org/2000/svg" viewBox="0 0 80 80"><defs><style>.b{fill:#fff}.c{fill:#d9ebf6}.d{fill:#aad8f3}</style></defs><path fill="#1290f3" d="M0 0h80v80H0z"/><path class="b" d="M16.06 74.46l27.33-27.33L16.15 19.9 5.64 30.41l16.71 16.72L5.54 63.94l10.52 10.52z"/><path class="c" d="M32.871 57.646l10.515-10.514 16.716 16.716-10.515 10.514z"/><path class="d" d="M43.39 47.13L36.9 61.67l-4.03-4.02 10.52-10.52z"/><path class="b" d="M63.94 5.54L36.61 32.87 63.85 60.1l10.51-10.51-16.71-16.72 16.81-16.81L63.94 5.54z"/><path class="c" d="M19.895 16.152L30.41 5.638l16.716 16.716L36.61 32.868z"/><path class="d" d="M36.61 32.87l6.49-14.54 4.03 4.02-10.52 10.52z"/></svg>