<svg viewBox="0 0 80 80" xmlns="http://www.w3.org/2000/svg">
<rect width="100%" height="100%" fill="#119EFF"/>
<path d="M19.3428 22.6831L10.0728 31.9648L24.3686 46.3034L10 60.7152L19.241 70.0009L33.6385 55.5852L47.9581 69.8979L57.2281 60.6161L19.3428 22.6831Z" fill="white"/>
<path d="M42.9337 46.3037L33.6389 55.5852L47.9585 69.8981L57.2284 60.6164L42.9337 46.3037Z" fill="#E3F4FF"/>
<path d="M42.9337 46.3037L33.6389 55.5852L37.217 59.1434L42.9337 46.3037Z" fill="#B9E3FF"/>
<path d="M55.6024 33.6683L70.0001 19.2526L60.7261 10L46.3327 24.3867L32.0119 10.0729L22.7419 19.3546L60.6274 57.2876L69.8974 48.0059L55.6024 33.6683Z" fill="white"/>
<path d="M37.0377 33.6687L46.3327 24.3871L32.0119 10.0732L22.7419 19.3549L37.0377 33.6687Z" fill="#E3F4FF"/>
<path d="M37.0374 33.6685L46.3323 24.3869L42.7533 20.8278L37.0374 33.6685Z" fill="#B9E3FF"/>
</svg>
