<svg xmlns="http://www.w3.org/2000/svg" viewBox="0 0 80 80">
  <rect width="100%" height="100%" fill="#119EFF"/>
  <path fill="#fff" d="M19.3 22.7 10.1 32l14.3 14.3L10 60.7l9.2 9.3 14.4-14.4L48 69.9l9.2-9.3-37.9-38Z"/>
  <path fill="#E3F4FF" d="m43 46.3-9.4 9.3L48 69.9l9.2-9.3L43 46.3Z"/>
  <path fill="#B9E3FF" d="m43 46.3-9.4 9.3 3.6 3.5L43 46.3Z"/>
  <path fill="#fff" d="M55.6 33.7 70 19.3 60.7 10 46.3 24.4 32 10l-9.3 9.3 38 37.9 9.2-9.3-14.3-14.3Z"/>
  <path fill="#E3F4FF" d="m37 33.7 9.3-9.3L32 10l-9.3 9.3L37 33.7Z"/>
  <path fill="#B9E3FF" d="m37 33.7 9.3-9.3-3.5-3.6L37 33.7Z"/>
</svg>