<svg xmlns="http://www.w3.org/2000/svg" viewBox="0 0 80 80"><path d="M74.16 55.93H15.62c-5.85 0-10.27-2.85-13.4-7.74a.56.56 0 01-.05-.19H62.1a17.49 17.49 0 004.09 4.65 15.46 15.46 0 005.29 2.71c.88.21 1.79.37 2.68.57zM0 40a14.15 14.15 0 012.15-8h59.17a2.4 2.4 0 01.64.16c-.11.26-.23.52-.33.78-.32.79-.65 1.58-.94 2.38a13.63 13.63 0 00-.69 4.62H0z" fill="#a8cb54"/><path d="M0 40h60a15.6 15.6 0 002.07 8H2.17A14.66 14.66 0 010 40zm62-7.88a2.4 2.4 0 00-.64-.16H2.16a14.56 14.56 0 014.64-5.1A15 15 0 0114 24.1c.67-.1 1.4-.1 2.13-.1H74l-1.25.29A15.74 15.74 0 0065.36 28 19.54 19.54 0 0062 32.12z" fill="#b5dd64"/><path d="M62 32.12A19.54 19.54 0 0165.36 28a15.74 15.74 0 017.4-3.73L74 24a10.29 10.29 0 013.4.24 4 4 0 012 5.79 4.06 4.06 0 01-3.58 2 8 8 0 00-1.76 15.75 5.56 5.56 0 001.77.23A4 4 0 0180 52.28a4 4 0 01-3.63 3.66 20 20 0 01-2.19 0c-.89-.2-1.8-.36-2.68-.62a15.46 15.46 0 01-5.29-2.71A17.49 17.49 0 0162.1 48a15.6 15.6 0 01-2.07-8 13.63 13.63 0 01.66-4.66c.29-.8.62-1.59.94-2.38.1-.32.22-.58.37-.84z" fill="#dcf3a3"/></svg>