<svg xmlns="http://www.w3.org/2000/svg" viewBox="0 0 80 80">
  <rect width="100%" height="100%" fill="#fff"/>
  <path fill="#A8CB54" d="M71.6 55.2H17.5A14.2 14.2 0 0 1 5 47.8h55.4c1 1.7 2.3 3.1 3.8 4.3 1.5 1.2 3.1 2 5 2.5l2.4.6ZM3 40.4c0-2.6.6-5.1 2-7.4h54.7l.6.2-.3.7-.9 2.2c-.4 1.4-.6 2.8-.6 4.3H3Z"/>
  <path fill="#B5DD64" d="M3 40.4h55.5c0 2.6.6 5.2 2 7.4H5c-1.4-2.2-2-4.8-2-7.4Zm57.3-7.2-.5-.2H5c1-1.9 2.5-3.5 4.3-4.7 2-1.4 4.3-2.3 6.7-2.6h55.4l-1.1.2a14.6 14.6 0 0 0-10 7.3Z"/>
  <path fill="#DCF3A3" d="M60.3 33.2a18 18 0 0 1 3.2-3.9c1.9-1.7 4.2-2.9 6.8-3.4l1.1-.3c1 0 2.2 0 3.2.3a3.7 3.7 0 0 1 1.8 5.3 3.8 3.8 0 0 1-3.3 1.9 7.4 7.4 0 0 0 0 14.7 3.7 3.7 0 0 1 3.9 4 3.7 3.7 0 0 1-3.4 3.4h-2l-2.5-.6c-1.7-.5-3.4-1.4-4.9-2.5a14.4 14.4 0 0 1-5.7-11.7c0-1.4.2-2.9.6-4.3L60 34c0-.3.2-.5.3-.7Z"/>
</svg>