<svg xmlns="http://www.w3.org/2000/svg" viewBox="0 0 80 80">
  <rect width="100%" height="100%" fill="#31BCA1"/>
  <path fill="#fff" d="m44.2 25.2-4-10.4h-3.5v2h2l.6 1.7-5.3 8.6h2.4l3.8-6 2.6 6.6 3.8-1.2-.6-1.9-1.8.6ZM25 28.5l.7.2a1 1 0 0 0 1-1.3 1 1 0 0 0-.3-.5c-4.2-3.6-7-8.5-8-14a1 1 0 0 0-1.1-.9 1 1 0 0 0-1 1.2c1 6 4.1 11.4 8.8 15.3ZM30.4 31.9h.4a1 1 0 0 0 1-.7 1 1 0 0 0-.5-1.2 22.2 22.2 0 0 1-2.8-1.4 1 1 0 0 0-1.2 1.2 1 1 0 0 0 .5.7l2.6 1.4Z"/>
  <path fill="#fff" fill-rule="evenodd" d="M67 11a28 28 0 0 1-21.3 25.6c-.1 1.2-.5 3.1-1.3 4v3.1c.7.7 2 2.1 2.6 5.3a2 2 0 0 1-2 2.4h-.6c.2 2.6 1.6 9.7 9.4 15.8a2 2 0 0 1-1.3 3.7h-25a2.1 2.1 0 0 1-2-2.7c.1-.4.4-.7.7-1a23.2 23.2 0 0 0 9.4-15.7h-.5a2.1 2.1 0 0 1-2-2.5c.5-3.2 1.8-4.6 2.6-5.3v-3.1c-1-.9-1.3-2.8-1.4-4A28.1 28.1 0 0 1 13 11a2 2 0 0 1 .6-1.6A2 2 0 0 1 15 9H65a2.1 2.1 0 0 1 1.5.6 2 2 0 0 1 .6 1.6ZM42.3 49.5h2.6c-.6-3.4-2.1-4.2-2.1-4.2l-.6-.3v-4.3a2 2 0 0 1 .7-1.5c.4-.6.6-1.4.6-2.1-2.3.3-4.7.3-7 0 0 .7.3 1.5.6 2.1a2 2 0 0 1 .7 1.5V45l-.6.2s-1.5.9-2.1 4.2h2.7v1c0 .3.3 10.1-10.3 18.4h25c-10.3-8.1-10.2-17.7-10.2-18.4v-1ZM15 11c.6 13 12 24.1 25 24.1 12.8 0 24.2-11 24.8-24.1H15Z" clip-rule="evenodd"/>
</svg>