<svg xmlns="http://www.w3.org/2000/svg" viewBox="0 0 80 80"><defs><style>.a{fill:#31bca1}</style></defs><path class="a" d="M40.26 7.64L45.45 21l2.28-.71.8 2.46-4.94 1.48-3.33-8.44-4.88 7.68h-3.1l6.83-11.07-.74-2.13h-2.69V7.64h4.58M21.64 25.57a1.32 1.32 0 01-.86-.31A32.25 32.25 0 019.6 5.58a1.34 1.34 0 112.66-.39 29.5 29.5 0 0010.25 18 1.34 1.34 0 01-.87 2.37zM28.2 29.79a1.28 1.28 0 01-.57-.13 29.51 29.51 0 01-3.35-1.84 1.34 1.34 0 011.44-2.27 28.47 28.47 0 003.06 1.68 1.34 1.34 0 01-.58 2.56z"/><path class="a" d="M47.32 35.68C62.13 32.2 74 18.55 74.72 2.79A2.63 2.63 0 0074 .84 2.73 2.73 0 0072 0H8a2.69 2.69 0 00-2 .84 2.63 2.63 0 00-.74 2C6 18.55 17.87 32.2 32.68 35.68c.16 1.55.58 4.09 1.69 5.21.05 0 .07.08.08.08v4c-1 .8-2.66 2.68-3.44 6.74a2.7 2.7 0 002.65 3.21h.73c-.32 3.32-2.13 12.42-12.17 20.3A2.69 2.69 0 0023.88 80h32.23a2.69 2.69 0 001.66-4.8c-10-7.88-11.84-17-12.16-20.3h.73A2.7 2.7 0 0049 51.69c-.78-4.06-2.44-5.94-3.45-6.74V41a.57.57 0 01.1-.12c1.09-1.11 1.51-3.65 1.67-5.2zm-1 16.53h-3.41v1.29c0 .53-.35 13.13 13.25 23.81H23.89C37.49 66.63 37.16 54 37.14 53.5v-1.29h-3.48c.82-4.27 2.69-5.31 2.69-5.31l.8-.35v-5.62a2.69 2.69 0 00-.87-1.93 6.93 6.93 0 01-.82-2.79 32.37 32.37 0 009.08 0 7.06 7.06 0 01-.82 2.79 2.71 2.71 0 00-.86 1.93v5.57l.72.38s1.94 1.04 2.76 5.33zM40 33.84c-16.62 0-31.29-14.27-32-31.15h64c-.73 16.89-15.39 31.15-32 31.15z"/></svg>