<svg viewBox="0 0 80 80" xmlns="http://www.w3.org/2000/svg">
<rect width="100%" height="100%" fill="#31BCA1"/>
<path d="M44.2449 25.1732L40.2105 14.8193H36.6504V16.8575H38.7414L39.3166 18.5082L34.0075 27.0874H36.4172L40.2105 21.1355L42.799 27.6764L46.639 26.5294L46.0172 24.623L44.2449 25.1732Z" fill="white"/>
<path d="M25.0682 28.4747C25.2552 28.6316 25.4923 28.7168 25.7367 28.7149V28.7072C25.9517 28.7093 26.162 28.6449 26.3389 28.5231C26.5158 28.4012 26.6505 28.2278 26.7246 28.0266C26.7987 27.8254 26.8085 27.6063 26.7527 27.3993C26.6969 27.1923 26.5782 27.0075 26.413 26.8704C22.1532 23.3335 19.3227 18.3778 18.4454 12.9205C18.4052 12.6471 18.2577 12.4009 18.0354 12.2359C17.8131 12.071 17.5342 12.0008 17.26 12.0409C16.9858 12.081 16.7388 12.228 16.5733 12.4497C16.4914 12.5594 16.432 12.6842 16.3984 12.8168C16.3648 12.9495 16.3578 13.0874 16.3777 13.2228C17.3312 19.1866 20.4183 24.6044 25.0682 28.4747Z" fill="white"/>
<path d="M30.3929 31.8847C30.5308 31.9519 30.6825 31.9864 30.836 31.9854C31.0757 31.9901 31.3097 31.9122 31.4985 31.7649C31.6873 31.6175 31.8193 31.4097 31.8723 31.1766C31.9253 30.9435 31.896 30.6992 31.7893 30.4851C31.6826 30.2711 31.5052 30.1002 31.2868 30.0014C30.468 29.6163 29.6736 29.1815 28.9082 28.6994C28.7923 28.6262 28.6631 28.5764 28.528 28.5529C28.3928 28.5294 28.2543 28.5326 28.1204 28.5625C27.9865 28.5924 27.8598 28.6482 27.7476 28.7269C27.6354 28.8056 27.5398 28.9055 27.4663 29.0211C27.3928 29.1366 27.3428 29.2654 27.3192 29.4001C27.2957 29.5349 27.299 29.673 27.3289 29.8065C27.3589 29.94 27.4149 30.0663 27.4938 30.1782C27.5727 30.2901 27.673 30.3854 27.7889 30.4587C28.625 30.9896 29.4949 31.4659 30.3929 31.8847Z" fill="white"/>
<path fill-rule="evenodd" clip-rule="evenodd" d="M66.9972 11.0606C66.4375 23.2746 57.2106 33.8533 45.6984 36.5502C45.5741 37.7515 45.2476 39.72 44.4003 40.5802C44.3702 40.6075 44.3441 40.6388 44.3226 40.6732V43.7345C45.1077 44.3545 46.398 45.8115 47.0043 48.9579C47.0629 49.2612 47.0533 49.5737 46.9764 49.8729C46.8994 50.172 46.757 50.4505 46.5594 50.6883C46.3617 50.9261 46.1137 51.1174 45.8331 51.2483C45.5526 51.3793 45.2464 51.4467 44.9366 51.4457H44.3692C44.6179 54.0032 46.0482 61.0711 53.8215 67.1781C54.1617 67.4463 54.4098 67.8134 54.5315 68.2284C54.6532 68.6435 54.6424 69.086 54.5007 69.4947C54.3589 69.9034 54.0932 70.258 53.7403 70.5095C53.3874 70.7609 52.9649 70.8967 52.5311 70.8981H27.4779C27.0479 70.8928 26.6301 70.7554 26.2812 70.5048C25.9324 70.2542 25.6695 69.9024 25.5285 69.4974C25.3874 69.0924 25.375 68.654 25.4929 68.2417C25.6109 67.8294 25.8534 67.4634 26.1875 67.1936C33.9919 61.0866 35.3988 54.0342 35.6476 51.4612H35.0801C34.771 51.461 34.4657 51.3928 34.1861 51.2613C33.9065 51.1299 33.6595 50.9385 33.4627 50.7008C33.2659 50.4632 33.1242 50.1851 33.0477 49.8865C32.9712 49.5879 32.9618 49.2761 33.0202 48.9734C33.6265 45.827 34.9169 44.37 35.6942 43.75V40.65C35.6918 40.65 35.6887 40.6441 35.6843 40.6359C35.6746 40.6176 35.6589 40.588 35.632 40.588C34.7692 39.72 34.4427 37.7515 34.3184 36.5502C22.8062 33.8533 13.5793 23.2746 13.0041 11.0994C12.9861 10.8153 13.028 10.5306 13.127 10.2636C13.2261 9.99668 13.3802 9.75337 13.5793 9.54938C13.7789 9.33922 14.0202 9.1728 14.2879 9.06072C14.5555 8.94864 14.8437 8.89335 15.1339 8.89839H64.8828C65.1728 8.89522 65.4604 8.95136 65.7278 9.06333C65.9952 9.17529 66.2367 9.34072 66.4375 9.54938C66.6289 9.75015 66.7772 9.9877 66.8734 10.2475C66.9697 10.5074 67.0118 10.784 66.9972 11.0606ZM42.2704 49.3609H44.9366C44.2992 46.0362 42.7912 45.2302 42.7912 45.2302L42.2316 44.9357V40.619C42.2368 40.3377 42.2987 40.0604 42.4136 39.8035C42.5284 39.5465 42.6938 39.3152 42.9001 39.1232C43.2607 38.4544 43.4778 37.718 43.5375 36.961C41.1964 37.2916 38.8204 37.2916 36.4793 36.961C36.536 37.7186 36.7533 38.4555 37.1167 39.1232C37.3251 39.314 37.4924 39.5449 37.6087 39.802C37.7249 40.0591 37.7876 40.337 37.793 40.619V44.9745L37.1712 45.2457C37.1712 45.2457 35.7176 46.0517 35.0801 49.3609H37.7852V50.3607C37.8008 50.7482 38.0573 60.5364 27.4857 68.8133H52.57C42.1845 60.6821 42.2642 51.1149 42.2702 50.391C42.2703 50.3781 42.2704 50.3679 42.2704 50.3607V49.3609ZM15.1339 10.9831C15.6858 24.0651 27.0892 35.1243 40.0084 35.1243C52.9198 35.1243 64.3154 24.0728 64.8828 10.9831H15.1339Z" fill="white"/>
</svg>