<svg xmlns="http://www.w3.org/2000/svg" viewBox="0 0 80 80">
  <rect width="100%" height="100%" fill="#fff"/>
  <path fill="#fff" d="M39.999 55.9966C48.8355 55.9966 55.999 48.8331 55.999 39.9966C55.999 31.16 48.8355 23.9966 39.999 23.9966C31.1624 23.9966 23.999 31.16 23.999 39.9966C23.999 48.8331 31.1624 55.9966 39.999 55.9966Z"/>
  <path fill="url(#a)" d="M26.1426 48.0001L12.2884 24.004C9.47922 28.868 8.00019 34.3859 8 40.0028C7.99981 45.6198 9.47846 51.1378 12.2873 56.002C15.0961 60.8662 19.1361 64.9052 24.001 67.7129C28.8659 70.5205 34.3843 71.9978 40.0012 71.9962L53.8554 48.0001V47.9959C52.4522 50.4294 50.4329 52.4503 48.0007 53.8556C45.5685 55.2609 42.8092 56.0009 40.0002 56.0013C37.1912 56.0017 34.4316 55.2626 31.999 53.8579C29.5665 52.4534 27.5465 50.433 26.1426 48.0001Z"/>
  <path fill="url(#b)" d="M53.8544 47.9991L40.0003 71.9952C45.6173 71.996 51.1354 70.518 55.9999 67.7096C60.8644 64.9013 64.9038 60.8618 67.712 55.9972C70.5201 51.1325 71.998 45.6142 71.997 39.9973C71.996 34.3803 70.5162 28.8627 67.7063 23.999H39.998L39.9945 24.0011C42.8035 23.9997 45.5633 24.738 47.9964 26.1417C50.4296 27.5454 52.4501 29.565 53.855 31.9975C55.2598 34.4299 55.9994 37.1894 55.9994 39.9983C55.9993 42.8073 55.2593 45.5667 53.8544 47.9991Z"/>
  <path fill="#1A73E8" d="M39.999 52.6667C46.9946 52.6667 52.6657 46.9956 52.6657 40C52.6657 33.0044 46.9946 27.3333 39.999 27.3333C33.0034 27.3333 27.3324 33.0044 27.3324 40C27.3324 46.9956 33.0034 52.6667 39.999 52.6667Z"/>
  <path fill="url(#c)" d="M39.9991 24H67.7074C64.8996 19.1352 60.8604 15.0953 55.9961 12.2867C51.1318 9.47805 45.6137 7.9996 39.9968 8C34.3798 8.0004 28.862 9.47963 23.9981 12.289C19.1341 15.0983 15.0956 19.1387 12.2885 24.0039L26.1426 48L26.1461 48.0019C24.7405 45.5699 23.9999 42.8108 23.999 40.0018C23.9981 37.1928 24.7369 34.4331 26.1411 32.0003C27.5451 29.5675 29.5652 27.5472 31.9978 26.1429C34.4305 24.7384 37.1901 23.9994 39.9991 24Z"/>
  <linearGradient id="a" x1="43.463" x2="15.753" y1="69.998" y2="22.003" gradientUnits="userSpaceOnUse">
    <stop stop-color="#1E8E3E"/>
    <stop offset="1" stop-color="#34A853"/>
  </linearGradient>
  <linearGradient id="b" x1="35.331" x2="63.041" y1="72.08" y2="24.086" gradientUnits="userSpaceOnUse">
    <stop stop-color="#FCC934"/>
    <stop offset="1" stop-color="#FBBC04"/>
  </linearGradient>
  <linearGradient id="c" x1="12.289" x2="67.707" y1="28.001" y2="28.001" gradientUnits="userSpaceOnUse">
    <stop stop-color="#D93025"/>
    <stop offset="1" stop-color="#EA4335"/>
  </linearGradient>
</svg>
