<svg xmlns="http://www.w3.org/2000/svg" viewBox="0 0 80 80"><path d="M74.61 20A39.94 39.94 0 0140 79.86L57.25 50v-.08A20 20 0 0054 25.66z" fill="#fc0"/><path d="M74.61 20L54 25.66A19.88 19.88 0 0040 20h34.58z" fill="#f6bd00"/><path d="M74.58 20H40a20 20 0 00-19.34 15L5.44 20a39.94 39.94 0 0169.14 0z" fill="#ea4235"/><path d="M57.25 50L40 79.86l5.42-20.7A20 20 0 0057.25 50z" fill="#00944b"/><path d="M40 25.2a14.73 14.73 0 11-14.73 14.73A14.72 14.72 0 0140 25.2z" fill="#4286f5"/><path d="M45.38 59.16L40 79.86A39.95 39.95 0 015.41 20l17.15 29.7a20 20 0 0022.82 9.5z" fill="#34a853"/><path d="M22.56 49.66L5.41 20l15.25 15a19.93 19.93 0 001.9 14.69z" fill="#db2e28"/></svg>