<svg viewBox="0 0 80 80" fill="none" xmlns="http://www.w3.org/2000/svg">
<rect width="100%" height="100%" fill="#161615"/>
<path d="M17.5675 12H12.6545C12.293 12 12 12.293 12 12.6545V67.3455C12 67.707 12.293 68 12.6545 68H17.5675C17.929 68 18.222 67.707 18.222 67.3455V12.6545C18.222 12.293 17.929 12 17.5675 12Z" fill="#FCFF69"/>
<path d="M30.012 12H25.099C24.7375 12 24.4445 12.293 24.4445 12.6545V67.3455C24.4445 67.707 24.7375 68 25.099 68H30.012C30.3735 68 30.6665 67.707 30.6665 67.3455V12.6545C30.6665 12.293 30.3735 12 30.012 12Z" fill="#FCFF69"/>
<path d="M37.5435 12H42.4565C42.818 12 43.111 12.293 43.111 12.6545V67.3455C43.111 67.707 42.818 68 42.4565 68H37.5435C37.182 68 36.889 67.707 36.889 67.3455V12.6545C36.889 12.293 37.182 12 37.5435 12Z" fill="#FCFF69"/>
<path d="M54.8983 12H49.9853C49.6238 12 49.3308 12.293 49.3308 12.6545V67.3455C49.3308 67.707 49.6238 68 49.9853 68H54.8983C55.2598 68 55.5528 67.707 55.5528 67.3455V12.6545C55.5528 12.293 55.2598 12 54.8983 12Z" fill="#FCFF69"/>
<path d="M62.4325 33.7792H67.3455C67.707 33.7792 68 34.0722 68 34.4337V45.5692C68 45.9306 67.707 46.2237 67.3455 46.2237H62.4325C62.071 46.2237 61.778 45.9306 61.778 45.5692V34.4337C61.778 34.0722 62.071 33.7792 62.4325 33.7792Z" fill="#FCFF69"/>
</svg>
