<svg xmlns="http://www.w3.org/2000/svg" fill="none" viewBox="0 0 80 80">
  <rect width="100%" height="100%" fill="#161615"/>
  <path fill="#FCFF69" d="M17.6 12h-5c-.3 0-.6.3-.6.7v54.6c0 .4.3.7.7.7h4.9c.3 0 .6-.3.6-.7V12.7c0-.4-.3-.7-.6-.7ZM30 12h-4.9c-.4 0-.7.3-.7.7v54.6c0 .4.3.7.7.7h5c.3 0 .6-.3.6-.7V12.7c0-.4-.3-.7-.7-.7ZM37.5 12h5c.3 0 .6.3.6.7v54.6c0 .4-.3.7-.6.7h-5a.7.7 0 0 1-.6-.7V12.7c0-.4.3-.7.6-.7ZM54.9 12h-5c-.3 0-.6.3-.6.7v54.6c0 .4.3.7.7.7h4.9c.4 0 .7-.3.7-.7V12.7c0-.4-.3-.7-.7-.7ZM62.4 33.8h5c.3 0 .6.3.6.6v11.2c0 .3-.3.6-.7.6h-4.9a.7.7 0 0 1-.6-.6V34.4c0-.3.3-.6.6-.6Z"/>
</svg>