<svg width="80" height="80" viewBox="0 0 80 80" fill="none" xmlns="http://www.w3.org/2000/svg">
<g clip-path="url(#clip0_1_891)">
<rect width="80" height="80" fill="#161615"/>
<path fill-rule="evenodd" clip-rule="evenodd" d="M27.8718 5.99963H21.906C21.4671 5.99963 21.1113 6.35544 21.1113 6.79435V73.2017C21.1113 73.6406 21.4671 73.9964 21.906 73.9964H27.8718C28.3107 73.9964 28.6665 73.6406 28.6665 73.2017V6.79435C28.6665 6.35544 28.3107 5.99963 27.8718 5.99963ZM12.7605 5.99986H6.79471C6.35581 5.99986 6 6.35567 6 6.79458V73.2019C6 73.6408 6.35581 73.9966 6.79471 73.9966H12.7605C13.1994 73.9966 13.5552 73.6408 13.5552 73.2019V6.79458C13.5552 6.35567 13.1994 5.99986 12.7605 5.99986ZM37.0173 5.99963H42.9831C43.422 5.99963 43.7778 6.35544 43.7778 6.79435V73.2017C43.7778 73.6406 43.422 73.9964 42.9831 73.9964H37.0173C36.5784 73.9964 36.2226 73.6406 36.2226 73.2017V6.79435C36.2226 6.35544 36.5784 5.99963 37.0173 5.99963ZM58.0907 5.99963H52.1249C51.686 5.99963 51.3302 6.35544 51.3302 6.79435V73.2017C51.3302 73.6406 51.686 73.9964 52.1249 73.9964H58.0907C58.5296 73.9964 58.8854 73.6406 58.8854 73.2017V6.79435C58.8854 6.35544 58.5296 5.99963 58.0907 5.99963ZM67.2395 32.4447H73.2053C73.6442 32.4447 74 32.8005 74 33.2394V46.7603C74 47.1993 73.6442 47.5551 73.2053 47.5551H67.2395C66.8006 47.5551 66.4448 47.1993 66.4448 46.7603V33.2394C66.4448 32.8005 66.8006 32.4447 67.2395 32.4447Z" fill="white"/>
</g>
<defs>
<clipPath id="clip0_1_891">
<rect width="80" height="80" fill="white"/>
</clipPath>
</defs>
</svg>
