<svg viewBox="0 0 80 80" xmlns="http://www.w3.org/2000/svg">
<rect width="100%" height="100%" fill="white"/>
<path d="M40 5C33.0777 5 26.3108 7.05271 20.5551 10.8986C14.7993 14.7444 10.3133 20.2107 7.66423 26.6061C5.01516 33.0015 4.32205 40.0388 5.67253 46.8282C7.02301 53.6175 10.3564 59.8539 15.2513 64.7487C20.1461 69.6436 26.3825 72.977 33.1719 74.3275C39.9612 75.678 46.9985 74.9849 53.3939 72.3358C59.7894 69.6867 65.2556 65.2007 69.1014 59.445C72.9473 53.6892 75 46.9224 75 40C75 30.7174 71.3125 21.815 64.7488 15.2513C58.185 8.68749 49.2826 5 40 5" fill="white"/>
<path d="M38.7225 40.63C38.4075 41.3125 38.0575 42.0738 37.6988 42.8875C36.4106 45.6686 35.3456 48.5476 34.5138 51.4975C34.3081 52.446 34.2084 53.4145 34.2163 54.385C34.2163 54.8138 34.2163 55.26 34.2775 55.7325C37.824 57.0384 41.7095 57.0971 45.2938 55.8988C44.8985 55.5409 44.5327 55.1517 44.2 54.735C41.9513 51.8738 40.7 47.6825 38.7225 40.63ZM30.4363 26.4113C28.2584 27.9321 26.4766 29.9526 25.2401 32.3036C24.0037 34.6547 23.3486 37.2677 23.3298 39.924C23.3109 42.5803 23.9288 45.2024 25.1318 47.5707C26.3347 49.9391 28.0877 51.9847 30.2438 53.5363C31.25 49.3013 33.875 45.3988 37.69 37.5588C37.4625 36.9288 37.2 36.2463 36.9113 35.52C35.8438 32.8425 34.2863 29.7363 32.93 28.3275C32.1915 27.5764 31.3522 26.9315 30.4363 26.4113" fill="#91DC47"/>
<path d="M54.5775 59.25C52.6635 59.0565 50.7749 58.6635 48.9425 58.0775C44.5773 60.2438 39.5729 60.7473 34.8637 59.4941C30.1544 58.2409 26.0622 55.3165 23.3512 51.2671C20.6401 47.2177 19.4955 42.32 20.1311 37.4884C20.7667 32.6569 23.139 28.2218 26.805 25.0113C25.6597 24.7291 24.4846 24.5852 23.305 24.5825C17.4163 24.6438 11.2038 27.8988 8.61378 36.7013C8.43835 37.8239 8.37679 38.9613 8.43003 40.0963C8.43174 46.8097 10.573 53.3479 14.5429 58.7618C18.5128 64.1758 24.1048 68.1836 30.5071 70.2036C36.9095 72.2236 43.789 72.1506 50.147 69.9953C56.5051 67.84 62.0108 63.7144 65.865 58.2175C63.0503 58.9378 60.1602 59.3226 57.255 59.3638C56.361 59.3816 55.4668 59.3437 54.5775 59.25" fill="#63B132"/>
<path d="M48.6449 53.125C49.0508 53.2987 49.4691 53.442 49.8962 53.5538C52.0123 52.0025 53.7342 49.9755 54.9228 47.6363C56.1113 45.2972 56.7334 42.7113 56.7387 40.0875C56.7549 37.4352 56.1363 34.8175 54.9345 32.453C53.7327 30.0885 51.9826 28.0459 49.8303 26.4957C47.6781 24.9456 45.1862 23.9329 42.5627 23.5422C39.9393 23.1515 37.2605 23.3942 34.7499 24.25C38.1449 28.1175 39.7724 33.6388 41.3562 39.6763C42.9399 45.7138 41.8637 41.3563 42.7212 43.5788C43.623 45.9932 44.7632 48.3117 46.1249 50.5C46.723 51.5674 47.5769 52.4694 48.6099 53.125" fill="#90B4FE"/>
<path d="M40 8.50001C34.9872 8.4967 30.0459 9.68982 25.5868 11.9802C21.1278 14.2706 17.2798 17.5921 14.3625 21.6688C16.9594 20.0178 19.9741 19.1435 23.0513 19.1488C25.8173 19.1388 28.5442 19.8025 30.9963 21.0825C31.3288 21.275 31.6438 21.4763 31.9588 21.695C35.0139 20.3464 38.3573 19.7817 41.6859 20.0521C45.0144 20.3225 48.2228 21.4194 51.0202 23.2435C53.8176 25.0676 56.1154 27.561 57.7053 30.4978C59.2952 33.4346 60.1269 36.7217 60.125 40.0613C60.1288 42.7186 59.603 45.35 58.5784 47.8018C57.5538 50.2536 56.0509 52.4767 54.1575 54.3413C55.1049 54.4441 56.0571 54.4967 57.01 54.4988C60.51 54.4988 64.29 53.7288 67.125 51.34C69.2872 49.4436 70.7788 46.8993 71.3776 44.0863C71.5492 42.7514 71.6368 41.4071 71.6401 40.0613C71.6366 35.9109 70.8153 31.8019 69.223 27.9692C67.6308 24.1364 65.2988 20.655 62.3604 17.7239C59.4221 14.7928 55.9348 12.4696 52.0981 10.8869C48.2614 9.30419 44.1504 8.49311 40 8.50001" fill="#5881D8"/>
</svg>
