<svg xmlns="http://www.w3.org/2000/svg" viewBox="0 0 80 80"><defs><style>.b{fill:#91dc47}</style></defs><path d="M40 0a40 40 0 1040 40A40 40 0 0040 0" fill="#fff"/><path class="b" d="M38.54 40.72c-.36.78-.76 1.65-1.17 2.58a66.09 66.09 0 00-3.64 9.84 15 15 0 00-.34 3.3c0 .49 0 1 .07 1.54a19 19 0 0012.59.19 11.34 11.34 0 01-1.25-1.33c-2.57-3.27-4-8.06-6.26-16.12M29.07 24.47a19 19 0 00-.22 31c1.15-4.84 4.15-9.3 8.51-18.26-.26-.72-.56-1.5-.89-2.33-1.22-3.06-3-6.61-4.55-8.22a13 13 0 00-2.85-2.19"/><path d="M56.66 62a31.57 31.57 0 01-6.44-1.34 22.93 22.93 0 01-25.3-37.79 16.88 16.88 0 00-4-.49c-6.73.07-13.83 3.79-16.79 13.85a19.28 19.28 0 00-.21 3.88 36.09 36.09 0 0065.64 20.71 42.1 42.1 0 01-9.84 1.31 24.54 24.54 0 01-3.06-.13" fill="#63b132"/><path d="M49.88 55a10.2 10.2 0 001.43.49 19.13 19.13 0 007.82-15.39A19 19 0 0034 22c3.88 4.42 5.74 10.73 7.55 17.63s.58 1.92 1.56 4.46A44.33 44.33 0 0047 52a8.44 8.44 0 002.84 3" fill="#90b4fe"/><path d="M40 4a36 36 0 00-29.3 15.05 18.45 18.45 0 019.93-2.88 19.47 19.47 0 019.08 2.21c.38.22.74.45 1.1.7A22.93 22.93 0 0163 40.07a22.86 22.86 0 01-6.82 16.32 30.81 30.81 0 003.26.18c4 0 8.32-.88 11.56-3.61a15.25 15.25 0 004.86-8.29 36.76 36.76 0 00.3-4.6A36.1 36.1 0 0040 4" fill="#5881d8"/></svg>