<svg xmlns="http://www.w3.org/2000/svg" viewBox="0 0 80 80">
  <rect width="100%" height="100%" fill="#fff"/>
  <path fill="#fff" d="M40 5a35 35 0 1 0 0 70 35 35 0 0 0 0-70"/>
  <path fill="#91DC47" d="m38.7 40.6-1 2.3a57.8 57.8 0 0 0-3.2 8.6 13.1 13.1 0 0 0-.2 4.2c3.5 1.3 7.4 1.4 11 .2a10 10 0 0 1-1.1-1.2 42 42 0 0 1-5.5-14Zm-8.3-14.2a16.6 16.6 0 0 0-.2 27.1c1-4.2 3.7-8.1 7.5-16l-.8-2a26 26 0 0 0-4-7.2c-.7-.7-1.5-1.4-2.5-1.9"/>
  <path fill="#63B132" d="M54.6 59.3c-2-.2-3.8-.6-5.7-1.2a20 20 0 0 1-22-33c-1.2-.4-2.4-.5-3.6-.5-5.9 0-12.1 3.3-14.7 12.1-.2 1.1-.2 2.3-.2 3.4A31.6 31.6 0 0 0 66 58.2a36.8 36.8 0 0 1-11.3 1"/>
  <path fill="#90B4FE" d="m48.6 53.1 1.3.5a16.7 16.7 0 0 0-7.3-30c-2.7-.4-5.3-.2-7.9.6 3.4 4 5 9.4 6.7 15.5 1.5 6 .5 1.7 1.3 3.9 1 2.4 2 4.7 3.4 6.9.6 1 1.5 2 2.5 2.6"/>
  <path fill="#5881D8" d="M40 8.5a31.5 31.5 0 0 0-25.6 13.2C17 20 20 19 23 19a17 17 0 0 1 8.9 2.6 20 20 0 0 1 22.2 32.6l2.8.2c3.5 0 7.3-.8 10.1-3.2 2.2-1.9 3.7-4.4 4.3-7.2A32.2 32.2 0 0 0 69.2 28 31.6 31.6 0 0 0 40 8.5"/>
</svg>