<svg width="80" height="80" viewBox="0 0 80 80" fill="none" xmlns="http://www.w3.org/2000/svg">
<g clip-path="url(#clip0_1_895)">
<path d="M54.6189 55.6893L55.0274 54.2728C55.5123 52.5891 55.3328 51.0353 54.5158 49.8899C53.7522 48.8362 52.5076 48.2177 50.9843 48.1451L22.1477 47.7786C22.0572 47.7773 21.9684 47.7541 21.8888 47.7111C21.8092 47.6681 21.7412 47.6064 21.6905 47.5314C21.6399 47.4564 21.6082 47.3703 21.598 47.2804C21.5879 47.1905 21.5996 47.0994 21.6323 47.015C21.6813 46.8737 21.7707 46.7498 21.8895 46.6589C22.0083 46.5679 22.1511 46.5139 22.3004 46.5034L51.4157 46.1216C54.8518 45.9651 58.6086 43.1628 59.9181 39.7419L61.5751 35.4048C61.6222 35.2831 61.6455 35.1535 61.6438 35.023C61.6419 34.9538 61.6342 34.8848 61.6209 34.8168C60.7169 30.7827 58.5194 27.1545 55.3629 24.4847C52.2064 21.8148 48.2638 20.2496 44.1356 20.0274C40.0074 19.8052 35.9197 20.9381 32.4948 23.2537C29.07 25.5693 26.4956 28.9406 25.1638 32.8544C23.75 31.8036 22.0456 31.216 20.2845 31.1724C18.5235 31.1289 16.7921 31.6314 15.3281 32.6111C13.864 33.5907 12.739 34.9995 12.1076 36.644C11.4761 38.2885 11.3691 40.0882 11.8012 41.796C10.0856 41.8403 8.39896 42.2487 6.85308 42.994C5.3072 43.7393 3.93732 44.8046 2.83418 46.1192C1.73104 47.4339 0.919829 48.968 0.454268 50.6198C-0.0112924 52.2716 -0.12057 54.0035 0.133671 55.7007C0.152065 55.8347 0.218191 55.9575 0.319899 56.0466C0.421608 56.1357 0.552061 56.185 0.687265 56.1856H53.9431C54.0943 56.1871 54.2419 56.1396 54.3637 56.0501C54.4856 55.9606 54.5751 55.834 54.6189 55.6893Z" fill="#F4801F"/>
<path d="M64.2285 35.7332C63.974 35.7332 63.7068 35.7408 63.4268 35.7561C63.3847 35.7572 63.3433 35.7663 63.3046 35.7828C63.2349 35.8059 63.1719 35.8459 63.1213 35.8991C63.0707 35.9524 63.034 36.0174 63.0145 36.0882L61.8691 40.0054C61.3804 41.6891 61.5598 43.243 62.3807 44.3883C62.7954 44.9303 63.3293 45.3696 63.9411 45.6721C64.5528 45.9747 65.226 46.1324 65.9084 46.1331L72.0591 46.5149C72.1451 46.5175 72.2293 46.5403 72.3049 46.5814C72.3804 46.6226 72.4453 46.6808 72.4943 46.7516C72.5462 46.8272 72.5792 46.9142 72.5905 47.0052C72.6018 47.0962 72.5911 47.1887 72.5592 47.2747C72.5102 47.416 72.4208 47.5399 72.302 47.6308C72.1832 47.7218 72.0403 47.7758 71.8911 47.7863L65.5037 48.168C62.0333 48.3284 58.2955 51.1269 56.986 54.5439L56.524 55.7504C56.5047 55.8009 56.4976 55.8553 56.5032 55.909C56.5089 55.9628 56.5272 56.0145 56.5566 56.0599C56.5859 56.1053 56.6256 56.1431 56.6724 56.1702C56.7191 56.1974 56.7717 56.2131 56.8256 56.2162H78.8282C78.9623 56.2194 79.0936 56.1769 79.2004 56.0958C79.3072 56.0146 79.3833 55.8996 79.4161 55.7695C80.0721 53.4255 80.1769 50.9616 79.7226 48.5703C79.2683 46.179 78.2671 43.9253 76.7972 41.9852C75.3273 40.0451 73.4287 38.4712 71.2496 37.3866C69.0706 36.302 66.6702 35.7361 64.2362 35.7332H64.2285Z" fill="#F9AB41"/>
</g>
<defs>
<clipPath id="clip0_1_895">
<rect width="80" height="80" fill="white"/>
</clipPath>
</defs>
</svg>
