<svg xmlns="http://www.w3.org/2000/svg" viewBox="0 0 80 80">
  <rect width="100%" height="100%" fill="#fff"/>
  <path fill="#F4801F" d="m52.7 52.6.4-1.3c.4-1.5.3-2.9-.5-3.9a4 4 0 0 0-3.1-1.5l-25.7-.3a.5.5 0 0 1-.5-.5V45a.7.7 0 0 1 .6-.5l26-.3c3-.1 6.4-2.6 7.6-5.6l1.4-3.9a.9.9 0 0 0 0-.5 16.7 16.7 0 0 0-15.5-13 17 17 0 0 0-17 11.3 7.7 7.7 0 0 0-11.6 3.3c-.6 1.5-.7 3-.3 4.6a10.9 10.9 0 0 0-10 7.8c-.5 1.4-.6 3-.4 4.5a.5.5 0 0 0 .5.4h47.5a.6.6 0 0 0 .6-.4Z"/>
  <path fill="#F9AB41" d="M62 35a13.4 13.4 0 0 0-1 0 .4.4 0 0 0-.2.3l-1 3.5c-.4 1.4-.3 2.8.5 3.8a4 4 0 0 0 3.1 1.5l5.5.4a.5.5 0 0 1 .4.2.5.5 0 0 1 0 .4.7.7 0 0 1-.5.5l-5.8.3a9.3 9.3 0 0 0-7.6 5.6l-.4 1a.3.3 0 0 0 0 .4.3.3 0 0 0 .3.1H75l.3-.1.2-.3A13.6 13.6 0 0 0 73 40.5 14 14 0 0 0 62 35Z"/>
</svg>