<svg viewBox="0 0 80 80" xmlns="http://www.w3.org/2000/svg">
<rect width="100%" height="100%" fill="white"/>
<path d="M52.7321 52.5611L53.0966 51.3085C53.5292 49.8195 53.3691 48.4454 52.6402 47.4325C51.9589 46.5006 50.8484 45.9537 49.4892 45.8895L23.7606 45.5654C23.6799 45.5643 23.6006 45.5438 23.5296 45.5057C23.4586 45.4677 23.3979 45.4131 23.3528 45.3468C23.3076 45.2805 23.2793 45.2043 23.2702 45.1248C23.2612 45.0453 23.2716 44.9648 23.3008 44.8902C23.3445 44.7652 23.4243 44.6556 23.5303 44.5752C23.6362 44.4948 23.7637 44.447 23.8969 44.4377L49.8742 44.1001C52.9399 43.9617 56.2918 41.4835 57.4602 38.4583L58.9386 34.6229C58.9806 34.5153 59.0014 34.4007 58.9999 34.2853C58.9982 34.224 58.9913 34.1631 58.9795 34.1029C58.1729 30.5354 56.2122 27.3269 53.3959 24.9659C50.5796 22.6049 47.062 21.2208 43.3787 21.0243C39.6955 20.8277 36.0483 21.8296 32.9926 23.8774C29.9368 25.9251 27.64 28.9065 26.4517 32.3675C25.1902 31.4382 23.6695 30.9186 22.0983 30.8801C20.5271 30.8416 18.9823 31.286 17.676 32.1523C16.3698 33.0187 15.366 34.2645 14.8026 35.7188C14.2392 37.1731 14.1437 38.7646 14.5293 40.2748C12.9986 40.314 11.4937 40.6751 10.1145 41.3342C8.73519 41.9933 7.51296 42.9354 6.52872 44.098C5.54447 45.2606 4.82069 46.6172 4.40531 48.078C3.98992 49.5387 3.89243 51.0703 4.11926 52.5712C4.13568 52.6896 4.19467 52.7982 4.28542 52.877C4.37617 52.9558 4.49256 52.9995 4.61319 53H52.1292C52.2641 53.0013 52.3958 52.9593 52.5045 52.8801C52.6132 52.801 52.6931 52.689 52.7321 52.5611Z" fill="#F4801F"/>
<path d="M61.9055 35C61.6781 35 61.4392 35.0067 61.189 35.0201C61.1515 35.0212 61.1144 35.0291 61.0799 35.0436C61.0175 35.0639 60.9612 35.0991 60.916 35.1459C60.8708 35.1927 60.838 35.2498 60.8205 35.312L59.797 38.7543C59.3602 40.2339 59.5206 41.5994 60.2542 42.6059C60.6248 43.0822 61.1019 43.4682 61.6486 43.7341C62.1953 43.9999 62.7969 44.1386 63.4068 44.1392L68.9034 44.4747C68.9803 44.477 69.0555 44.497 69.1231 44.5331C69.1906 44.5693 69.2486 44.6205 69.2924 44.6827C69.3388 44.7491 69.3683 44.8256 69.3784 44.9055C69.3884 44.9855 69.3789 45.0667 69.3504 45.1423C69.3066 45.2665 69.2267 45.3754 69.1205 45.4553C69.0144 45.5352 68.8867 45.5827 68.7533 45.5919L63.0451 45.9274C59.9437 46.0683 56.6034 48.5276 55.4331 51.5303L55.0203 52.5905C55.003 52.6349 54.9966 52.6827 55.0017 52.7299C55.0067 52.7772 55.0231 52.8226 55.0493 52.8625C55.0756 52.9024 55.1111 52.9356 55.1528 52.9595C55.1946 52.9833 55.2415 52.9972 55.2898 52.9999H74.9528C75.0727 53.0027 75.1899 52.9654 75.2854 52.894C75.3809 52.8227 75.4489 52.7216 75.4782 52.6073C76.0644 50.5475 76.1581 48.3823 75.7521 46.2809C75.3461 44.1795 74.4513 42.199 73.1377 40.4941C71.8242 38.7892 70.1274 37.4061 68.18 36.453C66.2327 35.4999 64.0876 35.0026 61.9124 35H61.9055Z" fill="#F9AB41"/>
</svg>
