<svg viewBox="0 0 80 80" xmlns="http://www.w3.org/2000/svg">
<rect width="100%" height="100%" fill="white"/>
<path d="M35.625 12.5L32.375 17.5H15V62.5H29.5L28.625 67.5H12.5L10 65V15L12.5 12.5H35.625ZM51.375 12.5H67.5L70 15V65L67.5 67.5H44.375L47.625 62.5H65V17.5H50.5L51.375 12.5Z" fill="#F38020"/>
<path d="M35.75 47.5H21.25L19.125 43.625L45.125 3.625L49.625 5.5L44.25 32.5H58.75L60.875 36.375L34.875 76.375L30.375 74.5L35.75 47.5ZM18.625 22.875C19.0891 22.875 19.5342 22.6906 19.8624 22.3624C20.1906 22.0342 20.375 21.5891 20.375 21.125C20.375 20.6609 20.1906 20.2158 19.8624 19.8876C19.5342 19.5594 19.0891 19.375 18.625 19.375C18.1609 19.375 17.7158 19.5594 17.3876 19.8876C17.0594 20.2158 16.875 20.6609 16.875 21.125C16.875 21.5891 17.0594 22.0342 17.3876 22.3624C17.7158 22.6906 18.1609 22.875 18.625 22.875ZM23.25 22.875C23.7141 22.875 24.1592 22.6906 24.4874 22.3624C24.8156 22.0342 25 21.5891 25 21.125C25 20.6609 24.8156 20.2158 24.4874 19.8876C24.1592 19.5594 23.7141 19.375 23.25 19.375C22.7859 19.375 22.3408 19.5594 22.0126 19.8876C21.6844 20.2158 21.5 20.6609 21.5 21.125C21.5 21.5891 21.6844 22.0342 22.0126 22.3624C22.3408 22.6906 22.7859 22.875 23.25 22.875ZM27.875 22.875C28.3391 22.875 28.7842 22.6906 29.1124 22.3624C29.4406 22.0342 29.625 21.5891 29.625 21.125C29.625 20.6609 29.4406 20.2158 29.1124 19.8876C28.7842 19.5594 28.3391 19.375 27.875 19.375C27.4109 19.375 26.9658 19.5594 26.6376 19.8876C26.3094 20.2158 26.125 20.6609 26.125 21.125C26.125 21.5891 26.3094 22.0342 26.6376 22.3624C26.9658 22.6906 27.4109 22.875 27.875 22.875Z" fill="#F38020"/>
</svg>
