<svg xmlns="http://www.w3.org/2000/svg" viewBox="0 0 80 80">
  <rect width="100%" height="100%" fill="#fff"/>
  <path fill="#355146" fill-rule="evenodd" d="M29.591 45.915c1.628 0 4.865-.092 9.34-1.98 5.215-2.202 15.59-6.198 23.075-10.303 5.235-2.871 7.53-6.668 7.53-11.782C69.535 14.753 63.923 9 57.001 9h-29C18.06 9 10 17.264 10 27.458c0 10.193 7.546 18.457 19.591 18.457Z" clip-rule="evenodd"/>
  <path fill="#D9A6E5" fill-rule="evenodd" d="M34.495 58.632c0-4.997 2.934-9.503 7.436-11.418l9.133-3.886c9.237-3.931 19.405 3.03 19.405 13.285 0 7.945-6.282 14.385-14.032 14.383l-9.888-.003c-6.658-.001-12.054-5.535-12.054-12.361Z" clip-rule="evenodd"/>
  <path fill="#FF7759" d="M20.378 48.342C14.646 48.342 10 53.106 10 58.982v1.378C10 66.236 14.646 71 20.377 71c5.732 0 10.378-4.764 10.378-10.64v-1.378c0-5.877-4.646-10.64-10.377-10.64Z"/>
</svg>
