<svg xmlns="http://www.w3.org/2000/svg" viewBox="0 0 80 80">
  <rect width="100%" height="100%" fill="#009432"/>
  <path fill="#fff" fill-rule="evenodd" d="M46 9.7a3161 3161 0 0 1 17.5 10c4 2.3 6 5.7 6 10.2v20.2c0 4.5-2 7.9-5.9 10.1L46 70.3c-4 2.3-8 2.3-11.9 0l-14-8-3.7-2.1c-3-1.8-4.8-4.4-5.6-7.8l-.2-.7-.1-.3V28.8l.2-.9.5-1.8c1-2.7 2.7-4.9 5.2-6.3l9.8-5.6L34 9.7c4-2.3 8-2.3 12 0Zm-28.6 31h.4c3.5-2 7.1-2 10.7-.2.5.3 1.1.4 1.7.3a27.6 27.6 0 0 0 16-9c.3-.4.5-1 .6-1.6.2-3.7 1.8-6.5 5-8.5l.6-.4.4-.3-3-1.8-6.9-3.9a5.2 5.2 0 0 0-5.7 0l-15.5 8.9-2 1.1a4.8 4.8 0 0 0-2.6 4.2v11l.1.3h.2Zm42.8 14c2-1 2.9-2.7 2.9-5v-7.4a3297.5 3297.5 0 0 1 0-2.5v-.4h-.3a1 1 0 0 0-.4 0c-3.6 2-7.2 2-10.7 0a2 2 0 0 0-1.3-.2c-6.4 1.2-11.7 4-16 8.9-.5.5-.8 1.2-.8 1.9-.3 3.7-2 6.5-5.3 8.4a14.9 14.9 0 0 0-1 .7l2.8 1.5 7.1 4.1c1.9 1.1 3.7 1.2 5.6 0l17.4-10Z" clip-rule="evenodd"/>
</svg>