<svg xmlns="http://www.w3.org/2000/svg" viewBox="0 0 80 80"><path d="M32.23 71.67l.08-.06a19.21 19.21 0 11-18.82-32.39 12 12 0 007.7-13.76 19.62 19.62 0 01-.3-5.82 19.21 19.21 0 1137.85 6.13 12 12 0 008.17 13.59 19.21 19.21 0 11-19 32.44 11.7 11.7 0 00-7.89-3 12 12 0 00-7.79 2.87zm7.47-39.19a10.93 10.93 0 1110.92-10.93A10.93 10.93 0 0139.7 32.48zm0 2.16a13.09 13.09 0 10-13.09-13.09A13.09 13.09 0 0039.7 34.64zM66 48.1a10.92 10.92 0 11-15 4 10.93 10.93 0 0115-4zM54 68.89A13.08 13.08 0 1049.16 51 13.07 13.07 0 0054 68.89zM24.37 67a10.92 10.92 0 114-14.92 10.91 10.91 0 01-4 14.92zm-12-20.79A13.08 13.08 0 1030.24 51a13.08 13.08 0 00-17.87-4.77z" fill="#424242" fill-rule="evenodd"/></svg>