<svg viewBox="0 0 80 80" xmlns="http://www.w3.org/2000/svg">
<rect width="100%" height="100%" fill="#202628"/>
<path d="M63.7322 67.4071H54.3431L54.9981 59.4918H50.3854L49.7304 67.4071H30.2696L29.6146 59.4918H25.0019L25.6569 67.4071H16.2678L11 33.0984L24.1831 12H55.8169L69 33.0984L63.7322 67.4071ZM53.1694 22.5628H44.7082L45.2814 26.5205H34.7186L35.2918 22.5628H26.8306L21.5355 33.0984L24.1831 54.1967H55.8169L58.4645 33.0984L53.1694 22.5628ZM48.5567 47.2094C47.8198 47.2094 47.2466 45.0259 47.2466 42.2965C47.2466 39.5671 47.8471 37.3835 48.5567 37.3835C49.2936 37.3835 49.8668 39.5671 49.8668 42.2965C49.8668 45.0259 49.2936 47.2094 48.5567 47.2094ZM31.9346 47.6188C31.1976 47.6188 30.6245 45.4353 30.6245 42.7059C30.6245 39.9765 31.2249 37.7929 31.9346 37.7929C32.6715 37.7929 33.2447 39.9765 33.2447 42.7059C33.2447 45.4353 32.6442 47.6188 31.9346 47.6188Z" fill="white"/>
</svg>
