<svg xmlns="http://www.w3.org/2000/svg" viewBox="0 0 80 80">
  <rect width="100%" height="100%" fill="#fff"/>
  <path fill="#00599C" d="M69 28.8v22.4c0 1.7-.5 3.3-1.3 4.8L40 40l27.7-16a9.6 9.6 0 0 1 1.3 4.8Z"/>
  <path fill="#659AD2" d="M67.7 24 40 40 12.3 56a9.5 9.5 0 0 1-1.3-4.8V28.8a9.6 9.6 0 0 1 4.8-8.3L35.2 9.3a9.6 9.6 0 0 1 9.6 0l19.4 11.2c1.5.8 2.7 2 3.5 3.5Z"/>
  <path fill="#004482" d="m40 40 27.7 16c-.8 1.4-2 2.6-3.5 3.5L44.8 70.7a9.6 9.6 0 0 1-9.6 0L15.8 59.5c-1.4-.8-2.6-2-3.5-3.4L40 40Z"/>
  <path fill="#fff" d="M57.4 38.8h2v2.4h-2v2H55v-2h-2v-2.4h2v-2h2.4v2Zm7.9 0h2v2.4h-2v2h-2.5v-2h-2v-2.4h2v-2h2.5v2Z"/>
  <path fill="#fff" d="M56.8 49.7a19.4 19.4 0 1 1 0-19.4l-8.5 4.9a9.6 9.6 0 1 0 0 9.6l8.5 5Z"/>
</svg>