<svg xmlns="http://www.w3.org/2000/svg" viewBox="0 0 80 80"><path d="M50.81 51.64c1.19-.12 2.4-.15 3.57-.36a30.92 30.92 0 0016.06-7.62c1.84-1.71 1.88-2.49.45-4.59a35.55 35.55 0 00-13-11.39C54.39 25.83 50.62 24.52 47 23a5.64 5.64 0 01-.85-.35 53.56 53.56 0 0115.27 3.65 43.8 43.8 0 0115.8 10.29 17.56 17.56 0 011.85 2.28c1.34 2 1.25 3.34-.38 5.15a37.74 37.74 0 01-7.89 6.64 42.94 42.94 0 01-25.42 6.67 29.1 29.1 0 01-11.87-2.9c-9.12-4.51-9.84-15.17-5.72-21.51a14.71 14.71 0 0118.58-5 14.41 14.41 0 017.53 17.24A33.11 33.11 0 0151.5 50a11.44 11.44 0 01-.86 1.24zm-11-19.12a8.52 8.52 0 00-8.49 8.42 8.54 8.54 0 1017.07 0 8.42 8.42 0 00-8.53-8.42z"/><path d="M29.8 57a6.91 6.91 0 01-.91 0C20.75 55.74 13 53.44 6.23 48.51a32 32 0 01-5.05-4.76c-1.59-1.82-1.59-3.27.09-5.11a46.78 46.78 0 016.31-5.88 53 53 0 0123.48-9.84 1.8 1.8 0 011 .09c-.31.14-.61.3-.93.41A50 50 0 0011.58 36c-1 1.07-1.88 2.31-2.83 3.45A2.81 2.81 0 008.63 43a22.48 22.48 0 006.25 6.49 50.22 50.22 0 0013.3 6.7l1.67.57z"/></svg>