<svg xmlns="http://www.w3.org/2000/svg" viewBox="0 0 80 80">
  <rect width="100%" height="100%"/>
  <path fill="#fff" fill-rule="evenodd" d="m51.1 50.6-1.1.1-.2-.4.8-1.1c.9-1.4 1.6-3 2.3-4.5a13.2 13.2 0 0 0-7-15.8 13.7 13.7 0 0 0-17.2 4.6C25 39.3 25.6 49 34 53.3a27 27 0 0 0 11 2.6 39.9 39.9 0 0 0 30.8-12.2c1.5-1.7 1.6-3 .3-4.8-.5-.7-1-1.4-1.7-2a40.5 40.5 0 0 0-14.6-9.5 49.7 49.7 0 0 0-13.3-3l3 1.1c2.4 1 4.8 2 7 3.1 4.9 2.5 9 6 12 10.5 1.4 2 1.4 2.7-.3 4.3a28.7 28.7 0 0 1-14.9 7l-2.2.2ZM34.3 35.4a7.9 7.9 0 0 1 5.5-2.3 7.8 7.8 0 0 1 8 7.7 7.8 7.8 0 0 1-8 8.2 8 8 0 0 1-5.5-13.6Z" clip-rule="evenodd"/>
  <path fill="#fff" d="M29.7 55.6h.9v-.2l-1.5-.5a46.5 46.5 0 0 1-12.3-6.2 20.7 20.7 0 0 1-5.8-6 2.6 2.6 0 0 1 0-3.2 52.9 52.9 0 0 0 2.7-3.2 46.3 46.3 0 0 1 18.7-11.9h.3c-.3-.2-.7-.2-1-.2A49.1 49.1 0 0 0 4.2 38.7c-1.6 1.7-1.6 3-.1 4.7 1.4 1.7 3 3.1 4.7 4.4a46.9 46.9 0 0 0 21 7.8Z"/>
</svg>