<svg viewBox="0 0 80 80" xmlns="http://www.w3.org/2000/svg">
<rect width="100%" height="100%" fill="black"/>
<path d="M72.186 48.3721L63.7209 16.7442C63.7209 16.6512 63.6279 16.5581 63.4419 16.4651L31.7209 8C31.6279 8 31.4419 8 31.3488 8.09303L8.09302 31.2558C8 31.3488 8 31.4419 8 31.6279L16.4651 63.2558C16.4651 63.3488 16.5581 63.4419 16.7442 63.5349L48.4651 72C48.5581 72 48.7442 72 48.8372 71.907L72.093 48.7442C72.186 48.5581 72.2791 48.4651 72.186 48.3721ZM41.1163 23.5349L32.7442 54.6046C32.7442 54.6977 32.6512 54.6977 32.5581 54.6046L9.86046 31.907C9.76744 31.814 9.86046 31.814 9.86046 31.7209L41.0233 23.3488C41.0233 23.4419 41.1163 23.4419 41.1163 23.5349Z" fill="white"/>
</svg>