<svg xmlns="http://www.w3.org/2000/svg" viewBox="0 0 80 80"><defs><style>.d{fill:#fff}</style></defs><path d="M76.25 26v28a11.93 11.93 0 01-1.64 6L40 40l34.62-20a11.94 11.94 0 011.63 6z" fill="#3a0096"/><path d="M74.62 20L40 40 5.41 60a11.92 11.92 0 01-1.66-6V26a12 12 0 016-10.39L34 1.61a12 12 0 0112 0l24.25 14A12 12 0 0174.62 20z" fill="#a178db"/><path d="M40 40l34.61 20a11.94 11.94 0 01-4.36 4.34L46 78.39a12 12 0 01-12 0l-24.25-14a11.83 11.83 0 01-4.34-4.32z" fill="#32007e"/><path class="d" d="M61 52.16a24.23 24.23 0 110-24.27L50.38 34q-.21-.36-.45-.72A12 12 0 1050.36 46z"/><path class="d" d="M60.13 46.03l1.32-12.93h-1.98l-1.32 12.93h1.98zm-4.18 0l1.32-12.93h-1.98l-1.32 12.93h1.98z"/><path class="d" d="M53.04 36.15h9.8v1.91h-9.8zm-.51 4.6h9.8v1.91h-9.8z"/></svg>