<svg xmlns="http://www.w3.org/2000/svg" viewBox="0 0 80 80"><path d="m75.27 0-6.42 71.99L39.96 80l-28.81-8L4.73 0h70.54z" style="fill:#264de4;stroke-width:0"/><path d="m63.35 67.41 5.49-61.52H40v67.99l23.35-6.47z" style="fill:#2965f1;stroke-width:0"/><path d="m19.45 32.59.79 8.83H40v-8.83H19.45zM40 14.72H17.86l.8 8.83H40v-8.83zM40 64.71v-9.18l-.04.01-9.83-2.66-.63-7.04h-8.86l1.23 13.86 18.09 5.03.04-.02z" style="fill:#ebebeb;stroke-width:0"/><path d="m50.85 41.42-1.03 11.46-9.85 2.65v9.19l18.11-5.02.13-1.49 2.07-23.25.22-2.37 1.59-17.87H39.97v8.83h12.45l-.81 9.04H39.97v8.83h10.88z" style="fill:#fff;stroke-width:0"/></svg>