<svg xmlns="http://www.w3.org/2000/svg" viewBox="0 0 80 80">
  <rect width="100%" height="100%" fill="#fff"/>
  <path fill="#264DE4" d="m70 7-5.5 61.2L40 75l-24.5-6.8L10 7h60Z"/>
  <path fill="#2965F1" d="M59.8 64.3 64.5 12H40v57.8l19.8-5.5Z"/>
  <path fill="#EBEBEB" d="m22.5 34.7.7 7.5H40v-7.5H22.5ZM40 19.5H21.2l.7 7.5H40v-7.5ZM40 62v-7.8L31.6 52l-.5-6h-7.6l1 11.8L40 62Z"/>
  <path fill="#fff" d="m49.2 42.2-.9 9.7-8.3 2.3V62l15.4-4.3v-1.2l1.8-19.8.2-2 1.4-15.2H40V27h10.6l-.7 7.7h-10v7.5h9.3Z"/>
</svg>