<svg xmlns="http://www.w3.org/2000/svg" viewBox="0 0 80 80"><defs><style>.a{fill:#01579b}.d{fill:#fff;opacity:.2;isolation:isolate}</style></defs><path class="a" d="M16.32 63.67L2.63 50A9.27 9.27 0 010 43.67 10.57 10.57 0 011.05 40l12.64-26.33z"/><path d="M63.16 16.3L49.48 2.62A9.47 9.47 0 0043.69 0 9.72 9.72 0 0039 1L13.69 13.67zM32.63 79.99h33.16V65.78l-24.74-7.9-22.63 7.9 14.21 14.21z" fill="#40c4ff"/><path d="M13.69 56.3c0 4.22.53 5.26 2.63 7.37l2.1 2.11h47.37L42.63 39.46 13.69 13.67z" fill="#29b6f6"/><path class="a" d="M55.79 13.67h-42.1l52.1 52.1H80V33.14L63.16 16.3c-2.37-2.37-4.47-2.63-7.37-2.63z"/><path class="d" d="M16.84 64.19c-2.1-2.11-2.62-4.19-2.62-7.89V14.2l-.53-.53V56.3c0 3.7 0 4.72 3.15 7.89l1.58 1.58z"/><path style="isolation:isolate" fill="#263238" opacity=".2" d="M79.48 32.62v32.63H65.27l.52.53H80V33.14l-.52-.52z"/><path class="d" d="M63.16 16.3c-2.61-2.61-4.75-2.63-7.89-2.63H13.69l.53.53h41.05c1.57 0 5.53-.27 7.89 2.1z"/></svg>