<svg xmlns="http://www.w3.org/2000/svg" viewBox="0 0 80 80">
  <rect width="100%" height="100%" fill="#fff"/>
  <path fill="#01579B" d="M21 59 10.2 48A7.4 7.4 0 0 1 8 43c.1-1 .4-2 .8-3L19 19l2 40Z"/>
  <path fill="#40C4FF" d="m58.5 21-11-10.9a7.6 7.6 0 0 0-4.5-2c-1.3-.1-2.6.1-3.8.7L19 19 58.5 21ZM34.1 72h26.5V60.6l-19.8-6.3-18 6.3L34 72Z"/>
  <path fill="#29B6F6" d="M19 53c0 3.4.4 4.3 2 6l1.7 1.6h38L42 39.6 19 18.9V53Z"/>
  <path fill="#01579B" d="M52.6 19H19l41.6 41.6H72v-26L58.5 21c-1.9-1.9-3.5-2-5.9-2Z"/>
  <path fill="#fff" d="M21.5 59.4c-1.7-1.7-2.1-3.4-2.1-6.4V19.4l-.4-.5V53c0 3 0 3.8 2.5 6.4l1.2 1.2-1.2-1.2Z" opacity=".2"/>
  <path fill="#263238" d="M71.6 34.1v26.1H60.2l.4.4H72v-26l-.4-.5Z" opacity=".2"/>
  <path fill="#fff" d="M58.5 21c-2-2-3.8-2-6.3-2H19l.4.4h32.8c1.3 0 4.4-.3 6.3 1.6Z" opacity=".2"/>
</svg>