<svg viewBox="0 0 80 80" xmlns="http://www.w3.org/2000/svg">
<rect width="100%" height="100%" fill="white"/>
<path d="M21.0561 58.9422L10.104 48.0061C8.78142 46.649 8.02856 44.8369 8 42.9421C8.0995 41.9206 8.38414 40.9257 8.84 40.0061L18.952 18.942L21.0561 58.9422Z" fill="#01579B"/>
<path d="M58.5273 21.046L47.5833 10.102C46.3268 8.89062 44.6906 8.15023 42.9513 8.00597C41.6534 7.9551 40.3635 8.23013 39.1993 8.80597L18.9512 18.942L58.5273 21.046ZM34.1032 71.9982H60.6313V60.6302L40.8393 54.3102L22.7352 60.6302L34.1032 71.9982V71.9982Z" fill="#40C4FF"/>
<path d="M18.9512 53.0462C18.9512 56.4222 19.3752 57.2542 21.0552 58.9422L22.7352 60.6302H60.6313L42.1033 39.5741L18.9512 18.942V53.0462Z" fill="#29B6F6"/>
<path d="M52.6313 18.942H18.9512L60.6313 60.6222H71.9994V34.5181L58.5273 21.046C56.6313 19.15 54.9513 18.942 52.6313 18.942V18.942Z" fill="#01579B"/>
<path opacity="0.2" d="M21.4712 59.3582C19.7912 57.6702 19.3752 56.0062 19.3752 53.0462V19.366L18.9512 18.942V53.0462C18.9512 56.0062 18.9512 56.8222 21.4712 59.3582L22.7352 60.6222L21.4712 59.3582Z" fill="white"/>
<path opacity="0.2" d="M71.5839 34.1021V60.2062H60.2158L60.6318 60.6302H71.9999V34.5181L71.5839 34.1021Z" fill="#263238"/>
<path opacity="0.2" d="M58.5273 21.046C56.4393 18.958 54.7273 18.942 52.2153 18.942H18.9512L19.3752 19.366H52.2153C53.4713 19.366 56.6393 19.15 58.5273 21.046Z" fill="white"/>
</svg>
