<svg viewBox="0 0 80 80" xmlns="http://www.w3.org/2000/svg">
<rect width="100%" height="100%" fill="white"/>
<path d="M76.5889 16.5323C75.8118 16.1514 75.4772 16.8772 75.0228 17.2459C74.8674 17.3649 74.7359 17.5194 74.6044 17.6621C73.4686 18.8753 72.1417 19.6725 70.4082 19.5772C67.8738 19.4344 65.71 20.2316 63.7971 22.1706C63.3906 19.7796 62.0398 18.3519 59.9835 17.4361C58.9078 16.9602 57.8198 16.4843 57.0666 15.4494C56.5405 14.7121 56.3971 13.8912 56.1341 13.0823C55.9666 12.5946 55.7993 12.0948 55.2374 12.0115C54.6277 11.9165 54.3886 12.4278 54.1494 12.8563C53.1931 14.605 52.8225 16.5321 52.8583 18.483C52.942 22.8726 54.795 26.3697 58.477 28.856C58.8955 29.1416 59.003 29.4269 58.8716 29.8435C58.6205 30.7 58.3216 31.5326 58.0587 32.3891C57.8912 32.9364 57.6401 33.0553 57.0544 32.8172C55.034 31.9728 53.2885 30.7236 51.7463 29.213C49.1283 26.6792 46.7612 23.8837 43.8084 21.6948C43.1151 21.1833 42.4216 20.7076 41.7042 20.2554C38.6916 17.3292 42.0988 14.9261 42.8878 14.6408C43.7126 14.3434 43.1747 13.3202 40.5088 13.3323C37.8428 13.3441 35.404 14.2363 32.2958 15.4259C31.8416 15.6043 31.3632 15.735 30.8731 15.8421C28.0518 15.3069 25.1228 15.1877 22.0624 15.5329C16.3001 16.1752 11.6976 18.8993 8.31439 23.5506C4.24983 29.1416 3.29347 35.4937 4.46507 42.1197C5.69644 49.1023 9.25887 54.8836 14.7343 59.4042C20.4129 64.0909 26.9523 66.3869 34.412 65.9467C38.943 65.6851 43.9879 65.0785 49.6784 60.2607C51.1129 60.9745 52.6193 61.2598 55.1179 61.4739C57.0427 61.6524 58.8957 61.3789 60.3302 61.0816C62.5777 60.6057 62.4224 58.5239 61.6095 58.1433C55.0224 55.0743 56.4688 56.3232 55.1538 55.312C58.5012 51.3509 63.5462 47.2348 65.5187 33.8997C65.6741 32.8411 65.5426 32.1748 65.5187 31.3183C65.5067 30.795 65.6263 30.5929 66.2241 30.5332C67.8738 30.3429 69.4757 29.891 70.9462 29.082C75.2142 26.7506 76.9355 22.9201 77.342 18.3284C77.4019 17.6265 77.3301 16.9007 76.5889 16.5323ZM39.3972 57.8576C33.0133 52.8379 29.9171 51.1842 28.6379 51.2556C27.4424 51.327 27.6576 52.695 27.9205 53.5873C28.1955 54.4674 28.5542 55.0743 29.0562 55.8473C29.4029 56.3589 29.6421 57.1201 28.7096 57.6913C26.6533 58.9641 23.0788 57.2629 22.9113 57.1797C18.7512 54.7291 15.2723 51.4933 12.8214 47.0684C10.4544 42.8095 9.07966 38.2418 8.85242 33.3645C8.79264 32.1869 9.13931 31.7703 10.3109 31.5565C11.8531 31.2709 13.4431 31.2113 14.9853 31.4373C21.5009 32.3891 27.0478 35.3035 31.6982 39.919C34.3521 42.5479 36.3605 45.6885 38.4288 48.7575C40.6284 52.0168 42.9955 55.1218 46.0082 57.6674C47.0721 58.5595 47.9209 59.2375 48.7338 59.7373C46.2832 60.0108 42.1946 60.0705 39.3972 57.8576ZM42.4576 38.1704C42.4576 37.6469 42.8761 37.2307 43.4022 37.2307C43.5218 37.2307 43.6294 37.2542 43.725 37.2898C43.8566 37.3376 43.9762 37.409 44.0717 37.5158C44.2392 37.6826 44.3347 37.9203 44.3347 38.1702C44.3347 38.6937 43.9164 39.1099 43.3905 39.1099C42.8646 39.1099 42.4576 38.6938 42.4576 38.1704ZM51.9618 43.0476C51.3522 43.2975 50.7425 43.5114 50.1567 43.5353C49.2481 43.5828 48.2558 43.214 47.7179 42.762C46.8811 42.0601 46.2833 41.6677 46.0323 40.4424C45.9246 39.919 45.9844 39.11 46.0802 38.6463C46.2953 37.6469 46.0562 37.0047 45.351 36.4216C44.7771 35.9457 44.0478 35.815 43.2468 35.815C42.9479 35.815 42.6731 35.6841 42.4698 35.577C42.135 35.4105 41.8602 34.9942 42.1231 34.4826C42.2068 34.3163 42.6133 33.9117 42.709 33.8404C43.797 33.2217 45.0522 33.424 46.2118 33.8879C47.2879 34.328 48.1008 35.137 49.2722 36.2789C50.4677 37.6587 50.6828 38.0397 51.3643 39.0744C51.9025 39.8833 52.3926 40.7159 52.7272 41.6677C52.9305 42.2626 52.6672 42.7502 51.9618 43.0476Z" fill="#4D6BFE"/>
</svg>
