<svg xmlns="http://www.w3.org/2000/svg" viewBox="0 0 80 80">
  <rect width="100%" height="100%"/>
  <path fill="#fff" d="M15.5 40.4 25 47l1 .7c.2.3.4.7.4 1v3.7a.9.9 0 0 1-1 .8H25L10.2 43l-.9-.8c-.2-.3-.3-.6-.3-1v-1.8c0-.3 0-.7.3-1l1-.8 14.7-10h.5a.9.9 0 0 1 .9.9V32c0 .4-.2.8-.5 1.1l-.9.8-9.5 6.4Zm28.7-17.1c.2-.4.4-.7.7-.9.3-.3.8-.4 1.2-.4h3.2a1 1 0 0 1 .9 1v.3L35.7 57.5l-.6.8a1.7 1.7 0 0 1-1.3.5h-3a.9.9 0 0 1-.7-.3 1 1 0 0 1-.2-1l14.2-34.2ZM55 34l-1-.7a1.5 1.5 0 0 1-.4-1v-3.7a.9.9 0 0 1 1-.9h.1l.3.1 14.8 10 .9.8c.2.3.3.6.3 1v1.8c0 .4 0 .7-.3 1l-1 .8L55 53h-.5a.9.9 0 0 1-.9-.8v-3.6a1.5 1.5 0 0 1 .5-1l.9-.8 9.5-6.5L55 34Z"/>
</svg>