<svg viewBox="0 0 80 80" xmlns="http://www.w3.org/2000/svg">
<rect width="100%" height="100%" fill="black"/>
<path d="M15.5123 40.4275L25.02 46.8505C25.337 47.0783 25.6339 47.3327 25.9074 47.6111C26.1961 47.8879 26.3632 48.2677 26.3723 48.6675V52.2593C26.3752 52.3767 26.3542 52.4934 26.3106 52.6023C26.267 52.7113 26.2018 52.8103 26.1188 52.8933C26.0358 52.9763 25.9368 53.0415 25.8279 53.0851C25.7189 53.1286 25.6022 53.1496 25.4849 53.1467H25.2947C25.1991 53.1232 25.1068 53.0877 25.02 53.0411L10.2302 43.0685C9.89532 42.8643 9.58969 42.6155 9.32173 42.329C9.08766 42.0289 8.97458 41.652 9.00481 41.2726V39.5401C8.97458 39.1607 9.08766 38.7838 9.32173 38.4837C9.58969 38.1972 9.89532 37.9484 10.2302 37.7442L25.02 27.7717C25.1068 27.725 25.1991 27.6896 25.2947 27.666H25.4849C25.6022 27.6631 25.7189 27.6841 25.8279 27.7277C25.9368 27.7712 26.0358 27.8365 26.1188 27.9195C26.2018 28.0025 26.267 28.1014 26.3106 28.2104C26.3542 28.3194 26.3752 28.4361 26.3723 28.5534V32.1452C26.3632 32.545 26.1961 32.9249 25.9074 33.2016C25.6339 33.48 25.337 33.7345 25.02 33.9622L15.5123 40.4275ZM44.2362 23.2713C44.387 22.9428 44.6026 22.6482 44.8701 22.4051C45.2117 22.1186 45.6506 21.9748 46.0955 22.0036H49.2648C49.5105 22.0064 49.7453 22.1052 49.9191 22.279C50.0928 22.4527 50.1917 22.6876 50.1944 22.9333C50.19 23.0642 50.1614 23.1932 50.1099 23.3136L35.7849 57.4991C35.6442 57.8165 35.4433 58.1035 35.1933 58.3443C35.0208 58.4956 34.8198 58.611 34.6021 58.6835C34.3844 58.7561 34.1544 58.7844 33.9256 58.7668H30.8937C30.7716 58.768 30.6505 58.7442 30.5379 58.697C30.4253 58.6498 30.3235 58.5801 30.2387 58.4922C30.1518 58.4067 30.0827 58.3047 30.0356 58.1923C29.9884 58.0798 29.9641 57.9591 29.9641 57.8372C29.9684 57.7063 29.9971 57.5773 30.0486 57.4569L44.2362 23.2713ZM54.98 34.0362C54.663 33.8084 54.3661 33.5539 54.0926 33.2756C53.9478 33.14 53.8319 32.9765 53.752 32.7949C53.6721 32.6134 53.6298 32.4175 53.6277 32.2192V28.6273C53.6248 28.51 53.6458 28.3933 53.6894 28.2844C53.733 28.1754 53.7982 28.0764 53.8812 27.9934C53.9642 27.9104 54.0632 27.8452 54.1721 27.8016C54.2811 27.758 54.3978 27.7371 54.5151 27.74H54.7053C54.8004 27.7652 54.8924 27.8007 54.98 27.8456L69.7697 37.8182C70.1047 38.0224 70.4103 38.2711 70.6783 38.5576C70.9123 38.8577 71.0254 39.2347 70.9952 39.6141V41.3888C71.0254 41.7682 70.9123 42.1452 70.6783 42.4452C70.4103 42.7317 70.1047 42.9805 69.7697 43.1847L54.98 53.0516C54.8924 53.0966 54.8004 53.132 54.7053 53.1573H54.5151C54.3978 53.1602 54.2811 53.1392 54.1721 53.0956C54.0632 53.0521 53.9642 52.9868 53.8812 52.9038C53.7982 52.8208 53.733 52.7219 53.6894 52.6129C53.6458 52.5039 53.6248 52.3872 53.6277 52.2699V48.6781C53.6298 48.4797 53.6721 48.2839 53.752 48.1023C53.8319 47.9207 53.9478 47.7572 54.0926 47.6217C54.3661 47.3433 54.663 47.0888 54.98 46.8611L64.4877 40.4381L54.98 34.0362Z" fill="white"/>
</svg>
