<svg xmlns="http://www.w3.org/2000/svg" viewBox="0 0 80 80">
  <rect width="100%" height="100%" fill="#fff"/>
  <path d="M40 7a33 33 0 1 1 0 66 33 33 0 0 1 0-66Z"/>
  <path fill="#fff" d="M21.6 19.2a1.6 1.6 0 0 1 3 .8l-2.1 8.2a1.6 1.6 0 0 1-3.1-.8l2.2-8.2ZM49.7 20.7a1.6 1.6 0 0 1 3.1.9L51.1 28l-.1-.1a18 18 0 0 0-2.8-1.7l1.5-5.4ZM34.3 10.9l3-.4v.7l-2.2 8.2a1.6 1.6 0 0 1-3-.8l2-7.7h.2ZM57 17.7l.5-1.6.2.1 2.5 2.1v.2a1.6 1.6 0 0 1-3.1-.8ZM44 13.6l.8-2.9h.2l3 .7-.9 3a1.6 1.6 0 0 1-3.1-.7ZM37.3 57.2a1.6 1.6 0 0 1 3-.2V57.6l.1.2V58.1l-2.2 8.1a1.6 1.6 0 0 1-3.1-.8l2.2-8.1ZM23.9 48v-.2c1 .7 1.8 1.3 2.9 1.9l-2 7.3a1.6 1.6 0 0 1-3.1-.8l2.2-8.1ZM16.8 39.5a1.6 1.6 0 0 1 3.1.9l-2.2 8.1a1.6 1.6 0 0 1-3.1-.8l2.2-8.1ZM66 37.7a1.6 1.6 0 0 1 3 .8l-2.2 8.2a1.6 1.6 0 0 1-3-.8l2.1-8.2ZM10.6 36.6c.4-3.8 1.6-7.5 3.4-10.8h.4c.8.2 1.3 1.1 1.1 2l-2.2 8.1a1.6 1.6 0 0 1-2.7.7ZM60.4 27a1.6 1.6 0 0 1 3.1.7L61.3 36a1.6 1.6 0 0 1-3.1-.8l2.2-8.2ZM28.3 61.2a1.6 1.6 0 0 1 3.1.8L30 68l-.3-.1-2.7-1.2 1.4-5.4Z"/>
  <path fill="#fff" fill-rule="evenodd" d="M38.7 25.7c-9.6 0-17 6-17 13.5 0 7.1 6.8 11.7 17.5 11.4.9 0 1.1.6 1.4 1.4a1097.2 1097.2 0 0 0 1.7 8.4l.1.5c.6 2.8 1.1 5.7 1.5 8.5 7-1 13.4-4.4 18.1-9.5L57 41c-1.3-4.5-2.7-8.7-6.6-11.7-3.1-2.4-7-3.7-11.7-3.7Zm2 5.4a2 2 0 1 1 0 4.1 2 2 0 0 1 0-4Z" clip-rule="evenodd"/>
</svg>