<svg viewBox="0 0 80 80" xmlns="http://www.w3.org/2000/svg">
<rect width="100%" height="100%" fill="white"/>
<path d="M40 7C58.2255 7 73 21.7746 73 40C73 58.2255 58.2255 73 40 73C21.7746 73 7 58.2255 7 40C7 21.7746 21.7746 7 40 7Z" fill="black"/>
<path d="M21.5637 19.1865C21.8115 18.3509 22.6821 17.861 23.5282 18.0894C24.3745 18.3177 24.8805 19.1791 24.6742 20.0258L24.6642 20.0649L22.4728 28.186L22.4619 28.2248C22.2142 29.0603 21.3435 29.5502 20.4974 29.3219C19.6511 29.0935 19.1452 28.2322 19.3514 27.3855L19.3615 27.3463L21.5529 19.2252L21.5637 19.1865Z" fill="white"/>
<path d="M49.7209 20.7216C49.9686 19.886 50.8392 19.3962 51.6855 19.6246C52.5318 19.8529 53.0376 20.7142 52.8313 21.5609L52.8214 21.6001L51.0996 27.9802L50.958 27.8745C50.1017 27.2428 49.1914 26.6881 48.2374 26.217L49.7099 20.7604L49.7209 20.7216Z" fill="white"/>
<path d="M34.2894 10.901C35.3023 10.7035 36.3251 10.559 37.3529 10.4681C37.406 10.7077 37.4031 10.9563 37.3448 11.1946L37.3347 11.2338L35.1433 19.3549L35.1325 19.3937C34.8848 20.2293 34.0142 20.7191 33.1679 20.4907C32.3218 20.2624 31.8158 19.4011 32.0219 18.5544L32.032 18.5152L34.0745 10.9438L34.2894 10.901Z" fill="white"/>
<path d="M57.0872 17.6737L57.5177 16.0779L57.708 16.2185C58.5924 16.8782 59.4396 17.5865 60.2455 18.3402L60.1984 18.5133L60.1876 18.5521C59.9399 19.3877 59.0691 19.8775 58.223 19.6491C57.3769 19.4208 56.8709 18.5595 57.077 17.7128L57.0872 17.6737Z" fill="white"/>
<path d="M43.9906 13.6131L44.7678 10.7329L44.9971 10.7709C45.9818 10.938 46.9573 11.1551 47.92 11.4213L47.102 14.4528L47.0912 14.4915C46.8433 15.3271 45.9728 15.817 45.1266 15.5886C44.2803 15.3603 43.7743 14.4989 43.9807 13.6522L43.9906 13.6131Z" fill="white"/>
<path d="M37.2951 57.2438C37.5428 56.4085 38.4134 55.9185 39.2597 56.1467C39.4753 56.2047 39.6766 56.307 39.8504 56.447C40.0244 56.5871 40.1672 56.7618 40.2699 56.96L40.3179 57.1965L40.3938 57.5753L40.4457 57.8385L40.4393 57.8996C40.4316 57.9608 40.4204 58.0222 40.4055 58.0831L40.3953 58.1225L38.2041 66.2436L38.1931 66.2823C37.9454 67.1178 37.0749 67.6078 36.2288 67.3792C35.3824 67.1511 34.8764 66.2895 35.0828 65.443L35.0927 65.4038L37.2841 57.2827L37.2951 57.2438Z" fill="white"/>
<path d="M23.8885 48.0348C23.9154 47.947 23.9493 47.863 23.9893 47.7834C24.8054 48.4981 25.7394 49.1339 26.7801 49.685L24.7931 57.0487L24.7823 57.0876C24.5346 57.9232 23.6639 58.4129 22.8178 58.1845C21.9715 57.9562 21.4655 57.0949 21.6718 56.2483L21.6819 56.2089L23.8733 48.0878L23.8885 48.0348Z" fill="white"/>
<path d="M16.799 39.5413C17.0467 38.7057 17.9173 38.216 18.7636 38.4444C19.6098 38.6727 20.1157 39.534 19.9094 40.3806L19.8993 40.4197L17.7079 48.5408L17.6971 48.5798C17.4494 49.4153 16.5787 49.905 15.7326 49.6767C14.8863 49.4483 14.3804 48.587 14.5866 47.7405L14.5967 47.7013L16.7881 39.5802L16.799 39.5413Z" fill="white"/>
<path d="M65.9358 37.697C66.1833 36.8615 67.0541 36.3717 67.9004 36.6001C68.7465 36.8285 69.2523 37.6898 69.0462 38.5363L69.036 38.5755L66.8446 46.6966L66.8338 46.7355C66.5861 47.5711 65.7156 48.0608 64.8692 47.8324C64.0231 47.6041 63.5171 46.7428 63.7233 45.8962L63.7334 45.857L65.9248 37.736L65.9358 37.697Z" fill="white"/>
<path d="M10.5503 36.5524C10.9873 32.7646 12.1559 29.0977 13.9912 25.7556C14.1197 25.7592 14.2475 25.778 14.3716 25.8115C15.2179 26.0398 15.7238 26.9011 15.5176 27.7478L15.5075 27.787L13.3161 35.9082L13.3052 35.9469C13.0575 36.7825 12.1869 37.2724 11.3406 37.0438C11.0344 36.9618 10.7594 36.7906 10.5503 36.5524Z" fill="white"/>
<path d="M60.3852 26.9085C60.6329 26.0729 61.5037 25.5831 62.3498 25.8115C63.1959 26.0398 63.7019 26.9011 63.4958 27.7478L63.4857 27.787L61.2942 35.9082L61.2835 35.9469C61.0357 36.7825 60.165 37.2724 59.3189 37.0438C58.4725 36.8157 57.9667 35.9542 58.1729 35.1076L58.183 35.0685L60.3744 26.9473L60.3852 26.9085Z" fill="white"/>
<path d="M28.3199 61.1756C28.5675 60.3401 29.4382 59.8504 30.2844 60.0785C31.1307 60.3066 31.6365 61.1682 31.4303 62.0149L31.4202 62.0541L29.8518 67.8661L29.6327 67.7853C28.6884 67.4327 27.7628 67.032 26.8596 66.5846L28.3089 61.2144L28.3199 61.1756Z" fill="white"/>
<path fill-rule="evenodd" clip-rule="evenodd" d="M38.711 25.6798C29.1148 25.6798 21.6501 31.721 21.6501 39.2337C21.6501 46.3292 28.5187 50.8596 39.1664 50.6328C40.0719 50.6135 40.3337 51.2218 40.6283 52.0415C40.8759 52.73 41.4742 55.8879 42.0335 58.8393L42.034 58.8421C42.1404 59.4036 42.2454 59.9577 42.3463 60.4857L42.4278 60.9123C42.9661 63.7286 43.5063 66.5547 43.9234 69.3911C50.8765 68.472 57.3058 65.0375 62.0167 59.8574L56.9921 41.1194C55.7396 36.594 54.2758 32.4241 50.4022 29.3947C47.2859 26.9577 43.3268 25.6798 38.711 25.6798ZM40.7736 31.1054C41.9127 31.1054 42.8361 32.0287 42.8361 33.1679C42.8361 34.3071 41.9127 35.2304 40.7736 35.2304C39.6344 35.2304 38.7111 34.3071 38.7111 33.1679C38.7111 32.0287 39.6344 31.1054 40.7736 31.1054Z" fill="white"/>
</svg>
