<svg viewBox="0 0 80 80" xmlns="http://www.w3.org/2000/svg">
  <rect width="100%" height="100%" fill="white"/>
  <path d="M40 9C40.8564 9.0009 41.7189 9.03364 42.5866 9.09938C46.7016 9.41144 50.5902 10.4404 54.1376 12.0536C56.9993 13.3563 59.648 15.0422 62.0171 17.0449C67.968 22.0801 72.1182 29.0941 73.4984 36.965C73.8282 38.8516 74 40.7917 74 42.7714C73.9993 43.6234 73.9661 44.4814 73.8997 45.3446C73.649 48.6068 72.9385 51.7259 71.8362 54.6438C70.2976 58.708 67.992 62.4006 65.0954 65.5473C61.3278 69.3682 56.5401 71.0686 52.5414 70.9979C49.6337 70.9463 46.7887 69.7972 44.8228 68.1158C42.0143 65.7137 40.8799 62.9676 40.491 59.9036C40.3944 59.1419 40.4511 57.0666 40.8502 55.6295C41.1476 54.5583 41.902 52.4894 43.0052 51.5845C41.7147 51.0325 40.0537 49.8303 39.5301 49.2532C39.4013 49.1114 39.4182 48.8892 39.5334 48.7363C39.6487 48.5837 39.8506 48.5233 40.0317 48.5879C41.1412 48.9661 42.4925 49.3391 43.9174 49.576C45.7913 49.8872 48.1217 50.2791 50.4825 50.3944C56.2388 50.6751 62.2516 48.1088 64.1178 43.0027C65.9838 37.8966 65.2597 32.8459 58.5652 29.8166C51.8705 26.787 48.7779 23.1849 43.3689 21.0125C39.8358 19.5934 35.9034 20.4357 31.8661 22.6518C20.9917 28.621 11.249 47.4812 15.7401 64.9545C15.8042 65.1936 15.696 65.4453 15.4777 65.5644C15.2731 65.6759 15.0213 65.6441 14.8517 65.4899C13.5448 64.0633 12.3588 62.5256 11.3104 60.8921C10.4994 59.6282 9.77144 58.3084 9.13313 56.941C7.12234 52.631 6 47.8305 6 42.7714C6 41.4622 6.07538 40.17 6.22158 38.8995C6.37005 37.6155 6.59007 36.3556 6.87725 35.1232C8.49116 28.2102 12.2449 22.1078 17.4067 17.5431C21.7422 13.7142 27.0534 10.9821 32.8758 9.74383C35.1735 9.25639 37.5567 9 40 9Z" fill="black"/>
  <path d="M38.783 23.3567C40.6172 23.214 42.2175 24.7689 42.4934 26.8369C42.8615 29.5916 41.8435 32.4372 38.4965 32.5027C35.6373 32.5595 34.7708 29.6954 34.9603 27.9604C35.1485 26.2254 36.5884 23.5279 38.783 23.3567Z" fill="black"/>
</svg>
