<svg viewBox="0 0 80 80" xmlns="http://www.w3.org/2000/svg">
<rect width="100%" height="100%" fill="#113228"/>
<path fill-rule="evenodd" clip-rule="evenodd" d="M44.863 12H34.7752V27.2356C33.4179 26.8953 32.023 26.7279 30.6238 26.7374C28.3745 26.5574 26.1128 26.8594 23.9896 27.6233C21.8664 28.3872 19.9307 29.5954 18.3117 31.1672C16.6928 32.7389 15.4279 34.6381 14.6016 36.7378C13.7753 38.8375 13.4066 41.0894 13.5201 43.343C13.5201 53.846 19.8302 59.3258 31.9522 59.3258C36.2913 59.3105 40.6174 58.8514 44.863 57.9558V12ZM31.5371 34.625C32.7086 34.6584 33.8634 34.9119 34.9412 35.3723L34.8997 50.9815C33.7596 51.1563 32.6074 51.2396 31.4541 51.2306C30.3566 51.3389 29.249 51.1944 28.2161 50.8084C27.1831 50.4223 26.2522 49.8049 25.4948 49.0034C24.7374 48.2019 24.1736 47.2376 23.8465 46.1845C23.5195 45.1314 23.4378 44.0174 23.6079 42.9278C23.4912 41.841 23.6129 40.7417 23.9647 39.7068C24.3165 38.6718 24.8899 37.7261 25.6449 36.9355C26.3998 36.145 27.3182 35.5287 28.3359 35.1297C29.3535 34.7306 30.446 34.5584 31.5371 34.625Z" fill="white"/>
<path d="M60.5965 50.3588V27.3601H50.7162V46.9547C50.7162 55.5896 50.2595 58.8691 48.8481 61.6921C47.1448 64.8008 44.3492 67.1675 41.002 68.3343L50.218 72.7348C53.6808 71.305 56.5313 68.7043 58.2717 65.3868C60.2938 60.6515 61.0932 55.4838 60.5965 50.3588Z" fill="white"/>
<path d="M60.5965 12.083H50.7162V22.2539H60.5965V12.083Z" fill="white"/>
</svg>
