<svg xmlns="http://www.w3.org/2000/svg" viewBox="0 0 80 80">
  <rect width="100%" height="100%" fill="#113228"/>
  <path fill="#fff" fill-rule="evenodd" d="M45.5 12h-9.7v14.5c-1.3-.3-2.6-.4-4-.4a15.1 15.1 0 0 0-16.3 15.8c0 10 6 15.3 17.6 15.3 4.2 0 8.3-.5 12.4-1.3V12ZM32.7 33.6a9 9 0 0 1 3.3.7v15l-3.4.2a6.9 6.9 0 0 1-7.4-8 7.2 7.2 0 0 1 7.5-7.9Z" clip-rule="evenodd"/>
  <path fill="#fff" d="M60.5 48.6v-22H51v18.8c0 8.2-.4 11.4-1.7 14-1.7 3-4.3 5.3-7.5 6.4l8.8 4.2c3.3-1.4 6-3.8 7.7-7 1.9-4.5 2.7-9.5 2.2-14.4ZM60.5 12H51v9.8h9.5V12Z"/>
</svg>