<svg xmlns="http://www.w3.org/2000/svg" viewBox="0 0 80 80">
  <rect width="100%" height="100%" fill="#fff"/>
  <path fill="#6D429C" d="M63.7 63.3A33 33 0 0 1 17 16.6l46.7 46.7Z"/>
  <path fill="#5C2D91" d="M63.7 63.4A33 33 0 1 0 17 16.7l46.7 46.7Z"/>
  <path fill="#FEFEFE" d="M34.3 32v-5.5h2.2v18.7H34a.4.4 0 0 1-.4-.2l-9.4-14.7c-.3-.3-.4-.7-.6-1l-.1-.3V45.2h-2.1V26.5h2.5a.4.4 0 0 1 .5.2l7.3 11.5a1066.8 1066.8 0 0 1 2.7 4.2V32.3l-.1-.2Zm7 7.2V26.5H51v2h-7.3v6.2h6.8v2h-6.8v6.5h7.8v2h-10v-6Zm12.1 16.4h-4.3v.4a1.8 1.8 0 0 0 2 1.7c.6 0 1.3-.3 1.8-.7v.8l-.1.2a3 3 0 0 1-1.4.5h-1.2a2.3 2.3 0 0 1-1.8-1.3 3.9 3.9 0 0 1 0-3.5A2.7 2.7 0 0 1 51 52a2.2 2.2 0 0 1 2 1.3c.2.5.3 1 .3 1.6v.7Zm-4.3-.9h3.3c0-.4 0-.7-.3-1a1.3 1.3 0 0 0-.8-.7 1.8 1.8 0 0 0-2.2 1.7Zm-13.8 2.4v.8c0 .2-.1.2-.2.3-.8.3-1.7.4-2.6.3-1 0-1.8-.4-2.4-1-.5-.5-.9-1-1-1.8a5 5 0 0 1 .2-3.6 4.1 4.1 0 0 1 3.9-2.4c.6 0 1.2 0 1.8.2l.3.1v1l-.3-.1a4 4 0 0 0-2.5-.3 3.1 3.1 0 0 0-2.4 2.3 4 4 0 0 0 .5 3.5 2.8 2.8 0 0 0 2.1 1.2c.9.1 1.8 0 2.5-.4h.1Zm7.3-1.9a3.4 3.4 0 0 1-1.7 3c-.3.2-.7.3-1 .3a3 3 0 0 1-3.3-2.4 4 4 0 0 1 .2-2.3 2.8 2.8 0 0 1 2.4-1.8c.5 0 1 0 1.4.2a2.7 2.7 0 0 1 1.9 2.1l.1.9Zm-1 .1V55c0-.6-.3-1.2-.7-1.7a2 2 0 0 0-3 .5 3 3 0 0 0-.2 2.7 2 2 0 0 0 3 .8c.3 0 .4-.3.5-.5.3-.4.4-1 .4-1.5Zm3.6 3h-1v-6h1v1a1.9 1.9 0 0 1 1.2-1.1h1v1h-.2a1.3 1.3 0 0 0-1.6.5c-.3.4-.4 1-.4 1.5v3.2ZM17.5 44.2a1.5 1.5 0 1 1-3 0 1.5 1.5 0 1 1 3 0Zm41-15.7H53v-2h13v2h-5.5v16.8h-2.1V28.4Z"/>
</svg>