<svg viewBox="0 0 80 80" xmlns="http://www.w3.org/2000/svg">
<rect width="100%" height="100%" fill="white"/>
<path d="M28.396 31.183C31.135 39.5589 32.1727 54.5006 40.1819 54.5006C40.7918 54.5006 41.4078 54.441 42.0263 54.3234C34.7455 52.6257 33.8826 37.8465 29.4398 30.1929C29.0914 30.5095 28.7455 30.8395 28.396 31.183Z" fill="url(#paint0_linear_30_799)"/>
<path d="M29.4399 30.1929C33.8827 37.8465 34.7456 52.6257 42.0264 54.3234C42.5984 54.2183 43.1717 54.0594 43.7461 53.8589C37.2109 50.6567 35.4044 36.3053 30.359 29.396C30.0535 29.6503 29.7467 29.9168 29.4399 30.1929Z" fill="url(#paint1_linear_30_799)"/>
<path d="M35.8412 25.6411C35.2325 25.6411 34.6152 25.7008 33.9956 25.8184C32.3749 26.124 30.7286 26.8218 29.0688 27.8778C29.5223 28.3251 29.9536 28.8372 30.3594 29.3958C32.0473 27.9951 33.7243 26.9599 35.3951 26.3378C36.022 26.1056 36.6467 25.9308 37.2736 25.816C36.8214 25.701 36.3447 25.6411 35.8412 25.6411Z" fill="#14559A"/>
<path d="M48.8475 50.9072C49.516 50.3756 50.1858 49.7877 50.8568 49.146C48.0738 40.8092 47.0777 25.6536 39.0122 25.6536C38.4353 25.6536 37.8535 25.7074 37.2729 25.8149C44.6198 27.6422 45.5609 43.6264 48.8475 50.9072Z" fill="url(#paint2_linear_30_799)"/>
<path d="M37.2733 25.8153C36.821 25.7004 36.3444 25.6406 35.8408 25.6406L39.0125 25.6522C38.4356 25.6522 37.8538 25.706 37.2733 25.8149" fill="#3092C4"/>
<path d="M48.7066 52.6782C48.3913 52.3776 48.0919 52.0476 47.7973 51.6956C46.4406 52.6562 45.0888 53.3847 43.7456 53.8589C44.2234 54.0924 44.7245 54.266 45.2563 54.3735C45.6681 54.4576 46.0947 54.5006 46.5432 54.5006C48.0503 54.5006 49.2419 54.3222 50.2564 53.8357C49.6978 53.5338 49.1857 53.1427 48.7066 52.6782Z" fill="#1969BC"/>
<path d="M35.3945 26.3393C41.975 29.7811 42.547 45.3669 47.7977 51.6956C48.1497 51.4476 48.498 51.1847 48.8463 50.9072C45.5598 43.6265 44.6199 27.6409 37.2743 25.8149C36.6473 25.9323 36.0215 26.1059 35.3945 26.3393Z" fill="url(#paint3_linear_30_799)"/>
<path d="M30.3589 29.3961C35.4042 36.3054 37.2107 50.6568 43.7459 53.859C45.0892 53.3848 46.4409 52.6563 47.7976 51.6957C42.5469 45.367 41.9749 29.7811 35.3945 26.3394C33.7237 26.9602 32.0468 27.9954 30.3589 29.3961Z" fill="url(#paint4_linear_30_799)"/>
<path d="M25.168 30.9813C24.3772 32.7695 23.5693 35.1198 22.5928 38.1876C24.5349 35.451 26.4709 33.0933 28.3959 31.1831C28.1307 30.3678 27.8459 29.6161 27.5391 28.9463C26.752 29.5489 25.9588 30.2273 25.168 30.9813Z" fill="url(#paint5_linear_30_799)"/>
<path d="M28.2403 28.4307C28.0081 28.5969 27.7747 28.7668 27.54 28.9465C27.8468 29.6162 28.1303 30.3679 28.3956 31.1831C28.7451 30.8409 29.0922 30.5097 29.4393 30.1931C29.0665 29.5526 28.6706 28.9611 28.2403 28.4307Z" fill="#2B74B1"/>
<path d="M29.0689 27.8779C28.7927 28.0528 28.5177 28.2373 28.2402 28.4304C28.6704 28.9608 29.0664 29.5524 29.4405 30.1941C29.7473 29.9166 30.054 29.649 30.3596 29.3959C29.9538 28.8374 29.5224 28.3253 29.0689 27.8779Z" fill="#125A9E"/>
<path d="M73.9536 25.0034C70.2319 39.3559 62.4585 50.884 55.9416 53.7904H55.9293C55.8107 53.8442 55.6934 53.8931 55.5773 53.9407C55.5613 53.9504 55.5468 53.9516 55.5344 53.9574C55.5002 53.9712 55.4684 53.9819 55.4342 53.9956C55.4182 54.0053 55.4037 54.0084 55.3891 54.0142C55.3341 54.0338 55.2803 54.0504 55.2265 54.0719C55.2033 54.0816 55.1813 54.0876 55.1592 54.0954C55.1348 54.1051 55.1066 54.114 55.0785 54.1218C55.0541 54.1315 55.0285 54.1385 55.0003 54.1492C54.9771 54.1589 54.9526 54.163 54.9307 54.1726C54.883 54.1864 54.8391 54.1981 54.7914 54.2147C54.7718 54.2147 54.7535 54.2253 54.7327 54.2304C54.7034 54.2401 54.6703 54.2471 54.6386 54.2558C54.6165 54.2655 54.5983 54.2687 54.575 54.2735C54.5419 54.2832 54.5053 54.2922 54.4723 54.2999C54.4283 54.3096 54.3892 54.3186 54.3477 54.3273C54.6422 54.4361 54.949 54.4911 55.2802 54.4911C61.4598 54.4911 67.6906 43.4165 78.0002 25H73.9521L73.9536 25.0034Z" fill="url(#paint6_linear_30_799)"/>
<path d="M21.2509 26.2236C21.2548 26.2236 21.2596 26.2139 21.262 26.2139C21.2668 26.2139 21.2744 26.2139 21.2768 26.2042C21.2768 26.2042 21.2816 26.2042 21.2845 26.2042C21.3187 26.1926 21.3505 26.1788 21.3847 26.1661C21.3934 26.1661 21.398 26.1661 21.4043 26.1564C21.4131 26.1564 21.4215 26.1467 21.4301 26.1455C21.4667 26.1339 21.5034 26.1201 21.5376 26.1074C21.5376 26.1074 21.5415 26.1074 21.5434 26.1074C21.6254 26.083 21.7011 26.0526 21.7805 26.0243C21.7917 26.0243 21.8026 26.0146 21.8159 26.0146C21.849 26.0039 21.8832 25.9921 21.9174 25.9843C21.9334 25.9746 21.9492 25.9746 21.9638 25.9695C21.9992 25.9589 22.0336 25.947 22.0665 25.9392C22.0813 25.9392 22.0947 25.9295 22.1056 25.9285C22.2193 25.8973 22.3317 25.8679 22.4454 25.8405C22.4614 25.8405 22.4747 25.8309 22.4918 25.8299C22.5248 25.8202 22.5554 25.8151 22.5908 25.8103C22.6056 25.8006 22.6226 25.8006 22.6397 25.7955C22.6727 25.7858 22.7044 25.7849 22.7399 25.7769C22.7487 25.7769 22.7533 25.7769 22.7632 25.7769C22.8316 25.7631 22.9013 25.7515 22.9698 25.7387C22.9821 25.7387 22.9978 25.7387 23.0113 25.7387C23.0443 25.7291 23.0736 25.7281 23.1067 25.722C23.1248 25.722 23.1433 25.7124 23.1604 25.7124C23.1909 25.7124 23.2215 25.7027 23.252 25.6986C23.268 25.6986 23.2838 25.6985 23.3022 25.6889C23.3743 25.6792 23.4488 25.6753 23.5246 25.6692C23.3107 25.6487 23.0908 25.635 22.8671 25.635C15.9077 25.635 6.31935 38.5478 2 55.2703C2 55.2703 2.31534 55.2703 2.83234 55.2703C4.21468 52.8051 5.45646 50.4731 6.59191 48.2841C9.61692 36.4395 15.7782 28.3617 21.2513 26.2217" fill="url(#paint7_linear_30_799)"/>
<path d="M25.168 30.9812C25.9588 30.2271 26.752 29.5487 27.5391 28.9462C27.3595 28.5527 27.1737 28.1884 26.9744 27.8547C26.3377 28.6272 25.7559 29.6465 25.168 30.9812Z" fill="#0D82CA"/>
<path d="M25.7399 26.3216C26.1945 26.7029 26.6015 27.2273 26.9743 27.8555C27.0916 27.7113 27.2102 27.578 27.3336 27.4533C26.8167 26.9706 26.2581 26.5746 25.6519 26.2764C25.6763 26.2899 25.7007 26.3008 25.7262 26.3116C25.7262 26.3116 25.7358 26.3213 25.74 26.3213" fill="#0D82CA"/>
<path d="M6.59155 48.2856C12.9374 36.0572 15.944 28.318 21.251 26.2231C15.779 28.3646 9.61656 36.4422 6.59155 48.2856Z" fill="url(#paint8_linear_30_799)"/>
<path d="M27.3335 27.4531C27.2101 27.5791 27.0927 27.7111 26.9741 27.8553C27.1734 28.1889 27.3591 28.5519 27.5401 28.9467C27.7747 28.7671 28.0081 28.5971 28.2404 28.4309C27.9532 28.0765 27.6501 27.7477 27.3335 27.4531Z" fill="#127BCA"/>
<path d="M9.47237 55.2168C9.43326 55.2264 9.39415 55.2264 9.35748 55.2306C9.34525 55.2306 9.34281 55.2306 9.33548 55.2306C9.30243 55.2306 9.2682 55.2402 9.23769 55.2402C9.23769 55.2402 9.22547 55.2402 9.22176 55.2402C9.14237 55.2499 9.0641 55.2499 8.98832 55.256H8.96387C15.3867 55.0763 18.3225 51.8605 19.7794 47.1965C20.8867 43.6606 21.796 40.682 22.5929 38.1826C19.9028 41.9691 17.2004 46.4827 14.4834 51.5391C13.1732 53.9762 11.181 54.9943 9.47232 55.2119" fill="url(#paint9_linear_30_799)"/>
<path d="M9.47241 55.2143C11.1811 54.9967 13.1733 53.9798 14.4835 51.5415C17.2005 46.4864 19.9041 41.9715 22.5918 38.185C23.5696 35.1159 24.3763 32.7669 25.1683 30.9788C19.8112 36.0779 14.4334 44.5565 9.47241 55.2119" fill="url(#paint10_linear_30_799)"/>
<path d="M6.59137 48.2859C5.45597 50.4749 4.21418 52.807 2.83179 55.2721C3.42951 55.2721 4.29485 55.2721 5.25308 55.2721C5.5733 52.824 6.02797 50.4895 6.59137 48.2871" fill="#05A1E6"/>
<path d="M23.3018 25.6953C23.2822 25.6953 23.2675 25.7049 23.2505 25.7049C23.2211 25.7146 23.1905 25.7146 23.16 25.7178C23.1418 25.7178 23.1246 25.7178 23.1062 25.7275C23.0732 25.7372 23.0427 25.7381 23.0109 25.7442C22.9961 25.7442 22.9816 25.7442 22.9693 25.7539C22.8996 25.7655 22.8312 25.7783 22.7628 25.79C22.7507 25.79 22.7468 25.79 22.7395 25.79C22.7041 25.7997 22.6723 25.8048 22.6393 25.8096C22.6221 25.8193 22.6051 25.8193 22.5891 25.8232C22.5562 25.8329 22.5231 25.837 22.4914 25.8428C22.4742 25.8525 22.4609 25.8525 22.4449 25.8535C22.3313 25.8808 22.2188 25.9102 22.1051 25.9415C22.093 25.9415 22.0807 25.9512 22.066 25.9531C22.0318 25.9628 21.9988 25.9727 21.9634 25.9834C21.9486 25.9931 21.9316 25.9931 21.9169 25.9969C21.8827 26.0066 21.8485 26.0166 21.8155 26.0273C21.8022 26.0273 21.791 26.037 21.7788 26.037C21.7006 26.0663 21.6236 26.0956 21.5429 26.1201C21.5087 26.1307 21.472 26.1445 21.4354 26.1572C21.4206 26.1669 21.4072 26.1691 21.3902 26.1758C21.356 26.1865 21.3217 26.2003 21.29 26.213C21.2778 26.2227 21.2655 26.2237 21.257 26.2287C15.9501 28.3236 12.9434 36.0628 6.59761 48.2912C6.03417 50.4937 5.57828 52.8281 5.25928 55.2762H5.59906C6.55606 55.2762 6.82618 55.2665 7.92741 55.2665H7.98362H8.1474H8.20363H8.21956H8.27577H8.30756H8.32956H8.37356H8.51045H8.64734H8.76223H8.79273C8.85873 55.2665 8.92596 55.2665 8.9944 55.2665C9.07018 55.2569 9.14841 55.2569 9.22786 55.2508C9.22786 55.2508 9.24008 55.2508 9.24253 55.2508C9.27558 55.2508 9.30852 55.2411 9.3403 55.2411C9.35252 55.2411 9.35369 55.2411 9.36347 55.2411C9.39886 55.2411 9.43925 55.2314 9.47836 55.2273C14.4394 44.5719 19.8172 36.0933 25.1742 30.9942C25.7633 29.6595 26.3439 28.6402 26.9795 27.869C26.6079 27.2408 26.2009 26.7152 25.7462 26.3338C25.7462 26.3338 25.7339 26.3338 25.7329 26.3241C25.7072 26.3134 25.6829 26.3006 25.6571 26.2879C25.6314 26.2741 25.6094 26.2635 25.5826 26.2498C25.5594 26.2401 25.5325 26.2273 25.5093 26.2146C25.4775 26.2049 25.4518 26.1911 25.4237 26.1784C25.4005 26.1687 25.3797 26.1588 25.3564 26.1491C25.3087 26.1304 25.2611 26.1109 25.2159 26.0904C25.1951 26.0807 25.1756 26.0757 25.1559 26.0679C25.123 26.056 25.0851 26.0405 25.0508 26.0259C25.0337 26.0162 25.0142 26.0142 24.9946 26.0072C24.9446 25.9905 24.8956 25.973 24.8492 25.9573C24.8371 25.9573 24.8371 25.9573 24.8371 25.9573C24.7808 25.9387 24.7258 25.9251 24.6684 25.9094C24.6551 25.8997 24.6439 25.8997 24.6305 25.8978C24.5804 25.884 24.5364 25.8704 24.4888 25.8577C24.4767 25.8577 24.4655 25.848 24.4558 25.848C24.3409 25.8177 24.2224 25.7933 24.1026 25.7708C24.0903 25.7708 24.0782 25.7611 24.0659 25.7611C24.0146 25.7514 23.9645 25.7424 23.9132 25.7366C23.9008 25.7269 23.8936 25.727 23.8827 25.727C23.8216 25.7173 23.7617 25.7102 23.7018 25.7035C23.6896 25.7035 23.6809 25.7035 23.67 25.7035C23.6211 25.6938 23.5759 25.6928 23.5307 25.6877C23.4536 25.6974 23.3803 25.7015 23.3082 25.7083" fill="url(#paint11_linear_30_799)"/>
<path d="M59.4164 32.949C58.1954 36.8601 57.2066 40.0868 56.3462 42.7415C59.6963 38.1313 62.9963 32.3317 66.1387 25.6389C62.4732 26.7901 60.5176 29.4254 59.4164 32.949Z" fill="url(#paint12_linear_30_799)"/>
<path d="M56.4523 53.5461C56.2812 53.6331 56.1101 53.7159 55.9414 53.7905C62.4583 50.884 70.2317 39.356 73.9534 25.0034H73.1992C64.6486 40.2775 61.8986 50.5027 56.4523 53.5461Z" fill="url(#paint13_linear_30_799)"/>
<path d="M52.1969 52.2628C53.6147 50.5322 54.7696 47.5903 56.3464 42.7417C54.5276 45.2399 52.6968 47.3874 50.8647 49.1388C50.8647 49.1485 50.8647 49.1485 50.855 49.1546C51.2547 50.3524 51.6934 51.4095 52.1934 52.2626" fill="#079AE1"/>
<path d="M52.1968 52.2627C51.714 52.8518 51.2031 53.3004 50.6348 53.6329C50.5101 53.7053 50.3843 53.7734 50.2559 53.8358C50.856 54.1596 51.5111 54.376 52.2444 54.4627C52.3518 54.4734 52.4582 54.4833 52.5695 54.4911H52.5891C52.639 54.4911 52.6918 54.4911 52.7456 54.5008H52.7671C52.8209 54.5008 52.8748 54.5008 52.9273 54.5008C52.985 54.5008 53.0422 54.5008 53.0997 54.5008C53.1183 54.5008 53.1359 54.5008 53.1535 54.5008C53.1926 54.5008 53.2346 54.5008 53.2757 54.5008C53.2953 54.5008 53.3158 54.5008 53.3353 54.4911C53.3735 54.4911 53.4135 54.4911 53.4526 54.4814C53.4623 54.4814 53.4623 54.4814 53.4664 54.4814C53.4822 54.4814 53.4958 54.4814 53.5104 54.4814C53.5505 54.4814 53.5945 54.4717 53.6376 54.4676H53.6472C53.6601 54.4676 53.6736 54.4579 53.6863 54.4579C53.7313 54.4482 53.7783 54.4441 53.8221 54.4373C53.8368 54.4373 53.8475 54.4373 53.8622 54.4373C53.912 54.4276 53.9636 54.4216 54.0149 54.4119H54.0246C54.0343 54.4119 54.0352 54.4119 54.0393 54.4119C54.142 54.3923 54.2422 54.3728 54.3436 54.3474C53.5027 54.0394 52.7987 53.3134 52.1925 52.2794" fill="#1969BC"/>
<path d="M40.1821 54.5009C40.7921 54.5009 41.4081 54.4412 42.0265 54.3224C42.5985 54.2186 43.1717 54.0596 43.7462 53.8591C44.2241 54.0926 44.7252 54.2662 45.2556 54.3737C45.6675 54.4578 46.0952 54.5009 46.5439 54.5009H40.1821Z" fill="#1E5CB3"/>
<path d="M46.5439 54.5008C48.0496 54.5008 49.2425 54.3224 50.2558 53.8359C50.8559 54.1598 51.511 54.3762 52.2443 54.463C52.3519 54.4736 52.4583 54.4835 52.5694 54.4913H52.5891C52.6389 54.4913 52.6917 54.4913 52.7455 54.501H52.768C52.8218 54.501 52.8756 54.501 52.9282 54.501H46.5396L46.5439 54.5008Z" fill="#1E5CB3"/>
<path d="M52.9321 54.5007C52.9908 54.5007 53.0483 54.5007 53.1057 54.5007C53.1224 54.5007 53.1419 54.5007 53.1595 54.5007C53.1986 54.5007 53.2387 54.5007 53.2805 54.5007C53.3011 54.5007 53.3206 54.5007 53.3402 54.491C53.3783 54.491 53.4184 54.491 53.4588 54.4814C53.4685 54.4814 53.4684 54.4814 53.4716 54.4814C53.4873 54.4814 53.5019 54.4814 53.5166 54.4814C53.5566 54.4814 53.6007 54.4717 53.6425 54.4678C53.6425 54.4678 53.6522 54.4678 53.6532 54.4678C53.666 54.4678 53.6786 54.4581 53.6913 54.4581C53.7363 54.4484 53.7832 54.4446 53.8269 54.4376C53.8417 54.4376 53.8533 54.4375 53.869 54.4279C53.9188 54.4182 53.9705 54.4131 54.0218 54.4034H54.0315C54.0412 54.4034 54.0421 54.4034 54.0463 54.4034C54.1489 54.3838 54.2492 54.3643 54.3506 54.3389C54.6451 54.4476 54.9519 54.5027 55.283 54.5027L52.9339 54.5124L52.9321 54.5007Z" fill="#1D60B5"/>
<path d="M50.859 49.1547V49.145C50.188 49.7866 49.5182 50.3746 48.8496 50.9062C48.5001 51.1837 48.1518 51.4464 47.7998 51.6946C48.0943 52.0466 48.3938 52.3766 48.7091 52.6773C49.1882 53.1416 49.7003 53.5328 50.2589 53.8347C50.386 53.7721 50.5131 53.7038 50.6365 53.6318C51.2061 53.2993 51.717 52.8508 52.1998 52.2617C51.6999 51.4086 51.2611 50.3513 50.8614 49.1536" fill="#175FAB"/>
<path d="M70.8112 25.0034H67.6408C67.5344 25.0034 67.4292 25.0034 67.3254 25.0034C67.2239 25.0034 67.1261 25.0034 67.0272 25.0034H67.0155C66.8102 25.0131 66.6111 25.0201 66.4142 25.0328C66.3213 25.2321 66.226 25.4313 66.1343 25.6318C62.992 32.3246 59.692 38.1241 56.3419 42.7343C54.7664 47.5829 53.6102 50.5248 52.1924 52.2555C52.7986 53.2895 53.5039 54.0166 54.3423 54.3247C54.3668 54.315 54.3863 54.315 54.4083 54.3099C54.4083 54.3099 54.4204 54.3099 54.4219 54.3099C54.4366 54.3099 54.4524 54.3002 54.4683 54.3002C54.5025 54.2905 54.5392 54.2845 54.5734 54.2738C54.5954 54.2641 54.6137 54.2632 54.6358 54.2562C54.6676 54.2465 54.7005 54.2395 54.7299 54.2317C54.7495 54.222 54.769 54.2189 54.7885 54.215C54.8374 54.1993 54.8814 54.1876 54.9279 54.1729C54.9499 54.1632 54.9731 54.1553 54.9976 54.1495C55.0245 54.1398 55.0513 54.1327 55.0758 54.1211C55.104 54.1114 55.132 54.1063 55.1565 54.0957C55.1785 54.086 55.2017 54.0799 55.2225 54.0712C55.2774 54.0516 55.3313 54.0351 55.3862 54.0135C55.401 54.0135 55.4156 54 55.4315 53.9968C55.4645 53.983 55.4987 53.9724 55.5317 53.9577C55.5438 53.948 55.5586 53.947 55.5744 53.942C55.6894 53.894 55.8079 53.8452 55.9265 53.7917H55.9388C56.1075 53.7174 56.2786 53.634 56.4485 53.5473C61.896 50.5039 64.646 40.2787 73.1967 25.0046H70.8085L70.8112 25.0034Z" fill="url(#paint14_linear_30_799)"/>
<path d="M23.5244 25.6746C23.538 25.6746 23.5501 25.6747 23.5635 25.6843C23.5965 25.6843 23.6295 25.6843 23.6625 25.695C23.6748 25.695 23.6858 25.695 23.6956 25.695C23.7554 25.7047 23.8153 25.7098 23.8764 25.7185C23.8876 25.7185 23.8973 25.7185 23.9069 25.7282C23.957 25.7379 24.0084 25.7458 24.0597 25.7536C24.0709 25.7536 24.0855 25.7633 24.0977 25.7633C24.215 25.7868 24.3348 25.8112 24.4497 25.8415C24.4606 25.8415 24.4717 25.8512 24.4815 25.8512C24.5303 25.8628 24.5743 25.8776 24.6232 25.8913C24.638 25.8913 24.6488 25.9009 24.6623 25.9031C24.7198 25.9179 24.7736 25.9325 24.8298 25.951C24.8322 25.951 24.8356 25.951 24.8421 25.9607C24.8897 25.9752 24.9386 25.994 24.9888 26.0106C25.0084 26.0203 25.0266 26.0244 25.045 26.0292C25.0793 26.044 25.1172 26.0585 25.1501 26.0722C25.1698 26.0722 25.1892 26.0858 25.21 26.0928C25.2551 26.1134 25.3028 26.1319 25.3493 26.1515C25.3737 26.1612 25.3945 26.1721 25.4177 26.1808C25.4446 26.1946 25.4727 26.2072 25.5021 26.217C25.5265 26.2286 25.5534 26.2414 25.5765 26.2522C25.6022 26.266 25.6266 26.2766 25.6511 26.2903C26.2574 26.5885 26.8159 26.9858 27.3329 27.4674C27.5236 27.2669 27.7228 27.0872 27.9294 26.9259C26.7988 26.1241 25.5179 25.667 24.0403 25.667C23.8691 25.667 23.698 25.6767 23.5245 25.6895" fill="#7DCBEC"/>
<path d="M27.333 27.4531C27.6496 27.7476 27.9527 28.0765 28.2399 28.4309C28.5173 28.2378 28.7924 28.052 29.0686 27.8785C28.7068 27.5167 28.3255 27.1916 27.9282 26.9116C27.7217 27.0718 27.5237 27.2527 27.333 27.4531Z" fill="#5EC5ED"/>
<path d="M23.5242 25.6742C23.6978 25.6596 23.8689 25.6535 24.04 25.6535C25.5177 25.6535 26.7986 26.1106 27.9291 26.9111C29.122 25.97 30.5643 25.6412 32.5675 25.6412H22.8667C23.0904 25.6412 23.3091 25.6547 23.5242 25.6742Z" fill="url(#paint15_linear_30_799)"/>
<path d="M32.5676 25.6413C30.5644 25.6413 29.1221 25.97 27.9292 26.9111C28.3252 27.191 28.7065 27.5162 29.0683 27.8779C30.7293 26.8219 32.3744 26.1228 33.9963 25.8173C34.6148 25.7011 35.232 25.6413 35.8407 25.6413H32.5676Z" fill="url(#paint16_linear_30_799)"/>
<path d="M56.3462 42.744C57.2079 40.0869 58.1942 36.8615 59.4177 32.9491C60.5201 29.4242 62.472 26.7891 66.1374 25.639C66.2343 25.4422 66.3257 25.2393 66.4198 25.04C60.4443 25.3982 57.6515 28.4378 56.246 32.9394C53.7881 40.7983 52.2994 45.8925 50.8657 49.1388C52.6966 47.3885 54.5275 45.2398 56.3462 42.744Z" fill="url(#paint17_linear_30_799)"/>
<linearGradient id="paint0_linear_30_799" x1="35.2108" y1="25.449" x2="35.2108" y2="61.7018" gradientUnits="userSpaceOnUse">
<stop stop-color="#0994DC"/>
<stop offset="0.350006" stop-color="#66CEF5"/>
<stop offset="0.846161" stop-color="#127BCA"/>
<stop offset="1" stop-color="#127BCA"/>
</linearGradient>
<linearGradient id="paint1_linear_30_799" x1="36.5931" y1="24.5311" x2="36.5931" y2="61.7079" gradientUnits="userSpaceOnUse">
<stop stop-color="#0E76BC"/>
<stop offset="0.360001" stop-color="#36AEE8"/>
<stop offset="0.846161" stop-color="#00ADEF"/>
<stop offset="1" stop-color="#00ADEF"/>
</linearGradient>
<linearGradient id="paint2_linear_30_799" x1="44.0648" y1="53.6653" x2="44.0648" y2="24.0843" gradientUnits="userSpaceOnUse">
<stop stop-color="#1C63B7"/>
<stop offset="0.5" stop-color="#33BDF2"/>
<stop offset="1" stop-color="#33BDF2" stop-opacity="0.419608"/>
</linearGradient>
<linearGradient id="paint3_linear_30_799" x1="42.1206" y1="20.7643" x2="42.1206" y2="59.3634" gradientUnits="userSpaceOnUse">
<stop stop-color="#166AB8"/>
<stop offset="0.399994" stop-color="#36AEE8"/>
<stop offset="0.846161" stop-color="#0798DD"/>
<stop offset="1" stop-color="#0798DD"/>
</linearGradient>
<linearGradient id="paint4_linear_30_799" x1="39.078" y1="20.9672" x2="39.078" y2="62.0122" gradientUnits="userSpaceOnUse">
<stop stop-color="#124379"/>
<stop offset="0.389999" stop-color="#1487CB"/>
<stop offset="0.780228" stop-color="#165197"/>
<stop offset="1" stop-color="#165197"/>
</linearGradient>
<linearGradient id="paint5_linear_30_799" x1="22.5928" y1="33.567" x2="28.3959" y2="33.567" gradientUnits="userSpaceOnUse">
<stop stop-color="#33BDF2" stop-opacity="0.698039"/>
<stop offset="1" stop-color="#1DACD8"/>
</linearGradient>
<linearGradient id="paint6_linear_30_799" x1="66.1762" y1="52.924" x2="66.1762" y2="24.108" gradientUnits="userSpaceOnUse">
<stop stop-color="#136AB4"/>
<stop offset="0.6" stop-color="#59CAF5" stop-opacity="0.54902"/>
<stop offset="1" stop-color="#59CAF5" stop-opacity="0.235294"/>
</linearGradient>
<linearGradient id="paint7_linear_30_799" x1="1.99984" y1="40.4526" x2="23.5245" y2="40.4526" gradientUnits="userSpaceOnUse">
<stop stop-color="#05A1E6" stop-opacity="0.247059"/>
<stop offset="1" stop-color="#05A1E6"/>
</linearGradient>
<linearGradient id="paint8_linear_30_799" x1="13.921" y1="53.6498" x2="13.921" y2="24.1446" gradientUnits="userSpaceOnUse">
<stop stop-color="#318ED5"/>
<stop offset="1" stop-color="#38A7E4"/>
</linearGradient>
<linearGradient id="paint9_linear_30_799" x1="15.7782" y1="53.7535" x2="15.7782" y2="25.0728" gradientUnits="userSpaceOnUse">
<stop stop-color="#05A1E6"/>
<stop offset="1" stop-color="#05A1E6" stop-opacity="0.54902"/>
</linearGradient>
<linearGradient id="paint10_linear_30_799" x1="17.3203" y1="55.2169" x2="17.3203" y2="30.9812" gradientUnits="userSpaceOnUse">
<stop stop-color="#1959A6"/>
<stop offset="0.5" stop-color="#05A1E6"/>
<stop offset="0.917587" stop-color="#7EC5EA"/>
<stop offset="1" stop-color="#7EC5EA"/>
</linearGradient>
<linearGradient id="paint11_linear_30_799" x1="18.2488" y1="53.6689" x2="13.6153" y2="27.3906" gradientUnits="userSpaceOnUse">
<stop stop-color="#165096"/>
<stop offset="1" stop-color="#0D82CA"/>
</linearGradient>
<linearGradient id="paint12_linear_30_799" x1="61.2419" y1="38.8076" x2="61.2419" y2="25.0747" gradientUnits="userSpaceOnUse">
<stop stop-color="#05A1E6"/>
<stop offset="0.873627" stop-color="#0495D6"/>
<stop offset="1" stop-color="#0495D6"/>
</linearGradient>
<linearGradient id="paint13_linear_30_799" x1="67.6966" y1="23.8055" x2="62.1128" y2="55.4727" gradientUnits="userSpaceOnUse">
<stop stop-color="#38A7E4" stop-opacity="0.329412"/>
<stop offset="0.961533" stop-color="#0E88D3"/>
<stop offset="1" stop-color="#0E88D3"/>
</linearGradient>
<linearGradient id="paint14_linear_30_799" x1="62.698" y1="24.9167" x2="62.698" y2="54.8765" gradientUnits="userSpaceOnUse">
<stop stop-color="#168CD4"/>
<stop offset="0.5" stop-color="#1C87CC"/>
<stop offset="1" stop-color="#154B8D"/>
</linearGradient>
<linearGradient id="paint15_linear_30_799" x1="24.4842" y1="24.3007" x2="31.3853" y2="27.163" gradientUnits="userSpaceOnUse">
<stop stop-color="#97D6EE"/>
<stop offset="0.703293" stop-color="#55C1EA"/>
<stop offset="1" stop-color="#55C1EA"/>
</linearGradient>
<linearGradient id="paint16_linear_30_799" x1="28.4743" y1="27.737" x2="33.9248" y2="25.2661" gradientUnits="userSpaceOnUse">
<stop stop-color="#7ACCEC"/>
<stop offset="1" stop-color="#3FB7ED"/>
</linearGradient>
<linearGradient id="paint17_linear_30_799" x1="58.6423" y1="26.5734" x2="58.6423" y2="55.8771" gradientUnits="userSpaceOnUse">
<stop stop-color="#1DA7E7"/>
<stop offset="1" stop-color="#37ABE7" stop-opacity="0"/>
</linearGradient>
</svg>
