<svg xmlns="http://www.w3.org/2000/svg" viewBox="0 0 80 80">
  <rect width="100%" height="100%" fill="#fff"/>
  <path fill="url(#a)" d="M28.4 31.2c2.7 8.4 3.8 23.3 11.8 23.3.6 0 1.2 0 1.8-.2-7.3-1.7-8.1-16.5-12.6-24.1l-1 1Z"/>
  <path fill="url(#b)" d="M29.4 30.2C34 37.8 34.7 52.6 42 54.3c.6 0 1.2-.2 1.7-.4-6.5-3.2-8.3-17.6-13.3-24.5l-1 .8Z"/>
  <path fill="#14559A" d="m35.8 25.6-1.8.2c-1.6.3-3.3 1-5 2l1.4 1.6c1.6-1.4 3.3-2.4 5-3 .6-.3 1.2-.5 1.9-.6l-1.5-.2Z"/>
  <path fill="url(#c)" d="m48.8 51 2-1.9c-2.7-8.3-3.7-23.4-11.8-23.4l-1.7.1c7.3 1.8 8.3 17.8 11.5 25.1Z"/>
  <path fill="#3092C4" d="m37.3 25.8-1.5-.2H39l-1.7.2"/>
  <path fill="#1969BC" d="M48.7 52.7a12 12 0 0 1-.9-1c-1.4 1-2.7 1.7-4 2.2a6.2 6.2 0 0 0 2.7.6c1.6 0 2.7-.2 3.8-.7a7 7 0 0 1-1.6-1.1Z"/>
  <path fill="url(#d)" d="M35.4 26.3c6.6 3.5 7.1 19 12.4 25.4l1-.8c-3.2-7.3-4.2-23.3-11.5-25-.7 0-1.3.2-2 .4Z"/>
  <path fill="url(#e)" d="M30.4 29.4c5 7 6.8 21.3 13.3 24.5 1.4-.5 2.7-1.2 4.1-2.2-5.3-6.3-5.8-22-12.4-25.4-1.7.7-3.4 1.7-5 3.1Z"/>
  <path fill="url(#f)" d="M25.2 31c-.8 1.8-1.6 4.1-2.6 7.2 2-2.7 3.9-5.1 5.8-7a21 21 0 0 0-.9-2.3 29 29 0 0 0-2.3 2Z"/>
  <path fill="#2B74B1" d="m28.2 28.4-.7.5.9 2.3 1-1-1.2-1.8Z"/>
  <path fill="#125A9E" d="m29 27.9-.8.5 1.2 1.8 1-.8-1.3-1.5Z"/>
  <path fill="url(#g)" d="M74 25c-3.8 14.4-11.5 25.9-18 28.8l-.4.1-.2.1h-.2v.1H55l-.2.1h-.2l-.1.1h-.2l1 .2c6.2 0 12.4-11 22.7-29.5h-4Z"/>
  <path fill="url(#h)" d="M21.3 26.2h.2l.3-.2H22.1l.3-.2H23.2l.2-.1h.2-.6c-7 0-16.6 12.8-20.9 29.6h.8l3.8-7c3-11.9 9.2-20 14.7-22"/>
  <path fill="#0D82CA" d="m25.2 31 2.3-2-.5-1.1c-.7.7-1.2 1.7-1.8 3Z"/>
  <path fill="#0D82CA" d="M25.7 26.3c.5.4.9 1 1.3 1.6 0-.2.2-.3.3-.4a7 7 0 0 0-1.6-1.2"/>
  <path fill="url(#i)" d="M6.6 48.3c6.3-12.2 9.3-20 14.7-22-5.5 2-11.7 10.1-14.7 22Z"/>
  <path fill="#127BCA" d="m27.3 27.5-.3.4.5 1 .7-.5-.9-1Z"/>
  <path fill="url(#j)" d="M9.5 55.2H9c6.4-.1 9.3-3.3 10.8-8l2.8-9c-2.7 3.8-5.4 8.3-8.1 13.3a6.7 6.7 0 0 1-5 3.7"/>
  <path fill="url(#k)" d="M9.5 55.2a6.6 6.6 0 0 0 5-3.7c2.7-5 5.4-9.5 8-13.3 1-3 1.9-5.4 2.7-7.2A82.4 82.4 0 0 0 9.5 55.2"/>
  <path fill="#05A1E6" d="m6.6 48.3-3.8 7h2.5c.3-2.5.7-4.8 1.3-7"/>
  <path fill="url(#l)" d="M23.3 25.7h-.5l-.2.1h-.1l-.4.1H22v.1h-.2l-.3.1h-.1l-.1.1c-5.3 2.1-8.4 9.9-14.7 22a59 59 0 0 0-1.3 7H9.5A82.4 82.4 0 0 1 25.2 31c.6-1.3 1.1-2.4 1.8-3.1a6 6 0 0 0-1.3-1.6h-.1l-.2-.1-.2-.1H25l-.2-.1h-.1v-.1h-.2a5 5 0 0 0-.4-.1h-.2l-.2-.1h-.4"/>
  <path fill="url(#m)" d="m59.4 33-3 9.7c3.3-4.6 6.6-10.4 9.7-17-3.6 1-5.6 3.7-6.7 7.2Z"/>
  <path fill="url(#n)" d="m56.5 53.5-.6.3c6.6-3 14.3-14.4 18-28.8h-.7c-8.6 15.3-11.3 25.5-16.7 28.5Z"/>
  <path fill="#079AE1" d="M52.2 52.3c1.4-1.8 2.6-4.7 4.1-9.6a47.7 47.7 0 0 1-5.4 6.4c.4 1.3.8 2.3 1.3 3.2"/>
  <path fill="#1969BC" d="M52.2 52.3a5.8 5.8 0 0 1-2 1.5 5.5 5.5 0 0 0 2.4.7H54l.3-.2c-.8-.3-1.5-1-2.1-2"/>
  <path fill="#1E5CB3" d="M40.2 54.5a9.8 9.8 0 0 0 3.5-.6 6.2 6.2 0 0 0 2.8.6h-6.3ZM46.5 54.5c1.5 0 2.7-.2 3.8-.7a5.5 5.5 0 0 0 2.3.7H52.9h-6.4Z"/>
  <path fill="#1D60B5" d="M53 54.5h.8l.2-.1h.4l.9.1h-2.4Z"/>
  <path fill="#175FAB" d="M50.9 49.2a29.3 29.3 0 0 1-3.1 2.5l1 1c.4.4.9.8 1.5 1.1l.3-.2c.6-.3 1.1-.7 1.6-1.3-.5-.9-1-2-1.3-3.1"/>
  <path fill="url(#o)" d="M70.8 25H66.4l-.3.6c-3.1 6.7-6.4 12.5-9.8 17.1a31.4 31.4 0 0 1-4.1 9.6c.6 1 1.3 1.7 2.1 2h.4l.2-.1h.1l.2-.1h.2V54h.1l.4-.2c.2 0 .4-.2.5-.3 5.5-3 8.2-13.2 16.8-28.5h-2.4Z"/>
  <path fill="#7DCBEC" d="M23.5 25.7H24.2l.3.1h.2v.1a2.6 2.6 0 0 1 .2 0l.2.1h.2l.1.2h.4a7 7 0 0 1 1.6 1.3l.6-.6a6.6 6.6 0 0 0-4.4-1.2"/>
  <path fill="#5EC5ED" d="m27.3 27.5 1 1c.2-.3.5-.4.8-.6l-1.2-1-.6.6Z"/>
  <path fill="url(#p)" d="M23.5 25.7h.5c1.5 0 2.8.4 4 1.2 1.1-1 2.6-1.3 4.6-1.3h-9.7.6Z"/>
  <path fill="url(#q)" d="M32.6 25.6c-2 0-3.5.4-4.7 1.3l1.2 1c1.6-1 3.3-1.8 4.9-2a10 10 0 0 1 1.8-.3h-3.2Z"/>
  <path fill="url(#r)" d="M56.3 42.7c1-2.6 1.9-5.8 3.1-9.8 1.1-3.5 3-6.1 6.7-7.3l.3-.6c-6 .4-8.7 3.4-10.2 8-2.4 7.8-3.9 12.9-5.3 16.1 1.8-1.7 3.6-3.9 5.4-6.4Z"/>
  <linearGradient id="a" x1="35.2" x2="35.2" y1="25.4" y2="61.7" gradientUnits="userSpaceOnUse">
    <stop stop-color="#0994DC"/>
    <stop offset=".4" stop-color="#66CEF5"/>
    <stop offset=".8" stop-color="#127BCA"/>
    <stop offset="1" stop-color="#127BCA"/>
  </linearGradient>
  <linearGradient id="b" x1="36.6" x2="36.6" y1="24.5" y2="61.7" gradientUnits="userSpaceOnUse">
    <stop stop-color="#0E76BC"/>
    <stop offset=".4" stop-color="#36AEE8"/>
    <stop offset=".8" stop-color="#00ADEF"/>
    <stop offset="1" stop-color="#00ADEF"/>
  </linearGradient>
  <linearGradient id="c" x1="44.1" x2="44.1" y1="53.7" y2="24.1" gradientUnits="userSpaceOnUse">
    <stop stop-color="#1C63B7"/>
    <stop offset=".5" stop-color="#33BDF2"/>
    <stop offset="1" stop-color="#33BDF2" stop-opacity=".4"/>
  </linearGradient>
  <linearGradient id="d" x1="42.1" x2="42.1" y1="20.8" y2="59.4" gradientUnits="userSpaceOnUse">
    <stop stop-color="#166AB8"/>
    <stop offset=".4" stop-color="#36AEE8"/>
    <stop offset=".8" stop-color="#0798DD"/>
    <stop offset="1" stop-color="#0798DD"/>
  </linearGradient>
  <linearGradient id="e" x1="39.1" x2="39.1" y1="21" y2="62" gradientUnits="userSpaceOnUse">
    <stop stop-color="#124379"/>
    <stop offset=".4" stop-color="#1487CB"/>
    <stop offset=".8" stop-color="#165197"/>
    <stop offset="1" stop-color="#165197"/>
  </linearGradient>
  <linearGradient id="f" x1="22.6" x2="28.4" y1="33.6" y2="33.6" gradientUnits="userSpaceOnUse">
    <stop stop-color="#33BDF2" stop-opacity=".7"/>
    <stop offset="1" stop-color="#1DACD8"/>
  </linearGradient>
  <linearGradient id="g" x1="66.2" x2="66.2" y1="52.9" y2="24.1" gradientUnits="userSpaceOnUse">
    <stop stop-color="#136AB4"/>
    <stop offset=".6" stop-color="#59CAF5" stop-opacity=".5"/>
    <stop offset="1" stop-color="#59CAF5" stop-opacity=".2"/>
  </linearGradient>
  <linearGradient id="h" x1="2" x2="23.5" y1="40.5" y2="40.5" gradientUnits="userSpaceOnUse">
    <stop stop-color="#05A1E6" stop-opacity=".2"/>
    <stop offset="1" stop-color="#05A1E6"/>
  </linearGradient>
  <linearGradient id="i" x1="13.9" x2="13.9" y1="53.6" y2="24.1" gradientUnits="userSpaceOnUse">
    <stop stop-color="#318ED5"/>
    <stop offset="1" stop-color="#38A7E4"/>
  </linearGradient>
  <linearGradient id="j" x1="15.8" x2="15.8" y1="53.8" y2="25.1" gradientUnits="userSpaceOnUse">
    <stop stop-color="#05A1E6"/>
    <stop offset="1" stop-color="#05A1E6" stop-opacity=".5"/>
  </linearGradient>
  <linearGradient id="k" x1="17.3" x2="17.3" y1="55.2" y2="31" gradientUnits="userSpaceOnUse">
    <stop stop-color="#1959A6"/>
    <stop offset=".5" stop-color="#05A1E6"/>
    <stop offset=".9" stop-color="#7EC5EA"/>
    <stop offset="1" stop-color="#7EC5EA"/>
  </linearGradient>
  <linearGradient id="l" x1="18.2" x2="13.6" y1="53.7" y2="27.4" gradientUnits="userSpaceOnUse">
    <stop stop-color="#165096"/>
    <stop offset="1" stop-color="#0D82CA"/>
  </linearGradient>
  <linearGradient id="m" x1="61.2" x2="61.2" y1="38.8" y2="25.1" gradientUnits="userSpaceOnUse">
    <stop stop-color="#05A1E6"/>
    <stop offset=".9" stop-color="#0495D6"/>
    <stop offset="1" stop-color="#0495D6"/>
  </linearGradient>
  <linearGradient id="n" x1="67.7" x2="62.1" y1="23.8" y2="55.5" gradientUnits="userSpaceOnUse">
    <stop stop-color="#38A7E4" stop-opacity=".3"/>
    <stop offset="1" stop-color="#0E88D3"/>
    <stop offset="1" stop-color="#0E88D3"/>
  </linearGradient>
  <linearGradient id="o" x1="62.7" x2="62.7" y1="24.9" y2="54.9" gradientUnits="userSpaceOnUse">
    <stop stop-color="#168CD4"/>
    <stop offset=".5" stop-color="#1C87CC"/>
    <stop offset="1" stop-color="#154B8D"/>
  </linearGradient>
  <linearGradient id="p" x1="24.5" x2="31.4" y1="24.3" y2="27.2" gradientUnits="userSpaceOnUse">
    <stop stop-color="#97D6EE"/>
    <stop offset=".7" stop-color="#55C1EA"/>
    <stop offset="1" stop-color="#55C1EA"/>
  </linearGradient>
  <linearGradient id="q" x1="28.5" x2="33.9" y1="27.7" y2="25.3" gradientUnits="userSpaceOnUse">
    <stop stop-color="#7ACCEC"/>
    <stop offset="1" stop-color="#3FB7ED"/>
  </linearGradient>
  <linearGradient id="r" x1="58.6" x2="58.6" y1="26.6" y2="55.9" gradientUnits="userSpaceOnUse">
    <stop stop-color="#1DA7E7"/>
    <stop offset="1" stop-color="#37ABE7" stop-opacity="0"/>
  </linearGradient>
</svg>