<svg viewBox="0 0 80 80" xmlns="http://www.w3.org/2000/svg">
<rect width="100%" height="100%" fill="white"/>
<path d="M63.6693 63.331C57.4771 69.5231 49.0788 73.0018 40.3218 73.0018C31.5647 73.0018 23.1664 69.5231 16.9743 63.331C10.7821 57.1388 7.30341 48.7405 7.30341 39.9835C7.30341 31.2265 10.7821 22.8281 16.9743 16.636L63.6693 63.331Z" fill="#6D429C"/>
<path d="M63.6692 63.364C69.8614 57.1719 73.3401 48.7735 73.3401 40.0165C73.3401 31.2595 69.8614 22.8612 63.6692 16.669C57.4771 10.4769 49.0788 6.99817 40.3217 6.99817C31.5647 6.99817 23.1664 10.4769 16.9742 16.669L63.6692 63.364Z" fill="#5C2D91"/>
<path d="M34.2745 32.0552V26.4617H36.469V45.2387H33.994C33.9232 45.2432 33.8527 45.2268 33.7911 45.1916C33.7295 45.1564 33.6796 45.104 33.6475 45.0407L24.16 30.2897C23.9455 29.9515 23.7805 29.5802 23.599 29.2255C23.599 29.176 23.5412 29.1347 23.4917 29.0357C23.4878 29.0989 23.4878 29.1623 23.4917 29.2255C23.4917 29.9432 23.5825 30.6527 23.5825 31.3705V45.2387H21.3715V26.4535H23.9372C24.0217 26.4438 24.107 26.4599 24.1822 26.4996C24.2573 26.5394 24.3186 26.601 24.358 26.6762L31.684 38.1685C32.564 39.5545 33.4412 40.9432 34.3157 42.3347C34.3258 42.3522 34.3402 42.3666 34.3576 42.3768C34.3749 42.3869 34.3946 42.3923 34.4147 42.3925V42.079C34.4147 41.254 34.324 40.429 34.3157 39.5545V32.2615C34.3064 32.1919 34.2926 32.1231 34.2745 32.0552V32.0552ZM41.3612 39.175V26.4865H50.8652V28.45H43.6382V34.7035H50.3702V36.7H43.6382V41.4767C43.6343 41.5234 43.6343 41.5703 43.6382 41.617V43.2092H51.3602V45.2882H41.3695V39.4307L41.3612 39.175ZM53.4392 55.5595H49.075C49.0659 55.7161 49.0659 55.8731 49.075 56.0297C49.1231 56.5002 49.3504 56.934 49.7099 57.2413C50.0694 57.5485 50.5333 57.7055 51.0055 57.6797C51.7085 57.6733 52.3898 57.4355 52.9442 57.0032V57.8282C52.9442 57.886 52.8535 57.9602 52.7875 57.9932C52.3764 58.2586 51.9058 58.4174 51.418 58.4552C51.0015 58.5047 50.5805 58.5047 50.164 58.4552C49.7895 58.3998 49.4344 58.2535 49.1295 58.0292C48.8246 57.8048 48.5793 57.5093 48.415 57.1682C48.13 56.6314 47.9755 56.0349 47.964 55.4271C47.9526 54.8194 48.0845 54.2175 48.349 53.6702C48.5694 53.1263 48.9627 52.6701 49.4681 52.3719C49.9736 52.0737 50.5631 51.9501 51.1457 52.0202C51.5519 52.0352 51.9459 52.1627 52.2839 52.3885C52.6218 52.6143 52.8904 52.9295 53.0597 53.299C53.3058 53.7792 53.4358 54.3104 53.4392 54.85C53.4475 55.0397 53.4392 55.279 53.4392 55.5595V55.5595ZM49.0997 54.7345H52.3997C52.4274 54.345 52.3353 53.9564 52.1357 53.6207C52.0444 53.4573 51.919 53.3153 51.7682 53.2043C51.6174 53.0933 51.4445 53.0159 51.2612 52.9772C51.0002 52.9241 50.7307 52.9288 50.4716 52.9911C50.2126 53.0533 49.9704 53.1716 49.762 53.3375C49.5536 53.5035 49.3841 53.7131 49.2654 53.9516C49.1467 54.1901 49.0817 54.4517 49.075 54.718L49.0997 54.7345ZM35.3057 57.1105V57.9355C35.3057 58.084 35.1902 58.1087 35.0912 58.15C34.2681 58.4946 33.3726 58.6306 32.4842 58.546C31.5909 58.5021 30.7438 58.1357 30.1 57.5147C29.5836 57.0274 29.2099 56.4085 29.0192 55.7245C28.6557 54.5352 28.7468 53.2533 29.275 52.1275C29.6041 51.3725 30.1516 50.7334 30.847 50.2923C31.5425 49.8512 32.3541 49.6284 33.1772 49.6525C33.8111 49.6261 34.4447 49.7098 35.05 49.9L35.314 49.999V50.9972L35.05 50.89C34.2454 50.5002 33.3338 50.3899 32.4595 50.5765C31.8842 50.7053 31.3571 50.9945 30.9395 51.4107C30.5219 51.8269 30.2308 52.3529 30.1 52.9277C29.9079 53.5037 29.8496 54.1159 29.9297 54.7178C30.0097 55.3196 30.226 55.8953 30.562 56.401C30.8013 56.7673 31.1244 57.0714 31.5046 57.288C31.8848 57.5046 32.3111 57.6276 32.7482 57.6467C33.6024 57.7357 34.4638 57.5691 35.2232 57.1682L35.3057 57.1105ZM42.607 55.2047C42.6336 56.0538 42.339 56.8816 41.782 57.523C41.5456 57.8106 41.2534 58.0473 40.9231 58.2189C40.5927 58.3905 40.231 58.4933 39.8597 58.5212C39.4745 58.576 39.0822 58.5539 38.7055 58.4562C38.3289 58.3585 37.9753 58.1871 37.6652 57.952C37.0793 57.5118 36.6815 56.8664 36.5515 56.1452C36.3798 55.3615 36.4517 54.544 36.7577 53.8022C36.9587 53.3024 37.2985 52.8705 37.7371 52.5576C38.1757 52.2448 38.6947 52.064 39.2327 52.0367C39.7069 51.9734 40.1893 52.0185 40.6435 52.1687C41.1128 52.333 41.5287 52.6216 41.8469 53.0037C42.1651 53.3859 42.3736 53.8472 42.4502 54.3385C42.5194 54.6239 42.5717 54.9132 42.607 55.2047V55.2047ZM41.584 55.345V54.9985C41.5726 54.3801 41.3246 53.7896 40.891 53.3485C40.6726 53.1645 40.4175 53.0291 40.1427 52.9513C39.8679 52.8735 39.5797 52.855 39.2972 52.8972C39.0147 52.9393 38.7444 53.0411 38.5043 53.1957C38.2642 53.3503 38.0597 53.5543 37.9045 53.794C37.6667 54.2003 37.5271 54.6566 37.497 55.1265C37.467 55.5963 37.5472 56.0667 37.7312 56.5C37.9182 56.9722 38.2788 57.3549 38.739 57.5697C39.1993 57.7845 39.7242 57.815 40.2062 57.655C40.4209 57.5946 40.6206 57.49 40.7925 57.348C40.9644 57.2059 41.1048 57.0295 41.2045 56.83C41.4719 56.3821 41.6037 55.8663 41.584 55.345V55.345ZM45.2057 58.3892H44.191V52.2347H45.1892V53.3155H45.247C45.3422 53.0483 45.4961 52.8058 45.6975 52.6059C45.8988 52.406 46.1423 52.2538 46.4102 52.1605C46.7299 52.0609 47.0723 52.0609 47.392 52.1605V53.2L47.194 53.1257C46.9099 53.0145 46.5958 53.0064 46.3064 53.1028C46.0169 53.1993 45.7705 53.3943 45.61 53.6537C45.3341 54.1086 45.1912 54.6316 45.1975 55.1635V58.1335L45.2057 58.3892ZM17.461 44.059C17.4761 44.2594 17.4496 44.4608 17.3833 44.6506C17.317 44.8403 17.2122 45.0143 17.0755 45.1617C16.9388 45.3091 16.7732 45.4266 16.5889 45.507C16.4047 45.5874 16.2059 45.6289 16.0049 45.6289C15.8039 45.6289 15.605 45.5874 15.4208 45.507C15.2366 45.4266 15.0709 45.3091 14.9342 45.1617C14.7975 45.0143 14.6928 44.8403 14.6264 44.6506C14.5601 44.4608 14.5336 44.2594 14.5487 44.059C14.5336 43.8586 14.5601 43.6572 14.6264 43.4674C14.6928 43.2777 14.7975 43.1037 14.9342 42.9563C15.0709 42.8089 15.2366 42.6914 15.4208 42.611C15.605 42.5306 15.8039 42.4891 16.0049 42.4891C16.2059 42.4891 16.4047 42.5306 16.5889 42.611C16.7732 42.6914 16.9388 42.8089 17.0755 42.9563C17.2122 43.1037 17.317 43.2777 17.3833 43.4674C17.4496 43.6572 17.4761 43.8586 17.461 44.059V44.059ZM58.4552 28.45H53.0597V26.4535H66.0947V28.45H60.625V45.2305H58.4552V28.45Z" fill="#FEFEFE"/>
</svg>
