<svg viewBox="0 0 80 80" xmlns="http://www.w3.org/2000/svg">
<rect width="100%" height="100%" fill="white"/>
<path d="M62.6052 62.6227C56.6041 68.6269 48.4647 72 39.9778 72C31.4909 72 23.3515 68.6269 17.3504 62.6227C11.3492 56.6185 7.97778 48.4751 7.97778 39.984C7.97778 31.4928 11.3492 23.3494 17.3504 17.3452L62.6052 62.6227Z" fill="#6D429C"/>
<path d="M62.6052 62.6548C68.6064 56.6506 71.9778 48.5072 71.9778 40.016C71.9778 31.5248 68.6064 23.3814 62.6052 17.3773C56.604 11.3731 48.4647 8 39.9778 8C31.4908 8 23.3515 11.3731 17.3503 17.3773L62.6052 62.6548Z" fill="#5C2D91"/>
<path d="M34.125 32.2964V26.8727H36.2518V45.0797H33.8531C33.7845 45.084 33.7162 45.0681 33.6565 45.034C33.5968 44.9999 33.5484 44.949 33.5173 44.8877L24.3144 30.5845C24.1065 30.2565 23.9466 29.8965 23.7707 29.5525L23.6668 29.3685C23.663 29.4298 23.663 29.4913 23.6668 29.5525C23.6668 30.2405 23.7547 30.9365 23.7547 31.6324V45.0797H21.5879V26.8647H24.0826C24.1632 26.8558 24.2447 26.8718 24.3161 26.9103C24.3875 26.9489 24.4455 27.0083 24.4823 27.0807C26.849 30.8138 29.2184 34.5283 31.5904 38.2241L34.133 42.2238C34.1417 42.2422 34.1552 42.2579 34.1721 42.2691C34.189 42.2804 34.2086 42.2869 34.2289 42.2878V41.9839C34.2289 41.1839 34.141 40.3839 34.133 39.536V32.4644C34.133 32.4164 34.125 32.3604 34.125 32.2964ZM40.9852 39.176V26.8567H50.2041V28.7526H43.176V34.8162H49.7003V36.7441H43.176V43.0638H50.6598V45.0877H40.9932V39.44C40.9932 39.352 40.9852 39.264 40.9852 39.176ZM17.822 43.9277C17.8367 44.1221 17.811 44.3174 17.7468 44.5014C17.6825 44.6853 17.5809 44.8541 17.4484 44.997C17.316 45.1399 17.1554 45.2539 16.9769 45.3318C16.7983 45.4098 16.6056 45.45 16.4108 45.45C16.216 45.45 16.0233 45.4098 15.8448 45.3318C15.6662 45.2539 15.5057 45.1399 15.3732 44.997C15.2407 44.8541 15.1392 44.6853 15.0749 44.5014C15.0106 44.3174 14.985 44.1221 14.9996 43.9277C14.985 43.7334 15.0106 43.5381 15.0749 43.3541C15.1392 43.1701 15.2407 43.0014 15.3732 42.8585C15.5057 42.7156 15.6662 42.6016 15.8448 42.5237C16.0233 42.4457 16.216 42.4055 16.4108 42.4055C16.6056 42.4055 16.7983 42.4457 16.9769 42.5237C17.1554 42.6016 17.316 42.7156 17.4484 42.8585C17.5809 43.0014 17.6825 43.1701 17.7468 43.3541C17.811 43.5381 17.8367 43.7334 17.822 43.9277ZM57.568 28.7766H52.3229V26.8647H64.9559V28.7766H59.6868V45.0717H57.568V28.7766Z" fill="#FEFEFE"/>
<path d="M16.8466 49.2794V52.0953H19.4371V52.5353H16.8466V55.7911H16.3588V48.7915H19.629V49.2314L16.8466 49.2794ZM23.5149 51.3113C23.362 51.2001 23.1761 51.1437 22.9872 51.1513C22.7817 51.1549 22.5808 51.2131 22.4052 51.32C22.2296 51.4268 22.0855 51.5784 21.9877 51.7593C21.6951 52.2776 21.5564 52.8688 21.5879 53.4632V55.8631H21.1482V50.8394H21.5879V51.9513C21.6733 51.6082 21.86 51.2988 22.1236 51.0633C22.3614 50.8525 22.6695 50.7383 22.9872 50.7434C23.1568 50.7368 23.3259 50.7668 23.4829 50.8314L23.5149 51.3113ZM27.6966 55.8631V54.8391C27.5357 55.1626 27.2932 55.4384 26.9929 55.6391C26.6985 55.8408 26.3503 55.9495 25.9935 55.9511C25.7884 55.9633 25.5829 55.9342 25.3893 55.8655C25.1956 55.7968 25.0177 55.6899 24.8661 55.5511C24.729 55.4237 24.6204 55.2688 24.5474 55.0965C24.4744 54.9241 24.4386 54.7383 24.4424 54.5512C24.4424 53.6712 25.018 53.1512 26.1774 52.9512L27.7125 52.7193C27.7125 51.6473 27.3128 51.1193 26.5052 51.1193C25.8904 51.1175 25.2972 51.3458 24.8421 51.7593V51.2153C25.0692 51.0477 25.3235 50.9205 25.5937 50.8394C25.8843 50.7378 26.1894 50.6837 26.4972 50.6794C26.7176 50.6676 26.9378 50.7044 27.1424 50.7874C27.3469 50.8703 27.5306 50.9973 27.6806 51.1593C27.9929 51.5529 28.1444 52.0503 28.1043 52.5513V55.8631H27.6966ZM26.3133 53.3752C25.9244 53.4043 25.5484 53.5279 25.2179 53.7352C25.057 53.8852 24.9465 54.0814 24.9016 54.2968C24.8567 54.5122 24.8797 54.7362 24.9674 54.938C25.0551 55.1398 25.2032 55.3094 25.3913 55.4235C25.5793 55.5376 25.7981 55.5906 26.0175 55.5751C26.2433 55.5768 26.467 55.5307 26.6737 55.4397C26.8804 55.3487 27.0655 55.2149 27.2168 55.0471C27.5466 54.6635 27.7181 54.1687 27.6966 53.6632V53.1752L26.3133 53.3752ZM36.1639 55.8631V52.8393C36.2038 52.3783 36.0975 51.9164 35.86 51.5193C35.7456 51.3863 35.6009 51.2827 35.4381 51.2173C35.2753 51.1518 35.0992 51.1265 34.9245 51.1433C34.7309 51.1472 34.5406 51.1945 34.3676 51.2818C34.1946 51.369 34.0434 51.4939 33.9251 51.6473C33.6315 52.0047 33.478 52.4569 33.4933 52.9192V55.8631H33.0456V52.8552C33.0456 51.7353 32.6218 51.1833 31.7743 51.1833C31.5801 51.1843 31.3887 51.2303 31.2153 51.3177C31.0419 51.4052 30.8911 51.5317 30.7748 51.6873C30.4929 52.0704 30.3542 52.5404 30.3831 53.0152V55.8631H29.9273V50.8874H30.3831V51.6873C30.5125 51.3898 30.726 51.1367 30.9973 50.959C31.2686 50.7814 31.5859 50.6869 31.9102 50.6874C32.2503 50.678 32.5825 50.7916 32.8457 51.0074C33.102 51.2112 33.2868 51.4914 33.3734 51.8073C33.5162 51.4842 33.7459 51.2072 34.037 51.0074C34.3149 50.8095 34.6475 50.7032 34.9885 50.7034C36.0839 50.7034 36.5876 51.3753 36.5876 52.7113V55.8631H36.1639ZM38.4746 53.3592C38.4454 53.9319 38.6149 54.4971 38.9543 54.9591C39.1131 55.1505 39.3143 55.3022 39.5419 55.4022C39.7695 55.5022 40.0173 55.5477 40.2656 55.5351C40.8516 55.5105 41.4134 55.2941 41.8647 54.9191V55.3991C41.359 55.7607 40.7511 55.9512 40.1297 55.9431C39.8284 55.9576 39.5277 55.9033 39.2506 55.784C38.9735 55.6648 38.7272 55.4839 38.5305 55.2551C38.0925 54.6845 37.8791 53.9729 37.9309 53.2552C37.9133 52.5872 38.1344 51.9348 38.5545 51.4153C38.7465 51.1767 38.9902 50.9849 39.2673 50.8546C39.5444 50.7243 39.8475 50.6589 40.1536 50.6634C40.4268 50.6478 40.6996 50.6986 40.9488 50.8115C41.198 50.9243 41.4162 51.0958 41.5848 51.3113C41.9431 51.8379 42.12 52.467 42.0886 53.1032V53.3032L38.4746 53.3592ZM41.6728 52.9512C41.6786 52.4695 41.5301 51.9985 41.249 51.6073C41.1324 51.4434 40.9792 51.3089 40.8015 51.2144C40.6239 51.12 40.4267 51.0683 40.2256 51.0633C40.0106 51.06 39.7971 51.1 39.5978 51.1811C39.3986 51.2622 39.2178 51.3827 39.0662 51.5353C38.7315 51.9107 38.5292 52.3857 38.4906 52.8872L41.6728 52.9512ZM47.9013 55.8631H47.4856L46.3742 52.0953C46.3398 51.9555 46.3131 51.814 46.2942 51.6713C46.2746 51.8099 46.2425 51.9465 46.1983 52.0793L44.991 55.8631H44.5752L43.064 50.8634H43.5597L44.7191 54.8631C44.7586 54.9987 44.7827 55.1382 44.7911 55.2791C44.8088 55.1383 44.8383 54.9991 44.879 54.8631L46.1503 50.8634H46.4621L47.5895 54.8631C47.6251 54.9995 47.6492 55.1387 47.6615 55.2791C47.6687 55.1374 47.6956 54.9974 47.7414 54.8631L48.9328 50.8634H49.3885L47.9013 55.8631ZM52.6907 55.9591C52.3675 55.9746 52.0448 55.9181 51.7462 55.7936C51.4475 55.6691 51.1802 55.4797 50.9636 55.2391C50.5403 54.6933 50.3105 54.0221 50.3105 53.3312C50.3105 52.6403 50.5403 51.9691 50.9636 51.4233C51.1896 51.1893 51.4623 51.0057 51.7641 50.8844C52.0658 50.7631 52.3897 50.7068 52.7147 50.7194C53.0306 50.7033 53.346 50.7582 53.638 50.88C53.9299 51.0018 54.1909 51.1874 54.4017 51.4233C54.8428 51.9652 55.0628 52.6539 55.0174 53.3512C55.0468 54.0397 54.8156 54.7139 54.3697 55.2391C54.1585 55.4734 53.899 55.659 53.6091 55.7833C53.3193 55.9076 53.0059 55.9675 52.6907 55.9591ZM52.6907 51.1593C52.4265 51.1497 52.1634 51.1985 51.9202 51.3022C51.6769 51.4059 51.4595 51.562 51.2835 51.7593C50.9076 52.2298 50.7171 52.8217 50.7478 53.4232C50.7201 54.0008 50.9018 54.5689 51.2595 55.0231C51.4333 55.2211 51.6491 55.3778 51.8912 55.4816C52.1333 55.5854 52.3955 55.6337 52.6587 55.6231C52.9203 55.6364 53.1815 55.5901 53.4225 55.4875C53.6635 55.385 53.8781 55.2289 54.0499 55.0311C54.3665 54.5443 54.535 53.976 54.535 53.3952C54.535 52.8144 54.3665 52.2461 54.0499 51.7593C53.896 51.5502 53.6964 51.3788 53.4665 51.2582C53.2365 51.1376 52.9822 51.071 52.7227 51.0633L52.6907 51.1593ZM58.9032 51.3113C58.7473 51.2 58.5589 51.1438 58.3675 51.1513C58.1622 51.1558 57.9617 51.2143 57.7862 51.3211C57.6107 51.4278 57.4665 51.579 57.3681 51.7593C57.0733 52.2884 56.9346 52.8904 56.9683 53.4952V55.8631H56.5445V50.8394H56.9843V51.9513C57.0832 51.6024 57.287 51.2924 57.568 51.0633C57.8045 50.8557 58.1088 50.7418 58.4235 50.7434C58.596 50.7427 58.767 50.7753 58.9272 50.8394L58.9032 51.3113ZM62.949 55.8631L60.5503 53.3992V55.8631H60.1026V48.4395H60.5503V53.2392L62.8291 50.8394H63.4127L61.0141 53.2392L63.5966 55.8631H62.949Z" fill="#F2F2F2"/>
</svg>
