<svg xmlns="http://www.w3.org/2000/svg" viewBox="0 0 80 80"><path fill="#512bd4" d="M0 0h80v80H0z"/><path d="M14.26 51.11a2 2 0 01-1.44-.56 1.9 1.9 0 010-2.77 2 2 0 011.44-.58 2 2 0 011.45.58 1.88 1.88 0 010 2.77 2 2 0 01-1.45.56zm22.61-.32h-3.68l-9.68-15.28a6.78 6.78 0 01-.61-1.2h-.09a20.53 20.53 0 01.12 2.85v13.63h-3.26V30h3.92L33 44.92c.4.62.65 1 .77 1.28h.05a19.68 19.68 0 01-.14-2.8V30h3.24zm15.84 0H41.33V30h10.93v2.93h-7.57v5.89h7v2.91h-7v6.15h8zm16.18-17.86h-5.83v17.86h-3.37V32.93h-5.81V30h15z" fill="#fff"/></svg>