<svg viewBox="0 0 80 80" xmlns="http://www.w3.org/2000/svg">
<rect width="100%" height="100%" fill="white"/>
<path d="M39.6152 46.0805C38.3618 46.5644 37.1259 47.3019 36.0066 48.0423C36.2164 48.0889 36.4234 48.1385 36.6508 48.1909C38.0295 47.8674 39.0148 46.9871 40.2623 46.4187C41.5624 45.824 42.7429 45.2527 43.7573 44.2296C43.9614 44.0226 44.2674 43.7952 44.4278 43.5475C44.7455 43.049 44.4074 43.1044 44.3578 42.6176C44.2995 42.0259 45.0166 41.7577 45.3897 41.4167C45.8328 41.0115 46.1971 40.5451 46.6518 40.1574C46.8763 39.965 47.0395 39.7756 47.3106 39.6415C47.5292 39.5336 48.0277 39.5132 48.1851 39.3471C48.7127 38.7991 47.9461 38.971 47.6079 39.0439C47.0454 39.1663 46.2875 38.9652 45.8706 39.3616C45.7511 39.4753 45.7162 39.7989 45.5558 39.9563C45.2673 40.2361 44.8154 40.3177 44.5123 40.583C44.11 40.9386 44.0751 41.4924 43.8331 41.9559C43.0956 43.3667 42.0521 43.8477 40.6092 44.387C39.385 44.8417 38.0441 44.7572 36.8869 45.3984C37.945 45.8648 38.9506 45.3809 39.9504 45.1682C40.6063 45.0282 41.2126 44.7805 41.7839 44.4394C42.2124 44.1829 42.5797 43.8302 43.0869 43.8943C42.8566 45.1915 40.5976 45.6987 39.6152 46.0805Z" fill="black"/>
<path d="M66.0186 21.26C65.9311 21.155 65.8495 21.0414 65.7766 20.9277C60.3083 13.55 51.753 8.6063 42.0171 8H37.9829C35.9658 8.12534 34.0011 8.43724 32.1035 8.91529C31.5467 9.07852 30.9871 9.23301 30.4216 9.39042C18.0098 13.2731 8.84241 24.4955 8 37.9741V41.714C8.81909 41.679 9.54199 41.2884 10.3523 41.1456C10.7255 41.0785 11.119 41.2039 11.495 41.1018C12.0343 40.9561 12.2733 40.8716 12.8767 40.8716C14.0951 40.8686 15.3106 40.8716 16.5261 40.8686C17.1004 40.8657 17.7358 40.9386 18.3013 40.8249C18.7619 40.7316 19.0475 40.5742 19.5227 40.7112C18.6832 41.198 17.9749 41.6732 16.9517 41.7315C16.4154 41.7606 16.0073 41.5537 15.5001 41.4633C14.9113 41.3613 14.2379 41.44 13.6375 41.44C13.0895 41.44 12.4132 41.335 11.8739 41.4429C11.4046 41.5362 11.049 41.6702 10.5476 41.7169C10.1308 41.7577 9.86846 41.988 9.46912 42.0638C8.9969 42.1541 8.48679 42.2882 8.0204 42.3407C8.14866 44.1246 8.42558 45.8677 8.83367 47.5584C9.18054 47.7012 9.7198 47.4564 10.192 47.3369C10.3815 47.2873 10.5826 47.3485 10.7721 47.299C10.9936 47.2436 11.0607 47.1066 11.2647 47.025C11.7165 46.8442 12.2937 46.7597 12.7805 46.7072C13.343 46.6431 15.9402 47.022 16.1414 46.4157C16.1297 46.4041 16.1181 46.3953 16.1064 46.3837C15.4097 46.3924 14.6985 46.5294 14.1038 46.1476C14.6285 45.5821 15.433 45.3256 16.1618 45.206C16.5495 45.1448 16.9226 44.9991 17.3103 44.9437C17.9136 44.8621 18.5666 45.0341 19.1612 44.8708C19.9774 44.6464 20.8373 44.5269 21.6739 44.3753C22.1286 44.2937 22.6941 44.2762 23.0352 43.9206C23.315 43.6291 23.3471 43.221 23.656 42.9237C23.6356 43.8302 23.6152 44.3316 23.2654 45.1652C22.9361 45.9494 23.3092 46.4274 24.1574 46.4099C24.5451 46.4012 26.09 45.7162 26.2853 46.337C26.399 46.6956 25.405 47.5059 25.1601 47.7304C24.6442 48.2026 23.9679 48.2609 23.3121 48.4853C22.6212 48.7214 22.1053 49.0654 21.4961 49.4006C20.779 49.7941 20.0474 50.3567 19.307 50.6803C18.7357 50.9339 18.1235 51.0388 17.6775 51.5227C18.4704 52.0969 20.6216 50.7298 21.2716 50.3771C21.8021 50.0885 22.2948 49.9428 22.8457 49.7358C23.519 49.4851 24.3236 49.2986 24.9736 49.01C25.4983 48.7797 26.1279 48.4241 26.6234 48.121C27.0927 47.8324 27.5795 47.6167 27.8215 47.1182C28.3257 46.0834 27.3638 46.7189 27.0228 46.0572C26.708 45.4538 27.6524 45.241 27.9818 45.072C27.3143 44.7309 26.6759 45.0895 25.9996 45.2323C25.5828 45.3197 25.1543 45.6258 24.8978 45.2789C24.72 45.0399 24.9503 44.6551 24.8424 44.3986C24.6996 44.0547 24.4547 44.2091 24.2332 43.9818C23.7581 43.4979 24.4576 42.9674 23.691 42.8887C24.2827 41.2651 25.9034 40.9124 27.0752 39.8164C26.0929 39.1197 24.1049 39.2858 23.0002 39.5453C22.3939 39.6881 21.9566 39.7202 21.3562 39.5424C21.1084 39.4695 20.8927 39.382 20.6274 39.4141C20.2543 39.4578 20.0707 39.7056 19.7005 39.5861C19.9803 38.8486 21.3299 38.8049 21.9829 38.6446C22.7203 38.4638 23.3879 38.2073 24.1283 38.0179C24.5247 37.9158 24.8745 38.0004 25.2592 37.9421C25.6411 37.8838 25.9122 37.6856 26.3057 37.6535C27.0927 37.5923 27.7515 37.3737 28.5385 37.3737C29.2731 37.3737 30.2408 37.5456 30.9113 37.2104C31.2727 37.0268 31.3689 36.8606 31.7974 36.8111C32.2317 36.7586 32.4008 36.7091 32.7972 36.5604C33.0217 36.4759 33.456 36.5604 33.6338 36.438C33.9923 36.1902 33.6338 36.2106 33.7213 35.8958C33.9224 35.1962 35.5402 35.339 36.1844 35.342C37.8255 35.3507 39.7697 35.6422 41.2534 34.8435C42.023 34.4267 44.3228 32.6806 44.9204 33.9749C45.069 34.2984 44.7863 34.8056 44.9583 35.1088C45.1361 35.4207 45.2906 35.2458 45.5704 35.3303C46.2292 35.5343 46.4216 36.2019 47.1736 36.3913C47.5234 36.4788 48.3104 36.1348 47.9373 35.6713C47.8411 35.5518 47.3864 35.6626 47.2523 35.6014C46.9142 35.4498 46.9608 35.1379 46.7072 34.9105C46.2962 34.5462 45.5646 34.9718 45.2556 34.5608C45.1157 34.3742 45.2527 34.0273 45.209 33.8175C45.1011 33.3044 45.0078 33.4822 44.6027 33.3073C44.489 33.2607 44.3491 33.0946 44.2704 33.0654C44.1159 33.01 43.7632 33.0275 43.667 32.943C43.4046 32.7127 43.906 32.3775 44.0576 32.1035C44.2558 31.7449 44.1159 31.3602 44.3666 31.0716C44.6347 30.7597 45.206 30.8413 45.4684 30.5061C44.935 30.1155 44.1742 30.5411 43.6349 30.681C42.7954 30.8996 41.8481 30.9521 41.0435 31.2815C40.7258 31.4126 40.618 31.5467 40.2419 31.5759C39.8543 31.6079 39.452 31.5147 39.0731 31.6225C38.219 31.8674 37.3591 31.9869 36.4438 31.7741C34.7735 31.3893 33.2228 31.7216 31.5613 31.8557C30.8938 31.9082 30.2175 32.2317 29.55 32.3687C28.8446 32.5174 27.9439 32.9051 27.2531 32.5757C27.6058 32.29 29.4422 31.7187 29.3518 31.3194C29.2993 31.0803 26.431 31.2494 26.0638 31.0774C26.8479 30.7451 27.8331 30.5906 28.6551 30.3866C29.2818 30.2292 30.1359 30.3808 30.783 30.3778H33.456C34.9193 30.3778 36.5954 30.1534 38.0353 30.3866C38.5017 30.4624 38.9127 30.751 39.3995 30.6373C39.5948 30.5936 39.6852 30.4653 39.8601 30.4187C40.2507 30.3137 40.7375 30.3341 41.1485 30.2379C42.4719 29.9348 43.6845 29.2498 45.0078 28.9903C45.5996 28.8767 46.1913 28.9175 46.7918 28.9058C47.4943 28.8942 47.4913 28.5036 48.0802 28.4074C48.6777 28.3083 49.3073 28.591 49.8932 28.6347C50.4908 28.6784 50.931 28.6143 51.4877 28.8329C52.5604 29.2527 53.5019 29.7628 54.4813 30.3662C54.9827 30.6752 55.3325 30.9958 55.8543 31.1882C56.3556 31.3748 56.8278 31.6283 57.2884 31.9053C57.5711 32.0772 58.4165 32.5903 58.2037 32.9371C58.0492 33.1878 56.6792 32.8993 56.3731 32.9867C55.9913 33.0946 55.8572 33.2286 55.4637 33.3161C54.9361 33.4327 54.3968 33.6863 53.8983 33.9049C53.0326 34.2838 51.753 35.3128 51.444 36.2456C51.2603 36.7936 51.4411 37.3911 51.2895 37.9566C51.1496 38.4609 51.065 38.9448 50.9251 39.4549C50.5987 40.6296 49.9719 41.7898 49.3686 42.8625C48.8468 43.7894 48.1006 44.6289 47.4855 45.5383C46.7597 46.614 45.7336 47.7275 44.7892 48.5932C43.7253 49.5668 42.6934 50.6191 41.4108 51.3099C40.9269 51.5722 39.6939 51.9191 39.4491 52.4263C39.1897 52.9714 39.5861 53.8109 38.9215 54.2277C38.7378 54.3443 38.4726 54.2452 38.3181 54.423C38.1024 54.665 38.2481 55.1576 38.2306 55.4462C38.1898 56.2245 37.7672 56.5305 38.3472 57.1426C39.0527 57.8889 40.6704 59.1889 40.5684 60.3695C39.6794 59.7165 39.1751 58.708 38.2831 58.0142C37.5048 57.4021 36.2951 57.3904 35.8287 56.5072C35.6276 56.1312 35.3011 54.2569 34.7852 54.4463C34.4966 54.5542 34.3975 55.4753 34.2722 55.7202C33.9749 56.2973 33.9632 56.2361 34.3159 56.8541C34.7881 57.6761 35.616 58.3115 35.8666 59.2414C36.027 59.8419 36.024 60.524 36.2281 61.1128C36.3476 61.4509 36.7324 62.3021 37.0501 62.5149C37.4174 62.7597 37.7759 62.4653 38.1753 62.4157C38.8603 62.3341 39.5715 62.4682 40.2565 62.4128C40.6763 62.3749 41.1252 62.2875 41.1572 61.757C41.1893 61.2148 40.4606 60.9758 40.6063 60.4074C41.0814 60.7921 41.5128 61.1886 42.0317 61.5063C42.466 61.7745 43.0519 62.2875 43.5504 62.3983C44.078 62.5148 44.6551 62.1476 45.206 62.1359C45.9348 62.1213 46.6664 62.1301 47.3981 62.133C48.6748 62.133 49.7183 61.8969 49.628 63.4797C49.5609 64.6457 48.6748 65.4239 48.1326 66.3917C47.6138 67.3128 47.1124 68.3942 46.2263 69.0122C45.2294 69.706 43.9701 70.0062 42.8362 70.4026C41.8073 70.7582 40.7375 71.0789 39.6677 71.2917C39.1576 71.3908 38.6912 71.4607 38.2248 71.6152C37.9916 71.6939 37.1784 71.7289 36.8985 71.9155C37.26 71.9475 37.6214 71.9767 37.9829 72H42.0171C58.1191 71.0002 71.0002 58.1191 72 42.0142V37.9858C71.6123 31.7624 69.4524 26.023 66.0186 21.26ZM24.0962 31.7683C23.4112 31.9198 22.6679 31.7362 22.0091 31.9694C22.5221 32.7972 22.254 32.6835 21.3503 33.045C20.9014 32.9925 20.1873 32.6019 20.1902 32.0656C20.196 31.4447 20.986 31.229 21.4815 31.1999C22.1403 31.162 22.8195 31.2144 23.4811 31.2144C24.1341 31.2115 25.0814 31.0424 25.6353 31.4097C25.2068 31.6575 24.5859 31.6604 24.0962 31.7683Z" fill="black"/>
<path d="M53.6039 31.3835C53.4436 31.2377 52.4613 30.9783 52.2456 30.9579C52.231 30.9404 52.2164 30.9229 52.1989 30.9025C51.6772 31.3398 51.6334 31.5322 52.3389 31.5409C52.7236 31.5467 53.3299 31.6779 53.6039 31.3835Z" fill="black"/>
<path d="M9.68191 51.0097C10.2299 51.89 12.008 50.8435 12.6989 50.4587C15.0658 49.1354 17.5988 48.1151 19.9628 46.783C20.2456 46.6227 20.881 46.4041 20.4525 46.1417C20.1319 45.9464 19.1612 46.1068 18.8144 46.2117C18.2809 46.3749 17.7562 46.6897 17.2345 46.8996C16.4416 47.2144 15.9228 47.3106 15.0658 47.3135C14.3516 47.3194 13.6404 47.3135 12.9262 47.3135C12.3228 47.3164 11.8681 47.5671 11.2764 47.5934C10.1862 47.64 8.96775 47.8499 8 48.4241V49.0537C8.68792 48.7681 8.92403 48.5553 9.16014 49.3015C9.32046 49.8116 9.39333 50.5462 9.68191 51.0067V51.0097Z" fill="black"/>
<path d="M34.4821 58.1658C34.2634 57.8539 33.5289 57.0261 33.1237 56.9415C32.4708 56.8016 31.5438 57.4283 30.8384 57.4633C30.2671 57.4924 29.1886 57.6411 28.7222 57.2971C29.5646 56.7637 31.9082 56.6734 31.7799 55.2276C31.7595 54.9856 31.6313 54.4842 31.5438 54.254C31.4243 53.9479 31.1416 53.8459 31.0046 53.5573C30.7247 52.9685 31.2377 52.2864 30.6023 51.9424C30.0164 51.6247 28.8096 52.0328 28.2091 52.1552C27.7486 52.2485 27.2385 52.1086 26.7925 52.2164C26.4952 52.2864 26.3407 52.4525 26.0521 52.5371C25.3671 52.7411 24.7229 52.7032 24.0874 53.1725C23.452 53.6447 23.315 54.3647 23.0235 55.0381C22.9302 55.2596 22.7349 55.7756 22.4901 55.8776C22.2044 55.9942 22.149 55.7639 21.8517 55.7785C21.6681 55.7901 21.3766 56.0029 21.1638 56.0554C20.8461 56.137 20.6566 56.102 20.3389 56.2507C19.7034 56.5451 19.2108 57.1222 18.6336 57.5216C18.0448 57.9297 17.8349 58.5476 17.0537 58.2474C16.8526 58.1716 16.7214 57.9151 16.4941 57.8772C16.1035 57.8102 15.6692 58.1658 15.3485 58.3698C14.7189 58.7721 14.0951 59.186 13.5005 59.6291C12.7601 60.1771 12.0984 60.0896 11.2122 60.0984C10.4864 60.11 9.28839 60.1188 8.95026 60.8708C9.34669 60.8708 10.8216 60.2325 10.8275 60.7776C10.8362 61.3197 9.65567 61.7978 9.37293 62.1213C9.38459 62.133 9.39625 62.1417 9.40791 62.1534C10.2591 62.1825 10.9936 61.5675 11.7282 61.2177C12.4423 60.8796 13.1477 60.798 13.8969 60.6318C14.614 60.4715 14.9783 60.1858 15.5759 60.8708C16.0102 61.3693 16.3046 61.9202 16.7972 62.4303C17.6134 63.2756 18.0419 63.3252 19.205 63.3223C20.2106 63.3165 21.2192 63.3194 22.2248 63.3194C23.0935 63.3194 23.8047 63.2494 24.6413 63.0891C25.5274 62.9142 26.5476 63.0395 27.4513 63.0395C28.3549 63.0395 29.4422 63.1649 30.3778 63.0395C30.7568 62.9871 30.9579 62.7976 31.3135 62.7043C31.7216 62.5965 32.2813 62.6927 32.704 62.6927C33.3073 62.6927 34.5782 62.9579 35.0242 62.5032C35.1641 62.3662 35.3011 61.6433 35.3303 61.4538C35.4119 60.9408 35.205 60.6376 35.1175 60.1713C34.9776 59.4221 34.9455 58.8304 34.4821 58.1687V58.1658Z" fill="black"/>
</svg>
