<svg viewBox="0 0 80 80" xmlns="http://www.w3.org/2000/svg">
<rect width="100%" height="100%" fill="white"/>
<path d="M9.33789 14.8024L18.1923 9.8328L26.8835 14.8024L17.8563 19.772L9.33789 14.8024ZM20.0323 20.9304L28.8867 15.7944L37.7443 20.9304L28.7203 25.7368L20.0323 20.9304Z" fill="#828282"/>
<path d="M42.5918 20.764L51.4462 15.6312L60.1342 20.764L51.1102 25.7368L42.5918 20.764ZM53.619 14.636L62.4734 9.5L71.1646 14.636L62.1406 19.4392L53.619 14.636Z" fill="#C6C6C6"/>
<path d="M8 16.4568V27.3912L16.8576 32.3608V21.596L8 16.4568ZM19.0272 22.588V33.5224L28.0512 38.3256V27.724L19.0272 22.588ZM29.888 28.3864V39.3208L38.7456 44.124V33.5224L29.888 28.3864Z" fill="#00AFD1"/>
<path d="M71.9992 16.6232V27.5576L62.9752 32.5272V21.7592L71.9992 16.6232ZM60.8024 22.7544V33.6888L51.948 38.4888V27.8936L60.8024 22.7544ZM49.9416 28.5528V39.484L41.084 44.284V33.692L49.9416 28.5528Z" fill="#4AE1FF"/>
<path d="M8 29.5448V40.4792L16.8576 45.2856V34.6776L8 29.5448ZM19.0272 35.5096V46.444L28.0512 51.4136V40.812L19.0272 35.5096ZM29.888 41.308V52.2424L38.7456 57.0456V46.444L29.888 41.308Z" fill="#00AFD1"/>
<path d="M71.9992 29.7112V40.6456L62.9752 45.4488V34.8472L71.9992 29.7112ZM60.8024 35.8424V46.7768L51.948 51.5768V40.9784L60.8024 35.8424ZM49.9416 41.4744V52.4088L41.084 57.212V46.6104L49.9416 41.4744Z" fill="#4AE1FF"/>
<path d="M8 42.4696V53.4008L16.8576 58.3736V47.6024L8 42.4696ZM19.0272 48.5976V59.532L28.0512 64.3352V53.7336L19.0272 48.5976ZM29.888 54.396V65.3304L38.7456 70.1336V59.532L29.888 54.396Z" fill="#00AFD1"/>
<path d="M71.9992 42.6328V53.5672L62.9752 58.5368V47.9352L71.9992 42.6328ZM60.8024 48.764V59.6984L51.948 64.5016V53.9L60.8024 48.764ZM49.9416 54.5624V65.4968L41.084 70.3V59.6984L49.9416 54.5624Z" fill="#4AE1FF"/>
<path d="M40.0822 21.7592L31.2246 26.8952L39.9158 31.6984L40.0822 21.7592Z" fill="#828282"/>
<path d="M40.0834 21.7592L39.917 31.6984L48.7746 26.8952L40.0834 21.7592Z" fill="#C6C6C6"/>
</svg>
