<svg xmlns="http://www.w3.org/2000/svg" viewBox="0 0 80 80"><path fill="#828282" d="m1.671 8.684 11.07-6.266 10.862 6.266-11.28 6.266L1.672 8.684ZM15.04 16.413l11.07-6.476 11.07 6.476L25.9 22.47l-10.86-6.057Z"/><path fill="#C6C6C6" d="m43.238 16.204 11.07-6.475 10.862 6.475-11.28 6.266-10.652-6.266ZM57.023 8.475 68.094 2l10.862 6.475-11.28 6.058-10.653-6.058Z"/><path fill="#00AFD1" d="M0 10.773v13.786l11.07 6.266V17.248L0 10.773ZM13.786 18.501v13.786l11.28 6.058V24.977L13.785 18.5ZM27.363 25.812v13.786l11.07 6.057V32.287l-11.07-6.475Z"/><path fill="#4AE1FF" d="M80 10.982v13.786l-11.28 6.266V17.457L80 10.982ZM66.005 18.71v13.786l-11.07 6.057V25.185l11.07-6.475ZM52.428 26.02v13.787l-11.07 6.057V32.496l11.07-6.475Z"/><path fill="#00AFD1" d="M0 27.274V41.06l11.07 6.057V33.75L0 27.274ZM13.786 34.794V48.58l11.28 6.266V41.478l-11.28-6.684ZM27.363 42.105V55.89l11.07 6.058V48.58l-11.07-6.475Z"/><path fill="#4AE1FF" d="M80 27.483V41.27l-11.28 6.057V33.958L80 27.483ZM66.005 35.212v13.785l-11.07 6.058V41.687l11.07-6.475ZM52.428 42.313V56.1l-11.07 6.058V48.789l11.07-6.476Z"/><path fill="#00AFD1" d="M0 43.567v13.785l11.07 6.267V50.042L0 43.567ZM13.786 51.295v13.786l11.28 6.057V57.77l-11.28-6.475ZM27.363 58.606v13.786l11.07 6.057V65.081l-11.07-6.475Z"/><path fill="#4AE1FF" d="M80 43.776V57.56l-11.28 6.267V50.46L80 43.776ZM66.005 51.504V65.29l-11.07 6.057V57.98l11.07-6.475ZM52.428 58.815V72.6l-11.07 6.057V65.29l11.07-6.475Z"/><path fill="#828282" d="m40.104 17.457-11.07 6.475 10.862 6.058.208-12.533Z"/><path fill="#C6C6C6" d="m40.104 17.457-.208 12.532 11.07-6.057-10.862-6.475Z"/></svg>