<svg xmlns="http://www.w3.org/2000/svg" viewBox="0 0 80 80">
  <rect width="100%" height="100%" fill="#fff"/>
  <path fill="#828282" d="m9.3 14.8 8.9-5 8.7 5-9 5-8.6-5ZM20 20.9l8.9-5.1 8.8 5.1-9 4.8L20 21Z"/>
  <path fill="#C6C6C6" d="m42.6 20.8 8.8-5.2 8.7 5.2-9 5-8.5-5Zm11-6.2 8.9-5.1 8.7 5.1-9 4.8-8.6-4.8Z"/>
  <path fill="#00AFD1" d="M8 16.5v10.9l8.9 5V21.6L8 16.5Zm11 6v11l9 4.8V27.7l-9-5.1ZM30 28.5v11l8.8 4.7V33.5L30 28.4Z"/>
  <path fill="#4AE1FF" d="M72 16.6v11l-9 5V21.7l9-5.2Zm-11.2 6.2v10.9l-8.9 4.8V27.9l8.9-5.1Zm-10.9 5.8v10.9l-8.8 4.8V33.7l8.8-5.1Z"/>
  <path fill="#00AFD1" d="M8 29.5v11l8.9 4.8V34.7L8 29.5Zm11 6v11l9 5V40.7l-9-5.3ZM30 41.3v11l8.8 4.7V46.4l-8.8-5Z"/>
  <path fill="#4AE1FF" d="M72 29.7v11l-9 4.7V34.8l9-5Zm-11.2 6.1v11l-8.9 4.8V41l8.9-5.2Zm-10.9 5.7v11l-8.8 4.7V46.6l8.8-5.1Z"/>
  <path fill="#00AFD1" d="M8 42.5v10.9l8.9 5V47.6L8 42.5Zm11 6.1v11l9 4.7V53.7l-9-5.1ZM30 54.4v11l8.8 4.7V59.5L30 54.4Z"/>
  <path fill="#4AE1FF" d="M72 42.6v11l-9 5V47.8l9-5.3Zm-11.2 6.2v10.9l-8.9 4.8V53.9l8.9-5.1Zm-10.9 5.8v10.9l-8.8 4.8V59.7l8.8-5.1Z"/>
  <path fill="#828282" d="m40 21.8-8.8 5.1 8.7 4.8.2-10Z"/>
  <path fill="#C6C6C6" d="M40 21.8v9.9l8.8-4.8-8.7-5.1Z"/>
</svg>