<svg xmlns="http://www.w3.org/2000/svg" viewBox="0 0 80 80">
  <rect width="100%" height="100%" fill="#fff"/>
  <path fill="#0078D7" d="M28.87 46C28.87 47.54 29.1 48.94 29.57 50.2C30.07 51.44 30.72 52.55 31.55 53.52C32.38 54.49 33.35 55.32 34.49 56.02C35.59 56.72 36.79 57.3 38.07 57.75C39.34 58.21 40.67 58.55 42.02 58.77C43.39 58.99 44.72 59.1 46.07 59.1C47.77 59.1 49.35 58.97 50.85 58.7C52.35 58.42 53.81 58.05 55.25 57.58C56.69 57.11 58.08 56.55 59.47 55.91C60.87 55.27 62.29 54.57 63.75 53.79V67.35C62.12 68.15 60.52 68.82 58.92 69.4C57.32 69.96 55.72 70.45 54.09 70.84C52.46 71.24 50.81 71.54 49.12 71.72C47.43 71.9 45.7 72 43.9 72C41.5 72 39.18 71.72 36.95 71.17C34.72 70.62 32.63 69.83 30.67 68.79C28.71 67.75 26.92 66.49 25.29 65.01C23.65 63.53 22.26 61.86 21.09 60.01C19.92 58.16 19.02 56.13 18.37 53.95C17.74 51.77 17.42 49.45 17.42 46.99C17.42 44.36 17.78 41.86 18.5 39.47C19.23 37.07 20.26 34.89 21.62 32.89C22.97 30.89 24.62 29.11 26.57 27.56C28.52 26.01 30.71 24.74 33.15 23.76C31.82 25.09 30.78 26.66 30.05 28.49C29.3 30.31 28.83 32.14 28.62 33.97H51.4C51.4 31.67 51.17 29.67 50.7 27.95C50.23 26.23 49.48 24.8 48.43 23.67C47.39 22.53 46.05 21.67 44.4 21.11C42.75 20.54 40.76 20.25 38.43 20.25C35.68 20.25 32.93 20.65 30.18 21.48C27.43 22.28 24.82 23.43 22.34 24.88C19.86 26.35 17.58 28.08 15.5 30.06C13.42 32.06 11.67 34.21 10.25 36.54C10.55 33.84 11.15 31.24 11.98 28.77C12.81 26.3 13.91 24 15.23 21.87C16.55 19.77 18.1 17.85 19.87 16.13C21.64 14.41 23.6 12.93 25.77 11.73C27.94 10.53 30.24 9.56 32.74 8.91C35.24 8.34 37.9 8 40.7 8C42.34 8 43.97 8.15 45.6 8.44C47.23 8.74 48.82 9.14 50.37 9.66C53.45 10.72 56.2 12.2 58.62 14.08C61.04 15.98 63.07 18.14 64.72 20.61C66.37 23.08 67.62 25.81 68.48 28.78C69.34 31.75 69.78 34.84 69.78 38.05V46H28.87Z"/>
</svg>
