<svg xmlns="http://www.w3.org/2000/svg" viewBox="0 0 80 80">
  <rect width="100%" height="100%" fill="#fff"/>
  <path fill="url(#a)" d="M65.775 55.625C64.9168 56.071 64.0317 56.4634 63.125 56.8C60.2539 57.8686 57.2135 58.4107 54.15 58.4C42.325 58.4 32.025 50.275 32.025 39.825C32.0404 38.4257 32.4283 37.0558 33.1489 35.8562C33.8696 34.6566 34.8968 33.6707 36.125 33C25.425 33.45 22.675 44.6 22.675 51.125C22.675 69.625 39.7 71.475 43.375 71.475C45.35 71.475 48.325 70.9 50.125 70.325L50.45 70.225C57.3385 67.8444 63.2109 63.1889 67.1 57.025C67.213 56.8377 67.2615 56.6185 67.2381 56.4011C67.2146 56.1836 67.1205 55.9798 66.9701 55.8209C66.8198 55.662 66.6214 55.5568 66.4056 55.5215C66.1897 55.4861 65.9682 55.5224 65.775 55.625Z"/>
  <path fill="url(#b)" d="M65.775 55.625C64.9168 56.071 64.0317 56.4634 63.125 56.8C60.2539 57.8686 57.2135 58.4107 54.15 58.4C42.325 58.4 32.025 50.275 32.025 39.825C32.0404 38.4257 32.4283 37.0558 33.1489 35.8562C33.8696 34.6566 34.8968 33.6707 36.125 33C25.425 33.45 22.675 44.6 22.675 51.125C22.675 69.625 39.7 71.475 43.375 71.475C45.35 71.475 48.325 70.9 50.125 70.325L50.45 70.225C57.3385 67.8444 63.2109 63.1889 67.1 57.025C67.213 56.8377 67.2615 56.6185 67.2381 56.4011C67.2146 56.1836 67.1205 55.9798 66.9701 55.8209C66.8198 55.662 66.6214 55.5568 66.4056 55.5215C66.1897 55.4861 65.9682 55.5224 65.775 55.625Z" opacity=".35"/>
  <path fill="url(#c)" d="M34.425 68.325C32.1997 66.9429 30.2708 65.133 28.75 63C27.0134 60.623 25.8179 57.8947 25.2476 55.0066C24.6773 52.1186 24.746 49.1407 25.4488 46.282C26.1515 43.4232 27.4714 40.7529 29.3157 38.4585C31.1601 36.164 33.4842 34.3009 36.125 33C36.925 32.625 38.25 31.975 40.025 32C41.274 32.0097 42.5039 32.3081 43.6185 32.8719C44.7331 33.4357 45.7022 34.2496 46.45 35.25C47.4559 36.6027 48.0073 38.2394 48.025 39.925C48.025 39.875 54.15 20.025 28.025 20.025C17.05 20.025 8.02501 30.425 8.02501 39.575C7.98136 44.4084 9.0147 49.1908 11.05 53.575C14.3832 60.6726 20.2063 66.2993 27.4141 69.387C34.6218 72.4747 42.7124 72.8085 50.15 70.325C47.5443 71.148 44.7909 71.3954 42.0803 71.0501C39.3696 70.7048 36.7662 69.775 34.45 68.325H34.425Z"/>
  <path fill="url(#d)" d="M34.425 68.325C32.1997 66.9429 30.2708 65.133 28.75 63C27.0134 60.623 25.8179 57.8947 25.2476 55.0066C24.6773 52.1186 24.746 49.1407 25.4488 46.282C26.1515 43.4232 27.4714 40.7529 29.3157 38.4585C31.1601 36.164 33.4842 34.3009 36.125 33C36.925 32.625 38.25 31.975 40.025 32C41.274 32.0097 42.5039 32.3081 43.6185 32.8719C44.7331 33.4357 45.7022 34.2496 46.45 35.25C47.4559 36.6027 48.0073 38.2394 48.025 39.925C48.025 39.875 54.15 20.025 28.025 20.025C17.05 20.025 8.02501 30.425 8.02501 39.575C7.98136 44.4084 9.0147 49.1908 11.05 53.575C14.3832 60.6726 20.2063 66.2993 27.4141 69.387C34.6218 72.4747 42.7124 72.8085 50.15 70.325C47.5443 71.148 44.7909 71.3954 42.0803 71.0501C39.3696 70.7048 36.7662 69.775 34.45 68.325H34.425Z" opacity=".41"/>
  <path fill="url(#e)" d="M46.1 45.2C45.875 45.45 45.25 45.825 45.25 46.6C45.25 47.25 45.675 47.9 46.45 48.425C50.025 50.925 56.8 50.575 56.825 50.575C59.4901 50.5732 62.106 49.8567 64.4 48.5C66.7095 47.1492 68.6258 45.2181 69.9589 42.8983C71.292 40.5785 71.9957 37.9506 72 35.275C72.075 29.675 70 25.95 69.175 24.3C63.85 13.95 52.425 8 40 8C31.5905 7.99917 23.5186 11.3087 17.5302 17.2129C11.5418 23.1171 8.11826 31.1413 8 39.55C8.125 30.425 17.2 23.05 28 23.05C28.875 23.05 33.875 23.125 38.5 25.55C41.7493 27.1646 44.44 29.7161 46.225 32.875C47.75 35.525 48.025 38.9 48.025 40.25C48.025 41.6 47.35 43.575 46.075 45.225L46.1 45.2Z"/>
  <path fill="url(#f)" d="M46.1 45.2C45.875 45.45 45.25 45.825 45.25 46.6C45.25 47.25 45.675 47.9 46.45 48.425C50.025 50.925 56.8 50.575 56.825 50.575C59.4901 50.5732 62.106 49.8567 64.4 48.5C66.7095 47.1492 68.6258 45.2181 69.9589 42.8983C71.292 40.5785 71.9957 37.9506 72 35.275C72.075 29.675 70 25.95 69.175 24.3C63.85 13.95 52.425 8 40 8C31.5905 7.99917 23.5186 11.3087 17.5302 17.2129C11.5418 23.1171 8.11826 31.1413 8 39.55C8.125 30.425 17.2 23.05 28 23.05C28.875 23.05 33.875 23.125 38.5 25.55C41.7493 27.1646 44.44 29.7161 46.225 32.875C47.75 35.525 48.025 38.9 48.025 40.25C48.025 41.6 47.35 43.575 46.075 45.225L46.1 45.2Z"/>
  <linearGradient id="a" x1="22.675" x2="67.275" y1="52.25" y2="52.25" gradientUnits="userSpaceOnUse">
    <stop stop-color="#0C59A4"/>
    <stop offset="1" stop-color="#114A8B"/>
  </linearGradient>
  <radialGradient id="b" cx="0" cy="0" r="1" gradientTransform="matrix(23.85 0 0 22.6575 47.3 52.586)" gradientUnits="userSpaceOnUse">
    <stop offset=".7" stop-opacity="0"/>
    <stop offset=".9" stop-opacity=".5"/>
    <stop offset="1"/>
  </radialGradient>
  <linearGradient id="c" x1="46.175" x2="18.35" y1="32.9" y2="63.225" gradientUnits="userSpaceOnUse">
    <stop stop-color="#1B9DE2"/>
    <stop offset=".2" stop-color="#1595DF"/>
    <stop offset=".7" stop-color="#0680D7"/>
    <stop offset="1" stop-color="#0078D4"/>
  </linearGradient>
  <radialGradient id="d" cx="0" cy="0" r="1" gradientTransform="rotate(-81.384 46.39 13.96) scale(35.8465 28.9604)" gradientUnits="userSpaceOnUse">
    <stop offset=".8" stop-opacity="0"/>
    <stop offset=".9" stop-opacity=".5"/>
    <stop offset="1"/>
  </radialGradient>
  <radialGradient id="e" cx="0" cy="0" r="1" gradientTransform="rotate(92.291 -2.29 16.867) scale(50.6405 107.854)" gradientUnits="userSpaceOnUse">
    <stop stop-color="#35C1F1"/>
    <stop offset=".1" stop-color="#34C1ED"/>
    <stop offset=".2" stop-color="#2FC2DF"/>
    <stop offset=".3" stop-color="#2BC3D2"/>
    <stop offset=".7" stop-color="#36C752"/>
  </radialGradient>
  <radialGradient id="f" cx="0" cy="0" r="1" gradientTransform="matrix(6.811 23.352 -18.98986 5.5387 68.015 27.325)" gradientUnits="userSpaceOnUse">
    <stop stop-color="#66EB6E"/>
    <stop offset="1" stop-color="#66EB6E" stop-opacity="0"/>
  </radialGradient>
</svg>
