<svg version="1.2" xmlns="http://www.w3.org/2000/svg" viewBox="0 0 80 80">
  <rect width="100%" height="100%" fill="#fff"/>
  <path d="m69.8 57.7c1-0.6 1.3-1.9 0.7-2.9-0.5-0.9-1.8-1.3-2.8-0.7l-26.8 15.5-26.8-15.4c-0.9-0.6-2.2-0.3-2.8 0.7-0.5 1-0.2 2.2 0.8 2.8l27.7 16q0.3 0.2 0.8 0.2 0.4 0.1 0.8 0 0.3-0.1 0.7-0.3z" />
  <path d="m71.5 43.3l-29.3 16.9q-0.3 0.2-0.7 0.3-0.5 0.1-0.9 0-0.4 0-0.8-0.2l-29.3-16.9c-0.9-0.5-1.1-1.3-1-2-0.3-1 0.1-1.9 1-2.4l29.3-16.8q0.3-0.2 0.8-0.3 0.4 0 0.9 0.1 0.3 0 0.7 0.2l29.3 16.8c0.8 0.5 1.2 1.4 1 2.3 0.1 0.7-0.2 1.5-1 2zm-5-2.1l-25.6-14.7-25.5 14.7 25.5 14.7z" />
  <path d="m73 28.6c1.1-0.7 1.4-2.1 0.8-3.2-0.6-1-2-1.4-3.1-0.8l-29.8 17.2-29.7-17.1c-1.1-0.7-2.5-0.3-3.1 0.8-0.7 1.1-0.3 2.5 0.8 3.1l30.8 17.8q0.4 0.2 0.8 0.3 0.5 0 0.9-0.1 0.5-0.1 0.8-0.3z" />
  <path d="m13.4 26.6l27.4-17.1 27.4 17.1-27.4 15.9z" />
  <path d="m72.9 24.1c1.1 0.6 1.5 2 0.9 3.1-0.6 1.1-2 1.4-3.1 0.8l-29.8-17.1-29.7 17c-1.1 0.7-2.5 0.3-3.2-0.8-0.6-1.1-0.2-2.5 0.9-3.1l30.7-17.7q0.4-0.2 0.9-0.2 0.5-0.1 0.9 0 0.4 0.1 0.8 0.3z" />
</svg>