<svg viewBox="0 0 80 80" xmlns="http://www.w3.org/2000/svg">
<rect width="100%" height="100%" fill="white"/>
<path d="M66.4285 53.6975C67.403 53.1468 68.6485 53.4743 69.2107 54.428C69.7727 55.3827 69.44 56.6038 68.4656 57.1546L41.03 72.677C40.8112 72.8008 40.5713 72.8832 40.323 72.9212C40.0597 72.9962 39.7842 73.0182 39.5125 72.9856C39.2406 72.953 38.9774 72.8668 38.739 72.7317L11.3035 57.2102C10.3301 56.6594 9.99654 55.4393 10.5584 54.4846C11.1214 53.5296 12.3665 53.2025 13.3396 53.7532L39.8357 68.7434L66.4285 53.6975Z" fill="black"/>
<path fill-rule="evenodd" clip-rule="evenodd" d="M39.4646 7.01588C39.7662 6.9801 40.0719 7.00503 40.364 7.08815C40.6359 7.13051 40.8988 7.22157 41.1384 7.3567L71.6072 24.511C72.3821 24.9472 72.7918 25.7632 72.7381 26.5803C72.8981 27.4715 72.4894 28.4036 71.6433 28.8821L61.8718 34.4104L70.1472 39.0696C70.9483 39.5207 71.3433 40.3984 71.2039 41.2405C71.3023 41.9725 71.0199 42.7413 70.1677 43.2239L41.1619 59.635C40.931 59.7655 40.6778 59.8523 40.4158 59.8919C40.1373 59.971 39.8458 59.9944 39.5584 59.9602C39.271 59.9259 38.9931 59.8351 38.741 59.6926L9.73708 43.2825C8.89196 42.8045 8.60775 42.0449 8.69899 41.3186C8.49106 40.4371 8.88392 39.4882 9.72731 39.013L17.8621 34.4319L8.16188 28.9446C7.3668 28.4955 6.95731 27.6447 7.04274 26.8049C6.85965 25.8982 7.2723 24.9384 8.13649 24.4514L38.6062 7.29616C38.871 7.1469 39.1629 7.05168 39.4646 7.01588ZM41.1746 46.1223C40.9319 46.2597 40.6659 46.3506 40.3904 46.3919C40.098 46.4752 39.7919 46.5002 39.49 46.4641C39.1881 46.4282 38.8955 46.3326 38.6306 46.1829L22.1677 36.8684L14.572 41.1458L39.9011 55.4758L65.2156 41.1536L57.5662 36.8469L41.1746 46.1223Z" fill="black"/>
</svg>
