<svg xmlns="http://www.w3.org/2000/svg" viewBox="0 0 80 80">
  <rect width="100%" height="100%" fill="#fff"/>
  <path fill="#2F3242" d="M40 73a33 33 0 1 0 0-66 33 33 0 0 0 0 66Z"/>
  <path fill="#A2ECFB" fill-rule="evenodd" d="M40 16a3.2 3.2 0 0 0-3.2 3.2c0 1.8 1.5 3.2 3.2 3.2 1.1 0 2.1-.5 2.7-1.4 1.7 1.1 3.3 3.3 4.5 6.3A37 37 0 0 1 48 51c-.1.5.1 1 .6 1.2.5.2 1-.1 1.2-.6a38.9 38.9 0 0 0-.8-24.9 14.5 14.5 0 0 0-5.7-7.4c0-1.8-1.4-3.2-3.2-3.2Zm-1.3 3.2c0-.7.6-1.4 1.3-1.4.8 0 1.4.7 1.4 1.4 0 .8-.6 1.4-1.4 1.4-.7 0-1.3-.6-1.3-1.4Z" clip-rule="evenodd"/>
  <path fill="#A2ECFB" d="M31.3 51.5c.5-.2 1 0 1.2.5.9 2.6 2 4.6 3.4 6 1.3 1.5 2.7 2.2 4.1 2.2 2 0 4.1-1.5 5.8-4.4a1 1 0 0 1 1.3-.3c.4.2.6.8.3 1.2C45.6 60 43 62 40 62c-2 0-3.9-1-5.4-2.7a19 19 0 0 1-3.9-6.7 1 1 0 0 1 .6-1.1ZM34.7 26.8c0 .5-.6.9-1 .8-2.7-.5-5-.5-7 0-1.8.4-3.1 1.3-3.8 2.5-1 1.9-.8 4.5 1 7.5.2.5 0 1-.4 1.3a1 1 0 0 1-1.2-.4c-2-3.2-2.5-6.6-1-9.3 1-1.8 2.8-3 5-3.5s4.8-.5 7.7 0c.5.1.8.6.7 1.1Z"/>
  <path fill="#A2ECFB" fill-rule="evenodd" d="M25.4 41.5a1 1 0 0 1 1.3 0 36.2 36.2 0 0 0 20.6 11.3c3.1.5 5.8.2 7.6-.7a3.2 3.2 0 0 1 3-4.5c1.7 0 3.1 1.4 3.1 3.2 0 1.8-1.4 3.2-3.2 3.2-.6 0-1.2-.1-1.7-.4a14.6 14.6 0 0 1-9.1 1 38 38 0 0 1-21.7-11.9 1 1 0 0 1 .1-1.2ZM57 51.9c.2.2.5.3.8.3.8 0 1.4-.6 1.4-1.4 0-.7-.6-1.4-1.4-1.4-.7 0-1.4.7-1.4 1.4l.3.9.3.2Z" clip-rule="evenodd"/>
  <path fill="#A2ECFB" d="M54 40.8a1 1 0 0 0 0 1.3c.5.4 1 .3 1.4 0a19 19 0 0 0 3.8-6.8c.6-2.1.6-4.3-.5-6-1.5-2.7-4.6-3.9-8.3-4a1 1 0 0 0-.9 1c0 .5.4 1 .9 1 3.4 0 5.7 1 6.7 2.8.8 1.3.9 2.9.3 4.7-.5 1.9-1.7 4-3.4 6Z"/>
  <path fill="#A2ECFB" fill-rule="evenodd" d="M45.6 27.8a1 1 0 0 0-.4-1.8c-3.4.7-7.2 2.2-10.8 4.3-4.4 2.6-8 5.8-10.5 9-2.3 3-3.6 6-3.4 8.8a3.2 3.2 0 0 0 1.7 6c1.8 0 3.2-1.5 3.2-3.3 0-1.7-1.4-3.1-3.1-3.2 0-2 1-4.6 3-7.2 2.3-3 5.7-6 10-8.5 3.5-2 7-3.4 10.3-4.1ZM22.2 49.4c-.8 0-1.4.7-1.4 1.4 0 .8.6 1.4 1.4 1.4.7 0 1.4-.6 1.4-1.4 0-.7-.7-1.4-1.4-1.4Z" clip-rule="evenodd"/>
  <path fill="#A2ECFB" d="M38 40.6a2 2 0 1 0 4-.9 2 2 0 1 0-4 .9Z"/>
</svg>