<svg xmlns="http://www.w3.org/2000/svg" viewBox="0 0 80 80">
  <rect width="100%" height="100%" fill="#fff"/>
  <path fill="#978CBD" d="M44.16 18.77c.57 1.25 1.09 2.51 1.7 3.73a32.37 32.37 0 0 0 3.84 5.9c.26.32.48.66.72.99.02.29.02.58 0 .87a16.4 16.4 0 0 0-.24 3.27l.13 2.9v.12l.37 2.58.3 2c.16.88.33 1.76.48 2.7.15.93.23 1.88.41 2.82.24 1.07.37 2.15.38 3.25-.85.56-1.79 1-2.77 1.28-1.13.38-2.3.65-3.5.8-.92.1-1.84.3-2.77.37a26.8 26.8 0 0 0-3.13.14h-.25l-1.36-1.55v-.13a20.37 20.37 0 0 0 2.3-4.38c.42-.98.68-2.01.79-3.07.11-1.24.05-2.49-.2-3.71a75.52 75.52 0 0 1-.83-5.28 18.96 18.96 0 0 1-.14-5.4c.2-1.28.51-2.54.95-3.76.2-.53.34-1.1.5-1.63l1.76-4.15a.6.6 0 0 0 0-.25c.08-.1.17-.17.26-.25.1-.07.2-.12.3-.16Z"/>
  <path fill="#7867A8" d="M62.94 48.75c.32 1.49.46 3 .42 4.52 0 .43-.1.88-.15 1.27-.16.1-.31.21-.46.34-.65.59-1.28 1.21-1.93 1.74-.46.43-.95.81-1.47 1.14a24.14 24.14 0 0 1-4.28 2.15c-.88.31-1.81.57-2.72.87a5.4 5.4 0 0 1 0-.87c.17-1.05.25-2.12.25-3.18v-4.08l-.25-2.79a8.16 8.16 0 0 0 2.62-2.69c.52-.86.82-1.83.88-2.84.03-.78 0-1.56-.1-2.34-.2-1.17-.52-2.32-.95-3.43l-.5-1.38c.12.04.23.09.33.16.68.63 1.38 1.24 2.02 1.9a44.07 44.07 0 0 1 3.98 4.8c.96 1.4 1.67 2.95 2.12 4.58 0 .06.12.13.2.13Z"/>
  <path fill="#988CBD" d="M16.84 54.81a17.6 17.6 0 0 1-.12-4.64c.24-2.85.76-5.67 1.56-8.42a75.4 75.4 0 0 1 2.63-7.64c.54-1.35 1.1-2.7 1.66-4.04 0 .07.1.14.1.2.06.97.1 1.93.14 2.9v.31c.07.57.16 1.14.23 1.75.07.61.08.94.16 1.4.15.83.29 1.67.52 2.49.07.27-.06.68.35.87l-.12 1.04c-.25.2-.1.48-.13.73-.14.94-.29 1.88-.38 2.83-.1.96-.2 2.16-.26 3.25-.05 1.08-.07 2.19-.1 3.28-.07 2.01.05 4.04.1 6.06v.25l.22 2.03c-.93-.48-1.88-.88-2.78-1.44-1.2-.75-2.3-1.66-3.25-2.7a3.61 3.61 0 0 0-.53-.5Z"/>
  <path fill="#7C6CAB" d="M59.37 65.08c-.25.38-.48.8-.77 1.16a23.62 23.62 0 0 1-4.9 4.53c-.17.08-.35.15-.54.19a2.15 2.15 0 0 0-.41-.18c-.53-.12-1.08-.2-1.61-.35-.95-.25-1.87-.54-2.81-.81l-1.94-.75c-.54-.28-1.09-.56-1.62-.87-1.02-.58-2.07-1.12-3.05-1.75a83.09 83.09 0 0 1-3.58-2.69c-.48-.4-.93-.81-1.37-1.26 1.07 0 2.14 0 3.21.1 1.14.04 2.27 0 3.4-.1.83-.04 1.66-.08 2.5-.14.42-.02.84-.07 1.26-.14 1-.15 2-.33 3-.5l.26-.13c.07.08.12.19.2.23l1.48.8a32.6 32.6 0 0 0 3.95 1.76c1.09.39 2.2.69 3.34.9Z"/>
  <path fill="#C0B9CD" d="M24.07 39.9c-.41-.14-.3-.56-.36-.87-.23-.81-.37-1.66-.52-2.49-.08-.46-.1-.93-.16-1.4l-.22-1.75v-.31c-.06-.96-.1-1.93-.14-2.89 0-.07-.07-.14-.1-.2 1.16-2.46 2.3-4.93 3.5-7.35.87-1.68 1.8-3.3 2.77-4.92.97-1.6 2.07-3.2 3.17-4.84.6-.83 1.25-1.62 1.94-2.37a32.4 32.4 0 0 1 2.14-2.25 13.8 13.8 0 0 1 4.79-3.15c.36-.12.74-.16 1.12-.11 0 .38-.08.75-.11 1.14-.02.29-.02.58 0 .87 0 1.08.07 2.15.11 3.22-.1.02-.2.06-.28.1l-3.6 2.63c-.2-1.15-.29-2.32-.26-3.5V8.6c-.5.4-.94.69-1.32 1.05-.98.91-1.84 1.93-2.58 3.04a38.92 38.92 0 0 0-3.4 5.96c-.87 2-1.74 4.05-2.44 6.13-.47 1.34-.88 2.7-1.3 4.07-.34 1.09-.72 2.16-1.01 3.27-.45 1.75-.87 3.48-1.24 5.2-.25.78-.32 1.7-.5 2.6Zm-7.23 14.91c.2.12.38.26.55.41a14.79 14.79 0 0 0 3.25 2.7c.87.53 1.85.97 2.78 1.45a.3.3 0 0 0 0 .13l.45 2.37a21 21 0 0 0 1.36 4.23 14.94 14.94 0 0 0 2.63 4.15 12.37 12.37 0 0 0 4.62 3.28c.06 0 .08.13.13.2-.56-.18-1.14-.32-1.68-.55-2.1-.84-4.06-2-5.8-3.43a25.78 25.78 0 0 1-2.07-1.84 23.87 23.87 0 0 1-5.2-8.55c-.48-1.28-.77-2.6-.88-3.96a2.87 2.87 0 0 1-.14-.59Z"/>
  <path fill="#ADA3BE" d="M59.37 65.08a21.35 21.35 0 0 1-3.34-.95 32.63 32.63 0 0 1-3.95-1.75l.17-1.46.13-.13c.88-.28 1.83-.53 2.72-.88 1.5-.57 2.93-1.28 4.28-2.14.52-.33 1-.72 1.44-1.15.65-.57 1.28-1.2 1.93-1.74.15-.12.3-.23.46-.32 0 .49 0 .98-.11 1.46-.17 1.26-.47 2.5-.87 3.7a23.48 23.48 0 0 1-2.63 5.25.69.69 0 0 1-.23.1Z"/>
  <path fill="#8475B0" d="M32.65 73.73c-.04-.07-.07-.18-.13-.2a12.37 12.37 0 0 1-4.62-3.28 14.93 14.93 0 0 1-2.63-4.15 21 21 0 0 1-1.38-4.22c-.16-.8-.3-1.59-.44-2.38h.31c1.56.7 3.2 1.22 4.87 1.56.53.11 1.05.25 1.59.39-.03.25-.08.5-.15.74-.4 1.25-.66 2.54-.75 3.85a8 8 0 0 0 .1 1 7.48 7.48 0 0 0 1.05 3.5 8.4 8.4 0 0 0 3.21 3.23c.11.09.2.19.3.3l-1.33-.34Z"/>
  <path fill="#988CBD" d="M33.93 74.06a1.61 1.61 0 0 0-.3-.3 8.4 8.4 0 0 1-3.2-3.22 7.48 7.48 0 0 1-1.05-3.5 8 8 0 0 1-.1-1c.09-1.32.34-2.61.74-3.86.07-.24.12-.5.15-.74h.13l.87.25c-.07.27-.15.54-.2.8-.2.72-.34 1.45-.43 2.18-.07.84-.03 1.68.1 2.5a8.24 8.24 0 0 0 2.26 4.64 5.25 5.25 0 0 0 3.75 1.55 13.81 13.81 0 0 0 6.53-1.86 10.7 10.7 0 0 0 3.2-2.63l1.95.8v.18c-.57.55-1.11 1.14-1.75 1.64a13.86 13.86 0 0 1-3.33 2 15.47 15.47 0 0 1-4.38 1.24c-.07 0-.12.14-.18.2-.58 0-1.16 0-1.75-.1-.75-.1-1.5-.24-2.26-.4-.26-.1-.51-.22-.75-.37Z"/>
  <path fill="#9F93C2" d="m38.08 12.93 3.6-2.63c.08-.03.18-.05.28-.05.13.75.25 1.5.4 2.26a31.8 31.8 0 0 0 1.45 5.25c.13.35.23.71.36 1.08-.1.04-.17.09-.25.14-.1.08-.18.16-.26.25-.78.58-1.5 1.24-2.16 1.95a3.5 3.5 0 0 1-.55.38c-.21-.45-.45-.87-.64-1.36-.78-1.82-1.4-3.7-1.86-5.62-.1-.49-.24-.97-.37-1.45v-.2Z"/>
  <path fill="#C0B9CD" d="M62.94 48.75c-.07 0-.18-.08-.2-.14a15.15 15.15 0 0 0-2.12-4.58 40.88 40.88 0 0 0-3.98-4.8c-.7-.73-1.34-1.26-2.02-1.86-.1-.06-.21-.12-.33-.15v-.14c-.47-.4-.94-.79-1.4-1.2l-2.39-2.13a2.28 2.28 0 0 0-.39-.2c-.02-1.1.06-2.2.25-3.27.02-.3.02-.59 0-.88l1.16 1.29 1.85 2.21c.94 1.12 1.9 2.2 2.8 3.35.91 1.13 2 2.52 2.92 3.82a24.19 24.19 0 0 1 3.8 8.26c.04.14.05.28.05.42Z"/>
  <path fill="#ADA3BE" d="M38.72 74.9c.06-.08.12-.22.19-.22 1.5-.2 2.98-.61 4.37-1.24 1.2-.5 2.32-1.17 3.34-2 .6-.5 1.15-1.09 1.75-1.64v-.18c.93.27 1.86.56 2.8.81.54.14 1.08.23 1.61.35.15.05.28.1.42.18-.1.12-.22.24-.35.35a23.8 23.8 0 0 1-9.42 3.37c-1.38.17-2.77.25-4.16.22-.2.03-.38 0-.55 0Z"/>
  <path fill="#66539D" d="M50.14 61.44c-1 .17-2 .35-3 .5-.42.07-.84.12-1.27.15-.83.05-1.66.1-2.5.13-1.12.1-2.26.14-3.39.1-1.07-.1-2.14-.06-3.2-.1h-.25c-.11-.17-.23-.34-.36-.5-.71-.8-1.42-1.6-2.16-2.33-.51-.56-1-1.14-1.5-1.7-.93-1.34-1.88-2.63-2.76-4.01-.7-1.08-1.33-2.2-1.93-3.32-.52-.96-.96-1.96-1.42-2.95-.23-.49-.43-.98-.62-1.48-.26-.67-.53-1.34-.74-2.03a4.52 4.52 0 0 1-.45-1.75c.05.06.1.13.13.2.92 2.8 2.63 5.28 4.93 7.13.91.7 1.91 1.3 2.98 1.75 1.54.6 3.15 1 4.8 1.18l2.34.12H40c.24.52.6.98 1.04 1.34a87.79 87.79 0 0 0 3.62 3.37c.93.81 1.92 1.55 2.9 2.3.77.58 1.57 1.1 2.35 1.65.12.03.16.15.23.25Z"/>
  <path fill="#7564A7" d="M37.43 52.36a18.07 18.07 0 0 1-4.8-1.18 13.05 13.05 0 0 1-2.98-1.75 15.18 15.18 0 0 1-4.93-7.13.94.94 0 0 0-.13-.2l-.13-.25c-.09-.2-.16-.4-.26-.59a2.3 2.3 0 0 0-.26-.32l.13-1.04c.14-.88.25-1.82.45-2.7.39-1.75.8-3.48 1.24-5.2.3-1.1.68-2.18 1.02-3.27.1.12.2.25.27.4.1.34.17.7.27 1.04.43 1.28.82 2.58 1.3 3.84a66.04 66.04 0 0 0 1.75 4.23c.64 1.38 1.56 2.98 2.37 4.47.15.25.33.48.52.7.15.6.49 1.15.97 1.54h.06c.02.4.18.77.46 1.04.99 1.4 2.02 2.75 3.04 4.1.2.26.42.48.64.72v.13c-.22.27-.44.52-.65.8-.21.28-.22.41-.35.62Z"/>
  <path fill="#8475B0" d="M38.47 50.8c-.22-.23-.45-.45-.64-.7a334.8 334.8 0 0 1-3.08-4.1 1.58 1.58 0 0 1-.47-1.03s.1 0 .1-.08l.68-2.83c.47-1.93.95-3.85 1.41-5.79.23-.94.46-1.89.66-2.83a108.42 108.42 0 0 0 1.17-5.98c.12-.65.2-1.3.33-1.93a8.2 8.2 0 0 1 1.75-3.35.62.62 0 0 1 .6-.3l.8 1.68c-.17.54-.32 1.1-.51 1.64a19.91 19.91 0 0 0-.95 3.76 19.95 19.95 0 0 0 .14 5.37 104.97 104.97 0 0 0 .83 5.29c.25 1.22.31 2.47.2 3.7a10.7 10.7 0 0 1-.78 3.08 20.37 20.37 0 0 1-2.24 4.4Z"/>
  <path fill="#6D5BA1" d="M50.14 61.44c-.07-.1-.11-.22-.2-.28-.78-.55-1.58-1.08-2.34-1.66a49.28 49.28 0 0 1-2.91-2.3 87.75 87.75 0 0 1-3.62-3.37A3.82 3.82 0 0 1 40 52.5c1.04-.1 2.09-.16 3.13-.14.93-.07 1.85-.27 2.78-.37 1.19-.15 2.36-.42 3.5-.8 1-.28 1.96-.72 2.84-1.28h.13c.09.92.18 1.85.25 2.79v4.08c0 1.06-.08 2.12-.25 3.17-.02.3-.02.59 0 .88l-.13.13-1.81.4-.3.09Z"/>
  <path fill="#ADA3BE" d="M52.35 49.9h-.1a16.03 16.03 0 0 0-.37-3.22c-.18-.94-.26-1.88-.4-2.83-.16-.95-.33-1.75-.49-2.69l-.3-2c-.12-.88-.24-1.76-.37-2.58v-.13l-.14-2.89c.14.05.27.12.39.2l2.38 2.11c.45.4.93.8 1.4 1.19-.13 0-.16.09 0 .14l.49 1.37c.42 1.11.72 2.26.91 3.42.1.8.13 1.6.09 2.38-.06 1.01-.36 1.99-.88 2.85a8.16 8.16 0 0 1-2.61 2.69Z"/>
  <path fill="#C0B9CD" d="m41.85 23.56-.8-1.68-.1-.39c.2-.1.38-.24.55-.38.66-.71 1.38-1.37 2.16-1.95a.6.6 0 0 1 0 .25l-1.81 4.15Z"/>
  <path fill="#7C6CAB" d="M37.43 52.36c.13-.2.24-.42.38-.62.14-.19.44-.53.66-.8l1.3 1.55-2.34-.13Z"/>
  <path fill="#7867A8" d="M23.94 40.95c.1.1.18.2.26.32.1.18.17.4.26.58l.13.27c.03.6.18 1.2.45 1.75.2.68.48 1.35.74 2.03.2.5.4.99.62 1.48.46.98.88 1.98 1.42 2.95.6 1.12 1.23 2.23 1.93 3.31.88 1.36 1.83 2.63 2.75 4a20.6 20.6 0 0 0-1.25 1.73c-.38.66-.66 1.38-.99 2.07h-.12c-.53-.13-1.06-.27-1.6-.39a23.78 23.78 0 0 1-4.81-1.53h-.32a.3.3 0 0 1 0-.12l-.23-2.03v-.25c-.04-2.03-.16-4.05-.1-6.06a65.83 65.83 0 0 1 .36-6.53c.12-1.07.25-1.89.39-2.83.02-.27-.14-.55.11-.76Z"/>
  <path fill="#C0B9CD" d="M36.5 62.19h.24c.44.44.9.86 1.37 1.26 1.2.96 2.38 1.92 3.64 2.72.97.67 2.02 1.2 3.04 1.75l1.62.88a10.7 10.7 0 0 1-3.2 2.62A12.6 12.6 0 0 1 39.3 73c-.86.2-1.74.3-2.63.33a5.25 5.25 0 0 1-3.75-1.55 8.24 8.24 0 0 1-2.26-4.63 10.45 10.45 0 0 1 .34-4.68c.05-.27.13-.53.2-.8l1.64.15 1.4.14c.76.12 1.52.18 2.26.24Z"/>
  <path fill="#978CBD" d="m50.4 61.31 1.85-.39-.13 1.43-1.48-.8c-.14-.05-.14-.16-.24-.23Z"/>
  <path fill="#8475B0" d="M33.28 43.41c-.2-.21-.37-.44-.53-.69-.8-1.49-1.63-2.96-2.36-4.47a45.76 45.76 0 0 1-1.75-4.23c-.48-1.27-.87-2.56-1.3-3.85-.1-.34-.17-.7-.27-1.04a2.26 2.26 0 0 0-.27-.4c.42-1.35.83-2.71 1.3-4.06a73.79 73.79 0 0 1 2.44-6.13 38.92 38.92 0 0 1 3.4-5.95c.73-1.11 1.6-2.13 2.56-3.05.38-.36.83-.65 1.32-1.05v.88c-.03 1.17.07 2.34.27 3.5V13l-.77.57c-1.34.96-2.59 2.04-3.74 3.23a10.7 10.7 0 0 0-2.4 3.5 9.32 9.32 0 0 0-.6 2.62c-.09 1.63 0 3.26.26 4.86.16 1.24.4 2.47.65 3.7.3 1.5.6 2.99.77 4.5.19 1.52.42 2.9.63 4.38.07.4.11.8.16 1.2l.23 1.85Z"/>
  <path fill="#6D5BA1" d="M36.5 62.19c-.76-.06-1.52-.12-2.28-.2l-1.37-.12-1.6-.18-.88-.25c.33-.7.62-1.41 1-2.07.37-.58.78-1.14 1.21-1.69.5.57 1 1.15 1.51 1.71.72.77 1.45 1.52 2.16 2.3l.25.5Z"/>
  <path fill="#7C6CAB" d="m33.28 43.41-.24-1.75-.15-1.2c-.21-1.44-.46-2.88-.63-4.37a54.52 54.52 0 0 0-.78-4.5 53.44 53.44 0 0 1-.65-3.7c-.26-1.6-.35-3.24-.26-4.87.07-.9.27-1.78.6-2.62a10.7 10.7 0 0 1 2.4-3.5 28.67 28.67 0 0 1 3.74-3.23l.77-.57c.13.48.27.96.37 1.46.46 1.92 1.08 3.8 1.86 5.61.19.47.42.88.63 1.37l.11.38a.62.62 0 0 0-.6.3 8.19 8.19 0 0 0-1.75 3.35c-.13.64-.21 1.29-.33 1.93l-.43 2.44a773.5 773.5 0 0 1-.74 3.54c-.2.95-.43 1.9-.66 2.84l-1.4 5.79-.7 2.83-.1.07c-.03.03 0 0-.05 0-.51-.4-.87-.97-1.01-1.6Z"/>
  <path fill="#7867A8" d="M54.3 37.2c-.15-.06-.13-.1 0-.15v.14Z"/>
  <path fill="#66539D" d="m24.6 42.12-.14-.27.13.27Z"/>
</svg>