<svg viewBox="0 0 80 80" xmlns="http://www.w3.org/2000/svg">
<rect width="100%" height="100%" fill="white" />
<path fill-rule="evenodd" clip-rule="evenodd" d="M61.7083 65.674C68.6287 59.6053 73 50.684 73 40.7385C73 22.4542 58.2254 7.63184 40 7.63184C21.7746 7.63184 7 22.4542 7 40.7385C7 50.3935 11.1196 59.083 17.6916 65.1347L17.722 64.9218L61.0303 50.6963L61.7083 65.674Z" fill="#333333"/>
<path d="M31.4812 11.6074L25.627 10.7356L26.5039 10.4649C27.0323 10.3018 27.5281 10.0465 27.9681 9.71088L28.1058 9.60598C28.6363 9.20148 29.0584 8.67111 29.3342 8.06252C29.4831 7.73377 29.5875 7.38646 29.6443 7.02987L29.7098 6.6192C29.7803 6.17659 29.7767 5.72527 29.6991 5.28386C29.6661 5.09635 29.8524 4.94609 30.0278 5.01859L30.2673 5.11754C30.5678 5.24167 30.8585 5.38863 31.1367 5.55714L32.1322 6.16019C33.4553 6.96159 34.6151 8.00715 35.5502 9.24159L36.2122 10.1155C36.4588 10.4411 36.7494 10.7307 37.0755 10.9761C37.4332 11.2452 37.8297 11.4581 38.2514 11.6074L38.7109 11.7702L36.297 11.867C34.6871 11.9316 33.0749 11.8447 31.4812 11.6074Z" fill="#CCCCCC"/>
<path d="M29.9866 16.8145L31.7228 13.6304C31.7399 13.5992 31.7409 13.5616 31.7257 13.5295L31.1337 12.2792C30.7621 11.4943 29.9735 10.9942 29.1073 10.9942L28.9436 10.9885C27.8101 10.9493 26.6844 10.7851 25.5866 10.4988L25.3696 10.4421C24.4694 10.2073 23.5961 9.87856 22.7642 9.46125L22.3972 9.27718C21.8446 9.00001 21.3213 8.66794 20.8348 8.28598L20.3482 7.90394C20.2035 7.79042 19.994 7.81941 19.8855 7.96795C19.5509 8.42564 19.3411 8.96299 19.2769 9.52692L19.1884 10.3032C19.141 10.7197 19.1357 11.1399 19.1727 11.5574L19.3882 13.9893C19.5485 15.7986 20.1709 17.5359 21.1955 19.0336L21.4149 19.3543C21.7296 19.8144 22.0965 20.2364 22.5081 20.6118C22.5661 20.6647 22.64 20.6973 22.7182 20.7043C25.6951 20.9722 28.5523 19.4452 29.9866 16.8145Z" fill="#CCCCCC"/>
<path d="M23.4199 20.763L25.4821 19.8674C26.3924 19.4722 26.6696 18.3109 26.0364 17.5448C25.5217 16.9221 24.6061 16.8241 23.972 17.3239L23.4829 17.7094C23.3657 17.8017 23.2586 17.9062 23.1632 18.0211L21.9871 19.4369C21.8219 19.6358 21.8351 19.9283 22.0176 20.1115L22.3809 20.528C22.4391 20.5947 22.507 20.6527 22.582 20.6997C22.834 20.8578 23.1472 20.8813 23.4199 20.763Z" fill="#EDEDED"/>
<path d="M26.0766 10.586L26.0137 10.6062L26.2021 10.6664C27.0184 10.9269 27.8649 11.0795 28.7204 11.1204C28.7632 11.1225 28.8062 11.1175 28.8474 11.1056L29.2363 10.9942L29.4297 10.9295L28.1946 10.6602C28.0321 10.6247 27.8805 10.5504 27.7527 10.4436C27.6531 10.3603 27.6537 10.2064 27.7542 10.1239L27.9373 9.97362C28.1561 9.79403 28.3331 9.56853 28.4557 9.31299C27.7454 9.87738 26.9395 10.3086 26.0766 10.586Z" fill="#B2B2B2"/>
<path d="M33.1391 33.1638L16.3187 63.3303C16.2352 63.48 16.0323 63.5082 15.9114 63.3869L15.5723 63.0467L14.1543 61.4301L13.2505 60.2568C12.3935 59.1441 11.6284 57.9632 10.9627 56.7259L10.8341 56.4868C10.127 55.1723 9.53474 53.7989 9.06393 52.3819L8.61132 51.0196C7.93136 48.5469 7.77529 45.9586 8.15316 43.4215L8.16912 43.3145C8.33468 42.2028 8.59886 41.1083 8.95852 40.0439L9.70702 37.8287L10.2656 36.6499C11.1319 34.8218 12.3263 33.1695 13.7891 31.7752L14.4987 31.099C15.9658 29.7008 17.75 28.6816 19.6973 28.1295C19.2418 28.2586 18.777 28.3514 18.307 28.4072L17.3769 28.5175L16.668 28.5821L15.8945 28.7115L15.1211 28.784L14.6055 28.8408L14.234 28.8641C14.1147 28.8716 14.0586 28.7188 14.1543 28.6468L14.6734 28.3972C16.3465 27.5929 17.722 26.2766 18.6016 24.6378L19.1749 23.7405C19.8585 22.6705 20.7681 21.7642 21.8392 21.0855L22.0605 20.9454C22.4604 20.692 22.8872 20.4845 23.3331 20.3265L25.3622 19.608C25.7363 19.4756 26.0382 19.192 26.1945 18.8261L26.2255 18.7536C26.2979 18.5838 26.3272 18.3986 26.3105 18.2147C26.2854 17.9374 26.1575 17.6798 25.9522 17.4925L25.5955 17.1672C25.5736 17.1471 25.5535 17.1251 25.5357 17.1013L23.2422 14.0333L21.4121 11.5027C21.05 11.0019 20.8392 10.4071 20.8051 9.78935C20.7995 9.69146 20.9007 9.6236 20.9889 9.66601L22.969 10.6195C24.6826 11.4447 26.6363 11.6182 28.4676 11.1078C28.8934 10.9892 29.3284 10.9068 29.7679 10.8616L30.6768 10.7681C32.9625 10.5329 35.2717 10.7233 37.4884 11.3299L37.6797 11.3822L39.845 12.1642C42.5612 13.1452 44.7137 15.2693 45.7363 17.9777L46.1903 19.7538C46.3169 20.2495 46.4958 20.7303 46.724 21.188C47.2601 22.2637 48.056 23.1879 49.039 23.8765L50.1944 24.6856C50.7022 25.0413 51.2351 25.3591 51.7888 25.6371L54.3458 26.9197C54.4604 26.9771 54.4947 27.1249 54.4172 27.2272C53.712 28.1581 52.7808 28.8919 51.7123 29.3587L50.2314 30.0057C49.6418 30.2633 49.0339 30.4767 48.4127 30.6442L47.3247 30.9374C45.7997 31.3483 44.2276 31.5566 42.6485 31.5566H40.0429C39.5034 31.5566 38.9689 31.4548 38.467 31.2564C36.4655 30.4653 34.1893 31.2802 33.1391 33.1638Z" fill="white"/>
<path d="M41.9575 22.2862L43.0921 22.2994C43.2462 22.3012 43.281 22.0834 43.134 22.0369C42.8929 21.9604 42.6585 21.8636 42.4337 21.7474L41.548 21.2896C40.9475 20.9794 40.3828 20.604 39.8639 20.1701L39.6897 20.0245C39.2962 19.6955 38.9392 19.325 38.6246 18.9194L38.4233 18.6596C38.3545 18.5708 38.2127 18.6249 38.2201 18.7372C38.3516 20.7175 39.9793 22.2632 41.9575 22.2862Z" fill="#666666"/>
<path d="M17.5991 63.809L36.8177 46.6097C38.6294 44.9884 40.2037 43.1184 41.4941 41.0553L41.6114 40.8677C42.2435 39.5993 42.5133 38.18 42.3909 36.7673L42.2224 34.8229C42.1187 33.6268 41.6266 32.498 40.8216 31.6095C40.7904 31.5751 40.749 31.5515 40.7035 31.5421L37.6153 30.9099C35.3745 30.2312 32.9989 30.1333 30.7102 30.6254L30.5899 30.6512L28.7929 31.0727C23.5522 32.3018 18.9334 35.3955 15.7929 39.7804L15.7137 39.891C14.8484 41.0991 14.1134 42.396 13.5208 43.7597L13.4151 44.0032C11.9184 47.4478 11.4139 51.2444 11.9589 54.962L12.1371 56.1779C12.3207 57.4301 12.6968 58.6463 13.2521 59.7828C13.765 60.8325 14.4252 61.8029 15.2126 62.6647L16.1933 63.7381C16.5637 64.1434 17.1901 64.175 17.5991 63.809Z" fill="#CCCCCC"/>
<path d="M34.4247 40.8494L34.3625 40.885C32.7408 41.8147 31.8683 43.5696 31.9537 45.4415C31.9779 45.974 32.5096 46.4616 33.0208 46.3164L33.9624 46.0487C35.1798 45.7026 36.3072 45.0942 37.2658 44.2656L40 41.9024L40.8111 41.3001C45.5263 37.7988 51.4511 36.3561 57.2417 37.2991C57.4204 37.3282 57.4261 37.5839 57.2489 37.621L56.5645 37.764L56.2542 37.8729C55.617 38.0966 55.0635 38.511 54.6682 39.0601C54.594 39.1632 54.693 39.3017 54.8142 39.2643L55.0386 39.195C56.3024 38.8049 57.6281 38.6569 58.9464 38.7586L59.4648 38.7986C62.2805 38.9215 64.8936 40.3021 66.5874 42.5619L67.2223 43.409C69.1039 45.9195 69.9002 49.0837 69.4317 52.1893L69.1871 53.8113C68.854 56.0196 68.0523 58.1306 66.8362 60.0013L66.748 60.1369L65.3945 61.9474L63.9121 63.6286L62.5541 64.9366C61.3141 66.1307 59.9582 67.1975 58.5067 68.121L58.0469 68.4135L57.1671 68.8338C56.9405 68.9421 56.7514 68.6305 56.9512 68.4782L58.1758 67.3143L58.4275 67.049C59.108 66.3322 59.5972 65.4546 59.8498 64.4978L59.9662 64.0565C60.0185 63.8583 60.0449 63.6511 60.0449 63.446C60.0449 62.3236 59.2527 61.3393 58.1546 61.1237C57.4738 60.99 56.7688 61.1665 56.2302 61.6055L55.0176 62.594L52.877 64.3511C51.472 65.5043 49.9496 66.5054 48.3351 67.3378L46.123 68.4782L42.3848 69.9007L41.6 70.1154C40.2349 70.489 38.8414 70.7491 37.4337 70.8932L36.3906 71H33.0391L28.5918 70.515L26.1854 69.9926C24.916 69.717 23.6877 69.2777 22.5309 68.6855C21.5897 68.2038 20.7018 67.6239 19.8817 66.9554L18.0215 65.4391C15.7663 63.7114 14.3534 61.1001 14.1382 58.2614L14.0254 56.7745L14.1581 54.6823C14.3649 51.4215 15.6098 48.3137 17.7094 45.8161C18.5584 44.8062 19.5345 43.9113 20.6133 43.1536L21.0091 42.8756C22.6567 41.7186 24.4952 40.8627 26.4397 40.3474L27.7471 40.0009C29.4471 39.5504 31.2282 39.5028 32.9497 39.8616L34.3136 40.1459C34.6558 40.2173 34.7281 40.6755 34.4247 40.8494Z" fill="#5E5E5E"/>
</svg>
