<svg xmlns="http://www.w3.org/2000/svg" viewBox="0 0 80 80">
  <rect width="100%" height="100%" fill="#E05C43"/>
  <path fill="#FEFEFE" fill-rule="evenodd" d="M34 40.7c.3-12.9 8.8-18.5 11.7-15.7 3 2.8 1.9 8.9-3.7 12.7-5.5 3.7-8 3-8 3Zm8 13c-7.5.2-6.7-4.7-6.7-4.7s27.4-9.4 20-28c-3.4-4.6-7.3-6.1-12.8-6-5.5.1-12.4 3.5-16.8 13.4-1.7 4-2.8 8.3-3.3 12.7 0 0-4.8 1-7.4-1.2-2.6-2.2-4 0-4 0s-4.5 5.3 0 7c4.5 1.8 11.3 2 11.3 2 .7 4.7 2.2 9.1 8 12.8 9.5 6.2 23.6-.3 23.6-.3 6.3-2.7 12-6.7 16.5-11.7a2.2 2.2 0 0 0 0-3l-2.8-2.9a2.2 2.2 0 0 0-3-.2C61 46.6 51.2 53.8 42 53.8" clip-rule="evenodd"/>
</svg>