<svg viewBox="0 0 80 80" xmlns="http://www.w3.org/2000/svg">
<rect width="100%" height="100%" fill="#E05C43"/>
<path fill-rule="evenodd" clip-rule="evenodd" d="M34.0156 40.6855C34.3348 27.7992 42.7826 22.174 45.715 24.9866C48.6473 27.7992 47.5502 33.8634 42.0246 37.6534C36.4991 41.4435 34.0455 40.6456 34.0455 40.6456L34.0156 40.6855ZM42.0246 53.7513C34.5243 53.9408 35.3122 49.0137 35.3122 49.0137C35.3122 49.0137 62.7105 39.6382 55.26 21.0868C51.8888 16.3891 47.979 14.893 42.5133 15.0028C37.0477 15.1125 30.1358 18.4637 25.6974 28.4376C23.9792 32.4758 22.8764 36.749 22.426 41.1144C22.426 41.1144 17.5786 42.1118 14.9755 39.9275C12.3723 37.7432 10.9859 39.9275 10.9859 39.9275C10.9859 39.9275 6.51761 45.1638 10.9859 46.9092C15.4542 48.6546 22.3362 48.9838 22.3362 48.9838C22.9645 53.6017 24.5304 58.0301 30.2255 61.7304C39.7805 67.9441 53.9434 61.3514 53.9434 61.3514C60.2223 58.6926 65.8505 54.7046 70.4402 49.662C70.8108 49.2483 71.0107 48.7094 70.9996 48.1541C70.9885 47.5988 70.7672 47.0684 70.3804 46.6698L67.6176 43.7973C67.2322 43.3977 66.7107 43.1575 66.1565 43.1243C65.6023 43.091 65.0559 43.2672 64.6254 43.6178C60.9351 46.61 51.2205 53.8011 41.9847 53.8011" fill="#FEFEFE"/>
</svg>
