<svg viewBox="0 0 80 80" xmlns="http://www.w3.org/2000/svg">
<rect width="100%" height="100%" fill="white"/>
<path d="M72 57.7775C69.672 58.3754 68.232 57.8038 66.94 55.8444L57.752 43.0059L56.424 41.2284L45.694 55.8869C44.468 57.6502 43.182 58.4178 40.894 57.7937L54.634 39.166L41.842 22.3402C44.042 21.9079 45.562 22.1281 46.912 24.1177L56.442 37.1158L66.042 24.1884C67.272 22.425 68.594 21.7544 70.802 22.4048L65.842 29.0463L59.122 37.8834C58.322 38.8933 58.432 39.5842 59.168 40.5598L72 57.7775ZM8.016 38.855L9.14 33.2719C12.2 22.223 24.74 17.6317 33.388 24.459C38.442 28.4746 39.698 34.1546 39.448 40.5174H10.96C10.532 51.9703 18.694 58.8824 29.1 55.3556C32.75 54.1174 34.9 51.231 35.976 47.6194C36.522 45.8095 37.426 45.5267 39.11 46.0438C38.25 50.5604 36.31 54.3336 32.21 56.6948C26.084 60.2297 17.34 59.0864 12.74 54.174C10 51.3239 8.868 47.7123 8.36 43.8502C8.28 43.2119 8.12 42.6039 8 41.9919C8.01067 40.9469 8.016 39.902 8.016 38.857V38.855ZM11.012 38.0874H36.756C36.588 29.8058 31.482 23.9238 24.504 23.8733C16.844 23.8127 11.344 29.5553 11.012 38.0874Z" fill="black"/>
</svg>
