<svg xmlns="http://www.w3.org/2000/svg" viewBox="0 0 80 80">
  <rect width="100%" height="100%" fill="#fff"/>
  <path d="M72 57.8c-2.3.6-3.8 0-5-2L57.7 43l-1.4-1.8L45.7 56c-1.2 1.8-2.5 2.5-4.8 1.9l13.7-18.6-12.8-16.9c2.2-.4 3.8-.2 5.1 1.8l9.5 13 9.6-13c1.3-1.7 2.6-2.3 4.8-1.7l-5 6.6-6.7 8.9c-.8 1-.7 1.7 0 2.7L72 57.8Zm-64-19 1.1-5.5c3.1-11 15.6-15.7 24.3-8.8 5 4 6.3 9.7 6 16H11C10.5 52 18.7 59 29 55.4c3.6-1.3 5.8-4.2 6.9-7.8.5-1.8 1.4-2 3.1-1.6-.9 4.6-2.8 8.3-6.9 10.7a16.6 16.6 0 0 1-19.5-2.5 17.6 17.6 0 0 1-4.3-10.3l-.4-2v-3Zm3-.7h25.8c-.2-8.3-5.3-14.2-12.3-14.2-7.7 0-13.2 5.7-13.5 14.2Z"/>
</svg>