<svg xmlns="http://www.w3.org/2000/svg" viewBox="0 0 80 80"><path d="M0 28.8h12v.95H1.1v7.13h10.22v.95H1.1v7.83h11v1H0zm17.28 11.08l-4.69-6.09h1.33l4 5.36 4-5.36h1.22l-4.64 6.09 5.07 6.73h-1.3l-4.39-6-4.49 6h-1.2zM26 36.73a5.1 5.1 0 01.5-1 4.15 4.15 0 01.92-1.06 4.84 4.84 0 011.39-.81 4.9 4.9 0 011.86-.33 5.6 5.6 0 012.63.47 5.39 5.39 0 011.8 1.47 6.36 6.36 0 011.06 2.15 9.37 9.37 0 01.35 2.56 9.92 9.92 0 01-.35 2.7A6.07 6.07 0 0135.1 45a4.93 4.93 0 01-1.8 1.38 6.17 6.17 0 01-2.57.5 5.84 5.84 0 01-2.85-.7 4.08 4.08 0 01-1.82-2.27v7.29h-.92V33.79H26zm4.73 9.35a4.59 4.59 0 002.16-.47 4.21 4.21 0 001.5-1.27 5.5 5.5 0 00.87-1.86 8.28 8.28 0 00.29-2.26 8.62 8.62 0 00-.27-2.15 6.19 6.19 0 00-.85-1.9A4.47 4.47 0 0033 34.83a4.38 4.38 0 00-2.21-.52 4.47 4.47 0 00-2.18.5 4.32 4.32 0 00-1.46 1.32 5.56 5.56 0 00-.87 1.87 9.89 9.89 0 00-.25 2.2 10.55 10.55 0 00.23 2.21A5.3 5.3 0 0027 44.3a4 4 0 001.45 1.3 4.86 4.86 0 002.29.48zm8.95-9.45h.07a3.22 3.22 0 01.64-1.17 4.54 4.54 0 011.12-1A5.69 5.69 0 0143 33.9a5.86 5.86 0 011.68-.18v.94a4.76 4.76 0 00-1.71.15 4.22 4.22 0 00-1.83 1.1c-.23.25-.43.49-.61.72a3.94 3.94 0 00-.44.78 5.52 5.52 0 00-.27.94 7.26 7.26 0 00-.12 1.25v7h-1V33.79h1zm6.03 3.69v.15a7.6 7.6 0 00.3 2.15 5.46 5.46 0 00.89 1.79 4.18 4.18 0 001.47 1.23 4.54 4.54 0 002.07.44 4.37 4.37 0 003.05-1A5.29 5.29 0 0055 42.27h1a5.77 5.77 0 01-1.84 3.44 5.55 5.55 0 01-3.73 1.2 5.69 5.69 0 01-2.48-.51 5.17 5.17 0 01-1.78-1.4 6 6 0 01-1.06-2.09 9.52 9.52 0 01-.35-2.61 9.14 9.14 0 01.36-2.58 6.71 6.71 0 011.09-2.17 5.41 5.41 0 011.79-1.5 6 6 0 015-.05 5.13 5.13 0 011.73 1.36 6.13 6.13 0 011.06 2 8 8 0 01.36 2.44v.54zm9.43-.82a7.89 7.89 0 00-.35-2 5.06 5.06 0 00-.89-1.65 4.4 4.4 0 00-1.43-1.13 4.17 4.17 0 00-1.91-.43 4.45 4.45 0 00-3.5 1.59 4.87 4.87 0 00-.92 1.66 7.61 7.61 0 00-.4 1.94zm3.61 2.84a4.14 4.14 0 00.4 1.59 3.76 3.76 0 00.91 1.17 4 4 0 001.31.74 5.29 5.29 0 001.62.24 8.06 8.06 0 001.34-.08 4.51 4.51 0 001.32-.41 2.82 2.82 0 001-.83 2.26 2.26 0 00.4-1.36 2 2 0 00-.65-1.62 4.5 4.5 0 00-1.63-.85 17.84 17.84 0 00-2.12-.49 10.44 10.44 0 01-2.12-.56 4.27 4.27 0 01-1.64-1.06 2.84 2.84 0 01-.65-2 2.8 2.8 0 01.43-1.58 3.17 3.17 0 011.08-1 5 5 0 011.49-.54 9.11 9.11 0 011.64-.16 7.43 7.43 0 011.87.23 4.07 4.07 0 011.51.72 3.39 3.39 0 011 1.27 4.42 4.42 0 01.36 1.87h-.95a3.62 3.62 0 00-.28-1.5 2.67 2.67 0 00-.8-1 3.76 3.76 0 00-1.21-.57 6 6 0 00-1.5-.19 7.36 7.36 0 00-1.31.13 3.68 3.68 0 00-1.18.42 2.58 2.58 0 00-.86.78 1.86 1.86 0 00-.34 1.14 2 2 0 00.39 1.16 2.59 2.59 0 001 .76 6.68 6.68 0 001.37.46l1.54.35c.63.12 1.22.25 1.78.41a5.22 5.22 0 011.45.65 3.15 3.15 0 011 1.06 3.48 3.48 0 01.28 1.68 2.91 2.91 0 01-.48 1.72 3.47 3.47 0 01-1.2 1.08 4.93 4.93 0 01-1.6.58 10.43 10.43 0 01-1.74.16 6.91 6.91 0 01-2-.29 4.57 4.57 0 01-1.63-.87 4.13 4.13 0 01-1.1-1.44 4.65 4.65 0 01-.42-2zm12 0a3.81 3.81 0 00.4 1.59 3.62 3.62 0 00.91 1.17 3.91 3.91 0 001.31.74 5.29 5.29 0 001.62.24 7.94 7.94 0 001.33-.08 4.33 4.33 0 001.32-.41 2.74 2.74 0 001-.83 2.19 2.19 0 00.4-1.36 2 2 0 00-.65-1.62 4.42 4.42 0 00-1.63-.85 17.4 17.4 0 00-2.12-.49 10.62 10.62 0 01-2.12-.56 4.23 4.23 0 01-1.63-1.06 2.84 2.84 0 01-.65-2 2.8 2.8 0 01.42-1.58 3.29 3.29 0 011.09-1 4.92 4.92 0 011.48-.54 9.22 9.22 0 011.65-.16 7.48 7.48 0 011.87.23 4.15 4.15 0 011.51.72 3.47 3.47 0 011 1.27 4.27 4.27 0 01.37 1.87h-.95a3.62 3.62 0 00-.29-1.5 2.67 2.67 0 00-.8-1 3.66 3.66 0 00-1.21-.57 5.9 5.9 0 00-1.49-.19 7.36 7.36 0 00-1.31.13 3.73 3.73 0 00-1.19.42 2.68 2.68 0 00-.86.78 1.92 1.92 0 00-.33 1.14 2 2 0 00.37 1.16 2.62 2.62 0 001 .76 6.29 6.29 0 001.37.46l1.53.35c.63.12 1.23.25 1.78.41a5.22 5.22 0 011.45.65 3 3 0 011 1.06 3.48 3.48 0 01.3 1.68 3 3 0 01-.47 1.72 3.65 3.65 0 01-1.2 1.08 5 5 0 01-1.61.58 10.41 10.41 0 01-1.73.16 7 7 0 01-2-.29 4.65 4.65 0 01-1.63-.87 4.25 4.25 0 01-1.1-1.44 5 5 0 01-.42-2z"/></svg>