<svg xmlns="http://www.w3.org/2000/svg" viewBox="0 0 80 80"><path d="M30.5 23.5a5.4 5.4 0 013.18-1.7 39.25 39.25 0 019.12-.26c2.74.22 3.83 1.43 4.14 4.09 6.2 1.87 7.79 5.71 4.33 10.47a6.37 6.37 0 00-2.78-2.75C46 32.27 42.23 33 40.55 35.2a20.46 20.46 0 00-3.72 8.66 15.61 15.61 0 00-.33 6.66 77.99 77.99 0 002 7c.4 1.3 1 2.54 1.63 4.1L73.15 4.38a8.38 8.38 0 015.72 12.42L47.25 71.57a8.37 8.37 0 01-14.5 0L1.13 16.8A8.37 8.37 0 018.38 4.25H67l-6.46 11.16H13.22l8.55 14.82c.74-.43 1.65-.92 2.19-1.28 2.35-1.55 4.9-3.17 6.54-5.45M43 26.91c-2-.82-2.82-.8-4 .08 1.35 1.54 2.67.78 4-.08z" fill="#865fb0"/></svg>