<svg xmlns="http://www.w3.org/2000/svg" viewBox="0 0 80 80">
  <rect width="100%" height="100%" fill="#202020"/>
  <path fill="#F0AD4E" d="M67.9 11.67c.17-.38.42-.76.52-.84.1-.07.22-.15.26-.15.14 0-.19 2.36-.46 3.33a15.7 15.7 0 0 1-1.54 4.02c-1.6 3.18-3.83 5.14-9.4 8.32-3.99 2.25-6.18 4.94-7.2 8.8a64.78 64.78 0 0 0-1.2 6.29c-.12.83-.35 2.17-.5 2.95-.51 2.45-.51 2.47-.19 2.47.82 0 3.87 3.56 5.47 6.36l.01.04c.21.38.53.94.73 1.26 2.23 3.94 5.58 8.15 8.2 10.3 1.17.97 3.85 2.78 5.24 3.56.63.34 1.3.76 1.49.92.55.5.34 2.13-.29 2.13-.07 0-.76-.53-1.52-1.16a41.52 41.52 0 0 0-2.63-2.04c-.68-.5-1.33-.97-1.45-1.09-.59-.53-4.13-3-5.94-4.15-3.88-2.45-8.9-4.7-10.5-4.7-1.17 0-2.18.7-3.26 2.28a12.45 12.45 0 0 1-2.21 2.57c-1.01 1.01-2.14 1.7-3.34 2.08-.51.15-.4.57.23.84a2.14 2.14 0 0 1 1.14 1.8c0 .58-.57.86-.7.37-.08-.3-1.45-1.18-1.85-1.18-.07 0-.1.32-.04.7.37 2.02.35 2.14-.05 2.7-.23.31-.4.64-.4.71 0 .25-.63.84-.9.84-.17 0-.2-.13-.13-.48.08-.32.02-.6-.17-.82-.25-.26-.27-.45-.1-1.1.27-.95.1-1.56-.32-1.22-.15.14-.29.34-.29.48 0 .13-.24.5-.55.78-.3.3-.59.72-.63.93-.11.7-.59.4-.95-.63-.44-1.25-.3-1.79.63-2.53.4-.32.74-.7.74-.86 0-.53-.59-.24-1.54.73-.91.93-1 .97-1.24.64-.2-.3-.2-.43 0-.85.15-.27.44-.9.67-1.41l.4-.9h1.24c.68 0 1.39-.07 1.58-.17a9.91 9.91 0 0 1 .82-.4c1.56-.72 2.36-2.24 2.36-4.47 0-1.37-.08-1.64-.63-2.6a7.22 7.22 0 0 0-3.64-3.15c-3.66-1.64-6.59-3.4-7.71-4.63-.53-.6-.55-.6-.95-.23-.7.65-1.2.8-2.69.8-1.3 0-1.5.06-1.92.48-.33.34-.44.6-.36.81.36.86.34 1-.14 1-.66 0-1.4-.65-1.67-1.43-.17-.52-.17-.92.02-1.72.13-.59.3-1.1.4-1.16.07-.06.15-.72.15-1.48 0-1.68.3-2.52 1.24-3.32 1.52-1.35 3.4-1.92 8.28-2.51 3.07-.38 4.17-.69 5.52-1.6 1.62-1.07 2.44-2.38 4-6.3 3.47-8.76 5.16-10.29 14.86-13.24l1.56-.48.91-.28 1.05-.33.95-.3c5.77-1.79 9.43-4.02 10.53-6.38Z"/>
  <path fill="#F0AD4E" d="M11 23.06c0-4.59 2.23-9.2 6.65-13.77 1.1-1.12 1.73-1.54 1.73-1.14 0 .07-.3.84-.67 1.71-1.27 2.97-1.84 6.29-1.43 8.38.44 2.25 1.34 4.06 3.09 6.25 2.19 2.72 4.2 4.28 9.84 7.63 5.24 3.1 6.04 4.2 4.37 5.87-1.19 1.16-2.18 1.54-4.73 1.8-3.98.43-5.31.7-7.04 1.44l-.69.28-.25-1.37c-.45-2.55-1.82-4.57-4.3-6.36-3.16-2.29-4.32-3.45-5.12-5.1a9.94 9.94 0 0 1-1.07-3.09c0-.23-.08-.47-.19-.53-.11-.06-.19-.95-.19-2ZM35.47 55.87c-.04.13-.1.61-.15 1.1-.12 1.34-1.01 3.1-2.04 4.06-1.24 1.16-2 1.52-2.65 1.28a8.94 8.94 0 0 0-1.67-.3c-.95-.12-1.3-.06-1.75.2-.5.29-.6.48-.6 1.07v.06c0 .38 0 .57.09.62.07.04.23-.04.53-.2l.07-.04c.3-.16.67-.29.8-.29.4 0 .25.38-.25.61-.55.25-.7.72-.74 2.2-.02 1.13.32 1.57.63.77.1-.25.46-.59.8-.78.36-.2.86-.69 1.12-1.09.5-.83.76-.97.76-.4 0 1.22.63 1.28 1.17.1.32-.65.5-.82.72-.72.63.26 1.37.3 1.64.07.26-.23.24-.3-.12-.68-.23-.25-.4-.48-.34-.52.42-.3 1.33-.51 2.27-.51 1.67 0 1.9-.29 1.9-2.44 0-2.19-.57-3.75-1.5-4.15-.48-.2-.63-.21-.69-.02ZM52.38 60.94a5.96 5.96 0 0 1-1.58-.98c0-.2.3-.19.72.04.18.1.8.4 1.38.67 1.23.59 3.86 2.02 4 2.17.1.13.64.48 1.52.95.36.2 1 .63 1.43.95l.68.54.52.4.66.51a20.43 20.43 0 0 1 2.34 1.83c.84.55 3.13 2.7 3.13 2.91 0 .44-1.64.75-4.42.84-1.92.06-2.61.09-2.75-.17-.09-.16.04-.44.22-.88.38-.87.36-1.3-.08-2.45-.97-2.69-3.56-5.1-7.77-7.33Z"/>
</svg>