<svg xmlns="http://www.w3.org/2000/svg" viewBox="0 0 80 80">
  <rect width="100%" height="100%" fill="#fff"/>
  <path d="M75.5971 22.9361 78 16.7432l-.0991-.3964-23.6819 6.2425C56.7458 18.9231 55.8787 16 55.8787 16s-7.5554 4.8305-13.2777 4.7066c-5.7223-.1238-7.5554-1.6597-16.3246 1.1396-8.7692 2.7992-11.2464 11.3702-13.7979 13.2281C9.9518 36.9074 2 43.0261 2 43.0261l7.1838-2.3038s-2.0313 1.9322-6.2177 7.5554v.0248c.6688.9413 3.6167 4.8305 6.5398 3.9882.322-.099.6936-.2724 1.1147-.4706 1.3129.7431 3.0717 1.4615 4.9791 1.6597 0 0-1.2881-1.4863-2.3781-3.2203l.8918-.5698-.1486.0991 2.7497.9909-.2973-2.5763h.0248l2.6753.9909-.322-2.3534 1.0157-.4954 2.7992-10.6023 11.5932-7.927-.9166 2.3285c-2.3533 5.7719-6.7627 7.1343-6.7627 7.1343l-1.8331.7184c-1.3872 1.6102-1.957 2.0065-2.4276 7.4563 1.1147-.2972 2.1551-.3468 3.1212-.0991 4.9544 1.3377 6.6636 7.3077 5.326 8.9674-.3221.3964-1.1148 1.1148-2.1304 1.9322h-2.0065l-.0248 1.635-.1982.1734h-2.056l-.0248 1.5854-.545.3963c-1.9074.0496-4.3598-1.6349-4.3598-1.6349.0247 1.5358 1.2881 3.8892 1.2881 3.8892l.2229-.1239-.1981.1486s5.1525 3.4185 8.3976 2.1552c2.8736-1.1395 10.3299-7.0104 16.7706-9.7849l19.4706-5.1525 2.5763-6.6389-14.8383 3.914v-5.9948l17.4146-4.5828 2.5762-6.6636-19.9908 5.2764v-5.97l22.5423-5.9453ZM40.2477 35.5945l4.6324-1.2138.0495.2229-1.4368 3.7406-4.7809 1.2634 1.5358-4.0131Zm1.5854 8.0013-4.7809 1.2634 1.5606-4.013 4.6075-1.2139.0744.223-1.4616 3.7405Zm6.2425-1.3377-4.7809 1.2634 1.5606-4.013 4.6075-1.2138.0744.2229-1.4616 3.7405Z"/>
</svg>
