<svg xmlns="http://www.w3.org/2000/svg" viewBox="0 0 80 80">
  <rect width="100%" height="100%" fill="#fff"/>
  <path fill="#333" d="M23.9671 31.1597h12.0193l-.5854 3.4567h-7.763l-.5845 3.6107h6.9981l-.5845 3.4679h-6.998l-1.1699 7.0755h-4.2553l2.9232-17.6108ZM36.1813 35.5619h4.2043l-2.197 13.2055h-4.2043l2.197-13.2055Zm.51-3.5587C36.8646 30.8966 37.957 30 39.1392 30c1.1821 0 2.0246.8966 1.8777 2.0032-.1468 1.1067-1.2464 2.0114-2.4326 2.0114s-2.0542-.9119-1.893-2.0114ZM42.5673 31.1597h4.2033l-1.0914 6.6635h.0898c.6874-1.2128 2.0552-2.4326 4.1441-2.4326 2.7601 0 4.8959 2.1235 4.1176 6.7828-.7394 4.496-3.4903 6.7828-6.4135 6.7828-1.9941 0-2.9916-1.1088-3.3006-2.3297h-.1643l-.3437 2.142h-4.1594l2.9181-17.6088Zm4.1523 14.5264c1.5473 0 2.6519-1.3841 2.9916-3.5158.3396-2.1317-.2754-3.4914-1.836-3.4914-1.5391 0-2.6652 1.3331-3.0089 3.4914-.3478 2.1348.3142 3.5158 1.8533 3.5158ZM54.5193 42.2182c.6782-4.0921 3.7045-6.8256 7.6854-6.8256 3.7484 0 5.9842 2.3979 5.2621 6.7399l-.1643 1.0486h-8.7941l-.0265.155c-.2663 1.6768.5242 2.6519 2.1664 2.6519 1.0924 0 2.0399-.4641 2.5193-1.3494l3.8341.1112c-.9364 2.5968-3.4557 4.2726-6.9358 4.2726-4.1462-.0061-6.2606-2.5846-5.5466-6.8042Zm9.2674-1.4789c.2152-1.3495-.5936-2.3123-1.9685-2.3123-1.3586 0-2.5622 1.0057-2.8631 2.3123h4.8316ZM69.5139 35.5619h4.0798l-.408 2.4071h.1377c.7824-1.7452 2.0798-2.5846 3.524-2.5846A4.9963 4.9963 0 0 1 78 35.5272l-.6191 3.6627c-.3866-.1459-1.1006-.2234-1.6248-.2234-1.4871 0-2.7774 1.0577-3.0518 2.6305l-1.1872 7.1704h-4.2033l2.2001-13.2055Z"/>
  <path fill="#00ACD7" d="M21.3682 35.8342H7.6486L6.551 37.3917l14.5631-.0081.254-1.5494ZM20.8837 39.0624H3.1291L2 40.6138l18.6297-.0132.254-1.5382ZM20.3993 42.2896h-7.5855l-1.02 1.5575 8.3515-.0061.254-1.5514Z"/>
</svg>
