<svg xmlns="http://www.w3.org/2000/svg" viewBox="0 0 80 80"><defs><linearGradient id="a" x1="40" y1=".13" x2="40" y2="79.87" gradientUnits="userSpaceOnUse"><stop offset="0" stop-color="#fd9921"/><stop offset="1" stop-color="#ea265e"/></linearGradient><style>.b{fill:#fff}</style></defs><rect x=".13" y=".13" width="79.74" height="79.74" rx="20" fill="url(#a)"/><path class="b" d="M37.36 54.06a2.47 2.47 0 00-.29-.06l-.94-.08c-.34 0-.68-.08-1-.14-.53-.08-1-.18-1.57-.28a23.48 23.48 0 01-2.6-.64 29.25 29.25 0 01-4.53-1.75 29.51 29.51 0 01-7-4.7 1 1 0 01-.14-.15.34.34 0 01.39-.54.86.86 0 01.24.11c.76.43 1.53.85 2.32 1.23A39.35 39.35 0 0026.88 49a39.12 39.12 0 004.27 1.19c.74.16 1.48.3 2.23.43.5.09 1 .16 1.5.23s.85.1 1.27.14l1.07.1h.89c.72 0 1.43.05 2.15.05s1.32 0 2-.07l1.23-.07c.38 0 .75-.08 1.13-.12l1-.14c.5-.08 1-.15 1.51-.24.73-.15 1.46-.3 2.18-.47a39 39 0 006.22-2 .83.83 0 01.6-.06.56.56 0 01.41.43.49.49 0 01-.09.42 1.33 1.33 0 01-.27.26 20.46 20.46 0 01-2.39 1.51A27.47 27.47 0 0149 52.64a31.14 31.14 0 01-3.29.85c-.58.12-1.16.21-1.74.3-.37.06-.75.1-1.13.15l-.87.09a.45.45 0 00-.11 0zM19.57 25.94h.17a7.28 7.28 0 011.32.22h.06a.46.46 0 01.33.42v.89c0 .15-.14.37-.39.34l-.59-.08a4.58 4.58 0 00-1.11 0 3.85 3.85 0 00-.47.08 1.11 1.11 0 00-.84.92 2.48 2.48 0 00-.06.54v2.05h3a.33.33 0 01.32.36v.91a.33.33 0 01-.34.38H18v8.76a.9.9 0 010 .23.3.3 0 01-.25.24.64.64 0 01-.2 0h-1.21c-.35 0-.48-.13-.48-.49V33h-1.73a.3.3 0 01-.27-.23l-.06-.13v-.63l.06-.15a.3.3 0 01.18-.2.64.64 0 01.18-.06l.61-.08.91-.11h.12v-2.09a4.37 4.37 0 01.27-1.43 2.58 2.58 0 011.06-1.33 3.39 3.39 0 011.59-.56h.26zM36.85 37.2a5 5 0 00.42 2 2.58 2.58 0 001.64 1.39 5.1 5.1 0 001.46.21 8.26 8.26 0 002.79-.43l.35-.1h.1c.22 0 .32.06.33.28s0 .59 0 .88a.38.38 0 01-.19.32 3.6 3.6 0 01-.39.2 7.68 7.68 0 01-1.63.43 9.44 9.44 0 01-1.92.13 5.92 5.92 0 01-2.44-.51 4.12 4.12 0 01-2-2.12 6.18 6.18 0 01-.48-1.78 9.65 9.65 0 01-.07-1.86 6.42 6.42 0 01.6-2.59 4.35 4.35 0 013.1-2.5A6.68 6.68 0 0140.4 31a5.13 5.13 0 011.4.29 3.43 3.43 0 012 2 4.91 4.91 0 01.34 1.42 8.88 8.88 0 01-.06 2.06A1.43 1.43 0 0144 37a.26.26 0 01-.22.19h-6.93zm0-1.43h5.39c.11 0 0-.08 0-.11v-.59a3.57 3.57 0 00-.15-1 2 2 0 00-1.45-1.43 3.16 3.16 0 00-1.06-.09 2.75 2.75 0 00-1.19.29 2.5 2.5 0 00-1.21 1.31 4.43 4.43 0 00-.31 1.24c0 .14-.01.26-.02.38zM61 40.26a1.78 1.78 0 00.09-.23L64 31.92c.05-.14.12-.28.18-.42a.4.4 0 01.32-.2h1.57a.2.2 0 01.17.18.69.69 0 010 .32l-.95 2.2c-1 2.55-2 5.11-3.05 7.67 0 .1-.09.2-.14.3a.38.38 0 01-.29.2h-1.6a.37.37 0 01-.29-.19c-.05-.1-.1-.19-.14-.29l-2.25-5.64-1.58-4a3.4 3.4 0 01-.12-.34.73.73 0 010-.25.22.22 0 01.19-.22h1.71a.29.29 0 01.23.18 2.93 2.93 0 01.19.4q1.09 3.12 2.2 6.26l.68 2zM49.17 33H47.5a.32.32 0 01-.3-.3v-.76a.32.32 0 01.26-.32l.48-.08 1.16-.14a.7.7 0 00.14 0v-.54c.06-.48.11-1 .16-1.44l.06-.61a1.52 1.52 0 010-.21.35.35 0 01.34-.28H51a.31.31 0 01.32.3 1.15 1.15 0 010 .19v2.55h2.9a.35.35 0 01.34.35v.93a.34.34 0 01-.34.37H51.3v6.25a2.6 2.6 0 00.06.56 1 1 0 00.79.8 2.6 2.6 0 001 .07c.37 0 .74-.1 1.1-.15h.08c.2 0 .31.07.31.26v.91a.41.41 0 01-.3.41l-.68.18a6.39 6.39 0 01-1.31.12 4 4 0 01-1.45-.2 2.32 2.32 0 01-1.56-1.73 4.45 4.45 0 01-.13-1.09V33zm-19-.12l.17-.17a5.89 5.89 0 011.29-1 3.8 3.8 0 011.5-.46 4.31 4.31 0 01.88 0 .34.34 0 01.37.36v1.09a.28.28 0 010 .09c0 .28-.12.39-.4.38s-.33 0-.5 0a4.52 4.52 0 00-3.13 1 .26.26 0 00-.09.23v7.37a1.48 1.48 0 010 .21.32.32 0 01-.28.32h-1.54a.35.35 0 01-.3-.33V31.75a1 1 0 010-.24.3.3 0 01.25-.21h1.21a.34.34 0 01.34.29A3.21 3.21 0 0130 32c0 .27.07.53.11.8a.25.25 0 00.06.08zm-4.86 3.86v5a1 1 0 010 .17.31.31 0 01-.27.28.64.64 0 01-.2 0h-1.35a.32.32 0 01-.29-.3 1 1 0 010-.17v-10a.93.93 0 010-.24.31.31 0 01.26-.23H25a.33.33 0 01.28.3 1 1 0 010 .17z"/><path class="b" d="M56.15 46.48a13.15 13.15 0 00-1.57.07l-1.38.14h-.47c-.18 0-.24-.16-.17-.33a.67.67 0 01.25-.28 6.21 6.21 0 011.36-.69A8.59 8.59 0 0155.9 45a10.09 10.09 0 011.82-.09 6.5 6.5 0 011.75.26 2.39 2.39 0 01.44.18.42.42 0 01.23.3 2.39 2.39 0 01.06.8 9.31 9.31 0 01-1 3.61 7 7 0 01-1.55 2.11 1.92 1.92 0 01-.22.18.67.67 0 01-.23.1.22.22 0 01-.28-.24A.8.8 0 0157 52c.26-.68.52-1.36.77-2.05a9.82 9.82 0 00.5-1.86 2.27 2.27 0 000-.9.61.61 0 00-.34-.45 2.27 2.27 0 00-.72-.2 6.35 6.35 0 00-1.06-.06zM24.26 26.75a1.56 1.56 0 01.71.15 1.17 1.17 0 01.61 1 1.51 1.51 0 01-.06.63 1.09 1.09 0 01-.75.74 1.63 1.63 0 01-1.07 0 1.11 1.11 0 01-.72-.78 1.51 1.51 0 010-.79 1.12 1.12 0 01.89-.87 2.58 2.58 0 01.39-.08z"/></svg>