<svg xmlns="http://www.w3.org/2000/svg" viewBox="0 0 80 80">
  <rect width="100%" height="100%" fill="#fff"/>
  <path fill="url(#a)" d="M70.4497 26.8123C69.0177 23.3667 66.1129 19.6464 63.8383 18.4703C65.4607 21.6125 66.5866 24.987 67.1759 28.4739L67.1818 28.5291C63.4556 19.2391 57.1367 15.4933 51.9759 7.3367C51.7093 6.92088 51.4505 6.50017 51.1995 6.07478C51.0701 5.85258 50.949 5.62567 50.8364 5.3945C50.6224 4.98 50.4574 4.54194 50.3449 4.08921C50.3451 4.06832 50.3375 4.04811 50.3237 4.03242C50.3099 4.01674 50.2908 4.00669 50.2701 4.00418C50.2498 3.99861 50.2283 3.99861 50.208 4.00418C50.2037 4.00418 50.1969 4.01183 50.1918 4.01353C50.1867 4.01523 50.1757 4.02289 50.168 4.02629L50.1808 4.00418C41.9026 8.85117 39.0939 17.8241 38.8354 22.3122C35.5295 22.5395 32.3688 23.7577 29.7656 25.808C29.494 25.5779 29.2101 25.3628 28.9152 25.1634C28.1643 22.535 28.1323 19.7531 28.8225 17.1081C25.7825 18.5808 23.0812 20.6685 20.8896 23.2391H20.8743C19.5682 21.5835 19.66 16.1242 19.7348 14.9839C19.3484 15.1392 18.9796 15.335 18.6345 15.5681C17.4815 16.391 16.4035 17.3144 15.4134 18.3275C14.285 19.4715 13.2545 20.708 12.3325 22.0239V22.0291V22.0231C10.2137 25.027 8.71082 28.4209 7.91073 32.0088L7.86651 32.2265C7.74495 32.9102 7.63693 33.5963 7.54252 34.2843C7.54252 34.309 7.53742 34.3319 7.53487 34.3566C7.24638 35.856 7.06761 37.3745 7 38.9V39.0701C7.00723 47.3221 10.1098 55.2712 15.6944 61.3464C21.2791 67.4216 28.9395 71.1808 37.1618 71.881C45.3841 72.5813 53.5699 70.1717 60.1015 65.1285C66.6331 60.0852 71.0352 52.7752 72.4378 44.6433C72.4931 44.2181 72.5382 43.7972 72.5875 43.3677C73.2663 37.7573 72.5314 32.0662 70.4497 26.8123ZM32.4646 52.6102C32.6185 52.6842 32.7631 52.7641 32.9212 52.8347L32.9442 52.8491C32.7843 52.7726 32.6245 52.693 32.4646 52.6102ZM67.1844 28.5368V28.5053L67.1903 28.5402L67.1844 28.5368Z"/>
  <path fill="url(#b)" d="M70.4497 26.8123C69.0177 23.3667 66.1129 19.6464 63.8383 18.4703C65.4607 21.6125 66.5866 24.987 67.1759 28.4739V28.5053L67.1818 28.5402C69.7221 35.8094 69.3546 43.779 66.1563 50.7836C62.3791 58.8883 53.2361 67.1954 38.9247 66.7915C23.4611 66.3536 9.84272 54.8789 7.29677 39.8498C6.83333 37.4799 7.29677 36.2784 7.52977 34.3523C7.21193 35.8484 7.03457 37.3709 7 38.9V39.0701C7.00723 47.3221 10.1098 55.2712 15.6944 61.3464C21.2791 67.4216 28.9395 71.1808 37.1618 71.881C45.3841 72.5813 53.5699 70.1717 60.1015 65.1285C66.6331 60.0852 71.0352 52.7752 72.4378 44.6433C72.4931 44.2181 72.5382 43.7972 72.5875 43.3677C73.2663 37.7573 72.5314 32.0662 70.4497 26.8123Z"/>
  <path fill="url(#c)" d="M70.4497 26.8123C69.0177 23.3667 66.1129 19.6464 63.8383 18.4703C65.4607 21.6125 66.5866 24.987 67.1759 28.4739V28.5053L67.1818 28.5402C69.7221 35.8094 69.3546 43.779 66.1563 50.7836C62.3791 58.8883 53.2361 67.1954 38.9247 66.7915C23.4611 66.3536 9.84272 54.8789 7.29677 39.8498C6.83333 37.4799 7.29677 36.2784 7.52977 34.3523C7.21193 35.8484 7.03457 37.3709 7 38.9V39.0701C7.00723 47.3221 10.1098 55.2712 15.6944 61.3464C21.2791 67.4216 28.9395 71.1808 37.1618 71.881C45.3841 72.5813 53.5699 70.1717 60.1015 65.1285C66.6331 60.0852 71.0352 52.7752 72.4378 44.6433C72.4931 44.2181 72.5382 43.7972 72.5875 43.3677C73.2663 37.7573 72.5314 32.0662 70.4497 26.8123Z"/>
  <path fill="url(#d)" d="M54.4342 30.6864C54.5056 30.7366 54.572 30.7868 54.6392 30.8369C53.8113 29.369 52.7807 28.025 51.5779 26.8446C41.3346 16.5995 48.8933 4.63086 50.168 4.02286L50.1808 4.00415C41.9026 8.85115 39.0939 17.824 38.8354 22.3122C39.2197 22.2858 39.6007 22.2535 39.9936 22.2535C42.9308 22.2589 45.8143 23.042 48.3507 24.5232C50.8872 26.0044 52.9862 28.1309 54.4342 30.6864Z"/>
  <path fill="url(#e)" d="M40.0149 32.7324C39.9604 33.5521 37.0641 36.3796 36.0514 36.3796C26.6797 36.3796 25.1584 42.0488 25.1584 42.0488C25.5734 46.8227 28.8999 50.7547 32.9212 52.8347C33.1049 52.9299 33.2911 53.0158 33.4774 53.1C33.7999 53.2429 34.1225 53.3749 34.4451 53.4963C35.8252 53.9847 37.2706 54.2636 38.7334 54.3236C55.1596 55.0941 58.3416 34.6806 46.4877 28.757C49.2841 28.3932 52.116 29.0808 54.4342 30.6865C52.9862 28.1309 50.8872 26.0045 48.3508 24.5232C45.8143 23.042 42.9309 22.2589 39.9936 22.2535C39.6024 22.2535 39.2198 22.2859 38.8354 22.3122C35.5295 22.5395 32.3688 23.7577 29.7656 25.808C30.2681 26.2332 30.8353 26.8012 32.0301 27.9789C34.2665 30.1822 40.0021 32.4645 40.0149 32.7324Z"/>
  <path fill="url(#f)" d="M40.0149 32.7324C39.9604 33.5521 37.0641 36.3796 36.0514 36.3796C26.6797 36.3796 25.1584 42.0488 25.1584 42.0488C25.5734 46.8227 28.8999 50.7547 32.9212 52.8347C33.1049 52.9299 33.2911 53.0158 33.4774 53.1C33.7999 53.2429 34.1225 53.3749 34.4451 53.4963C35.8252 53.9847 37.2706 54.2636 38.7334 54.3236C55.1596 55.0941 58.3416 34.6806 46.4877 28.757C49.2841 28.3932 52.116 29.0808 54.4342 30.6865C52.9862 28.1309 50.8872 26.0045 48.3508 24.5232C45.8143 23.042 42.9309 22.2589 39.9936 22.2535C39.6024 22.2535 39.2198 22.2859 38.8354 22.3122C35.5295 22.5395 32.3688 23.7577 29.7656 25.808C30.2681 26.2332 30.8353 26.8012 32.0301 27.9789C34.2665 30.1822 40.0021 32.4645 40.0149 32.7324Z"/>
  <path fill="url(#g)" d="M28.229 24.7119C28.496 24.882 28.7162 25.03 28.9093 25.1635C28.1583 22.535 28.1263 19.7532 28.8166 17.1081C25.7765 18.5808 23.0752 20.6685 20.8837 23.2391C21.0444 23.2349 25.8251 23.149 28.229 24.7119Z"/>
  <path fill="url(#h)" d="M7.30099 39.8498C9.84439 54.8789 23.4653 66.3535 38.9289 66.7915C53.2403 67.1962 62.3833 58.8883 66.1605 50.7836C69.3589 43.779 69.7263 35.8093 67.1861 28.5402V28.5087C67.1861 28.484 67.181 28.4696 67.1861 28.4772L67.192 28.5325C68.3612 36.1661 64.4785 43.5616 58.4087 48.5625L58.39 48.605C46.5634 58.2369 35.2452 54.4163 32.9544 52.8568C32.7945 52.7802 32.6346 52.7006 32.4748 52.6178C25.5793 49.3219 22.7306 43.0395 23.3412 37.6517C21.7043 37.6758 20.0956 37.2248 18.7099 36.3531C17.3242 35.4815 16.2211 34.2268 15.5341 32.7409C17.3442 31.632 19.408 31.0051 21.5291 30.9199C23.6501 30.8348 25.7576 31.2942 27.6507 32.2545C31.5537 34.0263 35.995 34.2009 40.025 32.7409C40.0123 32.473 34.2767 30.1898 32.0402 27.9874C30.8455 26.8097 30.2783 26.2425 29.7758 25.8165C29.5042 25.5864 29.2203 25.3713 28.9254 25.1719C28.7298 25.0384 28.5096 24.8938 28.2451 24.7204C25.8412 23.1574 21.0605 23.2433 20.9023 23.2476H20.887C19.5809 21.5919 19.6727 16.1327 19.7476 14.9924C19.3612 15.1477 18.9923 15.3435 18.6472 15.5766C17.4942 16.3995 16.4163 17.3229 15.4261 18.3359C14.2937 19.4767 13.2589 20.7104 12.3325 22.0239V22.029V22.0231C10.2136 25.027 8.71079 28.4208 7.9107 32.0087C7.89454 32.0759 6.72361 37.195 7.30099 39.8498Z"/>
  <path fill="url(#i)" d="M51.5796 26.8446C52.7828 28.0263 53.8134 29.3718 54.6409 30.8412C54.822 30.9781 54.9912 31.1142 55.1349 31.246C62.607 38.1338 58.692 47.8703 58.4003 48.5634C64.4701 43.5625 68.3494 36.167 67.1835 28.5334C63.4556 19.2391 57.1367 15.4933 51.9759 7.3367C51.7093 6.92088 51.4505 6.50017 51.1995 6.07478C51.0701 5.85258 50.949 5.62567 50.8364 5.3945C50.6224 4.98 50.4574 4.54194 50.3449 4.08921C50.3451 4.06832 50.3375 4.04811 50.3237 4.03242C50.3099 4.01674 50.2908 4.00669 50.2701 4.00418C50.2498 3.99861 50.2283 3.99861 50.208 4.00418C50.2038 4.00418 50.197 4.01183 50.1918 4.01353C50.1867 4.01523 50.1757 4.02289 50.168 4.02629C48.8934 4.63089 41.3346 16.5996 51.5796 26.8446Z"/>
  <path fill="url(#j)" d="M55.1298 31.2417C54.9715 31.0992 54.8067 30.9642 54.6358 30.837C54.5686 30.7868 54.5023 30.7366 54.4309 30.6864C52.1127 29.0807 49.2808 28.3931 46.4843 28.757C58.3382 34.6839 55.1579 55.094 38.73 54.3236C37.2672 54.2636 35.8218 53.9847 34.4417 53.4962C34.1191 53.3755 33.7965 53.2434 33.474 53.1C33.2877 53.0149 33.1015 52.9299 32.9178 52.8347L32.9408 52.8491C35.2316 54.4129 46.5464 58.2335 58.3765 48.5974L58.3952 48.5549C58.6903 47.8661 62.6053 38.127 55.1298 31.2417Z"/>
  <path fill="url(#k)" d="M25.1584 42.0489C25.1584 42.0489 26.6797 36.3796 36.0514 36.3796C37.0641 36.3796 39.963 33.5522 40.0149 32.7324C35.9848 34.1925 31.5435 34.0179 27.6406 32.246C25.7474 31.2858 23.6399 30.8263 21.5189 30.9115C19.3979 30.9966 17.334 31.6235 15.5239 32.7324C16.2109 34.2183 17.3141 35.4731 18.6998 36.3447C20.0854 37.2163 21.6942 37.6674 23.331 37.6432C22.7204 43.0319 25.5691 49.3143 32.4646 52.6094C32.6185 52.6834 32.7631 52.7633 32.9212 52.8339C28.8965 50.7548 25.5734 46.8227 25.1584 42.0489Z"/>
  <path fill="url(#l)" d="M70.4497 26.8123C69.0177 23.3667 66.1129 19.6464 63.8383 18.4703C65.4607 21.6125 66.5866 24.987 67.1759 28.4739L67.1818 28.5291C63.4556 19.2391 57.1367 15.4933 51.9759 7.3367C51.7093 6.92088 51.4505 6.50017 51.1995 6.07478C51.0701 5.85258 50.949 5.62567 50.8364 5.3945C50.6224 4.98 50.4574 4.54194 50.3449 4.08921C50.3451 4.06832 50.3375 4.04811 50.3237 4.03242C50.3099 4.01674 50.2908 4.00669 50.2701 4.00418C50.2498 3.99861 50.2283 3.99861 50.208 4.00418C50.2037 4.00418 50.1969 4.01183 50.1918 4.01353C50.1867 4.01523 50.1757 4.02289 50.168 4.02629L50.1808 4.00418C41.9026 8.85117 39.0939 17.8241 38.8354 22.3122C39.2198 22.2859 39.6007 22.2535 39.9936 22.2535C42.9309 22.2589 45.8143 23.042 48.3508 24.5232C50.8872 26.0045 52.9862 28.1309 54.4342 30.6865C52.116 29.0808 49.2841 28.3932 46.4877 28.757C58.3416 34.684 55.1613 55.0941 38.7334 54.3236C37.2706 54.2636 35.8251 53.9847 34.4451 53.4963C34.1225 53.3755 33.7999 53.2434 33.4774 53.1C33.2911 53.015 33.1049 52.9299 32.9212 52.8347L32.9442 52.8491C32.7843 52.7726 32.6245 52.693 32.4646 52.6102C32.6185 52.6842 32.7631 52.7641 32.9212 52.8347C28.8965 50.7547 25.5734 46.8227 25.1584 42.0488C25.1584 42.0488 26.6797 36.3796 36.0514 36.3796C37.0641 36.3796 39.963 33.5521 40.0148 32.7324C40.0021 32.4645 34.2665 30.1814 32.0301 27.979C30.8353 26.8012 30.2681 26.234 29.7656 25.808C29.494 25.5779 29.2101 25.3628 28.9152 25.1634C28.1643 22.535 28.1323 19.7531 28.8225 17.1081C25.7825 18.5808 23.0812 20.6685 20.8896 23.2391H20.8743C19.5682 21.5835 19.66 16.1242 19.7348 14.9839C19.3484 15.1392 18.9796 15.335 18.6345 15.5681C17.4815 16.391 16.4035 17.3144 15.4134 18.3275C14.285 19.4715 13.2545 20.708 12.3325 22.0239V22.0291V22.0231C10.2137 25.027 8.71082 28.4209 7.91073 32.0088L7.86651 32.2265C7.80443 32.5164 7.52637 33.9892 7.4864 34.3056C7.4864 34.3294 7.4864 34.2809 7.4864 34.3056C7.23207 35.8259 7.06964 37.3601 7 38.9V39.0701C7.00723 47.3221 10.1098 55.2712 15.6944 61.3464C21.2791 67.4216 28.9395 71.1808 37.1618 71.881C45.3841 72.5813 53.5699 70.1717 60.1015 65.1285C66.6331 60.0852 71.0352 52.7752 72.4378 44.6433C72.4931 44.2181 72.5382 43.7972 72.5875 43.3677C73.2663 37.7573 72.5314 32.0662 70.4497 26.8123Z"/>
  <linearGradient id="a" x1="66.087" x2="11.377" y1="14.535" y2="67.32" gradientUnits="userSpaceOnUse">
    <stop offset=".048" stop-color="#FFF44F"/>
    <stop offset=".111" stop-color="#FFE847"/>
    <stop offset=".225" stop-color="#FFC830"/>
    <stop offset=".368" stop-color="#FF980E"/>
    <stop offset=".401" stop-color="#FF8B16"/>
    <stop offset=".462" stop-color="#FF672A"/>
    <stop offset=".534" stop-color="#FF3647"/>
    <stop offset=".705" stop-color="#E31587"/>
  </linearGradient>
  <radialGradient id="b" cx="0" cy="0" r="1" gradientTransform="translate(63.56 11.547) scale(68.7057)" gradientUnits="userSpaceOnUse">
    <stop offset=".129" stop-color="#FFBD4F"/>
    <stop offset=".186" stop-color="#FFAC31"/>
    <stop offset=".247" stop-color="#FF9D17"/>
    <stop offset=".283" stop-color="#FF980E"/>
    <stop offset=".403" stop-color="#FF563B"/>
    <stop offset=".467" stop-color="#FF3750"/>
    <stop offset=".71" stop-color="#F5156C"/>
    <stop offset=".782" stop-color="#EB0878"/>
    <stop offset=".86" stop-color="#E50080"/>
  </radialGradient>
  <radialGradient id="c" cx="0" cy="0" r="1" gradientTransform="translate(38.454 39.636) scale(68.7057)" gradientUnits="userSpaceOnUse">
    <stop offset=".3" stop-color="#960E18"/>
    <stop offset=".351" stop-color="#B11927" stop-opacity=".74"/>
    <stop offset=".435" stop-color="#DB293D" stop-opacity=".343"/>
    <stop offset=".497" stop-color="#F5334B" stop-opacity=".094"/>
    <stop offset=".53" stop-color="#FF3750" stop-opacity="0"/>
  </radialGradient>
  <radialGradient id="d" cx="0" cy="0" r="1" gradientTransform="translate(46.737 -4.045) scale(49.7744)" gradientUnits="userSpaceOnUse">
    <stop offset=".132" stop-color="#FFF44F"/>
    <stop offset=".252" stop-color="#FFDC3E"/>
    <stop offset=".506" stop-color="#FF9D12"/>
    <stop offset=".526" stop-color="#FF980E"/>
  </radialGradient>
  <radialGradient id="e" cx="0" cy="0" r="1" gradientTransform="translate(30.854 57.582) scale(32.7138)" gradientUnits="userSpaceOnUse">
    <stop offset=".353" stop-color="#3A8EE6"/>
    <stop offset=".472" stop-color="#5C79F0"/>
    <stop offset=".669" stop-color="#9059FF"/>
    <stop offset="1" stop-color="#C139E6"/>
  </radialGradient>
  <radialGradient id="f" cx="0" cy="0" r="1" gradientTransform="matrix(16.85897 -4.076 4.77197 19.73763 42.208 34.005)" gradientUnits="userSpaceOnUse">
    <stop offset=".206" stop-color="#9059FF" stop-opacity="0"/>
    <stop offset=".278" stop-color="#8C4FF3" stop-opacity=".064"/>
    <stop offset=".747" stop-color="#7716A8" stop-opacity=".45"/>
    <stop offset=".975" stop-color="#6E008B" stop-opacity=".6"/>
  </radialGradient>
  <radialGradient id="g" cx="0" cy="0" r="1" gradientTransform="translate(37.586 8.736) scale(23.5343)" gradientUnits="userSpaceOnUse">
    <stop stop-color="#FFE226"/>
    <stop offset=".121" stop-color="#FFDB27"/>
    <stop offset=".295" stop-color="#FFC82A"/>
    <stop offset=".502" stop-color="#FFA930"/>
    <stop offset=".732" stop-color="#FF7E37"/>
    <stop offset=".792" stop-color="#FF7139"/>
  </radialGradient>
  <radialGradient id="h" cx="0" cy="0" r="1" gradientTransform="translate(56.085 -6.192) scale(100.41)" gradientUnits="userSpaceOnUse">
    <stop offset=".113" stop-color="#FFF44F"/>
    <stop offset=".456" stop-color="#FF980E"/>
    <stop offset=".622" stop-color="#FF5634"/>
    <stop offset=".716" stop-color="#FF3647"/>
    <stop offset=".904" stop-color="#E31587"/>
  </radialGradient>
  <radialGradient id="i" cx="0" cy="0" r="1" gradientTransform="rotate(83.976 24.149 26.152) scale(73.593 48.2984)" gradientUnits="userSpaceOnUse">
    <stop stop-color="#FFF44F"/>
    <stop offset=".06" stop-color="#FFE847"/>
    <stop offset=".168" stop-color="#FFC830"/>
    <stop offset=".304" stop-color="#FF980E"/>
    <stop offset=".356" stop-color="#FF8B16"/>
    <stop offset=".455" stop-color="#FF672A"/>
    <stop offset=".57" stop-color="#FF3647"/>
    <stop offset=".737" stop-color="#E31587"/>
  </radialGradient>
  <radialGradient id="j" cx="0" cy="0" r="1" gradientTransform="translate(37.032 17.452) scale(62.6878)" gradientUnits="userSpaceOnUse">
    <stop offset=".137" stop-color="#FFF44F"/>
    <stop offset=".48" stop-color="#FF980E"/>
    <stop offset=".592" stop-color="#FF5634"/>
    <stop offset=".655" stop-color="#FF3647"/>
    <stop offset=".904" stop-color="#E31587"/>
  </radialGradient>
  <radialGradient id="k" cx="0" cy="0" r="1" gradientTransform="translate(53.58 21.122) scale(68.6114)" gradientUnits="userSpaceOnUse">
    <stop offset=".094" stop-color="#FFF44F"/>
    <stop offset=".231" stop-color="#FFE141"/>
    <stop offset=".509" stop-color="#FFAF1E"/>
    <stop offset=".626" stop-color="#FF980E"/>
  </radialGradient>
  <linearGradient id="l" x1="65.43" x2="18.877" y1="14.253" y2="60.805" gradientUnits="userSpaceOnUse">
    <stop offset=".167" stop-color="#FFF44F" stop-opacity=".8"/>
    <stop offset=".266" stop-color="#FFF44F" stop-opacity=".634"/>
    <stop offset=".489" stop-color="#FFF44F" stop-opacity=".217"/>
    <stop offset=".6" stop-color="#FFF44F" stop-opacity="0"/>
  </linearGradient>
</svg>
