<svg viewBox="0 0 80 80" xmlns="http://www.w3.org/2000/svg">
<rect width="100%" height="100%" fill="white"/>
<path d="M29.9132 72.0454C32.7512 73.1906 35.83 73.8702 39.0628 73.9833C43.4379 74.1366 47.5983 73.2296 51.3177 71.507C46.8576 69.7501 42.8182 67.1808 39.3708 63.9865C37.136 67.5736 33.8309 70.4072 29.9132 72.0454Z" fill="#FF9100"/>
<path d="M39.3702 63.9875C31.5007 56.6905 26.7267 46.1291 27.1302 34.5449C27.1433 34.1689 27.1631 33.7928 27.1864 33.4171C23.6914 32.5086 20.0185 32.5471 16.5432 33.5286C14.4423 37.2181 13.1747 41.4512 13.0168 45.9854C12.6089 57.687 19.6723 67.9116 29.9127 72.0465C33.8303 70.4082 37.1354 67.5781 39.3702 63.9875Z" fill="#FFC400"/>
<path d="M39.3703 63.9871C41.2 61.0515 42.3092 57.6101 42.4384 53.902C42.778 44.1484 36.238 35.758 27.1863 33.4166C27.1632 33.7925 27.1434 34.1685 27.1303 34.5446C26.7269 46.1286 31.5008 56.6902 39.3703 63.9871Z" fill="#FF9100"/>
<path d="M41.4262 6C36.271 10.1406 32.2001 15.6006 29.737 21.8901C28.327 25.4928 27.4409 29.3626 27.1823 33.4191C36.2338 35.7604 42.7739 44.1508 42.4343 53.9043C42.3051 57.6124 41.1926 61.0505 39.3661 63.9896C42.8469 67.2199 46.8987 69.7704 51.3131 71.5099C60.2655 67.361 66.6172 58.4333 66.985 47.8735C67.2233 41.032 64.6014 34.9343 60.8967 29.7874C56.9841 24.344 41.4262 6 41.4262 6Z" fill="#DD2C00"/>
</svg>
