<?xml version="1.0" encoding="UTF-8" standalone="no"?>
<svg
   viewBox="0 0 80 80"
   version="1.1"
   id="svg47"
   sodipodi:docname="flask.svg"
   inkscape:version="1.1.2 (b8e25be8, 2022-02-05)"
   xmlns:inkscape="http://www.inkscape.org/namespaces/inkscape"
   xmlns:sodipodi="http://sodipodi.sourceforge.net/DTD/sodipodi-0.dtd"
   xmlns="http://www.w3.org/2000/svg"
   xmlns:svg="http://www.w3.org/2000/svg">
  <defs
     id="defs51" />
  <sodipodi:namedview
     id="namedview49"
     pagecolor="#ffffff"
     bordercolor="#666666"
     borderopacity="1.0"
     inkscape:pageshadow="2"
     inkscape:pageopacity="0.0"
     inkscape:pagecheckerboard="0"
     showgrid="false"
     inkscape:zoom="6.2625"
     inkscape:cx="40"
     inkscape:cy="40"
     inkscape:window-width="3440"
     inkscape:window-height="1387"
     inkscape:window-x="0"
     inkscape:window-y="25"
     inkscape:window-maximized="1"
     inkscape:current-layer="svg47" />
  <path
     d="m 20.219187,57.530724 c 7.156772,-3.623053 22.234629,-11.249664 22.502636,-11.322455 0.112497,-0.03309 0.215068,-0.01985 0.215068,-0.01985 a 0.21175837,0.21175837 0 0 1 0.188597,0.148892 c 0.840415,1.985235 2.421986,5.029261 5.310503,7.977334 a 25.831213,25.831213 0 0 0 9.386851,6.09798 c 0.01654,0.0067 5.181462,2.130819 12.139701,1.373121 0.07279,-0.0099 0.119112,-0.02647 0.14889,-0.06618 0.09265,-0.119115 -0.04963,-0.317638 -0.09265,-0.770933 -0.01655,-0.152202 0.10257,-0.251463 0.165436,-0.330873 0.208449,-0.268006 2.316108,-0.986 2.967926,-1.220919 0.09265,-0.03309 0.330873,-0.02647 0.486384,0.04633 0.248154,0.115805 0.555865,0.274624 0.5691,0.291167 0.02647,0.04302 1.24408,-0.536013 2.187067,-0.88012 a 1.2143019,1.2143019 0 0 1 0.38712,-0.07941 1.4227516,1.4227516 0 0 1 0.57241,0.112496 c 0.585644,0.555867 2.005087,2.918296 2.011705,2.93153 0.248154,0.440061 0.608804,1.081953 0.416899,1.674214 -0.172054,0.522779 -0.717994,0.823873 -1.022396,0.98931 -0.08272,0.04632 -2.62051,1.108422 -2.680067,1.201067 -0.08603,0.142275 -0.132349,0.509543 -0.178671,0.741154 a 0.52939592,0.52939592 0 0 1 -0.20845,0.271315 25.642615,25.642615 0 0 1 -1.389665,0.59557 c -0.787476,0.320947 -2.058026,0.790785 -2.223462,0.72792 -0.18198,-0.06949 -0.291168,-0.251464 -0.33749,-0.327564 -0.132349,-0.211758 -0.238229,-0.615422 -0.28455,-0.684906 -0.02978,-0.04632 -0.05956,-0.0728 -0.08272,-0.06287 a 42.110137,42.110137 0 0 1 -3.384825,1.455839 c -3.904286,1.488919 -9.787198,2.263161 -9.787198,2.263161 A 46.653016,46.653016 0 0 1 46.844493,71.338031 39.678225,39.678225 0 0 1 41.087312,70.557173 C 39.631475,70.242844 37.28228,69.640656 34.569126,68.492528 25.556159,64.680878 20.771743,58.500181 20.427636,58.109751 l -0.248154,-0.281242 c -0.0364,-0.04302 -0.01324,-0.112496 -0.01324,-0.112496 0,-0.08603 0.03309,-0.152202 0.05294,-0.185289 z M 11.318719,45.291752 a 47.777983,47.777983 0 0 0 5.978865,9.13208 c 0.01654,0.02316 0.119113,0.03309 0.1522,0.01323 L 41.25275,42.346987 c 0.01985,-0.0099 0.0364,-0.09596 0.02316,-0.12904 a 63.097377,63.097377 0 0 1 -1.485618,-4.602436 c 0,0 -0.608805,-2.180449 -1.065409,-4.397294 l -0.06618,-0.334182 c -0.01655,-0.08934 -0.281242,-0.105879 -0.294477,-0.09927 -0.115806,0.05294 -0.215067,0.09265 -0.221684,0.09927 -0.155511,0.132349 -8.629154,4.013483 -26.810596,12.275368 -0.02316,0.0067 -0.03309,0.09927 -0.01324,0.132349 z M 35.919086,8.5318067 c -0.413591,-0.2911678 -1.042249,-0.072793 -1.210994,0 L 1.3065165,22.885069 a 1.3764294,1.3764294 0 0 0 -0.8304899,0.860269 1.3301072,1.3301072 0 0 0 0.10257005,0.969456 c 1.60804035,3.057262 2.38559095,4.28149 2.81241635,5.184771 0.043018,0.09596 0.1654361,0.36396 0.4400598,0.486383 0.1422752,0.06618 0.2746238,0.05625 0.5856448,0.02978 0.2481541,-0.02316 0.5525564,-0.05294 0.8999727,-0.09927 a 53.449136,53.449136 0 0 0 3.9770874,11.014745 c 0.016539,0.03309 0.1158054,0.0761 0.1488928,0.05956 L 37.762045,28.685264 c 0.01985,-0.0099 0.04963,-0.09926 0.04632,-0.138966 A 17.479992,17.479992 0 0 0 37.629698,27.50074 c -0.08272,-0.363959 -1.366503,-7.034348 -1.416134,-16.06387 -0.0033,-0.519471 -0.0033,-1.379741 0.01655,-2.4550768 A 0.87681199,0.87681199 0 0 0 35.919086,8.5318067 Z"
     id="path185"
     style="display:inline;stroke-width:3.30872;fill:#38a8be;fill-opacity:1"
     sodipodi:insensitive="true" />
</svg>
