<svg xmlns="http://www.w3.org/2000/svg" viewBox="0 0 80 80"><path d="M11 4.15A2.23 2.23 0 0112.19 7c-.38 1.55-.13 1.83 1.48 1.87h1.25c2 0 2.28.28 2.18 2.23a4.56 4.56 0 002.68 1.11c.61.15 1.23.21 1.84.37.34.09.85.24.94.49.52 1.44 2 1.58 3 2.2A27.93 27.93 0 0029 16.84c1.58.67 3.22 1.23 4.77 2a4.09 4.09 0 012.57 2.62 1.62 1.62 0 01-1.81.56c-.76-.16-1.51-.4-2.25-.63a17.08 17.08 0 00-1.64-.5c-1.61-.28-2.32.25-2.29 1.87 0 2 .16 4 .33 5.93q.36 4.22.86 8.4a34.19 34.19 0 008.33 18.84A37.08 37.08 0 0058.5 68a2.54 2.54 0 002.86-.89 14.07 14.07 0 012.42-2.2 3.47 3.47 0 011.74-.58c1 0 1.39.6.91 1.54a8.77 8.77 0 01-.81 1.13l-1.14 1.49 2 .16a17.49 17.49 0 012.62.26c1.37.34 2.67.61 3.48-.33 1.49.15 2.66.3 3.83.38h2.19a1.29 1.29 0 011.4 1.25c.09.78 0 1.5-.9 1.78-.7.21-1.41.35-2.11.55-1.1.31-2.18.65-3.27 1a2 2 0 01-1 .12 5.61 5.61 0 00-3.69.25C66.44 75 63.7 75 61 75.33a53.78 53.78 0 01-6.08.5 49 49 0 01-5.92-.22c-3.16-.3-6.33-.63-9.46-1.14a40.08 40.08 0 01-19.64-9.38c-4.46-3.78-7.66-8.52-10.6-13.46a58.31 58.31 0 01-6.86-17.72C2 32 1.43 30.19.86 28.35A9.09 9.09 0 000 26.72v-4.39a8.76 8.76 0 013.47-3c-.93-1.2-.74-2.21.5-2.82a12.18 12.18 0 011.48-.48c1.6-.55 2.15-1.61 1.45-3.14a1.18 1.18 0 01.39-1.61c.36-.3.75-.56 1.12-.85 1.47-1.15 1.49-1.4.19-2.73s-1.37-2.3.18-3.55zm2.52 32.29a7.63 7.63 0 01-.15 3.67 1.37 1.37 0 01-1.23-1.33 7.81 7.81 0 01.31-1.9c-1-1.07-1.46-.92-2.24 1 .65.71 1.89 1.1 1.4 2.48 0 .06.19.23.32.31a4.08 4.08 0 011.49 2.31c.43 1.31.63 1.32 1.76.21l-2.31-2.43 1.1-.41c.4-.83-.46-2.08 1.18-2.46v3l2.13-1.54.8 1.1c.37.54 1.07 1 .73 1.77s-1.27.29-2 .31a2.59 2.59 0 00.37.43A3.77 3.77 0 0119.06 46c0 .63.3 1.35 1.31 1.15.28-.06.63.21 1 .33.64-.85 1-1 1.64-.29a14.16 14.16 0 011.52 2.24l-.68-2.21.28-.2a22.29 22.29 0 012 2.29c.65 1 .39 1.58-.7 2.1a6 6 0 01-.7.21 5.14 5.14 0 002.64 1.8 5.26 5.26 0 011.8 1.39 1.91 1.91 0 01.49 1.42c-.09.42-.66.73-1.07 1.16 3.61 1.45 7.05 3.13 9.4 6.65l-1.81.42 2.59.32c-.53 2.13-.37 2.4 1.54 2.56a1.85 1.85 0 011.47 1c.27.43.64.78 1.15.49s1.15-.94 2-.5c1.89-1 3.63-.24 5.41.39s3.34 1.15 5 1.67a2.45 2.45 0 002.35-.39c-1.62-.63-3.44-.64-4.78-1.86-.09-.08-.3 0-.46 0a5.78 5.78 0 01-4.2-2.14 3.77 3.77 0 00-1.93-1.2A14 14 0 0141 62.14c-.74-.63-1.68-1.38-1.88-2.22a7.2 7.2 0 00-1.8-2.78c-.73-1-1.36-2-2.07-2.94s-1.5-2-2.31-3l-.53.82c-.57-1.52-.63-1.59-2.31-2.7l.9-1.21-2.44-8.91-1.32 1.66c.17-1.12-.08-2 .93-2.44a1 1 0 00.16-.84c-.52-.39-.29-.82-.24-1.27a2.38 2.38 0 000-1.24c-.71-1.34-.14-2.74-.27-4.09a4.32 4.32 0 00-.05-1.09 6.26 6.26 0 00-.69-1.15l-1 1.22a2.69 2.69 0 01.06-4.22l1.33 1.12a25.92 25.92 0 000-3c-.13-1.11-.67-1.34-1.76-1a18.25 18.25 0 01-1.81.41l-2.64.55.94 1.34-2.9-.56c-.34 1.19-1.4.9-2.29 1a2.67 2.67 0 01-2.52 1.83c-2.06.27-2.07.25-1.18 2.08 0 .05 0 .09.07.14.57 1.23.16 2.1-1.22 2.13s-1.68 1.22-2.34 2c-.36.42.27 1.4.87 1.32 1.31-.21 2.03.57 2.8 1.34zM5.6 22a21.81 21.81 0 00-2.87 1C1.16 23.8 1 24.85 2 26.4c.43-2.55.78-3.73 2.56-3-.1.54-.42 1.14-.25 1.52A2 2 0 006.2 26.1a1.12 1.12 0 00.76-.4c.64-.78 2-1.31 2.6-.72s1.22.39 1.82.13c.86-.36 1.7-.77 2.54-1.2a10.39 10.39 0 014.33-1.2A30 30 0 0026.83 21a5.27 5.27 0 002.23-1.59c.85-1.06.41-1.94-1-2s-2.86.16-4.27.25l.47 1.8c-.59 0-1.14.16-1.34 0a5.71 5.71 0 01-.81-1.53c-4.82.64-9.31 2.66-14 3.43 0 .74 1 .57.67 1.4-.11.27.37.81.57 1.22-1.68.79-3.06.1-3.75-1.98zm4.19 27.44l-.29.18c.23.37.46.75.7 1.12 1.5 2.36 3 4.75 4.55 7A43.08 43.08 0 0018.22 62a35.24 35.24 0 002.62 2.42 4.09 4.09 0 002.94 1.34A2.45 2.45 0 0022.05 64c-2-.87-3.07-2.67-4.49-4.12a4.78 4.78 0 00-1.44-1.31 2.79 2.79 0 01-1.32-1.43c-.51-1.45-1-2.85-2.34-3.76-.11-.08-.15-.27-.24-.4zm8 1.89a7 7 0 001.31 2.17c.55.48.63 1.4 1.57 1.69a11.39 11.39 0 012.18 1.2l.25-.27-2.7-3.86.84-1.67-2.24-.65zm-.64-7.24a2.66 2.66 0 000 .27c.19 1.17-.09 1.41-1.23 1-.29-.1-.57-.27-.87-.35-.45-.11-.88-.62-1.49-.13.36.69.56 1.43 1.37 1.8 1.15.51 2.25 1.09 3.39 1.61a4.75 4.75 0 001 .22zm2.1-29.29l-6.42 1.72 2.57.57c.53-.88.69-.91 1.27-.27L17.71 18c1.44 0 .47-1.73 1.76-1.55a.66.66 0 000-.14c-.07-.41-.15-.85-.26-1.51zM28 68.51c1.57 1.25 3.55 1.46 4.6 3.06a18.66 18.66 0 006.56 1.7zm16.37 5.7c3.9.44 7.78 1.14 11.71.21-3.97.29-7.84-.76-11.76-.21zM6 38.62l-.22.16-.84-1-.18.13 3 6.48a4 4 0 00-.31-1.85c-.23-.63-.8-1.31-.7-1.86A4.85 4.85 0 006 37.55s-.12-.08-.28-.16zm19.78 21.16c-1.54-.59-3-1.65-4.8-1.25.94 1.54 2.69 2.02 4.8 1.25zM16.06 14.7l.4-1.52a5.7 5.7 0 00-2.88-.88c.59 1.91 1.02 2.32 2.48 2.4zm50.43 55.87v-.44c-2-.14-4-.85-6-.21v.32zM8.63 6l2.55-.12C11 5 10.59 4.7 10 4.69c-.79-.01-1.18.52-1.37 1.31zm40 63.16a2.28 2.28 0 00-2.14 1.13l1.79.47z"/><path d="M21.48 39.88c-.28 1.11-1 1.39-2 1.54A7.22 7.22 0 0117.72 37c1.98.11 2.78 1.57 3.76 2.88zm2.86-3.83c1.05 1.65 1.91 3.11 1.07 5-1.77-1.43-2.13-3.05-1.07-5zm-6.47-1.51c-1.24-.5-2.85-.43-3.36-2.17 1.58-1 2.82-.28 4 .52l-.08.34-2.42-.81 2.07 1.77zm-4.38 1.9l-1.33-1.92 1.2.34-.36-.94c.68.33 1.36.46 1.68.88a1.8 1.8 0 01.19 1.55c-.32.76-.94.3-1.44.07zm4.81-4.36c-1.92-.7-2-.84-1.91-2.37 1.49.71 1.49.71 1.91 2.37zm-7.38-9.14c.08-.69.43-.92 1-.87s1.06.65 1.49 1.72c-1.1.27-1.7-.55-2.49-.85zm4.08-2.5c1.45-1.17 2.81-1.05 4.26-.94-.54.7-.54.7-4.26.94z"/></svg>