<svg viewBox="0 0 80 80" xmlns="http://www.w3.org/2000/svg">
<rect width="100%" height="100%" fill="#38A8BE"/>
<path d="M23.4493 53.5356C29.3976 50.5474 41.9294 44.2569 42.1521 44.1969C42.2456 44.1696 42.3309 44.1805 42.3309 44.1805C42.3665 44.1828 42.4005 44.1958 42.4285 44.2177C42.4565 44.2397 42.4771 44.2695 42.4876 44.3033C43.1861 45.9407 44.5006 48.4515 46.9014 50.883C49.1003 53.1053 51.7634 54.8221 54.7032 55.9126C54.7169 55.9182 59.0097 57.6701 64.793 57.0452C64.8535 57.037 64.892 57.0233 64.9167 56.9906C64.9937 56.8923 64.8755 56.7286 64.8397 56.3547C64.8259 56.2292 64.9249 56.1473 64.9772 56.0818C65.1504 55.8608 66.9022 55.2686 67.444 55.0748C67.521 55.0475 67.719 55.053 67.8482 55.113C68.0545 55.2085 68.3102 55.3395 68.3212 55.3532C68.3432 55.3887 69.3552 54.9111 70.139 54.6273C70.2419 54.5881 70.3506 54.566 70.4607 54.5618C70.6241 54.5597 70.786 54.5913 70.9365 54.6545C71.4232 55.113 72.603 57.0616 72.6085 57.0725C72.8147 57.4354 73.1145 57.9649 72.955 58.4534C72.812 58.8846 72.3582 59.1329 72.1052 59.2693C72.0365 59.3076 69.9272 60.1836 69.8777 60.26C69.8062 60.3773 69.7677 60.6803 69.7292 60.8713C69.698 60.9629 69.6371 61.0416 69.556 61.0951C69.1759 61.27 68.7907 61.4339 68.401 61.5863C67.7465 61.851 66.6905 62.2385 66.553 62.1867C66.4017 62.1294 66.311 61.9793 66.2725 61.9165C66.1625 61.7418 66.0745 61.4089 66.036 61.3516C66.0112 61.3134 65.9865 61.2916 65.9672 61.2997C65.0476 61.7405 64.1089 62.1412 63.1539 62.5005C59.9089 63.7286 55.0194 64.3672 55.0194 64.3672C51.9072 64.9343 48.7367 65.1213 45.5786 64.9239C43.9699 64.8255 42.3706 64.6103 40.7936 64.2799C39.5836 64.0206 37.6311 63.5239 35.3761 62.5769C27.8851 59.4331 23.9086 54.3353 23.6226 54.0132L23.4163 53.7813C23.386 53.7458 23.4053 53.6885 23.4053 53.6885C23.4053 53.6175 23.4328 53.5629 23.4493 53.5356ZM16.0518 43.4409C17.4128 46.1318 19.0801 48.659 21.021 50.9731C21.0348 50.9922 21.12 51.0004 21.1475 50.984L40.9311 41.0121C40.9476 41.0039 40.9614 40.933 40.9504 40.9057C40.4901 39.6564 40.0782 38.3901 39.7156 37.1096C39.7156 37.1096 39.2096 35.3112 38.8301 33.4827L38.7751 33.2071C38.7614 33.1334 38.5414 33.1197 38.5304 33.1252C38.4341 33.1689 38.3516 33.2016 38.3461 33.2071C38.2169 33.3162 31.1741 36.5174 16.0628 43.3318C16.0435 43.3373 16.0353 43.4137 16.0518 43.4409ZM36.4981 13.1214C36.1544 12.8812 35.6319 13.0613 35.4916 13.1214L7.73024 24.9599C7.56883 25.0191 7.42293 25.1136 7.30342 25.2364C7.18391 25.3593 7.09387 25.5073 7.03999 25.6695C6.96541 25.9371 6.99588 26.2229 7.12524 26.4691C8.46175 28.9907 9.108 30.0005 9.46275 30.7455C9.49851 30.8246 9.60025 31.0457 9.8285 31.1467C9.94675 31.2012 10.0568 31.193 10.3153 31.1712C10.5215 31.1521 10.7745 31.1276 11.0633 31.0893C11.8265 34.2287 12.9349 37.2753 14.3688 40.1743C14.3825 40.2016 14.465 40.2371 14.4925 40.2234L38.0299 29.7439C38.0464 29.7358 38.0711 29.6621 38.0684 29.6293C38.0277 29.3404 37.9781 29.0528 37.9199 28.7669C37.8511 28.4667 36.7841 22.965 36.7429 15.5175C36.7401 15.089 36.7401 14.3795 36.7566 13.4925C36.7125 13.3446 36.622 13.2146 36.4981 13.1214Z" fill="white"/>
</svg>
