<svg xmlns="http://www.w3.org/2000/svg" viewBox="0 0 80 80">
  <rect width="100%" height="100%" fill="#38A8BE"/>
  <path fill="#fff" d="m23.4 53.5 18.8-9.3h.1a.2.2 0 0 1 .2.1A21.2 21.2 0 0 0 64.9 57V56l2.5-1h.4l.5.3 1.8-.8h.8c.5.5 1.7 2.5 1.7 2.5.2.3.5.9.4 1.4-.2.4-.6.6-.9.8l-2.2 1-.2.6-.1.2a21.5 21.5 0 0 1-3 1c-.2 0-.3-.1-.3-.2l-.3-.5v-.1l-2.8 1.2c-3.3 1.2-8.2 1.9-8.2 1.9a39 39 0 0 1-14.2-.1c-1.2-.3-3.2-.8-5.4-1.7-7.5-3.2-11.5-8.3-11.8-8.6l-.2-.2V53.5Zm-7.3-10a39.4 39.4 0 0 0 5 7.5L41 41 39.8 37l-.9-3.6v-.3h-.5a1606.2 1606.2 0 0 1-22.2 10.2ZM36.5 13c-.3-.2-.9 0-1 0L7.7 25a1.1 1.1 0 0 0-.7.7l.1.8 2.4 4.2.3.4h1.3a43.9 43.9 0 0 0 3.4 9.1L38 29.7v-1a75.2 75.2 0 0 1-1.2-15.2c0-.2-.2-.3-.3-.4Z"/>
</svg>