<svg viewBox="0 0 80 80" xmlns="http://www.w3.org/2000/svg">
<rect width="100%" height="100%" fill="white"/>
<path d="M59.2297 37.8474H41.9993L26.9248 52.9255L35.5383 61.5389L59.2297 37.8474Z" fill="#54C5F8"/>
<path d="M22.617 48.617L14 40L42 12H59.2305L22.617 48.617Z" fill="#54C5F8"/>
<path d="M35.5381 61.539L41.999 68H59.2295L44.1516 52.9257L35.5381 61.539Z" fill="#01579B"/>
<path d="M35.5381 61.539L48.3163 57.1155L44.1516 52.9257L35.5381 61.539Z" fill="url(#paint0_linear_30_837)"/>
<path d="M35.5376 44.3076L26.9238 52.9212L35.5376 61.535L44.1512 52.9212L35.5376 44.3076Z" fill="#29B6F6"/>
<path d="M59.2305 37.8475L44.156 52.9219L59.2305 68H42L35.539 61.539L26.9219 52.9219L42 37.8475H59.2305ZM42 12L14 40L22.617 48.617L59.2305 12H42Z" fill="url(#paint1_radial_30_837)"/>
<linearGradient id="paint0_linear_30_837" x1="38.0499" y1="63.2024" x2="44.4667" y2="56.7856" gradientUnits="userSpaceOnUse">
<stop stop-color="#1A237E" stop-opacity="0.4"/>
<stop offset="1" stop-color="#1A237E" stop-opacity="0"/>
</linearGradient>
<radialGradient id="paint1_radial_30_837" cx="0" cy="0" r="1" gradientUnits="userSpaceOnUse" gradientTransform="translate(15.2727 15.8182) scale(68.5128 68.5128)">
<stop stop-color="white" stop-opacity="0.1"/>
<stop offset="1" stop-color="white" stop-opacity="0"/>
</radialGradient>
</svg>
