<svg xmlns="http://www.w3.org/2000/svg" viewBox="0 0 80 80"><path d="M0-.1h80v80H0z" style="stroke-width:0"/><path d="M14.21 55.25c-.24 0-.46-.09-.65-.27-.2-.18-.29-.4-.29-.67 0-.12.03-.25.09-.41l10.85-29.03c.09-.3.26-.56.52-.79.25-.22.61-.34 1.06-.34h4.91c.45 0 .79.11 1.04.34.24.23.42.49.54.79L43.13 53.9c.03.15.05.29.05.41 0 .27-.09.5-.27.67-.18.18-.39.27-.63.27h-3.92c-.42 0-.73-.1-.92-.29-.2-.19-.32-.38-.38-.56l-2.12-5.49H21.57l-2.12 5.49c-.06.18-.19.37-.38.56-.2.2-.5.29-.92.29h-3.92Zm8.91-11.52h10.22l-5.13-13.91-5.09 13.91ZM53.59 55.7c-1.56 0-2.97-.31-4.23-.92-1.26-.61-2.26-1.44-2.99-2.47-.74-1.04-1.1-2.2-1.1-3.49 0-2.1.85-3.77 2.56-5.02 1.71-1.25 3.95-2.08 6.71-2.5l6.17-.9v-.94c0-1.26-.31-2.24-.94-2.93-.63-.69-1.71-1.04-3.24-1.04-1.08 0-1.96.22-2.63.65-.68.43-1.18 1.01-1.51 1.73-.24.39-.58.58-1.04.58h-3.56c-.33 0-.58-.09-.74-.27-.17-.18-.25-.42-.25-.72.03-.48.23-1.06.61-1.75.37-.69.94-1.36 1.71-2 .76-.64 1.76-1.19 2.99-1.64s2.71-.67 4.46-.67c1.89 0 3.49.23 4.79.7 1.31.47 2.35 1.09 3.13 1.87s1.35 1.7 1.71 2.75c.36 1.05.54 2.16.54 3.33v14.13c0 .3-.11.56-.31.76-.21.21-.47.32-.77.32h-3.64c-.33 0-.59-.1-.79-.32-.2-.21-.29-.46-.29-.76v-1.75c-.39.54-.92 1.07-1.58 1.58s-1.46.92-2.41 1.24c-.94.32-2.06.47-3.35.47Zm1.53-4.28c1.05 0 2-.23 2.86-.67.86-.45 1.53-1.15 2.03-2.09s.74-2.14.74-3.58v-.95l-4.5.72c-1.77.27-3.09.71-3.96 1.3-.87.6-1.31 1.34-1.31 2.21 0 .66.2 1.22.61 1.69s.92.81 1.55 1.04c.63.23 1.29.34 1.98.34Z" style="fill:#fff;stroke-width:0"/></svg>