<svg xmlns="http://www.w3.org/2000/svg" viewBox="0 0 80 80">
  <path d="M0-.1h80v80H0z" style="stroke-width:0"/>
  <path d="M14.2 55.3a1 1 0 0 1-.6-.3.9.9 0 0 1-.3-.7V54l11-29c0-.3.2-.6.4-.8.3-.2.6-.4 1-.4h5c.5 0 .8.1 1 .4.3.2.5.5.6.8l10.8 29v.4c0 .3 0 .5-.2.7-.2.2-.4.2-.6.2h-4c-.4 0-.7 0-.9-.2l-.3-.6-2.2-5.5H21.6l-2.2 5.5-.3.6c-.2.2-.5.3-1 .3h-3.9Zm9-11.6h10.1l-5-13.9-5.2 14Zm30.4 12c-1.6 0-3-.3-4.2-1a7.7 7.7 0 0 1-3-2.4c-.8-1-1.1-2.2-1.1-3.5 0-2 .8-3.7 2.5-5 1.7-1.3 4-2 6.7-2.5l6.2-.9v-1c0-1.2-.3-2.2-1-2.9-.6-.7-1.6-1-3.2-1-1 0-2 .2-2.6.6a4 4 0 0 0-1.5 1.8c-.2.4-.6.5-1 .5h-3.6c-.3 0-.6 0-.7-.2a1 1 0 0 1-.3-.7c0-.5.2-1.1.6-1.8.4-.7 1-1.4 1.7-2 .8-.6 1.8-1.2 3-1.6s2.7-.7 4.5-.7c1.9 0 3.5.2 4.8.7 1.3.5 2.3 1 3 1.9s1.4 1.7 1.8 2.7c.4 1 .5 2.2.5 3.3v14.2c0 .3 0 .5-.3.7a1 1 0 0 1-.7.4H62a1 1 0 0 1-1-1v-1.9a7.9 7.9 0 0 1-4 2.8c-1 .4-2.1.5-3.4.5Zm1.5-4.3c1 0 2-.2 2.9-.6.8-.5 1.5-1.2 2-2.1s.8-2.2.8-3.6v-1l-4.5.7c-1.8.3-3.1.8-4 1.3-.9.6-1.3 1.4-1.3 2.3 0 .6.2 1.2.6 1.6s1 .9 1.5 1c.7.3 1.3.4 2 .4Z" style="fill:#fff;stroke-width:0"/>
</svg>