<svg xmlns="http://www.w3.org/2000/svg" viewBox="0 0 80 80">
  <rect width="100%" height="100%" fill="#fff"/>
  <path fill="#fff" d="M65.1 40h-16v4.6h11A20.7 20.7 0 0 1 47 59.4L20.6 33.1a20.6 20.6 0 0 1 28.9-11.3 21 21 0 0 1 7.4 6.3l3.4-3a25.1 25.1 0 0 0-44.8 9.4l30.2 30.2A25.7 25.7 0 0 0 65.1 40Zm-50.2.2a24.4 24.4 0 0 0 7.3 17.4 24.8 24.8 0 0 0 17.3 7.3L15 40.2Z"/>
  <path fill="#639" d="M40 8a32 32 0 1 0 0 64 32 32 0 0 0 0-64ZM22.2 57.8a24.8 24.8 0 0 1-7.3-17.3L39.8 65a26 26 0 0 1-17.6-7.3Zm23.3 6.7-30-30a25.1 25.1 0 0 1 44.8-9.4l-3.4 3A21 21 0 0 0 40 19.4a20.8 20.8 0 0 0-19.4 13.7l26.3 26.3A20.7 20.7 0 0 0 60 44.6h-11V40h16a25.2 25.2 0 0 1-19.6 24.5Z"/>
</svg>