<svg xmlns="http://www.w3.org/2000/svg" viewBox="0 0 80 80"><path d="M71.43 40h-20v5.71h13.71a25.89 25.89 0 01-16.57 18.58L15.71 31.43A25.71 25.71 0 0140 14.29a26.36 26.36 0 0121.14 10.85l4.29-3.71a31.41 31.41 0 00-56 11.71l37.71 37.72A32.15 32.15 0 0071.43 40zm-62.86.29A30.51 30.51 0 0017.71 62a31 31 0 0021.72 9.14z" fill="#fff"/><path d="M40 0a40 40 0 1040 40A40.12 40.12 0 0040 0zM17.71 62.29a31 31 0 01-9.14-21.72l31.14 30.86a32.45 32.45 0 01-22-9.14zm29.15 8.28L9.43 33.14a31.41 31.41 0 0156-11.71l-4.29 3.71A26.36 26.36 0 0040 14.29a26 26 0 00-24.29 17.14l32.86 32.86a25.89 25.89 0 0016.57-18.58H51.43V40h20a31.51 31.51 0 01-24.57 30.57z" fill="#639"/></svg>