<svg viewBox="0 0 80 80" xmlns="http://www.w3.org/2000/svg">
<rect width="100%" height="100%" fill="white"/>
<path d="M65.1444 40H49.1444V44.568H60.1124C59.33 47.96 57.7052 51.1 55.3883 53.6979C53.0714 56.2959 50.1371 58.268 46.8564 59.432L20.5684 33.144C21.9885 29.1274 24.6208 25.6509 28.1017 23.1947C31.5825 20.7384 35.7402 19.4237 40.0004 19.432C43.3021 19.4539 46.5525 20.2507 49.49 21.7583C52.4274 23.266 54.9698 25.4423 56.9124 28.112L60.3444 25.144C57.4924 21.2481 53.5782 18.2563 49.0703 16.5266C44.5624 14.797 39.6517 14.4027 34.9255 15.3909C30.1994 16.3792 25.8581 18.7082 22.421 22.0992C18.9838 25.4902 16.5965 29.7997 15.5444 34.512L45.7124 64.688C51.2242 63.2986 56.1205 60.1225 59.6361 55.6559C63.1518 51.1893 65.0888 45.684 65.1444 40ZM14.8564 40.232C14.8634 43.4671 15.5134 46.6685 16.7687 49.6501C18.024 52.6318 19.8595 55.3341 22.1684 57.6C26.7722 62.2296 33.0158 64.8569 39.5444 64.912L14.8564 40.232Z" fill="white"/>
<path d="M40 8C33.671 8 27.4841 9.87677 22.2218 13.393C16.9594 16.9092 12.8579 21.9069 10.4359 27.7541C8.01387 33.6014 7.38016 40.0355 8.61489 46.2429C9.84961 52.4503 12.8973 58.1521 17.3726 62.6274C21.8479 67.1027 27.5497 70.1504 33.7571 71.3851C39.9645 72.6199 46.3987 71.9862 52.2459 69.5642C58.0931 67.1421 63.0908 63.0406 66.607 57.7783C70.1232 52.5159 72 46.329 72 40C71.9747 31.5209 68.5951 23.3962 62.5995 17.4006C56.6038 11.4049 48.4792 8.02532 40 8V8ZM22.168 57.832C17.5385 53.2283 14.9111 46.9847 14.856 40.456L39.768 65.144C33.1865 65.0262 26.8955 62.4126 22.168 57.832V57.832ZM45.488 64.456L15.544 34.512C16.596 29.7997 18.9834 25.4902 22.4205 22.0992C25.8577 18.7081 30.199 16.3792 34.9251 15.3909C39.6512 14.4027 44.562 14.7969 49.0699 16.5266C53.5778 18.2562 57.4919 21.248 60.344 25.144L56.912 28.112C54.9694 25.4422 52.427 23.2659 49.4895 21.7583C46.5521 20.2507 43.3017 19.4539 40 19.432C35.7477 19.4572 31.6054 20.7851 28.1309 23.2368C24.6565 25.6885 22.017 29.1461 20.568 33.144L46.856 59.432C50.1366 58.268 53.071 56.2959 55.3879 53.6979C57.7048 51.0999 59.3295 47.9599 60.112 44.568H49.144V40H65.144C65.1139 45.6979 63.1543 51.2176 59.5847 55.6589C56.0151 60.1002 51.0461 63.2011 45.488 64.456V64.456Z" fill="#663399"/>
</svg>
