<svg xmlns="http://www.w3.org/2000/svg" viewBox="0 0 80 80">
  <rect width="100%" height="100%" fill="#fff"/>
  <path fill="#4285F4" d="M73.18 36.87 59.21 12.62a6.14 6.14 0 0 0-5.24-3.12H26.03a6.14 6.14 0 0 0-5.24 3.12L6.8 36.8a6.08 6.08 0 0 0 0 6.07l13.97 24.39a6.25 6.25 0 0 0 5.24 3.23h27.95a6.24 6.24 0 0 0 5.24-3.21l13.97-24.26a6.2 6.2 0 0 0 0-6.16Z"/>
  <path fill="#3E7AE3" d="M55.72 31.97v15.81l-5.6 5.6-2.8-2.8 4.19-4.19V43l-3.87-3.87a1.98 1.98 0 0 1-3.55 1.74l-11.7-11.7-4.19 4.2V46.4l4.2 4.18-2.8 2.8L46.36 70.5h7.61a6.24 6.24 0 0 0 5.24-3.21l11.65-20.21-15.14-15.11Zm-21.79 9.89a1.98 1.98 0 1 1 0-3.97 1.98 1.98 0 0 1 0 3.97Zm5.94 0a1.98 1.98 0 1 1-.01-3.97 1.98 1.98 0 0 1 0 3.97Z"/>
  <path fill="#fff" d="m28.2 33.36 4.2-4.2-2.8-2.79-5.61 5.6v15.81l5.6 5.6 2.8-2.8-4.2-4.19V33.36Z"/>
  <path fill="#fff" d="M33.93 41.86a1.98 1.98 0 1 0 0-3.97 1.98 1.98 0 0 0 0 3.97ZM41.27 38.47a1.98 1.98 0 1 1-2.8 2.8 1.98 1.98 0 1 1 2.8-2.8ZM47.2 41.27a1.98 1.98 0 1 0-2.8-2.8 1.98 1.98 0 1 0 2.8 2.8Z"/>
  <path fill="#fff" d="m47.31 29.17 2.8-2.8 5.6 5.6v15.81l-5.6 5.6-2.8-2.8 4.2-4.19V33.36l-4.2-4.2Z"/>
</svg>