<svg xmlns="http://www.w3.org/2000/svg" viewBox="0 0 80 80"><path d="M19.08 57.49c-.09.09-.17.2-.26.29l-9.64 9.64-.2.17a22.42 22.42 0 01-8.4-12.94 21.57 21.57 0 01-.49-7 22.24 22.24 0 015.84-13.32 21.48 21.48 0 013.6-3.2c.1-.07.2-.16.3-.24l.27-.14a21.74 21.74 0 015.9-2.81 21.35 21.35 0 016.3-1h2c1 .09 1.91.26 2.86.4l.29.08a22.55 22.55 0 0112 7c.4.45.77.93 1.1 1.32L30.49 45.91a3.91 3.91 0 01-.2-.37 8.67 8.67 0 00-15.93 6.67 8.58 8.58 0 004.72 5.28z" fill="#fabb05"/><path d="M27.22 27.41c-.95-.14-1.9-.31-2.86-.4-.68-.06-1.36 0-2 0a21.35 21.35 0 00-6.3 1 21.74 21.74 0 00-5.92 2.81l-.27.14c.42-1.24.77-2.51 1.26-3.73a30.26 30.26 0 016.09-9.42 31 31 0 0115.51-9 29.91 29.91 0 019-.82 31.08 31.08 0 0118.94 7.77.41.41 0 01.07.11q-4.76 4.74-9.5 9.5c-.12.11-.22.23-.33.35a1.7 1.7 0 01-.22-.15 17.1 17.1 0 00-15.27-3.07 16.53 16.53 0 00-8.2 4.91z" fill="#e94335"/><path d="M40.57 72.17H22.81A22.55 22.55 0 019 67.59l.2-.17 9.64-9.64c.09-.09.17-.2.26-.29a9.5 9.5 0 003.83.77h17.64z" fill="#34a853"/><path d="M40.57 72.17h17.08a20.16 20.16 0 003.88-.37A22.68 22.68 0 0080 50.93a21.34 21.34 0 00-.53-6.42 22.51 22.51 0 00-8.94-13.31 1.16 1.16 0 01-.45-.65 27.65 27.65 0 00-1.63-4.43 30 30 0 00-5-7.68c-.84-.94-1.79-1.79-2.7-2.68q-4.76 4.74-9.5 9.5c-.12.11-.22.23-.33.35.76.75 1.57 1.46 2.27 2.26a16.79 16.79 0 013.81 7.9 19.38 19.38 0 01.35 3.88v1.18c.55.08 1.09.12 1.63.22a8.67 8.67 0 01.16 17 8.88 8.88 0 01-1.85.2H40.57z" fill="#4285f3"/></svg>