<svg xmlns="http://www.w3.org/2000/svg" viewBox="0 0 80 80">
  <rect width="100%" height="100%" fill="#fff"/>
  <path fill="#EA4335" d="M48.61 27.18h1.95l5.57-5.56.27-2.36a25 25 0 0 0-40.68 12.2c.62-.26 1.3-.3 1.95-.12l11.13-1.83s.56-.94.86-.88a13.88 13.88 0 0 1 18.99-1.45h-.04Z"/>
  <path fill="#4285F4" d="M64.05 31.46a25.06 25.06 0 0 0-7.55-12.18l-7.81 7.8a13.88 13.88 0 0 1 5.1 11.01v1.39a6.95 6.95 0 0 1 0 13.9h-13.9l-1.39 1.4v8.34l1.39 1.38h13.9a18.08 18.08 0 0 0 10.26-33.04Z"/>
  <path fill="#34A853" d="M25.97 64.43h13.9V53.3h-13.9c-1 0-1.97-.21-2.87-.62l-1.95.6-5.6 5.56-.5 1.96a17.98 17.98 0 0 0 10.92 3.63Z"/>
  <path fill="#FBBC05" d="M25.97 28.33a18.08 18.08 0 0 0-10.91 32.4l8.06-8.05a6.95 6.95 0 1 1 9.2-9.2l8.05-8.06a18.06 18.06 0 0 0-14.4-7.09Z"/>
</svg>