<svg xmlns="http://www.w3.org/2000/svg" viewBox="0 0 80 80">
  <rect width="100%" height="100%" fill="#fff"/>
  <path fill="#030303" d="M66 21.85c-.1.27-.07.56-.1.84a25.6 25.6 0 0 1-.48 3.23c-.21.96-.34 1.93-.48 2.9-.35 2.58-.58 5.17-.77 7.77-.24 3.32-.39 6.65-.58 9.98-.14 2.56-.3 5.13-.57 7.68-.2 1.91-.29 3.83-.51 5.74-.22 1.84-.46 3.67-.75 5.5-.14.91-.26 1.82-.25 2.76a7.34 7.34 0 0 1-.78 3.6 3.93 3.93 0 0 1-3.25 2.18c-.54.06-1.04.29-1.55.43-1.72.46-3.46.78-5.23 1-2.69.32-5.39.4-8.1.52-2.28.1-4.56-.11-6.84-.31-2.22-.2-4.42-.55-6.56-1.17a24.18 24.18 0 0 1-3.43-1.28.58.58 0 0 1-.35-.4 129.2 129.2 0 0 1-2.88-12.04c-.44-2.29-1-4.55-1.52-6.81-.66-2.8-1.3-5.6-1.79-8.42a66.92 66.92 0 0 1-.56-3.98 4.5 4.5 0 0 1 .18-1.92c.05-.16.1-.34.31-.33.15.12.22.3.27.47l.83 3.55c.22.95.4 1.92.65 2.87.36 1.43.69 2.88 1.06 4.31a146.38 146.38 0 0 0 3.17 10.87c.07.22.18.28.39.27.16-.02.32-.11.52-.09l-.15.3c-.18.43-.42.84-.2 1.34.16.37.4.68.67.96.28.29.59.56.88.85.04.04.1.08.08.15-.02.08-.1.06-.16.06a3.4 3.4 0 0 1-.7-.07c-.05-.01-.1-.06-.15-.02-.05.05 0 .1.01.17.1.36.2.73.28 1.1.28 1.21.5 2.44.89 3.62a6.13 6.13 0 0 0 1.65 2.76c.25.22.5.47.82.54a41.94 41.94 0 0 0 5.42.87c.9.1 1.82.17 2.73.24.62.05 1.24.05 1.86.07.47.06.94.04 1.4.04h2.42c.5 0 1 .02 1.5-.04 1.04-.04 2.08-.07 3.11-.12l.96-.06 2.53-.2c.5-.04 1-.08 1.49-.14.73-.09 1.44-.27 2.13-.5a8.86 8.86 0 0 0 2.91-1.44c.35-.28.65-.6.85-1.01.06-.11.12-.2-.1-.24-.2-.05-.43.02-.6-.18.1-.08.21-.13.33-.18.37-.15.74-.29 1.04-.56.29-.27.45-.57.34-.98a.36.36 0 0 1 0-.23c.34-.84.51-1.7.51-2.61.08-.43.03-.86.03-1.3-.01-.06-.04-.13-.03-.2.04-.6-.06-1.22-.06-1.83 0-.4-.05-.8.02-1.18.18-1 .36-1.98.47-3 .1-.93.16-1.87.24-2.81l.12-1.63c.08-.9.26-1.8.34-2.7.09-.87.13-1.75.16-2.62.03-1 .08-1.98.16-2.97.05-.69.17-1.37.27-2.06a.95.95 0 0 1 .35-.63c.36-.3.43-.72.2-1.15l-.4-.6c-.6-.84-.57-1.47.15-2.13.16-.15.22-.3.22-.52 0-1.02-.13-2.03-.2-3.04-.05-.8-.15-1.61-.12-2.42v-.55c0-.08-.03-.18.1-.2.16.05.24-.02.26-.17.01-.06 0-.14.09-.13.13.01.12-.07.12-.16v-.42c.18-.04.26-.19.38-.3.26-.24.35-.38.24-.7l.09-.33c.08-.4.3-.77.29-1.2-.02-.52.04-1.04.06-1.57.01-.24.03-.5.1-.76.1-.33.2-.68.2-1.04-.01-.78.02-1.55-.05-2.33-.03-.31.07-.63.03-.93-.07-.5-.1-.99-.13-1.48-.01-.18-.07-.2-.23-.2a8.19 8.19 0 0 0-1.75.12c-.19.03-.46-.07-.59.19l-1.66.2c-.57.07-1.14.15-1.7.2-.61.08-1.23.15-1.84.2-.84.06-1.67.23-2.5.29-.99.06-1.96.19-2.94.26l-2.84.22-2.36.16c-.6.03-1.19.01-1.78.06-.26.02-.55-.05-.78.15-.18-.15-.4-.13-.61-.2-.32-.13-.64-.01-.96 0-.09 0-.2 0-.11-.12.12-.16.02-.15-.09-.16l-.33-.02-7.83-.23c-1.92-.06-3.85-.12-5.77-.2a189.95 189.95 0 0 1-10.84-.73l-2.12-.23c.19.61.72.82 1.24 1.08-.23.13-.42.13-.6.15-.18.02-.23.08-.2.26.14.65.24 1.3.38 1.96.15.7.34 1.4.75 2 .44.64 1.03.84 1.77.61.4-.12.75-.32 1.08-.56.16-.12.34-.2.54-.24 1.85-.5 3.74-.77 5.65-.94 2.37-.2 4.75-.25 7.12-.37.1 0 .22-.05.32.04-.5.07-1 .12-1.5.22-.5.12-1.03.11-1.54.21-.45.09-.9.1-1.35.14-.6.05-1.19.13-1.78.19-.71.07-1.43.13-2.13.23l-1.99.3c-.6.1-1.2.3-1.82.33a3.59 3.59 0 0 0-2.7 1.93c-.16.31-.25.64-.16 1 .12.52.51.74.97.87.58.17 1.2.09 1.77.26.35.11.72.14 1.08.22.08.02.25.03.15.21l-.27.14c-.07.03-.18 0-.18.11 0 .08.1.09.15.13.1.08.31.13.27.23-.05.1-.24.01-.36-.02-.78-.22-1.55-.46-2.33-.67-.3-.09-.6-.14-.91-.2-.09-.02-.19-.03-.23.07-.05.1.06.12.1.17.16.17.35.28.47.48-.18-.1-.4-.08-.58-.16-.2-.07-.26.01-.23.23l.1.6c.08.4.1.81.21 1.2l.09.62.13 1.02c-.03.12.04.25-.04.4a8.64 8.64 0 0 1-.55-1.7c-.36-1.8-.74-3.6-1.4-5.32a1.86 1.86 0 0 0-.37-.65c0 .6.09 1.14.19 1.67.25 1.36.71 2.67 1.03 4.01.2.87.35 1.74.32 2.64a11.1 11.1 0 0 1-.54-1.54 47.88 47.88 0 0 1-1.26-5.93c-.46-2.86-.8-5.74-1.62-8.53-.28-.92-.01-1.57.66-2.13a5.11 5.11 0 0 1 2.86-1.25c.13-.01.28 0 .41.03.16.03.32.11.34.3.03.2 0 .37-.17.5-.46.35-1 .48-1.54.6-.4.09-.8.16-1.19.27-.5.14-.57.41-.26.83.28.38.62.65 1.1.78 2.04.54 4.12.85 6.22 1.02 2.78.23 5.58.22 8.37.32 2.96.1 5.92.15 8.89.18 1.55.01 3.1-.01 4.65-.19.29-.03.58.02.88-.02.24.35.54.2.83.09.16.06.34.12.51.09.35-.07.67.15 1 .1.24-.04.5-.06.65-.3.16.08.33.14.51.15.82.07 1.64-.06 2.46 0 .17 0 .34.07.51.05.74-.05 1.48-.11 2.21-.2.8-.12 1.6-.2 2.38-.34.94-.17 1.88-.36 2.81-.62 1.03-.28 2.06-.58 3.06-1 .08-.03.13-.07.16-.14.07.04.15.04.24.01.15-.05.3-.1.44-.13.66-.14 1.31-.28 1.97-.4.29-.05.54-.22.84-.24.08.24-.02.5.09.74v2.69ZM26.13 72.6c.15-.61.11-1.16.04-1.71-.15-1.02-.47-1.99-.78-2.96-.44-1.37-.94-2.73-1.14-4.17-.02-.18-.1-.16-.22-.1a.52.52 0 0 0-.24.33c-.07.25-.06.49-.02.73.09.65.29 1.26.47 1.88.23.78.5 1.55.6 2.36a9.4 9.4 0 0 0 1.29 3.64Zm-4.37-19.04c-.05.17-.04.33-.02.5.13.96.36 1.92.52 2.88.16 1.01.47 2 .57 3.02.06.7.12 1.4.34 2.06.1.27.21.52.43.71.04.04.09.1.16.07.05-.03.03-.1.04-.14.01-.3.03-.6.02-.9a14.8 14.8 0 0 0-.57-3.14c-.37-1.39-.82-2.76-1.03-4.2a1.66 1.66 0 0 0-.46-.86Zm6.07 19.09-.05-.27-.55-2.24c-.4-1.64-.8-3.28-1.5-4.82-.15-.33-.3-.66-.52-.99.05 2.37 1.74 7.77 2.62 8.32Zm4.78 1.87c.5.18.95.28 1.41.35 1.91.3 3.85.38 5.78.46.2.01.4-.02.6-.14-.4-.24-7.28-.85-7.79-.67Zm16.84.2-2.07.1c-1.22.06-2.44.1-3.65.31-.2.04-.43.07-.6.24.06.07.13.03.2.03.48 0 .97-.06 1.45-.11 1.08-.11 2.16-.05 3.24-.11.37-.02.73-.04 1.08-.15.15-.05.3-.1.35-.3Zm13.98-38.19a21.65 21.65 0 0 0 .36-4.41c0-.07 0-.2-.1-.2-.08.01-.09.12-.1.2-.1.95-.24 1.9-.29 2.85a4.9 4.9 0 0 0 .13 1.56ZM20.92 51.16c.1-.8-.43-3.5-.75-3.76-.03.2 0 .38.01.57.03.7.27 1.35.32 2.04.01.24.03.47.08.7.04.2.1.4.34.45Zm3.93 10.98a2.83 2.83 0 0 0-.41-1.3c-.04-.06-.08-.15-.15-.13-.08.02-.06.11-.05.18.07.45.18.89.36 1.3.05.1.09.26.2.23.1-.03.03-.19.05-.28Zm-5.44-17.4c.18-.28.34-.53.24-.85-.04-.15-.14-.26-.3-.23-.15.03-.19.16-.19.3 0 .28.11.5.25.78Zm21.99 30.3c-.16.05-.37 0-.43.22-.02.09.33.36.45.33.17-.03.3-.16.32-.33.01-.23-.2-.17-.34-.21Z"/>
  <path fill="#D6AD2F" d="M56.43 2c.08.15.26.12.4.18.61.3 1.19.66 1.73 1.08.23.17.48.33.68.53.35.38.76.7 1.09 1.1.3.36.64.71.93 1.1.6.78 1.14 1.61 1.62 2.48.5.9.93 1.82 1.37 2.75a17.7 17.7 0 0 1 1.34 4.65c.15.84.3 1.69.32 2.55-.3.02-.55.2-.84.25-.66.11-1.31.25-1.97.4-.15.02-.3.07-.44.12a.28.28 0 0 1-.24-.01c.03-.08.04-.16.09-.22.14-.17.15-.37.12-.58-.1-.53-.44-.91-.83-1.25-.06-.06-.13-.09-.12-.18v-.47c.07-.09.17-.05.26-.05.2 0 .34-.11.45-.24.27-.32.18-.65 0-.97-.09-.17-.2-.33-.24-.52-.13-.84-.38-1.66-.64-2.46-.22-.68-.45-1.36-.75-2.02-.32-.69-.64-1.38-1.09-1.98-.23-.32-.4-.73-.85-.86-.03 0-.05-.07-.06-.1-.01-.12-.06-.23-.08-.35a8.46 8.46 0 0 0-.71-2.25 1.73 1.73 0 0 0-.73-.87c-.56-.29-.99-.71-1.3-1.27-.05-.2-.08-.4.12-.54h.37Zm3.48 3.47c.02-.1-.02-.21-.08-.31a3.66 3.66 0 0 0-1.6-1.47c-.06-.02-.15-.1-.22-.02-.06.08-.01.17.03.25.17.32.41.58.65.84.28.33.55.69.95.89.23.11.27.1.27-.18Z"/>
  <path fill="#008FD0" d="M18.35 35.01 18.22 34l.01-.43c0-.08.04-.18-.1-.19-.12-.39-.13-.8-.2-1.2-.05-.2-.07-.4-.1-.6-.04-.22.02-.3.22-.23.19.08.4.07.58.16-.12-.2-.31-.31-.46-.48-.05-.05-.16-.08-.11-.17.04-.1.14-.1.23-.08.3.07.61.12.91.2l2.33.68c.12.03.31.13.36.02.04-.1-.17-.15-.27-.23-.05-.04-.15-.05-.15-.13 0-.1.11-.08.18-.11l.27-.14h.97c.06 0 .18-.02.19.03.05.24.25.19.39.22.27.06.58-.06.79.22 0 .01.05 0 .07 0 .27.05.53.16.8.11.06 0 .11.02.14.07.12.2.31.2.5.2h1.54c.07 0 .17-.02.2.02.2.25.47.17.72.2.08.04.16.09.28.1.44.01.9.03 1.34.1.62.09 1.22.27 1.86.22-.18.13-.32.3-.39.51a.53.53 0 0 1-.29.33c-.21.09-.4.23-.6.33-.25.14-.5.3-.68.53-.1.1-.14.25-.27.34-.06.1-.16.18-.16.32l-.05.05c-.13.4-.19.8-.1 1.21.17.73.63 1.29 1.16 1.77.25.23.55.41.85.6.55.32 1.06.72 1.63 1.01.72.37 1.45.71 2.21.97 1.15.37 2.32.61 3.5.79.19.02.37.09.56.06.25-.03.52.01.75.05.5.07 1 .04 1.5.1.29.04.58-.03.86-.03.6 0 1.2-.02 1.79.05.6.06 1.18-.18 1.78-.06.04.01.1 0 .15-.02.32-.1.66-.12.98-.15.31-.03.63-.06.93-.11l1.47-.26a19.8 19.8 0 0 0 4.27-1.18 14.95 14.95 0 0 0 3.96-2.43l.9-.74c.2-.16.34-.37.53-.51.4-.28.7-.66 1.08-.96.1-.08.15-.22.24-.27.36-.22.61-.54.91-.81.21-.19.45-.35.65-.54.22-.21.46-.38.68-.6.02-.02.01-.09.07-.07.06 0 .08.06.09.11.02.11-.04.23.05.33-.03.81.07 1.61.12 2.42.07 1.01.2 2.02.2 3.04 0 .21-.06.37-.22.52-.72.66-.75 1.29-.15 2.14.14.19.27.38.4.6.23.42.16.84-.2 1.14a.95.95 0 0 0-.35.63c-.1.69-.22 1.37-.27 2.06-.08.99-.13 1.98-.16 2.97a40.4 40.4 0 0 1-.16 2.62c-.08.9-.26 1.8-.34 2.7l-.12 1.63c-.08.94-.14 1.88-.24 2.82-.1 1-.29 2-.47 3-.07.37-.01.78-.02 1.17 0 .61.1 1.22.06 1.83 0 .07.02.14.03.2-.07.43 0 .87-.03 1.3 0 .9-.17 1.77-.5 2.6a.36.36 0 0 0 0 .24c.1.4-.06.71-.35.98-.3.27-.67.41-1.04.56-.12.05-.23.1-.33.18.17.2.4.13.6.18.22.04.16.13.1.24-.2.4-.5.73-.85 1.01-.86.7-1.87 1.11-2.9 1.44-.7.23-1.41.41-2.14.5-.5.06-1 .1-1.5.14l-2.52.2-.96.06c-1.03.05-2.07.08-3.1.12h-1.07c-.15 0-.3-.07-.44.04h-2.42c-.06-.1-.16-.04-.23-.05l-1.17.01c-.62-.02-1.24-.02-1.86-.07-.91-.07-1.82-.14-2.73-.24-.88-.1-1.76-.2-2.63-.34-.94-.15-1.87-.32-2.8-.53-.3-.07-.56-.32-.8-.54a6.13 6.13 0 0 1-1.66-2.76c-.4-1.18-.61-2.41-.9-3.62-.08-.37-.17-.74-.27-1.1-.01-.06-.06-.12 0-.17.04-.04.09 0 .13.02.24.04.47.08.71.07.06 0 .14.02.16-.06.02-.07-.04-.11-.08-.15-.3-.29-.6-.56-.88-.85a3.2 3.2 0 0 1-.67-.96c-.22-.5.02-.91.2-1.34l.15-.3c-.2-.02-.35.07-.52.08-.21.02-.32-.04-.39-.26a146.38 146.38 0 0 1-3.17-10.87c-.37-1.43-.7-2.88-1.06-4.31-.24-.95-.43-1.92-.65-2.87l-.83-3.55a.84.84 0 0 0-.27-.47c-.19-.11-.06-.3-.1-.45-.02-.1.06-.24-.14-.23-.07 0-.07-.07-.06-.12.01-.17-.05-.34-.05-.51 0-.18 0-.35-.17-.47-.04-.03-.04-.1-.05-.14-.13-.7-.1-1.4-.1-2.1 0-.13 0-.24-.14-.29ZM36.8 67.66h1.12c-.15-.16-.34-.1-.52-.12l-1.7-.2-1.43-.2c-.33-.04-.64-.2-.97-.21-.74-.03-1.44-.26-2.14-.47-.67-.2-1.32-.42-2.01-.53a.86.86 0 0 0-.5.06c-.22.1-.25.3-.22.5s.2.1.32.1c.21.02.43.05.64.05.7 0 1.38.17 2.07.32.78.16 1.58.3 2.36.47a9.3 9.3 0 0 0 2 .23c.33.06.65.05.98 0Zm-6.6-18.75-.05.02c-.02.24-.27.3-.37.48-.04.07-.05.24-.21.2-.13-.03-.22.04-.3.12-.26.24-.44.53-.6.85-.16.35-.15.74-.22 1.11-.1.57-.11 1.13-.02 1.69.21 1.32.88 2.4 1.86 3.27.5.44 1.06.8 1.69 1.06.65.27 1.3.45 2 .47.32.07.63.08.93 0 .26-.02.52-.01.77-.06a5.96 5.96 0 0 0 4.14-2.99c.36-.7.57-1.44.67-2.22.08-.32.08-.63 0-.94l-.07-.46a5.12 5.12 0 0 0-2.18-3.22c-1-.73-2.14-1.1-3.37-1.23a5.35 5.35 0 0 0-3.53.72 3 3 0 0 0-1.15 1.13Zm11.26 6.95a1.78 1.78 0 0 0-1.56.61c-.49.55-1.13.95-1.66 1.47-.66.68-1.21 1.4-1.03 2.44.03.19.08.3.28.34.26.05.52.1.75.23.44.26.64.7.73 1.17.1.45.11.92.18 1.37.1.68.22 1.35.9 1.73.29.17.5.23.65.03.38-.54.92-.54 1.47-.43.42.09.82.25 1.24.33.9.2 1.43-.44 1.3-1.31-.13-.91-.06-1.44.77-2.06.32-.24.67-.45 1-.66.58-.35.61-.43.42-1.06a5.88 5.88 0 0 0-1.74-2.65 5.64 5.64 0 0 0-3.7-1.55Zm7.76 1.89a6.08 6.08 0 0 0 5.2-3.26 4.75 4.75 0 0 0 .15-4.1 5.67 5.67 0 0 0-2.95-3.32 6.87 6.87 0 0 0-3.35-.7c-.86.03-1.68.18-2.41.65-1.97 1.24-3.38 2.82-3.24 5.38.06 1.07.46 1.99 1.11 2.78.59.73 1.33 1.3 2.17 1.72 1.03.52 2.08.87 3.32.85Z"/>
  <path fill="#F5D81D" d="M61.68 16.95c0 .1.06.12.12.18.4.34.73.72.83 1.25.03.21.02.4-.12.58-.05.06-.06.14-.1.22-.02.07-.07.11-.15.15-1 .4-2.03.71-3.06 1-.93.25-1.87.44-2.81.61-.79.15-1.59.22-2.38.33-.73.1-1.47.16-2.2.21-.18.02-.35-.05-.52-.06-.82-.05-1.64.08-2.46.01a1.33 1.33 0 0 1-.5-.15c-.33-.12-.39-.48-.15-.73.43-.47.96-.8 1.54-1.02.26-.1.52-.16.77-.27.3-.13.56-.3.78-.54.43-.47.9-.9 1.38-1.3.05-.05.11-.1.12-.17-.1-.04-.2 0-.27.04a57.2 57.2 0 0 0-3.4 2.28c-.2.16-.49.1-.72.04-.12-.04-.27-.04-.4-.11-.41-.27-.46-.78-.27-1.26.26-.69.66-1.31 1.13-1.88.3-.36.6-.74 1-1.02.19-.13.4-.22.6-.3.1-.02.16-.06.24.02.1.09.02.15-.01.22-.25.6-.6 1.13-.95 1.67-.04.07-.12.18-.05.25.05.05.16.02.24-.03.26-.16.53-.28.64-.64.1-.34.27-.68.58-.9.6-.42 1.32-.33 1.9.22.16.16.3.34.45.58.1-.71.36-.94 1-1.05.08-.02.16-.01.22-.08h.8c.07-.04.04-.06-.03-.09-.16-.06-.32-.12-.48-.2-.23-.13-.25-.24-.05-.42.1-.08.18-.17.24-.28.04-.05.1-.1.07-.16-.03-.08-.12-.04-.19-.04-.23 0-.44.1-.65.18-.41.15-.83.28-1.26.36-.28.05-.58.1-.85-.04-.13-.06-.23.05-.31.08-.4.12-.8.14-1.19.09-.24-.03-.41-.48-.33-.75.26-.84.75-1.56 1.12-2.33.37-.8.78-1.59 1.16-2.4.33-.67.67-1.35.96-2.05.27-.65.54-1.29.76-1.96.2-.56.35-1.12.53-1.68.04-.1.04-.22.06-.33.05-.36.34-.46.59-.6.08-.06.16-.2.3-.14.3.56.73.98 1.3 1.27.35.19.56.52.72.87.33.72.59 1.47.7 2.25.03.12.08.23.1.35 0 .03.02.1.05.1.44.13.61.54.85.86.45.6.77 1.3 1.09 1.98.3.66.53 1.34.75 2.02.26.8.51 1.62.64 2.46.03.2.15.35.24.52.18.32.27.65 0 .97-.11.13-.25.24-.45.24-.09 0-.19-.04-.26.05a3.23 3.23 0 0 1-1.47-.58c-.55-.47-.82-1.08-.2-1.71.07-.07.15-.14.12-.24-.09-.32-.1-.65-.22-.95-.09-.22-.17-.22-.36-.07-.15.1-.27.27-.48.29-.07 0-.17-.06-.2.06-.01.1.08.12.14.17.1.07.18.16.26.25.25.29.25.65-.03.89a2.3 2.3 0 0 1-.89.5c-.65.16-1.3.33-1.98.29-.04 0-.1-.04-.12.03.03.06.09.06.14.07.32.08.63.2.87.44.17.17.2.5.04.53-.26.06-.44.26-.7.32-.08.02-.29.04-.24.16.06.18.17-.03.27-.04.31-.04.62-.1.93-.18.5-.12 1.02-.17 1.53-.06.15.03.34.1.35.3.01.33.07.66-.05.98-.32.8-1 1.18-1.74 1.43-.58.19-1.17.36-1.8.42-.4.04-.8.14-1.2.16-.45.02-.88.1-1.32.13-.43.03-.85.1-1.28.19-.53.12-1.08.13-1.6.32-.11.04-.12.03-.02.16h1l.51-.05c.52-.03 1.02-.1 1.52-.21.45-.1.88-.21 1.33-.28.66-.1 1.32-.15 1.98-.27.78-.15 1.58-.27 2.3-.7.47-.3.85-.67 1.1-1.17.04-.08.06-.13-.01-.2-.2-.2-.25-.46-.38-.69a.6.6 0 0 1 0-.61c.1-.17.32-.15.5-.13.34.05.67.17.99.33.13.07.23.21.4.19Zm-2.3-7.55c-.22.4-.41.75-.68 1.06-.27.3-.53.58-.83.85-.5.46-1.01.92-1.48 1.43-.15.16-.35.33-.39.59 0 .05-.07.1 0 .16.07.07.1 0 .14-.04l.67-.45c.79-.5 1.57-1 2.19-1.71.47-.56.67-1.14.37-1.9Zm-3.86-2.18c.02-.05-.02-.08-.05-.1-.07-.01-.12.05-.15.1-.12.18-.25.37-.36.57-.42.71-.76 1.46-1.04 2.24-.05.13-.26.34-.09.42.17.08.25-.2.36-.33.34-.43.55-.95.86-1.41.3-.44.42-.96.47-1.49ZM57.03 9c.12-.02.13-.14.21-.2.44-.3.79-.67 1-1.17.1-.25.06-.6-.13-.77-.11-.09-.24-.2-.37-.21-.13-.01-.13.19-.15.3-.09.42-.25.82-.38 1.24-.08.26-.22.52-.18.81Zm-5.72 9.9c.16.09.3.1.4.04a9.07 9.07 0 0 0 1.92-1.24c-.82.3-1.62.61-2.32 1.2Zm3.99-1.6c-.05-.08-.1-.07-.15-.08-.28-.05-.52.12-.79.12-.04 0-.11.02-.1.09.03.07.06.18.15.16.3-.07.63-.05.89-.3Zm-.88-4.06c-.2.06-.35.17-.5.29-.06.04-.14.12-.08.2.06.06.14.15.26.11.23-.08.36-.33.32-.6Z"/>
  <path fill="#030303" d="M34.2 14.67c2.8-.05 5.6-.1 8.4-.25l3.4-.24c.25-.02.52.22.63.57.08.26 0 .47-.26.61-.42.24-.9.29-1.38.33-1.4.12-2.79-.01-4.18-.01-.75 0-1.5.08-2.26-.06-.64-.13-1.28-.27-1.93-.37-.58-.1-1.16-.11-1.59.4-.07.09-.13.05-.2.02a8.16 8.16 0 0 0-4.22-.43c-1.29.14-2.56.44-3.86.52-2.28.15-4.49.7-6.69 1.3l-.48.09c-.15.02-.2-.06-.1-.19l.29-.4c.13-.19.28-.37.2-.64-.03-.14.11-.1.16-.1 1.06-.23 2.12-.46 3.18-.66a29.3 29.3 0 0 1 5.28-.38c1.87-.01 3.74-.07 5.62-.11Z"/>
  <path fill="#F5D81D" d="M46.16 21.39c-.3.11-.59.26-.83-.09-.1-.13-.18-.27-.04-.42.28-.31.43-.74.8-.97.16-.1.3-.22.52-.15.33.11.4.5.29.88-.12.39-.41.58-.74.75Z"/>
  <path fill="#3CA2A2" d="M55.5 15.3h-.8c.26-.06.53-.04.8 0Z"/>
  <path fill="#3798A7" d="M62.72 33.27c-.09-.1-.03-.22-.05-.33-.01-.05-.03-.1-.09-.11-.06-.02-.05.05-.07.08-.22.21-.46.38-.68.59-.2.19-.44.35-.65.54-.3.27-.55.6-.9.8-.1.06-.15.2-.25.28-.37.3-.68.68-1.08.96-.2.14-.33.35-.53.5l-.9.75a15.62 15.62 0 0 1-6.4 3.23c-.6.16-1.2.28-1.83.38l-1.47.26c-.3.05-.62.08-.93.1-.32.04-.66.06-.98.16a.32.32 0 0 1-.15.02c-.6-.12-1.19.12-1.78.06-.6-.07-1.2-.05-1.79-.05-.28 0-.57.07-.85.04-.5-.07-1-.04-1.5-.11-.24-.04-.5-.08-.76-.05-.19.03-.37-.04-.55-.06a20.75 20.75 0 0 1-3.5-.8c-.77-.25-1.5-.6-2.22-.96-.57-.29-1.08-.69-1.63-1.02-.3-.18-.6-.36-.85-.59a3.48 3.48 0 0 1-1.16-1.77c-.09-.4-.03-.81.1-1.21.04.01.1.05.12.03.4-.27.91-.21 1.33-.45l-.15.42c-.03.13-.02.26.15.3l.99.33c1.26.37 2.55.62 3.87.75.9.09 1.8.17 2.7.2.42 0 .83.1 1.25.13.53.05 1.06.1 1.6.13.2 0 .36-.07.36-.32.14-.17.35-.12.5-.09.22.04.22-.17.32-.24.05-.03-.02-.15-.08-.23-.48-.6-.53-1.32-.45-2.04.04-.36.2-.72.47-1.02.52-.57 1.07-.7 1.72-.49.18.06.35.18.34.35 0 .2.08.4-.01.61-.26.57-.52 1.14-.75 1.72-.2.48-.12.82.26.9.21.05.44.05.66.01.1-.02.26 0 .3-.2.12-.5.04-1 .11-1.5.05-.33.1-.66.17-.99.12-.47.3-.92.74-1.2.12-.08.28-.1.39-.21l.71-.01.8.26c.07.03.16.02.19.14.05.26.12.51.2.76.2.7.44 1.39 1.07 1.83.26.19.55.28.86.34.44.09.87-.07 1.3-.02.1.01.2.03.31 0 .65-.16.99-.63 1.2-1.23.16-.46.3-.94.45-1.41.16-.49.41-.9.91-1.1.07-.03.19.04.22-.09.18-.02.37-.03.55-.07.15-.04.34.06.47-.1.3.03.6-.02.9.12.14.07.1.28.3.28v-.6l.02-.01h3.87c.06 0 .17.04.17-.06.01-.18.14-.15.24-.14.6.07 1.17-.16 1.77-.11.04 0 .11-.01.12-.03.03-.2.18-.12.29-.12l.57-.01c.13-.01.2.06.24.15.11.33.02.47-.24.71-.12.11-.2.26-.37.3-.14-.02-.21.01-.23.18-.01.1.01.27-.09.31-.19.1-.15.25-.15.4-.14 0-.1.11-.1.2l-.01.54Z"/>
  <path fill="#F5D81D" d="M43.53 22.85c.23-.2.52-.13.78-.15.6-.05 1.19-.03 1.78-.06l2.36-.16 2.84-.22c.98-.07 1.95-.2 2.94-.26.83-.06 1.66-.23 2.5-.3.61-.04 1.23-.11 1.84-.18l1.7-.2c.55-.08 1.1-.15 1.66-.21.09 0 .17 0 .21.1.09.2.16.39.17.6.02.64-.1 1.23-.33 1.83a19.3 19.3 0 0 1-.93 2.11c-.31.61-.66 1.2-.94 1.82-.2.43-.37.87-.66 1.25-.16.2-.25.48-.47.61-.45.29-.86.64-1.36.85-.24.1-.47.23-.74.26-.05.02-.04.09-.13.1-.27.03-.54.1-.8.16a7.7 7.7 0 0 1-1.18.15c-.35-.08-.7-.08-1.06 0l-1.39-.16c-.06 0-.06-.05-.06-.1v-.26c0-.37-.2-.62-.53-.7a.57.57 0 0 0-.64.3c.14.03.27.05.4.1.1.05.23.12.25.27.02.15-.06.24-.2.3-.04-.08-.1-.14-.2-.08-.06.04-.05.1 0 .15-.15.26-.44.26-.67.33a5.2 5.2 0 0 1-1.73.16c-.08 0-.2-.04-.22-.2-.02-.15-.1-.3-.15-.45-.03-.12-.05-.27-.19-.27-.11 0-.21.11-.29.23-.12.2-.24.4-.41.57-.55.51-1.3.33-1.74-.05-.6-.5-.74-1.2-.58-1.95.16-.74.4-1.48.67-2.19.35-.9.6-1.8.57-2.77 0-.17-.01-.36-.18-.5-.3.65-.55 1.3-.76 1.95-.23.72-.43 1.45-.63 2.18-.12.42-.2.85-.29 1.28-.08.39-.2.77-.25 1.17a.82.82 0 0 1-.57.72c-.12.04-.24.1-.37.16-.35.14-.54.03-.55-.35 0-.29.07-.56.15-.84.2-.72.52-1.4.8-2.1l.65-1.68c.06-.17.01-.34-.18-.36-.24-.03-.5-.05-.73 0-.42.1-.68.48-.93.79-.33.4-.57.9-.82 1.37-.37.69-.7 1.4-1.1 2.06a3.5 3.5 0 0 1-1.44 1.5c-.04.02-.08.05-.14.05-.3 0-.6.13-.9.2a.6.6 0 0 1-.54-.13c-.17-.15-.05-.34.04-.5.22-.39.53-.7.82-1.03.53-.6 1.14-1.12 1.65-1.74.3-.37.67-.66.98-1.03.49-.59.95-1.2 1.38-1.83.16-.24.37-.46.46-.75 0-.03.08-.09 0-.13-.04-.02-.08-.05-.13.02-.2.3-.56.47-.74.76-.3.5-.82.79-1.15 1.26-.15.21-.34.43-.54.62-.13.12-.29.27-.38.43-.12.22-.3.4-.46.57-.25.26-.5.53-.73.8-.31.4-.7.7-1.05 1.05a6.8 6.8 0 0 1-1.17.87c-.65.4-1.33.73-2.1.83-.07 0-.17-.07-.18.07 0 .12.12.07.17.12.03.03.08.02.12.03-.07.08-.17.04-.27.04-.12.01-.27-.03-.38.02-.37.17-.74.08-1.11.05.02-.1.12-.07.18-.12.48-.37.96-.75 1.46-1.1.5-.35 1-.71 1.42-1.15.6-.62 1.3-1.16 1.91-1.77.16-.15.31-.32.5-.44.27-.18.47-.44.73-.64.3-.24.57-.51.85-.78.46-.42.9-.87 1.38-1.28.31-.27.55-.62.87-.89.43-.35.8-.77 1.18-1.16ZM55.43 25a.44.44 0 0 1 .2-.05c.07 0 .07-.06.04-.12-.1-.2-.65-.5-.86-.47-.16.03-.33.03-.49 0a.68.68 0 0 0-.47.13c-.09.06-.22.16-.2.21.02.11.15.16.27.2.17.07.36.02.52.1h1Zm2.53 3.48c.32-.02.6-.11.81-.37.09-.1.17-.26.07-.38-.09-.1-.22-.08-.3.05h-.1c-.55.2-1.11.2-1.67.1a7.7 7.7 0 0 1-1.4-.39c-.72-.26-1.38-.65-2.05-1.03-.25-.14-.46-.34-.69-.53-.08-.07-.12-.19-.1-.28.04-.12.17-.07.25-.07.64-.02 1.23.18 1.83.38.58.19 1.12.48 1.68.7.19.09.39.13.58.2.08.01.17.03.2-.05.04-.07-.05-.1-.1-.14-.1-.1-.21-.18-.33-.26-.5-.35-1.04-.63-1.59-.9-.24-.11-.51-.23-.79-.19-.3.06-.58.12-.91.04-.39-.1-.76-.22-1.12-.38-.6-.27-1.16-.6-1.74-.92-.17-.09-.35-.14-.53-.1-.06.02-.2.05-.08.18.17.18.31.37.49.54.5.49.97 1 1.5 1.44 1.13.93 2.34 1.7 3.74 2.1.45.14.9.24 1.38.25h.97Zm1.8-2.85c.2 0 .28-.14.35-.24.58-.84 1.12-1.7 1.06-2.8-.01-.23-.1-.36-.27-.5-.2-.18-.4 0-.6-.04-.16-.03-.3.06-.44.12a.77.77 0 0 0 .23.34c.36.4.44.91.35 1.4-.12.59-.43 1.14-.67 1.72Zm-11.72-1.27c.19.9.56 1.7 1.3 2.3.1.08.24.26.35.2.14-.09 0-.3.04-.45l-.04-.09c-.07-.38-.3-.7-.48-1.03-.2-.4-.47-.77-.8-1.09-.08-.07-.18-.1-.25-.08-.08.02-.14.12-.12.24Zm11.16 1.56c-.05-.07.04-.22-.04-.3-.3-.35-.6-.7-.97-.98-.1-.07-.21-.11-.3-.05-.1.07-.04.2 0 .3.24.54.61.94 1.16 1.18.12.05.18.05.15-.15Z"/>
  <path fill="#25A8DF" d="M28.23 32.12c-.25-.02-.53.06-.72-.2-.03-.03-.13-.01-.2-.01h-1.54c-.19 0-.38 0-.5-.2a.13.13 0 0 0-.13-.07c-.28.05-.54-.06-.8-.1l-.08-.01c-.21-.28-.52-.16-.8-.22-.13-.03-.33.02-.38-.22-.01-.05-.13-.03-.2-.03h-.96c.1-.18-.07-.19-.15-.2-.36-.09-.73-.12-1.08-.23-.58-.17-1.19-.1-1.77-.26-.46-.13-.85-.35-.97-.87-.1-.36 0-.69.16-1 .4-.8 1.01-1.35 1.81-1.7.29-.13.59-.21.9-.23.62-.03 1.2-.22 1.81-.32.66-.12 1.32-.2 1.99-.3.7-.11 1.42-.17 2.13-.24.6-.06 1.19-.14 1.78-.19.45-.03.9-.05 1.35-.14.5-.1 1.03-.1 1.55-.2.49-.11 1-.16 1.5-.23.56 0 1.14.02 1.7 0 .26-.01.55.02.77-.07.3-.13.6-.11.9-.2a3.8 3.8 0 0 1 1.15-.22c.47 0 .93-.17 1.41-.14.5.02.99.02 1.48 0 .4-.02.77.2 1.25.09-.36.35-.69.59-.98.87-.37.35-.8.6-1.18.93-.3.26-.61.5-.93.72-.32.22-.62.48-.9.72-.24.2-.45.45-.66.7-.49.59-1.06 1.11-1.67 1.58-.56.44-1.15.88-1.82 1.17-.38.18-.76.36-1.18.44-.5.15-1 .25-1.52.26-.73.03-1.48-.11-2.2.16-.12.04-.25.05-.32.16Zm4.4-6.78h-.92c.17.1.73.1.92 0Z"/>
  <path fill="#D6AD2F" d="M56.88 30.54c.27-.03.5-.16.74-.26.5-.21.91-.56 1.36-.85.22-.13.31-.4.47-.61.29-.38.47-.82.66-1.25.28-.62.63-1.21.94-1.82.35-.68.66-1.38.93-2.11.22-.6.35-1.2.33-1.83 0-.21-.08-.4-.17-.6-.04-.1-.12-.1-.21-.1.13-.26.4-.16.6-.2a8.19 8.19 0 0 1 1.74-.12c.16.01.22.03.23.21.03.5.06.99.13 1.48.04.3-.06.62-.03.93.07.78.04 1.55.05 2.33 0 .36-.1.7-.2 1.04-.07.26-.09.52-.1.76-.02.53-.08 1.05-.06 1.57.01.43-.2.8-.3 1.2l-.08.32c-.05-.1-.1-.16-.24-.15-.2.02-.38 0-.57 0-.1.01-.26-.06-.3.13 0 .02-.07.03-.11.03-.6-.05-1.17.18-1.77.1-.1 0-.23-.03-.24.15 0 .1-.1.07-.17.07l-3.87-.01c0-.14.02-.25.2-.26.09 0 .04-.1.04-.15ZM62.83 32.53c0-.15-.04-.3.15-.4.1-.04.08-.2.1-.3 0-.18.08-.2.22-.19v.42c0 .09 0 .17-.13.16-.09 0-.08.07-.09.13-.02.15-.1.22-.25.18Z"/>
  <path fill="#BF9769" d="M43.8 74.55c.13-.1.3-.04.44-.04h1.06c-.5.06-1 .05-1.5.04ZM39.98 74.51h1.17c.07 0 .17-.05.23.04-.47 0-.93.02-1.4-.04Z"/>
  <path fill="#FAFBFB" d="M60.8 66.06c.03-.43-.04-.87.03-1.3 0 .44.05.87-.03 1.3ZM18.13 33.37c.14 0 .1.11.1.19l-.01.43-.09-.62ZM61.68 16.95c-.18.02-.28-.12-.41-.19a2.97 2.97 0 0 0-1-.33c-.17-.02-.39-.04-.5.13a.61.61 0 0 0 0 .61c.14.23.2.5.39.68.07.08.05.13.01.2-.25.51-.62.89-1.1 1.18-.72.43-1.52.55-2.3.7-.66.12-1.32.17-1.98.27-.45.07-.88.18-1.33.28-.5.1-1 .18-1.52.21l-.5.05c-.34-.1-.68-.08-1.01 0-.1-.13-.1-.12.02-.16.52-.2 1.07-.2 1.6-.32.43-.1.85-.16 1.28-.2.44-.02.87-.1 1.32-.12.4-.02.8-.12 1.2-.16a8.05 8.05 0 0 0 1.8-.42c.73-.25 1.42-.63 1.74-1.43.12-.32.06-.65.05-.98-.01-.2-.2-.27-.35-.3a3.36 3.36 0 0 0-1.53.06c-.3.08-.62.14-.93.18-.1.01-.2.22-.27.04-.05-.12.16-.14.25-.16.25-.06.43-.26.69-.32.15-.03.13-.36-.04-.53a1.83 1.83 0 0 0-.87-.44c-.05-.01-.1 0-.14-.07.02-.07.09-.04.12-.03.68.04 1.33-.13 1.98-.29.33-.08.63-.28.9-.5.27-.24.27-.6.02-.89-.08-.09-.16-.18-.26-.25-.05-.05-.15-.07-.13-.17.02-.12.12-.06.2-.06.2-.02.32-.18.47-.3.2-.14.27-.14.36.08.12.3.13.63.22.95.03.1-.05.17-.11.24-.63.63-.36 1.24.2 1.7.42.36.94.48 1.46.6v.46ZM59.91 5.47c0 .28-.04.3-.27.18-.4-.2-.67-.56-.95-.89-.24-.26-.48-.52-.65-.84-.04-.08-.1-.17-.03-.25.07-.08.16 0 .21.02.67.34 1.24.8 1.61 1.47.06.1.1.2.08.3Z"/>
  <path fill="#FBFCFC" d="M29.58 49.6c.16.05.17-.12.21-.19.1-.18.35-.24.37-.48.03.03.03 0 .04-.02.12.01.23-.05.35-.09.93-.32 1.85-.69 2.81-.89.9-.19 1.8-.26 2.7.03.39.13.69.4 1.05.57a4.79 4.79 0 0 1 2.03 6.56c-.68 1.17-1.8 1.75-2.98 2.24-.35.15-.74.2-1.12.22a5.91 5.91 0 0 1-5.06-2.42 4.4 4.4 0 0 1-.93-3.47c.08-.5.28-.96.45-1.42.08-.2.18-.41.08-.64Zm-.16 3.62c0 .57.32.98.94 1.16.32.1.66.09 1 .12.82.09 1.61-.38 1.92-1.16.1-.27.14-.54.03-.81a2.9 2.9 0 0 0-.76-1.15c-.3-.26-.65-.39-1.05-.37-1 .04-2.07 1.18-2.08 2.21Z"/>
  <path fill="#030303" d="M41.47 55.86c1.42.05 2.65.6 3.7 1.55.8.73 1.41 1.6 1.74 2.65.19.63.16.71-.41 1.06-.34.21-.69.42-1 .66-.84.62-.91 1.15-.78 2.06.13.87-.4 1.5-1.3 1.31-.42-.08-.82-.24-1.24-.33-.55-.11-1.09-.11-1.47.43-.15.2-.36.14-.65-.03-.68-.38-.8-1.05-.9-1.73-.07-.45-.09-.92-.18-1.37-.09-.47-.29-.9-.73-1.17-.23-.14-.5-.18-.75-.23-.2-.05-.25-.15-.28-.34-.18-1.04.37-1.76 1.03-2.44.53-.52 1.17-.92 1.66-1.47.44-.5.95-.64 1.56-.6Zm3.28 4.96c.4.01.8-.05 1.19-.21.2-.09.34-.18.24-.44-.04-.12-.03-.26-.06-.39-.15-.66-.46-1.21-1.16-1.45-.27-.1-.55-.06-.83-.05-.29 0-.58-.04-.87 0-.83.14-1.66.31-2.5.34a3.45 3.45 0 0 1-1.58-.26c-.07-.04-.14-.08-.24-.05-.24.06-.48.14-.69.28-.5.32-.72.84-.56 1.37.14.45.48.7.88.9.34.16.64.12.93-.12.08-.06.18-.1.28-.14a4.49 4.49 0 0 1 2.54-.13c.8.14 1.59.36 2.43.35Zm-.23 2.23a2.28 2.28 0 0 0-.83-1.69c-.24-.19-.52-.28-.8-.11a.98.98 0 0 0-.51.85c0 .34.03.68.06 1.02.02.36.05.72.2 1.05.22.46.67.6 1.1.35.53-.31.77-.78.77-1.47Zm-2.75-.27c0-.1 0-.2-.02-.31-.04-.36-.13-.7-.32-1.02-.3-.5-.7-.52-1.02-.03-.1.14-.15.3-.23.44-.24.46-.18 1-.3 1.48a2.1 2.1 0 0 0-.06.73c.03.24.16.4.4.41.58.01 1.08-.13 1.37-.78.14-.29.18-.6.18-.92ZM49.23 57.75a6.94 6.94 0 0 1-3.32-.85c-.84-.42-1.58-1-2.17-1.72a4.74 4.74 0 0 1-1.11-2.78c-.14-2.56 1.27-4.14 3.24-5.38a4.66 4.66 0 0 1 2.4-.65c1.19-.04 2.3.18 3.36.7a5.67 5.67 0 0 1 2.95 3.32c.24.68.43 1.35.39 2.08a4.75 4.75 0 0 1-.55 2.02 6.08 6.08 0 0 1-3.95 3.1c-.43.11-.87.21-1.24.16Zm-5.66-6.05c0 1.04.2 1.8.57 2.5.87 1.68 2.69 2.87 4.61 2.56.19-.03.38-.04.57-.02.49.04.97.01 1.45-.1a4.61 4.61 0 0 0 3.42-5.27 5.63 5.63 0 0 0-1.07-2.16 4.12 4.12 0 0 0-1.4-1.27 5.75 5.75 0 0 0-5.51-.1 4.35 4.35 0 0 0-2.64 3.86ZM29.58 49.6c.1.23 0 .44-.08.64-.17.46-.37.92-.45 1.42a4.4 4.4 0 0 0 .93 3.47 5.91 5.91 0 0 0 5.06 2.42c.38-.02.77-.07 1.12-.22 1.18-.5 2.3-1.07 2.98-2.24a4.79 4.79 0 0 0-2.03-6.56c-.36-.17-.66-.44-1.05-.57-.9-.3-1.8-.22-2.7-.03-.96.2-1.88.57-2.81.9-.12.03-.23.1-.35.08a3 3 0 0 1 1.15-1.13 5.35 5.35 0 0 1 3.53-.72c1.23.13 2.37.5 3.37 1.23 1.1.8 1.91 1.83 2.18 3.22l.07.46v.94c-.1.78-.3 1.52-.67 2.22a5.96 5.96 0 0 1-4.14 2.99c-.25.05-.51.04-.77.06H34c-.7-.02-1.36-.2-2.01-.47a5.98 5.98 0 0 1-1.69-1.06 5.51 5.51 0 0 1-1.86-3.27c-.1-.56-.08-1.12.02-1.69.07-.37.06-.76.23-1.11.15-.32.33-.61.59-.85.08-.08.17-.15.3-.13ZM35.84 67.66a9.3 9.3 0 0 1-2-.23c-.8-.17-1.59-.3-2.38-.47-.68-.15-1.36-.31-2.06-.32-.21 0-.43-.03-.64-.04-.11 0-.29.08-.32-.12-.03-.2 0-.4.21-.5a.86.86 0 0 1 .51-.05c.69.1 1.34.34 2 .53.71.2 1.4.44 2.15.47.33.01.64.17.97.21l1.43.2 1.7.2c.18.02.37-.04.52.12h-2.09ZM32.27 31.54c.04.2-.1.32-.18.46-.09.19-.2.35-.3.53l-.08.02c-.64.05-1.24-.13-1.86-.22-.45-.07-.9-.09-1.34-.1a.57.57 0 0 1-.28-.1c.07-.12.2-.13.32-.17.72-.27 1.46-.13 2.2-.16.52-.01 1.02-.1 1.52-.26Z"/>
  <path fill="#3FABDB" d="m31.7 32.55.09-.02c.3.04.56-.18.86-.1-.18.3-.48.46-.73.66-.51.4-.9.89-1.2 1.45-.42.24-.93.18-1.33.45-.02.02-.08-.02-.12-.03l.05-.05c.25-.18.57-.15.86-.32h-.7c.13-.09.17-.23.27-.34.18-.23.43-.39.69-.53.2-.1.38-.24.6-.33a.53.53 0 0 0 .28-.33c.07-.21.2-.38.39-.5Z"/>
  <path fill="#3798A7" d="M29.48 34.59h.7c-.3.17-.61.14-.86.32 0-.14.1-.22.16-.32Z"/>
  <path fill="#FAFBFB" d="M35.84 67.66h.96c-.32.05-.64.06-.96 0Z"/>
  <path fill="#BF9769" d="M40.5 52.9v-.93c.08.31.07.62 0 .94ZM34 58.18h.92c-.3.08-.61.07-.92 0Z"/>
  <path fill="#030303" d="M30.2 48.9c0 .03-.01.06-.04.03l.04-.02Z"/>
  <path fill="#FAFBFB" d="M59.37 9.4c.3.75.1 1.33-.37 1.89A9.19 9.19 0 0 1 56.8 13l-.67.45c-.04.03-.07.11-.14.04-.07-.06 0-.1 0-.16.04-.26.24-.43.39-.6.47-.5.97-.96 1.48-1.42.3-.27.56-.55.83-.85.27-.31.46-.66.67-1.06ZM55.52 7.22a3.18 3.18 0 0 1-.47 1.49c-.31.46-.52.98-.86 1.41-.1.13-.19.41-.36.33-.17-.08.04-.3.09-.42a13.64 13.64 0 0 1 1.4-2.81c.03-.05.08-.11.15-.1.04.02.07.05.05.1ZM57.03 9c-.04-.3.1-.56.18-.82.13-.42.3-.82.38-1.25.02-.1.02-.3.15-.3.13.02.26.13.37.22.19.17.22.52.12.77-.2.5-.55.88-.99 1.18-.08.05-.09.17-.2.2ZM51.31 18.89c.7-.59 1.5-.9 2.32-1.2-.58.5-1.24.9-1.92 1.24-.1.05-.24.05-.4-.04ZM55.3 17.29c-.26.24-.59.22-.9.29-.08.02-.11-.1-.13-.16-.02-.07.05-.1.1-.1.26 0 .5-.16.78-.1.05 0 .1 0 .15.07ZM54.42 13.23c.04.27-.09.52-.32.6-.12.04-.2-.05-.26-.12-.06-.07.02-.15.08-.2.15-.1.3-.22.5-.28Z"/>
  <path fill="#BF9769" d="M50.43 20.74c.33-.08.67-.1 1 0h-1Z"/>
  <path fill="#3CA2A2" d="M30.72 34.54c.3-.56.69-1.05 1.2-1.45.25-.2.55-.37.73-.65.18 0 .24-.2.4-.26.37.03.74.12 1.11-.05.1-.05.26 0 .38-.02.1 0 .2.04.27-.04l.06-.02.54.2c.13.05.24.16.23.29 0 .12-.04.27-.21.3-.06 0-.1.05-.16.08-.81.44-.88.95-.71 1.7.08.35.28.63.55.87.23.21.82.4 1.1.12.1-.1.12-.13.02-.2a2.56 2.56 0 0 1-.5-.66c-.37-.62-.27-1.17.17-1.62.28-.28.63-.48 1.01-.62.3-.1.59-.2.89-.26.26-.05.54-.15.8-.12.48.06.96-.05 1.45.06.46.1.92.17 1.33.46.15.11.13.18.03.25-.2.15-.27.41-.3.59-.04.49 0 .99.13 1.48.12.5.3.98.25 1.51 0 .25-.17.33-.36.32a41.1 41.1 0 0 1-1.6-.13c-.42-.03-.83-.12-1.25-.13-.9-.03-1.8-.11-2.7-.2-1.32-.13-2.6-.38-3.87-.75l-.99-.32c-.17-.05-.18-.18-.15-.31l.15-.42Z"/>
  <path fill="#FAFBFB" d="m34.87 32.05-.06.02c-.04 0-.09 0-.12-.03-.05-.05-.18 0-.17-.12.01-.14.11-.06.18-.07.77-.1 1.45-.43 2.1-.83a6.8 6.8 0 0 0 1.17-.87c.35-.34.74-.66 1.05-1.05.23-.27.48-.54.73-.8.16-.17.34-.35.46-.57.09-.16.25-.3.38-.43.2-.2.4-.4.54-.62.33-.47.84-.76 1.15-1.26.18-.3.53-.47.74-.76.05-.07.09-.04.13-.02.08.04 0 .1 0 .13-.1.29-.3.51-.46.75-.43.64-.89 1.24-1.38 1.83-.3.37-.69.66-.98 1.03-.5.62-1.12 1.14-1.65 1.74-.3.33-.6.64-.82 1.03-.09.16-.2.35-.04.5a.6.6 0 0 0 .55.13c.3-.07.58-.2.9-.2.05 0 .09-.03.13-.05a3.5 3.5 0 0 0 1.44-1.5c.4-.67.73-1.37 1.1-2.06.25-.47.49-.96.82-1.37.25-.31.5-.69.93-.79.23-.05.5-.03.73 0 .2.02.24.2.18.36-.2.57-.44 1.12-.66 1.68-.27.7-.59 1.38-.79 2.1-.08.28-.16.55-.15.84 0 .38.2.5.55.35.13-.05.25-.12.37-.16a.82.82 0 0 0 .57-.72c.05-.4.17-.78.25-1.17.09-.43.17-.86.29-1.28.2-.73.4-1.46.63-2.18.21-.66.45-1.3.76-1.94.17.13.17.32.18.49.03.97-.22 1.88-.57 2.77-.27.72-.51 1.45-.67 2.2-.16.74-.01 1.44.58 1.94.44.38 1.2.56 1.74.05.17-.16.3-.37.41-.57.08-.12.18-.23.29-.23.14 0 .16.15.2.27.04.16.12.3.14.46.02.15.14.19.22.19.58.02 1.17 0 1.73-.16.23-.07.52-.07.67-.33.11.11.16.03.2-.07.14-.06.22-.15.2-.3-.02-.15-.15-.22-.26-.27-.12-.05-.26-.07-.39-.1a.57.57 0 0 1 .64-.3c.32.08.54.33.53.7v.26c0 .05 0 .1.06.1l1.4.16h1.05c.4-.03.78-.06 1.17-.15.27-.06.54-.13.81-.16.09-.01.08-.08.13-.1 0 .06.05.14-.05.15-.18 0-.2.12-.2.26v.01c-.36.13-.73.1-1.1.11-.04 0-.07.06-.11.09-.13.16-.32.06-.47.1-.18.04-.37.05-.55.07-1.56 0-3.12-.02-4.68 0-.31.01-.71-.22-.96.2-.2-.03-.36.13-.57.12-.37-.02-.73 0-1.1-.01-.17-.01-.2.07-.2.2l-.71.02c-.6-.02-1.2.03-1.8.04-1.88 0-3.76.03-5.65-.04-1.2-.05-2.38.09-3.58.04-.12 0-.22.04-.28.15Zm8.76-4.93.01-.05c0-.15-.06-.3-.18-.35-.14-.08-.14.11-.19.18-.63.87-1.26 1.73-1.86 2.62a3.2 3.2 0 0 0-.63 1.38c-.04.3.22.71.44.62.27-.11.54-.26.75-.46.33-.32.6-.7.82-1.12a5.4 5.4 0 0 0 .84-2.82Z"/>
  <path fill="#3FABDB" d="M34.87 32.05c.07-.11.16-.15.28-.15 1.2.05 2.39-.09 3.58-.04 1.89.07 3.77.04 5.66.04.6 0 1.19-.06 1.79-.04-.11.11-.27.13-.4.2-.43.29-.61.74-.73 1.21-.08.33-.12.66-.17 1-.07.5.01 1-.1 1.49-.05.2-.22.19-.31.2-.21.04-.45.04-.66 0-.38-.1-.46-.43-.26-.91.23-.58.49-1.15.75-1.72.1-.2 0-.4.02-.6 0-.18-.17-.3-.35-.36-.65-.21-1.2-.08-1.72.5-.28.3-.43.65-.47 1.01-.08.72-.03 1.44.45 2.04.06.08.13.2.08.23-.1.07-.1.28-.31.24-.16-.03-.37-.08-.5.1.05-.54-.14-1.03-.26-1.52a4.22 4.22 0 0 1-.12-1.48c.02-.18.08-.44.29-.59.1-.07.12-.14-.03-.25-.4-.29-.87-.36-1.33-.46-.49-.1-.97 0-1.45-.06-.26-.03-.54.07-.8.12-.3.06-.6.15-.89.26-.38.14-.73.34-1 .62-.45.45-.55 1-.18 1.62.14.23.29.47.5.65.1.08.08.12-.02.21-.28.27-.87.09-1.1-.12a1.66 1.66 0 0 1-.55-.86c-.17-.76-.1-1.27.71-1.7.05-.04.1-.09.16-.1.17-.02.2-.17.21-.3 0-.12-.1-.23-.23-.28l-.54-.2ZM46.9 31.85c-.01-.14.02-.22.2-.21h1.09c.2.02.37-.14.58-.1.24-.43.64-.2.95-.2 1.56-.03 3.12-.01 4.68 0-.03.12-.15.05-.22.08-.5.2-.75.61-.91 1.1-.16.47-.29.95-.45 1.41-.2.6-.55 1.07-1.2 1.24-.1.02-.2 0-.3 0-.44-.06-.87.1-1.31.01-.31-.06-.6-.15-.85-.34-.64-.44-.88-1.13-1.08-1.83-.08-.25-.15-.5-.2-.76-.03-.12-.12-.11-.2-.14l-.79-.26Zm2.75.26c-.16-.03-.34.05-.52.12-.28.11-.46.49-.4.75a2 2 0 0 0 .38.8c.28.34.65.54 1.06.58.37.03.74-.08 1.1-.06.87.05 1.55-1.02 1.09-1.83-.1-.16-.16-.31-.33-.41-.44-.26-.87-.24-1.32-.08-.21.07-.4.28-.63.2-.13-.06-.25-.05-.43-.07ZM55.42 31.16c.04-.03.07-.09.12-.09.36-.01.73.02 1.08-.1v.59c-.2 0-.16-.21-.3-.28-.3-.14-.6-.09-.9-.12Z"/>
  <path fill="#FAFBFB" d="m57.96 28.48-.97-.01c-.48-.01-.93-.11-1.38-.24-1.4-.41-2.62-1.18-3.74-2.11-.53-.45-1-.95-1.5-1.44-.18-.17-.32-.36-.49-.54-.12-.13.02-.16.08-.17.18-.05.36 0 .53.1.58.3 1.14.64 1.74.9.36.17.73.3 1.12.39.33.08.6.02.91-.04.28-.04.55.08.79.2.55.26 1.09.54 1.6.89l.33.26c.04.04.13.07.1.14-.04.08-.13.06-.2.04-.2-.06-.4-.1-.6-.18-.56-.23-1.1-.52-1.67-.71-.6-.2-1.2-.4-1.83-.38-.08 0-.21-.05-.25.07-.02.1.02.21.1.28.23.19.44.39.7.53.66.38 1.32.77 2.05 1.03.45.17.91.32 1.39.4.56.09 1.12.1 1.67-.11h.1c.08-.13.21-.15.3-.05.1.12.01.28-.07.38-.2.26-.5.35-.8.37ZM59.77 25.63c.24-.58.55-1.13.67-1.73.1-.48.01-.99-.35-1.39l-.02-.02a.77.77 0 0 1-.2-.32c.13-.06.27-.15.43-.12.2.05.4-.14.6.04.17.14.26.27.27.5.06 1.1-.48 1.96-1.06 2.8-.07.1-.15.24-.34.24ZM48.04 24.36c-.02-.12.04-.22.12-.24.07-.02.17.01.25.08.33.32.6.69.8 1.09.17.34.4.65.48 1.03 0 .04.05.07.04.1-.04.14.1.35-.04.43-.11.07-.25-.1-.36-.2a3.8 3.8 0 0 1-1.29-2.3ZM54.44 25c-.16-.08-.35-.03-.52-.1-.12-.04-.25-.09-.27-.2-.02-.05.11-.15.2-.2.14-.1.29-.16.47-.13.16.02.33.02.5-.01.2-.04.75.27.85.47.03.06.03.11-.04.12a.44.44 0 0 0-.2.05 2.05 2.05 0 0 0-.99 0ZM59.2 25.92c.03.2-.03.2-.15.15a2.21 2.21 0 0 1-1.16-1.18c-.04-.1-.1-.23 0-.3.09-.06.2-.02.3.05.36.28.66.63.97.97.08.1-.01.24.04.3Z"/>
  <path fill="#030303" d="M51.55 30.7c-.05.1-.1.18-.21.07-.05-.05-.06-.1 0-.15.1-.06.16 0 .2.08Z"/>
  <path fill="#BF9769" d="M54.77 30.95H53.7c.35-.08.7-.08 1.06 0ZM54.44 25c.33-.07.66-.08 1 0h-1Z"/>
  <path fill="#030303" d="M32.63 25.34c-.19.1-.75.1-.92 0h.92ZM29.42 53.22c.01-1.03 1.09-2.17 2.08-2.2.4-.03.75.1 1.05.36.36.31.58.72.76 1.15.1.27.07.54-.03.81-.3.78-1.1 1.25-1.92 1.16-.34-.03-.68-.02-1-.12-.62-.18-.95-.59-.94-1.16Zm2.88-.2c-.35-.01-.53.09-.52.27 0 .17.44.7.6.72h.05c.16-.04.47-.42.45-.58-.01-.26-.22-.33-.42-.4l-.16-.02Z"/>
  <path fill="#BF9769" d="M44.75 60.82c-.84 0-1.63-.21-2.43-.35a4.48 4.48 0 0 0-2.54.13c-.1.04-.2.08-.28.14-.29.24-.59.28-.93.12-.4-.2-.74-.45-.88-.9-.16-.53.06-1.05.56-1.37.21-.14.45-.22.7-.28.09-.03.16.01.23.05.5.22 1.03.28 1.57.26.85-.03 1.68-.2 2.51-.33.3-.05.58 0 .87-.01.28 0 .56-.04.83.05.7.24 1 .79 1.16 1.45.03.13.02.27.06.39.1.26-.04.35-.24.44-.4.16-.8.22-1.19.21Z"/>
  <path fill="#FAFBFB" d="M44.52 63.05c-.01.69-.25 1.16-.78 1.47-.43.25-.88.11-1.1-.35a2.93 2.93 0 0 1-.2-1.05c-.03-.34-.06-.68-.06-1.02 0-.38.2-.66.52-.85.27-.17.55-.08.79.11.56.45.79 1.07.83 1.7ZM41.77 62.78c0 .32-.04.63-.18.92-.3.65-.8.8-1.37.78-.24 0-.37-.17-.4-.41a2.1 2.1 0 0 1 .06-.73c.12-.49.06-1.02.3-1.48.08-.15.14-.3.23-.44.32-.5.72-.48 1.02.03.19.31.28.66.32 1.02l.02.31Z"/>
  <path fill="#FBFCFC" d="M43.57 51.7a4.35 4.35 0 0 1 2.64-3.86c1.83-.88 3.7-.9 5.51.1.56.3 1.02.74 1.4 1.27.46.67.92 1.34 1.07 2.16a4.61 4.61 0 0 1-3.42 5.28c-.48.1-.96.13-1.45.09a2.4 2.4 0 0 0-.57.02c-1.92.3-3.74-.88-4.61-2.55a5.2 5.2 0 0 1-.57-2.5Zm2.75 1.14a.65.65 0 0 1 .48-.15c.27.02.53.05.8.06.33.01.46-.14.38-.46-.18-.7-.53-1.3-1.1-1.72-.54-.4-1.1-.42-1.66-.07a2.5 2.5 0 0 0-1.17 2c-.07.94.38 1.5 1.3 1.69.56.11 1.1.02 1.63-.15.42-.14.45-.33.11-.62-.25-.2-.5-.39-.77-.58Z"/>
  <path fill="#F5D81D" d="M43.63 27.12a5.4 5.4 0 0 1-.84 2.82c-.22.42-.49.8-.82 1.12-.21.2-.48.35-.75.46-.22.1-.48-.32-.44-.62.07-.53.35-.96.63-1.38.6-.9 1.23-1.75 1.86-2.62.05-.07.05-.26.2-.18.11.06.17.2.17.35v.05Z"/>
  <path fill="#3CA2A2" d="M49.65 32.11c.18.02.3.01.43.06.23.09.42-.12.62-.2.46-.15.9-.17 1.33.09.17.1.24.25.33.4.46.82-.22 1.89-1.08 1.84-.37-.02-.74.1-1.1.06a1.55 1.55 0 0 1-1.07-.58 2 2 0 0 1-.37-.8c-.07-.26.11-.64.39-.75.18-.07.36-.15.52-.12Z"/>
  <path fill="#FAFBFB" d="m32.3 53.01.16.03c.2.06.4.13.42.4.02.15-.3.53-.45.56h-.05c-.16-.02-.6-.54-.6-.71 0-.18.17-.28.52-.28Z"/>
  <path fill="#030303" d="m46.32 52.84.77.58c.34.3.31.48-.11.62-.53.17-1.07.26-1.63.15-.92-.19-1.37-.75-1.3-1.69a2.5 2.5 0 0 1 1.17-2 1.36 1.36 0 0 1 1.65.07c.58.43.93 1.02 1.1 1.72.09.32-.04.47-.37.46-.27-.01-.53-.04-.8-.06a.65.65 0 0 0-.48.15Z"/>
</svg>