<svg viewBox="0 0 80 80" xmlns="http://www.w3.org/2000/svg">
<rect width="100%" height="100%" fill="white"/>
<path d="M66 21.8488C65.8959 22.1215 65.9332 22.412 65.9067 22.6932C65.8045 23.7783 65.664 24.8568 65.4248 25.9199C65.2086 26.8802 65.0774 27.8541 64.9429 28.8279C64.5869 31.4045 64.3568 33.9936 64.1708 36.5876C63.9324 39.912 63.784 43.2416 63.5949 46.5688C63.4491 49.134 63.2892 51.6991 63.0197 54.2542C62.8182 56.1638 62.7329 58.0832 62.5089 59.9904C62.2933 61.8265 62.0466 63.6583 61.7622 65.4848C61.6193 66.402 61.4959 67.3149 61.5109 68.2521C61.5309 69.5065 61.3261 70.7335 60.7314 71.8588C60.0363 73.174 58.9369 73.8772 57.476 74.0297C56.9396 74.0857 56.4443 74.3157 55.9276 74.4564C54.2106 74.9242 52.4666 75.2366 50.7027 75.451C48.0142 75.7778 45.3113 75.8651 42.6092 75.9763C40.3156 76.0707 38.0363 75.866 35.7569 75.6676C33.5364 75.4743 31.3426 75.1155 29.1956 74.4963C28.0221 74.1579 26.8811 73.7304 25.7702 73.2184C25.5807 73.1311 25.4777 73.0181 25.4179 72.8137C24.2589 68.8507 23.3146 64.8357 22.5395 60.7785C22.1027 58.4926 21.5434 56.2339 21.0155 53.9684C20.3644 51.1743 19.7235 48.3779 19.2343 45.549C19.0059 44.2285 18.8192 42.9009 18.6705 41.5691C18.5982 40.9215 18.6457 40.2719 18.8527 39.6459C18.9033 39.4929 18.9445 39.3132 19.1648 39.3174C19.3114 39.4396 19.3833 39.6111 19.4251 39.7863C19.7071 40.9691 19.9833 42.1534 20.2555 43.3385C20.4753 44.2949 20.6666 45.2584 20.9069 46.2094C21.2696 47.6444 21.5996 49.0873 21.9678 50.521C22.5704 52.8675 23.2017 55.205 23.9021 57.5234C24.2933 58.8182 24.7139 60.1031 25.1407 61.3862C25.2143 61.6074 25.317 61.6721 25.5286 61.655C25.695 61.6415 25.8497 61.5489 26.047 61.5749C25.9914 61.6861 25.9398 61.7758 25.9002 61.8707C25.7217 62.2986 25.484 62.7092 25.7019 63.2088C25.8624 63.5769 26.0923 63.8868 26.3651 64.1665C26.6511 64.4596 26.9562 64.7335 27.2519 65.0169C27.2946 65.0578 27.3538 65.0978 27.3301 65.1695C27.305 65.2456 27.2336 65.2303 27.1749 65.2316C26.9345 65.237 26.6977 65.2009 26.4629 65.1562C26.4155 65.1472 26.3682 65.0974 26.3236 65.1403C26.2693 65.1926 26.317 65.2483 26.3323 65.3066C26.4286 65.6736 26.5226 66.0415 26.6083 66.4112C26.8887 67.6202 27.1054 68.8454 27.4964 70.0263C27.8424 71.0717 28.3168 72.0409 29.1519 72.7864C29.3983 73.0063 29.6552 73.2555 29.9674 73.3263C30.891 73.5359 31.8234 73.7125 32.7589 73.859C33.6318 73.9956 34.5099 74.1015 35.3892 74.1976C36.2967 74.2968 37.2061 74.3663 38.1152 74.4397C38.7357 74.4898 39.36 74.4899 39.9827 74.5123C40.448 74.5653 40.915 74.5546 41.3818 74.5505C42.1863 74.5506 42.9907 74.5507 43.7951 74.5508C44.2981 74.5568 44.8012 74.5688 45.3027 74.5126C46.3393 74.4725 47.3765 74.4436 48.4121 74.3856C48.7309 74.3678 49.0504 74.3549 49.3689 74.3316C50.2117 74.2699 51.0539 74.1988 51.896 74.1286C52.3938 74.0871 52.8928 74.0537 53.3883 73.9925C54.1156 73.9027 54.825 73.715 55.5209 73.4924C56.5601 73.1599 57.5675 72.7466 58.434 72.0524C58.7824 71.7733 59.0824 71.4469 59.2844 71.0398C59.3398 70.9282 59.4027 70.8449 59.1875 70.7963C58.9878 70.7513 58.7485 70.8161 58.5841 70.619C58.6751 70.5359 58.7904 70.4876 58.9098 70.4398C59.2777 70.2928 59.6506 70.1515 59.9506 69.8769C60.2368 69.615 60.4033 69.3077 60.2905 68.9007C60.2695 68.8249 60.2637 68.7446 60.2946 68.6681C60.6322 67.8324 60.8038 66.9636 60.8039 66.0604C60.8824 65.6299 60.8341 65.1965 60.8323 64.7642C60.8202 64.6973 60.794 64.6295 60.7982 64.5636C60.8378 63.9516 60.7356 63.3443 60.7434 62.7335C60.7484 62.3391 60.6882 61.9337 60.7585 61.5524C60.9419 60.5573 61.1217 59.5652 61.2271 58.5561C61.3251 57.6179 61.3912 56.6777 61.4666 55.7383C61.5101 55.1958 61.5474 54.6513 61.5948 54.1098C61.6739 53.2066 61.8461 52.312 61.9336 51.4093C62.0179 50.5384 62.0641 49.6624 62.0917 48.7875C62.123 47.7977 62.1659 46.8098 62.2474 45.8225C62.3046 45.1296 62.4153 44.4465 62.5217 43.7614C62.5618 43.5026 62.66 43.3051 62.87 43.1298C63.2303 42.829 63.3028 42.409 63.0641 41.9848C62.9449 41.773 62.8062 41.5804 62.6678 41.3852C62.0652 40.5352 62.1009 39.912 62.8159 39.2479C62.9779 39.0975 63.0389 38.9421 63.038 38.7254C63.0339 37.7088 62.9096 36.7012 62.8423 35.6895C62.7886 34.8847 62.6859 34.0803 62.7152 33.2703C62.7172 33.0874 62.7178 32.9045 62.7217 32.7216C62.7235 32.6406 62.6912 32.5373 62.8255 32.5273C62.983 32.5711 63.0649 32.5013 63.0841 32.346C63.0914 32.2867 63.0799 32.2148 63.1695 32.2225C63.3024 32.234 63.2948 32.1471 63.2943 32.0576C63.2935 31.9198 63.2967 31.7821 63.2982 31.6444C63.4707 31.6003 63.552 31.4515 63.6722 31.3424C63.9344 31.1045 64.0245 30.9561 63.9141 30.6334C63.9417 30.5241 63.9722 30.4155 63.9963 30.3054C64.0839 29.9049 64.3046 29.5446 64.2896 29.1094C64.2716 28.5881 64.3255 28.065 64.3516 27.5441C64.3638 27.2988 64.3822 27.0378 64.4537 26.7809C64.5466 26.4473 64.6522 26.101 64.6474 25.741C64.6369 24.9641 64.6722 24.1866 64.5973 23.4105C64.5672 23.0982 64.673 22.7753 64.6292 22.4764C64.5573 21.9855 64.5299 21.4933 64.498 21.0014C64.4862 20.8188 64.4262 20.8015 64.2718 20.7912C63.6828 20.7516 63.1012 20.8314 62.5246 20.9165C62.3309 20.9451 62.0638 20.8499 61.9296 21.1066C61.3767 21.1747 60.8235 21.2413 60.2707 21.3111C59.703 21.3828 59.1346 21.4557 58.567 21.5193C57.9556 21.5878 57.3428 21.6608 56.7271 21.7052C55.8905 21.7656 55.0619 21.9447 54.2253 21.9959C53.2418 22.056 52.2667 22.1904 51.286 22.2627C50.3398 22.3324 49.3935 22.3985 48.4479 22.4769C47.6637 22.5419 46.8782 22.5941 46.0924 22.636C45.4995 22.6676 44.9034 22.6507 44.3126 22.7022C44.0538 22.7247 43.7624 22.6465 43.5313 22.8472C43.3528 22.703 43.1209 22.7218 42.9191 22.6439C42.605 22.5227 42.2816 22.6391 41.9622 22.6548C41.8706 22.6593 41.7539 22.6523 41.848 22.5292C41.9689 22.3711 41.8674 22.3797 41.7632 22.3709C41.6509 22.3614 41.5384 22.3511 41.4258 22.3478C38.8172 22.271 36.2085 22.1976 33.5999 22.1182C31.6761 22.0596 29.7521 22.0021 27.8288 21.9284C25.7237 21.8478 23.62 21.7348 21.5185 21.5842C20.0056 21.4758 18.4941 21.3503 16.9858 21.1881C16.2893 21.1132 15.593 21.0359 14.8737 20.9572C15.0599 21.5737 15.5882 21.7825 16.1061 22.044C15.8826 22.1667 15.689 22.1654 15.5051 22.1875C15.3316 22.2083 15.2801 22.2679 15.3159 22.4466C15.4465 23.0987 15.5497 23.7568 15.6903 24.4066C15.8421 25.1079 16.0293 25.8014 16.4415 26.4037C16.8838 27.0501 17.4651 27.2477 18.2079 27.0217C18.6025 26.9016 18.9567 26.7022 19.2887 26.4636C19.4549 26.3442 19.6298 26.2688 19.8252 26.2166C21.6817 25.7212 23.5748 25.4495 25.4831 25.2815C27.8505 25.0731 30.2268 25.0254 32.5992 24.907C32.7057 24.9017 32.824 24.8598 32.9213 24.9492C32.4222 25.0217 31.9175 25.0676 31.4256 25.1741C30.9122 25.2852 30.3877 25.283 29.8763 25.3807C29.4316 25.4657 28.9809 25.4858 28.5339 25.5213C27.9369 25.5686 27.3433 25.6491 26.7481 25.7068C26.0373 25.7759 25.324 25.8377 24.6153 25.9429C23.9544 26.041 23.2923 26.1326 22.6336 26.245C22.0265 26.3485 21.4351 26.5352 20.8141 26.5717C20.5084 26.5896 20.2072 26.6684 19.9224 26.795C19.1231 27.1504 18.5052 27.706 18.1085 28.4972C17.9512 28.811 17.8566 29.1434 17.9458 29.5029C18.0742 30.0203 18.4641 30.2395 18.9225 30.3714C19.5001 30.5376 20.1131 30.4567 20.6938 30.634C21.0422 30.7405 21.4122 30.7734 21.769 30.8547C21.8531 30.8739 22.0242 30.8814 21.9232 31.064C21.8308 31.1087 21.7384 31.1532 21.6461 31.198C21.5818 31.2293 21.4682 31.2039 21.4713 31.3132C21.4734 31.3889 21.5701 31.3978 21.6226 31.4392C21.7199 31.5159 21.9332 31.5688 21.8888 31.6693C21.8408 31.7781 21.6508 31.68 21.531 31.6462C20.7541 31.4269 19.9811 31.1934 19.2035 30.9766C18.9023 30.8925 18.5931 30.8372 18.2866 30.774C18.201 30.7564 18.1001 30.752 18.0567 30.8468C18.013 30.9425 18.1212 30.9733 18.168 31.0248C18.3158 31.1879 18.5143 31.3004 18.6335 31.5004C18.4462 31.405 18.2369 31.4182 18.0462 31.3425C17.8541 31.2663 17.7851 31.3522 17.8241 31.5655C17.8613 31.7692 17.8807 31.9762 17.9203 32.1793C17.9979 32.5765 18.0138 32.9847 18.13 33.3748C18.1587 33.5791 18.1875 33.7833 18.2162 33.9875C18.2596 34.3296 18.303 34.6716 18.3464 35.0136C18.3245 35.1313 18.3863 35.2551 18.306 35.41C18.0629 34.8399 17.8782 34.284 17.7625 33.7066C17.4017 31.9051 17.0177 30.1102 16.366 28.3872C16.2837 28.1697 16.1935 27.9542 15.9941 27.7364C15.9976 28.3362 16.08 28.875 16.1796 29.4115C16.4321 30.7722 16.8943 32.078 17.2106 33.4221C17.4147 34.2894 17.5618 35.163 17.5276 36.0617C17.2975 35.5638 17.1408 35.0412 16.9872 34.5186C16.4166 32.5763 16.0532 30.5887 15.7325 28.5918C15.2734 25.732 14.9292 22.8465 14.1061 20.0619C13.8329 19.1375 14.0994 18.4879 14.7663 17.9291C15.5964 17.2335 16.5397 16.7804 17.6275 16.6821C17.7639 16.6697 17.9077 16.6763 18.0407 16.707C18.2029 16.7444 18.3599 16.8196 18.3846 17.0178C18.4083 17.2083 18.3744 17.3825 18.2086 17.5091C17.7531 17.8568 17.2168 17.9922 16.6743 18.1122C16.2773 18.2 15.8754 18.2701 15.4844 18.3798C14.9852 18.5199 14.9059 18.7907 15.2225 19.2113C15.5046 19.586 15.8359 19.8569 16.3175 19.9852C18.36 20.5295 20.4362 20.8403 22.5376 21.0112C25.3227 21.2377 28.1161 21.2274 30.9056 21.3288C33.8692 21.4365 36.834 21.4809 39.7989 21.5078C41.3495 21.5218 42.9016 21.4976 44.4469 21.3226C44.7376 21.2897 45.035 21.3425 45.3282 21.3022C45.5733 21.6488 45.8673 21.5038 46.1587 21.3865C46.3238 21.4549 46.4975 21.5096 46.6732 21.4764C47.0211 21.4107 47.3374 21.6349 47.6753 21.58C47.9122 21.5415 48.1737 21.5239 48.3232 21.2789C48.484 21.3621 48.6484 21.4163 48.834 21.4319C49.6537 21.5008 50.4717 21.3697 51.2913 21.4218C51.4643 21.4328 51.6258 21.496 51.8035 21.4842C52.5412 21.435 53.2771 21.3694 54.0099 21.2707C54.8028 21.164 55.6009 21.0852 56.3869 20.9401C57.3301 20.7661 58.2725 20.5793 59.1996 20.3242C60.2345 20.0395 61.2637 19.7384 62.259 19.3284C62.3412 19.2945 62.3886 19.2542 62.4151 19.1765C62.495 19.2224 62.5744 19.2233 62.6623 19.1928C62.8075 19.1426 62.9541 19.0924 63.1039 19.061C63.7571 18.9244 64.4099 18.7842 65.0666 18.6669C65.3578 18.6149 65.6098 18.4436 65.9058 18.4198C65.9912 18.6607 65.8864 18.9263 66 19.1637C66 20.0587 66 20.9537 66 21.8488ZM26.1277 72.5972C26.2811 71.9854 26.2445 71.4366 26.165 70.8896C26.0173 69.873 25.7032 68.9001 25.3901 67.9271C24.949 66.5562 24.4453 65.2026 24.2502 63.7632C24.2258 63.5824 24.1422 63.5995 24.0282 63.6655C23.9016 63.7388 23.828 63.8517 23.7875 63.9933C23.7182 64.2358 23.7349 64.4799 23.769 64.723C23.8592 65.3662 24.0594 65.9817 24.2401 66.6022C24.4671 67.3814 24.7451 68.1482 24.8387 68.9613C24.9873 70.2517 25.4543 71.424 26.1277 72.5972ZM21.7635 53.5568C21.7068 53.7281 21.7204 53.8898 21.7419 54.0522C21.8707 55.0243 22.0988 55.9784 22.2569 56.9448C22.4218 57.9538 22.7318 58.9328 22.8254 59.9573C22.8889 60.6525 22.951 61.3531 23.1739 62.023C23.2632 62.2915 23.3825 62.5427 23.601 62.7302C23.6434 62.7666 23.6883 62.8297 23.7568 62.7985C23.8149 62.772 23.793 62.7061 23.7958 62.658C23.8131 62.3607 23.8325 62.064 23.8192 61.765C23.7713 60.6905 23.5203 59.6551 23.2459 58.6231C22.8758 57.2311 22.4309 55.8589 22.2187 54.4256C22.1715 54.1074 21.9987 53.8082 21.7635 53.5568ZM27.8301 72.6492C27.8079 72.5345 27.7963 72.4581 27.7781 72.3834C27.5967 71.6356 27.4131 70.8883 27.2323 70.1403C26.8358 68.4999 26.4356 66.8605 25.7313 65.3184C25.582 64.9914 25.439 64.6598 25.2112 64.3331C25.2603 66.6994 26.9461 72.0987 27.8301 72.6492ZM32.6126 74.5227C33.1041 74.7034 33.5611 74.7971 34.0204 74.8688C35.934 75.1674 37.8654 75.2483 39.7961 75.3328C39.9987 75.3417 40.2028 75.3079 40.3937 75.1899C40.0028 74.947 33.1173 74.3432 32.6126 74.5227ZM49.4474 74.7262C48.7448 74.7567 48.0636 74.78 47.3832 74.8173C46.1639 74.884 44.941 74.9139 43.7348 75.1334C43.5209 75.1723 43.2959 75.2002 43.1213 75.3704C43.1925 75.4359 43.2635 75.402 43.3282 75.4023C43.8143 75.4045 44.295 75.3378 44.7777 75.289C45.8571 75.1801 46.943 75.2377 48.0247 75.1804C48.3882 75.1612 48.7516 75.1351 49.1023 75.026C49.2488 74.9805 49.3952 74.9269 49.4474 74.7262ZM63.4262 36.531C63.6753 35.2187 63.8121 33.8966 63.8168 32.5617C63.8174 32.4131 63.8106 32.2633 63.7905 32.1164C63.781 32.0473 63.7952 31.9256 63.6949 31.9282C63.6085 31.9305 63.6049 32.0379 63.5958 32.1169C63.487 33.0654 63.3505 34.0112 63.3028 34.9657C63.2765 35.4902 63.2836 36.0155 63.4262 36.531ZM20.9173 51.1607C21.0286 50.3515 20.492 47.6601 20.1662 47.3952C20.1431 47.591 20.1716 47.7801 20.1799 47.9704C20.2101 48.6631 20.4539 49.3208 20.4973 50.0113C20.5121 50.2466 20.5346 50.4837 20.5822 50.7139C20.6216 50.9039 20.6782 51.1053 20.9173 51.1607ZM24.8533 62.1414C24.8144 61.6695 24.6915 61.2302 24.4396 60.8329C24.403 60.7751 24.3624 60.6899 24.2896 60.7094C24.2089 60.7311 24.2284 60.8239 24.2387 60.8912C24.3072 61.3399 24.4233 61.7759 24.6046 62.1914C24.646 62.2861 24.6888 62.4491 24.8056 62.4186C24.9079 62.3919 24.8298 62.2341 24.8533 62.1414ZM19.4134 44.7435C19.5925 44.458 19.749 44.2089 19.6541 43.8895C19.6112 43.745 19.5148 43.6316 19.3534 43.6611C19.2038 43.6883 19.1649 43.8203 19.162 43.9629C19.1564 44.2358 19.2698 44.4691 19.4134 44.7435ZM41.3956 75.0476C41.2377 75.0877 41.0314 75.0313 40.9717 75.2558C40.9475 75.3466 41.2964 75.6214 41.4192 75.5937C41.5861 75.556 41.7279 75.4255 41.7389 75.2614C41.7544 75.0297 41.5325 75.0895 41.3956 75.0476Z" fill="#030303"/>
<path d="M56.4253 2C56.5139 2.15414 56.6936 2.1164 56.8249 2.17885C57.4448 2.47376 58.0152 2.84237 58.5589 3.25836C58.7881 3.43371 59.0398 3.58798 59.2372 3.79482C59.592 4.16647 59.9954 4.48241 60.329 4.88421C60.6345 5.2522 60.971 5.60321 61.2605 5.98434C61.8588 6.77223 62.399 7.6035 62.8784 8.47248C63.3723 9.36775 63.8083 10.2923 64.2471 11.2163C64.9488 12.6944 65.315 14.2649 65.591 15.8668C65.7369 16.7134 65.8887 17.5579 65.906 18.4199C65.6098 18.4437 65.3578 18.615 65.0666 18.667C64.4099 18.7843 63.7571 18.9244 63.1039 19.061C62.9541 19.0924 62.8075 19.1426 62.6624 19.1928C62.5744 19.2233 62.495 19.2224 62.4151 19.1765C62.4459 19.1047 62.4635 19.0224 62.5098 18.963C62.6465 18.7873 62.664 18.5949 62.6266 18.3847C62.5307 17.8456 62.1923 17.469 61.8044 17.1275C61.7447 17.0749 61.6734 17.042 61.6778 16.9477C61.6778 16.7929 61.6777 16.6381 61.6777 16.4832C61.7514 16.3907 61.8543 16.429 61.9447 16.428C62.1374 16.4261 62.277 16.3161 62.3895 16.1857C62.6607 15.8714 62.5654 15.5444 62.3912 15.2211C62.3005 15.0529 62.183 14.8929 62.1528 14.7003C62.0208 13.857 61.7727 13.042 61.5114 12.2362C61.2908 11.5561 61.0591 10.8761 60.7571 10.2224C60.4393 9.53449 60.1239 8.84496 59.6732 8.23774C59.4351 7.91676 59.2608 7.50681 58.8176 7.38428C58.7902 7.37671 58.7656 7.31479 58.7609 7.27556C58.7468 7.15756 58.697 7.04575 58.6797 6.93477C58.556 6.1456 58.3024 5.39873 57.9692 4.68085C57.8079 4.33329 57.598 3.9986 57.2431 3.81451C56.6792 3.52195 56.2497 3.09817 55.9478 2.53763C55.8927 2.3384 55.8628 2.1446 56.0611 2C56.1825 2 56.3039 2 56.4253 2ZM59.9121 5.46923C59.9309 5.3629 59.8868 5.25627 59.832 5.15821C59.4576 4.48896 58.8895 4.03395 58.2226 3.69477C58.1671 3.66657 58.0778 3.5911 58.0112 3.67447C57.9473 3.75449 58 3.84063 58.0408 3.91739C58.2101 4.23532 58.4519 4.49642 58.6863 4.76402C58.974 5.09263 59.2365 5.44582 59.6411 5.64758C59.8734 5.76343 59.9106 5.74726 59.9121 5.46923Z" fill="#D6AD2F"/>
<path d="M18.3465 35.0136C18.3031 34.6716 18.2597 34.3296 18.2164 33.9877C18.2213 33.8451 18.2304 33.7023 18.2295 33.5597C18.229 33.4848 18.2704 33.3768 18.1301 33.3748C18.0139 32.9847 17.998 32.5765 17.9205 32.1793C17.8808 31.9762 17.8614 31.7692 17.8242 31.5655C17.7852 31.3522 17.8543 31.2663 18.0463 31.3425C18.237 31.4182 18.4463 31.405 18.6336 31.5004C18.5144 31.3003 18.316 31.1878 18.1681 31.0248C18.1214 30.9733 18.0132 30.9425 18.0569 30.8468C18.1002 30.752 18.2012 30.7564 18.2867 30.774C18.5933 30.8372 18.9024 30.8925 19.2036 30.9765C19.9812 31.1934 20.7542 31.4268 21.5312 31.6462C21.6509 31.68 21.841 31.778 21.889 31.6693C21.9333 31.5688 21.72 31.5159 21.6227 31.4392C21.5702 31.3978 21.4735 31.3889 21.4714 31.3132C21.4683 31.2039 21.582 31.2293 21.6463 31.198C21.7385 31.1531 21.8309 31.1086 21.9233 31.0639C22.2442 31.0634 22.565 31.0618 22.8859 31.0633C22.9535 31.0636 23.0679 31.0369 23.0798 31.0938C23.1292 31.33 23.3315 31.2782 23.4692 31.3089C23.7362 31.3684 24.0484 31.2467 24.2582 31.527C24.2687 31.5411 24.3079 31.5321 24.3335 31.5361C24.6004 31.5778 24.8575 31.6916 25.1368 31.6437C25.1906 31.6344 25.2444 31.6573 25.2725 31.7052C25.3891 31.9039 25.5805 31.9045 25.7726 31.9047C26.2842 31.905 26.7958 31.9041 27.3075 31.9056C27.376 31.9058 27.4783 31.8903 27.5075 31.9278C27.7029 32.1793 27.9761 32.1011 28.2261 32.1225C28.313 32.1732 28.3916 32.2183 28.5055 32.2231C28.9534 32.2422 29.404 32.2596 29.8465 32.3258C30.4657 32.4184 31.0735 32.5955 31.7087 32.5524C31.5288 32.6818 31.3908 32.8488 31.3209 33.0595C31.2686 33.2173 31.1611 33.3369 31.0308 33.3907C30.8172 33.4789 30.6368 33.6173 30.4372 33.7249C30.1816 33.8627 29.932 34.0182 29.7454 34.2456C29.655 34.3555 29.6072 34.5014 29.4818 34.5859C29.4171 34.6871 29.3236 34.7731 29.3183 34.9054C29.3021 34.9237 29.2859 34.942 29.2698 34.9603C29.1399 35.3574 29.0806 35.7674 29.1749 36.1747C29.3436 36.9035 29.7997 37.4601 30.3322 37.9446C30.5834 38.1731 30.8814 38.3548 31.177 38.5322C31.728 38.8628 32.2379 39.2616 32.8134 39.5522C33.5324 39.9152 34.2571 40.2632 35.0245 40.5154C36.1685 40.8914 37.3424 41.1335 38.5293 41.3062C38.7082 41.3323 38.8936 41.3982 39.079 41.3719C39.3342 41.3358 39.5965 41.3844 39.8338 41.4173C40.3352 41.4867 40.839 41.4621 41.3387 41.5275C41.6163 41.5639 41.906 41.4943 42.1905 41.492C42.7871 41.4873 43.3842 41.474 43.9797 41.5359C44.5736 41.5976 45.1595 41.3618 45.7563 41.4817C45.8037 41.4912 45.8594 41.4739 45.908 41.4584C46.228 41.3564 46.5684 41.3445 46.8928 41.3093C47.1998 41.2759 47.5193 41.2467 47.8213 41.1989C48.3118 41.1213 48.8044 41.0198 49.2942 40.9417C49.9115 40.8434 50.5238 40.716 51.1234 40.5613C51.9481 40.3485 52.7647 40.0903 53.5577 39.7627C54.4735 39.3844 55.3295 38.8999 56.1519 38.3504C56.6252 38.0342 57.0808 37.6954 57.5192 37.3276C57.8164 37.0782 58.1154 36.8282 58.4191 36.5876C58.6168 36.4311 58.7564 36.2202 58.9509 36.08C59.3464 35.795 59.6566 35.4183 60.0335 35.1156C60.1263 35.041 60.1765 34.9049 60.2749 34.8461C60.6288 34.6344 60.8801 34.3072 61.1829 34.0397C61.3949 33.8524 61.627 33.6899 61.8291 33.4957C62.0455 33.2877 62.2933 33.1199 62.5051 32.909C62.532 32.8822 62.5218 32.8145 62.5835 32.8253C62.6433 32.8358 62.66 32.8859 62.6699 32.9409C62.6895 33.0501 62.6324 33.1702 62.7153 33.2702C62.686 34.0802 62.7888 34.8847 62.8424 35.6895C62.9098 36.7012 63.034 37.7088 63.0381 38.7254C63.039 38.9421 62.978 39.0975 62.816 39.2479C62.101 39.912 62.0653 40.5352 62.6679 41.3852C62.8063 41.5804 62.945 41.7729 63.0642 41.9848C63.303 42.409 63.2305 42.829 62.8702 43.1298C62.6602 43.3051 62.562 43.5026 62.5218 43.7614C62.4154 44.4465 62.3047 45.1296 62.2475 45.8225C62.166 46.8098 62.1231 47.7977 62.0918 48.7875C62.0642 49.6624 62.0181 50.5384 61.9337 51.4093C61.8462 52.312 61.674 53.2066 61.5949 54.1098C61.5475 54.6512 61.5102 55.1958 61.4667 55.7383C61.3913 56.6777 61.3252 57.6178 61.2272 58.5561C61.1218 59.5652 60.9421 60.5573 60.7586 61.5524C60.6883 61.9337 60.7485 62.3391 60.7435 62.7335C60.7357 63.3443 60.838 63.9516 60.7983 64.5636C60.7941 64.6294 60.8203 64.6973 60.8324 64.7642C60.7648 65.195 60.8254 65.6286 60.8041 66.0604C60.8039 66.9635 60.6324 67.8324 60.2947 68.6681C60.2638 68.7446 60.2696 68.8249 60.2907 68.9007C60.4035 69.3077 60.2369 69.615 59.9507 69.8769C59.6507 70.1515 59.2778 70.2927 58.9099 70.4398C58.7905 70.4875 58.6752 70.5359 58.5842 70.619C58.7486 70.8161 58.9879 70.7512 59.1876 70.7963C59.4028 70.8449 59.3399 70.9282 59.2845 71.0398C59.0825 71.4469 58.7825 71.7733 58.4341 72.0524C57.5677 72.7466 56.5603 73.1598 55.521 73.4924C54.8251 73.715 54.1157 73.9027 53.3884 73.9925C52.8929 74.0537 52.3939 74.0871 51.8961 74.1286C51.054 74.1988 50.2118 74.2698 49.3691 74.3315C49.0506 74.3549 48.731 74.3678 48.4122 74.3856C47.3766 74.4436 46.3394 74.4725 45.3032 74.5125C44.9498 74.5092 44.5957 74.4983 44.2421 74.5063C44.0937 74.5096 43.9347 74.445 43.7953 74.5508C42.9908 74.5507 42.1864 74.5506 41.382 74.5505C41.3183 74.4579 41.2239 74.5054 41.1453 74.5049C40.7578 74.5026 40.3703 74.5089 39.9828 74.5123C39.3602 74.4898 38.7358 74.4898 38.1153 74.4397C37.2063 74.3663 36.2968 74.2968 35.3893 74.1976C34.51 74.1014 33.632 73.9956 32.759 73.859C31.8235 73.7125 30.8911 73.5359 29.9676 73.3263C29.6553 73.2555 29.3984 73.0063 29.1521 72.7864C28.3169 72.0409 27.8426 71.0717 27.4965 70.0263C27.1056 68.8454 26.8889 67.6202 26.6085 66.4112C26.5227 66.0415 26.4287 65.6736 26.3324 65.3066C26.3171 65.2483 26.2694 65.1926 26.3238 65.1403C26.3684 65.0973 26.4156 65.1472 26.463 65.1562C26.6979 65.2009 26.9347 65.237 27.175 65.2316C27.2337 65.2303 27.3052 65.2455 27.3303 65.1695C27.3539 65.0978 27.2947 65.0578 27.252 65.0169C26.9563 64.7335 26.6512 64.4596 26.3652 64.1664C26.0924 63.8868 25.8625 63.5769 25.702 63.2088C25.4841 62.7091 25.7218 62.2986 25.9004 61.8706C25.9399 61.7758 25.9915 61.6861 26.0472 61.5749C25.8498 61.5489 25.6951 61.6415 25.5287 61.6549C25.3171 61.6721 25.2144 61.6074 25.1408 61.3862C24.714 60.1031 24.2934 58.8182 23.9022 57.5234C23.2018 55.205 22.5705 52.8674 21.968 50.521C21.5998 49.0872 21.2697 47.6444 20.907 46.2094C20.6667 45.2584 20.4754 44.2949 20.2557 43.3385C19.9834 42.1533 19.7073 40.9691 19.4252 39.7863C19.3835 39.6111 19.3115 39.4395 19.165 39.3173C18.9737 39.2064 19.096 39.0218 19.0648 38.8735C19.0443 38.7765 19.1192 38.6301 18.9228 38.639C18.8489 38.6423 18.8518 38.5732 18.8568 38.5236C18.8747 38.3466 18.8099 38.178 18.8071 38.0053C18.8042 37.8271 18.8123 37.656 18.6443 37.5398C18.597 37.507 18.6039 37.4491 18.5939 37.3977C18.4586 36.7021 18.4932 35.9981 18.4932 35.2961C18.4931 35.1685 18.4903 35.0577 18.3465 35.0136ZM36.8053 67.6645C37.1815 67.6645 37.5577 67.6645 37.9339 67.6645C37.7773 67.5003 37.5885 67.5642 37.4146 67.5424C36.8455 67.471 36.2752 67.4085 35.7061 67.3364C35.2314 67.2762 34.7579 67.2056 34.2835 67.1429C33.953 67.0992 33.636 66.9446 33.3138 66.9299C32.5667 66.8959 31.8711 66.6693 31.1659 66.4631C30.5021 66.269 29.8474 66.0379 29.1601 65.9345C28.9855 65.9082 28.8129 65.9105 28.6509 65.9879C28.441 66.0882 28.4131 66.2833 28.4433 66.4806C28.4742 66.6826 28.6495 66.591 28.762 66.5969C28.9749 66.6081 29.1906 66.6353 29.3982 66.638C30.105 66.6472 30.7828 66.8144 31.465 66.9567C32.2525 67.1209 33.045 67.2584 33.8318 67.4287C34.4862 67.5702 35.1582 67.6677 35.8354 67.6646C36.1587 67.717 36.482 67.7093 36.8053 67.6645ZM30.2019 48.9073C30.1867 48.9135 30.1715 48.9198 30.1564 48.926C30.1398 49.1669 29.892 49.2332 29.7898 49.4148C29.7506 49.4845 29.7369 49.6507 29.5753 49.6033C29.4472 49.575 29.3585 49.6541 29.2768 49.7289C29.0171 49.9668 28.8391 50.2636 28.6864 50.5799C28.5156 50.9338 28.5255 51.3198 28.4607 51.6941C28.3632 52.2575 28.3477 52.819 28.4388 53.377C28.6546 54.6996 29.3241 55.781 30.3004 56.6517C30.7946 57.0924 31.3635 57.4455 31.9897 57.7063C32.64 57.9772 33.297 58.1591 33.9986 58.1775C34.307 58.2509 34.6154 58.2566 34.9237 58.1768C35.18 58.1587 35.442 58.1691 35.6915 58.1177C36.7369 57.9025 37.7019 57.4996 38.514 56.7805C39.0467 56.3087 39.5032 55.7742 39.8328 55.1296C40.1918 54.4276 40.4004 53.6852 40.5025 52.907C40.5754 52.5948 40.5764 52.2826 40.5022 51.9705C40.478 51.817 40.4582 51.6626 40.4288 51.5102C40.1612 50.1204 39.3534 49.0963 38.2506 48.2926C37.2483 47.5621 36.1122 47.1873 34.8832 47.0597C33.6253 46.9292 32.4335 47.0885 31.3465 47.7761C30.8851 48.0681 30.456 48.4055 30.1975 48.9132L30.2019 48.9073ZM41.4657 55.8617C40.855 55.829 40.3501 55.9748 39.9101 56.4715C39.4215 57.023 38.7756 57.4182 38.2524 57.9444C37.5856 58.6151 37.039 59.3364 37.2199 60.3809C37.2524 60.5683 37.3008 60.6732 37.5021 60.7155C37.755 60.7687 38.0155 60.813 38.2456 60.9499C38.6902 61.2143 38.8922 61.6451 38.985 62.1242C39.0721 62.5738 39.0945 63.0359 39.1622 63.4899C39.2637 64.1701 39.3818 64.8368 40.0636 65.2232C40.3502 65.3856 40.5647 65.4482 40.708 65.2468C41.0932 64.7059 41.6271 64.7083 42.18 64.8212C42.5991 64.9068 43.0036 65.065 43.4224 65.1531C44.3209 65.3422 44.8498 64.7098 44.721 63.8385C44.5864 62.927 44.6561 62.4044 45.493 61.7771C45.8117 61.5383 46.1555 61.3324 46.4955 61.1242C47.0686 60.773 47.0996 60.6933 46.9054 60.0599C46.582 59.005 45.9743 58.1394 45.1715 57.41C44.118 56.4528 42.8911 55.9059 41.4657 55.8617ZM49.2315 57.7487C49.6028 57.8028 50.0425 57.7013 50.4695 57.5854C52.2118 57.1129 53.5622 56.1104 54.4241 54.4859C54.7565 53.8593 54.9347 53.1831 54.9698 52.4694C55.0055 51.7435 54.8208 51.067 54.5841 50.3886C54.0518 48.8631 53.049 47.7773 51.6319 47.0738C50.5766 46.5499 49.4574 46.3322 48.2753 46.3736C47.4157 46.4037 46.6034 46.5539 45.8691 47.0181C43.9027 48.2613 42.4872 49.8374 42.628 52.3951C42.6869 53.4651 43.0899 54.3883 43.7397 55.1834C44.3305 55.9063 45.0677 56.4785 45.9144 56.9025C46.9388 57.4155 47.9937 57.7713 49.2315 57.7487Z" fill="#008FD0"/>
<path d="M61.6775 16.9477C61.6731 17.0419 61.7444 17.0749 61.8042 17.1275C62.1921 17.469 62.5305 17.8456 62.6264 18.3846C62.6638 18.5949 62.6463 18.7873 62.5096 18.963C62.4633 19.0224 62.4456 19.1047 62.4149 19.1765C62.3884 19.2542 62.341 19.2945 62.2588 19.3284C61.2635 19.7384 60.2343 20.0395 59.1994 20.3242C58.2723 20.5793 57.3299 20.7661 56.3867 20.9401C55.6007 21.0852 54.8026 21.164 54.0097 21.2707C53.2769 21.3694 52.541 21.435 51.8033 21.4842C51.6256 21.496 51.4641 21.4328 51.2911 21.4218C50.4715 21.3697 49.6535 21.5008 48.8339 21.4319C48.6482 21.4163 48.4838 21.3622 48.323 21.2789C47.9991 21.1558 47.9423 20.8013 48.1753 20.552C48.6133 20.0835 49.1356 19.7582 49.7242 19.5287C49.9767 19.4303 50.2397 19.368 50.4919 19.2616C50.7953 19.1337 51.0502 18.9624 51.2713 18.7214C51.7009 18.2532 52.1699 17.8264 52.6498 17.4119C52.6996 17.3689 52.7618 17.3293 52.7735 17.2463C52.6696 17.2086 52.5781 17.2409 52.5023 17.288C52.0669 17.5586 51.6319 17.8304 51.2038 18.1127C50.6864 18.4537 50.1714 18.7988 49.665 19.1561C49.4755 19.2898 49.2868 19.4281 49.1036 19.5723C48.9023 19.7307 48.6118 19.6689 48.3825 19.606C48.2561 19.5714 48.1125 19.5749 47.9875 19.4965C47.5661 19.232 47.5206 18.7236 47.706 18.241C47.9705 17.5527 48.3655 16.9277 48.8366 16.364C49.1438 15.9964 49.4485 15.6165 49.8455 15.3379C50.0286 15.2095 50.2327 15.1154 50.4476 15.0455C50.5336 15.0175 50.6019 14.9808 50.6827 15.0583C50.7749 15.1466 50.6966 15.2091 50.6659 15.2822C50.4174 15.8746 50.0701 16.4092 49.7242 16.9451C49.6762 17.0194 49.6031 17.125 49.6675 17.1973C49.7174 17.2534 49.8273 17.2183 49.9072 17.1686C50.1673 17.0067 50.4365 16.8862 50.5453 16.534C50.6508 16.1922 50.8186 15.8546 51.1311 15.6331C51.7288 15.2094 52.4477 15.2962 53.0237 15.8507C53.188 16.0088 53.3305 16.1862 53.4788 16.4271C53.5799 15.7177 53.8401 15.4949 54.4845 15.3753C54.5609 15.3611 54.6406 15.3683 54.6998 15.3047C54.9636 15.3047 55.2274 15.3047 55.4913 15.3047C55.5666 15.2591 55.5364 15.2397 55.4746 15.215C55.3129 15.1504 55.1471 15.0922 54.9942 15.0099C54.7588 14.8831 54.7417 14.7684 54.9391 14.5948C55.0365 14.5092 55.1152 14.4166 55.1847 14.3099C55.2177 14.2594 55.2776 14.2085 55.2513 14.1518C55.2155 14.0749 55.1281 14.1114 55.0639 14.1111C54.8324 14.11 54.6237 14.2091 54.4133 14.2867C53.999 14.4395 53.5763 14.5692 53.1461 14.6517C52.8719 14.7043 52.5735 14.7416 52.299 14.6131C52.1727 14.5539 52.0727 14.6597 51.9867 14.6873C51.5927 14.8134 51.1967 14.8322 50.8009 14.7799C50.558 14.7478 50.3888 14.3044 50.4748 14.0253C50.7324 13.1894 51.2199 12.4745 51.5856 11.6972C51.9629 10.895 52.3719 10.1095 52.7521 9.30942C53.0769 8.62606 53.4166 7.94859 53.7073 7.25046C53.9763 6.60471 54.2509 5.96116 54.4744 5.29382C54.6616 4.73476 54.8216 4.16811 55.0045 3.60842C55.0395 3.50145 55.0402 3.38647 55.0564 3.27867C55.1101 2.92133 55.4036 2.81584 55.6461 2.67109C55.7322 2.61967 55.8089 2.48571 55.9477 2.53762C56.2495 3.09815 56.679 3.52193 57.2429 3.81449C57.5978 3.99859 57.8076 4.33327 57.969 4.68084C58.3022 5.39872 58.5558 6.14559 58.6794 6.93476C58.6968 7.04574 58.7466 7.15755 58.7607 7.27555C58.7654 7.31477 58.79 7.37669 58.8174 7.38427C59.2606 7.5068 59.4348 7.91675 59.673 8.23772C60.1236 8.84495 60.4391 9.53447 60.7569 10.2224C61.0589 10.876 61.2906 11.5561 61.5112 12.2362C61.7724 13.042 62.0206 13.857 62.1526 14.7003C62.1827 14.8929 62.3003 15.0529 62.3909 15.2211C62.5652 15.5444 62.6605 15.8713 62.3892 16.1857C62.2767 16.316 62.1371 16.4261 61.9445 16.428C61.854 16.429 61.7511 16.3907 61.6775 16.4832C61.1559 16.3741 60.6401 16.2468 60.2147 15.8957C59.6558 15.4344 59.3934 14.8193 60.015 14.1903C60.0827 14.1218 60.1613 14.0524 60.1315 13.9462C60.0434 13.6325 60.0318 13.3002 59.9086 12.9961C59.8206 12.7788 59.7445 12.7805 59.5502 12.9251C59.4018 13.0357 59.2794 13.1992 59.0706 13.2163C59.0035 13.2218 58.9008 13.1632 58.8765 13.2803C58.8554 13.3814 58.9548 13.3969 59.0127 13.445C59.1058 13.5224 59.1926 13.6095 59.272 13.7015C59.517 13.9855 59.5206 14.3528 59.243 14.5884C58.9809 14.8109 58.6777 15.0098 58.3497 15.0917C57.7032 15.2532 57.0504 15.417 56.3721 15.3753C56.3349 15.373 56.2686 15.3367 56.251 15.4128C56.2823 15.4743 56.3387 15.4653 56.3876 15.4781C56.7115 15.5624 57.0215 15.6791 57.2645 15.9233C57.4335 16.0931 57.4542 16.4176 57.2959 16.451C57.0396 16.5051 56.8605 16.7061 56.6082 16.765C56.5204 16.7856 56.3115 16.8099 56.356 16.9338C56.4207 17.1141 56.5312 16.9035 56.6274 16.8917C56.9416 16.853 57.2543 16.7894 57.5625 16.7143C58.0682 16.591 58.5766 16.5386 59.0876 16.6493C59.2405 16.6824 59.4284 16.7556 59.437 16.9508C59.4513 17.2767 59.5113 17.6111 59.3876 17.9286C59.0743 18.733 58.3833 19.1093 57.6477 19.3555C57.072 19.5481 56.4792 19.7192 55.8591 19.778C55.4567 19.8162 55.0511 19.922 54.6482 19.9396C54.2042 19.959 53.7693 20.04 53.3276 20.0687C52.9015 20.0963 52.4765 20.1612 52.0542 20.2569C51.5223 20.3774 50.9677 20.3891 50.4474 20.579C50.3353 20.6198 50.3334 20.6144 50.4294 20.7394C50.7639 20.7396 51.0983 20.7399 51.4327 20.7401C51.6034 20.7237 51.7738 20.7017 51.9449 20.6918C52.4573 20.662 52.9632 20.5889 53.4645 20.4782C53.9053 20.3808 54.3443 20.2693 54.7896 20.1994C55.4465 20.0962 56.1136 20.0538 56.7665 19.9316C57.5544 19.784 58.3521 19.66 59.0632 19.2288C59.5449 18.9368 59.9202 18.562 60.1737 18.0575C60.2124 17.9806 60.2293 17.9256 60.1567 17.8531C59.9683 17.6647 59.9083 17.3964 59.775 17.172C59.6722 16.9991 59.6609 16.7451 59.7779 16.5602C59.8841 16.3921 60.0983 16.4069 60.2747 16.4306C60.6241 16.4776 60.9521 16.5966 61.267 16.7628C61.398 16.832 61.503 16.9743 61.6775 16.9477ZM59.3706 9.39662C59.1608 9.80059 58.9699 10.1487 58.6954 10.4612C58.4337 10.7593 58.1667 11.0411 57.873 11.3063C57.363 11.7667 56.8566 12.2342 56.3879 12.7362C56.2365 12.8984 56.039 13.0696 56.0024 13.3288C55.9947 13.3837 55.9316 13.4288 55.9967 13.4903C56.0713 13.5608 56.0977 13.4826 56.143 13.4519C56.3656 13.3012 56.5863 13.1473 56.8135 13.0038C57.5995 12.5076 58.3773 12.0083 58.9953 11.2863C59.4677 10.7344 59.6654 10.1524 59.3706 9.39662ZM55.5246 7.22199C55.5379 7.17324 55.505 7.13523 55.4659 7.12503C55.3953 7.10659 55.3539 7.17173 55.323 7.21672C55.1952 7.40249 55.0688 7.59012 54.9556 7.78517C54.5406 8.50008 54.1965 9.25107 53.9175 10.0287C53.8711 10.158 53.66 10.3675 53.833 10.4502C54.002 10.5311 54.0826 10.2525 54.1858 10.1212C54.5278 9.68614 54.7399 9.16844 55.0489 8.71C55.3471 8.2675 55.4711 7.75341 55.5246 7.22199ZM57.0313 8.99248C57.151 8.96971 57.1639 8.85054 57.2409 8.79792C57.679 8.49844 58.0255 8.11584 58.2312 7.61971C58.3334 7.37326 58.2968 7.0153 58.1098 6.85417C58.0003 6.75986 57.8662 6.64582 57.7372 6.63779C57.6127 6.63003 57.6064 6.82795 57.5862 6.93122C57.5019 7.36126 57.3361 7.76346 57.212 8.17948C57.1338 8.44143 56.9933 8.69604 57.0313 8.99248ZM51.3122 18.888C51.4743 18.9786 51.604 18.9835 51.7068 18.9317C52.3896 18.5874 53.0457 18.1985 53.627 17.69C52.8111 17.9821 52.013 18.3046 51.3122 18.888ZM55.2981 17.2851C55.253 17.2136 55.199 17.2244 55.1498 17.2141C54.8735 17.156 54.6295 17.3254 54.3614 17.3261C54.3151 17.3263 54.2482 17.3546 54.2669 17.417C54.2877 17.4868 54.3152 17.5973 54.4068 17.5772C54.7101 17.5109 55.0446 17.5261 55.2981 17.2851ZM54.4172 13.2315C54.2272 13.286 54.0722 13.4027 53.9173 13.5173C53.8552 13.5632 53.7791 13.6355 53.8412 13.7107C53.9011 13.7833 53.9817 13.8734 54.1022 13.831C54.3315 13.7503 54.4637 13.4977 54.4172 13.2315Z" fill="#F5D81D"/>
<path d="M34.2053 14.6676C37.0047 14.6237 39.804 14.5698 42.5999 14.4159C43.7332 14.3535 44.8648 14.2581 45.997 14.1753C46.251 14.1567 46.5224 14.3961 46.6322 14.7468C46.7136 15.0071 46.6319 15.219 46.3732 15.364C45.9452 15.6038 45.4684 15.6467 44.9939 15.6881C43.599 15.8098 42.2043 15.6803 40.8095 15.6762C40.057 15.6739 39.3018 15.7627 38.5529 15.6167C37.9075 15.4909 37.265 15.3457 36.6158 15.2452C36.0413 15.1563 35.4639 15.1404 35.0348 15.6547C34.9639 15.7396 34.8986 15.7039 34.8295 15.6739C33.4692 15.0832 32.0486 15.0882 30.6144 15.2403C29.3223 15.3773 28.0496 15.675 26.7531 15.7608C24.4671 15.9121 22.2611 16.4621 20.0608 17.055C19.9024 17.0977 19.7399 17.1312 19.5772 17.1496C19.4291 17.1665 19.3794 17.0936 19.4708 16.9626C19.5656 16.8267 19.6746 16.7008 19.767 16.5634C19.8967 16.3703 20.0528 16.1871 19.9765 15.9181C19.9386 15.7844 20.0812 15.8238 20.1311 15.8131C21.189 15.5873 22.2467 15.3618 23.3094 15.1588C25.0566 14.8251 26.8208 14.7986 28.5899 14.7837C30.4619 14.7679 32.3335 14.7081 34.2053 14.6676Z" fill="#030303"/>
<path d="M46.1587 21.3866C45.8674 21.5038 45.5733 21.6488 45.3282 21.3023C45.2328 21.1683 45.1455 21.0303 45.2867 20.876C45.5714 20.565 45.7241 20.1374 46.0967 19.9082C46.2469 19.8158 46.3924 19.6853 46.6105 19.7594C46.9359 19.87 47.0108 20.2677 46.8981 20.6446C46.7829 21.0298 46.4889 21.2248 46.1587 21.3866Z" fill="#F5D81D"/>
<path d="M55.4914 15.3047C55.2276 15.3047 54.9638 15.3047 54.7 15.3047C54.9638 15.237 55.2276 15.259 55.4914 15.3047Z" fill="#3CA2A2"/>
<path d="M62.7153 33.2702C62.6324 33.1701 62.6895 33.0501 62.6698 32.9409C62.66 32.8858 62.6433 32.8357 62.5834 32.8253C62.5217 32.8145 62.5319 32.8822 62.505 32.909C62.2932 33.1199 62.0455 33.2877 61.829 33.4957C61.627 33.6899 61.3949 33.8524 61.1829 34.0396C60.8801 34.3072 60.6287 34.6344 60.2748 34.8461C60.1764 34.9049 60.1262 35.041 60.0334 35.1156C59.6566 35.4183 59.3463 35.795 58.9509 36.08C58.7564 36.2201 58.6167 36.431 58.4191 36.5876C58.1154 36.8281 57.8164 37.0781 57.5191 37.3276C57.0808 37.6954 56.6251 38.0342 56.1518 38.3504C55.3295 38.8999 54.4735 39.3844 53.5577 39.7627C52.7647 40.0902 51.948 40.3485 51.1234 40.5613C50.5238 40.7159 49.9114 40.8433 49.2942 40.9417C48.8044 41.0198 48.3117 41.1212 47.8212 41.1989C47.5193 41.2466 47.1997 41.2759 46.8928 41.3092C46.5683 41.3445 46.2279 41.3563 45.9079 41.4584C45.8594 41.4739 45.8036 41.4912 45.7563 41.4817C45.1594 41.3618 44.5736 41.5976 43.9796 41.5359C43.3842 41.474 42.7871 41.4873 42.1904 41.492C41.906 41.4943 41.6163 41.5639 41.3386 41.5275C40.839 41.462 40.3351 41.4867 39.8338 41.4172C39.5965 41.3844 39.3342 41.3358 39.079 41.3719C38.8935 41.3982 38.7082 41.3323 38.5292 41.3062C37.3423 41.1335 36.1685 40.8914 35.0244 40.5154C34.2571 40.2632 33.5324 39.9152 32.8134 39.5522C32.2379 39.2616 31.7279 38.8628 31.177 38.5322C30.8814 38.3548 30.5833 38.1731 30.3322 37.9446C29.7997 37.4601 29.3436 36.9035 29.1748 36.1746C29.0806 35.7674 29.1398 35.3573 29.2696 34.9603C29.3099 34.9718 29.3654 35.0067 29.3882 34.9914C29.7931 34.7204 30.305 34.7756 30.7202 34.5402C30.6707 34.6795 30.611 34.8162 30.5744 34.9589C30.5399 35.0937 30.5515 35.2172 30.7211 35.2693C31.0514 35.3709 31.376 35.4916 31.7076 35.5881C32.9747 35.9566 34.2624 36.2092 35.5772 36.3374C36.4765 36.4251 37.3751 36.5098 38.278 36.5351C38.701 36.5469 39.1137 36.636 39.5326 36.6744C40.0634 36.723 40.595 36.768 41.1272 36.7958C41.3216 36.806 41.4869 36.7251 41.4918 36.482C41.634 36.3068 41.8366 36.3629 41.9995 36.3903C42.2136 36.4264 42.2071 36.2242 42.3135 36.1516C42.3621 36.1185 42.2859 36.0003 42.2262 35.9246C41.7494 35.3208 41.6998 34.6026 41.7805 33.8847C41.8217 33.5178 41.9718 33.1631 42.2455 32.8617C42.7667 32.2878 43.321 32.159 43.9747 32.3742C44.1476 32.4312 44.3204 32.5545 44.315 32.7218C44.3085 32.9232 44.3922 33.1253 44.2968 33.3329C44.0362 33.8995 43.7817 34.4697 43.5488 35.0483C43.3539 35.5325 43.4345 35.8679 43.8109 35.9506C44.0224 35.9971 44.2549 35.9995 44.4676 35.962C44.5639 35.945 44.7284 35.9667 44.7775 35.758C44.8935 35.2641 44.8114 34.7619 44.8821 34.2631C44.929 33.9328 44.9726 33.5964 45.051 33.2745C45.1661 32.8019 45.3449 32.3475 45.7862 32.0686C45.9116 31.9893 46.069 31.9705 46.1764 31.8571C46.4152 31.8538 46.654 31.8506 46.8928 31.8473C47.1574 31.9355 47.4223 32.023 47.6866 32.1122C47.7629 32.138 47.8506 32.132 47.8767 32.2504C47.9332 32.5068 48.0028 32.7607 48.0767 33.0126C48.2827 33.7149 48.5227 34.3963 49.1548 34.8446C49.4138 35.0282 49.6968 35.1187 50.0066 35.1797C50.4497 35.267 50.8809 35.1148 51.3193 35.1628C51.4152 35.1733 51.5123 35.1947 51.6214 35.1663C52.2699 34.9976 52.6103 34.5268 52.8182 33.933C52.9817 33.4657 53.1135 32.9872 53.2679 32.5165C53.4273 32.0303 53.6803 31.6241 54.1824 31.4224C54.2518 31.3946 54.3685 31.4551 54.3971 31.3305C54.5817 31.3075 54.7732 31.2994 54.9492 31.2594C55.1031 31.2245 55.2916 31.3231 55.4154 31.1583C55.7152 31.1944 56.019 31.1374 56.3168 31.2794C56.4601 31.3476 56.4266 31.5561 56.624 31.5568C56.624 31.3562 56.624 31.1598 56.624 30.9634L56.6365 30.9486C57.9277 30.9515 59.2189 30.9549 60.5102 30.9555C60.5717 30.9555 60.676 30.9914 60.6816 30.8932C60.692 30.7072 60.8185 30.737 60.9212 30.7491C61.5172 30.8194 62.0945 30.5934 62.6885 30.6392C62.7283 30.6423 62.8025 30.627 62.8059 30.6093C62.8434 30.4173 62.991 30.4913 63.0966 30.4861C63.2868 30.4767 63.4791 30.4969 63.6681 30.4789C63.8035 30.466 63.8606 30.5358 63.9142 30.6333C64.0245 30.9561 63.9345 31.1044 63.6723 31.3424C63.5521 31.4515 63.4708 31.6003 63.2983 31.6443C63.1572 31.6205 63.0887 31.6543 63.0709 31.8246C63.0604 31.9246 63.0838 32.087 62.9836 32.1337C62.7902 32.2237 62.8285 32.3768 62.8256 32.5272C62.6912 32.5373 62.7236 32.6406 62.7218 32.7216C62.7179 32.9044 62.7172 33.0873 62.7153 33.2702Z" fill="#3798A7"/>
<path d="M43.5314 22.8472C43.7625 22.6464 44.0539 22.7247 44.3128 22.7021C44.9035 22.6507 45.4996 22.6675 46.0925 22.6359C46.8783 22.5941 47.6638 22.5419 48.448 22.4769C49.3936 22.3985 50.3399 22.3324 51.2861 22.2627C52.2668 22.1904 53.2419 22.056 54.2254 21.9958C55.062 21.9447 55.8906 21.7656 56.7272 21.7052C57.3429 21.6607 57.9557 21.5877 58.5671 21.5192C59.1347 21.4556 59.7031 21.3828 60.2708 21.3111C60.8236 21.2412 61.3768 21.1746 61.9298 21.1066C62.0174 21.1114 62.0964 21.1174 62.1425 21.2193C62.2289 21.41 62.3022 21.5984 62.3082 21.8148C62.3257 22.4471 62.2019 23.0409 61.9821 23.6384C61.7142 24.3665 61.3973 25.0667 61.0464 25.7538C60.7369 26.3599 60.3881 26.9474 60.1116 27.5681C59.9178 28.0032 59.7403 28.4442 59.4488 28.8191C59.2903 29.0231 59.2042 29.2955 58.9838 29.4348C58.5318 29.7204 58.1182 30.0687 57.6183 30.2787C57.3769 30.3801 57.1491 30.5125 56.8831 30.5406C56.8325 30.5601 56.8381 30.6275 56.7535 30.6385C56.4808 30.6741 56.2122 30.7434 55.9427 30.8029C55.555 30.8886 55.1614 30.9227 54.7665 30.9479C54.4154 30.8698 54.0643 30.8677 53.7132 30.9479C53.249 30.8961 52.7849 30.8445 52.3208 30.792C52.2619 30.7854 52.2644 30.7367 52.2637 30.6943C52.2621 30.607 52.262 30.5197 52.2626 30.4324C52.2655 30.0564 52.055 29.8083 51.7265 29.7336C51.503 29.6828 51.2414 29.7571 51.0908 30.0245C51.2251 30.0597 51.362 30.077 51.4818 30.1325C51.5942 30.1846 51.7206 30.2482 51.7397 30.4C51.759 30.5529 51.6768 30.6426 51.5454 30.6971C51.4952 30.6242 51.4396 30.5598 51.3429 30.6205C51.2765 30.6622 51.2911 30.7156 51.3351 30.7671C51.1928 31.0315 50.8996 31.0273 50.6747 31.0959C50.1141 31.267 49.5248 31.2824 48.9404 31.2589C48.862 31.2557 48.7394 31.2192 48.7178 31.0689C48.6954 30.9131 48.6188 30.7658 48.5741 30.6124C48.5396 30.4941 48.5178 30.3352 48.38 30.3401C48.2653 30.3441 48.1673 30.4514 48.0943 30.5699C47.9718 30.7688 47.8469 30.9771 47.6802 31.1353C47.1348 31.6527 46.3846 31.4661 45.9353 31.0864C45.3474 30.5896 45.1995 29.8867 45.3581 29.1445C45.5181 28.3959 45.7565 27.665 46.034 26.9535C46.3831 26.0581 46.6334 25.1493 46.5991 24.1798C46.5932 24.0119 46.5858 23.821 46.4153 23.6851C46.1112 24.3275 45.8719 24.9728 45.6626 25.6271C45.4321 26.3472 45.2329 27.0777 45.0299 27.8065C44.9125 28.2279 44.8251 28.6563 44.7407 29.0867C44.6641 29.4773 44.5451 29.8641 44.4934 30.2611C44.4458 30.627 44.2583 30.8487 43.9245 30.9755C43.7975 31.0237 43.676 31.0891 43.5484 31.1411C43.1975 31.284 43.0095 31.1711 43.0007 30.7886C42.9941 30.4997 43.0734 30.2298 43.1513 29.9529C43.355 29.2288 43.6656 28.5463 43.9421 27.8528C44.1648 27.2941 44.3943 26.7377 44.6003 26.1722C44.6617 26.0039 44.6129 25.831 44.4222 25.8067C44.1818 25.776 43.9238 25.7571 43.692 25.8128C43.2674 25.9148 43.0131 26.288 42.7599 26.5994C42.4266 27.0093 42.1907 27.497 41.9389 27.9701C41.5739 28.656 41.2431 29.3606 40.8392 30.0272C40.4669 30.6417 40.0694 31.2129 39.3997 31.5275C39.3553 31.5484 39.3239 31.5773 39.2634 31.5788C38.9529 31.5866 38.6657 31.7148 38.3658 31.7805C38.1526 31.8272 37.9592 31.7768 37.8182 31.6483C37.6514 31.4963 37.7738 31.3141 37.862 31.1523C38.0761 30.7596 38.3888 30.451 38.6796 30.1186C39.2061 29.5167 39.8221 29.0042 40.3257 28.3809C40.6245 28.0111 41.0028 27.7197 41.3103 27.3509C41.8 26.7636 42.2584 26.1554 42.6868 25.5236C42.8517 25.2804 43.0569 25.0586 43.1485 24.77C43.1594 24.7358 43.2315 24.6832 43.1521 24.6413C43.1069 24.6175 43.066 24.5945 43.0223 24.6568C42.8144 24.9532 42.4645 25.129 42.2823 25.4246C41.975 25.9232 41.464 26.2099 41.1298 26.6807C40.9809 26.8905 40.794 27.1065 40.593 27.2957C40.4582 27.4225 40.3005 27.565 40.2087 27.7332C40.0882 27.9542 39.9071 28.126 39.7465 28.2981C39.5011 28.5611 39.2471 28.827 39.0243 29.102C38.7072 29.4933 38.322 29.8053 37.9691 30.1489C37.6244 30.4844 37.214 30.7614 36.7986 31.0193C36.1457 31.4246 35.4673 31.7537 34.6971 31.8484C34.6298 31.8567 34.534 31.7828 34.5225 31.9182C34.5119 32.0434 34.6375 31.9944 34.6911 32.0406C34.7198 32.0654 34.7725 32.0616 34.8144 32.0707C34.7356 32.1537 34.6351 32.1074 34.5447 32.1137C34.4158 32.1226 34.2669 32.0778 34.1602 32.1285C33.7902 32.3043 33.4187 32.2122 33.0457 32.1824C33.0708 32.0883 33.1708 32.1068 33.2309 32.0598C33.7097 31.6858 34.1911 31.3143 34.6853 30.9615C35.1836 30.6057 35.6895 30.2484 36.1125 29.8124C36.7191 29.1873 37.401 28.6504 38.023 28.0448C38.1789 27.8929 38.3307 27.7168 38.5139 27.5965C38.7882 27.4165 38.9937 27.1624 39.2475 26.9608C39.5477 26.7223 39.8194 26.4466 40.1008 26.1841C40.5594 25.7564 41.0046 25.3131 41.477 24.9018C41.7932 24.6264 42.0325 24.2759 42.3531 24.0131C42.7833 23.6606 43.1459 23.2432 43.5314 22.8472ZM55.4343 25.0045C55.4952 24.9709 55.5577 24.9518 55.6295 24.9482C55.705 24.9444 55.6995 24.8858 55.6721 24.8339C55.566 24.6326 55.0225 24.3213 54.8141 24.3577C54.6497 24.3865 54.4839 24.3895 54.3247 24.3686C54.1404 24.3444 53.9877 24.3974 53.8452 24.4919C53.7635 24.546 53.6342 24.6459 53.6454 24.6996C53.6693 24.8138 53.7993 24.8628 53.9169 24.9053C54.0884 24.9673 54.2777 24.9159 54.442 25.0044C54.7727 25.0044 55.1035 25.0045 55.4343 25.0045ZM57.964 28.476C58.2766 28.4552 58.5672 28.3656 58.7727 28.1115C58.8551 28.0096 58.9352 27.8506 58.836 27.73C58.7525 27.6285 58.6214 27.6478 58.5359 27.7792C58.5263 27.794 58.4691 27.7692 58.4404 27.7802C57.893 27.9894 57.3289 27.9794 56.7661 27.8883C56.2902 27.8112 55.8325 27.6562 55.3783 27.4912C54.6534 27.2277 53.9917 26.8358 53.3239 26.459C53.0744 26.3182 52.8576 26.1158 52.6343 25.931C52.5536 25.8642 52.5082 25.7448 52.5346 25.649C52.5666 25.5328 52.6959 25.5825 52.781 25.5801C53.4178 25.5617 54.0125 25.76 54.6073 25.9556C55.1869 26.1463 55.725 26.4363 56.2872 26.6685C56.4759 26.7464 56.6776 26.7926 56.8741 26.8507C56.9489 26.8728 57.0394 26.8933 57.078 26.8065C57.1087 26.7374 57.0195 26.7083 56.9783 26.672C56.8714 26.5781 56.7594 26.4889 56.6427 26.4078C56.1404 26.0585 55.597 25.7809 55.0499 25.5151C54.8084 25.3978 54.539 25.2768 54.2646 25.3237C53.9568 25.3763 53.6825 25.4421 53.3467 25.3576C52.9608 25.2606 52.5857 25.1362 52.2321 24.978C51.6346 24.7107 51.0679 24.3725 50.4889 24.0629C50.3211 23.9733 50.1443 23.9187 49.9578 23.9675C49.8993 23.9828 49.7618 24.0122 49.8816 24.1405C50.0468 24.3176 50.1944 24.5123 50.3672 24.681C50.8639 25.1662 51.3386 25.674 51.8739 26.1192C52.9952 27.0518 54.2058 27.8175 55.6141 28.2251C56.0638 28.3552 56.5148 28.4567 56.9906 28.4653C57.314 28.4711 57.6374 28.4762 57.964 28.476ZM59.7687 25.6312C59.962 25.6337 60.0399 25.4931 60.1085 25.3942C60.693 24.5507 61.2255 23.6866 61.17 22.5886C61.1583 22.3569 61.0678 22.2262 60.9011 22.0853C60.6919 21.9086 60.4956 22.0978 60.2957 22.0533C60.1405 22.0187 60.0039 22.1133 59.8647 22.171C59.915 22.2906 59.9667 22.4092 60.071 22.4934C60.0777 22.4989 60.0836 22.5054 60.0894 22.5119C60.4497 22.9121 60.5316 23.4199 60.4353 23.9007C60.3157 24.4973 60.0127 25.0464 59.7687 25.6312ZM48.044 24.3558C48.2302 25.2581 48.5983 26.0602 49.3315 26.6523C49.443 26.7424 49.5786 26.9167 49.6929 26.852C49.8301 26.7744 49.6855 26.563 49.7323 26.4129C49.7393 26.3902 49.6953 26.3556 49.6894 26.3238C49.6188 25.9373 49.3847 25.6251 49.2112 25.2892C49.0041 24.8882 48.7353 24.5212 48.4075 24.2042C48.3325 24.1317 48.2329 24.0959 48.1591 24.1194C48.0811 24.1442 48.0185 24.2403 48.044 24.3558ZM59.1962 25.916C59.1454 25.8504 59.2359 25.7026 59.156 25.613C58.8514 25.2713 58.5521 24.9226 58.1874 24.6413C58.0935 24.5689 57.976 24.5267 57.8896 24.5938C57.7994 24.6639 57.8473 24.7955 57.8881 24.8871C58.1283 25.4259 58.5043 25.8314 59.048 26.0683C59.1655 26.1194 59.2306 26.1165 59.1962 25.916Z" fill="#F5D81D"/>
<path d="M28.226 32.1225C27.976 32.1012 27.7028 32.1794 27.5073 31.9278C27.4782 31.8903 27.3758 31.9059 27.3073 31.9057C26.7957 31.9042 26.2841 31.9051 25.7725 31.9047C25.5803 31.9046 25.389 31.904 25.2724 31.7053C25.2442 31.6574 25.1905 31.6345 25.1367 31.6437C24.8574 31.6917 24.6003 31.5778 24.3333 31.5362C24.3078 31.5322 24.2686 31.5412 24.258 31.527C24.0483 31.2467 23.736 31.3684 23.4691 31.3089C23.3314 31.2782 23.1291 31.3301 23.0796 31.0938C23.0677 31.037 22.9534 31.0637 22.8857 31.0634C22.5649 31.0619 22.244 31.0635 21.9232 31.064C22.0242 30.8814 21.8531 30.8739 21.769 30.8548C21.4122 30.7734 21.0422 30.7405 20.6938 30.6341C20.1131 30.4567 19.5001 30.5376 18.9225 30.3714C18.4641 30.2395 18.0742 30.0203 17.9458 29.503C17.8566 29.1434 17.9512 28.811 18.1085 28.4972C18.5052 27.7061 19.1231 27.1505 19.9224 26.7951C20.2072 26.6684 20.5084 26.5897 20.8141 26.5717C21.4351 26.5353 22.0265 26.3486 22.6336 26.245C23.2923 26.1327 23.9544 26.041 24.6153 25.9429C25.324 25.8378 26.0372 25.7759 26.748 25.7069C27.3433 25.6491 27.9369 25.5687 28.5339 25.5213C28.9809 25.4859 29.4316 25.4658 29.8763 25.3808C30.3877 25.283 30.9122 25.2853 31.4255 25.1741C31.9175 25.0677 32.4222 25.0218 32.9214 24.9494C33.4935 24.9513 34.0659 24.9679 34.6371 24.9485C34.893 24.9398 35.1825 24.973 35.3991 24.8769C35.6941 24.746 36.0084 24.7676 36.3067 24.6732C36.6607 24.5612 37.0506 24.4573 37.4543 24.4586C37.9217 24.4602 38.3797 24.2927 38.86 24.3177C39.3529 24.3433 39.8491 24.3417 40.3421 24.3176C40.7459 24.2979 41.1141 24.5108 41.5904 24.4094C41.2346 24.7605 40.9001 24.9992 40.6091 25.2792C40.2421 25.6323 39.8042 25.8794 39.4259 26.2091C39.1304 26.4667 38.8158 26.708 38.4983 26.9268C38.1765 27.1485 37.8842 27.4055 37.5919 27.6538C37.3573 27.853 37.1482 28.1048 36.9433 28.3507C36.4517 28.9404 35.8776 29.4602 35.2748 29.9292C34.7062 30.3716 34.1224 30.8054 33.455 31.1034C33.0671 31.2766 32.6854 31.4588 32.267 31.5442C31.7721 31.694 31.2688 31.7858 30.7503 31.8025C30.015 31.8263 29.2683 31.6855 28.5483 31.9553C28.4324 31.9988 28.303 32.0058 28.226 32.1225ZM32.6337 25.3386C32.3156 25.3386 32.0232 25.3386 31.7057 25.3386C31.8837 25.4456 32.4417 25.4409 32.6337 25.3386Z" fill="#25A8DF"/>
<path d="M56.8832 30.5407C57.1491 30.5126 57.377 30.3801 57.6183 30.2788C58.1183 30.0688 58.5319 29.7204 58.9839 29.4348C59.2042 29.2956 59.2903 29.0232 59.4489 28.8192C59.7403 28.4443 59.9179 28.0033 60.1116 27.5682C60.3881 26.9474 60.737 26.36 61.0465 25.7539C61.3973 25.0667 61.7143 24.3666 61.9821 23.6385C62.202 23.0409 62.3258 22.4472 62.3083 21.8148C62.3023 21.5985 62.2289 21.41 62.1426 21.2193C62.0965 21.1174 62.0175 21.1115 61.9298 21.1066C62.0639 20.8499 62.331 20.9451 62.5247 20.9165C63.1014 20.8314 63.683 20.7516 64.272 20.7912C64.4264 20.8016 64.4864 20.8188 64.4982 21.0014C64.53 21.4934 64.5574 21.9855 64.6294 22.4764C64.6732 22.7753 64.5674 23.0982 64.5975 23.4106C64.6723 24.1866 64.6371 24.9641 64.6475 25.741C64.6524 26.101 64.5468 26.4473 64.4539 26.781C64.3824 27.0378 64.364 27.2988 64.3517 27.5441C64.3257 28.065 64.2718 28.5881 64.2897 29.1094C64.3047 29.5446 64.0841 29.9049 63.9965 30.3054C63.9724 30.4155 63.9419 30.5241 63.9143 30.6334C63.8607 30.5359 63.8036 30.466 63.6682 30.479C63.4792 30.497 63.2869 30.4767 63.0967 30.4861C62.9911 30.4914 62.8435 30.4173 62.806 30.6094C62.8026 30.6271 62.7284 30.6423 62.6886 30.6393C62.0946 30.5934 61.5173 30.8195 60.9213 30.7492C60.8186 30.7371 60.6921 30.7072 60.6817 30.8933C60.6761 30.9915 60.5718 30.9556 60.5103 30.9555C59.219 30.9549 57.9278 30.9515 56.6366 30.9487C56.6315 30.8066 56.6551 30.6953 56.8347 30.6863C56.9265 30.6817 56.8815 30.5952 56.8832 30.5407Z" fill="#D6AD2F"/>
<path d="M62.8255 32.5273C62.8284 32.3769 62.7901 32.2237 62.9835 32.1337C63.0837 32.0871 63.0603 31.9246 63.0708 31.8246C63.0886 31.6544 63.1571 31.6206 63.2982 31.6444C63.2967 31.7821 63.2935 31.9199 63.2943 32.0576C63.2948 32.1471 63.3024 32.234 63.1695 32.2225C63.0799 32.2148 63.0914 32.2867 63.0841 32.346C63.0648 32.5013 62.983 32.5711 62.8255 32.5273Z" fill="#D6AD2F"/>
<path d="M43.7954 74.5508C43.9349 74.445 44.0938 74.5096 44.2422 74.5063C44.5959 74.4983 44.9499 74.5092 45.3034 74.5125C44.8015 74.5688 44.2984 74.5568 43.7954 74.5508Z" fill="#BF9769"/>
<path d="M39.9827 74.5123C40.3702 74.509 40.7577 74.5026 41.1452 74.5049C41.2238 74.5054 41.3182 74.4579 41.3819 74.5505C40.915 74.5546 40.448 74.5653 39.9827 74.5123Z" fill="#BF9769"/>
<path d="M60.8041 66.0604C60.8257 65.6286 60.7644 65.195 60.8328 64.7642C60.8346 65.1965 60.8835 65.6299 60.8041 66.0604Z" fill="#FAFBFB"/>
<path d="M18.1301 33.3749C18.2694 33.3768 18.2282 33.4849 18.2287 33.5597C18.2297 33.7024 18.2206 33.8451 18.2157 33.9877C18.1872 33.7834 18.1587 33.5791 18.1301 33.3749Z" fill="#FAFBFB"/>
<path d="M61.6777 16.9477C61.5032 16.9744 61.3982 16.832 61.2671 16.7628C60.9523 16.5966 60.6243 16.4777 60.2748 16.4306C60.0985 16.4069 59.8843 16.3921 59.778 16.5602C59.6611 16.7451 59.6724 16.9991 59.7751 17.1721C59.9085 17.3964 59.9684 17.6647 60.1569 17.8531C60.2294 17.9257 60.2125 17.9806 60.1739 18.0575C59.9204 18.5621 59.5451 18.9368 59.0633 19.2289C58.3522 19.66 57.5545 19.7841 56.7666 19.9316C56.1137 20.0538 55.4466 20.0962 54.7897 20.1994C54.3445 20.2694 53.9054 20.3808 53.4646 20.4782C52.9633 20.5889 52.4574 20.662 51.945 20.6918C51.774 20.7018 51.6036 20.7237 51.4329 20.7402C51.0985 20.648 50.7641 20.656 50.4296 20.7394C50.3335 20.6144 50.3355 20.6199 50.4475 20.579C50.9679 20.3892 51.5225 20.3775 52.0543 20.2569C52.4767 20.1612 52.9017 20.0963 53.3277 20.0687C53.7695 20.0401 54.2044 19.959 54.6483 19.9396C55.0513 19.922 55.4568 19.8163 55.8592 19.7781C56.4793 19.7192 57.0722 19.5481 57.6478 19.3555C58.3834 19.1094 59.0745 18.733 59.3878 17.9286C59.5114 17.6112 59.4514 17.2767 59.4372 16.9509C59.4286 16.7557 59.2407 16.6825 59.0877 16.6493C58.5767 16.5386 58.0684 16.591 57.5626 16.7143C57.2544 16.7894 56.9418 16.8531 56.6275 16.8917C56.5313 16.9035 56.4208 17.1141 56.3561 16.9338C56.3117 16.8099 56.5206 16.7856 56.6084 16.7651C56.8606 16.7061 57.0397 16.5051 57.2961 16.451C57.4544 16.4176 57.4336 16.0931 57.2646 15.9233C57.0216 15.6791 56.7117 15.5624 56.3878 15.4781C56.3389 15.4654 56.2825 15.4743 56.2511 15.4128C56.2687 15.3368 56.3351 15.3731 56.3722 15.3753C57.0505 15.417 57.7034 15.2532 58.3499 15.0917C58.6779 15.0098 58.981 14.811 59.2432 14.5884C59.5208 14.3528 59.5172 13.9855 59.2721 13.7015C59.1927 13.6096 59.1059 13.5224 59.0128 13.445C58.955 13.3969 58.8555 13.3814 58.8766 13.2803C58.901 13.1632 59.0036 13.2218 59.0708 13.2163C59.2796 13.1992 59.4019 13.0357 59.5504 12.9252C59.7447 12.7805 59.8207 12.7789 59.9088 12.9962C60.0319 13.3002 60.0436 13.6326 60.1316 13.9462C60.1614 14.0524 60.0829 14.1218 60.0152 14.1903C59.3936 14.8193 59.656 15.4344 60.2149 15.8957C60.6403 16.2468 61.156 16.3741 61.6777 16.4832C61.6777 16.6381 61.6777 16.7929 61.6777 16.9477Z" fill="#FAFBFB"/>
<path d="M59.9124 5.46923C59.9109 5.74726 59.8737 5.76343 59.6414 5.64758C59.2367 5.44582 58.9743 5.09263 58.6866 4.76402C58.4522 4.49642 58.2104 4.23532 58.0411 3.9174C58.0003 3.84063 57.9476 3.75449 58.0115 3.67447C58.0781 3.5911 58.1674 3.66658 58.2228 3.69477C58.8897 4.03395 59.4579 4.48896 59.8323 5.15821C59.8871 5.25627 59.9312 5.3629 59.9124 5.46923Z" fill="#FAFBFB"/>
<path d="M29.5751 49.6033C29.7367 49.6507 29.7505 49.4845 29.7897 49.4148C29.8918 49.2333 30.1397 49.1669 30.156 48.9259C30.1854 48.9559 30.1918 48.9271 30.2017 48.9073L30.1974 48.9132C30.3232 48.9215 30.4322 48.8619 30.5456 48.8221C31.4761 48.4958 32.3955 48.1332 33.364 47.9306C34.2642 47.7423 35.1623 47.6677 36.0595 47.9608C36.4453 48.0868 36.7483 48.361 37.1062 48.5298C39.474 49.6464 40.4659 52.8141 39.144 55.0879C38.4637 56.2579 37.3367 56.8352 36.1596 57.3299C35.8078 57.4778 35.4246 57.534 35.0417 57.5453C32.9519 57.607 31.2686 56.7704 29.9842 55.1286C29.1932 54.1174 28.8608 52.9522 29.0521 51.6556C29.1258 51.1565 29.3283 50.7019 29.5014 50.2356C29.5753 50.0367 29.6769 49.8286 29.5751 49.6033ZM29.4182 53.2207C29.4116 53.7895 29.7436 54.2015 30.3557 54.381C30.6829 54.4768 31.0221 54.4681 31.3569 54.5026C32.1817 54.5877 32.9709 54.1228 33.277 53.3447C33.3834 53.0742 33.4182 52.7962 33.3083 52.5262C33.133 52.0953 32.9069 51.6921 32.5495 51.3831C32.2485 51.1228 31.9029 50.994 31.5008 51.0115C30.509 51.0548 29.4302 52.1946 29.4182 53.2207Z" fill="#FBFCFC"/>
<path d="M41.4656 55.8617C42.891 55.906 44.1179 56.4528 45.1714 57.41C45.9743 58.1395 46.5819 59.0051 46.9054 60.0599C47.0996 60.6934 47.0685 60.7731 46.4954 61.1242C46.1554 61.3325 45.8116 61.5383 45.4929 61.7772C44.656 62.4044 44.5863 62.927 44.7209 63.8385C44.8497 64.7098 44.3208 65.3422 43.4223 65.1532C43.0035 65.0651 42.599 64.9069 42.1799 64.8213C41.627 64.7083 41.0931 64.706 40.7079 65.2469C40.5646 65.4482 40.3502 65.3856 40.0635 65.2232C39.3817 64.8368 39.2636 64.1702 39.1621 63.4899C39.0944 63.0359 39.072 62.5739 38.9849 62.1242C38.8921 61.6452 38.6901 61.2143 38.2456 60.9499C38.0154 60.8131 37.7549 60.7688 37.502 60.7156C37.3007 60.6732 37.2523 60.5684 37.2198 60.3809C37.0389 59.3365 37.5856 58.6152 38.2523 57.9445C38.7755 57.4182 39.4215 57.023 39.91 56.4716C40.35 55.9748 40.855 55.829 41.4656 55.8617ZM44.7498 60.8199C45.1413 60.8341 45.545 60.772 45.9355 60.6096C46.1422 60.5237 46.2792 60.4301 46.1824 60.1692C46.1383 60.0503 46.152 59.9108 46.1224 59.7847C45.9652 59.1154 45.6579 58.5691 44.9642 58.3329C44.6878 58.2387 44.4105 58.274 44.1304 58.28C43.8411 58.2861 43.5515 58.2432 43.2619 58.2883C42.4275 58.4181 41.5985 58.5913 40.7514 58.6205C40.2123 58.639 39.6837 58.5825 39.1837 58.3566C39.1074 58.3221 39.0406 58.2803 38.941 58.3059C38.6972 58.3684 38.4631 58.4503 38.2509 58.5867C37.7491 58.9093 37.5332 59.4338 37.6909 59.9558C37.8281 60.4098 38.1679 60.6621 38.5709 60.8583C38.9127 61.0247 39.2117 60.9797 39.5004 60.7404C39.5779 60.6761 39.6822 60.6427 39.7774 60.6029C40.6105 60.2551 41.4633 60.3274 42.323 60.4719C43.1203 60.6059 43.9054 60.8286 44.7498 60.8199ZM44.515 63.0514C44.475 62.4267 44.2468 61.8133 43.69 61.3626C43.4535 61.1711 43.1728 61.0809 42.8955 61.2503C42.5882 61.438 42.3809 61.7222 42.3803 62.1024C42.3799 62.4428 42.4113 62.7837 42.4363 63.1238C42.4625 63.481 42.4905 63.8402 42.6444 64.1706C42.8591 64.6313 43.3119 64.7732 43.7425 64.5191C44.2682 64.2089 44.5078 63.7353 44.515 63.0514ZM41.766 62.7842C41.7609 62.6792 41.7613 62.5736 41.7497 62.4694C41.7094 62.1101 41.6201 61.7647 41.4336 61.4525C41.1284 60.942 40.7329 60.9277 40.4083 61.4193C40.3179 61.5562 40.2555 61.712 40.1801 61.859C39.9419 62.3233 40.0038 62.8508 39.8762 63.3388C39.8138 63.5773 39.8012 63.8233 39.8245 64.0691C39.8473 64.3088 39.9756 64.4762 40.2164 64.4811C40.7964 64.4931 41.2961 64.3472 41.5923 63.7046C41.7264 63.4137 41.7708 63.1033 41.766 62.7842Z" fill="#030303"/>
<path d="M49.2315 57.7487C47.9937 57.7714 46.9388 57.4156 45.9145 56.9026C45.0678 56.4785 44.3305 55.9063 43.7398 55.1835C43.09 54.3884 42.687 53.4652 42.6281 52.3952C42.4872 49.8374 43.9028 48.2614 45.8691 47.0182C46.6034 46.5539 47.4158 46.4038 48.2754 46.3737C49.4575 46.3322 50.5767 46.55 51.632 47.0739C53.049 47.7774 54.0518 48.8632 54.5841 50.3887C54.8209 51.0671 55.0055 51.7435 54.9698 52.4694C54.9347 53.1832 54.7565 53.8594 54.4241 54.486C53.5623 56.1104 52.2118 57.113 50.4696 57.5855C50.0425 57.7013 49.6029 57.8029 49.2315 57.7487ZM43.567 51.703C43.5716 52.7437 43.7726 53.4959 44.1397 54.2064C45.0067 55.8847 46.8293 57.0667 48.753 56.7604C48.9395 56.7307 49.1339 56.7224 49.322 56.7377C49.8096 56.7773 50.2907 56.7548 50.7682 56.6465C53.0789 56.1223 54.6411 53.7098 54.1944 51.3721C54.0364 50.5452 53.5825 49.8789 53.1157 49.2145C52.7435 48.6847 52.2853 48.245 51.7211 47.9371C49.9036 46.9451 48.0435 46.9565 46.2103 47.8408C44.5313 48.6506 43.6307 50.0331 43.567 51.703Z" fill="#030303"/>
<path d="M29.5751 49.6033C29.6768 49.8286 29.5753 50.0367 29.5014 50.2356C29.3282 50.7019 29.1257 51.1565 29.0521 51.6556C28.8607 52.9522 29.1931 54.1174 29.9842 55.1286C31.2686 56.7704 32.9518 57.607 35.0416 57.5453C35.4246 57.534 35.8077 57.4778 36.1595 57.3299C37.3367 56.8352 38.4636 56.258 39.1439 55.0879C40.4658 52.8141 39.474 49.6464 37.1062 48.5298C36.7483 48.361 36.4453 48.0868 36.0595 47.9608C35.1622 47.6677 34.2641 47.7423 33.3639 47.9306C32.3954 48.1332 31.476 48.4958 30.5455 48.8221C30.4322 48.8619 30.3232 48.9215 30.1973 48.9132C30.4558 48.4056 30.8849 48.0681 31.3464 47.7762C32.4333 47.0885 33.6251 46.9292 34.883 47.0598C36.112 47.1873 37.2481 47.5621 38.2504 48.2926C39.3532 49.0963 40.161 50.1205 40.4286 51.5102C40.458 51.6627 40.4778 51.817 40.502 51.9705C40.5021 52.2826 40.5022 52.5948 40.5023 52.907C40.4002 53.6852 40.1916 54.4276 39.8326 55.1296C39.503 55.7742 39.0465 56.3088 38.5138 56.7805C37.7017 57.4996 36.7367 57.9025 35.6914 58.1177C35.4418 58.1691 35.1798 58.1588 34.9235 58.1768C34.6152 58.177 34.3068 58.1773 33.9984 58.1775C33.2968 58.1591 32.6398 57.9772 31.9895 57.7063C31.3633 57.4456 30.7944 57.0924 30.3003 56.6517C29.3239 55.781 28.6544 54.6996 28.4386 53.377C28.3476 52.819 28.363 52.2575 28.4605 51.6941C28.5253 51.3199 28.5154 50.9338 28.6862 50.58C28.8389 50.2636 29.0169 49.9669 29.2766 49.7289C29.3583 49.6541 29.447 49.575 29.5751 49.6033Z" fill="#030303"/>
<path d="M35.8351 67.6647C35.1579 67.6677 34.486 67.5703 33.8315 67.4287C33.0447 67.2584 32.2522 67.121 31.4647 66.9567C30.7825 66.8144 30.1047 66.6472 29.398 66.638C29.1903 66.6353 28.9746 66.6081 28.7617 66.5969C28.6493 66.591 28.4739 66.6827 28.443 66.4807C28.4129 66.2833 28.4407 66.0882 28.6507 65.9879C28.8126 65.9105 28.9852 65.9082 29.1599 65.9345C29.8472 66.038 30.5018 66.269 31.1657 66.4631C31.8708 66.6693 32.5664 66.8959 33.3136 66.93C33.6358 66.9446 33.9527 67.0992 34.2833 67.1429C34.7577 67.2056 35.2312 67.2762 35.7059 67.3364C36.275 67.4085 36.8452 67.471 37.4144 67.5424C37.5882 67.5642 37.7771 67.5003 37.9336 67.6646C37.5574 67.6646 37.1812 67.6646 36.805 67.6646C36.4817 67.6646 36.1584 67.6646 35.8351 67.6647Z" fill="#030303"/>
<path d="M32.2668 31.5442C32.3105 31.7373 32.162 31.8575 32.0896 32.004C32.0002 32.185 31.8883 32.3547 31.7862 32.5294C31.7602 32.5371 31.7343 32.5448 31.7084 32.5525C31.0732 32.5956 30.4654 32.4185 29.8462 32.3258C29.4037 32.2596 28.9531 32.2422 28.5052 32.2232C28.3913 32.2184 28.3127 32.1733 28.2258 32.1225C28.3028 32.0058 28.4322 31.9988 28.5481 31.9553C29.2681 31.6856 30.0148 31.8264 30.7501 31.8026C31.2686 31.7858 31.7719 31.694 32.2668 31.5442Z" fill="#030303"/>
<path d="M31.7085 32.5524C31.7344 32.5447 31.7604 32.537 31.7863 32.5293C32.0812 32.5742 32.3474 32.3469 32.647 32.4364C32.4667 32.7234 32.1692 32.8921 31.9192 33.0896C31.4091 33.4925 31.0276 33.9788 30.7201 34.5402C30.3049 34.7757 29.793 34.7204 29.3881 34.9914C29.3653 35.0067 29.3097 34.9718 29.2695 34.9603C29.2858 34.942 29.3019 34.9237 29.3181 34.9054C29.5662 34.7259 29.889 34.7573 30.1818 34.5859C29.9251 34.5859 29.7034 34.5859 29.4817 34.5859C29.6071 34.5014 29.6549 34.3556 29.7452 34.2456C29.9319 34.0182 30.1814 33.8628 30.4371 33.7249C30.6366 33.6173 30.817 33.4789 31.0306 33.3907C31.161 33.3369 31.2684 33.2173 31.3208 33.0595C31.3906 32.8488 31.5286 32.6819 31.7085 32.5524Z" fill="#3FABDB"/>
<path d="M29.4815 34.5859C29.7032 34.5859 29.925 34.5859 30.1816 34.5859C29.8888 34.7573 29.566 34.7259 29.3179 34.9054C29.3232 34.7731 29.4168 34.6871 29.4815 34.5859Z" fill="#3798A7"/>
<path d="M35.835 67.6647C36.1583 67.6647 36.4816 67.6646 36.8049 67.6646C36.4816 67.7093 36.1583 67.7171 35.835 67.6647Z" fill="#FAFBFB"/>
<path d="M40.5022 52.907C40.5021 52.5948 40.502 52.2826 40.502 51.9705C40.5756 52.2826 40.5746 52.5948 40.5022 52.907Z" fill="#BF9769"/>
<path d="M33.9985 58.1776C34.3069 58.1773 34.6153 58.1771 34.9236 58.1768C34.6153 58.2566 34.307 58.251 33.9985 58.1776Z" fill="#BF9769"/>
<path d="M30.2026 48.9073C30.1925 48.9273 30.1859 48.9563 30.156 48.926C30.1717 48.9199 30.1872 48.9136 30.2026 48.9073Z" fill="#030303"/>
<path d="M59.3706 9.39661C59.6654 10.1524 59.4677 10.7343 58.9953 11.2863C58.3773 12.0083 57.5995 12.5076 56.8135 13.0038C56.5863 13.1473 56.3656 13.3012 56.143 13.4519C56.0977 13.4826 56.0713 13.5607 55.9967 13.4903C55.9316 13.4287 55.9947 13.3837 56.0024 13.3288C56.039 13.0696 56.2365 12.8984 56.3879 12.7362C56.8566 12.2342 57.363 11.7667 57.873 11.3063C58.1667 11.0411 58.4337 10.7592 58.6954 10.4612C58.9699 10.1487 59.1608 9.80057 59.3706 9.39661Z" fill="#FAFBFB"/>
<path d="M55.5247 7.22199C55.4712 7.75341 55.3473 8.26751 55.0491 8.71C54.7401 9.16844 54.5279 9.68614 54.1859 10.1212C54.0828 10.2525 54.0022 10.5311 53.8331 10.4502C53.6602 10.3675 53.8712 10.158 53.9176 10.0287C54.1967 9.25107 54.5408 8.50009 54.9558 7.78517C55.069 7.59012 55.1953 7.40249 55.3231 7.21672C55.3541 7.17174 55.3954 7.1066 55.4661 7.12503C55.5052 7.13523 55.5381 7.17324 55.5247 7.22199Z" fill="#FAFBFB"/>
<path d="M57.0315 8.99249C56.9935 8.69605 57.1341 8.44143 57.2122 8.17949C57.3363 7.76347 57.5021 7.36127 57.5864 6.93123C57.6067 6.82796 57.613 6.63004 57.7375 6.63779C57.8664 6.64583 58.0006 6.75987 58.1101 6.85418C58.2971 7.01531 58.3336 7.37327 58.2315 7.61971C58.0258 8.11585 57.6793 8.49845 57.2412 8.79793C57.1642 8.85055 57.1513 8.96972 57.0315 8.99249Z" fill="#FAFBFB"/>
<path d="M51.3123 18.888C52.0131 18.3046 52.8112 17.9821 53.6271 17.69C53.0458 18.1985 52.3897 18.5874 51.7069 18.9317C51.6041 18.9836 51.4744 18.9786 51.3123 18.888Z" fill="#FAFBFB"/>
<path d="M55.2981 17.2851C55.0446 17.5262 54.7101 17.511 54.4068 17.5773C54.3152 17.5973 54.2877 17.4868 54.2669 17.4171C54.2482 17.3547 54.3151 17.3263 54.3614 17.3262C54.6295 17.3255 54.8735 17.156 55.1498 17.2141C55.199 17.2244 55.253 17.2136 55.2981 17.2851Z" fill="#FAFBFB"/>
<path d="M54.4175 13.2316C54.464 13.4977 54.3318 13.7503 54.1025 13.831C53.982 13.8734 53.9013 13.7833 53.8414 13.7107C53.7793 13.6355 53.8555 13.5633 53.9176 13.5173C54.0725 13.4027 54.2275 13.286 54.4175 13.2316Z" fill="#FAFBFB"/>
<path d="M50.4292 20.7394C50.7637 20.656 51.0981 20.648 51.4325 20.7401C51.098 20.7399 50.7636 20.7396 50.4292 20.7394Z" fill="#BF9769"/>
<path d="M30.7203 34.5402C31.0279 33.9788 31.4093 33.4926 31.9194 33.0896C32.1694 32.8921 32.4669 32.7234 32.6472 32.4364C32.8321 32.4353 32.892 32.2334 33.0457 32.1824C33.4188 32.2123 33.7903 32.3043 34.1603 32.1286C34.267 32.0779 34.4159 32.1227 34.5448 32.1138C34.6352 32.1075 34.7357 32.1538 34.8145 32.0707C34.8344 32.0635 34.8544 32.0563 34.8744 32.0491C35.0521 32.1175 35.2292 32.1873 35.4076 32.2537C35.5422 32.3037 35.6488 32.4084 35.6439 32.538C35.6394 32.6564 35.6049 32.8126 35.4257 32.8374C35.3716 32.8449 35.3235 32.8934 35.2718 32.9214C34.4562 33.363 34.3861 33.871 34.5588 34.627C34.6372 34.9703 34.8408 35.2498 35.1067 35.4887C35.3418 35.6999 35.927 35.8829 36.2127 35.613C36.3124 35.5188 36.3272 35.4841 36.2308 35.4013C36.0198 35.2199 35.8687 34.985 35.7293 34.7518C35.3598 34.1336 35.4608 33.5791 35.9022 33.1286C36.1763 32.8489 36.5333 32.6505 36.9116 32.5113C37.2015 32.4046 37.4951 32.3144 37.797 32.2548C38.0644 32.202 38.3428 32.0974 38.6015 32.1314C39.0826 32.1948 39.5604 32.0832 40.0458 32.1903C40.5128 32.2933 40.9707 32.3597 41.3756 32.6538C41.5267 32.7636 41.5064 32.8306 41.4066 32.9019C41.2008 33.0489 41.1361 33.3099 41.1181 33.4897C41.0692 33.979 41.11 34.4783 41.2363 34.9664C41.3647 35.4625 41.5485 35.9527 41.4919 36.4821C41.487 36.7251 41.3217 36.806 41.1273 36.7959C40.5951 36.768 40.0635 36.723 39.5327 36.6744C39.1138 36.6361 38.7011 36.547 38.2781 36.5352C37.3752 36.5099 36.4766 36.4252 35.5773 36.3375C34.2625 36.2093 32.9748 35.9567 31.7077 35.5882C31.3761 35.4917 31.0515 35.3709 30.7212 35.2694C30.5516 35.2173 30.54 35.0938 30.5745 34.959C30.6111 34.8162 30.6708 34.6795 30.7203 34.5402Z" fill="#3CA2A2"/>
<path d="M34.8742 32.0491C34.8542 32.0563 34.8343 32.0635 34.8143 32.0707C34.7724 32.0616 34.7197 32.0654 34.691 32.0407C34.6374 31.9945 34.5117 32.0435 34.5224 31.9182C34.5338 31.7829 34.6297 31.8568 34.697 31.8485C35.4672 31.7538 36.1456 31.4247 36.7984 31.0194C37.2138 30.7615 37.6242 30.4845 37.969 30.1489C38.3219 29.8054 38.7071 29.4933 39.0241 29.1021C39.247 28.8271 39.501 28.5612 39.7464 28.2982C39.907 28.1261 40.0881 27.9543 40.2086 27.7333C40.3004 27.5651 40.4581 27.4226 40.5928 27.2958C40.7939 27.1065 40.9808 26.8906 41.1297 26.6808C41.4639 26.21 41.9748 25.9233 42.2822 25.4247C42.4643 25.1291 42.8143 24.9533 43.0222 24.6569C43.0658 24.5946 43.1068 24.6176 43.1519 24.6414C43.2313 24.6833 43.1593 24.7359 43.1484 24.77C43.0568 25.0587 42.8516 25.2805 42.6867 25.5236C42.2583 26.1555 41.7999 26.7637 41.3102 27.351C41.0027 27.7198 40.6244 28.0112 40.3256 28.381C39.8219 29.0043 39.2059 29.5168 38.6794 30.1187C38.3887 30.4511 38.076 30.7597 37.8619 31.1524C37.7737 31.3142 37.6513 31.4964 37.818 31.6484C37.9591 31.7769 38.1525 31.8273 38.3657 31.7805C38.6656 31.7148 38.9527 31.5867 39.2633 31.5789C39.3238 31.5774 39.3551 31.5485 39.3996 31.5276C40.0692 31.213 40.4668 30.6418 40.8391 30.0272C41.2429 29.3607 41.5738 28.6561 41.9388 27.9701C42.1906 27.4971 42.4264 27.0094 42.7598 26.5994C43.0129 26.2881 43.2672 25.9148 43.6919 25.8128C43.9236 25.7572 44.1816 25.776 44.4221 25.8068C44.6128 25.8311 44.6615 26.004 44.6002 26.1723C44.3942 26.7378 44.1647 27.2942 43.9419 27.8529C43.6655 28.5464 43.3549 29.2289 43.1511 29.953C43.0732 30.2299 42.994 30.4998 43.0006 30.7887C43.0094 31.1712 43.1973 31.2841 43.5483 31.1412C43.6759 31.0892 43.7974 31.0238 43.9244 30.9756C44.2582 30.8487 44.4456 30.6271 44.4933 30.2612C44.5449 29.8641 44.664 29.4774 44.7406 29.0867C44.825 28.6564 44.9124 28.228 45.0298 27.8066C45.2328 27.0778 45.432 26.3473 45.6624 25.6271C45.8718 24.9729 46.111 24.3276 46.4152 23.6852C46.5857 23.821 46.5931 24.0119 46.599 24.1798C46.6333 25.1494 46.383 26.0582 46.0339 26.9535C45.7564 27.6651 45.518 28.3959 45.358 29.1446C45.1993 29.8867 45.3472 30.5896 45.9351 31.0864C46.3845 31.4662 47.1347 31.6528 47.6801 31.1353C47.8468 30.9772 47.9717 30.7689 48.0942 30.57C48.1672 30.4515 48.2651 30.3442 48.3799 30.3402C48.5177 30.3353 48.5395 30.4942 48.574 30.6125C48.6186 30.7659 48.6953 30.9131 48.7177 31.069C48.7392 31.2193 48.8619 31.2558 48.9403 31.259C49.5247 31.2825 50.114 31.2671 50.6746 31.096C50.8995 31.0273 51.1927 31.0315 51.3351 30.7671C51.4509 30.8841 51.4996 30.7954 51.5452 30.6972C51.6767 30.6427 51.7588 30.5529 51.7396 30.4001C51.7204 30.2483 51.594 30.1846 51.4816 30.1326C51.3619 30.0771 51.2249 30.0598 51.0907 30.0245C51.2412 29.7572 51.5029 29.6828 51.7264 29.7337C52.0549 29.8084 52.2653 30.0565 52.2625 30.4324C52.2618 30.5197 52.262 30.6071 52.2635 30.6943C52.2643 30.7367 52.2617 30.7854 52.3206 30.7921C52.7847 30.8445 53.2489 30.8961 53.7131 30.948C54.0642 30.948 54.4153 30.948 54.7664 30.948C55.1613 30.9228 55.5549 30.8887 55.9426 30.803C56.2121 30.7435 56.4807 30.6742 56.7534 30.6386C56.838 30.6275 56.8324 30.5602 56.883 30.5407C56.8813 30.5952 56.9264 30.6817 56.8345 30.6863C56.6549 30.6953 56.6313 30.8066 56.6364 30.9487L56.624 30.9635C56.2697 31.0894 55.9006 31.0564 55.5355 31.0713C55.4943 31.073 55.4553 31.128 55.4154 31.1584C55.2915 31.3232 55.1031 31.2245 54.9491 31.2595C54.7731 31.2995 54.5816 31.3076 54.397 31.3305C52.8379 31.3291 51.2786 31.3122 49.72 31.339C49.4057 31.3444 49.0087 31.1076 48.7648 31.531C48.559 31.4964 48.3956 31.658 48.1874 31.6472C47.8246 31.6285 47.4596 31.6535 47.0966 31.637C46.9235 31.6291 46.8879 31.7051 46.8927 31.8473C46.6539 31.8506 46.4151 31.8539 46.1763 31.8572C45.5797 31.8439 44.9837 31.8934 44.3889 31.8959C42.5032 31.9038 40.6171 31.9344 38.7311 31.8586C37.5393 31.8107 36.3469 31.9467 35.1535 31.9036C35.0272 31.899 34.9347 31.9364 34.8742 32.0491ZM43.6338 27.1187C43.6273 27.1534 43.6426 27.111 43.6417 27.0689C43.6384 26.9232 43.581 26.7794 43.4625 26.7184C43.3193 26.6447 43.3226 26.8298 43.2727 26.8986C42.6438 27.7664 42.0059 28.6284 41.4073 29.5174C41.126 29.9351 40.8477 30.3695 40.782 30.8997C40.7444 31.2037 40.9985 31.6127 41.2172 31.5217C41.4857 31.4102 41.7603 31.2626 41.9671 31.0618C42.3002 30.7384 42.5733 30.3586 42.7942 29.9374C43.2463 29.0751 43.6798 28.2135 43.6338 27.1187Z" fill="#FAFBFB"/>
<path d="M34.8745 32.0491C34.935 31.9364 35.0274 31.899 35.1538 31.9036C36.3472 31.9467 37.5396 31.8107 38.7314 31.8586C40.6174 31.9344 42.5034 31.9038 44.3892 31.8959C44.984 31.8934 45.58 31.8439 46.1766 31.8572C46.0692 31.9705 45.9118 31.9894 45.7864 32.0686C45.3451 32.3476 45.1663 32.802 45.0512 33.2746C44.9728 33.5965 44.9292 33.9328 44.8823 34.2631C44.8116 34.7619 44.8936 35.2641 44.7777 35.758C44.7286 35.9668 44.5641 35.945 44.4678 35.962C44.2551 35.9995 44.0226 35.9972 43.8111 35.9507C43.4347 35.868 43.3541 35.5326 43.549 35.0484C43.7819 34.4697 44.0364 33.8996 44.297 33.333C44.3924 33.1254 44.3087 32.9233 44.3152 32.7218C44.3206 32.5545 44.1478 32.4312 43.9749 32.3743C43.3212 32.1591 42.7669 32.2879 42.2457 32.8618C41.972 33.1631 41.8219 33.5179 41.7807 33.8848C41.7 34.6027 41.7496 35.3209 42.2264 35.9247C42.2861 36.0004 42.3623 36.1186 42.3137 36.1517C42.2073 36.2243 42.2138 36.4264 41.9997 36.3904C41.8368 36.3629 41.6342 36.3069 41.492 36.4821C41.5486 35.9527 41.3648 35.4625 41.2364 34.9664C41.11 34.4783 41.0693 33.979 41.1182 33.4897C41.1362 33.3099 41.2009 33.0489 41.4067 32.9019C41.5065 32.8306 41.5268 32.7636 41.3756 32.6539C40.9708 32.3597 40.5129 32.2933 40.0458 32.1903C39.5605 32.0832 39.0827 32.1948 38.6016 32.1314C38.3429 32.0974 38.0645 32.202 37.7971 32.2548C37.4952 32.3144 37.2016 32.4046 36.9117 32.5113C36.5334 32.6505 36.1764 32.8489 35.9023 33.1286C35.4609 33.5791 35.3598 34.1336 35.7294 34.7518C35.8688 34.985 36.0199 35.2199 36.2309 35.4013C36.3273 35.4841 36.3125 35.5188 36.2128 35.613C35.9271 35.8829 35.3419 35.6999 35.1068 35.4887C34.8409 35.2498 34.6373 34.9703 34.5589 34.627C34.3862 33.871 34.4563 33.363 35.2719 32.9214C35.3236 32.8934 35.3717 32.8449 35.4257 32.8374C35.605 32.8126 35.6395 32.6564 35.644 32.538C35.6489 32.4084 35.5423 32.3037 35.4077 32.2537C35.2293 32.1873 35.0522 32.1175 34.8745 32.0491Z" fill="#3FABDB"/>
<path d="M46.893 31.8474C46.8882 31.7051 46.9238 31.6292 47.0969 31.637C47.4599 31.6536 47.8249 31.6286 48.1877 31.6473C48.3959 31.658 48.5593 31.4965 48.7651 31.531C49.009 31.1076 49.406 31.3445 49.7203 31.3391C51.2789 31.3122 52.8382 31.3291 54.3973 31.3306C54.3687 31.4552 54.252 31.3947 54.1826 31.4225C53.6805 31.6242 53.4275 32.0304 53.2681 32.5165C53.1137 32.9872 52.9819 33.4658 52.8184 33.9331C52.6105 34.5269 52.2701 34.9977 51.6216 35.1664C51.5125 35.1948 51.4154 35.1734 51.3195 35.1629C50.8811 35.1149 50.4499 35.2671 50.0068 35.1798C49.697 35.1188 49.414 35.0283 49.1551 34.8446C48.5229 34.3964 48.2829 33.715 48.0769 33.0127C48.003 32.7607 47.9334 32.5069 47.8769 32.2505C47.8508 32.1321 47.7631 32.138 47.6868 32.1123C47.4225 32.0231 47.1576 31.9355 46.893 31.8474ZM49.6458 32.1123C49.4939 32.0764 49.3099 32.1564 49.1282 32.2298C48.8505 32.3421 48.668 32.7154 48.7371 32.9802C48.8133 33.2723 48.9136 33.5493 49.1096 33.7843C49.3893 34.1197 49.7574 34.3224 50.173 34.3592C50.537 34.3915 50.9125 34.2767 51.2787 34.2984C52.1401 34.3496 52.8231 33.2755 52.3577 32.4655C52.2668 32.3072 52.1955 32.1574 52.0268 32.056C51.5938 31.7958 51.1602 31.8164 50.7052 31.9793C50.4977 32.0536 50.3121 32.2564 50.0765 32.1709C49.9463 32.1236 49.8257 32.1275 49.6458 32.1123Z" fill="#3FABDB"/>
<path d="M55.4155 31.1583C55.4555 31.128 55.4945 31.0729 55.5356 31.0713C55.9007 31.0563 56.2698 31.0894 56.6241 30.9634C56.6241 31.1599 56.6241 31.3563 56.6241 31.5568C56.4267 31.5562 56.4601 31.3477 56.3169 31.2794C56.0191 31.1374 55.7152 31.1945 55.4155 31.1583Z" fill="#3FABDB"/>
<path d="M57.9637 28.4761C57.637 28.4762 57.3136 28.4712 56.9903 28.4654C56.5144 28.4568 56.0634 28.3553 55.6138 28.2251C54.2054 27.8176 52.9949 27.0519 51.8736 26.1193C51.3382 25.6741 50.8635 25.1663 50.3669 24.6811C50.1941 24.5124 50.0465 24.3176 49.8812 24.1406C49.7615 24.0123 49.899 23.9828 49.9574 23.9676C50.144 23.9188 50.3208 23.9733 50.4885 24.063C51.0676 24.3725 51.6342 24.7107 52.2318 24.9781C52.5854 25.1363 52.9605 25.2606 53.3464 25.3577C53.6822 25.4421 53.9565 25.3764 54.2642 25.3238C54.5387 25.2768 54.8081 25.3979 55.0496 25.5152C55.5967 25.781 56.1401 26.0586 56.6424 26.4079C56.7591 26.489 56.8711 26.5782 56.978 26.6721C57.0192 26.7084 57.1083 26.7375 57.0776 26.8066C57.0391 26.8933 56.9486 26.8729 56.8738 26.8508C56.6773 26.7927 56.4756 26.7465 56.2868 26.6686C55.7247 26.4364 55.1866 26.1463 54.607 25.9557C54.0121 25.76 53.4175 25.5618 52.7806 25.5801C52.6956 25.5826 52.5663 25.5329 52.5343 25.6491C52.5079 25.7449 52.5533 25.8643 52.634 25.9311C52.8572 26.1159 53.0741 26.3182 53.3236 26.459C53.9914 26.8359 54.653 27.2278 55.378 27.4912C55.8322 27.6563 56.2899 27.8113 56.7658 27.8884C57.3286 27.9795 57.8927 27.9894 58.4401 27.7803C58.4687 27.7693 58.526 27.794 58.5356 27.7793C58.621 27.6479 58.7521 27.6286 58.8357 27.7301C58.9348 27.8506 58.8548 28.0097 58.7724 28.1116C58.5669 28.3657 58.2763 28.4553 57.9637 28.4761Z" fill="#FAFBFB"/>
<path d="M59.7688 25.6312C60.0128 25.0465 60.3158 24.4973 60.4354 23.9007C60.5317 23.42 60.4498 22.9121 60.0895 22.5119C60.0837 22.5055 60.0778 22.4989 60.0711 22.4935C59.9668 22.4093 59.9151 22.2906 59.8648 22.171C60.004 22.1133 60.1406 22.0187 60.2958 22.0533C60.4957 22.0979 60.692 21.9086 60.9012 22.0854C61.0678 22.2262 61.1584 22.357 61.1701 22.5887C61.2256 23.6866 60.6931 24.5507 60.1086 25.3942C60.04 25.4932 59.9621 25.6337 59.7688 25.6312Z" fill="#FAFBFB"/>
<path d="M48.0439 24.3558C48.0184 24.2403 48.081 24.1442 48.159 24.1194C48.2327 24.0959 48.3323 24.1317 48.4073 24.2042C48.7352 24.5212 49.004 24.8883 49.2111 25.2892C49.3845 25.6251 49.6187 25.9373 49.6893 26.3238C49.6951 26.3556 49.7392 26.3902 49.7321 26.4129C49.6854 26.563 49.83 26.7744 49.6928 26.852C49.5785 26.9167 49.4429 26.7424 49.3314 26.6523C48.5982 26.0602 48.23 25.2581 48.0439 24.3558Z" fill="#FAFBFB"/>
<path d="M54.4418 25.0044C54.2775 24.916 54.0882 24.9673 53.9167 24.9053C53.7991 24.8628 53.6691 24.8139 53.6452 24.6997C53.634 24.6459 53.7633 24.5461 53.845 24.4919C53.9875 24.3974 54.1401 24.3444 54.3245 24.3686C54.4837 24.3895 54.6495 24.3866 54.8138 24.3578C55.0223 24.3213 55.5658 24.6326 55.6719 24.8339C55.6992 24.8859 55.7048 24.9444 55.6293 24.9482C55.5575 24.9518 55.4949 24.971 55.4341 25.0046C55.1034 24.9156 54.7726 24.9307 54.4418 25.0044Z" fill="#FAFBFB"/>
<path d="M59.1961 25.9162C59.2305 26.1166 59.1653 26.1195 59.0479 26.0684C58.5042 25.8315 58.1281 25.4261 57.8879 24.8872C57.8471 24.7957 57.7993 24.664 57.8895 24.5939C57.9759 24.5268 58.0933 24.569 58.1872 24.6414C58.552 24.9227 58.8513 25.2714 59.1559 25.6131C59.2357 25.7027 59.1453 25.8505 59.1961 25.9162Z" fill="#FAFBFB"/>
<path d="M51.5452 30.6972C51.4995 30.7954 51.4508 30.8841 51.335 30.7672C51.2909 30.7156 51.2763 30.6623 51.3427 30.6206C51.4394 30.5599 51.4951 30.6243 51.5452 30.6972Z" fill="#030303"/>
<path d="M54.7664 30.9479C54.4154 30.9479 54.0643 30.9479 53.7131 30.9479C54.0642 30.8677 54.4153 30.8698 54.7664 30.9479Z" fill="#BF9769"/>
<path d="M54.4419 25.0044C54.7727 24.9307 55.1035 24.9156 55.4342 25.0046C55.1034 25.0045 54.7726 25.0045 54.4419 25.0044Z" fill="#BF9769"/>
<path d="M32.6336 25.3385C32.4416 25.4408 31.8836 25.4456 31.7056 25.3385C32.0231 25.3385 32.3155 25.3385 32.6336 25.3385Z" fill="#030303"/>
<path d="M29.4183 53.2208C29.4302 52.1946 30.509 51.0548 31.5008 51.0115C31.9029 50.994 32.2485 51.1228 32.5496 51.3831C32.907 51.6922 33.133 52.0953 33.3084 52.5262C33.4183 52.7962 33.3835 53.0742 33.2771 53.3447C32.971 54.1229 32.1817 54.5877 31.357 54.5026C31.0222 54.4681 30.683 54.4769 30.3558 54.381C29.7437 54.2015 29.4117 53.7896 29.4183 53.2208ZM32.3047 53.0146C31.951 53.0053 31.7746 53.1068 31.7753 53.2897C31.776 53.4567 32.2194 53.9834 32.3813 54.0085C32.3968 54.0109 32.4138 54.0078 32.4293 54.0039C32.5874 53.965 32.8957 53.5909 32.8843 53.4323C32.8657 53.1735 32.6639 53.1001 32.4606 53.0393C32.3952 53.0197 32.3248 53.0176 32.3047 53.0146Z" fill="#030303"/>
<path d="M44.7496 60.82C43.9052 60.8286 43.12 60.6059 42.3227 60.4719C41.4631 60.3274 40.6102 60.2551 39.7772 60.603C39.682 60.6427 39.5776 60.6761 39.5001 60.7404C39.2115 60.9797 38.9125 61.0247 38.5707 60.8584C38.1676 60.6622 37.8278 60.4098 37.6907 59.9558C37.533 59.4338 37.7489 58.9093 38.2507 58.5867C38.4629 58.4503 38.697 58.3684 38.9408 58.3059C39.0404 58.2803 39.1072 58.3222 39.1835 58.3567C39.6835 58.5826 40.2121 58.6391 40.7512 58.6205C41.5983 58.5914 42.4273 58.4181 43.2617 58.2883C43.5512 58.2433 43.8409 58.2861 44.1302 58.28C44.4103 58.274 44.6876 58.2388 44.964 58.3329C45.6577 58.5691 45.965 59.1154 46.1222 59.7847C46.1518 59.9108 46.1381 60.0503 46.1822 60.1693C46.2789 60.4301 46.142 60.5237 45.9353 60.6097C45.5448 60.7721 45.1411 60.8342 44.7496 60.82Z" fill="#BF9769"/>
<path d="M44.515 63.0514C44.5078 63.7353 44.2682 64.2089 43.7425 64.5191C43.3119 64.7732 42.8591 64.6313 42.6445 64.1706C42.4905 63.8402 42.4625 63.481 42.4363 63.1238C42.4114 62.7837 42.3799 62.4428 42.3804 62.1024C42.3809 61.7222 42.5882 61.438 42.8956 61.2502C43.1728 61.0809 43.4535 61.1711 43.6901 61.3626C44.2468 61.8133 44.4751 62.4267 44.515 63.0514Z" fill="#FAFBFB"/>
<path d="M41.7659 62.7842C41.7707 63.1033 41.7263 63.4137 41.5922 63.7046C41.296 64.3472 40.7963 64.4931 40.2163 64.4811C39.9755 64.4761 39.8472 64.3088 39.8244 64.0691C39.8011 63.8233 39.8137 63.5773 39.8761 63.3388C40.0037 62.8508 39.9418 62.3233 40.18 61.859C40.2554 61.712 40.3178 61.5562 40.4082 61.4193C40.7328 60.9276 41.1283 60.942 41.4335 61.4525C41.62 61.7647 41.7093 62.1101 41.7496 62.4694C41.7613 62.5736 41.7608 62.6792 41.7659 62.7842Z" fill="#FAFBFB"/>
<path d="M43.5667 51.703C43.6304 50.0331 44.531 48.6506 46.21 47.8407C48.0432 46.9565 49.9033 46.9451 51.7207 47.9371C52.2849 48.245 52.7432 48.6847 53.1154 49.2145C53.5822 49.8789 54.036 50.5452 54.194 51.3721C54.6407 53.7098 53.0786 56.1223 50.7679 56.6465C50.2904 56.7548 49.8093 56.7773 49.3217 56.7376C49.1336 56.7223 48.9392 56.7307 48.7527 56.7604C46.8289 57.0667 45.0064 55.8847 44.1394 54.2063C43.7723 53.4958 43.5713 52.7437 43.5667 51.703ZM46.3236 52.8357C46.4726 52.7109 46.6348 52.687 46.7994 52.6945C47.0671 52.7067 47.3341 52.7401 47.6019 52.7491C47.9323 52.7601 48.0582 52.6139 47.9788 52.2942C47.8048 51.5934 47.4519 50.9992 46.871 50.5689C46.3433 50.178 45.7721 50.1463 45.2209 50.5025C44.506 50.9645 44.1096 51.6508 44.0458 52.5021C43.9754 53.44 44.4321 54.0039 45.3457 54.1893C45.906 54.3031 46.4486 54.213 46.9798 54.0371C47.4017 53.8973 47.4338 53.7106 47.0895 53.4237C46.8441 53.2192 46.5831 53.0337 46.3236 52.8357Z" fill="#FBFCFC"/>
<path d="M43.6338 27.1187C43.6799 28.2135 43.2463 29.0751 42.7942 29.9374C42.5733 30.3586 42.3002 30.7384 41.9671 31.0618C41.7603 31.2626 41.4857 31.4102 41.2173 31.5218C40.9986 31.6127 40.7444 31.2037 40.7821 30.8997C40.8477 30.3695 41.1261 29.9351 41.4073 29.5174C42.0059 28.6284 42.6438 27.7664 43.2727 26.8986C43.3226 26.8298 43.3194 26.6447 43.4626 26.7184C43.581 26.7794 43.6384 26.9232 43.6417 27.069C43.6426 27.111 43.6273 27.1534 43.6338 27.1187Z" fill="#F5D81D"/>
<path d="M49.6455 32.1123C49.8254 32.1275 49.946 32.1236 50.0762 32.1709C50.3118 32.2564 50.4975 32.0536 50.7049 31.9793C51.1599 31.8164 51.5935 31.7958 52.0265 32.056C52.1952 32.1574 52.2665 32.3072 52.3574 32.4655C52.8228 33.2755 52.1398 34.3496 51.2784 34.2984C50.9122 34.2766 50.5367 34.3914 50.1728 34.3592C49.7571 34.3224 49.389 34.1197 49.1093 33.7843C48.9134 33.5492 48.8131 33.2723 48.7368 32.9802C48.6677 32.7153 48.8503 32.3421 49.1279 32.2298C49.3096 32.1564 49.4936 32.0764 49.6455 32.1123Z" fill="#3CA2A2"/>
<path d="M32.3045 53.0146C32.3246 53.0176 32.3951 53.0197 32.4604 53.0393C32.6637 53.1001 32.8655 53.1735 32.8841 53.4323C32.8955 53.5908 32.5872 53.965 32.4292 54.0039C32.4136 54.0077 32.3966 54.0108 32.3811 54.0084C32.2192 53.9834 31.7758 53.4567 31.7751 53.2897C31.7744 53.1068 31.9508 53.0053 32.3045 53.0146Z" fill="#FAFBFB"/>
<path d="M46.3235 52.8357C46.5829 53.0338 46.844 53.2192 47.0894 53.4238C47.4337 53.7107 47.4016 53.8973 46.9797 54.0371C46.4485 54.2131 45.9059 54.3031 45.3456 54.1894C44.4319 54.004 43.9753 53.44 44.0456 52.5021C44.1095 51.6509 44.5059 50.9646 45.2208 50.5025C45.7719 50.1463 46.3432 50.178 46.8708 50.5689C47.4518 50.9993 47.8046 51.5935 47.9787 52.2942C48.0581 52.614 47.9322 52.7601 47.6017 52.7491C47.3339 52.7402 47.067 52.7067 46.7992 52.6945C46.6346 52.6871 46.4725 52.711 46.3235 52.8357Z" fill="#030303"/>
</svg>
