<svg viewBox="0 0 80 80" xmlns="http://www.w3.org/2000/svg">
<rect width="100%" height="100%" fill="white"/>
<path d="M70.793 37.1484L42.8499 9.20694C41.2416 7.59769 38.6317 7.59769 37.0215 9.20694L31.219 15.0094L38.5797 22.3702C40.2902 21.7922 42.2518 22.1799 43.6154 23.5434C44.9853 24.9157 45.3702 26.8939 44.7782 28.6099L51.872 35.7039C53.5882 35.1127 55.5686 35.4952 56.9392 36.8682C58.855 38.7832 58.855 41.887 56.9392 43.8032C55.023 45.7197 51.9194 45.7197 50.0019 43.8032C48.561 42.3606 48.2051 40.2445 48.9344 38.4692L42.319 31.8537L42.3184 49.263C42.7978 49.5002 43.2358 49.8131 43.6154 50.1904C45.5309 52.1053 45.5309 55.2093 43.6154 57.127C41.6989 59.0426 38.5938 59.0426 36.6803 57.127C34.7645 55.2093 34.7645 52.1056 36.6803 50.1907C37.1394 49.7312 37.685 49.3677 38.2855 49.1203V31.5489C37.6841 31.3034 37.1382 30.9395 36.6803 30.4787C35.2287 29.0292 34.8797 26.8994 35.6235 25.1172L28.3675 17.8604L9.2075 37.0192C7.5975 38.6299 7.5975 41.2403 9.2075 42.8496L37.151 70.7917C38.7597 72.4013 41.3693 72.4013 42.9798 70.7917L70.7926 42.9795C72.4022 41.3693 72.4026 38.7577 70.793 37.1484Z" fill="#DE4C36"/>
</svg>
