<svg width="80" height="80" viewBox="0 0 80 80" fill="none" xmlns="http://www.w3.org/2000/svg">
<g clip-path="url(#clip0_1_2)">
<path d="M78.4912 36.4355L43.5625 1.50867C41.5522 -0.502891 38.2897 -0.502891 36.2769 1.50867L29.0237 8.7618L38.2247 17.9627C40.3628 17.2402 42.8147 17.7249 44.5191 19.4293C46.2316 21.1446 46.7128 23.6174 45.9728 25.7624L54.84 34.6299C56.9853 33.8909 59.4606 34.369 61.1741 36.0852C63.5688 38.479 63.5688 42.3587 61.1741 44.754C58.7788 47.1496 54.8991 47.1496 52.5025 44.754C50.7012 42.9509 50.2563 40.3055 51.1681 38.0865L42.8988 29.8171L42.8978 51.5787C43.4973 51.8751 44.0448 52.2666 44.5191 52.738C46.9137 55.1318 46.9137 59.0118 44.5191 61.409C42.1237 63.8034 38.2422 63.8034 35.8503 61.409C33.4556 59.0118 33.4556 55.1321 35.8503 52.7384C36.4242 52.1642 37.1062 51.7095 37.8569 51.4005V29.4362C37.1051 29.1293 36.4227 28.6743 35.8503 28.0984C34.0359 26.2865 33.5997 23.6243 34.5294 21.3965L25.4594 12.3255L1.50937 36.274C-0.503125 38.2874 -0.503125 41.5502 1.50937 43.5621L36.4387 78.4896C38.4497 80.5015 41.7116 80.5015 43.725 78.4896L78.4909 43.7243C80.5028 41.7118 80.5031 38.4471 78.4912 36.4355Z" fill="#DE4C36"/>
</g>
<defs>
<clipPath id="clip0_1_2">
<rect width="80" height="80" fill="white"/>
</clipPath>
</defs>
</svg>
