<svg xmlns="http://www.w3.org/2000/svg" viewBox="0 0 80 80">
  <rect width="100%" height="100%" fill="#fff"/>
  <path d="M20.4 45c-.5 0-1 .2-1.5 1-.3.5-1.1.6-1.5.5-.6-.2-1.3-.3-2 .2-.8.6-1.6.1-1.5-.8.2-1 .5-1.9 1.4-2.4 2-1.2.7-2 1.8-3.2 1-1.2.8-1.5.8-3.1-3.8-.6-5.9-1.7-8.3-4.7-2.3-3-3.3-5.5-3.5-9.2-.3-3.8 0-6.2 1.6-9.3a13 13 0 0 1 6.2-6.2c3-1.6 5.8-2 8.5-1.9 2.6 0 4.4.2 6 1.1 1.4.9 2.8 2 3.7 2a3 3 0 0 0 1.9-.6c0 3-2.5 3.2-4.8 3.2-2.4.1-3.8-.9-6-.5-2 .4-5.6 1.3-7.3 4.3-1.7 3-1.8 4.1-1.6 6.6.1 2.5 2.3 4.4 3.5 4.4 1.2 0 1.5-.3 2.5-1s6.5-7.5 8.3-9c1.9-1.5 3.7-2 5.7-2s2.4 0 4 .7 2.6 1.9 3.9 2.6l1.6-1.4c2.2-1.6 3.3-2 5.8-1.8 1.5.2 3.4 1 4.5 2 2 1.7 3.6 4.1 4.9 6 1 1.4 2.2 3 3.9 3.6 1.9.6 3.3-1.9 3.5-3.2.1-.8.3-1.5.3-2.3a9.9 9.9 0 0 0-1.4-5.2c-.8-1.3-2-2.5-3.2-3.1a10 10 0 0 0-3.4-1c-1.3 0-2.2.3-3.4.4-1.4.1-4 .4-5-.7-.8-.7-.9-1.1-1-2 .3.2.8.4 1.1.4 1 0 1.8-.7 2.5-1L55 7c2-.8 4.4-.8 6.5-.5 1.7.1 3.9.9 5.4 1.7a14.6 14.6 0 0 1 6.5 9c.6 2.6.8 6.7 0 9.4-.6 2-2.5 5.3-4.1 6.9a10.6 10.6 0 0 1-5.7 2.7l.2 1.2c.2.5.5 1 1.1.9.2 0 .4-.1.7.2.3.2.2 1.3-.8 1.8-.4.3-.9.3-1.6.4-.8 0-2 0-2.7-.2-.8-.1-1.3-.8-2.2-.9-1.4-.1-2.4-1.1-3.5-1.8l-1-.5.5 1.3.1 1.2.2.9c.2.2.3.5.7.6l1.3-.1c.4 0 .6-.3 1-.2l.8.4c.2.2.4.3.6.8.2.5.4 1.5.4 2.2 0 .7 0 1.3-.2 1.9a3 3 0 0 1-1 1.3c-.5.5-1.4 1.3-2.3 1.9l.5.7 1 .8c.3.3.4.5.4.8 0 .3 0 .8-.2 1.1-.7.8-1.4 1-2.3 1.4.1 1 .3 1.6 0 2.6 0 .4-.3 1.3-.7 1.5-.5.2-1.4.1-2 .2l-1.4.3c-.2.4-.7.8-.8 1.2-.1.3 0 .5 0 .8l.7 1.4v1.3c-.1.4-.3.8-.7 1.1-.3.4-1 .7-1.4 1-.4.3-.7.4-.6.9.1.7 1.1 1.8 1.9 2.1.4.2 1 .1 1.6-.1 0 .6-.6 1-1 1.4 1-.2 1.9-.8 2.5-1.4a6 6 0 0 1-1.8 2.3c-1 .8-1 .7-1.5 1 .9.2 1.7.1 2.4 0-.4.2-1 .5-1.8.6-.8 0-1.3 0-2-.2-.8-.1-1.5-.8-2.4-1.3 0 .3.2.7.5 1 .4.4 1 .6 1.6 1l-2.4-.4-1.3-.4-1-.8c0 .3.1.7.4 1 .3.3.8.4 1.2.6h-1.2l-1.3-.6a9.1 9.1 0 0 1-2.2-2.5c-.2-.4 0-.6.1-1-.2.2-.6.3-.8.6-.2.2-.3.4-.2.9 0 .4.4 1 .7 1.4-.8-.7-1.3-1-1.5-1.8-.2-.8.3-1.5.7-2l.6-.9-1.1-1.1c-.4-.4-.5-1-.8-1.4l-1.2-1c.4.7 1 1.6 1 2.2.2.6-.1 1-.3 1.2-.2.3-.5.4-.8.6-.3.2-.8 0-1 .3-.2.3-.2.7 0 1l.7 1.1c-.3-.1-.8-.5-1-.8-.2-.3-.5-.5-.5-.9s0-.7.2-1c.2-.4.9-.5 1.1-.7.3-.3.5-.5.5-.8 0-.3-.3-.6-.6-.8-.9-.6-2-1.2-2.7-2-.4-.4-.6-.7-.6-1-.1-.3 0-.6.2-1 .2-.3.8-.8 1-1.2 0-.4-.3-.5-.6-.6-.4-.2-1 0-1.2-.2-.3-.3 0-.8-.3-1-.3-.3-1-.2-1.5-.5a2 2 0 0 1-.6-1.1c-.2-.5-.2-1-.1-1.3 0-.3.4-.3.5-.5.2-.2.3-.3.1-.6-.2-.2-1 0-1.3-.3-.4-.3-.2-1-.5-1.4-.3-.3-.8-.2-1-.3-.4 0-.5.3-.6-.3-.2-.6-.2-2.3-.4-2.9-.3-.6-.7 0-1-.7v-2.6l-.4-2.6a9 9 0 0 1-4 1.6c-.2 4-.6 6.3.7 10.6 1.3 4.4 4 7 7.6 10.6-4.7-3.6-7-6.5-8.4-10.2-1.4-3.8-1.2-7-1-10.5Zm25.2-1.6c.4 0 .9.1 1.1.3l.8.5c.6.6 1 1.3 1.2 2.2l.2 1.8c-.2-.6-.3-1.2-.6-1.7-.4-.8-1-1.6-1.9-2a1 1 0 0 0-.6 0l.2.4c0 .1 0 .5-.3.6-.5.2-1 0-1.3-.3-.4-.3-.5-.8-.3-1.3s1-.5 1.5-.5Zm-4.5-.8c0-1 .3-1.7 1.2-2.2.4-.2 1-.5 1.7-.6.6 0 2 0 2.9.4.6.3 1 .8 1.7 1.1l1.5 1 2 1.6c.2.2.6.2 1 .3-.3 0-.7.2-1 0-.4 0-1-.4-1.2-.7l-1.4-1-1.4-.7-1.4-1c-.5-.2-1.3-.4-1.8-.4-.8 0-1.8.2-2.4.7-.5.5-.7 1-.6 1.6l.6-.7c.4-.4.9-.4 1.4-.3.6 0 1 .4 1.1 1l-.5-.4c-.5-.2-.8-.1-1.3.1-.5.3-.3.7-.4 1.1l-.2.6c-.2 0-.3-.1-.5-.3v.7l.3.8c-.4-.4-.8-.7-1-1.2a3 3 0 0 1-.3-1.5Zm.6-6.8.5-1.5c-.1.6 0 1.3-.3 1.7-.3.5-.8.4-1.2.5l1-.7Zm-6.3 9.1c.4-.3 1.3 0 2 0l-1.5.4c0 .2 0 .3-.2.5l-.4.3c0-.5-.2-1 .1-1.2Zm4.8-19c.4.2.9.5 1.3.5.3 0 .4-.2.6-.4.3 1.1.7 2.3 1.3 3.3.2.4.4.2.6.6l.4 1.8.6 1.4c-.5-.7-1.2-1.6-1.4-2.2l-.4-1.2-1-2.2h-.7c-.2 0-.2-.2-.3-.3-.2-.2-.5-.1-.7-.3-.2-.2-.3-.6-.3-1ZM38 31.3h1.2l1-.2c-.1-.5 0-1.5-.6-1.9-.3-.2-1.6 0-2 0l-2.4 1c.7-.5 1.3-1 2.2-1.3.5-.1 1.8-.3 2.3-.2.3 0 .3.2.5.4.5.7.5 1.4.6 2.2l.4.6.2.8c-.1-.2 0-.4-.4-.6h-1.5c.4.3.6.6.6 1.1 0 .7-.6 1.2-1.1 1.2-.9.1-1.3 0-1.6-.8v-1c-1 .1-1 0-1.7.7.4.6.6.9 1.2 1.2l1.3.5a6 6 0 0 0 1.6 0c.5 0 .7-.1 1-.5.4-.3.5-.8.6-1.1 0 .3 0 .8-.2 1-.4.8-1 1-1.9 1-.8 0-1.7-.1-2.5-.4-.6-.3-1.5-1-1.7-1.6-.2-.4 0-.9-.1-1.3.8-.6 1-.4 2-.6l1-.2Zm-4.7-3.7.1-.5c-.7-.2-1 .3-1.4 1.2-.2.3 0 .5-.2.7-.2.3-.5.2-.8.4l-.8.9c-.5.4-1.2.7-1.9 1 .5-.3 1.3-.8 1.6-1.3.1-.2 0-.7.3-.9.2-.2.3-.4.6-.4s.2-.4.2-.7l.5-.7.8-.8h1.3c.3-.1.1-.4.4-.5.2-.1.6 0 .9-.2.5-.2.7-.6 1-1 0 .9 0 1.5-.3 2.4-.4 1-.8 1.6-1.8 2.2l-1 .4.5-.7v-1.5Zm17.2 4.6c-.5 0-.6 0-1 .2l.6 1c0-.6 0-.8.4-1.2Zm-1.3-.5a6 6 0 0 1 2-.6h1.1l.8-1.1-.1-2c-.5-1.1-.9-1.1-1.5-1.7-.4-.5-.4-1.1-.5-1.9l-.3-.8c-.7-.2-1.5-.2-2.4-.2.4-.4.8-.8 1-1.4 0-.6 0-1.3-.4-1.9-.3-.5-.9-1-1.4-1.4-.5-.5-1.2-.9-1.7-1.2.7-.3 1.3-.6 1.9-.7 1.6-.3 3 .2 4.5 1.1.9.5 1.6 1 2.5 2 1 1 2.1 2.8 3 3.9 1 1 1.7 2 2.5 2.6.7.6 1.4.8 2.2 1.2l1.2 1.2 1-1.1 1.4.1.3-1.7 1.4-.4-.2-2.3 1-.7-.7-1.5.7-1.5-1-1.8.4-1.8-1.1-1-.2-1.8-1.6-.6-.7-1.7h-1.8l-.9-1.2-1.2.1-1.3-.1-.8-.6-1.1.7-1.4-.7-2.7 1L55 8.8l1.8-.3 1.4-.3 1.9.6 1.6-.4 1.6 1L65 9l.8 1.5 1.7.2 1 1.7 1 .6.2 2.1 1 1-.4 1.8 1 1.4-1 1.5 1.2 1-1.5 1.2 1.5 1.5-1.8.6 1.2 1.6-1.4.3.9 1.8h-1.6l.8 1.3-1.8-.2.5 1.9-1.4-1.2-.4 2.3-1-1.6-.4 2-1.2-1.5v2.2l-1.2-2c.3 1.1.2 2.4 1 3.4 2.2-.3 3.7-.9 5.4-2.5 1.6-1.6 3.4-4.7 4-6.8a23 23 0 0 0 0-8.8c-.6-2.3-1.3-3.4-2.6-5.2-1.2-1.3-2.4-2.7-4-3.6a15 15 0 0 0-11-1.1c-1.4.6-2.6 1.8-4.2 2.3-.5.2-.9.2-1.3 0 .4.8.8 1.2 1.8 1.4.7.2 2.3.1 3.5 0 1.2-.1 1.8-.5 3.5-.5 1.6 0 2.9.7 3.6 1.1a9 9 0 0 1 4.5 5.9 12.5 12.5 0 0 1 0 5.4c-.5 1.9-1.6 3.9-4 3.6-1.4-.2-3.5-3-4.2-4-1.5-2-3-4.2-4.8-5.8a7.3 7.3 0 0 0-4.2-1.9c-2.8-.2-3.6.3-5.7 2l1.3.5c1 .4 1.9 1 2.6 1.7.9.8 1.2 1.3 1.2 2.4 0 .7-.5 1.3-1 1.9l-1.1.8c-.4.4-.8.7-.4 1.3l.7.5c.4.3.2 1.4-.3 1.7-.6.4-1.4.3-2-.2.7 0 1.1-.2 1.1-.7 0-.4-.4-.6-.8-.8-1-.5-1.8-.4-2.8-1.1-1-.8-1-1.2-1.2-2.3-.5 0-1 0-1.6.3-.7.2-1.4.7-2 .8-1.4.4-1.7.3-2.5 0-1.4-.3-3.3.3-5.1.9-.3.1-1.6 0-2.4.3-1.3.5-3 1.6-4.1 2.4a22.4 22.4 0 0 0-4.8 10c-.1 1.4.2 2.3-.6 3-.9.7-.9 2.4-1.2 3-.3.4-.6.2-1.2.9-.7.7-1 .6-1 1.9.6-.4 1.4-.8 2-.8.7 0 .7.8 2.3-.8.8-.9 2.5-1 3.6-1.3 1.2-.4 3.2-1.1 5.3-3.5 2-2.3 3-4.7 3.4-8.2 0 .6.2 1.3 0 3-.4 1.7-1 3.7.3 6l.7 1.4c-.4-.6-1.3-1.6-1.6-2.3l-.6-1.6a12.3 12.3 0 0 1-3.5 4c0 1-.1 2 .2 2.9.3 1-.2 2 0 2.6.3.6.8.2 1 .8.2.6 0 1.9.2 2.4.3.6 1 .3 1.3.5l.6.7c.2.2 0 .8.3 1 .3.2.9 0 1.3.2.3.2.4.7.3 1 0 .5-.5.7-.7 1a1 1 0 0 0 0 1.1c.3.4.8.6 1.2.8.5.2 1.1 0 1.6.3s1 .8 1.2 1.2c.2.4.3.6.3 1s-.2.9-.4 1.3-.7.8 0 1.6l1.2.9c0-.9-.4-1.5-.2-2.1.3-.7 1-.8 1.4-1l1-1v1.2c-.2.6-.4 1.2.6 1.3.4 0 .8-.2 1.3-.4-.3.4-.7.8-.7 1.3-.1.5 0 1 .3 1.6.4.5 1 .9 1.4 1.2l1 .5v1.5l.5 1.3c.3.4.7.6 1.2.9-.3-.5-.7-1-.7-1.6 0-.6.2-1 .7-1.5.5-.5 1.8-.9 2.4-1.4a3 3 0 0 0 1-1.2c.2-.5.2-1.3.2-1.7l.3 1.4c0 .6-.4 1.5-.5 2a3 3 0 0 0 1.4-1.5c.2 0 0 .3.1.8l.9-.7.7-.8v-1.1l-.8-1.4c-.3-.4 0-.8 0-1.4-.5 0-1-.3-1.5-.2-.5 0-1.2.7-1.7.7-.6 0-1-.5-1.4-.7l-1.4-.2c.6-.6 3-.8 4.5-1a28 28 0 0 1 4.1-.5c.7 0 1.5.2 2 .1.3-.1.3-.4.4-.7.3-1 .2-1.8 0-2.7-1.3-.1-2.6-.3-3.9-.2-1.2 0-2.7.7-4 .7-1 0-2.7-.2-3.7-.8-1.1-.7-2-2.3-2.4-2.8l-1.6-3c-.4-.8-.4-1-.8-1.3-.3-.3-.8-.3-1.2-.5.5 0 1 0 1.4.2.6.3 1.3 1.8 1.7 2.5.4-1.4.3-2 1.5-2.8-1 1.1-1 2-1.2 3.2.8 1.3 1.9 3.4 3.3 4l2 .4c1.8.2 3.5-.3 5.2-.7 1.3-.4 2.5-.2 4-.1.6 0 1.8-.3 2-.9a1 1 0 0 0 0-.9c-.2-.3-.7-.5-1-.7l-.7-1a18 18 0 0 1-3 .4l2-.7c.6-.2 1.3-.6 1.8-1 .5-.3.9-.5 1.3-1l1.1-1.3c.3-.5.3-1 .3-1.6a5 5 0 0 0-.2-2c-.2-.5-.7-.7-1-.8l-1 .2c-.4 0-.8.3-1.3 0-.6-.2-1.2-.7-1.8-1.5l-1.5-3c-1-1.8-2.2-3.4-3.3-5-.1-.3-.3-.9-.3-1.4-.1-.9-.1-1.9.2-2.8.2-.6.5-1.4 1.2-1.6.3-.2.7-.2 1-.1.2 0 .4.4.3.7-.1.4-.4.4-.5.6a2 2 0 0 0-.5 1h1c.3 0 .6.3.8.8-.4-.4-.6-.6-1.1-.6l-.8.1c0 .3-.1.7-.3 1l-.5.4v1.2Zm3.5-.5c.2 0 .2.1.4.3.2.1.5.3.6.6.2.4.2 1 .1 1.2 0 0-.3 0-.4-.2l-.4-.5-.6-.1c.1.3.2.6.1.8 0 .6-.4 1-1 1h-.8l.4.5 1-.1.9-.5 1-.2-.8.7.6 1.8 1.4.8c.5.3 1.2.9 1.9 1.2a7 7 0 0 0 1.8.7c.8.1 1.4.7 2 .8h2.7c.7 0 1.5-.3 1.6-1-.6.1-1.4 0-1.8-1-.2-.5 0-1.3-.4-1.8-.2-.6-.6-.7-1-1.4-.6-.6-1.3-1.7-1.7-2.5-.5-1-.6-2-1-2.7-.3-.8-.8-1.4-1.3-2a7.1 7.1 0 0 0-3.1-3l-2.4-.5c-.3.1-.7.3-.8.6 0 .4 0 1 .3 1.3.5.4 1.2 1 1.4 1.7.2.5.2 2 0 2.5 0 .5-.4.7-.7 1Zm.1 3.8-.4.4-.9.2 1.3 2 1.1 2.2v-1.2c0-.4-.3-.8-.4-1.4l-.7-2.2ZM41.5 20.5c0 .6 0 1.7.2 2.3.2.8.3 1.2 1 1.6 1 .9 1.8.7 2.6 1.2.4.2 1 .6 1.1 1 .2.4 0 .9-.4 1 .5.1 1.2-.5.9-1.1-.1-.3-.7-.5-1-.8v-1c.2-.5 1.3-1 1.7-1.5.6-.7.8-1.3.5-2.2-.5-1.3-2.4-2.3-3.5-2.8l-1.2-.4c.8.5 1.7 1 2 2 .4 1 .1 1.3.1 2 0 .4.5.6.7.9.2.2.2.3 0 .6 0-.3 0-.4-.3-.6-.3-.2-.6-.2-.8-.6-.2-.7.3-1.4-.3-2.2-.4-.6-1-1.3-1.8-1.3a3 3 0 0 0-1 .2l-.5-.7c-1-1-1.8-1.7-3.3-2.4a7.3 7.3 0 0 0-3.9-.7c-1.7 0-3.4.2-5.3 1.9-2 1.7-7 8.2-8.3 9-1.2.9-1.5 1.2-3 1.2s-4-2.2-4-5c-.1-2.7-.2-3.7 1.7-7 2-3.3 5.3-4.3 7.9-4.6 2.5-.4 4 .5 5.9.5 1.9 0 3.7-.3 4.3-1.8-.3.2-.7.4-1.7.3-1 0-2.4-1.2-4-2-1.5-.8-3.3-.9-5.5-1a15.2 15.2 0 0 0-14 7.8c-1.7 3-2 5.3-1.7 9a15 15 0 0 0 3.5 8.8c2 2.6 4.2 3.9 8 4.3l.8-3.5-1.4 2v-2.2l-1.3 1.6-.6-2.2-1 1.7-.5-2.4-1.5 1.2.4-2-2 .2 1-1.4H10l1.1-1.8-1.6-.3 1.3-1.7-2-.6 1.6-1.6L9 22.1l1.3-1L9 19.5l1.3-1.5-.5-2 1-.9.4-2.2 1.2-.6 1-1.8 2-.2.9-1.6 2 .1 1.7-1 2 .5 2-.7 1.6.4 2.1.3 2 1.6-3-1-1.6.7-1.3-.8-.8.6-1.6.2-1.4-.1-1 1.2h-2l-.8 1.7-1.9.7-.1 2-1.4 1 .5 1.8-1.2 1.9 1 1.6-1 1.6 1.2.7-.3 2.5 1.6.4.4 1.8 1.7-.2 1.1 1.2 1.3-1.3a15 15 0 0 0 5.4-4c2.1-2.3 3.4-4.5 6.2-6.1 2.1-1.2 3.8-1.6 6-1.2 2.3.4 3 1.7 4.6 3.1.2-.3.2-.4.5-.6l-.3 1.2Z"/>
</svg>