<svg width="80" height="80" viewBox="0 0 80 80" fill="none" xmlns="http://www.w3.org/2000/svg">
<g clip-path="url(#clip0_1_897)">
<path d="M13.6517 47.68C13.6517 47.6795 9.41275 48.6315 9.41275 48.6315L11.9125 44.7119L14.7746 38.1569L6.21008 34.388L0.950193 26.0185L0.29834 15.427L4.27548 7.09158L12.5651 1.94322L22.8816 1.39551L29.1713 4.59349L32.7354 4.83002L30.0303 7.36604L21.7962 6.52634L14.4824 8.51541L10.3715 13.2723L9.03967 19.9396L11.755 24.9666L15.4769 25.4146L28.7072 12.1323L35.6551 11.1613L42.5361 15.097L45.6325 12.6983L50.2295 11.1179L55.8609 13.0449L65.273 24.5136L68.6864 25.1538L71.516 21.3042L71.2512 14.2795L67.4467 8.79803L62.114 6.97974L57.7999 7.73556L52.4126 7.30483L51.649 5.58931L56.1105 3.82105L59.6887 1.99233L65.1682 1.61686L73.2377 4.7883L78.9119 12.7228L79.6455 23.9823L74.7498 33.141L67.863 36.6321L68.0427 39.3072L69.959 39.549L69.1655 41.3475L64.6891 41.5138L56.0656 37.6598L57.3082 42.8891H61.5451L62.8027 47.3173L58.5658 52.3198L60.8564 55.0704L57.937 57.8211L57.4879 62.0075L51.5891 63.7606L53.0264 68.4457L43.8789 76.7279L37.5984 68.8387L33.0738 68.4465L34.3633 63.762L29.1978 61.3667L29.2883 57.831L25.7127 54.2443L22.8882 44.3702L13.6517 47.6796V47.68Z" fill="white"/>
<path d="M16.8698 46.981C16.3257 47.0183 15.6174 47.2644 15.1422 48.1242C14.7543 48.8263 13.8456 48.9383 13.4213 48.7969C12.7145 48.5611 11.8111 48.3976 10.936 49.027C10.061 49.6564 9.11598 49.1804 9.28171 48.0332C9.44744 46.8861 9.85796 45.8643 10.9476 45.2315C13.3273 43.8495 11.6734 42.8877 12.9795 41.5007C14.2881 40.1111 13.999 39.6858 13.9556 37.7984C9.53263 37.1277 7.02583 35.8408 4.22663 32.3103C1.42744 28.7797 0.342316 25.8735 0.0521714 21.4471C-0.237973 17.0207 0.0135453 14.1521 1.90802 10.4779C3.8025 6.80365 5.79713 5.03493 9.25372 3.20033C12.7103 1.36602 16.0971 0.926672 19.2276 0.980174C22.3581 1.03352 24.4441 1.26506 26.213 2.28385C27.9817 3.30264 29.5998 4.58471 30.6313 4.59393C31.663 4.60315 32.3653 4.33035 32.8667 3.94254C33.0005 7.37373 29.9414 7.67176 27.2047 7.74431C24.4678 7.8167 22.786 6.67383 20.2653 7.09897C17.7446 7.5241 13.6174 8.68209 11.6069 12.2148C9.59641 15.7476 9.52784 16.9964 9.69492 19.9589C9.862 22.9216 12.388 25.1319 13.8138 25.1559C15.2396 25.18 15.5579 24.7632 16.8059 23.9414C18.054 23.1196 24.4257 15.1573 26.5998 13.3687C28.7741 11.5802 30.9197 11.028 33.2363 10.9993C35.553 10.9706 36.145 11.0499 38.0134 11.8229C39.8818 12.5958 41.03 14.0194 42.5364 14.8896C43.3064 14.4321 43.7847 13.749 44.4912 13.2277C47.0179 11.3635 48.3307 10.8611 51.3338 11.1561C53.0599 11.3257 55.2363 12.3211 56.5349 13.4609C58.8472 15.4905 60.7576 18.3161 62.3013 20.4626C63.5033 22.1343 64.9178 24.1344 66.9371 24.7597C69.142 25.442 70.8011 22.5593 71.0447 20.9603C71.1827 20.0543 71.3628 19.2602 71.3643 18.2631C71.3658 17.2657 71.2649 16.0554 70.9802 15.0161C70.6954 13.9768 70.2076 12.9425 69.6794 12.085C68.8198 10.6893 67.4132 9.22874 65.9498 8.4773C65.1284 8.05564 63.1961 7.28894 61.978 7.26204C60.4855 7.22939 59.3485 7.73554 57.9686 7.83045C56.2983 7.94547 53.3149 8.32451 52.0055 7.02189C51.1722 6.19292 51.0674 5.63992 50.925 4.55902C51.2931 4.86521 51.808 5.06652 52.2663 5.10567C53.3122 5.19483 54.2914 4.33277 55.1357 3.83327C55.8311 3.42174 56.8159 2.68632 57.7293 2.31468C60.0762 1.35952 62.9591 1.38703 65.4366 1.64289C67.4224 1.84783 69.997 2.73967 71.7386 3.73458C73.4884 4.73388 75.1747 6.41886 76.4098 8.00728C77.9637 10.0059 78.8132 11.7206 79.3759 14.2133C80.0953 17.3965 80.2947 22.1783 79.425 25.3169C78.7397 27.7902 76.4639 31.5896 74.5266 33.452C72.6159 35.289 70.4097 36.1757 67.9008 36.6607C67.9991 37.1718 68.0152 37.6485 68.145 38.0676C68.3295 38.6625 68.6822 39.3256 69.4068 39.1158C69.6958 39.0323 69.8504 38.9599 70.2314 39.2963C70.6122 39.6327 70.4139 40.9323 69.3424 41.5155C68.7991 41.8113 68.2257 41.8755 67.3556 41.8931C66.4855 41.9106 65.1274 41.9144 64.1827 41.7474C63.2382 41.5805 62.6739 40.8238 61.6277 40.7053C60.0109 40.5228 58.773 39.3436 57.4766 38.5003C56.9357 38.1483 56.7532 38.1447 56.4415 37.9668C56.6099 38.4873 56.8345 39.0279 56.9465 39.5283C57.0587 40.0287 57.0108 40.4922 57.0704 40.8927C57.1297 41.2929 57.2397 41.6041 57.3038 41.9287C57.5628 42.1625 57.6456 42.5182 58.0807 42.63C58.5161 42.7417 59.1977 42.5677 59.6431 42.5073C60.0885 42.4468 60.387 42.2018 60.7365 42.2689C61.0862 42.3359 61.4175 42.5886 61.7105 42.8254C62.0035 43.0622 62.2553 43.0969 62.4924 43.6878C62.7296 44.2787 62.9471 45.4888 62.9796 46.2977C63.0121 47.1066 62.9223 47.8367 62.6848 48.4786C62.4474 49.1204 62.2387 49.405 61.5957 50.0407C60.9526 50.6765 59.9055 51.6095 58.8607 52.2593C59.0531 52.5469 59.1384 52.8102 59.4384 53.1223C59.7385 53.4345 60.364 53.7844 60.6423 54.1137C60.9203 54.4431 61.0613 54.6793 61.0654 55.0486C61.0697 55.4179 61.0519 55.8979 60.7549 56.3005C60.0151 57.303 59.1402 57.4825 58.0763 57.954C58.2553 59.0818 58.4012 59.8875 58.1427 61.0136C58.0371 61.4724 57.8027 62.5128 57.242 62.7797C56.6812 63.0466 55.5998 62.9174 54.9153 63.0271C54.2308 63.137 53.8477 63.2413 53.3141 63.3483C52.9898 63.8215 52.507 64.3437 52.3416 64.7677C52.1758 65.192 52.2258 65.344 52.3649 65.7772C52.504 66.2103 52.9776 66.841 53.1117 67.3482C53.2458 67.8554 53.2719 68.4014 53.1467 68.91C53.0213 69.4186 52.8067 69.7876 52.3773 70.2392C51.9481 70.691 51.1036 71.0457 50.6829 71.4117C50.2619 71.7779 49.8428 71.8219 49.9577 72.4278C50.1156 73.2599 51.3201 74.6096 52.1914 74.9309C52.7136 75.1236 53.4146 75.0628 54.0488 74.7926C54.0058 75.5034 53.3965 75.9825 52.9984 76.4544C54.0765 76.1433 55.1219 75.5475 55.845 74.7578C55.6207 75.4437 54.8491 76.5447 53.695 77.5115C52.5408 78.4783 52.5479 78.2804 51.9742 78.6651C53.021 78.8774 53.9944 78.82 54.8053 78.6729C54.3608 78.9203 53.6321 79.2683 52.6669 79.3706C51.7017 79.4727 51.1066 79.4005 50.2367 79.1872C49.3668 78.9738 48.5727 78.1756 47.5186 77.6253C47.6213 78.02 47.6943 78.4948 48.1376 78.9007C48.5809 79.3066 49.2516 79.5131 49.9646 79.8642C49.057 79.7602 48.1033 79.7288 47.2115 79.5303C46.5512 79.3833 46.1077 79.2273 45.6245 78.9858C45.1417 78.7443 44.7689 78.392 44.3412 78.0952C44.5461 78.4904 44.6069 78.9553 44.9558 79.2811C45.3046 79.6069 45.8715 79.7283 46.3301 79.9521C45.8518 79.9416 45.3917 80.0463 44.8959 79.9204C44.3997 79.7945 43.9344 79.5967 43.4186 79.2131C42.9029 78.8295 42.3709 78.3572 41.9308 77.8743C41.4909 77.3915 40.9478 76.7655 40.7834 76.3202C40.6187 75.8748 40.8822 75.5634 40.9316 75.1854C40.6278 75.3868 40.2541 75.4978 40.0207 75.7902C39.7873 76.0827 39.5804 76.3497 39.6837 76.8595C39.7872 77.3693 40.2532 77.9924 40.5828 78.5594C39.5994 77.7477 39.0503 77.4352 38.8163 76.456C38.5973 75.5392 39.1639 74.707 39.5947 74.0138C39.8086 73.6695 40.1287 73.3491 40.3287 73.0168C39.8845 72.578 39.3768 72.201 38.9961 71.7005C38.6155 71.2003 38.4556 70.5232 38.0671 70.0446C37.6785 69.5658 37.1557 69.2628 36.7004 68.8724C37.1006 69.7402 37.7583 70.8046 37.9011 71.4763C38.0438 72.1479 37.7411 72.559 37.505 72.9215C37.2687 73.2841 36.8875 73.365 36.526 73.5877C36.1644 73.8107 35.6021 73.6349 35.3867 73.9657C35.1714 74.2964 35.1136 74.7939 35.3194 75.1216L36.1638 76.467C35.8527 76.3085 35.3167 75.8473 35.0751 75.5203C34.8335 75.1932 34.4628 74.8911 34.412 74.4489C34.3613 74.0068 34.3366 73.6231 34.6203 73.2293C34.9041 72.8356 35.6811 72.7038 36.0289 72.401C36.3767 72.0983 36.5718 71.9012 36.5519 71.51C36.5321 71.1187 36.1535 70.8388 35.828 70.5921C34.8344 69.8398 33.5597 69.1465 32.7159 68.2397C32.2392 67.7274 32.0105 67.3137 31.9147 66.9602C31.819 66.6069 31.9202 66.3312 32.157 65.8966C32.3939 65.4617 33.2061 64.8812 33.3049 64.409C33.4036 63.9368 32.9933 63.8354 32.6231 63.6689C32.2529 63.5023 31.5497 63.7542 31.2062 63.4645C30.8629 63.1748 31.3071 62.566 30.9201 62.2322C30.5332 61.8983 29.6477 62.0847 29.1906 61.7256C28.7335 61.3663 28.5446 60.9205 28.3871 60.3994C28.2296 59.8783 28.2118 59.3074 28.3185 58.9301C28.4253 58.5527 28.746 58.4866 28.9394 58.2911C29.1328 58.0955 29.3007 57.9333 29.0429 57.6416C28.785 57.3501 27.9402 57.658 27.4545 57.2836C26.9689 56.9093 27.2662 56.0126 26.9228 55.6346C26.5795 55.2566 25.9632 55.4046 25.6381 55.2838C25.313 55.1631 25.1855 55.5891 24.9861 54.9153C24.7866 54.2414 24.7813 52.2327 24.513 51.4831C24.2447 50.7335 23.7178 51.4325 23.4732 50.6874C23.2286 49.9425 23.4605 48.7511 23.3503 47.6259L22.851 44.5644C21.1092 45.7455 19.9594 46.1164 18.0882 46.4501C17.932 51.072 17.5019 53.7938 19.0559 58.9216C20.6099 64.0493 23.755 67.0713 27.9977 71.4126C22.3992 67.1785 19.7263 63.7363 18.0534 59.3265C16.3802 54.9161 16.7015 51.2278 16.8698 46.981ZM46.6191 45.1233C47.0498 45.1427 47.5732 45.2531 47.8756 45.4514C48.1782 45.6497 48.4993 45.8117 48.7739 46.0938C49.459 46.7981 49.9728 47.6475 50.1999 48.6235C50.3447 49.2457 50.3662 50.0437 50.4189 50.7743C50.2116 50.099 50.0722 49.3949 49.7768 48.7899C49.3111 47.836 48.5198 46.9048 47.5373 46.4761C47.213 46.3343 46.9966 46.3606 46.8182 46.3857C46.898 46.5209 47.0317 46.6343 47.0375 46.8324C47.0434 47.0306 46.9995 47.4182 46.6667 47.5811C46.1301 47.844 45.5336 47.6591 45.1192 47.2893C44.7014 46.9166 44.559 46.2861 44.7777 45.7443C45.0384 45.0986 46.0316 45.097 46.6191 45.1233ZM41.2186 44.2044C41.2726 43.0943 41.6695 42.1582 42.655 41.6138C43.1646 41.3324 43.9497 40.9684 44.6711 40.8829C45.3642 40.8008 47.0499 40.8608 48.064 41.328C48.8426 41.6868 49.373 42.2454 50.0568 42.6536C50.7404 43.0619 51.2267 43.3357 51.8776 43.7936C52.8768 44.4965 53.4625 45.2705 54.1552 45.7344C54.4883 45.9574 54.9569 45.9243 55.3992 46.0606C55.0553 46.1637 54.6058 46.2773 54.2348 46.1576C53.7722 46.0083 53.1255 45.5813 52.7666 45.2753C52.1324 44.7345 51.8036 44.4707 51.1115 44.0628C50.6983 43.8197 50.0179 43.5333 49.5638 43.2344C49.1094 42.9354 48.3207 42.2795 47.8841 42.0575C47.3292 41.7755 46.33 41.6186 45.7121 41.6369C44.8608 41.662 43.6287 41.8038 42.97 42.4071C42.3156 43.0068 42.067 43.5344 42.2146 44.3132C42.4611 44.0266 42.6252 43.6666 42.872 43.4535C43.3835 43.0125 43.9703 42.9912 44.6069 43.0748C45.3221 43.1688 45.6822 43.5858 45.9184 44.2712C45.7594 44.1533 45.4672 43.8944 45.2365 43.8141C44.695 43.6255 44.2855 43.6836 43.7783 43.9582C43.1794 44.2825 43.3423 44.7625 43.2561 45.2963C43.2165 45.5425 43.1245 45.7408 43.0587 45.9631C42.8336 45.903 42.6253 45.8083 42.4549 45.6379C42.462 45.8872 42.426 46.1053 42.4766 46.3858C42.527 46.6662 42.6623 46.9993 42.755 47.3059C42.338 46.8849 41.9113 46.4928 41.642 45.9492C41.3724 45.4053 41.1897 44.8016 41.2186 44.2044ZM41.9402 36.1248C42.2476 35.6643 42.3376 34.9579 42.5271 34.3836C42.4513 35.111 42.597 35.9109 42.2452 36.4378C41.8934 36.9646 41.2755 36.8723 40.7636 37.0255C41.1619 36.719 41.6327 36.5853 41.9402 36.1248ZM34.5817 46.9109C34.9763 46.5883 36.0414 46.8462 36.838 46.9038C36.2655 47.0517 35.693 47.1998 35.1205 47.3478C35.0672 47.5444 35.0913 47.7698 34.9606 47.9374C34.8297 48.1051 34.5812 48.1672 34.3917 48.2819C34.4104 47.7654 34.187 47.2332 34.5817 46.9109ZM40.1946 24.5099C40.6701 24.7683 41.2735 25.11 41.6935 25.1206C42.1134 25.1312 42.2233 24.8434 42.4704 24.6773C42.859 25.9567 43.3052 27.3623 43.9669 28.5232C44.2442 29.0096 44.421 28.7835 44.6318 29.2722C44.8423 29.7608 44.9358 30.7551 45.1356 31.3795C45.3356 32.0038 45.5964 32.4633 45.8268 33.0051C45.2417 32.1682 44.4858 31.1012 44.1597 30.4048C43.8339 29.7085 44.0425 29.6479 43.7787 28.9848C43.5149 28.3216 42.9816 27.2878 42.5831 26.4394C42.2977 26.4776 41.9444 26.5301 41.7275 26.4625C41.5105 26.3949 41.5538 26.162 41.3578 26.0115C41.1616 25.861 40.8317 25.9193 40.5569 25.679C40.282 25.4389 40.2194 24.946 40.1946 24.5099ZM37.6343 30.8225C38.0818 30.783 38.6375 30.904 39.0566 30.88C39.4756 30.856 39.7748 30.7462 40.1339 30.6793C40.0673 30.0421 40.1305 28.8714 39.5478 28.446C39.1714 28.1712 37.6256 28.3781 37.2127 28.468C36.2836 28.6703 35.2016 29.2301 34.303 29.5801C35.1642 28.9728 35.9081 28.41 36.941 28.0966C37.5619 27.9081 39.0108 27.6631 39.6515 27.8378C39.9441 27.9175 40.0032 28.0397 40.1806 28.29C40.7906 29.1497 40.7888 29.8926 40.947 30.894C41.1026 31.1387 41.2683 31.3019 41.3944 31.5543C41.5201 31.8067 41.5914 32.2039 41.6266 32.5285C41.467 32.2949 41.5646 32.0018 41.1225 31.8279C40.6801 31.6539 40.0028 31.8164 39.4068 31.8793C39.8412 32.1957 40.0571 32.5006 40.0737 33.1697C40.0932 33.9552 39.4343 34.5206 38.7464 34.5744C37.7914 34.6493 37.299 34.4375 36.9127 33.6135C36.7435 33.2526 36.8661 32.8184 36.8521 32.4666C35.7045 32.5471 35.7232 32.5094 34.8845 33.2153C35.3404 33.8895 35.6275 34.2772 36.3809 34.6805C36.8034 34.9069 37.2817 35.127 37.8053 35.2169C38.329 35.3068 39.1879 35.3937 39.7379 35.3085C40.2881 35.2233 40.5998 35.0647 41.0077 34.684C41.4156 34.3032 41.4531 33.7579 41.6124 33.3268C41.5761 33.7417 41.529 34.2701 41.3764 34.571C40.9123 35.4858 40.1097 35.7569 39.1514 35.7599C38.2315 35.763 37.0937 35.5488 36.2379 35.1906C35.5537 34.9044 34.4195 34.0937 34.1503 33.3894C33.9663 32.9082 34.112 32.3177 34.0927 31.7818C35.0401 31.1458 35.2745 31.3022 36.3954 31.1161C36.8643 31.0381 37.1868 30.8623 37.6343 30.8225ZM32.1157 26.5151C32.1424 26.1341 32.1841 26.1422 32.2184 25.9557C31.3553 25.7227 31.0092 26.2879 30.5032 27.3377C30.3138 27.7305 30.5012 27.9643 30.298 28.2229C30.0952 28.4815 29.7682 28.4452 29.4387 28.6935C29.1092 28.9417 28.7826 29.417 28.4745 29.6741C27.8423 30.2017 26.9877 30.5238 26.2544 30.8788C26.7552 30.5058 27.727 29.9401 28.0414 29.3981C28.2082 29.1108 28.1835 28.569 28.4431 28.3107C28.7026 28.0523 28.7934 27.8735 29.1285 27.8076C29.4635 27.7417 29.3288 27.3497 29.4369 27.038C29.545 26.7264 29.7603 26.5051 29.9893 26.1938C30.2184 25.8824 30.5073 25.415 30.9596 25.2453C31.4119 25.0754 32.1172 25.259 32.4596 25.1612C32.8019 25.0635 32.6053 24.8123 32.854 24.6614C33.1029 24.5106 33.587 24.5771 33.9195 24.4158C34.5089 24.1298 34.7908 23.6522 35.1453 23.1409C35.1968 24.2414 35.1842 25.0338 34.7924 26.0692C34.3512 27.2346 33.904 27.9211 32.6518 28.6378C32.2204 28.8846 31.791 28.9703 31.4333 29.0998C31.6419 28.8126 31.9404 28.6879 32.0591 28.2383C32.1776 27.7884 32.0891 26.8962 32.1157 26.5151ZM52.3327 31.8814C51.7373 31.9205 51.5961 31.8415 51.1198 32.1806C51.378 32.5863 51.6361 32.9919 51.8941 33.3976C51.8713 32.5969 51.9486 32.4364 52.3327 31.8814ZM50.7727 31.2995C51.5973 30.945 52.3158 30.6581 53.2129 30.6014C53.5725 30.5786 54.1308 30.6348 54.494 30.6515C54.8033 30.1917 55.1975 29.8291 55.342 29.3044C55.4376 28.9564 55.3905 27.3409 55.2212 26.9215C54.7279 25.7009 54.2483 25.6494 53.5694 24.9503C53.0767 24.4432 53.057 23.6711 52.9097 22.8058C52.8557 22.488 52.7012 22.0858 52.6287 21.7579C51.7412 21.6069 50.7868 21.5572 49.7657 21.6087C50.2608 21.1293 50.7395 20.6913 50.8816 19.9716C51.0233 19.2519 50.9079 18.367 50.5026 17.7217C50.0974 17.0763 49.45 16.5141 48.8558 15.9883C48.2613 15.4625 47.4093 15.0285 46.846 14.5984C47.5786 14.3336 48.3265 13.9446 49.0441 13.8042C50.9134 13.4381 52.5241 13.9979 54.3271 15.0983C55.3754 15.7384 56.2424 16.3464 57.3383 17.5045C58.4339 18.6625 59.7928 20.7867 60.8535 22.0464C61.9142 23.3061 62.7706 24.3023 63.696 25.0536C64.6215 25.8051 65.4592 26.0191 66.3405 26.5016L67.7143 27.9743L68.8261 26.5855L70.615 26.7897L70.9846 24.7627L72.6265 24.3085L72.3587 21.576L73.5392 20.7303L72.652 19.0302L73.5534 17.1725L72.3782 15.0489L72.8314 13.0042L71.4708 11.8337L71.2932 9.66083L69.3951 8.92995L68.6337 7.03957L66.4997 7.01539L65.4529 5.61211L64.0162 5.71368L62.4147 5.53761L61.5091 4.86264L60.1948 5.74345L58.6044 4.90632L55.4429 6.11796L57.5038 4.30859L59.6391 3.96431L61.2748 3.5434L63.484 4.27579L65.4285 3.77856L67.3033 4.8974L69.2873 4.78662L70.262 6.55201L72.2374 6.78219L73.3063 8.74496L74.5487 9.42975L74.8785 11.9442L75.9851 13.0036L75.4985 15.2037L76.8021 16.8697L75.5798 18.6549L76.8868 19.7708L75.216 21.2656L76.9082 23.0446L74.8646 23.7099L76.1957 25.618L74.5264 25.9087L75.6211 28.0068L73.7398 27.9815L74.6875 29.553L72.624 29.3023L73.1176 31.5631L71.5582 30.1783L71.024 32.9183L69.9479 30.9509L69.365 33.4048L68.0366 31.5953L68.0729 34.1685L66.6046 31.8548C66.9142 33.1675 66.8523 34.605 67.7064 35.8426C70.3527 35.4811 72.0823 34.8079 74.1098 32.8385C75.9563 31.0449 78.1634 27.3051 78.7611 24.933C79.443 22.2262 79.464 17.2479 78.7924 14.4921C78.1459 11.8388 77.3057 10.5714 75.8045 8.40627C74.3697 6.86788 72.9585 5.24274 71.1374 4.14567C68.4641 2.53534 65.0362 2.10113 61.9896 2.14299C60.3026 2.16627 59.1725 2.49332 58.1639 2.8636C56.4002 3.51106 54.9896 4.9234 53.1964 5.62133C52.6117 5.84879 52.1429 5.85589 51.6824 5.60758C52.1333 6.51831 52.6239 6.92683 53.7486 7.25826C54.5621 7.49796 56.5033 7.34637 57.8396 7.22184C59.2742 7.08808 60.0225 6.6575 61.9749 6.68456C63.8816 6.71101 65.3925 7.44219 66.2187 7.91902C67.9231 8.9029 69.1454 9.99438 70.2075 11.7233C70.7908 12.6728 71.1993 13.744 71.4871 14.8372C71.7748 15.9303 71.9009 17.1546 71.9193 18.2248C71.9377 19.295 71.8567 20.2503 71.5974 21.2133C70.9909 23.4679 69.6529 25.7621 66.9045 25.4077C65.2226 25.1907 62.6871 22.0039 61.8379 20.8347C60.1244 18.4751 58.3614 15.864 56.2084 13.8989C54.8957 12.7012 53.0984 11.8769 51.3334 11.7138C48.0222 11.4079 47.0402 12.0428 44.5478 14.1167C45.0549 14.2799 45.5498 14.37 46.0695 14.6064C47.2227 15.131 48.2774 15.8089 49.1974 16.6786C50.1614 17.5901 50.594 18.1669 50.6283 19.4721C50.651 20.3389 49.9447 21.0338 49.2971 21.6589C48.901 22.0417 48.3767 22.3922 48.0559 22.6893C47.6307 23.0836 47.1041 23.5149 47.6383 24.1431C47.8392 24.3791 48.1881 24.5572 48.4823 24.7777C48.9492 25.1275 48.7354 26.4279 48.1202 26.7728C47.333 27.2136 46.3924 27.1644 45.7432 26.5742C46.5626 26.4504 47.083 26.3407 47.0618 25.6641C47.0495 25.2719 46.5556 24.946 46.0708 24.723C44.9017 24.1849 44.0187 24.2643 42.8551 23.4191C41.6799 22.5651 41.654 22.0975 41.3363 20.7566C40.7696 20.8165 40.2479 20.8296 39.4902 21.0829C38.7325 21.336 37.8951 21.9388 37.2072 22.0879C35.4747 22.4643 35.1295 22.3527 34.1813 22.105C32.512 21.6688 30.3385 22.4156 28.1793 23.1128C27.8203 23.2287 26.3682 23.1167 25.3907 23.463C23.881 23.9977 21.7627 25.2926 20.5393 26.3327C18.6855 27.9088 16.2494 32.6259 14.8729 38.0401C14.7283 39.6859 15.192 40.7948 14.1649 41.5987C13.1379 42.4025 13.1663 44.462 12.8181 45.0397C12.4699 45.6172 12.0667 45.3619 11.3171 46.173C10.5675 46.9842 10.1858 46.8486 10.2047 48.3823C10.8507 47.9535 11.7926 47.4551 12.6196 47.425C13.352 47.3983 13.3598 48.3717 15.2396 46.4957C16.2449 45.492 18.1763 45.4613 19.5164 45.0187C20.8567 44.576 23.2717 43.6638 25.6905 40.934C28.1092 38.2042 29.2667 35.3304 29.7357 31.1757C29.8104 31.9124 29.9401 32.7432 29.6276 34.7751C29.3152 36.8071 28.6418 39.0894 30.0605 41.8231L30.9444 43.5262C30.4181 42.8012 29.3902 41.6186 29.0807 40.7759L28.3669 38.8319C26.7699 41.3631 26.4028 41.8158 24.1843 43.6293C24.096 44.7543 24.0743 45.9277 24.4386 47.0043C24.8028 48.0806 24.2222 49.3214 24.4993 50.0304C24.7765 50.7394 25.4174 50.3358 25.6267 51.0536C25.836 51.7713 25.5174 53.1903 25.842 53.8899C26.1666 54.5895 26.9629 54.165 27.3488 54.3909C27.7348 54.617 27.861 54.9268 28.0675 55.2241C28.2738 55.5212 27.9868 56.2237 28.4066 56.4518C28.8262 56.68 29.4809 56.4867 29.9176 56.7057C30.3543 56.9247 30.4207 57.4511 30.316 57.9228C30.2112 58.3944 29.7446 58.6109 29.5396 59.0904C29.3348 59.5701 29.3577 59.904 29.6038 60.3444C29.85 60.7849 30.3949 61.0275 30.9381 61.2498C31.4812 61.4721 32.2445 61.3473 32.805 61.6547C33.3655 61.9621 33.8693 62.5746 34.1653 63.0199C34.4613 63.465 34.5435 63.779 34.5284 64.2471C34.5131 64.715 34.325 65.2541 34.0776 65.7061C33.8301 66.1582 33.2841 66.7083 34.1366 67.5716C34.989 68.4347 34.9576 68.0626 35.4459 68.6226C35.3928 67.6539 34.9964 66.8649 35.2862 66.1357C35.5762 65.4064 36.4468 65.2796 36.9057 64.9517C37.3645 64.6236 37.6288 64.1729 37.9905 63.7836C37.9852 64.2846 38.0384 64.8232 37.9819 65.2004C37.867 65.9674 37.6427 66.6483 38.775 66.7713C39.2851 66.8266 39.7694 66.4928 40.3061 66.2924C40.0249 66.8006 39.536 67.2093 39.4625 67.8176C39.389 68.4256 39.4773 69.0936 39.8944 69.6971C40.3116 70.3003 41.0321 70.7482 41.5599 71.1028C42.0877 71.4575 42.3705 71.4859 42.7761 71.6777C42.796 72.2756 42.6794 72.9084 42.7469 73.4715C42.8144 74.0346 42.9902 74.5331 43.3126 74.9986C43.6354 75.4642 44.153 75.7313 44.6405 76.0756C44.3732 75.4473 43.8311 74.8512 43.8384 74.1908C43.8458 73.5305 44.0419 73.0624 44.68 72.4765C45.3181 71.8904 46.8119 71.3821 47.5163 70.8123C48.2207 70.2424 48.448 69.8933 48.7008 69.34C48.9537 68.7867 48.8833 67.8953 48.93 67.3979C49.162 68.0946 49.195 68.3112 49.2703 69.0401C49.3461 69.7692 48.8495 70.7918 48.6393 71.3315C49.5106 70.9066 50.0637 70.2276 50.3429 69.564C50.5297 69.6758 50.4356 69.9825 50.5043 70.5734C50.8148 70.2615 51.1678 70.0214 51.4804 69.727C51.7933 69.4329 52.136 69.1742 52.2913 68.7636C52.4462 68.3529 52.3827 67.9163 52.2673 67.4392C52.1519 66.9621 51.6237 66.4088 51.3392 65.8869C51.0551 65.3652 51.3895 64.853 51.3702 64.2243C50.8012 64.1256 50.3179 63.833 49.6638 63.928C49.0094 64.023 48.2599 64.7643 47.5912 64.7729C46.9224 64.7815 46.5469 64.149 45.9987 63.9752C45.4504 63.8014 44.8957 63.8204 44.3445 63.7431C45.0427 63.0678 47.7528 62.7462 49.6066 62.441C51.2377 62.1725 52.8564 62.0173 54.5091 61.9938C55.2472 61.9833 56.1958 62.2293 56.7083 62.0806C57.2212 61.9322 57.1117 61.5796 57.2639 61.1953C57.6893 60.121 57.4796 59.1643 57.2481 58.0825C55.7645 57.9069 54.2185 57.692 52.7236 57.8079C51.2621 57.9212 49.5314 58.6227 48.024 58.6701C46.7134 58.7112 44.7727 58.4167 43.6473 57.7242C42.272 56.878 41.208 55.0606 40.8302 54.4771C40.2151 53.5266 39.4391 51.6619 38.9669 50.8094C38.495 49.9568 38.391 49.7183 37.9983 49.3624C37.6056 49.0066 37.0676 48.9791 36.6025 48.7873C37.1388 48.8427 37.7243 48.6713 38.2115 48.9533C38.9434 49.3772 39.7626 51.1343 40.2181 51.8989C40.7006 50.266 40.588 49.624 41.9842 48.7033C40.859 49.9765 40.831 50.9408 40.5567 52.4398C41.4924 53.9901 42.7933 56.4596 44.4955 57.1449C45.1104 57.3926 46.1663 57.5479 46.8311 57.6309C48.8998 57.8895 50.8952 57.2277 52.927 56.7212C54.4121 56.351 55.9191 56.5001 57.7254 56.6073C58.3386 56.6436 59.7846 56.2712 60.084 55.645C60.2457 55.3072 60.2337 54.9013 60.0015 54.5413C59.769 54.1813 59.1498 54.0072 58.8179 53.6832C58.486 53.3591 58.2951 52.9745 58.0337 52.6201C56.6541 52.8873 55.5192 52.9899 54.4952 53.018C55.2297 52.7126 55.9344 52.5383 56.6988 52.2365C57.4633 51.9347 58.3313 51.4393 58.9483 51.0282C59.5652 50.617 59.9591 50.3785 60.4056 49.9C60.8517 49.4212 61.4241 48.928 61.753 48.3429C62.0822 47.7577 62.1331 47.1031 62.1516 46.3789C62.17 45.6548 62.139 44.6387 61.8623 44.0553C61.5859 43.4721 61.053 43.2951 60.6248 43.1572C60.1964 43.0192 59.9031 43.3681 59.4578 43.4153C59.0121 43.4624 58.5957 43.746 57.9513 43.4401C57.307 43.1342 56.5431 42.5115 55.8916 41.5873C55.2403 40.663 54.7746 39.1523 54.1106 37.9901C52.966 35.9866 51.5397 34.1151 50.1757 32.2588C50.0634 31.801 49.8946 31.1683 49.8385 30.5473C49.7406 29.4652 49.7222 28.3411 50.0548 27.2862C50.3098 26.4781 50.6806 25.6245 51.5189 25.293C51.8542 25.1603 52.2785 25.1077 52.5783 25.2199C52.8783 25.3319 53.1725 25.6736 53.0547 26.0683C52.9252 26.5024 52.6272 26.5142 52.4248 26.7333C52.0812 27.1051 51.9438 27.3779 51.814 27.8414C52.1853 27.8354 52.6871 27.8068 52.9921 27.8878C53.39 27.9936 53.7606 28.2599 53.9625 28.8291C53.4876 28.404 53.2517 28.2088 52.659 28.1937C52.3874 28.1869 52.0574 28.285 51.7569 28.3307C51.6447 28.6994 51.5786 29.1516 51.4201 29.437C51.2615 29.7223 50.9528 29.6538 50.8369 29.9872C50.7211 30.32 50.7143 30.862 50.7727 31.2995ZM54.922 30.7997C55.1039 30.8721 55.1733 30.888 55.4037 31.065C55.6341 31.2419 55.9519 31.4186 56.1344 31.8415C56.3172 32.2645 56.3087 32.9186 56.2697 33.1851C56.1096 33.1376 55.8911 33.1697 55.7249 33.0262C55.5592 32.8828 55.4603 32.558 55.2477 32.419C55.0348 32.2801 54.8574 32.3105 54.6222 32.2804C54.743 32.6274 54.8017 32.9745 54.7455 33.2892C54.6236 33.9761 54.2236 34.324 53.576 34.4062C53.2931 34.442 52.844 34.348 52.5979 34.3029C52.712 34.5601 52.9052 34.7854 53.0195 35.0427C53.5671 34.9627 53.973 34.974 54.2675 34.835C54.562 34.6959 54.8777 34.3845 55.2556 34.2525C55.6336 34.1206 55.9708 34.1227 56.3843 34.0576C56.0585 34.3409 55.8447 34.6245 55.5194 34.9078C55.758 35.608 55.9967 36.3081 56.2352 37.0081C56.7411 37.3276 57.2156 37.496 57.8531 37.8905C58.4909 38.2851 59.2555 38.9909 60.086 39.3758C60.9164 39.7607 61.4109 39.9702 62.2787 40.1354C63.1462 40.3006 63.8366 41.01 64.6904 41.1253C65.5442 41.2406 67.139 41.2639 67.7969 41.1991C68.544 41.1255 69.5146 40.7363 69.6017 39.9095C68.9753 40.0654 68.0187 39.9255 67.5355 38.7356C67.3212 38.2072 67.4263 37.2356 67.0981 36.6108C66.7701 35.9859 66.3127 35.7853 65.7662 35.0154C65.2198 34.2456 64.3258 33.0312 63.824 31.9997C63.3225 30.9684 63.2043 29.8001 62.78 28.8759C62.3558 27.9519 61.7157 27.2055 61.2197 26.4932C60.1367 24.9365 59.2633 23.8727 57.479 23.0874C56.6208 22.7097 55.6438 22.609 54.7262 22.3698C54.3528 22.5386 53.8408 22.7251 53.7499 23.166C53.659 23.6068 53.8336 24.2579 54.1506 24.5889C54.681 25.1422 55.467 25.7402 55.776 26.6197C55.9745 27.184 56.0322 29.0759 55.8601 29.5893C55.6817 30.1223 55.2668 30.4447 54.922 30.7997ZM55.0948 35.2777C54.9291 35.422 54.8027 35.5703 54.5361 35.6901C54.2697 35.81 53.9059 35.8409 53.5525 35.9301C54.0482 36.709 54.5689 37.4962 55.0437 38.3151C55.5189 39.134 55.9306 40.0307 56.3841 40.8882C56.3627 40.3967 56.3915 39.8727 56.3207 39.4134C56.2498 38.9543 56.0437 38.5524 55.8393 37.8631C55.6353 37.1738 55.384 36.236 55.0948 35.2777ZM41.7576 18.1506C41.6877 18.9169 41.8161 20.1147 41.9733 20.865C42.1616 21.763 42.3429 22.2286 43.0649 22.7697C44.3868 23.7604 45.2308 23.5934 46.2478 24.1678C46.7317 24.4412 47.3449 24.8995 47.5238 25.3839C47.7027 25.8682 47.4057 26.3942 47.0387 26.6009C47.6805 26.6974 48.4002 25.9669 48.0999 25.217C47.952 24.8479 47.2479 24.6835 47.032 24.3111C46.8165 23.9389 46.817 23.5556 46.9185 23.1775C47.1019 22.4958 48.4378 21.8765 48.9098 21.3377C49.6362 20.5086 49.9152 19.815 49.5037 18.7473C48.926 17.2473 46.6939 16.0437 45.358 15.455C44.7463 15.1855 44.4033 15.1663 43.9262 15.022C44.903 15.5999 45.9329 16.0603 46.4271 17.3522C46.8397 18.4311 46.4824 18.8377 46.4962 19.7771C46.5026 20.2127 47.0708 20.4305 47.323 20.7057C47.5427 20.9449 47.5248 21.1225 47.3494 21.4527C47.3301 21.1548 47.204 20.9325 46.9775 20.7707C46.6035 20.503 46.2006 20.5606 46.0014 20.0118C45.6989 19.1776 46.2987 18.3874 45.6244 17.4507C45.12 16.7499 44.4491 15.9655 43.5441 15.945C43.1158 15.9351 42.7937 16.0004 42.3362 16.1371L41.7263 15.396L41.7122 15.3864C40.4715 14.2434 39.6227 13.3013 37.8822 12.5157C36.1418 11.7303 35.2841 11.6114 33.2886 11.6561C31.293 11.7007 29.3126 11.8692 27.0014 13.8812C24.6902 15.8933 18.7336 23.5979 17.289 24.573C15.8446 25.5481 15.5246 25.8785 13.7197 25.879C11.9147 25.8794 9.09771 23.3021 8.98737 20.0812C8.87689 16.8601 8.83257 15.7152 11.0506 11.8349C13.2687 7.95438 17.287 6.76284 20.2684 6.36053C23.25 5.95821 25.0416 7.01826 27.247 7.02325C29.4523 7.02839 31.6318 6.64405 32.2746 4.87352C31.96 5.06259 31.5386 5.27569 30.3534 5.21297C29.1683 5.15025 27.5251 3.76511 25.6765 2.837C23.828 1.90904 21.771 1.80038 19.1326 1.75005C16.4942 1.69972 13.202 1.9033 9.9403 3.68078C6.67864 5.45826 4.45225 7.34426 2.56047 10.823C0.668692 14.302 0.386033 17.1424 0.690999 21.3546C0.995965 25.5669 2.2829 28.6996 4.76081 31.7826C7.23872 34.8655 9.71513 36.374 14.1805 36.9348L15.1205 32.749L13.4424 35.1802L13.4839 32.4763L11.9659 34.3777L11.3001 31.799L10.0704 33.8664L9.45957 30.9873L7.67753 32.4422L8.24165 30.0666L5.88366 30.33L6.96684 28.6787L4.8168 28.7052L6.06781 26.5006L4.16016 26.1948L5.68125 24.1898L3.34572 23.4908L5.27942 21.6215L3.37012 20.0508L4.86352 18.8783L3.46699 17.0024L4.95664 15.2519L4.4006 12.9401L5.66553 11.827L6.04206 9.18506L7.46164 8.46536L8.68301 6.403L10.9405 6.16103L12.0544 4.30602L14.3218 4.42254L16.4645 3.24687L18.6867 3.76934L21.2109 2.99977L23.0804 3.44199L25.5201 3.80395L27.8755 5.70521L24.2625 4.43206L22.445 5.31181L20.9426 4.38612L19.9082 5.09539L18.078 5.28038L16.4367 5.17337L15.2402 6.64783L12.8012 6.67322L11.9312 8.65957L9.76244 9.42763L9.55958 11.7108L8.00436 12.9407L8.52251 15.0892L7.17943 17.3207L8.20976 19.2726L7.19575 21.059L8.54482 21.9477L8.23881 24.8189L10.115 25.2962L10.5377 27.4261L12.5821 27.2117L13.8523 28.671L15.4222 27.1236C18.2841 25.683 19.4627 24.8771 21.6931 22.4419C24.2321 19.6697 25.6873 17.1066 29.0693 15.2085C31.495 13.8471 33.4735 13.3571 36.1983 13.8324C38.7566 14.2786 39.6132 15.8277 41.4974 17.4596C41.6971 17.0946 41.7377 16.9979 42.0667 16.7292C41.9634 17.2031 41.7993 17.6948 41.7576 18.1506Z" fill="black"/>
<g clip-path="url(#clip1_1_897)">
<path d="M149.389 98.0035L149.878 97.5307C149.81 96.6394 150.8 97.5968 149.878 97.5307L149.389 98.0035L140.712 104.505L140.223 103.796C145.415 98.7837 152.151 92.4714 158.556 90.5565L155.622 94.5755C162.452 89.4689 169.897 85.0622 177.377 81.0998C183.913 81.1179 188.831 73.8608 188.988 67.7424C187.4 59.8981 186.58 51.9356 182.999 44.6918C175.92 36.6679 166.255 50.2712 157.822 44.4554L150.489 38.7815C141.567 18.2511 130.099 -1.73543 115.78 -19.3768L111.746 -27.2967C110.182 -39.9118 112.597 -54.3994 122.135 -64.0593C124.587 -65.421 127.229 -66.8868 130.201 -66.4234L124.946 -63.7047L128.001 -57.9125L115.78 -39.2357C119.693 -45.2359 131.824 -49.6852 136.557 -43.2547C136.908 -42.3412 136.818 -40.2319 135.334 -40.6541L134.112 -43.7276C123.953 -47.3248 112.167 -36.5831 114.313 -26.942C121.006 -28.6967 130.113 -33.3915 138.023 -30.0155L141.934 -28.3605C143.408 -29.7152 144.257 -36.706 141.201 -34.5074L140.712 -35.2166C146.52 -40.8953 146.608 -49.9169 143.401 -56.9668L125.068 -78.2442L136.068 -70.2061C140.384 -65.7189 144.398 -60.9764 146.578 -55.3119C148.512 -49.5528 148.883 -41.822 144.99 -36.7533C145.425 -33.791 145.324 -30.6018 144.012 -27.7695C149.776 -28.4693 152.939 -17.3956 145.601 -17.9583L144.867 -20.5588L142.667 -22.2137L140.223 -22.4501C144.272 -15.022 135.812 -6.54884 127.879 -9.80193L127.39 -8.38344C131.045 -4.1114 141.616 -3.13974 144.134 -10.1566C146.923 -9.87607 143.413 -6.7758 142.667 -5.66466L150.245 -11.1022L149.756 -7.55598C140.942 -3.33739 149.696 6.5202 150.734 12.7758L150.856 6.27432C150.529 4.8511 150.989 -0.208191 152.689 2.60989C161.518 22.3128 186.793 31.3817 206.954 26.2514L200.232 29.9159L199.376 30.2705C205.414 33.0597 212.556 30.1772 218.809 29.9159C222.624 33.4432 231.925 31.1939 235.308 26.015L229.686 24.5965L226.264 21.2867L182.021 -56.9668C174.38 -65.5345 164.901 -71.7475 154.645 -76.8257L150.489 -76.5893L145.967 -79.7809L139.123 -78.3624L137.656 -81.6722C135.92 -79.9937 134.653 -77.1577 131.79 -76.9439L133.623 -82.0269L129.712 -79.1899C128.721 -80.3776 128.091 -81.58 128.735 -82.9725C119.607 -85.5547 107.875 -82.5358 101.358 -74.698L98.6692 -73.5159C101.847 -69.4609 104.443 -62.7779 100.38 -58.1489C97.7838 -53.8343 92.7392 -52.7634 87.7918 -53.3024C86.8234 -53.823 83.6761 -53.8745 85.4697 -55.5483C86.7833 -55.4523 87.3044 -55.9684 87.9141 -56.9668C96.3031 -57.9744 92.3877 -69.9886 90.114 -74.9344C81.6761 -78.4149 75.3208 -86.949 75.0813 -95.8572L72.5147 -99.9944C72.3492 -92.7838 74.4267 -84.3343 79.3589 -78.2442C83.1217 -74.8067 90.9695 -69.2415 87.1808 -63.35L83.7587 -71.6246C70.9161 -72.4908 61.7254 -83.7196 60.7818 -95.739C58.6528 -90.5709 61.037 -83.5588 64.4484 -78.9535C69.1219 -72.5844 80.5468 -73.1518 85.2253 -66.187L83.8809 -65.596C78.2736 -69.895 71.5663 -72.4709 64.9372 -74.698C60.927 -79.7856 58.2495 -85.5542 57.8486 -91.9563C55.9846 -90.7265 53.8282 -90.4844 51.7378 -91.0106C49.9729 -89.5879 46.2575 -87.3689 44.8936 -90.065L31.9386 -82.7361L27.0499 -78.9535L26.561 -82.0269C23.817 -81.7514 22.1309 -83.7049 20.6946 -85.3367L18.3724 -80.7266L13.8504 -83.9182C11.0291 -82.7077 10.0113 -83.951 10.9172 -86.7552L4.80632 -83.6818C6.81558 -87.6956 5.2072 -90.6229 2.85085 -93.8476L1.38425 -88.4101C3.1256 -88.5047 5.04832 -88.2401 4.07303 -86.0459L2.60641 -84.6274C0.132736 -85.5154 -2.0833 -85.123 -3.26001 -82.2633C-7.14114 -81.3649 -7.54593 -82.6984 -6.55988 -85.4549C-7.80992 -84.6374 -9.41048 -82.3976 -10.4708 -84.5092C-12.0616 -83.4104 -14.7132 -82.73 -16.215 -83.9182L-22.8148 -78.0078C-44.0023 -74.4067 -69.3062 -67.9412 -83.4345 -48.6923L-88.0788 -44.6732C-92.5588 -35.5145 -95.1576 -25.4715 -101.767 -17.249L-108.856 14.6671C-112.071 14.9089 -107.755 8.16565 -111.667 10.5298C-111.217 18.9415 -109.607 30.105 -119.366 34.2896L-122.3 37.5994L-122.911 42.2095C-119.563 55.0327 -135.015 60.073 -140.877 69.2791C-142.361 71.8328 -141.819 74.4707 -140.877 77.0808C-139.386 79.1206 -137.281 77.9583 -135.132 78.1447C-127.56 76.6032 -123.908 67.6478 -115.211 68.5698C-112.442 64.3644 -107.839 61.2693 -102.5 61.9502C-96.6926 54.4132 -86.2846 56.437 -78.057 55.8034L-71.2128 48.9473L-73.6572 55.3305L-65.713 52.6118C-65.7813 51.7205 -64.7915 52.6779 -65.713 52.6118L-66.0797 50.3658L-59.7244 45.1647C-57.0214 44.3911 -55.0816 41.5452 -53.3691 39.4907C-49.0201 36.1856 -45.4934 31.6748 -42.614 27.1971L-41.7584 28.0246C-42.3177 29.6118 -45.9446 32.115 -43.3473 32.6347L-45.5472 36.4173L-41.3918 34.526L-33.081 25.0694L-28.4368 14.4307L-27.2146 13.2486L-21.226 -4.60078L-19.7593 -15.9487C-18.3939 -18.3829 -18.3167 -21.1782 -18.2927 -23.9869L-15.8484 -32.025L-15.3595 -41.4816L-12.3041 -49.4015L1.62868 -61.4587V-62.168L-0.204575 -62.759C-6.74075 -60.7045 -12.3041 -55.3119 -14.9929 -49.1651L-27.7035 -34.5074L-33.8143 -30.7247V-31.4339L-25.0147 -38.9992L-23.7925 -40.1813L-20.7371 -45.7371L-20.2482 -46.2099C-20.3165 -47.1012 -19.3267 -46.1439 -20.2482 -46.2099L-20.7371 -45.7371L-22.2037 -44.7914L-22.5703 -44.9096L-19.1483 -49.8744L-18.2927 -50.9382L-17.8039 -51.4111L-17.315 -51.8839C-17.3833 -52.7752 -16.3935 -51.8178 -17.315 -51.8839L-17.8039 -51.4111L-18.2927 -50.9382L-26.9702 -43.964L-8.39314 -65.4778C1.8389 -66.0305 11.2105 -64.8243 16.7836 -73.9887C18.6286 -72.1844 15.7037 -70.4392 15.0726 -68.7876L17.3947 -66.5416C14.2806 -56.8202 5.63741 -49.1131 -1.30453 -41.127C-2.23534 -40.2073 -3.45605 -37.4536 -4.97105 -38.7628C2.88019 -44.2902 -2.87086 -50.6262 -1.30453 -56.494L-10.8375 -47.5102C-18.5665 -13.7926 -20.6589 25.9205 -53.3691 48.0017C-54.8557 51.2841 -56.0051 54.5929 -55.9356 58.2857L-51.047 69.1609C-51.0894 79.2983 -52.2701 90.8875 -40.9029 94.8119L-39.3141 98.4764C-43.228 114.732 -15.78 115.721 -11.3264 129.092C-9.59918 128.228 -6.93826 128.784 -6.07101 130.629C-6.66449 137.698 -19.0749 141.896 -13.7707 150.37L-9.37088 153.207C5.67651 154.526 15.4832 171.959 -0.0823669 180.394L-2.16005 184.532C-2.22322 187.005 -2.46095 189.652 -0.571228 191.506L5.05077 192.924C5.0538 185.931 10.311 181.378 15.317 176.848C16.988 172.541 18.9615 174.371 16.0503 177.557C11.5747 181.733 6.54181 185.945 6.15071 192.097C9.03259 198.239 14.4468 204.381 22.1612 203.799C18.8608 199.203 11.2398 194.456 14.3393 188.196C15.1278 184.613 18.8305 182.834 15.9281 187.369C14.6722 189.209 13.9585 191.327 15.0726 193.397L29.1276 211.956C30.5145 220.046 22.8065 225.247 16.5392 228.623L13.1171 233.351C12.1491 236.257 13.7355 238.51 16.0503 240.207C16.4182 229.578 33.327 226.779 34.0163 215.738L33.6496 207.346C35.5063 210.3 35.3333 215.441 34.5051 219.048C33.1309 224.845 26.8152 227.053 22.8945 230.987C17.5511 234.578 16.6125 240.945 21.6723 244.463C16.2116 242.749 8.65373 237.522 13.1171 230.987C17.9999 224.732 29.372 222.131 28.1498 212.429C24.6969 201.776 9.73901 206.764 6.0285 194.579C2.28523 193.52 -2.96669 193.079 -3.62666 188.314C-3.89407 185.001 -2.58342 182.219 -1.0601 179.449C16.4707 167.912 -2.99406 155.519 -14.7484 150.842C-16.1285 149.291 -15.8958 147.29 -15.8484 145.287C-17.4372 138.416 -3.97865 135.589 -8.63757 129.801C-13.1 134.539 -25.1027 141.173 -22.8148 149.188C-15.252 154.791 -6.70164 160.479 -0.326797 166.919L-23.5481 150.37C-27.4796 144.715 -21.6508 140.142 -17.9261 136.421L-26.4813 139.022C-13.8196 133.565 -23.9817 124.974 -33.3255 124.364C-34.8322 123.081 -34.3667 121.044 -34.4254 119.281C-24.648 109.489 -45.0094 118.051 -47.9915 109.706C-51.7539 104.198 -45.378 100.179 -43.7139 95.6394C-53.506 91.5844 -63.4545 81.9225 -52.5136 72.4707C-54.2324 64.598 -61.6896 57.2361 -55.569 48.9473C-64.7646 58.7302 -79.7631 56.9334 -89.5454 65.4964L-92.1119 69.6337C-98.4624 106.231 -89.4417 144.388 -68.1574 174.602C-61.6358 187.813 -39.7003 193.813 -41.3918 209.473C-42.5299 210.738 -43.7565 211.996 -45.6694 211.483L-42.1251 208.291C-41.4065 206.822 -41.5355 204.637 -42.614 203.327L-45.6694 198.717L-48.4804 196.707C-53.682 192.068 -41.5727 207.071 -49.5804 205.809L-48.1137 203.445L-49.0915 199.662L-53.3691 193.87C-87.7366 162.03 -101.22 114.813 -94.6785 69.7519C-98.128 70.36 -99.6014 67.1627 -101.767 65.4964C-108.905 71.2791 -117.22 82.1542 -127.188 76.8444C-132.101 79.7986 -141.331 82.3954 -143.932 75.3076C-144.778 59.7137 -119.718 55.7892 -124.866 39.3725L-123.277 35.2352C-114.341 30.2232 -111.481 20.9841 -113.256 11.5937C-154.663 9.2924 -187.808 -25.3439 -201.154 -61.3641C-216.402 -118.009 -185.931 -187.184 -124.891 -203.213C-113.383 -206.827 -101.19 -210.575 -88.7143 -209.36C-74.4589 -208.831 -59.6022 -210.176 -46.5493 -205.696L-16.9728 -190.802C-9.93306 -186.444 -0.678772 -188.975 6.49294 -190.802L6.61514 -188.556C1.80028 -177.042 -11.5072 -173.316 -22.717 -171.061L-44.2272 -171.534C-51.8585 -173.563 -59.6364 -173.059 -67.6929 -172.952C-74.1167 -173.09 -80.3302 -172.536 -86.27 -171.061C-136.281 -167.807 -168.009 -90.3487 -121.957 -62.3098C-113.388 -61.253 -106.778 -66.5478 -99.8361 -70.2297C-92.1462 -75.1992 -85.1309 -81.2231 -78.5703 -87.9609L-63.9042 -104.51C-60.4459 -109.39 -56.9427 -114.383 -52.1713 -118.222C-27.0484 -154.238 31.1319 -161.037 60.0241 -127.206L71.0237 -133.353C111.15 -164.058 159.46 -122.009 181.264 -88.4337L192.996 -75.6673C197.518 -72.6913 202.593 -70.3432 208.029 -69.8751C211.948 -68.8103 216.33 -69.5241 220.129 -70.4661C248.718 -86.7694 245.413 -126.969 231.373 -151.557C218.804 -166.64 198.09 -172.234 179.161 -170.115L157.162 -171.534C150.152 -173.396 143.249 -177.255 139.196 -183.473C138.693 -186.48 136.711 -189.667 138.219 -192.693C150.098 -186.835 164.696 -186.026 176.595 -192.929C212.077 -217.862 270.409 -213.516 289.524 -170.943C298.905 -149.911 302.239 -126.01 299.423 -102.477C302.405 -55.7658 262.279 -8.38344 212.013 -11.0786L223.746 10.9081C226.172 15.381 233.744 27.9867 236.946 17.7641C237.442 17.3018 238.108 16.2619 238.657 17.2913C240.658 22.3648 237.308 27.5848 233.768 31.2398C205.8 37.1738 169.531 31.9018 152.86 7.36183L153.349 38.8051C161.895 52.0586 175.788 33.4006 184.392 42.8242C189.281 52.9569 193.158 63.8131 189.281 75.2131L166.06 100.037C164.293 107.886 179.396 109.682 179.137 117.886C173.349 125.149 164.847 130.501 156.771 134.553C164.173 141.844 163.391 155.273 155.549 162.214L150.783 163.751C137.617 158.829 114.245 172.966 126.706 187.038L128.295 191.648C128.246 194.54 128.699 197.53 127.195 200.04C124.83 207.043 118.683 211.45 112.529 215.171C94.5822 221.857 84.7511 242.435 94.6849 259.144L99.3292 259.381C87.6696 263.5 104.448 265.825 109.107 265.291C102.805 268.226 91.8935 267.707 91.5072 258.908C77.3594 247.952 85.2546 225.275 100.307 218.481L110.573 209.024C113.733 205.18 115.477 200.684 116.073 195.903L116.562 188.811C123.885 213.039 87.9092 218.571 86.3741 239.309L98.5959 222.524C113.99 213.781 138.439 197.038 118.151 179.732L116.44 174.295L115.095 171.34C104.536 173.895 99.2265 188.182 107.762 195.454L108.251 203.019C105.221 209.989 98.3905 215.483 91.9961 219.923C82.3458 226.495 78.8895 237.99 80.8743 248.884C81.6741 252.788 84.4866 255.442 87.7185 257.868L88.574 260.586C73.7368 255.881 62.2729 239.588 74.6413 226.306C79.9797 220.665 86.5452 216.958 93.9516 215.195C101.989 207.161 111.062 195.577 98.107 187.298L97.4959 182.215L99.3292 174.295C93.4774 172.553 92.7392 181.496 93.2183 186.825L95.9071 189.662C88.3198 187.193 92.4429 172.049 99.3292 169.094L97.1292 170.039L95.1738 170.985L89.0629 175.004C88.5963 175.653 87.2032 176.766 86.7408 175.595L91.2628 171.931L95.1738 169.566L96.3959 168.621L81.9743 176.423L84.2964 173.704L88.0852 170.749C93.7756 166.593 85.9752 169.874 83.4409 170.985L78.0634 174.058L81.8521 168.503C78.3493 171.329 69.3322 173.865 77.33 169.33C83.9347 166.101 91.693 161.585 98.9625 163.774C116.127 153.708 136.434 160.866 155.574 158.928C166.456 146.029 154.716 129.825 138.952 131.267L120.986 131.622L109.742 134.932C74.7146 150.247 51.2244 108.084 37.2428 83.0148C34.7393 79.7513 31.0097 77.7711 27.221 77.8137C35.434 75.0608 40.5182 85.7525 44.0869 91.5258L50.4422 101.219C52.1191 92.7362 54.7775 82.698 62.1751 77.3408L61.3196 79.114C56.1816 85.8045 52.8426 93.7433 53.0088 102.283C59.3495 121.262 83.0352 140.265 103.362 128.288C105.244 128.503 110.167 126.94 109.229 129.707C100.766 131.594 92.2112 134.601 83.4409 134.79C87.4931 136.205 91.5317 137.44 96.0293 137.272C118.859 128.615 142.53 121.196 167.893 125.451L176.57 118.241C177.042 110.411 162.877 109.115 164.349 100.982C160.316 104.07 161.502 99.562 163.371 97.1997L154.816 104.529L157.993 100.273C165.478 91.0529 149.38 107.399 150.905 102.874L153.349 100.037C154.002 99.309 156.951 97.1586 154.327 97.6725L145.527 105.474L149.316 98.0272L149.389 98.0035Z" fill="#1C1C1C"/>
<path d="M149.389 98.0035L149.878 97.5307M149.389 98.0035L140.712 104.505L140.223 103.796C145.415 98.7837 152.151 92.4714 158.556 90.5565L155.622 94.5755C162.452 89.4689 169.897 85.0622 177.377 81.0998C183.913 81.1179 188.831 73.8608 188.988 67.7424C187.4 59.8981 186.58 51.9356 182.999 44.6918C175.92 36.6679 166.255 50.2713 157.822 44.4554L150.489 38.7815C141.567 18.2511 130.099 -1.73543 115.78 -19.3768L111.746 -27.2967C110.182 -39.9118 112.597 -54.3993 122.135 -64.0593C124.587 -65.421 127.229 -66.8868 130.201 -66.4234L124.946 -63.7047L128.001 -57.9125L115.78 -39.2357C119.693 -45.2359 131.824 -49.6852 136.557 -43.2547C136.908 -42.3412 136.818 -40.2319 135.334 -40.6542L134.112 -43.7276C123.953 -47.3249 112.167 -36.5831 114.313 -26.9421C121.006 -28.6967 130.113 -33.3915 138.023 -30.0155L141.934 -28.3605C143.408 -29.7152 144.257 -36.706 141.201 -34.5073L140.712 -35.2166C146.52 -40.8953 146.608 -49.9169 143.401 -56.9668L125.068 -78.2442L136.068 -70.2061C140.384 -65.7189 144.398 -60.9764 146.578 -55.3119C148.512 -49.5528 148.883 -41.822 144.99 -36.7533C145.425 -33.791 145.324 -30.6018 144.012 -27.7695C149.776 -28.4693 152.939 -17.3956 145.601 -17.9583L144.867 -20.5588L142.667 -22.2137L140.223 -22.4502C144.272 -15.022 135.812 -6.54885 127.879 -9.80193L127.39 -8.38343C131.045 -4.11141 141.616 -3.13974 144.134 -10.1566C146.923 -9.87607 143.413 -6.77581 142.667 -5.66466L150.245 -11.1022L149.756 -7.55598C140.942 -3.33738 149.696 6.5202 150.734 12.7758L150.856 6.27433C150.529 4.85111 150.989 -0.208186 152.689 2.60989C161.518 22.3128 186.793 31.3817 206.954 26.2514L200.232 29.9159L199.376 30.2705C205.414 33.0597 212.556 30.1772 218.809 29.9159C222.624 33.4432 231.925 31.1939 235.308 26.015L229.686 24.5965L226.264 21.2867L182.021 -56.9668C174.38 -65.5345 164.901 -71.7475 154.645 -76.8257L150.489 -76.5893L145.967 -79.7809L139.123 -78.3624L137.656 -81.6722C135.92 -79.9937 134.653 -77.1577 131.79 -76.9439L133.623 -82.0269L129.712 -79.1899C128.721 -80.3776 128.091 -81.58 128.735 -82.9725C119.607 -85.5547 107.875 -82.5358 101.358 -74.698L98.6692 -73.5159C101.847 -69.4609 104.443 -62.7779 100.38 -58.1489C97.7838 -53.8343 92.7392 -52.7634 87.7919 -53.3024C86.8234 -53.823 83.6761 -53.8745 85.4697 -55.5483C86.7833 -55.4523 87.3044 -55.9684 87.9141 -56.9668C96.3031 -57.9744 92.3877 -69.9886 90.114 -74.9344C81.6761 -78.4149 75.3208 -86.949 75.0813 -95.8572L72.5147 -99.9944C72.3492 -92.7838 74.4267 -84.3343 79.3589 -78.2442C83.1217 -74.8067 90.9695 -69.2415 87.1808 -63.35L83.7587 -71.6246C70.9161 -72.4908 61.7254 -83.7196 60.7818 -95.739C58.6528 -90.5709 61.037 -83.5588 64.4484 -78.9535C69.1219 -72.5844 80.5468 -73.1518 85.2253 -66.187L83.8809 -65.596C78.2736 -69.895 71.5663 -72.4709 64.9372 -74.698C60.927 -79.7856 58.2495 -85.5542 57.8486 -91.9563C55.9846 -90.7265 53.8282 -90.4844 51.7378 -91.0106C49.9729 -89.5879 46.2575 -87.3689 44.8936 -90.065L31.9386 -82.7361L27.0499 -78.9535L26.561 -82.0269C23.817 -81.7514 22.1309 -83.7049 20.6946 -85.3367L18.3724 -80.7266L13.8504 -83.9182C11.0291 -82.7077 10.0113 -83.951 10.9172 -86.7552L4.80633 -83.6818C6.81558 -87.6956 5.2072 -90.6229 2.85085 -93.8476L1.38424 -88.4101C3.1256 -88.5047 5.04832 -88.2401 4.07302 -86.0459L2.60642 -84.6274C0.13274 -85.5154 -2.0833 -85.123 -3.26001 -82.2633C-7.14114 -81.3649 -7.54593 -82.6984 -6.55988 -85.4549C-7.80991 -84.6374 -9.41047 -82.3976 -10.4708 -84.5092C-12.0616 -83.4104 -14.7132 -82.73 -16.215 -83.9182L-22.8148 -78.0078C-44.0024 -74.4067 -69.3062 -67.9412 -83.4345 -48.6923L-88.0788 -44.6732C-92.5588 -35.5145 -95.1576 -25.4715 -101.767 -17.249L-108.856 14.6671C-112.071 14.9089 -107.755 8.16565 -111.667 10.5298C-111.217 18.9415 -109.607 30.105 -119.366 34.2896L-122.3 37.5994L-122.911 42.2095C-119.563 55.0327 -135.015 60.073 -140.877 69.2791C-142.361 71.8328 -141.819 74.4707 -140.877 77.0808C-139.386 79.1206 -137.281 77.9583 -135.132 78.1446C-127.56 76.6032 -123.908 67.6478 -115.211 68.5698C-112.442 64.3645 -107.839 61.2693 -102.5 61.9502C-96.6927 54.4133 -86.2846 56.437 -78.057 55.8034L-71.2128 48.9473L-73.6571 55.3305L-65.713 52.6118M149.389 98.0035L149.316 98.0272L145.527 105.474L154.327 97.6726C156.951 97.1586 154.002 99.309 153.349 100.037L150.905 102.874C149.38 107.399 165.478 91.0529 157.993 100.273L154.816 104.529L163.371 97.1997C161.502 99.562 160.316 104.07 164.349 100.982C162.877 109.115 177.042 110.411 176.57 118.241L167.893 125.451C142.53 121.196 118.859 128.615 96.0293 137.272C91.5317 137.44 87.4931 136.205 83.4409 134.79C92.2112 134.601 100.766 131.594 109.229 129.707C110.167 126.94 105.244 128.503 103.362 128.288C83.0351 140.265 59.3494 121.262 53.0088 102.283C52.8426 93.7433 56.1816 85.8045 61.3196 79.1139L62.1751 77.3408C54.7775 82.698 52.1191 92.7362 50.4422 101.219L44.0869 91.5258C40.5182 85.7525 35.434 75.0608 27.221 77.8137C31.0097 77.7711 34.7393 79.7513 37.2428 83.0148C51.2244 108.084 74.7146 150.247 109.742 134.932L120.986 131.622L138.952 131.267C154.716 129.825 166.456 146.029 155.574 158.928C136.434 160.866 116.127 153.708 98.9625 163.774C91.693 161.585 83.9347 166.101 77.33 169.33C69.3321 173.865 78.3493 171.329 81.8521 168.503L78.0633 174.058L83.4409 170.985C85.9752 169.874 93.7756 166.593 88.0852 170.749L84.2964 173.704L81.9743 176.423L96.3959 168.621L95.1738 169.567L91.2628 171.931L86.7408 175.595C87.2032 176.766 88.5963 175.653 89.0629 175.004L95.1738 170.985L97.1292 170.039L99.3291 169.094C92.4429 172.049 88.3198 187.193 95.9071 189.662L93.2183 186.825C92.7392 181.496 93.4774 172.553 99.3291 174.295L97.4959 182.215L98.107 187.298C111.062 195.577 101.989 207.161 93.9516 215.195C86.5452 216.958 79.9797 220.665 74.6413 226.306C62.2729 239.588 73.7369 255.881 88.574 260.586L87.7185 257.868C84.4866 255.442 81.6741 252.788 80.8743 248.884C78.8895 237.99 82.3458 226.495 91.9961 219.923C98.3905 215.483 105.221 209.989 108.251 203.019L107.762 195.454C99.2265 188.182 104.536 173.895 115.095 171.34L116.44 174.295L118.151 179.732C138.439 197.038 113.99 213.781 98.5958 222.524L86.3741 239.309C87.9092 218.571 123.885 213.039 116.562 188.811L116.073 195.903C115.476 200.684 113.733 205.18 110.573 209.024L100.307 218.481C85.2546 225.275 77.3594 247.952 91.5072 258.908C91.8935 267.707 102.805 268.226 109.107 265.291C104.448 265.825 87.6696 263.5 99.3291 259.381L94.6849 259.144C84.7511 242.435 94.5822 221.857 112.529 215.171C118.683 211.45 124.83 207.043 127.195 200.04C128.699 197.53 128.246 194.54 128.295 191.648L126.706 187.038C114.245 172.966 137.617 158.829 150.783 163.751L155.549 162.214C163.391 155.273 164.173 141.844 156.771 134.553C164.847 130.501 173.349 125.149 179.137 117.886C179.396 109.682 164.293 107.886 166.06 100.037L189.281 75.2131C193.158 63.8131 189.281 52.9569 184.392 42.8242C175.788 33.4006 161.895 52.0585 153.349 38.8051L152.86 7.36183C169.531 31.9018 205.8 37.1738 233.768 31.2398C237.308 27.5848 240.658 22.3648 238.657 17.2913C238.108 16.2619 237.442 17.3018 236.946 17.7641C233.744 27.9867 226.172 15.381 223.746 10.9081L212.013 -11.0786C262.279 -8.38344 302.405 -55.7658 299.423 -102.477C302.239 -126.01 298.905 -149.911 289.524 -170.943C270.409 -213.516 212.077 -217.862 176.595 -192.929C164.696 -186.026 150.098 -186.835 138.219 -192.693C136.711 -189.667 138.693 -186.48 139.196 -183.473C143.249 -177.255 150.152 -173.396 157.162 -171.534L179.161 -170.115C198.09 -172.234 218.804 -166.64 231.373 -151.557C245.413 -126.969 248.718 -86.7694 220.129 -70.4661C216.33 -69.5241 211.948 -68.8103 208.029 -69.8751C202.593 -70.3432 197.519 -72.6913 192.996 -75.6673L181.264 -88.4337C159.46 -122.009 111.15 -164.058 71.0237 -133.353L60.0241 -127.206C31.1319 -161.037 -27.0484 -154.238 -52.1713 -118.222C-56.9427 -114.383 -60.4459 -109.39 -63.9042 -104.51L-78.5703 -87.9609C-85.1309 -81.223 -92.1462 -75.1992 -99.8361 -70.2297C-106.778 -66.5478 -113.388 -61.253 -121.957 -62.3098C-168.009 -90.3487 -136.281 -167.807 -86.27 -171.061C-80.3302 -172.536 -74.1167 -173.09 -67.6929 -172.952C-59.6364 -173.059 -51.8585 -173.563 -44.2272 -171.534L-22.717 -171.061C-11.5072 -173.316 1.80028 -177.042 6.61515 -188.556L6.49293 -190.802C-0.678777 -188.975 -9.93307 -186.444 -16.9728 -190.802L-46.5494 -205.696C-59.6022 -210.176 -74.4589 -208.831 -88.7143 -209.36C-101.19 -210.575 -113.383 -206.827 -124.891 -203.213C-185.931 -187.184 -216.402 -118.009 -201.154 -61.3641C-187.808 -25.3439 -154.663 9.29241 -113.256 11.5937C-111.481 20.9841 -114.341 30.2232 -123.277 35.2352L-124.866 39.3725C-119.718 55.7892 -144.778 59.7137 -143.932 75.3077C-141.331 82.3954 -132.101 79.7986 -127.188 76.8444C-117.22 82.1542 -108.905 71.2791 -101.767 65.4964C-99.6014 67.1627 -98.128 70.36 -94.6785 69.7519C-101.22 114.813 -87.7366 162.03 -53.3691 193.87L-49.0915 199.662L-48.1137 203.445L-49.5803 205.809C-41.5727 207.071 -53.682 192.068 -48.4804 196.707L-45.6694 198.717L-42.614 203.327C-41.5355 204.637 -41.4065 206.822 -42.1251 208.291L-45.6694 211.483C-43.7565 211.996 -42.5299 210.738 -41.3918 209.473C-39.7003 193.813 -61.6359 187.813 -68.1574 174.602C-89.4417 144.388 -98.4624 106.231 -92.1119 69.6337L-89.5454 65.4964C-79.7631 56.9334 -64.7646 58.7302 -55.569 48.9473C-61.6896 57.2361 -54.2324 64.598 -52.5136 72.4707C-63.4544 81.9226 -53.506 91.5844 -43.7139 95.6394C-45.378 100.179 -51.7539 104.198 -47.9915 109.706C-45.0094 118.051 -24.648 109.489 -34.4254 119.281C-34.3667 121.044 -34.8321 123.081 -33.3255 124.364C-23.9817 124.974 -13.8196 133.565 -26.4813 139.022L-17.9261 136.421C-21.6508 140.142 -27.4796 144.715 -23.5481 150.37L-0.326797 166.919C-6.70165 160.479 -15.252 154.791 -22.8148 149.188C-25.1027 141.173 -13.1 134.539 -8.63757 129.801C-3.97865 135.589 -17.4372 138.416 -15.8484 145.287C-15.8958 147.29 -16.1285 149.291 -14.7484 150.842C-2.99407 155.519 16.4707 167.912 -1.0601 179.449C-2.58342 182.219 -3.89407 185.001 -3.62666 188.314C-2.96669 193.079 2.28523 193.52 6.0285 194.579C9.73902 206.764 24.6969 201.776 28.1498 212.429C29.372 222.131 17.9999 224.732 13.1171 230.987C8.65373 237.522 16.2116 242.749 21.6723 244.463C16.6125 240.945 17.5511 234.578 22.8945 230.987C26.8152 227.053 33.1309 224.845 34.5051 219.048C35.3333 215.441 35.5063 210.3 33.6496 207.346L34.0162 215.738C33.3269 226.779 16.4182 229.578 16.0503 240.207C13.7355 238.51 12.1491 236.257 13.1171 233.351L16.5392 228.623C22.8065 225.247 30.5145 220.046 29.1276 211.956L15.0726 193.397C13.9584 191.327 14.6722 189.209 15.9281 187.369C18.8305 182.834 15.1278 184.613 14.3393 188.196C11.2398 194.456 18.8608 199.203 22.1612 203.799C14.4468 204.381 9.0326 198.239 6.15072 192.097C6.54181 185.945 11.5747 181.733 16.0503 177.557C18.9615 174.371 16.988 172.541 15.317 176.848C10.311 181.378 5.05381 185.931 5.05076 192.924L-0.571232 191.506C-2.46095 189.652 -2.22322 187.005 -2.16006 184.532L-0.0823628 180.394C15.4832 171.959 5.67651 154.526 -9.37087 153.207L-13.7707 150.37C-19.0749 141.896 -6.66449 137.698 -6.07101 130.629C-6.93826 128.784 -9.59918 128.228 -11.3263 129.092C-15.7799 115.721 -43.228 114.732 -39.3141 98.4764L-40.9029 94.8119C-52.2701 90.8874 -51.0894 79.2983 -51.047 69.1609L-55.9356 58.2857C-56.0051 54.5929 -54.8557 51.2841 -53.3691 48.0017C-20.6589 25.9205 -18.5665 -13.7926 -10.8375 -47.5102L-1.30454 -56.494C-2.87087 -50.6262 2.88018 -44.2902 -4.97105 -38.7628C-3.45605 -37.4536 -2.23534 -40.2073 -1.30454 -41.127C5.6374 -49.1131 14.2806 -56.8202 17.3947 -66.5416L15.0726 -68.7876C15.7037 -70.4392 18.6286 -72.1844 16.7836 -73.9887C11.2105 -64.8243 1.83889 -66.0305 -8.39314 -65.4778L-26.9702 -43.964L-18.2927 -50.9382M149.878 97.5307C149.81 96.6394 150.8 97.5968 149.878 97.5307ZM-65.713 52.6118C-65.7813 51.7205 -64.7915 52.6779 -65.713 52.6118ZM-65.713 52.6118L-66.0797 50.3658L-59.7244 45.1647C-57.0214 44.3911 -55.0816 41.5452 -53.3691 39.4907C-49.0201 36.1856 -45.4934 31.6748 -42.614 27.1971L-41.7584 28.0246C-42.3177 29.6118 -45.9446 32.115 -43.3473 32.6347L-45.5472 36.4173L-41.3918 34.526L-33.081 25.0694L-28.4368 14.4307L-27.2146 13.2486L-21.2259 -4.60079L-19.7593 -15.9487C-18.3939 -18.3829 -18.3167 -21.1782 -18.2927 -23.9869L-15.8484 -32.025L-15.3595 -41.4816L-12.3041 -49.4015L1.62868 -61.4587V-62.168L-0.20458 -62.759C-6.74076 -60.7045 -12.3041 -55.3119 -14.9929 -49.1651L-27.7035 -34.5073L-33.8143 -30.7247V-31.4339L-25.0147 -38.9992L-23.7925 -40.1813L-20.7371 -45.7371M-20.7371 -45.7371L-20.2482 -46.2099M-20.7371 -45.7371L-22.2037 -44.7914L-22.5703 -44.9096L-19.1483 -49.8744L-18.2927 -50.9382M-20.2482 -46.2099C-20.3165 -47.1012 -19.3267 -46.1439 -20.2482 -46.2099ZM-18.2927 -50.9382L-17.8039 -51.4111L-17.315 -51.8839M-17.315 -51.8839C-17.3833 -52.7752 -16.3935 -51.8178 -17.315 -51.8839Z" stroke="#1C1C1C" stroke-width="0.480783"/>
<path d="M63.3484 -5.07361L64.6928 -4.9554V-4.24615C62.555 -1.08386 60.7975 2.54843 57.482 4.85584L56.6265 4.2648L63.2262 -4.24615L63.3484 -5.07361Z" fill="#3F3F3F" stroke="#3F3F3F" stroke-width="0.480783"/>
<path d="M79.4811 30.3887H86.8141L88.7696 31.3343C97.0559 32.8015 104.682 37.3771 111.38 42.5641C115.615 44.8393 120.595 45.2162 123.601 49.6565L125.313 49.4201L129.712 52.2571L136.801 58.6403C138.743 59.058 140.913 61.2021 141.445 62.8958L135.823 61.4773L129.712 55.5669L126.779 56.2762L124.335 54.6213L123.479 54.9759L119.691 52.0207C118.877 50.6509 118.022 51.0769 116.757 51.075C110.436 43.0511 101.329 37.4906 91.7028 34.1713C85.0493 33.5916 77.5305 32.8734 71.2925 35.2352C61.4125 40.1763 54.231 53.912 61.7596 63.1322L63.4706 66.6785C64.1355 67.0435 64.904 68.3915 63.8373 68.688C61.3939 66.5498 59.9058 63.2883 58.8263 60.2952L56.0153 54.9759C55.6037 44.5121 64.0719 34.4834 74.4702 32.1618L79.4811 30.3887Z" fill="#1B1B1B" stroke="#1B1B1B" stroke-width="0.480783"/>
<path d="M73.6147 44.1009C77.6082 43.742 81.3632 45.0115 84.2476 47.5289L84.492 48.711L85.3475 49.7748L84.7364 50.6023L83.0254 50.1294C81.5989 46.0901 76.0688 46.4825 72.7591 48.0017L67.8704 57.9312L66.7705 61.1228L65.4261 61.0046L63.8373 56.3945V53.0846C64.2795 48.5875 68.5202 44.9472 73.1258 44.5737L73.6147 44.1009Z" fill="#101010" stroke="#101010" stroke-width="0.480783"/>
<path d="M88.7696 55.9216C96.8115 55.3178 99.73 63.8651 101.969 69.6337L102.458 77.6718L100.136 83.7004L100.502 80.9816L101.48 78.6174L100.991 71.9978L95.736 61.4773L95.4915 60.2952L93.0472 58.4039H88.8918C88.6985 59.5207 88.4369 61.0116 89.6251 61.7137L95.6138 66.7967C95.012 70.1987 90.114 69.2913 87.6696 68.8062C84.073 68.0109 79.5789 65.6846 79.4811 61.5955C80.4168 57.9079 84.5458 55.9972 88.2807 56.3944L88.7696 55.9216Z" fill="#131313" stroke="#131313" stroke-width="0.480783"/>
<path d="M20.8168 66.3239L26.0721 66.4421V67.1513C21.8024 66.7565 18.9591 70.1093 15.9281 72.4707L14.9504 70.5793L16.2948 69.0426L20.8168 66.3239Z" fill="#202020" stroke="#202020" stroke-width="0.480783"/>
</g>
</g>
<defs>
<clipPath id="clip0_1_897">
<rect width="80" height="80" fill="white"/>
</clipPath>
<clipPath id="clip1_1_897">
<rect width="600" height="600" fill="white" transform="translate(-236 -252)"/>
</clipPath>
</defs>
</svg>
