<?xml version="1.0" encoding="UTF-8" standalone="no"?>
<svg
   width="80"
   height="80"
   viewBox="0 0 80 80"
   fill="none"
   version="1.1"
   id="svg1039"
   sodipodi:docname="gnu.svg"
   inkscape:version="1.1.2 (b8e25be8, 2022-02-05)"
   xmlns:inkscape="http://www.inkscape.org/namespaces/inkscape"
   xmlns:sodipodi="http://sodipodi.sourceforge.net/DTD/sodipodi-0.dtd"
   xmlns="http://www.w3.org/2000/svg"
   xmlns:svg="http://www.w3.org/2000/svg">
  <sodipodi:namedview
     id="namedview1041"
     pagecolor="#ffffff"
     bordercolor="#666666"
     borderopacity="1.0"
     inkscape:pageshadow="2"
     inkscape:pageopacity="0.0"
     inkscape:pagecheckerboard="0"
     showgrid="false"
     inkscape:zoom="6.2625"
     inkscape:cx="40"
     inkscape:cy="40"
     inkscape:window-width="3440"
     inkscape:window-height="1387"
     inkscape:window-x="0"
     inkscape:window-y="25"
     inkscape:window-maximized="1"
     inkscape:current-layer="svg1039" />
  <path
     d="m 13.6517,47.68 c 0,-5e-4 -4.23895,0.9515 -4.23895,0.9515 L 11.9125,44.7119 14.7746,38.1569 6.21008,34.388 0.950193,26.0185 0.29834,15.427 4.27548,7.09158 12.5651,1.94322 22.8816,1.39551 l 6.2897,3.19798 3.5641,0.23653 -2.7051,2.53602 -8.2341,-0.8397 -7.3138,1.98907 -4.1109,4.75689 -1.33183,6.6673 2.71533,5.027 3.7219,0.448 13.2303,-13.2823 6.9479,-0.971 6.881,3.9357 3.0964,-2.3987 4.597,-1.5804 5.6314,1.927 9.4121,11.4687 3.4134,0.6402 L 71.516,21.3042 71.2512,14.2795 67.4467,8.79803 62.114,6.97974 57.7999,7.73556 52.4126,7.30483 51.649,5.58931 l 4.4615,-1.76826 3.5782,-1.82872 5.4795,-0.37547 8.0695,3.17144 5.6742,7.9345 0.7336,11.2595 -4.8957,9.1587 -6.8868,3.4911 0.1797,2.6751 1.9163,0.2418 -0.7935,1.7985 -4.4764,0.1663 -8.6235,-3.854 1.2426,5.2293 h 4.2369 l 1.2576,4.4282 -4.2369,5.0025 2.2906,2.7506 -2.9194,2.7507 -0.4491,4.1864 -5.8988,1.7531 1.4373,4.6851 -9.1475,8.2822 -6.2805,-7.8892 -4.5246,-0.3922 1.2895,-4.6845 -5.1655,-2.3953 0.0905,-3.5357 -3.5756,-3.5867 -2.8245,-9.8741 -9.2365,3.3094 z"
     fill="#ffffff"
     id="path1009" />
  <path
     d="m 16.8698,46.981 c -0.5441,0.0373 -1.2524,0.2834 -1.7276,1.1432 -0.3879,0.7021 -1.2966,0.8141 -1.7209,0.6727 -0.7068,-0.2358 -1.6102,-0.3993 -2.4853,0.2301 -0.875,0.6294 -1.82002,0.1534 -1.65429,-0.9938 0.16573,-1.1471 0.57625,-2.1689 1.66589,-2.8017 2.3797,-1.382 0.7258,-2.3438 2.0319,-3.7308 1.3086,-1.3896 1.0195,-1.8149 0.9761,-3.7023 C 9.53263,37.1277 7.02583,35.8408 4.22663,32.3103 1.42744,28.7797 0.342316,25.8735 0.0521714,21.4471 -0.237973,17.0207 0.0135453,14.1521 1.90802,10.4779 3.8025,6.80365 5.79713,5.03493 9.25372,3.20033 12.7103,1.36602 16.0971,0.926672 19.2276,0.980174 22.3581,1.03352 24.4441,1.26506 26.213,2.28385 c 1.7687,1.01879 3.3868,2.30086 4.4183,2.31008 1.0317,0.00922 1.734,-0.26358 2.2354,-0.65139 0.1338,3.43119 -2.9253,3.72922 -5.662,3.80177 C 24.4678,7.8167 22.786,6.67383 20.2653,7.09897 17.7446,7.5241 13.6174,8.68209 11.6069,12.2148 c -2.01049,3.5328 -2.07906,4.7816 -1.91198,7.7441 0.16708,2.9627 2.69308,5.173 4.11888,5.197 1.4258,0.0241 1.7441,-0.3927 2.9921,-1.2145 1.2481,-0.8218 7.6198,-8.7841 9.7939,-10.5727 2.1743,-1.7885 4.3199,-2.3407 6.6365,-2.3694 2.3167,-0.0287 2.9087,0.0506 4.7771,0.8236 1.8684,0.7729 3.0166,2.1965 4.523,3.0667 0.77,-0.4575 1.2483,-1.1406 1.9548,-1.6619 2.5267,-1.8642 3.8395,-2.3666 6.8426,-2.0716 1.7261,0.1696 3.9025,1.165 5.2011,2.3048 2.3123,2.0296 4.2227,4.8552 5.7664,7.0017 1.202,1.6717 2.6165,3.6718 4.6358,4.2971 2.2049,0.6823 3.864,-2.2004 4.1076,-3.7994 0.138,-0.906 0.3181,-1.7001 0.3196,-2.6972 0.0015,-0.9974 -0.0994,-2.2077 -0.3841,-3.247 C 70.6954,13.9768 70.2076,12.9425 69.6794,12.085 68.8198,10.6893 67.4132,9.22874 65.9498,8.4773 65.1284,8.05564 63.1961,7.28894 61.978,7.26204 60.4855,7.22939 59.3485,7.73554 57.9686,7.83045 56.2983,7.94547 53.3149,8.32451 52.0055,7.02189 51.1722,6.19292 51.0674,5.63992 50.925,4.55902 c 0.3681,0.30619 0.883,0.5075 1.3413,0.54665 1.0459,0.08916 2.0251,-0.7729 2.8694,-1.2724 0.6954,-0.41153 1.6802,-1.14695 2.5936,-1.51859 2.3469,-0.95516 5.2298,-0.92765 7.7073,-0.67179 1.9858,0.20494 4.5604,1.09678 6.302,2.09169 1.7498,0.9993 3.4361,2.68428 4.6712,4.2727 1.5539,1.99862 2.4034,3.71332 2.9661,6.20602 0.7194,3.1832 0.9188,7.965 0.0491,11.1036 -0.6853,2.4733 -2.9611,6.2727 -4.8984,8.1351 -1.9107,1.837 -4.1169,2.7237 -6.6258,3.2087 0.0983,0.5111 0.1144,0.9878 0.2442,1.4069 0.1845,0.5949 0.5372,1.258 1.2618,1.0482 0.289,-0.0835 0.4436,-0.1559 0.8246,0.1805 0.3808,0.3364 0.1825,1.636 -0.889,2.2192 -0.5433,0.2958 -1.1167,0.36 -1.9868,0.3776 -0.8701,0.0175 -2.2282,0.0213 -3.1729,-0.1457 -0.9445,-0.1669 -1.5088,-0.9236 -2.555,-1.0421 -1.6168,-0.1825 -2.8547,-1.3617 -4.1511,-2.205 -0.5409,-0.352 -0.7234,-0.3556 -1.0351,-0.5335 0.1684,0.5205 0.393,1.0611 0.505,1.5615 0.1122,0.5004 0.0643,0.9639 0.1239,1.3644 0.0593,0.4002 0.1693,0.7114 0.2334,1.036 0.259,0.2338 0.3418,0.5895 0.7769,0.7013 0.4354,0.1117 1.117,-0.0623 1.5624,-0.1227 0.4454,-0.0605 0.7439,-0.3055 1.0934,-0.2384 0.3497,0.067 0.681,0.3197 0.974,0.5565 0.293,0.2368 0.5448,0.2715 0.7819,0.8624 0.2372,0.5909 0.4547,1.801 0.4872,2.6099 0.0325,0.8089 -0.0573,1.539 -0.2948,2.1809 -0.2374,0.6418 -0.4461,0.9264 -1.0891,1.5621 -0.6431,0.6358 -1.6902,1.5688 -2.735,2.2186 0.1924,0.2876 0.2777,0.5509 0.5777,0.863 0.3001,0.3122 0.9256,0.6621 1.2039,0.9914 0.278,0.3294 0.419,0.5656 0.4231,0.9349 0.0043,0.3693 -0.0135,0.8493 -0.3105,1.2519 -0.7398,1.0025 -1.6147,1.182 -2.6786,1.6535 0.179,1.1278 0.3249,1.9335 0.0664,3.0596 -0.1056,0.4588 -0.34,1.4992 -0.9007,1.7661 -0.5608,0.2669 -1.6422,0.1377 -2.3267,0.2474 -0.6845,0.1099 -1.0676,0.2142 -1.6012,0.3212 -0.3243,0.4732 -0.8071,0.9954 -0.9725,1.4194 -0.1658,0.4243 -0.1158,0.5763 0.0233,1.0095 0.1391,0.4331 0.6127,1.0638 0.7468,1.571 0.1341,0.5072 0.1602,1.0532 0.035,1.5618 -0.1254,0.5086 -0.34,0.8776 -0.7694,1.3292 -0.4292,0.4518 -1.2737,0.8065 -1.6944,1.1725 -0.421,0.3662 -0.8401,0.4102 -0.7252,1.0161 0.1579,0.8321 1.3624,2.1818 2.2337,2.5031 0.5222,0.1927 1.2232,0.1319 1.8574,-0.1383 -0.043,0.7108 -0.6523,1.1899 -1.0504,1.6618 1.0781,-0.3111 2.1235,-0.9069 2.8466,-1.6966 -0.2243,0.6859 -0.9959,1.7869 -2.15,2.7537 -1.1542,0.9668 -1.1471,0.7689 -1.7208,1.1536 1.0468,0.2123 2.0202,0.1549 2.8311,0.0078 -0.4445,0.2474 -1.1732,0.5954 -2.1384,0.6977 -0.9652,0.1021 -1.5603,0.0299 -2.4302,-0.1834 -0.8699,-0.2134 -1.664,-1.0116 -2.7181,-1.5619 0.1027,0.3947 0.1757,0.8695 0.619,1.2754 0.4433,0.4059 1.114,0.6124 1.827,0.9635 -0.9076,-0.104 -1.8613,-0.1354 -2.7531,-0.3339 -0.6603,-0.147 -1.1038,-0.303 -1.587,-0.5445 -0.4828,-0.2415 -0.8556,-0.5938 -1.2833,-0.8906 0.2049,0.3952 0.2657,0.8601 0.6146,1.1859 0.3488,0.3258 0.9157,0.4472 1.3743,0.671 -0.4783,-0.0105 -0.9384,0.0942 -1.4342,-0.0317 -0.4962,-0.1259 -0.9615,-0.3237 -1.4773,-0.7073 -0.5157,-0.3836 -1.0477,-0.8559 -1.4878,-1.3388 -0.4399,-0.4828 -0.983,-1.1088 -1.1474,-1.5541 -0.1647,-0.4454 0.0988,-0.7568 0.1482,-1.1348 -0.3038,0.2014 -0.6775,0.3124 -0.9109,0.6048 -0.2334,0.2925 -0.4403,0.5595 -0.337,1.0693 0.1035,0.5098 0.5695,1.1329 0.8991,1.6999 -0.9834,-0.8117 -1.5325,-1.1242 -1.7665,-2.1034 -0.219,-0.9168 0.3476,-1.749 0.7784,-2.4422 0.2139,-0.3443 0.534,-0.6647 0.734,-0.997 -0.4442,-0.4388 -0.9519,-0.8158 -1.3326,-1.3163 -0.3806,-0.5002 -0.5405,-1.1773 -0.929,-1.6559 -0.3886,-0.4788 -0.9114,-0.7818 -1.3667,-1.1722 0.4002,0.8678 1.0579,1.9322 1.2007,2.6039 0.1427,0.6716 -0.16,1.0827 -0.3961,1.4452 -0.2363,0.3626 -0.6175,0.4435 -0.979,0.6662 -0.3616,0.223 -0.9239,0.0472 -1.1393,0.378 -0.2153,0.3307 -0.2731,0.8282 -0.0673,1.1559 l 0.8444,1.3454 c -0.3111,-0.1585 -0.8471,-0.6197 -1.0887,-0.9467 -0.2416,-0.3271 -0.6123,-0.6292 -0.6631,-1.0714 -0.0507,-0.4421 -0.0754,-0.8258 0.2083,-1.2196 0.2838,-0.3937 1.0608,-0.5255 1.4086,-0.8283 0.3478,-0.3027 0.5429,-0.4998 0.523,-0.891 -0.0198,-0.3913 -0.3984,-0.6712 -0.7239,-0.9179 -0.9936,-0.7523 -2.2683,-1.4456 -3.1121,-2.3524 -0.4767,-0.5123 -0.7054,-0.926 -0.8012,-1.2795 -0.0957,-0.3533 0.0055,-0.629 0.2423,-1.0636 0.2369,-0.4349 1.0491,-1.0154 1.1479,-1.4876 0.0987,-0.4722 -0.3116,-0.5736 -0.6818,-0.7401 -0.3702,-0.1666 -1.0734,0.0853 -1.4169,-0.2044 -0.3433,-0.2897 0.1009,-0.8985 -0.2861,-1.2323 -0.3869,-0.3339 -1.2724,-0.1475 -1.7295,-0.5066 -0.4571,-0.3593 -0.646,-0.8051 -0.8035,-1.3262 -0.1575,-0.5211 -0.1753,-1.092 -0.0686,-1.4693 0.1068,-0.3774 0.4275,-0.4435 0.6209,-0.639 0.1934,-0.1956 0.3613,-0.3578 0.1035,-0.6495 -0.2579,-0.2915 -1.1027,0.0164 -1.5884,-0.358 -0.4856,-0.3743 -0.1883,-1.271 -0.5317,-1.649 -0.3433,-0.378 -0.9596,-0.23 -1.2847,-0.3508 -0.3251,-0.1207 -0.4526,0.3053 -0.652,-0.3685 -0.1995,-0.6739 -0.2048,-2.6826 -0.4731,-3.4322 -0.2683,-0.7496 -0.7952,-0.0506 -1.0398,-0.7957 -0.2446,-0.7449 -0.0127,-1.9363 -0.1229,-3.0615 L 22.851,44.5644 c -1.7418,1.1811 -2.8916,1.552 -4.7628,1.8857 -0.1562,4.6219 -0.5863,7.3437 0.9677,12.4715 1.554,5.1277 4.6991,8.1497 8.9418,12.491 C 22.3992,67.1785 19.7263,63.7363 18.0534,59.3265 16.3802,54.9161 16.7015,51.2278 16.8698,46.981 Z m 29.7493,-1.8577 c 0.4307,0.0194 0.9541,0.1298 1.2565,0.3281 0.3026,0.1983 0.6237,0.3603 0.8983,0.6424 0.6851,0.7043 1.1989,1.5537 1.426,2.5297 0.1448,0.6222 0.1663,1.4202 0.219,2.1508 -0.2073,-0.6753 -0.3467,-1.3794 -0.6421,-1.9844 -0.4657,-0.9539 -1.257,-1.8851 -2.2395,-2.3138 -0.3243,-0.1418 -0.5407,-0.1155 -0.7191,-0.0904 0.0798,0.1352 0.2135,0.2486 0.2193,0.4467 0.0059,0.1982 -0.038,0.5858 -0.3708,0.7487 -0.5366,0.2629 -1.1331,0.078 -1.5475,-0.2918 -0.4178,-0.3727 -0.5602,-1.0032 -0.3415,-1.545 0.2607,-0.6457 1.2539,-0.6473 1.8414,-0.621 z m -5.4005,-0.9189 c 0.054,-1.1101 0.4509,-2.0462 1.4364,-2.5906 0.5096,-0.2814 1.2947,-0.6454 2.0161,-0.7309 0.6931,-0.0821 2.3788,-0.0221 3.3929,0.4451 0.7786,0.3588 1.309,0.9174 1.9928,1.3256 0.6836,0.4083 1.1699,0.6821 1.8208,1.14 0.9992,0.7029 1.5849,1.4769 2.2776,1.9408 0.3331,0.223 0.8017,0.1899 1.244,0.3262 -0.3439,0.1031 -0.7934,0.2167 -1.1644,0.097 -0.4626,-0.1493 -1.1093,-0.5763 -1.4682,-0.8823 -0.6342,-0.5408 -0.963,-0.8046 -1.6551,-1.2125 -0.4132,-0.2431 -1.0936,-0.5295 -1.5477,-0.8284 -0.4544,-0.299 -1.2431,-0.9549 -1.6797,-1.1769 -0.5549,-0.282 -1.5541,-0.4389 -2.172,-0.4206 -0.8513,0.0251 -2.0834,0.1669 -2.7421,0.7702 -0.6544,0.5997 -0.903,1.1273 -0.7554,1.9061 0.2465,-0.2866 0.4106,-0.6466 0.6574,-0.8597 0.5115,-0.441 1.0983,-0.4623 1.7349,-0.3787 0.7152,0.094 1.0753,0.511 1.3115,1.1964 -0.159,-0.1179 -0.4512,-0.3768 -0.6819,-0.4571 -0.5415,-0.1886 -0.951,-0.1305 -1.4582,0.1441 -0.5989,0.3243 -0.436,0.8043 -0.5222,1.3381 -0.0396,0.2462 -0.1316,0.4445 -0.1974,0.6668 -0.2251,-0.0601 -0.4334,-0.1548 -0.6038,-0.3252 0.0071,0.2493 -0.0289,0.4674 0.0217,0.7479 0.0504,0.2804 0.1857,0.6135 0.2784,0.9201 -0.417,-0.421 -0.8437,-0.8131 -1.113,-1.3567 -0.2696,-0.5439 -0.4523,-1.1476 -0.4234,-1.7448 z m 0.7216,-8.0796 c 0.3074,-0.4605 0.3974,-1.1669 0.5869,-1.7412 -0.0758,0.7274 0.0699,1.5273 -0.2819,2.0542 -0.3518,0.5268 -0.9697,0.4345 -1.4816,0.5877 0.3983,-0.3065 0.8691,-0.4402 1.1766,-0.9007 z m -7.3585,10.7861 c 0.3946,-0.3226 1.4597,-0.0647 2.2563,-0.0071 -0.5725,0.1479 -1.145,0.296 -1.7175,0.444 -0.0533,0.1966 -0.0292,0.422 -0.1599,0.5896 -0.1309,0.1677 -0.3794,0.2298 -0.5689,0.3445 0.0187,-0.5165 -0.2047,-1.0487 0.19,-1.371 z m 5.6129,-22.401 c 0.4755,0.2584 1.0789,0.6001 1.4989,0.6107 0.4199,0.0106 0.5298,-0.2772 0.7769,-0.4433 0.3886,1.2794 0.8348,2.685 1.4965,3.8459 0.2773,0.4864 0.4541,0.2603 0.6649,0.749 0.2105,0.4886 0.304,1.4829 0.5038,2.1073 0.2,0.6243 0.4608,1.0838 0.6912,1.6256 -0.5851,-0.8369 -1.341,-1.9039 -1.6671,-2.6003 -0.3258,-0.6963 -0.1172,-0.7569 -0.381,-1.42 -0.2638,-0.6632 -0.7971,-1.697 -1.1956,-2.5454 -0.2854,0.0382 -0.6387,0.0907 -0.8556,0.0231 -0.217,-0.0676 -0.1737,-0.3005 -0.3697,-0.451 C 41.1616,25.861 40.8317,25.9193 40.5569,25.679 40.282,25.4389 40.2194,24.946 40.1946,24.5099 Z m -2.5603,6.3126 c 0.4475,-0.0395 1.0032,0.0815 1.4223,0.0575 0.419,-0.024 0.7182,-0.1338 1.0773,-0.2007 -0.0666,-0.6372 -0.0034,-1.8079 -0.5861,-2.2333 -0.3764,-0.2748 -1.9222,-0.0679 -2.3351,0.022 -0.9291,0.2023 -2.0111,0.7621 -2.9097,1.1121 0.8612,-0.6073 1.6051,-1.1701 2.638,-1.4835 0.6209,-0.1885 2.0698,-0.4335 2.7105,-0.2588 0.2926,0.0797 0.3517,0.2019 0.5291,0.4522 0.61,0.8597 0.6082,1.6026 0.7664,2.604 0.1556,0.2447 0.3213,0.4079 0.4474,0.6603 0.1257,0.2524 0.197,0.6496 0.2322,0.9742 -0.1596,-0.2336 -0.062,-0.5267 -0.5041,-0.7006 -0.4424,-0.174 -1.1197,-0.0115 -1.7157,0.0514 0.4344,0.3164 0.6503,0.6213 0.6669,1.2904 0.0195,0.7855 -0.6394,1.3509 -1.3273,1.4047 -0.955,0.0749 -1.4474,-0.1369 -1.8337,-0.9609 -0.1692,-0.3609 -0.0466,-0.7951 -0.0606,-1.1469 -1.1476,0.0805 -1.1289,0.0428 -1.9676,0.7487 0.4559,0.6742 0.743,1.0619 1.4964,1.4652 0.4225,0.2264 0.9008,0.4465 1.4244,0.5364 0.5237,0.0899 1.3826,0.1768 1.9326,0.0916 0.5502,-0.0852 0.8619,-0.2438 1.2698,-0.6245 0.4079,-0.3808 0.4454,-0.9261 0.6047,-1.3572 -0.0363,0.4149 -0.0834,0.9433 -0.236,1.2442 -0.4641,0.9148 -1.2667,1.1859 -2.225,1.1889 -0.9199,0.0031 -2.0577,-0.2111 -2.9135,-0.5693 -0.6842,-0.2862 -1.8184,-1.0969 -2.0876,-1.8012 -0.184,-0.4812 -0.0383,-1.0717 -0.0576,-1.6076 0.9474,-0.636 1.1818,-0.4796 2.3027,-0.6657 0.4689,-0.078 0.7914,-0.2538 1.2389,-0.2936 z m -5.5186,-4.3074 c 0.0267,-0.381 0.0684,-0.3729 0.1027,-0.5594 -0.8631,-0.233 -1.2092,0.3322 -1.7152,1.382 -0.1894,0.3928 -0.002,0.6266 -0.2052,0.8852 -0.2028,0.2586 -0.5298,0.2223 -0.8593,0.4706 -0.3295,0.2482 -0.6561,0.7235 -0.9642,0.9806 -0.6322,0.5276 -1.4868,0.8497 -2.2201,1.2047 0.5008,-0.373 1.4726,-0.9387 1.787,-1.4807 0.1668,-0.2873 0.1421,-0.8291 0.4017,-1.0874 0.2595,-0.2584 0.3503,-0.4372 0.6854,-0.5031 0.335,-0.0659 0.2003,-0.4579 0.3084,-0.7696 0.1081,-0.3116 0.3234,-0.5329 0.5524,-0.8442 0.2291,-0.3114 0.518,-0.7788 0.9703,-0.9485 0.4523,-0.1699 1.1576,0.0137 1.5,-0.0841 0.3423,-0.0977 0.1457,-0.3489 0.3944,-0.4998 0.2489,-0.1508 0.733,-0.0843 1.0655,-0.2456 0.5894,-0.286 0.8713,-0.7636 1.2258,-1.2749 0.0515,1.1005 0.0389,1.8929 -0.3529,2.9283 -0.4412,1.1654 -0.8884,1.8519 -2.1406,2.5686 -0.4314,0.2468 -0.8608,0.3325 -1.2185,0.462 0.2086,-0.2872 0.5071,-0.4119 0.6258,-0.8615 0.1185,-0.4499 0.03,-1.3421 0.0566,-1.7232 z m 20.217,5.3663 c -0.5954,0.0391 -0.7366,-0.0399 -1.2129,0.2992 0.2582,0.4057 0.5163,0.8113 0.7743,1.217 -0.0228,-0.8007 0.0545,-0.9612 0.4386,-1.5162 z m -1.56,-0.5819 c 0.8246,-0.3545 1.5431,-0.6414 2.4402,-0.6981 0.3596,-0.0228 0.9179,0.0334 1.2811,0.0501 0.3093,-0.4598 0.7035,-0.8224 0.848,-1.3471 0.0956,-0.348 0.0485,-1.9635 -0.1208,-2.3829 -0.4933,-1.2206 -0.9729,-1.2721 -1.6518,-1.9712 -0.4927,-0.5071 -0.5124,-1.2792 -0.6597,-2.1445 -0.054,-0.3178 -0.2085,-0.72 -0.281,-1.0479 -0.8875,-0.151 -1.8419,-0.2007 -2.863,-0.1492 0.4951,-0.4794 0.9738,-0.9174 1.1159,-1.6371 0.1417,-0.7197 0.0263,-1.6046 -0.379,-2.2499 -0.4052,-0.6454 -1.0526,-1.2076 -1.6468,-1.7334 -0.5945,-0.5258 -1.4465,-0.9598 -2.0098,-1.3899 0.7326,-0.2648 1.4805,-0.6538 2.1981,-0.7942 1.8693,-0.3661 3.48,0.1937 5.283,1.2941 1.0483,0.6401 1.9153,1.2481 3.0112,2.4062 1.0956,1.158 2.4545,3.2822 3.5152,4.5419 1.0607,1.2597 1.9171,2.2559 2.8425,3.0072 0.9255,0.7515 1.7632,0.9655 2.6445,1.448 l 1.3738,1.4727 1.1118,-1.3888 1.7889,0.2042 0.3696,-2.027 1.6419,-0.4542 -0.2678,-2.7325 1.1805,-0.8457 -0.8872,-1.7001 0.9014,-1.8577 -1.1752,-2.1236 0.4532,-2.0447 L 71.4708,11.8337 71.2932,9.66083 69.3951,8.92995 68.6337,7.03957 66.4997,7.01539 65.4529,5.61211 64.0162,5.71368 62.4147,5.53761 61.5091,4.86264 60.1948,5.74345 58.6044,4.90632 55.4429,6.11796 57.5038,4.30859 59.6391,3.96431 61.2748,3.5434 l 2.2092,0.73239 1.9445,-0.49723 1.8748,1.11884 1.984,-0.11078 0.9747,1.76539 1.9754,0.23018 1.0689,1.96277 1.2424,0.68479 0.3298,2.51445 1.1066,1.0594 -0.4866,2.2001 1.3036,1.666 -1.2223,1.7852 1.307,1.1159 -1.6708,1.4948 1.6922,1.779 -2.0436,0.6653 1.3311,1.9081 -1.6693,0.2907 1.0947,2.0981 -1.8813,-0.0253 0.9477,1.5715 -2.0635,-0.2507 0.4936,2.2608 -1.5594,-1.3848 -0.5342,2.74 -1.0761,-1.9674 -0.5829,2.4539 -1.3284,-1.8095 0.0363,2.5732 -1.4683,-2.3137 c 0.3096,1.3127 0.2477,2.7502 1.1018,3.9878 2.6463,-0.3615 4.3759,-1.0347 6.4034,-3.0041 1.8465,-1.7936 4.0536,-5.5334 4.6513,-7.9055 C 79.443,22.2262 79.464,17.2479 78.7924,14.4921 78.1459,11.8388 77.3057,10.5714 75.8045,8.40627 74.3697,6.86788 72.9585,5.24274 71.1374,4.14567 68.4641,2.53534 65.0362,2.10113 61.9896,2.14299 c -1.687,0.02328 -2.8171,0.35033 -3.8257,0.72061 -1.7637,0.64746 -3.1743,2.0598 -4.9675,2.75773 -0.5847,0.22746 -1.0535,0.23456 -1.514,-0.01375 0.4509,0.91073 0.9415,1.31925 2.0662,1.65068 0.8135,0.2397 2.7547,0.08811 4.091,-0.03642 1.4346,-0.13376 2.1829,-0.56434 4.1353,-0.53728 1.9067,0.02645 3.4176,0.75763 4.2438,1.23446 1.7044,0.98388 2.9267,2.07536 3.9888,3.80428 0.5833,0.9495 0.9918,2.0207 1.2796,3.1139 0.2877,1.0931 0.4138,2.3174 0.4322,3.3876 0.0184,1.0702 -0.0626,2.0255 -0.3219,2.9885 -0.6065,2.2546 -1.9445,4.5488 -4.6929,4.1944 -1.6819,-0.217 -4.2174,-3.4038 -5.0666,-4.573 -1.7135,-2.3596 -3.4765,-4.9707 -5.6295,-6.9358 -1.3127,-1.1977 -3.11,-2.022 -4.875,-2.1851 -3.3112,-0.3059 -4.2932,0.329 -6.7856,2.4029 0.5071,0.1632 1.002,0.2533 1.5217,0.4897 1.1532,0.5246 2.2079,1.2025 3.1279,2.0722 0.964,0.9115 1.3966,1.4883 1.4309,2.7935 0.0227,0.8668 -0.6836,1.5617 -1.3312,2.1868 -0.3961,0.3828 -0.9204,0.7333 -1.2412,1.0304 -0.4252,0.3943 -0.9518,0.8256 -0.4176,1.4538 0.2009,0.236 0.5498,0.4141 0.844,0.6346 0.4669,0.3498 0.2531,1.6502 -0.3621,1.9951 -0.7872,0.4408 -1.7278,0.3916 -2.377,-0.1986 0.8194,-0.1238 1.3398,-0.2335 1.3186,-0.9101 -0.0123,-0.3922 -0.5062,-0.7181 -0.991,-0.9411 -1.1691,-0.5381 -2.0521,-0.4587 -3.2157,-1.3039 -1.1752,-0.854 -1.2011,-1.3216 -1.5188,-2.6625 -0.5667,0.0599 -1.0884,0.073 -1.8461,0.3263 -0.7577,0.2531 -1.5951,0.8559 -2.283,1.005 -1.7325,0.3764 -2.0777,0.2648 -3.0259,0.0171 -1.6693,-0.4362 -3.8428,0.3106 -6.002,1.0078 -0.359,0.1159 -1.8111,0.0039 -2.7886,0.3502 -1.5097,0.5347 -3.628,1.8296 -4.8514,2.8697 -1.8538,1.5761 -4.2899,6.2932 -5.6664,11.7074 -0.1446,1.6458 0.3191,2.7547 -0.708,3.5586 -1.027,0.8038 -0.9986,2.8633 -1.3468,3.441 -0.3482,0.5775 -0.7514,0.3222 -1.501,1.1333 -0.7496,0.8112 -1.1313,0.6756 -1.1124,2.2093 0.646,-0.4288 1.5879,-0.9272 2.4149,-0.9573 0.7324,-0.0267 0.7402,0.9467 2.62,-0.9293 1.0053,-1.0037 2.9367,-1.0344 4.2768,-1.477 1.3403,-0.4427 3.7553,-1.3549 6.1741,-4.0847 2.4187,-2.7298 3.5762,-5.6036 4.0452,-9.7583 0.0747,0.7367 0.2044,1.5675 -0.1081,3.5994 -0.3124,2.032 -0.9858,4.3143 0.4329,7.048 l 0.8839,1.7031 c -0.5263,-0.725 -1.5542,-1.9076 -1.8637,-2.7503 l -0.7138,-1.944 c -1.597,2.5312 -1.9641,2.9839 -4.1826,4.7974 -0.0883,1.125 -0.11,2.2984 0.2543,3.375 0.3642,1.0763 -0.2164,2.3171 0.0607,3.0261 0.2772,0.709 0.9181,0.3054 1.1274,1.0232 0.2093,0.7177 -0.1093,2.1367 0.2153,2.8363 0.3246,0.6996 1.1209,0.2751 1.5068,0.501 0.386,0.2261 0.5122,0.5359 0.7187,0.8332 0.2063,0.2971 -0.0807,0.9996 0.3391,1.2277 0.4196,0.2282 1.0743,0.0349 1.511,0.2539 0.4367,0.219 0.5031,0.7454 0.3984,1.2171 -0.1048,0.4716 -0.5714,0.6881 -0.7764,1.1676 -0.2048,0.4797 -0.1819,0.8136 0.0642,1.254 0.2462,0.4405 0.7911,0.6831 1.3343,0.9054 0.5431,0.2223 1.3064,0.0975 1.8669,0.4049 0.5605,0.3074 1.0643,0.9199 1.3603,1.3652 0.296,0.4451 0.3782,0.7591 0.3631,1.2272 -0.0153,0.4679 -0.2034,1.007 -0.4508,1.459 -0.2475,0.4521 -0.7935,1.0022 0.059,1.8655 0.8524,0.8631 0.821,0.491 1.3093,1.051 -0.0531,-0.9687 -0.4495,-1.7577 -0.1597,-2.4869 0.29,-0.7293 1.1606,-0.8561 1.6195,-1.184 0.4588,-0.3281 0.7231,-0.7788 1.0848,-1.1681 -0.0053,0.501 0.0479,1.0396 -0.0086,1.4168 -0.1149,0.767 -0.3392,1.4479 0.7931,1.5709 0.5101,0.0553 0.9944,-0.2785 1.5311,-0.4789 -0.2812,0.5082 -0.7701,0.9169 -0.8436,1.5252 -0.0735,0.608 0.0148,1.276 0.4319,1.8795 0.4172,0.6032 1.1377,1.0511 1.6655,1.4057 0.5278,0.3547 0.8106,0.3831 1.2162,0.5749 0.0199,0.5979 -0.0967,1.2307 -0.0292,1.7938 0.0675,0.5631 0.2433,1.0616 0.5657,1.5271 0.3228,0.4656 0.8404,0.7327 1.3279,1.077 -0.2673,-0.6283 -0.8094,-1.2244 -0.8021,-1.8848 0.0074,-0.6603 0.2035,-1.1284 0.8416,-1.7143 0.6381,-0.5861 2.1319,-1.0944 2.8363,-1.6642 0.7044,-0.5699 0.9317,-0.919 1.1845,-1.4723 0.2529,-0.5533 0.1825,-1.4447 0.2292,-1.9421 0.232,0.6967 0.265,0.9133 0.3403,1.6422 0.0758,0.7291 -0.4208,1.7517 -0.631,2.2914 0.8713,-0.4249 1.4244,-1.1039 1.7036,-1.7675 0.1868,0.1118 0.0927,0.4185 0.1614,1.0094 0.3105,-0.3119 0.6635,-0.552 0.9761,-0.8464 0.3129,-0.2941 0.6556,-0.5528 0.8109,-0.9634 0.1549,-0.4107 0.0914,-0.8473 -0.024,-1.3244 -0.1154,-0.4771 -0.6436,-1.0304 -0.9281,-1.5523 -0.2841,-0.5217 0.0503,-1.0339 0.031,-1.6626 -0.569,-0.0987 -1.0523,-0.3913 -1.7064,-0.2963 -0.6544,0.095 -1.4039,0.8363 -2.0726,0.8449 -0.6688,0.0086 -1.0443,-0.6239 -1.5925,-0.7977 -0.5483,-0.1738 -1.103,-0.1548 -1.6542,-0.2321 0.6982,-0.6753 3.4083,-0.9969 5.2621,-1.3021 1.6311,-0.2685 3.2498,-0.4237 4.9025,-0.4472 0.7381,-0.0105 1.6867,0.2355 2.1992,0.0868 0.5129,-0.1484 0.4034,-0.501 0.5556,-0.8853 0.4254,-1.0743 0.2157,-2.031 -0.0158,-3.1128 -1.4836,-0.1756 -3.0296,-0.3905 -4.5245,-0.2746 -1.4615,0.1133 -3.1922,0.8148 -4.6996,0.8622 -1.3106,0.0411 -3.2513,-0.2534 -4.3767,-0.9459 -1.3753,-0.8462 -2.4393,-2.6636 -2.8171,-3.2471 -0.6151,-0.9505 -1.3911,-2.8152 -1.8633,-3.6677 -0.4719,-0.8526 -0.5759,-1.0911 -0.9686,-1.447 -0.3927,-0.3558 -0.9307,-0.3833 -1.3958,-0.5751 0.5363,0.0554 1.1218,-0.116 1.609,0.166 0.7319,0.4239 1.5511,2.181 2.0066,2.9456 0.4825,-1.6329 0.3699,-2.2749 1.7661,-3.1956 -1.1252,1.2732 -1.1532,2.2375 -1.4275,3.7365 0.9357,1.5503 2.2366,4.0198 3.9388,4.7051 0.6149,0.2477 1.6708,0.403 2.3356,0.486 2.0687,0.2586 4.0641,-0.4032 6.0959,-0.9097 1.4851,-0.3702 2.9921,-0.2211 4.7984,-0.1139 0.6132,0.0363 2.0592,-0.3361 2.3586,-0.9623 0.1617,-0.3378 0.1497,-0.7437 -0.0825,-1.1037 -0.2325,-0.36 -0.8517,-0.5341 -1.1836,-0.8581 -0.3319,-0.3241 -0.5228,-0.7087 -0.7842,-1.0631 -1.3796,0.2672 -2.5145,0.3698 -3.5385,0.3979 0.7345,-0.3054 1.4392,-0.4797 2.2036,-0.7815 0.7645,-0.3018 1.6325,-0.7972 2.2495,-1.2083 0.6169,-0.4112 1.0108,-0.6497 1.4573,-1.1282 0.4461,-0.4788 1.0185,-0.972 1.3474,-1.5571 0.3292,-0.5852 0.3801,-1.2398 0.3986,-1.964 0.0184,-0.7241 -0.0126,-1.7402 -0.2893,-2.3236 -0.2764,-0.5832 -0.8093,-0.7602 -1.2375,-0.8981 -0.4284,-0.138 -0.7217,0.2109 -1.167,0.2581 -0.4457,0.0471 -0.8621,0.3307 -1.5065,0.0248 -0.6443,-0.3059 -1.4082,-0.9286 -2.0597,-1.8528 -0.6513,-0.9243 -1.117,-2.435 -1.781,-3.5972 -1.1446,-2.0035 -2.5709,-3.875 -3.9349,-5.7313 -0.1123,-0.4578 -0.2811,-1.0905 -0.3372,-1.7115 -0.0979,-1.0821 -0.1163,-2.2062 0.2163,-3.2611 0.255,-0.8081 0.6258,-1.6617 1.4641,-1.9932 0.3353,-0.1327 0.7596,-0.1853 1.0594,-0.0731 0.3,0.112 0.5942,0.4537 0.4764,0.8484 -0.1295,0.4341 -0.4275,0.4459 -0.6299,0.665 -0.3436,0.3718 -0.481,0.6446 -0.6108,1.1081 0.3713,-0.006 0.8731,-0.0346 1.1781,0.0464 0.3979,0.1058 0.7685,0.3721 0.9704,0.9413 -0.4749,-0.4251 -0.7108,-0.6203 -1.3035,-0.6354 -0.2716,-0.0068 -0.6016,0.0913 -0.9021,0.137 -0.1122,0.3687 -0.1783,0.8209 -0.3368,1.1063 -0.1586,0.2853 -0.4673,0.2168 -0.5832,0.5502 -0.1158,0.3328 -0.1226,0.8748 -0.0642,1.3123 z m 4.1493,-0.4998 c 0.1819,0.0724 0.2513,0.0883 0.4817,0.2653 0.2304,0.1769 0.5482,0.3536 0.7307,0.7765 0.1828,0.423 0.1743,1.0771 0.1353,1.3436 -0.1601,-0.0475 -0.3786,-0.0154 -0.5448,-0.1589 -0.1657,-0.1434 -0.2646,-0.4682 -0.4772,-0.6072 -0.2129,-0.1389 -0.3903,-0.1085 -0.6255,-0.1386 0.1208,0.347 0.1795,0.6941 0.1233,1.0088 -0.1219,0.6869 -0.5219,1.0348 -1.1695,1.117 -0.2829,0.0358 -0.732,-0.0582 -0.9781,-0.1033 0.1141,0.2572 0.3073,0.4825 0.4216,0.7398 0.5476,-0.08 0.9535,-0.0687 1.248,-0.2077 0.2945,-0.1391 0.6102,-0.4505 0.9881,-0.5825 0.378,-0.1319 0.7152,-0.1298 1.1287,-0.1949 -0.3258,0.2833 -0.5396,0.5669 -0.8649,0.8502 0.2386,0.7002 0.4773,1.4003 0.7158,2.1003 0.5059,0.3195 0.9804,0.4879 1.6179,0.8824 0.6378,0.3946 1.4024,1.1004 2.2329,1.4853 0.8304,0.3849 1.3249,0.5944 2.1927,0.7596 0.8675,0.1652 1.5579,0.8746 2.4117,0.9899 0.8538,0.1153 2.4486,0.1386 3.1065,0.0738 0.7471,-0.0736 1.7177,-0.4628 1.8048,-1.2896 -0.6264,0.1559 -1.583,0.016 -2.0662,-1.1739 -0.2143,-0.5284 -0.1092,-1.5 -0.4374,-2.1248 -0.328,-0.6249 -0.7854,-0.8255 -1.3319,-1.5954 -0.5464,-0.7698 -1.4404,-1.9842 -1.9422,-3.0157 -0.5015,-1.0313 -0.6197,-2.1996 -1.044,-3.1238 -0.4242,-0.924 -1.0643,-1.6704 -1.5603,-2.3827 -1.083,-1.5567 -1.9564,-2.6205 -3.7407,-3.4058 -0.8582,-0.3777 -1.8352,-0.4784 -2.7528,-0.7176 -0.3734,0.1688 -0.8854,0.3553 -0.9763,0.7962 -0.0909,0.4408 0.0837,1.0919 0.4007,1.4229 0.5304,0.5533 1.3164,1.1513 1.6254,2.0308 0.1985,0.5643 0.2562,2.4562 0.0841,2.9696 -0.1784,0.533 -0.5933,0.8554 -0.9381,1.2104 z m 0.1728,4.478 c -0.1657,0.1443 -0.2921,0.2926 -0.5587,0.4124 -0.2664,0.1199 -0.6302,0.1508 -0.9836,0.24 0.4957,0.7789 1.0164,1.5661 1.4912,2.385 0.4752,0.8189 0.8869,1.7156 1.3404,2.5731 -0.0214,-0.4915 0.0074,-1.0155 -0.0634,-1.4748 -0.0709,-0.4591 -0.277,-0.861 -0.4814,-1.5503 -0.204,-0.6893 -0.4553,-1.6271 -0.7445,-2.5854 z M 41.7576,18.1506 c -0.0699,0.7663 0.0585,1.9641 0.2157,2.7144 0.1883,0.898 0.3696,1.3636 1.0916,1.9047 1.3219,0.9907 2.1659,0.8237 3.1829,1.3981 0.4839,0.2734 1.0971,0.7317 1.276,1.2161 0.1789,0.4843 -0.1181,1.0103 -0.4851,1.217 0.6418,0.0965 1.3615,-0.634 1.0612,-1.3839 -0.1479,-0.3691 -0.852,-0.5335 -1.0679,-0.9059 -0.2155,-0.3722 -0.215,-0.7555 -0.1135,-1.1336 0.1834,-0.6817 1.5193,-1.301 1.9913,-1.8398 0.7264,-0.8291 1.0054,-1.5227 0.5939,-2.5904 -0.5777,-1.5 -2.8098,-2.7036 -4.1457,-3.2923 -0.6117,-0.2695 -0.9547,-0.2887 -1.4318,-0.433 0.9768,0.5779 2.0067,1.0383 2.5009,2.3302 0.4126,1.0789 0.0553,1.4855 0.0691,2.4249 0.0064,0.4356 0.5746,0.6534 0.8268,0.9286 0.2197,0.2392 0.2018,0.4168 0.0264,0.747 -0.0193,-0.2979 -0.1454,-0.5202 -0.3719,-0.682 -0.374,-0.2677 -0.7769,-0.2101 -0.9761,-0.7589 -0.3025,-0.8342 0.2973,-1.6244 -0.377,-2.5611 -0.5044,-0.7008 -1.1753,-1.4852 -2.0803,-1.5057 -0.4283,-0.0099 -0.7504,0.0554 -1.2079,0.1921 L 41.7263,15.396 41.7122,15.3864 c -1.2407,-1.143 -2.0895,-2.0851 -3.83,-2.8707 -1.7404,-0.7854 -2.5981,-0.9043 -4.5936,-0.8596 -1.9956,0.0446 -3.976,0.2131 -6.2872,2.2251 -2.3112,2.0121 -8.2678,9.7167 -9.7124,10.6918 -1.4444,0.9751 -1.7644,1.3055 -3.5693,1.306 -1.805,4e-4 -4.62199,-2.5769 -4.73233,-5.7978 C 8.87689,16.8601 8.83257,15.7152 11.0506,11.8349 13.2687,7.95438 17.287,6.76284 20.2684,6.36053 23.25,5.95821 25.0416,7.01826 27.247,7.02325 29.4523,7.02839 31.6318,6.64405 32.2746,4.87352 31.96,5.06259 31.5386,5.27569 30.3534,5.21297 29.1683,5.15025 27.5251,3.76511 25.6765,2.837 23.828,1.90904 21.771,1.80038 19.1326,1.75005 16.4942,1.69972 13.202,1.9033 9.9403,3.68078 6.67864,5.45826 4.45225,7.34426 2.56047,10.823 0.668692,14.302 0.386033,17.1424 0.690999,21.3546 c 0.304966,4.2123 1.591901,7.345 4.069811,10.428 2.47791,3.0829 4.95432,4.5914 9.41969,5.1522 l 0.94,-4.1858 -1.6781,2.4312 0.0415,-2.7039 -1.518,1.9014 L 11.3001,31.799 10.0704,33.8664 9.45957,30.9873 7.67753,32.4422 8.24165,30.0666 5.88366,30.33 6.96684,28.6787 4.8168,28.7052 6.06781,26.5006 4.16016,26.1948 5.68125,24.1898 3.34572,23.4908 5.27942,21.6215 3.37012,20.0508 4.86352,18.8783 3.46699,17.0024 4.95664,15.2519 4.4006,12.9401 5.66553,11.827 6.04206,9.18506 7.46164,8.46536 8.68301,6.403 10.9405,6.16103 l 1.1139,-1.85501 2.2674,0.11652 2.1427,-1.17567 2.2222,0.52247 2.5242,-0.76957 1.8695,0.44222 2.4397,0.36196 2.3554,1.90126 -3.613,-1.27315 -1.8175,0.87975 -1.5024,-0.92569 -1.0344,0.70927 -1.8302,0.18499 -1.6413,-0.10701 -1.1965,1.47446 -2.439,0.02539 -0.87,1.98635 -2.16876,0.76806 -0.20286,2.28317 -1.55522,1.2299 0.51815,2.1485 -1.34308,2.2315 1.03033,1.9519 -1.01401,1.7864 1.34907,0.8887 -0.30601,2.8712 1.87619,0.4773 0.4227,2.1299 2.0444,-0.2144 1.2702,1.4593 1.5699,-1.5474 c 2.8619,-1.4406 4.0405,-2.2465 6.2709,-4.6817 2.539,-2.7722 3.9942,-5.3353 7.3762,-7.2334 2.4257,-1.3614 4.4042,-1.8514 7.129,-1.3761 2.5583,0.4462 3.4149,1.9953 5.2991,3.6272 0.1997,-0.365 0.2403,-0.4617 0.5693,-0.7304 -0.1033,0.4739 -0.2674,0.9656 -0.3091,1.4214 z"
     fill="#000000"
     id="path1011" />
  <defs
     id="defs1037">
    <clipPath
       id="clip0_1_897">
      <rect
         width="80"
         height="80"
         fill="white"
         id="rect1031" />
    </clipPath>
    <clipPath
       id="clip1_1_897">
      <rect
         width="600"
         height="600"
         fill="white"
         transform="translate(-236 -252)"
         id="rect1034" />
    </clipPath>
  </defs>
</svg>
