<svg xmlns="http://www.w3.org/2000/svg" viewBox="0 0 80 80">
  <rect width="100%" height="100%" fill="#00ADD8"/>
  <path fill="#fff" d="M9.3 34.2H22.2c.1 0 .2 0 .2-.2l.6-.9c.1 0 0-.2 0-.2H10.3a.5.5 0 0 0-.4.2l-.7.9v.2ZM4 37.4H20.7a.3.3 0 0 0 .3-.2l.3-.9c0-.1 0-.2-.2-.2h-16a.5.5 0 0 0-.3.2l-.8 1ZM12.5 40.6h7.8a.3.3 0 0 0 .2-.2v-1.1h-7.1a.5.5 0 0 0-.4.2l-.5 1Z"/>
  <path fill="#fff" fill-rule="evenodd" d="m46 34.3 3-.8c.4 0 .6-.2.3-.6a11 11 0 0 0-4-4.9 12 12 0 0 0-9.3-1.7c-4 .7-7.4 2.8-9.8 6a13.8 13.8 0 0 0-3 10.3 11 11 0 0 0 4.5 7.8 12.4 12.4 0 0 0 9.4 2.3 14.6 14.6 0 0 0 10-6l1.4-2.3a11 11 0 0 0 3.5 5.4c2.4 2 5.5 3.1 8.6 3.1a16 16 0 0 0 14.7-10.2c.7-2 .9-4.3.5-6.5a11 11 0 0 0-4.9-7.8 13 13 0 0 0-10-1.8 14.7 14.7 0 0 0-9.8 5.9c-1.1 1.3-2 2.9-2.4 4.5H37.4a.9.9 0 0 0-.9.6l-1.8 3.8c-.2.6 0 1 .7 1h6.8l-1 1.4a6.5 6.5 0 0 1-6 2.3 5.5 5.5 0 0 1-4.7-5.5 7.5 7.5 0 0 1 3.6-6.7 6 6 0 0 1 6.3-.5c.7.3 1.2.8 1.7 1.3.4.5.5.5 1 .4l3-.8Zm22.8 3.3.1 1.2a7.7 7.7 0 0 1-4.5 6.7 6.4 6.4 0 0 1-5.7.2 5.8 5.8 0 0 1-3.2-6.7 7.6 7.6 0 0 1 6.1-6 5.8 5.8 0 0 1 7.2 4.6Z" clip-rule="evenodd"/>
</svg>