<svg viewBox="0 0 80 80" xmlns="http://www.w3.org/2000/svg">
<rect width="100%" height="100%" fill="#00ADD8"/>
<path d="M9.2956 34.1572C9.31945 34.1701 9.35334 34.1771 9.39852 34.1771L22.0839 34.2401C22.1316 34.2331 22.1768 34.22 22.2194 34.2012C22.3035 34.1648 22.3776 34.1073 22.434 34.0331L23.0277 33.1334C23.1005 33.0255 23.0641 32.9176 22.9198 32.9176H10.4152C10.3411 32.9168 10.2683 32.9326 10.2005 32.9637C10.134 32.9948 10.075 33.0406 10.0286 33.0975L9.29058 33.9971C9.24038 34.0715 9.24163 34.1287 9.2956 34.1572Z" fill="white"/>
<path d="M4.03671 37.375C4.06056 37.3897 4.09696 37.3978 4.14465 37.3978L20.7158 37.3619C20.7836 37.3675 20.8526 37.3501 20.9091 37.3126C20.9656 37.2751 21.0095 37.2197 21.0308 37.155L21.3095 36.3093C21.3459 36.2013 21.2743 36.1023 21.1388 36.1023H5.16129C5.12489 36.1017 5.08975 36.1049 5.0546 36.1118C5.0182 36.119 4.98306 36.1302 4.94917 36.1452C4.8814 36.1748 4.82241 36.2185 4.77346 36.2732L4.03671 37.218C3.98776 37.2898 3.98776 37.3457 4.03671 37.375Z" fill="white"/>
<path d="M12.5162 40.5882C12.5388 40.6074 12.5727 40.6187 12.6191 40.6187L20.2577 40.6276C20.3217 40.6237 20.382 40.5971 20.4284 40.5525C20.4736 40.5081 20.5024 40.4485 20.5087 40.3847L20.5715 39.539C20.5715 39.4422 20.5388 39.3592 20.4673 39.3201C20.4397 39.3047 20.4058 39.2962 20.3656 39.2962H13.3571C13.2856 39.3023 13.2166 39.325 13.1563 39.3625C13.0948 39.4 13.0433 39.4512 13.0057 39.512L12.52 40.4117C12.4723 40.4832 12.4723 40.5507 12.5162 40.5882Z" fill="white"/>
<path fill-rule="evenodd" clip-rule="evenodd" d="M46.015 34.3185C46.9438 34.0712 47.8763 33.8229 48.9833 33.5383C49.4151 33.4394 49.5594 33.2594 49.3435 32.9446C48.5114 30.9289 47.0956 29.2086 45.277 28.0054C43.924 27.1104 42.404 26.497 40.8088 26.2017C39.2136 25.9065 37.5756 25.9356 35.9917 26.2871C32.067 26.9767 28.5565 29.1473 26.1856 32.3508C25.0296 33.7769 24.1699 35.4195 23.6578 37.1822C23.1444 38.9448 22.9888 40.7922 23.1997 42.6159C23.354 44.1528 23.831 45.6399 24.5979 46.9807C25.3647 48.3214 26.4052 49.4857 27.6528 50.398C28.987 51.3978 30.5107 52.1179 32.131 52.5153C33.7513 52.9126 35.4344 52.9788 37.0811 52.71C39.0642 52.4552 40.9757 51.7951 42.6927 50.7705C44.4109 49.7459 45.8995 48.3788 47.0668 46.7543C47.6315 46.0089 48.1223 45.2149 48.5352 44.3835C49.1276 46.5033 50.3438 48.408 52.042 49.8402C54.4367 51.8509 57.4703 52.9418 60.598 52.917C61.5067 52.818 62.4782 52.782 63.3957 52.6291C66.5912 52.0163 69.5244 50.4476 71.8074 48.1308C73.3876 46.6217 74.5799 44.7527 75.2815 42.6833C75.9831 40.6139 76.1752 38.4054 75.8388 36.2463C75.6355 34.6628 75.0882 33.1429 74.2348 31.7937C73.3813 30.4445 72.2429 29.2988 70.8987 28.4372C67.8488 26.359 64.5115 26.0081 60.9131 26.6379C58.9689 26.9088 57.0976 27.5667 55.4119 28.5726C53.7263 29.5786 52.2591 30.9122 51.0982 32.4947C49.9987 33.841 49.1728 35.3875 48.667 37.047H37.4313C37.2418 37.0329 37.0523 37.0793 36.8916 37.1796C36.7297 37.2798 36.6042 37.4287 36.5314 37.6048C36.0281 38.5224 35.1909 40.3397 34.7328 41.4284C34.4994 42.0221 34.6613 42.4809 35.398 42.4809H42.1731C41.8217 42.9667 41.543 43.3896 41.228 43.7764C40.5176 44.6438 39.5951 45.3125 38.5496 45.7177C37.5054 46.1228 36.3733 46.2506 35.2637 46.0886C33.9409 45.9026 32.7322 45.2408 31.8624 44.2273C30.9926 43.2137 30.5232 41.9179 30.5408 40.5827C30.4918 39.2529 30.7993 37.9342 31.4319 36.7636C32.0657 35.5929 32.9995 34.6129 34.1392 33.9252C35.0403 33.2705 36.1047 32.8757 37.2142 32.7837C38.3249 32.6916 39.4395 32.906 40.436 33.4034C41.0799 33.715 41.6434 34.1706 42.0827 34.7349C42.522 35.2339 42.5647 35.2227 43.0328 35.1029L43.0994 35.0858C44.1788 34.8081 45.095 34.5638 46.015 34.3185ZM68.8303 37.6048C68.8893 37.9891 68.9244 38.3766 68.9382 38.7653C68.8817 40.1883 68.4324 41.5678 67.6379 42.7497C66.8435 43.9317 65.7364 44.8695 64.4399 45.4588C63.5676 45.9326 62.5987 46.1979 61.6072 46.2338C60.6156 46.2698 59.6304 46.0752 58.7267 45.6657C57.5017 45.1105 56.5102 44.145 55.9215 42.9359C55.3341 41.7268 55.1873 40.3503 55.5061 39.0442C55.7922 37.5281 56.5315 36.1342 57.6247 35.0455C58.7179 33.9569 60.1148 33.2244 61.6323 32.9446C62.4129 32.7368 63.2287 32.6949 64.0257 32.8213C64.824 32.9478 65.5858 33.24 66.2648 33.6789C66.9426 34.118 67.5212 34.6941 67.963 35.3703C68.4048 36.0464 68.6998 36.8075 68.8303 37.6048Z" fill="white"/>
</svg>
