<svg viewBox="0 0 80 80" xmlns="http://www.w3.org/2000/svg">
<rect width="100%" height="100%" fill="white"/>
<path fill-rule="evenodd" clip-rule="evenodd" d="M56.0618 58.7092C56.4506 58.6863 56.8436 58.6632 57.2424 58.6389C57.2614 58.5105 57.2837 58.3955 57.3041 58.2903C57.3296 58.1592 57.3521 58.0432 57.3615 57.935C57.4083 57.2523 57.453 56.5717 57.4976 55.8911C57.5423 55.2105 57.5869 54.5299 57.6337 53.8472C57.6314 53.6914 57.6604 53.5367 57.7189 53.3922C57.7774 53.2477 57.8643 53.1162 57.9744 53.0057C58.0846 52.8951 58.2158 52.8075 58.3603 52.7481C58.5048 52.6888 58.6598 52.6588 58.8161 52.6599C59.8114 52.5836 60.7981 52.4988 61.7933 52.397C62.3787 52.3366 62.9654 52.2736 63.5524 52.2106C64.4496 52.1142 65.3474 52.0177 66.2422 51.9306C66.9737 51.8627 67.7051 51.8024 68.4366 51.7421C68.8025 51.712 69.1683 51.6818 69.5341 51.6507C69.6472 51.6253 69.7581 51.5913 69.8659 51.5489V34.2227C69.8547 33.8499 69.9785 33.4857 70.2147 33.1965C71.5803 31.435 72.8442 29.5973 74 27.6924C72.2727 24.8468 70.2296 22.2039 67.9094 19.8138C65.8235 20.8393 63.8061 21.9979 61.8699 23.2824C59.8934 21.4795 57.7224 19.9009 55.3965 18.5756C55.7224 16.1111 55.9183 13.6313 55.9835 11.1464C53.1223 9.73128 50.0966 8.67446 46.9752 8C45.7248 10.1146 44.589 12.2944 43.5727 14.5302C41.2205 14.1487 38.822 14.1487 36.4698 14.5302C35.4694 12.2922 34.3331 10.1171 33.0673 8.01696C29.9104 8.67334 26.8494 9.72481 23.957 11.1464L24.5694 18.584C22.2726 19.8986 20.125 21.4568 18.1641 23.2315C16.2336 21.9472 14.2219 20.7886 12.1416 19.7629C9.79486 22.1923 7.73429 24.8812 6 27.7772C6.31421 28.2245 6.62732 28.6733 6.94031 29.122C7.85595 30.4347 8.77055 31.7458 9.70878 33.0099C10.0274 33.4127 10.1958 33.9133 10.1851 34.4262V51.5489C10.3297 51.6253 10.4063 51.6253 10.4829 51.6253L21.2604 52.6345C21.554 52.6535 21.8296 52.7818 22.0328 52.9938C22.236 53.2058 22.352 53.4862 22.3578 53.7794C22.3633 53.8358 22.3688 53.8923 22.3744 53.9489C22.4293 54.5058 22.4854 55.0747 22.4854 55.6367C22.5024 55.9052 22.5184 56.1691 22.5345 56.433C22.5666 56.9606 22.5988 57.4883 22.6385 58.0537C22.6635 58.2529 22.7091 58.449 22.7746 58.6389L25.2755 58.7491L27.334 58.8848L31.8594 59.241H32.3783C32.4719 58.5541 32.5654 57.9011 32.6675 57.248C32.704 57.0057 32.7376 56.7634 32.7713 56.5211C32.8555 55.9154 32.9397 55.3096 33.0673 54.7038C33.1583 54.4326 33.3268 54.1938 33.5522 54.0169C33.8261 53.8228 34.1629 53.7381 34.4964 53.7794H45.5547C45.6793 53.7708 45.8043 53.7708 45.9289 53.7794C46.196 53.7957 46.4498 53.9006 46.6502 54.0773C46.8506 54.254 46.9859 54.4924 47.0348 54.7547C47.1028 55.2041 47.1666 55.6535 47.2304 56.103C47.2942 56.5525 47.358 57.002 47.4261 57.4516C47.4771 57.8129 47.5373 58.1742 47.5976 58.5355C47.6377 58.7763 47.6779 59.0172 47.7153 59.258H48.5659C49.1062 59.2153 49.649 59.1713 50.1954 59.1271C51.0598 59.057 51.9331 58.9863 52.8191 58.9188C53.8885 58.8372 54.958 58.7742 56.0618 58.7092ZM61.1627 37.2573C61.8885 38.343 62.2765 39.618 62.2782 40.9225C62.2782 42.6799 61.5785 44.3655 60.3329 45.609C59.0872 46.8525 57.3975 47.5522 55.6347 47.5545C54.3204 47.5545 53.0356 47.1658 51.9429 46.4376C50.8502 45.7094 49.9987 44.6745 49.4961 43.4637C48.9936 42.2529 48.8625 40.9207 49.1195 39.6357C49.3765 38.3506 50.0101 37.1704 50.9401 36.2444C51.87 35.3185 53.0546 34.6883 54.3439 34.4337C55.6331 34.1791 56.9692 34.3115 58.183 34.8141C59.3968 35.3167 60.4337 36.167 61.1627 37.2573ZM18.2069 43.4774C17.8788 42.6716 17.7139 41.8091 17.7218 40.9395C17.7252 39.6263 18.1195 38.3438 18.8548 37.2543C19.59 36.1649 20.6331 35.3175 21.8519 34.8197C23.0706 34.3219 24.4102 34.196 25.7008 34.4579C26.9914 34.7199 28.175 35.3579 29.1015 36.2912C30.028 37.2245 30.6558 38.4109 30.9053 39.7003C31.1548 40.9896 31.0148 42.3238 30.503 43.5337C29.9912 44.7436 29.1306 45.7748 28.0304 46.4967C26.9302 47.2185 25.6398 47.5985 24.3227 47.5884C23.4505 47.5873 22.587 47.4141 21.7822 47.0787C20.9774 46.7434 20.2471 46.2525 19.6335 45.6344C19.0199 45.0163 18.535 44.2832 18.2069 43.4774ZM42.1266 40.0574V43.2293C42.1266 43.5031 42.1227 43.7718 42.1189 44.0373C42.1088 44.7337 42.099 45.4081 42.1606 46.0958C42.155 46.4062 42.0805 46.7115 41.9425 46.9898C41.8045 47.2681 41.6064 47.5125 41.3625 47.7055C41.1185 47.8985 40.8348 48.0352 40.5315 48.1058C40.2283 48.1765 39.9132 48.1794 39.6087 48.1142C39.2872 48.0719 38.981 47.9515 38.717 47.7638C38.453 47.576 38.2393 47.3265 38.0946 47.0371C37.9714 46.8007 37.9017 46.5401 37.8904 46.2739V40.0574C37.8909 39.7116 37.9915 39.3732 38.1801 39.0828C38.3687 38.7925 38.6373 38.5626 38.9537 38.4206C39.3936 38.1804 39.9021 38.0958 40.3963 38.1805C40.8906 38.2652 41.3416 38.5142 41.6758 38.8871C41.8244 39.0431 41.9407 39.2267 42.018 39.4275C42.0954 39.6283 42.1323 39.8424 42.1266 40.0574Z" fill="#478CBE"/>
<path d="M44.7806 56.171H35.2024L34.8111 58.3421C34.7839 58.5275 34.7578 58.713 34.7317 58.8983C34.6515 59.4673 34.5714 60.035 34.4624 60.598C34.4541 60.7871 34.403 60.9719 34.313 61.1385C34.223 61.3051 34.0963 61.4493 33.9425 61.5602C33.7887 61.6712 33.6117 61.746 33.4248 61.7791C33.2379 61.8122 33.0459 61.8027 32.8632 61.7514C32.0806 61.6666 31.298 61.5987 30.5154 61.5394C29.3928 61.4461 28.2787 61.3698 27.1647 61.2935C26.5494 61.2511 25.9333 61.2067 25.318 61.1624C24.0874 61.0739 22.8568 60.9853 21.6262 60.9118C21.454 60.9239 21.2811 60.8996 21.1189 60.8404C20.9568 60.7812 20.809 60.6885 20.6853 60.5684C20.5616 60.4483 20.4648 60.3034 20.4012 60.1434C20.3376 59.9833 20.3086 59.8117 20.3162 59.6397C20.2486 58.7628 20.1969 57.8954 20.1455 57.0337C20.1128 56.487 20.0804 55.9425 20.044 55.3993C20.0403 55.3288 20.0301 55.2583 20.0198 55.1871C20.0065 55.0955 19.993 55.0028 19.993 54.9074C19.1778 54.828 18.3646 54.747 17.5525 54.6662C15.0682 54.4189 12.5938 54.1726 10.1001 53.9745C10.0914 54.0931 10.0914 54.2121 10.1001 54.3307C10.1113 54.6752 10.1207 55.0188 10.1301 55.3618C10.1491 56.0573 10.168 56.7502 10.2022 57.4431C10.28 58.8091 10.6513 60.1424 11.291 61.3528C12.3493 63.4075 13.9193 65.1567 15.8504 66.4328C18.4799 68.1369 21.3744 69.395 24.4163 70.1559C27.4977 70.9673 30.6467 71.4981 33.8244 71.7418C35.5256 71.8944 37.2269 71.9962 38.9282 71.9962C39.5712 72.0102 40.2141 71.983 40.8571 71.9557C41.3795 71.9335 41.9019 71.9114 42.4243 71.9114C43.3175 71.8859 44.2532 71.852 45.1038 71.7757C46.3883 71.6739 47.6557 71.5467 48.9402 71.4025C50.6259 71.2209 52.2991 70.9377 53.9505 70.5545C56.9179 69.9184 59.7812 68.8707 62.4568 67.442C64.8865 66.1833 66.9271 64.2895 68.3603 61.9634C69.0953 60.7333 69.5538 59.3589 69.7043 57.935C69.8319 56.824 69.8319 55.7046 69.8319 54.5851V54.1187H68.675L64.2262 54.5766C63.6318 54.6378 63.0348 54.6859 62.4381 54.7339C61.9588 54.7726 61.4797 54.8112 61.0023 54.8565C60.7755 54.8775 60.552 54.9148 60.3277 54.9523C60.1902 54.9753 60.0524 54.9983 59.9134 55.0176C59.8624 55.8657 59.8029 56.7138 59.7433 57.5619C59.7327 57.7379 59.7226 57.9139 59.7125 58.0899C59.6822 58.6178 59.6519 59.1457 59.6072 59.6736C59.6145 59.9877 59.5002 60.2925 59.2879 60.5247C59.0756 60.7569 58.7817 60.8985 58.4674 60.9203C58.1555 60.9469 57.8396 60.9746 57.5242 61.0022C56.9361 61.0537 56.35 61.1051 55.7963 61.1492C54.5972 61.2425 53.3981 61.3188 52.199 61.3951L47.6557 61.6751C47.5311 61.6667 47.4061 61.6667 47.2815 61.6751C46.0991 61.8786 45.5717 61.5054 45.3845 60.3266C45.3803 60.2843 45.3803 60.2417 45.3845 60.1994C45.3414 59.8878 45.2992 59.5771 45.257 59.2667C45.1659 58.597 45.075 57.9288 44.9762 57.2566C44.9391 56.9911 44.8884 56.7301 44.8373 56.4671C44.8183 56.3688 44.7991 56.2702 44.7806 56.171Z" fill="#478CBE"/>
<path d="M59.4116 41.3464C59.3959 42.5087 58.9206 43.6177 58.0891 44.4325C57.2576 45.2472 56.1371 45.7017 54.9713 45.6971C54.3761 45.7146 53.7836 45.612 53.2293 45.3953C52.675 45.1786 52.1704 44.8523 51.7458 44.4362C51.3212 44.02 50.9855 43.5225 50.7587 42.9737C50.532 42.4248 50.419 41.8359 50.4264 41.2423C50.4339 40.6487 50.5617 40.0628 50.8022 39.5198C51.0426 38.9768 51.3908 38.4878 51.8257 38.0824C52.2606 37.677 52.7732 37.3635 53.3328 37.1607C53.8924 36.9579 54.4873 36.8701 55.0818 36.9025C56.2446 36.927 57.3509 37.4071 58.1612 38.2388C58.9716 39.0705 59.4208 40.187 59.4116 41.3464V41.3464ZM24.9948 36.911C26.1591 36.9177 27.2738 37.3817 28.0971 38.2026C28.9204 39.0234 29.3859 40.1348 29.3926 41.2956C29.3959 42.1675 29.1394 43.0209 28.6556 43.7473C28.1718 44.4737 27.4825 45.0405 26.6751 45.3757C25.8677 45.711 24.9786 45.7996 24.1207 45.6303C23.2627 45.461 22.4745 45.0414 21.8561 44.4248C21.2376 43.8083 20.8168 43.0224 20.647 42.167C20.4772 41.3116 20.5661 40.4252 20.9023 39.6203C21.2386 38.8153 21.807 38.1281 22.5357 37.6457C23.2643 37.1633 24.1202 36.9076 24.9948 36.911V36.911Z" fill="#424143"/>
</svg>
