<svg xmlns="http://www.w3.org/2000/svg" viewBox="0 0 80 80">
  <rect width="100%" height="100%" fill="#fff"/>
  <path fill="#478CBE" fill-rule="evenodd" d="M56 58.7h1.2a7.7 7.7 0 0 1 .2-.8l.1-2 .1-2a1.2 1.2 0 0 1 1.2-1.2l3-.3 1.8-.2 2.6-.3a213.5 213.5 0 0 1 3.7-.4V34.2c0-.4 0-.7.3-1 1.4-1.8 2.6-3.6 3.8-5.5a44.4 44.4 0 0 0-6-7.9c-2.2 1-4.2 2.2-6.1 3.5-2-1.8-4.2-3.4-6.5-4.7L56 11A38.8 38.8 0 0 0 47 8a68.6 68.6 0 0 0-3.4 6.5c-2.4-.4-4.8-.4-7.1 0-1-2.2-2.2-4.4-3.4-6.5-3.2.7-6.3 1.7-9.1 3.1l.6 7.5a36.8 36.8 0 0 0-6.4 4.6 54 54 0 0 0-6-3.4 44.3 44.3 0 0 0-6.2 8A498 498 0 0 1 9.7 33c.3.4.5 1 .5 1.4v17.1l.3.1 10.8 1a1.2 1.2 0 0 1 1 1.2v.1l.2 1.7v.8a170.2 170.2 0 0 0 .3 2.2l2.5.1 2 .2 4.6.3h.5l.3-2v-.7l.4-1.8c0-.3.2-.5.5-.7.2-.2.6-.3.9-.2h11.4a1.2 1.2 0 0 1 1.1 1 148.3 148.3 0 0 1 .6 3.7l.1.8h.9l1.6-.2a536.8 536.8 0 0 1 5.9-.4Zm5.2-21.4a6.6 6.6 0 0 1-5.6 10.3 6.7 6.7 0 0 1-6.5-8 6.6 6.6 0 0 1 9-4.8c1.3.5 2.3 1.4 3 2.5Zm-43 6.2a6.6 6.6 0 0 1 .7-6.2 6.6 6.6 0 1 1 9.1 9.2 6.7 6.7 0 0 1-9.8-3Zm24-3.4v6a2.1 2.1 0 0 1-2.6 2 2 2 0 0 1-1.7-1.8V40a1.8 1.8 0 0 1 1-1.7 2.2 2.2 0 0 1 2.8.5A1.6 1.6 0 0 1 42 40Z" clip-rule="evenodd"/>
  <path fill="#478CBE" d="M44.8 56.2h-9.6l-.4 2.1v.6a33.6 33.6 0 0 1-.5 2.2 1.3 1.3 0 0 1-1.4.7 73 73 0 0 0-2.4-.3l-3.3-.2-1.9-.1-3.7-.3a1.2 1.2 0 0 1-1.3-1.3l-.2-2.6v-1.8l-.1-.3-2.4-.2L10 54v1.3l.1 2.1c0 1.4.5 2.7 1 4 1.1 2 2.7 3.8 4.7 5 2.6 1.7 5.5 3 8.5 3.8a52.8 52.8 0 0 0 18 1.7 45.4 45.4 0 0 0 6.5-.5 42.1 42.1 0 0 0 13.6-4 15 15 0 0 0 5.9-5.4 9.9 9.9 0 0 0 1.3-4l.1-3.4V54h-1.1l-4.5.5-1.8.1-1.4.2a9.3 9.3 0 0 0-1 .1 252.6 252.6 0 0 1-.7 5.5c-.2.3-.5.4-.8.4l-1 .1-1.7.1-3.6.3-4.5.3h-.4c-1.2.2-1.7-.2-2-1.4v-1.1a188.6 188.6 0 0 0-.5-2.7v-.3Z"/>
  <path fill="#424143" d="M59.4 41.3a4.4 4.4 0 0 1-4.4 4.4 4.4 4.4 0 0 1-4.6-4.5 4.4 4.4 0 0 1 4.7-4.3 4.4 4.4 0 0 1 4.3 4.4ZM25 37a4.4 4.4 0 0 1 4.4 4.4 4.4 4.4 0 0 1-5.3 4.3 4.4 4.4 0 0 1-3.2-6 4.4 4.4 0 0 1 4-2.7Z"/>
</svg>