<svg xmlns="http://www.w3.org/2000/svg" viewBox="0 0 80 80"><defs><style>.a{fill:#478cbe}.b{fill:#424143}</style></defs><path class="a" d="M60.3 62c-1.8.11-3.5.2-5.2.33s-3.36.27-5 .4h-1c-.11-.71-.24-1.42-.34-2.13-.16-1.06-.3-2.12-.46-3.18a1.41 1.41 0 00-1.3-1.15 3.2 3.2 0 00-.44 0h-13a1.58 1.58 0 00-1.11.28 1.73 1.73 0 00-.57.81c-.21 1-.32 2-.47 3-.12.77-.23 1.54-.34 2.35h-.61l-5.32-.42-2.42-.16-2.94-.13a3.44 3.44 0 01-.16-.69c-.07-1-.12-1.9-.18-2.85 0-.73-.08-1.47-.15-2.19A1.38 1.38 0 0018 54.92l-6.41-.6-6.26-.59c-.09 0-.18 0-.35-.09v-.78-19.41a2.61 2.61 0 00-.56-1.67c-1.48-2-2.91-4.1-4.36-6.17a52.2 52.2 0 017.22-9.45 63.35 63.35 0 017.08 4.09 43.2 43.2 0 017.53-5.48L21.17 6a45 45 0 0110.71-3.69 71.12 71.12 0 014 7.68 26 26 0 018.35 0 81 81 0 014-7.7A45.53 45.53 0 0158.82 6a83.76 83.76 0 01-.69 8.76 42.56 42.56 0 017.61 5.55 63.56 63.56 0 017.1-4.09A52.28 52.28 0 0180 25.51 69.07 69.07 0 0175.55 32a1.83 1.83 0 00-.41 1.21v20.43a2.66 2.66 0 01-.39.12c-1.29.11-2.58.21-3.87.33-1.74.17-3.49.37-5.23.55-1.17.12-2.33.22-3.5.31a1.38 1.38 0 00-1.39 1.4c-.11 1.61-.21 3.21-.32 4.82-.02.23-.09.49-.14.83zm5.92-20.87a7.81 7.81 0 10-7.81 7.8 7.82 7.82 0 007.81-7.82zm-52.38 0a7.77 7.77 0 007.76 7.84 7.82 7.82 0 10-7.76-7.84zm28.69 2.76v-3.8a1.93 1.93 0 00-.53-1.38 2.61 2.61 0 00-3.2-.55 2.12 2.12 0 00-1.25 1.93v7.33a2.15 2.15 0 00.24.9 2.33 2.33 0 001.78 1.27 2.48 2.48 0 003-2.38c-.1-1.12-.04-2.21-.04-3.38z"/><path class="a" d="M34.39 59.09h11.26c.08.43.17.85.23 1.28.17 1.16.32 2.31.48 3.47a.76.76 0 000 .15c.22 1.39.84 1.83 2.23 1.59a3.29 3.29 0 01.44 0l5.34-.33c1.41-.09 2.82-.18 4.23-.29 1-.08 2.09-.18 3.14-.27a1.44 1.44 0 001.34-1.47c.07-.83.11-1.66.16-2.49.07-1 .14-2 .2-3 .43-.06.85-.15 1.28-.19 1.26-.12 2.53-.2 3.79-.33l5.23-.54h1.36v.55c0 1.32 0 2.64-.15 3.95a11.67 11.67 0 01-1.58 4.75 17.75 17.75 0 01-6.94 6.46 38.18 38.18 0 01-10 3.67 49.38 49.38 0 01-5.89 1c-1.51.17-3 .32-4.51.44-1 .09-2.1.13-3.15.16-1.37 0-2.74.13-4.11.1-2 0-4-.12-6-.3a61.9 61.9 0 01-11.06-1.87 33.38 33.38 0 01-10.07-4.39 15.9 15.9 0 01-5.36-5.99A11.26 11.26 0 015 60.59c-.06-1.22-.08-2.44-.12-3.67a2.87 2.87 0 010-.42c3.89.31 7.74.72 11.63 1.1 0 .2.05.39.06.58.11 1.65.19 3.31.32 5a1.44 1.44 0 001.54 1.5c2.17.13 4.34.3 6.51.45 1.31.09 2.62.18 3.94.29.92.07 1.84.15 2.76.25a1.48 1.48 0 001.88-1.36c.17-.88.28-1.77.41-2.66z"/><path class="b" d="M62.85 41.61a5.2 5.2 0 01-5.22 5.13 5.19 5.19 0 11.13-10.37 5.2 5.2 0 015.09 5.24zM22.39 36.38a5.2 5.2 0 015.17 5.17 5.19 5.19 0 11-5.17-5.17z"/></svg>