<?xml version="1.0" encoding="UTF-8" standalone="no"?>
<svg
   viewBox="0 0 80 80"
   version="1.1"
   id="svg95"
   sodipodi:docname="google-cloud-functions.svg"
   inkscape:version="1.1.2 (b8e25be8, 2022-02-05)"
   xmlns:inkscape="http://www.inkscape.org/namespaces/inkscape"
   xmlns:sodipodi="http://sodipodi.sourceforge.net/DTD/sodipodi-0.dtd"
   xmlns="http://www.w3.org/2000/svg"
   xmlns:svg="http://www.w3.org/2000/svg">
  <defs
     id="defs99" />
  <sodipodi:namedview
     id="namedview97"
     pagecolor="#ffffff"
     bordercolor="#666666"
     borderopacity="1.0"
     inkscape:pageshadow="2"
     inkscape:pageopacity="0.0"
     inkscape:pagecheckerboard="0"
     showgrid="false"
     inkscape:zoom="18.85"
     inkscape:cx="35.888594"
     inkscape:cy="65.225464"
     inkscape:window-width="2306"
     inkscape:window-height="1281"
     inkscape:window-x="0"
     inkscape:window-y="25"
     inkscape:window-maximized="0"
     inkscape:current-layer="svg95" />
  <g
     id="g1244"
     transform="matrix(3.9949787,0,0,3.9949787,-7.9366621,-7.9716119)">
    <g
       data-name="colored-32/functions"
       id="g100">
      <g
         id="g98">
        <path
           id="polygon90"
           class="cls-1"
           style="fill:#669df6"
           d="M 2,15.56 5,18 V 6 L 2,8.43 Z" />
        <path
           id="polygon92"
           class="cls-2"
           style="fill:#4285f4"
           d="M 5,8 V 6 l -3,4 z" />
        <path
           id="polygon94"
           class="cls-2"
           style="fill:#4285f4"
           d="M 5,16 2,14 5,18 Z" />
        <path
           id="polygon96"
           class="cls-3"
           style="fill:#aecbfa"
           d="M 8,20 2,14 v 4 l 4,4 z" />
      </g>
    </g>
    <path
       id="polygon102"
       class="cls-3"
       style="fill:#aecbfa"
       d="M 5.99,2.01 2,6 2.01,10 7.99,4.01 Z" />
    <g
       data-name="colored-32/functions"
       id="g114">
      <g
         data-name="Shape"
         id="g112">
        <path
           id="polygon104"
           class="cls-1"
           style="fill:#669df6"
           d="M 22,8.45 19,6.01 v 12 l 3,-2.42 z" />
        <path
           id="polygon106"
           class="cls-2"
           style="fill:#4285f4"
           d="m 19,16.01 v 2 l 3,-4 z" />
        <path
           id="polygon108"
           class="cls-2"
           style="fill:#4285f4"
           d="m 19,8.01 3,2 -3,-4 z" />
        <path
           id="polygon110"
           class="cls-3"
           style="fill:#aecbfa"
           d="m 16,4.01 6,6 v -4 l -4,-4 z" />
      </g>
    </g>
    <path
       id="polygon116"
       class="cls-3"
       style="fill:#aecbfa"
       d="M 18.01,22 22,18.01 21.99,14.01 16.01,20 Z" />
    <path
       id="Oval"
       class="cls-3"
       style="fill:#aecbfa"
       d="M 9,12 A 1,1 0 0 1 8,13 1,1 0 0 1 7,12 1,1 0 0 1 8,11 1,1 0 0 1 9,12 Z" />
    <path
       id="Oval-2"
       class="cls-3"
       style="fill:#aecbfa"
       d="m 13,12 a 1,1 0 0 1 -1,1 1,1 0 0 1 -1,-1 1,1 0 0 1 1,-1 1,1 0 0 1 1,1 z" />
    <path
       id="Oval-3"
       class="cls-3"
       style="fill:#aecbfa"
       d="m 16.99,12 a 1,1 0 0 1 -1,1 1,1 0 0 1 -1,-1 1,1 0 0 1 1,-1 1,1 0 0 1 1,1 z" />
  </g>
</svg>
