<svg viewBox="0 0 80 80" fill="none" xmlns="http://www.w3.org/2000/svg">
<path d="M6.66667 51.8667L16.6667 60V20L6.66667 28.1V51.8667Z" fill="#669DF6"/>
<path d="M6.66667 33.3333L16.6667 26.6667V20L6.66667 33.3333Z" fill="#4285F4"/>
<path d="M16.6667 60V53.3333L6.66667 46.6666L16.6667 60Z" fill="#4285F4"/>
<path d="M26.6667 66.6666L6.66667 46.6666V60L20 73.3333L26.6667 66.6666Z" fill="#AECBFA"/>
<path d="M19.9667 6.69995L6.66667 20L6.70001 33.3333L26.6333 13.3666L19.9667 6.69995Z" fill="#AECBFA"/>
<path d="M73.3333 28.1667L63.3333 20.0333V60.0333L73.3333 51.9667V28.1667Z" fill="#669DF6"/>
<path d="M73.3333 46.7L63.3333 53.3666V60.0333L73.3333 46.7Z" fill="#4285F4"/>
<path d="M63.3333 20.0333V26.7L73.3333 33.3667L63.3333 20.0333Z" fill="#4285F4"/>
<path d="M53.3333 13.3666L73.3333 33.3666V20.0333L60 6.69995L53.3333 13.3666Z" fill="#AECBFA"/>
<path d="M60.0333 73.3333L73.3333 60.0333L73.3 46.7L53.3667 66.6666L60.0333 73.3333Z" fill="#AECBFA"/>
<path d="M26.6667 43.3333C28.5076 43.3333 30 41.8409 30 40C30 38.159 28.5076 36.6666 26.6667 36.6666C24.8257 36.6666 23.3333 38.159 23.3333 40C23.3333 41.8409 24.8257 43.3333 26.6667 43.3333Z" fill="#AECBFA"/>
<path d="M40 43.3333C41.841 43.3333 43.3333 41.8409 43.3333 40C43.3333 38.159 41.841 36.6666 40 36.6666C38.1591 36.6666 36.6667 38.159 36.6667 40C36.6667 41.8409 38.1591 43.3333 40 43.3333Z" fill="#AECBFA"/>
<path d="M53.3 43.3333C55.141 43.3333 56.6333 41.8409 56.6333 40C56.6333 38.159 55.141 36.6666 53.3 36.6666C51.4591 36.6666 49.9667 38.159 49.9667 40C49.9667 41.8409 51.4591 43.3333 53.3 43.3333Z" fill="#AECBFA"/>
</svg>
