<svg xmlns="http://www.w3.org/2000/svg" viewBox="0 0 80 80">
  <rect width="100%" height="100%" fill="#fff"/>
  <path fill="#4286F5" d="M69.5 34.4c2 12.8-1.8 22.6-8.6 28.8l-9.7-7.5c3.2-2.3 5.4-5.7 6.3-9.5H40.7V34.4h28.8Z"/>
  <path fill="#EA4235" d="M61.2 17.2 52.4 26c-3.2-3-7.4-4.6-11.8-4.6A18.4 18.4 0 0 0 23.3 34l-10-7.8a30.6 30.6 0 0 1 47.9-9Z"/>
  <path fill="#34A853" d="m51.2 55.7 9.7 7.5a29.7 29.7 0 0 1-20.3 7.4 30.6 30.6 0 0 1-27.4-17l10-7.7a18.4 18.4 0 0 0 17.4 12.7c4.4 0 8-1 10.6-2.9Z"/>
  <path fill="#FBBC05" d="m13.2 26.2 10 7.8a19 19 0 0 0 0 11.9l-10 7.8a30.6 30.6 0 0 1 0-27.5Z"/>
</svg>