<svg viewBox="0 0 80 80" xmlns="http://www.w3.org/2000/svg">
<rect width="100%" height="100%" fill="white"/>
<path d="M69.5051 34.4003C71.405 47.1634 67.6895 57.0307 60.8636 63.2283L51.1955 55.6977C54.3838 53.4205 56.6183 50.0455 57.4698 46.2211H40.7001V34.4003H69.5051Z" fill="#4286F5"/>
<path d="M61.2006 17.2169L52.3906 25.9196C49.216 22.9288 45.0077 21.2817 40.6464 21.3231C36.7804 21.3431 33.019 22.5813 29.897 24.8616C26.7751 27.1418 24.4513 30.3482 23.2561 34.0249L13.2433 26.2261C15.3582 22.0014 18.4214 18.3229 22.1934 15.478C25.9654 12.6332 30.3441 10.6991 34.9874 9.82681C39.6307 8.95452 44.4128 9.16769 48.9601 10.4497C53.5074 11.7316 57.6967 14.0477 61.2006 17.2169V17.2169Z" fill="#EA4235"/>
<path d="M51.1954 55.6977L60.8635 63.2283C55.5928 68.0164 48.4605 70.5905 40.6464 70.5905C34.9581 70.591 29.382 69.0082 24.5423 66.0194C19.7025 63.0306 15.7902 58.7537 13.2433 53.6675L23.2561 45.8994C24.4526 49.5746 26.7769 52.7793 29.8988 55.0581C33.0207 57.337 36.7813 58.574 40.6464 58.5935C45.0207 58.5935 48.5141 57.5669 51.1954 55.6977V55.6977Z" fill="#34A853"/>
<path d="M13.2434 26.2261L23.2562 34.002C21.9792 37.865 21.9792 42.0364 23.2562 45.8994L13.2434 53.6675C11.1105 49.4082 10 44.7103 10 39.9468C10 35.1833 11.1105 30.4854 13.2434 26.2261V26.2261Z" fill="#FBBC05"/>
</svg>
