<svg xmlns="http://www.w3.org/2000/svg" viewBox="0 0 80 80">
  <rect width="100%" height="100%" fill="#fff"/>
  <path fill="#F25F3F" fill-rule="evenodd" d="M44.87 9.61v5.73L21.65 29.07V50.9l-4.8 2.78V26.23L44.87 9.61Z" clip-rule="evenodd"/>
  <path fill="#FFAA5B" fill-rule="evenodd" d="M44.8 9.65 39.97 6.8 12.05 23.3l4.82 3L44.79 9.65ZM67.74 50.86l-4.77-2.79-23.1 13.42-18.2-10.63-4.83 2.84 18.2 10.85 4.83 3 27.87-16.69ZM68 23.4l-4.94-2.75-27.93 16.48 4.82 3L68 23.4Z" clip-rule="evenodd"/>
  <path fill="#EB1919" fill-rule="evenodd" d="m12 23.3 4.88 2.89v27.5l23.26 13.69v5.8L12 56.4V23.3ZM58.36 29.2v21.62l4.89 2.78V30.24l-4.9-1.04Z" clip-rule="evenodd"/>
  <path fill="#F25F3F" fill-rule="evenodd" d="M39.98 73.19v-5.73L63.2 53.6V31.97L39.98 45.72v-5.7L68 23.4v33.18L39.98 73.19Z" clip-rule="evenodd"/>
  <path fill="#EB1919" fill-rule="evenodd" d="M35.23 37.08v5.75L40 45.69V40l-4.78-2.92Z" clip-rule="evenodd"/>
</svg>