<svg viewBox="0 0 80 80" xmlns="http://www.w3.org/2000/svg">
<rect width="100%" height="100%" fill="#E10098"/>
<path fill-rule="evenodd" clip-rule="evenodd" d="M33.8498 67.7876L19.0379 59.2258C17.8714 60.4469 16.2279 61.2074 14.407 61.2074C10.8685 61.2074 8 58.3355 8 54.7927C8 51.7734 10.0835 49.2413 12.8896 48.5591V31.441C10.0835 30.7587 8 28.2267 8 25.2074C8 21.6646 10.8685 18.7927 14.407 18.7927C16.2279 18.7927 17.8713 19.5532 19.0378 20.7742L33.8498 12.2123C33.6838 11.6419 33.5948 11.0387 33.5948 10.4147C33.5948 6.87194 36.4633 4 40.0018 4C43.5403 4 46.4088 6.87194 46.4088 10.4147C46.4088 11.0387 46.3198 11.6419 46.1538 12.2123L60.9635 20.7729C62.1299 19.5526 63.7728 18.7927 65.593 18.7927C69.1315 18.7927 72 21.6646 72 25.2074C72 28.2254 69.9182 30.7566 67.1139 31.4402V48.5599C69.9182 49.2435 72 51.7747 72 54.7927C72 58.3355 69.1315 61.2074 65.593 61.2074C63.7727 61.2074 62.1298 60.4474 60.9634 59.2271L46.1538 67.7876C46.3198 68.358 46.4088 68.9613 46.4088 69.5853C46.4088 73.1281 43.5403 76 40.0018 76C36.4633 76 33.5948 73.1281 33.5948 69.5853C33.5948 68.9613 33.6838 68.358 33.8498 67.7876ZM40.0018 16.8293C40.6251 16.8293 41.2276 16.7402 41.7973 16.574L61.1638 50.1577C60.2959 50.9892 59.6612 52.0627 59.3676 53.2698H20.6324C20.3391 52.0637 19.7052 50.9911 18.8385 50.1599L38.2062 16.574C38.776 16.7402 39.3785 16.8293 40.0018 16.8293ZM20.6324 56.3155C20.6101 56.4073 20.5858 56.4984 20.5596 56.5886L35.3723 65.1509C36.5387 63.9306 38.1816 63.1707 40.0018 63.1707C41.822 63.1707 43.4649 63.9306 44.6313 65.1509L59.4409 56.5903C59.4145 56.4995 59.39 56.4079 59.3676 56.3155H20.6324ZM15.9316 31.4393C18.7341 30.7544 20.814 28.2241 20.814 25.2074C20.814 24.5839 20.7252 23.9813 20.5596 23.4114L35.3723 14.8491C35.4376 14.9175 35.5044 14.9843 35.5726 15.0497L16.2056 48.6343C16.1151 48.6078 16.0238 48.5833 15.9316 48.5608V31.4393ZM63.7975 48.6334C63.8881 48.6069 63.9796 48.5824 64.0719 48.5599V31.4401C61.2677 30.7565 59.186 28.2253 59.186 25.2074C59.186 24.5833 59.275 23.9801 59.441 23.4097L44.6313 14.8491C44.566 14.9174 44.4992 14.9843 44.4309 15.0497L63.7975 48.6334Z" fill="white"/>
</svg>
