<svg xmlns="http://www.w3.org/2000/svg" viewBox="0 0 80 80">
  <rect width="100%" height="100%" fill="#E10098"/>
  <path fill="#fff" fill-rule="evenodd" d="m34.41 66.24-13.99-8.08a6.05 6.05 0 1 1-5.8-10.07V31.91a6.06 6.06 0 1 1 5.8-10.08l14-8.08A6.07 6.07 0 0 1 40.21 6a6.05 6.05 0 0 1 5.81 7.76l14 8.08a6.05 6.05 0 1 1 5.8 10.07v16.17a6.06 6.06 0 1 1-5.8 10.08l-14 8.08a6.07 6.07 0 0 1-5.8 7.76 6.05 6.05 0 0 1-5.82-7.76Zm5.81-48.12c.6 0 1.16-.09 1.7-.24l18.29 31.71a6.05 6.05 0 0 0-1.7 2.94H21.93a6.05 6.05 0 0 0-1.7-2.93l18.3-31.72c.54.15 1.1.24 1.7.24ZM21.93 55.4a6 6 0 0 1-.07.26l14 8.08a6.03 6.03 0 0 1 8.74 0l13.98-8.08a5.93 5.93 0 0 1-.07-.26H21.93ZM17.5 31.9a6.06 6.06 0 0 0 4.37-7.58l14-8.08.18.19-18.29 31.71a6.04 6.04 0 0 0-.26-.06V31.9Zm45.2 16.24.27-.07V31.92a6.06 6.06 0 0 1-4.38-7.59L44.6 16.25l-.2.19 18.3 31.71Z" clip-rule="evenodd"/>
</svg>