<svg xmlns="http://www.w3.org/2000/svg" viewBox="0 0 80 80">
  <rect width="100%" height="100%" fill="#502077"/>
  <path fill="#fff" d="M14.85 40c3.86 0 7 3.13 7 7v14.28c0 1.66 1.34 3 3 3h4.75V73h-8.83a9 9 0 0 1-9-9V49.45c0-3.94-3.19-7.13-7.13-7.13v-4.64c3.94 0 7.13-3.19 7.13-7.13V16a9 9 0 0 1 9-9h8.83v8.72h-4.75c-1.66 0-3 1.34-3 3V33c0 3.87-3.14 7-7 7Zm50.3 0c-3.86 0-7 3.13-7 7v14.28c0 1.66-1.34 3-3 3H50.4V73h8.83a9 9 0 0 0 9-9V49.45c0-3.94 3.19-7.13 7.13-7.13v-4.64c-3.94 0-7.13-3.19-7.13-7.13V16a9 9 0 0 0-9-9H50.4v8.72h4.75c1.66 0 3 1.34 3 3V33c0 3.87 3.14 7 7 7Z"/>
</svg>
