<svg viewBox="0 0 80 80" xmlns="http://www.w3.org/2000/svg">
<rect width="100%" height="100%" fill="black"/>
<path d="M31.5795 48.804L56.181 30.5408C57.387 29.6454 59.1109 29.9947 59.6856 31.3854C62.7102 38.7198 61.3589 47.5339 55.3411 53.5856C49.3234 59.6374 40.9504 60.9645 33.2971 57.9419L24.9367 61.8346C36.928 70.0771 51.4893 68.0387 60.5885 58.8817C67.8061 51.6234 70.0414 41.7298 67.9513 32.8078L67.9702 32.8268C64.9392 19.7201 68.7153 14.4811 76.4508 3.76837C76.6336 3.51437 76.8172 3.26036 77 3L66.821 13.2365V13.2048L31.5732 48.8103" fill="white"/>
<path d="M26.5027 53.2427C17.896 44.9748 19.3799 32.1791 26.7237 24.8002C32.1542 19.339 41.0514 17.1102 48.8183 20.3868L57.1598 16.5132C55.6569 15.421 53.731 14.2462 51.5209 13.4207C41.5313 9.28669 29.5716 11.3441 21.4511 19.5042C13.64 27.3594 11.1836 39.4374 15.4017 49.7438C18.5527 57.4466 13.3874 62.895 8.18423 68.3943C6.34039 70.3438 4.49023 72.2933 3 74.3572L26.4964 53.2491" fill="white"/>
</svg>
