<svg viewBox="0 0 80 80" xmlns="http://www.w3.org/2000/svg">
<rect width="100%" height="100%" fill="#F54F35"/>
<path d="M40.0422 10C28.7145 10 19.5 19.2145 19.5 30.541C19.5 41.8675 28.7145 51.0832 40.0422 51.0832H46.7978V43.3796H40.0422C32.9628 43.3796 27.2036 37.6204 27.2036 30.541C27.2036 23.4617 32.9628 17.7024 40.0422 17.7024C47.1215 17.7024 52.9108 23.4617 52.9108 30.541V49.459C52.9108 56.4921 47.184 62.2201 40.1682 62.2941C36.8111 62.2664 33.6009 60.9173 31.2334 58.5371L25.7863 63.9842C29.5618 67.7793 34.6772 69.9387 40.0295 69.9965V70C40.0757 70 40.1219 70 40.167 70H40.3115V69.9965C51.4773 69.8451 60.5184 60.7427 60.5705 49.5515L60.5774 30.037C60.3092 18.944 51.1999 10 40.0422 10Z" fill="white"/>
</svg>
