<svg xmlns="http://www.w3.org/2000/svg" viewBox="0 0 80 80"><rect width="100%" height="100%" fill="#fff"/><path fill="#244B5A" d="M12 51c.5.7 1.2 1.3 2 1.7a6 6 0 0 0 2.8.7A6 6 0 0 0 19 53a4 4 0 0 0 2.3-2.7 7 7 0 0 0 .3-2v-2.2c-.6.8-1.3 1.5-2.2 1.9-.8.3-1.7.5-2.6.5a6.8 6.8 0 0 1-4.6-1.8c-.6-.6-1.1-1.3-1.4-2-.4-.9-.5-1.7-.5-2.6a6.7 6.7 0 0 1 1.8-4.7 6 6 0 0 1 2-1.4 6.5 6.5 0 0 1 5 0c1 .5 1.8 1.1 2.4 2v-2.1h1.8v12.5c0 .7 0 1.5-.2 2.2a5.4 5.4 0 0 1-3 3.7c-1 .5-2 .7-3.5.7-1.2 0-2.3-.2-3.4-.7-1-.4-1.9-1-2.6-1.9L12 51Zm.3-9a4.9 4.9 0 0 0 2.8 4.5 5 5 0 0 0 5.2-1c.5-.4.9-.9 1-1.5a5 5 0 0 0 .4-2c0-.6 0-1.3-.3-1.9a4.5 4.5 0 0 0-4.4-3c-.7 0-1.3.2-1.9.5a4.8 4.8 0 0 0-2.8 4.4Zm18.4 6.5h-2V29.4h5.9c2 0 3.4.4 4.6 1.3 1 .8 1.6 2 1.6 3.8 0 1.2-.4 2.4-1.2 3.4-.8.9-2 1.4-3.6 1.5l5.5 9.1H39l-5.2-8.9h-3.2v8.9Zm0-10.7H34c.7 0 1.5 0 2.2-.2a4 4 0 0 0 1.4-.7c.4-.3.6-.7.8-1a3.5 3.5 0 0 0 0-2.7c-.2-.4-.4-.8-.8-1-.4-.4-.9-.6-1.4-.8a8 8 0 0 0-2.2-.2h-3.4v6.6Zm14-8.4h5.6c2 0 3.5.4 4.6 1.3 1.1.8 1.7 2 1.7 3.8 0 1.7-.6 3-1.7 3.8a7.4 7.4 0 0 1-4.6 1.3h-3.6v8.9h-2V29.4Zm2 8.4h3.1c.8 0 1.5 0 2.2-.2a4 4 0 0 0 1.5-.7l.7-1a3.5 3.5 0 0 0 0-2.7c-.1-.4-.4-.8-.7-1-.5-.4-1-.6-1.5-.8a8 8 0 0 0-2.2-.2h-3v6.6ZM76 45.5a7.4 7.4 0 0 1-2.8 2.5 9.2 9.2 0 0 1-4.2 1 10.1 10.1 0 0 1-7.1-2.9c-1-.9-1.6-2-2.1-3.1-.5-1.3-.8-2.7-.7-4a9.5 9.5 0 0 1 6-9.3 10.1 10.1 0 0 1 7.4 0c1.2.4 2.3 1.2 3 2.2L74 33.2l-.9-1-1.1-.7-1.4-.6-1.5-.2a7.7 7.7 0 0 0-5.8 2.5 8 8 0 0 0-1.5 2.6c-.7 2-.7 4.3 0 6.3a7.4 7.4 0 0 0 7.3 5.1l1.5-.1a6.2 6.2 0 0 0 2.7-1.4c.5-.4.9-.8 1.2-1.4l1.6 1.2Z"/><path fill="#34BEBD" d="m9 35.7-5-5 5-5 5 5-5 5ZM22.6 33.5l-2.9-3 3-2.9 2.9 3-3 3Z"/><path fill="#244B5A" d="m9.2 27.6-3 3 3 3h2.6L9 31h13.3L21.2 32h1.3l1.5-1.5-1.5-1.5h-1.3l1.2 1.2H9l2.7-2.7H9.2Z"/></svg>