<svg viewBox="0 0 80 80" xmlns="http://www.w3.org/2000/svg">
<rect width="100%" height="100%" fill="white"/>
<path d="M11.9712 51.0313C12.5057 51.7454 13.2004 52.323 13.9988 52.7171C14.8623 53.1467 15.8152 53.3639 16.7787 53.3508C17.5578 53.3713 18.3333 53.2385 19.0616 52.9598C19.644 52.7299 20.164 52.3649 20.579 51.8944C20.9683 51.4361 21.2526 50.8974 21.4116 50.3165C21.585 49.6886 21.6708 49.0397 21.6667 48.3881V46.1226H21.6131C21.1081 46.9264 20.3797 47.564 19.5179 47.9567C18.6962 48.3159 17.8091 48.4996 16.9129 48.4961C16.0347 48.5027 15.1636 48.3378 14.3481 48.0106C13.5759 47.7027 12.8694 47.2496 12.2665 46.6755C11.6683 46.0987 11.1931 45.4058 10.8699 44.6389C10.5259 43.8292 10.3522 42.9569 10.3596 42.0767C10.3522 41.199 10.5165 40.3284 10.8432 39.5143C11.152 38.7442 11.603 38.0395 12.1725 37.4376C12.7419 36.8407 13.4276 36.3678 14.1869 36.0485C14.9994 35.7093 15.872 35.5396 16.7519 35.5496C17.1525 35.5519 17.5522 35.588 17.9468 35.6573C18.3808 35.7335 18.8045 35.8602 19.2092 36.035C20.17 36.4533 21.0006 37.1243 21.6131 37.9772H21.6667V35.8732H23.4394V48.3881C23.4334 49.1235 23.3478 49.856 23.1842 50.5728C23.0131 51.3478 22.6738 52.0753 22.1905 52.7035C21.6407 53.3965 20.937 53.9508 20.1358 54.3221C19.2584 54.7534 18.1124 54.969 16.6979 54.969C15.5489 54.9887 14.4076 54.7779 13.3408 54.3489C12.3202 53.9097 11.4046 53.2569 10.6553 52.434L11.9712 51.0313ZM12.2934 42.0229C12.289 42.6657 12.4123 43.3029 12.6561 43.8973C12.8885 44.4676 13.2255 44.9891 13.6496 45.4346C14.0712 45.8761 14.5725 46.2331 15.1268 46.4866C15.7043 46.7502 16.3323 46.8837 16.9666 46.8776C18.2228 46.8822 19.4333 46.4047 20.3506 45.5427C20.8011 45.1158 21.1539 44.5958 21.3847 44.0185C21.6335 43.384 21.7479 42.7043 21.7206 42.0229C21.7251 41.3837 21.6159 40.7488 21.3982 40.1482C21.1913 39.5773 20.8715 39.0544 20.4581 38.6109C20.0331 38.1613 19.5214 37.8034 18.9541 37.559C18.326 37.2909 17.649 37.1577 16.9666 37.1678C16.3323 37.162 15.7044 37.2955 15.1268 37.559C14.5726 37.8127 14.0714 38.1697 13.6496 38.6109C13.2257 39.0565 12.8886 39.5779 12.6559 40.1482C12.4122 40.7427 12.289 41.38 12.2934 42.0229ZM30.6638 48.4961H28.7302V29.4002H34.5851C36.5188 29.4002 38.0452 29.8228 39.1642 30.6679C40.2832 31.5133 40.8427 32.79 40.843 34.4979C40.877 35.7377 40.4291 36.942 39.5941 37.8558C38.7614 38.764 37.5573 39.2899 35.9817 39.4336L41.4607 48.4963H39.0971L33.8869 39.6226H30.664L30.6638 48.4961ZM30.6638 37.8421H34.1017C34.8404 37.8578 35.5775 37.7669 36.2905 37.5723C36.812 37.4323 37.3005 37.1894 37.7275 36.8578C38.0719 36.5794 38.34 36.2173 38.5062 35.8059C38.6696 35.3894 38.7517 34.9452 38.748 34.4976C38.75 34.0589 38.6679 33.624 38.5062 33.2166C38.338 32.8024 38.0705 32.4364 37.7275 32.151C37.3046 31.8128 36.8147 31.5691 36.2905 31.4363C35.5759 31.2515 34.8395 31.1653 34.1017 31.1801H30.6638V37.8421ZM44.7906 29.3998H50.3235C52.2571 29.3998 53.7834 29.8225 54.9025 30.6677C56.0214 31.5131 56.581 32.7898 56.5812 34.4977C56.5812 36.2062 56.0217 37.4873 54.9025 38.3411C53.7834 39.1953 52.2571 39.6224 50.3235 39.6223H46.7246V48.4961H44.7906V29.3998ZM46.7248 37.8423H49.8403C50.579 37.8579 51.3161 37.7671 52.0291 37.5725C52.5506 37.4325 53.0391 37.1895 53.4661 36.8579C53.8105 36.5795 54.0785 36.2175 54.2448 35.8061C54.4083 35.3896 54.4904 34.9454 54.4866 34.4977C54.4887 34.0591 54.4066 33.6242 54.2448 33.2168C54.0766 32.8026 53.8091 32.4366 53.4661 32.1512C53.0432 31.8131 52.5533 31.5694 52.0291 31.4365C51.3145 31.2517 50.5781 31.1655 49.8403 31.1803H46.7246L46.7248 37.8423ZM75.9994 45.4752C75.6591 45.9815 75.2578 46.4435 74.8046 46.8508C74.3139 47.2935 73.7676 47.6698 73.1796 47.97C72.5518 48.2918 71.8896 48.5408 71.2057 48.7119C70.472 48.8948 69.7186 48.9853 68.9627 48.9815C67.6144 48.9942 66.277 48.7375 65.0284 48.2265C63.8498 47.7482 62.7796 47.0358 61.8819 46.132C60.9843 45.2282 60.2776 44.1516 59.8044 42.9669C59.2927 41.69 59.0372 40.3242 59.0525 38.948C59.0372 37.5717 59.2927 36.2059 59.8044 34.9291C60.2776 33.7443 60.9843 32.6678 61.8819 31.7641C62.7796 30.8603 63.8498 30.148 65.0284 29.6698C66.277 29.1586 67.6144 28.9019 68.9627 28.9146C70.178 28.9211 71.3811 29.159 72.5081 29.6157C73.7101 30.0988 74.759 30.9005 75.5428 31.9354L73.851 33.2031C73.6238 32.8631 73.3528 32.5547 73.0451 32.2859C72.6897 31.9699 72.2975 31.6983 71.8771 31.4769C71.428 31.2393 70.9553 31.0495 70.4669 30.9105C69.978 30.7685 69.4717 30.6958 68.9627 30.6947C67.8346 30.6761 66.7161 30.9063 65.6862 31.369C64.7518 31.7947 63.9152 32.4099 63.2289 33.1759C62.5496 33.9441 62.0251 34.8372 61.6843 35.8059C60.9682 37.8389 60.9682 40.057 61.6843 42.09C62.025 43.0586 62.5496 43.9517 63.2289 44.7198C63.915 45.4861 64.7517 46.1013 65.6862 46.5269C66.716 46.9899 67.8346 47.2202 68.9627 47.2014C69.4627 47.2016 69.9616 47.1564 70.4534 47.0665C70.9538 46.9741 71.4409 46.8201 71.9038 46.608C72.3917 46.3833 72.8442 46.0878 73.2467 45.7312C73.699 45.3255 74.0922 44.858 74.4148 44.3425L75.9994 45.4752Z" fill="#244B5A"/>
<path d="M9.00879 35.6526L4.00054 30.6599L8.97221 25.6304L13.9805 30.6231L9.00879 35.6526Z" fill="#34BEBD"/>
<path d="M22.6367 33.5218L19.6991 30.5933L22.6153 27.6432L25.5529 30.5717L22.6367 33.5218Z" fill="#34BEBD"/>
<path d="M9.19194 27.6125L6.18164 30.6582L9.21432 33.6813L11.78 33.6717L9.08951 30.9915L22.3749 30.9421L21.2105 32.1192L22.4934 32.1146L23.9986 30.5917L22.4822 29.0802L21.1994 29.0849L22.3725 30.2537L9.08708 30.3032L11.7575 27.6029L9.19194 27.6125Z" fill="#244B5A"/>
</svg>
