<svg viewBox="0 0 80 80" fill="none" xmlns="http://www.w3.org/2000/svg">
<g clip-path="url(#clip0_1_901)">
<path d="M8.85642 52.2239C9.45036 53.0174 10.2222 53.6592 11.1094 54.0971C12.0689 54.5744 13.1276 54.8157 14.1982 54.8012C15.0639 54.824 15.9256 54.6764 16.7348 54.3667C17.382 54.1113 17.9598 53.7057 18.4208 53.183C18.8535 52.6737 19.1693 52.0751 19.346 51.4296C19.5386 50.732 19.634 50.0109 19.6294 49.287V46.7696H19.5699C19.0088 47.6627 18.1995 48.3712 17.2419 48.8076C16.3288 49.2067 15.3431 49.4108 14.3473 49.4069C13.3715 49.4143 12.4036 49.2311 11.4975 48.8675C10.6395 48.5254 9.85445 48.0219 9.18458 47.384C8.51989 46.7431 7.9919 45.9732 7.6327 45.121C7.25048 44.2214 7.05746 43.2522 7.06573 42.2741C7.05748 41.2989 7.24005 40.3315 7.60306 39.427C7.94618 38.5712 8.44733 37.7883 9.0801 37.1195C9.71279 36.4562 10.4747 35.9308 11.3184 35.576C12.2211 35.1991 13.1908 35.0104 14.1684 35.0216C14.6135 35.0242 15.0577 35.0642 15.4962 35.1413C15.9784 35.2259 16.4491 35.3668 16.8988 35.561C17.9664 36.0257 18.8893 36.7713 19.5699 37.719H19.6294V35.3811H21.5992V49.287C21.5925 50.1041 21.4974 50.918 21.3156 51.7144C21.1255 52.5755 20.7485 53.3839 20.2115 54.0819C19.6005 54.852 18.8187 55.4679 17.9285 55.8804C16.9534 56.3596 15.6801 56.5993 14.1085 56.5993C12.8318 56.6211 11.5636 56.3868 10.3782 55.9102C9.24417 55.4223 8.22687 54.6969 7.3943 53.7825L8.85642 52.2239ZM9.21444 42.2144C9.20951 42.9286 9.34652 43.6366 9.61743 44.297C9.87572 44.9308 10.2502 45.5102 10.7213 46.0052C11.1898 46.4958 11.7468 46.8925 12.3628 47.1741C13.0044 47.467 13.7022 47.6153 14.407 47.6086C15.8028 47.6137 17.1479 47.0831 18.1671 46.1253C18.6677 45.651 19.0597 45.0731 19.3162 44.4317C19.5926 43.7267 19.7196 42.9715 19.6893 42.2144C19.6943 41.5041 19.573 40.7987 19.3311 40.1313C19.1012 39.4969 18.7459 38.9159 18.2865 38.4231C17.8143 37.9236 17.2457 37.5259 16.6154 37.2544C15.9175 36.9565 15.1653 36.8084 14.407 36.8197C13.7022 36.8132 13.0045 36.9616 12.3628 37.2544C11.747 37.5363 11.19 37.9329 10.7213 38.4231C10.2503 38.9183 9.87583 39.4977 9.61723 40.1313C9.34643 40.7918 9.2095 41.5 9.21444 42.2144ZM29.6264 49.4069H27.4779V28.1888H33.9836C36.1322 28.1888 37.8282 28.6583 39.0716 29.5974C40.3149 30.5367 40.9367 31.9553 40.937 33.8531C40.9748 35.2306 40.4771 36.5688 39.5493 37.5841C38.624 38.5933 37.2861 39.1777 35.5354 39.3373L41.6233 49.4071H38.997L33.2078 39.5473H29.6266L29.6264 49.4069ZM29.6264 37.5689H33.4464C34.2672 37.5863 35.0863 37.4853 35.8785 37.2692C36.458 37.1136 37.0007 36.8437 37.4752 36.4751C37.8579 36.1658 38.1557 35.7636 38.3405 35.3064C38.522 34.8436 38.6132 34.35 38.6091 33.8526C38.6113 33.3653 38.5201 32.882 38.3405 32.4293C38.1536 31.9691 37.8563 31.5624 37.4752 31.2454C37.0053 30.8695 36.461 30.5988 35.8785 30.4511C35.0845 30.2458 34.2662 30.1501 33.4464 30.1665H29.6264V37.5689ZM45.3233 28.1884H51.4711C53.6196 28.1884 55.3156 28.658 56.559 29.5972C57.8023 30.5365 58.424 31.955 58.4243 33.8529C58.4243 35.7512 57.8025 37.1747 56.559 38.1233C55.3156 39.0725 53.6196 39.547 51.4711 39.5469H47.4722V49.4069H45.3233V28.1884ZM47.4724 37.5691H50.9342C51.755 37.5865 52.574 37.4855 53.3663 37.2694C53.9457 37.1137 54.4885 36.8438 54.963 36.4754C55.3456 36.166 55.6435 35.7637 55.8282 35.3066C56.0099 34.8438 56.1011 34.3503 56.0969 33.8529C56.0992 33.3655 56.008 32.8822 55.8282 32.4295C55.6413 31.9693 55.3441 31.5626 54.963 31.2456C54.493 30.8698 53.9487 30.599 53.3663 30.4513C52.5722 30.2461 51.754 30.1503 50.9342 30.1667H47.4722L47.4724 37.5691ZM80.0005 46.0504C79.6225 46.6129 79.1766 47.1263 78.673 47.5788C78.1277 48.0707 77.5207 48.4888 76.8673 48.8223C76.1698 49.18 75.434 49.4566 74.6741 49.6467C73.8589 49.8499 73.0217 49.9506 72.1818 49.9463C70.6837 49.9604 69.1976 49.6752 67.8102 49.1073C66.5007 48.5759 65.3116 47.7843 64.3141 46.7801C63.3167 45.7758 62.5315 44.5796 62.0057 43.2632C61.4371 41.8444 61.1532 40.3269 61.1703 38.7976C61.1532 37.2684 61.4371 35.7508 62.0057 34.3321C62.5315 33.0157 63.3167 31.8195 64.3141 30.8154C65.3116 29.8112 66.5007 29.0197 67.8102 28.4884C69.1976 27.9204 70.6836 27.6351 72.1818 27.6492C73.5322 27.6564 74.8689 27.9208 76.1212 28.4282C77.4569 28.965 78.6223 29.8559 79.4933 31.0057L77.6134 32.4143C77.3609 32.0365 77.0598 31.6938 76.7179 31.3952C76.323 31.0441 75.8872 30.7423 75.4201 30.4963C74.921 30.2323 74.3959 30.0214 73.8531 29.867C73.3099 29.7091 72.7474 29.6284 72.1818 29.6271C70.9283 29.6065 69.6856 29.8623 68.5412 30.3764C67.5029 30.8494 66.5733 31.533 65.8108 32.3841C65.056 33.2377 64.4732 34.2301 64.0945 35.3064C63.2989 37.5653 63.2989 40.03 64.0945 42.2889C64.4731 43.3652 65.056 44.3575 65.8108 45.211C66.5731 46.0624 67.5028 46.7461 68.5412 47.2189C69.6854 47.7334 70.9283 47.9892 72.1818 47.9684C72.7373 47.9686 73.2917 47.9184 73.8382 47.8185C74.3942 47.7158 74.9355 47.5447 75.4498 47.309C75.992 47.0593 76.4947 46.7311 76.942 46.3347C77.4445 45.884 77.8814 45.3646 78.2399 44.7917L80.0005 46.0504Z" fill="#244B5A"/>
<path d="M5.56485 35.1361L-3.13056e-06 29.5885L5.52421 24L11.0891 29.5476L5.56485 35.1361Z" fill="#34BEBD"/>
<path d="M20.707 32.7684L17.4429 29.5144L20.6832 26.2365L23.9472 29.4905L20.707 32.7684Z" fill="#34BEBD"/>
<path d="M5.76783 26.2023L2.42297 29.5866L5.7927 32.9456L8.64355 32.935L5.65402 29.9569L20.4159 29.902L19.1222 31.21L20.5476 31.2048L22.2201 29.5127L20.5351 27.8332L19.1097 27.8384L20.4132 29.1371L5.65132 29.1921L8.61847 26.1917L5.76783 26.2023Z" fill="#244B5A"/>
</g>
<defs>
<clipPath id="clip0_1_901">
<rect width="80" height="80" fill="white"/>
</clipPath>
</defs>
</svg>
