<svg xmlns="http://www.w3.org/2000/svg" viewBox="0 0 80 80">
  <rect width="100%" height="100%" fill="#fff"/>
  <path fill="#DC3611" d="M46.576 2.754 5.14 21.2l4.742 45.114 44.37 9.434L76.93 36.463 46.576 2.753Z" opacity=".65"/>
  <path fill="#DC3611" d="M53.951 5.004 9.581 14.43 4.838 59.543 46.275 78l30.354-33.71L53.95 5.004Z" opacity=".65"/>
  <path fill="#DC3611" d="M39.744 2 3.05 28.666l14.016 43.135h45.365l14.017-43.135L39.744 2Z" opacity=".65"/>
  <path fill="#fff" d="m47.008 37.73-7.224 8.77-7.224-8.77 2.05-2.583h10.349l2.05 2.582Zm-7.264-9.807c-6.632 0-12.027 5.395-12.027 12.027 0 6.631 5.395 12.027 12.027 12.027 6.631 0 12.027-5.396 12.027-12.027 0-6.632-5.396-12.027-12.027-12.027Zm0-3.014c8.31 0 15.041 6.731 15.041 15.04 0 8.31-6.732 15.042-15.041 15.042-8.31 0-15.041-6.732-15.041-15.041 0-8.31 6.731-15.042 15.04-15.042Z"/>
</svg>
