<svg xmlns="http://www.w3.org/2000/svg" viewBox="0 0 80 80">
  <rect width="100%" height="100%" fill="#FFFFFF"/>
  <path fill="#9B99A6" d="M19.3188 7.7406c.5955-.471 1.3703-.8432 2.1463-.715.77.1866 1.5826.4868 2.0475 1.1689.8102 1.1433.6784 2.7662-.1574 3.8594l-.0634-.0634c-.188-.1879-.371-.388-.5979-.5296-.2502-.1647-.6492-.0244-.7175.2734-.0891.4368.1208.8541.3307 1.2238-.7383.1513-1.5412.2526-2.2537-.0561-1.0677-.4393-1.8926-1.4862-1.9841-2.6466.0586-.9579.5821-1.8462 1.2495-2.5148ZM30.5129 20.81c.6088-.1049 1.1799-.3843 1.8034-.4099 1.3825-.0476 2.7943.0378 4.1096.5002.3844.1391.7639.3502.9908.7053-.5686.1013-1.0982.3331-1.6338.5357-2.1146.8297-4.1926 1.7571-6.1876 2.843-.8786.482-1.7583.9786-2.5161 1.64-.543.4819-1.1836.8578-1.6436 1.4276-.1574-1.4789.1404-3.0444 1.0409-4.2524.3916-.6394 1.0286-1.0518 1.5411-1.5813.7089-.6529 1.5874-1.0994 2.4953-1.4082ZM69.6555 29.2941c.5466-.5137 1.3288-.7333 2.067-.6382.9042.1391 1.6936.7858 2.0548 1.6204.4783 1.1214.1769 2.5527-.8151 3.2982-.9005.698-2.2756.6736-3.1298-.0903.432-.4026.92-.9578.7761-1.5911-.4308-.5552-1.2874-.4759-1.8413-.1562-.1318-.8944.1794-1.862.8883-2.4428ZM61.1434 31.4049c1.6973-.1659 3.1701.8993 4.4244 1.906.6248.6162 1.0628 1.4264 1.23 2.2879.2062 1.2031.1415 2.4501-.2794 3.602-.349 1.1433-.9323 2.383-2.0695 2.9114-.0134-.6626-.1635-1.3105-.2758-1.9609-.4807-2.5624-1.2275-5.0821-2.3195-7.4517-.1965-.4527-.4174-.8956-.7102-1.2947ZM18.2999 51.0319c.9006-.3343 1.884-.0183 2.6589.4784 1.7009.9907 3.3116 2.2036 4.5073 3.785.8017 1.0652 1.5119 2.2061 2.0805 3.4129.4026.8822.7199 1.8266.7406 2.804.0257.9395-.5539 1.7668-1.2153 2.3794-.7541.6149-1.4935 1.2629-2.3513 1.7314-1.103.5796-2.4001.8664-3.6374.6345-1.5179-.2538-2.9394-.9822-4.0901-1.995.4137-.2648.8761-.6333.8761-1.1726.0842-1.0091-.9066-1.8864-1.8876-1.812-.3734.1647-.6101.5259-.8786.8175-.6174-.9676-1.103-2.1036-.9908-3.2725.3124-2.0756.9945-4.1328 2.2354-5.8448.1306-.1561.144-.3624.1623-.5551.6284-.4247 1.0531-1.1275 1.79-1.3911ZM6.3884 66.311c.593-1.28 1.9474-2.15 3.3543-2.1573.92.0793 1.7876.4344 2.6088.8358.5723.2953.9603.8554 1.1531 1.4582.4844 1.3422.2123 2.9016-.6675 4.0193-.5478.6625-1.2153 1.2848-2.0767 1.4898-1.28.3783-2.6906-.0854-3.6191-1.0103-1.1067-1.2263-1.5106-3.1273-.7529-4.6355Z"/>
  <path fill="#F79727" d="M21.9764 11.7343c.0683-.2978.4673-.4381.7175-.2734.2269.1416.41.3417.5979.5296.3416.4185.7382.7846 1.1067 1.1787 1.4996 1.6485 2.8491 3.4251 4.2719 5.1383.6528.7955 1.2995 1.596 1.9376 2.4037l-.0951.0989c-.9079.3087-1.7864.7553-2.4953 1.4081-.3051-.3136-.5125-.698-.7443-1.064-1.2605-2.0121-2.4844-4.0486-3.6228-6.1327-.4014-.7175-.931-1.3532-1.3434-2.0634-.2099-.3697-.4198-.787-.3307-1.2238ZM68.7672 31.7369c.554-.3197 1.4105-.399 1.8413.1562.1439.6333-.3441 1.1884-.7761 1.5911-.9456.7895-1.9401 1.5423-3.0346 2.1146-.1672-.8614-.6052-1.6717-1.23-2.2879.9994-.6552 2.1744-.9639 3.1994-1.574ZM15.103 62.0953c.2685-.2917.5052-.6528.8786-.8176.981-.0744 1.9718.8029 1.8876 1.812 0 .5393-.4624.9078-.8761 1.1726-.5759.3539-1.1702.676-1.7339 1.0494-.5869.3758-1.1274.8236-1.7546 1.136-.1928-.6028-.5808-1.1628-1.1531-1.4581.7126-1.1434 1.8803-1.8877 2.7515-2.8943Z"/>
  <path fill="#787880" d="M40.2561 21.0724c1.5179-.2428 3.0591-.1782 4.5904-.1538 4.4964.3063 8.9818 2.0353 12.2349 5.2066.4576.3148.737.8053 1.1409 1.1763 1.1494 1.2336 2.0267 2.6844 2.9211 4.1035.2929.399.5137.8419.7102 1.2946 1.092 2.3696 1.8388 4.8893 2.3196 7.4517.1122.6504.2623 1.2983.2757 1.9609-.0549 1.1421.1989 2.2842.0415 3.4239-.0769.6174-.0073 1.2446-.1208 1.8571-.1757 1.1506-.6809 2.211-1.1909 3.2445-.244.5149-.7809.7724-1.23 1.0774-.4575.2978-1.064.5699-1.596.2965-.8407-.4783-1.2458-1.4349-1.4374-2.3403-.2111-.8395-.1378-1.7083-.15-2.5636-.133-2.3892-.2661-4.7966-.7956-7.1382-.3551-1.535-.9627-3.0822-2.1476-4.1682-.7504-.6332-1.6094-1.1445-2.5319-1.4813-1.38-.41-2.8186-.6479-4.2609-.6174-1.7412-.039-3.4568.3258-5.1321.7639-1.6949.4404-3.2958 1.1628-4.8771 1.9035-1.2556.532-2.4429 1.2019-3.6496 1.8327-.676.3648-1.3447.748-1.9536 1.2177-1.1018.8408-2.2866 1.6034-3.1896 2.6711-.9053 1.0676-1.7094 2.2878-1.984 3.6825-.3453 2.0524.0476 4.1633.7785 6.0912.8358 2.128 2.0841 4.0864 3.6301 5.7691 1.0689 1.3398 2.4916 2.3208 3.8716 3.3116.7554.4954 1.2507 1.3715 1.2568 2.2781-.0707.7565-.6479 1.3495-1.2433 1.7632-.6419.3965-1.3923.654-2.1525.6308-1.7802-.0158-3.5751-.2282-5.2651-.8041-.7126-.2391-1.3678-.6089-2.0475-.9225.6614-.6125 1.241-1.4398 1.2153-2.3793-.0207-.9774-.338-1.9218-.7406-2.804-.5686-1.2068-1.2788-2.3477-2.0805-3.4129-1.1957-1.5814-2.8064-2.7943-4.5074-3.7851-.7748-.4966-1.7583-.8126-2.6588-.4783-.737.2636-1.1616.9664-1.79 1.391-.1842-.5356-.0976-1.1128-.172-1.6655-.0928-.6455-.0415-1.2983-.1037-1.945-.0989-.892-.0513-1.7913-.0672-2.6869-.0256-1.751.0074-3.5117.277-5.2456.2612-1.6094.9225-3.12 1.6717-4.5562.8126-1.5204 1.8498-2.9163 3.0212-4.1804.6406-.737 1.3239-1.441 2.0853-2.0536.6845-.7382 1.5728-1.2592 2.2134-2.0377.4601-.5698 1.1007-.9457 1.6436-1.4276.7578-.6614 1.6375-1.158 2.5161-1.64 1.995-1.0859 4.073-2.0133 6.1876-2.843.5357-.2026 1.0652-.4344 1.6338-.5357.9652-.072 1.8755-.4478 2.8394-.5332Z"/>
</svg>
