<svg xmlns="http://www.w3.org/2000/svg" viewBox="0 0 80 80">
  <rect width="100%" height="100%" fill="#fff"/>
  <path fill="#E34F26" d="m70 7-5.4 61L40 75l-24.6-7L10 7h60ZM59.7 64.3 64.3 12H40v7.3H21l2.1 22.8H40v12l-8.5-2.3-.6-6h-7.3l.9 11.9L40 62v7.8l19.7-5.6Z"/>
  <path fill="#EF652A" d="m64.3 12.1-4.6 52.2L40 69.9v-7.8l15.2-4.4 2.2-23H40v-7.8h18l.8-7.5H40V12h24.3Z"/>
  <path fill="#fff" d="m58.8 19.4-.7 7.5H40v-7.5h18.8Zm-1.4 15.3-2.2 23L40 62.1v-8l8.2-2.3 1-9.6H40v-7.5h17.4Z"/>
  <path fill="#E34F26" d="m49.2 42.2-1 9.6-8.2 2.3V42.2h9.2Z"/>
  <path fill="#EBEBEB" d="M40 54.1v8l-15.5-4.4-1-11.8H31l.6 6 8.5 2.2Zm0-19.4v7.5H23.1l-2-22.8H40v7.5H29.4l.7 7.8H40Z"/>
  <path fill="#E34F26" d="M40 27v7.7H30l-.6-7.8H40Z"/>
</svg>