<svg viewBox="0 0 80 80" xmlns="http://www.w3.org/2000/svg">
<rect width="100%" height="100%" fill="white"/>
<path d="M69.971 7L64.582 67.9705L40 75L15.418 67.9705L10.029 7H69.971ZM59.72 64.256L64.327 12.1H40V19.3845H21.028L23.1275 42.2155H40V54.1155L31.5425 51.948L30.9135 45.879H23.578L24.479 57.779L40 62.0545V69.9L59.72 64.256Z" fill="#E34F26"/>
<path d="M64.327 12.1L59.72 64.256L40 69.9V62.0545L55.2405 57.711L57.4165 34.693H40V26.941H58.088L58.7595 19.376H40V12.1H64.327Z" fill="#EF652A"/>
<path d="M58.7595 19.376L58.088 26.941H40V19.376H58.7595ZM57.4165 34.693L55.2405 57.711L40 62.0545V54.1155L48.245 51.829L49.18 42.2155H40V34.693H57.4165V34.693Z" fill="white"/>
<path d="M49.18 42.2155L48.245 51.829L40 54.1155V42.2155H49.18Z" fill="#E34F26"/>
<path d="M40 54.1155V62.0545L24.4705 57.745L23.578 45.879H30.9135L31.5425 51.948L40 54.1155ZM40 34.693V42.2155H23.1275L21.028 19.376H40V26.941H29.4175L30.089 34.693H40Z" fill="#EBEBEB"/>
<path d="M40 26.941V34.693H30.089L29.4175 26.941H40Z" fill="#E34F26"/>
</svg>
