<svg viewBox="0 0 80 80" fill="none" xmlns="http://www.w3.org/2000/svg">
<path d="M77.8259 34.8689C78.134 34.5591 77.9738 34.2766 77.799 33.9942C77.0973 32.8628 76.1229 32.0177 74.9676 31.4184C71.7095 29.7268 68.1849 29.1307 64.5763 29.0815C62.2725 29.0503 59.9664 29.307 57.6603 29.3382C54.9275 29.3757 52.1947 29.371 49.4819 29.7549C47.6919 30.0085 45.8857 30.1606 44.1195 30.5781C43.7706 30.6608 43.4209 30.7419 43.119 30.962C42.8779 31.1375 42.636 31.2538 42.5413 30.8036C42.522 30.7123 42.4365 30.6171 42.3564 30.5617C42.1878 30.4462 42.1192 30.3104 42.1523 30.1013C42.1754 29.9531 42.1046 29.7955 41.9875 29.7245C41.7048 29.5528 41.7803 29.3733 41.8843 29.1252C42.1739 28.4331 41.8519 27.8174 41.1587 27.6785C40.6057 27.5677 40.5264 27.4421 40.6796 26.8834C41.0193 25.6475 41.5646 24.5043 42.2001 23.3987C43.6366 20.8994 45.5291 18.7599 47.3876 16.593C47.9861 15.8955 48.5453 15.169 49.0675 14.4121C49.1399 14.3068 49.2308 14.1773 49.1068 14.0626C48.972 13.9369 48.8311 14.0212 48.7379 14.1336C48.5892 14.3115 48.4452 14.498 48.3304 14.6993C47.326 16.4526 45.9665 17.9359 44.7064 19.4863C43.2607 21.2646 41.9906 23.1365 41.0424 25.2292C40.8137 25.7349 40.6581 26.2678 40.4848 26.846C40.3654 26.4855 40.3792 26.0782 40.0003 25.9721C39.6213 26.0782 39.6352 26.4847 39.5158 26.846C39.3433 26.2686 39.1877 25.7349 38.9581 25.2292C38.01 23.1357 36.7399 21.2646 35.2941 19.4863C34.034 17.9359 32.6745 16.4526 31.6701 14.6993C31.5554 14.498 31.4113 14.3115 31.2627 14.1336C31.1695 14.0212 31.0285 13.9369 30.8937 14.0626C30.7697 14.1773 30.8606 14.3068 30.933 14.4121C31.4552 15.169 32.0144 15.8955 32.6129 16.593C34.4715 18.7599 36.364 20.9002 37.8005 23.3987C38.4359 24.5043 38.9813 25.6475 39.3209 26.8834C39.4742 27.4413 39.3949 27.5677 38.8418 27.6785C38.1479 27.8174 37.8267 28.4323 38.1163 29.1252C38.2203 29.3733 38.295 29.5528 38.0131 29.7245C37.896 29.7955 37.8244 29.9531 37.8482 30.1013C37.8814 30.3104 37.8128 30.4454 37.6441 30.5617C37.564 30.6171 37.4785 30.7123 37.4593 30.8036C37.3645 31.2538 37.1227 31.1375 36.8816 30.962C36.5796 30.7419 36.23 30.6608 35.881 30.5781C34.1157 30.1606 32.3094 30.0085 30.5186 29.7549C27.8051 29.371 25.0731 29.3757 22.3402 29.3382C20.0341 29.307 17.7281 29.0495 15.4243 29.0815C11.8165 29.1307 8.29108 29.7268 5.03297 31.4184C3.87762 32.0185 2.90326 32.8628 2.20158 33.9942C2.02596 34.2766 1.86575 34.5591 2.17462 34.8689C2.2994 34.9945 2.18925 35.1373 2.1338 35.2653C1.8334 35.9542 2.09374 36.9842 2.68914 37.4422C3.00031 37.6818 3.21829 37.9877 3.42164 38.3279C3.7513 38.8795 4.31126 39.1831 4.87816 39.4093C5.29486 39.5755 5.61219 39.7831 5.92491 40.1264C6.42865 40.6804 7.00325 41.211 7.82971 41.2555C8.05308 41.2672 8.23255 41.3554 8.40123 41.5278C8.81793 41.9539 9.31935 42.2738 9.84466 42.5391C10.2182 42.7279 10.5302 42.9277 10.5972 43.3888C10.6357 43.6564 10.8098 43.8757 10.9954 44.0442C11.6016 44.5951 12.1662 45.224 13.0589 45.3099C13.2799 45.3309 13.4863 45.4246 13.511 45.7062C13.5141 45.7414 13.5395 45.7835 13.5672 45.8061C14.3213 46.4241 14.9097 47.2801 15.9927 47.419C16.3717 47.4674 16.7522 47.632 16.9439 48.058C17.0703 48.3389 17.3537 48.4825 17.6133 48.6222C18.04 48.8516 18.4282 49.0896 18.5391 49.6311C18.5946 49.9018 18.8218 50.1055 18.9273 50.3786C19.2493 51.208 19.4349 52.1108 20.1181 52.7647C20.3546 52.991 20.571 53.2009 20.8999 53.2976C21.3759 53.4381 21.6963 53.7174 21.9351 54.2231C22.3287 55.0572 23.0281 55.6541 23.9685 55.7829C24.597 55.8687 25.0569 56.0848 25.4096 56.6443C25.8602 57.359 26.3932 58.0067 27.3229 58.1315C27.7627 58.1908 28.1933 58.1424 28.6239 58.1143C28.925 58.0948 29.1345 58.1385 29.3725 58.3711C29.8023 58.7916 30.3222 59.0031 30.9669 59C31.6494 58.9968 32.167 58.7667 32.6561 58.3203C32.8509 58.1424 33.1305 58.0925 33.4425 58.1627C33.8815 58.2618 34.3398 58.4062 34.7958 58.2017C34.976 58.1214 35.157 58.1081 35.3557 58.126C35.9057 58.1744 36.2492 57.7921 36.6043 57.4573C36.7761 57.295 36.9632 57.1749 37.1727 57.0703C38.1633 56.5756 38.6701 55.6916 38.9705 54.6702C39.22 53.8212 39.1338 52.9442 39.0837 52.0773C39.0691 51.8284 39.0683 51.6949 39.3602 51.7519C39.4611 51.7714 39.5774 51.7628 39.6506 51.6817C39.8801 51.4281 39.9441 51.5436 39.9756 51.8104C39.9826 51.8697 40.0211 51.8697 40.028 51.8104C40.0596 51.5436 40.1235 51.4281 40.3531 51.6817C40.4262 51.762 40.5425 51.7714 40.6434 51.7519C40.9354 51.6949 40.9346 51.8284 40.9199 52.0773C40.8691 52.9442 40.7836 53.8212 41.0332 54.6702C41.3336 55.6916 41.8404 56.5756 42.8309 57.0703C43.0412 57.1757 43.2276 57.2958 43.3993 57.4573C43.7544 57.7921 44.0979 58.1744 44.6479 58.126C44.8466 58.1081 45.0284 58.1214 45.2079 58.2017C45.6638 58.4062 46.1221 58.2618 46.5612 58.1627C46.8731 58.0925 47.1527 58.1424 47.3476 58.3203C47.8375 58.7667 48.3543 58.9968 49.0367 59C49.6814 59.0031 50.2021 58.7908 50.6311 58.3711C50.8684 58.1393 51.0779 58.0948 51.3798 58.1143C51.8111 58.1424 52.2417 58.1908 52.6807 58.1315C53.6104 58.0059 54.1434 57.359 54.594 56.6443C54.9468 56.0848 55.4066 55.8687 56.0351 55.7829C56.9756 55.6541 57.6742 55.0572 58.0685 54.2231C58.3073 53.7174 58.627 53.4381 59.1037 53.2976C59.4319 53.2009 59.6483 52.991 59.8855 52.7647C60.5687 52.1108 60.7544 51.208 61.0763 50.3786C61.1826 50.1055 61.4091 49.9018 61.4645 49.6311C61.5754 49.0896 61.9636 48.8516 62.3904 48.6222C62.6492 48.4825 62.9334 48.3389 63.0597 48.058C63.2515 47.632 63.632 47.4674 64.0109 47.419C65.0939 47.2801 65.6824 46.4241 66.4364 45.8061C66.4641 45.7835 66.4896 45.7414 66.4926 45.7062C66.5173 45.4246 66.7237 45.3309 66.9448 45.3099C67.8367 45.224 68.4021 44.5951 69.0082 44.0442C69.1939 43.8757 69.368 43.6557 69.4065 43.3888C69.4735 42.9277 69.7854 42.7279 70.159 42.5391C70.6851 42.2738 71.1865 41.9539 71.6024 41.5278C71.7703 41.3562 71.9506 41.268 72.1739 41.2555C73.0004 41.211 73.575 40.6797 74.0787 40.1264C74.3914 39.7831 74.7088 39.5748 75.1255 39.4093C75.6924 39.1831 76.2516 38.8795 76.582 38.3279C76.7853 37.9884 77.0026 37.6818 77.3145 37.4422C77.9099 36.9842 78.1702 35.9542 77.8698 35.2653C77.8136 35.1373 77.7042 34.9937 77.829 34.8689H77.8259Z" fill="#DFB783"/>
</svg>
