<svg viewBox="0 0 80 80" xmlns="http://www.w3.org/2000/svg">
<rect width="100%" height="100%" fill="#1C1D34"/>
<path d="M75.8351 33.9414C76.127 33.6454 75.9752 33.3754 75.8096 33.1055C75.1448 32.0244 74.2217 31.2169 73.1272 30.6443C70.0406 29.0278 66.7014 28.4582 63.2828 28.4112C61.1003 28.3814 58.9155 28.6267 56.7308 28.6565C54.1418 28.6923 51.5529 28.6878 48.9829 29.0547C47.287 29.297 45.5759 29.4424 43.9027 29.8413C43.5721 29.9203 43.2409 29.9979 42.9548 30.2081C42.7264 30.3759 42.4973 30.487 42.4075 30.0568C42.3893 29.9695 42.3083 29.8786 42.2324 29.8256C42.0726 29.7153 42.0077 29.5855 42.039 29.3857C42.0609 29.244 41.9938 29.0934 41.8829 29.0256C41.6151 28.8616 41.6866 28.6901 41.7851 28.453C42.0595 27.7916 41.7545 27.2033 41.0977 27.0706C40.5738 26.9647 40.4986 26.8447 40.6439 26.3108C40.9657 25.1298 41.4823 24.0375 42.0843 22.981C43.4452 20.5928 45.2381 18.5483 46.9988 16.4778C47.5658 15.8112 48.0956 15.1171 48.5903 14.3938C48.6589 14.2932 48.745 14.1694 48.6275 14.0598C48.4998 13.9397 48.3663 14.0203 48.278 14.1276C48.1371 14.2976 48.0007 14.4758 47.892 14.6682C46.9404 16.3436 45.6525 17.761 44.4587 19.2425C43.0891 20.9417 41.8858 22.7304 40.9875 24.7302C40.7708 25.2133 40.6234 25.7226 40.4592 26.275C40.3461 25.9306 40.3593 25.5414 40.0003 25.44C39.6413 25.5414 39.6544 25.9298 39.5413 26.275C39.3778 25.7233 39.2304 25.2133 39.013 24.7302C38.1147 22.7297 36.9114 20.9417 35.5418 19.2425C34.348 17.761 33.0601 16.3436 32.1086 14.6682C31.9998 14.4758 31.8634 14.2976 31.7225 14.1276C31.6343 14.0203 31.5007 13.9397 31.373 14.0598C31.2555 14.1694 31.3416 14.2932 31.4102 14.3938C31.905 15.1171 32.4347 15.8112 33.0017 16.4778C34.7625 18.5483 36.5554 20.5935 37.9162 22.981C38.5182 24.0375 39.0349 25.1298 39.3567 26.3108C39.5019 26.8439 39.4267 26.9647 38.9028 27.0706C38.2453 27.2033 37.9411 27.7909 38.2154 28.453C38.3139 28.6901 38.3847 28.8616 38.1176 29.0256C38.0067 29.0934 37.9389 29.244 37.9615 29.3857C37.9929 29.5855 37.9279 29.7145 37.7681 29.8256C37.6922 29.8786 37.6112 29.9695 37.593 30.0568C37.5032 30.487 37.2741 30.3759 37.0457 30.2081C36.7597 29.9979 36.4284 29.9203 36.0978 29.8413C34.4254 29.4424 32.7142 29.297 31.0177 29.0547C28.4469 28.6878 25.8587 28.6923 23.2697 28.6565C21.085 28.6267 18.9003 28.3806 16.7177 28.4112C13.2998 28.4582 9.95997 29.0278 6.87334 30.6443C5.77879 31.2177 4.85572 32.0244 4.19097 33.1055C4.0246 33.3754 3.87282 33.6454 4.16543 33.9414C4.28364 34.0614 4.17929 34.1979 4.12675 34.3201C3.84217 34.9785 4.08881 35.9627 4.65287 36.4004C4.94767 36.6293 5.15417 36.9216 5.34681 37.2466C5.65912 37.7738 6.18962 38.0638 6.72667 38.28C7.12144 38.4389 7.42208 38.6372 7.71834 38.9653C8.19556 39.4946 8.73992 40.0016 9.52288 40.0441C9.7345 40.0553 9.90452 40.1396 10.0643 40.3044C10.4591 40.7115 10.9341 41.0172 11.4318 41.2707C11.7857 41.4511 12.0812 41.642 12.1447 42.0826C12.1812 42.3384 12.3461 42.5479 12.522 42.7089C13.0962 43.2353 13.6311 43.8363 14.4768 43.9183C14.6862 43.9384 14.8818 44.0279 14.9052 44.2971C14.9081 44.3306 14.9322 44.3709 14.9584 44.3925C15.6728 44.983 16.2303 45.801 17.2562 45.9337C17.6153 45.9799 17.9757 46.1372 18.1574 46.5443C18.2771 46.8128 18.5456 46.9499 18.7915 47.0834C19.1958 47.3026 19.5636 47.53 19.6686 48.0475C19.7212 48.3062 19.9364 48.5008 20.0364 48.7618C20.3414 49.5543 20.5173 50.417 21.1645 51.0418C21.3885 51.2581 21.5936 51.4586 21.9052 51.5511C22.3561 51.6853 22.6597 51.9522 22.8859 52.4354C23.2588 53.2324 23.9213 53.8028 24.8123 53.9258C25.4077 54.0079 25.8434 54.2144 26.1776 54.749C26.6044 55.432 27.1094 56.0508 27.9901 56.1701C28.4068 56.2268 28.8147 56.1805 29.2226 56.1537C29.5079 56.1351 29.7064 56.1768 29.9319 56.399C30.339 56.8009 30.8316 57.003 31.4423 57C32.0889 56.997 32.5792 56.777 33.0426 56.3505C33.2272 56.1805 33.4921 56.1328 33.7876 56.1999C34.2035 56.2946 34.6377 56.4326 35.0697 56.2372C35.2404 56.1604 35.4119 56.1477 35.6002 56.1649C36.1212 56.2111 36.4466 55.8458 36.783 55.5259C36.9457 55.3708 37.1231 55.256 37.3215 55.1561C38.2599 54.6834 38.7401 53.8386 39.0247 52.8626C39.2611 52.0514 39.1794 51.2133 39.1319 50.385C39.1181 50.1471 39.1173 50.0196 39.3939 50.074C39.4895 50.0927 39.5997 50.0845 39.669 50.0069C39.8864 49.7646 39.947 49.875 39.9769 50.13C39.9835 50.1866 40.02 50.1866 40.0265 50.13C40.0565 49.875 40.117 49.7646 40.3345 50.0069C40.4038 50.0837 40.514 50.0927 40.6096 50.074C40.8861 50.0196 40.8854 50.1471 40.8715 50.385C40.8234 51.2133 40.7424 52.0514 40.9788 52.8626C41.2634 53.8386 41.7435 54.6834 42.6819 55.1561C42.8811 55.2567 43.0577 55.3716 43.2204 55.5259C43.5568 55.8458 43.8823 56.2111 44.4033 56.1649C44.5915 56.1477 44.7637 56.1604 44.9338 56.2372C45.3657 56.4326 45.7999 56.2946 46.2159 56.1999C46.5114 56.1328 46.7763 56.1805 46.9609 56.3505C47.425 56.777 47.9146 56.997 48.5611 57C49.1719 57.003 49.6651 56.8001 50.0716 56.399C50.2963 56.1776 50.4948 56.1351 50.7809 56.1537C51.1895 56.1805 51.5974 56.2268 52.0133 56.1701C52.8941 56.0501 53.399 55.432 53.8259 54.749C54.1601 54.2144 54.5957 54.0079 55.1912 53.9258C56.0821 53.8028 56.744 53.2324 57.1176 52.4354C57.3438 51.9522 57.6466 51.6853 58.0983 51.5511C58.4091 51.4586 58.6142 51.2581 58.8389 51.0418C59.4862 50.417 59.662 49.5543 59.967 48.7618C60.0677 48.5008 60.2823 48.3062 60.3348 48.0475C60.4399 47.53 60.8077 47.3026 61.2119 47.0834C61.4571 46.9499 61.7263 46.8128 61.846 46.5443C62.0277 46.1372 62.3882 45.9799 62.7472 45.9337C63.7732 45.801 64.3306 44.983 65.045 44.3925C65.0713 44.3709 65.0954 44.3306 65.0983 44.2971C65.1216 44.0279 65.3172 43.9384 65.5266 43.9183C66.3716 43.8363 66.9072 43.2353 67.4815 42.7089C67.6574 42.5479 67.8223 42.3376 67.8587 42.0826C67.9222 41.642 68.2178 41.4511 68.5717 41.2707C69.0701 41.0172 69.5451 40.7115 69.9391 40.3044C70.0982 40.1403 70.2689 40.0561 70.4806 40.0441C71.2635 40.0016 71.8079 39.4939 72.2851 38.9653C72.5814 38.6372 72.882 38.4381 73.2768 38.28C73.8138 38.0638 74.3436 37.7738 74.6566 37.2466C74.8493 36.9223 75.055 36.6293 75.3506 36.4004C75.9146 35.9627 76.1613 34.9785 75.8767 34.3201C75.8234 34.1979 75.7198 34.0607 75.838 33.9414H75.8351Z" fill="#DFB783"/>
</svg>
