<svg viewBox="0 0 80 80" xmlns="http://www.w3.org/2000/svg">
<rect width="100%" height="100%" fill="white"/>
<path fill-rule="evenodd" clip-rule="evenodd" d="M49.0401 43.2918H57.201V30.4396H61.8147V54.0414H44.5006V49.8293H57.1166V47.811H16.8826V34.8204H8.78245V47.6321H4.08438C4.07697 47.4744 4.06724 47.3134 4.05737 47.1501C4.03576 46.7927 4.0135 46.4243 4.0135 46.056L4 24H8.63395V30.308H22.124V43.2749H30.2242V30.4565H49.0401V43.2918ZM43.6738 34.7968H35.7694V36.6058H43.6738V34.7968ZM35.739 43.3019H44.3521V41.1588H35.739V43.3019Z" fill="black"/>
<path d="M66.4284 32.6638V37.7027H76V39.9471H64.0523V30.4463H73.6004V28.0298H64.0287V25.7888H75.973V32.6638H66.4284Z" fill="black"/>
</svg>
