<svg xmlns="http://www.w3.org/2000/svg" viewBox="0 0 80 80">
  <rect width="100%" height="100%" fill="#fff"/>
  <path fill="#fff" d="M76.915 56.064a6.817 6.817 0 0 0-.925-2.045c.09-.33.158-.665.204-1.003.298-2.148-.447-4.114-1.85-5.636-.76-.83-1.574-1.38-2.437-1.716.566-2.423.853-4.903.854-7.392a34.145 34.145 0 0 0-.376-4.985 32.794 32.794 0 0 0-2.194-7.757 33.058 33.058 0 0 0-2.17-4.224c-.541-.9-1.13-1.772-1.764-2.61a24.73 24.73 0 0 0-.972-1.238 32.546 32.546 0 0 0-4.438-4.438 29.452 29.452 0 0 0-1.23-.971 32.576 32.576 0 0 0-19.578-6.496c-18.074 0-32.722 14.648-32.722 32.72 0 2.52.291 5.032.87 7.484-.776.337-1.52.863-2.21 1.623-1.403 1.52-2.148 3.48-1.85 5.627.045.34.113.679.204 1.01a6.83 6.83 0 0 0-.925 2.047c-.431 1.64-.289 3.117.259 4.413-.596 1.692-.447 3.495.329 5.062.564 1.145 1.372 2.03 2.367 2.822 1.183.94 2.665 1.74 4.452 2.506 2.131.91 4.734 1.764 5.917 2.077 3.057.792 5.988 1.293 8.959 1.318 4.232.039 7.877-.956 10.486-3.503 1.282.157 2.573.236 3.864.235a33.694 33.694 0 0 0 4.082-.257c2.603 2.563 6.262 3.567 10.51 3.527 2.97-.024 5.901-.525 8.95-1.318 1.191-.313 3.793-1.168 5.925-2.077 1.787-.768 3.269-1.567 4.46-2.506.988-.792 1.795-1.677 2.36-2.822a6.492 6.492 0 0 0 .336-5.063c.543-1.295.684-2.776.253-4.414Zm-3.033 4.303c.6 1.14.64 2.427.11 3.626-.804 1.818-2.8 3.25-6.677 4.786-2.41.956-4.618 1.568-4.637 1.573-3.188.827-6.072 1.247-8.568 1.247-4.134 0-7.21-1.14-9.16-3.393a30.712 30.712 0 0 1-9.972.057c-1.953 2.215-5.011 3.336-9.11 3.336-2.497 0-5.38-.42-8.569-1.247-.02-.005-2.226-.617-4.637-1.573-3.876-1.537-5.873-2.967-6.676-4.786-.53-1.199-.491-2.486.11-3.626.054-.106.114-.21.178-.31a4.601 4.601 0 0 1-.621-3.715 4.162 4.162 0 0 1 1.4-2.203 4.582 4.582 0 0 1-.622-1.733c-.192-1.334.251-2.667 1.248-3.754.776-.845 1.873-1.31 3.088-1.31h.032a30.347 30.347 0 0 1-1.377-9.07c0-16.772 13.597-30.37 30.372-30.37s30.372 13.597 30.372 30.37a30.33 30.33 0 0 1-1.387 9.092c.147-.014.29-.021.432-.022 1.214 0 2.312.466 3.087 1.311.997 1.086 1.44 2.42 1.248 3.754a4.585 4.585 0 0 1-.622 1.733 4.161 4.161 0 0 1 1.4 2.203 4.6 4.6 0 0 1-.62 3.716c.063.099.124.202.178.308Z"/>
  <path fill="#FF9D00" d="M73.704 60.059a4.6 4.6 0 0 0 .62-3.716 4.166 4.166 0 0 0-1.4-2.203 4.58 4.58 0 0 0 .621-1.733c.194-1.334-.25-2.667-1.246-3.754-.776-.845-1.874-1.31-3.088-1.31-.141 0-.285.007-.432.021a30.335 30.335 0 0 0 1.384-9.09c0-16.774-13.597-30.372-30.37-30.372C23.02 7.902 9.421 21.5 9.421 38.273a30.353 30.353 0 0 0 1.377 9.069h-.033c-1.214 0-2.311.465-3.087 1.31-.997 1.086-1.44 2.42-1.247 3.755.088.614.3 1.203.621 1.733a4.161 4.161 0 0 0-1.4 2.202 4.603 4.603 0 0 0 .621 3.717 4.16 4.16 0 0 0-.178.309c-.6 1.14-.64 2.427-.11 3.626.804 1.818 2.8 3.25 6.677 4.787 2.41.956 4.618 1.567 4.637 1.572 3.189.827 6.072 1.247 8.569 1.247 4.099 0 7.157-1.121 9.11-3.336 3.305.524 6.673.505 9.972-.057 1.95 2.253 5.026 3.393 9.16 3.393 2.496 0 5.38-.42 8.568-1.247a51.15 51.15 0 0 0 4.637-1.572c3.877-1.538 5.873-2.97 6.677-4.787.53-1.199.49-2.486-.11-3.626a3.617 3.617 0 0 0-.178-.31ZM33.58 64.796c-.169.294-.349.58-.54.86a5.481 5.481 0 0 1-1.94 1.724c-1.474.804-3.339 1.084-5.233 1.084-2.994 0-6.062-.7-7.782-1.146-.084-.022-10.542-2.976-9.218-5.49.223-.423.59-.592 1.052-.592 1.864 0 5.258 2.776 6.717 2.776.326 0 .556-.139.65-.477.621-2.23-9.45-3.167-8.602-6.396.15-.571.556-.803 1.127-.803 2.464 0 7.996 4.334 9.153 4.334.088 0 .152-.026.187-.081l.014-.025c.543-.897.232-1.548-3.488-3.827l-.357-.217c-4.094-2.478-6.967-3.969-5.333-5.748.188-.205.455-.296.778-.296.384 0 .849.128 1.36.344 2.163.912 5.159 3.398 6.41 4.483.198.17.393.344.587.517 0 0 1.585 1.648 2.543 1.648.221 0 .408-.087.535-.301.68-1.146-6.312-6.444-6.706-8.63-.267-1.481.188-2.231 1.029-2.231.4 0 .888.17 1.427.512 1.67 1.06 4.897 6.605 6.078 8.762.396.722 1.072 1.028 1.681 1.028 1.21 0 2.154-1.202.111-2.728-3.07-2.297-1.993-6.052-.527-6.283.062-.01.125-.015.188-.015 1.333 0 1.92 2.296 1.92 2.296s1.723 4.326 4.683 7.283c2.685 2.684 3.06 4.887 1.495 7.635Zm9.57.506-.154.019-.262.03c-.137.014-.275.028-.414.04l-.135.012-.123.01-.175.015-.192.014-.193.013-.043.002c-.05.003-.1.007-.151.009l-.065.004-.18.008-.208.01-.19.006-.126.003h-.065c-.04 0-.078.002-.118.003h-.062c-.04 0-.079 0-.119.002l-.16.002h-.225c-.177 0-.353-.002-.528-.006l-.142-.003c-.041 0-.082-.002-.122-.003l-.15-.004-.188-.008-.169-.007-.043-.002-.16-.008-.134-.008-.104-.006c-.13-.008-.261-.017-.392-.028l-.136-.01-.172-.015-.202-.02c-.112-.01-.225-.021-.337-.033h-.006c1.643-3.664.812-7.086-2.507-10.402-2.176-2.174-3.624-5.384-3.925-6.089-.608-2.086-2.217-4.405-4.89-4.405a4.32 4.32 0 0 0-.675.053c-1.17.185-2.194.859-2.924 1.873-.79-.982-1.557-1.762-2.25-2.202-1.046-.663-2.09-1-3.106-1-1.27 0-2.403.521-3.194 1.466l-.02.024-.044-.186-.002-.009a26.521 26.521 0 0 1-.379-1.945c0-.004 0-.008-.002-.013l-.023-.148a23.117 23.117 0 0 1-.062-.438l-.026-.2-.024-.199-.022-.19-.002-.016a28.838 28.838 0 0 1-.076-.777l-.008-.1-.012-.169-.01-.14-.002-.032c-.01-.13-.017-.26-.023-.391-.004-.068-.008-.136-.01-.204l-.008-.178-.001-.054-.006-.164-.004-.14c0-.056-.003-.112-.003-.167-.001-.056-.003-.117-.003-.176 0-.059 0-.117-.002-.176-.002-.059 0-.117 0-.176 0-15.04 12.194-27.235 27.236-27.235s27.236 12.194 27.236 27.235v.352c0 .059-.002.118-.003.176 0 .048-.002.096-.004.145 0 .043-.001.087-.003.129 0 .055-.003.11-.005.165v.004l-.007.19-.008.168-.002.04-.01.178c-.02.382-.05.763-.086 1.144v.005c-.006.062-.012.125-.02.188l-.015.147-.032.29-.019.145-.022.172-.026.188-.03.21-.025.165-.03.187c-.01.062-.02.123-.032.185s-.021.124-.032.186a21.323 21.323 0 0 1-.18.923l-.039.182-.04.183c-.767-.745-1.782-1.151-2.902-1.151-1.015 0-2.06.336-3.106.999-.693.44-1.46 1.221-2.25 2.202-.73-1.014-1.754-1.688-2.924-1.872a4.331 4.331 0 0 0-.675-.053c-2.674 0-4.282 2.319-4.89 4.405-.302.705-1.75 3.915-3.929 6.092-3.317 3.305-4.153 6.712-2.537 10.36Zm28.117-7.334-.01.032a1.79 1.79 0 0 1-.182.358c-.06.09-.127.175-.198.255-.017.019-.032.038-.051.056a2.765 2.765 0 0 1-.08.081c-.483.48-1.22.9-2.054 1.286l-.287.128-.097.043a7.815 7.815 0 0 1-.196.084 9.524 9.524 0 0 1-.198.084l-.2.082c-.47.193-.95.377-1.418.559l-.201.078-.198.078c-.132.05-.262.102-.39.154l-.19.077-.188.076-.092.039-.182.076c-1.379.592-2.371 1.194-2.162 1.941a.693.693 0 0 0 .16.3c.245.255.69.214 1.253.012l.236-.09.048-.021c.13-.055.265-.116.404-.182l.106-.05c.688-.337 1.467-.79 2.24-1.202.31-.167.624-.325.941-.476.733-.345 1.421-.59 1.975-.59.26 0 .489.054.68.176l.032.022a1.043 1.043 0 0 1 .339.394c.273.52.044 1.057-.491 1.584-.515.507-1.315 1.003-2.224 1.462l-.204.102c-2.706 1.329-6.25 2.33-6.299 2.342a40.61 40.61 0 0 1-3.816.807l-.225.035-.037.005a23.615 23.615 0 0 1-1.038.137l-.032.003c-.64.074-1.282.123-1.926.146h-.009c-.233.009-.465.013-.698.013h-.269a16.62 16.62 0 0 1-1.063-.048c-.008 0-.017 0-.026-.002a14.585 14.585 0 0 1-1.03-.121 22.097 22.097 0 0 1-.26-.044l-.118-.023-.009-.001a9.467 9.467 0 0 1-.372-.08c-.072-.015-.143-.031-.214-.05l-.043-.011-.104-.028-.02-.005-.11-.032-.12-.035-.015-.004-.104-.032-.118-.038-.097-.032-.07-.025a7.925 7.925 0 0 1-.204-.075l-.064-.025-.053-.02a8.443 8.443 0 0 1-.303-.13l-.067-.032-.011-.005-.07-.032a5.901 5.901 0 0 1-.139-.068l-.014-.007-.066-.035a5.702 5.702 0 0 1-.345-.196l-.062-.038a3.051 3.051 0 0 1-.092-.06l-.08-.052-.087-.06-.052-.037a4.049 4.049 0 0 1-.16-.12l-.084-.065a5.603 5.603 0 0 1-.1-.082c-.027-.022-.054-.046-.081-.07l-.002-.002a4.503 4.503 0 0 1-.17-.155l-.003-.003a3.017 3.017 0 0 1-.084-.083l-.083-.085a3.61 3.61 0 0 1-.081-.087l-.077-.086-.008-.01a4.467 4.467 0 0 1-.364-.472l-.044-.066a8.365 8.365 0 0 1-.172-.262 6.505 6.505 0 0 1-.122-.192c-.026-.04-.05-.082-.075-.122l-.01-.017-.068-.117a1.168 1.168 0 0 1-.037-.064l-.038-.068-.02-.035-.013-.023a5.65 5.65 0 0 1-.07-.131l-.033-.057-.032-.063-.033-.061a9.926 9.926 0 0 1-.229-.492l-.025-.06-.049-.121-.023-.058a6.002 6.002 0 0 1-.29-1.007 4.16 4.16 0 0 1-.045-.29l-.007-.057-.007-.058a4.084 4.084 0 0 1-.017-.23l-.003-.057a3.103 3.103 0 0 1-.002-.114c-.02-1.536.756-3.012 2.418-4.673 2.96-2.956 4.682-7.283 4.682-7.283s.046-.181.143-.443l.043-.112c.056-.147.12-.29.19-.43l.013-.028c.06-.119.125-.235.196-.348a3.773 3.773 0 0 1 .218-.306c.031-.04.066-.08.101-.119l.043-.044c.171-.177.367-.322.589-.399l.028-.009a1.532 1.532 0 0 1 .123-.033l.01-.002c.047-.01.094-.015.142-.019h.004l.075-.002a1.392 1.392 0 0 1 .19.015c.267.042.52.2.739.446.083.093.158.194.223.3.043.07.084.142.122.22l.045.092a3.62 3.62 0 0 1 .258.856 4.12 4.12 0 0 1 .054.847 4.29 4.29 0 0 1-.283 1.363l-.048.12a3.793 3.793 0 0 1-.201.417l-.067.12c-.058.098-.12.195-.187.293l-.041.058c-.159.221-.336.429-.529.62-.19.192-.395.368-.61.53-.217.16-.42.337-.608.53-.54.567-.666 1.067-.544 1.446a.947.947 0 0 0 .204.345l.02.02.019.019c.019.019.04.037.061.055l.022.017c.052.04.107.076.165.108l.051.027c.063.03.127.056.193.078l.056.017.023.006.032.008.028.007.03.007.03.006.028.005.064.01.02.002.038.004.023.003.038.002h.022l.04.002h.124l.036-.002.04-.002.05-.005.047-.005c.011 0 .022-.003.033-.005a1.81 1.81 0 0 0 .419-.114l.057-.024a1.741 1.741 0 0 0 .277-.151 1.83 1.83 0 0 0 .233-.181l.05-.048c.01-.008.017-.015.025-.024l.048-.05c.115-.126.214-.266.296-.415a82.238 82.238 0 0 1 2.21-3.779l.106-.17.107-.168.16-.255.055-.084c.179-.28.36-.559.545-.835l.11-.164c.22-.326.44-.643.657-.944l.108-.15c.236-.325.482-.644.738-.955l.101-.122.051-.06c.033-.04.067-.078.1-.115.016-.02.032-.038.05-.056l.096-.109.048-.053.142-.15.093-.094a3.78 3.78 0 0 1 .6-.498l.05-.033c.049-.032.099-.062.15-.09.85-.482 1.553-.517 1.958-.112.245.245.38.651.373 1.217 0 .025 0 .05-.002.076v.027c0 .026-.002.052-.004.078 0 .033-.004.065-.007.097l-.008.085a1.384 1.384 0 0 1-.012.1c0 .008 0 .016-.003.024a1.915 1.915 0 0 1-.015.102c-.004.032-.01.063-.015.094l-.01.054a1.46 1.46 0 0 1-.035.15 2.228 2.228 0 0 1-.102.273 3.948 3.948 0 0 1-.3.544c-.041.064-.084.13-.129.195-.113.162-.231.322-.354.477l-.056.07c-.2.25-.406.494-.619.732l-.067.076-.277.304-.07.077-.144.155-.146.156-.148.155-.15.157-.15.156-.306.315c-1.457 1.495-2.993 2.985-3.512 3.913-.035.06-.067.123-.095.187-.074.169-.104.313-.083.43.007.038.02.075.04.109a.676.676 0 0 0 .166.19.605.605 0 0 0 .368.112h.04l.043-.003.042-.005.035-.005c.004 0 .01-.001.014-.003l.032-.006.008-.001.036-.008.012-.003.038-.01c.012-.004.03-.008.045-.014a1.808 1.808 0 0 0 .28-.11.836.836 0 0 0 .047-.022l.048-.023c.115-.06.227-.125.337-.195l.047-.032a.673.673 0 0 0 .048-.032l.048-.032.026-.018.069-.048c.064-.045.124-.09.185-.137l.005-.004.097-.075c.131-.104.257-.209.37-.308l.076-.066.006-.006.04-.035c.093-.083.175-.161.244-.225l.028-.028.068-.064.04-.04.015-.014.004-.003.042-.043.026-.027.004-.003.012-.011.016-.015.005-.004.014-.012.073-.065.04-.036.065-.059.049-.043.027-.023.051-.045.075-.067.04-.035c.157-.135.347-.3.566-.485l.09-.075.147-.124.151-.127c.198-.164.41-.338.635-.519l.148-.118a75.772 75.772 0 0 1 .547-.43 36.264 36.264 0 0 1 1.352-1.002l.138-.095c.096-.067.193-.134.29-.199l.086-.059c.172-.117.347-.23.523-.342l.088-.055.086-.053c.087-.054.173-.107.26-.159l.085-.05.172-.1.169-.098.034-.018.133-.074.166-.087.083-.043.08-.04.083-.04a7.775 7.775 0 0 1 .702-.304l.147-.052c.045-.015.088-.029.13-.041l.013-.005.067-.019.006-.002c.046-.013.092-.025.137-.035h.003c.127-.03.257-.053.387-.066a1.7 1.7 0 0 1 .18-.01h.03c.041 0 .08.003.118.007.018 0 .036.004.053.006h.007a.518.518 0 0 1 .052.009l.05.01h.006a.936.936 0 0 1 .417.216l.01.01a.31.31 0 0 1 .018.017l.018.02c.144.15.263.324.353.513l.014.032a1.19 1.19 0 0 1 .015.917c-.033.09-.074.176-.122.258a2.922 2.922 0 0 1-.395.522l-.032.034c-.047.05-.097.1-.15.15-.022.023-.046.046-.07.068l-.074.068-.038.034a7.229 7.229 0 0 1-.462.38 15.455 15.455 0 0 1-1.043.733c-.33.217-.664.428-1.001.634-.707.435-1.491.9-2.327 1.405l-.216.132c-.237.144-.46.282-.67.414l-.107.066-.2.129c-.133.085-.266.17-.399.257l-.106.07-.156.103-.05.032-.156.105-.082.056-.097.067-.089.062c-.15.106-.29.207-.418.303l-.048.037a7.01 7.01 0 0 0-.527.432l-.044.04-.075.07c-.017.016-.032.033-.05.048l-.022.023a4.167 4.167 0 0 0-.15.159l-.025.027c-.052.061-.098.12-.139.177l-.017.026a1.538 1.538 0 0 0-.107.178l-.017.037-.012.027-.008.018-.006.016-.008.022a.916.916 0 0 0-.047.188l-.002.022-.003.02v.114c0 .01 0 .019.003.029l.002.017c0 .01.002.018.003.028l.007.04v.002a.711.711 0 0 0 .008.037l.01.04.025.076.017.044c0 .003.003.006.004.01l.013.029.018.04c.02.04.04.081.064.12l.023.041.025.041.014.02.008.008.01.008.009.007a.175.175 0 0 0 .069.03c.207.047.634-.125 1.2-.424l.101-.054.173-.094.084-.046c.06-.032.121-.069.184-.104l.114-.065c.748-.43 1.642-.984 2.567-1.524l.26-.152.175-.111a28.835 28.835 0 0 1 1.39-.757l.17-.087.338-.164c.215-.102.432-.2.652-.29l.12-.05.015-.006c.638-.252 1.216-.408 1.684-.408a1.68 1.68 0 0 1 .302.025h.003c.032.005.061.012.091.019h.005a.942.942 0 0 1 .484.284 1.046 1.046 0 0 1 .21.372c.012.034.022.067.033.103.075.272.068.56-.022.828Z"/>
  <path fill="#FFD21E" fill-rule="evenodd" d="M67.029 38.45v-.177c0-15.041-12.19-27.235-27.232-27.235S12.561 23.232 12.561 38.273v.176c.002.059.002.117.002.176l.002.13v.046l.002.064a3.2 3.2 0 0 1 .002.103l.004.14.006.164.001.054.008.17v.008l.01.199v.005l.011.203.012.188v.011l.011.161.002.014.011.156.002.01.007.09c.021.258.046.517.075.776l.002.016.022.19.024.2.018.135.008.064c.02.146.04.293.062.438l.002.01.021.138c.103.657.23 1.31.381 1.959l.002.008.011.048.033.138.02-.024c.79-.945 1.925-1.466 3.194-1.466 1.017 0 2.06.337 3.106 1 .694.44 1.46 1.22 2.25 2.202.73-1.014 1.753-1.688 2.924-1.872.223-.036.45-.053.675-.054 2.672 0 4.282 2.32 4.89 4.405.3.705 1.749 3.915 3.932 6.087 3.32 3.316 4.15 6.737 2.507 10.4h.006a16.46 16.46 0 0 0 .539.054l.024.002.148.013.137.01c.13.01.26.02.391.028l.104.006.082.005.051.003.16.009.045.001.168.008.188.007.15.004.026.001.096.003h.034c.212.006.424.008.636.008h.225l.16-.002c.04-.002.079-.002.119-.002h.062l.055-.001.064-.002h.064l.126-.003.19-.006.209-.01.18-.008.064-.004.095-.005.056-.003.043-.003.193-.013.192-.014.175-.014.123-.01.135-.012c.226-.02.451-.044.676-.071l.154-.018c-1.617-3.649-.78-7.056 2.525-10.358 2.179-2.177 3.627-5.387 3.928-6.092.609-2.086 2.218-4.405 4.89-4.405.227 0 .453.018.676.053 1.17.184 2.193.858 2.924 1.872.79-.98 1.556-1.762 2.25-2.202 1.046-.663 2.09-1 3.106-1 1.12 0 2.135.407 2.901 1.152l.041-.183.04-.182a33.505 33.505 0 0 0 .18-.923l.01-.067.02-.119c.013-.062.023-.123.033-.186l.004-.024.026-.162.025-.165v-.002l.052-.365.004-.03.022-.172.019-.147.032-.289.012-.116.004-.032.019-.187v-.005l.014-.15c.025-.283.047-.568.064-.853l.009-.141v-.002l.009-.177.002-.04c.006-.118.01-.238.015-.357v-.004l.002-.047.003-.118v-.016c.002-.037.003-.075.003-.113l.002-.032.002-.113v-.032l.003-.144v-.176ZM33.042 65.655c2.157-3.163 2.004-5.537-.955-8.494-2.96-2.958-4.683-7.284-4.683-7.284s-.643-2.512-2.109-2.282c-1.466.231-2.542 3.986.528 6.284 3.07 2.298-.61 3.856-1.792 1.7-1.182-2.157-4.408-7.701-6.08-8.762-1.673-1.06-2.85-.466-2.455 1.72.196 1.085 2.017 2.937 3.719 4.667 1.726 1.755 3.33 3.385 2.987 3.962-.68 1.145-3.077-1.346-3.077-1.346s-7.502-6.828-9.135-5.048c-1.506 1.64.816 3.033 4.394 5.182.304.183.618.371.938.565 4.094 2.478 4.413 3.132 3.831 4.07-.214.346-1.584-.477-3.27-1.488-2.873-1.725-6.662-4-7.197-1.964-.463 1.762 2.325 2.842 4.853 3.82 2.106.817 4.032 1.563 3.748 2.575-.293 1.05-1.885.175-3.625-.783-1.953-1.075-4.093-2.252-4.794-.923-1.323 2.512 9.132 5.469 9.219 5.49 3.378.877 11.957 2.734 14.955-1.66Zm13.895 0c-2.157-3.163-2.004-5.537.956-8.494 2.96-2.958 4.682-7.284 4.682-7.284s.642-2.512 2.109-2.282c1.466.231 2.542 3.986-.528 6.284-3.07 2.298.61 3.856 1.792 1.7 1.182-2.157 4.406-7.701 6.078-8.762 1.673-1.06 2.85-.466 2.455 1.72-.195 1.085-2.017 2.937-3.718 4.667-1.727 1.755-3.33 3.385-2.988 3.962.68 1.145 3.078-1.348 3.078-1.348s7.502-6.827 9.136-5.047c1.506 1.639-.816 3.033-4.395 5.182l-.938.565c-4.093 2.478-4.412 3.132-3.83 4.07.214.346 1.584-.477 3.27-1.489 2.873-1.725 6.661-4 7.197-1.963.463 1.762-2.325 2.841-4.853 3.82-2.106.816-4.032 1.563-3.749 2.575.294 1.05 1.885.174 3.624-.783 1.954-1.075 4.094-2.253 4.794-.923 1.324 2.513-9.133 5.467-9.218 5.489-3.378.88-11.957 2.736-14.954-1.659Z" clip-rule="evenodd"/>
  <path fill="#32343D" fill-rule="evenodd" d="M48.642 30.86c.425.15.74.607 1.041 1.043.406.587.784 1.135 1.364.827a3.918 3.918 0 1 0-5.3-1.621c.269.506.865.267 1.495.015.494-.197 1.008-.403 1.4-.264Zm-18.463 0c-.425.15-.74.608-1.041 1.043-.406.588-.785 1.135-1.364.827a3.918 3.918 0 0 1 2.97-7.212 3.921 3.921 0 0 1 2.33 5.591c-.269.506-.866.267-1.495.015-.494-.197-1.008-.403-1.4-.264Zm15.607 16.801c2.926-2.305 4-6.07 4-8.388 0-1.833-1.232-1.256-3.206-.279l-.112.055c-1.812.898-4.224 2.093-6.872 2.093-2.648 0-5.06-1.195-6.871-2.093-2.039-1.01-3.317-1.643-3.317.224 0 2.392 1.144 6.32 4.282 8.602a6.815 6.815 0 0 1 4.16-3.517c.314-.094.636.446.967.998.318.533.644 1.078.976 1.078.353 0 .7-.537 1.039-1.061.354-.548.699-1.082 1.033-.975a6.816 6.816 0 0 1 3.92 3.263Z" clip-rule="evenodd"/>
  <path fill="#FF323D" d="M45.785 47.66c-1.524 1.202-3.55 2.007-6.188 2.007-2.479 0-4.417-.71-5.907-1.793a6.815 6.815 0 0 1 4.16-3.517c.615-.183 1.268 2.076 1.943 2.076.722 0 1.418-2.245 2.072-2.036a6.819 6.819 0 0 1 3.92 3.264Z"/>
  <path fill="#FFAD03" fill-rule="evenodd" d="M23.181 34.12a2.544 2.544 0 0 1-3.217-.316 2.539 2.539 0 0 1-.733-2.051 2.547 2.547 0 1 1 3.95 2.368Zm36.446 0a2.545 2.545 0 0 1-3.77-1.143 2.552 2.552 0 0 1 .237-2.39 2.547 2.547 0 1 1 3.533 3.534Z" clip-rule="evenodd"/>
</svg>
