<svg xmlns="http://www.w3.org/2000/svg" viewBox="0 0 80 80">
  <rect width="100%" height="100%"/>
  <path fill="#fff" d="M51.954 71.845 68 67.82s-6.908-47.157-6.952-47.48a.618.618 0 0 0-.556-.523c-.23-.02-4.748-.089-4.748-.089s-2.754-2.7-3.789-3.722v55.84ZM50.208 15.467l-1.898.593c-.198-.65-.49-1.45-.908-2.254-1.345-2.591-3.315-3.962-5.695-3.965h-.01c-.164 0-.328.016-.494.03a7.41 7.41 0 0 0-.214-.25c-1.037-1.12-2.367-1.666-3.96-1.618-3.074.089-6.135 2.33-8.618 6.312-1.746 2.801-3.075 6.32-3.452 9.045l-6.052 1.893c-1.782.566-1.838.62-2.07 2.317C16.661 28.85 12 65.247 12 65.247L50.677 72V15.387c-.19.012-.361.048-.469.08Zm-8.93 2.792-6.523 2.039c.63-2.437 1.825-4.863 3.293-6.454.546-.592 1.31-1.252 2.215-1.628.85 1.791 1.035 4.328 1.014 6.043Zm-4.189-8.19c.722-.017 1.33.143 1.849.488-.831.436-1.634 1.061-2.388 1.877-1.952 2.115-3.449 5.399-4.045 8.566-1.861.581-3.682 1.152-5.358 1.674 1.059-4.985 5.197-12.467 9.942-12.606ZM31.11 38.47c.207 3.322 8.864 4.047 9.35 11.83.381 6.121-3.217 10.309-8.402 10.64-6.223.396-9.649-3.312-9.649-3.312l1.319-5.665s3.449 2.627 6.209 2.451c1.803-.115 2.447-1.596 2.382-2.643-.271-4.334-7.32-4.078-7.766-11.198-.375-5.992 3.523-12.064 12.123-12.611 3.314-.212 5.01.643 5.01.643l-1.966 7.428s-2.194-1.008-4.794-.843c-3.815.244-3.855 2.672-3.816 3.28Zm12.212-20.85c-.023-1.571-.208-3.758-.933-5.647 2.333.446 3.48 3.11 3.967 4.7-.9.279-1.925.599-3.034.947Z"/>
</svg>
