<svg xmlns="http://www.w3.org/2000/svg" viewBox="0 0 80 80">
  <rect width="100%" height="100%" fill="#fff"/>
  <path fill="#1EBBEE" d="M70.9988 40.7054C70.9988 35.5535 69.6498 30.7135 67.2843 26.5077C77.3671 3.97485 56.4805 7.27524 55.3176 7.49992C50.8925 8.35492 46.7986 9.7276 43.0224 11.4677C42.4655 11.4367 41.9053 11.4197 41.3407 11.4197C27.2477 11.4197 15.451 21.1259 12.4317 34.1377C19.8597 25.9092 25.0581 22.5891 28.1711 21.2604C27.6742 21.6989 27.1877 22.1422 26.7093 22.5888C26.55 22.7373 26.3966 22.8879 26.2394 23.0372C25.924 23.3369 25.6091 23.6369 25.3016 23.9396C25.1187 24.1197 24.9406 24.3012 24.7604 24.4825C24.4877 24.7567 24.2156 25.0305 23.9493 25.3062C23.7602 25.5021 23.5757 25.6985 23.39 25.8947C23.1412 26.1576 22.894 26.4208 22.6514 26.685C22.4629 26.8902 22.2775 27.0955 22.0924 27.3013C21.8624 27.557 21.6345 27.8126 21.4097 28.0689C21.2234 28.2814 21.0386 28.494 20.856 28.7068C20.6429 28.9552 20.4326 29.2035 20.2244 29.4519C20.0402 29.6717 19.8566 29.8912 19.6764 30.1108C19.4815 30.3482 19.2908 30.5853 19.1005 30.8222C18.916 31.0517 18.7315 31.2809 18.5513 31.5102C18.3798 31.7285 18.2131 31.9459 18.0452 32.1636C17.8558 32.4095 17.6649 32.6554 17.4804 32.9002C17.3485 33.0753 17.2218 33.2487 17.0923 33.4233C15.9205 35.0021 14.8498 36.5506 13.8828 38.0381C13.8803 38.0417 13.8779 38.0454 13.8757 38.049C13.6211 38.4407 13.3754 38.8266 13.1347 39.2092C13.1217 39.2298 13.1082 39.2507 13.0953 39.2717C12.8542 39.6558 12.6215 40.0332 12.3945 40.4066C12.3865 40.4197 12.3782 40.4331 12.3702 40.4461C11.7602 41.4514 11.1944 42.4206 10.6849 43.3324C8.01377 48.1123 6.7134 51.4519 6.65713 51.6501C-1.77785 81.4271 24.548 68.8525 28.2215 66.9755C32.177 68.9051 36.63 69.9911 41.3407 69.9911C54.2367 69.9911 65.2088 61.8628 69.2928 50.5118H53.7094C51.4036 54.3585 46.9644 56.9638 41.8644 56.9638C34.3921 56.9638 28.335 51.3735 28.335 44.4773H70.7559C70.9167 43.2422 71 41.9834 71 40.7054H70.9988ZM65.4585 11.8867C68.0125 13.5888 70.0609 16.2619 66.543 25.264C63.1689 19.906 58.0926 15.7029 52.0591 13.3926C54.8037 12.0837 61.6007 9.31528 65.4585 11.8867ZM11.1809 66.9154C9.10074 64.8089 8.73298 59.6782 13.3231 50.3291C15.6398 56.9058 20.2625 62.4166 26.2376 65.9141C23.266 67.529 15.3772 71.1652 11.1809 66.9154ZM28.2682 36.468C28.5053 29.7655 34.4127 24.399 41.671 24.399C48.9289 24.399 54.8366 29.7655 55.0737 36.468H28.2682Z"/>
</svg>
