<svg viewBox="0 0 80 80" xmlns="http://www.w3.org/2000/svg">
<rect width="100%" height="100%" fill="#176BFF"/>
<path d="M40 17.2C27.4086 17.2 17.2 27.4086 17.2 40C17.2 52.5914 27.4086 62.8 40 62.8C52.5914 62.8 62.8 52.5914 62.8 40C62.8 38.9808 62.7335 37.9785 62.6047 36.9966C62.4508 35.8247 62.2081 34.6819 61.8832 33.5744C61.8817 33.5691 61.8801 33.5638 61.8786 33.5586C61.9576 33.5545 62.0364 33.5493 62.1152 33.543C63.2962 33.4489 64.4457 33.1106 65.4906 32.5486C65.5603 32.5111 65.6294 32.4727 65.6979 32.4334C66.7253 31.8435 67.6199 31.0462 68.3243 30.0914C68.3281 30.1024 68.3319 30.1134 68.3358 30.1243C69.4149 33.22 70 36.5451 70 40C70 56.5686 56.5686 70 40 70C23.4314 70 10 56.5686 10 40C10 23.4315 23.4314 10 40 10C46.4417 9.99117 52.7004 12.0633 57.8527 15.887C58.444 15.7147 59.0616 15.625 59.6886 15.625C60.5504 15.625 61.4037 15.7947 62.1999 16.1245C62.9961 16.4543 63.7196 16.9377 64.329 17.5471C64.9383 18.1565 65.4217 18.8799 65.7515 19.6761C66.0813 20.4723 66.2511 21.3257 66.2511 22.1875C66.2511 23.0493 66.0813 23.9027 65.7515 24.6989C65.4217 25.4951 64.9383 26.2185 64.329 26.8279C63.7196 27.4373 62.9961 27.9207 62.1999 28.2505C61.4037 28.5802 60.5504 28.75 59.6886 28.75C57.9481 28.75 56.2789 28.0586 55.0482 26.8279C53.8175 25.5972 53.1261 23.928 53.1261 22.1875C53.1261 21.9191 53.1425 21.6524 53.1748 21.3887C49.4539 18.7474 44.9098 17.2 40 17.2Z" fill="white"/>
<path d="M49.2764 49.2764C46.8158 51.7369 43.4797 53.121 40 53.125C36.5208 53.1193 33.1857 51.7347 30.7255 49.2745C28.2653 46.8143 26.8807 43.4792 26.875 40C26.879 36.5202 28.2631 33.1842 30.7236 30.7236C33.1842 28.263 36.5203 26.879 40 26.875C43.4797 26.879 46.8158 28.263 49.2764 30.7236C51.7369 33.1842 53.121 36.5202 53.125 40C53.121 43.4797 51.7369 46.8158 49.2764 49.2764Z" fill="white"/>
</svg>
