<svg xmlns="http://www.w3.org/2000/svg" viewBox="0 0 80 80"><path d="M72.51 58.43a41.74 41.74 0 01-3.29 7.8 50.59 50.59 0 01-6.58 9.45 11.83 11.83 0 01-6.14 3.95 11.34 11.34 0 01-6.73-.63 44.87 44.87 0 00-4.92-1.83 14.72 14.72 0 00-9.47.87 38.73 38.73 0 01-5 1.73 8.43 8.43 0 01-7.34-1.61 24.51 24.51 0 01-4.58-4.69A50.27 50.27 0 018.12 50.16c-1-5.8-1-11.57 1.14-17.16 2.58-6.8 7.28-11.35 14.46-13.13a16.42 16.42 0 0110.3.94c1.44.58 2.9 1.11 4.36 1.66a5.8 5.8 0 004.2 0c2.15-.8 4.28-1.63 6.45-2.37 7.06-2.39 16.33 0 21 6.72l.43.63c-5.75 3.85-9 9.06-8.57 16.15s4.35 11.81 10.62 14.83z"/><path d="M55.92 0c1.36 9.07-6.83 19.75-16.32 18.86a16.23 16.23 0 014.19-12.58A17.49 17.49 0 0155.92 0z"/></svg>