<svg xmlns="http://www.w3.org/2000/svg" viewBox="0 0 80 80">
  <rect width="100%" height="100%" fill="#1A8CCB"/>
  <path fill="#fff" d="M55.17 40c0 9.22-7.026 16.696-15.693 16.696S23.785 49.22 23.785 40c0-9.22 7.025-16.696 15.692-16.696S55.169 30.78 55.169 40Z"/>
  <path fill="#fff" fill-rule="evenodd" d="M49.603 64C63.077 64 74 53.255 74 40V16H30.397C16.923 16 6 26.745 6 40v24h43.603Zm2.723-43.915h17.521V40c0 9.985-7.47 18.253-17.211 19.693 5.958-4.338 9.856-11.54 9.856-19.693 0-8.293-4.033-15.604-10.166-19.915Zm-26.35.477C20.21 24.923 16.461 32.005 16.461 40c0 8.293 4.033 15.604 10.166 19.915H10.153V40c0-9.505 6.768-17.454 15.822-19.438Zm13.5-.477c-10.143 0-18.83 8.658-18.83 19.915s8.687 19.915 18.83 19.915c10.145 0 18.832-8.658 18.832-19.915S49.62 20.085 39.477 20.085Z" clip-rule="evenodd"/>
</svg>