<svg viewBox="0 0 80 80" xmlns="http://www.w3.org/2000/svg">
<rect width="100%" height="100%" fill="#F80102"/>
<path d="M39.9748 44.1217C41.1322 44.491 42.3538 44.6157 43.562 44.488C45.4571 44.4662 47.2733 43.7262 48.644 42.4172C51.581 39.7607 52.01 35.908 49.106 32.8225C47.6043 31.2936 45.6002 30.3595 43.4637 30.1927C41.3272 30.0259 39.2024 30.6376 37.4817 31.915C33.8517 34.588 33.5382 39.4142 36.8382 42.343C37.7492 43.1468 38.8173 43.7525 39.9748 44.1217Z" fill="white"/>
<path fill-rule="evenodd" clip-rule="evenodd" d="M59.5922 40.4372C59.3777 39.9257 59.1715 39.3895 58.9405 38.7872C59.2726 38.6753 59.5953 38.5374 59.9057 38.3747C60.2254 38.1993 60.5061 37.9607 60.7307 37.6735C60.9176 37.4154 61.1553 37.1981 61.429 37.035C61.7028 36.8718 62.007 36.7663 62.323 36.7247C62.8151 36.6228 63.2939 36.4651 63.7502 36.2545C64.308 36.0442 64.7712 35.6397 65.0546 35.1153C65.3381 34.5909 65.4227 33.9818 65.293 33.4C65.0702 31.453 64.897 29.539 64.7402 27.625C64.7369 27.4981 64.7609 27.372 64.8108 27.2552C64.8606 27.1385 64.935 27.0339 65.029 26.9485C65.9404 26.1965 66.6375 25.2177 67.0502 24.1105C67.8903 22.3801 69.167 20.8986 70.7545 19.8122C71.1333 19.557 71.4631 19.2356 71.728 18.8635C71.9322 18.6098 72.0436 18.294 72.0436 17.9684C72.0436 17.6427 71.9322 17.3269 71.728 17.0732C71.266 16.4792 70.6802 16.7845 70.2347 17.0237C69.5724 17.4173 68.9359 17.8527 68.329 18.3272C67.6277 18.814 67.1987 18.7067 67.0502 17.8817C66.9309 17.079 66.8812 16.2675 66.9017 15.4562C66.9593 14.6822 66.9758 13.9056 66.9512 13.1297C66.9469 12.8632 66.8702 12.6028 66.7292 12.3766C66.5882 12.1504 66.3882 11.9668 66.1508 11.8455C65.9134 11.7243 65.6475 11.6699 65.3815 11.6883C65.1156 11.7067 64.8597 11.7972 64.6412 11.95C64.34 12.1549 64.1099 12.4484 63.9828 12.7898C63.8557 13.1312 63.8378 13.5037 63.9317 13.8557C64.0321 14.7651 64.0707 15.6802 64.0472 16.5947C64.0307 17.2135 63.6017 17.3702 63.1315 16.9825C62.9123 16.8141 62.7321 16.6002 62.6035 16.3555C62.224 15.58 61.861 14.8292 61.5227 14.0042C61.1102 13.0307 60.5987 12.6595 59.7655 12.907C58.9322 13.1545 58.594 13.7072 58.858 14.755C59.1061 15.6003 59.4263 16.4228 59.815 17.2135C59.9559 17.5282 60.1125 17.8338 60.2693 18.1396C60.5069 18.6034 60.7448 19.0676 60.9287 19.5647C60.9794 19.7304 60.9901 19.9058 60.96 20.0764C60.9299 20.2471 60.8598 20.4081 60.7555 20.5465C60.5987 20.7032 60.0955 20.629 59.7737 20.5465C59.4873 20.4075 59.2116 20.2476 58.9487 20.068C58.5255 19.8347 58.0501 19.7124 57.5668 19.7124C57.0836 19.7124 56.6082 19.8347 56.185 20.068C55.7891 20.3465 55.4867 20.7382 55.3174 21.1917C55.1481 21.6451 55.1198 22.1392 55.2362 22.609C55.4177 23.2112 56.0777 23.434 57.2327 23.434C58.2771 23.4867 59.3165 23.6135 60.343 23.8135C60.5617 23.826 60.7754 23.8839 60.9705 23.9837C61.1656 24.0834 61.3377 24.2228 61.4759 24.3928C61.6141 24.5628 61.7153 24.7598 61.7731 24.9711C61.8309 25.1825 61.8439 25.4036 61.8115 25.6202C61.7604 25.9219 61.8245 26.2318 61.9911 26.4884C62.1576 26.7451 62.4144 26.9299 62.7107 27.0062C63.4945 27.1712 63.5852 27.6992 63.6512 28.3097C63.696 28.7575 63.7427 29.2053 63.7893 29.6527C63.8802 30.5243 63.9709 31.3947 64.0472 32.2615C64.0967 32.8142 64.0967 33.367 64.0967 33.9115C64.1081 34.17 64.0177 34.4228 63.845 34.6155C63.6723 34.8083 63.431 34.9257 63.1727 34.9427C62.9892 34.9741 62.7979 35.0543 62.6053 35.135C62.1397 35.3301 61.6662 35.5285 61.2752 35.05C60.9334 34.612 60.4783 34.2759 59.9591 34.0782C59.4399 33.8804 58.8765 33.8285 58.33 33.928C57.4885 34.0187 57.1667 33.6475 56.845 32.9215C53.545 25.5075 50.245 18.0825 46.945 10.6465C46.815 10.3053 46.6491 9.97899 46.45 9.67299C46.021 9.07899 45.6415 9.07899 45.1135 9.60699C44.9519 9.76862 44.803 9.94238 44.668 10.1267C44.2472 10.6692 43.8254 11.2106 43.4036 11.7521C42.1383 13.3763 40.873 15.0004 39.6355 16.6525C35.8596 21.5843 32.4435 26.7815 29.4137 32.2037C28.729 33.4577 28.102 34.2662 26.5427 34.0435C26.1332 33.9406 25.7009 33.9791 25.316 34.1529C24.9311 34.3266 24.6162 34.6253 24.4225 35.0005C24.0347 36.0895 23.2345 36.238 22.3352 36.3947C21.7915 36.4721 21.2539 36.5878 20.7265 36.7412C18.744 37.3906 17.8733 37.6028 17.3609 38.1503C16.8902 38.6532 16.7217 39.4388 16.2715 41.1055C16.2265 41.3785 16.1989 41.654 16.189 41.9305C16.1312 42.508 16.024 42.9947 15.265 43.0442C15.1135 43.0799 14.9725 43.1508 14.8535 43.2511C14.7346 43.3514 14.6409 43.4784 14.5802 43.6217C14.4129 44.3229 13.907 44.6008 13.3597 44.9015C13.3404 44.9121 13.3209 44.9228 13.3015 44.9335C12.9881 45.1179 12.709 45.3551 12.4765 45.6347C11.5195 46.798 11.0245 46.9382 9.66322 46.336C9.35873 46.2232 9.05766 46.0916 8.75456 45.9591C8.39246 45.8008 8.02745 45.6412 7.65022 45.511C6.54472 45.148 6.05797 45.5027 6.00022 46.6C5.96065 46.8024 5.967 47.011 6.01882 47.2106C6.07063 47.4102 6.16658 47.5956 6.2996 47.7532C6.43262 47.9107 6.5993 48.0364 6.78737 48.121C6.97543 48.2055 7.18008 48.2468 7.38622 48.2417C7.65477 48.2753 7.92736 48.3056 8.20045 48.336C8.79987 48.4027 9.40169 48.4697 9.96847 48.5717C10.3641 48.7154 10.7409 48.9066 11.0905 49.141C10.6669 49.3202 10.3237 49.4692 10.0203 49.601C9.70913 49.7362 9.43973 49.8532 9.16822 49.966C8.22641 50.3512 7.43976 51.0392 6.93247 51.9212C6.84112 52.0264 6.77241 52.1493 6.73062 52.2822C6.68882 52.4151 6.67484 52.5552 6.68955 52.6937C6.70425 52.8323 6.74733 52.9663 6.81609 53.0874C6.88485 53.2086 6.97783 53.3143 7.08922 53.398C7.94722 54.0002 9.56422 54.421 10.4717 53.3155C10.8492 52.8563 11.3078 52.4704 11.8247 52.177C12.0047 52.0467 12.218 51.9702 12.4398 51.9565C12.6616 51.9429 12.8827 51.9926 13.0773 52.0998C13.2719 52.2071 13.432 52.3675 13.5389 52.5623C13.6457 52.757 13.695 52.9782 13.681 53.2C13.6848 53.6567 13.6433 54.1127 13.5572 54.5612C13.388 55.3628 13.2831 56.1767 13.2437 56.995C13.2794 57.2083 13.3634 57.4106 13.4892 57.5864C13.615 57.7623 13.7794 57.9071 13.9697 58.0097C14.1605 58.0509 14.3585 58.0438 14.5458 57.9891C14.7331 57.9343 14.9037 57.8337 15.0422 57.6962C15.4391 57.1636 15.7201 56.5538 15.8672 55.906C15.9715 55.3934 16.0071 54.8649 16.0428 54.336C16.0748 53.8603 16.1069 53.3843 16.189 52.9195C16.2765 52.3239 16.5057 51.7581 16.8572 51.2695C17.4182 50.5352 17.8885 50.6012 18.5732 51.22C19.1236 51.7473 19.7262 52.2172 20.3717 52.6225C20.9162 52.9525 20.875 53.3155 20.7512 53.7775C19.9963 56.557 19.51 59.4025 19.2992 62.275C19.0509 64.3271 19.3824 66.4077 20.2562 68.281C21.4607 70.6322 23.2757 71.5067 25.6352 70.0135C26.3282 69.568 27.013 69.1142 27.6895 68.6522C28.184 68.3117 28.6689 67.957 29.1532 67.6027C30.1475 66.8753 31.1398 66.1494 32.2105 65.5502C37.6802 62.473 43.2325 62.341 48.7105 65.641C49.6201 66.1892 50.4682 66.843 51.3157 67.4963C51.6289 67.7377 51.9419 67.9791 52.258 68.215C53.4244 69.1726 54.755 69.9105 56.185 70.393C57.2967 70.7929 58.5193 70.7525 59.6022 70.2801C60.6851 69.8076 61.5464 68.9389 62.0095 67.852C62.6496 66.4357 63.0591 64.9261 63.2222 63.3805C63.6236 59.5976 63.4735 55.7765 62.7767 52.0367C62.142 48.0656 61.0741 44.1759 59.5922 40.4372ZM60.244 48.9595C61.1094 52.2292 61.5693 55.593 61.6135 58.975C61.6092 59.0922 61.605 59.2093 61.6008 59.3265C61.5166 61.684 61.4326 64.0343 60.4502 66.235C60.1304 67.1442 59.4752 67.8967 58.6187 68.3387C58.0798 68.5535 57.4958 68.6305 56.9196 68.5628C56.3434 68.4951 55.7932 68.2848 55.3187 67.951C54.2537 67.3315 53.2435 66.6222 52.2992 65.8307C49.7914 63.608 46.7353 62.0956 43.447 61.45C39.2518 60.7549 34.9494 61.6873 31.4185 64.057C30.5642 64.602 29.7433 65.2003 28.9218 65.799C28.4501 66.1428 27.9782 66.4867 27.4997 66.8207C26.8696 67.2768 26.208 67.6876 25.5197 68.05C24.2575 68.6687 23.2675 68.446 22.6075 67.225C22.1225 66.3572 21.8062 65.4054 21.6752 64.42C21.4768 62.1851 21.6102 59.9332 22.0712 57.7375C23.5265 50.8093 25.7226 44.0577 28.6217 37.5992C28.6975 37.4209 28.7926 37.2498 28.8887 37.0768C28.9704 36.9297 29.0529 36.7812 29.125 36.6257C29.2135 36.3641 29.3928 36.1429 29.6304 36.0021C29.868 35.8613 30.1483 35.8104 30.4202 35.8585H30.5687C32.0455 35.9905 32.8787 35.4625 33.5057 33.961C34.7267 30.925 37.3337 29.242 40.5017 28.615C44.9732 27.724 49.1395 29.3905 51.3752 32.9627C51.8194 33.6609 52.1533 34.4233 52.3652 35.2232C52.3885 35.4038 52.4475 35.5779 52.5388 35.7354C52.6302 35.8929 52.752 36.0306 52.8972 36.1404C53.0424 36.2503 53.208 36.3301 53.3844 36.3752C53.5608 36.4202 53.7444 36.4297 53.9245 36.403H54.4772C54.9518 36.3723 55.4222 36.5079 55.8076 36.7864C56.193 37.0649 56.4694 37.469 56.5892 37.9292C57.0775 39.4591 57.6012 40.9762 58.1245 42.4923C58.8655 44.639 59.6057 46.7837 60.244 48.9595ZM18.994 38.6717C20.4707 38.218 21.931 37.7807 23.581 37.294C23.7425 37.3839 23.9048 37.4729 24.0673 37.562C24.7097 37.9141 25.3562 38.2685 25.9817 38.6965C26.089 38.6965 25.9735 39.241 25.8745 39.5215C24.8515 42.3595 23.8202 45.181 22.7807 48.0107C22.7458 48.2036 22.6646 48.3851 22.5442 48.5397C22.4238 48.6943 22.2677 48.8174 22.0893 48.8985C21.9108 48.9796 21.7154 49.0162 21.5198 49.0053C21.3241 48.9944 21.134 48.9362 20.9657 48.8357C20.318 48.4979 19.6949 48.1147 19.1012 47.689C18.7654 47.5338 18.5025 47.255 18.3672 46.9107C18.2319 46.5664 18.2348 46.1832 18.3752 45.841C18.4869 45.5573 18.497 45.2438 18.4038 44.9535C18.3106 44.6633 18.1197 44.4142 17.8637 44.2487C17.6572 44.1079 17.5015 43.9042 17.4198 43.668C17.338 43.4317 17.3346 43.1754 17.41 42.937C17.5319 42.3577 17.6132 41.7721 17.6943 41.1879C17.7448 40.8238 17.7953 40.4602 17.8555 40.099C17.8837 39.7754 18.0068 39.4674 18.2093 39.2135C18.4119 38.9597 18.6848 38.7712 18.994 38.6717Z" fill="white"/>
</svg>
