<svg xmlns="http://www.w3.org/2000/svg" viewBox="0 0 80 80">
  <rect width="100%" height="100%" fill="#F80102"/>
  <path fill="#fff" d="M40 44.1c1.1.4 2.4.5 3.6.4 1.9 0 3.7-.8 5-2 3-2.7 3.4-6.6.5-9.7a8.9 8.9 0 0 0-11.6-.9c-3.6 2.7-4 7.5-.7 10.4 1 .8 2 1.5 3.2 1.8Z"/>
  <path fill="#fff" fill-rule="evenodd" d="m59.6 40.4-.7-1.6 1-.4.8-.7a2.3 2.3 0 0 1 1.6-1c.5 0 1-.2 1.5-.4a2.5 2.5 0 0 0 1.5-2.9 179.3 179.3 0 0 1-.5-6.1l.2-.4c1-.7 1.6-1.7 2-2.8a11 11 0 0 1 3.8-4.3l1-1a1.4 1.4 0 0 0 0-1.7c-.5-.6-1.1-.3-1.6 0l-1.9 1.2c-.7.5-1.1.4-1.2-.4a14 14 0 0 1-.2-2.4V13a1.5 1.5 0 0 0-2.3-1.2 1.8 1.8 0 0 0-.7 2c.1.9.2 1.8.1 2.7 0 .6-.4.8-.9.4a38.4 38.4 0 0 1-1.6-3c-.4-1-.9-1.3-1.7-1-.9.2-1.2.7-1 1.8a15.4 15.4 0 0 0 1.5 3.3l.6 1.5a1.1 1.1 0 0 1-.1 1h-1l-.9-.5a2.9 2.9 0 0 0-2.7 0 2.4 2.4 0 0 0-1 2.5c.2.6.9.8 2 .8a22 22 0 0 1 3.8.6 1.6 1.6 0 0 1 .8 1.6 1.2 1.2 0 0 0 1 1.4c.7.2.8.7.9 1.3v1.4c.2.8.3 1.7.3 2.6l.1 1.6a1 1 0 0 1-1 1l-.5.2c-.5.2-1 .4-1.3 0a3 3 0 0 0-3-1.2c-.8.1-1.1-.3-1.5-1A22166.8 22166.8 0 0 1 46.5 9.7c-.5-.6-.9-.6-1.4 0l-.4.4-1.3 1.7-3.8 4.9c-3.7 4.9-7.2 10-10.2 15.5-.7 1.3-1.3 2-2.9 1.8a1.9 1.9 0 0 0-2 1c-.5 1-1.3 1.2-2.2 1.4l-1.6.3c-2 .7-2.8.9-3.3 1.5-.5.5-.7 1.2-1.1 3l-.1.7c0 .6-.2 1-1 1.1a1 1 0 0 0-.6.6c-.2.7-.7 1-1.2 1.3h-.1l-.8.7c-1 1.2-1.5 1.3-2.8.7l-1-.3-1-.5c-1.2-.4-1.6 0-1.7 1.1a1.4 1.4 0 0 0 1.4 1.6l.8.1 1.8.3 1 .5a114.6 114.6 0 0 0-1.8.9c-1 .4-1.8 1-2.3 2a1 1 0 0 0 .2 1.4c.8.6 2.5 1 3.4 0 .3-.5.8-1 1.3-1.2a1.2 1.2 0 0 1 1.9 1l-.1 1.4-.4 2.4a1.4 1.4 0 0 0 .8 1 1.2 1.2 0 0 0 1-.3c.4-.5.7-1.1.9-1.8l.1-1.6.2-1.4c0-.6.3-1.1.7-1.6.5-.8 1-.7 1.7 0 .5.4 1.1 1 1.8 1.3.5.4.5.7.4 1.2a45 45 0 0 0-1.5 8.5c-.2 2 0 4.1 1 6 1.2 2.3 3 3.2 5.3 1.7a88.5 88.5 0 0 0 6.6-4.4c5.5-3.1 11-3.3 16.5 0 1 .6 1.8 1.2 2.6 1.9l1 .7c1.1 1 2.5 1.7 3.9 2.2a4.6 4.6 0 0 0 5.8-2.5c.6-1.5 1-3 1.2-4.5a55 55 0 0 0-3.6-23Zm.6 8.6a41.3 41.3 0 0 1 1.4 10.3c0 2.4-.2 4.7-1.1 7-.4.8-1 1.6-1.9 2a3.5 3.5 0 0 1-3.3-.3l-3-2.2A16.7 16.7 0 0 0 31.4 64L29 65.9a85.7 85.7 0 0 1-3.4 2.3c-1.2.6-2.2.3-2.9-.9-.5-.8-.8-1.8-1-2.8-.1-2.2 0-4.5.5-6.7 1.4-6.9 3.6-13.6 6.5-20.1l.3-.5.2-.5a1.2 1.2 0 0 1 1.3-.7h.2c1.4 0 2.3-.4 3-2 1.1-3 3.7-4.7 6.9-5.3 4.5-.9 8.6.8 10.9 4.4a8 8 0 0 1 1 2.2 1.4 1.4 0 0 0 1.5 1.2h.6a2 2 0 0 1 2 1.5l1.6 4.6c.8 2.1 1.5 4.3 2.1 6.5ZM19 38.7l4.6-1.4a86.9 86.9 0 0 0 2.4 1.4l-.1.8a1483.4 1483.4 0 0 1-3.4 9 1.2 1.2 0 0 1-1.5.3L19 47.7a1.4 1.4 0 0 1-.7-1.9 1.3 1.3 0 0 0-.5-1.6 1.2 1.2 0 0 1-.5-1.3 25.5 25.5 0 0 0 .5-2.8 1.6 1.6 0 0 1 1-1.4Z" clip-rule="evenodd"/>
</svg>