<svg xmlns="http://www.w3.org/2000/svg" viewBox="0 0 80 80"><path d="M64.17 38.53c.28.73.53 1.38.79 2a66.75 66.75 0 0 1 3.86 14.06 47.63 47.63 0 0 1 .54 13.75 17.66 17.66 0 0 1-1.47 5.42 5.61 5.61 0 0 1-7.06 3.08 15.12 15.12 0 0 1-4.76-2.64c-1.42-1.06-2.79-2.21-4.3-3.12-6.64-4-13.37-3.84-20-.11-1.93 1.08-3.65 2.5-5.48 3.76q-1.23.84-2.49 1.65c-2.86 1.81-5.06.75-6.52-2.1A13.41 13.41 0 0 1 16.12 67a54.52 54.52 0 0 1 1.76-10.3c.15-.56.2-1-.46-1.4a13.61 13.61 0 0 1-2.18-1.7c-.83-.75-1.4-.83-2.08.06a4.56 4.56 0 0 0-.81 2c-.21 1.19-.15 2.44-.39 3.62a5.77 5.77 0 0 1-1 2.17 1.42 1.42 0 0 1-1.3.38 1.72 1.72 0 0 1-.88-1.23 18.61 18.61 0 0 1 .38-2.95A8.38 8.38 0 0 0 9.31 56a1.42 1.42 0 0 0-2.25-1.24 5.88 5.88 0 0 0-1.64 1.38c-1.1 1.34-3.06.83-4.1.1a1.23 1.23 0 0 1-.19-1.79 5.55 5.55 0 0 1 2.71-2.37c.65-.27 1.29-.56 2.33-1a6.31 6.31 0 0 0-1.36-.69c-1-.18-2.09-.27-3.13-.4A1.67 1.67 0 0 1 0 48c.07-1.33.66-1.76 2-1.32.84.29 1.63.7 2.44 1 1.65.73 2.25.56 3.41-.85a3.82 3.82 0 0 1 1-.85c.69-.38 1.34-.71 1.55-1.59a1.2 1.2 0 0 1 .83-.7c.92-.06 1.05-.65 1.12-1.35a7.9 7.9 0 0 1 .1-1c1.14-4.22.79-3.78 5.4-5.29a14.08 14.08 0 0 1 1.95-.42c1.09-.19 2.06-.37 2.53-1.69a2.27 2.27 0 0 1 2.57-1.16c1.89.27 2.65-.71 3.48-2.23A156.94 156.94 0 0 1 40.77 11.7c2-2.67 4.06-5.28 6.1-7.91a5.43 5.43 0 0 1 .54-.63c.64-.64 1.1-.64 1.62.08a6.23 6.23 0 0 1 .6 1.18q6 13.52 12 27c.39.88.78 1.33 1.8 1.22A3.69 3.69 0 0 1 67 34c.67.82 1.54 0 2.3-.13a1.2 1.2 0 0 0 1.12-1.25c0-.66 0-1.33-.06-2-.14-1.59-.32-3.19-.48-4.79-.08-.74-.19-1.38-1.14-1.58a1.48 1.48 0 0 1-1.09-1.68 1.91 1.91 0 0 0-1.78-2.19 26.76 26.76 0 0 0-3.77-.46c-1.4 0-2.2-.27-2.42-1a2.91 2.91 0 0 1 1.15-3.08 3.47 3.47 0 0 1 3.35 0 7.84 7.84 0 0 0 1 .58c.39.1 1 .19 1.19 0a1.33 1.33 0 0 0 .21-1.19c-.37-1-.92-1.89-1.35-2.85a18.69 18.69 0 0 1-1.16-2.98c-.32-1.27.09-1.94 1.1-2.24s1.63.15 2.13 1.33c.41 1 .85 1.91 1.31 2.85a2.32 2.32 0 0 0 .64.76c.57.47 1.09.28 1.11-.47a24.52 24.52 0 0 0-.14-3.32A2.13 2.13 0 0 1 71.08 6a1.78 1.78 0 0 1 2.8 1.43 26.66 26.66 0 0 1-.06 2.82 17.06 17.06 0 0 0 .18 2.94c.18 1 .7 1.13 1.55.54a22 22 0 0 1 2.31-1.58c.54-.29 1.25-.66 1.81.06a1.73 1.73 0 0 1 0 2.17 4.61 4.61 0 0 1-1.18 1.15A13.41 13.41 0 0 0 74 20.74a8.15 8.15 0 0 1-2.45 3.44 1.07 1.07 0 0 0-.35.82c.19 2.32.4 4.64.67 7A3 3 0 0 1 70 35.46a8 8 0 0 1-1.73.57 2.84 2.84 0 0 0-1.93 1.15 3.26 3.26 0 0 1-1 .85 8.08 8.08 0 0 1-1.17.5ZM67.41 63a50 50 0 0 0-1.66-12.14c-1.32-4.5-3-8.89-4.43-13.37a2.48 2.48 0 0 0-2.56-1.85h-.67a1.66 1.66 0 0 1-1.89-1.43 9.76 9.76 0 0 0-1.2-2.74c-2.71-4.33-7.76-6.35-13.18-5.27-3.84.76-7 2.8-8.48 6.48-.76 1.82-1.77 2.46-3.56 2.3h-.18a1.4 1.4 0 0 0-1.57.93c-.19.41-.44.78-.61 1.18a119.68 119.68 0 0 0-7.94 24.41 27.56 27.56 0 0 0-.48 8.1 9.55 9.55 0 0 0 1.13 3.4c.8 1.48 2 1.75 3.53 1a19.94 19.94 0 0 0 2.4-1.49c1.59-1.11 3.12-2.31 4.75-3.35A20.23 20.23 0 0 1 45.39 66a22.8 22.8 0 0 1 10.73 5.31 26.22 26.22 0 0 0 3.66 2.57 4.23 4.23 0 0 0 4 .47A4.58 4.58 0 0 0 66 71.8c1.25-2.8 1.3-5.8 1.41-8.8Zm-46.1-26.28c-2 .59-3.77 1.12-5.56 1.67a2 2 0 0 0-1.38 1.73c-.19 1.14-.3 2.3-.54 3.44a1.41 1.41 0 0 0 .55 1.59 1.6 1.6 0 0 1 .62 1.93 1.74 1.74 0 0 0 .88 2.24 18.78 18.78 0 0 0 2.26 1.39 1.47 1.47 0 0 0 2.2-1c1.26-3.43 2.51-6.85 3.75-10.29.12-.34.26-1 .13-1-.95-.65-1.94-1.16-2.91-1.7Z" fill="#f80102"/><path d="M45.53 45.44a10.63 10.63 0 0 1-8.15-2.6c-4-3.55-3.62-9.4.78-12.64a10.76 10.76 0 0 1 14.09 1.1c3.52 3.74 3 8.41-.56 11.63a9.07 9.07 0 0 1-6.16 2.51Z" fill="#f80102"/></svg>