<svg xmlns="http://www.w3.org/2000/svg" viewBox="0 0 80 80"><defs><style>.a{fill:#ec2227}.b{fill:#108bc8}</style></defs><path class="a" d="M39.68 43.27c-.37-.37-.76-.72-1.12-1.1l-1.79-1.9-.77-.88c-.7-.74-1.35-1.52-2-2.3-.81-1-1.58-2-2.31-3A20.16 20.16 0 0130 31.27a6.62 6.62 0 01-.48-1.27 3.09 3.09 0 01-.09-.53 5 5 0 01.15-1.77 8.44 8.44 0 01.88-2 13.87 13.87 0 011.6-2.14c.36-.41.72-.83 1.11-1.21.52-.53 1.08-1 1.62-1.53l.81-.74 1.93-1.65 1.39-1.17c.46-.39.93-.77 1.4-1.15L42 14.73c.42-.35.85-.69 1.26-1.05s.68-.62 1-.94a15.63 15.63 0 002.09-2.58 14.64 14.64 0 001.31-2.59 12.16 12.16 0 00.58-1.89c.11-.5.2-1 .26-1.51a15.6 15.6 0 000-2A7 7 0 0048.39 1c0-.26-.06-.52-.09-.78a.42.42 0 010-.16.16.16 0 01.2 0 4.59 4.59 0 01.74 1.42 16 16 0 01.41 1.79c.07.44.12.88.17 1.32a15.17 15.17 0 010 2 9.12 9.12 0 01-.12 1.16 12.66 12.66 0 01-.26 1.34 12.61 12.61 0 01-1 2.64 13.61 13.61 0 01-1.55 2.37 18.61 18.61 0 01-2 2.08c-.35.31-.68.65-1 1l-1.8 1.74-2 2c-.16.15-.33.29-.48.44-.67.69-1.35 1.37-2 2.07a24.37 24.37 0 00-2.2 2.67 13.52 13.52 0 00-1.18 1.9 7 7 0 00-.61 1.77 4 4 0 000 1.19 9.45 9.45 0 00.25 1.41 16.36 16.36 0 00.65 1.94 26.35 26.35 0 001.37 2.83c.29.52.58 1 .88 1.55.53.9 1.11 1.78 1.69 2.65.33.51.69 1 1.06 1.47a1.56 1.56 0 01.16.46z"/><path class="b" d="M22.85 67.81l-1.27.19c-.38.07-.76.13-1.13.22l-1.56.38a11.35 11.35 0 00-1.7.58 4.77 4.77 0 00-1.11.6 1.79 1.79 0 00-.58.67.85.85 0 000 .5.42.42 0 00.09.14 2.23 2.23 0 00.6.46 5.32 5.32 0 001.11.43c.47.13.94.24 1.42.34s1 .21 1.54.29l1.41.21c.47.07 1.1.16 1.66.21.28 0 .56.08.84.11l.65.07c.36 0 .73 0 1.09.08.19 0 .38 0 .58.06a2 2 0 01.54.06h.07c.46 0 .93 0 1.4.08s.87 0 1.3.08.68 0 1 .06c1.65.11 3.29.07 4.94 0 1.21 0 2.42 0 3.63-.07.7 0 1.4 0 2.09-.06s1.19 0 1.78-.07 1.05 0 1.57-.07.92 0 1.37-.07.75 0 1.13-.06.82 0 1.23-.08.59 0 .88-.06.8 0 1.19-.11h.07l1.25.02.55-.06a1.67 1.67 0 00.5-.06h.07c.34 0 .69 0 1-.09a6.41 6.41 0 00.88-.11h.14c.36 0 .72-.08 1.08-.13l.75-.09 1.1-.21 1-.15c.3-.06.6-.1.9-.17.66-.14 1.31-.29 2-.45a9.56 9.56 0 002.25-.85 4 4 0 00.76-.53 1.06 1.06 0 00.19-1.1 4.63 4.63 0 00-.18-.52H65a2.41 2.41 0 01.76.73A1 1 0 0166 70a.58.58 0 01-.12.28 3.08 3.08 0 01-.63.67 11 11 0 01-2.49 1.47 23 23 0 01-2.39.9c-.85.27-1.72.49-2.59.71-.53.13-1.06.24-1.6.34s-.89.16-1.34.23l-1 .19c-.23 0-.46 0-.68.09s-.54 0-.81.11-.38 0-.58.07-.56 0-.84.09-.66 0-1 .12h-.06l-1.23.09-.61.06a2.14 2.14 0 00-.62.06c-.42 0-.84.06-1.26.07-.63 0-1.26.11-1.89.09-.45.08-.91 0-1.36.07-.65.06-1.31 0-1.95.07-.84.07-1.67 0-2.5.07-1.3.08-2.59 0-3.88 0h-3.85c-.91 0-1.82 0-2.74-.07-.53 0-1.07 0-1.6-.06s-.85 0-1.27-.07-.8 0-1.19-.07-.57 0-.85-.06-.83 0-1.23-.12h-.14l-1.19-.08-.51-.07a3.78 3.78 0 01-.47-.06c-.21 0-.43 0-.65-.07s-.56-.05-.85-.09l-.74-.11-.64-.09-.94-.16c-.43-.08-.87-.16-1.3-.26a16.66 16.66 0 01-1.84-.5 8.45 8.45 0 01-1-.43 5.51 5.51 0 01-.61-.37 1.25 1.25 0 01-.5-.75.9.9 0 010-.4 2.44 2.44 0 01.91-1.37 8 8 0 012-1.14 21 21 0 012.63-.87c.67-.18 1.35-.31 2-.46.33-.07.67-.1 1-.15l1.35-.19a14.31 14.31 0 011.85-.07 5.54 5.54 0 01.57.07z"/><path class="a" d="M43 46.23l.49-.69a14.65 14.65 0 001.4-2.31 3.73 3.73 0 00.36-2.13 4.53 4.53 0 00-.59-1.66 22.28 22.28 0 00-1.32-2l-1.41-2a10.19 10.19 0 01-1.37-2.93 6.67 6.67 0 01-.25-1.16 7.07 7.07 0 01-.12-1.3 8 8 0 01.59-2.89 10.43 10.43 0 011.94-3c.17-.18.32-.36.49-.53a19.45 19.45 0 012.31-1.94 27.63 27.63 0 013.28-2c1-.53 2-1 3.06-1.45S54 17.29 55 16.93c.73-.26 1.47-.48 2.21-.71a.52.52 0 01.35 0c0 .05-.06.09-.1.11l-2.17 1.37c-.84.53-1.66 1.08-2.48 1.65-1 .7-2 1.42-2.93 2.2-.51.41-1 .84-1.51 1.29s-.84.78-1.23 1.19a12.37 12.37 0 00-1.63 2.11 6 6 0 00-.71 1.66 3.78 3.78 0 000 1.8 6.12 6.12 0 00.54 1.36 27.36 27.36 0 001.57 2.53 19.73 19.73 0 011.32 2.27 10 10 0 01.77 2.16 4.46 4.46 0 010 1.63 5.31 5.31 0 01-.69 1.85 10.51 10.51 0 01-2 2.44 17.1 17.1 0 01-2 1.66c-.35.25-.7.47-1.05.71-.07.04-.13.09-.26.02z"/><path class="b" d="M52.49 65.53c0 .11-.09.11-.14.13-.32.12-.63.24-1 .33-.52.14-1 .32-1.54.46-.77.21-1.55.42-2.33.61s-1.69.38-2.53.55c-.36.07-.72.09-1.08.16s-.83.1-1.25.18c-.22 0-.45 0-.68.07-.41 0-.84.07-1.26.08-.74 0-1.48.09-2.23.06s-1.37 0-2.05-.08c-.33 0-.66 0-1-.06s-.79 0-1.19-.11-.61 0-.92-.09l-.81-.11-.48-.08c-.58-.09-1.16-.21-1.73-.33a15 15 0 01-2.57-.8 5 5 0 01-1.5-.93 1.69 1.69 0 01-.52-.79 1.42 1.42 0 010-.91 2.17 2.17 0 01.86-1 6.39 6.39 0 012.24-1 .14.14 0 01.12 0v.1c0 .04 0 .05-.06.08l-.07.12a1 1 0 00-.18.51.7.7 0 00.2.56 1.44 1.44 0 00.48.37 2.78 2.78 0 00.44.19 8.54 8.54 0 001.33.3c.25 0 .5 0 .74.07.52.06 1 0 1.54.06 2.57.08 3.6.09 6 0h1.51c.25 0 .66 0 1-.07s.8 0 1.19-.11h.1c.42 0 .84-.08 1.25-.12.26 0 .52-.07.78-.09l.51-.08c.34-.05.67-.13 1-.18a9.24 9.24 0 001.07-.24.93.93 0 01.78.12l1.17.7a18.43 18.43 0 002.6 1.28zM27.22 53.12c-.18.22-.33.39-.47.57a1.51 1.51 0 00-.33.67.71.71 0 000 .43 1.35 1.35 0 00.56.62 4 4 0 001.1.46c.38.09.77.17 1.17.23l1.15.14c.34 0 .68 0 1 .07 1 .1 2 .06 3 .07s2 0 3 0c.52 0 1 0 1.57-.06s.78 0 1.16-.07.67 0 1-.07.64 0 1-.07a8.66 8.66 0 001-.11h.07c.38 0 .75 0 1.13-.09s.95-.09 1.42-.18c.26 0 .54 0 .81-.09l.71-.11.61-.08q.84-.1 1.68-.27c.24 0 .49-.06.74-.09a.92.92 0 01.69.24 10.31 10.31 0 001.12.85 5.68 5.68 0 001.47.7h.09c0 .06 0 .08-.06.1a5.43 5.43 0 01-.93.33l-1.58.43c-.54.15-1.09.3-1.65.41l-1 .23-1.3.25-.94.18-.5.08c-.45 0-.88.12-1.33.16l-1.29.14c-.3 0-.61 0-.92.07s-.93 0-1.4.07c-1 .08-2 0-3 0-.65-.08-1.3 0-2-.08s-1 0-1.57 0-.94 0-1.4-.09c-.29 0-.58 0-.86-.06s-.68 0-1-.11-.57 0-.85-.08l-.81-.11c-.19 0-.38-.07-.58-.09a19.24 19.24 0 01-2.6-.5 9 9 0 01-1.82-.67 2.87 2.87 0 01-.58-.37 1.31 1.31 0 01-.47-1.4 2.63 2.63 0 01.87-1.36 5.9 5.9 0 012.35-1.13l.39-.11zm29.64-6.35a3.78 3.78 0 01-.68.45L54 48.59a1.84 1.84 0 01-.79.29c-.37 0-.74.13-1.11.18l-1.15.16-.7.11c-.19 0-.39 0-.58.07a6.23 6.23 0 01-.74.09l-.71.11c-.2 0-.41 0-.61.07s-.57.06-.85.1l-.81.11h-.14c-.3 0-.61 0-.91.09l-.85.11c-.3 0-.61.06-.92.09s-.38 0-.57.06a2.06 2.06 0 00-.55.06h-.06l-1.16.09c-.22 0-.43 0-.65.06a2.51 2.51 0 00-.61 0h-.07c-.47 0-.93.06-1.4.07-.62 0-1.23.1-1.85.09-.82.09-1.64 0-2.47.06s-1.65 0-2.47 0c-.59 0-1.19 0-1.78-.06s-.89 0-1.33-.07-.82 0-1.23-.07-.59 0-.89-.07-.59 0-.88-.06l-1.5-.14-1.15-.13-1.56-.21a19.65 19.65 0 01-2-.4 12.13 12.13 0 01-1.33-.43 1.78 1.78 0 01-.64-.45.46.46 0 01-.08-.57 1.64 1.64 0 01.41-.46 7.08 7.08 0 011-.63 21.07 21.07 0 013.3-1.37c1-.33 1.95-.62 2.94-.86.49-.12 1-.23 1.47-.32s1-.19 1.57-.27a15.08 15.08 0 011.76-.21 2.91 2.91 0 00.31 0h.17l.19.07-1 .3-1.54.44c-.85.25-1.68.55-2.5.88a8.75 8.75 0 00-1.5.75 2.62 2.62 0 00-.6.5.78.78 0 00-.24.55.31.31 0 00.12.27 1.29 1.29 0 00.36.25 5.15 5.15 0 001.23.37c.4 0 .79.13 1.18.18s.57 0 .85.09.75 0 1.12.12h.1c.61 0 1.21.07 1.82.1.9 0 1.8 0 2.7.07h4.29c.71 0 1.21 0 1.81-.07.39 0 .78 0 1.17-.06s.73 0 1.09-.07.66 0 1-.07.59 0 .88-.07.6 0 .89-.07.73 0 1.09-.11h.06c.38 0 .76-.05 1.13-.09s1-.09 1.46-.14.86-.08 1.29-.14 1-.09 1.42-.17c.28-.06.57 0 .85-.1s.54-.05.81-.11.38-.05.57-.08.5 0 .75-.08.79-.13 1.18-.18.76-.13 1.15-.17.67-.11 1-.17l.64-.09zM69.6 72.42a2.1 2.1 0 01-.3.79 4.92 4.92 0 01-.51.69 8.38 8.38 0 01-1.63 1.4c-.32.21-.66.4-1 .59a18.82 18.82 0 01-2 1 22.76 22.76 0 01-2.15.75c-.62.19-1.24.36-1.87.5s-1 .24-1.57.32c-.27 0-.53.1-.8.15l-1 .18c-.4.07-.81.11-1.21.19-.18 0-.36 0-.54.08l-1.32.16c-.44 0-.88.12-1.32.18l-.71.07a10 10 0 00-1.09.1c-.34.06-.68 0-1 .1h-.07c-.46 0-.93 0-1.4.09s-.91 0-1.36.11h-.07c-.68 0-1.37 0-2 .09-1.07.08-2.15 0-3.22.08h-1.34c-1-.06-2 0-3-.07-.52 0-1 0-1.54-.06s-.78 0-1.16-.07-.69 0-1-.07l-1.46-.14a8.78 8.78 0 01-.88-.1c-.22 0-.45 0-.68-.07s-.54-.06-.81-.1l-1.08-.17-.54-.08c-.57-.1-1.14-.19-1.71-.3s-1.07-.22-1.6-.35-1.21-.3-1.81-.46c-.32-.08-.63-.18-1-.28a1.46 1.46 0 01-.18-.09h.11a2.92 2.92 0 01.72.06h.06l1.13.08.58.06a2.17 2.17 0 01.57.06h.07c.41 0 .82 0 1.23.1a9.11 9.11 0 011 .11l1.26.08c.5 0 1 0 1.5.09s.69 0 1 0c.54.06 1.09 0 1.64.09s.82 0 1.23 0c.89.06 1.78 0 2.67.08s2 0 3 0h3l1.3-.05h1.31c.43 0 1 0 1.47-.07s.8 0 1.19-.06.85 0 1.26-.11h.07c.43 0 .87 0 1.3-.1a7.65 7.65 0 00.95-.1h.1c.33 0 .66 0 1-.09s.92-.09 1.38-.18c.22 0 .45 0 .68-.08l1.21-.19 1-.16 1.3-.23 1.17-.25c.5-.12 1-.23 1.49-.36 1-.28 2-.57 3.06-.94.57-.21 1.15-.42 1.7-.68.35-.17.71-.32 1-.5A17.22 17.22 0 0069 72.68zM57.31 58.67a1.71 1.71 0 01.47-.34c.57-.36 1.14-.71 1.7-1.09a26.59 26.59 0 002.2-1.63c.41-.34.82-.69 1.2-1.06.2-.19.42-.37.6-.57a17.3 17.3 0 001.33-1.51 8.3 8.3 0 001.39-2.69 4.7 4.7 0 00-.53-3.78 3.61 3.61 0 00-1.37-1.26 5.05 5.05 0 00-1.47-.52c-.32-.07-.65-.11-1-.15a7.16 7.16 0 00-1.13 0 7.07 7.07 0 00-1 .11 3.92 3.92 0 01-.51.07c0-.06 0-.09.07-.12a3 3 0 01.74-.53 5.2 5.2 0 011.32-.42A7 7 0 0162.6 43c.16 0 .31-.05.47 0a9.46 9.46 0 011.92.28 7.07 7.07 0 011.6.68 7.5 7.5 0 011.49 1.13 5.16 5.16 0 011.42 2.51 4.18 4.18 0 01.09.71 7.48 7.48 0 010 .82 4.33 4.33 0 01-.28 1.33 6 6 0 01-.75 1.54c-.24.35-.5.68-.76 1s-.36.41-.56.61-.51.49-.78.72a16.78 16.78 0 01-1.67 1.24 21.72 21.72 0 01-2.05 1.17 29.65 29.65 0 01-3 1.25c-.73.26-1.48.48-2.23.71h-.14z"/></svg>