<svg xmlns="http://www.w3.org/2000/svg" viewBox="0 0 80 80">
  <rect width="100%" height="100%" fill="#F6DE1E"/>
  <path fill="#010100" d="m47.7 66 6-3.5 1 1.4a7.9 7.9 0 0 0 8.4 2.9 5 5 0 0 0 1.5-.6 3.4 3.4 0 0 0 .5-5.5l-1.5-1-4.5-2c-2.1-.8-4.1-2-5.9-3.5a10.2 10.2 0 0 1-3.3-8.8c.3-4.7 3.7-8 8.4-8.9 2-.3 4.2-.3 6.2.2a10.8 10.8 0 0 1 7 5.6l-5.8 3.8-.9-1.3a4.7 4.7 0 0 0-5-1.8 3.2 3.2 0 0 0-1.7 5.4c.6.6 1.3 1 2 1.4l5 2.2c1.8.8 3.5 1.8 5 3a10 10 0 0 1 3.7 9 9.5 9.5 0 0 1-7.4 9c-4.2 1.3-8.6 1-12.6-.9a12.7 12.7 0 0 1-6.1-6.1Zm-26.6.8 6-3.6 1.2 1.8a4.5 4.5 0 0 0 5.3 1.8 2.7 2.7 0 0 0 2-1.7 9 9 0 0 0 .4-1.8V36.8h7.5V62.2c0 1.5-.1 2.9-.5 4.3a9 9 0 0 1-6.7 6.7c-3.4 1-7 .7-10.2-1-2.3-1.1-4-3-5-5.4Z"/>
</svg>