<svg viewBox="0 0 80 80" xmlns="http://www.w3.org/2000/svg">
<rect width="100%" height="100%" fill="white"/>
<path d="M11.553 41.4853C12.5815 40.3574 13.5165 39.3474 14.4345 38.329C15.8115 36.7888 17.1715 35.2317 18.557 33.6914C19.56 32.5636 20.58 31.4442 21.6 30.3247C21.787 30.1227 21.9485 29.8282 22.3905 29.9965C22.3259 30.1567 22.2432 30.3092 22.144 30.451C19.968 32.8918 17.8033 35.3243 15.65 37.7483C14.8 38.6909 14.8 38.6825 15.48 39.7262C18.5117 44.1365 21.5462 48.5469 24.5835 52.9572C24.7195 53.1508 24.8215 53.3612 24.983 53.6305C24.7943 53.6889 24.6009 53.7311 24.405 53.7568H22.246C22.0351 53.7746 21.8235 53.7307 21.6376 53.6305C21.4518 53.5302 21.2997 53.378 21.2005 53.1929C20.002 51.417 18.778 49.6494 17.5625 47.8819L13.3125 41.662C13.168 41.4432 12.998 41.2496 12.8025 40.9803C12.148 41.6031 11.5445 42.0828 11.5615 43.0929C11.621 46.2323 11.5615 49.3801 11.5615 52.528V53.0835C11.5615 53.6726 11.4935 53.7315 10.924 53.7484H8.6035C8.1785 53.782 8 53.6137 8 53.1929L8 19.1979C8 17.8428 8 18.0111 9.224 18.0027H10.5925C11.5445 18.0027 11.5445 18.0027 11.553 18.9875L11.553 41.4853ZM50.8825 41.4095C50.8458 43.4274 50.4457 45.4226 49.701 47.3012C49.0893 48.7882 48.1402 50.1159 46.9271 51.1813C45.714 52.2468 44.2695 53.0215 42.7055 53.4454C40.0289 54.2436 37.1654 54.1788 34.5285 53.2602C32.7798 52.7255 31.2226 51.7055 30.0415 50.3211C28.8603 48.9367 28.1048 47.2461 27.8645 45.4495C27.3357 42.6714 27.5198 39.8063 28.4 37.117C28.8516 35.6741 29.619 34.3475 30.6474 33.2317C31.6758 32.1159 32.94 31.2383 34.35 30.6614C36.0117 29.9604 37.8028 29.6104 39.6088 29.6335C41.4149 29.6567 43.1962 30.0527 44.839 30.7961C46.3272 31.3918 47.6325 32.3622 48.6254 33.6112C49.6184 34.8601 50.2646 36.3443 50.5 37.9166C50.6785 39.0528 50.7465 40.2143 50.8825 41.4095ZM47.4315 41.3506C47.372 40.5089 47.2955 39.7262 47.2445 38.9098C47.1605 37.43 46.8032 35.9779 46.1905 34.6257C44.601 31.259 41.5325 29.7356 37.7755 30.4173C35.9068 30.8432 34.2842 31.9839 33.262 33.5904C31.9518 35.5332 31.2077 37.796 31.1115 40.1302C31.0001 41.5308 31.0001 42.9379 31.1115 44.3385C31.1892 45.9205 31.5399 47.4777 32.1485 48.9424C33.8485 52.7131 37.07 54.1608 40.98 53.2181C43.53 52.6037 45.06 50.6931 46.08 48.4543C47.0212 46.1895 47.4813 43.7571 47.4315 41.3085V41.3506ZM68.724 42.1923V33.8766C68.7448 33.2633 68.5835 32.6574 68.2602 32.1338C67.9369 31.6102 67.4658 31.192 66.905 30.9307C66.2109 30.5995 65.4623 30.3943 64.695 30.3247C61.8884 30.1666 59.0851 30.6866 56.5265 31.8397C56.178 31.9744 56.1865 31.9744 55.6765 31.8397C55.8359 31.6964 56.0097 31.5695 56.195 31.461C58.5349 30.4231 61.0536 29.8375 63.6155 29.7356C65.211 29.6462 66.8113 29.7651 68.3755 30.0891C69.4807 30.2742 70.4822 30.8457 71.1981 31.6998C71.914 32.5538 72.2968 33.6338 72.277 34.7435V50.045C72.2766 50.5719 72.3365 51.097 72.4555 51.6105C72.5274 52.1075 72.7883 52.5586 73.1849 52.8714C73.5814 53.1843 74.0837 53.3354 74.589 53.2939C74.9089 53.2772 75.2296 53.2772 75.5495 53.2939C75.6855 53.2939 75.813 53.437 76 53.5464C75.8555 53.6642 75.8045 53.7484 75.745 53.7568C74.4085 53.8952 73.0579 53.8098 71.75 53.5043C70.9403 53.3389 70.2042 52.9243 69.6469 52.3195C69.0897 51.7148 68.7399 50.9511 68.6475 50.1376C68.384 50.4743 68.1885 50.752 67.9675 50.9793C66.7806 52.4679 65.0671 53.4546 63.1735 53.74C61.4708 54.0527 59.7156 53.9311 58.0735 53.3865C57.2151 53.0814 56.4478 52.5678 55.8419 51.8928C55.2359 51.2179 54.8108 50.4031 54.6055 49.5232C54.4461 48.9935 54.3407 48.4493 54.291 47.8988C54.1456 46.9718 54.332 46.0237 54.8178 45.2184C55.3036 44.4131 56.0583 43.8011 56.9515 43.4884C58.5123 42.8684 60.1614 42.4935 61.839 42.3774C64.1241 42.116 66.428 42.0541 68.724 42.1923ZM68.673 42.8151C68.2567 42.7456 67.8367 42.7006 67.415 42.6804C66.242 42.6804 65.0775 42.7394 63.9045 42.8067C62.6805 42.8864 61.4735 43.1328 60.3175 43.5389C59.7535 43.7133 59.2463 44.0326 58.8476 44.4643C58.4489 44.8961 58.173 45.4248 58.048 45.9966C57.5961 47.8077 57.7944 49.718 58.609 51.4001C58.8814 52.0242 59.3381 52.5519 59.9192 52.914C60.5003 53.276 61.1785 53.4554 61.8645 53.4285C64.644 53.4875 66.6245 52.1492 68.1715 50.0114C68.5688 49.4417 68.7659 48.7586 68.7325 48.0671V43.6315C68.724 43.3959 68.6985 43.1686 68.673 42.8151Z" fill="black"/>
</svg>
