<svg xmlns="http://www.w3.org/2000/svg" viewBox="0 0 80 80">
  <rect width="100%" height="100%" fill="#fff"/>
  <path d="m11.6 41.5 2.8-3.2 4.2-4.6 3-3.4c.2-.2.3-.5.8-.3 0 .2-.2.3-.3.5l-6.5 7.2c-.8 1-.8 1-.1 2l9 13.3.5.6-.6.2h-2.2a1 1 0 0 1-1-.6l-3.6-5.3-4.3-6.2-.5-.7c-.7.6-1.3 1-1.2 2v10.1c0 .6-.1.6-.7.6H8.6c-.4 0-.6 0-.6-.5v-34C8 17.8 8 18 9.2 18h1.4c1 0 1 0 1 1v22.5Zm39.3 0c0 2-.5 4-1.2 5.8a10.5 10.5 0 0 1-7 6.1c-2.7.8-5.5.8-8.2-.1a9.6 9.6 0 0 1-6.6-7.9c-.6-2.7-.4-5.6.5-8.3a10.3 10.3 0 0 1 6-6.4 13.1 13.1 0 0 1 10.4.1 9.2 9.2 0 0 1 5.7 7.1l.4 3.5Zm-3.5-.1-.2-2.5c0-1.5-.4-3-1-4.3-1.6-3.3-4.7-4.9-8.4-4.2a7.3 7.3 0 0 0-4.5 3.2c-1.3 2-2 4.2-2.2 6.5v4.2c0 1.6.4 3.2 1 4.6 1.7 3.8 5 5.3 8.9 4.3 2.5-.6 4-2.5 5-4.7 1-2.3 1.5-4.7 1.4-7.2Zm21.3.8v-8.3a3.1 3.1 0 0 0-1.8-3c-.7-.3-1.4-.5-2.2-.6-2.8-.1-5.6.4-8.2 1.5-.3.2-.3.2-.8 0l.5-.3A20.3 20.3 0 0 1 68.4 30a4.7 4.7 0 0 1 3.9 4.6V50c0 .6 0 1.1.2 1.6 0 .5.3 1 .7 1.3.4.3.9.4 1.4.4h1l.4.2-.3.3a12 12 0 0 1-4-.3 4 4 0 0 1-3-3.4l-.7.9a7.6 7.6 0 0 1-4.8 2.7c-1.7.4-3.5.2-5.1-.3a5.5 5.5 0 0 1-3.5-3.9c-.2-.5-.3-1-.3-1.6a4 4 0 0 1 2.7-4.4c1.5-.6 3.2-1 4.8-1.1 2.3-.3 4.6-.3 7-.2Zm0 .6-1.3-.1-3.5.1c-1.2 0-2.4.3-3.6.7A3.3 3.3 0 0 0 58 46a8 8 0 0 0 .6 5.4 3.4 3.4 0 0 0 3.3 2c2.7 0 4.7-1.3 6.3-3.4.4-.6.6-1.2.5-2v-5.2Z"/>
</svg>