<svg xmlns="http://www.w3.org/2000/svg" viewBox="0 0 80 80"><path d="M4.18 45.09c1.21-1.34 2.31-2.54 3.39-3.75 1.62-1.83 3.22-3.68 4.85-5.51 1.18-1.34 2.38-2.67 3.58-4 .22-.24.41-.59.93-.39a2.72 2.72 0 01-.29.54Q12.8 36.33 9 40.65c-1 1.12-1 1.11-.2 2.35q5.35 7.86 10.71 15.72c.16.23.28.48.47.8a4.08 4.08 0 01-.68.15h-2.54a1.27 1.27 0 01-1.23-.67c-1.41-2.11-2.85-4.21-4.28-6.31l-5-7.39c-.17-.26-.37-.49-.6-.81-.77.74-1.48 1.31-1.46 2.51.07 3.73 0 7.47 0 11.21v.66c0 .7-.08.77-.75.79H.71C.21 59.7 0 59.5 0 59V18.61C0 17 0 17.2 1.44 17.19h1.61c1.12 0 1.12 0 1.13 1.17v26.73zM50.45 45a20.15 20.15 0 01-1.39 7 12.43 12.43 0 01-8.23 7.3 15.51 15.51 0 01-9.62-.22 11.26 11.26 0 01-7.84-9.28 20.06 20.06 0 01.63-9.9 12.21 12.21 0 017-7.67 15.28 15.28 0 0112.34.16A10.84 10.84 0 0150 40.85c.21 1.35.29 2.73.45 4.15zm-4.06-.07c-.07-1-.16-1.93-.22-2.9a14.41 14.41 0 00-1.24-5.09c-1.87-4-5.48-5.81-9.9-5a8.54 8.54 0 00-5.31 3.77 15.1 15.1 0 00-2.53 7.77 31.85 31.85 0 000 5 16.48 16.48 0 001.22 5.47c2 4.48 5.79 6.2 10.39 5.08 3-.73 4.8-3 6-5.66a21.19 21.19 0 001.59-8.49zm25.05 1V36.05a3.73 3.73 0 00-2.14-3.5 7.58 7.58 0 00-2.6-.72 20.4 20.4 0 00-9.61 1.8c-.41.16-.4.16-1 0a3.74 3.74 0 01.61-.45 23.68 23.68 0 018.73-2.05 21.44 21.44 0 015.6.42 5.51 5.51 0 014.59 5.53v18.18a8.29 8.29 0 00.21 1.86 2.34 2.34 0 002.51 2 10.73 10.73 0 011.13 0c.16 0 .31.17.53.3-.17.14-.23.24-.3.25a14.09 14.09 0 01-4.7-.3 4.61 4.61 0 01-3.65-4c-.31.4-.54.73-.8 1a8.89 8.89 0 01-5.64 3.28 12 12 0 01-6-.42 6.41 6.41 0 01-4.08-4.59 9.82 9.82 0 01-.37-1.93 4.78 4.78 0 013.13-5.24 19 19 0 015.75-1.32 46.17 46.17 0 018.1-.22zm-.06.74a12.53 12.53 0 00-1.48-.16c-1.38 0-2.75.07-4.13.15a15.7 15.7 0 00-4.22.87 3.93 3.93 0 00-2.67 2.92 9.55 9.55 0 00.66 6.42 4 4 0 003.83 2.41c3.27.07 5.6-1.52 7.42-4.06a3.75 3.75 0 00.66-2.31v-5.27c-.01-.28-.04-.55-.07-.97z"/></svg>