<svg viewBox="0 0 80 80" xmlns="http://www.w3.org/2000/svg">
 <rect width="100%" height="100%" fill="#EAE8FE"/>
 <path fill-rule="evenodd" clip-rule="evenodd" d="M22.2965 22H57.7034C67.7925 22 76 30.0748 76 39.9999C76 49.9252 67.7925 58 57.7034 58H22.2965C12.2075 58 4 49.9252 4 39.9999C4 30.0748 12.2075 22 22.2965 22ZM38.5527 49.9025C38.9971 50.3609 39.6551 50.3382 40.238 50.2194L40.2438 50.2222C40.5144 50.0064 40.1298 49.7332 39.7625 49.4722C39.5423 49.3157 39.3282 49.1637 39.2655 49.0311C39.4688 48.7879 38.8675 48.2361 38.3993 47.8064C38.2028 47.626 38.0298 47.4672 37.9496 47.3618C37.6164 47.0063 37.4825 46.5579 37.3478 46.1066C37.2585 45.8072 37.1688 45.5067 37.0203 45.2313C36.1055 43.149 35.0579 41.0835 33.589 39.3209C32.6449 38.1494 31.5675 37.1003 30.4898 36.0508C29.795 35.3742 29.1001 34.6975 28.4405 33.9877C27.7619 33.3009 27.3536 32.4548 26.9445 31.6073C26.602 30.8977 26.259 30.1872 25.7567 29.5684C24.2358 27.3615 19.4337 26.7589 18.7296 29.8768C18.7325 29.973 18.7008 30.0352 18.6141 30.0974C18.2245 30.3776 17.8782 30.6944 17.5868 31.0792C16.8739 32.0553 16.7642 33.7105 17.6531 34.5876C17.6544 34.5687 17.6556 34.55 17.6569 34.5313C17.6867 34.0884 17.7144 33.6744 18.0716 33.3568C18.7584 33.9368 19.8002 34.1433 20.5968 33.7105C21.5571 35.061 21.863 36.6936 22.1699 38.3318C22.4256 39.6966 22.682 41.0651 23.3181 42.2775C23.3312 42.299 23.3444 42.3204 23.3576 42.342C23.7314 42.9523 24.1113 43.5723 24.5908 44.1053C24.7649 44.37 25.1226 44.6557 25.4796 44.9409C25.9506 45.3173 26.4207 45.6928 26.4666 46.0179C26.4687 46.1594 26.468 46.3027 26.4675 46.4469C26.4637 47.3008 26.4598 48.1849 27.0178 48.8869C27.3266 49.5008 26.5706 50.1175 25.9616 50.0411C25.6278 50.0865 25.263 50.0003 24.9008 49.9146C24.4052 49.7974 23.9145 49.6814 23.5144 49.9053C23.4022 50.0245 23.2408 50.0287 23.0788 50.0329C22.8868 50.0377 22.6936 50.0427 22.5794 50.2392C22.5559 50.2977 22.501 50.3636 22.444 50.4321C22.3187 50.5826 22.183 50.7457 22.3456 50.8702C22.3602 50.8593 22.3746 50.8485 22.3891 50.8376C22.6354 50.6534 22.8702 50.4776 23.2026 50.5872C23.1584 50.8281 23.3171 50.8926 23.4756 50.9571C23.5033 50.9683 23.5311 50.9796 23.5577 50.9918C23.556 51.0477 23.5447 51.1041 23.5335 51.1602C23.5069 51.2938 23.4807 51.425 23.5865 51.5407C23.6367 51.4906 23.6812 51.4344 23.7256 51.378C23.8345 51.24 23.9439 51.1014 24.1406 51.0512C24.5733 51.6176 25.0091 51.3824 25.5559 51.0872C26.1727 50.7542 26.9307 50.345 27.9846 50.9239C27.5806 50.9041 27.2198 50.9522 26.9485 51.2804C26.8822 51.3539 26.8245 51.4388 26.9427 51.535C27.5664 51.1389 27.8258 51.2813 28.07 51.4153C28.2462 51.512 28.4145 51.6043 28.706 51.4869C28.775 51.4516 28.8438 51.4152 28.9128 51.3788C29.381 51.1311 29.8557 50.88 30.4116 50.9664C29.9965 51.0837 29.8487 51.3417 29.6875 51.6234C29.6077 51.7626 29.5248 51.9076 29.4044 52.0443C29.341 52.1066 29.3121 52.1801 29.3843 52.2848C30.2536 52.2139 30.582 51.9978 31.0258 51.7059C31.2376 51.5665 31.4756 51.41 31.8112 51.2437C32.1823 51.0197 32.5533 51.1629 32.9127 51.3017C33.3028 51.4523 33.6793 51.5976 34.0276 51.2634C34.1376 51.1617 34.2757 51.1605 34.4131 51.1592C34.4631 51.1588 34.5131 51.1583 34.5615 51.1531C34.4531 50.5837 33.8415 50.5904 33.2208 50.5972C32.5027 50.605 31.7722 50.6131 31.794 49.7299C32.4611 49.2833 32.4673 48.5079 32.4731 47.7751C32.4746 47.5982 32.4758 47.4239 32.4866 47.2571C32.9773 47.5254 33.4963 47.7351 34.0122 47.9434C34.4974 48.1394 34.9799 48.3342 35.4331 48.5755C35.9064 49.3225 36.6452 50.3128 37.6293 50.2477C37.6552 50.1713 37.6783 50.1063 37.7071 50.0298C37.7639 50.0396 37.8238 50.0544 37.8847 50.0695C38.143 50.1337 38.4195 50.2024 38.5527 49.9025ZM57.8407 41.4143C58.4104 41.9716 59.1833 42.2847 59.9891 42.2847C60.7949 42.2847 61.5678 41.9716 62.1375 41.4143C62.7074 40.857 63.0276 40.1011 63.0276 39.3131C63.0276 38.5249 62.7074 37.7691 62.1375 37.2118C61.5678 36.6545 60.7949 36.3414 59.9891 36.3414C59.6117 36.3414 59.2415 36.4101 58.8961 36.5404L57.1546 34.0481L55.9409 34.8634L57.6914 37.3686C57.2152 37.9068 56.9507 38.5966 56.9507 39.3131C56.9507 40.1011 57.2709 40.857 57.8407 41.4143ZM52.3884 33.3433C52.8147 33.5499 53.2846 33.6557 53.7604 33.652C54.4096 33.6471 55.0401 33.4391 55.5594 33.0582C56.0789 32.6774 56.4599 32.1439 56.6468 31.5358C56.8337 30.9278 56.8164 30.2772 56.5977 29.6794C56.3791 29.0816 55.9704 28.568 55.4316 28.2139C55.0366 27.9544 54.5849 27.7892 54.1128 27.7317C53.6407 27.6741 53.1613 27.7258 52.7134 27.8825C52.2655 28.0393 51.8614 28.2967 51.5337 28.6342C51.2061 28.9716 50.964 29.3795 50.8271 29.8252C50.6902 30.2708 50.6621 30.7416 50.7453 31.1998C50.8284 31.658 51.0204 32.0906 51.3059 32.4629C51.5913 32.8353 51.962 33.1368 52.3884 33.3433ZM52.3884 50.5992C52.8147 50.8057 53.2846 50.9115 53.7604 50.9079C54.4096 50.9031 55.0401 50.6949 55.5594 50.3141C56.0789 49.9333 56.4599 49.3997 56.6468 48.7917C56.8337 48.1837 56.8164 47.533 56.5977 46.9352C56.3791 46.3374 55.9704 45.8239 55.4316 45.4698C55.0366 45.2102 54.5849 45.045 54.1128 44.9875C53.6407 44.93 53.1613 44.9816 52.7134 45.1384C52.2655 45.2952 51.8614 45.5526 51.5337 45.8901C51.2061 46.2275 50.964 46.6353 50.8271 47.081C50.6902 47.5266 50.6621 47.9975 50.7453 48.4556C50.8284 48.9139 51.0204 49.3465 51.3059 49.7188C51.5913 50.0912 51.962 50.3927 52.3884 50.5992ZM55.1817 40.0519V38.5745H50.5313C50.4143 38.1265 50.1912 37.7116 49.8799 37.363L51.6294 34.8219L50.3571 33.9945L48.6075 36.5356C48.2869 36.422 47.9488 36.3621 47.6078 36.3584C46.8042 36.3584 46.0337 36.6697 45.4655 37.2238C44.8974 37.7779 44.5781 38.5295 44.5781 39.3132C44.5781 40.0968 44.8974 40.8484 45.4655 41.4026C46.0337 41.9567 46.8042 42.268 47.6078 42.268C47.9488 42.2642 48.2869 42.2043 48.6075 42.0907L50.3571 44.6318L51.6144 43.8044L49.8799 41.2634C50.1912 40.9147 50.4143 40.4998 50.5313 40.0519H55.1817Z" fill="#1C3C3B"/>
</svg>
