<svg xmlns="http://www.w3.org/2000/svg" viewBox="0 0 80 80">
  <rect width="100%" height="100%" fill="#EAE8FE"/>
  <path fill="#1C3C3B" d="M61.6 32.829a3.531 3.531 0 0 1 0 5.046l-3.168 3.065-.032-.175a6.186 6.186 0 0 0-1.76-3.308 6.333 6.333 0 0 0-2.432-1.493 2.923 2.923 0 0 0-.887 2.088c0 .158.015.322.044.486.508.18.957.458 1.335.83a3.531 3.531 0 0 1 0 5.046l-2.758 2.713a3.644 3.644 0 0 1-2.564 1.042c-.93 0-1.857-.347-2.564-1.042a3.531 3.531 0 0 1 0-5.046l3.167-3.065.032.176c.23 1.257.839 2.4 1.761 3.306.694.683 1.462 1.137 2.383 1.446l.17-.167a2.644 2.644 0 0 0 .755-2.376 3.334 3.334 0 0 1-1.367-.81 3.507 3.507 0 0 1-1.03-2.086c-.008-.057-.012-.114-.018-.171a3.527 3.527 0 0 1 1.048-2.79l2.758-2.712a3.633 3.633 0 0 1 2.564-1.044c.97 0 1.88.37 2.565 1.044l-.002-.003ZM76 40c0 9.926-8.209 18-18.296 18H22.296C12.21 58 4 49.926 4 40s8.209-18 18.296-18h35.408C67.79 22 76 30.076 76 40Zm-36.74 9.027c.29-.344-1.043-1.313-1.315-1.669-.553-.59-.556-1.44-.93-2.13-.913-2.082-1.962-4.148-3.43-5.91-1.552-1.929-3.466-3.524-5.148-5.334-1.249-1.263-1.583-3.062-2.685-4.42-1.52-2.207-6.323-2.81-7.027.308.003.098-.028.16-.114.222-.39.278-.736.596-1.028.98-.713.977-.822 2.633.068 3.51.029-.462.045-.898.417-1.23.688.58 1.727.787 2.525.353 1.762 2.476 1.323 5.9 2.722 8.567.387.63.776 1.274 1.272 1.827.403.616 1.793 1.344 1.875 1.914.015.98-.102 2.049.55 2.868.308.614-.447 1.23-1.056 1.154-.79.106-1.755-.523-2.448-.136-.244.261-.723-.027-.933.334-.074.188-.469.451-.233.631.262-.196.505-.4.858-.283-.053.282.174.322.354.404-.006.192-.12.388.029.55.174-.172.278-.417.555-.49.919 1.206 1.854-1.219 3.843-.127-.404-.02-.762.03-1.034.357-.068.073-.125.16-.006.255 1.073-.682 1.067.233 1.764-.048.535-.275 1.068-.62 1.705-.521-.62.175-.644.665-1.007 1.078-.062.064-.091.136-.02.24 1.286-.106 1.391-.526 2.429-1.042.774-.465 1.546.663 2.216.02.148-.14.35-.092.533-.11-.234-1.229-2.809.224-2.768-1.423.828-.555.638-1.616.694-2.473.953.52 2.012.822 2.946 1.32.471.748 1.21 1.737 2.196 1.673l.077-.218c.299.05.682.245.846-.127.447.46 1.103.437 1.687.319.431-.346-.813-.838-.98-1.194l.002.001Zm26.144-13.675c0-1.676-.661-3.25-1.863-4.433a6.382 6.382 0 0 0-4.507-1.833c-1.705 0-3.305.651-4.507 1.833l-2.757 2.713a6.213 6.213 0 0 0-1.454 2.212l-.019.048-.05.014a6.314 6.314 0 0 0-2.623 1.552l-2.757 2.713a6.206 6.206 0 0 0 0 8.866 6.381 6.381 0 0 0 4.505 1.834c1.704 0 3.305-.651 4.507-1.834l2.758-2.712a6.195 6.195 0 0 0 1.447-2.205l.02-.048.049-.016a6.404 6.404 0 0 0 2.627-1.558l2.758-2.713a6.175 6.175 0 0 0 1.863-4.433h.003ZM29.232 46.998c-.238.91-.315 2.461-1.518 2.506-.1.526.37.723.796.554.423-.191.623.152.765.493.653.093 1.62-.215 1.656-.975-.975-.553-1.277-1.604-1.701-2.578h.002Z"/>
</svg>
