<svg viewBox="0 0 80 80" xmlns="http://www.w3.org/2000/svg">
<rect width="100%" height="100%" fill="#FF2D20"/>
<path fill-rule="evenodd" clip-rule="evenodd" d="M71.9907 23.005C72.0031 23.0895 72.0031 23.1754 71.9907 23.2599V36.5216C71.9908 36.6913 71.9458 36.858 71.8603 37.0045C71.7748 37.1511 71.6519 37.2723 71.5041 37.3558L60.405 43.782V56.4722C60.4067 56.6413 60.3631 56.8077 60.279 56.9544C60.1948 57.101 60.073 57.2225 59.9262 57.3064L36.6853 70.684C36.6321 70.715 36.575 70.7384 36.5153 70.7535H36.4535C36.291 70.7922 36.1217 70.7922 35.9592 70.7535H35.882C35.8266 70.7336 35.7724 70.7104 35.7198 70.684L12.4866 57.3064C12.3389 57.2229 12.216 57.1017 12.1305 56.9551C12.045 56.8085 11.9999 56.6419 12 56.4722V16.6792C12.0015 16.5929 12.0145 16.5072 12.0386 16.4243C12.0399 16.3986 12.0399 16.3728 12.0386 16.3471C12.0386 16.293 12.0772 16.2467 12.1004 16.2003L12.1699 16.1076C12.2018 16.0583 12.2408 16.0141 12.2858 15.9763L12.3785 15.8991L12.4866 15.8219L24.0723 9.13304C24.2183 9.04597 24.3851 9 24.555 9C24.725 9 24.8918 9.04597 25.0378 9.13304L36.6235 15.8219L36.7316 15.8991L36.8243 15.9763C36.8545 16.0109 36.8828 16.047 36.9092 16.0845C36.9342 16.1122 36.955 16.1434 36.971 16.1771C36.9988 16.2238 37.0221 16.2729 37.0406 16.3239V16.4089C37.0524 16.4908 37.0524 16.5741 37.0406 16.656V41.5344L46.7262 35.9578V23.2521C46.7144 23.1702 46.7144 23.0869 46.7262 23.005V22.92C46.7462 22.8697 46.7694 22.8206 46.7957 22.7733C46.8118 22.7419 46.8326 22.7133 46.8575 22.6883C46.8575 22.6497 46.9116 22.6033 46.9425 22.5725L47.0351 22.5029L47.1433 22.418L58.729 15.7292C58.8762 15.6459 59.0425 15.6022 59.2117 15.6022C59.3809 15.6022 59.5472 15.6459 59.6944 15.7292L71.2801 22.418L71.3883 22.5029C71.421 22.5236 71.452 22.5468 71.481 22.5725C71.481 22.5725 71.535 22.6497 71.5659 22.6883L71.6354 22.7733C71.6354 22.8196 71.6354 22.8737 71.6972 22.92C71.759 22.9664 71.983 22.9741 71.9907 23.005V23.005ZM70.0907 35.9578V24.9282L66.028 27.2453L60.405 30.4816V41.5344L70.0907 35.9578V35.9578ZM58.505 55.9084V44.8711L52.9516 48.0301L37.1719 57.036V68.1737L58.505 55.9084ZM13.9387 18.3553V55.9084L35.2332 68.1737V57.036L24.1109 50.7334L24.0028 50.6562C24.0028 50.6562 23.941 50.6098 23.9178 50.5789C23.8897 50.5474 23.8639 50.5138 23.8406 50.4785C23.815 50.4495 23.7917 50.4185 23.7711 50.3858L23.7247 50.27C23.706 50.2328 23.6905 50.194 23.6784 50.1541C23.6747 50.1079 23.6747 50.0614 23.6784 50.0151V23.9318L18.0014 20.6956L13.9387 18.3784V18.3553ZM24.5898 11.1103L14.9119 16.6792L24.5898 22.2558L34.2909 16.6792L24.5898 11.1103ZM29.6257 45.8674L35.2409 42.6312V18.3553L31.1705 20.6724L25.5553 23.9318V48.2232L29.6257 45.8674ZM59.4396 17.6678L49.7385 23.2599L59.4164 28.8287L69.0943 23.2521L59.4396 17.6678ZM58.4741 30.4893L52.828 27.2685L48.7575 24.9514V35.9578L54.3728 39.1941L58.4432 41.5112L58.4741 30.4893ZM36.2064 55.3677L50.4027 47.2577L57.4623 43.2027L47.823 37.603L36.693 44.0137L26.5671 49.8915L36.2064 55.3677Z" fill="white"/>
</svg>
