<svg xmlns="http://www.w3.org/2000/svg" viewBox="0 0 80 80">
  <rect width="100%" height="100%" fill="#FF2D20"/>
  <path fill="#fff" fill-rule="evenodd" d="M72 23v13.5a1 1 0 0 1-.5.9l-11 6.4v12.7a1 1 0 0 1-.6.8L36.7 70.7h-.2a1 1 0 0 1-.5 0H35.7L12.5 57.3a1 1 0 0 1-.5-.8V16.4l.1-.2.2-.2v-.1h.2L24 9a1 1 0 0 1 1 0l11.5 6.7.1.1h.1a1.3 1.3 0 0 1 .2.4v25.2l9.7-5.5V23l.1-.2v-.1l.1-.1.1-.1h.1l11.6-6.8a1 1 0 0 1 1 0l11.6 6.7v.1h.2v.2h.1l.1.2.3.1Zm-2 13V25l-4 2.2-5.6 3.3v11l9.7-5.5ZM58.6 56V44.8L53 48l-15.8 9v11.2l21.3-12.3ZM14 18.3v37.5l21.3 12.3V57l-11-6.3H24v-.1l-.2-.1v-.2l-.1-.1V24L18 20.6l-4-2.3ZM24.6 11l-9.7 5.6 9.7 5.6 9.7-5.6-9.7-5.6Zm5 34.8 5.6-3.3V18.4l-4 2.3-5.6 3.2v24.3l4-2.3Zm29.8-28.2-9.7 5.6 9.7 5.5 9.7-5.5-9.7-5.6Zm-1 12.8-5.6-3.2-4-2.3v11l5.6 3.2 4 2.3v-11ZM36.3 55.4l14.2-8.1 7-4.1-9.6-5.6L36.7 44 26.6 50l9.6 5.5Z" clip-rule="evenodd"/>
</svg>