<svg xmlns="http://www.w3.org/2000/svg" viewBox="0 0 80 80">
  <rect width="100%" height="100%"/>
  <path fill="#fff" d="M40.5627 72c-.4923 0-.9846-.2829-1.266-.7778-.2109-.4951-.2109-.9901.1406-1.4144l14.9803-20.7205-26.233 10.7491c-.211.0707-.3517.1414-.5625.1414-.6331 0-1.1957-.4242-1.3363-.99-.2111-.5656.0702-1.2022.5625-1.5557l23.0683-13.6487-40.5803-2.3337C8.4923 41.379 8 40.7426 8 40.0353c0-.6364.422-1.3435 1.3363-1.4143l40.5803-2.3337-23.0683-13.6486c-.4923-.3536-.7736-.9901-.5625-1.5558.2109-.5658.7032-.9901 1.3363-.9901.2108 0 .3515.0707.5625.1415l26.233 10.7491-14.9803-20.7911c-.2813-.4243-.3515-.99-.1406-1.4144C39.5077 8.2829 40 8 40.5627 8c.3515 0 .7032.1414.9846.4243l29.8198 29.9138c.4219.4244.6329 1.0608.6329 1.6266 0 .5657-.211 1.1315-.6329 1.6264L41.5473 71.5756c-.2814.2829-.6331.4244-.9846.4244Z"/>
</svg>
