<svg xmlns="http://www.w3.org/2000/svg" xmlns:xlink="http://www.w3.org/1999/xlink" viewBox="0 0 80 80"><defs><linearGradient id="b" x1="39.93" y1="-646" x2="39.93" y2="-726" gradientTransform="matrix(1 0 0 -1 0 -646)" gradientUnits="userSpaceOnUse"><stop offset="0" stop-color="#606acb"/><stop offset="1" stop-color="#2a349a"/></linearGradient><linearGradient id="a" x1="27.41" y1="-707.4" x2="27.41" y2="-664.4" gradientTransform="matrix(1 0 0 -1 0 -646)" gradientUnits="userSpaceOnUse"><stop offset="0" stop-color="#fff" stop-opacity=".85"/><stop offset="1" stop-color="#fff"/></linearGradient><linearGradient id="c" x1="31.63" y1="-707.4" x2="31.63" y2="-664.4" xlink:href="#a"/><linearGradient id="d" x1="35.65" y1="-707.4" x2="35.65" y2="-664.4" xlink:href="#a"/><linearGradient id="e" x1="42.42" y1="-707.4" x2="42.42" y2="-664.4" xlink:href="#a"/></defs><rect x="-.07" width="80" height="80" rx="14.4" fill="url(#b)"/><path d="M18.6 43.53l17.61 17.6a21.54 21.54 0 01-17.61-17.6z" fill="url(#a)"/><path d="M18.33 38.75L41 61.4a21.27 21.27 0 003.94-.58l-26-26a22 22 0 00-.61 3.93z" fill="url(#c)"/><path d="M20 31.44L48.3 59.7a22.41 22.41 0 003-1.56L21.59 28.48A21.34 21.34 0 0020 31.44z" fill="url(#d)"/><path d="M23.5 25.89a21.52 21.52 0 1130.35 30.34z" fill="url(#e)"/></svg>