<svg xmlns="http://www.w3.org/2000/svg" viewBox="0 0 80 80">
  <rect width="100%" height="100%" fill="#fff"/>
  <path fill="#292929" d="m62.05 52.77.61.1c1.05.17 1.93.96 2.1 2 .18.62.27 1.23.35 1.84.18.96.7 1.93 1.4 2.54.7.61 1.4 1.14 2.02 1.75.35.26.6.61.96.96.7.7.7 1.93 0 2.63-.44.52-.88.96-1.49 1.31a89.33 89.33 0 0 1-3.67 2.45 50.7 50.7 0 0 0-6.57 5.08 6.57 6.57 0 0 1-7.87.26 4.3 4.3 0 0 1-1.58-2.45c0-.18-.08-.27-.26-.35a15.7 15.7 0 0 0-5.25-1.49 24.19 24.19 0 0 0-6.65.09c-.52.09-1.05.26-1.49.35-.17.08-.35.17-.43.35a6.03 6.03 0 0 1-3.85 3.85 6.7 6.7 0 0 1-3.94-.09c-.96-.26-1.93-.61-2.89-.96a35.96 35.96 0 0 0-5.25-1.49c-1.92-.44-3.76-.96-5.6-1.4a6.03 6.03 0 0 1-.7-.26 2.5 2.5 0 0 1-1.4-2.98c.09-.44.18-.78.35-1.14.26-1.22.35-2.53.18-3.76-.1-.96-.1-1.92-.1-2.8a2.43 2.43 0 0 1 2.1-2.62c.8-.27 1.58-.44 2.37-.53a3.37 3.37 0 0 0 2.45-1.75c.35-.61.79-1.22 1.23-1.84.26-.34.43-.78.43-1.22-.08-3.5.88-6.91 2.8-9.8a228.2 228.2 0 0 1 5.17-7.52 23.2 23.2 0 0 0 3.32-6.57c.44-1.75.61-3.5.44-5.33a60.45 60.45 0 0 1 0-7.97 9.47 9.47 0 0 1 6.65-8.4 9.55 9.55 0 0 1 8.4 1.05 8.84 8.84 0 0 1 3.85 5.78c.35 1.57.52 3.15.44 4.72 0 2.02.08 4.11.17 6.13.09 1.92.7 3.85 1.75 5.51a35.6 35.6 0 0 0 3.24 4.81 59.27 59.27 0 0 1 5.07 8.05c.79 1.49 1.4 3.15 1.75 4.82.35 1.92.18 3.93-.35 5.86-.26.08-.26.26-.26.43Z"/>
  <path fill="#fff" d="M59.6 51.2a5.85 5.85 0 0 0-2.71-.88c-.61-.08-1.31-.08-1.93-.17a9.76 9.76 0 0 0 .53-6.3c-.53-1.93-2.71-5.08-3.59-5.16a9.82 9.82 0 0 1 2.89 5.16 8.3 8.3 0 0 1-.88 6.13c0 .08-.08.17-.17.17h-.7v-.44c-.09-1.05-.09-2.1-.18-3.15a23.02 23.02 0 0 0-2.01-6.3c-.44-.96-.96-1.84-1.66-2.62-.09-.18-.26-.35-.26-.62-.18-.78-.44-1.66-.7-2.45a25.85 25.85 0 0 1-2.2-7.26c-.08-.61-.25-1.22-.34-1.83l-1.58 1.04c-.61.44-1.22 1.05-1.92 1.5a7.36 7.36 0 0 1-3.5 1.48 4.4 4.4 0 0 1-4.2-1.75c-.35-.44-.79-.88-1.14-1.31l-.26-.27c-.26 1.32-.44 2.54-.7 3.85a16.33 16.33 0 0 1-1.49 4.56 17.53 17.53 0 0 0-1.49 3.5c0 .08-.08.17-.08.17-.35.44-.62.79-.88 1.31a26.15 26.15 0 0 0-3.06 9.8c-.26.62-.26 1.14-.26 1.58a10.06 10.06 0 0 1-.62-6.21c.35-2.1 1.32-4.03 2.72-5.6-.1 0-.1 0-.18.08-.26.27-.52.53-.79.88a12.56 12.56 0 0 0-2.53 10.06 6.54 6.54 0 0 0 1.66 3.5 9.37 9.37 0 0 0 1.66 1.58c1.14.96 2.36 1.75 3.5 2.7l1.58 1.32c.87.88.78 2.27-.1 3.15-.34.35-.7.61-1.04.88.52.52 1.14.96 1.84 1.22a15.41 15.41 0 0 0 9.7.79c2.63-.62 5-2.1 6.66-4.29.09-.09.09-.17.09-.35.08-.96.08-1.92.17-2.89.09-.96.09-1.84.18-2.8 0-1.05.78-2.01 1.92-2.19.09-.08.18-.17.18-.26a1.6 1.6 0 0 1 1.13-1.31c.53-.18 1.14-.26 1.67-.35 1.66-.18 3.4-.09 5.07.35ZM43.33 21.45c.35.18.7.26 1.13.44.09.09.27.09.35-.09v-.09c.27-.44.62-.87.88-1.4a3.7 3.7 0 0 0 .35-2.88 3.24 3.24 0 0 0-2.19-2.54 2.75 2.75 0 0 0-2.97.87 4.9 4.9 0 0 0-1.14 4.03c0 .09 0 .09.09.17l1.22.44a2.6 2.6 0 0 1 .44-2.63c.52-.7 1.49-.87 2.19-.43.35.17.52.52.6.87.36 1.31 0 2.63-.95 3.24ZM35.7 20.4c.09-.09.35-.09.53-.17.09-.1.17-.1.17-.18a5 5 0 0 0-.96-3.68c-.26-.43-.79-.7-1.31-.7a1.75 1.75 0 0 0-1.93 1.5 5.3 5.3 0 0 0 .88 4.54l.26.27.61-.44c-.43-.27-.7-.61-.87-1.05a2.51 2.51 0 0 1 .17-2.36c.27-.53.88-.7 1.32-.44.08.08.17.08.26.26.26.26.52.61.61 1.05.18.35.26.88.26 1.4Z"/>
  <path fill="#FAC424" d="M33 25.74c.7.35 1.4.79 2.1 1.05 1.57.61 3.32.61 4.81 0a17.29 17.29 0 0 0 3.33-1.75l1.4-.96.26-.18c-.26-.26-.61-.26-.88 0-.7.53-1.48 1.05-2.18 1.58a8.53 8.53 0 0 1-3.5 1.3 6.7 6.7 0 0 1-4.29-.87c-.53-.26-1.05-.61-1.66-.87-.18-.09-.35-.27-.27-.44 0-.35.18-.61.27-.96a4.6 4.6 0 0 1 1.05-1.23c.87-.61 1.75-1.22 2.71-1.75a4.63 4.63 0 0 1 3.59-.17c1.57.61 3.15 1.14 4.81 1.75.26.09.52.17.7.35.44.17.79.7.7 1.22 0 .35-.09.7-.18 1.05-.08.27-.26.44-.43.62-.88.6-1.75 1.22-2.63 1.92a7.8 7.8 0 0 1-3.5 1.75 4.4 4.4 0 0 1-4.55-1.57c-.52-.62-1.14-1.23-1.66-1.84Zm5.25-4.64c.35.17.61.35.96.44h.35c0-.09 0-.27-.09-.35-.35-.27-.7-.27-1.22-.09Zm-1.31 0c-.35-.18-.7-.09-.97.17v.36h.27c.26-.18.52-.36.7-.53Z"/>
  <path fill="#FBC524" d="M11.83 62.66c-.1-.87-.1-1.75-.18-2.53 0-.36 0-.8.09-1.14.09-.88.7-1.58 1.57-1.75.88-.27 1.84-.44 2.72-.7a3.74 3.74 0 0 0 2.45-1.84c.26-.44.43-.88.78-1.31a2.54 2.54 0 0 1 2.54-1.23c.44.09.88.35 1.23.7.43.44.87.88 1.22 1.4 2.1 3.07 4.2 6.13 6.39 9.19.61.88 1.31 1.66 2.01 2.54a4.68 4.68 0 0 1 .88 4.64 5.5 5.5 0 0 1-2.98 2.97c-.96.35-2.01.35-2.97.18a12.42 12.42 0 0 1-3.5-1.06 28.7 28.7 0 0 0-5.34-1.57 63.6 63.6 0 0 1-5.51-1.4c-.35-.09-.7-.26-1.05-.44a2.08 2.08 0 0 1-1.14-2.45c.17-.78.44-1.57.61-2.45.09-.61.18-1.22.18-1.75Zm39.72-9.36c.09.7.09 1.31.26 1.93.09.52.27 1.13.53 1.66a2.35 2.35 0 0 0 2.97 1.48 6.34 6.34 0 0 0 4.2-2.97c.44-.61.7-1.23 1.05-1.84.09-.17.18-.26.35-.26.62 0 1.14 0 1.75.18a2.33 2.33 0 0 1 1.75 2c.09.62.18 1.15.35 1.76a6.1 6.1 0 0 0 2.02 3.06c.7.61 1.4 1.23 2 1.93.8.87.97 1.66-.34 2.7-1.05.88-2.19 1.58-3.33 2.37a48.44 48.44 0 0 0-7.61 5.78 5.95 5.95 0 0 1-6.74.6 4 4 0 0 1-2.01-3.23c-.09-1.31 0-2.71.44-3.94.52-2.19.79-4.37.79-6.56 0-1.31.08-2.63.08-4.03 0-.6.18-1.22.44-1.83 0-.44.53-.79 1.05-.79Z"/>
</svg>