<svg viewBox="0 0 80 80" xmlns="http://www.w3.org/2000/svg">
<rect width="100%" height="100%" fill="#18181B"/>
<path d="M8.1089 40C8.1089 22.3274 22.4108 8 40.055 8C57.6981 8 72 22.3274 72 40C72 57.6738 57.6981 72 40.055 72C29.85 72 20.7649 67.2085 14.9153 59.7488C16.4188 59.279 17.9038 58.7585 19.3706 58.1862C24.415 63.9381 31.8106 67.5701 40.055 67.5701C55.2551 67.5701 67.5769 55.2267 67.5769 40C67.5769 24.7744 55.2551 12.43 40.055 12.43C24.8538 12.43 12.532 24.7744 12.532 40C12.532 42.5875 12.8881 45.0909 13.5542 47.4654C12.2908 48.1943 10.9631 48.9117 9.57332 49.605C8.62231 46.573 8.1089 43.3475 8.1089 40Z" fill="#EDB641"/>
<path fill-rule="evenodd" clip-rule="evenodd" d="M0 60.5608C9.28611 59.7192 19.8768 56.9281 30.3187 50.2717L28.0342 58.3796L41.2668 47.9352L55.2712 57.3121L49.4434 41.4797L62.6748 31.0353L45.8415 31.6939L40.0137 15.8615L35.4378 32.1016L18.6045 32.7614L28.35 39.286C23.6009 43.6127 13.549 51.5667 0 55.7448V60.5608ZM20.2481 49.7373C17.3457 51.642 13.8012 53.6975 9.72149 55.563C11.0619 55.229 12.3862 54.8536 13.6955 54.4356C19.4016 52.6127 28.945 47.6842 35.7674 42.569L33.7092 49.8767L41.114 44.0315L48.9518 49.279L45.6899 40.418L53.0947 34.5739L43.6742 34.9424L40.4134 26.0814L37.8521 35.1704L28.4316 35.5389L33.2843 38.7886C32.8949 39.3286 25.7991 46.0973 20.2481 49.7373Z" fill="#EDB641"/>
</svg>
