<svg xmlns="http://www.w3.org/2000/svg" viewBox="0 0 80 80">
  <rect width="100%" height="100%" fill="#fff"/>
  <path fill="#FB70A9" fill-rule="evenodd" d="M67.418 51.508c-1.141 1.726-2.008 3.852-4.328 3.852-3.905 0-4.116-6.022-8.023-6.022s-3.696 6.022-7.601 6.022-4.116-6.022-8.023-6.022-3.696 6.022-7.6 6.022c-3.906 0-4.117-6.022-8.024-6.022-3.907 0-3.696 6.022-7.6 6.022-1.228 0-2.09-.595-2.817-1.41C10.608 49.086 9 43.387 9 37.295 9 19.459 22.779 5 39.775 5c16.997 0 30.776 14.46 30.776 32.296 0 5.1-1.127 9.924-3.133 14.212Z" clip-rule="evenodd"/>
  <path fill="#4E56A6" d="M27.485 48.32v13.377a4.347 4.347 0 0 1-8.693 0V45.548c.811-1.489 1.738-2.778 3.409-2.778 2.72 0 3.67 3.416 5.284 5.55Zm16.42.697V70.17a4.83 4.83 0 0 1-9.659 0V46.23c.91-1.754 1.847-3.46 3.769-3.46 3.042 0 3.87 4.276 5.89 6.248Zm15.455-.388v15.357a4.347 4.347 0 1 1-8.693 0V45.11c.756-1.295 1.658-2.34 3.162-2.34 2.855 0 3.76 3.765 5.53 5.859Z"/>
  <path fill-opacity=".299" d="M27.485 52.42c-.77-.944-1.683-1.645-3.003-1.645-3.135 0-3.71 3.95-5.69 5.731V39.468a4.347 4.347 0 0 1 8.693 0V52.42Zm16.42.305c-.822-1.095-1.783-1.95-3.242-1.95-3.487 0-3.806 4.89-6.416 6.242V49.48a4.83 4.83 0 1 1 9.658 0v3.244Zm15.455-.846c-.67-.659-1.463-1.104-2.515-1.104-3.378 0-3.784 4.589-6.178 6.105V41.584a4.347 4.347 0 0 1 8.693 0V51.88Z"/>
  <path fill="#FB70A9" fill-rule="evenodd" d="M67.418 51.508c-1.141 1.726-2.008 3.852-4.328 3.852-3.905 0-4.116-6.022-8.023-6.022s-3.696 6.022-7.601 6.022-4.116-6.022-8.023-6.022-3.696 6.022-7.6 6.022c-3.906 0-4.117-6.022-8.024-6.022-3.907 0-3.696 6.022-7.6 6.022-1.228 0-2.09-.595-2.817-1.41C10.608 49.086 9 43.387 9 37.295 9 19.459 22.779 5 39.775 5c16.997 0 30.776 14.46 30.776 32.296 0 5.1-1.127 9.924-3.133 14.212Z" clip-rule="evenodd"/>
  <path fill="#E24CA6" fill-rule="evenodd" d="M60.759 54.716c8.064-11.997 8.273-25.305.625-39.924a32.213 32.213 0 0 1 9.167 22.572c0 5.08-1.168 9.886-3.247 14.159-1.183 1.719-2.082 3.837-4.487 3.837a3.506 3.506 0 0 1-2.058-.644Z" clip-rule="evenodd"/>
  <path fill="#fff" fill-rule="evenodd" d="M38.125 45.352c10.703 0 15.209-6.208 15.209-15.025 0-8.818-6.81-16.934-15.209-16.934-8.399 0-15.208 8.116-15.208 16.934 0 8.817 4.506 15.025 15.208 15.025Z" clip-rule="evenodd"/>
  <path fill="#030776" d="M34.036 30.825c3.15 0 5.703-2.818 5.703-6.295 0-3.476-2.553-6.295-5.703-6.295-3.15 0-5.703 2.819-5.703 6.295 0 3.477 2.554 6.295 5.703 6.295Z"/>
  <path fill="#fff" d="M33.086 25.983c1.575 0 2.851-1.3 2.851-2.905 0-1.605-1.276-2.905-2.851-2.905s-2.852 1.3-2.852 2.905c0 1.604 1.277 2.905 2.852 2.905Z"/>
</svg>
