<svg xmlns="http://www.w3.org/2000/svg" viewBox="0 0 80 80">
  <rect width="100%" height="100%" fill="#069C02"/>
  <path fill="#fff" fill-rule="evenodd" d="M21.7 20.5v-.1c0-3.7 9.2-5.4 17.7-5.4 8.6 0 17.7 1.7 17.8 5.3v2.4c3 .1 8.8 1 9.7 5.4.6 3.3.1 6.3-1.4 8.7C71 39.6 74 43.3 74 47.2c0 8.7-15 15.5-34 15.5S6 56 6 47.2c0-5.5 6-10.5 16-13.3-.5-6.2-.3-12.1-.3-13.4Zm2 2.5a37 37 0 0 0 15.7 2.7c6.2 0 12.6-.9 15.8-2.7 0 7.5-.6 21.1-4.6 24.5A17.4 17.4 0 0 1 39 51.3a17.4 17.4 0 0 1-10.7-3.8c-4-3.4-4.6-17-4.5-24.5Zm39.1 16.6 1.4-1.1c5 2.5 7.7 5.5 7.7 8.7 0 7.3-14.6 13.4-31.9 13.4-17.3 0-31.9-6.1-31.9-13.4 0-4.4 5.4-8.6 14.2-11.2.4 3.8 1.2 7.5 2.5 10.2-3.2 1.5-5 3.5-5 5.6 0 4.9 8.7 8.5 20.2 8.5s20.1-3.6 20.1-8.5c0-2.3-2-4.5-5.8-6l1-2.7c2.7-.5 5.3-1.7 7.5-3.5Zm-9.5 8L52 49.1l-.5.5a7.4 7.4 0 0 1-5.2 6.1c-2.1.6-4.2 1-6.4 1H39c-2.2 0-4.3-.4-6.4-1a7.4 7.4 0 0 1-5.2-6.2l-.6-.5-1-1C23.5 49 22 50.5 22 51.8c0 3 7.4 6.4 18 6.4s18-3.3 18-6.4c0-1.4-1.7-3-4.7-4.2Zm4-21.8v-1c2.2.1 7 .7 7.5 3.7.8 4-.4 7.3-3.2 9.5a15.2 15.2 0 0 1-5.7 2.8l.2-1.5c1.7-.4 3.3-1 4.8-2 2.5-1.6 3.5-4.1 3-7.7-.2-1.4-1.4-3.6-6.7-3.8Zm-.6 10-.2 1.2 2-.7-1.8-.6Zm.2-2.2c1.3.4 2.6.7 3.8 1.2 1.1-1.1 1.5-2.7 1.1-4.9-.1-1.2-1.8-2-4.6-2l-.3 5.7ZM40 53.4c3.8-.2 6.7-1.2 8.7-2.2a5.3 5.3 0 0 1-3.2 2.6c-1.9.5-3.8.8-5.8.9H39c-2 0-3.9-.4-5.7-1a5.3 5.3 0 0 1-3.2-2.5c2 1 5 2 8.7 2.2h1.3Zm-16.3-33c0-1 5.3-3.3 15.6-3.3 10.4 0 15.7 2.3 15.7 3.3s-5.3 3.2-15.7 3.2c-10 0-15.3-2.1-15.6-3.1Z" clip-rule="evenodd"/>
</svg>