<svg xmlns="http://www.w3.org/2000/svg" viewBox="0 0 80 80"><defs><style>.a{fill:#069c02}</style></defs><path class="a" d="M39.35 24.67c-10 0-20.87-2-20.87-6.29s10.82-6.3 20.87-6.3 20.86 2 20.86 6.3-10.81 6.29-20.86 6.29zm0-10.12c-12.14 0-18.4 2.68-18.4 3.83s6.26 3.82 18.4 3.82 18.39-2.68 18.39-3.82-6.26-3.83-18.39-3.83z"/><path class="a" d="M39.35 57.31h-.72c-9.21-.48-13.93-5-14.13-5.2-7.19-6.13-6.07-32.64-6-33.77l2.47.11c-.33 7.34 0 27.35 5.22 31.84.1.09 4.36 4.13 12.59 4.55a11.61 11.61 0 001.18 0c8.22-.42 12.49-4.46 12.53-4.5 5.32-4.54 5.61-24.55 5.27-31.89l2.47-.11c0 1.13 1.18 27.64-6.07 33.83-.14.13-4.86 4.66-14.07 5.14h-.74z"/><path class="a" d="M39.35 61.15h-.58A29.25 29.25 0 0131.31 60a8.71 8.71 0 01-6.17-7.92h2.47a6.25 6.25 0 004.47 5.62 27 27 0 006.8 1.05h.94a27.18 27.18 0 006.77-1 6.3 6.3 0 004.5-5.75h2.47a8.74 8.74 0 01-6.2 8 29.43 29.43 0 01-7.43 1.16zm17.79-15.9l-.27-2.45a17.87 17.87 0 008.51-3.71c3.38-2.49 4.74-6.43 3.83-11.12-.84-4.31-9.2-4.43-10.15-4.43v-2.48c2.66 0 11.41.47 12.57 6.44 1.11 5.68-.63 10.5-4.78 13.58a20.12 20.12 0 01-9.71 4.17z"/><path class="a" d="M58.08 40.88l-.31-2.46a17 17 0 005.5-2.2c2.17-1.34 2.92-3.36 2.43-6.58-.23-1.56-2.66-2.48-6.51-2.42H59v-2.47h.47c6.92 0 8.39 2.82 8.65 4.52.63 4.22-.54 7.18-3.59 9.05a19.3 19.3 0 01-6.45 2.56z"/><path class="a" d="M40 68.22c-22.43 0-40-8-40-18.29 0-6.67 7.43-12.6 19.88-15.86l.63 2.39c-11.13 2.92-18 8.08-18 13.47C2.47 58.5 19.66 65.75 40 65.75s37.53-7.25 37.53-15.82c0-3.88-3.53-7.64-9.92-10.61l1-2.24C76 40.47 80 45 80 49.93c0 10.26-17.57 18.29-40 18.29z"/><path class="a" d="M64.22 37.93a55.67 55.67 0 00-6-1.79l.57-2.41a58.41 58.41 0 016.3 1.87zM40 65.37c-13.5 0-23.68-4.28-23.68-10 0-2.8 2.51-5.36 7.06-7.19l.92 2.29c-3.5 1.41-5.5 3.2-5.5 4.9 0 3.54 8.71 7.48 21.2 7.48S61.2 59 61.2 55.41c0-1.86-2.43-3.83-6.51-5.28l.82-2.33c5.27 1.86 8.17 4.57 8.17 7.61 0 5.68-10.18 9.96-23.68 9.96z"/></svg>