<svg xmlns="http://www.w3.org/2000/svg" viewBox="0 0 80 80">
  <rect width="100%" height="100%" fill="#fff"/>
  <path fill="#60261A" stroke="#60261A" stroke-width=".07" d="M42.76 5.45A3.9 3.9 0 0 1 45.56 4c.61-.03 1.21.16 1.72.49.6.38 1.04.97 1.53 1.48l-.07.14-.3-.27c-.52-.49-1.06-1-1.74-1.24a2.48 2.48 0 0 0-1.73.05c.3.02.62.04.92.12.83.21 1.57.73 2.1 1.4.61.75.98 1.7 1.02 2.67.02.13 0 .28.07.4.25.28.57.55.95.62.17.04.4.03.5-.14.15-.25.14-.56.16-.84.04-.36.04-.76.28-1.06l.1.11c-.17.36-.08.77-.07 1.16.03.35.04.76-.22 1.05-.21.24-.55.27-.86.28.3.14.64.22.97.2.55-.02 1.06-.22 1.6-.22.42.02.83-.08 1.25-.08.96-.03 1.99.14 2.78.73a3.41 3.41 0 0 1 1.22 1.7c.21.68.19 1.41.52 2.04.19.4.62.6 1.03.66.41.06.87 0 1.2-.28.31-.25.38-.73.22-1.09-.13-.3-.53-.4-.82-.28a.84.84 0 0 0-.38.33.46.46 0 0 1 .18-.3c.32-.28.9-.25 1.14.13.25.42.2 1.02-.14 1.37-.25.27-.6.4-.96.46a2.07 2.07 0 0 1-1.5-.34 2.09 2.09 0 0 1-.66-1.04c-.23-.62-.27-1.31-.63-1.88a2.8 2.8 0 0 0-1.64-1.17 4.42 4.42 0 0 1 1.68 3.17c.02.3.1.59.25.84.3.52.82.9 1.39 1.05.47.14.96.22 1.43.36.64.2 1.27.46 1.82.85.43.3.81.69 1.07 1.15.45.79.67 1.68.82 2.56.13.73.13 1.49.38 2.19.08.22.2.45.41.58.18.1.43.07.58-.09.23-.21.29-.53.42-.8-.05.31-.14.64-.35.89-.2.24-.57.27-.83.1a1.65 1.65 0 0 1-.54-.83c-.1-.25-.15-.52-.24-.77-.02.2-.02.42-.05.63-.14 1.06-.33 2.14-.28 3.22.02.3.05.61.2.88.09.18.28.3.48.26.35-.05.63-.28.91-.48-.2.24-.46.44-.75.57-.23.1-.5.08-.69-.1-.24-.22-.34-.55-.41-.86-.13-.6-.15-1.2-.15-1.8-.27.5-.56.99-.9 1.45-.2.3-.42.6-.51.97-.05.16 0 .33.13.44.22.2.52.3.8.4.6.17 1.19.33 1.75.57.47.21.94.5 1.24.93a2 2 0 0 1 .26 1.42c-.01.1-.05.21 0 .31.11.26.2.54.23.82a6.3 6.3 0 0 1-.23 2.46h.08a2.4 2.4 0 0 0-.09.04c-.28 1.03-.66 2.03-.91 3.07a4.25 4.25 0 0 0-.02 2.33l.29.1-.09.01.12.06-.18.04h-.06l.06.12-.07.09-.13-.26a1.5 1.5 0 0 1-.98-1.45c0-.42.17-.8.32-1.18.14-.37.27-.75.34-1.14-.23.57-.55 1.1-.94 1.57-.23.26-.35.6-.39.95-.07.7.28 1.43.88 1.8.38.26.85.3 1.28.45.53.07 1.06.21 1.54.47.68.35 1.26.92 1.57 1.64.18.38.23.81.37 1.21.12.38.04.79.13 1.17l-.06.08-.03-.08c-.14.72-.4 1.41-.52 2.14-.07.4-.09.83.03 1.23.1.3.33.56.57.77.3.27.64.48 1.03.58.28.08.61.07.86-.11.27-.16.42-.46.46-.76l.11.1c-.04.37-.27.71-.6.88-.32.19-.71.17-1.06.08-.5-.15-.95-.43-1.3-.8-.23-.21-.41-.48-.5-.78a4.04 4.04 0 0 1-.05-1.7c-.14.26-.35.47-.44.75a2.91 2.91 0 0 0 1.02 3.14c.58.4 1.16.79 1.7 1.23.56.44 1.11.91 1.52 1.5.42.61.69 1.35.64 2.1a2.3 2.3 0 0 1-.68 1.6 2.4 2.4 0 0 1-2.18.46 2.08 2.08 0 0 1-1.49-1.36c-.17-.55-.05-1.12.02-1.67.12.27.22.55.33.82.13.29.3.57.58.74.43.24 1 .16 1.35-.18.24-.24.3-.62.25-.95a2.98 2.98 0 0 0-.9-1.68c-.5-.54-1.13-.95-1.6-1.54-.43-.54-.84-1.12-1.44-1.48a.65.65 0 0 1-.18-.28 8 8 0 0 0-3.16-3.89 14.2 14.2 0 0 0-2.09-.97c-1.19-.45-2.43-.8-3.59-1.32a10.96 10.96 0 0 1-3.01-2.02c-.4-.38-.75-.83-1.08-1.28a9.75 9.75 0 0 1-1.14-2.37c-.13-.36-.16-.75-.19-1.13a5.3 5.3 0 0 1 .15-1.26c.07-.26.16-.51.25-.77.32-.78.74-1.51 1.22-2.2.12-.17.25-.33.33-.52-.16.09-.22.26-.34.39-.2.22-.35.49-.53.73a7.7 7.7 0 0 0-1.16 2.43c-.1.35-.13.72-.16 1.08.02.5.08 1 .25 1.48.12.31.24.63.39.93.12.31.31.59.48.88.2.3.41.63.67.9a11.5 11.5 0 0 0 3.77 2.8c.46.24.94.44 1.43.63.32.1.63.26.95.36.52.2 1.04.38 1.54.61.3.13.6.23.89.4.4.21.8.4 1.17.68a7.83 7.83 0 0 1 2.24 2.54c.12.25.28.48.38.75.15.39.33.77.42 1.18a6.11 6.11 0 0 1-.19 4.27c-.08.19-.2.35-.28.54.13-.11.2-.27.3-.41.36-.61.54-1.32.62-2.03a7.14 7.14 0 0 0-.42-3.13l.1.03c.44.48.69 1.12.81 1.76.11.68 0 1.38-.2 2.04a6.14 6.14 0 0 1-.97 1.9c-.42.56-.88 1.13-1.1 1.81-.11.4-.15.85.04 1.23.15.32.48.53.82.56.5.06 1-.16 1.35-.51.18-.18.36-.4.4-.66.02-.15-.07-.27-.15-.38.5.32.96.74 1.23 1.27.15.3.21.67.08 1-.13.33-.43.57-.74.74-.36.2-.77.27-1.18.27a3.1 3.1 0 0 1-1.11-.2c-.34-.16-.66-.34-.97-.53a2.7 2.7 0 0 1-1.19-1.34 2.4 2.4 0 0 1 0-1.57c.24-.8.68-1.54.93-2.34.12-.4.23-.83.18-1.26a2.1 2.1 0 0 0-.53-1.13c-.3-.36-.66-.67-.94-1.05.29.7.5 1.46.47 2.23-.02.5-.13.98-.3 1.45-.33.86-.52 1.8-.41 2.72a3.08 3.08 0 0 0 1.65 2.43c.35.19.72.35 1.12.44a4.66 4.66 0 0 1-2.92-1.16 3.52 3.52 0 0 1-1-2.04c-.07-.4-.1-.83-.02-1.25.1-.6.24-1.2.18-1.8-.02-.25-.1-.52-.34-.63a6.33 6.33 0 0 1-2.16-1.5 3.8 3.8 0 0 1-.94-1.96 4 4 0 0 1 .36-2.4c.13-.28.3-.53.47-.78a.73.73 0 0 0-.33-.9c-.22-.13-.47-.11-.7-.15a1.4 1.4 0 0 1-.87-.43c-.28-.3-.47-.68-.75-.98a2.79 2.79 0 0 0-.85-.61c.3.79.51 1.6.59 2.45.07.63 0 1.27.01 1.9.01.38.02.78.23 1.1.27.42.6.8.8 1.26.28.64.22 1.4-.06 2.02-.3.65-.81 1.15-1.36 1.58-.56.43-1.18.79-1.73 1.24-.4.32-.69.74-.93 1.18a6.51 6.51 0 0 0-.69 2.02c-.1.68-.1 1.4.2 2.04.16.37.46.67.82.86l-.02.14a2.15 2.15 0 0 1-1.29-1.35 5.35 5.35 0 0 1-.1-2.76l-.18.24c-.02-.15.1-.26.18-.38.42-.65.82-1.32 1.08-2.05.24-.73.32-1.55.08-2.3-.24-.73-.72-1.34-1.2-1.94-.23-.3-.48-.6-.7-.91a4.8 4.8 0 0 1-.9-2.4c-.05-.34-.05-.69-.07-1.03-.04-.63.07-1.25.02-1.87-.07.17-.07.36-.08.55-.1.98-.19 1.99.02 2.96a4.07 4.07 0 0 0 .93 1.95c.5.63 1.04 1.22 1.42 1.93.2.35.33.73.41 1.12.2.95-.07 1.92-.51 2.75-.13.28-.3.54-.45.8-.25.38-.46.78-.68 1.17a5.07 5.07 0 0 0-.64 2.18c0 .19-.02.39.03.58.05-.39.04-.78.13-1.16.05-.18.07-.37.2-.5-.17.67.05 1.36.18 2.02.1.49.16 1 0 1.48-.12.34-.37.63-.67.82-.36.24-.78.34-1.19.47.03.33.06.67-.01 1-.08.37-.22.74-.44 1.06-.32.5-.81.86-1.35 1.09-.87.37-1.81.47-2.73.63-.8.13-1.65.27-2.35.73-.49.3-.86.79-1.03 1.34l-.06.08a3.15 3.15 0 0 1-.07-.08c.08-.32.22-.63.42-.9.15-.22.37-.4.57-.58L41.15 71c.01-.18.13-.35.05-.52l-.01-.06c0-.26 0-.51-.03-.76-.04-.81.04-1.63-.05-2.43v-1.17l.01-.03c.28-.28.63-.47.94-.7.56-.38 1.16-.73 1.67-1.18.18-.12.33-.27.47-.44.57-.55.87-1.36.84-2.15.02-.9-.3-1.76-.76-2.5-.38-.64-.86-1.2-1.36-1.73-.27-.23-.48-.52-.73-.76-.46-.52-.89-1.07-1.28-1.65l-.01-.02v-.92c-.08-.52 0-1.05-.07-1.57-.01-.75-.02-1.5 0-2.25v-.37l.01-.03-.06-.08c.02-.1.04-.19.03-.28-.08-.53 0-1.07-.05-1.6-.01-.17.03-.33 0-.5a2.71 2.71 0 0 1-.02-.5c0-.61 0-1.22-.03-1.83-.01-.1 0-.2.02-.29.53.06 1.06.13 1.57.25.38.09.76.2 1.09.42.2.13.34.34.36.58.02.35-.16.66-.33.95-.13.21-.3.4-.43.6-.07.09-.09.24.02.3.24.14.52.12.78.11.86-.05 1.7-.25 2.52-.49.7-.21 1.41-.47 2.07-.8.3-.15.6-.33.86-.55.4-.33.84-.6 1.27-.9-.3-.18-.58-.41-.82-.68-.58.47-1.32.68-2.06.7a5.8 5.8 0 0 1-2.54-.5 7.58 7.58 0 0 1-1.68-1.08c-.68-.55-1.35-1.1-2-1.68-.25-.24-.51-.48-.74-.75l-.06-.08-.01-.01c.79-.78 1.55-1.58 2.36-2.34.48.48 1 .92 1.51 1.36a8.26 8.26 0 0 0 2.18 1.33c.47.17.97.31 1.48.26.2-.02.37-.12.55-.21-.16.2-.4.28-.64.32.37.09.77.09 1.15.06.16-.48.23-1 .12-1.5-.16-.7-.52-1.36-.74-2.05-.32-.95-.35-2-.1-2.96.16-.64.5-1.22.95-1.7a6.76 6.76 0 0 1 2.14-1.4l.59-.25c.4-.16.83-.25 1.19-.5.28-.16.57-.35.8-.58.26-.25.44-.57.56-.9.1-.28.14-.61 0-.9a1.5 1.5 0 0 0-.73-.62c-.59-.29-1.24-.42-1.84-.68a2.88 2.88 0 0 1-1.36-1.24 3.13 3.13 0 0 1-.34-1.44c.02-.28.13-.55.16-.84.05-.36.08-.78-.15-1.09.02.42-.01.84-.16 1.23-.13.4-.38.77-.43 1.2a1 1 0 0 0 .15.68c.26.43.69.73.92 1.18a.96.96 0 0 1-.23 1.23c.14-.27.34-.55.24-.87-.22-.7-1-1.01-1.29-1.68-.15-.39-.09-.83.05-1.2.17-.45.34-.92.3-1.4a1.83 1.83 0 0 0-.3-.95c-.16-.15-.32-.3-.49-.42.11.23.3.43.39.68.12.28.12.61-.01.9-.2.42-.62.68-.84 1.1-.09.17-.08.37-.1.55a.99.99 0 0 1 .08-.7c.2-.4.57-.69.7-1.12.07-.26-.02-.54-.17-.76-.42-.62-1.1-1.05-1.4-1.75-.3-.79-.06-1.69.4-2.36.12-.15.13-.35.18-.52.1-.32.25-.62.43-.9.17-.29.33-.6.37-.94a1.8 1.8 0 0 0-.69-1.57c-.41-.32-.96-.35-1.4-.62-.42-.24-.73-.61-.96-1.02a1.54 1.54 0 0 0-.77-.68c-.13.14-.29.25-.42.4-.03.2-.04.42.01.63.06.2.27.28.45.33.53.15 1.08.26 1.56.55.26.16.5.38.6.68.1.28.08.58 0 .86l-.1.06v-.72l-.1-.06a1.27 1.27 0 0 0-.76-.62c-.46-.17-.94-.2-1.41-.3a1.04 1.04 0 0 1-.71-.48c-.1-.16-.13-.35-.16-.54-.93.48-1.97.72-3.01.77-.38.06-.75.13-1.13.15h-.07a7.52 7.52 0 0 1-.06-.07c0-.02.03-.05.04-.06-.05-.23.02-.47-.01-.7-.03-.3 0-.6-.01-.91-.01-.18-.05-.36-.04-.54V10.5c-.01-.32.01-.64-.04-.95 0-.36-.02-.72.02-1.08.02-.1-.05-.2-.09-.29.03-.06.06-.13.07-.2-.07-.07-.17-.13-.23-.22.15.07.3.13.48.13l.49-.02c.08 0 .18.01.25-.05.32-.26.52-.62.72-.97.28-.5.59-1 1.01-1.39Zm.86 1.51a2.7 2.7 0 0 0-1.52.93c-.22.26-.4.54-.58.82-.1.27-.3.5-.33.8a.51.51 0 0 0 .15-.2c.22-.4.51-.77.8-1.13.26-.26.51-.53.83-.71.51-.37 1.24-.52 1.82-.22.23.12.47.24.65.44.17.16.33.33.47.52.53.73 1 1.52 1.57 2.22.19.23.43.42.66.62.35.2.73.41 1.14.39.4.03.78-.07 1.14-.22.18-.1.37-.17.5-.31-.24.06-.47.19-.73.25-.33.1-.68.1-1.02.05a2.47 2.47 0 0 1-1.01-.5c-.93-.87-1.52-2.02-2.43-2.9a3.3 3.3 0 0 0-1.23-.79 2.08 2.08 0 0 0-.88-.06Zm-.77 2.14c-.38.2-.7.5-1 .8-.23.2-.4.46-.6.69-.13.18-.26.36-.35.57.18-.12.27-.32.42-.46.17-.2.35-.39.54-.57.35-.3.7-.62 1.12-.83a2.19 2.19 0 0 1 1.98-.2c.55.23.91.71 1.2 1.2.24.4.45.82.69 1.22.2.34.46.68.82.87.34.22.76.25 1.16.28.47-.02.95-.1 1.4-.28.87-.3 1.68-.81 2.59-1.01.4-.12.83-.14 1.25-.07.18.01.35.08.54.08-.3-.13-.62-.23-.95-.25a1.96 1.96 0 0 0-.7.01c-.47.05-.9.2-1.34.35-.82.34-1.62.77-2.5.88a2.7 2.7 0 0 1-1.26-.14 2.64 2.64 0 0 1-1.04-1.03c-.19-.25-.31-.55-.5-.82a4.4 4.4 0 0 0-.74-1.03 2.06 2.06 0 0 0-1.24-.62c-.52-.09-1.04.1-1.49.36Zm6.6 5.67c.32.24.6.52.78.87.2.33.3.7.39 1.07.1.4.1.8.14 1.2.01.3 0 .59.03.88-.03.42-.01.85-.02 1.28.03.23.04.46.04.7.1.77.23 1.54.43 2.29.13.38.23.78.45 1.12.34.67.89 1.23 1.55 1.58.77.42 1.62.65 2.44.94.73.26 1.48.6 2.01 1.18.45.42.86.88 1.18 1.41.26.36.42.78.58 1.2a6.62 6.62 0 0 1 .14 3.2c-.16.77-.38 1.54-.68 2.28-.16.45-.32.9-.3 1.39-.01.34.07.7.28.98 0-.13-.08-.24-.12-.36-.1-.28-.1-.59-.05-.87.1-.5.3-.98.5-1.44.15-.36.27-.73.4-1.1l.16-.61c.25-1 .33-2.06.09-3.07-.2-.77-.55-1.5-1.04-2.14-.19-.3-.46-.52-.69-.8-.27-.25-.53-.51-.84-.72-.75-.52-1.66-.72-2.53-.98-.7-.23-1.42-.45-2-.92a3.26 3.26 0 0 1-.81-.88c-.44-.7-.6-1.52-.74-2.32-.07-.57-.19-1.13-.17-1.7-.08-.78.01-1.57-.07-2.35a5.44 5.44 0 0 0-.61-2.49c-.2-.32-.46-.62-.8-.82-.02-.02-.11-.07-.11 0Zm7.39 1.38c-.02.11.06.2.1.3.29.58.64 1.13 1.08 1.6.15.13.24.3.4.42.25.23.5.45.8.6.24.17.5.3.76.4.68.23 1.28.66 1.72 1.21.47.6.78 1.32.93 2.06.14.83.1 1.73-.32 2.47-.18.3-.4.57-.57.87-.26.35-.5.72-.72 1.1-.1.16-.14.33-.2.5-.1.3-.1.65.06.93.13.29.39.49.6.7.12.11.26.2.35.33.08.12.22.18.31.3.1.16.26.27.37.42.27.32.51.66.72 1.01.16.23.25.5.37.75.22.5.33 1.03.4 1.56.05.42.01.85-.15 1.24a9.69 9.69 0 0 1-1.37 2.22c-.24.37-.52.71-.7 1.12-.17.35-.34.76-.24 1.16.02.23.16.43.3.6.2.23.42.45.67.61.38.28.81.45 1.22.68.34.15.68.29 1.03.42.21.1.42.22.65.3.33.16.67.33.98.55.22.18.44.38.6.64-.01-.07-.02-.14-.06-.2a3.05 3.05 0 0 0-.9-.8c-.68-.42-1.42-.7-2.14-1.07a4.83 4.83 0 0 1-1.96-1.42c-.2-.27-.18-.64-.08-.95.09-.35.32-.63.5-.94.14-.26.35-.48.51-.73.53-.73 1.09-1.47 1.33-2.35.14-.49.1-1 0-1.5a5.9 5.9 0 0 0-.83-2.1 9.42 9.42 0 0 0-1.64-1.83c-.22-.22-.5-.38-.67-.65-.2-.26-.2-.61-.15-.93.05-.23.17-.45.28-.66.43-.75 1.01-1.4 1.41-2.18a4.5 4.5 0 0 0-.08-3.3c-.1-.3-.28-.54-.43-.81a4.91 4.91 0 0 0-.85-.93 4.3 4.3 0 0 0-1-.56 4.95 4.95 0 0 1-1.98-1.28 6.67 6.67 0 0 1-1.3-1.8c-.02-.04-.07-.14-.11-.08Zm-8.35 5.16c.14.2.26.42.45.57-.06-.16-.17-.3-.24-.45a4.22 4.22 0 0 1-.39-1.33c-.1.4-.06.86.18 1.2Zm2.88 2.63a1.4 1.4 0 0 0-.32.53c-.1.3-.17.61-.07.91.11.45.45.79.82 1.04.26.22.57.36.87.53.95.48 1.95.84 2.91 1.3.27.14.56.25.82.42.42.25.84.52 1.16.9l.3.44c.2.39.26.84.2 1.27-.14.77-.4 1.5-.62 2.25-.28.83-.52 1.68-.62 2.55a4.6 4.6 0 0 0 1.2 3.59c.25.27.51.55.82.76.3.26.63.48.98.67.66.4 1.38.68 2.1.94.63.16 1.24.4 1.84.65.44.2.87.42 1.3.64.57.34 1.13.69 1.63 1.13.34.26.61.59.83.95.11.16.14.35.2.54.03-.3-.12-.6-.28-.83-.14-.22-.3-.42-.48-.6a8.98 8.98 0 0 0-2.1-1.54c-.72-.42-1.5-.76-2.3-1.04-.78-.22-1.55-.52-2.27-.9a7.3 7.3 0 0 1-1.96-1.42c-.32-.31-.56-.69-.8-1.06-.11-.24-.24-.47-.31-.72A4.14 4.14 0 0 1 57 35.9c.14-1.5.76-2.88 1.1-4.33.1-.42.15-.87.02-1.29-.08-.37-.3-.7-.55-.98-.4-.42-.9-.75-1.4-1.03-.41-.21-.83-.43-1.26-.6-.77-.35-1.58-.63-2.34-1.01-.32-.19-.67-.35-.95-.6-.2-.2-.43-.41-.5-.7-.15-.39-.04-.82.14-1.18.04-.08.1-.16.11-.25Zm10.14 4.84c.01.05.04.06.1.02-.02-.05-.05-.06-.1-.02Zm.4.13c.48.13.96.3 1.41.51.7.32 1.4.72 1.89 1.33 0-.41-.23-.81-.58-1.03a4.53 4.53 0 0 0-1.57-.58l-1.15-.23Zm1.07 1.02c.06.09.14.17.21.25a6.04 6.04 0 0 1 1.56 4.12c.11.4.18.82.15 1.24-.04.93-.4 1.81-.8 2.64-.15.32-.24.68-.17 1.03.07.35.29.65.59.83a4.61 4.61 0 0 1-.07-2.07c.18-1.05.53-2.06.78-3.1a.49.49 0 0 1-.32-.34c-.13-.44-.09-.9-.05-1.35.05-.54.21-1.06.3-1.6-.1-.2-.24-.38-.39-.55a4.64 4.64 0 0 0-1.8-1.1Zm2.38 2.22a6.41 6.41 0 0 0-.4 2.11c.02.2.05.48.28.55.14-.6.25-1.21.24-1.83 0-.28-.02-.56-.12-.83ZM49.4 35.33a4.42 4.42 0 0 0-.35 2.44c.12.93.56 1.79.61 2.72.03.45-.09.88-.24 1.3.27.02.55-.02.76-.2.32-.24.5-.7.32-1.1-.05-.14-.18-.24-.27-.35.33.15.5.5.52.85.05-.3-.03-.6-.14-.87-.15-.43-.37-.82-.53-1.25a3.58 3.58 0 0 1-.18-1.47c.01-.18.07-.36.05-.54-.06-.77.14-1.55.48-2.24.1-.24.25-.45.38-.68a3.2 3.2 0 0 0-1.41 1.4Zm16.72 6.48c.31.25.63.5.88.81.1.13.24.2.37.3.3.22.58.49.81.79a3.2 3.2 0 0 0-2.06-1.9Zm-14.78.53a9.65 9.65 0 0 1-1.26 1.75c.08.19.23.33.38.47.15.12.3.26.47.34.22-.11.41-.25.62-.37l.39-.23.1-.6c0-.1.06-.23-.02-.34-.2-.36-.3-.76-.47-1.14l-.01-.17c-.1.07-.14.19-.2.29Zm-2.25 4.45a.35.35 0 0 0-.06.18c-.02.34-.15.66-.21.99l-.3.86c-.29.82-.6 1.65-.64 2.53 0 .42-.03.85.05 1.28.07.6.22 1.18.38 1.76.11.34.22.7.36 1.03.38 1.04.94 2.03 1.06 3.15.03.33.05.67-.03 1-.1.4-.29.77-.56 1.08-.33.43-.77.74-1.12 1.15a2.2 2.2 0 0 0-.44 1.18c-.07.95.36 1.84.43 2.77 0 .35.02.71-.12 1.05-.08.3-.28.56-.5.78-.28.25-.62.44-.98.58-.78.34-1.63.54-2.33 1.05.1 0 .18-.06.26-.1.2-.11.41-.2.62-.29.37-.16.76-.24 1.13-.4a3.6 3.6 0 0 0 1.58-.9c.35-.36.5-.86.54-1.35.04-.82-.23-1.6-.37-2.4-.06-.43-.1-.9.05-1.31.12-.34.33-.65.6-.89.57-.56 1.17-1.17 1.36-1.97a4.9 4.9 0 0 0-.25-2.46l-.46-1.24c-.17-.5-.36-.99-.48-1.5a10.7 10.7 0 0 1-.4-2.64c-.03-.9.26-1.77.5-2.63.2-.76.45-1.54.33-2.34Zm.58 16.87c-.17.45-.09.93-.02 1.4.37-.13.75-.26 1.06-.52.23-.18.4-.44.44-.73.05-.41-.06-.82-.16-1.22-.57.13-1.1.52-1.32 1.07Zm-1.42 4.16c.23-.16.43-.38.58-.62l-.58.62Z"/>
  <path fill="#6A281A" stroke="#6A281A" stroke-width=".07" d="M34.75 4.62c.3-.06.6-.12.91-.12.73 0 1.48.18 2.07.62.48.36.83.87 1.12 1.39.27.45.51.95.96 1.24.06.1.16.15.24.22l-.08.2c.04.1.11.18.1.29-.05.36-.04.72-.03 1.08.05.31.03.63.04.95v1.44c0 .18.03.36.04.54 0 .3-.02.6 0 .9.04.24-.03.48.02.7l-.04.07.06.07a7.92 7.92 0 0 1-2.77-.33 4.7 4.7 0 0 1-2.3-1.45c-.17.14-.37.27-.48.47-.15.24-.3.5-.5.7-.28.3-.65.53-1.04.66-.23.5-.23 1.1 0 1.6.3.66.82 1.2 1.13 1.86.25.5.31 1.1.14 1.64a2.8 2.8 0 0 1-.77 1.17c-.3.3-.66.58-.85.97-.15.34-.13.75.06 1.07.21.34.55.57.9.75-.13.05-.27-.02-.4-.04-.4-.21-.74-.55-.87-1-.08-.35-.05-.73.12-1.05.32-.6.91-.98 1.22-1.58.23-.43.29-.95.1-1.4-.22-.58-.66-1.02-1-1.52-.28-.36-.51-.77-.6-1.21-.08-.29-.07-.59-.06-.88-.45.32-.71.87-.72 1.42-.02.4.17.76.37 1.1.16.24.3.5.39.76.16.46.19.96.18 1.44.01.7-.12 1.43-.47 2.05a3.83 3.83 0 0 1-1.42 1.4.8.8 0 0 0-.36.42c-.12.35-.08.72-.02 1.07.05.3.17.58.13.88a2.77 2.77 0 0 1-.86 1.92c-.5.5-1.19.71-1.84.92-.46.16-.94.3-1.32.63a.95.95 0 0 0-.33.82c.03.36.2.69.38.98.32.48.84.76 1.32 1.04.31.2.63.39.9.64.25.3.54.56.78.87.73.86 1.33 1.89 1.45 3.03.12 1.16-.3 2.3-.96 3.25-.17.22-.22.51-.26.79.16-.1.33-.23.53-.22-.1.07-.21.11-.31.18a.72.72 0 0 0-.26.78c.1.36.4.6.74.74.43.18.89.3 1.35.33.5.06 1 .08 1.48 0l-.15-.03-.17-.06.24-.03a3.72 3.72 0 0 0-.21-.03c1-.1 1.96-.4 2.87-.81.64-.39 1.2-.88 1.76-1.37.29-.26.6-.51.84-.82.26.22.48.46.71.7l1.65 1.65v.01c-.43.52-.94.97-1.45 1.4-.44.4-.89.76-1.34 1.12.04-.18.2-.31.28-.48.43-.72.65-1.56.74-2.39.06-.43.07-.86.04-1.3-.07.24-.06.48-.08.72-.1.81-.24 1.63-.59 2.37-.14.34-.34.65-.55.94-.21.24-.45.46-.67.69l.1.01a5.64 5.64 0 0 1-4.3.97c-.47-.1-.91-.3-1.27-.6.2.03.39.17.6.2.39.09.78.03 1.16-.07.34-.11.67-.28.9-.55.28-.28.46-.63.62-.99l.52-1.26c.15-.38.42-.69.6-1.05-.28.2-.44.5-.63.77-.28.46-.5.95-.71 1.44-.1.25-.25.49-.41.7-.24.37-.63.62-1.04.74-.5.16-1.04.15-1.52-.04-.18-.06-.32-.19-.48-.27a9.12 9.12 0 0 1-1.3-1.82c-.18-.3-.33-.6-.52-.88-.06.17-.12.34-.14.52.02.21.08.42.14.63.13.7.32 1.37.55 2.04.18.48.37.96.72 1.34.34.35.77.6 1.22.81.74.34 1.54.54 2.34.7 1.1.2 2.22.3 3.33.23.28-.03.57-.03.83-.15.2-.1.29-.35.28-.57-.01-.48-.19-.95-.2-1.44 0-.23.06-.48.23-.65.2-.19.47-.26.73-.29.41-.05.83 0 1.24.04l.16.02c-.02.1-.03.2-.02.3.04.6.02 1.21.03 1.82 0 .17 0 .34.02.5.03.17-.01.33 0 .5.05.53-.02 1.07.05 1.6.02.1 0 .19-.03.28l.07.08-.02.03c-.12.07-.22.15-.3.26-.45.5-.76 1.15-.79 1.83-.07.74.1 1.48.4 2.16.2.44.46.84.74 1.24l.05.07c-.05.22-.02.44-.03.65v1c.1.75-.01 1.51.09 2.26v1.74c.06.45.03.9.04 1.36v1.32c.07.52.03 1.04.04 1.56.01.17-.08.4.07.53l-.1.09c-.23.18-.4.4-.58.63-.27.38-.43.85-.38 1.31.04.52.32.96.53 1.4.22.48.47.94.56 1.46l.03-.18c.08.17-.03.34-.05.52-.13.1-.25.23-.35.37-.38.54-.85 1.04-1.05 1.67-.13.38-.09.81.14 1.14.32.53.94.73 1.31 1.21.2.25.26.62.12.91-.16.35-.5.58-.85.7l-.17-.05.05-.1c.25-.08.49-.23.64-.45.11-.16.17-.36.12-.55a.86.86 0 0 0-.34-.45c-.33-.25-.73-.43-1.03-.74-.27-.26-.45-.6-.52-.96.12.51.23 1.04.13 1.57-.05.28-.17.54-.31.79-.18.33-.29.74-.14 1.1.13.34.43.58.75.74V78a1.68 1.68 0 0 1-1.14-.62 1.85 1.85 0 0 1-.31-1.32c.02-.27.14-.54.1-.82a2.33 2.33 0 0 0-.45-1.03c-.45-.63-1.02-1.17-1.52-1.77l.07.35-.05.17a7.6 7.6 0 0 1-.09-.13 3.73 3.73 0 0 0-.95-1.7l-.8-.88c.15.02.28.1.4.16.35.2.72.32 1.07.51.76.35 1.52.76 2.09 1.38.34.36.57.81.69 1.3.02.08.03.2.11.26a3.03 3.03 0 0 0-.76-1.68c-.52-.6-1.23-1-1.92-1.37-.44-.23-.9-.42-1.33-.66-.17-.1-.35-.17-.5-.28a.58.58 0 0 0-.29-.1c-.47-.47-1-.85-1.55-1.22-.03-.17-.15-.28-.24-.4a3.63 3.63 0 0 1-.74-2.32 4.6 4.6 0 0 1 .57-1.9c.7-1.36 1.97-2.3 2.84-3.55a6.11 6.11 0 0 0 1.13-3.63c.02-.44-.05-.88-.19-1.3a6.27 6.27 0 0 0-1.15-2.07c-.2-.26-.42-.48-.64-.72-.23-.24-.5-.46-.74-.7-.3-.31-.62-.6-.9-.92a4.39 4.39 0 0 1-.66-1.07c-.36-.81-.4-1.71-.66-2.55-.03.24.04.47.05.71.07.85.17 1.74.63 2.48.2.35.48.65.74.95.2.24.46.42.68.64.76.7 1.56 1.42 2 2.38.2.46.3.97.34 1.47a5.94 5.94 0 0 1-.7 3.64c-.4.8-1.02 1.44-1.6 2.1-.46.52-.89 1.06-1.25 1.65a5.64 5.64 0 0 0-.76 2.04c-.08.71 0 1.46.32 2.1.08.22.25.38.32.59a17 17 0 0 0-1.7-.9c.44.44.86.9 1.15 1.45.21.4.35.84.33 1.28-.02.37-.16.72-.38 1.02-.29.4-.7.7-.91 1.16l-.1-.16c.2-.44.56-.77.8-1.17.2-.31.28-.7.22-1.06a2.8 2.8 0 0 0-.74-1.35c-.75-.82-1.69-1.41-2.58-2.05-.28-.22-.64-.32-.96-.48a10.3 10.3 0 0 1-2.19-1.32 5.58 5.58 0 0 1-1.45-1.7c.16.63.45 1.22.84 1.74.49.6 1.16 1.02 1.76 1.5.56.41 1.15.79 1.66 1.26l.01.12-.06.03c-.57-.49-1.24-.83-1.86-1.24-.53-.36-1.08-.67-1.55-1.1a4.93 4.93 0 0 1-1.22-1.79 7.99 7.99 0 0 1-.54-2.2c-.07-.82.16-1.63.43-2.4.33-.88.75-1.72 1.22-2.52.1-.2.08-.44.09-.65-.52.57-1.14 1.03-1.74 1.51-.44.37-.88.75-1.2 1.24-.25.37-.4.8-.44 1.25-.03.27.02.54.04.8a2.86 2.86 0 0 1-.05-1.64c.14-.54.45-1 .8-1.43.57-.69 1.27-1.27 1.83-1.97.23-.3.47-.62.58-1-.16-.71-.43-1.4-.65-2.1-.27-.78-.51-1.57-.63-2.4-.14-1-.07-2.06.3-3.01-.2.1-.42.18-.65.2-.22.03-.45.02-.65.14a.73.73 0 0 0-.31.92c.17.26.34.52.48.8a4 4 0 0 1 .34 2.32c-.1.74-.45 1.44-.95 2a6.1 6.1 0 0 1-1.85 1.36c-.17.09-.37.14-.5.3 0-.06-.02-.12-.01-.18.12-.51.3-1 .56-1.46.19-.4.47-.73.67-1.1l.32-.6c.2-.46.33-.97.28-1.48-.07-.68-.32-1.33-.53-1.98a61.1 61.1 0 0 1-.41-1.32 6.85 6.85 0 0 1-.29-1.7 6.08 6.08 0 0 1 .77-3c.23-.44.52-.86.84-1.26.67-.9 1.5-1.69 2.35-2.43.69-.6 1.44-1.14 2-1.87.37-.46.68-.99.79-1.57.16-.67.02-1.38-.26-2-.57-1.3-1.6-2.34-2.22-3.6-.09-.25-.18-.5-.12-.76.06-.36.34-.66.66-.83.62-.36 1.35-.5 2.04-.68.46-.12.93-.21 1.36-.4.3-.12.63-.3.75-.62.18-.47.03-.97-.05-1.44-.07-.44-.17-.88-.16-1.33a2.7 2.7 0 0 1 .73-1.79c.37-.41.83-.73 1.3-1 .24-.14.45-.33.62-.55.13-.22.18-.5.1-.74-.1-.46-.4-.85-.63-1.26a7.85 7.85 0 0 1-.93-1.99c-.1-.38-.2-.77-.14-1.17.06-.44.3-.83.61-1.14a5.03 5.03 0 0 1 1.6-.97 12 12 0 0 1 2.44-.68c-.35-.03-.7.07-1.04.14-.65.13-1.28.34-1.88.6-.36.17-.73.35-1.03.61-.44.33-.78.82-.88 1.36-.08.37-.02.76.06 1.13.2.76.53 1.49.94 2.16.25.41.54.81.66 1.29a.7.7 0 0 1-.2.67c-.17.16-.35.3-.55.4-.37.2-.68.48-1 .74a3 3 0 0 0-.95 1.95c-.06.44.03.88.1 1.31.1.5.27 1.01.19 1.53-.06.34-.39.55-.68.68-1.13.46-2.4.53-3.48 1.14-.31.2-.6.49-.66.86-.05.45.12.89.36 1.25.29.5.62.98.94 1.46.39.64.83 1.26 1.08 1.97.2.57.25 1.19.1 1.77a3.8 3.8 0 0 1-.84 1.47c-.5.59-1.11 1.06-1.72 1.54-.21.2-.44.39-.66.58-.33.27-.61.6-.92.9-.36.33-.67.7-.97 1.09a7.88 7.88 0 0 0-1.47 2.74c-.14.47-.2.96-.23 1.46a8.35 8.35 0 0 0 .6 2.97l.48 1.4c.13.4.22.82.2 1.24.02.46-.16.9-.35 1.3-.3.63-.74 1.17-1 1.82-.22.46-.34.96-.42 1.46a.3.3 0 0 0 .05.25c-.12.76.14 1.51.21 2.27.02.84-.15 1.7-.62 2.41a3.63 3.63 0 0 1-1.72 1.34c-.52.2-1.07.34-1.63.37.66-.2 1.31-.5 1.83-.96.53-.48.84-1.18.92-1.88a5.82 5.82 0 0 0-.42-2.8 4.38 4.38 0 0 1-.2-2.44c.09-.42.24-.8.37-1.2-.36.56-.96.93-1.26 1.54-.2.4-.25.87-.16 1.31.2 1.15.9 2.12 1.16 3.25.15.68-.04 1.41-.49 1.94-.26.31-.6.56-.97.76-.4.22-.79.47-1.24.55-.67.14-1.4.1-1.98-.28-.3-.19-.56-.46-.64-.8-.09-.37.04-.73.23-1.04a3.7 3.7 0 0 1 1.24-1.15c-.1.06-.2.14-.23.25-.08.2.01.4.12.57.25.34.6.63 1 .74.4.12.88.07 1.2-.21.26-.24.36-.6.35-.95a3.02 3.02 0 0 0-.56-1.52c-.39-.6-.87-1.11-1.19-1.75a5.47 5.47 0 0 1-.66-2.68c.01-.34.1-.67.2-.99.15-.44.37-.86.7-1.2-.6.37-1.01.95-1.44 1.49-.47.59-1.1 1.01-1.62 1.55-.46.45-.8 1.03-.9 1.67-.03.31 0 .66.21.91.33.39.95.48 1.39.23.27-.16.45-.43.57-.7.13-.3.23-.6.37-.9-.02.3.07.58.08.88.05.5-.08 1.03-.4 1.43-.4.52-1.04.81-1.68.84a2.16 2.16 0 0 1-2-.94 2.82 2.82 0 0 1-.2-2.3c.22-.72.69-1.33 1.22-1.84-.23.05-.47.08-.71.05-.06 0-.17 0-.15-.1.39.04.77-.07 1.12-.22.12-.05.21-.14.31-.22.34-.3.71-.56 1.07-.83.23-.23.4-.52.5-.83.08-.27.01-.55-.05-.82-.14-.6-.4-1.18-.54-1.78-.07-.28-.14-.58-.03-.86.1-.31.4-.5.66-.66.2-.13.38-.28.54-.46a5.01 5.01 0 0 1 .23-2.51c-.21-.36-.49-.7-.64-1.08-.13-.33-.1-.72.1-1 .24-.37.63-.61 1-.81a9.8 9.8 0 0 1 2.28-.73c.48-.12.99-.2 1.43-.44.3-.16.57-.42.6-.78.02-.33-.1-.66-.27-.94a6.08 6.08 0 0 1-1.32-5.25c-.2.7-.22 1.43-.18 2.15.03.7.28 1.37.35 2.06.03.52-.14 1.04-.43 1.47-.33.52-.82.93-1.4 1.13l.07-.16a2.61 2.61 0 0 0 1.38-1.85c.11-.62-.18-1.21-.34-1.8a7.77 7.77 0 0 1-.26-1.8c-.04-.83.08-1.7.49-2.43.34-.62.9-1.14 1.6-1.35.2-.23.4-.46.64-.66.25-.22.56-.35.83-.54.02.05.02.1-.03.15-.2.25-.43.47-.68.67-.1.07-.2.15-.27.25.37-.14.63-.46.92-.71.5-.5.83-1.14 1-1.81.24-.85.21-1.74.19-2.6-.04-.36-.02-.72-.06-1.08-.03-.3 0-.59-.04-.88-.04-.48.01-.96.03-1.44.06-.55.17-1.1.46-1.59a5.33 5.33 0 0 1 1.7-1.77c.46-.32.92-.64 1.37-.98a5.1 5.1 0 0 0 1.49-1.65c.14-.28.26-.56.33-.86.16-.68.39-1.34.75-1.94.21-.31.43-.64.73-.87.2-.16.41-.29.63-.4.21-.1.44-.14.67-.2-.3-.02-.57.09-.83.2-.5.25-.93.64-1.24 1.1-.4.6-.68 1.27-.85 1.96a4.05 4.05 0 0 1-1.4 2.15c-.47.41-1 .74-1.52 1.09-.46.34-.95.66-1.35 1.08-.22.25-.45.5-.62.79a4.2 4.2 0 0 0-.56 1.65c-.1 1.07-.04 2.15.03 3.22.04.59.1 1.17.07 1.76a.6.6 0 0 1-.06.25 2.92 2.92 0 0 0-.27-.76c-.15-.3-.38-.53-.58-.79-.25-.3-.46-.64-.65-1-.1.44-.07.9.12 1.3.25.54.65 1 .83 1.59.08.3.1.63.02.94a1.2 1.2 0 0 1-.92.8 1.9 1.9 0 0 1-1.14-.07c-.3-.13-.6-.3-.75-.6-.17-.36-.16-.82.1-1.13a.88.88 0 0 1 1.01-.23c.2.08.33.24.44.42-.12-.12-.22-.26-.37-.34a.8.8 0 0 0-.96.16c-.24.27-.25.7-.08 1 .14.27.42.41.7.51.32.13.68.08 1.01 0 .3-.1.57-.32.63-.64.03-.27 0-.56-.11-.8-.25-.56-.69-1-.93-1.56a2.62 2.62 0 0 1-.02-1.98c.03-.1.1-.2.05-.31a5.54 5.54 0 0 1 .5-4.18 5.04 5.04 0 0 1 2.72-2.32c.44-.16.93-.2 1.37-.4.29-.12.55-.3.77-.53-.67-.03-1.35-.14-2.02-.06-.86.09-1.7.31-2.47.7-.59.31-1.13.75-1.43 1.34l-.12-.02c.19-.54.57-.99 1.01-1.35a7.22 7.22 0 0 1 3.78-1.41c.58-.03 1.17 0 1.74-.12.04-.21.05-.44.08-.66a4.46 4.46 0 0 1 4.6-3.78c.5.03.98.2 1.49.22.44 0 .9-.12 1.24-.43a2 2 0 0 0 .6-1.4c.05-.87.36-1.7.84-2.4-.6.53-.83 1.33-1.23 2-.23.36-.48.74-.88.93-.49.24-1.06.2-1.58.08v-.08c.24 0 .48.05.71.02.4-.03.81-.17 1.06-.5.46-.6.63-1.35.94-2.02.22-.48.56-.92 1-1.23.65-.45 1.42-.7 2.2-.82Zm-.38 3.34a4.1 4.1 0 0 0-1.22 1.63.19.19 0 0 0 .1-.07c.22-.27.43-.56.69-.8a4.45 4.45 0 0 1 2.42-1.36c.39-.05.78.06 1.12.24.32.2.64.42 1 .56.4.19.83.3 1.27.34.1.01.2-.02.3-.07-.1-.04-.2-.04-.3-.06-.67-.17-1.28-.5-1.93-.75-.26-.1-.52-.23-.8-.3a3.22 3.22 0 0 0-1.07-.08c-.58.08-1.12.36-1.58.72ZM22.38 19c-.27.13-.54.27-.76.47-.35.26-.59.63-.77 1-.19.45-.3.93-.3 1.4 0 .34-.01.68.03 1 .13 1.57.57 3.09.65 4.65.05.55 0 1.1-.16 1.63-.1.24-.22.5-.42.67-.2.22-.47.38-.7.57-.76.55-1.55 1.08-2.15 1.82-.4.52-.67 1.15-.7 1.8.03.48.04.97.23 1.4 0-.16-.06-.32-.08-.49a3.38 3.38 0 0 1 .13-1.65c.21-.62.68-1.1 1.15-1.53.66-.58 1.42-1.03 2.12-1.56.23-.2.43-.43.57-.7.14-.32.23-.67.27-1.01.09-1-.08-1.98-.25-2.95-.2-1.23-.52-2.46-.49-3.72 0-.45.08-.9.27-1.32.09-.27.28-.48.44-.7.1-.15.25-.23.37-.35.27-.23.6-.36.92-.52a.9.9 0 0 0-.37.1Zm5.32 13.07c.05.15.15.27.22.4.26.44.53.88.7 1.36.08.24.19.47.23.72.15.57.15 1.23-.21 1.72-.28.38-.59.73-.94 1.05-.31.26-.61.55-.95.78-.31.26-.65.48-.96.74-.47.33-.9.7-1.32 1.1-.26.27-.5.55-.73.85-.42.6-.7 1.27-.94 1.96-.17.42-.27.86-.38 1.3-.2.94-.3 1.93-.15 2.89.03-.42 0-.83.03-1.25a11.7 11.7 0 0 1 1.1-3.83c.25-.52.59-1 .97-1.43.24-.29.53-.52.8-.77.33-.24.63-.52.97-.76.56-.42 1.12-.83 1.63-1.3.17-.19.36-.36.53-.54.3-.35.62-.7.76-1.15.16-.58.05-1.2-.16-1.75-.2-.62-.56-1.17-.91-1.72-.09-.13-.17-.27-.3-.37Zm.97 6.3c-.23.4-.47.78-.81 1.09-.29.25-.53.54-.83.78l-.62.61c-.18.17-.32.38-.5.54-.29.35-.59.7-.8 1.1-.26.42-.43.89-.57 1.36-.26.95-.4 1.93-.47 2.92-.02.82-.01 1.65.1 2.47.14.85.38 1.67.7 2.46.35.93.74 1.85.98 2.82.25.98.3 2.04-.02 3.01-.5 1.53-1.64 2.73-2.15 4.25-.1.3-.2.63-.19.96.15-.33.23-.68.35-1 .29-.63.68-1.18 1.1-1.72.18-.25.38-.48.54-.74.14-.22.3-.43.4-.67.08-.19.2-.36.27-.55.07-.17.12-.35.18-.52.3-.97.26-2 .06-2.99-.12-.48-.23-.97-.42-1.43-.12-.36-.26-.7-.4-1.05-.2-.35-.32-.74-.52-1.1-.18-.45-.4-.9-.48-1.4-.11-.43-.14-.87-.2-1.3-.03-.26-.01-.51-.05-.76-.03-.98.06-1.98.32-2.93.22-.84.6-1.64 1.15-2.32.23-.26.44-.52.68-.76.31-.33.66-.64.95-1 .53-.52.9-1.17 1.27-1.82.34-.62.73-1.22 1.03-1.86-.53.38-.72 1.02-1.05 1.55Zm8.52 1.75c-.24.44-.42.9-.56 1.38-.27.81-.37 1.7-.84 2.43-.37.61-1.02 1-1.7 1.21.17 0 .35 0 .51-.05.32-.15.63-.32.9-.56.2-.14.33-.35.47-.55.36-.55.49-1.2.65-1.83.18-.71.38-1.43.71-2.09.05-.15.17-.28.2-.44-.16.13-.24.33-.34.5Zm-8.35.16c-.46.47-.98.89-1.4 1.4a6.78 6.78 0 0 0-1.76 2.74 3.82 3.82 0 0 0 .2 2.63c.2.5.48.97.77 1.42.38.58.82 1.1 1.22 1.67.46.64.89 1.33 1.13 2.08.17.52.3 1.05.31 1.6 0 .3.01.61-.05.91-.1.53-.26 1.05-.47 1.55-.17.37-.3.76-.5 1.12-.33.74-.65 1.48-.86 2.27a5.5 5.5 0 0 0-.16 2.82c.2.81.66 1.53 1.21 2.14.05.05.12.1.2.07.09-.02.16-.14.09-.23-.11-.15-.24-.29-.34-.45a4.74 4.74 0 0 1-.65-1.9c-.09-.5-.18-1.02-.16-1.53 0-.45.13-.9.28-1.32.41-1.31 1.04-2.55 1.4-3.88.27-1 .3-2.05.05-3.05a6 6 0 0 0-.89-1.93c-.47-.76-1-1.48-1.45-2.26-.13-.21-.2-.45-.32-.67a4.38 4.38 0 0 1 .06-4.05c.38-.77.93-1.43 1.5-2.06l.66-.69.01-.07c.14-.04.31-.23.17-.36-.07-.09-.19-.05-.25.03Zm-11.6.07c-.31.15-.67.21-1.02.28-1.05.2-2.16.33-3.1.9-.3.19-.64.46-.62.86.03.44.3.81.49 1.2l.23-.44a4.54 4.54 0 0 1 2.53-2.06c.32-.1.67-.14.97-.3.2-.12.4-.26.53-.44ZM12.52 47c-.19.13-.4.23-.56.4a.57.57 0 0 0-.12.5c.14.9.6 1.74.63 2.65.01.25-.08.48-.16.7.32-.22.61-.5.82-.82.46-.68.57-1.56.37-2.35-.08-.33-.34-.58-.49-.87-.08-.13-.12-.3-.2-.42l-.3.21Z"/>
  <path fill="#59291E" stroke="#59291E" stroke-width=".07" d="M49.41 6.23c.31-.01.58-.2.87-.28-.26.13-.5.3-.79.36a.92.92 0 0 1-.75-.2l.07-.14c.17.14.37.27.6.26Z"/>
  <path fill="#6D3322" stroke="#6D3322" stroke-width=".07" d="M43.62 6.96c.3-.05.6 0 .88.06.46.16.88.44 1.23.79.9.88 1.5 2.03 2.43 2.9.3.23.64.42 1.01.5.34.04.7.05 1.02-.05.26-.06.49-.19.74-.25-.13.14-.33.21-.5.3-.36.16-.75.26-1.15.23-.41.02-.79-.2-1.14-.4-.22-.2-.47-.38-.66-.61-.57-.7-1.04-1.49-1.57-2.22-.14-.19-.3-.36-.47-.52-.18-.2-.41-.32-.64-.44-.59-.3-1.32-.15-1.83.22-.32.18-.57.45-.82.71-.3.36-.59.73-.8 1.14a.51.51 0 0 1-.16.18c.03-.29.22-.52.33-.79.18-.28.37-.56.58-.82.41-.43.91-.84 1.52-.93Z"/>
  <path fill="#7A3623" stroke="#7A3623" stroke-width=".07" d="M34.38 7.96c.45-.36 1-.64 1.57-.72.36-.04.72 0 1.07.08.28.07.54.2.8.3.65.25 1.26.58 1.93.75.1.02.2.02.3.06-.1.05-.2.08-.3.07a3.78 3.78 0 0 1-1.26-.34c-.36-.14-.69-.35-1.01-.56a1.95 1.95 0 0 0-1.12-.24c-.95.12-1.75.71-2.42 1.36-.26.24-.47.53-.69.8a.19.19 0 0 1-.1.07 4.1 4.1 0 0 1 1.23-1.63Z"/>
  <path fill="#522A22" stroke="#522A22" stroke-width=".07" d="M50.97 7.82c.22-.27.65-.37.93-.12-.13-.05-.25-.1-.38-.08a.65.65 0 0 0-.44.31l-.1-.1Z"/>
  <path fill="#6D3322" stroke="#6D3322" stroke-width=".07" d="M42.85 9.1c.45-.26.97-.45 1.5-.36.46.06.91.27 1.23.62.3.3.54.66.75 1.03.18.27.3.57.5.82.25.42.58.81 1.03 1.03.4.17.83.17 1.25.14.9-.1 1.7-.54 2.51-.88.43-.15.87-.3 1.33-.35.24-.05.47-.05.7-.01.33.02.66.12.96.25-.19 0-.36-.07-.54-.08a2.89 2.89 0 0 0-1.25.07c-.92.2-1.72.7-2.59 1-.45.18-.93.27-1.4.29-.4-.03-.82-.06-1.16-.28a2.3 2.3 0 0 1-.82-.87c-.24-.4-.45-.82-.68-1.22-.3-.49-.66-.97-1.2-1.2a2.19 2.19 0 0 0-2 .2c-.41.2-.76.52-1.1.83-.2.18-.38.37-.55.57-.15.14-.24.35-.42.46.09-.21.22-.4.35-.57.2-.23.37-.49.6-.69.3-.3.62-.6 1-.8Z"/>
  <path fill="#793623" stroke="#793623" stroke-width=".07" d="M27.2 11.48c.26-.11.54-.22.83-.2-.22.06-.46.1-.66.2-.22.11-.44.24-.64.4-.3.23-.51.56-.73.87-.36.6-.58 1.26-.75 1.94-.07.3-.19.58-.33.86a5.1 5.1 0 0 1-1.48 1.65c-.46.34-.91.66-1.38.98a5.33 5.33 0 0 0-1.7 1.77c-.28.48-.4 1.04-.45 1.6-.02.47-.08.95-.03 1.43.03.3 0 .59.03.88.04.36.03.72.06 1.07.02.87.06 1.76-.18 2.6a3.96 3.96 0 0 1-1 1.82c-.3.25-.55.57-.92.7.07-.09.16-.17.26-.24.26-.2.49-.42.69-.67.04-.04.04-.1.02-.15.3-.22.5-.54.66-.87.23-.5.3-1.05.2-1.59a.6.6 0 0 0 .06-.25c.03-.59-.02-1.17-.06-1.76a18.93 18.93 0 0 1-.04-3.22 4.2 4.2 0 0 1 .57-1.65c.16-.3.39-.54.61-.8.4-.4.89-.73 1.35-1.07.52-.35 1.05-.68 1.52-1.09a4.05 4.05 0 0 0 1.4-2.15c.18-.7.45-1.36.85-1.95.3-.47.74-.86 1.24-1.1Z"/>
  <path fill="#7A3623" stroke="#7A3623" stroke-width=".07" d="M32.93 12.17c.35-.07.69-.17 1.04-.14-.83.16-1.66.34-2.44.68-.58.22-1.13.55-1.6.97-.3.3-.55.7-.61 1.14-.06.4.03.8.14 1.17.2.72.55 1.37.93 2 .23.4.53.79.64 1.25.07.25.02.52-.11.74-.17.22-.38.4-.62.54-.47.28-.93.6-1.3 1.01a2.7 2.7 0 0 0-.73 1.8c-.01.44.09.88.16 1.32.08.47.23.97.05 1.44-.12.32-.44.5-.75.61-.43.2-.9.29-1.36.41-.7.18-1.42.32-2.04.68-.32.17-.6.47-.66.83-.06.26.03.51.12.75.63 1.27 1.65 2.3 2.22 3.6.29.63.42 1.34.26 2a3.7 3.7 0 0 1-.78 1.58c-.57.73-1.32 1.28-2.01 1.87-.85.74-1.68 1.52-2.35 2.43-.32.4-.6.82-.84 1.27-.5.91-.79 1.95-.77 3 .03.57.12 1.14.29 1.7l.41 1.31c.21.65.46 1.3.53 1.98.05.5-.09 1.02-.28 1.48l-.31.6c-.2.37-.5.7-.68 1.1-.26.45-.44.95-.56 1.46-.01.06 0 .12.01.18-.06.1-.1.22-.13.34a.3.3 0 0 1-.05-.25c.08-.5.2-1 .42-1.46.26-.65.7-1.2 1-1.82.2-.4.37-.84.36-1.3a3.6 3.6 0 0 0-.21-1.24l-.47-1.4a8.35 8.35 0 0 1-.6-2.97c.01-.5.08-.99.22-1.46.29-1 .82-1.93 1.47-2.74.3-.38.61-.76.97-1.1.3-.3.59-.62.92-.89.22-.2.45-.38.66-.58.6-.48 1.22-.95 1.72-1.54.37-.43.7-.92.83-1.47.16-.58.1-1.2-.09-1.77-.25-.7-.69-1.33-1.08-1.97-.32-.48-.65-.95-.94-1.46-.24-.36-.41-.8-.36-1.25.06-.37.35-.67.66-.86 1.08-.6 2.35-.68 3.48-1.14.3-.13.62-.34.68-.68.08-.52-.09-1.02-.18-1.53-.07-.43-.17-.87-.11-1.31a3 3 0 0 1 .95-1.95c.32-.26.63-.54 1-.74.2-.1.38-.24.55-.4a.7.7 0 0 0 .2-.67c-.12-.48-.41-.88-.66-1.3a7.47 7.47 0 0 1-.93-2.15 2.6 2.6 0 0 1-.07-1.13c.1-.54.44-1.03.88-1.36.3-.26.67-.44 1.03-.62.6-.25 1.23-.46 1.88-.6Z"/>
  <path fill="#6D3321" stroke="#6D3321" stroke-width=".07" d="M49.46 14.77c0-.07.09-.02.12 0 .33.2.6.5.79.82.43.76.58 1.63.61 2.49.08.78 0 1.57.07 2.35-.01.57.1 1.13.17 1.7.13.8.3 1.62.74 2.32.22.33.48.65.8.88.59.47 1.32.7 2.02.92.86.26 1.77.46 2.52.98.31.2.58.47.85.73.22.27.5.5.69.8.48.62.84 1.36 1.03 2.13a6.6 6.6 0 0 1-.08 3.07c-.06.2-.1.41-.17.62-.13.36-.24.73-.39 1.09-.2.46-.41.93-.5 1.44-.06.28-.05.59.04.87.04.12.12.23.12.36-.2-.28-.3-.64-.28-.98-.02-.48.15-.94.3-1.4.3-.73.53-1.5.69-2.28a6.62 6.62 0 0 0-.14-3.2c-.17-.4-.33-.83-.59-1.19-.32-.53-.73-1-1.18-1.41a4.9 4.9 0 0 0-2-1.18c-.83-.29-1.68-.52-2.44-.94a3.7 3.7 0 0 1-1.56-1.58c-.22-.34-.31-.74-.45-1.12-.2-.75-.33-1.52-.42-2.3 0-.23-.02-.46-.04-.7 0-.42-.01-.85.02-1.27-.04-.3-.02-.59-.03-.88-.05-.4-.05-.8-.15-1.2-.1-.37-.18-.74-.38-1.07a2.65 2.65 0 0 0-.78-.87Z"/>
  <path fill="#62270F" stroke="#62270F" stroke-width=".07" d="m47.41 15.23.1.06v.72l.1-.06c-.07.32-.26.6-.5.83-.15.15-.33.29-.55.31.25-.1.46-.28.6-.5.29-.4.4-.9.25-1.36Z"/>
  <path fill="#6D3321" stroke="#6D3321" stroke-width=".07" d="M56.84 16.15c.05-.06.1.04.12.07.32.67.76 1.29 1.29 1.81a4.95 4.95 0 0 0 1.98 1.28c.36.13.69.34 1 .56.32.28.62.58.85.93.16.27.34.52.43.81a4.5 4.5 0 0 1 .08 3.3c-.4.78-.98 1.43-1.4 2.18-.12.21-.23.43-.3.66-.04.32-.04.67.16.93.17.27.45.43.67.65a9.42 9.42 0 0 1 1.64 1.83c.41.64.7 1.36.83 2.1.1.5.14 1.01 0 1.5-.24.88-.8 1.62-1.32 2.35-.17.25-.37.47-.52.73-.18.3-.4.6-.5.94-.1.3-.12.68.09.95a4.84 4.84 0 0 0 1.95 1.42c.72.36 1.47.66 2.15 1.07.33.22.66.47.89.8.04.06.05.13.06.2a2.7 2.7 0 0 0-.6-.64c-.3-.22-.64-.39-.98-.55-.23-.08-.44-.2-.65-.3-.35-.13-.7-.27-1.03-.42-.4-.23-.84-.4-1.21-.68a3.64 3.64 0 0 1-.68-.6c-.14-.18-.28-.38-.3-.61-.1-.4.07-.8.24-1.16.18-.4.47-.75.7-1.12.53-.7 1.05-1.4 1.37-2.22.16-.39.2-.82.16-1.24a6.05 6.05 0 0 0-.4-1.56c-.13-.25-.22-.52-.38-.75-.2-.35-.45-.7-.72-1-.11-.16-.26-.27-.37-.42-.08-.13-.23-.19-.31-.31-.09-.14-.23-.21-.34-.32-.22-.22-.48-.42-.61-.71a1.19 1.19 0 0 1-.06-.92c.06-.18.11-.35.2-.51.22-.38.46-.75.72-1.1.17-.3.39-.58.57-.87.42-.74.46-1.64.32-2.47a4.9 4.9 0 0 0-.92-2.06 3.86 3.86 0 0 0-1.72-1.2c-.27-.11-.53-.24-.76-.4-.3-.16-.56-.38-.8-.61-.16-.11-.26-.29-.41-.42a6.48 6.48 0 0 1-1.08-1.6c-.04-.1-.12-.19-.1-.3Z"/>
  <path fill="#522A22" stroke="#522A22" stroke-width=".07" d="M17.03 18.6c-.03-.35 0-.7.12-1.03l.12.02c-.16.31-.21.66-.24 1Z"/>
  <path fill="#793623" stroke="#793623" stroke-width=".07" d="M22.38 19a.9.9 0 0 1 .37-.09c-.31.16-.65.29-.92.52-.12.12-.27.2-.37.34-.16.23-.35.44-.44.7-.18.42-.27.88-.27 1.33-.03 1.26.29 2.49.5 3.72.17.97.33 1.96.24 2.95a3.3 3.3 0 0 1-.27 1c-.14.28-.34.51-.57.7-.7.54-1.46 1-2.12 1.57-.47.43-.94.91-1.15 1.53-.2.53-.2 1.1-.13 1.65.02.17.08.33.08.5-.18-.44-.2-.93-.22-1.4.02-.66.3-1.3.7-1.8.59-.75 1.38-1.28 2.14-1.83.23-.2.5-.35.7-.57.2-.18.32-.43.42-.67a4.2 4.2 0 0 0 .16-1.63c-.08-1.56-.52-3.08-.65-4.64-.04-.33-.02-.67-.03-1 0-.48.12-.96.3-1.4.18-.38.42-.75.77-1 .22-.2.5-.35.76-.48Z"/>
  <path fill="#D28C37" stroke="#D28C37" stroke-width=".07" d="M48.49 21.3a1.5 1.5 0 0 1-.18-1.2c.07.46.17.91.39 1.33.07.15.18.29.24.45-.19-.15-.31-.37-.45-.57Z"/>
  <path fill="#70280D" stroke="#70280D" stroke-width=".07" d="M35.04 23.56c.26-.02.48-.15.67-.32-.22.3-.6.4-.96.42a2.77 2.77 0 0 1-1.46-.38c.13.02.26.09.39.04.42.19.9.31 1.36.24Z"/>
  <path fill="#6D3321" stroke="#6D3321" stroke-width=".07" d="M51.37 23.94c0 .1-.07.17-.1.25-.2.36-.3.8-.16 1.19.08.28.3.49.51.68.28.26.63.42.95.61.76.38 1.57.66 2.34 1.01.44.17.85.39 1.26.6.51.28 1 .6 1.4 1.03.25.29.47.61.55.98.13.42.09.87-.01 1.29-.35 1.45-.97 2.83-1.11 4.33a4.13 4.13 0 0 0 .22 1.93c.07.25.2.48.31.72.24.37.48.75.8 1.06a7.3 7.3 0 0 0 1.96 1.42c.73.38 1.49.68 2.28.9.8.28 1.57.62 2.3 1.04.76.42 1.48.92 2.09 1.55.19.17.34.37.48.59.16.24.31.53.28.83-.06-.19-.09-.38-.2-.54-.22-.36-.5-.7-.83-.95-.5-.44-1.06-.8-1.63-1.13-.43-.22-.86-.45-1.3-.64a14.4 14.4 0 0 0-1.84-.65c-.72-.26-1.44-.53-2.1-.94a5.5 5.5 0 0 1-.98-.67c-.3-.21-.56-.49-.81-.76a4.6 4.6 0 0 1-1.2-3.6c.1-.86.33-1.7.6-2.54.23-.74.5-1.48.63-2.25.06-.43 0-.88-.2-1.27-.09-.15-.2-.3-.3-.44a4.16 4.16 0 0 0-1.16-.9c-.26-.17-.55-.28-.82-.42-.96-.46-1.96-.82-2.91-1.3-.3-.17-.6-.31-.87-.53a1.9 1.9 0 0 1-.82-1.04c-.1-.3-.03-.62.07-.9.07-.2.17-.4.32-.54Z"/>
  <path fill="#E4A24F" stroke="#E4A24F" stroke-width=".07" d="M34.54 26.02c.27-.04.53-.04.8 0l-.34.03h-.12l-.34-.03Z"/>
  <path fill="#060709" stroke="#060709" stroke-width=".07" d="M34.88 26.05H35a4.17 4.17 0 0 1 4.04 3.34l.01.04.01.04c.62.03 1.23 0 1.84 0 .07 0 .15.01.21-.03a4.18 4.18 0 1 1-.08 1.19c-.64 0-1.28-.02-1.92.01a4.2 4.2 0 0 1-2.67 3.5 4.2 4.2 0 0 1-5.4-2.44 4.2 4.2 0 0 1 3.84-5.65Zm-.27.6a3.51 3.51 0 0 0-.52 6.95 3.53 3.53 0 0 0 4.24-2.68 3.53 3.53 0 0 0-3.72-4.26Zm10.02.2a3.5 3.5 0 0 0-2.01 5.85 3.5 3.5 0 0 0 4.58.54 3.53 3.53 0 0 0-2.57-6.39Z"/>
  <path fill="#FDD05D" stroke="#FDD05D" stroke-width=".07" d="M34.6 26.66a3.52 3.52 0 1 1 .57 7.02 3.52 3.52 0 0 1-.56-7.02Z"/>
  <path fill="#D7B259" stroke="#D7B259" stroke-width=".07" d="M44.63 26.85a3.55 3.55 0 0 1 3.79 2 3.55 3.55 0 0 1-1.22 4.4 3.53 3.53 0 0 1-4.51-5.38c.51-.53 1.2-.9 1.94-1.02Z"/>
  <path fill="#935E51" stroke="#935E51" stroke-width=".07" d="M61.51 28.78c.05-.04.08-.03.1.02-.06.04-.09.03-.1-.02Z"/>
  <path fill="#210100" stroke="#210100" stroke-width=".07" d="M39.05 29.43h2.07c-.06.05-.14.05-.21.05-.62-.01-1.23.02-1.84-.01l-.02-.04Z"/>
  <path fill="#793623" stroke="#793623" stroke-width=".07" d="M27.7 32.07c.13.1.2.24.3.37.34.55.7 1.1.9 1.72.21.56.32 1.17.16 1.75-.14.45-.46.8-.75 1.15l-.54.53c-.5.48-1.07.9-1.62 1.31-.34.24-.64.52-.97.76-.28.25-.57.48-.8.77-.4.43-.73.9-.97 1.42a11.7 11.7 0 0 0-1.1 3.84c-.04.42 0 .83-.03 1.25a7.92 7.92 0 0 1 .14-2.9c.12-.43.21-.87.38-1.3.23-.68.52-1.36.94-1.95.23-.3.47-.58.73-.84.41-.4.86-.78 1.32-1.11.31-.26.65-.48.96-.74.34-.23.64-.52.96-.78.34-.32.65-.67.93-1.05.37-.49.36-1.15.22-1.72-.05-.25-.16-.48-.24-.72-.17-.48-.43-.92-.7-1.36-.07-.13-.17-.25-.22-.4Z"/>
  <path fill="#fff" stroke="#fff" stroke-width=".07" d="M16.09 32.77a6.63 6.63 0 0 0-.07 2.2l-.1-.05a6.38 6.38 0 0 1 .17-2.15Z"/>
  <path fill="#6E3321" stroke="#6E3321" stroke-width=".07" d="M53.54 33.28c.11-.13.18-.3.33-.4-.07.2-.21.36-.32.53-.48.69-.9 1.42-1.23 2.2-.08.26-.18.5-.25.77a5.3 5.3 0 0 0-.14 1.26c.03.38.06.77.18 1.13.26.84.67 1.63 1.14 2.37.33.45.67.9 1.08 1.28a11 11 0 0 0 3.01 2.02c1.17.53 2.4.87 3.6 1.32.72.26 1.41.6 2.08.97a8 8 0 0 1 3.16 3.88c.04.11.1.21.18.29l.03.03-.1-.03c.36 1 .53 2.07.43 3.13-.09.7-.26 1.42-.63 2.03-.1.14-.16.3-.3.4.07-.18.2-.34.29-.53a6.11 6.11 0 0 0 .19-4.27c-.1-.4-.28-.8-.43-1.18-.1-.27-.26-.5-.37-.75a7.83 7.83 0 0 0-2.25-2.54c-.36-.27-.78-.47-1.17-.69-.28-.16-.59-.26-.88-.39-.5-.23-1.03-.41-1.54-.6-.33-.11-.63-.27-.96-.37-.49-.2-.97-.4-1.43-.63a11.49 11.49 0 0 1-3.76-2.8c-.26-.27-.47-.6-.67-.9-.17-.29-.37-.57-.5-.88l-.38-.93a4.96 4.96 0 0 1-.24-1.48c.03-.36.05-.73.15-1.08A7.7 7.7 0 0 1 53 34.01c.18-.24.33-.5.54-.73Z"/>
  <path fill="#D68B30" stroke="#D68B30" stroke-width=".07" d="M49.4 35.33a3.2 3.2 0 0 1 1.4-1.4c-.12.24-.26.45-.37.7-.34.68-.54 1.46-.48 2.23.02.18-.04.36-.05.54-.05.5.02 1 .18 1.47.16.43.38.82.53 1.25.1.28.2.58.14.87-.02-.35-.19-.7-.52-.85.1.11.22.21.27.36.17.38 0 .85-.32 1.1-.21.17-.5.2-.76.19.15-.42.27-.85.24-1.3-.05-.93-.49-1.8-.62-2.72-.11-.82.01-1.68.36-2.44Z"/>
  <path fill="#7A3623" stroke="#7A3623" stroke-width=".07" d="M28.67 38.37c.32-.53.52-1.17 1.05-1.55-.3.64-.69 1.24-1.03 1.86-.36.65-.75 1.3-1.27 1.83-.3.35-.64.66-.95.99-.24.24-.46.5-.68.76a6.34 6.34 0 0 0-1.15 2.32 9.73 9.73 0 0 0-.32 2.93c.04.25.01.5.05.76.05.43.09.87.2 1.3.08.5.3.95.48 1.41.2.35.32.74.51 1.1.15.34.29.68.4 1.04.2.46.31.95.43 1.43.2.99.23 2.02-.06 2.99l-.18.52c-.08.19-.2.36-.27.55-.1.24-.26.45-.4.67-.16.26-.37.5-.54.74-.42.54-.82 1.1-1.1 1.71-.12.33-.2.68-.35 1 0-.32.1-.64.2-.95.5-1.52 1.64-2.72 2.14-4.24.31-.98.27-2.04.02-3.02-.24-.97-.64-1.89-.99-2.82-.31-.8-.56-1.61-.69-2.46a14.9 14.9 0 0 1-.1-2.47c.07-.99.2-1.97.46-2.92.15-.47.32-.94.57-1.37.22-.4.52-.74.8-1.09.19-.16.32-.37.5-.54l.63-.61c.3-.24.54-.53.83-.78.34-.3.58-.7.81-1.09Z"/>
  <path fill="#060709" stroke="#060709" stroke-width=".07" d="M38.02 38.51c.84.48 1.67.98 2.51 1.48l.1.05c.85-.5 1.69-1.02 2.54-1.53l-.22.23c-.8.76-1.56 1.56-2.36 2.34l-1.64-1.65c-.23-.24-.46-.48-.7-.7a2.15 2.15 0 0 1-.23-.22Z"/>
  <path fill="#522A22" stroke="#522A22" stroke-width=".07" d="M13.28 39.87c.4-.15.83-.26 1.22-.45l-.08.16c-.37.12-.75.21-1.14.29Z"/>
  <path fill="#562924" stroke="#562924" stroke-width=".07" d="M66.1 40.07c.28-.15.5-.39.67-.64a1.73 1.73 0 0 1-1.95.92l.18-.04a13.6 13.6 0 0 0-.12-.06l.09-.01c.38.08.8.03 1.14-.17Z"/>
  <path fill="#793624" stroke="#793624" stroke-width=".07" d="M38.79 40.16c.02-.24 0-.48.08-.71.02.43.02.86-.04 1.3-.09.82-.3 1.66-.74 2.38-.08.17-.24.3-.28.48-.24.2-.48.4-.73.56l-.1-.01c.22-.23.45-.45.67-.7.21-.28.4-.6.55-.93.35-.74.49-1.56.59-2.37ZM37.2 40.12c.1-.17.17-.37.32-.5-.02.16-.14.29-.19.44a9.64 9.64 0 0 0-.7 2.1c-.17.62-.3 1.27-.66 1.82-.14.2-.28.41-.48.55-.26.24-.57.41-.9.56-.15.05-.33.06-.5.05.68-.2 1.32-.6 1.7-1.21.47-.74.57-1.62.84-2.43.14-.48.32-.94.56-1.38Z"/>
  <path fill="#7A3623" stroke="#7A3623" stroke-width=".07" d="M28.84 40.28c.06-.08.18-.12.25-.03.14.13-.03.32-.17.36l-.01.07-.67.69a9.49 9.49 0 0 0-1.48 2.06 4.37 4.37 0 0 0-.06 4.05c.1.22.18.46.31.67.44.78.98 1.5 1.45 2.26a6 6 0 0 1 .89 1.93c.25 1 .21 2.06-.06 3.05-.35 1.33-.98 2.57-1.4 3.88-.14.43-.27.87-.27 1.32-.02.51.07 1.02.16 1.53.12.66.26 1.34.65 1.9.1.16.23.3.34.45.07.09 0 .21-.1.23-.07.04-.14-.02-.19-.07a5.02 5.02 0 0 1-1.2-2.14 5.5 5.5 0 0 1 .15-2.82c.2-.79.53-1.53.87-2.27.18-.36.32-.75.49-1.12.21-.5.36-1.02.47-1.55a5.27 5.27 0 0 0-.26-2.5 7.63 7.63 0 0 0-1.13-2.1c-.4-.55-.84-1.08-1.22-1.66-.3-.45-.57-.92-.77-1.42a3.82 3.82 0 0 1-.2-2.63c.31-1.06.99-1.97 1.75-2.74.43-.51.95-.93 1.4-1.4Z"/>
  <path fill="#522A22" stroke="#522A22" stroke-width=".07" d="M64.81 40.47c.14.26.33.5.6.65.34.22.77.24 1.17.18-.27.08-.56.07-.84.02a1.52 1.52 0 0 1-.99-.76l.06-.1Z"/>
  <path fill="#793623" stroke="#793623" stroke-width=".07" d="M35.28 41.6c.19-.28.35-.59.63-.78-.18.36-.45.67-.6 1.05l-.52 1.26c-.16.36-.34.71-.62 1-.24.26-.56.43-.9.54-.38.1-.77.16-1.16.06-.21-.02-.4-.16-.6-.2-.15-.1-.27-.24-.4-.37.17.08.31.21.49.27.48.2 1.03.2 1.52.04.41-.12.8-.37 1.04-.73.16-.22.3-.46.4-.71.23-.49.44-.98.72-1.44Z"/>
  <path fill="#D68B30" stroke="#D68B30" stroke-width=".07" d="M40.67 41.17c.23.27.5.5.75.75.64.58 1.32 1.13 2 1.68a5.8 5.8 0 0 0 4.22 1.58 3.34 3.34 0 0 0 2.05-.7c.24.27.52.5.82.69-.43.29-.87.56-1.27.9-.26.21-.55.39-.85.54-.67.33-1.37.59-2.08.8-.82.24-1.66.44-2.51.5-.26 0-.55.02-.78-.12-.11-.06-.1-.21-.03-.3.14-.2.3-.39.43-.6.18-.29.35-.6.33-.95a.78.78 0 0 0-.36-.58c-.32-.23-.7-.33-1.08-.42a13.45 13.45 0 0 0-1.74-.27l.13-.02c0-.6-.02-1.2-.01-1.8 0-.56-.08-1.12-.02-1.68Z"/>
  <path fill="#6F2A08" stroke="#6F2A08" stroke-width=".07" d="M31.6 41.76c-.3-.07-.6-.22-.77-.48.12.12.25.23.41.3.48.2 1.02.2 1.53.15l.21.03-.24.03.17.06c-.44.01-.88.03-1.31-.09Z"/>
  <path fill="#D68B30" d="M54.7 29.13a1.5 1.5 0 0 0-.72-.63c-.6-.29-1.25-.42-1.85-.68a2.88 2.88 0 0 1-1.36-1.24 3.13 3.13 0 0 1-.34-1.44c.02-.28.13-.55.16-.84.05-.36.08-.78-.15-1.09.02.42 0 .84-.16 1.23-.12.4-.37.77-.43 1.2a1 1 0 0 0 .15.68c.27.43.7.73.92 1.18a.96.96 0 0 1-.22 1.23c.14-.27.33-.55.23-.87-.22-.7-1-1.01-1.28-1.68-.16-.39-.1-.83.05-1.2.16-.45.33-.92.3-1.4a1.83 1.83 0 0 0-.32-.95c-.15-.15-.3-.3-.48-.42.12.23.3.43.39.68.12.28.12.61-.01.9-.2.42-.62.68-.84 1.1-.09.17-.08.37-.1.55a.99.99 0 0 1 .08-.7c.2-.4.58-.69.7-1.12.08-.26-.02-.54-.17-.76-.41-.62-1.1-1.05-1.39-1.75-.3-.79-.07-1.69.4-2.36.12-.15.12-.35.18-.52.08-.32.24-.62.42-.9.18-.29.34-.6.37-.94a1.8 1.8 0 0 0-.69-1.57c-.41-.32-.96-.35-1.4-.62-.41-.24-.73-.61-.96-1.02a1.54 1.54 0 0 0-.77-.68c-.13.14-.29.25-.42.4-.02.2-.04.42.01.63.06.2.27.28.45.33.53.15 1.08.26 1.56.55.26.16.5.38.6.68.1.28.08.58 0 .86-.07.32-.26.6-.5.83-.15.15-.33.29-.55.31.25-.1.46-.28.6-.5.29-.4.4-.9.25-1.36a1.27 1.27 0 0 0-.76-.62c-.45-.17-.94-.2-1.4-.3a1.04 1.04 0 0 1-.72-.48c-.1-.16-.13-.35-.16-.54-.93.48-1.97.72-3.01.77-.37.06-.75.13-1.12.15-.04.03-.1.05-.09.11v.83c0 .26.05.52.04.79l.03 3.42c.05.7.03 1.4.04 2.1.04.54.02 1.08.05 1.62 0 .84.05 1.67.05 2.51 0 1.27.06 2.53.05 3.8-.46.01-.91 0-1.37 0l.01.04h2.06a4.18 4.18 0 1 1-.08 1.2c-.64 0-1.28-.02-1.92.01.44.04.9-.01 1.33.03 0 .46.05.93.04 1.4 0 .4 0 .8.02 1.2.03.38.01.77.02 1.16l.03 2.76c.05.69.03 1.38.05 2.06 0 .2.03.39.02.58 0 .07-.03.12-.09.16l.1.05 2.55-1.53-.22.23c.48.48 1 .92 1.52 1.36a8.26 8.26 0 0 0 2.17 1.33c.47.17.98.31 1.48.26.2-.02.38-.12.55-.21-.15.2-.4.28-.64.32.38.09.77.09 1.15.06.16-.48.24-1 .13-1.5-.16-.7-.52-1.36-.75-2.05-.32-.95-.35-2-.1-2.96.16-.64.5-1.22.95-1.7a6.76 6.76 0 0 1 2.14-1.4l.59-.25c.4-.16.83-.25 1.19-.5.29-.16.57-.35.81-.58.26-.25.43-.57.55-.9.1-.28.14-.61 0-.9Z"/>
  <path fill="#F99E2B" stroke="#F99E2B" stroke-width=".07" d="M40.68 42.85c.01-.56-.07-1.12-.01-1.68l-.06-.08c-.44.52-.95.97-1.46 1.4a41.23 41.23 0 0 1-2.07 1.68 5.64 5.64 0 0 1-4.3.97c-.47-.1-.9-.3-1.27-.6-.15-.11-.27-.25-.39-.38a9.12 9.12 0 0 1-1.3-1.82c-.18-.3-.33-.6-.51-.88-.06.17-.13.34-.15.52.02.21.08.42.14.63.13.7.33 1.37.55 2.04.18.48.37.96.72 1.34.34.35.77.6 1.22.81.74.34 1.54.54 2.34.7 1.1.2 2.22.3 3.33.23.28-.03.57-.03.83-.15.2-.1.29-.35.28-.57-.01-.48-.19-.95-.2-1.44 0-.23.06-.48.23-.65.2-.19.47-.26.73-.29.41-.05.83 0 1.24.04l.12-.02v-1.8Z"/>
  <path fill="#F99E2B" stroke="#F99E2B" stroke-width=".07" d="M40.6 39.25c-.02-.68 0-1.37-.05-2.06l-.03-2.76c0-.4.01-.78-.03-1.16l-.01-1.2c0-.47-.04-.94-.04-1.4-.44-.04-.89.01-1.33-.03a4.2 4.2 0 0 1-2.67 3.5 4.2 4.2 0 0 1-5.4-2.44 4.2 4.2 0 0 1 3.85-5.65c-.12 0-.23-.02-.35-.03.27-.04.54-.04.8 0l-.34.03a4.17 4.17 0 0 1 4.04 3.34c.46 0 .91.01 1.37 0 .01-1.27-.05-2.53-.05-3.8 0-.84-.05-1.67-.05-2.51-.04-.54-.01-1.08-.05-1.62-.01-.7.01-1.4-.04-2.1l-.03-3.42c0-.27-.04-.53-.03-.79 0-.27-.02-.55-.01-.83-.01-.05.05-.08.09-.11h-.08a7.92 7.92 0 0 1-2.77-.33 4.7 4.7 0 0 1-2.29-1.45c-.18.14-.38.27-.5.47-.14.24-.29.5-.49.7-.28.3-.65.53-1.04.66-.22.5-.23 1.1 0 1.6.3.66.82 1.2 1.13 1.86.25.5.31 1.1.14 1.64a2.8 2.8 0 0 1-.77 1.17c-.3.3-.66.58-.84.97-.16.34-.14.75.05 1.07a2.55 2.55 0 0 0 2.26 1c.26-.03.48-.16.67-.33-.22.3-.6.4-.96.42a2.77 2.77 0 0 1-1.46-.38c-.4-.21-.75-.55-.88-1-.08-.35-.05-.73.12-1.05.32-.6.92-.98 1.23-1.58.22-.43.28-.95.1-1.4-.23-.58-.67-1.02-1.02-1.52-.26-.36-.5-.77-.6-1.21-.07-.29-.06-.59-.05-.88-.45.32-.71.87-.72 1.42-.01.4.17.76.37 1.1.16.24.3.5.39.76.16.46.19.96.18 1.44.01.7-.12 1.43-.47 2.05a3.84 3.84 0 0 1-1.42 1.4.8.8 0 0 0-.35.42c-.13.35-.09.72-.02 1.07.04.3.16.58.12.88a2.77 2.77 0 0 1-.86 1.92c-.5.5-1.18.71-1.84.92-.46.16-.94.3-1.32.63a.95.95 0 0 0-.33.82c.04.36.2.69.38.98.32.48.84.76 1.32 1.04.31.2.63.39.9.64.25.3.54.56.78.87.73.86 1.33 1.89 1.45 3.03.12 1.16-.3 2.3-.96 3.25-.17.22-.22.51-.26.79.16-.1.33-.23.53-.22-.1.07-.21.11-.31.18a.72.72 0 0 0-.26.78c.1.36.4.6.74.74.43.18.89.3 1.35.33l.02-.12c-.3-.07-.6-.22-.77-.48.12.12.25.23.42.3.47.2 1 .2 1.52.15 1-.1 1.96-.4 2.87-.81.64-.39 1.2-.88 1.76-1.37.29-.26.6-.51.84-.82a2.13 2.13 0 0 1-.22-.22c.84.48 1.68.98 2.51 1.48a.16.16 0 0 0 .09-.16c.01-.19-.02-.38-.03-.58Z"/>
  <path fill="#F99E2B" stroke="#F99E2B" stroke-width=".07" d="m33.06 41.88-.15-.03c-.44 0-.88.03-1.31-.09l-.02.12c.5.06 1 .08 1.48 0Z"/>
  <path fill="#D68B30" stroke="#D68B30" stroke-width=".07" d="M52.02 43.36c-.2-.36-.3-.76-.47-1.14l-.01-.17c-.1.07-.14.19-.2.29a9.64 9.64 0 0 1-1.26 1.75c.08.19.23.33.38.47.14.12.3.26.47.34.22-.11.41-.25.62-.37l.39-.23.1-.6c0-.1.06-.23-.02-.34Z"/>
  <path fill="#522A22" stroke="#522A22" stroke-width=".07" d="M68.74 45.8c.06.23.13.49.31.67.15.15.4.2.58.1.22-.09.35-.29.48-.47-.1.2-.23.37-.42.48a.57.57 0 0 1-.64-.03c-.2-.17-.3-.43-.37-.68l.06-.08Z"/>
  <path fill="#6D3322" stroke="#6D3322" stroke-width=".07" d="M50.5 46.8c.03-.18.02-.37.1-.54.04.62-.07 1.24-.03 1.87.03.34.02.69.08 1.03.08.86.38 1.7.9 2.4.21.32.47.6.7.9.47.6.95 1.22 1.19 1.95.25.75.16 1.57-.07 2.3-.27.73-.67 1.4-1.1 2.05-.06.12-.2.23-.16.38-.32.44-.6.91-.74 1.44-.13.14-.15.33-.2.5-.1.39-.08.78-.13 1.17-.04-.2-.03-.4-.03-.58.01-.77.3-1.5.64-2.18.23-.4.44-.8.68-1.17.15-.26.32-.52.45-.8.44-.83.7-1.8.51-2.75-.08-.39-.21-.77-.41-1.12-.38-.71-.92-1.3-1.42-1.92-.24-.3-.48-.62-.63-.99-.12-.31-.25-.63-.3-.97a9.62 9.62 0 0 1-.02-2.96Z"/>
  <path fill="#6E3321" stroke="#6E3321" stroke-width=".07" d="M49.09 46.8c.12.79-.13 1.57-.33 2.33-.24.86-.53 1.73-.5 2.63 0 .9.17 1.78.4 2.64.12.51.31 1 .48 1.5.17.4.3.83.46 1.24.23.79.43 1.63.25 2.46-.19.8-.8 1.41-1.36 1.97a2.1 2.1 0 0 0-.6.89c-.15.42-.11.88-.05 1.31.14.8.4 1.58.37 2.4-.04.49-.2.99-.54 1.36-.42.45-1 .7-1.58.89-.37.16-.76.24-1.13.4-.2.1-.42.18-.62.29-.08.04-.16.1-.26.1.7-.5 1.55-.71 2.33-1.05.36-.14.7-.33.98-.58.22-.22.42-.48.5-.78.14-.34.12-.7.12-1.05-.07-.93-.5-1.82-.43-2.77 0-.43.21-.82.44-1.18.35-.4.8-.72 1.12-1.15.27-.3.47-.69.56-1.09.08-.32.06-.66.03-1-.12-1.11-.68-2.1-1.06-3.14-.14-.33-.25-.69-.36-1.03-.16-.58-.31-1.16-.38-1.76-.07-.43-.06-.86-.05-1.28.04-.88.35-1.71.64-2.53l.3-.86c.06-.33.19-.65.21-1 0-.05.03-.11.06-.17Z"/>
  <path fill="#4F2D26" stroke="#4F2D26" stroke-width=".07" d="M70.13 47.33c.34.27.58.64.77 1.02.2.43.35.91.29 1.4l-.11-.11c.03-.23 0-.46-.05-.69a3.29 3.29 0 0 0-.9-1.62Z"/>
  <path fill="#7A3622" stroke="#7A3622" stroke-width=".07" d="M31.19 48.13c-.01-.24-.08-.47-.05-.71.27.84.3 1.74.66 2.55.15.4.4.74.66 1.07.28.32.6.61.9.92l.74.7c.22.24.45.46.64.72.52.6.9 1.32 1.15 2.07.14.42.2.86.19 1.3.04 1.3-.4 2.57-1.13 3.63-.87 1.25-2.14 2.19-2.84 3.55a4.6 4.6 0 0 0-.57 1.9c-.03.83.24 1.65.74 2.31.09.13.21.24.24.4l-.49-.3-.12-.07c-.07-.21-.24-.37-.32-.59-.32-.64-.4-1.39-.32-2.1.1-.73.38-1.42.76-2.04.36-.59.79-1.13 1.25-1.64.58-.67 1.2-1.32 1.6-2.11.61-1.1.86-2.4.7-3.64-.05-.5-.15-1-.35-1.47-.43-.96-1.23-1.68-2-2.38-.2-.22-.47-.4-.67-.64-.26-.3-.54-.6-.74-.95a5.5 5.5 0 0 1-.63-2.48ZM40.52 50.06c.09-.1.2-.2.3-.26v.37c-.26.28-.47.62-.61.98-.27.79-.19 1.65.06 2.44.16.46.38.9.63 1.32v.02c.01.12 0 .24-.02.36a7.4 7.4 0 0 1-.75-1.24 4.47 4.47 0 0 1-.39-2.16c.03-.68.34-1.33.78-1.83Z"/>
  <path fill="#6A2819" stroke="#6A2819" stroke-width=".07" d="M40.2 51.15c.15-.36.36-.7.62-.98v2.25c.09.52 0 1.05.07 1.57.03.3 0 .61 0 .92a6.82 6.82 0 0 1-.62-1.32 3.94 3.94 0 0 1-.06-2.44Z"/>
  <path fill="#6D3322" stroke="#6D3322" stroke-width=".07" d="M40.9 54.93c.4.58.83 1.13 1.3 1.65.24.24.45.53.72.76.5.54.99 1.1 1.36 1.73.47.74.78 1.61.76 2.5.04.8-.27 1.6-.84 2.15-.14.17-.3.32-.47.44-.51.45-1.1.8-1.67 1.18-.31.23-.66.42-.93.7l-.04-.15-.06-.02a4 4 0 0 1 .11-.1c.32-.26.66-.5 1-.73.32-.2.61-.43.93-.63a4.47 4.47 0 0 0 1.44-1.5c.22-.41.3-.9.29-1.37 0-.63-.13-1.27-.4-1.85a5.97 5.97 0 0 0-.66-1.15c-.37-.53-.82-1-1.27-1.45-.28-.32-.6-.6-.86-.92-.25-.25-.46-.53-.68-.8l-.05-.08.03-.36Z"/>
  <path fill="#60261A" stroke="#60261A" stroke-width=".07" d="M40.9 56.01c0-.21-.02-.43.03-.65.22.28.43.56.68.8.26.34.58.61.86.93.45.46.9.92 1.27 1.45.25.37.5.74.66 1.15.27.58.4 1.22.4 1.85.01.47-.07.96-.3 1.38a4.47 4.47 0 0 1-1.43 1.49c-.32.2-.61.44-.94.63-.33.24-.67.47-.99.74-.15-.13-.06-.36-.07-.53 0-.52.03-1.04-.04-1.56v-1.32c-.01-.46.02-.91-.04-1.36v-1.74c-.1-.75.01-1.51-.09-2.27v-.99Z"/>
  <path fill="#522A22" stroke="#522A22" stroke-width=".07" d="M53.7 62.87a3 3 0 0 0 1.11.26c-.38.03-.77 0-1.13-.12l.01-.14Z"/>
  <path fill="#793624" stroke="#793624" stroke-width=".07" d="m41.03 65.87.07.02.03.15-.03.03c-.31.28-.62.6-.77 1-.07.23-.14.46-.11.7.03.38.17.75.34 1.09.23.51.49 1.02.63 1.57l.02.06-.04.18c-.1-.52-.34-.98-.56-1.45-.21-.45-.5-.9-.53-1.4-.05-.47.11-.94.38-1.32.17-.22.35-.45.57-.63Z"/>
  <path fill="#6A281A" stroke="#6A281A" stroke-width=".07" d="M40.33 67.08c.15-.4.46-.73.77-1.01.02.39 0 .78.01 1.17.09.8 0 1.62.05 2.43.04.25.04.5.03.76-.14-.55-.4-1.06-.63-1.57a2.93 2.93 0 0 1-.34-1.1c-.03-.23.04-.46.11-.68Z"/>
  <path fill="#fff" stroke="#fff" stroke-width=".07" d="m48.25 67.82.58-.62c-.15.24-.34.46-.58.62Z"/>
  <path fill="#562924" stroke="#562924" stroke-width=".07" d="M27.66 67.4c.28.27.55.58.68.96.07.2.05.41.04.62-.02-.19 0-.39-.08-.57-.14-.35-.4-.63-.69-.87l.06-.03-.01-.12Z"/>
  <path fill="#D7CECC" stroke="#D7CECC" stroke-width=".07" d="m32.03 68.24.5.3c.53.38 1.07.76 1.54 1.22l.33.37c-.14-.05-.27-.12-.4-.2V70c-.5-.5-1.1-.9-1.67-1.34-.1-.14-.24-.25-.3-.42Z"/>
  <path fill="#793623" stroke="#793623" stroke-width=".07" d="M34.07 69.76c.1.02.2.05.28.1.16.12.34.2.51.29.43.24.89.43 1.33.66.7.37 1.4.77 1.92 1.37.42.46.7 1.05.76 1.68-.08-.07-.09-.18-.11-.27a2.79 2.79 0 0 0-.7-1.29 6.26 6.26 0 0 0-2.08-1.38c-.35-.19-.72-.32-1.06-.5-.13-.08-.26-.15-.4-.17l-.12-.12-.33-.37Z"/>
  <path fill="#522A22" stroke="#522A22" stroke-width=".07" d="m41.65 71.23.07.08.06-.08c-.09.35-.07.75.13 1.06.18.29.52.46.85.44.29 0 .54-.15.78-.29-.25.2-.55.33-.86.34-.34 0-.66-.17-.85-.45a1.42 1.42 0 0 1-.18-1.1Z"/>
  <path fill="#5F2E22" stroke="#5F2E22" stroke-width=".07" d="M30.57 73.64c-.3-.46-.5-1.08-.27-1.62l.1.16c-.22.48-.04 1.01.17 1.46Z"/>
  <path fill="#5D2C20" stroke="#5D2C20" stroke-width=".07" d="M36.4 72.79c.04.31-.02.65-.23.9l-.06-.08c.16-.23.2-.51.15-.78l.09.13.05-.17Z"/>
  <path fill="#622B21" stroke="#622B21" stroke-width=".07" d="M39.26 76.9c.03-.08.1-.02.16 0 .3.12.64.07.93-.03l-.05.09.17.05c-.4.12-.87.16-1.2-.1Z"/>
</svg>