<svg viewBox="0 0 80 80" xmlns="http://www.w3.org/2000/svg">
<rect width="100%" height="100%" fill="black"/>
<path d="M47.3926 34.5875L43.1342 38.846H52.7114V41.3755H43.1342L47.3905 45.6318L45.602 47.4203L40.0809 41.8993L34.5599 47.4203L32.7713 45.6318L37.0276 41.3755H27.4525V38.846H37.0276L32.7692 34.5875L34.5577 32.799L40.0809 38.3222L45.6041 32.799L47.3926 34.5875Z" fill="white"/>
<path fill-rule="evenodd" clip-rule="evenodd" d="M40 8C57.6729 8.00017 72 22.327 72 40C71.9999 57.6729 57.6729 71.9998 40 72C22.327 72 8.00009 57.673 8 40C8 22.3269 22.3269 8 40 8ZM12.9547 51.7213C17.4873 62.165 27.8899 69.4705 40 69.4705C43.8269 69.4705 47.483 68.739 50.8377 67.4115C48.8891 67.4858 46.8655 67.3193 44.8163 66.9154C40.3423 66.0336 35.6858 64.0415 31.2766 61.0537C26.048 60.0485 21.3483 58.1657 17.5623 55.6263C15.8284 54.4633 14.2797 53.1511 12.9547 51.7213ZM64.4434 54.1444C63.8054 54.6597 63.1378 55.1567 62.4377 55.6263C56.6404 59.5147 48.7036 61.8798 40 61.8798C39.2039 61.8798 38.4145 61.8506 37.6323 61.8117C40.2136 63.0569 42.8024 63.9393 45.306 64.4328C51.608 65.6746 57.2032 64.4741 60.8386 60.8386C60.856 60.8213 60.8724 60.8028 60.8897 60.7854C62.6618 58.9928 63.8441 56.7292 64.4434 54.1444ZM40 20.6497C31.7294 20.6497 24.2985 22.9006 18.9719 26.4731C17.5066 27.4559 16.2119 28.5343 15.1009 29.6839C15.0733 31.284 15.2257 32.9633 15.5672 34.6961C16.8077 40.9886 20.4697 47.8344 26.3177 53.6823C28.2121 55.5768 30.2132 57.2392 32.2646 58.6668C34.7263 59.1083 37.3187 59.3482 40 59.3482C48.2708 59.3482 55.7014 57.0975 61.0281 53.5248C62.4927 52.5425 63.7843 51.4629 64.8948 50.3139C64.9223 48.7153 64.774 47.0374 64.4328 45.306C63.1925 39.0133 59.5307 32.166 53.6823 26.3177C51.7859 24.4212 49.7825 22.7575 47.7291 21.3289C45.2693 20.8882 42.6789 20.6497 40 20.6497ZM12.712 32.7138C11.2937 34.988 10.5295 37.4527 10.5295 40C10.5297 45.1412 13.6373 49.9468 18.9719 53.5248C21.0896 54.9452 23.5417 56.1514 26.2453 57.0955C25.666 56.571 25.0907 56.0325 24.5291 55.4709C18.3747 49.3165 14.4344 42.0324 13.0846 35.1837C12.9213 34.3552 12.7979 33.5307 12.712 32.7138ZM53.7505 22.9003C54.3312 23.426 54.9078 23.9661 55.4709 24.5291C61.6253 30.6835 65.5656 37.9676 66.9154 44.8163C67.0786 45.644 67.2005 46.4679 67.2859 47.2841C68.7042 45.01 69.4704 42.5471 69.4705 40C69.4705 34.8584 66.3629 30.0512 61.0281 26.4731C58.9092 25.0519 56.4557 23.8446 53.7505 22.9003ZM40 10.5295C36.1727 10.5295 32.5152 11.2586 29.1602 12.5863C31.1094 12.5118 33.1338 12.6806 35.1837 13.0846C39.6564 13.9661 44.3111 15.9578 48.7191 18.9442C53.9493 19.9492 58.6508 21.8316 62.4377 24.3715C64.1697 25.5333 65.717 26.8444 67.0411 28.2723C62.5069 17.8324 52.1074 10.5296 40 10.5295ZM34.6961 15.5672C28.3938 14.3251 22.797 15.5257 19.1614 19.1614C17.3618 20.9609 16.1599 23.2411 15.5545 25.8492C16.1921 25.3342 16.8626 24.8408 17.5623 24.3715C23.3595 20.4834 31.2963 18.1202 40 18.1202C40.7946 18.1202 41.5826 18.1453 42.3634 18.184C39.7845 16.9403 37.1976 16.0604 34.6961 15.5672Z" fill="white"/>
</svg>
