<svg viewBox="0 0 80 80" xmlns="http://www.w3.org/2000/svg">
<rect width="100%" height="100%" fill="black"/>
<path d="M15.2482 42.2279C17.7009 42.2279 20.0532 43.1996 21.7876 44.9291C23.522 46.6586 24.4963 49.0043 24.4963 51.4502C24.4963 53.8961 23.522 56.2418 21.7876 57.9713C20.0532 59.7008 17.7009 60.6725 15.2482 60.6725C12.7954 60.6725 10.4431 59.7008 8.70872 57.9713C6.97436 56.2418 6 53.8961 6 51.4502C6 49.0043 6.97436 46.6586 8.70872 44.9291C10.4431 43.1996 12.7954 42.2279 15.2482 42.2279ZM27.3735 18.25C28.7648 18.2462 30.139 18.5554 31.3938 19.1547C32.6487 19.7539 33.7517 20.6278 34.6208 21.7112C35.49 22.7945 36.1028 24.0595 36.4136 25.4118C36.7245 26.7642 36.7253 28.169 36.4162 29.5217C35.7996 32.3908 35.1831 35.6699 36.8272 38.1291L39.4989 41.818L40.1154 42.2279C40.3894 42.2279 40.595 42.0913 40.732 41.818L43.4037 37.9242C45.0478 35.6699 44.4312 32.3908 43.8147 29.7266C43.5256 28.382 43.5417 26.9899 43.8618 25.6523C44.182 24.3146 44.7981 23.0653 45.665 21.9958C46.5319 20.9263 47.6277 20.0637 48.8722 19.4711C50.1167 18.8785 51.4783 18.571 52.8573 18.571C54.2364 18.571 55.598 18.8785 56.8425 19.4711C58.0869 20.0637 59.1827 20.9263 60.0496 21.9958C60.9166 23.0653 61.5327 24.3146 61.8528 25.6523C62.173 26.9899 62.1891 28.382 61.9 29.7266C61.2834 32.3908 60.6669 35.4649 61.9 37.9242L64.5717 42.023C66.4964 41.9856 68.3848 42.548 69.9736 43.632C71.5625 44.7159 72.7725 46.2672 73.4351 48.0696C74.0976 49.872 74.1795 51.8357 73.6695 53.6868C73.1595 55.5379 72.083 57.1841 70.5899 58.3959C69.0969 59.6078 67.2619 60.3248 65.3407 60.447C63.4196 60.5693 61.508 60.0906 59.8727 59.0778C58.2373 58.0651 56.9597 56.5686 56.2179 54.7972C55.4761 53.0257 55.3071 51.0676 55.7345 49.1959C56.3511 46.5316 56.9676 43.4576 55.7345 40.9983L53.2684 36.8995H52.8573L50.1856 40.7933C48.5415 43.2526 49.1581 46.5316 49.7746 49.4008C50.0924 50.738 50.1066 52.1292 49.816 53.4725C49.5253 54.8159 48.9373 56.0775 48.0949 57.1651C47.2525 58.2527 46.177 59.1388 44.947 59.7587C43.717 60.3785 42.3637 60.7164 40.9859 60.7476C39.6081 60.7788 38.2408 60.5026 36.9838 59.9391C35.7269 59.3757 34.6121 58.5392 33.721 57.4909C32.8299 56.4425 32.185 55.2089 31.8335 53.8801C31.482 52.5513 31.4327 51.1609 31.6893 49.8107C32.3744 47.0781 32.1004 44.4823 30.8673 42.023L29.0176 39.3588C27.7845 37.8559 26.1404 36.7629 24.0853 36.0797C22.0719 35.3075 20.3926 33.8577 19.338 31.9813C18.2833 30.1049 17.9195 27.9198 18.3097 25.8042C18.6999 23.6886 19.8194 21.7755 21.4746 20.396C23.1297 19.0165 25.2164 18.2574 27.3735 18.25Z" fill="white"/>
</svg>
