<svg viewBox="0 0 80 80" xmlns="http://www.w3.org/2000/svg">
<rect width="100%" height="100%" fill="white"/>
<path d="M40 73C58.2242 73 73 58.2242 73 40C73 21.7757 58.2242 7 40 7C21.7757 7 7 21.7757 7 40C7 58.2242 21.7757 73 40 73Z" fill="#2D4C91"/>
<path d="M63.0918 63.3721C57.1441 69.3197 48.9292 73 39.8599 73C21.713 72.9918 7 58.2788 7 40.1319C7 31.0626 10.6803 22.8477 16.6279 16.9L63.1 63.3721H63.0918Z" fill="#425D9C"/>
<path d="M32.763 24.5424V30.211C32.7809 30.2797 32.7946 30.3495 32.8039 30.42V37.811C32.8079 38.2404 32.831 38.6581 32.8539 39.0696C32.8782 39.5075 32.9021 39.9384 32.9021 40.3694V40.6871C32.8822 40.6869 32.8626 40.6814 32.8454 40.6712C32.8282 40.6609 32.8139 40.6462 32.8039 40.6286C31.9362 39.2184 31.0659 37.811 30.1927 36.4064L22.9241 24.7598C22.8849 24.6835 22.8241 24.6211 22.7496 24.5808C22.6751 24.5405 22.5904 24.5242 22.5066 24.534H19.9609V43.5716H22.1546V29.5171C22.1546 29.1534 22.1321 28.7918 22.1096 28.4302C22.0871 28.0686 22.0646 27.707 22.0646 27.3433C22.0607 27.2792 22.0607 27.215 22.0646 27.151C22.0862 27.195 22.1093 27.2278 22.1285 27.255C22.153 27.2896 22.171 27.3151 22.171 27.3433C22.2201 27.4412 22.2679 27.5404 22.3159 27.6398C22.4439 27.9053 22.5728 28.1724 22.7276 28.4218L32.1409 43.3709C32.1727 43.435 32.2222 43.4882 32.2833 43.5238C32.3444 43.5595 32.4144 43.5761 32.4847 43.5716H34.9403V24.5424H32.763Z" fill="#FEFEFE"/>
<path d="M39.7942 24.5675V37.4264L39.8024 37.6856V43.6217H49.715V41.5148H42.0534V39.9012C42.0495 39.8539 42.0495 39.8063 42.0534 39.759V34.9181H48.7327V32.8948H42.0534V26.5574H49.2239V24.5675H39.7942Z" fill="#FEFEFE"/>
<path d="M16.004 42.9755C16.0698 42.7832 16.096 42.5791 16.0811 42.376C16.096 42.1728 16.0698 41.9687 16.004 41.7764C15.9382 41.5842 15.8342 41.4078 15.6986 41.2585C15.563 41.1091 15.3986 40.99 15.2158 40.9085C15.033 40.827 14.8358 40.785 14.6363 40.785C14.4369 40.785 14.2396 40.827 14.0568 40.9085C13.874 40.99 13.7097 41.1091 13.5741 41.2585C13.4385 41.4078 13.3345 41.5842 13.2687 41.7764C13.2029 41.9687 13.1766 42.1728 13.1916 42.376C13.1766 42.5791 13.2029 42.7832 13.2687 42.9755C13.3345 43.1678 13.4385 43.3441 13.5741 43.4935C13.7097 43.6428 13.874 43.762 14.0568 43.8435C14.2396 43.9249 14.4369 43.967 14.6363 43.967C14.8358 43.967 15.033 43.9249 15.2158 43.8435C15.3986 43.762 15.563 43.6428 15.6986 43.4935C15.8342 43.3441 15.9382 43.1678 16.004 42.9755Z" fill="#FEFEFE"/>
<path d="M51.4012 26.5574H56.7545V43.5632H58.9072V26.5574H64.3342V24.534H51.4012V26.5574Z" fill="#FEFEFE"/>
<path d="M26.8185 56.7285H25.8203V48.5078H27.0523L29.8849 53.5213H29.9299L32.7625 48.5078H33.9765V56.7285H32.9783V50.1378H32.9334L29.9569 55.3187H29.84L26.8634 50.1026H26.8185V56.7285Z" fill="#FEFEFE"/>
<path fill-rule="evenodd" clip-rule="evenodd" d="M38.6076 48.5078H39.8846L42.978 56.6139V56.7285H41.8629L41.0716 54.5786H37.4026L36.6113 56.7285H35.5232V56.6139L38.6076 48.5078ZM39.2191 49.6444L37.7444 53.6622H40.7389L39.2641 49.6444H39.2191Z" fill="#FEFEFE"/>
<path d="M50.5857 53.8297C50.5857 55.7152 49.3807 56.8342 47.3753 56.8342C45.406 56.8342 44.183 55.724 44.183 53.8297V48.5078H45.2261V53.8032C45.2261 55.072 45.9096 55.8914 47.3753 55.8914C48.8411 55.8914 49.5335 55.072 49.5335 53.8032V48.5078H50.5857V53.8297Z" fill="#FEFEFE"/>
<path d="M53.9219 56.7285H52.8698V48.5078H53.9219V56.7285Z" fill="#FEFEFE"/>
</svg>
