<svg viewBox="0 0 80 80" xmlns="http://www.w3.org/2000/svg">
<rect width="100%" height="100%" fill="black"/>
<path d="M36.6245 8.76761C41.6084 3.74415 49.6888 3.74411 54.6725 8.76761C57.6249 11.7433 58.828 15.8143 58.2826 19.6829C62.0194 19.1478 65.9464 20.2828 68.8757 23.0894L69.1117 23.3213L69.2621 23.4729L69.4918 23.7104C74.2448 28.7499 74.1682 36.7196 69.2621 41.6647L43.1451 67.9896C42.813 68.3244 42.813 68.8675 43.1451 69.2023L48.5079 74.6082C49.5046 75.613 49.5047 77.242 48.5079 78.2467C47.5111 79.2513 45.895 79.251 44.8983 78.2463L39.5355 72.8407C37.2097 70.4965 37.2096 66.6954 39.5355 64.3512L65.6524 38.0262C68.6427 35.0122 68.6427 30.1255 65.6524 27.1114L65.502 26.9598L65.3608 26.8208C62.3607 23.9463 57.6168 23.9927 54.6729 26.9598L32.8645 48.9416C31.8677 49.9463 30.2516 49.9463 29.2548 48.9416C28.2582 47.9368 28.2581 46.3078 29.2548 45.3031L51.0629 23.3209C54.0533 20.3068 54.0533 15.4201 51.0629 12.406C48.0728 9.39232 43.2246 9.39192 40.2342 12.406L11.3568 41.5131C10.36 42.5177 8.74423 42.5177 7.74748 41.5131C6.75089 40.5084 6.75079 38.8793 7.74748 37.8747L36.6245 8.76761Z" fill="white"/>
<path d="M43.8439 16.0445C44.8407 15.0399 46.4568 15.0399 47.4536 16.0445C48.4503 17.0492 48.4503 18.6778 47.4536 19.6825L26.0967 41.2099C23.1064 44.2239 23.1063 49.1109 26.0967 52.1252C29.087 55.1392 33.9349 55.1391 36.9253 52.1252L58.2826 30.5978C59.2794 29.5932 60.8956 29.5932 61.8923 30.5978C62.8891 31.6025 62.889 33.2315 61.8923 34.2362L40.535 55.7637C35.629 60.7083 27.7227 60.7857 22.723 55.9957L22.487 55.7637C17.5033 50.7399 17.503 42.595 22.487 37.5715L43.8439 16.0445Z" fill="white"/>
</svg>
