<svg xmlns="http://www.w3.org/2000/svg" viewBox="0 0 80 80">
  <rect width="100%" height="100%" fill="#101926"/>
  <path fill="#CB5A3C" d="M30.566 0h.414l40.379 37.14a2.158 2.158 0 0 1 0 3.068 2.2 2.2 0 0 1-3.093 0h.002L30.566 0ZM16.381 0h1.537l51.74 47.425a3.243 3.243 0 0 1 0 4.61 3.306 3.306 0 0 1-4.647 0L16.38 0ZM0 30.417l36.292 38.948a2.2 2.2 0 0 0 3.093 0 2.158 2.158 0 0 0 0-3.068L0 30.062v.355ZM0 17.475l47.954 51.482a3.306 3.306 0 0 0 4.648 0 3.243 3.243 0 0 0 0-4.61L0 15.972v1.503ZM0 .932l59.135 62.199a3.309 3.309 0 0 0 4.65 0 3.243 3.243 0 0 0 0-4.61L1.238 0H0v.932ZM6.322 46.707l17.31 18.65c.404.4 1.057.4 1.46 0 .405-.4.405-1.049 0-1.45l-18.767-17.2h-.003ZM67.965 25.387c-.405.4-1.057.4-1.461 0v-.002L49.164 6.766l18.8 17.172c.404.4.404 1.048 0 1.449Z"/>
</svg>
