<svg viewBox="0 0 80 80" xmlns="http://www.w3.org/2000/svg">
<rect width="100%" height="100%" fill="white"/>
<path d="M25.42 16H15.7083V25.5987H25.42V16Z" fill="black"/>
<path d="M64.2787 16H54.5668V25.5987H64.2787V16Z" fill="black"/>
<path d="M35.1318 25.5979H15.7083V35.1965H35.1318V25.5979Z" fill="black"/>
<path d="M64.2821 25.5979H44.8586V35.1965H64.2821V25.5979Z" fill="black"/>
<path d="M64.2733 35.1959H15.7083V44.7945H64.2733V35.1959Z" fill="black"/>
<path d="M25.42 44.7969H15.7083V54.3956H25.42V44.7969Z" fill="black"/>
<path d="M44.8492 44.7969H35.1375V54.3956H44.8492V44.7969Z" fill="black"/>
<path d="M64.2787 44.7969H54.5668V54.3956H64.2787V44.7969Z" fill="black"/>
<path d="M35.1413 54.4012H6V63.9999H35.1413V54.4012Z" fill="black"/>
<path d="M74 54.4012H44.8586V63.9999H74V54.4012Z" fill="black"/>
<path d="M25.4231 16H15.7114V25.5987H25.4231V16Z" fill="#FFD800"/>
<path d="M64.2753 16H54.5636V25.5987H64.2753V16Z" fill="#FFD800"/>
<path d="M35.135 25.5979H15.7114V35.1965H35.135V25.5979Z" fill="#FFAF00"/>
<path d="M64.2756 25.5979H44.8522V35.1965H64.2756V25.5979Z" fill="#FFAF00"/>
<path d="M64.2763 35.1959H15.7114V44.7945H64.2763V35.1959Z" fill="#FF8205"/>
<path d="M25.4231 44.7969H15.7114V54.3956H25.4231V44.7969Z" fill="#FA500F"/>
<path d="M44.8492 44.7969H35.1375V54.3956H44.8492V44.7969Z" fill="#FA500F"/>
<path d="M64.2753 44.7969H54.5636V54.3956H64.2753V44.7969Z" fill="#FA500F"/>
<path d="M35.1413 54.4012H6V63.9999H35.1413V54.4012Z" fill="#E10500"/>
<path d="M73.9935 54.4012H44.8522V63.9999H73.9935V54.4012Z" fill="#E10500"/>
</svg>
