<svg xmlns="http://www.w3.org/2000/svg" viewBox="0 0 80 80"><path d="M68.69 68.28a40 40 0 01-56.6-56.6z" fill="#6d429c"/><path d="M68.69 68.32a40 40 0 00-56.6-56.6z" fill="#5c2d91"/><path d="M33.06 30.37v-6.78h2.66v22.76h-3a.44.44 0 01-.42-.24L20.8 28.23c-.26-.41-.46-.86-.68-1.29 0-.06-.07-.11-.13-.23a1.85 1.85 0 000 .23c0 .87.11 1.73.11 2.6v16.81h-2.68V23.58h3.11a.51.51 0 01.51.27l8.88 13.93q1.6 2.52 3.19 5.05a.14.14 0 00.12.07v-.38c0-1-.11-2-.12-3.06v-8.84a2 2 0 00-.05-.25zM41.65 39V23.62h11.52V26h-8.76v7.58h8.16V36h-8.16v5.79a1 1 0 000 .17v1.93h9.36v2.52H41.66V39.31zm14.64 19.86H51a4.93 4.93 0 000 .57 2.23 2.23 0 002.34 2 3.88 3.88 0 002.35-.82v1c0 .07-.11.16-.19.2a3.57 3.57 0 01-1.66.56 6.45 6.45 0 01-1.52 0 2.81 2.81 0 01-2.12-1.56 4.69 4.69 0 01-.08-4.24 3.24 3.24 0 013.39-2 2.66 2.66 0 012.32 1.55 4.18 4.18 0 01.46 1.88c.01.23 0 .52 0 .86zm-5.26-1h4a2.32 2.32 0 00-.32-1.35 1.59 1.59 0 00-1.06-.78A2.21 2.21 0 0051 57.84zm-16.72 2.88v1c0 .18-.14.21-.26.26a6.57 6.57 0 01-3.16.48A4.48 4.48 0 0128 61.23a4.73 4.73 0 01-1.31-2.17A6.08 6.08 0 0127 54.7a5 5 0 014.73-3A6.65 6.65 0 0134 52l.32.12v1.21L34 53.2a4.87 4.87 0 00-3.14-.38A3.78 3.78 0 0028 55.67a4.84 4.84 0 00.56 4.21 3.34 3.34 0 002.65 1.51 5.26 5.26 0 003-.58zm8.85-2.31a4.09 4.09 0 01-1 2.81 3.34 3.34 0 01-2.33 1.21 3.57 3.57 0 01-2.66-.69 3.52 3.52 0 01-1.35-2.19 4.77 4.77 0 01.25-2.84 3.42 3.42 0 013-2.14 3.83 3.83 0 011.71.16 3.33 3.33 0 012.19 2.63 9.11 9.11 0 01.19 1.05zm-1.24.17v-.42a2.93 2.93 0 00-.84-2 2.44 2.44 0 00-3.62.54 3.66 3.66 0 00-.21 3.28 2.41 2.41 0 003 1.4 1.94 1.94 0 001.21-1 3.27 3.27 0 00.46-1.8zm4.39 3.69h-1.23v-7.46h1.21v1.31h.07a2.3 2.3 0 011.41-1.4 2 2 0 011.19 0V56l-.24-.09a1.58 1.58 0 00-1.92.64 3.45 3.45 0 00-.5 1.83v3.6zM12.68 44.92a1.77 1.77 0 11-3.53 0 1.77 1.77 0 113.53 0zM62.37 26h-6.54v-2.42h15.8V26H65v20.34h-2.63z" fill="#fefefe"/></svg>