<svg viewBox="0 0 80 80" fill="none" xmlns="http://www.w3.org/2000/svg">
<rect width="100%" height="100%" fill="#001E2B"/>
<path d="M46.3248 12.0249C43.2687 8.43961 40.6371 4.79829 40.0995 4.04202C40.0429 3.98599 39.9579 3.98599 39.9014 4.04202C39.3637 4.79829 36.732 8.43961 33.676 12.0249C7.44446 45.1047 37.8074 67.4289 37.8074 67.4289L38.062 67.5969C38.2884 71.0423 38.8544 76 38.8544 76H39.9862H41.1181C41.1181 76 41.6841 71.0702 41.9105 67.5969L42.1651 67.401C42.1934 67.401 72.5563 45.1047 46.3248 12.0249ZM39.9862 66.9247C39.9862 66.9247 38.628 65.7763 38.2601 65.188V65.1322L39.9014 29.1111C39.9014 28.999 40.0712 28.999 40.0712 29.1111L41.7124 65.1322V65.188C41.3445 65.7763 39.9862 66.9247 39.9862 66.9247Z" fill="#00ED64"/>
</svg>
