<svg viewBox="0 0 80 80" fill="none" xmlns="http://www.w3.org/2000/svg">
<path d="M47.2862 8.91656C43.8421 4.9329 40.8763 0.886986 40.2704 0.0466834C40.2066 -0.0155611 40.1109 -0.0155611 40.0472 0.0466834C39.4412 0.886986 36.4755 4.9329 33.0314 8.91656C3.46952 45.6719 37.6873 70.4766 37.6873 70.4766L37.9743 70.6633C38.2294 74.4915 38.8672 80 38.8672 80H40.1428H41.4184C41.4184 80 42.0562 74.5225 42.3114 70.6633L42.5983 70.4456C42.6302 70.4456 76.848 45.6719 47.2862 8.91656ZM40.1428 69.9163C40.1428 69.9163 38.6121 68.6403 38.1976 67.9867V67.9247L40.0472 27.9012C40.0472 27.7767 40.2385 27.7767 40.2385 27.9012L42.0881 67.9247V67.9867C41.6735 68.6403 40.1428 69.9163 40.1428 69.9163Z" fill="#00684A"/>
</svg>
