<?xml version="1.0" encoding="UTF-8" standalone="no"?>
<svg
   viewBox="0 0 80 80"
   version="1.1"
   id="svg95"
   sodipodi:docname="mongodb.svg"
   inkscape:version="1.1.2 (b8e25be8, 2022-02-05)"
   xmlns:inkscape="http://www.inkscape.org/namespaces/inkscape"
   xmlns:sodipodi="http://sodipodi.sourceforge.net/DTD/sodipodi-0.dtd"
   xmlns="http://www.w3.org/2000/svg"
   xmlns:svg="http://www.w3.org/2000/svg">
  <defs
     id="defs99" />
  <sodipodi:namedview
     id="namedview97"
     pagecolor="#ffffff"
     bordercolor="#666666"
     borderopacity="1.0"
     inkscape:pageshadow="2"
     inkscape:pageopacity="0.0"
     inkscape:pagecheckerboard="0"
     showgrid="false"
     inkscape:zoom="6.6644814"
     inkscape:cx="42.088796"
     inkscape:cy="48.240813"
     inkscape:window-width="2306"
     inkscape:window-height="1281"
     inkscape:window-x="0"
     inkscape:window-y="25"
     inkscape:window-maximized="0"
     inkscape:current-layer="svg95"
     showguides="true"
     inkscape:guide-bbox="true">
    <sodipodi:guide
       position="39.913083,71.597246"
       orientation="1,0"
       id="guide727" />
  </sodipodi:namedview>
  <path
     d="M 46.720194,9.2543935 C 43.372711,5.3002052 40.490158,1.2842319 39.901246,0.45014351 c -0.06197,-0.061813 -0.154991,-0.061813 -0.217003,0 C 39.095331,1.2842319 36.212758,5.3002052 32.865279,9.2543935 4.1327638,45.737777 37.390613,70.35888 37.390613,70.35888 l 0.278937,0.185279 c 0.24793,3.799887 0.867856,9.267652 0.867856,9.267652 h 1.239811 1.239816 c 0,0 0.619938,-5.436986 0.867888,-9.267652 l 0.278897,-0.216046 c 0.03113,0 33.288825,-24.590324 4.556332,-61.0737116 z M 39.777241,69.802715 c 0,0 -1.487761,-1.266524 -1.890679,-1.915333 v -0.06157 l 1.797696,-39.727294 c 0,-0.123626 0.185998,-0.123626 0.185998,0 l 1.797705,39.72731 v 0.06157 c -0.402954,0.648809 -1.890704,1.915333 -1.890704,1.915333 z"
     fill="#00684a"
     id="path508"
     style="stroke-width:0.307782" />
</svg>
