<svg viewBox="0 0 80 80" xmlns="http://www.w3.org/2000/svg">
<rect width="100%" height="100%" fill="black"/>
<path d="M16.7454 67.8285C16.7454 67.479 28.4385 53.4298 28.685 53.4831C28.8258 53.5136 34.0484 55.7319 40.2909 58.4128C50.9519 62.9914 51.6592 63.2621 51.9475 62.876C52.3834 62.2917 53.885 59.1514 54.6793 57.1627L55.3531 55.4753L54.2178 54.8547C52.6092 53.9751 50.2494 52.0161 48.772 50.3334C47.4236 48.798 44.9915 45.0931 44.9915 44.5743C44.9915 44.4029 45.7643 45.1832 46.7089 46.3088C49.3618 49.4702 55.4754 54.4171 55.8593 53.7131C56.315 52.8778 56.6095 50.4114 56.5948 47.5536C56.5769 44.0649 56.1196 41.3488 54.9186 37.5997L54.2454 35.4991L50.9178 34.4533C49.0877 33.8781 47.2528 33.3014 46.8406 33.1719C45.403 32.72 46.3024 32.7443 48.4073 33.2143C50.9239 33.7761 53.48 34.2507 55.063 34.4499C56.4567 34.6252 56.7634 34.3518 56.9125 32.8011C57.1026 30.8238 55.8263 25.3633 54.5387 22.6445C54.0249 21.5594 53.793 21.3254 52.7642 20.8545C49.3394 19.2869 38.6199 17.8187 34.0678 18.2938C32.1001 18.4992 30.0787 18.9772 29.4488 19.3863C29.2712 19.5016 30.5403 19.8285 32.7253 20.2302C34.6869 20.5908 36.1161 20.9202 35.9017 20.9621C35.6872 21.004 32.605 20.6653 29.0523 20.2095C22.8152 19.4093 22.5773 19.3948 22.1429 19.7879C21.2371 20.6074 19.934 22.8476 19.6657 24.0462C19.4059 25.2067 19.4242 25.3412 20.0021 26.5221C20.9871 28.5351 22.8188 29.9998 26.9868 32.1075C28.9577 33.1041 30.5224 33.9674 30.464 34.0258C30.4056 34.0842 28.7237 33.4563 26.7263 32.6305L23.0949 31.1291L17.7661 32.62C14.8353 33.44 12.3389 34.111 12.2187 34.111C12.0812 34.111 12 30.5709 12 24.5804C12 15.4028 12.0173 15.0141 12.468 14.0833C12.7427 13.516 13.2793 12.9034 13.7673 12.6L14.5986 12.0831L39.0033 12.0152C52.4259 11.9779 63.951 12.0117 64.6144 12.0905C66.1097 12.2679 67.4592 13.3626 67.8162 14.6877C67.9699 15.2589 68.0277 23.9465 67.9877 40.4756L67.9274 65.4018L67.4104 66.233C67.1069 66.721 66.4943 67.2574 65.9269 67.5321C64.9676 67.9964 64.7735 68 40.8527 68C27.5937 68 16.7454 67.9227 16.7454 67.8285Z" fill="white"/>
</svg>