<svg viewBox="0 0 80 80" xmlns="http://www.w3.org/2000/svg">
<rect width="100%" height="100%" fill="#001E2B"/>
<path d="M39.995 8C57.9031 8 72 22.4272 72 39.9993C72 57.6753 57.6682 72 39.995 72C22.3247 72.0014 8 57.6753 8 40.0007C8 22.3233 22.3247 8 39.995 8ZM39.9238 46.7104L30.9734 17.0103L19.3835 55.0358H21.5574C21.5574 55.0358 23.0195 48.4216 25.397 44.471C26.691 42.3255 28.6856 40.5716 31.3521 40.62C33.2299 40.657 34.8571 41.6835 36.8886 44.5251C38.1101 46.2263 39.9907 50.567 39.9907 50.567C39.9907 50.567 41.8728 46.232 43.0986 44.5251C45.1244 41.6835 46.7516 40.657 48.6351 40.62C51.2988 40.5716 53.2976 42.3255 54.586 44.4752C56.9649 48.4202 58.4255 55.0358 58.4255 55.0358H60.6051L49.0081 17.0103L40.0591 46.7104L39.995 46.763L39.9238 46.7104Z" fill="white"/>
</svg>
