<svg xmlns="http://www.w3.org/2000/svg" viewBox="0 0 80 80"><defs><style>.d{fill:#fff}</style></defs><path d="M76.25 26v28a12 12 0 01-1.64 6L40 40l34.62-20a11.94 11.94 0 011.63 6z" fill="#00599c"/><path d="M74.62 20L40 40 5.41 60a11.92 11.92 0 01-1.66-6V26a12 12 0 016-10.39L34 1.61a12 12 0 0112 0l24.25 14A11.82 11.82 0 0174.62 20z" fill="#659ad2"/><path d="M40 40l34.61 20a12 12 0 01-4.36 4.34L46 78.39a12 12 0 01-12 0l-24.25-14a12 12 0 01-4.34-4.32z" fill="#004482"/><path class="d" d="M61.79 38.5h2.51v3.04h-2.51v2.51h-3.05v-2.51h-2.5V38.5h2.5v-2.51h3.05v2.51zm9.81 0h2.5v3.04h-2.5v2.51h-3.05v-2.51h-2.5V38.5h2.5v-2.51h3.05v2.51z"/><path class="d" d="M61 52.15a24.22 24.22 0 110-24.26L50.38 34q-.21-.37-.45-.72A12 12 0 1050.36 46z"/></svg>