<svg xmlns="http://www.w3.org/2000/svg" viewBox="0 0 80 80"><path d="M76.25 26v28c0 2.16-.58 4.25-1.64 6.05L40 40.03l34.62-20.06c1.05 1.8 1.62 3.87 1.62 6.02Z" style="fill:#00599c"/><path d="M74.62 19.98 40 40.04 5.41 60.07c-1.07-1.81-1.65-3.9-1.65-6.08V26c0-4.29 2.29-8.25 6-10.39L34 1.61c3.71-2.14 8.29-2.14 12 0l24.25 14c1.85 1.07 3.34 2.59 4.38 4.37Z" style="fill:#659ad2"/><path d="m40 40.03 34.61 20.02a12.016 12.016 0 0 1-4.36 4.34L46 78.39a12.017 12.017 0 0 1-12 0l-24.25-14a11.984 11.984 0 0 1-4.34-4.32L40 40.03Z" style="fill:#004482"/><path d="M60.95 52.15C56.76 59.36 48.94 64.21 40 64.21c-13.37 0-24.22-10.84-24.22-24.22S26.63 15.78 40 15.78c8.96 0 16.79 4.87 20.97 12.1l-10.59 6.13c-.14-.25-.29-.49-.45-.72-2.15-3.19-5.8-5.28-9.93-5.28-6.62 0-11.98 5.36-11.98 11.98S33.38 51.97 40 51.97c4.42 0 8.28-2.39 10.36-5.95l10.59 6.13Z" style="fill:#fff"/></svg>