<svg xmlns="http://www.w3.org/2000/svg" viewBox="0 0 80 80">
  <rect width="100%" height="100%" fill="#1A1A1A"/>
  <path fill="#E0234E" fill-rule="evenodd" d="M44.8616 7c-.4773 0-.9204.1023-1.3295.2386.8692.5795 1.3465 1.3466 1.5851 2.2158.0171.1193.0512.2046.0682.3239.0171.1022.0341.2045.0341.3068.0682 1.4999-.392 1.6874-.7159 2.5737-.4943 1.142-.3579 2.3692.2386 3.3578.0512.1193.1194.2557.2046.375-.6477-4.3123 2.9487-4.96 3.6134-6.3065.0512-1.1761-.9204-1.9602-1.6874-2.5056C46.1399 7.1364 45.4752 7 44.8616 7Zm5.4201.9715c-.0682.392-.017.2898-.034.4943-.0171.1364-.0171.3068-.0341.4432-.034.1363-.0682.2727-.1193.409-.0341.1364-.0852.2728-.1364.4091-.0682.1364-.1193.2557-.1874.3921-.0512.0682-.0853.1363-.1364.2045l-.1023.1534c-.0852.1193-.1704.2386-.2556.3409-.1023.1023-.1875.2216-.3068.3068v.0171c-.1023.0852-.2046.1875-.3239.2727-.3579.2727-.767.4772-1.142.7329-.1193.0852-.2386.1534-.3409.2557a2.4837 2.4837 0 0 0-.3238.2727c-.1193.1022-.2046.2045-.3068.3238-.0852.1023-.1875.2216-.2557.3409-.0852.1193-.1704.2386-.2386.358-.0682.1363-.1193.2556-.1875.392-.0511.1363-.1023.2556-.1364.392-.0511.1534-.0852.2898-.1193.4261-.017.0682-.017.1534-.034.2216-.0171.0682-.0171.1364-.0341.2045 0 .1364-.0171.2898-.0171.4261 0 .1023 0 .2046.0171.3069 0 .1363.0171.2727.0511.4261.0171.1363.0512.2727.0853.409.0511.1364.0852.2728.1363.4091.0341.0852.0852.1705.1193.2386l-3.9202-1.5169c-.6648-.1875-1.3125-.358-1.9772-.5114l-1.0738-.2556a31.6062 31.6062 0 0 0-3.1021-.4602c-.0341 0-.0512-.0171-.0852-.0171a30.4667 30.4667 0 0 0-3.051-.1534c-.75 0-1.5.034-2.2329.0852-1.0397.0682-2.0794.2045-3.1191.375-.2557.0341-.5114.0852-.7671.1364-.5283.1022-1.0397.2215-1.534.3408l-.767.2046c-.2556.1022-.4943.2216-.7329.3238l-.5625.2557c-.034.0171-.0682.0171-.0852.0341-.1704.0852-.3238.1534-.4772.2386a.8125.8125 0 0 0-.1193.0511c-.1875.0852-.375.1875-.5284.2727-.1193.0512-.2386.1193-.3409.1705-.0512.034-.1193.0682-.1534.0852-.1534.0852-.3068.1704-.4432.2557a4.3002 4.3002 0 0 0-.4091.2556c-.1193.0853-.2386.1534-.3408.2387-.0171.017-.0341.017-.0512.034-.1022.0682-.2216.1534-.3238.2386l-.0341.0341-.2557.2045c-.034.0171-.0682.0512-.1022.0682-.0852.0683-.1705.1534-.2557.2216-.0171.0341-.0511.0512-.0682.0682-.1023.1023-.2045.1875-.3068.2898-.0171 0-.0171.0171-.0341.0341-.1022.0852-.2045.1874-.3068.2897-.017.0171-.017.0341-.034.0341-.0852.0852-.1705.1704-.2557.2727-.0341.034-.0852.0682-.1193.1023-.0852.1022-.1875.2045-.2898.3068-.017.034-.0511.0511-.0682.0852-.1363.1363-.2556.2727-.392.4091l-.0511.0511c-.2727.2897-.5625.5795-.8693.8352-.3068.2727-.6307.5284-.9545.7499a12.8474 12.8474 0 0 1-1.0227.6477c-.3409.1875-.6988.358-1.0738.5114-.3579.1534-.7329.2897-1.1079.409-.7159.1534-1.4488.4432-2.0794.4943-.1364 0-.2898.0341-.4261.0512-.1534.034-.2898.0682-.4262.1022l-.409.1534c-.1364.0512-.2727.1193-.4091.1875-.1193.0852-.2557.1534-.375.2386a2.7863 2.7863 0 0 0-.3409.2898c-.1193.0852-.2386.2045-.3409.3068-.1022.1193-.2045.2216-.2897.3409-.0853.1364-.1875.2557-.2557.392a3.0049 3.0049 0 0 0-.2386.392c-.0682.1535-.1364.2898-.1875.4432-.0511.1364-.1023.2898-.1534.4432-.034.1363-.0682.2727-.0852.409 0 .0171-.0171.0341-.0171.0512-.034.1534-.034.3579-.0511.4602-.0171.1193-.0341.2216-.0341.3409 0 .0682 0 .1534.017.2216.0171.1193.0341.2215.0683.3238.034.1023.0682.2045.1193.3068v.0171c.0511.1022.1193.2045.1875.3068.0682.1022.1363.2045.2216.3068.0852.0852.1875.1875.2897.2727.1023.1023.2045.1875.3239.2727.409.3579.5113.4773 1.0397.75.0852.0511.1704.0852.2727.1363.017 0 .034.0171.0511.0171 0 .0341 0 .0511.0171.0852.017.1364.0511.2727.0852.4091.034.1534.0853.2898.1364.4091.0511.1022.0852.2045.1364.3068.017.034.034.0682.051.0852.0683.1363.1364.2557.2046.375l.2557.3579c.0852.1023.1875.2216.2897.3239.1023.1022.2046.1874.3239.2897 0 0 .0171.0171.0341.0171.1022.0852.2045.1705.3068.2386.1193.0852.2386.1534.3749.2216.1194.0682.2557.1364.3921.1875.1022.0511.2215.0852.3409.1193.017.0171.034.0171.0682.0341.0682.0171.1534.034.2215.0511-.0511.9204-.0682 1.7897.0682 2.0965.1534.3409.9034-.6988 1.6534-1.892-.1023 1.1761-.1705 2.5567 0 2.9658.1875.4261 1.2101-.9034 2.0965-2.3692 12.0846-2.7953 23.1124 5.5565 24.2715 17.3514-.2216-1.8408-2.4885-2.8635-3.5283-2.6078-.5113 1.2613-1.3806 2.8805-2.7782 3.8862.1193-1.125.0682-2.284-.1705-3.409-.375 1.5681-1.1079 3.034-2.1135 4.2953-1.6193.1193-3.2385-.6648-4.0907-1.8408-.0682-.0512-.0852-.1534-.1364-.2216-.0511-.1193-.1022-.2386-.1363-.358a1.4102 1.4102 0 0 1-.1023-.3579c-.0171-.1193-.0171-.2386-.0171-.375v-.2556c.0171-.1194.0512-.2387.0852-.358.0341-.1193.0682-.2386.1194-.3579.0682-.1193.1193-.2386.2045-.358.2898-.8181.2898-1.4828-.2386-1.8749-.1023-.0682-.2046-.1193-.3239-.1704-.0682-.0171-.1534-.0511-.2216-.0682-.0511-.0171-.0852-.0341-.1363-.0512-.1193-.034-.2386-.0682-.358-.0852a1.3006 1.3006 0 0 0-.3579-.0511c-.1193-.0171-.2557-.0341-.375-.0341-.0852 0-.1704.0171-.2556.0171-.1364 0-.2557.0171-.375.0511-.1193.0171-.2386.0341-.358.0682-.1193.0341-.2386.0682-.3579.1194-.1193.0511-.2216.1022-.3409.1534-.1022.0511-.2045.1193-.3238.1704-3.9714 2.5908-1.6022 8.6586 1.1079 10.4142-1.0227.1875-2.0624.4091-2.3522.6307l-.034.0341c.7329.4431 1.4999.8181 2.301 1.1419 1.0908.358 2.2499.6818 2.7612.8182v.0171a16.4928 16.4928 0 0 0 4.2952.3068c7.5508-.5284 13.738-6.2725 14.8629-13.8403.0341.1534.0682.2898.1023.4432.0511.3068.1193.6306.1534.9545v.0171c.0341.1534.0511.3068.0682.4431v.0683c.0171.1534.0341.3068.0341.4431.017.1875.034.375.034.5625v.2727c0 .0852.0171.1875.0171.2727 0 .1023-.0171.2045-.0171.3068v.2386c0 .1194-.0171.2216-.0171.3409 0 .0682 0 .1364-.017.2216 0 .1193-.0171.2386-.0171.375-.0171.0511-.0171.1023-.0171.1534-.0171.1364-.034.2557-.0511.392 0 .0512 0 .1023-.0171.1534-.0171.1705-.0511.3239-.0682.4943v.0342c-.034.1534-.0682.3238-.1023.4772v.0512l-.1022.4602c0 .017-.0171.0511-.0171.0682-.0341.1534-.0682.3068-.1193.4602v.0511c-.0511.1704-.1023.3238-.1364.4772-.017.0171-.017.0341-.017.0341l-.1534.5113c-.0682.1705-.1193.3239-.1875.4943-.0682.1705-.1193.3409-.1875.4943-.0682.1705-.1364.3239-.2045.4943h-.0171c-.0682.1534-.1364.3239-.2216.4773a.8324.8324 0 0 1-.0512.1193c-.017.0171-.017.034-.034.0511-1.1079 2.2329-2.7442 4.193-4.7895 5.727-.1364.0852-.2728.1875-.4091.2898-.0341.034-.0852.0511-.1193.0852-.1193.0852-.2387.1704-.375.2557l.0511.1022h.0171l.7159-.1022h.017c.4432-.0682.8864-.1534 1.3295-.2387.1193-.0171.2557-.0511.375-.0852.0852-.0171.1534-.0341.2386-.0511.1193-.0171.2386-.0512.358-.0682.1022-.0341.2045-.0512.3068-.0853 1.7044-.409 3.3577-.9715 4.9429-1.6362-2.7101 3.6986-6.3406 6.6814-10.5847 8.6416 1.9601-.1364 3.9203-.4602 5.8122-1.0057 6.869-2.0283 12.6471-6.6474 16.1071-12.8686-.6988 3.9373-2.2669 7.6871-4.5849 10.9597a26.8375 26.8375 0 0 0 4.5509-3.784c3.818-3.9884 6.3235-9.0506 7.1757-14.4879.5796 2.6931.75 5.4714.4943 8.2155 12.3062-17.1639 1.0227-34.9584-3.6986-39.6457-.0171-.0341-.0341-.0511-.0341-.0852-.0171.017-.0171.017-.0171.034 0-.017 0-.017-.0171-.034 0 .2045-.017.409-.034.6136-.0512.392-.1023.767-.1705 1.142-.0852.3749-.1875.7499-.2897 1.1249-.1193.3579-.2557.7329-.4091 1.0909-.1534.3408-.3239.6988-.5113 1.0397-.1875.3238-.3921.6647-.6136.9715-.2216.3239-.4603.6307-.6989.9204-.2557.3068-.5284.5795-.8011.8523-.1704.1534-.3238.2897-.4943.4261-.1363.1193-.2556.2216-.392.3409-.3068.2386-.6136.4602-.9545.6647-.3238.2045-.6647.4091-1.0056.5795-.358.1705-.7159.3239-1.0738.4773-.358.1363-.7329.2556-1.1079.3579-.375.1023-.767.1875-1.142.2557-.392.0682-.7841.1022-1.159.1363-.2728.0171-.5455.0341-.8182.0341-.392 0-.784-.0341-1.159-.0682-.392-.0341-.7841-.0852-1.1591-.1705-.392-.0682-.767-.1704-1.1419-.2897h-.0171c.375-.0341.7499-.0682 1.1249-.1364a12.373 12.373 0 0 0 1.142-.2556c.375-.1023.75-.2216 1.1079-.358.375-.1363.7329-.3068 1.0738-.4772.358-.1705.6818-.358 1.0227-.5625.3239-.2216.6477-.4432.9545-.6818a9.3168 9.3168 0 0 0 .8693-.767c.2897-.2557.5454-.5454.8011-.8352.2556-.3068.4943-.6136.7158-.9204.0341-.0511.0683-.1193.1023-.1704.1705-.2727.3409-.5455.4943-.8182.1875-.3409.3579-.6818.5113-1.0397.1534-.3579.2898-.7159.4091-1.0908.1193-.358.2046-.733.2898-1.1079.0682-.3921.1363-.7671.1704-1.142.0341-.3921.0682-.7841.0682-1.1591 0-.2727-.0171-.5454-.034-.8181-.0341-.392-.0853-.767-.1364-1.142a12.348 12.348 0 0 0-.2557-1.142c-.1193-.3579-.2386-.7329-.3749-1.0908-.1364-.358-.3068-.7159-.4773-1.0568-.1875-.3409-.375-.6818-.5795-1.0056a18.8196 18.8196 0 0 0-.6818-.9375c-.2557-.2897-.5113-.5795-.7841-.8693-.1363-.1363-.2897-.2897-.4431-.4261a31.3886 31.3886 0 0 0-2.3692-1.6703 3.1718 3.1718 0 0 0-.3409-.1705c-.5625-.358-1.0909-.5455-1.6193-.716Z" clip-rule="evenodd"/>
</svg>
