<svg xmlns="http://www.w3.org/2000/svg" viewBox="0 0 80 80"><path d="M40 80c22.09 0 40-17.91 40-40S62.09 0 40 0 0 17.91 0 40s17.91 40 40 40Z" style="fill:#2d4c91"/><path d="M68.28 68.24C61.04 75.48 51.04 79.96 40 79.96 17.91 79.95 0 62.04 0 39.95c0-11.04 4.48-21.04 11.72-28.28l56.57 56.57Z" style="fill:#425d9c"/><path d="M9.63 45.26c1.11 0 1.73-.73 1.73-1.79s-.62-1.76-1.73-1.76-1.73.73-1.73 1.76.59 1.79 1.73 1.79ZM16.06 45h2.49V28.75h.12L29.17 45h2.82V24.47h-2.52v16.34h-.12l-10.5-16.34h-2.79V45ZM37.86 45h13.2v-2.32H40.41v-7.1h9.74v-2.35h-9.74v-6.42h10.65v-2.35h-13.2v20.53ZM60.23 45h2.58V26.81h6.37v-2.35H53.87v2.35h6.37V45ZM24.04 61h1.11v-7.52h.05l3.31 5.92h.13l3.31-5.88H32V61h1.11v-9.33h-1.35l-3.15 5.69h-.05l-3.15-5.69h-1.37V61ZM39.69 51.67h-1.43l-3.43 9.2V61h1.21l.88-2.44H41l.88 2.44h1.24v-.13l-3.44-9.2Zm-2.39 5.85 1.64-4.56h.05l1.64 4.56H37.3ZM48.01 61.12c2.23 0 3.57-1.27 3.57-3.41v-6.04h-1.17v6.01c0 1.44-.77 2.37-2.4 2.37s-2.39-.93-2.39-2.37v-6.01h-1.16v6.04c0 2.15 1.36 3.41 3.55 3.41ZM54.12 61h1.17v-9.33h-1.17V61Z" style="fill:#fff"/></svg>