<svg xmlns="http://www.w3.org/2000/svg" viewBox="0 0 80 80"><path d="M18.89 28.57h15v1.17H20.27v9h12.84v1.2H20.28v9.86H34.1V51H18.89zM44 40.51l-.23.3-7.23 9.93a.54.54 0 01-.51.27h-1.31l8.42-11.53-7.83-10.92h1.54c.09 0 .19.17.26.27L43.73 38l.31.43C49.26 31.09 54.79 24 60.46 17L44.93 39.47 53.29 51h-1.55c-.1 0-.22-.14-.29-.24l-6.16-8.49c-.41-.58-.83-1.15-1.29-1.76zM24.72 63l-1.55-2c-2.42-3.21-4.87-6.4-7.24-9.65-1.88-2.58-3.64-5.24-5.46-7.87L1.71 30.66a.85.85 0 00-.29-.27V51H0V28.56h1.6c.11 0 .23.16.3.27l5.42 8.07 17.23 25.68.21.33z"/><path d="M63.18 51h-1.39V29.76h-7.87v-1.18h17.14v1.16h-7.88zM76.28 48.09a3.78 3.78 0 01.59 0 .32.32 0 01.2.16c.22.65 1.51.77 2 .27a.56.56 0 00-.12-.93 6.52 6.52 0 00-1-.33c-.23-.07-.48-.12-.7-.21a1.15 1.15 0 01-.83-1.05 1.25 1.25 0 01.68-1.31 2.14 2.14 0 012.11 0 1.27 1.27 0 01.7 1.06c-.47.14-.61.09-.85-.26a1.24 1.24 0 00-1.75-.07.55.55 0 00.18.87 6.61 6.61 0 00.89.29c.26.08.54.14.8.24A1.15 1.15 0 0180 47.9a1.32 1.32 0 01-.62 1.28 2.37 2.37 0 01-2.45 0 1.3 1.3 0 01-.65-1.09zM74.54 44.56h.72a1.77 1.77 0 010 .21V48a1.36 1.36 0 01-.7 1.32 1.68 1.68 0 01-1.69-.06 1.2 1.2 0 01-.58-1.11H73a2.71 2.71 0 00.44.54c.54.35 1.14 0 1.15-.73v-3zM71.44 48.94a.5.5 0 01-.48.51.49.49 0 01-.49-.52.46.46 0 01.49-.47.46.46 0 01.48.48z"/></svg>