<svg xmlns="http://www.w3.org/2000/svg" viewBox="0 0 80 80"><path d="M53.18 31.98h13.93v2.57h-5.53v13.53h-2.76V34.55h-5.64v-2.57ZM30.26 31.98v2.57H19.09v4.14h8.98v2.57h-8.98v4.25h11.17v2.57H16.33V31.98h13.93ZM37.22 31.98H33.6l12.96 16.1h3.63l-6.48-8.05 6.47-8.04h-3.62l-4.66 5.8-4.68-5.81ZM40.93 43.49l-1.81-2.25-5.53 6.86h3.63l3.71-4.61Z"/><path d="M16.43 48.08 3.45 31.97H0v16.1h2.76V35.41l10.19 12.67h3.47Z" style="fill-rule:evenodd"/><path d="M67.74 47.98c-.2 0-.37-.07-.52-.21a.658.658 0 0 1-.21-.51c0-.2.07-.36.21-.5s.32-.21.52-.21.37.07.51.21c.15.14.22.31.22.5 0 .13-.04.25-.1.36-.07.11-.16.2-.27.26-.11.06-.23.1-.36.1ZM72.45 41.2h1.22v4.72c0 .43-.1.8-.28 1.12-.19.31-.44.55-.77.72-.33.17-.71.25-1.15.25-.4 0-.76-.07-1.07-.21-.32-.14-.57-.35-.76-.63-.19-.28-.28-.62-.28-1.04h1.23c0 .18.04.34.12.47s.19.23.33.3c.14.07.3.11.48.11.2 0 .37-.04.5-.12.14-.08.24-.2.31-.37.07-.16.11-.36.11-.6V41.2ZM78.72 43.04a.885.885 0 0 0-.39-.67c-.23-.16-.53-.24-.89-.24-.26 0-.48.04-.66.11-.18.08-.33.18-.42.31-.1.13-.15.28-.15.45 0 .14.03.26.1.36.07.1.15.19.27.26.11.07.24.13.37.18.14.05.28.09.42.12l.64.16c.26.06.51.14.74.24.24.1.45.23.64.38s.34.34.45.55c.11.22.17.47.17.76 0 .39-.1.74-.31 1.04-.2.3-.5.53-.88.7-.38.17-.85.25-1.4.25s-.99-.08-1.38-.24c-.39-.16-.69-.4-.91-.71-.22-.31-.34-.69-.35-1.13h1.21a1 1 0 0 0 .22.58c.13.16.3.27.5.35.21.08.44.11.7.11s.5-.04.71-.12c.2-.08.36-.19.48-.33s.17-.31.18-.5c0-.18-.05-.32-.16-.44-.1-.11-.25-.21-.43-.29-.18-.08-.4-.15-.64-.21l-.78-.2c-.56-.14-1-.36-1.33-.65-.33-.29-.49-.67-.49-1.16 0-.39.11-.74.33-1.04.22-.3.51-.53.89-.69.38-.17.81-.25 1.28-.25s.91.08 1.27.25c.37.16.65.39.86.68.21.29.32.63.32 1h-1.19Z"/></svg>