<svg viewBox="0 0 80 80" xmlns="http://www.w3.org/2000/svg">
<rect width="100%" height="100%" fill="#E30013"/>
<path d="M27.8625 6.09777C23.5649 6.86222 20.1072 10.0267 19.0171 14.1867C18.624 15.6889 18.5972 16.5689 18.6419 28.2222C18.6687 38.9244 18.6776 39.1733 18.8563 40C19.8481 44.4533 23.0288 47.6267 27.5498 48.6756C28.1395 48.8089 28.89 48.8356 33.7237 48.8622C38.7271 48.8978 39.2453 48.8889 39.3794 48.7556C39.5134 48.6222 39.5223 46.9067 39.5223 27.4578C39.5223 13.04 39.4955 6.24889 39.433 6.12444C39.3436 5.96444 39.1917 5.95555 33.956 5.96444C29.7031 5.97333 28.4254 6 27.8625 6.09777ZM35.9484 45.44L32.312 45.3956C28.9615 45.36 28.6041 45.3422 27.934 45.1733C25.057 44.4356 22.9216 42.2311 22.323 39.36C22.1264 38.4622 22.1264 16.3467 22.3141 15.4667C22.8501 12.9689 24.5924 10.8978 26.9422 9.96444C28.1216 9.49333 28.6666 9.44 32.4907 9.43111L35.9484 9.42222V45.44Z" fill="white"/>
<path d="M28.6309 14.8533C28.068 14.96 27.2103 15.3867 26.7546 15.7867C25.8165 16.5955 25.3519 17.7422 25.4233 19.0933C25.4591 19.7955 25.5038 19.9822 25.7897 20.5511C26.2096 21.4133 26.844 22.0444 27.7106 22.4711C28.3093 22.7644 28.4611 22.8 29.2385 22.8267C29.9443 22.8533 30.1945 22.8267 30.668 22.6667C32.6069 22.0178 33.7773 20.1422 33.4467 18.2222C33.0625 15.9378 30.8825 14.4089 28.6309 14.8533Z" fill="white"/>
<path d="M43.8735 6.01779C43.8377 6.04446 43.8109 15.68 43.8109 27.4311C43.8109 46.8178 43.8199 48.7822 43.9539 48.8356C44.1951 48.9245 51.1285 48.8889 51.9862 48.8C55.6137 48.3911 58.8123 46.1956 60.5546 42.9333C60.778 42.5156 61.0728 41.8133 61.2247 41.3778C61.7876 39.7067 61.7697 40.1511 61.7697 27.3778C61.7697 17.1822 61.7519 15.6622 61.6268 15.0133C60.7422 10.3822 57.1951 6.8889 52.5312 6.0889C51.9058 5.98223 50.9408 5.95557 47.8316 5.95557C45.6872 5.95557 43.9003 5.98223 43.8735 6.01779ZM53.4158 25.3778C54.8096 25.7422 55.9532 26.8 56.4178 28.1511C56.7127 28.9867 56.7037 30.2133 56.4089 30.9778C55.8639 32.3822 54.7917 33.3689 53.4158 33.7333C51.1821 34.3111 48.8054 32.9689 48.1532 30.7645C47.9566 30.0889 47.9656 28.9511 48.1889 28.2578C48.8591 26.08 51.1821 24.8 53.4158 25.3778Z" fill="white"/>
<path d="M68.3189 55.3245C66.934 55.7778 66.112 57.1023 66.3443 58.5423C66.4873 59.4667 67.0233 60.1956 67.8453 60.6134C68.9622 61.1645 70.1505 61.0223 71.044 60.2223C71.7141 59.6178 72 58.9867 72 58.0889C72 57.2445 71.7498 56.6134 71.1869 56.0534C70.4811 55.3511 69.2123 55.0311 68.3189 55.3245ZM69.9003 56.6223C70.4364 56.8978 70.7312 57.3423 70.7759 57.9467C70.8295 58.7378 70.49 59.3067 69.7842 59.6C68.5869 60.0978 67.2288 58.9512 67.5684 57.7156C67.7113 57.1645 67.9525 56.8534 68.3993 56.6311C68.8818 56.4 69.4446 56.3911 69.9003 56.6223Z" fill="white"/>
<path d="M8.42951 60.8089L9.54635 60.7556L9.6357 57.3245L10.9312 59.0578L12.2268 60.8L12.7628 60.7823L13.2989 60.7556V55.4223L12.1821 55.3689V58.88L10.8687 57.1289L9.54635 55.3778H8.42951V60.8089Z" fill="white"/>
<path d="M17.3642 60.8H18.5257V55.3778H17.3642V60.8Z" fill="white"/>
<path d="M22.591 55.4934C22.5642 55.5556 22.5552 56.7645 22.5642 58.1778L22.591 60.7556L23.7078 60.8089V57.2089L26.3882 60.8H27.4604V55.3778H26.2989L26.281 57.0845L26.2542 58.7912L24.9676 57.0845L23.69 55.3778H23.1628C22.8144 55.3778 22.6178 55.4134 22.591 55.4934Z" fill="white"/>
<path d="M31.2755 55.44C31.2398 55.4667 31.213 55.7334 31.213 56.0178V56.5334H32.9999V60.8H34.1615V56.5334H35.859V55.3778H33.5986C32.3477 55.3778 31.3023 55.4045 31.2755 55.44Z" fill="white"/>
<path d="M39.7903 60.8H43.9896V59.7334H40.8625V58.4889H43.7216V57.5111H40.8625V56.4445L42.4082 56.4267L43.945 56.4L43.9986 55.3778H39.7903V60.8Z" fill="white"/>
<path d="M48.4123 55.4934C48.3855 55.5556 48.3766 56.7645 48.3855 58.1778L48.4123 60.7556L49.5292 60.8089V57.2089L52.2096 60.8H53.2817V55.3778H52.1202L52.1024 57.0845L52.0756 58.7912L50.789 57.0845L49.5113 55.3778H48.9842C48.6357 55.3778 48.4391 55.4134 48.4123 55.4934Z" fill="white"/>
<path d="M57.8385 60.8H59.0268C60.4027 60.8 61.055 60.6667 61.6446 60.2578C63.3869 59.0667 63.1189 56.5156 61.1622 55.6178C60.7958 55.4489 60.5457 55.4222 59.2948 55.3956L57.8385 55.36V60.8ZM60.7601 56.7022C61.5106 57.0489 61.8323 58 61.457 58.7911C61.1711 59.3778 60.5903 59.6445 59.5718 59.6445H58.9106V56.5334H59.6522C60.1794 56.5334 60.4921 56.5867 60.7601 56.7022Z" fill="white"/>
<path d="M55.1402 63.2089C53.8982 63.3689 52.7903 63.9467 51.879 64.9156C49.8866 67.0489 49.9491 70.2934 52.0309 72.3556C52.7993 73.1289 53.4962 73.5289 54.4969 73.7778C56.1409 74.1956 57.8027 73.8667 59.1608 72.8445C59.6879 72.4534 60.3759 71.6889 60.3223 71.5556C60.3044 71.52 59.9381 71.1911 59.5003 70.8089L58.7141 70.1245L58.4728 70.4356C57.3202 71.9378 54.9883 72.0978 53.6391 70.7556C53.4426 70.56 53.1745 70.1956 53.0405 69.9378C52.8171 69.5111 52.7903 69.3778 52.7903 68.5778C52.7903 67.8134 52.8171 67.6267 53.0137 67.2445C53.6749 65.8845 55.3099 65.1467 56.7305 65.5556C57.3917 65.7423 58.0171 66.1334 58.4103 66.6045L58.7141 66.9689L59.1072 66.6489C59.3216 66.48 59.6969 66.1511 59.9381 65.9378L60.3848 65.5378L60.0364 65.1111C58.8749 63.7067 56.9986 62.9778 55.1402 63.2089Z" fill="white"/>
<path d="M10.9491 63.5556C8.82262 64.1156 7.72365 65.5289 8.19719 67.1289C8.5367 68.3112 9.66248 68.8889 12.6556 69.4223C14.6659 69.7778 15.2556 70.0712 15.2556 70.7023C15.2556 71.1378 14.9965 71.4578 14.4336 71.7156C13.9511 71.9378 13.8439 71.9556 12.6288 71.9556C11.1903 71.9556 10.6274 71.84 9.5642 71.36C9.23361 71.2089 8.9477 71.1023 8.92983 71.12C8.82262 71.2534 7.97382 72.8267 8.00062 72.8445C8.08997 72.9423 9.51952 73.4578 10.1092 73.6178C11.092 73.8756 13.1917 73.9378 14.2639 73.7423C16.2652 73.3689 17.257 72.4534 17.3463 70.9156C17.4178 69.6445 17.0604 68.9867 15.9615 68.4178C15.1752 68.0089 14.4962 67.8134 12.7628 67.4667C11.2529 67.1734 10.824 67.0312 10.5113 66.7378C10.2343 66.48 10.2343 66.0178 10.5202 65.7334C11.1635 65.0934 13.4687 65.0667 15.2556 65.6889C15.5505 65.7867 15.8185 65.84 15.8542 65.8045C15.9168 65.7334 16.5601 64.2312 16.5601 64.1423C16.5601 64.0623 15.1931 63.6623 14.4247 63.52C13.3883 63.3245 11.78 63.3423 10.9491 63.5556Z" fill="white"/>
<path d="M18.5614 63.6179C18.5882 63.7068 19.2137 65.9201 19.9553 68.5334C20.6968 71.1468 21.3223 73.3601 21.3491 73.4401C21.3938 73.5823 21.5367 73.6001 22.6357 73.6001H23.8776L23.9759 73.2623C24.8604 70.0801 25.7539 67.0934 25.7986 67.2001C25.8254 67.2712 26.2453 68.729 26.7278 70.4445L27.6034 73.5556L30.1051 73.609L31.5257 68.649C32.303 65.9201 32.9553 63.6356 32.9821 63.5734C33.0089 63.4934 32.7587 63.4668 31.892 63.4668H30.7752L30.6501 63.8845C30.5786 64.1245 30.1498 65.7245 29.6941 67.4401C29.2295 69.1645 28.8364 70.5779 28.8006 70.5779C28.7738 70.5779 28.3539 69.2268 27.8714 67.5734C27.3889 65.929 26.9154 64.329 26.8171 64.0179L26.6474 63.4579L24.8247 63.5112L23.7793 67.0668C23.2075 69.0223 22.734 70.6401 22.725 70.6668C22.7161 70.6934 22.314 69.2534 21.8405 67.4668C21.358 65.6801 20.9113 64.0534 20.8577 63.8401L20.7505 63.4668H19.6336C18.6061 63.4668 18.5168 63.4756 18.5614 63.6179Z" fill="white"/>
<path d="M35.5017 73.6001H37.8247L37.8068 68.5512L37.78 63.5112L35.5017 63.4578V73.6001Z" fill="white"/>
<path d="M40.2371 65.689H43.4536V73.6001H45.6872V65.689L47.2776 65.6712L48.8591 65.6445V63.5112L44.5525 63.4845L40.2371 63.4667V65.689Z" fill="white"/>
<path d="M62.6632 73.6001H64.8075V69.6001H69.5429V73.6001H71.6873L71.6694 68.5512L71.6426 63.5112L69.5429 63.4578V67.4667H64.8075V63.4667H62.6632V73.6001Z" fill="white"/>
</svg>
