<svg xmlns="http://www.w3.org/2000/svg" viewBox="0 0 80 80"><rect width="100%" height="100%" fill="#fff"/><path fill="#F2F2F2" d="M40 72c17.673 0 32-14.327 32-32C72 22.327 57.673 8 40 8 22.327 8 8 22.327 8 40c0 17.673 14.327 32 32 32Z"/><path fill="#282828" d="m45.44 53.88-10.3-19c-.12-.22-.26-.52-.43-.92-.17-.4-.34-.81-.51-1.24-.17-.43-.32-.85-.46-1.26a9.913 9.913 0 0 1-.33-1h-.11c.05.84.11 1.85.17 3 .06 1.15.09 2.39.09 3.63v16.79h-3.93V25.8h5.11L45 44.66c.2.34.39.71.58 1.12a37.391 37.391 0 0 1 1.04 2.41c.126.294.236.594.33.9h.11c0-.31-.06-.72-.09-1.24s-.08-1.06-.11-1.64c-.03-.58-.07-1.16-.09-1.74-.02-.58 0-1.11 0-1.57V25.8h3.93v28.08h-5.26Z"/></svg>