<svg viewBox="0 0 80 80" xmlns="http://www.w3.org/2000/svg">
<rect width="100%" height="100%" fill="#E60012"/>
<path d="M44.12 64.9201H51.8C58.84 64.9201 64.56 59.2001 64.56 52.1601V27.8801C64.56 20.8401 58.84 15.1201 51.8 15.1201H44.08C43.92 15.1201 43.76 15.2801 43.76 15.4401V64.5601C43.76 64.7601 43.92 64.9201 44.12 64.9201ZM53.6 37.4401C56.4 37.4401 58.64 39.6801 58.64 42.4801C58.64 45.2801 56.4 47.5201 53.6 47.5201C50.8 47.5201 48.56 45.2801 48.56 42.4801C48.56 39.7201 50.84 37.4401 53.6 37.4401ZM38.4 15.0801H27.52C20.48 15.0801 14.76 20.8001 14.76 27.8401V52.1201C14.76 59.1601 20.48 64.8801 27.52 64.8801H38.4C38.6 64.8801 38.76 64.7201 38.76 64.5201V15.4401C38.76 15.2401 38.6 15.0801 38.4 15.0801ZM34.76 60.8801H27.52C25.2 60.8801 23 59.9601 21.32 58.3201C19.68 56.6801 18.76 54.4801 18.76 52.1201V27.8801C18.76 25.5201 19.68 23.3601 21.32 21.6801C23 20.0001 25.2 19.1201 27.52 19.1201H34.76V60.8801ZM22.52 30.0401C22.52 32.6401 24.6 34.7201 27.2 34.7201C29.8 34.7201 31.88 32.6401 31.88 30.0401C31.88 27.4401 29.8 25.3601 27.2 25.3601C24.6 25.3601 22.52 27.4401 22.52 30.0401Z" fill="white"/>
</svg>
