<svg xmlns="http://www.w3.org/2000/svg" viewBox="0 0 80 80" fill="none">
  <rect width="100%" height="100%" fill="#fff"/>
  <g transform="translate(8 8) scale(1.6)">
    <g clip-path="url(#nitro_clip)">
      <path fill-rule="evenodd" clip-rule="evenodd" d="M35.2166 7.02016C28.0478 -1.38317 15.4241 -2.38397 7.02077 4.78481C-1.38256 11.9536 -2.38336 24.5773 4.78542 32.9806C11.9542 41.3839 24.5779 42.3847 32.9812 35.216C41.3846 28.0472 42.3854 15.4235 35.2166 7.02016ZM25.2525 17.5175C26.0233 17.5175 26.5155 18.3527 26.1287 19.0194L26.0175 19.2111L18.4696 31.6294C18.3293 31.8602 18.0788 32.001 17.8088 32.001H17.0883C16.5946 32.001 16.2336 31.5349 16.3573 31.0569L18.4054 23.1384C18.5691 22.5053 18.0912 21.888 17.4373 21.888H14.2914C13.6375 21.888 13.1596 21.2708 13.3232 20.6377L16.4137 8.68289C16.5261 8.28056 16.8904 7.99734 17.3081 8.00208C17.3587 8.00266 17.4046 8.0035 17.4427 8.0047L20.6109 8.00465C21.217 8.00436 21.684 8.53896 21.6023 9.13949L21.5828 9.28246L20.3746 16.349C20.2702 16.9598 20.7406 17.5175 21.3603 17.5175H25.2525Z" fill="url(#nitro_grad)"/>
    </g>
  </g>
  <defs>
    <radialGradient id="nitro_grad" cx="0" cy="0" r="1" gradientUnits="userSpaceOnUse" gradientTransform="translate(4 20) scale(39 397.71)">
      <stop stop-color="#31B2F3"/>
      <stop offset="0.473958" stop-color="#F27CEC"/>
      <stop offset="1" stop-color="#FD6641"/>
    </radialGradient>
    <clipPath id="nitro_clip">
      <rect width="40" height="40" fill="#fff"/>
    </clipPath>
  </defs>
</svg>
