<svg xmlns="http://www.w3.org/2000/svg" xmlns:xlink="http://www.w3.org/1999/xlink" viewBox="0 0 80 80"><defs><linearGradient id="a" x1="52.45" y1="13.98" x2="24.12" y2="71.78" gradientUnits="userSpaceOnUse"><stop offset="0" stop-color="#3f873f"/><stop offset=".33" stop-color="#3f8b3d"/><stop offset=".64" stop-color="#3e9637"/><stop offset=".93" stop-color="#3da92e"/><stop offset="1" stop-color="#3dae2b"/></linearGradient><linearGradient id="d" x1="34.92" y1="44.23" x2="114.42" y2="-14.5" gradientUnits="userSpaceOnUse"><stop offset=".14" stop-color="#3f873f"/><stop offset=".4" stop-color="#529f44"/><stop offset=".71" stop-color="#63b649"/><stop offset=".91" stop-color="#6abf4b"/></linearGradient><linearGradient id="e" x1="3.45" y1="39.99" x2="75.95" y2="39.99" gradientUnits="userSpaceOnUse"><stop offset=".09" stop-color="#6abf4b"/><stop offset=".29" stop-color="#63b649"/><stop offset=".6" stop-color="#529f44"/><stop offset=".86" stop-color="#3f873f"/></linearGradient><linearGradient id="f" x1="3.45" y1="60.68" x2="75.95" y2="60.68" xlink:href="#e"/><linearGradient id="g" x1="3.45" y1="70.04" x2="75.95" y2="70.04" xlink:href="#e"/><linearGradient id="h" x1="86.51" y1="12.27" x2="41.8" y2="103.49" xlink:href="#a"/><clipPath id="c"><path d="M41.59.51a3.76 3.76 0 00-3.78 0L6.45 18.6a3.81 3.81 0 00-1.9 3.28V58.1a3.78 3.78 0 001.9 3.28L37.81 79.5a3.82 3.82 0 003.79 0L73 61.38a3.77 3.77 0 001.89-3.28V21.88A3.8 3.8 0 0073 18.6z" clip-rule="evenodd" fill="url(#a)"/></clipPath><style>.d{fill:none}</style></defs><path d="M41.59.51a3.76 3.76 0 00-3.78 0L6.45 18.6a3.81 3.81 0 00-1.9 3.28V58.1a3.78 3.78 0 001.9 3.28L37.81 79.5a3.82 3.82 0 003.79 0L73 61.38a3.77 3.77 0 001.89-3.28V21.88A3.8 3.8 0 0073 18.6z" fill-rule="evenodd" fill="url(#a)"/><g clip-path="url(#c)"><path class="d" d="M37.74.51L6.32 18.6a3.93 3.93 0 00-2 3.28V58.1a3.61 3.61 0 001 2.41L40.58.12a3.81 3.81 0 00-2.84.39zM40.75 79.86a3.23 3.23 0 00.88-.37L73 61.38a3.85 3.85 0 002-3.28V21.88a3.77 3.77 0 00-1.15-2.63z"/><path d="M73 18.6L41.56.51a3.58 3.58 0 00-1-.39L5.27 60.51a3.85 3.85 0 001.06.87l31.5 18.11a3.79 3.79 0 002.92.37l33.1-60.61a4.1 4.1 0 00-.85-.65z" fill="url(#d)"/><path class="d" d="M75 58.1V21.88a3.89 3.89 0 00-2-3.28L41.56.51a3.73 3.73 0 00-1.15-.43L74.88 59a3.58 3.58 0 00.12-.9zM6.32 18.6a3.93 3.93 0 00-2 3.28V58.1a3.92 3.92 0 002 3.28l31.5 18.11a3.81 3.81 0 002.42.48L6.51 18.49z"/><path d="M73 61.38A3.93 3.93 0 0074.88 59L40.41.08a3.84 3.84 0 00-2.67.43l-31.23 18L40.25 80a3.85 3.85 0 001.38-.48z" fill="url(#e)"/><path fill="url(#f)" d="M75.95 60.8l-.21-.35v.47l.21-.12z"/><path d="M73 61.38L41.63 79.49a3.85 3.85 0 01-1.38.48l.63 1.13 34.86-20.18v-.47L74.88 59A3.93 3.93 0 0173 61.38z" fill="url(#g)"/><path d="M73 61.38L41.63 79.49a3.85 3.85 0 01-1.38.48l.63 1.13 34.86-20.18v-.47L74.88 59A3.93 3.93 0 0173 61.38z" fill="url(#h)"/></g></svg>