<svg xmlns="http://www.w3.org/2000/svg" viewBox="0 0 80 80">
  <rect width="100%" height="100%" fill="#333"/>
  <path fill="url(#a)" d="M41.5 8.4c-1-.5-2.1-.5-3 0L12.6 23a3 3 0 0 0-1.6 2.6v29c0 1 .6 2 1.6 2.6l25.7 14.5c1 .5 2.2.5 3.1 0L67.3 57a3 3 0 0 0 1.5-2.6v-29c0-1-.6-2-1.5-2.6L41.5 8.4Z"/>
  <path fill="url(#b)" d="M67.3 22.9 41.5 8.4l-.8-.3-29 48.3.8.7 26 14.5a3 3 0 0 0 2.3.3L68 23.4l-.7-.5Z"/>
  <path fill="url(#c)" d="M67.3 57.1c.8-.4 1.3-1.1 1.6-1.9L40.6 8.1c-.8-.2-1.6-.1-2.3.3L12.7 22.8 40.4 72c.3 0 .8-.2 1.1-.4l25.8-14.5Z"/>
  <linearGradient id="a" x1="50.5" x2="28.2" y1="19.2" y2="65.9" gradientUnits="userSpaceOnUse">
    <stop stop-color="#3F873F"/>
    <stop offset=".3" stop-color="#3F8B3D"/>
    <stop offset=".6" stop-color="#3E9638"/>
    <stop offset=".9" stop-color="#3DA92E"/>
    <stop offset="1" stop-color="#3DAE2B"/>
  </linearGradient>
  <linearGradient id="b" x1="36.1" x2="100.1" y1="43.4" y2="-5.3" gradientUnits="userSpaceOnUse">
    <stop offset=".1" stop-color="#3F873F"/>
    <stop offset=".4" stop-color="#52A044"/>
    <stop offset=".7" stop-color="#64B749"/>
    <stop offset=".9" stop-color="#6ABF4B"/>
  </linearGradient>
  <linearGradient id="c" x1="10.2" x2="69.8" y1="40" y2="40" gradientUnits="userSpaceOnUse">
    <stop offset=".1" stop-color="#6ABF4B"/>
    <stop offset=".3" stop-color="#64B749"/>
    <stop offset=".6" stop-color="#52A044"/>
    <stop offset=".9" stop-color="#3F873F"/>
  </linearGradient>
</svg>