<svg viewBox="0 0 80 80" xmlns="http://www.w3.org/2000/svg">
<rect width="100%" height="100%" fill="#020420"/>
<path d="M44.08 60.3334H69.24C70.0428 60.3334 70.8114 60.0513 71.5066 59.6534C72.202 59.2555 72.9187 58.7559 73.32 58.0666C73.7213 57.3775 74.0003 56.5955 74 55.7998C73.9997 55.004 73.7219 54.2224 73.32 53.5335L56.32 24.2934C55.9187 23.6042 55.4285 23.1045 54.7334 22.7066C54.0382 22.3089 53.0427 22.0266 52.24 22.0266C51.4373 22.0266 50.6685 22.3089 49.9734 22.7066C49.2782 23.1045 48.7879 23.6042 48.3866 24.2934L44.08 31.7734L35.4666 17.2661C35.065 16.5772 34.5754 15.8511 33.88 15.4534C33.1846 15.0555 32.4162 15 31.6134 15C30.8105 15 30.042 15.0555 29.3466 15.4534C28.6514 15.8511 27.935 16.5772 27.5334 17.2661L6.45334 53.5335C6.05145 54.2224 6.00035 55.004 6 55.7998C5.99965 56.5955 6.05206 57.3773 6.45334 58.0666C6.85462 58.7558 7.57136 59.2555 8.26666 59.6534C8.96198 60.0513 9.73043 60.3334 10.5333 60.3334H26.4C32.687 60.3334 37.263 57.5131 40.4534 52.1734L48.16 38.8L52.24 31.7734L64.7066 53.08H48.16L44.08 60.3334ZM26.1734 53.08H15.0666L31.6134 24.52L40 38.8L34.4447 48.4842C32.3261 51.9489 29.9105 53.08 26.1734 53.08Z" fill="#00DC82"/>
</svg>
