<svg viewBox="0 0 80 80" xmlns="http://www.w3.org/2000/svg">
<rect width="100%" height="100%" fill="white"/>
<path d="M30.8443 30.4181V26.1359C31.2683 26.1095 31.6923 26.0831 32.1163 26.0831C43.8822 25.713 51.5937 36.1804 51.5937 36.1804C51.5937 36.1804 43.2727 47.7052 34.3423 47.7052C33.1498 47.7052 31.9838 47.5202 30.8708 47.1501V34.1451C35.4553 34.7002 36.3828 36.7091 39.1123 41.282L45.2337 36.154C45.2337 36.154 40.7552 30.3123 33.2293 30.3123C32.4343 30.2859 31.6393 30.3388 30.8443 30.4181ZM30.8443 16.25V22.6468L32.1163 22.5675C48.4667 22.0124 59.1461 35.9425 59.1461 35.9425C59.1461 35.9425 46.9032 50.7979 34.1568 50.7979C33.0438 50.7979 31.9573 50.6921 30.8708 50.5071V54.472C31.7718 54.5778 32.6993 54.6571 33.6003 54.6571C45.4722 54.6571 54.0581 48.6039 62.3791 41.467C63.7571 42.5772 69.4015 45.2469 70.5675 46.41C62.6706 53.0182 44.2532 58.3312 33.8123 58.3312C32.8053 58.3312 31.8513 58.2784 30.8973 58.1726V63.75H76V16.25L30.8443 16.25ZM30.8443 47.1501V50.5335C19.8734 48.5775 16.8259 37.1849 16.8259 37.1849C16.8259 37.1849 22.0994 31.3696 30.8443 30.4181V34.1187H30.8178C26.2333 33.5636 22.6294 37.8457 22.6294 37.8457C22.6294 37.8457 24.6699 45.0619 30.8443 47.1501ZM11.3669 36.7091C11.3669 36.7091 17.8594 27.1404 30.8708 26.1359V22.6468C16.4549 23.8098 4 35.969 4 35.969C4 35.969 11.049 56.3223 30.8443 58.1726V54.472C16.3224 52.6746 11.3669 36.7091 11.3669 36.7091Z" fill="#76B900"/>
</svg>
