<svg xmlns="http://www.w3.org/2000/svg" viewBox="0 0 80 80"><rect width="100%" height="100%" fill="#fff"/><path fill="#000" d="M68.269 34.013a16.44 16.44 0 0 0-1.413-13.506 16.63 16.63 0 0 0-17.91-7.978A16.448 16.448 0 0 0 36.542 7a16.631 16.631 0 0 0-15.862 11.514 16.45 16.45 0 0 0-10.996 7.975 16.634 16.634 0 0 0 2.046 19.5 16.44 16.44 0 0 0 1.413 13.505 16.63 16.63 0 0 0 17.91 7.977 16.436 16.436 0 0 0 12.403 5.528 16.632 16.632 0 0 0 15.869-11.521A16.45 16.45 0 0 0 70.32 53.5a16.635 16.635 0 0 0-2.05-19.493l-.002.005ZM43.46 68.684a12.328 12.328 0 0 1-7.918-2.863c.101-.053.276-.15.39-.22l13.142-7.59a2.137 2.137 0 0 0 1.08-1.87V37.613l5.555 3.207c.06.029.1.086.107.152v15.343c-.008 6.823-5.533 12.355-12.356 12.37Zm-26.573-11.35a12.316 12.316 0 0 1-1.475-8.287c.097.058.268.163.39.233l13.142 7.59a2.14 2.14 0 0 0 2.16 0l16.044-9.265v6.415a.205.205 0 0 1-.079.171l-13.284 7.67c-5.918 3.408-13.475 1.382-16.896-4.527h-.002Zm-3.46-28.687a12.327 12.327 0 0 1 6.438-5.422c0 .113-.006.313-.006.453v15.182a2.138 2.138 0 0 0 1.078 1.87l16.045 9.262-5.555 3.207a.196.196 0 0 1-.187.016L17.954 45.54c-5.905-3.42-7.93-10.975-4.527-16.89l.002-.002Zm45.636 10.62L43.02 30.003l5.554-3.205a.196.196 0 0 1 .188-.017l13.286 7.67c5.915 3.418 7.943 10.986 4.525 16.9a12.363 12.363 0 0 1-6.435 5.421V41.136a2.135 2.135 0 0 0-1.072-1.868h-.002Zm5.527-8.32a17.67 17.67 0 0 0-.39-.233l-13.142-7.59a2.14 2.14 0 0 0-2.16 0l-16.044 9.264v-6.414a.205.205 0 0 1 .079-.171l13.284-7.664c5.918-3.414 13.483-1.382 16.894 4.537a12.365 12.365 0 0 1 1.475 8.27h.004ZM29.836 42.38l-5.556-3.207a.194.194 0 0 1-.108-.153V23.677c.005-6.83 5.546-12.366 12.377-12.362 2.89 0 5.687 1.014 7.908 2.862a9.31 9.31 0 0 0-.39.221l-13.142 7.59a2.133 2.133 0 0 0-1.08 1.869l-.009 18.519v.004Zm3.017-6.505L40 31.748l7.147 4.125v8.252L40 48.25l-7.147-4.125v-8.25Z"/></svg>