<svg xmlns="http://www.w3.org/2000/svg" viewBox="0 0 80 80">
  <rect width="100%" height="100%"/>
  <path fill="#fff" fill-rule="evenodd" d="M3.674 42.892a3.118 3.118 0 0 1-1.254-1.357C2.14 40.952 2 40.27 2 39.49c0-.55.048-1.09.145-1.619.1-.532.248-1.04.44-1.522a6.45 6.45 0 0 1 .724-1.337 5.087 5.087 0 0 1 1.02-1.06 4.419 4.419 0 0 1 1.295-.703A4.836 4.836 0 0 1 7.2 33c1.176 0 2.076.347 2.7 1.04.63.694.944 1.635.944 2.825 0 .55-.046 1.095-.138 1.632a7.654 7.654 0 0 1-.413 1.53 6.354 6.354 0 0 1-.696 1.336 4.81 4.81 0 0 1-.992 1.054 4.42 4.42 0 0 1-1.288.703 4.839 4.839 0 0 1-1.591.248c-.813 0-1.497-.159-2.053-.476Zm2.15-.937c.335 0 .65-.06.943-.179a2.79 2.79 0 0 0 .806-.503 3.63 3.63 0 0 0 .661-.792c.198-.307.363-.65.496-1.026.138-.377.244-.78.317-1.213.074-.436.11-.89.11-1.364 0-.767-.18-1.37-.544-1.811-.358-.441-.87-.662-1.536-.662a2.54 2.54 0 0 0-.971.186c-.299.12-.574.294-.827.524a3.765 3.765 0 0 0-.675.806c-.193.308-.358.65-.496 1.026a6.915 6.915 0 0 0-.317 1.206 8.211 8.211 0 0 0-.103 1.322c0 .524.082.972.248 1.344.17.372.413.654.73.847.321.193.707.29 1.157.29Z" clip-rule="evenodd"/>
  <path fill="#fff" d="M36.972 33.777v9.453h1.778v-7.393l5.558 7.393H46.1v-9.453h-1.777v6.674L39.3 33.777h-2.328ZM49.03 33.777v9.453h8.465v-1.622H50.88v-2.37h5.53v-1.61h-5.53V35.4h6.504v-1.623H49.03ZM58.857 43.23l3.513-4.867-3.456-4.586h2.285l2.596 3.415 2.455-3.415h2.13l-3.456 4.797 3.527 4.656h-2.3L63.5 39.731l-2.511 3.499h-2.13ZM72.681 35.428v7.802h1.848v-7.802H78v-1.65h-8.79v1.65h3.471Z"/>
  <path fill="#fff" fill-rule="evenodd" d="m12.96 35.604-2.335 11.008h1.605l.593-2.797c.06-.266.11-.546.151-.84.042-.294.074-.576.097-.847h.062c.11.225.245.431.406.62.16.188.358.34.593.454.238.11.523.166.854.166.45 0 .863-.094 1.24-.283a3.384 3.384 0 0 0 1.006-.792c.298-.34.55-.73.757-1.171.207-.44.363-.912.469-1.412.11-.505.165-1.02.165-1.543 0-.625-.096-1.135-.29-1.53-.188-.4-.442-.693-.764-.882a2.001 2.001 0 0 0-1.06-.289c-.35 0-.671.07-.965.207-.29.138-.551.317-.786.537-.234.22-.445.457-.633.71h-.055l.151-1.316h-1.26Zm2.542 6.234a1.34 1.34 0 0 1-.73.214c-.4 0-.705-.129-.916-.386-.207-.257-.31-.597-.31-1.02 0-.28.025-.569.076-.867.055-.299.133-.593.234-.882.101-.29.223-.56.365-.813.143-.257.3-.482.476-.675.174-.193.362-.345.564-.455.202-.115.414-.172.634-.172.363 0 .634.12.813.358.184.234.276.586.276 1.054 0 .377-.035.751-.104 1.123a5.865 5.865 0 0 1-.296 1.047c-.129.33-.285.623-.468.875a2.364 2.364 0 0 1-.614.6ZM22.557 43.368c-.583 0-1.093-.11-1.53-.33a2.391 2.391 0 0 1-1.005-.986c-.234-.436-.351-.97-.351-1.598 0-.625.089-1.233.268-1.826.18-.597.443-1.134.792-1.612.35-.477.774-.856 1.275-1.136.5-.28 1.07-.42 1.708-.42.78 0 1.367.176 1.757.53.395.349.592.813.592 1.391 0 .395-.09.756-.268 1.082-.18.326-.453.608-.82.847-.363.234-.825.416-1.385.544-.555.129-1.21.193-1.963.193h-.31a51.481 51.481 0 0 0-.018.287c-.002.044-.003.089-.003.133 0 .51.133.912.4 1.206.266.29.654.434 1.164.434.386 0 .742-.048 1.068-.145a7.572 7.572 0 0 0 1.095-.434v1.275c-.372.179-.748.319-1.13.42a5.489 5.489 0 0 1-1.336.145Zm-1.04-4.492h.234c.56 0 1.047-.053 1.46-.158.414-.11.733-.271.958-.483.225-.215.337-.477.337-.785 0-.239-.075-.425-.227-.558-.147-.138-.367-.207-.661-.207-.29 0-.574.09-.854.27-.28.174-.53.426-.751.757-.22.326-.386.714-.496 1.164Z" clip-rule="evenodd"/>
  <path fill="#fff" d="m28.11 35.583-1.626 7.647h1.653l.689-3.258c.147-.671.347-1.243.6-1.716.252-.473.534-.833.847-1.081.312-.248.629-.372.95-.372.294 0 .515.075.662.227.151.151.227.379.227.682 0 .124-.011.257-.034.4a5.063 5.063 0 0 1-.09.482l-.978 4.636h1.646l.958-4.505c.046-.202.082-.41.11-.62a4.12 4.12 0 0 0 .048-.607c0-.427-.076-.794-.227-1.102a1.611 1.611 0 0 0-.668-.71c-.294-.165-.653-.247-1.075-.247-.386 0-.735.075-1.047.227a3.097 3.097 0 0 0-.827.592 5.004 5.004 0 0 0-.64.765h-.042l.166-1.44H28.11Z"/>
</svg>
