<svg xmlns="http://www.w3.org/2000/svg" viewBox="0 0 80 80">
  <rect width="100%" height="100%" fill="#fff"/>
  <path fill="#231F20" d="M52.9465 63h-25.893c-6.1141 0-11.9779-2.4232-16.3012-6.7366C6.4289 51.9502 4 46.1 4 40c0-6.1 2.4289-11.9502 6.7523-16.2634C15.0756 19.4232 20.9394 17 27.0535 17h25.893c6.1141 0 11.978 2.4232 16.3013 6.7366C73.5712 28.0498 76 33.9 76 40c0 6.1-2.4288 11.9502-6.7522 16.2634C64.9245 60.5768 59.0606 63 52.9465 63Zm.1004-39.9426c-3.3587 0-6.642.9937-9.4347 2.8554a16.9504 16.9504 0 0 0-6.2545 7.6036 16.906 16.906 0 0 0-.9665 9.789 16.9318 16.9318 0 0 0 4.6476 8.6748 16.9946 16.9946 0 0 0 8.6951 4.6368 17.0183 17.0183 0 0 0 9.8117-.9641 16.9724 16.9724 0 0 0 7.6213-6.2401A16.9148 16.9148 0 0 0 70.0289 40a16.8994 16.8994 0 0 0-1.2937-6.4935 16.9303 16.9303 0 0 0-3.6904-5.5023 16.9765 16.9765 0 0 0-5.523-3.67 17.0068 17.0068 0 0 0-6.5114-1.2768h.0365Z"/>
</svg>
