<svg xmlns="http://www.w3.org/2000/svg" viewBox="0 0 80 80">
  <rect width="100%" height="100%" fill="#fff"/>
  <path fill="#FF1B2D" fill-rule="evenodd" d="M61.0379 64.0421C55.4202 69.0392 48.0284 72 39.9375 72H38.4281C21.5059 71.2827 8 57.2553 8 40.0399C8 22.3462 22.3004 8 39.9375 8H40.0964C48.1999 8 55.5882 11.1082 61.2289 16.1293C61.2288 16.1292 61.2289 16.1293 61.2289 16.1293C67.7435 22.0272 71.8751 30.5553 71.8751 40.0398C71.8751 49.5242 67.7439 58.0522 61.2292 63.9501C61.1654 63.9812 61.1016 64.0118 61.0379 64.0421ZM23.4921 39.2428C23.651 32.3089 25.9549 26.0922 29.4506 21.9477C33.9791 16.0498 40.8115 12.2242 48.4383 12.2242C53.1256 12.2242 57.495 13.6587 61.2289 16.1293C53.046 12.1445 45.4193 14.934 42.8771 16.6874C50.9011 18.4408 57.0186 28.244 57.0186 40.0398C57.0186 51.8355 50.9011 61.6388 42.8771 63.3922C45.3718 65.1128 52.7628 67.8312 60.7709 64.1665C57.1396 66.4555 52.9352 67.7758 48.4383 67.7758C40.8115 67.7758 34.0585 64.0299 29.4506 58.0523C25.9549 53.9078 23.651 47.6911 23.4921 40.7572V39.2428Z" clip-rule="evenodd"/>
</svg>
