<svg xmlns="http://www.w3.org/2000/svg" viewBox="0 0 80 80">
  <rect width="100%" height="100%" fill="#fff"/>
  <path d="M2 20.414 39.997 64.4l38.002-43.986H61.52l-1.5 1.124H47.674v.71H32.32v-.71H20.667l-1.582-1.124H2Z"/>
  <path fill="#DFDFDF" d="M13.383 22.984h53.233L39.999 54.371 13.383 22.984Z"/>
  <path d="M13.167 15v13.952l16.364-3.49L40 23.232l10.468 2.23 16.362 3.49V15l-16.362 3.49L40 20.72l-10.47-2.23L13.168 15Z"/>
  <path fill="#fff" d="M40.034 54.371 22.867 34.203l17.121-10.896.046 31.064Z" opacity=".714"/>
  <path d="m40.015 23.223-10.47 2.23-11.972 2.534.805.95c7.727-1.944 21.637-5.352 21.637-5.352l21.074 6.035 1.291-1.61-11.903-2.557-10.462-2.23Z" opacity=".33"/>
  <path fill="red" d="m52.621 34.514 3.673 11.076 9.57-11.076H52.62Z"/>
  <path fill-opacity=".396" d="m52.621 34.41 6.258 8.17-2.588 3.018-3.67-11.187Z" opacity=".486"/>
</svg>
