<svg xmlns="http://www.w3.org/2000/svg" viewBox="0 0 80 80">
  <rect width="100%" height="100%" fill="#004065"/>
  <path fill="#fff" d="M48 42.2c.5 3.5 1 7 1.1 10.5 0 2.2-.5 4.4-1.8 6.2-.3 1-1.2 0-1.8 0-1.5 0-2.1-1.7-3-2.7-.8-1-.2-2 .4-2.8.6-.4.8-1.4 1.7-1.4.8 0 .7-1.2.6-1.8.6-.9.2-2.2.8-3.2 1-.4.7-2 1-2.8.3-.7 0-1.9.8-2.1l.1.1ZM47 6.3c-1.3-.1-2.3.8-3.4 1.3l-2.8.7c-.7 1.4-2.3 2.2-3.1 3.6a14 14 0 0 1-4.7 6.6c-3 1.6-4.6 5-5.6 8.3-.4.8-.3 1.9-.7 2.5-1.2.3-.6-1.3-.7-2-.2-1.2.8-2 .9-3 .4-.8.6-1.7.5-2.6-.2-2 .4-4.4-1-6-.8-.5-.5-1.6-.8-2.4-.9-1.1-2-2-3.1-2.8-1 0-2-1.4-3-.8-.6.8-1.8.8-2.2 1.8-.2 1.2-1.6 1-2.5 1.2-1.2.5-2.7 0-3.7 1-1 .9-2.5 2.3-2 3.8 1 2.2 4 1.1 5.5 2.4a43 43 0 0 1-1.7 4.3c-.3 1.9-.3 3.8-.1 5.7.3 1.9-.2 4.3 1.4 5.7.9.3.8 1.4 1.2 2.2.3.7 1-.3 1.3.4.8.5 0 1.4.5 2 .7.1 1.4.5 2 1a17 17 0 0 1 2.3 2c.6 1.2 1.3-1 2-.2a1.4 1.4 0 0 0 1.2.9l.5-.1.2-.1a7 7 0 0 0 3-1.4c.7 2.2.2 4.5.5 6.7.4 1.6.6 3.3.7 5 .4 1.5.6 3.2.7 4.9.5 3.5-.1 7-1.7 10.2a2.5 2.5 0 0 1-2 2c-.6.3-2 .8-1.6 1.8 1.6 1.4 4.2 1.3 6 .6 1.2-.6.2-2.1.8-3 .9-3.2.4-6.6 1.4-9.8.8-1.6 1-3.4.8-5.2.2-1-.2-2.4.5-3.2 0-1.1.4-2.1 1-3 .3-1.6.4-3.3.4-5 1-.2 2-.3 3-.2 0 .9-.6 2-.4 3 .2 1.2 0 2.4-.6 3.4-.4 1.8-.7 4 .4 5.6 1.9 2 4.3 3.5 6 5.7a1.3 1.3 0 0 1 .3 1.8l-.2.1a3.7 3.7 0 0 1-2.3 2.6c-.8.3-2 1.4-1 2.1 1.7.4 3.5.3 5.1-.4 1.2-.4.8-1.8 1.2-2.6l1.7 2.6c.7 1 2 .2 2.8-.2 0-1.5-.2-3-1-4.5-.3-1-1.8-1-1.8-2 .8-2.9 2.7-5 4.1-7.4 1.3-1.2.4-3 .4-4.4-.4-3.8.5-7.6 2.6-10.9.5 1.8 1 3.6 1.7 5.3.5 2 1.4 3.9 2.6 5.5.6 2 .4 4.2.8 6.3.5 3.5.3 7.2-.6 10.6 0 1.3-1.1 2.3-1 3.5.3 1.1 1.7.2 2.4.7a2.6 2.6 0 0 0 3.1-1.4l-.6-3c-1-3-1.1-6-.6-9.1.1-1.7 1.1-3.7-.1-5.1-.4-1.5.2-3.1-.2-4.7-.8-4-.9-8-.2-12 .2-.6 0-1.7.6-2 .6 1 .8 2 .7 3 .6 1.7.6 3.5.2 5.1-1 1.3-.4 3.1-.3 4.6.2 1 1.3.3 1.4-.4 1-1.7 1.7-3.6 2.3-5.5.6-.9 0-1.9 0-2.8 1-.1.6-1.2 0-1.7-.5-1.8-.3-3.9-1.5-5.4-2-2-3.5-4.2-4.7-6.7-1.3-4-4.9-6.6-6.1-10.7A8.8 8.8 0 0 0 52.2 7a18 18 0 0 0-2.8-1l-2.4.3"/>
</svg>