<svg viewBox="0 0 80 80" xmlns="http://www.w3.org/2000/svg">
<rect width="100%" height="100%" fill="white"/>
<path d="M41.4022 6V24.3521L59.3282 6.3597V25.6452H67V53.165H59.3282V72.5594L41.4022 54.5633V74H39.5187V54.6463L21.6755 72.5594V53.165H14V25.6452H21.6736V6.3597L39.5187 24.2709V6H41.4022ZM23.5589 44.9307V67.9958L39.5187 51.9771V28.9102L23.5589 44.9307ZM41.4445 51.9347L57.4447 67.9958V53.165H57.4411L57.4429 52.2206V44.9325L41.4445 28.8714V51.9347ZM59.3282 27.5378H42.778L59.3282 44.1504V51.2761H65.1165V27.5341H59.3282V27.5378ZM15.8835 51.2761H21.6736L21.6755 44.1504L38.2238 27.5378H21.6736V27.5341H15.8835V51.2761ZM42.778 25.6452H57.4447V10.9196L42.778 25.6452ZM23.5571 25.6452H38.2238L23.5571 10.9196V25.6452Z" fill="#20808D"/>
</svg>
