<svg xmlns="http://www.w3.org/2000/svg" viewBox="0 0 80 80">
  <rect width="100%" height="100%" fill="#5C669A"/>
  <path fill="#fff" d="M12.23 29.94H22c2.88 0 4.97.82 6.25 2.46 1.29 1.65 1.71 3.86 1.28 6.65a12.76 12.76 0 0 1-3.47 7.13 8.17 8.17 0 0 1-3.91 2.4 18 18 0 0 1-4.31.5h-4.38L12.08 56H7l5.23-26.06Zm4.27 4.12L14.3 44.98h.95c1.97.08 3.94-.16 5.85-.69 1.55-.5 2.6-2.28 3.09-5.3.44-2.54 0-4-1.31-4.4-1.58-.42-3.22-.6-4.86-.55-.28.02-.56.02-.84 0h-.77l.08.02ZM35.32 23h5.03l-1.43 6.94h4.52A9.1 9.1 0 0 1 49 31.47c1.23.96 1.6 2.8 1.09 5.52l-2.42 12.12H42.5l2.34-11.56a3.27 3.27 0 0 0-.22-2.58 3.1 3.1 0 0 0-2.52-.76h-4.05L35.1 49.1h-5.07l5.26-26.09.03-.02Zm20.2 6.94h9.79c2.88 0 4.96.82 6.25 2.46 1.28 1.65 1.7 3.86 1.28 6.65a12.77 12.77 0 0 1-3.48 7.13 8.17 8.17 0 0 1-3.9 2.4 18 18 0 0 1-4.32.5h-4.38L55.38 56H50.3l5.22-26.06Zm4.27 4.12-2.18 10.92h.95c1.97.08 3.94-.16 5.84-.69 1.56-.5 2.6-2.28 3.1-5.3.44-2.54 0-4-1.31-4.4-1.59-.42-3.22-.6-4.86-.55-.28.02-.56.02-.85 0h-.76"/>
</svg>