<svg viewBox="0 0 80 80" xmlns="http://www.w3.org/2000/svg">
<rect width="100%" height="100%" fill="#0070D1"/>
<path d="M8.33581 51.2682C5.86226 52.9173 6.68677 56.0505 11.9637 57.5346C17.4055 59.3485 23.3421 59.8432 29.1137 58.8538C29.4435 58.8538 29.7733 58.6889 29.9382 58.6889V53.0822L24.3315 54.8961C22.1877 55.5557 20.044 55.7207 17.9002 55.2259C16.2512 54.7312 16.581 53.7418 18.5598 52.9173L29.9382 48.9596V42.8582L14.1074 48.3C12.1286 48.9596 10.1498 49.949 8.33581 51.2682ZM46.5935 26.5327V42.5283C53.3545 45.8264 58.6315 42.5284 58.6315 33.9534C58.6315 25.2135 55.4983 21.2558 46.4286 18.1226C41.6464 16.4736 36.6993 14.9894 31.7521 14V61.6572L43.2954 65.1202V25.0486C43.2954 23.2346 43.2954 21.9154 44.6146 22.4101C46.4286 22.9048 46.5935 24.7187 46.5935 26.5327ZM68.031 47.4755C63.2488 45.8264 58.1368 45.1668 53.1896 45.6615C50.5512 45.8264 48.0776 46.486 45.769 47.3106L45.2743 47.4755V53.9067L55.993 49.949C58.1368 49.2894 60.2805 49.1245 62.4242 49.6192C64.0733 50.1139 63.7435 51.1033 61.7646 51.9279L45.2743 58.0293V64.2956L68.031 55.8856C69.68 55.2259 71.1642 54.4014 72.4834 53.0822C73.6377 51.4332 73.143 49.1245 68.031 47.4755Z" fill="white"/>
</svg>
