<svg xmlns="http://www.w3.org/2000/svg" viewBox="0 0 80 80">
  <rect width="100%" height="100%" fill="#336791"/>
  <path d="M71.8 47c-.4-1.1-1.4-2-2.7-2.1H67c-1.5.4-2.5.5-3.3.5a64 64 0 0 0 6.7-16c2.3-8.8 1-12.7-.3-14.5a19.4 19.4 0 0 0-15.7-7.4c-3.5 0-6.5.6-8.1 1.1-1.5-.2-3.1-.4-4.8-.4-3.1 0-5.9.6-8.3 2a38 38 0 0 0-5.8-1.4c-5.7-1-10.4-.2-13.7 2.2-4.1 2.8-6 7.9-5.7 14.9a85.7 85.7 0 0 0 7 24.5c1.7 3.3 3.6 5.3 5.7 6 1.2.4 3.3.7 5.6-1.2l1.2 1c.6.4 1.4.7 2.2 1 2.8.6 5.5.5 7.8-.5v2.7a27.4 27.4 0 0 0 1.2 8.2c.4 1 1 2.7 2.4 4a7 7 0 0 0 4.9 1.9c.8 0 1.6-.1 2.3-.3 2.5-.5 5.2-1.3 7.3-4.2 1.9-2.7 2.8-6.8 3-13.3V55h.6c2.6.1 5.6-.4 7.5-1.3 1.5-.6 6.3-3.2 5.1-6.6Z"/>
  <path fill="#fff" d="M65.9 51.9c-1.5.7-3.9 1.1-6 1.1-1 0-1.9-.1-2.6-.3-.3 3-1 8.9-1.5 11.3-.7 4.5-2.7 6.5-7.4 7.5l-2.1.3c-4.5 0-5.9-3.5-6.5-5-.7-1.7-1-7.5-.9-13.4a8.6 8.6 0 0 1-5.9 2.2c-1 0-1.9-.1-3-.4-.2 0-2.8-.7-2.7-2.4 0-1.5 2.1-2 3-2 2.8-.7 3-.9 3.8-2l.7-.8v-.1c-1.3 0-2.5-.4-3.7-1-.7.8-2.8 3-5 5.8-1.4 1.6-2.7 2-3.7 2-.5 0-.8 0-1.2-.2-2.9-1-5.6-5.6-8.1-13.9-2-6.2-3.2-12.8-3.3-15-.3-6.3 1.3-10.7 4.9-13.2 3-2.1 7.1-2.8 12.3-2 3 .5 5.5 1.4 6.5 1.8 2.2-1.6 4.9-2.3 8-2.2 1.6 0 3.2.2 4.6.6.7-.3 4.1-1.4 8.2-1.3 6 0 11 2.3 14.3 6.6.8 1 1.2 2.8 1.2 5.2 0 2.2-.5 4.8-1.2 7.7a62 62 0 0 1-8 17.8c.6.4 2.2 1 6.7.1 1.5-.3 2.4 0 2.7.8.6 1.7-2.5 3.6-4.1 4.4Z"/>
  <path fill="#336791" d="m39 50.6-.2.2c-2.4 3.3-5.8 3.3-8.3 2.7a4 4 0 0 1-1.2-.6 6 6 0 0 1 1.3-.4c3.4-.7 3.9-1.1 5-2.6.3-.3.5-.7 1-1.1.6-.7.8-.6 1.3-.4.3.1.6.5.8.9l.2.4v.9ZM37.5 29.3c-.3-1.4-1-2.1-2.2-2.4-2.6-.6-6.1 1.3-6.9 2v.6c.1 1.6.3 4.5-.2 8a7.8 7.8 0 0 0 2 6.5c1.4 1.3 3 2 4.8 2l.9-2.6V43.1l.7-1.5c1-2.3 2.4-5.3.9-12.3Zm-.9-.4c0 .5-.8 1.1-1.6 1.1h-.2a2 2 0 0 1-1.3-.8c-.2-.2-.4-.5-.3-.7 0-.1 0-.3.2-.4.3-.3 1-.3 1.6-.3.8.2 1.7.5 1.6 1.1Z"/>
  <path fill="#336791" d="M29 45.2c.1.3.4.5.6.7-1 1-2.9 3-5 5.6-1.4 1.7-2.5 1.4-2.8 1.3-2.2-.7-4.7-5.4-7-12.7-1.9-6.3-3-12.7-3.1-14.5-.3-5.7 1-9.6 4-11.7 5-3.5 12.9-1.4 16.1-.4a11 11 0 0 0-1.4 1.7c-4 5.4-3.9 13-3.9 13.5v.9c.2 1.5.3 4.4-.1 7.6a9.7 9.7 0 0 0 2.5 8Z"/>
  <path fill="#336791" d="m57.9 45.7.5.7a4 4 0 0 0-1.6.8c-.5.4-1 1.1-1.1 2.3v1.4A156.5 156.5 0 0 1 54 63.7c-.6 3.8-2 5.2-6 6-4 1-5.5-1.2-6.5-3.6-.6-1.5-.9-8.3-.7-15.9v-.5l-.1-.6c-.3-1-1.1-2-2-2.4-.4-.1-1.1-.4-2-.2l.9-2.4.1-.4.6-1.3.7-1.8c1-2.4 1.5-5.8.3-11.7-.7-2.8-2.7-4.2-5.9-4a13.4 13.4 0 0 0-5 1.7A20.5 20.5 0 0 1 33 15c2.1-2.2 5-3.2 8.4-3.2A17.8 17.8 0 0 1 55 18.3c2.2 2.5 3.3 5 3.8 6.4-3.5-.3-5.8.3-7 2-2.6 3.7 1.4 11 3.3 14.4l.8 1.4c.4 1 1 1.9 1.5 2.5l.5.7Z"/>
  <path fill="#336791" d="M58.4 32.3c0-1.2.2-2.2.3-3l.3-2.7c-3.7-.5-5.1.4-5.7 1.2-2 2.8 1.8 9.5 3.4 12.4a19.7 19.7 0 0 1 1.4 2.6c1-2.4.8-4.8.5-7-.1-1.2-.3-2.4-.2-3.5Zm-1.5-3.6c-.2.2-.6.5-1.1.6h-.2c-.8 0-1.4-.6-1.5-1 0-.5.7-.8 1.5-1 .8 0 1.6.1 1.7.6l-.4.8Z"/>
  <path fill="#336791" d="M67.1 17c2.3 3-.2 16.3-7.5 27.9l-.3-.3v-.1c1-1.8 1.4-3.5 1.4-5.2 0-1.3-.1-2.6-.3-3.8l-.2-3.2c0-1 .2-2 .3-2.8a17.7 17.7 0 0 0 .3-4c0-1.3-1.5-5-4.5-8.5a21 21 0 0 0-7.1-5.4c1.4-.3 3.2-.5 5.3-.5 5.4.1 9.6 2.1 12.6 6ZM67.7 48.5c-.5.5-1.4 1.1-2.6 1.7-1 .5-2.9.9-4.6 1-1.8 0-2.8-.3-3-.4a4 4 0 0 1 .2-1.8c.3-.6.8-.7 1.3-.9l.4-.1.3.2c1.5 1 4.2 1 8 .3Z"/>
</svg>