<svg width="80" height="80" viewBox="0 0 80 80" fill="none" xmlns="http://www.w3.org/2000/svg">
<g clip-path="url(#clip0_1_909)">
<path d="M78.3918 47.922C77.9265 46.5101 76.7032 45.5256 75.1241 45.2903C74.3786 45.1789 73.5254 45.2256 72.5158 45.434C70.7571 45.7969 69.4512 45.9352 68.4973 45.9622C72.0936 39.8904 75.0182 32.9654 76.7032 26.4463C79.4247 15.9069 77.9696 11.1052 76.2702 8.93338C71.7703 3.18496 65.2081 0.0969817 57.2879 0.00177355C53.0664 -0.0503215 49.3551 0.784995 47.4222 1.38499C45.6204 1.06703 43.6839 0.889185 41.6504 0.856851C37.8439 0.795774 34.4757 1.6257 31.6014 3.33226C30.0081 2.79514 27.4536 2.03528 24.5021 1.55025C17.5627 0.411348 11.9688 1.29876 7.87665 4.18914C2.92223 7.68848 0.626455 13.7692 1.0504 22.2625C1.18513 24.9589 2.69409 33.1612 5.0689 40.9431C6.43415 45.4143 7.88922 49.1274 9.39459 51.98C11.5287 56.0255 13.8137 58.4093 16.3789 59.2644C17.816 59.744 20.428 60.0781 23.1746 57.7913C23.5231 58.2117 23.9866 58.632 24.6045 59.0201C25.3878 59.5141 26.3452 59.9182 27.3009 60.1572C30.7464 61.0194 33.9745 60.8039 36.7283 59.5949C36.7445 60.0853 36.757 60.5542 36.7696 60.9565C36.7876 61.6122 36.8056 62.2553 36.8289 62.8571C36.9924 66.9205 37.269 70.0804 38.0882 72.2899C38.1331 72.4121 38.1942 72.5971 38.257 72.7929C38.6666 74.045 39.3492 76.1396 41.0881 77.7797C42.8881 79.479 45.0653 80 47.0611 80C48.0599 80 49.0156 79.8688 49.8527 79.691C52.8365 79.0515 56.2244 78.0761 58.6765 74.5857C60.9938 71.2857 62.1201 66.3169 62.3249 58.4847C62.3501 58.2638 62.3752 58.0518 62.3986 57.8506C62.4148 57.7159 62.4309 57.5758 62.4471 57.4374L62.9932 57.4859L63.1333 57.4949C66.1728 57.6332 69.8895 56.9883 72.1709 55.9285C73.9745 55.0914 79.7534 52.0411 78.3918 47.922Z" fill="black"/>
<path d="M71.1648 53.7855C69.3559 54.6262 66.4691 55.1579 63.9685 55.1579C62.7703 55.1579 61.6584 55.0357 60.7979 54.7645C60.3901 58.5171 59.5207 65.5176 59.0159 68.4475C58.071 73.9319 55.6261 76.4181 49.9999 77.6252C49.0406 77.83 48.1694 77.9216 47.3789 77.9216C41.9862 77.9234 40.2797 73.6534 39.5809 71.9074C38.7276 69.7751 38.4312 62.7746 38.4923 55.6699C36.5468 57.4303 34.1109 58.3357 31.3463 58.3357C30.2091 58.3357 29.0163 58.183 27.7786 57.8722C27.423 57.7842 24.3062 56.9471 24.3476 54.9531C24.3853 53.1298 26.9882 52.5927 27.9673 52.3915C31.4127 51.6819 31.6355 51.3981 32.7061 50.04C32.9217 49.7652 33.175 49.4436 33.4857 49.0754C33.4804 49.0358 33.4786 48.9945 33.475 48.955C31.9301 48.9137 30.4193 48.5041 29.0451 47.7658C28.1128 48.7574 25.5907 51.4825 22.8907 54.7304C21.2632 56.6848 19.7003 57.2597 18.4231 57.2597C17.9039 57.2597 17.4315 57.1645 17.0219 57.0279C13.5262 55.8621 10.2029 50.1927 7.14542 40.1761C4.8227 32.5666 3.35147 24.6212 3.22213 22.038C2.8377 14.3603 4.81911 8.92626 9.11066 5.88499C12.707 3.33772 17.7459 2.56348 24.0871 3.58562C27.7481 4.17483 30.7463 5.20236 31.9103 5.63709C34.5815 3.81196 37.8132 2.92276 41.5497 2.98204C43.585 3.01617 45.4568 3.27485 47.1724 3.70239C47.9951 3.34491 52.1968 2.07666 57.1602 2.12876C64.3961 2.206 70.3708 4.99758 74.4432 10.1999C75.4546 11.4915 75.9432 13.604 75.8983 16.48C75.8588 19.0992 75.3648 22.3129 74.4702 25.7745C72.584 33.0804 69.0882 40.9126 64.8362 47.3904C65.4811 47.8646 67.4427 48.6424 72.9073 47.5143C74.7486 47.1335 75.8588 47.4694 76.2019 48.5113C76.8683 50.525 73.1983 52.8424 71.1648 53.7855Z" fill="white"/>
<path d="M38.4797 52.1957C38.4456 52.3017 38.3953 52.4041 38.3252 52.5011C35.4707 56.4998 31.3103 56.4477 28.323 55.7004C27.7068 55.5459 27.1535 55.2801 26.8284 55.0573C27.0996 54.9298 27.5828 54.7573 28.42 54.5849C32.4726 53.7495 33.0977 53.1603 34.4648 51.425C34.7773 51.028 35.133 50.5771 35.6252 50.0274C36.3582 49.2065 36.6941 49.3466 37.3013 49.5981C37.6713 49.7508 38.0342 50.1388 38.2731 50.6095C38.3539 50.7658 38.4186 50.9292 38.4671 51.0981C38.539 51.3532 38.6198 51.7897 38.4797 52.1957Z" fill="#336791"/>
<path d="M36.7084 26.4266C36.351 24.7757 35.4923 23.8183 34.0857 23.4949C30.9996 22.7889 26.6721 25.1063 25.738 25.9344C25.7469 26.1212 25.7613 26.3583 25.7775 26.6296C25.8924 28.5607 26.1044 32.1571 25.5278 36.2887C25.1703 38.8378 25.7954 41.3348 27.2541 43.3C27.4804 43.609 27.7301 43.9036 27.9978 44.1838C29.5571 45.8113 31.6085 46.7113 33.7157 46.7185C33.9582 45.7251 34.3498 44.6778 34.7684 43.5515L34.8636 43.2964L34.9354 43.106C35.1492 42.5294 35.3989 41.9725 35.6648 41.3833C36.9528 38.5234 38.5533 34.9648 36.7084 26.4266ZM35.6791 25.9811C35.6001 26.5488 34.7037 27.3158 33.7175 27.3158C33.633 27.3158 33.5468 27.3104 33.4624 27.2979C32.8696 27.217 32.2732 26.8434 31.8636 26.3027C31.7199 26.1104 31.4846 25.7386 31.5313 25.4045C31.5492 25.2769 31.6139 25.0919 31.8241 24.9338C32.1959 24.6518 32.9343 24.5458 33.748 24.6608C34.7468 24.7991 35.7779 25.2715 35.6791 25.9811Z" fill="#336791"/>
<path d="M26.3811 45.7341C26.6361 46 26.9002 46.2497 27.1751 46.485C26.0793 47.6598 23.6991 50.2538 21.168 53.2987C19.3752 55.4525 18.1375 55.0394 17.7315 54.9046C15.0782 54.019 12.001 48.4125 9.28671 39.5222C6.93884 31.8301 5.5664 24.0949 5.45862 21.9249C5.11551 15.0663 6.77716 10.2843 10.4005 7.71552C16.2944 3.53534 25.9841 6.0341 29.8822 7.30415C29.8265 7.35804 29.7708 7.41372 29.7151 7.46941C29.1511 8.03887 28.6373 8.64425 28.1703 9.27477C23.3218 15.828 23.4781 25.1206 23.4907 25.638V25.647C23.4907 25.9057 23.5122 26.2685 23.541 26.7607C23.6524 28.6164 23.8571 32.069 23.3093 35.978C22.8512 39.2546 23.717 42.4683 25.6966 44.9509C25.9122 45.2203 26.1403 45.4826 26.3811 45.7341Z" fill="#336791"/>
<path d="M61.5057 46.3574C61.7248 46.6323 61.9386 46.8981 62.1003 47.1316C61.565 47.2861 60.85 47.5251 60.2195 48.0676C59.58 48.6137 59.0267 49.4723 58.8291 50.8663C58.7608 51.3621 58.7357 51.9262 58.768 52.5675C58.6979 53.4531 58.4554 55.6375 58.1536 58.147C58.1501 58.1722 58.1465 58.1991 58.1447 58.2243C57.7135 61.8063 57.1602 66.026 56.8082 68.0667C56.0124 72.6887 54.3112 74.4097 49.5292 75.4354C44.573 76.4971 42.8179 73.9678 41.6611 71.0774C40.921 69.2289 40.5545 60.9674 40.8006 51.7861H40.797C40.8024 51.5759 40.7898 51.3585 40.7593 51.1394C40.7593 51.1376 40.7575 51.1358 40.7575 51.1358C40.7288 50.9202 40.6838 50.701 40.621 50.4819C40.2365 49.14 39.306 48.0173 38.1869 47.5412C38.1779 47.5358 38.1671 47.5322 38.1581 47.5286C37.709 47.3436 36.8845 47.0005 35.8929 47.2538C36.1031 46.3826 36.4695 45.3981 36.8665 44.3329L37.0336 43.8856C37.2222 43.3808 37.4575 42.8563 37.7072 42.303C38.009 41.6329 38.336 40.9072 38.636 40.0809C39.6868 37.2156 40.4503 33.1378 38.8964 25.9523C38.1456 22.4853 35.6414 20.7913 31.8457 21.1847C29.5696 21.4201 27.4876 22.338 26.4493 22.8643C26.2266 22.9775 26.0218 23.0871 25.8314 23.1913C26.099 19.9668 27.0529 14.1591 30.4157 10.0364C30.696 9.69149 30.996 9.35736 31.3121 9.03761C33.8917 6.43645 37.3264 5.15203 41.512 5.2203C45.1892 5.28137 48.2771 6.15621 50.837 7.42086C54.0166 8.9909 56.377 11.1609 58.0297 13.1154C60.6021 16.1531 61.9943 19.2141 62.5512 20.865C58.371 20.441 55.5291 21.2656 54.0884 23.326C50.9537 27.8062 55.8022 36.5043 58.1339 40.6844C58.5614 41.4497 58.9297 42.1126 59.0464 42.3928C59.5907 43.7131 60.25 44.7173 60.8464 45.5113C61.0781 45.8239 61.3027 46.1041 61.5057 46.3574Z" fill="#336791"/>
<path d="M62.0698 30.0247C62.1147 28.6074 62.2943 27.4397 62.4686 26.3116C62.6302 25.2607 62.7847 24.2566 62.8027 23.1482C58.3782 22.5967 56.6159 23.617 55.9225 24.6087C53.5908 27.9409 58.1447 36.1073 60.0883 39.5923C60.5895 40.4887 60.9488 41.1371 61.1159 41.5395C61.2991 41.985 61.5003 42.3892 61.7087 42.7575C63.047 39.912 62.7003 37.027 62.3644 34.2265C62.1973 32.8397 62.0248 31.4044 62.0698 30.0247ZM60.241 25.6613C60.0255 25.8895 59.571 26.2811 58.953 26.3673C58.8722 26.3781 58.7932 26.3835 58.7159 26.3835C57.789 26.3835 57.0058 25.6434 56.9447 25.2104C56.8692 24.6518 57.7782 24.2278 58.7177 24.0985C59.6554 23.9673 60.647 24.1254 60.7243 24.6823C60.7261 24.7021 60.7279 24.7218 60.7279 24.7434C60.7279 24.9913 60.5446 25.3434 60.241 25.6613Z" fill="#336791"/>
<path d="M72.681 11.5795C75.4636 15.1381 72.3989 31.3307 63.523 45.2976C63.435 45.1862 63.3452 45.073 63.2536 44.9581C63.2176 44.9131 63.1817 44.8664 63.1422 44.8197C64.4266 42.6982 64.8506 40.5893 64.9044 38.5611C64.9044 38.5611 64.9044 38.5576 64.9062 38.5558C64.9476 36.9624 64.7625 35.4193 64.5865 33.9588C64.423 32.5954 64.2685 31.3074 64.308 30.0984C64.3476 28.8158 64.5182 27.7146 64.6817 26.6511C64.8847 25.3398 65.0931 23.9835 65.0338 22.3829C65.0751 22.2159 65.0913 22.0183 65.0697 21.7865C64.9242 20.2524 63.1745 15.6663 59.6069 11.513C58.2794 9.96636 56.5387 8.29753 54.3363 6.84605C53.3034 6.16702 52.1699 5.53469 50.9286 4.9868C52.5992 4.6401 54.8842 4.31675 57.4405 4.37243C63.9218 4.51615 69.0505 6.94126 72.681 11.5795Z" fill="#336791"/>
<path d="M73.4103 49.6969C72.7888 50.2771 71.7271 51.0568 70.2217 51.7556C68.9283 52.3555 66.7619 52.8064 64.705 52.9034C62.4308 53.0094 61.2758 52.6484 61.0027 52.4274C60.9596 51.54 61.0422 50.922 61.2129 50.4801C61.2416 50.4029 61.2722 50.331 61.3081 50.2646C61.6602 49.5801 62.262 49.4113 62.8871 49.2352C63.0506 49.1903 63.2087 49.1454 63.3613 49.0915C63.4566 49.1688 63.5608 49.246 63.6739 49.3215C65.5008 50.5268 68.7595 50.658 73.36 49.7077C73.3762 49.7041 73.3941 49.7005 73.4103 49.6969Z" fill="#336791"/>
</g>
<defs>
<clipPath id="clip0_1_909">
<rect width="80" height="80" fill="white"/>
</clipPath>
</defs>
</svg>
