<svg width="80" height="80" xmlns="http://www.w3.org/2000/svg">
<path fill-rule="evenodd" clip-rule="evenodd" d="M46.8464 10.4085C55.6588 10.4054 64.4716 10.3786 73.284 10.4157C78.5229 10.4372 80 12.1877 78.8706 17.3615C75.5634 32.5139 72.1818 47.6509 68.7546 62.7768C67.6709 67.5578 65.1808 69.5162 60.1514 69.5312C42.5262 69.5836 24.9011 69.5894 7.27631 69.5289C1.51539 69.5086 8.83127e-07 67.5574 1.24119 62.0979C4.60744 47.2705 7.99629 32.4482 11.4077 17.6312C12.7079 11.9847 14.6618 10.4345 20.4081 10.418C29.2209 10.3931 38.0337 10.4115 46.8464 10.4085Z" fill="#E0EAF5"/>
<path fill-rule="evenodd" clip-rule="evenodd" d="M33.5288 67.769C24.7153 67.766 15.9014 67.8066 7.0882 67.7487C2.61902 67.7196 1.80637 66.665 2.81241 62.2938C6.22309 47.4693 9.74367 32.6696 13.0785 17.8283C13.9727 13.8477 15.9017 12.0884 20.1664 12.1278C37.7919 12.2914 55.4205 12.1803 73.0472 12.1983C77.4678 12.2025 78.2099 13.1481 77.2177 17.6314C73.9958 32.1867 70.7536 46.7378 67.4544 61.2759C66.2197 66.7167 64.7974 67.7549 59.0732 67.7675C50.5584 67.7855 42.0432 67.7721 33.5288 67.769Z" fill="#2671BE"/>
<path fill-rule="evenodd" clip-rule="evenodd" d="M41.0283 38.7168C40.4374 38.0236 39.7887 37.2255 39.1016 36.4627C35.2058 32.1352 31.3443 27.7755 27.3791 23.5128C25.5646 21.5619 24.9864 19.6674 27.1654 17.7419C29.3188 15.8385 31.4347 16.007 33.41 18.1968C38.9113 24.2932 44.4061 30.3965 49.9985 36.4091C52.0864 38.6548 51.6001 40.1816 49.3004 41.8456C40.4734 48.2346 31.6963 54.6929 22.9287 61.1635C20.958 62.6183 19.0791 62.9825 17.4872 60.8337C15.7309 58.4636 17.3558 57.0535 19.1776 55.7269C25.6929 50.9812 32.1957 46.2179 38.6704 41.4171C39.5723 40.7484 40.8671 40.3586 41.0283 38.7168Z" fill="#FDFDFE"/>
<path fill-rule="evenodd" clip-rule="evenodd" d="M43.8191 61.6441C41.4462 61.6441 39.07 61.7256 36.7025 61.618C34.8137 61.5326 33.6771 60.4772 33.7008 58.4877C33.7238 56.6065 34.672 55.1923 36.5589 55.1413C41.745 55.0023 46.9387 55.0322 52.1267 55.1337C53.7754 55.1658 54.9924 56.2401 54.9825 57.958C54.9706 59.9288 53.9336 61.4556 51.823 61.5828C49.1637 61.7436 46.488 61.6226 43.8195 61.6226L43.8191 61.6441Z" fill="#FCFDFD"/>
</svg>
