<svg xmlns="http://www.w3.org/2000/svg" viewBox="0 0 80 80">
  <rect width="100%" height="100%" fill="#fff"/>
  <path fill="#E0EAF5" fill-rule="evenodd" d="M45.991 14.1076c7.7108-.0027 15.422-.0261 23.1329.0064 4.5839.0188 5.8764 1.5505 4.888 6.0776-2.8938 13.2583-5.8527 26.5032-8.8515 39.7384-.9481 4.1832-3.1268 5.8969-7.5278 5.9102-15.422.0458-30.8439.0507-46.2656-.0022-5.0408-.0178-6.3668-1.7251-5.2808-6.5023a13104.7322 13104.7322 0 0 1 8.8958-38.9082c1.1376-4.9407 2.8472-6.2971 7.8753-6.3115 7.7112-.0218 15.4224-.0057 23.1337-.0084Z" clip-rule="evenodd"/>
  <path fill="#2671BE" fill-rule="evenodd" d="M34.3379 64.2984c-7.7118-.0024-15.424.0329-23.1355-.0175-3.9106-.0255-4.6216-.9485-3.7413-4.7733 2.9843-12.9713 6.0648-25.921 8.9828-38.9072.7825-3.483 2.4703-5.0224 6.2019-4.9879 15.4224.1431 30.8474.0459 46.2708.0617 3.8679.0037 4.5172.831 3.6492 4.754-2.8193 12.7358-5.656 25.4679-8.5428 38.189-1.0805 4.7604-2.3251 5.669-7.3336 5.6802-7.4504.0157-14.9012.0038-22.3515.001Z" clip-rule="evenodd"/>
  <path fill="#FDFDFE" fill-rule="evenodd" d="M40.8999 38.8774c-.517-.6065-1.0848-1.3048-1.686-1.9723-3.4089-3.7866-6.7876-7.6013-10.2572-11.3312-1.5876-1.707-2.0936-3.3647-.1869-5.0495 1.8842-1.6654 3.7356-1.518 5.464.398 4.8136 5.3344 9.6215 10.6748 14.5148 15.9358 1.827 1.9649 1.4014 3.3011-.6107 4.7571-7.7235 5.5902-15.4036 11.2413-23.0753 16.9029-1.7244 1.2729-3.3683 1.5917-4.7613-.2885-1.5368-2.0737-.115-3.3078 1.4791-4.4684 5.7009-4.1524 11.3908-8.3206 17.0562-12.5213.7892-.5848 1.9222-.926 2.0633-2.3626Z" clip-rule="evenodd"/>
  <path fill="#FCFDFD" fill-rule="evenodd" d="M43.3425 58.9385c-2.0765 0-4.1556.071-6.2272-.0231-1.6526-.0746-2.6472-.9982-2.6265-2.7388.0202-1.646.8498-2.8836 2.5009-2.9281 4.5377-.1218 9.0825-.0955 13.622-.0066 1.4423.028 2.5074.9681 2.4986 2.471-.0105 1.7244-.9177 3.0604-2.7646 3.1717-2.3268.1407-4.668.035-7.0028.035l-.0004.0189Z" clip-rule="evenodd"/>
</svg>
