<svg viewBox="0 0 80 80" xmlns="http://www.w3.org/2000/svg">
<rect width="100%" height="100%" fill="white"/>
<path d="M75.0526 54.8366L42.0181 9.07143C40.9782 7.64286 38.5812 7.64286 37.5516 9.07143L4.51713 54.8366C4.18088 55.3049 4.00001 55.8669 4 56.4434C4.00081 57.0224 4.18346 57.5865 4.52217 58.056C4.86088 58.5255 5.33853 58.8768 5.88767 59.0602L38.9226 69.8644H38.9278C39.4824 70.0452 40.0801 70.0452 40.6346 69.8644H40.6398L73.6743 59.0607C74.0865 58.9273 74.461 58.6976 74.7668 58.3907C75.0726 58.0838 75.3009 57.7085 75.4329 57.2958C75.5689 56.8846 75.6046 56.4469 75.5371 56.0192C75.4696 55.5914 75.3008 55.1859 75.0448 54.8366H75.0526ZM39.7864 15.378L53.027 33.7225L40.645 29.6741C40.5491 29.643 40.4481 29.6482 40.3528 29.6254C40.2592 29.6023 40.1639 29.5867 40.0678 29.5788C39.9724 29.5658 39.8818 29.5295 39.7864 29.5295C39.6905 29.5295 39.6025 29.5658 39.5066 29.5788C39.4113 29.5891 39.3154 29.6047 39.2226 29.6254C39.1242 29.6435 39.0232 29.6435 38.9356 29.6741L26.6282 33.6992L26.5505 33.7251L39.7916 15.377H39.7864V15.378ZM21.0787 41.2996L35.4934 36.5823L37.0324 36.0812V63.4599L11.1864 55.0045L21.0787 41.2996ZM42.543 63.4547V36.0812L58.4962 41.2996L68.3885 54.9967L42.5404 63.4547H42.543Z" fill="#E72564"/>
</svg>
