<svg viewBox="0 0 80 80" xmlns="http://www.w3.org/2000/svg">
<rect width="100%" height="100%" fill="#AB2430"/>
<path d="M47.7735 14.888C47.7735 18.1398 45.1374 20.776 41.8855 20.776C38.6337 20.776 35.9975 18.1398 35.9975 14.888C35.9975 11.6361 38.6337 9 41.8855 9C45.1374 9 47.7735 11.6361 47.7735 14.888Z" fill="white"/>
<path d="M28.9117 46.8637C28.9117 48.4488 27.6267 49.7338 26.0416 49.7338C24.4565 49.7338 23.1715 48.4488 23.1715 46.8637C23.1715 45.2785 24.4565 43.9936 26.0416 43.9936C27.6267 43.9936 28.9117 45.2785 28.9117 46.8637Z" fill="white"/>
<path d="M34.2943 52.5727C34.2943 53.7411 33.3471 54.6883 32.1787 54.6883C31.0103 54.6883 30.0631 53.7411 30.0631 52.5727C30.0631 51.4043 31.0103 50.4571 32.1787 50.4571C33.3471 50.4571 34.2943 51.4043 34.2943 52.5727Z" fill="white"/>
<path d="M27.5191 36.5266C27.5191 38.5541 25.8754 40.1978 23.8479 40.1978C21.8203 40.1978 20.1766 38.5541 20.1766 36.5266C20.1766 34.499 21.8203 32.8553 23.8479 32.8553C25.8754 32.8553 27.5191 34.499 27.5191 36.5266Z" fill="white"/>
<path d="M32.9334 24.5173C32.9334 27.0259 30.8997 29.0596 28.391 29.0596C25.8823 29.0596 23.8486 27.0259 23.8486 24.5173C23.8486 22.0086 25.8823 19.9749 28.391 19.9749C30.8997 19.9749 32.9334 22.0086 32.9334 24.5173Z" fill="white"/>
<path d="M40.875 53.9105C40.875 54.9071 40.0671 55.7151 39.0705 55.7151C38.0739 55.7151 37.266 54.9071 37.266 53.9105C37.266 52.9139 38.0739 52.106 39.0705 52.106C40.0671 52.106 40.875 52.9139 40.875 53.9105Z" fill="white"/>
<path d="M44.8875 51.3983C44.8875 52.0469 44.3617 52.5728 43.713 52.5728C43.0644 52.5728 42.5386 52.0469 42.5386 51.3983C42.5386 50.7496 43.0644 50.2238 43.713 50.2238C44.3617 50.2238 44.8875 50.7496 44.8875 51.3983Z" fill="white"/>
<path d="M20.776 57.5896C20.776 60.8415 18.1398 63.4776 14.888 63.4776C11.6361 63.4776 9 60.8415 9 57.5896C9 54.3378 11.6361 51.7016 14.888 51.7016C18.1398 51.7016 20.776 54.3378 20.776 57.5896Z" fill="white"/>
<path d="M53.3734 55.3184C53.3734 56.9035 52.0884 58.1885 50.5033 58.1885C48.9181 58.1885 47.6331 56.9035 47.6331 55.3184C47.6331 53.7333 48.9181 52.4483 50.5033 52.4483C52.0884 52.4483 53.3734 53.7333 53.3734 55.3184Z" fill="white"/>
<path d="M54.5012 47.1514C54.5012 48.3199 53.554 49.2671 52.3856 49.2671C51.2172 49.2671 50.27 48.3199 50.27 47.1514C50.27 45.983 51.2172 45.0358 52.3856 45.0358C53.554 45.0358 54.5012 45.983 54.5012 47.1514Z" fill="white"/>
<path d="M46.3186 62.3886C46.3186 64.4162 44.675 66.0599 42.6474 66.0599C40.6198 66.0599 38.9761 64.4162 38.9761 62.3886C38.9761 60.3611 40.6198 58.7174 42.6474 58.7174C44.675 58.7174 46.3186 60.3611 46.3186 62.3886Z" fill="white"/>
<path d="M34.5198 64.4576C34.5198 66.9663 32.4861 69 29.9775 69C27.4688 69 25.4351 66.9663 25.4351 64.4576C25.4351 61.9489 27.4688 59.9152 29.9775 59.9152C32.4861 59.9152 34.5198 61.9489 34.5198 64.4576Z" fill="white"/>
<path d="M51.8965 40.5168C51.8965 41.5134 51.0886 42.3213 50.092 42.3213C49.0954 42.3213 48.2875 41.5134 48.2875 40.5168C48.2875 39.5202 49.0954 38.7123 50.092 38.7123C51.0886 38.7123 51.8965 39.5202 51.8965 40.5168Z" fill="white"/>
<path d="M46.7702 37.7477C46.7702 38.3964 46.2444 38.9222 45.5957 38.9222C44.9471 38.9222 44.4212 38.3964 44.4212 37.7477C44.4212 37.0991 44.9471 36.5732 45.5957 36.5732C46.2444 36.5732 46.7702 37.0991 46.7702 37.7477Z" fill="white"/>
<path d="M71.2249 59.6197C71.2249 62.8715 68.5887 65.5077 65.3369 65.5077C62.085 65.5077 59.4489 62.8715 59.4489 59.6197C59.4489 56.3678 62.085 53.7317 65.3369 53.7317C68.5887 53.7317 71.2249 56.3678 71.2249 59.6197Z" fill="white"/>
<path d="M48.4426 29.9075C48.4426 31.4926 47.1576 32.7776 45.5725 32.7776C43.9874 32.7776 42.7024 31.4926 42.7024 29.9075C42.7024 28.3224 43.9874 27.0374 45.5725 27.0374C47.1576 27.0374 48.4426 28.3224 48.4426 29.9075Z" fill="white"/>
<path d="M39.6689 32.3653C39.6689 33.5338 38.7217 34.481 37.5532 34.481C36.3848 34.481 35.4376 33.5338 35.4376 32.3653C35.4376 31.1969 36.3848 30.2497 37.5532 30.2497C38.7217 30.2497 39.6689 31.1969 39.6689 32.3653Z" fill="white"/>
<path d="M55.6144 36.8544C57.642 36.8544 59.2857 35.2107 59.2857 33.1831C59.2857 31.1556 57.642 29.5119 55.6144 29.5119C53.5869 29.5119 51.9432 31.1556 51.9432 33.1831C51.9432 35.2107 53.5869 36.8544 55.6144 36.8544Z" fill="white"/>
<path d="M68.2841 43.1157C68.2841 45.6244 66.2504 47.6581 63.7417 47.6581C61.233 47.6581 59.1993 45.6244 59.1993 43.1157C59.1993 40.607 61.233 38.5733 63.7417 38.5733C66.2504 38.5733 68.2841 40.607 68.2841 43.1157Z" fill="white"/>
<path d="M32.9483 39.4678C33.9449 39.4678 34.7528 38.6599 34.7528 37.6633C34.7528 36.6667 33.9449 35.8588 32.9483 35.8588C31.9517 35.8588 31.1438 36.6667 31.1438 37.6633C31.1438 38.6599 31.9517 39.4678 32.9483 39.4678Z" fill="white"/>
<path d="M33.9757 42.9446C33.9757 43.5932 33.4498 44.1191 32.8012 44.1191C32.1525 44.1191 31.6267 43.5932 31.6267 42.9446C31.6267 42.2959 32.1525 41.7701 32.8012 41.7701C33.4498 41.7701 33.9757 42.2959 33.9757 42.9446Z" fill="white"/>
</svg>
