<svg xmlns="http://www.w3.org/2000/svg" viewBox="0 0 80 80">
  <rect width="100%" height="100%" fill="#AB2430"/>
  <path fill="#fff" d="M47.77 14.89a5.89 5.89 0 1 1-11.77 0 5.89 5.89 0 0 1 11.77 0ZM28.91 46.86a2.87 2.87 0 1 1-5.74 0 2.87 2.87 0 0 1 5.74 0ZM34.3 52.57a2.12 2.12 0 1 1-4.24 0 2.12 2.12 0 0 1 4.23 0ZM27.52 36.53a3.67 3.67 0 1 1-7.34 0 3.67 3.67 0 0 1 7.34 0ZM32.93 24.52a4.54 4.54 0 1 1-9.08 0 4.54 4.54 0 0 1 9.08 0ZM40.88 53.91a1.8 1.8 0 1 1-3.61 0 1.8 1.8 0 0 1 3.6 0ZM44.89 51.4a1.17 1.17 0 1 1-2.35 0 1.17 1.17 0 0 1 2.35 0ZM20.78 57.59a5.89 5.89 0 1 1-11.78 0 5.89 5.89 0 0 1 11.78 0ZM53.37 55.32a2.87 2.87 0 1 1-5.74 0 2.87 2.87 0 0 1 5.74 0ZM54.5 47.15a2.12 2.12 0 1 1-4.23 0 2.12 2.12 0 0 1 4.23 0ZM46.32 62.39a3.67 3.67 0 1 1-7.34 0 3.67 3.67 0 0 1 7.34 0ZM34.52 64.46a4.54 4.54 0 1 1-9.08 0 4.54 4.54 0 0 1 9.08 0ZM51.9 40.52a1.8 1.8 0 1 1-3.61 0 1.8 1.8 0 0 1 3.6 0ZM46.77 37.75a1.17 1.17 0 1 1-2.35 0 1.17 1.17 0 0 1 2.35 0ZM71.22 59.62a5.89 5.89 0 1 1-11.77 0 5.89 5.89 0 0 1 11.77 0ZM48.44 29.9a2.87 2.87 0 1 1-5.74 0 2.87 2.87 0 0 1 5.74 0ZM39.67 32.37a2.12 2.12 0 1 1-4.23 0 2.12 2.12 0 0 1 4.23 0ZM55.61 36.85a3.67 3.67 0 1 0 0-7.34 3.67 3.67 0 0 0 0 7.34ZM68.28 43.12a4.54 4.54 0 1 1-9.08 0 4.54 4.54 0 0 1 9.08 0ZM32.95 39.47a1.8 1.8 0 1 0 0-3.61 1.8 1.8 0 0 0 0 3.6ZM33.98 42.94a1.17 1.17 0 1 1-2.35 0 1.17 1.17 0 0 1 2.35 0Z"/>
</svg>