<svg xmlns="http://www.w3.org/2000/svg" viewBox="0 0 80 80">
  <rect width="100%" height="100%" fill="#fff"/>
  <path fill="url(#a)" d="M39.62 8c-2.44 0-4.88.21-7.3.62-6.46 1.15-7.62 3.53-7.62 7.94v5.84H40v1.92H18.96c-4.43 0-8.32 2.66-9.54 7.74C8 37.87 8 41.5 9.42 47.58c1.1 4.52 3.68 7.74 8.12 7.74h5.25v-6.98a9.7 9.7 0 0 1 9.54-9.48h15.25a7.69 7.69 0 0 0 7.62-7.76V16.56c0-4.14-3.49-7.25-7.63-7.94A47.7 47.7 0 0 0 39.62 8Zm-8.25 4.68a2.91 2.91 0 1 1 .1 5.82 2.91 2.91 0 0 1-.1-5.82Z"/>
  <path fill="url(#b)" d="M57.11 24.32v6.78a9.8 9.8 0 0 1-9.53 9.7H32.33a7.8 7.8 0 0 0-7.63 7.76v14.52c0 4.14 3.59 6.57 7.63 7.75a25.5 25.5 0 0 0 15.25 0c3.84-1.11 7.62-3.35 7.62-7.75v-5.82H40v-1.94h22.85c4.43 0 6.09-3.1 7.63-7.74 1.6-4.8 1.53-9.39 0-15.52-1.1-4.42-3.2-7.74-7.63-7.74H57.1Zm-8.57 36.8a2.91 2.91 0 1 1-2.03.87 2.88 2.88 0 0 1 2.03-.85v-.02Z"/>
  <linearGradient id="a" x1="6.52" x2="41.81" y1="10.2" y2="40.03" gradientUnits="userSpaceOnUse">
    <stop stop-color="#5A9FD4"/>
    <stop offset="1" stop-color="#306998"/>
  </linearGradient>
  <linearGradient id="b" x1="54.73" x2="42.02" y1="59.07" y2="41.41" gradientUnits="userSpaceOnUse">
    <stop stop-color="#FFD43B"/>
    <stop offset="1" stop-color="#FFE873"/>
  </linearGradient>
</svg>