<svg xmlns="http://www.w3.org/2000/svg" viewBox="0 0 80 80">
  <rect width="100%" height="100%" fill="#46A4DA"/>
  <path fill="#fff" d="M58.9882 70.7093C61.4346 70.8251 63.8692 70.305 66.0532 69.2C66.9761 68.7311 67.7927 68.0784 68.4524 67.2823C69.1121 66.4861 69.6009 65.5635 69.8885 64.5714C71.0996 60.2446 69.0811 56.3204 64.6402 54.7104C63.9168 54.5112 63.2575 54.1284 62.7268 53.5993C62.1961 53.0702 61.8121 52.413 61.6123 51.6918C61.1847 50.0766 60.3173 48.6108 59.1061 47.4565C57.8948 46.3022 56.3869 45.5044 54.7491 45.1514C52.6152 44.4964 50.3207 44.5883 48.2464 45.4118C46.172 46.2354 44.4423 47.7411 43.3442 49.6793C43.1017 50.1518 42.7209 50.5395 42.2522 50.7911C41.7835 51.0427 41.2491 51.1463 40.72 51.088C39.7909 51.0434 38.8686 51.2664 38.0632 51.7303C37.2579 52.1942 36.6035 52.8795 36.1782 53.7042C35.3708 54.9117 34.8661 55.0123 33.655 54.4086C28.003 51.6918 24.5714 47.365 24.0667 40.8246C23.2593 28.75 35.068 21.8071 44.0507 24.4232C50.9138 26.4357 56.1621 32.3724 55.8594 39.3153C55.8031 40.0925 55.8712 40.8737 56.0612 41.6296C56.2159 42.179 56.5775 42.6476 57.0705 42.9377C60.2352 44.3089 62.7601 46.8262 64.1355 49.9812L64.5392 50.8868C64.8653 51.4363 65.3434 51.8805 65.9163 52.166C66.4891 52.4515 67.1324 52.5664 67.769 52.4968C68.7783 52.4968 68.7783 51.2893 68.9801 50.5849L69.2829 49.8806C70.8997 45.3004 71.3844 40.399 70.6959 35.5923C69.5884 27.735 65.4907 20.6039 59.2523 15.677C53.0139 10.7502 45.113 8.40538 37.1875 9.12871C31.2119 9.63287 25.5141 11.8662 20.7941 15.5543C16.0741 19.2423 12.5374 24.2246 10.6184 29.889C8.69954 35.5534 8.48199 41.6533 9.99252 47.4392C11.503 53.2252 14.6759 58.4453 19.1212 62.4583C25.4798 68.4956 33.2513 70.5081 41.6284 70.9106C44.8581 71.1118 48.0878 70.9106 51.3176 70.9106L58.9882 70.7093Z"/>
</svg>
