<svg xmlns="http://www.w3.org/2000/svg" viewBox="0 0 80 80">
  <rect width="100%" height="100%" fill="#fff"/>
  <path fill="#41CD52" d="M14.625 14.299H75V55.93a2187.861 2187.861 0 0 1-9.756 9.73H5V23.906c3.194-3.176 6.414-6.405 9.625-9.607Z"/>
  <path fill="#fff" fill-rule="evenodd" d="M31.364 23.232a13.851 13.851 0 0 0-7.822 1.873 10.193 10.193 0 0 0-3.763 5.626 29.118 29.118 0 0 0-1.076 8.907 26.877 26.877 0 0 0 1.173 8.217 9.606 9.606 0 0 0 2.563 4.156 10.998 10.998 0 0 0 5.959 2.345 19.708 19.708 0 0 0 5.372-.079l3.92 6.475 4.603-2.117c-1.216-1.986-2.467-3.947-3.684-5.924a10.149 10.149 0 0 0 3.658-4.953c.883-2.937 1.27-6 1.146-9.065a26.118 26.118 0 0 0-1.444-8.95 9.51 9.51 0 0 0-3.22-4.498 12.755 12.755 0 0 0-7.385-2.013Zm2.625 4.795a9.308 9.308 0 0 0-4.672-.437A5.643 5.643 0 0 0 26 29.104a8.22 8.22 0 0 0-1.803 3.815 29.002 29.002 0 0 0-.07 11.086c.174 1.164.51 2.298.998 3.369a4.738 4.738 0 0 0 2.004 2.1 9.001 9.001 0 0 0 4.84.77 6.075 6.075 0 0 0 4.217-1.847 8.645 8.645 0 0 0 1.644-4.375c.33-2.567.397-5.162.202-7.743a16.612 16.612 0 0 0-1.296-5.68 5.073 5.073 0 0 0-2.747-2.572Z" clip-rule="evenodd"/>
  <path fill="#fff" d="M54.385 25.009h-4.82v6.37h-3.36v4.138h3.333v10.308c-.08 1.92.218 3.837.875 5.644a3.7 3.7 0 0 0 2.459 2.047c2.375.756 4.87.337 7.273-.067l.383-.064-.123-2.13-.104-1.677c-.503.011-1.007.03-1.513.049-.759.028-1.52.056-2.276.056a1.943 1.943 0 0 1-1.803-.874 7.144 7.144 0 0 1-.437-2.844V35.517h6.125c.043-1.382.114-2.756.114-4.139h-6.126v-6.37Z"/>
</svg>