<svg viewBox="0 0 80 80" xmlns="http://www.w3.org/2000/svg">
<rect width="100%" height="100%" fill="white"/>
<path d="M16.8 16.5H72V54.564C69.0347 57.54 66.0613 60.5053 63.08 63.46H8V25.284C10.92 22.38 13.864 19.428 16.8 16.5Z" fill="#41CD52"/>
<path fill-rule="evenodd" clip-rule="evenodd" d="M32.1034 24.6679C29.6023 24.5186 27.1135 25.1143 24.9516 26.3798C23.253 27.6527 22.0387 29.4674 21.5119 31.5238C20.7653 34.1714 20.4327 36.9186 20.5275 39.6678C20.494 42.2123 20.8557 44.7464 21.6001 47.1798C21.8791 48.097 22.3065 48.9588 22.8601 49.7326C23.1804 50.1798 23.5432 50.5976 23.9438 50.9798C25.5063 52.219 27.4036 52.9653 29.3914 53.1238C30.2396 53.2279 31.0945 53.2713 31.9472 53.2541C32.7351 53.2383 33.5219 53.1708 34.3032 53.0518L37.888 58.9717L42.0956 57.0358C40.984 55.2198 39.84 53.4278 38.7273 51.6198C40.2842 50.4935 41.4528 48.9112 42.0722 47.0919C42.8791 44.4066 43.2329 41.6055 43.1202 38.8038C43.1603 36.0197 42.7139 33.2501 41.7998 30.6198C41.2474 28.9878 40.2228 27.5566 38.8557 26.5079C36.8467 25.2178 34.4896 24.5755 32.1034 24.6679ZM34.503 29.0518C33.1369 28.556 31.6659 28.4182 30.2318 28.6519C29.0956 28.7651 28.0286 29.2519 27.1994 30.0359C26.3557 31.0355 25.7876 32.2376 25.551 33.5239C24.878 36.867 24.8568 40.3085 25.4873 43.6599C25.6458 44.7243 25.9528 45.7611 26.3992 46.7399C26.7943 47.5559 27.4349 48.2275 28.2318 48.6599C29.6123 49.299 31.1436 49.5428 32.6559 49.3639C34.1123 49.3292 35.4974 48.7229 36.5119 47.6758C37.3702 46.5059 37.8914 45.122 38.0153 43.6758C38.3166 41.3282 38.378 38.956 38.1994 36.5959C38.1135 34.8091 37.7128 33.0514 37.0153 31.4039C36.5108 30.3269 35.6112 29.4849 34.503 29.0518Z" fill="white"/>
<path d="M53.1514 26.2918H48.744V32.1159H45.6715V35.8998H48.7195V45.3239C48.6469 47.0796 48.9193 48.8325 49.5197 50.4839C49.7307 50.9438 50.042 51.3506 50.4315 51.6746C50.6693 51.8724 50.9315 52.0363 51.2117 52.1623C51.3903 52.2425 51.5766 52.3074 51.7675 52.3558C53.9394 53.0469 56.2206 52.6636 58.417 52.2946L58.7675 52.2358L58.6548 50.2893L58.5599 48.7558C58.1001 48.7654 57.6391 48.7826 57.1771 48.7999C56.4829 48.8258 55.7876 48.8518 55.0956 48.8518C54.7742 48.8808 54.4505 48.8216 54.1603 48.6807C53.8702 48.5397 53.6235 48.3223 53.4472 48.0518C53.1391 47.2213 53.003 46.3367 53.0476 45.4518V35.8998H58.6481C58.6871 34.6358 58.7519 33.3798 58.7519 32.1159H53.1514V26.2918Z" fill="white"/>
</svg>
