<svg xmlns="http://www.w3.org/2000/svg" viewBox="0 0 80 80"><defs><style>.a{fill:#41cd52}.b{fill:#fff}</style></defs><path class="a" d="M11 10.65h69v47.58q-5.56 5.58-11.15 11.12H0V21.63C3.65 18 7.33 14.31 11 10.65z"/><path class="b" d="M21.19 23a15.83 15.83 0 018.94-2.14 14.58 14.58 0 018.44 2.3 10.87 10.87 0 013.68 5.14 29.85 29.85 0 011.65 10.23 31.53 31.53 0 01-1.31 10.36 11.59 11.59 0 01-4.18 5.66c1.39 2.26 2.82 4.5 4.21 6.77l-5.26 2.42-4.48-7.4a22.54 22.54 0 01-6.14.09 12.57 12.57 0 01-6.81-2.68A11 11 0 0117 49a30.7 30.7 0 01-1.34-9.39 33.29 33.29 0 011.23-10.18 11.65 11.65 0 014.3-6.43zM50.93 22.89h5.51v7.28h7c0 1.58-.08 3.15-.13 4.73h-7v11.94a8.15 8.15 0 00.5 3.25 2.22 2.22 0 002.06 1c1.44 0 2.89-.09 4.33-.12.09 1.45.18 2.9.26 4.35-2.88.48-5.89 1.06-8.75.15a4.24 4.24 0 01-2.81-2.34 16.83 16.83 0 01-1-6.45V34.9h-3.81v-4.73h3.84z"/><path class="a" d="M27.79 25.84a10.64 10.64 0 015.34.5 5.8 5.8 0 013.14 2.94 19 19 0 011.48 6.49 43.65 43.65 0 01-.23 8.85 9.88 9.88 0 01-1.88 5 6.94 6.94 0 01-4.82 2.11 10.29 10.29 0 01-5.53-.88 5.41 5.41 0 01-2.29-2.4 14.35 14.35 0 01-1.14-3.85 33.13 33.13 0 01.08-12.67A9.4 9.4 0 0124 27.57a6.45 6.45 0 013.79-1.73z"/></svg>