<svg xmlns="http://www.w3.org/2000/svg" viewBox="0 0 80 80">
  <rect width="100%" height="100%" fill="#fff"/>
  <path fill="#B7895B" d="m34.7 16-10 2.8a1.2 1.2 0 0 1-1.3-.7l-2.8-9.9a1.1 1.1 0 0 1 .8-1.4l10-2.8a1.2 1.2 0 0 1 1.3.8l2.8 9.9c.2.6-.2 1.2-.8 1.3Z"/>
  <path fill="#C49A6C" d="m22.5 12.4-.7-2.5c-.3-1.3.4-2.6 1.7-3l6.1-1.7c1.3-.3 2.6.4 3 1.7l.6 2.4-10.7 3Z"/>
  <path fill="#B7895B" d="M28.2 10.8s3.2-4.3.9-5.4l1.5-.8 2 1.3 1 3.6-5.4 1.3Z"/>
  <path fill="#99D5E8" d="m22 14.4 13-3.7 7.6 26.9-13 3.6-7.7-26.8Z"/>
  <path fill="#99D5E8" d="M47.4 75a25.4 25.4 0 1 0-13.8-48.9 25.4 25.4 0 1 0 13.8 49Z"/>
  <path fill="#BCE3F4" d="M47 73.8a24 24 0 1 0-13-46.4 24 24 0 1 0 13 46.4ZM35.1 13.3 23 16.7c-1 .3-2-.3-2.3-1.3-.3-1 .3-2 1.3-2.2l12-3.4c1-.3 2 .3 2.4 1.2.2 1-.3 2-1.3 2.3Z"/>
  <path fill="#fff" d="M34.9 33.3c2.3 2.4-3.7 2.5-7.6 6.2-4 3.7-4.2 9.8-6.5 7.4-2.3-2.4-1-7.4 2.8-11.1 4-3.8 9-4.9 11.3-2.5Z" opacity=".3"/>
  <path fill="#BCE3F4" d="m23.8 17.2 11.1-3 3.7 13-11 3.1-3.8-13Z"/>
  <path fill="#99D5E8" d="M34.9 14.1s.5 12.6-3.3 14c0 0 12.8-2.3 18.2.2 0 0-6.6-2.6-9.1-2.1-2.6.4-5.8-12.1-5.8-12.1Z"/>
  <path fill="url(#a)" d="M53.6 32.8c4.5 1.4 6.8 6.9 8.2 11.8a22.1 22.1 0 1 1-42.7.7s5.3 8.4 14.5 4.2c9.3-4.2 7.5-20.6 20-16.7Z"/>
  <linearGradient id="a" x1="18.4" x2="62.6" y1="52.4" y2="52.4" gradientUnits="userSpaceOnUse">
    <stop stop-color="#FAEB48"/>
    <stop offset="0" stop-color="#FEE72F"/>
    <stop offset=".1" stop-color="#FFD51D"/>
    <stop offset=".2" stop-color="#FDCA12"/>
    <stop offset=".3" stop-color="#FDC710"/>
    <stop offset=".7" stop-color="#F39040"/>
    <stop offset=".9" stop-color="#ED683C"/>
    <stop offset="1" stop-color="#E83E3B"/>
  </linearGradient>
</svg>