<svg viewBox="0 0 80 80" xmlns="http://www.w3.org/2000/svg">
<rect width="100%" height="100%" fill="white"/>
<path d="M34.7105 16.0466L24.7715 18.8436C24.4848 18.9188 24.1801 18.8806 23.921 18.7371C23.6619 18.5936 23.4685 18.3559 23.3811 18.0737L20.5999 8.22066C20.5245 7.93493 20.5628 7.63121 20.7068 7.37294C20.8508 7.11467 21.0893 6.92181 21.3726 6.83465L31.3122 4.03766C31.5989 3.96253 31.9036 4.0007 32.1627 4.14418C32.4217 4.28766 32.6152 4.52535 32.7025 4.8076L35.4837 14.6606C35.6638 15.2512 35.3031 15.8666 34.7105 16.0466Z" fill="#B7895B"/>
<path d="M22.5311 12.377L21.836 9.88833C21.4753 8.63122 22.2223 7.34799 23.4582 6.98856L29.6382 5.24371C30.8998 4.88429 32.1875 5.62868 32.5482 6.86024L33.2434 9.3489L22.5311 12.377Z" fill="#C49A6C"/>
<path d="M28.1704 10.7866C28.1704 10.7866 31.4405 6.50138 29.0975 5.39815L30.6166 4.60266L32.5738 5.93699L33.5778 9.52947L28.1704 10.7866Z" fill="#B7895B"/>
<path d="M21.9397 14.4086L34.9501 10.7471L42.5508 37.5661L29.5404 41.2277L21.9397 14.4086Z" fill="#99D5E8"/>
<path d="M47.4289 75.0372C60.9786 71.2239 68.8605 57.187 65.0338 43.6849C61.207 30.1829 47.1207 22.3286 33.571 26.1419C20.0214 29.9552 12.1395 43.9921 15.9662 57.4942C19.793 70.9963 33.8793 78.8505 47.4289 75.0372Z" fill="#99D5E8"/>
<path d="M47.072 73.7776C59.9235 70.1607 67.3994 56.847 63.7698 44.0405C60.1402 31.234 46.7796 23.7844 33.928 27.4013C21.0764 31.0181 13.6005 44.3319 17.2302 57.1383C20.8598 69.9448 34.2204 77.3944 47.072 73.7776Z" fill="#BCE3F4"/>
<path d="M35.0968 13.275L22.9943 16.6875C22.0159 16.9697 21.0114 16.3798 20.7282 15.4304C20.445 14.4555 21.037 13.4545 21.9897 13.1723L34.0923 9.75979C35.0706 9.47759 36.0752 10.0675 36.3584 11.0169C36.6422 11.9663 36.0758 12.9928 35.0968 13.275Z" fill="#BCE3F4"/>
<path opacity="0.35" d="M34.8912 33.3152C37.2085 35.7017 31.1572 35.7528 27.2695 39.4991C23.3818 43.2455 23.098 49.2755 20.7806 46.8635C18.4632 44.477 19.7504 39.4991 23.6387 35.7528C27.5521 32.0064 32.5738 30.9032 34.8912 33.3152Z" fill="white"/>
<path d="M23.8182 17.2311L34.9209 14.1072L38.6373 27.22L27.5347 30.3439L23.8182 17.2311Z" fill="#BCE3F4"/>
<path d="M34.8912 14.0962C34.8912 14.0962 35.4319 26.7207 31.6211 28.0294C31.6211 28.0294 44.3932 25.8485 49.7744 28.3372C49.7744 28.3372 43.1823 25.6685 40.6587 26.1563C38.11 26.6179 34.8912 14.0962 34.8912 14.0962Z" fill="#99D5E8"/>
<path d="M53.5852 32.8018C58.1174 34.2128 60.3829 39.6529 61.7738 44.5797C65.0958 56.3059 58.2462 68.4688 46.5043 71.7785C34.7624 75.0882 22.5311 68.2632 19.2097 56.5625C18.161 52.8708 18.0989 48.9699 19.0297 45.2469C19.0297 45.2469 24.3596 53.7145 33.6297 49.5065C42.8992 45.3235 41.1482 28.9271 53.5852 32.8018Z" fill="url(#paint0_linear_26_505)"/>
<linearGradient id="paint0_linear_26_505" x1="18.3741" y1="52.4138" x2="62.6117" y2="52.4138" gradientUnits="userSpaceOnUse">
<stop stop-color="#FAEB48"/>
<stop offset="0.04" stop-color="#FEE72F"/>
<stop offset="0.117" stop-color="#FFD51D"/>
<stop offset="0.196" stop-color="#FDCA12"/>
<stop offset="0.281" stop-color="#FDC710"/>
<stop offset="0.668" stop-color="#F39040"/>
<stop offset="0.888" stop-color="#ED683C"/>
<stop offset="1" stop-color="#E83E3B"/>
</linearGradient>
</svg>
