<svg xmlns="http://www.w3.org/2000/svg" viewBox="0 0 80 80"><defs><linearGradient id="a" x1="11.49" y1="86.99" x2="80.34" y2="8.93" gradientUnits="userSpaceOnUse"><stop offset="0" stop-color="#2ebefe"/><stop offset=".34" stop-color="#7347fe"/><stop offset=".5" stop-color="#9d3bdb"/><stop offset=".63" stop-color="#b933c4"/><stop offset=".7" stop-color="#c330bc"/><stop offset="1" stop-color="#f55762"/></linearGradient></defs><path d="M80 6.32a30 30 0 00-17-4.38 66.51 66.51 0 00-41 15.28C14.8 23 10.58 30 11.09 39.44a10 10 0 01-.7 3.89c-.15 0-1-6.53-1.37-10.6-3.77 6-2.9 12-3.53 17.74-.46-1.32-1.15-3.31-1.6-4.63C2.13 50.45 2.46 56.61 5.15 62c7.2-12 15.3-22.57 25.07-31.37 11.41-9.23 17.26-13.89 32.3-20.3-14.12 7-26.77 16-37.26 27.91S5.6 62.65 0 77.5l.91.58 7.31-12.47c5.34 1 10.75.22 16.16-1.53a13.61 13.61 0 01-3.71-1.28c3-.5 10.31-2.49 11.64-4.49a20.44 20.44 0 01-6.86-1.39 12.17 12.17 0 006.19-.92C32.47 37.62 49 31.86 65.4 35.87c2.89-3.94 5.91-9.56 6.87-14.43 1.12-5.7 2.84-11.09 7.73-15.12zm-6 37.27c-8.83-10.21-27.74-10.31-36.63-.2-5.46 6.21-5.38 14.73.33 20.7a23.06 23.06 0 0020.83 7 12.87 12.87 0 019.92 2.5c1.35.94 2.82 1.71 4.24 2.56l.65-.49c-.22-1-.38-2-.67-3-1-3.57-1-6.54 1.82-9.78 4.89-5.64 4.33-13.67-.49-19.29zM48 53.94a3.27 3.27 0 11-3.26-3.27A3.26 3.26 0 0148 53.94zm10.52 0a3.27 3.27 0 11-3.26-3.27 3.26 3.26 0 013.26 3.27zm10.62 0a3.27 3.27 0 11-3.26-3.27 3.26 3.26 0 013.26 3.27z" fill="url(#a)"/></svg>