<svg xmlns="http://www.w3.org/2000/svg" viewBox="0 0 80 80">
  <rect width="100%" height="100%" fill="#fff"/>
  <path fill="#18B6F6" d="m64.708 78.5-12.3-12.23-.188.027v-.134L26.064 40.334l6.446-6.222-3.787-21.725-17.966 22.261c-3.062 3.085-3.626 8.1-1.424 11.801l11.226 18.614c1.719 2.87 4.834 4.586 8.19 4.56l5.56-.054 30.4 8.931Z"/>
  <path fill="#AC7EF4" d="m71.421 34.22-2.47-4.56-1.29-2.334-.51-.912-.054.054-6.767-11.72A9.475 9.475 0 0 0 52.03 10l-5.935.161-17.697.054a9.476 9.476 0 0 0-8.11 4.667L9.518 36.23l19.256-23.897 25.244 27.732-4.485 4.533 2.685 21.698.027-.054v.054h-.053l.053.053 2.095 2.039 10.178 9.95c.43.402 1.128-.08.833-.59l-6.284-12.364 10.957-20.25.349-.402c.134-.161.268-.322.376-.483 2.148-2.923 2.444-6.84.671-10.03Z"/>
  <path fill="#fff" d="M54.099 39.959 28.774 12.36l3.599 21.618-6.445 6.249L52.165 66.27l-2.363-21.618L54.1 39.96Z"/>
</svg>
