<svg xmlns="http://www.w3.org/2000/svg" viewBox="0 0 80 80">
  <rect width="100%" height="100%" fill="#C00"/>
  <path fill="#fff" d="M44 18h-3l-.6-1.8 3-.2.7 2ZM55.3 30l.2-2c1 0 2 .2 3 .4v2c-1-.2-2.1-.4-3.2-.4ZM45.3 29.8 46 32l2.7-1.1-.7-2.1c-1 .2-1.9.6-2.8 1ZM29.5 19.1l1.4 2.3c-.9.3-1.7.8-2.5 1.4L27 20.5l2.5-1.4ZM37.3 35.8l1.5 2.3c.6-.8 1.2-1.6 2-2.3l-1.5-2.2-2 2.2ZM35.3 48.2l-2.6-2a30 30 0 0 1 1-3.6l2.3 1.9a26 26 0 0 0-.7 3.7ZM18.8 30.9l-2.2-2-2.3 2.4 2.4 2.1 2.1-2.5ZM5.6 44l3.6 1.3v.2C8.6 46.6 8 48 7.6 49L4 47.8l1.6-3.9ZM32.3 54.4c0 1.3.1 2.7.3 4l3.8 1.4a42 42 0 0 1-.7-4.2l-3.4-1.2Z"/>
  <path fill="#fff" d="M37.3 33.5c-9.7 10.3-6 27.3-6 27.3h-25s.9-9.6 7.5-20.8a48.4 48.4 0 0 1 17.5-17.3c3.3-1.9 6.7-3 9.8-3.3C59.5 17.5 76 34.2 76 34.2l-1.1.9c-17.4-13-28.3-7.6-32.1-5.7l-.4.2c-2 1.2-3.7 2.5-5 4ZM58.5 21.2l.1-2.1-3-1.2-.2 2.2 3 1.1Z"/>
</svg>