<svg viewBox="0 0 80 80" xmlns="http://www.w3.org/2000/svg">
<rect width="100%" height="100%" fill="#3C8AE9"/>
<path d="M39.1142 8.05002C38.4544 8.1234 37.3164 8.38705 36.9204 8.55809C35.8853 9.00544 35.6685 9.1107 35.3282 9.33185C31.6935 11.6905 30.2836 16.162 31.9118 20.1659C32.1473 20.7448 32.2066 20.8501 32.7763 21.7129C33.2756 22.4689 34.7655 23.9714 35.0167 23.9714C35.0441 23.9714 35.234 24.0842 35.4381 24.2224C37.7874 25.8063 41.8393 25.8837 44.2474 24.3904C44.4788 24.2467 55.8406 35.5184 55.635 35.689C55.5246 35.7806 55.2283 36.4435 54.9072 37.3185L54.729 37.8038H51.5699C48.6351 37.8038 48.4108 37.7931 48.4108 37.658C48.4108 37.1636 47.52 35.4223 46.815 34.5382C44.7756 31.9822 41.0002 30.6517 38.0913 31.464C37.7312 31.5642 37.3797 31.6466 37.3103 31.6466C36.9331 31.6466 34.9397 32.7701 34.3153 33.3348C34.1528 33.4821 33.9142 33.6921 33.7856 33.8019C33.3526 34.1703 32.4658 35.4365 32.1194 36.1809C31.9311 36.5862 31.7401 36.984 31.6956 37.0644C31.651 37.1449 31.6145 37.284 31.6145 37.3736C31.6145 37.823 31.7599 37.8038 28.3658 37.8038H25.2199L25.1196 37.5295C25.0649 37.3787 24.9439 37.0654 24.8507 36.8337C24.758 36.6019 24.6694 36.3549 24.6537 36.2856C24.6096 36.0882 23.9452 35.019 23.6084 34.6035C22.2284 32.9001 20.6868 31.9594 18.3208 31.3764C16.645 30.9635 12.7703 31.7281 12.0314 32.6178C11.9742 32.6866 11.8906 32.7433 11.8456 32.7433C11.647 32.7433 9.66894 34.5939 9.66894 34.7796C9.66894 34.8231 9.60259 34.9299 9.52156 35.0169C8.10711 36.5341 7.52826 40.7338 8.4373 42.8855C8.86473 43.8971 8.98019 44.1365 9.23898 44.5509C9.398 44.806 9.56005 45.0276 9.59905 45.0428C9.63754 45.0585 9.66894 45.1207 9.66894 45.1815C9.66894 45.306 11.0307 46.7214 11.3574 46.9365C11.4733 47.0129 11.72 47.1824 11.9058 47.313C15.3713 49.7476 21.1036 48.8402 23.5542 45.4694C23.6013 45.4046 23.7629 45.1951 23.9133 45.0028C24.0637 44.8105 24.1867 44.6248 24.1867 44.5904C24.1867 44.5555 24.3002 44.3429 24.4389 44.1172C24.5782 43.8921 24.6724 43.7073 24.6486 43.7073C24.6253 43.7073 24.7013 43.5191 24.8183 43.2888C24.9352 43.0581 25.031 42.8132 25.031 42.7443C25.031 42.6755 25.075 42.5222 25.1287 42.4043L25.2269 42.1892H28.3769H31.5269L31.5781 42.4215C32.1164 44.8647 34.9322 47.7679 37.3119 48.3332C37.4972 48.3772 37.8963 48.4789 38.1981 48.5588C42.2369 49.6307 47.5838 46.4279 48.3778 42.4609L48.432 42.1892H51.5805H54.729L54.9072 42.6745C55.2324 43.5606 55.5251 44.2129 55.64 44.308C55.7302 44.3829 54.5796 45.5747 50.0992 50.0487L44.4449 55.6952L44.0433 55.4907C43.39 55.1577 43.2528 55.1016 42.5448 54.8784C39.8916 54.0429 36.3775 54.7286 34.4257 56.4629C33.7106 57.0985 32.9535 57.9344 32.6492 58.4253C30.3505 62.1311 30.9045 66.6871 34.0115 69.6283C34.5138 70.1034 35.7283 70.9329 36.2144 71.1322C37.164 71.5224 37.4714 71.6408 37.5965 71.6651C37.6719 71.6803 38.0264 71.7532 38.3845 71.827C43.6453 72.9176 48.7004 68.7078 48.7055 63.2328C48.7065 61.6549 48.5136 60.8204 47.8 59.322L47.5443 58.7851L53.1692 53.1649L58.7941 47.5452L59.2362 47.7714C59.9675 48.1454 60.9282 48.4657 61.8028 48.6272C62.6161 48.7775 64.3562 48.741 65.0389 48.5594C65.3402 48.4789 65.7327 48.3782 65.9099 48.3357C66.5166 48.1899 68.001 47.4137 68.6041 46.9258C73.5221 42.9498 73.0182 35.5776 67.613 32.4199C65.8385 31.3835 63.2258 30.9665 61.4513 31.4371C61.1728 31.511 60.8122 31.6026 60.6496 31.6411C60.3387 31.7139 59.7512 31.9584 59.1516 32.2645L58.7926 32.4477L53.1687 26.828L47.5448 21.2078L47.6911 20.9239C49.215 17.9737 49.0519 14.6029 47.2551 11.9036C47.1249 11.7083 46.9801 11.4881 46.934 11.4153C46.226 10.3004 43.7212 8.61983 42.3336 8.32885C40.7657 7.99942 40.0932 7.94122 39.1142 8.05002ZM41.1881 12.5599C44.2778 13.4263 45.3995 17.378 43.2102 19.6841C40.1575 22.9001 35.0036 20.3546 35.6857 15.9672C35.9688 14.1469 37.2901 12.9071 39.5062 12.3823C39.7827 12.3165 40.6452 12.4076 41.1881 12.5599ZM18.0822 35.8529C19.2541 36.2608 20.1389 37.0523 20.6914 38.1884L21.0175 38.8579V39.9965V41.1351L20.6893 41.8091C18.7912 45.7113 13.2317 44.9902 12.4031 40.7343C11.7838 37.5543 15.0072 34.7831 18.0822 35.8529ZM40.8989 35.7011C44.6809 36.5589 45.5935 41.5455 42.3524 43.6431C38.6428 46.0448 34.1563 42.0834 36.0554 38.0836C36.339 37.487 37.3078 36.3696 37.5418 36.3696C37.5934 36.3696 37.6998 36.3124 37.7773 36.2421C38.3055 35.7644 39.9342 35.482 40.8989 35.7011ZM64.418 35.7877C66.6549 36.4708 67.9756 38.5912 67.5315 40.7859C67.3765 41.5521 67.0945 42.2428 66.8549 42.4412C66.7845 42.4999 66.7268 42.5961 66.7268 42.6558C66.7268 42.8111 65.9464 43.4908 65.4334 43.7812C61.6828 45.9061 57.4607 41.9438 59.3304 38.0538C59.7112 37.2618 60.9945 36.0326 61.4407 36.0326C61.4974 36.0326 61.5805 35.9977 61.6245 35.9552C61.9856 35.6075 63.5256 35.5149 64.418 35.7877ZM41.7431 59.2471C46.0133 61.3533 44.6834 67.6253 39.9706 67.6086C38.6681 67.6041 36.341 66.3632 36.341 65.6735C36.341 65.6178 36.2874 65.5282 36.2215 65.4736C35.6822 65.0262 35.4533 62.8259 35.8397 61.7986C36.7492 59.3792 39.5538 58.1672 41.7431 59.2471Z" fill="white"/>
</svg>
