<svg viewBox="0 0 80 80" xmlns="http://www.w3.org/2000/svg">
<rect width="100%" height="100%" fill="#202329"/>
<path d="M46.0614 39.971C46.0614 43.3289 43.3479 46.0511 40.0006 46.0511C36.6533 46.0511 33.9397 43.3289 33.9397 39.971C33.9397 36.6131 36.6533 33.891 40.0006 33.891C43.3479 33.891 46.0614 36.6131 46.0614 39.971Z" fill="#61DAFB"/>
<path fill-rule="evenodd" clip-rule="evenodd" d="M39.9999 17.0912C39.0063 16.1221 38.0164 15.2352 37.0382 14.4378C34.5119 12.378 32.0017 10.863 29.6578 10.1023C27.3142 9.34175 24.9732 9.2902 23 10.4331C21.0267 11.5759 19.9008 13.6354 19.3856 16.0518C18.8703 18.4684 18.9231 21.4067 19.4381 24.6313C19.6375 25.8799 19.9082 27.1834 20.248 28.5311C18.9146 28.9098 17.6539 29.3264 16.4764 29.7775C13.435 30.9424 10.872 32.3656 9.04343 34.0216C7.21499 35.6774 6 37.6853 6 39.971C6 42.2567 7.21499 44.2647 9.04343 45.9205C10.872 47.5764 13.435 48.9997 16.4764 50.1646C17.6539 50.6157 18.9146 51.0323 20.248 51.4109C19.9082 52.7587 19.6375 54.0622 19.4381 55.3107C18.9231 58.5354 18.8703 61.4737 19.3856 63.8903C19.9008 66.3066 21.0267 68.3662 23 69.509C24.9732 70.6519 27.3142 70.6003 29.6578 69.8397C32.0017 69.0791 34.5119 67.5641 37.0382 65.5043C38.0164 64.7068 39.0064 63.8199 40 62.8508C40.9936 63.82 41.9836 64.7069 42.9617 65.5044C45.4881 67.5641 47.9983 69.0791 50.3421 69.8398C52.6858 70.6004 55.0267 70.6519 57 69.5091C58.9732 68.3662 60.0992 66.3067 60.6144 63.8903C61.1297 61.4737 61.0769 58.5354 60.5619 55.3108C60.3625 54.0622 60.0918 52.7587 59.752 51.4109C61.0854 51.0323 62.3461 50.6157 63.5236 50.1646C66.565 48.9997 69.128 47.5764 70.9566 45.9205C72.785 44.2647 74 42.2567 74 39.971C74 37.6853 72.785 35.6774 70.9566 34.0216C69.128 32.3656 66.565 30.9424 63.5236 29.7775C62.3461 29.3264 61.0854 28.9098 59.752 28.5311C60.0918 27.1834 60.3625 25.8798 60.5619 24.6313C61.0769 21.4066 61.1297 18.4683 60.6144 16.0518C60.0992 13.6354 58.9732 11.5758 57 10.433C55.0267 9.29014 52.6858 9.3417 50.3421 10.1023C47.9983 10.8629 45.4881 12.378 42.9617 14.4377C41.9836 15.2352 40.9936 16.1221 39.9999 17.0912ZM55.5217 13.0015C56.5181 13.5786 57.3111 14.7387 57.7233 16.6721C58.1355 18.6052 58.1242 21.1467 57.6426 24.1621C57.4575 25.3206 57.205 26.5373 56.8863 27.8016C54.0892 27.1665 51.0406 26.6862 47.8178 26.3873C45.9484 23.7369 44.0094 21.3285 42.0626 19.2161C42.9947 18.307 43.9188 17.4793 44.8264 16.7393C47.1888 14.8132 49.3772 13.5327 51.2521 12.9242C53.1273 12.3156 54.5254 12.4245 55.5217 13.0015ZM37.9373 19.2161C37.0052 18.307 36.0812 17.4793 35.1735 16.7393C32.8112 14.8133 30.6228 13.5327 28.7478 12.9242C26.8727 12.3157 25.4746 12.4245 24.4782 13.0016C23.4819 13.5786 22.6889 14.7388 22.2767 16.6722C21.8645 18.6053 21.8758 21.1468 22.3574 24.1621C22.5424 25.3207 22.7949 26.5373 23.1136 27.8016C25.9107 27.1665 28.9593 26.6862 32.1821 26.3873C34.0515 23.7369 35.9905 21.3285 37.9373 19.2161ZM56.0778 30.6591C54.1682 30.2312 52.1253 29.8762 49.9763 29.6057C50.6775 30.7053 51.3646 31.8382 52.034 33.0013C52.7033 34.1643 53.3378 35.3277 53.9364 36.4866C54.7775 34.4844 55.4924 32.5321 56.0778 30.6591ZM55.6357 39.971C56.989 37.0217 58.0987 34.1331 58.949 31.3855C60.1998 31.7408 61.3764 32.1297 62.469 32.5482C65.313 33.6375 67.5127 34.8985 68.9755 36.2231C70.4384 37.5479 71.0435 38.8169 71.0435 39.971C71.0435 41.1252 70.4384 42.3942 68.9755 43.719C67.5127 45.0436 65.313 46.3045 62.469 47.3939C61.3764 47.8124 60.1998 48.2013 58.949 48.5566C58.0987 45.809 56.989 42.9204 55.6357 39.971ZM52.3678 39.971C51.4989 38.1612 50.5333 36.3255 49.4735 34.4842C48.4138 32.6429 47.3119 30.8862 46.1839 29.2263C44.187 29.0763 42.1194 28.9973 40 28.9973C37.8806 28.9973 35.813 29.0763 33.816 29.2263C32.6881 30.8861 31.5861 32.6429 30.5264 34.4841C29.4667 36.3254 28.5011 38.1611 27.6321 39.971C28.5011 41.7809 29.4667 43.6166 30.5264 45.4579C31.5861 47.2992 32.6881 49.0559 33.816 50.7158C35.813 50.8658 37.8806 50.9448 40 50.9448C42.1194 50.9448 44.187 50.8658 46.1839 50.7158C47.3119 49.0559 48.4138 47.2992 49.4735 45.4579C50.5333 43.6166 51.4989 41.7809 52.3678 39.971ZM49.9763 50.3363C50.6775 49.2368 51.3646 48.1039 52.034 46.9408C52.7033 45.7778 53.3378 44.6144 53.9364 43.4555C54.7775 45.4577 55.4925 47.41 56.0778 49.2829C54.1682 49.7109 52.1253 50.0659 49.9763 50.3363ZM43.9601 53.8208C42.6603 53.8802 41.3387 53.9106 40 53.9106C38.6612 53.9106 37.3397 53.8802 36.0398 53.8208C37.3478 55.5525 38.6757 57.1498 40 58.5948C41.3242 57.1498 42.6521 55.5525 43.9601 53.8208ZM42.0626 60.726C44.0094 58.6136 45.9484 56.2052 47.8178 53.5548C51.0406 53.2559 54.0892 52.7756 56.8863 52.1405C57.205 53.4048 57.4575 54.6214 57.6426 55.78C58.1242 58.7954 58.1355 61.3368 57.7233 63.27C57.3111 65.2033 56.5181 66.3635 55.5217 66.9406C54.5254 67.5176 53.1273 67.6265 51.2521 67.0179C49.3772 66.4094 47.1888 65.1289 44.8264 63.2028C43.9188 62.4628 42.9947 61.635 42.0626 60.726ZM37.9373 60.726C35.9905 58.6136 34.0515 56.2052 32.1821 53.5548C28.9593 53.2559 25.9107 52.7756 23.1136 52.1405C22.7949 53.4047 22.5424 54.6214 22.3574 55.7799C21.8758 58.7953 21.8645 61.3368 22.2767 63.2699C22.6889 65.2033 23.4819 66.3634 24.4782 66.9405C25.4746 67.5176 26.8727 67.6264 28.7478 67.0179C30.6228 66.4094 32.8112 65.1288 35.1735 63.2027C36.0812 62.4627 37.0052 61.635 37.9373 60.726ZM23.9222 49.2829C25.8317 49.7109 27.8746 50.0659 30.0236 50.3363C29.3224 49.2368 28.6354 48.1039 27.966 46.9409C27.2966 45.7778 26.6621 44.6144 26.0635 43.4555C25.2225 45.4577 24.5075 47.41 23.9222 49.2829ZM26.0635 36.4866C26.6621 35.3276 27.2966 34.1643 27.966 33.0012C28.6354 31.8382 29.3224 30.7053 30.0236 29.6057C27.8746 29.8762 25.8317 30.2312 23.9222 30.6591C24.5075 32.5321 25.2225 34.4844 26.0635 36.4866ZM24.3642 39.971C23.0109 42.9203 21.9013 45.809 21.051 48.5566C19.8002 48.2013 18.6236 47.8124 17.531 47.3939C14.687 46.3045 12.4873 45.0436 11.0245 43.719C9.56159 42.3942 8.95652 41.1252 8.95652 39.971C8.95652 38.8169 9.56159 37.5479 11.0245 36.2231C12.4873 34.8985 14.687 33.6375 17.531 32.5482C18.6236 32.1297 19.8002 31.7408 21.051 31.3855C21.9013 34.1331 23.0109 37.0217 24.3642 39.971ZM36.0398 26.1213C37.3397 26.0619 38.6612 26.0314 40 26.0314C41.3387 26.0314 42.6603 26.0619 43.9601 26.1213C42.6521 24.3895 41.3242 22.7922 40 21.3472C38.6757 22.7922 37.3478 24.3895 36.0398 26.1213Z" fill="#61DAFB"/>
</svg>
