<svg xmlns="http://www.w3.org/2000/svg" viewBox="0 0 80 80">
  <rect width="100%" height="100%" fill="#202329"/>
  <path fill="#61DAFB" d="M46 40a6 6 0 1 1-12 0 6 6 0 0 1 12 0Z"/>
  <path fill="#61DAFB" fill-rule="evenodd" d="m40 17-3-2.6c-2.5-2-5-3.5-7.3-4.3-2.4-.8-4.7-.8-6.7.3-2 1.2-3.1 3.2-3.6 5.7a24 24 0 0 0 0 8.5l.8 4c-1.3.3-2.5.7-3.7 1.2-3 1.1-5.6 2.6-7.5 4.2-1.8 1.7-3 3.7-3 6s1.2 4.3 3 6c1.9 1.6 4.4 3 7.5 4.2l3.7 1.2a45 45 0 0 0-.8 4 24 24 0 0 0 0 8.5c.5 2.4 1.6 4.5 3.6 5.6 2 1.2 4.3 1.1 6.7.3 2.3-.7 4.8-2.2 7.3-4.3l3-2.6c1 1 2 1.8 3 2.6 2.5 2 5 3.6 7.3 4.3 2.4.8 4.7.9 6.7-.3 2-1.1 3.1-3.2 3.6-5.6a24 24 0 0 0 0-8.6 45 45 0 0 0-.8-3.9l3.7-1.2c3-1.2 5.6-2.6 7.5-4.3 1.8-1.6 3-3.6 3-6 0-2.2-1.2-4.2-3-5.9-1.9-1.6-4.4-3-7.5-4.2l-3.7-1.3.8-3.9a24 24 0 0 0 0-8.5c-.5-2.5-1.6-4.5-3.6-5.7-2-1.1-4.3-1-6.7-.3-2.3.8-4.8 2.3-7.3 4.3l-3 2.7Zm15.5-4c1 .6 1.8 1.7 2.2 3.7.4 2 .4 4.4 0 7.5l-.8 3.6c-2.8-.6-5.9-1.1-9-1.4a71 71 0 0 0-5.8-7.2l2.7-2.5a21 21 0 0 1 6.5-3.8c1.8-.6 3.2-.5 4.2.1ZM38 19.2l-2.7-2.5a21 21 0 0 0-6.5-3.8c-1.8-.6-3.2-.5-4.2.1s-1.8 1.7-2.2 3.7c-.4 2-.4 4.4 0 7.5l.8 3.6c2.8-.6 5.9-1.1 9-1.4a71 71 0 0 1 5.8-7.2Zm18.2 11.5c-2-.5-4-.8-6.1-1a87.4 87.4 0 0 1 4 6.8c.8-2 1.5-4 2-5.8Zm-.5 9.3c1.4-3 2.5-5.9 3.3-8.6l3.6 1.1c2.8 1.1 5 2.4 6.5 3.7 1.4 1.3 2 2.6 2 3.8 0 1.1-.6 2.4-2 3.7a21 21 0 0 1-6.5 3.7l-3.6 1.2c-.8-2.8-2-5.7-3.3-8.6Zm-3.2 0a83.2 83.2 0 0 0-6.2-10.8 82.7 82.7 0 0 0-12.4 0A83.3 83.3 0 0 0 27.6 40a83.3 83.3 0 0 0 6.2 10.7 82.7 82.7 0 0 0 12.4 0A83.2 83.2 0 0 0 52.4 40ZM50 50.3a87.4 87.4 0 0 0 4-6.8c.8 2 1.5 4 2 5.8-1.8.4-3.9.8-6 1Zm-6 3.5a86.8 86.8 0 0 1-8 0c1.3 1.8 2.7 3.3 4 4.8 1.3-1.5 2.7-3 4-4.8Zm-2 7a71 71 0 0 0 5.8-7.2c3.2-.3 6.3-.8 9-1.5.4 1.3.7 2.5.8 3.7.5 3 .5 5.5.1 7.5-.4 1.9-1.2 3-2.2 3.6-1 .6-2.4.7-4.2.1a21 21 0 0 1-6.5-3.8 42 42 0 0 1-2.7-2.5Zm-4 0a71 71 0 0 1-5.8-7.2c-3.2-.3-6.3-.8-9-1.5a42 42 0 0 0-.8 3.7c-.5 3-.5 5.5-.1 7.5.4 1.9 1.2 3 2.2 3.6 1 .6 2.4.7 4.2.1a21 21 0 0 0 6.5-3.8l2.7-2.5ZM24 49.2c1.8.4 3.9.8 6 1a87.4 87.4 0 0 1-4-6.8c-.8 2-1.5 4-2 5.8Zm2-12.8a87.3 87.3 0 0 1 4-6.9l-6 1c.5 2 1.2 3.9 2 5.9ZM24.5 40c-1.4 3-2.5 5.8-3.3 8.6l-3.6-1.2a21 21 0 0 1-6.5-3.7c-1.4-1.3-2-2.6-2-3.7 0-1.2.6-2.5 2-3.8a21 21 0 0 1 6.5-3.7l3.6-1.1c.8 2.7 2 5.6 3.3 8.6ZM36 26a86.8 86.8 0 0 1 8 0 65.6 65.6 0 0 0-4-4.8c-1.3 1.5-2.7 3-4 4.8Z" clip-rule="evenodd"/>
</svg>