<svg viewBox="0 0 80 80" xmlns="http://www.w3.org/2000/svg">
<rect width="100%" height="100%" fill="black"/>
<path d="M61.5713 37.5282C61.5713 39.5103 60.7674 41.3043 59.466 42.6017C58.1645 43.9006 56.3669 44.7043 54.3809 44.7043C52.3949 44.7043 50.5973 45.5066 49.2972 46.8055C47.9957 48.1043 47.1905 49.8984 47.1905 51.8804C47.1905 53.8624 46.3865 55.6565 45.0851 56.9539C43.7836 58.2528 41.986 59.0565 40 59.0565C38.014 59.0565 36.2164 58.2528 34.9164 56.9539C33.6149 55.6565 32.8096 53.8624 32.8096 51.8804C32.8096 49.8984 33.6149 48.1043 34.9164 46.8055C36.2164 45.5066 38.014 44.7043 40 44.7043C41.986 44.7043 43.7836 43.9006 45.0851 42.6017C46.3865 41.3043 47.1905 39.5103 47.1905 37.5282C47.1905 33.5642 43.972 30.3522 40 30.3522C38.014 30.3522 36.2164 29.5484 34.9164 28.2496C33.6149 26.9521 32.8096 25.1581 32.8096 23.1761C32.8096 21.194 33.6149 19.4 34.9164 18.1012C36.2164 16.8023 38.014 16 40 16C43.972 16 47.1905 19.212 47.1905 23.1761C47.1905 25.1581 47.9957 26.9521 49.2972 28.2496C50.5973 29.5484 52.3949 30.3522 54.3809 30.3522C58.3528 30.3522 61.5713 33.5642 61.5713 37.5282Z" fill="#F44250"/>
<path d="M32.8096 37.5282C32.8096 33.5649 29.5903 30.3522 25.6192 30.3522C21.648 30.3522 18.4287 33.5649 18.4287 37.5282C18.4287 41.4915 21.648 44.7043 25.6192 44.7043C29.5903 44.7043 32.8096 41.4915 32.8096 37.5282Z" fill="white"/>
<path d="M18.4287 51.8804C18.4287 47.9172 15.2095 44.7043 11.2383 44.7043C7.26711 44.7043 4.04785 47.9172 4.04785 51.8804C4.04785 55.8437 7.26711 59.0565 11.2383 59.0565C15.2095 59.0565 18.4287 55.8437 18.4287 51.8804Z" fill="white"/>
<path d="M75.9522 51.8804C75.9522 47.9172 72.7329 44.7043 68.7617 44.7043C64.7906 44.7043 61.5713 47.9172 61.5713 51.8804C61.5713 55.8437 64.7906 59.0565 68.7617 59.0565C72.7329 59.0565 75.9522 55.8437 75.9522 51.8804Z" fill="white"/>
</svg>
