<svg xmlns="http://www.w3.org/2000/svg" viewBox="0 0 80 80"><path d="M0 0h80v80H0z" style="fill:#61d9fa"/><circle cx="40" cy="40" r="6.53" style="fill:#fff"/><path d="M40 54.97C19.47 54.97 3.38 48.4 3.38 40S19.46 25.03 40 25.03 76.62 31.6 76.62 40 60.54 54.97 40 54.97Zm0-26.75C20.3 28.22 6.57 34.43 6.57 40S20.3 51.78 40 51.78 73.43 45.57 73.43 40 59.7 28.22 40 28.22Z" style="fill:#fff"/><path d="M54.62 72.66c-3.24 0-7.17-1.78-11.43-5.24-5.64-4.59-11.38-11.66-16.15-19.93-10.27-17.79-12.62-35-5.35-39.2 3.7-2.14 9.07-.62 15.12 4.3 5.64 4.59 11.38 11.66 16.15 19.93 10.27 17.78 12.62 35 5.35 39.19-1.09.63-2.33.95-3.69.95ZM25.43 10.52c-.81 0-1.53.17-2.14.53-4.83 2.79-3.34 17.78 6.51 34.85 4.58 7.94 10.05 14.71 15.4 19.05 4.87 3.96 9.08 5.42 11.52 4.01 4.83-2.79 3.34-17.78-6.51-34.85-4.58-7.94-10.05-14.71-15.4-19.05-3.66-2.97-6.93-4.54-9.38-4.54Z" style="fill:#fff"/><path d="M25.38 72.66c-1.36 0-2.6-.31-3.69-.95-7.27-4.19-4.92-21.41 5.35-39.19 4.77-8.27 10.51-15.35 16.15-19.93 6.04-4.91 11.42-6.45 15.12-4.3 7.27 4.19 4.92 21.41-5.35 39.19-4.77 8.27-10.51 15.35-16.15 19.93-4.26 3.46-8.18 5.24-11.43 5.24Zm29.19-62.14c-2.44 0-5.72 1.57-9.38 4.54-5.35 4.35-10.82 11.11-15.4 19.05-9.85 17.06-11.34 32.06-6.51 34.85 2.45 1.41 6.64-.06 11.52-4.01 5.35-4.35 10.82-11.11 15.4-19.05 9.85-17.06 11.34-32.06 6.51-34.85-.61-.35-1.33-.53-2.14-.53Z" style="fill:#fff"/></svg>