<svg viewBox="0 0 80 80" xmlns="http://www.w3.org/2000/svg">
<rect width="100%" height="100%" fill="white"/>
<path d="M69.4908 55.1798C66.0812 57.0112 48.3862 64.4846 44.5743 66.5359C40.7625 68.5872 38.7212 68.5289 35.7399 67.0655C32.7586 65.6023 13.9926 57.7653 10.5917 56.0955C8.87817 55.2696 8.00391 54.5649 8.00391 53.9051V47.2575C8.00391 47.2575 32.5182 41.7949 36.4742 40.3227C40.4304 38.8504 41.7986 38.8145 45.1601 40.0803C48.5216 41.346 68.6734 45.0805 72 46.3194V52.8727C72 53.555 71.235 54.2193 69.4908 55.1754V55.1798Z" fill="#A32422"/>
<path d="M69.4913 48.5636C66.0817 50.386 48.3866 57.8595 44.5749 59.8748C40.763 61.8902 38.7216 61.8722 35.7404 60.4134C32.7592 58.9546 13.9931 51.1176 10.5922 49.4614C7.1913 47.805 7.12573 46.647 10.461 45.3094C13.7964 43.9718 32.5187 36.4445 36.4747 34.9632C40.4308 33.482 41.799 33.4506 45.1605 34.7209C48.5221 35.9911 66.1429 43.1773 69.452 44.4296C72.7611 45.6819 72.9141 46.7098 69.4913 48.5277V48.5636Z" fill="#DC382C"/>
<path d="M69.4908 44.3534C66.0812 46.1802 48.3862 53.6492 44.5743 55.6646C40.7625 57.68 38.7386 57.662 35.7574 56.1943C32.7761 54.7265 13.9926 46.9343 10.5917 45.2691C8.87817 44.4342 8.00391 43.734 8.00391 43.0697V36.4446C8.00391 36.4446 32.5182 30.964 36.4742 29.4917C40.4304 28.0195 41.7986 27.9791 45.1601 29.2628C48.5216 30.5466 68.6734 34.2452 72 35.493V42.0462C72 42.7285 71.235 43.4108 69.4908 44.3534Z" fill="#A32422"/>
<path d="M69.4916 37.7058C66.082 39.5372 48.3869 47.0062 44.5751 49.0215C40.7633 51.0369 38.7219 51.0234 35.7406 49.5601C32.7594 48.0969 13.9934 40.2913 10.5925 38.6214C7.19159 36.9517 7.13039 35.8161 10.4613 34.4785C13.7923 33.141 32.519 25.5957 36.475 24.1548C40.4311 22.714 41.7993 22.6242 45.1608 23.8765C48.5224 25.1288 66.1432 32.3778 69.4523 33.5943C72.7613 34.8107 72.9144 35.8789 69.4916 37.6923V37.7058Z" fill="#DC382C"/>
<path d="M69.4908 33.1184C66.0812 34.9498 48.3862 42.4232 44.5743 44.4342C40.7625 46.4451 38.7386 46.4316 35.7574 44.9727C32.7761 43.514 13.9926 35.6994 10.5917 34.0342C8.87817 33.2082 8.00391 32.5036 8.00391 31.8392V25.1916C8.00391 25.1916 32.5182 19.729 36.4742 18.2613C40.4304 16.7935 41.7986 16.7486 45.1601 18.0144C48.5216 19.2802 68.6647 23.0146 71.9912 24.2625V30.8158C72 31.5071 71.235 32.1803 69.4908 33.1184Z" fill="#A32422"/>
<path d="M69.4913 26.4798C66.0817 28.2753 48.3866 35.7937 44.5749 37.791C40.763 39.7884 38.7216 39.784 35.7404 38.3297C32.7592 36.8754 13.9931 29.0518 10.5922 27.391C7.1913 25.7303 7.12573 24.5766 10.461 23.2391C13.7964 21.9015 32.5187 14.3607 36.4747 12.8974C40.4308 11.4341 41.799 11.3893 45.1605 12.655C48.5221 13.9208 66.1429 21.116 69.452 22.3638C72.7611 23.6117 72.9141 24.6485 69.4913 26.4664V26.4798Z" fill="#DC382C"/>
<path d="M41.0074 17.0404L45.23 15.6176L44.0848 18.4274L48.3817 20.0792L42.8433 20.6717L41.5975 23.7418L39.5955 20.3171L33.1914 19.7246L37.9737 17.9561L36.5355 15.236L41.0074 17.0404Z" fill="white"/>
<path d="M41.2742 34.9632L30.9229 30.551L45.7504 28.2125L41.2742 34.9632Z" fill="white"/>
<path d="M26.9228 21.7849C31.294 21.7849 34.848 23.1988 34.848 24.9269C34.848 26.655 31.2854 28.0689 26.9228 28.0689C22.5602 28.0689 18.9932 26.655 18.9932 24.9269C18.9932 23.1988 22.5471 21.7849 26.9228 21.7849Z" fill="white"/>
<path d="M54.9434 20.9185L63.7166 24.478L54.9521 28.0374L54.9434 20.9185Z" fill="#741113"/>
<path d="M54.9436 20.9185L54.9523 28.0374L53.9993 28.4189L45.2305 24.8595L54.9436 20.9185Z" fill="#AC2724"/>
</svg>
