<svg xmlns="http://www.w3.org/2000/svg" viewBox="0 0 80 80">
  <rect width="100%" height="100%" fill="#fff"/>
  <path fill="#A32422" d="M69.5 55.2c-3.4 1.8-21.1 9.3-25 11.3-3.7 2-5.8 2-8.8.6-3-1.5-21.7-9.3-25.1-11-1.7-.8-2.6-1.5-2.6-2.2v-6.6s24.5-5.5 28.5-7c4-1.4 5.3-1.5 8.7-.2 3.3 1.2 23.5 5 26.8 6.2V53c0 .7-.8 1.3-2.5 2.3Z"/>
  <path fill="#DC382C" d="M69.5 48.6c-3.4 1.8-21.1 9.3-25 11.3-3.7 2-5.8 2-8.8.5-3-1.4-21.7-9.3-25.1-11-3.4-1.6-3.5-2.8-.1-4 3.3-1.4 22-9 26-10.4 4-1.5 5.3-1.5 8.7-.3 3.3 1.3 21 8.5 24.3 9.7 3.3 1.3 3.4 2.3 0 4.1Z"/>
  <path fill="#A32422" d="M69.5 44.4c-3.4 1.8-21.1 9.2-25 11.3-3.7 2-5.8 2-8.7.5-3-1.5-21.8-9.3-25.2-11-1.7-.8-2.6-1.5-2.6-2.1v-6.7s24.5-5.4 28.5-7c4-1.4 5.3-1.4 8.7-.1 3.3 1.2 23.5 5 26.8 6.2V42c0 .7-.8 1.4-2.5 2.4Z"/>
  <path fill="#DC382C" d="M69.5 37.7C66 39.5 48.4 47 44.5 49c-3.7 2-5.8 2-8.8.6-3-1.5-21.7-9.3-25.1-11-3.4-1.6-3.5-2.8-.1-4.1 3.3-1.4 22-8.9 26-10.3 4-1.5 5.3-1.6 8.7-.3 3.3 1.2 21 8.5 24.3 9.7 3.3 1.2 3.4 2.3 0 4v.1Z"/>
  <path fill="#A32422" d="M69.5 33.1c-3.4 1.8-21.1 9.3-25 11.3-3.7 2-5.8 2-8.7.6-3-1.5-21.8-9.3-25.2-11-1.7-.8-2.6-1.5-2.6-2.2v-6.6s24.5-5.5 28.5-7c4-1.4 5.3-1.5 8.7-.2 3.3 1.3 23.5 5 26.8 6.3v6.5c0 .7-.8 1.4-2.5 2.3Z"/>
  <path fill="#DC382C" d="M69.5 26.5c-3.4 1.8-21.1 9.3-25 11.3-3.7 2-5.8 2-8.8.5-3-1.4-21.7-9.2-25.1-11-3.4-1.6-3.5-2.7-.1-4 3.3-1.4 22-9 26-10.4 4-1.5 5.3-1.5 8.7-.2 3.3 1.2 21 8.4 24.3 9.7 3.3 1.2 3.4 2.2 0 4Z"/>
  <path fill="#fff" d="m41 17 4.2-1.4-1.1 2.8 4.3 1.7-5.6.6-1.2 3-2-3.4-6.4-.6L38 18l-1.5-2.8L41 17ZM41.3 35l-10.4-4.4 14.9-2.4-4.5 6.8ZM27 21.8c4.3 0 7.8 1.4 7.8 3.1 0 1.8-3.5 3.2-7.9 3.2-4.3 0-8-1.4-8-3.2 0-1.7 3.6-3.1 8-3.1Z"/>
  <path fill="#741113" d="m55 21 8.7 3.5L55 28v-7Z"/>
  <path fill="#AC2724" d="M55 21v7l-1 .4-8.8-3.5 9.7-4Z"/>
</svg>