<svg xmlns="http://www.w3.org/2000/svg" viewBox="0 0 80 80"><defs><style>.b,.c,.d{fill-rule:evenodd}.b{fill:#9c0000}.c{fill:#b50808}.d{fill:#c61818}</style></defs><path d="M0 66.73h17.36l1.25-14.88-16.13-3.72L0 66.73zm3.1-21.08l15.51 3.72 3.72-13.03L9.3 29.52 3.1 45.65zm7.44-18.61l12.41 6.82 9.92-6.82-9.3-10.54-13.03 10.54zM80 66.73H62.64L61.4 51.85l16.12-3.72L80 66.73zm-3.1-21.08l-15.5 3.72-3.73-13.03 13.03-6.82 6.2 16.13zm-7.44-18.61l-12.41 6.82-9.92-6.82 9.31-10.54 13.02 10.54zm-42.79-12.4l9.3 11.16h8.68l8.06-11.16-8.06-2.48h-8.9l-9.08 2.48z" fill-rule="evenodd" fill="#4d4d4d"/><path class="b" d="M0 66.73h17.36l1.25-14.88-16.13-3.72L0 66.73z"/><path class="c" d="M3.1 45.65l15.51 3.72 3.72-13.03L9.3 29.52 3.1 45.65z"/><path class="d" d="M10.54 27.04l12.41 6.82 9.92-6.82-9.3-10.54-13.03 10.54z"/><path class="b" d="M80 66.73H62.64L61.4 51.85l16.12-3.72L80 66.73z"/><path class="c" d="M76.9 45.65l-15.5 3.72-3.73-13.03 13.03-6.82 6.2 16.13z"/><path class="d" d="M69.46 27.04l-12.41 6.82-9.92-6.82 9.31-10.54 13.02 10.54z"/><path fill="#ce3129" fill-rule="evenodd" d="M26.67 14.64l9.3 11.16h8.68l8.06-11.16-8.06-2.48h-8.9l-9.08 2.48z"/></svg>