<svg xmlns="http://www.w3.org/2000/svg" viewBox="0 0 80 80"><defs><style>.a{fill:#764abc}</style></defs><path class="a" d="M55.2 55a5.68 5.68 0 10-.6-11.35 5.4 5.4 0 00-5.42 5.38v.45a5.85 5.85 0 001.62 3.79 35.84 35.84 0 01-16.89 15.9 27.08 27.08 0 01-16.54 3.25 14.26 14.26 0 01-10.32-6 14.87 14.87 0 01-.81-15.62 23.81 23.81 0 016.92-8.1 50.31 50.31 0 01-1.35-5.41C-2.89 48.1-1.38 62.36 3.11 69.12a20.93 20.93 0 0017.61 8.21 23.31 23.31 0 006.11-.7A38.86 38.86 0 0055.2 55z"/><path class="a" d="M73.08 42.43a41.21 41.21 0 00-32-14h-1.66a5.43 5.43 0 00-5-3 5.68 5.68 0 000 11.35 5.39 5.39 0 005.4-3.46h1.84a38.52 38.52 0 0121.61 6.6 27.36 27.36 0 0110.81 13 14.08 14.08 0 010 12 14.91 14.91 0 01-13.89 8.32A26 26 0 0150.28 71c-1.13 1-3.13 2.65-4.54 3.67a31.45 31.45 0 0013.08 3.14A22 22 0 0078.49 67a22.9 22.9 0 00-5.41-24.57z"/><path class="a" d="M21.53 56.75a5.74 5.74 0 005.73 5.4 5.68 5.68 0 100-11.35 1.38 1.38 0 00-.7 0 37.26 37.26 0 01-5.4-22.53A27 27 0 0127.05 13a17.61 17.61 0 0112.48-6c10.81 0 15.29 13.22 15.61 18.62a48.51 48.51 0 015 1.51C59 10.92 48.82 2.17 39.1 2.17a23 23 0 00-20.86 16.21 41.37 41.37 0 004.1 35.28 4.78 4.78 0 00-.81 3.09z"/></svg>