<svg xmlns="http://www.w3.org/2000/svg" viewBox="0 0 80 80">
  <rect width="100%" height="100%" fill="#764ABC"/>
  <path fill="#fff" d="M29.9 57.2c-2.5 0-4.5-2-4.6-4.4 0-.9.2-1.8.6-2.3-4.6-8-7-18-3.3-28.4C25.3 14.3 32.1 9 39.4 9c7.8 0 16 6.8 17 20-1.3-.4-3-1-4.1-1.2-.3-4.3-4-15-12.6-14.9-3 0-7.6 1.6-10 4.6A21.8 21.8 0 0 0 24.9 30c-.5 6.5.9 12.5 4.2 18h.8a4.6 4.6 0 0 1 .2 9.1h-.2Z"/>
  <path fill="#fff" d="M66.7 41.3a33 33 0 0 0-25.8-11.2h-1.3a4.5 4.5 0 0 0-4-2.4h-.1a4.6 4.6 0 0 0 .1 9h.2c1.8 0 3.4-1.1 4-2.7h1.5a31 31 0 0 1 17.3 5.3c4 2.7 7 6.2 8.6 10.4 1.4 3.4 1.4 6.8-.1 9.6A12 12 0 0 1 55.9 66c-3.2 0-6.3-1-8-1.7a48 48 0 0 1-3.6 3c3.5 1.6 7 2.5 10.5 2.5 7.8 0 13.6-4.4 15.8-8.7 2.4-4.7 2.2-12.8-4-19.8Z"/>
  <path fill="#fff" d="M52.3 51.4a4.6 4.6 0 0 0-.5-9.1h-.1a4.6 4.6 0 0 0-3.1 7.7c-2.8 5.5-7 9.5-13.4 12.8A22 22 0 0 1 22 65.4c-3.7-.5-6.5-2.2-8.3-4.8a12 12 0 0 1-.7-12.7c1.6-3 4-5.3 5.5-6.5a44 44 0 0 1-1-4.1c-11.8 8.5-10.6 20-7 25.5 2.7 4.1 8.1 6.6 14.2 6.6a31.3 31.3 0 0 0 27.7-18Z"/>
</svg>