<svg viewBox="0 0 80 80" xmlns="http://www.w3.org/2000/svg">
<rect width="100%" height="100%" fill="#764ABC"/>
<path d="M29.8671 57.2141C27.4238 57.2141 25.3877 55.2594 25.3063 52.8162C25.2248 51.9203 25.4692 51.0244 25.8764 50.4543C21.3156 42.5544 18.8723 32.5369 22.6187 22.1123C25.3063 14.2938 32.066 9 39.3959 9C47.2144 9 55.3586 15.8412 56.3359 29.0349C55.1143 28.6277 53.3226 28.0576 52.2638 27.8133C52.0195 23.4968 48.3545 12.7464 39.7216 12.9092C36.6268 12.9907 32.066 14.4567 29.7042 17.47C26.8537 20.9721 25.2248 25.2071 24.8991 30.0937C24.4104 36.6091 25.7949 42.6358 29.1341 48.1739C29.297 48.0925 29.5413 48.0925 29.7042 48.0925H29.8671C32.3103 48.0925 34.3464 50.0471 34.4278 52.4904C34.5093 55.0151 32.5547 57.1326 30.0299 57.2141H29.8671Z" fill="white"/>
<path d="M66.6792 41.3328C60.4895 34.0844 51.3679 30.0937 40.9433 30.0937H39.6402C38.9072 28.6277 37.3598 27.6504 35.6495 27.6504H35.4866C32.9619 27.7318 31.0073 29.8493 31.0887 32.3741C31.1701 34.8173 33.2062 36.772 35.6495 36.772H35.8124C37.6041 36.6905 39.1515 35.5503 39.8031 34.0029H41.269C47.4587 34.0029 53.3226 35.7947 58.6163 39.2967C62.6885 41.9843 65.6204 45.4863 67.2493 49.7214C68.6338 53.142 68.5523 56.4811 67.0864 59.3316C64.806 63.6481 60.9782 66.0099 55.9287 66.0099C52.671 66.0099 49.5762 65.0326 47.9473 64.2996C47.0515 65.114 45.4226 66.4171 44.2824 67.2315C47.7845 68.8604 51.3679 69.7563 54.7885 69.7563C62.607 69.7563 68.3895 65.4398 70.5884 61.1233C72.9502 56.3997 72.7874 48.2554 66.6792 41.3328Z" fill="white"/>
<path d="M52.3452 51.4318C54.7071 51.1874 56.4988 49.1514 56.4174 46.7081C56.3359 44.2648 54.2999 42.3102 51.8566 42.3102H51.6937C49.169 42.3916 47.2144 44.5091 47.2958 47.0339C47.3772 48.2555 47.8659 49.3143 48.5989 50.0472C45.8298 55.5039 41.5948 59.4946 35.2423 62.8338C30.9258 65.1141 26.4465 65.9286 21.9671 65.3585C18.3022 64.8698 15.4517 63.241 13.66 60.5534C11.0538 56.5627 10.8095 52.2462 13.0084 47.9297C14.5558 44.8349 16.9991 42.5545 18.5465 41.4143C18.2208 40.3556 17.7321 38.5638 17.4878 37.2607C5.67858 45.8122 6.90022 57.3771 10.4837 62.8338C13.1713 66.9059 18.628 69.4306 24.6547 69.4306C26.2836 69.4306 27.9124 69.2677 29.5413 68.8605C39.966 66.8244 47.8659 60.6348 52.3452 51.4318Z" fill="white"/>
</svg>
