<svg xmlns="http://www.w3.org/2000/svg" viewBox="0 0 80 80"><defs><style>.b{fill:#fff}.d{fill:#7fbf8e}.e{fill:#5ea4d6}.f{fill:#301e3a}.g{fill:#f7dc78}</style></defs><path d="M59.84 48.22L73.49 80H8.18V0H44c8.47 0 28.16 2.51 28.16 25.81-.02 10.09-4.26 17.79-12.32 22.41zm9.83 29.28l-13-30.43c8.77-4.11 13-11.58 13-21.26C69.64 17.1 66.31 2.5 44 2.5H10.68v75H37V52.89h.89l3.64 24.61z" fill="#342e56"/><path class="b" d="M40.89 52.93l1 6.6 2.24 15h21l-2.49-5.82-1.91-4.45L57 55.43l-2.09-4.87-2.31-5.27A21.13 21.13 0 0062.78 38a18.59 18.59 0 003.45-12.16 31.39 31.39 0 00-.65-5C62.92 8.38 53.2 5.5 44 5.5H13.68v69H34V49.89h6.47zm15.74-5.86l13 30.43h-28.1l-3.68-24.61H37V77.5H10.68v-75H44c22.33 0 25.66 14.6 25.66 23.31-.02 9.68-4.26 17.19-13.03 21.26z"/><path d="M66.23 25.81A18.59 18.59 0 0162.78 38c-24.18-10.2-49.1-6.71-49.1-6.71V12.54s33.09-1.26 51.9 8.31a31.39 31.39 0 01.65 4.96z" fill="#5e2b62"/><path class="d" d="M62.63 68.68l2.49 5.82H61a10 10 0 011.63-5.82z"/><path class="e" d="M60.72 64.23l1.91 4.45A10 10 0 0061 74.5H44.12l-2.24-15c.41.04 11.12.35 18.84 4.73z"/><path class="d" d="M57 55.43l3.77 8.8c-7.75-4.38-18.43-4.69-18.84-4.7l-1-6.6A102.87 102.87 0 0157 55.43z"/><path class="f" d="M44 5.5c9.22 0 18.94 2.88 21.6 15.35-18.81-9.57-51.9-8.31-51.9-8.31v-7z"/><path class="e" d="M54.86 50.56L57 55.43a102.87 102.87 0 00-16.06-2.5l-.46-3 .1-1.51a86.33 86.33 0 0114.28 2.14z"/><path class="f" d="M52.6 45.29l2.26 5.27a86.33 86.33 0 00-14.33-2.18c-16.19-1.09-26.85 2.91-26.85 2.91v-20S38.6 27.77 62.78 38a21.13 21.13 0 01-10.18 7.29z"/><path class="e" d="M40.53 48.38l-.1 1.51H34v2.81c-12.93.07-20.28 3-20.28 3v-4.41s10.62-4 26.81-2.91zM34 65.11v9.39H13.68V64.23s7.87 4.24 20.32.88z"/><path class="d" d="M34 52.7v12.41c-12.41 3.36-20.28-.88-20.28-.88v-8.48S21 52.77 34 52.7z"/><path class="g" d="M45.88 33.46a1 1 0 01-.8-.39 1 1 0 01.19-1.41 6.43 6.43 0 000-10.21 1 1 0 01-.19-1.45 1 1 0 011.4-.18 8.43 8.43 0 010 13.39 1 1 0 01-.6.25z"/><path class="g" d="M49.2 37.12a1 1 0 01-.55-1.83 10.41 10.41 0 000-17.47 1 1 0 111.09-1.67 12.39 12.39 0 010 20.81 1 1 0 01-.54.16z"/><path class="g" d="M52.75 41a1 1 0 01-.55-1.83 15.12 15.12 0 00-.05-25.34 1 1 0 01-.3-1.38 1 1 0 011.39-.3 17.12 17.12 0 010 28.69 1 1 0 01-.49.16z"/><circle class="b" cx="36.68" cy="26.03" r="3.85"/><path d="M34 57a.23.23 0 01-.21-.13L32.2 54l-3.41 2.19-.17.62a.25.25 0 01-.24.18h-.07a.24.24 0 01-.17-.3l7.53-26.89.49.1-.54 1.93.31.6.5-.73v-1.83h.5v1.78l.49.73.31-.6-.54-1.93.49-.1 7.53 26.89a.24.24 0 01-.17.3H45a.25.25 0 01-.24-.18l-.17-.62L41.05 54l-.11-.73L42.75 50l-2.86-2.48-1.28 2.38H38l1.46-2.77-2.57-2.22v5h-.5v-5l-2.58 2.22 1.46 2.77h-.56l-1.28-2.43L30.6 50l1.78 3.29 1.58-1v.6l-1.34.86L34 56.18m7.37-2.56l3 1.83L43 50.56zM29 55.42l3-1.9-1.6-3zm3.44-12.29l2-2.08-1-1.62zm-.2.93l1.37 2.62 2.74-2.37-1.65-2.81zm-1.49 5.1L33.23 47 32 44.69zm10.6-4.47L40.12 47l2.48 2.15-1.25-4.47m-.24-.63l-2.46-2.55L37 44.31l2.74 2.37zm-1.24-4.63l-.95 1.62 2 2.08-1-3.7m-3.44.27l-1.37 1.42 1.37 2.32zm-.11-.69l-1.2-2.21-1.48 2 1.1 1.86zm.06-3.91l-.94 1.25.94 1.72zm.5 8.32l1.36-2.32-1.36-1.39zm1.63-2.77l1.1-1.86-1.48-2L37 39zm-1.63-2.58l.93-1.72-.93-1.25zm-.5-5.55l-.24.34.24.45zm.5.79l.23-.45-.23-.34zm-1.51-.85l-.31 1.1.5-.73-.19-.37M34.75 35l.48.88 1.15-1.56-.51-1zM34 37.55l.9-1.22-.37-.68zm4.82-1.9l-.37.68.9 1.22-.54-1.9M38.6 35l-1.12-1.66-.51 1 1.15 1.56zm-.67-2.53l-.19.37.5.73-.3-1.1" fill="#5a5295"/></svg>