<svg xmlns="http://www.w3.org/2000/svg" viewBox="0 0 80 80">
  <rect width="100%" height="100%" fill="#fff"/>
  <path fill="url(#a)" fill-rule="evenodd" d="m22.22 69.92 44.36-3.01L70 22.18l-13.52 27.4-34.26 20.34Z" clip-rule="evenodd"/>
  <path fill="url(#b)" fill-rule="evenodd" d="m52.46 54.27 14.2 12.6-3.82-26.3-10.38 13.7Z" clip-rule="evenodd"/>
  <path fill="url(#c)" fill-rule="evenodd" d="m22.38 69.86 44.33-2.99-27.93-2.19-16.4 5.18Z" clip-rule="evenodd"/>
  <path fill="url(#d)" fill-rule="evenodd" d="m14.04 50.29 8.37 19.57 6.99-22.85-15.36 3.28Z" clip-rule="evenodd"/>
  <path fill="url(#e)" fill-rule="evenodd" d="m27.66 46.43 24.8 7.92-6.42-25.14-18.38 17.22Z" clip-rule="evenodd"/>
  <path fill="url(#f)" fill-rule="evenodd" d="m46.34 31 22.2-1.44-17.36-14.18L46.34 31Z" clip-rule="evenodd"/>
  <path fill="url(#g)" fill-rule="evenodd" d="m43.76 10.24 16.66.07-10.21 5.65-6.45-5.72Z" clip-rule="evenodd"/>
  <path fill="url(#h)" fill-rule="evenodd" d="M10.82 40.85 10 57.95l4.28-7.8-3.46-9.3Z" clip-rule="evenodd"/>
  <path fill="#fff" fill-rule="evenodd" d="m10.59 40.56 3.48 9.88 15.13-3.39L46.48 31l4.88-15.49-7.69-5.43-13.05 4.88C26.5 18.8 18.54 26.37 18.26 26.5c-.29.14-5.25 9.57-7.66 14.06Z" clip-rule="evenodd"/>
  <path fill="url(#i)" fill-rule="evenodd" d="M22.82 22.82c8.93-8.84 20.4-14.06 24.8-9.61 4.42 4.45-.26 15.25-9.17 24.09s-20.26 14.35-24.7 9.9c-4.44-4.46.15-15.55 9.07-24.38Z" clip-rule="evenodd"/>
  <path fill="url(#j)" fill-rule="evenodd" d="m22.41 69.86 6.93-22.94 22.99 7.39c-8.31 7.8-17.58 14.38-29.92 15.55Z" clip-rule="evenodd"/>
  <path fill="url(#k)" fill-rule="evenodd" d="m46.51 30.95 5.9 23.38c6.95-7.31 13.18-15.16 16.23-24.83l-22.13 1.45Z" clip-rule="evenodd"/>
  <path fill="url(#l)" fill-rule="evenodd" d="M68.58 29.58c2.36-7.12 2.92-17.33-8.23-19.25l-9.1 5.05 17.33 14.2Z" clip-rule="evenodd"/>
  <path fill="#AA3E35" fill-rule="evenodd" d="M10 57.86c.33 11.76 8.81 11.94 12.43 12l-8.35-19.5-4.08 7.5Z" clip-rule="evenodd"/>
  <path fill="url(#m)" fill-rule="evenodd" d="M46.54 31c5.34 3.28 16.1 9.86 16.31 9.98.34.2 4.64-7.24 5.61-11.44L46.54 31Z" clip-rule="evenodd"/>
  <path fill="url(#n)" fill-rule="evenodd" d="m29.33 46.92 9.25 17.83a59.86 59.86 0 0 0 13.68-10.42l-22.93-7.4Z" clip-rule="evenodd"/>
  <path fill="url(#o)" fill-rule="evenodd" d="m14.04 50.42-1.3 15.61c2.47 3.38 5.87 3.68 9.44 3.41-2.58-6.43-7.74-19.28-8.14-19.02Z" clip-rule="evenodd"/>
  <path fill="url(#p)" fill-rule="evenodd" d="M51.15 15.41 69.55 18c-.99-4.16-4-6.85-9.14-7.69l-9.26 5.1Z" clip-rule="evenodd"/>
  <linearGradient id="a" x1="62.72" x2="50.06" y1="75.36" y2="53.01" gradientUnits="userSpaceOnUse">
    <stop stop-color="#F68F71"/>
    <stop offset=".41" stop-color="#DC5242"/>
    <stop offset=".99" stop-color="#A72C32"/>
    <stop offset="1" stop-color="#A72C32"/>
  </linearGradient>
  <linearGradient id="b" x1="69.02" x2="52.7" y1="56.58" y2="45.64" gradientUnits="userSpaceOnUse">
    <stop stop-color="#9B3F34"/>
    <stop offset=".99" stop-color="#A23E36"/>
    <stop offset="1" stop-color="#A23E36"/>
  </linearGradient>
  <linearGradient id="c" x1="2739.51" x2="2698.46" y1="520.34" y2="284.25" gradientUnits="userSpaceOnUse">
    <stop stop-color="#9B3F34"/>
    <stop offset=".99" stop-color="#A23E36"/>
    <stop offset="1" stop-color="#A23E36"/>
  </linearGradient>
  <linearGradient id="d" x1="21.72" x2="24.25" y1="48.66" y2="65.09" gradientUnits="userSpaceOnUse">
    <stop stop-color="#fff"/>
    <stop offset=".23" stop-color="#E28B6F"/>
    <stop offset=".46" stop-color="#DA6144"/>
    <stop offset=".99" stop-color="#A60003"/>
    <stop offset="1" stop-color="#A60003"/>
  </linearGradient>
  <linearGradient id="e" x1="39.11" x2="40.04" y1="33.31" y2="50.09" gradientUnits="userSpaceOnUse">
    <stop stop-color="#fff"/>
    <stop offset=".23" stop-color="#E08A6D"/>
    <stop offset=".56" stop-color="#C14435"/>
    <stop offset=".99" stop-color="#B13430"/>
    <stop offset="1" stop-color="#B13430"/>
  </linearGradient>
  <linearGradient id="f" x1="54.55" x2="57.34" y1="17.82" y2="29.83" gradientUnits="userSpaceOnUse">
    <stop stop-color="#fff"/>
    <stop offset=".18" stop-color="#DF8063"/>
    <stop offset=".4" stop-color="#C94D37"/>
    <stop offset=".99" stop-color="#B13430"/>
    <stop offset="1" stop-color="#B13430"/>
  </linearGradient>
  <linearGradient id="g" x1="46.03" x2="58.05" y1="13.58" y2="7.57" gradientUnits="userSpaceOnUse">
    <stop stop-color="#fff"/>
    <stop offset=".54" stop-color="#C94838"/>
    <stop offset=".99" stop-color="#C12D2F"/>
    <stop offset="1" stop-color="#C12D2F"/>
  </linearGradient>
  <linearGradient id="h" x1="11.19" x2="12.18" y1="44.47" y2="54.38" gradientUnits="userSpaceOnUse">
    <stop stop-color="#fff"/>
    <stop offset=".31" stop-color="#DA6548"/>
    <stop offset=".99" stop-color="#C14433"/>
    <stop offset="1" stop-color="#C14433"/>
  </linearGradient>
  <linearGradient id="i" x1="4.38" x2="50.89" y1="57.05" y2="9.23" gradientUnits="userSpaceOnUse">
    <stop stop-color="#BD0012"/>
    <stop offset=".07" stop-color="#fff"/>
    <stop offset=".17" stop-color="#fff"/>
    <stop offset=".27" stop-color="#C95841"/>
    <stop offset=".33" stop-color="#983734"/>
    <stop offset=".46" stop-color="#AE4231"/>
    <stop offset=".72" stop-color="#B93E2F"/>
    <stop offset=".99" stop-color="#DE4E2B"/>
    <stop offset="1" stop-color="#DE4E2B"/>
  </linearGradient>
  <linearGradient id="j" x1="40" x2="26" y1="61.88" y2="58.42" gradientUnits="userSpaceOnUse">
    <stop stop-color="#9F3633"/>
    <stop offset=".54" stop-color="#A73532"/>
    <stop offset=".99" stop-color="#B13439"/>
    <stop offset="1" stop-color="#B13439"/>
  </linearGradient>
  <linearGradient id="k" x1="64.06" x2="51.62" y1="45.06" y2="33.91" gradientUnits="userSpaceOnUse">
    <stop stop-color="#923C36"/>
    <stop offset=".99" stop-color="#AA3531"/>
    <stop offset="1" stop-color="#AA3531"/>
  </linearGradient>
  <linearGradient id="l" x1="68.64" x2="62.43" y1="24.6" y2="17.97" gradientUnits="userSpaceOnUse">
    <stop stop-color="#8D3E36"/>
    <stop offset=".99" stop-color="#AA3E37"/>
    <stop offset="1" stop-color="#AA3E37"/>
  </linearGradient>
  <radialGradient id="m" cx="0" cy="0" r="1" gradientTransform="matrix(15.2 0 0 15.2 53.56 34.13)" gradientUnits="userSpaceOnUse">
    <stop stop-color="#B13430"/>
    <stop offset=".99" stop-color="#923934"/>
    <stop offset="1" stop-color="#923934"/>
  </radialGradient>
  <radialGradient id="n" cx="0" cy="0" r="1" gradientTransform="matrix(20.3 0 0 20.3 32.44 54.22)" gradientUnits="userSpaceOnUse">
    <stop stop-color="#AE3531"/>
    <stop offset=".99" stop-color="#953A36"/>
    <stop offset="1" stop-color="#953A36"/>
  </radialGradient>
  <linearGradient id="o" x1="18.08" x2="13.02" y1="69.84" y2="52.7" gradientUnits="userSpaceOnUse">
    <stop stop-color="#994939"/>
    <stop offset=".43" stop-color="#AA3A36"/>
    <stop offset=".99" stop-color="#B83936"/>
    <stop offset="1" stop-color="#B83936"/>
  </linearGradient>
  <linearGradient id="p" x1="56.83" x2="68.15" y1="13.05" y2="18.05" gradientUnits="userSpaceOnUse">
    <stop stop-color="#B9392F"/>
    <stop offset=".44" stop-color="#A23A36"/>
    <stop offset=".99" stop-color="#8D463A"/>
    <stop offset="1" stop-color="#8D463A"/>
  </linearGradient>
</svg>