<svg viewBox="0 0 80 80" xmlns="http://www.w3.org/2000/svg">
<rect width="100%" height="100%" fill="white"/>
<path d="M71.4622 39.0199L68.51 37.1958L71.0462 34.7956C71.1892 34.6621 71.2958 34.4943 71.356 34.3081C71.4162 34.122 71.428 33.9235 71.3902 33.7316C71.3512 33.538 71.264 33.3574 71.1368 33.2064C71.0095 33.0554 70.8463 32.9388 70.6622 32.8675L67.462 31.6594L69.4781 28.8432C69.5949 28.6838 69.6688 28.4971 69.6926 28.301C69.7164 28.1048 69.6894 27.9058 69.6141 27.7231C69.5369 27.5415 69.415 27.3825 69.2597 27.2608C69.1044 27.139 68.9208 27.0586 68.726 27.0271L65.3098 26.467L66.7419 23.3148C66.8248 23.1349 66.8602 22.9368 66.8448 22.7393C66.8294 22.5418 66.7636 22.3516 66.6539 22.1867C66.5373 22.0211 66.3789 21.8894 66.1947 21.8051C66.0106 21.7207 65.8074 21.6868 65.6058 21.7067L62.1416 21.8347L62.9416 18.4585C62.9885 18.2663 62.985 18.0653 62.9317 17.8749C62.8783 17.6844 62.7768 17.5109 62.637 17.371C62.4971 17.2312 62.3236 17.1297 62.1331 17.0763C61.9427 17.023 61.7417 17.0195 61.5495 17.0664L58.1733 17.8664L58.3013 14.4022C58.3077 14.2058 58.264 14.0109 58.1744 13.836C58.0849 13.6611 57.9523 13.5118 57.7893 13.4021C57.6242 13.2932 57.4345 13.2273 57.2374 13.2105C57.0404 13.1938 56.8423 13.2266 56.6612 13.3061L53.509 14.7462L52.9489 11.322C52.9162 11.1282 52.8348 10.946 52.7123 10.7924C52.5899 10.6387 52.4304 10.5187 52.2489 10.4435C52.0674 10.3683 51.8698 10.3405 51.6745 10.3626C51.4793 10.3847 51.2929 10.456 51.1328 10.5699L48.3166 12.586L47.1005 9.34581C47.0318 9.16147 46.9171 8.99777 46.7673 8.87033C46.6174 8.74288 46.4374 8.65593 46.2444 8.61776C46.0512 8.58013 45.8516 8.59193 45.6642 8.65208C45.4768 8.71222 45.3076 8.81876 45.1724 8.96179L42.7722 11.49L40.9881 8.54576C40.8838 8.37876 40.7388 8.24105 40.5666 8.14557C40.3945 8.0501 40.2009 8 40.004 8C39.8071 8 39.6135 8.0501 39.4414 8.14557C39.2692 8.24105 39.1242 8.37876 39.0199 8.54576L37.1958 11.498L34.7956 8.96179C34.6652 8.82387 34.5028 8.7203 34.3228 8.66028C34.1427 8.60026 33.9506 8.58566 33.7636 8.61776C33.57 8.65682 33.3894 8.74399 33.2384 8.87123C33.0874 8.99846 32.9708 9.16168 32.8995 9.34581L31.6914 12.586L28.8752 10.5619C28.7151 10.448 28.5287 10.3767 28.3335 10.3546C28.1382 10.3325 27.9406 10.3603 27.7591 10.4355C27.5776 10.5107 27.4181 10.6307 27.2957 10.7844C27.1732 10.938 27.0918 11.1202 27.0591 11.314L26.499 14.7382L23.3468 13.2981C23.1657 13.2186 22.9676 13.1858 22.7706 13.2025C22.5735 13.2193 22.3838 13.2852 22.2187 13.3941C22.0545 13.5045 21.9212 13.6551 21.8316 13.8315C21.742 14.008 21.699 14.2044 21.7067 14.4022L21.8347 17.8664L18.4585 17.0664C18.2663 17.0195 18.0653 17.023 17.8749 17.0763C17.6844 17.1297 17.5109 17.2312 17.371 17.371C17.2312 17.5109 17.1297 17.6844 17.0763 17.8749C17.023 18.0653 17.0195 18.2663 17.0664 18.4585L17.8664 21.8347L14.4022 21.7067C14.2055 21.6988 14.0101 21.7418 13.835 21.8315C13.6598 21.9212 13.5107 22.0546 13.4021 22.2187C13.2932 22.3838 13.2273 22.5735 13.2105 22.7706C13.1938 22.9676 13.2266 23.1657 13.3061 23.3468L14.7462 26.499L11.322 27.0591C11.1282 27.0918 10.946 27.1732 10.7924 27.2957C10.6387 27.4181 10.5187 27.5776 10.4435 27.7591C10.3683 27.9406 10.3405 28.1382 10.3626 28.3335C10.3847 28.5287 10.456 28.7151 10.5699 28.8752L12.594 31.6914L9.34581 32.8995C9.16168 32.9708 8.99846 33.0874 8.87123 33.2384C8.74399 33.3894 8.65682 33.57 8.61776 33.7636C8.58003 33.9555 8.59182 34.154 8.65201 34.3401C8.7122 34.5263 8.81881 34.6941 8.96179 34.8276L11.498 37.2278L8.54576 39.0199C8.37876 39.1242 8.24105 39.2692 8.14557 39.4414C8.0501 39.6135 8 39.8071 8 40.004C8 40.2009 8.0501 40.3945 8.14557 40.5666C8.24105 40.7388 8.37876 40.8838 8.54576 40.9881L11.498 42.8122L8.96179 45.2124C8.82501 45.3436 8.72222 45.5061 8.66229 45.6859C8.60235 45.8657 8.58707 46.0574 8.61776 46.2444C8.65593 46.4374 8.74288 46.6174 8.87033 46.7673C8.99777 46.9171 9.16147 47.0318 9.34581 47.1005L12.586 48.3166L10.5619 51.1328C10.448 51.2929 10.3767 51.4793 10.3546 51.6745C10.3325 51.8698 10.3603 52.0674 10.4355 52.2489C10.5107 52.4304 10.6307 52.5899 10.7844 52.7123C10.938 52.8348 11.1202 52.9162 11.314 52.9489L14.7382 53.509L13.2981 56.6612C13.2186 56.8423 13.1858 57.0404 13.2025 57.2374C13.2193 57.4345 13.2852 57.6242 13.3941 57.7893C13.5045 57.9535 13.6551 58.0868 13.8315 58.1764C14.008 58.266 14.2044 58.309 14.4022 58.3013L17.8664 58.1733L17.0664 61.5495C17.0195 61.7417 17.023 61.9427 17.0763 62.1331C17.1297 62.3236 17.2312 62.4971 17.371 62.637C17.5109 62.7768 17.6844 62.8783 17.8749 62.9317C18.0653 62.985 18.2663 62.9885 18.4585 62.9416L21.8347 62.1416L21.7067 65.6058C21.699 65.8034 21.7423 65.9996 21.8323 66.1756C21.9224 66.3516 22.0563 66.5014 22.221 66.6107C22.3858 66.72 22.5759 66.7851 22.773 66.7997C22.9702 66.8142 23.1678 66.7778 23.3468 66.6939L26.499 65.2618L27.0591 68.678C27.0842 68.88 27.1617 69.0718 27.2837 69.2346C27.4058 69.3974 27.5683 69.5254 27.7551 69.6061C27.9378 69.6814 28.1368 69.7084 28.333 69.6846C28.5291 69.6608 28.7158 69.5869 28.8752 69.4701L31.6914 67.454L32.8995 70.6542C32.9708 70.8383 33.0874 71.0015 33.2384 71.1288C33.3894 71.256 33.57 71.3432 33.7636 71.3822C33.9555 71.42 34.154 71.4082 34.3401 71.348C34.5263 71.2878 34.6941 71.1812 34.8276 71.0382L37.2278 68.502L39.0519 71.4542C39.1562 71.6212 39.3012 71.7589 39.4734 71.8544C39.6455 71.9499 39.8391 72 40.036 72C40.2329 72 40.4265 71.9499 40.5986 71.8544C40.7708 71.7589 40.9158 71.6212 41.0201 71.4542L42.8442 68.502L45.2444 71.0382C45.3796 71.1812 45.5488 71.2878 45.7362 71.3479C45.9237 71.4081 46.1232 71.4199 46.3165 71.3822C46.5094 71.3441 46.6894 71.2571 46.8393 71.1297C46.9891 71.0022 47.1038 70.8385 47.1725 70.6542L48.3886 67.454L51.2048 69.4701C51.3642 69.5869 51.5509 69.6608 51.747 69.6846C51.9432 69.7084 52.1422 69.6814 52.3249 69.6061C52.5065 69.5289 52.6655 69.407 52.7872 69.2517C52.909 69.0964 52.9894 68.9128 53.0209 68.718L53.581 65.3018L56.7332 66.7339C56.9104 66.8088 57.1036 66.8381 57.2951 66.8191C57.4866 66.8001 57.6703 66.7335 57.8294 66.6253C57.9885 66.5171 58.118 66.3708 58.206 66.1997C58.294 66.0286 58.3378 65.8382 58.3333 65.6458L58.2053 62.1816L61.5815 62.9816C61.7737 63.0285 61.9747 63.025 62.1651 62.9717C62.3556 62.9183 62.5291 62.8168 62.669 62.677C62.8088 62.5371 62.9103 62.3636 62.9637 62.1731C63.017 61.9827 63.0205 61.7817 62.9736 61.5895L62.1736 58.2133L65.6378 58.3413C65.8302 58.3458 66.0206 58.302 66.1917 58.214C66.3628 58.126 66.5091 57.9965 66.6173 57.8374C66.7255 57.6783 66.7921 57.4946 66.8111 57.3031C66.8301 57.1116 66.8008 56.9184 66.7259 56.7412L65.2938 53.589L68.71 53.0289C68.9151 52.9913 69.1063 52.8995 69.2638 52.763C69.4214 52.6266 69.5396 52.4504 69.6061 52.2529C69.6822 52.0703 69.7096 51.8712 69.6858 51.6749C69.6619 51.4786 69.5876 51.2918 69.4701 51.1328L67.454 48.3166L70.6542 47.1005C70.8385 47.0318 71.0022 46.9171 71.1297 46.7673C71.2571 46.6174 71.3441 46.4374 71.3822 46.2444C71.4199 46.0512 71.4081 45.8516 71.3479 45.6642C71.2878 45.4768 71.1812 45.3076 71.0382 45.1724L68.502 42.7722L71.4542 40.9481C71.6212 40.8438 71.7589 40.6988 71.8544 40.5266C71.9499 40.3545 72 40.1609 72 39.964C72 39.7671 71.9499 39.5735 71.8544 39.4014C71.7589 39.2292 71.6212 39.0842 71.4542 38.9799L71.4622 39.0199ZM39.908 13.8261H40.004C40.5108 13.8335 40.9941 14.041 41.3485 14.4033C41.7029 14.7655 41.8998 15.2533 41.8961 15.7601C41.8924 16.2669 41.6885 16.7517 41.3288 17.1087C40.9691 17.4658 40.4828 17.6662 39.976 17.6662C39.4692 17.6662 38.9829 17.4658 38.6232 17.1087C38.2635 16.7517 38.0596 16.2669 38.0559 15.7601C38.0522 15.2533 38.249 14.7655 38.6035 14.4033C38.9579 14.041 39.4412 13.8335 39.948 13.8261H39.908ZM15.4823 32.8035C15.4823 32.3027 15.6812 31.8225 16.0353 31.4684C16.3894 31.1143 16.8696 30.9154 17.3704 30.9154H17.4264C17.7972 30.9264 18.1566 31.0464 18.4597 31.2604C18.7627 31.4745 18.996 31.7731 19.1304 32.1189C19.2647 32.4647 19.2942 32.8425 19.2152 33.205C19.1361 33.5675 18.952 33.8986 18.6858 34.1571C18.4197 34.4156 18.0833 34.59 17.7186 34.6584C17.354 34.7268 16.9772 34.6863 16.6355 34.5419C16.2937 34.3975 16.0021 34.1556 15.797 33.8464C15.5919 33.5373 15.4824 33.1745 15.4823 32.8035V32.8035ZM17.6024 46.1724C16.7791 43.2889 16.521 40.2733 16.8423 37.2918L20.9146 35.4837C21.3317 35.298 21.6584 34.9548 21.8233 34.5291C21.9882 34.1034 21.9779 33.6297 21.7947 33.2115L20.9546 31.3154H24.2509V46.1724H17.6024ZM25.907 61.3255C25.4264 61.2943 24.9758 61.0813 24.6465 60.7299C24.3172 60.3785 24.134 59.915 24.134 59.4334C24.134 58.9518 24.3172 58.4883 24.6465 58.1369C24.9758 57.7855 25.4264 57.5725 25.907 57.5412H25.963C26.4437 57.5788 26.892 57.7981 27.2167 58.1545C27.5414 58.5109 27.7182 58.9776 27.7111 59.4597C27.7039 59.9418 27.5134 60.403 27.1783 60.7496C26.8431 61.0962 26.3886 61.3022 25.907 61.3255V61.3255ZM53.909 61.4135C53.6502 61.4304 53.3906 61.3939 53.1465 61.3065C52.9023 61.219 52.6786 61.0824 52.4894 60.905C52.3001 60.7276 52.1492 60.5134 52.0461 60.2754C51.943 60.0374 51.8898 59.7808 51.8898 59.5214C51.8898 59.262 51.943 59.0054 52.0461 58.7674C52.1492 58.5294 52.3001 58.3151 52.4894 58.1378C52.6786 57.9604 52.9023 57.8238 53.1465 57.7363C53.3906 57.6489 53.6502 57.6124 53.909 57.6293H53.957C54.4376 57.666 54.8861 57.8845 55.2114 58.2401C55.5367 58.5958 55.7144 59.062 55.7082 59.5439C55.7021 60.0259 55.5127 60.4874 55.1785 60.8347C54.8443 61.182 54.3904 61.3889 53.909 61.4135V61.4135ZM56.5892 56.1011L52.5889 55.2371C52.1412 55.1422 51.6742 55.2287 51.2902 55.4777C50.9063 55.7266 50.6367 56.1177 50.5408 56.5652L49.6047 60.9895C46.5562 62.3711 43.2453 63.0785 39.8984 63.0633C36.5514 63.0481 33.2472 62.3107 30.2113 60.9015L29.2592 56.4772C29.2127 56.2543 29.1224 56.0428 28.9936 55.8551C28.8648 55.6674 28.6999 55.5071 28.5086 55.3835C28.3174 55.26 28.1035 55.1756 27.8794 55.1354C27.6553 55.0951 27.4254 55.0998 27.2031 55.1491L23.2908 55.9491C22.5669 55.1941 21.8934 54.3923 21.2747 53.549H40.292C40.5 53.549 40.644 53.549 40.644 53.3169V46.6445C40.644 46.4525 40.5 46.4125 40.292 46.4125H34.6916V42.1482H40.7081C41.2521 42.1482 43.6443 42.3082 44.4043 45.3484C44.6363 46.2844 45.2044 49.3487 45.5244 50.3167C45.8844 51.4128 47.3325 53.597 48.8846 53.597H58.7333C58.0753 54.4809 57.3561 55.3177 56.5812 56.1011H56.5892ZM34.7316 35.8597V31.4754H42.5802C42.9882 31.4754 45.4444 31.9474 45.4444 33.7876C45.4444 35.3077 43.5563 35.8597 42.0121 35.8597H34.7316ZM63.2057 41.5321H60.8055C60.5735 41.5321 60.4775 41.6841 60.4775 41.9161V43.0122C60.4775 45.5884 59.0214 46.1564 57.7413 46.2924C56.4612 46.4285 55.2051 45.7804 55.0131 45.0444C54.301 41.0441 53.1089 40.156 51.2208 38.6439C53.565 37.1558 56.0211 34.9636 56.0211 32.0354C56.0211 28.8352 53.845 26.8751 52.3729 25.899C50.8704 24.9468 49.1487 24.3959 47.3725 24.2989H22.6748C26.0875 20.4852 30.6628 17.9037 35.6917 16.9544L38.5959 20.0026C38.9087 20.3248 39.3356 20.5113 39.7845 20.5218C40.2335 20.5322 40.6686 20.3659 40.9961 20.0586L44.2603 16.9544C47.5785 17.5765 50.7214 18.9136 53.4708 20.8727C56.2201 22.8318 58.51 25.366 60.1814 28.2992L57.9493 33.3315C57.7661 33.7497 57.7558 34.2234 57.9207 34.6491C58.0856 35.0748 58.4123 35.418 58.8293 35.6037L63.1176 37.5078C63.262 38.8443 63.2915 40.1906 63.2057 41.5321V41.5321ZM62.4056 34.7956C61.925 34.7644 61.4744 34.5514 61.1451 34.2C60.8158 33.8486 60.6326 33.3851 60.6326 32.9035C60.6326 32.4219 60.8158 31.9584 61.1451 31.607C61.4744 31.2556 61.925 31.0426 62.4056 31.0114H62.4616C62.9423 31.049 63.3906 31.2682 63.7153 31.6246C64.04 31.981 64.2168 32.4477 64.2097 32.9298C64.2025 33.4119 64.012 33.8731 63.6769 34.2197C63.3417 34.5663 62.8872 34.7723 62.4056 34.7956V34.7956Z" fill="black"/>
</svg>
