<svg xmlns="http://www.w3.org/2000/svg" viewBox="0 0 80 80">
  <rect width="100%" height="100%" fill="#fff"/>
  <path d="m73.43 38.96-3.14-1.94 2.7-2.55a1.22 1.22 0 0 0 .1-1.69c-.14-.16-.32-.28-.51-.36l-3.4-1.28 2.14-3a1.22 1.22 0 0 0-.8-1.92l-3.63-.6 1.52-3.35a1.23 1.23 0 0 0-.09-1.2 1.22 1.22 0 0 0-1.11-.5l-3.68.13.85-3.59a1.22 1.22 0 0 0-1.48-1.48l-3.6.85.15-3.68a1.23 1.23 0 0 0-1.75-1.16l-3.35 1.53-.6-3.64a1.23 1.23 0 0 0-1.92-.8l-3 2.14-1.29-3.44a1.22 1.22 0 0 0-2.04-.4L42.95 9.7l-1.9-3.13a1.23 1.23 0 0 0-2.1 0l-1.93 3.14-2.55-2.7a1.22 1.22 0 0 0-1.1-.36 1.25 1.25 0 0 0-.91.77l-1.29 3.44-2.99-2.15a1.23 1.23 0 0 0-1.93.8l-.6 3.64-3.34-1.53a1.26 1.26 0 0 0-1.2.1 1.23 1.23 0 0 0-.55 1.07l.14 3.68-3.59-.85a1.22 1.22 0 0 0-1.48 1.48l.85 3.59-3.68-.14a1.22 1.22 0 0 0-1.26 1.13c-.02.21.01.42.1.62l1.53 3.35-3.64.59a1.23 1.23 0 0 0-.8 1.93l2.15 3-3.45 1.28a1.25 1.25 0 0 0-.74 1.53c.07.2.18.37.33.51l2.7 2.55-3.14 1.9a1.23 1.23 0 0 0 0 2.1l3.14 1.94-2.7 2.55a1.24 1.24 0 0 0-.36 1.1 1.22 1.22 0 0 0 .77.9l3.44 1.3-2.15 2.99a1.23 1.23 0 0 0 .8 1.93l3.64.6-1.53 3.34a1.26 1.26 0 0 0 .1 1.2 1.23 1.23 0 0 0 1.07.55l3.68-.14-.85 3.59a1.22 1.22 0 0 0 1.48 1.48l3.59-.85-.14 3.68a1.22 1.22 0 0 0 1.75 1.15l3.35-1.52.59 3.63a1.24 1.24 0 0 0 .74.99 1.22 1.22 0 0 0 1.19-.15l3-2.14 1.28 3.4a1.25 1.25 0 0 0 1.53.74c.2-.07.37-.18.51-.33l2.55-2.7L39 73.42a1.23 1.23 0 0 0 2.1 0l1.93-3.14 2.55 2.7a1.24 1.24 0 0 0 1.7.1c.16-.14.28-.31.35-.51l1.3-3.4 2.99 2.14a1.22 1.22 0 0 0 1.92-.8l.6-3.63 3.35 1.52a1.22 1.22 0 0 0 1.7-1.15l-.14-3.68 3.59.85a1.22 1.22 0 0 0 1.48-1.48l-.85-3.59 3.68.14a1.22 1.22 0 0 0 1.16-1.7l-1.53-3.35 3.63-.6a1.24 1.24 0 0 0 .96-.82 1.22 1.22 0 0 0-.15-1.2l-2.14-2.98 3.4-1.3a1.23 1.23 0 0 0 .4-2.04l-2.69-2.55L73.42 41a1.23 1.23 0 0 0 0-2.1v.05ZM39.9 12.19h.1a2.04 2.04 0 1 1-.06 0h-.04ZM13.95 32.35a2 2 0 0 1 2-2h.07a2 2 0 1 1-2.07 2Zm2.25 14.2a24.72 24.72 0 0 1-.8-9.43l4.32-1.92a1.84 1.84 0 0 0 .94-2.41l-.9-2.02h3.5v15.79H16.2Zm8.83 16.1a2.02 2.02 0 0 1 0-4.01h.06a2.01 2.01 0 0 1-.06 4.02Zm29.75.1a2.02 2.02 0 1 1 0-4.02h.05a2.01 2.01 0 0 1-.05 4.02Zm2.85-5.64-4.25-.92a1.84 1.84 0 0 0-2.18 1.41l-1 4.7a24.71 24.71 0 0 1-20.6-.1l-1.01-4.7a1.83 1.83 0 0 0-2.19-1.4l-4.15.85c-.77-.8-1.49-1.66-2.15-2.55h20.21c.22 0 .37 0 .37-.25v-7.09c0-.2-.15-.25-.37-.25h-5.95v-4.53h6.4c.57 0 3.11.17 3.92 3.4.25 1 .85 4.25 1.19 5.28.38 1.17 1.92 3.49 3.57 3.49H59.9c-.7.94-1.46 1.82-2.28 2.66ZM34.4 35.6v-4.67h8.34c.43 0 3.04.5 3.04 2.46 0 1.61-2 2.2-3.64 2.2H34.4Zm30.26 6.02H62.1c-.25 0-.35.16-.35.4v1.17c0 2.74-1.55 3.34-2.91 3.49-1.36.14-2.7-.55-2.9-1.33-.76-4.25-2.02-5.2-4.03-6.8 2.5-1.58 5.1-3.91 5.1-7.02 0-3.4-2.31-5.49-3.87-6.52a11.05 11.05 0 0 0-5.32-1.7H21.6a24.71 24.71 0 0 1 13.83-7.8l3.09 3.23a1.82 1.82 0 0 0 2.55.06l3.47-3.3a24.71 24.71 0 0 1 16.91 12.06l-2.37 5.34a1.84 1.84 0 0 0 .94 2.42l4.55 2.02c.16 1.42.19 2.85.1 4.28Zm-.85-7.16a2.01 2.01 0 0 1 0-4.02h.06a2.01 2.01 0 0 1-.06 4.02Z"/>
</svg>