<svg xmlns="http://www.w3.org/2000/svg" viewBox="0 0 80 80">
  <rect width="100%" height="100%" fill="#fff"/>
  <g filter="url(#a)" opacity=".53">
    <path d="M70.5298 42.4567C70.5298 46.3364 69.7363 50.1781 68.1944 53.7624C66.6526 57.3468 64.3927 60.6036 61.5438 63.3469C58.6949 66.0903 55.3127 68.2664 51.5905 69.7511C47.8682 71.2358 43.8787 71.9999 39.8497 71.9999C35.8207 71.9999 31.8312 71.2358 28.1089 69.7511C24.3866 68.2664 21.0045 66.0903 18.1555 63.3469C15.3066 60.6036 13.0467 57.3468 11.5049 53.7624C9.96311 50.1781 9.16954 46.3364 9.16954 42.4567C9.16954 34.6214 12.4019 27.107 18.1555 21.5666C23.9092 16.0261 31.7128 12.9136 39.8497 12.9136C43.8787 12.9136 47.8682 13.6777 51.5905 15.1624C55.3127 16.6471 58.6949 18.8232 61.5438 21.5666C64.3927 24.3099 66.6526 27.5667 68.1944 31.1511C69.7363 34.7354 70.5298 38.5771 70.5298 42.4567Z"/>
  </g>
  <path fill="url(#b)" stroke="#CDCDCD" stroke-linecap="round" stroke-linejoin="round" stroke-width=".352" d="M71.6963 39.8482C71.6963 44.0305 70.8725 48.1719 69.272 52.0359C67.6715 55.8999 65.3256 59.4108 62.3682 62.3682C59.4108 65.3256 55.8999 67.6715 52.0359 69.272C48.1719 70.8726 44.0305 71.6963 39.8481 71.6963C31.4015 71.6963 23.3008 68.3409 17.3281 62.3682C11.3554 56.3955 8 48.2948 8 39.8482C8 31.4015 11.3554 23.3008 17.3281 17.3281C23.3008 11.3554 31.4015 8 39.8481 8C44.0305 8 48.1719 8.82378 52.0359 10.4243C55.8999 12.0248 59.4108 14.3707 62.3682 17.3281C65.3256 20.2855 67.6715 23.7964 69.272 27.6604C70.8725 31.5244 71.6963 35.6658 71.6963 39.8482Z"/>
  <path fill="url(#c)" d="M69.2007 39.8482C69.2007 47.633 66.1082 55.0989 60.6035 60.6036C55.0989 66.1082 47.6329 69.2007 39.8481 69.2007C32.0634 69.2007 24.5974 66.1082 19.0927 60.6036C13.5881 55.0989 10.4956 47.633 10.4956 39.8482C10.4956 32.0634 13.5881 24.5974 19.0927 19.0928C24.5974 13.5881 32.0634 10.4956 39.8481 10.4956C47.6329 10.4956 55.0989 13.5881 60.6035 19.0928C66.1082 24.5974 69.2007 32.0634 69.2007 39.8482Z"/>
  <path fill="#F4F2F3" d="M39.8481 12.0264C39.6111 12.0264 39.4202 12.2172 39.4202 12.4543V17.3905C39.4202 17.6276 39.6111 17.8185 39.8481 17.8185C40.0852 17.8185 40.2761 17.6276 40.2761 17.3905V12.4543C40.2761 12.2172 40.0852 12.0264 39.8481 12.0264ZM37.0485 12.2033C37.0201 12.2003 36.9909 12.2003 36.9615 12.2037C36.7257 12.2283 36.5556 12.4379 36.5803 12.6737L36.796 14.7388C36.8206 14.9746 37.0302 15.1447 37.266 15.12C37.5018 15.0954 37.6719 14.8858 37.6472 14.65L37.4317 12.5849C37.4101 12.3786 37.2469 12.2226 37.0485 12.2033ZM42.6674 12.2053C42.4689 12.2245 42.3056 12.3804 42.2839 12.5867L42.0667 14.6517C42.0419 14.8875 42.212 15.0973 42.4478 15.1221C42.6835 15.1469 42.8932 14.977 42.918 14.7412L43.1352 12.6761C43.16 12.4403 42.99 12.2307 42.7542 12.2059C42.7247 12.2028 42.6957 12.2028 42.6674 12.2053ZM34.1726 12.6204C34.1441 12.6206 34.1151 12.6234 34.0861 12.6295C33.8542 12.6786 33.707 12.9049 33.7561 13.1369L34.7784 17.966C34.8275 18.1979 35.0538 18.3451 35.2857 18.296C35.5177 18.2469 35.6649 18.0208 35.6158 17.7889L34.5935 12.9596C34.5505 12.7566 34.3719 12.6188 34.1726 12.6204ZM45.5431 12.6244C45.3437 12.6224 45.1651 12.7606 45.122 12.9635L44.0962 17.7921C44.0469 18.024 44.194 18.2504 44.4259 18.2996C44.6578 18.3489 44.8841 18.2018 44.9334 17.9699L45.9592 13.1414C46.0085 12.9095 45.8614 12.6831 45.6295 12.6338C45.6006 12.6277 45.5716 12.6244 45.5431 12.6244ZM31.4279 13.3942C31.3725 13.3892 31.3153 13.3953 31.259 13.414C31.0335 13.4873 30.9109 13.7276 30.9841 13.9531L31.6258 15.9279C31.6991 16.1534 31.9396 16.276 32.1651 16.2027C32.3906 16.1294 32.513 15.8889 32.4397 15.6634L31.7981 13.6886C31.7432 13.5195 31.5942 13.4084 31.4279 13.3942ZM48.2722 13.3953C48.106 13.4094 47.957 13.5206 47.9021 13.6897L47.26 15.6643C47.1867 15.8897 47.3093 16.1303 47.5347 16.2036C47.7602 16.2769 48.0007 16.1544 48.074 15.9289L48.716 13.9542C48.7893 13.7287 48.6668 13.4881 48.4414 13.4148C48.385 13.3965 48.3276 13.3906 48.2722 13.3953ZM28.7138 14.3874C28.6582 14.3885 28.6019 14.4007 28.5478 14.4248C28.3312 14.521 28.2343 14.7729 28.3306 14.9896L30.3355 19.5003C30.4317 19.7169 30.6836 19.8138 30.9003 19.7175C31.1168 19.6212 31.214 19.3693 31.1177 19.1527L29.1126 14.642C29.0404 14.4795 28.8806 14.3842 28.7138 14.3874ZM51.017 14.4026C50.8502 14.3995 50.6903 14.4942 50.6179 14.6566L48.6069 19.1645C48.5103 19.381 48.6068 19.6331 48.8233 19.7297C49.0399 19.8262 49.2919 19.7297 49.3885 19.5132L51.3995 15.0053C51.4961 14.7887 51.3995 14.5367 51.183 14.4401C51.1289 14.416 51.0726 14.4038 51.017 14.4026ZM26.1945 15.7204C26.1124 15.7143 26.0277 15.7326 25.9507 15.7771C25.7454 15.8957 25.6756 16.1564 25.7941 16.3617L26.8323 18.1599C26.9509 18.3653 27.2115 18.4351 27.4169 18.3166C27.6222 18.198 27.692 17.9373 27.5735 17.732L26.5353 15.9338C26.4612 15.8054 26.3315 15.73 26.1945 15.7204ZM53.5017 15.7204C53.3648 15.7296 53.2352 15.8054 53.1611 15.9338L52.1228 17.732C52.0042 17.9373 52.0743 18.198 52.2796 18.3165C52.4849 18.4351 52.7456 18.3652 52.8641 18.1599L53.9023 16.3617C54.0209 16.1564 53.951 15.8957 53.7457 15.7771C53.6687 15.7327 53.5839 15.7147 53.5017 15.7204ZM23.7482 17.2462C23.6659 17.2493 23.5834 17.2757 23.5114 17.3278C23.3195 17.4671 23.2771 17.7336 23.4164 17.9255L26.3148 21.9211C26.4541 22.113 26.7208 22.1554 26.9127 22.0162C27.1046 21.877 27.147 21.6105 27.0078 21.4186L24.1091 17.423C24.0221 17.3031 23.8854 17.2415 23.7482 17.2462ZM55.9787 17.268C55.8415 17.2629 55.7048 17.3244 55.6176 17.4442L52.7136 21.4358C52.5741 21.6276 52.6162 21.8942 52.808 22.0337C52.9997 22.1732 53.2664 22.1312 53.4059 21.9396L56.3097 17.9479C56.4491 17.7562 56.407 17.4895 56.2153 17.35C56.1434 17.2978 56.061 17.2709 55.9787 17.268ZM21.5616 19.08C21.4523 19.0739 21.3409 19.1104 21.2528 19.1897C21.0766 19.3484 21.0624 19.6179 21.2211 19.7941L22.6103 21.3374C22.769 21.5136 23.0385 21.5278 23.2147 21.3691C23.3909 21.2105 23.4051 20.9408 23.2464 20.7646L21.8573 19.2215C21.778 19.1333 21.6708 19.0858 21.5616 19.08ZM58.1378 19.0831C58.0286 19.0892 57.9214 19.1365 57.8421 19.2245L56.4528 20.7675C56.2942 20.9437 56.3082 21.2134 56.4844 21.372C56.6606 21.5307 56.9301 21.5165 57.0888 21.3403L58.4783 19.7974C58.6369 19.6212 58.6227 19.3515 58.4465 19.1928C58.3584 19.1135 58.2471 19.0774 58.1378 19.0831ZM19.4658 21.0931C19.3566 21.0992 19.2496 21.1465 19.1703 21.2346C19.0117 21.4108 19.0259 21.6803 19.202 21.8389L22.8707 25.1415C23.0469 25.3002 23.3164 25.286 23.475 25.1098C23.6336 24.9336 23.6196 24.6641 23.4434 24.5055L19.7746 21.2029C19.6864 21.1236 19.5751 21.0874 19.4658 21.0931ZM60.2437 21.1076C60.1345 21.1015 60.0229 21.1379 59.9347 21.2171L56.2639 24.5171C56.0876 24.6756 56.0731 24.9451 56.2315 25.1214C56.39 25.2977 56.6597 25.3121 56.8361 25.1535L60.5071 21.8536C60.6834 21.6951 60.6977 21.4256 60.5392 21.2492C60.4599 21.1611 60.353 21.1134 60.2437 21.1076ZM17.723 23.3341C17.5858 23.329 17.449 23.3908 17.3619 23.5107C17.2226 23.7025 17.2648 23.969 17.4567 24.1084L19.1365 25.3288C19.3283 25.4682 19.5948 25.4261 19.7342 25.2343C19.8736 25.0425 19.8314 24.7758 19.6396 24.6364L17.9598 23.4159C17.8879 23.3637 17.8053 23.3371 17.723 23.3341ZM61.9849 23.3497C61.9025 23.3527 61.8201 23.379 61.7481 23.4313L60.0675 24.6507C59.8756 24.7899 59.8332 25.0566 59.9724 25.2486C60.1116 25.4405 60.3782 25.4827 60.5701 25.3435L62.2508 24.1241C62.4427 23.9849 62.485 23.7184 62.3458 23.5265C62.2588 23.4065 62.1221 23.345 61.9849 23.3497ZM16.0944 25.7245C15.9574 25.7337 15.8279 25.8095 15.7538 25.9378C15.6352 26.1432 15.7051 26.4039 15.9104 26.5224L20.1852 28.9905C20.3905 29.1091 20.6512 29.0392 20.7698 28.8339C20.8883 28.6286 20.8185 28.3679 20.6132 28.2493L16.3383 25.7812C16.2614 25.7368 16.1765 25.7188 16.0944 25.7245ZM63.6019 25.7245C63.5198 25.7184 63.4349 25.7367 63.3579 25.7812L59.0831 28.2494C58.8778 28.3679 58.8079 28.6286 58.9265 28.8339C59.045 29.0393 59.3057 29.1091 59.511 28.9906L63.7861 26.5224C63.9914 26.4039 64.0612 26.1432 63.9427 25.9379C63.8686 25.8095 63.7388 25.7341 63.6019 25.7245ZM14.863 28.2724C14.6962 28.2683 14.5363 28.3638 14.4638 28.5262C14.3673 28.7427 14.4638 28.9948 14.6803 29.0914L16.5768 29.9373C16.7933 30.0339 17.0454 29.9373 17.142 29.7208C17.2385 29.5043 17.1418 29.2522 16.9253 29.1556L15.029 28.3097C14.9749 28.2855 14.9186 28.2735 14.863 28.2724ZM64.8416 28.29C64.786 28.291 64.7295 28.3032 64.6754 28.3273L62.7785 29.1717C62.5619 29.2682 62.4651 29.5201 62.5615 29.7367C62.658 29.9533 62.9101 30.0502 63.1267 29.9538L65.0235 29.1091C65.2401 29.0127 65.3368 28.7607 65.2404 28.5441C65.1681 28.3817 65.0084 28.2867 64.8416 28.29ZM13.7655 30.9354C13.5993 30.9494 13.4503 31.0604 13.3952 31.2295C13.3218 31.4549 13.444 31.6955 13.6695 31.769L18.3628 33.2983C18.5882 33.3717 18.8289 33.2494 18.9023 33.024C18.9757 32.7986 18.8535 32.5579 18.628 32.4845L13.9347 30.9552C13.8784 30.9368 13.8209 30.9308 13.7655 30.9354ZM65.937 30.9537C65.8816 30.9486 65.8244 30.9547 65.768 30.9735L61.0736 32.4994C60.8481 32.5727 60.7257 32.8133 60.7989 33.0387C60.8722 33.2642 61.1128 33.3867 61.3383 33.3134L66.0325 31.7874C66.258 31.7141 66.3807 31.4736 66.3074 31.2481C66.2524 31.079 66.1032 30.9678 65.937 30.9537ZM13.0818 33.7309C12.8824 33.7288 12.7036 33.8672 12.6605 34.0701C12.6111 34.302 12.7583 34.5284 12.9901 34.5777L15.0213 35.0093C15.2532 35.0586 15.4795 34.9115 15.5288 34.6796C15.5781 34.4477 15.431 34.2214 15.1991 34.1721L13.1682 33.7405C13.1392 33.7344 13.1102 33.7309 13.0818 33.7309ZM66.6154 33.7349C66.587 33.7352 66.5582 33.739 66.5292 33.7441L64.4981 34.1755C64.2662 34.2248 64.1192 34.451 64.1684 34.6829C64.2177 34.9148 64.444 35.062 64.676 35.0128L66.7069 34.5813C66.9388 34.532 67.086 34.3057 67.0368 34.0738C66.9937 33.8708 66.8148 33.7332 66.6154 33.7349ZM12.5642 36.5427C12.3658 36.5617 12.2024 36.7174 12.1806 36.9237C12.1557 37.1595 12.3253 37.3694 12.5611 37.3943L17.47 37.9133C17.7058 37.9382 17.9157 37.7685 17.9406 37.5327C17.9655 37.2969 17.7957 37.087 17.5599 37.0621L12.651 36.5431C12.6216 36.54 12.5926 36.54 12.5642 36.5427ZM67.1367 36.5796C67.1083 36.5766 67.0791 36.5766 67.0496 36.58L62.1402 37.0923C61.9044 37.1169 61.7344 37.3266 61.759 37.5624C61.7836 37.7982 61.9932 37.9682 62.229 37.9436L67.1385 37.4312C67.3743 37.4066 67.5443 37.197 67.5197 36.9612C67.4981 36.7548 67.3351 36.5989 67.1367 36.5796ZM12.4811 39.421C12.244 39.421 12.0532 39.6118 12.0532 39.8489C12.0532 40.086 12.244 40.2769 12.4811 40.2769H14.5575C14.7946 40.2769 14.9856 40.086 14.9856 39.8489C14.9856 39.6118 14.7946 39.421 14.5575 39.421H12.4811ZM65.1388 39.421C64.9017 39.421 64.7108 39.6118 64.7108 39.8489C64.7108 40.086 64.9017 40.2769 65.1388 40.2769H67.2152C67.4522 40.2769 67.6431 40.086 67.6431 39.8489C67.6431 39.6118 67.4522 39.421 67.2152 39.421H65.1388ZM17.5542 41.7539C17.5258 41.7509 17.4969 41.7509 17.4674 41.7543L12.5577 42.2666C12.3219 42.2912 12.1519 42.5009 12.1765 42.7367C12.2011 42.9725 12.4108 43.1425 12.6466 43.1179L17.5562 42.6055C17.792 42.5809 17.962 42.3713 17.9374 42.1355C17.9159 41.9291 17.7526 41.7732 17.5542 41.7539ZM62.1395 41.7842C61.941 41.8032 61.7777 41.9589 61.7559 42.1652C61.7309 42.401 61.9006 42.6109 62.1363 42.6359L67.0452 43.1549C67.281 43.1798 67.4909 43.01 67.5158 42.7742C67.5407 42.5384 67.371 42.3285 67.1352 42.3036L62.2265 41.7846C62.197 41.7815 62.1678 41.7815 62.1395 41.7842ZM15.107 44.6753C15.0785 44.6755 15.0495 44.6783 15.0205 44.6844L12.9894 45.1159C12.7575 45.1652 12.6105 45.3915 12.6597 45.6234C12.709 45.8554 12.9354 46.0024 13.1673 45.9531L15.1984 45.5218C15.4303 45.4725 15.5773 45.2462 15.5281 45.0143C15.485 44.8114 15.3063 44.6736 15.107 44.6753ZM64.5887 44.6793C64.3894 44.6773 64.2108 44.8155 64.1676 45.0184C64.1183 45.2504 64.2652 45.4767 64.4971 45.526L66.5283 45.9576C66.7602 46.007 66.9865 45.86 67.0358 45.6281C67.0851 45.3962 66.938 45.1697 66.7061 45.1204L64.6752 44.6888C64.6462 44.6827 64.6172 44.6793 64.5887 44.6793ZM18.5272 46.3649C18.4718 46.3598 18.4146 46.3659 18.3582 46.3846L13.6637 47.9106C13.4383 47.9839 13.3158 48.2244 13.3891 48.4499C13.4624 48.6754 13.7029 48.7978 13.9284 48.7246L18.6227 47.1986C18.8482 47.1253 18.9708 46.8847 18.8975 46.6593C18.8425 46.4902 18.6934 46.379 18.5272 46.3649ZM61.1645 46.38C60.9982 46.394 60.8492 46.505 60.7941 46.6741C60.7207 46.8995 60.8429 47.1401 61.0684 47.2136L65.7618 48.7429C65.9872 48.8163 66.2278 48.694 66.3013 48.4686C66.3748 48.2432 66.2525 48.0026 66.027 47.9291L61.3336 46.3998C61.2773 46.3814 61.2199 46.3754 61.1645 46.38ZM16.7358 49.7072C16.6802 49.7082 16.6239 49.7202 16.5698 49.7443L14.6727 50.5889C14.4561 50.6853 14.3595 50.9373 14.4559 51.1539C14.5524 51.3705 14.8043 51.4672 15.0209 51.3707L16.9179 50.5263C17.1345 50.4299 17.2312 50.1779 17.1348 49.9613C17.0625 49.7989 16.9026 49.7039 16.7358 49.7072ZM62.9536 49.7235C62.7869 49.7194 62.6269 49.8149 62.5545 49.9772C62.4579 50.1938 62.5544 50.4458 62.771 50.5424L64.6672 51.3883C64.8838 51.4849 65.1359 51.3884 65.2324 51.1719C65.329 50.9553 65.2325 50.7033 65.016 50.6067L63.1197 49.7608C63.0656 49.7366 63.0092 49.7246 62.9536 49.7235ZM20.4292 50.6508C20.3471 50.6447 20.2622 50.663 20.1852 50.7076L15.9104 53.1757C15.7051 53.2942 15.6352 53.5549 15.7538 53.7602C15.8723 53.9656 16.133 54.0354 16.3383 53.9169L20.6132 51.4489C20.8185 51.3304 20.8883 51.0695 20.7698 50.8642C20.6957 50.7359 20.5661 50.6604 20.4292 50.6508ZM59.2672 50.6508C59.1303 50.66 59.0006 50.7358 58.9265 50.8641C58.8079 51.0695 58.8778 51.3304 59.0831 51.4489L63.3579 53.9168C63.5633 54.0354 63.8241 53.9655 63.9427 53.7602C64.0612 53.5549 63.9914 53.2942 63.7861 53.1756L59.511 50.7075C59.4341 50.6631 59.3494 50.6451 59.2672 50.6508ZM19.3629 54.2727C19.2806 54.2758 19.1981 54.3023 19.1262 54.3546L17.4456 55.574C17.2537 55.7132 17.2113 55.9797 17.3504 56.1716C17.4897 56.3635 17.7562 56.406 17.9481 56.2667L19.6289 55.0473C19.8208 54.9081 19.8632 54.6416 19.724 54.4497C19.637 54.3297 19.5001 54.268 19.3629 54.2727ZM60.3232 54.2872C60.186 54.2821 60.0492 54.3439 59.9621 54.4637C59.8227 54.6555 59.865 54.9223 60.0568 55.0616L61.7367 56.2821C61.9285 56.4215 62.195 56.3792 62.3343 56.1873C62.4737 55.9955 62.4315 55.729 62.2398 55.5897L60.56 54.3692C60.4881 54.3169 60.4055 54.2901 60.3232 54.2872ZM23.1692 54.4349C23.06 54.4288 22.9485 54.4652 22.8604 54.5445L19.1893 57.8445C19.013 58.0029 18.9987 58.2725 19.1572 58.4488C19.3157 58.6251 19.5852 58.6394 19.7615 58.4809L23.4326 55.1809C23.6089 55.0224 23.6232 54.7529 23.4647 54.5766C23.3855 54.4884 23.2784 54.4407 23.1692 54.4349ZM56.5169 54.4467C56.4077 54.4528 56.3005 54.5001 56.2212 54.5882C56.0626 54.7644 56.0768 55.0339 56.2529 55.1925L59.9216 58.4951C60.0978 58.6538 60.3675 58.6396 60.5261 58.4634C60.6847 58.2872 60.6705 58.0177 60.4944 57.8591L56.8255 54.5565C56.7374 54.4772 56.6262 54.441 56.5169 54.4467ZM26.6519 57.5818C26.5147 57.5767 26.3778 57.6381 26.2906 57.758L23.3868 61.7497C23.2473 61.9414 23.2893 62.2081 23.4809 62.3475C23.6726 62.487 23.9393 62.445 24.0788 62.2533L26.9826 58.2616C27.1221 58.0699 27.0801 57.8032 26.8885 57.6637C26.8166 57.6115 26.7342 57.5846 26.6519 57.5818ZM53.0206 57.5997C52.9382 57.6027 52.8558 57.6291 52.7838 57.6813C52.5919 57.8205 52.5495 58.0871 52.6886 58.279L55.5871 62.2746C55.7263 62.4665 55.9929 62.5089 56.1848 62.3697C56.3767 62.2305 56.4191 61.964 56.2799 61.7721L53.3815 57.7765C53.2945 57.6565 53.1578 57.595 53.0206 57.5997ZM22.9032 58.2162C22.794 58.2223 22.6869 58.2696 22.6075 58.3577L21.2182 59.9006C21.0596 60.0768 21.0736 60.3465 21.2499 60.5052C21.426 60.6638 21.6955 60.6496 21.8542 60.4733L23.2437 58.9304C23.4023 58.7542 23.3881 58.4845 23.2119 58.3259C23.1238 58.2466 23.0125 58.2105 22.9032 58.2162ZM56.7904 58.2182C56.6812 58.2121 56.5699 58.2486 56.4818 58.328C56.3056 58.4866 56.2914 58.7561 56.45 58.9323L57.8391 60.4756C57.9977 60.6518 58.2672 60.666 58.4435 60.5073C58.6197 60.3487 58.6338 60.079 58.4752 59.9028L57.0861 58.3597C57.0068 58.2715 56.8997 58.224 56.7904 58.2182ZM30.7069 59.93C30.5401 59.9259 30.3804 60.0214 30.308 60.1838L28.2968 64.6917C28.2002 64.9082 28.2967 65.1603 28.5132 65.2569C28.7298 65.3535 28.9818 65.2569 29.0784 65.0404L31.0896 60.5325C31.1862 60.316 31.0896 60.0639 30.8731 59.9673C30.819 59.9431 30.7625 59.9311 30.7069 59.93ZM48.9622 59.9424C48.9066 59.9434 48.8502 59.9554 48.796 59.9795C48.5795 60.0758 48.4825 60.3277 48.5788 60.5443L50.5837 65.055C50.68 65.2715 50.932 65.3685 51.1487 65.2722C51.3652 65.1759 51.4622 64.9241 51.3659 64.7074L49.361 60.1967C49.2888 60.0343 49.129 59.9392 48.9622 59.9424ZM27.1729 61.3238C27.036 61.3329 26.9064 61.4088 26.8323 61.5371L25.7941 63.3353C25.6756 63.5406 25.7454 63.8013 25.9507 63.9199C26.1561 64.0384 26.4168 63.9686 26.5353 63.7633L27.5735 61.965C27.692 61.7597 27.6222 61.499 27.4169 61.3805C27.3399 61.336 27.2551 61.3181 27.1729 61.3238ZM52.5234 61.3238C52.4412 61.3177 52.3566 61.3361 52.2796 61.3805C52.0743 61.499 52.0044 61.7597 52.123 61.9651L53.1611 63.7633C53.2797 63.9686 53.5404 64.0384 53.7457 63.9199C53.951 63.8014 54.0209 63.5407 53.9023 63.3353L52.8641 61.5371C52.79 61.4088 52.6603 61.3333 52.5234 61.3238ZM35.1841 61.3882C34.9848 61.3862 34.8061 61.5244 34.763 61.7273L33.7372 66.5559C33.6879 66.7878 33.835 67.0142 34.0669 67.0634C34.2988 67.1127 34.5252 66.9656 34.5745 66.7337L35.6003 61.9052C35.6496 61.6733 35.5025 61.4469 35.2706 61.3976C35.2416 61.3915 35.2126 61.3882 35.1841 61.3882ZM44.497 61.3913C44.4685 61.3915 44.4397 61.3943 44.4108 61.4004C44.1788 61.4495 44.0316 61.6757 44.0807 61.9076L45.103 66.7369C45.1521 66.9688 45.3784 67.1161 45.6104 67.067C45.8423 67.0178 45.9895 66.7915 45.9404 66.5596L44.9179 61.7306C44.8749 61.5277 44.6963 61.3897 44.497 61.3913ZM39.8481 61.8783C39.6111 61.8783 39.4202 62.0692 39.4202 62.3063V67.2425C39.4202 67.4796 39.6111 67.6704 39.8481 67.6704C40.0852 67.6704 40.2761 67.4796 40.2761 67.2425V62.3063C40.2761 62.0692 40.0852 61.8783 39.8481 61.8783ZM31.9926 63.4734C31.8264 63.4875 31.6772 63.5987 31.6223 63.7678L30.9804 65.7426C30.9071 65.9681 31.0296 66.2086 31.2551 66.2819C31.4806 66.3552 31.7211 66.2325 31.7944 66.0071L32.4362 64.0325C32.5095 63.807 32.387 63.5664 32.1616 63.4931C32.1052 63.4748 32.048 63.4687 31.9926 63.4734ZM47.7004 63.4744C47.645 63.4693 47.5877 63.4754 47.5314 63.494C47.3059 63.5673 47.1833 63.8078 47.2565 64.0333L47.8982 66.0081C47.9715 66.2336 48.212 66.356 48.4375 66.2828C48.663 66.2095 48.7856 65.9691 48.7123 65.7436L48.0705 63.7688C48.0155 63.5997 47.8666 63.4885 47.7004 63.4744ZM37.1619 64.5743C36.9634 64.5934 36.8 64.7492 36.7783 64.9555L36.5612 67.0206C36.5364 67.2564 36.7063 67.466 36.9421 67.4908C37.1779 67.5156 37.3877 67.3458 37.4125 67.11L37.6295 65.0451C37.6544 64.8093 37.4845 64.5994 37.2487 64.5746C37.2192 64.5716 37.1903 64.5716 37.1619 64.5743ZM42.5172 64.5763C42.4888 64.5732 42.4596 64.5732 42.4302 64.5767C42.1944 64.6013 42.0243 64.8109 42.049 65.0467L42.2647 67.112C42.2893 67.3478 42.4989 67.5177 42.7347 67.493C42.9705 67.4684 43.1406 67.2588 43.116 67.023L42.9004 64.9579C42.8789 64.7515 42.7156 64.5956 42.5172 64.5763Z"/>
  <g filter="url(#d)" opacity=".409">
    <path d="M59.9052 22.7302L36.4915 36.3337L21.6877 59.6391L43.3445 43.5981L59.9052 22.7302Z"/>
  </g>
  <path fill="#FF5150" d="M43.2037 43.3622L36.4926 36.3341L60.2996 20.3191L43.2037 43.3622Z"/>
  <path fill="#F1F1F1" d="M43.2037 43.3624L36.4926 36.3342L19.3967 59.3773L43.2037 43.3624Z"/>
  <path d="M19.3967 59.3772L43.2037 43.3622L60.2996 20.3191L19.3967 59.3772Z" opacity=".243"/>
  <defs>
    <filter id="a" width="67.36" height="65.086" x="6.17" y="9.914" color-interpolation-filters="sRGB" filterUnits="userSpaceOnUse">
      <feFlood flood-opacity="0" result="BackgroundImageFix"/>
      <feBlend in="SourceGraphic" in2="BackgroundImageFix" result="shape"/>
      <feGaussianBlur result="effect1_foregroundBlur_312_306" stdDeviation="1.5"/>
    </filter>
    <filter id="d" width="43.307" height="41.999" x="19.143" y="20.185" color-interpolation-filters="sRGB" filterUnits="userSpaceOnUse">
      <feFlood flood-opacity="0" result="BackgroundImageFix"/>
      <feBlend in="SourceGraphic" in2="BackgroundImageFix" result="shape"/>
      <feGaussianBlur result="effect1_foregroundBlur_312_306" stdDeviation="1.272"/>
    </filter>
    <radialGradient id="c" cx="0" cy="0" r="1" gradientTransform="matrix(31.8481 0 0 31.848 39.98 35.568)" gradientUnits="userSpaceOnUse">
      <stop stop-color="#06C2E7"/>
      <stop offset=".25" stop-color="#0DB8EC"/>
      <stop offset=".5" stop-color="#12AEF1"/>
      <stop offset=".75" stop-color="#1F86F9"/>
      <stop offset="1" stop-color="#107DDD"/>
    </radialGradient>
    <linearGradient id="b" x1="39.847" x2="39.847" y1="71.696" y2="8" gradientUnits="userSpaceOnUse">
      <stop stop-color="#BDBDBD"/>
      <stop offset="1" stop-color="#fff"/>
    </linearGradient>
  </defs>
</svg>
