<svg xmlns="http://www.w3.org/2000/svg" viewBox="0 0 80 80">
  <rect width="100%" height="100%"/>
  <path fill="#fff" d="M4 42.066V41.2768H6.76506V42.2807C6.76292 42.4125 6.78906 42.5434 6.84171 42.6643C6.89436 42.7852 6.97231 42.8935 7.07031 42.9818C7.16831 43.0701 7.28408 43.1363 7.40984 43.1761C7.53559 43.2159 7.66842 43.2283 7.79937 43.2125C8.02307 43.2428 8.25 43.188 8.43517 43.0589C8.62034 42.9298 8.75022 42.7357 8.79905 42.5153C8.87308 42.2628 8.86679 41.9936 8.78105 41.7448C8.2459 40.399 4.58915 39.7897 4.12461 37.6921C4.03004 37.2312 4.02417 36.7566 4.10731 36.2936C4.39254 34.6092 5.87268 34 7.71006 34C9.1729 34 11.1889 34.3406 11.1889 36.5989V37.3341H8.62044V36.6889C8.62819 36.5617 8.60832 36.4344 8.56219 36.3156C8.51606 36.1968 8.44477 36.0895 8.3532 36.0009C8.26164 35.9123 8.15198 35.8445 8.03176 35.8023C7.91154 35.7601 7.78361 35.7444 7.65675 35.7564C7.44013 35.7325 7.22249 35.7913 7.0473 35.9209C6.87212 36.0505 6.75229 36.2415 6.71176 36.4556C6.68289 36.6344 6.689 36.8171 6.72976 36.9935C7.03229 38.194 10.9397 38.8399 11.3682 41.0089C11.4753 41.571 11.4812 42.1478 11.3855 42.712C11.1356 44.4316 9.60143 45.0769 7.74675 45.0769C5.79999 45.0769 4 44.3776 4 42.066ZM37.502 42.0307V41.2415H40.2317V42.2273C40.2275 42.358 40.2514 42.4881 40.3021 42.6087C40.3527 42.7293 40.4287 42.8375 40.525 42.926C40.6213 43.0145 40.7356 43.0811 40.86 43.1214C40.9845 43.1616 41.1161 43.1745 41.246 43.1592C41.4677 43.1922 41.6937 43.1405 41.8789 43.0142C42.064 42.8879 42.1948 42.6964 42.245 42.478C42.319 42.2314 42.3129 41.9677 42.2277 41.7247C41.7098 40.399 38.0884 39.7863 37.6252 37.6921C37.5305 37.2373 37.5244 36.7686 37.6072 36.3116C37.8945 34.6452 39.3768 34.036 41.1767 34.036C42.6223 34.036 44.6196 34.3946 44.6196 36.6169V37.3341H42.0691V36.7069C42.0773 36.5813 42.0583 36.4554 42.0135 36.3378C41.9687 36.2201 41.8991 36.1135 41.8095 36.0251C41.7198 35.9368 41.6123 35.8687 41.494 35.8255C41.3758 35.7824 41.2496 35.7652 41.1241 35.7751C40.9115 35.7469 40.6961 35.802 40.5232 35.929C40.3503 36.056 40.2332 36.2449 40.1964 36.4563C40.1673 36.635 40.1731 36.8177 40.2137 36.9942C40.499 38.1947 44.3676 38.8226 44.7989 40.9729C44.9059 41.529 44.9117 42.0998 44.8162 42.658C44.5663 44.379 43.0501 45.0063 41.2162 45.0063C39.2867 45.0076 37.502 44.3063 37.502 42.0307ZM47.278 42.408C47.2532 42.1816 47.2474 41.9535 47.2607 41.7261V34.3046H49.8652V41.958C49.8618 42.0898 49.8676 42.2217 49.8825 42.3527C49.9406 42.5685 50.0682 42.7591 50.2456 42.8951C50.423 43.031 50.6403 43.1047 50.8638 43.1047C51.0873 43.1047 51.3046 43.031 51.482 42.8951C51.6594 42.7591 51.787 42.5685 51.8451 42.3527C51.8606 42.2217 51.8666 42.0898 51.8632 41.958V34.3046H54.469V41.7247C54.469 41.922 54.451 42.2987 54.451 42.4067C54.2731 44.3451 52.7562 44.9682 50.8655 44.9682C48.9749 44.9682 47.4566 44.3416 47.278 42.4067V42.408ZM68.7215 42.3C68.695 42.0728 68.683 41.8441 68.6855 41.6153V37.2621C68.6855 37.0828 68.7028 36.7602 68.7208 36.5802C68.9527 34.6452 70.5048 34.036 72.3422 34.036C74.1623 34.036 75.767 34.6452 75.9463 36.5809C75.9677 36.8076 75.9735 37.0354 75.9636 37.2628V37.6H73.3592V37.0295C73.3596 36.8972 73.3478 36.7651 73.3239 36.6349C73.2554 36.4164 73.119 36.2254 72.9345 36.0898C72.7499 35.9542 72.5269 35.8811 72.2979 35.8811C72.0689 35.8811 71.8459 35.9542 71.6613 36.0898C71.4768 36.2254 71.3404 36.4164 71.2719 36.6349C71.2418 36.7946 71.2299 36.9572 71.2366 37.1195V41.8507C71.2336 41.9825 71.2396 42.1144 71.2546 42.2453C71.3164 42.48 71.4598 42.685 71.6592 42.8233C71.8586 42.9616 72.1008 43.0243 72.3422 43C72.5793 43.0252 72.8175 42.9625 73.0115 42.8238C73.2054 42.6851 73.3417 42.48 73.3945 42.2474C73.4185 42.1173 73.4246 41.9846 73.4125 41.8528V40.345H72.3602V38.8392H75.9996V41.6153C76.0023 41.843 75.9902 42.0705 75.9636 42.2966C75.7857 44.1783 74.1637 44.8415 72.3422 44.8415C70.5208 44.8415 68.8994 44.1803 68.7215 42.2987V42.3ZM32.4184 44.6463L32.3492 35.0751L30.563 44.6463H27.9586L26.1918 35.0751L26.1226 44.6463H23.5521L23.766 34.3226H27.9586L29.2608 42.3887L30.563 34.3226H34.7549L34.9868 44.6463H32.4184ZM18.7177 44.6463L17.3262 35.0751L15.8986 44.6463H13.1163L15.0076 34.3226H19.5928L21.4841 44.6463H18.7177ZM62.3169 44.5389L59.7305 35.9537L59.8731 44.5383H57.3393V34.3226H61.1566L63.5797 42.6393L63.4406 34.3226H65.9917V44.5396L62.3169 44.5389Z"/>
</svg>
