<svg viewBox="0 0 80 80" xmlns="http://www.w3.org/2000/svg">
<rect width="100%" height="100%" fill="#FF0D68"/>
<path d="M64.9819 23.2483C64.8045 23.2542 64.7053 23.2575 64.4097 23.2512C63.0099 23.2727 61.8208 23.2837 61.0875 22.0945C60.8693 21.7449 60.7255 21.3383 60.6806 20.8782C60.6333 20.3874 60.6989 19.8888 60.8455 19.4153C60.9935 18.9418 61.1713 18.4932 61.4419 17.9768C62.0363 17.022 62.5535 16.7324 63.5489 16.557C64.1665 16.4051 65.7609 16.3544 66.9006 16.44C68.8061 16.44 70.0573 18.2853 69.9976 20.1906C69.9383 21.9769 68.627 23.2274 66.8407 23.2274C65.6114 23.2274 65.2239 23.2403 64.9819 23.2483Z" fill="white"/>
<path d="M53.0024 37.4207C52.5508 37.6751 52.1459 38.0222 51.8127 38.4297C51.4795 38.8373 51.218 39.3056 51.0527 39.7988C50.8892 40.292 50.8182 40.8101 50.8709 41.3213C50.9211 41.8005 51.0817 42.226 51.3253 42.5901C52.0859 43.626 53.404 43.5767 55.3159 43.5053C55.6032 43.4946 55.904 43.4833 56.2184 43.4752C58.0642 43.4752 59.4935 44.4283 60.6843 45.6787C61.9348 46.8696 62.7686 48.2977 62.7686 50.1435C62.7686 52.0488 62.352 53.8961 61.1612 55.1463C59.9703 56.3372 58.0641 57.1692 56.2182 57.1692C54.5435 57.1692 53.7099 57.1243 52.88 57.0796C52.0577 57.0353 51.239 56.9911 49.609 56.9911C47.979 56.9911 47.1606 56.9619 46.3385 56.9325C45.509 56.9028 44.6757 56.873 43.0009 56.873C41.3709 56.873 40.5519 56.7993 39.7293 56.7253C38.8992 56.6506 38.0652 56.5756 36.3905 56.5756C35.9716 56.582 35.561 56.5731 35.1582 56.5644C33.8669 56.5364 32.6556 56.5101 31.5078 56.9945C31.0562 57.2489 30.6513 57.596 30.3182 58.0035C29.985 58.4111 29.7235 58.8794 29.5581 59.3726C29.3946 59.8658 29.3236 60.3839 29.3763 60.8951C29.7224 63.6153 31.6739 63.604 34.5062 63.5875C35.098 63.5841 35.7283 63.5804 36.3904 63.6014C38.0651 63.6014 38.899 63.5565 39.7292 63.5117C40.5518 63.4674 41.3708 63.4233 43.0008 63.4233C44.6308 63.4233 45.4492 63.4526 46.2713 63.482C47.1008 63.5116 47.9341 63.5415 49.6089 63.5415C51.2389 63.5415 52.0576 63.4678 52.8799 63.3938C53.7098 63.3191 54.5434 63.244 56.2181 63.244C58.5998 63.244 60.7434 62.5897 62.708 61.4583C64.7325 60.2675 66.3999 58.7784 67.5907 56.7541C68.722 54.7891 69.8544 52.585 69.8544 50.1436C69.8544 47.8232 68.6104 45.7297 67.5001 43.8613L67.4124 43.7137C66.2811 41.6894 65.0311 39.4867 63.0068 38.3555C61.0418 37.2242 58.5999 37.1635 56.218 37.1635C55.8807 37.1642 55.5698 37.1563 55.2812 37.1489C54.3325 37.1247 53.6234 37.1066 53.0024 37.4207Z" fill="white"/>
<path d="M24.0818 63.1346C24.5098 62.8998 24.8827 62.5766 25.1842 62.1951C25.4856 61.8136 25.7167 61.3741 25.8581 60.9004C25.9985 60.4268 26.0497 59.9198 25.9962 59.4086C25.9286 58.9305 25.7752 58.4825 25.5513 58.0809C25.3275 57.6792 25.0332 57.3238 24.6838 57.0328C23.936 56.4351 23.412 56.4316 21.6375 56.4196C21.2142 56.4167 20.7197 56.4134 20.1341 56.4014C18.5562 56.4014 17.7232 56.4462 16.8902 56.491C16.0571 56.5359 15.2241 56.5807 13.6462 56.5807C11.8599 56.5807 10.1934 58.0695 10.134 59.8558C10.0744 61.7611 11.6825 63.2821 13.5284 63.2821C15.1733 63.2821 16.0363 63.3193 16.8954 63.3564C17.7466 63.3932 18.594 63.4297 20.1943 63.4297C20.5716 63.4142 20.9719 63.4153 21.3719 63.4163C22.4111 63.419 23.4495 63.4217 24.0818 63.1346Z" fill="white"/>
<path d="M54.4909 16.6288C54.0792 16.6473 53.7087 16.6688 53.3385 16.6902C52.3521 16.7474 51.3675 16.8045 49.6089 16.8045C47.9789 16.8045 47.1607 16.7308 46.3389 16.6568C45.5095 16.5821 44.6765 16.5071 43.0017 16.5071C41.3588 16.5071 40.4714 16.5487 39.5806 16.5905C38.8517 16.6246 38.1205 16.6589 36.9712 16.6706C33.6397 16.6945 33.002 18.1893 33.0804 21.1517C33.1307 21.6309 33.2915 22.0563 33.5351 22.4204C33.7788 22.7845 34.1059 23.0879 34.4893 23.3284C34.9111 23.5165 35.2482 23.5177 35.6844 23.5193C35.8666 23.5199 36.066 23.5207 36.296 23.5351C36.3186 23.535 36.3304 23.5347 36.342 23.5343C36.3541 23.5339 36.3662 23.5335 36.3901 23.5335H43.0002C44.6302 23.5335 45.4487 23.4743 46.271 23.4149C47.1007 23.3549 47.9341 23.2946 49.6089 23.2946C51.3439 23.2946 52.3128 23.3097 53.2377 23.3242L53.2395 23.3242C53.3998 23.3267 53.5587 23.3292 53.7201 23.3316C53.8932 23.3206 54.0763 23.3111 54.2592 23.3015C54.6857 23.2792 55.1117 23.2569 55.4096 23.2176C55.4774 23.1932 55.549 23.1771 55.6205 23.161C55.7322 23.1359 55.8435 23.1109 55.9399 23.0542C56.3232 22.8287 56.6564 22.5186 56.9265 22.1524C57.1964 21.7861 57.4025 21.363 57.5293 20.9083C57.6555 20.4536 57.7018 19.9671 57.6541 19.4763C57.5937 19.0173 57.457 18.5872 57.2564 18.2014C57.0558 17.8157 56.7908 17.4741 56.478 17.1948C56.1595 16.9006 55.7953 16.7646 55.4328 16.6984C55.1576 16.6484 54.8893 16.6406 54.6403 16.6335C54.5897 16.632 54.5399 16.6306 54.4909 16.6288Z" fill="white"/>
<path d="M25.079 16.7862C25.4817 16.7545 25.8705 16.7238 26.4504 16.7183C27.571 16.7812 27.7901 16.8113 28.3883 17.2876C29.0281 17.9269 29.5578 18.6696 29.7007 19.6634C29.7542 20.1746 29.703 20.6815 29.5626 21.1552C29.4212 21.6288 29.1901 22.0684 28.8886 22.4499C27.7276 23.4608 26.6699 23.3989 25.0443 23.3037C24.5093 23.2723 23.9127 23.2374 23.2307 23.2359C21.3847 23.2359 19.8971 24.3666 18.6466 25.5574C17.4558 26.8079 16.6225 28.2956 16.6225 30.1415C16.6225 31.9874 17.1571 33.7737 18.3481 35.0241C19.5986 36.215 21.3848 37.0494 23.2307 37.0494C24.8607 37.0494 25.6794 36.9316 26.5018 36.8132C27.3316 36.6937 28.1652 36.5738 29.8399 36.5738C31.4773 36.5738 32.2962 36.5587 33.115 36.5436C33.9339 36.5286 34.7527 36.5135 36.3901 36.5135C38.0649 36.5135 38.8985 36.6638 39.7283 36.8135C40.5507 36.9618 41.3694 37.1095 42.9994 37.1095C43.2699 37.1067 43.5464 37.0779 43.8238 37.0491C44.646 36.9637 45.4758 36.8775 46.179 37.4624C46.5284 37.7534 46.8239 38.1088 47.0477 38.5105C47.2715 38.9122 47.4239 39.3601 47.4914 39.8382C47.5449 40.3494 47.4937 40.8564 47.3533 41.33C47.3352 41.3846 47.3176 41.438 47.3003 41.4903C46.6989 43.314 46.5587 43.7393 43.0004 43.7778C41.3704 43.7778 40.5514 43.6153 39.7287 43.452C38.8986 43.2872 38.0647 43.1216 36.3899 43.1216C34.7525 43.1216 33.934 43.2556 33.1155 43.3895C32.2969 43.5235 31.4784 43.6574 29.841 43.6574C28.1662 43.6574 27.3323 43.5223 26.5022 43.3877C25.6795 43.2544 24.8605 43.1216 23.2305 43.1216C20.7895 43.1216 18.6477 42.6455 16.6827 41.5142C14.6581 40.323 12.7515 38.8943 11.5605 36.8698C10.4293 34.9049 10.0723 32.523 10.0723 30.1413C10.0723 27.7 10.4894 25.3788 11.6207 23.4139C12.7522 21.3894 14.7161 20.019 16.7406 18.8877C18.7055 17.6968 20.7895 16.8636 23.2308 16.8636C24.0985 16.8636 24.5986 16.8242 25.079 16.7862Z" fill="white"/>
</svg>
