<svg xmlns="http://www.w3.org/2000/svg" viewBox="0 0 80 80">
  <rect width="100%" height="100%" fill="#FF0D68"/>
  <path fill="#fff" d="M65 23.2h-.6c-1.4 0-2.6 0-3.3-1.1-.2-.4-.4-.8-.4-1.2l.1-1.5.6-1.4c.6-1 1.2-1.3 2.1-1.4.7-.2 2.3-.2 3.4-.2 2 0 3.2 1.9 3.1 3.8a3 3 0 0 1-3.2 3H65ZM53 37.4a4.2 4.2 0 0 0-2.1 4c0 .4.2.8.4 1.2.8 1 2.1 1 4 1l1-.1c1.8 0 3.2 1 4.4 2.2a6 6 0 0 1 2 4.4c0 2-.3 3.8-1.5 5a7.3 7.3 0 0 1-5 2H53l-3.3-.1a78.5 78.5 0 0 1-6.6-.1l-3.3-.2a32 32 0 0 0-3.3-.1h-1.2c-1.3 0-2.5 0-3.7.4a4.2 4.2 0 0 0-2.1 3.9c.3 2.7 2.3 2.7 5.1 2.7h1.9a53.2 53.2 0 0 0 6.6-.2h3.3l3.3.1 3.3-.1c.8 0 1.6-.2 3.3-.2a13.2 13.2 0 0 0 11.4-6.5c1.1-2 2.3-4.1 2.3-6.6 0-2.3-1.3-4.4-2.4-6.2v-.2c-1.2-2-2.5-4.2-4.5-5.3-2-1.2-4.4-1.2-6.8-1.2h-1c-.9 0-1.6 0-2.2.2ZM24 63.1c.5-.2.9-.5 1.2-.9a3.9 3.9 0 0 0 .8-2.8 3.8 3.8 0 0 0-1.3-2.4c-.8-.6-1.3-.6-3-.6H20a52.1 52.1 0 0 0-6.5.2c-1.7 0-3.4 1.5-3.5 3.3 0 1.9 1.6 3.4 3.4 3.4a67.4 67.4 0 0 1 6.7.1h1.2c1 0 2 0 2.7-.3ZM54.5 16.6h-1.2l-3.7.2-3.3-.1a32 32 0 0 0-6.7-.1H37c-3.4 0-4 1.6-4 4.6l.5 1.2 1 1 1.2.1a9.9 9.9 0 0 1 .7 0H46.3c.8-.1 1.6-.2 3.3-.2H55.4l.2-.1.3-.1c.4-.3.8-.6 1-1a3.8 3.8 0 0 0 .8-2.6c-.1-.5-.2-1-.4-1.3l-.8-1a2 2 0 0 0-1-.5h-1Z"/>
  <path fill="#fff" d="M25 16.8h1.5c1 0 1.3 0 1.9.5.6.6 1.2 1.4 1.3 2.4a3.8 3.8 0 0 1-.8 2.7c-1.2 1-2.2 1-3.9.9h-1.8c-1.8 0-3.3 1-4.6 2.3a6.5 6.5 0 0 0-2 4.5 7 7 0 0 0 1.7 5c1.3 1.1 3 2 5 2 1.6 0 2.4-.2 3.2-.3a20 20 0 0 1 3.3-.2h6.6c1.7 0 2.5 0 3.3.2.9.2 1.7.3 3.3.3h.8c.8-.1 1.7-.2 2.4.4a3.7 3.7 0 0 1 1.3 2.3l-.1 1.5-.1.2c-.6 1.8-.7 2.2-4.3 2.3-1.6 0-2.4-.2-3.3-.3-.8-.2-1.6-.4-3.3-.4-1.6 0-2.5.2-3.3.3-.8.1-1.6.3-3.3.3-1.6 0-2.5-.2-3.3-.3-.8-.1-1.6-.3-3.3-.3a13.8 13.8 0 0 1-11.7-6.3c-1-1.9-1.4-4.3-1.4-6.7 0-2.4.4-4.7 1.5-6.7 1.2-2 3.1-3.4 5.1-4.5 2-1.2 4-2 6.5-2l1.9-.1Z"/>
</svg>