<svg xmlns="http://www.w3.org/2000/svg" xmlns:xlink="http://www.w3.org/1999/xlink" viewBox="0 0 80 80"><defs><linearGradient id="a" x1="-204.36" y1="95.18" x2="-204.21" y2="95.18" gradientTransform="matrix(300 0 0 -320 61325 30485)" gradientUnits="userSpaceOnUse"><stop offset="0" stop-color="#646464"/><stop offset="1"/></linearGradient><linearGradient id="c" x1="-204.36" y1="95.6" x2="-204.21" y2="95.6" gradientTransform="matrix(300 0 0 -320 61325 30645)" xlink:href="#a"/><linearGradient id="b" x1="-204.36" y1="95.34" x2="-204.21" y2="95.34" gradientTransform="matrix(300 0 0 -320 61325 30525)" gradientUnits="userSpaceOnUse"><stop offset="0" stop-color="#a00000"/><stop offset="1" stop-color="red"/></linearGradient><linearGradient id="d" x1="-204.36" y1="95.77" x2="-204.21" y2="95.77" gradientTransform="matrix(300 0 0 -320 61325 30685)" xlink:href="#b"/><linearGradient id="e" x1="-204.36" y1="96.19" x2="-204.21" y2="96.19" gradientTransform="matrix(300 0 0 -320 61325 30845)" xlink:href="#b"/></defs><path d="M16.92 30.77s46.16 4.62 46.16 12.31V24.62s0-7.7-46.16-12.31" fill="url(#a)"/><path d="M16.92 55.39S63.08 60 63.08 67.69V49.23s0-7.69-46.16-12.31" fill="url(#c)"/><path d="M16.92 12.31S63.08 7.69 63.08 0v18.46s0 7.69-46.16 12.31z" fill="url(#b)"/><path d="M16.92 36.92s46.16-4.61 46.16-12.3v18.46s0 7.69-46.16 12.31z" fill="url(#d)"/><path d="M16.92 61.54s46.16-4.62 46.16-12.31v18.46s0 7.7-46.16 12.31z" fill="url(#e)"/></svg>