<svg xmlns="http://www.w3.org/2000/svg" viewBox="0 0 80 80">
  <rect width="100%" height="100%" fill="#fff"/>
  <path fill="#380D09" fill-rule="evenodd" d="M18 30c.7.9 5.8 2.5 13.5 4.1 7.7 1.5 15.7 7.3 21.9 5.5 4.2-1.2 8.7-12 8.7-13.6v-.2c0-1.1-.8-2-2.2-2.8-5.9-3-7-4-9.2-3.5-11.2 3.2-31.1 1.6-32.6 10.5ZM18 52c.7.9 5.8 2.5 13.5 4.1 8.6 1.6 16 6.7 22.3 4.9C58 59.8 62 49.6 62 48v-.2c0-1.1-.8-2-2.2-2.8-4.5-2.4-10.4-5-12.6-4.4C36 43.7 21 44.4 18.1 52Z" clip-rule="evenodd"/>
  <path fill="#DE3423" fill-rule="evenodd" d="M53.7 8.2C43.4 11.2 27 13 18 13V30c6.1 0 24.8-2 36.1-5 2-.5 4-1.2 5.8-2 1.4-.6 2.3-1.2 2.3-2V4c0 1.6-4.3 3-8.5 4.2ZM53.7 30.2A136.6 136.6 0 0 1 18 35V52c6.1 0 24.8-2 36.1-5a43 43 0 0 0 5.8-2c1.4-.6 2.3-1.2 2.3-2V26c0 1.6-4.3 3-8.5 4.2ZM53.7 52.2A137 137 0 0 1 18 57V74c6 0 24.8-2 36.1-5 4.2-1.2 8-2.5 8-4V48c0 1.6-4.2 3-8.4 4.2Z" clip-rule="evenodd"/>
</svg>