<svg viewBox="0 0 80 80" xmlns="http://www.w3.org/2000/svg">
<rect width="100%" height="100%" fill="white"/>
<path fill-rule="evenodd" clip-rule="evenodd" d="M18.0653 30.0471C18.6759 30.8887 23.8246 32.4762 31.5048 34.1298C39.185 35.6018 47.1721 41.4139 53.3836 39.6217C57.5851 38.4072 62.143 27.5849 62.143 25.9776V25.8126C62.143 24.6904 61.3014 23.7894 59.8723 23.0402C54.0139 20.0467 52.905 18.9443 50.7333 19.5417C39.4589 22.654 19.5538 21.0632 18.0653 30.0471Z" fill="#380D09"/>
<path fill-rule="evenodd" clip-rule="evenodd" d="M18.0653 52.0215C18.6759 52.8763 23.8246 54.4506 31.5048 56.1074C40.086 57.6719 47.5483 62.7711 53.7631 60.9756C57.9646 59.7611 62.143 49.5626 62.143 47.952V47.7936C62.143 46.6747 61.3014 45.7704 59.8723 45.0245C55.4034 42.6481 49.4989 40.0309 47.3305 40.6283C36.0363 43.734 20.94 44.4172 18.0653 52.0215Z" fill="#380D09"/>
<path fill-rule="evenodd" clip-rule="evenodd" d="M53.7468 8.2477C43.3635 11.2478 26.8909 12.941 18.0159 12.941V29.8889C18.0188 29.9471 18.0408 30.0029 18.0786 30.0473C24.135 30.0473 42.8321 28.067 54.1131 24.9646C56.0806 24.4638 58.0096 23.823 59.8856 23.047C61.2652 22.4265 62.1564 21.773 62.1564 21.0931V4C62.1432 5.61063 57.9483 7.03643 53.7468 8.2477Z" fill="#DE3423"/>
<path fill-rule="evenodd" clip-rule="evenodd" d="M53.7466 30.225C47.5318 32.0171 39.1453 33.3505 31.5047 34.1294C26.3758 34.6542 21.5836 34.9282 18.0157 34.9282V51.8628C18.0186 51.9211 18.0406 51.9768 18.0785 52.0213C24.1348 52.0213 42.832 50.041 54.1129 46.9419C56.0799 46.4396 58.0089 45.7988 59.8855 45.0243C61.2651 44.4005 62.1562 43.7503 62.1562 43.0704V25.9773C62.143 27.5846 57.9481 29.0104 53.7466 30.225Z" fill="#DE3423"/>
<path fill-rule="evenodd" clip-rule="evenodd" d="M53.7465 52.2171C47.5318 54.0092 39.1453 55.3393 31.5047 56.1215C26.3692 56.6463 21.5703 56.9202 18.0025 56.9202V74.0002C23.9961 74.0002 42.789 72.0364 54.0997 68.9207C58.2682 67.7722 62.1429 66.4652 62.1429 65.046V47.9529C62.1429 49.5767 57.948 50.9893 53.7465 52.2171Z" fill="#DE3423"/>
</svg>
