<svg xmlns="http://www.w3.org/2000/svg" viewBox="0 0 80 80">
  <rect width="100%" height="100%" fill="#352E56"/>
  <path fill="#fff" d="M72.17 66.31a6.3 6.3 0 0 0 0-6.27l-26.9-47.92a6.02 6.02 0 0 0-10.55 0l-8.7 15.47 2.23 1.32a43.01 43.01 0 0 1 15.54 16.04 44.54 44.54 0 0 1 5.65 19.42h-6.1a38.31 38.31 0 0 0-4.78-16.12A37.12 37.12 0 0 0 25.2 34.31L23 33.03l-8.25 14.48 2.19 1.32a21.11 21.11 0 0 1 10.1 15.54H13.11a1.03 1.03 0 0 1-1-1c0-.19.04-.37.14-.52l3.87-6.93a13.7 13.7 0 0 0-4.41-2.6l-3.88 6.93a6.31 6.31 0 0 0 2.21 8.56c.93.55 2 .84 3.07.84H32.3v-2.8c-.01-4.56-1.17-9.04-3.38-13.03a26.02 26.02 0 0 0-7.14-8.25l3.05-5.44a32.37 32.37 0 0 1 9.32 10.43 33 33 0 0 1 4.13 16.17v2.6h16.25v-2.48a50.06 50.06 0 0 0-6.4-24.74 48.66 48.66 0 0 0-15.25-16.5l6.26-10.72a.99.99 0 0 1 1.74 0l26.88 47.96a.99.99 0 0 1 0 1.03.99.99 0 0 1-.86.5h-6.27v5.23h6.3a6.02 6.02 0 0 0 5.29-3.13"/>
</svg>