<svg xmlns="http://www.w3.org/2000/svg" viewBox="0 0 80 80">
  <rect width="100%" height="100%" fill="#fff"/>
  <path fill="#B1003E" d="M72 40a32 32 0 0 1-36.2 31.7c.5-.5.8-.7 1.1-.8l.5-.3c.4-.4 1.2-1.4.8-1.8-.3-.3-.4-1-.4-2 .6-.3 1-.4 1.3-.4.2 0 .2-.4.3-1 0-.5 0-1.3.3-2.2.4-1 1.3-6.6 2.7-16.7.8-2.6 1.4-4 1.7-4.2l3.7-3 5.6-3.7c.2-.2 1.2-.5 2.4-1 1.8-.7 4.2-1.5 4.6-2.1.6-.7 1.7-1.5 3.3-2.4v-.7l2.1-.5h.4c.4 0 .9.1 1.1-.5.2-.3.2-.7.3-1 0-.4 0-.8.4-1l.7-.6C70.8 30 72 34.8 72 40Z"/>
  <path fill="#B1003E" fill-rule="evenodd" d="m67.8 24.2-.5.4-1.1.9c-.5.4-1.5 1-3.1 1.5-1-.8-1.6-1.2-2-1l-.4.2c-1.2.6-3.6 1.8-5 2.2-.7.2-2.4 1.3-4.1 2.3-1.8 1-3.5 2.1-4.2 2.3a10 10 0 0 0-3.3 1.3c-.4.3-1 .3-1.5.3h-.8l-.7.4c-.4.2-1 .6-1.7.8a54.9 54.9 0 0 1-2.3 5.9L35 44.8c.8 1 1.2 1.6 1.2 2 0 .5 0 3.5-.4 5-.2.9-.4 5.6-.6 14.1 0 1.5-.1 2.4-.4 2.8-.4.5-1 2-1 2.3l-.1.3a32 32 0 1 1 34.1-47.2Zm-45.5 2.1c.8-.9 2.4-1.4 5-1.5l.5.4-.3.1.8.8-.2.7.2.6.1.4c0 .6.2 1 .5 1.5.2.4.2 1 0 1.8l1-1c1-.6 1.5-.8 2-.6.3.2 1.9 0 4.6-.5l.3-1.6v-.3c.2-.3.3-.7 0-1-.3-.3-.3-1 0-2.1l-1.3-2.2c-.4-.5-.3-1.2-.3-1.5V20l.3-1.5c.2-.3.4-.5.6-.5.1 0 .3.4.4 1.1l1 .3c.4 1 .6 1.8.6 2.4 0 .9.3 2 .6 2.2.3.2 1.1.2 2.5 0l-.2 5c0 .8-.9 2.7-1.4 3.3a13 13 0 0 1-4 2l1 1 .7.2.4.1c0 .2 0 .7-.4 1.6v.3c-.4 1-.8 2.1-1.3 3-1 2.2-2.2 3.6-2.2 3.6 0 .3 0 1.4.2 1.8 0 0 0 2.5-2 2.8l-1-.8s1.9-.5 1.6-2.4v-1.9l-.7-.2-3-.5-2.4-.5-4 4.1v1.3l-.2.7-.1.3.1.5.1.3c.1.4 0 .5-.1.6-.2.2-.7 0-1.3-.8-.7 0-1.2 0-1.4-.3-.3-.2-.6-1.3-.9-3.2l.5-1.6 2.6-6.2 1.5-2.9.6-1.9 1-.5a7 7 0 0 1-1.6-1.1 10 10 0 0 1-1.2-1.7c-.6-1.6-.6-2.8.2-3.7Z" clip-rule="evenodd"/>
</svg>