<svg xmlns="http://www.w3.org/2000/svg" viewBox="0 0 80 80">
  <rect width="100%" height="100%" fill="#fff"/>
  <path fill="url(#a)" d="M4.9 52.7s-6.1-11.8 14-18.4c9.7-3.2 19.8-5 30-5.5 11.3-.4 21.2 1.6 25.6 8.2 3.1 4.8 1.3 10.6-4.8 15.1a82.2 82.2 0 0 1-41.2 10c-8.5-.4-19-1.6-23.6-9.4Z"/>
  <path fill="#CEC7BC" d="M4.9 52.7s-6.1-11.8 14-18.4c9.7-3.2 19.8-5 30-5.5 11.3-.4 21.2 1.6 25.6 8.2 3.1 4.8 1.3 10.6-4.8 15.1a82.2 82.2 0 0 1-41.2 10c-8.5-.4-19-1.6-23.6-9.4Zm23.8 9.1c8.4.5 18.5-1.5 23.7-3 5.1-1.4 13-4 16.5-6.7 6-4.4 8.3-9.9 5-15-4.2-6.5-14.3-8.5-25.3-8-10 .4-19.9 2.3-29.4 5.5-19.6 6.5-13.6 18-13.6 18 4.5 7.6 14.8 8.8 23.1 9.2Z"/>
  <path fill="url(#b)" d="M20.9 43.3c-1.8-1.3-4.2-7.5-3.3-8.8a27 27 0 0 0 3.2-7c.8-2.7 2-8.6 4.1-10.7 2.2-2 5.5-2 10-1.5 4.3.4 17 2.7 20 3.8 3.2 1.1 7.2 3.2 7 8-.3 4.8.1 7.2-.4 9.9-.6 2.7-6.4 7.9-13.8 8.3-7.3.4-25-.7-26.8-2Z"/>
  <path fill="url(#c)" d="M41.7 37.4s7.6-1 12.1-5.3c4.6-4.3.6-7.3-.7-8.1-1.2-.8-5.4-2.8-12-2.5-6.5.3-13 .4-12.6 5.2.5 5 5.8 10.7 13.2 10.7Z"/>
  <path fill="url(#d)" d="M25 22.7c-1-.5-1-3.4 2-5.4 3.1-2 11-.7 16.2.5 5 1.2 13.5 3 13 3.5-.5.4-12.8-1-18.5-.8-7.7.4-11.5 3-12.8 2.2Z"/>
  <path fill="url(#e)" d="m61.7 36.2-.3.4c-1 1.6-3.8 4.3-10.4 4.3H33.1c-11.3 0-14.5-3-15.3-5.2l-.3-.5-.1.5-1 8.1c0 3.8 9.8 6.8 22.3 6.8 12.4 0 23.1-1.8 23.1-6.8v-7.2c.1-.2 0-.4-.1-.4Z"/>
  <radialGradient id="a" cx="0" cy="0" r="1" gradientTransform="matrix(-51.8 8.9 -4.8 -28.2 56.2 45.7)" gradientUnits="userSpaceOnUse">
    <stop offset=".5" stop-color="#F3EFE9"/>
    <stop offset=".6" stop-color="#EEEAE3"/>
    <stop offset=".7" stop-color="#E1DBD2"/>
    <stop offset=".8" stop-color="#CDC5B7"/>
    <stop offset="1" stop-color="#B4AA98"/>
  </radialGradient>
  <linearGradient id="b" x1="19.8" x2="62.1" y1="29" y2="32.2" gradientUnits="userSpaceOnUse">
    <stop offset=".1" stop-color="#D7D0C6"/>
    <stop offset=".3" stop-color="#CDC7BB"/>
    <stop offset=".4" stop-color="#C7C2B5"/>
    <stop offset=".5" stop-color="#CBC6BA"/>
    <stop offset=".7" stop-color="#D7D1C7"/>
    <stop offset=".8" stop-color="#E6DFD6"/>
    <stop offset=".9" stop-color="#E7E3D9"/>
    <stop offset=".9" stop-color="#E5DFD3"/>
    <stop offset="1" stop-color="#DFD5C6"/>
  </linearGradient>
  <radialGradient id="c" cx="0" cy="0" r="1" gradientTransform="matrix(1.4 15.9 -42.5 3.8 36.5 23)" gradientUnits="userSpaceOnUse">
    <stop offset=".1" stop-color="#B2A797"/>
    <stop offset=".3" stop-color="#C7BDAE"/>
    <stop offset=".5" stop-color="#D6CEBF"/>
    <stop offset=".7" stop-color="#E2DCD0"/>
    <stop offset=".9" stop-color="#F7F5EE"/>
  </radialGradient>
  <linearGradient id="d" x1="24.4" x2="56.2" y1="19.6" y2="19.6" gradientUnits="userSpaceOnUse">
    <stop offset=".1" stop-color="#F7F5EE"/>
    <stop offset=".2" stop-color="#E6E1D6"/>
    <stop offset=".4" stop-color="#D8D1C3"/>
    <stop offset=".6" stop-color="#D0C8B9"/>
    <stop offset=".9" stop-color="#CEC5B5"/>
  </linearGradient>
  <linearGradient id="e" x1="16.5" x2="61.9" y1="42.9" y2="42.9" gradientUnits="userSpaceOnUse">
    <stop offset="0" stop-color="#262222"/>
    <stop offset=".1" stop-color="#2F2C2C"/>
    <stop offset=".3" stop-color="#424143"/>
    <stop offset=".4" stop-color="#4A4A4C"/>
    <stop offset=".5" stop-color="#4A4A4C"/>
    <stop offset=".8" stop-color="#383536"/>
    <stop offset="1" stop-color="#262222"/>
  </linearGradient>
</svg>