<svg xmlns="http://www.w3.org/2000/svg" viewBox="0 0 80 80"><defs><linearGradient id="b" x1="17.59" y1="-447.35" x2="64.58" y2="-450.91" gradientTransform="matrix(1 0 0 -1 0 -418)" gradientUnits="userSpaceOnUse"><stop offset=".09" stop-color="#d7d0c6"/><stop offset=".25" stop-color="#cdc7bb"/><stop offset=".4" stop-color="#c7c2b5"/><stop offset=".52" stop-color="#cbc6ba"/><stop offset=".67" stop-color="#d7d1c7"/><stop offset=".78" stop-color="#e6dfd6"/><stop offset=".89" stop-color="#e7e3d9"/><stop offset=".93" stop-color="#e5dfd3"/><stop offset=".98" stop-color="#dfd5c6"/></linearGradient><linearGradient id="d" x1="22.72" y1="-436.88" x2="58.02" y2="-436.88" gradientTransform="matrix(1 0 0 -1 0 -418)" gradientUnits="userSpaceOnUse"><stop offset=".06" stop-color="#f7f5ee"/><stop offset=".23" stop-color="#e6e1d6"/><stop offset=".43" stop-color="#d8d1c3"/><stop offset=".64" stop-color="#d0c8b9"/><stop offset=".86" stop-color="#cec5b5"/></linearGradient><linearGradient id="e" x1="13.93" y1="-462.76" x2="64.37" y2="-462.76" gradientTransform="matrix(1 0 0 -1 0 -418)" gradientUnits="userSpaceOnUse"><stop offset=".02" stop-color="#262222"/><stop offset=".1" stop-color="#2f2c2c"/><stop offset=".3" stop-color="#424143"/><stop offset=".4" stop-color="#4a4a4c"/><stop offset=".51" stop-color="#4a4a4c"/><stop offset=".78" stop-color="#383536"/><stop offset="1" stop-color="#262222"/></linearGradient><radialGradient id="a" cx="-229.68" cy="912.94" r="58.12" gradientTransform="matrix(-.99 .17 .09 .54 -251.52 -406.08)" gradientUnits="userSpaceOnUse"><stop offset=".48" stop-color="#f3efe9"/><stop offset=".57" stop-color="#eeeae3"/><stop offset=".69" stop-color="#e1dbd2"/><stop offset=".82" stop-color="#cdc5b7"/><stop offset=".96" stop-color="#b4aa98"/></radialGradient><radialGradient id="c" cx="336.29" cy="141.83" r="17.62" gradientTransform="matrix(.09 1 2.68 -.24 -374.26 -279.71)" gradientUnits="userSpaceOnUse"><stop offset=".07" stop-color="#b2a797"/><stop offset=".29" stop-color="#c7bdae"/><stop offset=".48" stop-color="#d6cebf"/><stop offset=".69" stop-color="#e2dcd0"/><stop offset=".94" stop-color="#f7f5ee"/></radialGradient></defs><path d="M1 55.65s-6.75-13.1 15.53-20.44A126.48 126.48 0 0150 29.11c12.45-.42 23.49 1.74 28.31 9.08C81.82 43.5 79.72 50 73 55c-4 3-12.88 6-18.78 7.73s-17.45 3.96-26.92 3.44S6.07 64.27 1 55.65z" fill="url(#a)"/><path d="M1 55.65s-6.75-13.1 15.53-20.44A126.48 126.48 0 0150 29.11c12.45-.42 23.49 1.74 28.31 9.08C81.82 43.5 79.72 50 73 55c-4 3-12.88 6-18.78 7.73s-17.45 3.96-26.92 3.44S6.07 64.27 1 55.65zm26.5 10.12c9.24.53 20.51-1.7 26.24-3.34S68.22 58 72.15 55c6.56-4.92 9.21-11 5.54-16.68-4.65-7.21-15.95-9.43-28.08-9a123.07 123.07 0 00-32.69 6.23c-21.73 7.17-15.14 20-15.14 20 5.01 8.36 16.48 9.7 25.72 10.22z" fill="#cec7bc"/><path d="M18.78 45.2c-1.93-1.41-4.65-8.32-3.6-9.83a29.94 29.94 0 003.51-7.73c.88-3.05 2.12-9.54 4.58-11.83s6.13-2.29 11-1.77 18.93 3.08 22.37 4.29 7.87 3.51 7.61 8.85.22 8-.4 11-7.11 8.78-15.27 9.2-27.86-.77-29.8-2.18z" fill="url(#b)"/><path d="M41.88 38.61s8.42-1.11 13.5-5.86.59-8.16-.79-9-6-3.08-13.3-2.75-14.51.39-14 5.8 6.37 11.81 14.59 11.81z" fill="url(#c)"/><path d="M23.27 22.36c-.92-.59-1.05-3.8 2.36-6s12.19-.85 17.89.52 15 3.31 14.48 3.84-14.25-1.18-20.54-.86c-8.55.47-12.75 3.42-14.19 2.5z" fill="url(#d)"/><path d="M64.09 37.27c-.09 0-.13.3-.26.46-1.08 1.77-4.29 4.78-11.6 4.78H32.38c-12.52 0-16.15-3.37-17.07-5.8-.06-.23-.16-.52-.26-.52s-.17.52-.17.52l-1 9.08c0 4.16 10.78 7.53 24.64 7.53s25.75-2 25.75-7.53c0 0 .07-5.54 0-8 .09-.26.05-.52-.18-.52z" fill="url(#e)"/></svg>