<svg xmlns="http://www.w3.org/2000/svg" viewBox="0 0 80 80">
  <rect width="100%" height="100%" fill="#fff"/>
  <g clip-path="url(#a)">
    <path fill="#76B3E1" d="M77.6 19.9S52 1 32.3 5.4l-1.5.5c-2.9 1-5.3 2.4-6.7 4.3l-1 1.5-7.2 12.5 12.5 2.4c5.3 3.4 12 4.8 18.3 3.4L69 34.3 77.6 20Z"/>
    <path fill="url(#b)" d="M77.6 19.9S52 1 32.3 5.4l-1.5.5c-2.9 1-5.3 2.4-6.7 4.3l-1 1.5-7.2 12.5 12.5 2.4c5.3 3.4 12 4.8 18.3 3.4L69 34.3 77.6 20Z" opacity=".3"/>
    <path fill="#518AC8" d="m24 19.9-1.9.4c-8.2 2.5-10.6 10.2-6.2 17 4.8 6.2 15 9.6 23.1 7.1l29.9-10S43.3 15.4 24 19.8Z"/>
    <path fill="url(#c)" d="m24 19.9-1.9.4c-8.2 2.5-10.6 10.2-6.2 17 4.8 6.2 15 9.6 23.1 7.1l29.9-10S43.3 15.4 24 19.8Z" opacity=".3"/>
    <path fill="url(#d)" d="M63.6 41.6a21.7 21.7 0 0 0-23.2-7.3L10.6 44 .9 60.8 55 70l9.6-17.4c2-3.3 1.5-7.2-1-11Z"/>
    <path fill="url(#e)" d="M54 58.4a21.7 21.7 0 0 0-23.2-7.2L1 60.8s25.6 19.3 45.3 14.5l1.5-.5c8.2-2.4 11-10.1 6.2-16.4Z"/>
  </g>
  <defs>
    <linearGradient id="b" x1="12.3" x2="72.3" y1="4.4" y2="33.6" gradientUnits="userSpaceOnUse">
      <stop offset=".1" stop-color="#76B3E1"/>
      <stop offset=".3" stop-color="#DCF2FD"/>
      <stop offset="1" stop-color="#76B3E1"/>
    </linearGradient>
    <linearGradient id="c" x1="45.2" x2="34.7" y1="18.7" y2="53.7" gradientUnits="userSpaceOnUse">
      <stop stop-color="#76B3E1"/>
      <stop offset=".5" stop-color="#4377BB"/>
      <stop offset="1" stop-color="#1F3B77"/>
    </linearGradient>
    <linearGradient id="d" x1="7.9" x2="68.5" y1="33.9" y2="75.2" gradientUnits="userSpaceOnUse">
      <stop stop-color="#315AA9"/>
      <stop offset=".5" stop-color="#518AC8"/>
      <stop offset="1" stop-color="#315AA9"/>
    </linearGradient>
    <linearGradient id="e" x1="35.2" x2="10.8" y1="38.9" y2="128.7" gradientUnits="userSpaceOnUse">
      <stop stop-color="#4377BB"/>
      <stop offset=".5" stop-color="#1A336B"/>
      <stop offset="1" stop-color="#1A336B"/>
    </linearGradient>
    <clipPath id="a">
      <path fill="#fff" d="M0 0h80v80H0z"/>
    </clipPath>
  </defs>
</svg>