<svg viewBox="0 0 80 80" xmlns="http://www.w3.org/2000/svg">
<rect width="100%" height="100%" fill="white"/>
<g clip-path="url(#clip0_1_10)">
<path d="M77.5542 19.8675C77.5542 19.8675 52.012 1.07228 32.253 5.40962L30.8072 5.89155C27.9157 6.85541 25.506 8.30119 24.0602 10.2289L23.0964 11.6747L15.8675 24.2048L28.3976 26.6144C33.6988 29.9879 40.4458 31.4337 46.7108 29.9879L68.8795 34.3253L77.5542 19.8675Z" fill="#76B3E1"/>
<path opacity="0.3" d="M77.5542 19.8675C77.5542 19.8675 52.012 1.07228 32.253 5.40962L30.8072 5.89155C27.9157 6.85541 25.506 8.30119 24.0602 10.2289L23.0964 11.6747L15.8675 24.2048L28.3976 26.6144C33.6988 29.9879 40.4458 31.4337 46.7108 29.9879L68.8795 34.3253L77.5542 19.8675Z" fill="url(#paint0_linear_1_10)"/>
<path d="M24.0602 19.8675L22.1325 20.3494C13.9397 22.759 11.5301 30.4699 15.8675 37.2169C20.6867 43.4819 30.8072 46.8554 39 44.4458L68.8795 34.3253C68.8795 34.3253 43.3373 15.5301 24.0602 19.8675Z" fill="#518AC8"/>
<path opacity="0.3" d="M24.0602 19.8675L22.1325 20.3494C13.9397 22.759 11.5301 30.4699 15.8675 37.2169C20.6867 43.4819 30.8072 46.8554 39 44.4458L68.8795 34.3253C68.8795 34.3253 43.3373 15.5301 24.0602 19.8675Z" fill="url(#paint1_linear_1_10)"/>
<path d="M63.5783 41.5542C60.8802 38.1834 57.2372 35.6947 53.1161 34.4068C48.9949 33.119 44.5832 33.0906 40.4458 34.3253L10.5663 43.9639L0.927704 60.8313L54.9036 69.9879L64.5422 52.6385C66.4699 49.2651 65.9879 45.4096 63.5783 41.5542Z" fill="url(#paint2_linear_1_10)"/>
<path d="M53.9398 58.4217C51.2416 55.0509 47.5987 52.5622 43.4775 51.2743C39.3564 49.9864 34.9446 49.958 30.8072 51.1928L0.927704 60.8313C0.927704 60.8313 26.4699 80.1084 46.2289 75.2891L47.6747 74.8072C55.8675 72.3976 58.759 64.6867 53.9398 58.4217Z" fill="url(#paint3_linear_1_10)"/>
</g>
<defs>
<linearGradient id="paint0_linear_1_10" x1="12.253" y1="4.44577" x2="72.253" y2="33.6024" gradientUnits="userSpaceOnUse">
<stop offset="0.1" stop-color="#76B3E1"/>
<stop offset="0.3" stop-color="#DCF2FD"/>
<stop offset="1" stop-color="#76B3E1"/>
</linearGradient>
<linearGradient id="paint1_linear_1_10" x1="45.1687" y1="18.7109" x2="34.6626" y2="53.6988" gradientUnits="userSpaceOnUse">
<stop stop-color="#76B3E1"/>
<stop offset="0.5" stop-color="#4377BB"/>
<stop offset="1" stop-color="#1F3B77"/>
</linearGradient>
<linearGradient id="paint2_linear_1_10" x1="7.86746" y1="33.9398" x2="68.5422" y2="75.1928" gradientUnits="userSpaceOnUse">
<stop stop-color="#315AA9"/>
<stop offset="0.5" stop-color="#518AC8"/>
<stop offset="1" stop-color="#315AA9"/>
</linearGradient>
<linearGradient id="paint3_linear_1_10" x1="35.241" y1="38.9036" x2="10.759" y2="128.687" gradientUnits="userSpaceOnUse">
<stop stop-color="#4377BB"/>
<stop offset="0.5" stop-color="#1A336B"/>
<stop offset="1" stop-color="#1A336B"/>
</linearGradient>
<clipPath id="clip0_1_10">
<rect width="80" height="80" fill="white"/>
</clipPath>
</defs>
</svg>
