<svg xmlns="http://www.w3.org/2000/svg" viewBox="0 0 80 80">
  <rect width="100%" height="100%" fill="#fff"/>
  <path fill="#76B3E1" d="M76 21.195S52 3.535 33.434 7.611l-1.358.452c-2.717.906-4.982 2.265-6.34 4.076l-.906 1.358-6.792 11.774 11.773 2.264c4.982 3.17 11.321 4.528 17.208 3.17l20.83 4.075L76 21.195Z"/>
  <path fill="url(#a)" d="M76 21.195S52 3.535 33.434 7.611l-1.358.452c-2.717.906-4.982 2.265-6.34 4.076l-.906 1.358-6.792 11.774 11.773 2.264c4.982 3.17 11.321 4.528 17.208 3.17l20.83 4.075L76 21.195Z" opacity=".3"/>
  <path fill="#518AC8" d="m25.736 21.195-1.812.453c-7.698 2.264-9.962 9.51-5.886 15.85 4.528 5.886 14.037 9.056 21.736 6.792l28.075-9.51s-24-17.66-42.113-13.585Z"/>
  <path fill="url(#b)" d="m25.736 21.195-1.812.453c-7.698 2.264-9.962 9.51-5.886 15.85 4.528 5.886 14.037 9.056 21.736 6.792l28.075-9.51s-24-17.66-42.113-13.585Z" opacity=".3"/>
  <path fill="url(#c)" d="M62.868 41.573a20.377 20.377 0 0 0-21.736-6.793l-28.075 9.057L4 59.687l50.717 8.603 9.057-16.302c1.81-3.17 1.358-6.792-.906-10.415Z"/>
  <path fill="url(#d)" d="M53.811 57.422a20.377 20.377 0 0 0-21.736-6.793L4 59.686S28 77.799 46.566 73.27l1.358-.453c7.699-2.264 10.416-9.51 5.887-15.396Z"/>
  <linearGradient id="a" x1="14.642" x2="71.019" y1="6.705" y2="34.101" gradientUnits="userSpaceOnUse">
    <stop offset=".1" stop-color="#76B3E1"/>
    <stop offset=".3" stop-color="#DCF2FD"/>
    <stop offset="1" stop-color="#76B3E1"/>
  </linearGradient>
  <linearGradient id="b" x1="45.57" x2="35.698" y1="20.108" y2="52.984" gradientUnits="userSpaceOnUse">
    <stop stop-color="#76B3E1"/>
    <stop offset=".5" stop-color="#4377BB"/>
    <stop offset="1" stop-color="#1F3B77"/>
  </linearGradient>
  <linearGradient id="c" x1="10.521" x2="67.532" y1="34.418" y2="73.18" gradientUnits="userSpaceOnUse">
    <stop stop-color="#315AA9"/>
    <stop offset=".5" stop-color="#518AC8"/>
    <stop offset="1" stop-color="#315AA9"/>
  </linearGradient>
  <linearGradient id="d" x1="36.242" x2="13.238" y1="39.082" y2="123.444" gradientUnits="userSpaceOnUse">
    <stop stop-color="#4377BB"/>
    <stop offset=".5" stop-color="#1A336B"/>
    <stop offset="1" stop-color="#1A336B"/>
  </linearGradient>
</svg>