<svg viewBox="0 0 80 80" xmlns="http://www.w3.org/2000/svg">
<rect width="100%" height="100%" fill="white"/>
<path d="M54.5957 10H25.4043C24.56 10.0003 23.7306 10.2227 22.9994 10.645C22.2683 11.0672 21.6611 11.6745 21.239 12.4057L6.64329 37.6868C6.22183 38.4185 6 39.248 6 40.0924C6 40.9369 6.22183 41.7664 6.64329 42.4981L21.239 67.7792C21.6611 68.5104 22.2683 69.1177 22.9994 69.5399C23.7306 69.9622 24.56 70.1846 25.4043 70.1849H54.5957C55.44 70.1846 56.2694 69.9622 57.0006 69.5399C57.7317 69.1177 58.3389 68.5104 58.761 67.7792L73.3567 42.4981C73.7782 41.7664 74 40.9369 74 40.0924C74 39.248 73.7782 38.4185 73.3567 37.6868L58.761 12.4057C58.3389 11.6745 57.7317 11.0672 57.0006 10.645C56.2694 10.2227 55.44 10.0003 54.5957 10V10Z" fill="#65A741"/>
<path d="M38.6418 40.9409C39.0021 41.3012 39.4907 41.5036 40.0003 41.5036C40.5098 41.5036 40.9984 41.3012 41.3587 40.9409C41.719 40.5806 41.9214 40.0919 41.9214 39.5824V21.0254C41.9214 20.5159 41.719 20.0272 41.3587 19.6669C40.9984 19.3067 40.5098 19.1042 40.0003 19.1042C39.4907 19.1042 39.0021 19.3067 38.6418 19.6669C38.2815 20.0272 38.0791 20.5159 38.0791 21.0254V39.5824C38.0791 40.0919 38.2815 40.5806 38.6418 40.9409Z" fill="white"/>
<path d="M28.9384 53.284C32.0977 55.7517 35.9912 57.0926 40 57.0938C44.0089 57.0926 47.9023 55.7517 51.0617 53.284C54.2211 50.8164 56.4651 47.3636 57.4371 43.4744C58.4092 39.5852 58.0535 35.4826 56.4267 31.8187C54.7998 28.1548 51.9951 25.1397 48.4582 23.2526C48.235 23.1331 47.9903 23.0588 47.7384 23.0339C47.4864 23.009 47.232 23.0339 46.9896 23.1074C46.7473 23.1808 46.5218 23.3012 46.326 23.4618C46.1302 23.6223 45.968 23.8199 45.8485 24.0431C45.7291 24.2664 45.6548 24.511 45.6298 24.763C45.6049 25.015 45.6299 25.2694 45.7033 25.5117C45.7767 25.7541 45.8971 25.9796 46.0577 26.1754C46.2183 26.3711 46.4158 26.5334 46.6391 26.6528C49.4211 28.1339 51.6281 30.5026 52.9089 33.3824C54.1897 36.2621 54.4709 39.4874 53.7077 42.5453C52.9444 45.6032 51.1806 48.3181 48.6968 50.2581C46.213 52.1982 43.1517 53.2521 40 53.2521C36.8483 53.2521 33.7871 52.1982 31.3033 50.2581C28.8194 48.3181 27.0556 45.6032 26.2924 42.5453C25.5292 39.4874 25.8103 36.2621 27.0912 33.3824C28.372 30.5026 30.5789 28.1339 33.361 26.6528C33.8119 26.4116 34.1485 26.0011 34.2968 25.5117C34.445 25.0223 34.3928 24.494 34.1516 24.0431C33.9103 23.5922 33.4998 23.2556 33.0104 23.1074C32.521 22.9591 31.9927 23.0113 31.5418 23.2526C28.005 25.1397 25.2002 28.1548 23.5734 31.8187C21.9465 35.4826 21.5909 39.5852 22.5629 43.4744C23.535 47.3636 25.779 50.8164 28.9384 53.284Z" fill="white"/>
</svg>
