<svg xmlns="http://www.w3.org/2000/svg" viewBox="0 0 80 80">
  <rect width="100%" height="100%" fill="#fff"/>
  <path fill="#6DB33F" d="M66.27 11.86a26.87 26.87 0 0 1-3.42 5.99 31.9 31.9 0 1 0-45.9 44.33c.4.44.84.86 1.31 1.24l1.19 1.06A31.9 31.9 0 0 0 71.8 42.35c.92-7.95-1.52-18.25-5.54-30.5Zm-43.4 51.9a2.71 2.71 0 1 1-.39-3.82 2.77 2.77 0 0 1 .4 3.81Zm43.2-9.55c-7.83 10.46-24.7 6.91-35.42 7.44 0 0-1.91.13-3.83.39 0 0 .73-.33 1.65-.66 7.58-2.63 11.13-3.2 15.74-5.53 8.63-4.41 17.25-14.09 18.99-24.1-3.29 9.6-13.3 17.91-22.4 21.27-6.27 2.3-17.54 4.58-17.54 4.58l-.45-.26c-7.61-3.8-7.9-20.39 6.05-25.72 6.13-2.4 11.92-1.06 18.58-2.64 7.05-1.64 15.2-6.92 18.5-13.83 3.66 11.13 8.17 28.39.13 39.06Z"/>
  <path fill="#fff" d="M66.07 54.2c-7.83 10.47-24.7 6.92-35.42 7.45 0 0-1.91.13-3.83.39 0 0 .73-.33 1.65-.66 7.58-2.63 11.13-3.2 15.74-5.53 8.63-4.41 17.25-14.09 18.99-24.1-3.29 9.6-13.3 17.91-22.4 21.27-6.27 2.3-17.54 4.58-17.54 4.58l-.45-.26c-7.61-3.8-7.9-20.39 6.05-25.72 6.13-2.4 11.92-1.06 18.58-2.64 7.05-1.64 15.2-6.92 18.5-13.83 3.66 11.13 8.17 28.39.13 39.06Zm-43.2 9.55a2.71 2.71 0 1 1-.39-3.81 2.77 2.77 0 0 1 .4 3.81Z"/>
</svg>