<svg xmlns="http://www.w3.org/2000/svg" viewBox="0 0 80 80"><defs><style>.a{fill:#6db33f;}.b{fill:#fff;}</style></defs><path class="a" d="M72.84,4.82a33.58,33.58,0,0,1-4.28,7.49A39.88,39.88,0,0,0,11.18,67.72a15.22,15.22,0,0,0,1.65,1.56l1.48,1.32A39.88,39.88,0,0,0,79.76,42.94C80.91,33,77.86,20.13,72.84,4.82ZM18.59,69.69a3.39,3.39,0,1,1-.49-4.77A3.46,3.46,0,0,1,18.59,69.69Zm54-11.93c-9.79,13.08-30.87,8.64-44.28,9.3,0,0-2.39.16-4.78.49,0,0,.91-.41,2.06-.82,9.47-3.29,13.91-4,19.67-6.92C56.05,54.3,66.83,42.2,69,29.68c-4.11,12-16.63,22.4-28,26.59C33.16,59.15,19.08,62,19.08,62l-.57-.33C9,56.93,8.63,36.19,26.08,29.52c7.66-3,14.9-1.32,23.22-3.29,8.81-2.06,19-8.65,23.13-17.29C77,22.85,82.64,44.42,72.59,57.76Z"/><path class="b" d="M72.59,57.76c-9.79,13.08-30.87,8.64-44.28,9.3,0,0-2.39.16-4.78.49,0,0,.91-.41,2.06-.82,9.47-3.29,13.91-4,19.67-6.92C56.05,54.3,66.83,42.2,69,29.68c-4.11,12-16.63,22.4-28,26.59C33.16,59.15,19.08,62,19.08,62l-.57-.33C9,56.93,8.63,36.19,26.08,29.52c7.66-3,14.9-1.32,23.22-3.29,8.81-2.06,19-8.65,23.13-17.29C77,22.85,82.64,44.42,72.59,57.76Z"/><path class="b" d="M18.59,69.69a3.39,3.39,0,1,1-.49-4.77A3.46,3.46,0,0,1,18.59,69.69Z"/></svg>