<svg xmlns="http://www.w3.org/2000/svg" viewBox="0 0 80 80">
  <rect width="100%" height="100%" fill="#fff"/>
  <path fill="#65A741" d="M54.6 10H25.4a4.81 4.81 0 0 0-4.16 2.4L6.64 37.7a4.82 4.82 0 0 0 0 4.8l14.6 25.29a4.81 4.81 0 0 0 4.16 2.4h29.2a4.81 4.81 0 0 0 4.16-2.4l14.6-25.28a4.82 4.82 0 0 0 0-4.81L58.76 12.4A4.81 4.81 0 0 0 54.6 10Z"/>
  <path fill="#fff" d="M38.64 40.94a1.92 1.92 0 0 0 3.28-1.36V21.03a1.92 1.92 0 0 0-3.84 0v18.55c0 .51.2 1 .56 1.36Z"/>
  <path fill="#fff" d="M28.94 53.28a17.98 17.98 0 1 0 19.52-30.03 1.93 1.93 0 1 0-1.82 3.4 14.13 14.13 0 1 1-13.28 0 1.93 1.93 0 1 0-1.82-3.4 17.98 17.98 0 0 0-2.6 30.03Z"/>
</svg>