<svg xmlns="http://www.w3.org/2000/svg" viewBox="0 0 80 80"><defs><style>.b{fill:#fff}</style></defs><path d="M57.17 4.6H22.83a5.66 5.66 0 00-4.9 2.83L.76 37.17a5.67 5.67 0 000 5.66l17.17 29.74a5.66 5.66 0 004.9 2.83h34.34a5.66 5.66 0 004.9-2.83l17.17-29.74a5.67 5.67 0 000-5.66L62.07 7.43a5.66 5.66 0 00-4.9-2.83z" fill="#65a741"/><path class="b" d="M40 41.66a2.26 2.26 0 01-2.26-2.26V17.57a2.26 2.26 0 114.52 0V39.4A2.26 2.26 0 0140 41.66z"/><path class="b" d="M40 60a21.15 21.15 0 01-9.95-39.81 2.26 2.26 0 112.14 4 16.62 16.62 0 1015.62 0 2.26 2.26 0 112.14-4A21.15 21.15 0 0140 60z"/></svg>