<svg xmlns="http://www.w3.org/2000/svg" viewBox="0 0 80 80">
  <path fill="#fff" d="M0 0h80v80H0z"/>
  <path fill="#227CC8" d="M39.63 22.67V75H40c14.91 0 27-4.4 27-9.84V12.84c0 5.43-12.09 9.83-27 9.83h-.37Z"/>
  <path fill="#0072C6" d="M13 12.84v52.32C13 70.6 25.09 75 40 75V22.67c-14.91 0-27-4.4-27-9.83Z"/>
  <path fill="#7FBA00" fill-rule="evenodd" d="M61.48 12.27c0 3.59-9.62 6.49-21.48 6.49-11.86 0-21.48-2.9-21.48-6.5 0-3.58 9.62-6.48 21.48-6.48 11.86 0 21.48 2.9 21.48 6.49Z" clip-rule="evenodd"/>
  <path fill="#B8D432" fill-rule="evenodd" d="M56.98 16.24c2.81-1.1 4.5-2.47 4.5-3.97 0-3.58-9.62-6.49-21.48-6.49-11.86 0-21.48 2.9-21.48 6.5 0 1.49 1.69 2.86 4.5 3.96C26.95 14.7 33.1 13.7 40 13.7c6.92 0 13.05 1 16.98 2.53Z" clip-rule="evenodd"/>
  <path fill="#fff" fill-rule="evenodd" d="M31.42 49.16c0 1.62-.58 2.88-1.75 3.78-1.18.89-2.8 1.33-4.86 1.33a9.19 9.19 0 0 1-4.41-.95v-3.83a6.78 6.78 0 0 0 4.5 1.75c.8 0 1.4-.16 1.84-.48.43-.32.65-.74.65-1.27 0-.52-.21-.97-.63-1.35-.41-.38-1.26-.88-2.54-1.48-2.6-1.23-3.9-2.9-3.9-5.02 0-1.54.57-2.77 1.7-3.7a6.9 6.9 0 0 1 4.52-1.4c1.67 0 3.04.23 4.14.67v3.57a6.71 6.71 0 0 0-3.92-1.2 2.9 2.9 0 0 0-1.75.48 1.49 1.49 0 0 0-.64 1.26c0 .54.17.98.52 1.33.34.35 1.05.77 2.12 1.28a10.5 10.5 0 0 1 3.4 2.31 4.29 4.29 0 0 1 1.01 2.92Zm18.34-3.87c0 2.01-.46 3.76-1.37 5.24a7.3 7.3 0 0 1-3.85 3.12l4.94 4.6H44.5l-3.53-3.98a8.24 8.24 0 0 1-4.09-1.2 7.55 7.55 0 0 1-2.82-3.08 9.5 9.5 0 0 1-.99-4.36c0-1.77.36-3.36 1.08-4.75a7.66 7.66 0 0 1 3.02-3.2 8.78 8.78 0 0 1 4.47-1.13c1.57 0 2.97.36 4.21 1.09a7.4 7.4 0 0 1 2.89 3.1 9.85 9.85 0 0 1 1.03 4.55Zm-4.04.21c0-1.74-.38-3.1-1.13-4.12a3.65 3.65 0 0 0-3.1-1.5c-1.32 0-2.39.5-3.19 1.5a6.32 6.32 0 0 0-1.2 4.05c0 1.67.4 3 1.18 4 .78 1 1.82 1.5 3.12 1.5 1.33 0 2.38-.48 3.15-1.45a6.2 6.2 0 0 0 1.17-3.98Zm17 8.48H52.57V36.84h3.84v14h6.31v3.13Z" clip-rule="evenodd"/>
</svg>