<svg viewBox="0 0 80 80" xmlns="http://www.w3.org/2000/svg">
<rect width="100%" height="100%" fill="white"/>
<path fill-rule="evenodd" clip-rule="evenodd" d="M59.4536 12.4098C59.4536 15.952 50.5202 18.8196 39.5 18.8196C28.4798 18.8196 19.5448 15.952 19.5448 12.4098C19.5448 8.86756 28.4798 6 39.5 6C50.5202 6 59.4536 8.86933 59.4536 12.4098Z" fill="#7FBA00"/>
<path fill-rule="evenodd" clip-rule="evenodd" d="M55.2741 16.3279C57.886 15.2444 59.4561 13.8879 59.4561 12.4133C59.4553 8.87104 50.5219 6.00171 39.5001 6.00171C28.4782 6.00171 19.5465 8.87104 19.5465 12.4133C19.5465 13.887 21.1158 15.2444 23.7285 16.3279C27.3763 14.8133 33.0774 13.8364 39.5009 13.8364C45.9244 13.8364 51.6238 14.8133 55.2741 16.3279Z" fill="#B8D432"/>
<path fill-rule="evenodd" clip-rule="evenodd" d="M14.4181 64.6497V12.9697C14.4183 18.2905 25.463 22.6121 39.1564 22.6833V36.5813C38.3315 36.761 37.5671 37.0667 36.8623 37.4985C35.655 38.238 34.7186 39.2949 34.0531 40.6683C33.3876 42.0416 33.0548 43.606 33.0548 45.3607C33.0548 46.942 33.3633 48.3767 33.977 49.6638C34.5907 50.9509 35.4635 51.9643 36.593 52.7038C37.3803 53.2193 38.2349 53.5689 39.1564 53.7518V74.3652H39.5001C39.3853 74.3652 39.2708 74.3658 39.1564 74.3652C25.4629 74.294 14.4181 69.9715 14.4181 64.6497ZM29.8995 52.5741C30.9897 51.6932 31.534 50.4496 31.534 48.8434C31.534 47.6958 31.2247 46.7341 30.5943 45.9625C29.9639 45.1909 28.9104 44.4327 27.4306 43.6843C26.4374 43.1803 25.7819 42.7572 25.4608 42.4149C25.1398 42.0727 24.9801 41.6336 24.9801 41.0985C24.9741 40.8547 25.0254 40.6131 25.1293 40.3956C25.2333 40.1782 25.3866 39.9917 25.5754 39.8532C25.9725 39.5429 26.5134 39.3883 27.1973 39.3883C28.5585 39.3883 29.7733 39.7812 30.8401 40.5687V37.0389C29.8226 36.6069 28.5434 36.3892 26.9975 36.3892C25.2543 36.3892 23.8573 36.8469 22.8038 37.7643C21.7504 38.6816 21.2245 39.8994 21.2245 41.4176C21.2245 43.5092 22.4309 45.1643 24.8455 46.3749C26.0302 46.9732 26.8161 47.4612 27.2024 47.8389C27.5886 48.2167 27.7817 48.6612 27.7817 49.1723C27.7817 49.6932 27.5811 50.1092 27.1798 50.4247C26.7785 50.7403 26.2091 50.8976 25.4734 50.8976C23.9501 50.8976 22.5555 50.3225 21.2897 49.1732V52.9518C22.3866 53.5821 23.7519 53.8967 25.3856 53.8967C27.306 53.8967 28.8093 53.4549 29.8995 52.5741Z" fill="#0072C6"/>
<path d="M39.1564 40.0802V50.2215C38.6793 49.9748 38.2607 49.6073 37.9007 49.1189C37.1724 48.1314 36.8088 46.8123 36.8088 45.1589C36.8088 43.4985 37.1791 42.1669 37.9232 41.1687C38.2784 40.6922 38.6894 40.3294 39.1564 40.0802Z" fill="#0072C6"/>
<path fill-rule="evenodd" clip-rule="evenodd" d="M64.582 12.9912C64.5518 18.3466 53.3333 22.6842 39.5001 22.6842C39.3853 22.6842 39.2708 22.6839 39.1564 22.6833V36.5813C39.7445 36.4532 40.3633 36.3892 41.0133 36.3892C42.4689 36.3892 43.774 36.7474 44.9261 37.4638C46.0782 38.1803 46.9711 39.198 47.6082 40.5207C48.2453 41.8434 48.5647 43.3438 48.5647 45.0194C48.5647 47.0105 48.1408 48.7394 47.2947 50.2016C46.4486 51.6638 45.2564 52.6914 43.7188 53.2825L48.3097 57.8274H43.6745L40.3963 53.8958C39.9704 53.8794 39.5571 53.8314 39.1564 53.7518V74.3651H39.5C53.3519 74.3651 64.582 70.0167 64.582 64.6505V12.9912ZM51.1816 53.6007H60.6082L60.6074 50.5083H54.7465V36.6736H51.1816V53.6007Z" fill="#2787CF"/>
<path d="M39.1564 50.2215C39.6442 50.4737 40.1931 50.5998 40.8035 50.5998C42.0333 50.5998 43.0073 50.1216 43.7289 49.166C44.4504 48.2105 44.8124 46.9003 44.8124 45.2327C44.8124 43.5163 44.4629 42.1616 43.7631 41.1652C43.0634 40.1687 42.1077 39.6709 40.8929 39.6709C40.2466 39.6709 39.6678 39.8074 39.1564 40.0803V50.2215Z" fill="#2787CF"/>
</svg>
