<svg xmlns="http://www.w3.org/2000/svg" viewBox="0 0 80 80">
  <rect width="100%" height="100%" fill="#333"/>
  <path fill="#fff" d="M9.9 45.9a34 34 0 0 1-2.4-.6L5.8 45l.9-1.5.8-1.5-.7-.8c-1-1.2-2.2-3.7-2.2-4.5 0-2 2.6-4.7 5.7-6.2 2.2-1 3.9-1 6 0l1.6.7.5-.7c.3-.3.5-.8.5-1 0-.2.2-.4.5-.4l.4.1-2 5-1.1-.6C15 32.5 13 32 11.4 32c-3.7 0-5 3.4-2.4 6.5l1 1 2.4-1.9c2.9-2.2 3.2-2.2 5.4-.8 2.5 1.7 2.5 4.2.1 6.8-2.1 2.3-4.3 3-8 2.4Zm6.3-2.5c1.2-1 1.2-2.7-.2-4-1.6-1.8-2.2-1.7-5.1.7-3 2.3-3 2.3.5 3.3 2.4.8 3.8.7 4.8 0Zm23.8 9c-.8-.2-3-1.1-5-2-5.2-2.1-6-2.2-7.5-.4-.4.5-.8.7-.9.6-.3-.3.7-1.8 1.9-2.9 1-.8 1.3-.9 2.4-.8.6 0 2.9.9 5 1.7 4.7 2 6.1 2.4 7.9 2.4 2.2 0 3.3-1.5 2.6-3.5-.1-.5 0-.6.3-.6.6 0 1 2.3.5 3.6-.2.6-.8 1.4-1.3 1.8-.8.6-1.2.7-2.7.7-.9 0-2.4-.2-3.2-.5Zm-12.2-7c-1.9-.9-3.7-2.5-4.7-4.5-1.6-3-1-5 2-7.8 2.5-2.2 4.6-3.1 7.5-3.1 2 0 2.5 0 3.8.9 3.1 1.8 3.9 5.4 2 9.3-2.2 4.6-6.9 6.9-10.6 5.2Zm6.5-2.2c1.5-.7 2.5-3.8 2-6.5-.4-3.3-5-5.5-8.4-4.1-3.5 1.4-3.5 5.2-.1 8.6 2.4 2.4 4.4 3 6.5 2ZM41 46c0-.1.5-.4 1.2-.5l1.2-.3.3-4.2c.3-4.6 0-9.2-.5-9.8-.2-.2-.7-.5-1.3-.6-2-.5-.7-.8 3.4-.8s5.5.3 3.5.8c-1.7.4-1.7.4-1.7 7 0 3.7.1 6.5.3 6.8.3.5.7.6 2.3.6 3.2 0 4.4-.7 5.2-3.5.3-.8 1-.6.7.2l-.4 2.6-.2 2h-7c-3.8 0-7-.1-7-.3Z"/>
  <path fill="#CA2727" d="M56.8 45.8c0-.2.3-.5.7-.7.5-.2.9-.7 2.2-3.2 2-3.9 5.3-10.5 5.6-11.5.2-.8.3-.8 1.2-.9h1l1.5 3.3 3.8 7.6c2.1 4 2.3 4.5 3 4.8.5.2.8.5.8.7 0 .3-.4.3-3.5.3-3.2 0-3.5 0-3.5-.3 0-.2.2-.4.7-.6.4-.1.7-.3.7-.5s-.4-1.3-1-2.4l-.9-2.1h-7l-.7 1.4c-1.3 2.7-1.3 3.3-.1 3.6.6.2.7.3.7.5-.1.3-.4.4-2.6.4-2.4 0-2.6 0-2.6-.4Zm11.6-6.7c.1-.2-2.5-5.8-2.8-5.8-.2 0-3 5.4-3 5.8 0 .2 5.7.3 5.8 0Z"/>
</svg>