<svg viewBox="0 0 80 80" fill="none" xmlns="http://www.w3.org/2000/svg">
<rect width="80" height="80" fill="#333333"/>
<path d="M9.88634 45.8873C9.4598 45.8216 8.36705 45.5577 7.46246 45.3189L5.81412 44.8733L6.65959 43.3733L7.50442 41.8732L6.82169 41.0569C5.85671 39.903 4.61077 37.373 4.6025 36.558C4.5936 34.6534 7.15416 31.8927 10.2957 30.4092C12.4552 29.3873 14.1709 29.3627 16.3221 30.3356L17.9437 31.0684L18.4135 30.4178C18.669 30.063 18.8826 29.5935 18.8826 29.3873C18.8826 29.1811 19.0962 29 19.3524 29C19.6086 29 19.8215 29.0657 19.8215 29.1399C19.8215 29.3216 17.9354 33.92 17.8159 34.0354C17.7644 34.0845 17.2521 33.8543 16.6717 33.5247C15.0329 32.593 12.9758 31.9749 11.3796 31.9338C7.66652 31.843 6.37734 35.3464 8.99829 38.4115L9.92004 39.4918L12.438 37.5216C15.2636 35.3212 15.5878 35.2715 17.7905 36.739C20.2652 38.387 20.3078 40.8924 17.9176 43.5132C15.8008 45.8455 13.6248 46.4888 9.88571 45.8866L9.88634 45.8873ZM16.2203 43.3739C17.4491 42.4428 17.3639 40.7199 16.0322 39.3518C14.359 37.6376 13.8391 37.7118 10.8939 40.0853C7.96593 42.4422 7.94877 42.3519 11.4489 43.4316C13.7615 44.1564 15.2128 44.1319 16.2203 43.3739ZM40.0015 52.4558C39.1642 52.1594 36.9107 51.2608 34.9821 50.4531C29.7751 48.2607 29.0409 48.2196 27.4873 50.0412C27.1288 50.4617 26.7365 50.725 26.6253 50.6182C26.2922 50.2966 27.2826 48.7554 28.4777 47.7421C29.4503 46.9178 29.7745 46.8024 30.8507 46.9178C31.5334 46.9914 33.8041 47.7586 35.8949 48.6155C40.6155 50.5519 41.9981 50.9644 43.7997 50.9644C45.9928 50.9644 47.1199 49.4809 46.4283 47.5113C46.2579 47.0166 46.3088 46.8515 46.6508 46.8515C47.2903 46.8515 47.6151 49.1593 47.1542 50.4862C46.9572 51.0546 46.3857 51.8623 45.8822 52.2662C45.1308 52.8762 44.6528 53.0082 43.2441 52.9996C42.2969 52.9916 40.838 52.7529 40.0015 52.4558ZM27.8376 45.4097C25.9 44.5357 24.1499 42.8712 23.1424 40.9262C21.5296 37.8107 22.0242 35.8165 25.0806 33.1215C27.6494 30.8548 29.7497 29.9728 32.5753 29.9728C34.6146 29.9728 35.0501 30.0802 36.3729 30.8628C39.5056 32.7342 40.2824 36.3026 38.3963 40.1921C36.1854 44.7585 31.5163 47.0583 27.8376 45.4097ZM34.3248 43.2419C35.7754 42.5496 36.7747 39.3518 36.3647 36.6979C35.8523 33.4265 31.269 31.1924 27.9056 32.5777C24.4487 34.0035 24.3972 37.8027 27.795 41.2226C30.1674 43.6212 32.2079 44.2473 34.3248 43.2419ZM40.906 46.0112C40.906 45.8707 41.4432 45.6239 42.1094 45.4668L43.3128 45.1784L43.5689 40.9924C43.8505 36.3603 43.6452 31.8025 43.1252 31.193C42.9371 30.9782 42.3656 30.7143 41.8449 30.5995C39.7281 30.1459 41.1362 29.8329 45.2421 29.8329C49.348 29.8329 50.6537 30.1214 48.6989 30.5995C47.0176 31.0033 47.0086 31.0279 47.0086 37.6376C47.0086 41.3049 47.1453 44.0662 47.3418 44.4203C47.6151 44.915 48.0245 45.0218 49.5953 45.0218C52.8386 45.0218 53.9567 44.2804 54.8365 41.5356C55.101 40.712 55.7837 40.8605 55.5447 41.6928C55.4334 42.0794 55.2548 43.2579 55.1436 44.3295L54.9389 46.2666H47.9221C44.0635 46.2666 40.906 46.1512 40.906 46.0112Z" fill="white"/>
<path d="M56.8421 45.813C56.8421 45.5663 57.09 45.3189 57.4994 45.1292C58.0461 44.8819 58.404 44.3626 59.7014 41.9149C61.7585 38.0421 65.0024 31.3906 65.3095 30.3933C65.5485 29.6353 65.6 29.5941 66.4874 29.4953C66.9998 29.4376 67.4263 29.4045 67.4346 29.421C67.4435 29.4376 68.1523 30.9371 69.0143 32.7587C69.868 34.5798 71.5837 38.0414 72.8297 40.448C74.9128 44.4946 75.1436 44.8573 75.8428 45.1863C76.27 45.3846 76.6025 45.6896 76.6025 45.8707C76.6025 46.1592 76.2357 46.1923 73.0776 46.1923C69.9106 46.1923 69.5521 46.1592 69.5521 45.8627C69.5521 45.6651 69.8254 45.4509 70.2602 45.3103C70.662 45.1869 70.969 44.9562 70.969 44.7831C70.969 44.618 70.5507 43.5304 70.0384 42.3685L69.1083 40.2504H62.0573L61.3835 41.6842C60.1197 44.3712 60.0943 45.0059 61.2722 45.3103C61.8615 45.4668 62.0236 45.5908 61.9549 45.8461C61.8787 46.1432 61.571 46.1837 59.3518 46.1837C56.9699 46.2009 56.8421 46.1837 56.8421 45.813ZM68.3996 39.1456C68.5191 38.94 65.8644 33.3436 65.6171 33.286C65.4379 33.2369 62.6892 38.7092 62.6892 39.1211C62.6892 39.3273 68.2718 39.3518 68.3996 39.1456Z" fill="#CA2727"/>
</svg>
