<?xml version="1.0" encoding="UTF-8" standalone="no"?>
<svg
   viewBox="0 0 80 80"
   version="1.1"
   id="svg95"
   sodipodi:docname="sqlalchemy.svg"
   inkscape:version="1.1.2 (b8e25be8, 2022-02-05)"
   xmlns:inkscape="http://www.inkscape.org/namespaces/inkscape"
   xmlns:sodipodi="http://sodipodi.sourceforge.net/DTD/sodipodi-0.dtd"
   xmlns="http://www.w3.org/2000/svg"
   xmlns:svg="http://www.w3.org/2000/svg">
  <defs
     id="defs99" />
  <sodipodi:namedview
     id="namedview97"
     pagecolor="#ffffff"
     bordercolor="#666666"
     borderopacity="1.0"
     inkscape:pageshadow="2"
     inkscape:pageopacity="0.0"
     inkscape:pagecheckerboard="0"
     showgrid="false"
     inkscape:zoom="37.7"
     inkscape:cx="2.6392573"
     inkscape:cy="34.549072"
     inkscape:window-width="2306"
     inkscape:window-height="1281"
     inkscape:window-x="0"
     inkscape:window-y="25"
     inkscape:window-maximized="0"
     inkscape:current-layer="svg95"
     showguides="true"
     inkscape:guide-bbox="true">
    <sodipodi:guide
       position="-31.960476,39.936868"
       orientation="0,-1"
       id="guide600" />
  </sodipodi:namedview>
  <path
     fill="#333333"
     d="M 5.9750672,45.687488 C 5.5021231,45.612078 4.2905242,45.308991 3.2875507,45.034814 L 1.4599264,44.523109 2.3973521,42.800513 3.334074,41.077905 2.5770827,40.140487 C 1.5071536,38.81541 0.12568636,35.910106 0.11652406,34.974092 0.10692584,32.787006 2.9457102,29.616684 6.4289788,27.913112 8.8232818,26.73957 10.725616,26.711376 13.11076,27.828532 l 1.798018,0.841567 0.520871,-0.747121 c 0.283348,-0.407392 0.52016,-0.946584 0.52016,-1.183408 0,-0.236796 0.236795,-0.444749 0.520871,-0.444749 0.284027,0 0.520167,0.07539 0.520167,0.16069 0,0.208641 -2.091231,5.489212 -2.223739,5.621719 -0.05707,0.05639 -0.625183,-0.207921 -1.268696,-0.586415 -1.81705,-1.069933 -4.0978735,-1.779697 -5.8677006,-1.82692 -4.1169108,-0.104301 -5.5463011,3.918851 -2.6402932,7.438769 l 1.022006,1.240498 2.7918251,-2.2625 c 3.1329647,-2.526814 3.4924307,-2.583904 5.9346647,-0.898657 2.743902,1.892464 2.791125,4.76957 0.140933,7.77919 -2.347083,2.678358 -4.759715,3.417013 -8.9055197,2.725582 z m 7.0229178,-2.886275 c 1.362435,-1.069229 1.267988,-3.047682 -0.208641,-4.618738 -1.855115,-1.96859 -2.431664,-1.883306 -5.6971365,0.842268 -3.2464446,2.706537 -3.265477,2.602928 0.6153176,3.842722 2.5641669,0.832409 4.1732919,0.80421 5.2904519,-0.06627 z m 26.367667,10.429353 c -0.928263,-0.340416 -3.426883,-1.372305 -5.565337,-2.299864 -5.773255,-2.51764 -6.587332,-2.564867 -8.309932,-0.472936 -0.397526,0.482806 -0.832405,0.785178 -0.95575,0.662545 -0.369332,-0.369332 0.728796,-2.139167 2.053874,-3.302835 1.078388,-0.946584 1.437853,-1.079091 2.631123,-0.946584 0.756991,0.08458 3.274639,0.965613 5.592824,1.949558 5.234064,2.223735 6.767065,2.697383 8.76455,2.697383 2.43166,0 3.681328,-1.703576 2.914466,-3.965371 -0.188885,-0.568091 -0.132495,-0.757691 0.246714,-0.757691 0.709065,0 1.069226,2.650155 0.558229,4.173996 -0.21852,0.65267 -0.852138,1.58023 -1.410362,2.044004 -0.833105,0.700602 -1.363143,0.852141 -2.92504,0.842267 -1.050197,-0.0092 -2.668491,-0.283347 -3.596043,-0.624472 z M 25.878743,45.139134 c -2.148321,-1.003681 -4.088716,-2.915178 -5.205872,-5.148779 -1.788152,-3.577707 -1.239794,-5.867697 2.149024,-8.962606 2.848219,-2.602932 5.176974,-3.615772 8.30994,-3.615772 2.261091,0 2.743898,0.123337 4.210649,1.022002 3.473402,2.149025 4.334702,6.246903 2.243475,10.713401 -2.4514,5.243933 -7.62837,7.884219 -11.707216,5.991042 z m 7.192783,-2.489457 c 1.608417,-0.795052 2.716411,-4.467202 2.261796,-7.514883 -0.568091,-3.756742 -5.64991,-6.322321 -9.379165,-4.731521 -3.832864,1.637316 -3.889953,6.000213 -0.122617,9.927511 2.630423,2.754476 4.892926,3.473398 7.24001,2.318893 z m 7.2971,3.180185 c 0,-0.16141 0.59558,-0.444749 1.334238,-0.62518 l 1.33424,-0.331218 0.284028,-4.806939 c 0.312262,-5.319387 0.08458,-10.55345 -0.491957,-11.253348 -0.208641,-0.246674 -0.842271,-0.549766 -1.419528,-0.681569 -2.347083,-0.520868 -0.785886,-0.880333 3.766608,-0.880333 4.552494,0 6.000209,0.331259 3.832863,0.880333 -1.864273,0.463777 -1.874143,0.491972 -1.874143,8.082277 0,4.211349 0.151532,7.382372 0.369331,7.78906 0.303024,0.568091 0.756987,0.690736 2.49862,0.690736 3.596035,0 4.835837,-0.851434 5.811315,-4.003432 0.293186,-0.94588 1.050201,-0.775316 0.785183,0.180407 -0.123338,0.444045 -0.321381,1.797318 -0.444746,3.027945 l -0.226998,2.224438 h -7.779902 c -4.278316,0 -7.7792,-0.132495 -7.7792,-0.293185 z"
     id="path368"
     style="stroke-width:0.704829" />
  <path
     fill="#ca2727"
     d="m 58.037988,45.602204 c 0,-0.283307 0.274869,-0.56739 0.728793,-0.785178 0.606155,-0.284027 1.002973,-0.880332 2.44153,-3.691198 2.280832,-4.447461 5.877571,-12.085693 6.218008,-13.231044 0.264991,-0.870463 0.32214,-0.917686 1.306045,-1.031165 0.568091,-0.06627 1.041031,-0.1043 1.050197,-0.0853 0.0096,0.0192 0.795756,1.740929 1.751499,3.832864 0.946588,2.091227 2.848926,6.066464 4.230385,8.830094 2.309727,4.646937 2.565579,5.063487 3.340895,5.441281 0.47364,0.227678 0.842272,0.577957 0.842272,0.785882 0,0.331218 -0.406677,0.369331 -3.908282,0.369331 -3.511459,0 -3.908981,-0.03799 -3.908981,-0.378529 0,-0.226998 0.303103,-0.472944 0.785178,-0.634346 0.445449,-0.141694 0.785886,-0.406677 0.785886,-0.605448 0,-0.189565 -0.463774,-1.438557 -1.031877,-2.772805 l -1.03116,-2.432319 h -7.817967 l -0.747117,1.646482 c -1.401203,3.085742 -1.42939,3.814535 -0.123337,4.16413 0.653383,0.179686 0.833109,0.32214 0.756995,0.615321 -0.08466,0.341097 -0.42572,0.387608 -2.886279,0.387608 -2.641001,0.02 -2.782667,0 -2.782667,-0.425717 z M 70.85249,37.945651 c 0.132496,-0.236116 -2.810857,-6.662749 -3.085034,-6.729005 -0.198803,-0.05639 -3.246445,6.227871 -3.246445,6.700815 0,0.236836 6.18981,0.26503 6.331479,0.02839 z"
     id="path370"
     style="stroke-width:0.704829" />
</svg>
