<svg xmlns="http://www.w3.org/2000/svg" viewBox="0 0 80 80">
  <rect width="100%" height="100%" fill="#fff"/>
  <path fill="url(#a)" d="m48.53 37.61-14.42 4.7-12.54 5.55-3.51.93a87.36 87.36 0 0 1-5.78 5.04c-.89.7-2.2 2-2.87 2.84-1 1.24-1.77 2.56-2.1 3.58-.6 1.83-.31 3.68.85 5.4 1.48 2.18 4.44 4.4 7.87 5.9 1.76.78 4.72 1.77 6.93 2.33a92 92 0 0 0 14.78 2.1c.8.03 1.86.03 1.91 0 .09-.06.7-1.22 1.41-2.67a67.25 67.25 0 0 0 5.11-13.53 62.8 62.8 0 0 0 1.3-9.38c.08-1.06.11-4.6.05-5.8-.1-1.95-.27-3.55-.55-5.11a1.3 1.3 0 0 1-.03-.45c.04-.04.17-.08 1.95-.6l-.36-.83Zm-3.3 1.94c.14 0 .49 3.34.58 5.46.02.45.01.74-.02.74-.08 0-1.84-1.03-3.1-1.82a86.25 86.25 0 0 1-3.48-2.31c-.1-.09-.1-.09.8-.4 1.52-.52 5.11-1.67 5.23-1.67Zm-7.34 2.41c.1 0 .34.14.94.52 2.25 1.4 5.3 3.1 6.6 3.67.41.18.46.1-.48.74a48.3 48.3 0 0 1-8.48 4.45c-.02 0 .04-.27.13-.6a31.41 31.41 0 0 0 1.16-7.66c0-1.09 0-1.1.11-1.12h.02Zm-1.51.58c.06.06.01 2.5-.07 3.17a27.62 27.62 0 0 1-1.25 5.5c-.04.06-1.53-1.4-2.03-1.97a14.75 14.75 0 0 1-2-2.92 9.05 9.05 0 0 1-.6-1.48c.16-.12 5.9-2.34 5.95-2.3Zm-7.13 2.8c.02 0 .03.01.03.02A14.77 14.77 0 0 0 31.26 49a18.74 18.74 0 0 0 3.05 3.17c.07.06.09.05-1.69.72-2.06.79-4.3 1.57-6.88 2.4l-1.85.6c-.1.04-.06-.03.22-.47a60.51 60.51 0 0 0 4.7-9.75c.05-.15.1-.2.25-.27a.45.45 0 0 1 .2-.05Zm-2.18.9c.03.03-.53 1.2-1.07 2.26a86.92 86.92 0 0 1-4.3 7.42c-.06.08-.08.05-.25-.28a9.92 9.92 0 0 1-.84-2.53c-.16-.85-.13-2.33.06-3.25.14-.68.13-.66.45-.83 1.39-.7 5.9-2.82 5.95-2.78Zm18.8.77v.46a60.32 60.32 0 0 1-.76 8.98l-.69-.2a28.08 28.08 0 0 1-5-2.15 22.88 22.88 0 0 1-2.56-1.56l1-.53a63.69 63.69 0 0 0 5.97-3.5c.67-.45 1.66-1.17 1.88-1.36l.16-.14Zm-27.03 3.22c.04 0 .03.09-.04.49-.05.28-.1.8-.12 1.17-.1 1.6.17 2.77.96 4.38.22.45.4.82.38.83a388.8 388.8 0 0 1-10.86 3.15c-.08.03-.09 0-.06-.18.25-1.6 1.47-3.7 3.18-5.46a14.24 14.24 0 0 1 3.58-2.74 92.6 92.6 0 0 1 2.98-1.64Zm17 3.05s.28.13.6.32a32.58 32.58 0 0 0 8.34 3.24l.25.06-.34.2c-1.45.8-6.21 2.78-11.08 4.6a205.27 205.27 0 0 0-1.79.66s.2-.4.45-.85a53.96 53.96 0 0 0 3.57-8.23Zm-1.73.57s-.08.23-.2.5a70.61 70.61 0 0 1-4.53 8.92l-.73-.43a22.31 22.31 0 0 1-5.7-4.85l-.2-.24 1-.28a70.84 70.84 0 0 0 10.36-3.62Zm10.77 3.76c0 .25-.55 2.5-1 4.11a128.94 128.94 0 0 1-1.81 5.83l-.14-.03a45.01 45.01 0 0 1-8.86-2.5c-.76-.3-1.86-.79-1.92-.84-.02-.02.64-.33 1.46-.69 4.96-2.17 10.1-4.63 11.86-5.69.22-.13.37-.2.4-.2Zm-24.86.85c.02.02-1.36 2.01-3.3 4.72l-1.76 2.47c-.3.42-.74 1.08-.99 1.47l-.46.7-.49-.4c-.57-.49-1.57-1.5-2.03-2.08a8.94 8.94 0 0 1-1.82-3.52c-.11-.52-.12-.78 0-.82.15-.04 3.06-.73 5.8-1.36a658.33 658.33 0 0 0 5.05-1.18Zm1.4.53.34.4a20.3 20.3 0 0 0 5.12 4.17c.35.2.6.38.59.39a847.69 847.69 0 0 1-13 4.59l-.21-.15-.2-.14.31-.45c1.03-1.48 2.3-3.11 5.12-6.5L21.4 59Zm8.7 6.22c0-.01.49.16 1.08.38 1.42.53 2.53.88 4.04 1.26 1.85.46 4.53.92 6.11 1.06.25.02.37.05.33.07-.07.05-1.68.58-2.86.95a775.47 775.47 0 0 1-13.9 4.1c-.1.02-.47-.08-.47-.13 0-.02.26-.35.57-.73a66.06 66.06 0 0 0 5.1-6.96Zm-1.93.05c.01.02-.76 1.26-2.12 3.4l-1.45 2.29-.73 1.2-.32.55-.16-.04c-.39-.1-3.15-1.08-3.87-1.37-.9-.36-1.85-.8-2.54-1.17a10.57 10.57 0 0 1-1.88-1.19l3.31-.9a293.78 293.78 0 0 0 9.76-2.77Zm13.57 3.19h.01c.05.1-1.72 5-2.37 6.56-.14.35-.2.43-.27.43a197.07 197.07 0 0 1-12.72-2.07l-.27-.06 1.63-.37c3.5-.78 5.17-1.2 6.87-1.73a49.63 49.63 0 0 0 6.42-2.47c.34-.16.62-.28.7-.3Z"/>
  <path fill="url(#b)" d="M33.67 4c-.24-.03-4.12 1.37-6.6 2.38-3.37 1.37-5.99 2.68-7.6 3.81A5.55 5.55 0 0 0 18 11.66c-.04.11-.06.24-.06.37l1.46 1.38 3.48 1.11L31.15 16l9.46 1.63.1-.82-.09-.01-1.24-.2-.25-.44a83.1 83.1 0 0 1-3.54-6.98A36.8 36.8 0 0 1 34 4.8c-.2-.73-.22-.78-.33-.79Zm-.19.56h.02l.1.68c.18 1.52.52 3 1.06 4.59.4 1.2.4 1.13-.07 1A132.16 132.16 0 0 0 23.8 9a46.6 46.6 0 0 1 3.78-1.98c1.5-.7 5.6-2.4 5.9-2.46Zm-10.5 4.88.42.14a65.14 65.14 0 0 0 12 2.24l-.68.36a58.4 58.4 0 0 0-4.43 2.46c-.34.22-.66.4-.7.39l-.51-.08-.44-.07-1.1-1.07a473.1 473.1 0 0 0-4-3.84l-.56-.53Zm-.43.34 1.53 1.92a269.8 269.8 0 0 0 2.2 2.74 46.9 46.9 0 0 1-5.78-1.3l-.6-.18v-.15c.01-.74.94-1.82 2.51-2.93l.14-.1Zm13.06 2.61c.04 0 .1.1.23.4.37.81 1.53 3.02 1.8 3.44.1.14.24.15-1.3-.1-3.68-.59-4.88-.79-4.88-.81a21.38 21.38 0 0 0 4.1-2.9c.01-.02.03-.03.05-.03Z"/>
  <path fill="url(#c)" d="M18.07 11.52s-.24.38-.02.94c.14.35.56.77 1.02 1.21 0 0 4.85 4.73 5.44 5.41a15.14 15.14 0 0 1 3.96 10.36c.07 2.7-.45 5.08-1.72 7.84-2.27 4.95-7.05 10.4-14.43 16.47l1.09-.36c.7-.52 1.64-1.07 3.87-2.3a138.8 138.8 0 0 1 18-8.05c10.2-3.84 26.97-8.33 36.51-9.8l1-.15-.16-.24a26.18 26.18 0 0 0-9.92-9.52c-4.26-2.38-9.8-4.24-16.8-5.63-1.32-.27-4.21-.76-6.57-1.13-5-.78-8.21-1.3-11.77-1.92-1.28-.22-3.18-.54-4.44-.82-.66-.14-1.92-.44-2.89-.77-.8-.32-1.93-.62-2.17-1.54Zm2.8 2.72a31.61 31.61 0 0 0 3.42.99c.66.16 1.2.3 1.21.32a96.37 96.37 0 0 1 1.8 5.9c-.02 0-.14-.19-.28-.43a22.75 22.75 0 0 0-5.62-6.35l-.53-.43Zm5.37 1.48c.06 0 .3.04.59.1 1.85.42 5.17 1.06 7.3 1.41.36.06.65.13.65.15a40.34 40.34 0 0 0-2.58 1.56 21.33 21.33 0 0 0-3.68 3.03 36.27 36.27 0 0 0-2.29-6.24h.01Zm9.44 1.8c.07.02.18.39.4 1.21a18.16 18.16 0 0 1 .45 5.93l-.04.12-.56-.19c-1.16-.37-3.06-.93-4.68-1.38-.93-.25-1.68-.48-1.68-.5 0-.07 1.34-1.42 1.92-1.93 1.1-.98 4.09-3.3 4.2-3.26Zm.75.1c.04-.02 4.52.75 6.55 1.14 1.52.3 3.71.75 3.84.8.07.03-.16.16-.89.48a46.89 46.89 0 0 0-8.17 4.56c-.01 0-.02-.3-.02-.69a15.32 15.32 0 0 0-1.3-6.28Zm11.58 2.3c.04.03-.11.91-.24 1.44a27.47 27.47 0 0 1-3.2 7.03 4.5 4.5 0 0 1-.65-.34 34.7 34.7 0 0 0-4.28-2.1c-.44-.17-.81-.34-.83-.35a65.2 65.2 0 0 1 5.29-3.5c1.48-.9 3.87-2.22 3.91-2.18Zm.83.13a65.15 65.15 0 0 1 10.54 3.56l.8.36-.57.13a80.9 80.9 0 0 0-13.18 4.12c-.02 0 .08-.25.22-.55a22.41 22.41 0 0 0 2.11-7.26c.02-.2.05-.36.08-.36ZM29.1 24.58c.03-.03 1.54.33 2.37.56 1.24.35 3.87 1.23 3.88 1.3l-.65.56a81.95 81.95 0 0 0-4.45 4.03c-.49.47-.9.86-.92.86-.02 0-.03-.07-.02-.16.25-1.83.2-4.18-.15-6.57-.04-.3-.07-.56-.06-.58Zm31.83.03c.02.03-.7 1.16-1.15 1.8-.66.95-1.61 2.18-3.78 4.91a1686.76 1686.76 0 0 0-3.67 4.6 22.75 22.75 0 0 0-5.53-5.97 1.28 1.28 0 0 1-.22-.18c0-.03 1.85-.82 3.26-1.4 2.46-1 5.82-2.2 8.33-2.96 1.33-.41 2.74-.82 2.76-.8Zm.84.22c.04 0 .3.12.62.3a36.82 36.82 0 0 1 9.26 7.53l-1.09.1a107.49 107.49 0 0 0-16.84 2.84c-.03 0 .4-.42.93-.94 3.32-3.19 4.83-5.2 6.61-8.8l.5-1.02ZM37.5 27.32c.15.03 1.57.7 2.64 1.23.97.49 2.45 1.27 2.53 1.34 0 .01-.51.28-1.16.6a73.76 73.76 0 0 0-6.6 3.7c-.06 0-.04-.04.26-.57a23.1 23.1 0 0 0 2.21-6c.04-.2.09-.3.12-.3Zm-1.42.25c.03.03-.34 1.38-.57 2.1A27.27 27.27 0 0 1 33 35.1l-.28.44-.6-.6a8.01 8.01 0 0 0-2.04-1.49 3.04 3.04 0 0 1-.52-.3 72.28 72.28 0 0 1 6.51-5.57Zm8.66 3.57.53.34a42.54 42.54 0 0 1 5.83 4.62l.13.14-.88.25a161.44 161.44 0 0 0-14.31 4.6c-.07 0-.13.06 1-.97a48.12 48.12 0 0 0 7.32-8.4l.38-.58Zm-2.28.57c.03.02-1.47 2.13-2.36 3.31a142.61 142.61 0 0 1-5.32 6.54c-.03 0-.05-.15-.05-.4 0-1.32-.33-2.73-.92-3.92-.25-.5-.3-.63-.24-.68a100.91 100.91 0 0 1 8.9-4.85ZM28.7 35.08a11.97 11.97 0 0 1 2.44 1.55c.01.02-.27.26-.64.52-1.04.75-2.6 1.94-3.52 2.66-.96.77-1 .79-.88.62a19.55 19.55 0 0 0 2.37-4.8c.1-.3.2-.55.23-.55Zm3.66 2.88c.05 0 .12.09.42.53A7.9 7.9 0 0 1 34 41.66l.02.22-1.49.58a134.8 134.8 0 0 0-6.8 2.82 71.1 71.1 0 0 0-2.79 1.34l.75-.56a44.16 44.16 0 0 0 8.67-8.1Zm-1.69.42a36.36 36.36 0 0 1-9.47 8.19c-.07.04.03-.07 1.16-1.3.71-.78 1.26-1.42 1.88-2.23.41-.53.49-.6 1.09-1.04 1.61-1.16 5.3-3.66 5.34-3.62Z"/>
  <linearGradient id="a" x1="20.59" x2="48.89" y1="73.53" y2="56.81" gradientUnits="userSpaceOnUse">
    <stop stop-color="#909CA9"/>
    <stop offset="1" stop-color="#EDEDEE"/>
  </linearGradient>
  <linearGradient id="b" x1="17.94" x2="40.71" y1="10.81" y2="10.81" gradientUnits="userSpaceOnUse">
    <stop stop-color="#939FAB"/>
    <stop offset="1" stop-color="#DCDEE1"/>
  </linearGradient>
  <radialGradient id="c" cx="0" cy="0" r="1" gradientTransform="matrix(-29 -4.4 8.8 -58 39.42 30.13)" gradientUnits="userSpaceOnUse">
    <stop stop-color="#EE352C"/>
    <stop offset="1" stop-color="#A91D22"/>
  </radialGradient>
</svg>