<svg viewBox="0 0 80 80" xmlns="http://www.w3.org/2000/svg">
<rect width="100%" height="100%" fill="white"/>
<path d="M48.5318 37.6148L34.1082 42.3184L21.5688 47.857L18.0559 48.7854C17.1653 49.632 16.2201 50.4918 15.2136 51.3677C14.1072 52.3305 13.0667 53.203 12.2755 53.8336C11.3945 54.5358 10.0845 55.8356 9.41498 56.669C8.41884 57.909 7.63986 59.2312 7.30493 60.2481C6.70236 62.0776 6.99595 63.9306 8.15807 65.6407C9.64258 67.8252 12.5978 70.0448 16.0348 71.5557C17.788 72.3264 20.7465 73.32 22.9649 73.8802C26.6619 74.8137 33.807 75.8281 37.7421 75.9788C38.5401 76.0094 39.6025 76.0065 39.6514 75.9742C39.7377 75.9172 40.3503 74.7572 41.0611 73.3053C43.4795 68.365 45.2292 63.7337 46.1708 59.7782C46.7409 57.3832 47.1854 54.1895 47.4734 50.4028C47.554 49.342 47.5832 45.8043 47.5213 44.6019C47.4204 42.6452 47.2481 41.0504 46.9715 39.4853C46.9309 39.2559 46.916 39.0542 46.9373 39.0359C46.9774 39.0015 47.1136 38.9578 48.8854 38.4428L48.5318 37.6148ZM45.2356 39.5491C45.3666 39.5491 45.7152 42.8918 45.8058 45.0125C45.8251 45.4631 45.8212 45.7515 45.7944 45.7515C45.7084 45.7515 43.9473 44.7174 42.6989 43.9335C41.6088 43.2489 39.54 41.8741 39.2111 41.6159C39.1073 41.5344 39.1183 41.5304 40.0095 41.2235C41.5259 40.7013 45.121 39.5491 45.2356 39.5491ZM37.888 41.9603C37.9812 41.9601 38.235 42.1001 38.8347 42.4758C41.0844 43.8852 44.1309 45.5807 45.4363 46.1507C45.8411 46.3275 45.8873 46.259 44.955 46.8921C42.9677 48.2416 40.4971 49.5685 37.4638 50.916C36.9351 51.1509 36.4872 51.3426 36.4692 51.3426C36.4511 51.3426 36.5101 51.0744 36.5992 50.7449C37.334 48.0267 37.7487 45.283 37.7603 43.0826C37.7661 41.9944 37.7663 41.9886 37.8698 41.9626C37.8746 41.9614 37.8818 41.9603 37.888 41.9603ZM36.3757 42.5374C36.4408 42.6028 36.3936 45.0414 36.3141 45.7059C36.1232 47.3 35.8113 48.7744 35.3126 50.4507C35.1935 50.8512 35.0818 51.1965 35.064 51.2171C35.0207 51.2673 33.5295 49.8144 33.0338 49.2394C32.1868 48.2569 31.5168 47.2809 31.0287 46.3195C30.7806 45.8309 30.385 44.8659 30.4219 44.8391C30.5894 44.7174 36.3347 42.4963 36.3757 42.5374ZM29.2517 45.3455C29.2651 45.3468 29.2755 45.3505 29.2813 45.3569C29.3028 45.3806 29.3788 45.5577 29.4501 45.7515C29.7975 46.695 30.5785 48.0965 31.2568 48.993C31.9973 49.9719 32.9628 51.0148 33.7706 51.7076C34.03 51.93 34.272 52.1376 34.3067 52.1684C34.3758 52.2297 34.3991 52.2193 32.6209 52.8938C30.5601 53.6755 28.3156 54.4582 25.7387 55.2912C24.7567 55.6087 23.9256 55.8769 23.8933 55.8889C23.7952 55.9253 23.8253 55.8648 24.1123 55.4167C25.3927 53.4177 27.3324 49.5073 28.4168 46.7416C28.6049 46.2619 28.7839 45.7814 28.816 45.674C28.8631 45.5162 28.9096 45.4625 29.0578 45.3957C29.1397 45.3587 29.2114 45.3415 29.2517 45.3455ZM27.0686 46.2466C27.0976 46.2721 26.5449 47.4395 26.0011 48.5003C24.9463 50.5579 23.7834 52.5828 22.2395 55.054C21.9731 55.4804 21.7276 55.8702 21.6943 55.9185C21.6395 55.9981 21.617 55.9719 21.4479 55.6357C21.0783 54.9006 20.7687 53.9731 20.6085 53.1105C20.45 52.2568 20.4769 50.7788 20.6678 49.8621C20.8096 49.1811 20.8033 49.1962 21.124 49.0318C22.5105 48.3212 27.0235 46.2068 27.0686 46.2466ZM45.872 47.0107V47.4738C45.8697 49.9059 45.61 53.2357 45.2333 55.6653C45.1672 56.0917 45.1099 56.4434 45.1055 56.4478C45.1012 56.4521 44.7939 56.362 44.4235 56.247C42.7869 55.739 41.0126 54.9799 39.4118 54.1028C38.3518 53.5219 36.8186 52.5809 36.8615 52.5379C36.8732 52.5262 37.3248 52.2869 37.8652 52.0064C40.0058 50.8953 42.0505 49.6975 43.8281 48.5094C44.4951 48.0637 45.493 47.3422 45.7146 47.1476L45.872 47.0107ZM18.836 50.234C18.8805 50.2318 18.8692 50.3162 18.7995 50.7176C18.7511 50.9967 18.6964 51.5241 18.6764 51.8878C18.5887 53.482 18.8472 54.6582 19.639 56.2676C19.8591 56.715 20.0313 57.088 20.0222 57.0956C19.943 57.162 12.7332 59.2717 10.4666 59.8923C9.79468 60.0762 9.20743 60.2383 9.15949 60.2527C9.08084 60.2764 9.07383 60.2592 9.10246 60.0748C9.35073 58.4753 10.5708 56.376 12.2755 54.6137C13.4088 53.4421 14.3163 52.7481 15.8592 51.8673C16.9665 51.2351 18.6862 50.2864 18.8132 50.2385C18.8218 50.2353 18.8297 50.2343 18.836 50.234ZM35.8419 53.2793C35.8487 53.2711 36.1158 53.4141 36.435 53.5986C38.7637 54.9454 42.0133 56.2086 44.7839 56.8424L45.0348 56.8994L44.6904 57.091C43.2431 57.8941 38.4768 59.8773 33.6086 61.7035C32.898 61.9701 32.2045 62.2315 32.0689 62.2852C31.9332 62.3389 31.8225 62.3757 31.8225 62.365C31.8225 62.3543 32.0233 61.9679 32.2696 61.5073C33.6362 58.952 35.0004 55.8468 35.7004 53.6922C35.7718 53.4725 35.835 53.2875 35.8419 53.2793ZM34.1082 53.8473C34.1157 53.8548 34.0305 54.0837 33.9189 54.3537C32.9688 56.6511 31.724 59.1574 30.1368 61.9727C29.7328 62.6891 29.3923 63.2741 29.3794 63.2729C29.3665 63.2717 29.038 63.0773 28.6495 62.8395C26.3375 61.4241 24.292 59.6819 22.9489 57.9875L22.7573 57.748L23.7542 57.4743C27.3099 56.5002 30.3253 55.4585 33.3235 54.1666C33.7481 53.9837 34.1007 53.8398 34.1082 53.8473ZM44.8774 57.6066C44.8825 57.6077 44.8843 57.6112 44.8843 57.6157C44.8843 57.8581 44.3343 60.1008 43.876 61.724C43.4916 63.0856 43.1689 64.1506 42.5712 66.0376C42.3072 66.871 42.0806 67.5513 42.0671 67.5477C42.0536 67.5442 41.9902 67.5321 41.9256 67.5204C38.6867 66.9342 35.7856 66.1168 33.068 65.0248C32.3077 64.7193 31.2098 64.233 31.1519 64.1762C31.1322 64.157 31.7888 63.8477 32.6095 63.4896C37.5729 61.3241 42.7155 58.8579 44.4737 57.8005C44.6851 57.6733 44.8417 57.5992 44.8774 57.6066ZM20.0177 58.4574C20.0443 58.4827 18.6559 60.4701 16.7169 63.1839C16.0429 64.1272 15.2512 65.239 14.9581 65.6544C14.665 66.0699 14.2216 66.7274 13.9704 67.1166L13.5119 67.8238L13.0237 67.4132C12.4509 66.9322 11.4483 65.9111 10.9935 65.3442C10.0576 64.1775 9.42344 62.9497 9.17317 61.8221C9.05763 61.3015 9.05423 61.0363 9.16405 61.0032C9.32277 60.9554 12.2344 60.2699 14.965 59.6368C16.4817 59.2851 18.2353 58.8734 18.8634 58.7221C19.4916 58.5707 20.0115 58.4516 20.0177 58.4574ZM21.4137 58.9912L21.765 59.3836C23.3356 61.1331 24.9328 62.4387 26.8816 63.5649C27.2257 63.7637 27.4879 63.9366 27.4656 63.9504C27.3844 64.0005 20.7266 66.3677 17.6476 67.4405C15.9111 68.0456 14.4847 68.5389 14.4768 68.5378C14.4689 68.5366 14.3706 68.4723 14.2601 68.394L14.0594 68.2503L14.3741 67.7964C15.3958 66.3166 16.6793 64.6892 19.4885 61.3089L21.4137 58.9912ZM30.1139 65.2096C30.1217 65.2 30.6084 65.3726 31.1975 65.5928C32.6174 66.1237 33.7318 66.47 35.2397 66.8474C37.0917 67.311 39.7681 67.7745 41.3531 67.9082C41.5964 67.9287 41.7206 67.9564 41.6816 67.9812C41.608 68.0278 40.0032 68.5638 38.8233 68.9347C36.9504 69.5234 31.2268 71.2143 26.56 72.5571C25.6942 72.8062 24.954 73.0167 24.9153 73.0247C24.8107 73.0465 24.4453 72.9506 24.4453 72.9016C24.4453 72.8783 24.707 72.5471 25.0247 72.167C26.5934 70.2907 28.1517 68.1951 29.4524 66.2133C29.8082 65.6712 30.1063 65.2192 30.1139 65.2096ZM28.1864 65.2643C28.2004 65.2784 27.4272 66.5165 26.0672 68.6587C25.493 69.5631 24.8419 70.5927 24.6187 70.9466C24.3956 71.3005 24.0686 71.8383 23.8933 72.1442L23.574 72.7008L23.412 72.6575C23.0212 72.5517 20.2646 71.5778 19.5364 71.2888C18.6338 70.9306 17.6933 70.498 16.9997 70.1231C16.1331 69.6548 15.0339 68.9597 15.1201 68.9324C15.1449 68.9245 16.6363 68.5164 18.4323 68.0268C23.2102 66.7244 25.853 65.9762 27.5865 65.4354C27.9104 65.3344 28.1802 65.2581 28.1864 65.2643ZM41.7568 68.4465C41.7671 68.4443 41.7719 68.4442 41.7728 68.4465C41.818 68.5595 40.0492 73.4586 39.4027 75.0116C39.2579 75.3595 39.2043 75.4437 39.129 75.4405C38.946 75.4325 36.3813 75.0739 34.829 74.8382C32.1117 74.4257 27.5602 73.6309 26.4117 73.3692L26.1448 73.3099L27.7735 72.9426C31.2645 72.1561 32.9411 71.7342 34.642 71.2135C36.7871 70.5568 38.9112 69.7381 41.0565 68.7408C41.3957 68.5831 41.6848 68.4622 41.7568 68.4465Z" fill="url(#paint0_linear_195_86)"/>
<path d="M33.6671 4.00042C33.4259 3.97226 29.5549 5.36692 27.0678 6.37736C23.6978 7.74649 21.0813 9.05832 19.4671 10.1914C18.8663 10.6132 18.1107 11.3717 18.0003 11.6627C17.959 11.7717 17.9396 11.899 17.9387 12.03L19.4032 13.4124L22.8774 14.521L31.1533 15.9992L40.6132 17.6256L40.709 16.8135C40.6803 16.809 40.6533 16.8044 40.6246 16.7998L39.3791 16.6037L39.1259 16.1588C37.8402 13.8902 36.4194 11.0828 35.5947 9.18315C34.956 7.71191 34.3427 6.01709 34.0024 4.78969C33.8004 4.06072 33.7793 4.01352 33.6671 4.00042ZM33.4846 4.56158C33.4942 4.55984 33.4991 4.55978 33.5006 4.56158C33.5082 4.57072 33.5522 4.875 33.5964 5.23679C33.7826 6.76047 34.1235 8.23819 34.6571 9.82871C35.0592 11.0272 35.065 10.9568 34.5864 10.8233C33.474 10.5128 28.4901 9.65732 24.8848 9.15806C24.3038 9.07761 23.8203 9.00607 23.8126 8.99838C23.7669 8.9526 26.4127 7.56635 27.5856 7.02064C29.0899 6.32073 33.1864 4.61522 33.4846 4.56158ZM22.98 9.44092L23.402 9.58463C25.7167 10.3725 31.5186 11.4808 34.7256 11.7471C35.0873 11.7772 35.3916 11.8094 35.4008 11.8179C35.41 11.8263 35.1027 11.9905 34.7187 12.1828C33.1717 12.9578 31.4689 13.9024 30.291 14.6396C29.9451 14.8561 29.6279 15.0307 29.5862 15.0274C29.5444 15.0241 29.3163 14.9874 29.0775 14.9476L28.6418 14.8768L27.5468 13.8138C25.6247 11.9534 24.1239 10.5142 23.5435 9.97014L22.98 9.44092ZM22.5512 9.78309L24.0841 11.697C24.928 12.7496 25.7737 13.7943 25.9615 14.0191C26.1492 14.244 26.2945 14.4345 26.2854 14.4412C26.2419 14.473 24.0637 14.0489 22.9093 13.7842C21.7242 13.5125 21.2341 13.3824 20.5004 13.1478L19.9028 12.9561L19.9051 12.8079C19.9126 12.0727 20.8393 10.9883 22.412 9.87889L22.5512 9.78309ZM35.6061 12.3904C35.6521 12.394 35.7006 12.4874 35.8365 12.7851C36.2083 13.5996 37.3656 15.8071 37.6454 16.2341C37.7375 16.3748 37.8836 16.3842 36.3474 16.136C32.6556 15.5397 31.4612 15.3401 31.4613 15.3171C31.4613 15.3031 31.572 15.2306 31.7076 15.1551C32.8509 14.5194 34.0045 13.7191 35.0312 12.8535C35.2767 12.6465 35.5126 12.4493 35.5559 12.4132C35.5737 12.3984 35.5907 12.3892 35.6061 12.3904Z" fill="url(#paint1_linear_195_86)"/>
<path d="M18.0658 11.5156C18.0658 11.5156 17.8262 11.8954 18.0521 12.46C18.1919 12.8094 18.6115 13.229 19.074 13.6736C19.074 13.6736 23.9187 18.3994 24.5123 19.0844C27.1965 22.1824 28.3623 25.2324 28.47 29.443C28.5391 32.1451 28.018 34.5204 26.7523 37.281C24.4838 42.229 19.704 47.6855 12.3219 53.753L13.4054 53.3949C14.1019 52.8731 15.0477 52.3159 17.2788 51.0955C22.4169 48.2851 28.1868 45.6999 35.2746 43.0363C45.4722 39.204 62.2465 34.7076 71.791 33.2457L72.7855 33.0928L72.6327 32.8533C71.76 31.4968 71.1643 30.6603 70.4474 29.7738C68.3539 27.1849 65.8195 25.0726 62.7144 23.3342C58.4473 20.9453 52.9127 19.0886 45.9161 17.6975C44.5934 17.4345 41.6968 16.9379 39.3396 16.5706C34.3465 15.7925 31.1261 15.2671 27.569 14.6476C26.2936 14.4263 24.3894 14.1066 23.1253 13.8333C22.4667 13.6908 21.2149 13.3948 20.242 13.0599C19.4388 12.7437 18.3077 12.438 18.0658 11.5156ZM20.8739 14.2416C20.8807 14.2354 21.0626 14.2917 21.2845 14.367C21.6933 14.5058 22.2328 14.6683 22.8607 14.8438C23.3006 14.9667 23.7842 15.0957 24.2978 15.227C24.9533 15.3946 25.4953 15.5386 25.5023 15.5464C25.5748 15.628 26.6757 19.1415 27.0512 20.4896C27.1945 21.0041 27.3032 21.4328 27.293 21.4431C27.2827 21.4534 27.1606 21.2639 27.0238 21.0234C25.7502 18.7836 23.7332 16.5059 21.4008 14.6727C21.1101 14.4442 20.8739 14.2502 20.8739 14.2416ZM26.2414 15.7243C26.2975 15.7204 26.5393 15.7609 26.8276 15.8247C28.6849 16.2354 32.0013 16.8757 34.1341 17.2344C34.4894 17.2942 34.7819 17.3586 34.7819 17.3781C34.7819 17.3977 34.6492 17.4817 34.4876 17.5629C34.1298 17.7429 32.6819 18.6096 32.1974 18.9339C30.988 19.7433 29.9006 20.6097 29.1087 21.3975C28.7905 21.7141 28.5242 21.9723 28.5156 21.9723C28.5071 21.9723 28.4515 21.7878 28.3925 21.5617C27.9966 20.0442 27.178 17.8033 26.4444 16.2262C26.3263 15.9724 26.23 15.7486 26.23 15.7289C26.23 15.7264 26.2333 15.7248 26.2414 15.7243ZM35.683 17.5196C35.7451 17.5403 35.8626 17.9069 36.0708 18.7308C36.4693 20.3086 36.6549 22.0805 36.5931 23.7197C36.5759 24.1758 36.5471 24.5995 36.5293 24.6618L36.495 24.7758L35.9316 24.5933C34.7701 24.2221 32.8724 23.6633 31.2462 23.2133C30.3223 22.9576 29.565 22.7293 29.565 22.7069C29.565 22.6393 30.913 21.2916 31.4925 20.7793C32.5994 19.8007 35.5774 17.4844 35.683 17.5196ZM36.4335 17.6268C36.4671 17.5955 40.9453 18.3709 42.9803 18.7605C44.4972 19.0509 46.6917 19.5105 46.824 19.5657C46.8879 19.5924 46.6607 19.7162 45.9321 20.0448C43.0499 21.3445 40.9147 22.5045 38.7921 23.925C38.2331 24.2991 37.7684 24.6048 37.7588 24.6048C37.7491 24.6048 37.7408 24.2925 37.7405 23.9113C37.7391 21.8414 37.3258 19.7523 36.568 17.9872C36.4865 17.7972 36.4253 17.6344 36.4335 17.6268ZM48.0125 19.917C48.0471 19.9517 47.9003 20.8348 47.773 21.3564C47.3767 22.98 46.3267 25.3896 45.031 27.6546C44.8027 28.0537 44.5985 28.3865 44.5748 28.3937C44.5511 28.4009 44.2561 28.2458 43.9201 28.0493C42.6531 27.3082 41.2185 26.6071 39.643 25.9575C39.2037 25.7763 38.8295 25.615 38.8104 25.597C38.7385 25.5296 42.2396 23.2117 44.0958 22.0978C45.5804 21.2069 47.9708 19.8754 48.0125 19.917ZM48.8405 20.0471C48.9413 20.0471 50.9274 20.5885 51.9543 20.8956C54.5122 21.6606 57.4629 22.7386 59.3771 23.6079L60.1732 23.9683L59.612 24.0983C54.9284 25.1743 50.914 26.416 47.0476 27.9854C46.7263 28.1158 46.4467 28.2226 46.4271 28.2226C46.4075 28.2226 46.51 27.9742 46.6529 27.6706C47.8151 25.2012 48.5658 22.61 48.7607 20.4097C48.7784 20.2095 48.8146 20.0471 48.8405 20.0471ZM29.0996 24.5842C29.1313 24.5529 30.6429 24.9071 31.4674 25.1385C32.7067 25.4865 35.3437 26.3688 35.3454 26.4365C35.3454 26.4497 35.0547 26.703 34.6998 26.9999C33.2741 28.1927 31.8989 29.4398 30.2516 31.0307C29.7632 31.5023 29.3482 31.8861 29.3277 31.8861C29.3072 31.8861 29.2981 31.8173 29.3095 31.7333C29.5576 29.902 29.5043 27.5505 29.1589 25.1568C29.1152 24.8534 29.0886 24.5951 29.0996 24.5842ZM60.9305 24.6139C60.9532 24.6365 60.2292 25.7681 59.7785 26.4137C59.121 27.3556 58.1679 28.5922 55.9964 31.3227C54.8558 32.7569 53.5693 34.38 53.1359 34.9291C52.7025 35.4783 52.3388 35.9283 52.3284 35.9283C52.3179 35.9283 52.1781 35.7316 52.0181 35.4926C50.794 33.6639 49.3415 32.0576 47.6087 30.6155C47.2853 30.3464 46.9205 30.0513 46.7989 29.9608C46.6773 29.8704 46.5782 29.7867 46.5776 29.7738C46.5765 29.744 48.4271 28.9503 49.8397 28.3755C52.2987 27.3748 55.6597 26.1765 58.1749 25.4054C59.5012 24.9988 60.9104 24.5937 60.9305 24.6139ZM61.7654 24.8329C61.8051 24.8248 62.0691 24.9525 62.3859 25.134C65.0348 26.6514 67.6306 28.6 69.6718 30.6041C70.2524 31.1742 71.6729 32.6518 71.6518 32.664C71.6464 32.6671 71.1558 32.706 70.5614 32.7507C65.9711 33.0959 60.1023 34.0724 54.4521 35.431C54.0684 35.5233 53.7366 35.5998 53.7153 35.5998C53.694 35.5998 54.114 35.1782 54.6483 34.6645C57.9664 31.4745 59.4802 29.4603 61.2613 25.8616C61.5265 25.3257 61.7515 24.8633 61.7608 24.8351C61.7614 24.8334 61.7628 24.8334 61.7654 24.8329ZM37.5033 27.3193C37.6549 27.3533 39.07 28.0118 40.138 28.5465C41.1147 29.0356 42.594 29.8232 42.6678 29.8924C42.677 29.9011 42.1559 30.1732 41.509 30.4969C39.4607 31.5216 37.7063 32.4894 35.8746 33.6084C35.3522 33.9275 34.9144 34.1901 34.9005 34.1901C34.8548 34.1901 34.8728 34.1506 35.1651 33.6152C36.1406 31.8287 36.9275 29.6957 37.3801 27.6113C37.4205 27.4252 37.4691 27.3116 37.5033 27.3193ZM36.0776 27.5748C36.1071 27.6043 35.7399 28.9531 35.5073 29.6734C35.0612 31.0549 34.3068 32.7916 33.582 34.0988C33.4118 34.4058 33.1506 34.8552 33.0026 35.098L32.7335 35.5382L32.1221 34.9474C31.4117 34.2587 30.8331 33.831 30.0942 33.451C29.8038 33.3016 29.5676 33.1633 29.5672 33.143C29.5659 33.0532 31.4258 31.3618 32.8612 30.1479C33.8887 29.279 36.0513 27.5485 36.0776 27.5748ZM44.7413 31.1379L45.2728 31.4824C46.4921 32.274 47.9359 33.339 49.0367 34.2562C49.6536 34.7702 50.8525 35.8438 51.0988 36.1039L51.2311 36.2431L50.3483 36.4894C45.3554 37.8748 41.4978 39.108 36.9969 40.762C36.4974 40.9456 36.0661 41.0973 36.0365 41.0973C35.9744 41.0973 35.9127 41.1544 37.0357 40.121C39.9146 37.4717 42.4577 34.5527 44.3581 31.7128L44.7413 31.1379ZM42.4648 31.7082C42.4908 31.7343 40.9893 33.8373 40.0969 35.025C39.0294 36.4458 37.128 38.821 35.8198 40.3674C35.2732 41.0134 34.805 41.5495 34.7796 41.5581C34.7518 41.5676 34.7345 41.4093 34.734 41.1589C34.7315 39.8395 34.3977 38.4294 33.8079 37.2354C33.5588 36.731 33.517 36.609 33.5683 36.5624C33.7736 36.3763 36.9496 34.5654 38.9518 33.492C40.3271 32.7547 42.4386 31.682 42.4648 31.7082ZM28.6959 35.082C28.7231 35.082 28.9779 35.21 29.2616 35.3671C29.9567 35.7522 30.5812 36.1759 31.1321 36.6354C31.1534 36.6532 30.8681 36.8862 30.4979 37.1532C29.4648 37.8986 27.8916 39.086 26.9804 39.8108C26.0191 40.5755 25.9872 40.5989 26.0954 40.4335C26.8153 39.3324 27.1773 38.7091 27.5553 37.9129C27.8913 37.2051 28.2262 36.3649 28.4655 35.634C28.5648 35.3304 28.6686 35.082 28.6959 35.082ZM32.3639 37.9608C32.4135 37.9546 32.4842 38.0471 32.7791 38.4877C33.4006 39.4164 33.8765 40.6549 33.9995 41.663L34.0246 41.8798L32.535 42.4569C29.8611 43.4945 27.3999 44.5173 25.7372 45.2786C25.2721 45.4916 24.4508 45.884 23.9146 46.1523C23.3784 46.4206 22.9406 46.6315 22.9406 46.6199C22.9406 46.6084 23.2773 46.3552 23.6888 46.0565C26.9519 43.6876 29.7653 41.0941 31.8849 38.5014C32.1116 38.2241 32.3175 37.9836 32.3434 37.9676C32.3503 37.9634 32.3568 37.9616 32.3639 37.9608ZM30.6713 38.3805C30.7145 38.4237 29.4673 39.834 28.6274 40.6913C26.5252 42.8369 24.4411 44.519 21.8593 46.1569C21.5363 46.3618 21.2411 46.5471 21.2023 46.5697C21.1315 46.6112 21.2253 46.5046 22.3589 45.2695C23.0732 44.4912 23.62 43.8451 24.2408 43.0386C24.6496 42.5074 24.7277 42.4329 25.3266 42.0006C26.9399 40.8362 30.6284 38.3376 30.6713 38.3805Z" fill="url(#paint2_radial_195_86)"/>
<linearGradient id="paint0_linear_195_86" x1="20.5862" y1="73.529" x2="48.8854" y2="56.8075" gradientUnits="userSpaceOnUse">
<stop stop-color="#909CA9"/>
<stop offset="1" stop-color="#EDEDEE"/>
</linearGradient>
<linearGradient id="paint1_linear_195_86" x1="17.9387" y1="10.8128" x2="40.709" y2="10.8128" gradientUnits="userSpaceOnUse">
<stop stop-color="#939FAB"/>
<stop offset="1" stop-color="#DCDEE1"/>
</linearGradient>
<radialGradient id="paint2_radial_195_86" cx="0" cy="0" r="1" gradientUnits="userSpaceOnUse" gradientTransform="translate(39.4184 30.1261) rotate(-171.401) scale(29.3774 58.6727)">
<stop stop-color="#EE352C"/>
<stop offset="1" stop-color="#A91D22"/>
</radialGradient>
</svg>