<svg xmlns="http://www.w3.org/2000/svg" viewBox="0 0 80 80">
  <rect width="100%" height="100%" fill="#fff"/>
  <path fill="#FFF085" d="M2.2 55.4c-.5-1.3 0-2.7 2.2-3.2l12.2-2.5L6 56.3c-1.9 1.1-3.2.5-3.7-.8Zm13.3-46c1.1-.8 2.6-.6 3.7 1.3L24.9 22l-9.1-8.6c-1.6-1.5-1.3-3-.3-3.8Zm62.3 46c.5-1.3 0-2.7-2.2-3.2l-12.2-2.5L74 56.3c1.9 1.1 3.2.5 3.7-.8Zm-13.3-46c-1.1-.8-2.6-.6-3.7 1.3L55.1 22l9.1-8.6c1.6-1.5 1.3-3 .3-3.8Z"/>
  <path fill="#FFDF61" d="M70.8 31.2c.4 0 .6.6.3 1L56.3 46.7c-.2.2-.2.3-.2.5l3.7 20.5c0 .5-.4.8-.8.6L40.5 59a.6.6 0 0 0-.5 0l-14.8 7.9c3.5-27.7 19.2-49 19.2-49L49.7 28c0 .2.2.3.4.3l20.7 2.8Z"/>
  <path fill="#FFC74F" d="m40.3 9.5 4.2 8.2S28.7 39.2 25.2 66.8l-3.6 2a.5.5 0 0 1-.8-.6l3.4-20.6a.5.5 0 0 0-.2-.5L9 32.7a.5.5 0 0 1 .2-1l20.6-3.1a.5.5 0 0 0 .4-.3l9.1-18.8c.2-.4.8-.4 1 0Z"/>
</svg>