<svg xmlns="http://www.w3.org/2000/svg" viewBox="0 0 80 80"><path d="M.18 57.35c-.52-1.34.09-2.81 2.31-3.32l12.91-2.64v.03L4.14 58.24c-1.98 1.13-3.43.47-3.95-.87v-.02ZM14.26 9.01c1.15-.86 2.73-.67 3.82 1.33l6.03 11.72h-.01v.02l-9.62-9.02c-1.62-1.6-1.37-3.17-.23-4.04h.01ZM79.82 57.35c.52-1.34-.09-2.81-2.31-3.32L64.6 51.39v.03l11.26 6.82c1.98 1.13 3.43.47 3.95-.87v-.02ZM65.74 9.01c-1.15-.86-2.73-.67-3.82 1.33l-6.03 11.72h.01v.02l9.62-9.02c1.62-1.6 1.37-3.17.23-4.04h-.01Z" style="fill:#fff085"/><g><path d="M72.39 31.92c.46.06.65.63.32.96l-15.6 15.46c-.13.13-.2.32-.16.5l3.89 21.62c.09.46-.4.82-.82.61L40.5 61.01a.615.615 0 0 0-.53 0l-15.53 8.33c3.64-29.1 20.24-51.63 20.24-51.63l5.51 10.92c.08.17.24.28.42.31l21.77 2.97Z" style="fill:#ffdf61"/><path d="m40.31 9.03 4.38 8.7s-16.6 22.53-20.24 51.63l-3.83 2.05c-.41.22-.9-.13-.83-.59l3.53-21.68a.558.558 0 0 0-.17-.5L7.29 33.44c-.34-.32-.16-.9.31-.97l21.7-3.34a.55.55 0 0 0 .42-.31l9.56-19.78c.2-.42.8-.43 1.01-.02Z" style="fill:#ffc74f"/></g></svg>