<svg viewBox="0 0 80 80" xmlns="http://www.w3.org/2000/svg">
<rect width="100%" height="100%" fill="white"/>
<path d="M2.16534 55.3906C1.67126 54.1175 2.25085 52.7208 4.36016 52.2362L16.6265 49.7278V49.7563L5.92789 56.2363C4.04661 57.3099 2.66891 56.6828 2.17484 55.4096V55.3906H2.16534ZM15.5433 9.46093C16.636 8.64381 18.1372 8.82434 19.1728 10.7246L24.9022 21.8602H24.8927V21.8792L15.7523 13.309C14.2131 11.7888 14.4506 10.2971 15.5338 9.47043H15.5433V9.46093ZM77.8344 55.3906C78.3285 54.1175 77.7489 52.7208 75.6396 52.2362L63.3733 49.7278V49.7563L74.0719 56.2363C75.9531 57.3099 77.3308 56.6828 77.8249 55.4096V55.3906H77.8344ZM64.4564 9.46093C63.3638 8.64381 61.8626 8.82434 60.8269 10.7246L55.0976 21.8602H55.1071V21.8792L64.2474 13.309C65.7866 11.7888 65.5491 10.2971 64.466 9.47043H64.4564V9.46093Z" fill="#FFF085"/>
<path d="M70.775 31.2286C71.212 31.2856 71.3926 31.8272 71.079 32.1407L56.2569 46.8299C56.1333 46.9534 56.0668 47.1339 56.1048 47.3049L59.8009 67.8469C59.8864 68.284 59.4208 68.6261 59.0218 68.4265L40.4751 58.8681C40.3964 58.8306 40.3104 58.8111 40.2233 58.8111C40.1361 58.8111 40.0501 58.8306 39.9715 58.8681L25.2158 66.7828C28.6743 39.1337 44.4466 17.7271 44.4466 17.7271L49.6819 28.1026C49.7579 28.2642 49.9099 28.3687 50.081 28.3972L70.7655 31.2191L70.775 31.2286Z" fill="#FFDF61"/>
<path d="M40.2945 9.47991L44.4561 17.7461C44.4561 17.7461 28.6838 39.1528 25.2253 66.8018L21.5863 68.7496C21.1967 68.9586 20.7312 68.6261 20.7977 68.189L24.1517 47.59C24.1661 47.5036 24.1588 47.415 24.1307 47.3321C24.1025 47.2492 24.0542 47.1746 23.9901 47.1149L8.92093 32.6728C8.59788 32.3688 8.76891 31.8177 9.21548 31.7512L29.8335 28.5777C29.9192 28.5655 30.0005 28.5322 30.0702 28.4808C30.1398 28.4294 30.1956 28.3615 30.2326 28.2832L39.3159 9.48941C39.5059 9.09035 40.076 9.08085 40.2755 9.47041L40.2945 9.47991Z" fill="#FFC74F"/>
</svg>
