<svg xmlns="http://www.w3.org/2000/svg" viewBox="0 0 80 80">
  <rect width="100%" height="100%" fill="#FFE100"/>
  <path fill="#1D1D1B" d="M35.1 27.7c-3.6 0-7-1.2-10-3.4-2.5-2-7-6-7.3-9.5a4 4 0 0 1 .9-3c.7-.9 1.7-1.4 3-1.5h.4c2.2 0 5.2 1.3 8 3.5-.2-2.7.6-4.7 2.1-5.4l1-.2c1.7 0 3 1.8 4 3.8 1.6-4.6 4.3-8.8 7.2-9h.2c.4 0 .8 0 1.2.3 4 1.8 2.3 10 .9 14.1a17.4 17.4 0 0 1-8.7 10l-.3.1h-.3c-.7.2-1.5.2-2.3.2Z"/>
  <path fill="url(#a)" d="M36 25.5c-3.4.2-6.8-.8-9.6-3-3.9-3-6.4-6-6.6-8a1.7 1.7 0 0 1 .4-1.3c.4-.4.9-.6 1.6-.7 2.2-.2 5.8 1.7 8.9 4.6l2.9 2.7-1-4c-.7-2.7-.5-5 .4-5.3l.2-.1c.5 0 1.8 1.2 3 4.8l1.2 3.8 1-3.9c1.5-5.7 4.3-9.8 6.1-9.9h.5c2 1 1.4 6.7-.2 11.5-1.4 3.8-4.1 7-7.7 8.7h-1Z"/>
  <path fill="#1D1D1B" d="M43 75c-1 0-1.9-.4-2.6-1-.8.5-1.8.7-2.7.7-1.2 0-2.5-.4-3.4-1.2-.8-.6-1.5-1.4-2.2-2.2l-1.2.3c-1 0-1.7-.5-2.2-1-5.2-4.4-9.4-10-12.4-16.2-.3-.7-2-4-2-6.7-1.1-1.4-1.9-3-2.3-4.6a6.4 6.4 0 0 1 1-5.4 9 9 0 0 1-1.8-7.5c1-3.6 2.8-6.8 5.5-9.3.8-.7 1.6-1.1 2.4-1.1a2.6 2.6 0 0 1 2 .9 10 10 0 0 1 3-2.4c.9-.5 2-.8 3.2-.8 1.1 0 2.3.3 3.3 1a7.2 7.2 0 0 1 2.6-2.9c1.1-.7 2.4-1 3.7-1a6.3 6.3 0 0 1 4.7 2l.6-1a4 4 0 0 1 3.9-1.3c2.2.4 4.3 1.6 5.9 3.3l.3-.5a2.6 2.6 0 0 1 2-1l.5.1c.8.2 2.2.8 3.7 3 .4-.2.8-.1 1.2 0a2.2 2.2 0 0 1 2.6-.4c4.6 2 6.1 9.2 6.6 14.9.2 2.4.4 8-2 10.1v.4a51.6 51.6 0 0 1-9 24.1c-.2.3-.7 1-1.4 1.3-.6 1.4-1.5 2.7-3.1 2.7-.4 0-.7 0-1-.2-.5.5-1.1.8-1.8 1H50l-.8-.1-.1.1a3.5 3.5 0 0 1-2.6 1.3h-.1c-.5 0-.9-.2-1.3-.4-.3.5-.9.8-1.4 1h-.8Z"/>
  <path fill="url(#b)" d="M66.6 33.7c-.4-4.1-1.6-11.4-5.4-13.1-1-.5 0 3 .1 4.2-.5-1-1.5-3.5-2.4-3.7-.8-.2-.8.9-.6 2.2-1-2-2.6-4.8-4.2-5.1-1.2-.3-1 3.4-.6 6-1.6-4-4.2-7.3-8-8-3.4-.6-3.2 5-2.9 8.3-.5-3.9-2.8-9-7.3-7.8-2.6.7-3.7 3.1-4.1 6-1-2.8-3.9-4.1-6.5-2.7-1.9 1-3.6 3-4.3 5.3-.2-1.8-.7-4.8-2.6-3a17 17 0 0 0-4.9 8.1c-.6 2.9.6 6.2 3.4 7v.2l-.5.2c-1.8.5-2.6 2.7-2.1 4.5.4 1.6 1.2 3 2.3 4.4-.2 2 1.4 5.5 1.8 6.5 2.8 5.5 7 11.7 11.8 15.5 2.4 2 1.4-2 .7-4 1.6 2.9 2.4 4.9 5 6.8 1.7 1.5 5 .8 4.6-1.6.9 2.2 2.2 2.9 3 2.7.8-.2 1-2 .7-3.6a37 37 0 0 0-.4-2.5h.1c.5 2 1.6 5.4 2.9 5.5 1.1 0 1.9-1.4 1.7-3.1l-.2-1.9c.8 3.5 1.4 3.8 2.3 3.7 1.1-.2 1.4-2.5 1.4-4.8v-1.7h.1c.2 1.5.1 5.7 1.6 5.7 1 0 1.6-2.5 2-4.3-.1 1.5 0 2.4 1 1.1a48.8 48.8 0 0 0 8.4-24.5h.5c1.8-1 1.8-6.1 1.6-8.5Zm-17.9-.9h.2c.4 0 1 1 1 1.5s0 .8-.5.9c-.5 0-1-.8-1-1.5 0-.4 0-.7.3-.9Zm1 6h.2c.2 1.1.7 3.3 1.4 4.9-.5-.2-1-.2-1.4-.2.2-1.5 0-3.4-.2-4.6Zm-7-13.6.1 1c.2 1.3.6 5.1 1.3 9-.6-1.5-1.5-2.7-2.9-3.1v-.3c1.6-2 1.7-4.2 1.5-6.6Zm1 20.7c1.5-.1 2-3.2 1.8-5 .5 1.5 1 2.8 1.6 3.6-1.8 1.7-1.9 5.4-1.6 8.6-.4-3.7-2.3-7.5-6-7.8.3-1.7.1-4 0-5.2l-.7-3.5h.2c.7 2.4 2.2 9.6 4.7 9.3Zm-4.4-14.6c-.6.1-1.2-.7-1.3-1.5 0-.7.3-1 .6-1.1.5-.2 1 .8 1.1 1.6 0 .4 0 .9-.4 1ZM20 28.8c.3 2 1.3 2.8 2.7 2.2.2 0 .7-.5 1-.7a24 24 0 0 0-.3 7.5c.3 2.3 1.3 6 3 8.2-3.1.5-2.6 3.8-1.7 6.6l1.8 4.6c-.9-1.1-2-1.9-3.2-2 .5-.4 1.2-1.2.2-4.1l-1-2c2.1-1.7 1.3-6.9 1-8.8-.6-3.3-2-8-5.8-8.6v-.1a6 6 0 0 0 2.3-2.8Zm1.7 25.4c-.5 0-1-.8-1.3-1.3-.2-.4-.1-.7.1-.7.4 0 1.1.9 1.3 1.4.2.4.2.7-.1.6Zm2.3 4.2c-.4-.2-1-.9-1.3-1.5-.2-.4-.1-.7.1-.6.4 0 1.2 1 1.4 1.5.2.4.2.7-.2.6Zm7.3-5.1V53c1-.3 2.3-.3 1.6-3.5-.2-.9-.6-1.6-1.2-2.2 1.5-1.5 1.3-5.1 1-7-.8-3.8-2-8.2-4.3-11.4 1.3.3 2.2-.6 2.7-1.9l.5 4.8c.4 2.8 2.4 11 4.8 14.1-2.2 1.8-1.7 6.2-1 9.6-1-1.3-2.3-2.3-4.1-2.3ZM36 64.5c.7-.4 1.1-1 1.3-1.9.3 1.3.7 2.5 1.2 3.7-.6-.8-1.3-1.4-2.4-1.3l-.1-.5Zm6.7-4.5c-.5 0-1-.8-1.1-1.6-.2-.7 0-1 .3-1 .4-.2 1 .7 1.1 1.5.1.5 0 1-.3 1Zm1.8.7v-.2a11 11 0 0 0 1-6.4l.5 3.8 1 6.2c-.4-1.5-1.2-2.9-2.5-3.4ZM52 57c-.4.2-.8-.5-.8-1.3 0-.6.2-1 .4-1.1.4-.2.9.6 1 1.3 0 .4-.2 1-.6 1.1Zm3.8 5.3c.1-2 0-4.8-2-5V57c1-1.7 1.7-3.7 1.9-5.8.5 1.4 1.5 2.6 2.9 2a30.7 30.7 0 0 0-2.8 9ZM60.6 47c-.1-2.2-1.6-4.7-3.8-4.4-1.6.3-2 2.4-2 4l-1-1.4c1.7-1.3 2.2-6.7 2.1-8.8V36c1.2 4.2 2.7 8 4.3 7.5 1.4-.4 1.8-4.5 1.9-6.3h.2c.1 1.1.4 2.2.8 3.3H63c-2.2.6-2.5 4.3-2.4 6.5Z"/>
  <path fill="#fff" d="M20.7 13.4c.3.1-.4 2.2.7 3.5-1-.8-1.5-2.2-1-3 0-.4.2-.5.3-.5Zm13.7-1c-.2.1-.6-1.2-1.4-1.4l.9.3.5.8v.4Zm11.1-1.9c0 .3-.2.4-.2.4-.2-.2.6-2.4.1-4.2.5 1.2.5 3 .1 3.8ZM59.4 45l-.1.4c-.3.1-.5-1.5-2-2 1.3.1 2 .9 2 1.6Zm4.2-20.8v.3c-.1-.1-.5-1.6-1.3-2.6.7.6 1.2 1.6 1.3 2.3Zm-3.5-.5v.2c-.1 0-.3-1.3-1-2 .6.5 1 1.2 1 1.8Zm-3.4-1.9v.5c-.2 0-1.1-2.2-2.6-3.2a5 5 0 0 1 2.6 2.7ZM50.1 20v.5c-1.1-.5-2.2-2.6-3.8-3.4 1.5.4 3.5 1.4 3.8 2.9Zm-1.3 15.7c-.4-.2-.8-.5-1-1-.3-.3-.4-.8-.4-1.2 0-.3 0-.5.2-.5s.2 2 1.2 2.7Zm-6-1.1-.1.4c-.3 0-.8-2-2-2.5.5.1 1 .3 1.3.7.4.4.6.8.7 1.4Zm-5.6-4.7c.2 0 .6 2 2 2.4-1.1 0-2-1-2-1.9v-.5Zm2-10.5c0 .3 0 .5-.2.5-1-.3-2.1-2.3-4.1-2.3 1.5-.4 3.8 0 4.2 1.8Zm-10 3v.6c-.7.3-1.6-2.2-4-1.8 2-.7 3.9-.1 4 1.1ZM18.3 32.7c1.3-.1 2.3 1.1 2.6 2.4.1.4 0 .6-.2.6-.3.1-.9-2.6-2.4-3Zm1.2-8c0 .5 0 .8-.2.9-.5.3-.5-2.7-1.6-2.4 1-.7 1.9 0 1.8 1.5Zm0 28v-.2s.7 1.3 1.4 2c-.6-.4-1.1-1-1.4-1.7Zm2.6 4.1v-.2c.1 0 .7 1.3 1.3 1.8a4 4 0 0 1-1.3-1.6Zm5 3.5c-.4-.1-1.6-2.9-3.3-4.2a8 8 0 0 1 3.2 3.7v.5Zm7.8-3c-.4 0-1.7-2.4-3.8-3.2 1.6.2 3.3 1.5 3.7 2.5.1.4.2.6 0 .6ZM39 69c-.2-.2-.8-2-2.1-3 1.1.6 2 1.7 2.2 2.6v.4Zm-7.7-20.6c-.3.1-2.3-1.7-4.6-1.6 1.7-.4 3.7.2 4.4 1l.2.6Zm7.8-1.7c1.4.2 3 .7 3.3 2.1v.6c-1-.2-2-1.7-3.5-2.4l.2-.3Zm1.6 12v-.5c.3 0 .8 2.1 1.9 2.7-.8-.1-1.6-1.2-1.9-2.2Zm5.2 6.2c-.2 0-.6-2.2-1.7-2.6.9 0 1.7 1 1.8 2v.6Zm4.6-9.4.2-.5c.2 0 0 2 .7 2.6-.7-.1-1-1.2-.9-2Zm4.2 4.3v.5c-.3.2-.3-1.8-1.4-1.9.9-.2 1.5.5 1.4 1.4ZM53 47.2c-.6.2-1.2-1.6-3.5-2.2v-.1c2 .1 3.6 1 3.6 1.8l-.1.5Zm11-4v.4c-.2 0-.2-1.3-1-1.8.3 0 .6.3.8.5.2.3.3.6.3 1Z"/>
  <linearGradient id="a" x1="31.2" x2="38.7" y1="5.5" y2="25.6" gradientUnits="userSpaceOnUse">
    <stop stop-color="#11998E"/>
    <stop offset="1" stop-color="#38EF7D"/>
  </linearGradient>
  <linearGradient id="b" x1="36.2" x2="49.1" y1="18.6" y2="73.1" gradientUnits="userSpaceOnUse">
    <stop stop-color="#EE0979"/>
    <stop offset="1" stop-color="#FF6A00"/>
  </linearGradient>
</svg>