<svg xmlns="http://www.w3.org/2000/svg" viewBox="0 0 80 80">
  <rect width="100%" height="100%" fill="#333638"/>
  <path fill="#fff" d="m40.7 38.3 28-16.5L42 6a453.9 453.9 0 0 0-27.6 16.9l26.4 15.4ZM68.3 57.8l-12.8-7.4L40.7 59l-.7-.4-.8-.4-2.7-1.6-10-6a2.2 2.2 0 0 0-2.6 0c-1.3.9-2.7 1.6-4 2.3l-1.8 1-6.1 3.5.3.3.2.2 27.1 15.8a1.9 1.9 0 0 0 2.2-.2l25.6-15 1-.7Z"/>
  <path fill="#fff" d="m12.3 39.2 26.8 15.7V40.7L12.3 25v14.2ZM67.6 40 55.5 33l-13.3 7.8V55L67.6 40ZM68.8 54.9V42.6l-10.5 6.1L68.8 55Z"/>
</svg>