<svg viewBox="0 0 80 80" fill="none" xmlns="http://www.w3.org/2000/svg">
<rect width="100%" height="100%" fill="#111111"/>
<path d="M45.0519 69.5097C43.4829 71.4855 40.3018 70.4029 40.264 67.8801L39.7112 30.9812H64.522C69.0159 30.9812 71.5222 36.1717 68.7278 39.6912L45.0519 69.5097Z" fill="url(#paint0_linear_438_3)"/>
<path d="M45.0519 69.5097C43.4829 71.4855 40.3018 70.4029 40.264 67.8801L39.7112 30.9812H64.522C69.0159 30.9812 71.5222 36.1717 68.7278 39.6912L45.0519 69.5097Z" fill="url(#paint1_linear_438_3)" fill-opacity="0.2"/>
<path d="M34.9615 10.1364C36.5304 8.16043 39.7116 9.24313 39.7494 11.766L39.9917 48.6648H15.4914C10.9973 48.6648 8.49093 43.4743 11.2855 39.9548L34.9615 10.1364Z" fill="#3ECF8E"/>
<defs>
<linearGradient id="paint0_linear_438_3" x1="39.7112" y1="39.1626" x2="61.7622" y2="48.4108" gradientUnits="userSpaceOnUse">
<stop stop-color="#249361"/>
<stop offset="1" stop-color="#3ECF8E"/>
</linearGradient>
<linearGradient id="paint1_linear_438_3" x1="29.9349" y1="25.7772" x2="39.9913" y2="44.7078" gradientUnits="userSpaceOnUse">
<stop/>
<stop offset="1" stop-opacity="0"/>
</linearGradient>
</defs>
</svg>
