<?xml version="1.0" encoding="UTF-8"?>
<svg id="svg" xmlns="http://www.w3.org/2000/svg" viewBox="0 0 80 80">
  <defs>
    <style>
      .cls-1 {
        fill: #ff3e00;
      }
    </style>
  </defs>
  <path class="cls-1" d="M69.04,10.58C61.61-.05,46.94-3.2,36.33,3.56L17.7,15.43c-5.09,3.2-8.59,8.4-9.66,14.32-.89,4.93-.11,10.02,2.22,14.45-1.59,2.42-2.68,5.14-3.2,7.99-1.07,6.03,.33,12.24,3.89,17.23,7.43,10.63,22.1,13.78,32.71,7.02l18.63-11.87c5.09-3.2,8.59-8.4,9.66-14.32,.89-4.93,.11-10.01-2.22-14.45,1.59-2.42,2.68-5.14,3.2-7.99,1.07-6.03-.33-12.24-3.89-17.23m-34.53,59.83c-6.01,1.56-12.35-.79-15.88-5.89-2.14-3-2.99-6.73-2.34-10.36,.11-.59,.26-1.17,.45-1.74l.35-1.07,.95,.7c2.2,1.62,4.67,2.85,7.29,3.64l.69,.21-.06,.69c-.08,.98,.18,1.96,.75,2.77,1.06,1.54,2.97,2.24,4.78,1.77,.4-.11,.79-.28,1.14-.5l18.63-11.87c.92-.58,1.56-1.52,1.75-2.59,.19-1.09-.06-2.22-.71-3.12-1.06-1.54-2.97-2.24-4.78-1.78-.4,.11-.79,.28-1.14,.5l-7.11,4.53c-1.17,.74-2.44,1.3-3.78,1.66-6.01,1.56-12.35-.79-15.88-5.89-2.14-3-2.99-6.73-2.34-10.36,.64-3.56,2.75-6.68,5.81-8.61l18.63-11.87c1.17-.74,2.45-1.31,3.79-1.66,6.01-1.56,12.35,.79,15.88,5.89,2.14,3,2.99,6.73,2.34,10.36-.11,.59-.26,1.17-.45,1.74l-.35,1.07-.95-.7c-2.2-1.62-4.67-2.85-7.29-3.64l-.69-.21,.06-.69c.08-.98-.18-1.96-.75-2.77-1.06-1.54-2.97-2.24-4.78-1.77-.4,.11-.79,.28-1.14,.5l-18.63,11.87c-.92,.58-1.56,1.52-1.75,2.59-.19,1.09,.06,2.22,.7,3.12,1.06,1.54,2.97,2.24,4.78,1.78,.4-.11,.79-.28,1.14-.5l7.11-4.53c1.17-.74,2.44-1.31,3.78-1.66,6.01-1.56,12.35,.79,15.88,5.89,2.14,3,2.99,6.73,2.34,10.36-.64,3.56-2.75,6.68-5.81,8.61l-18.63,11.87c-1.17,.74-2.45,1.31-3.79,1.66"/>
</svg>