<svg xmlns="http://www.w3.org/2000/svg" viewBox="0 0 80 80">
  <rect width="100%" height="100%" fill="#FF3E00"/>
  <path fill="#fff" fill-rule="evenodd" d="M37 10.8a19.5 19.5 0 0 1 26.2 5.7 18.2 18.2 0 0 1 3.1 13.7c-.4 2.3-1.2 4.5-2.5 6.4a18 18 0 0 1-.9 18.1 17 17 0 0 1-5 5l-15 9.5A19.5 19.5 0 0 1 14 57a17.1 17.1 0 0 1 2.4-13.6 18 18 0 0 1 .8-18.1c1.3-2 3-3.7 5-5l15-9.5ZM28.6 64c2.3.8 4.8 1 7.1.3 1-.3 2.1-.7 3-1.3l15-9.5A10.3 10.3 0 0 0 58 42.3a11.8 11.8 0 0 0-14.5-8.7c-1 .3-2 .8-3 1.4l-5.7 3.6-1 .4a3.6 3.6 0 0 1-4.3-2.6V35A3.1 3.1 0 0 1 31 33l14.9-9.5 1-.4a3.6 3.6 0 0 1 3.7 1.4c.5.6.7 1.4.6 2.2v.6l.5.1c2.1.7 4.1 1.7 5.9 3l.7.5.3-.8a10.5 10.5 0 0 0 .3-5.8 11.8 11.8 0 0 0-14.5-8.7c-1 .4-2.1.8-3 1.4l-15 9.5A10.3 10.3 0 0 0 22 37.7a11.8 11.8 0 0 0 14.5 8.7c1-.3 2-.8 3-1.4l5.7-3.6 1-.4a3.6 3.6 0 0 1 4.3 2.6V45A3.1 3.1 0 0 1 49 47l-14.9 9.5-1 .4a3.6 3.6 0 0 1-3.7-1.4c-.5-.6-.7-1.4-.6-2.2v-.6l-.5-.1c-2.1-.7-4.1-1.7-5.9-3l-.7-.5-.3.8a10.4 10.4 0 0 0-.3 5.8 11.8 11.8 0 0 0 7.4 8.3Z" clip-rule="evenodd"/>
</svg>