<svg viewBox="0 0 80 80" xmlns="http://www.w3.org/2000/svg">
<rect width="100%" height="100%" fill="#FF3E00"/>
<path fill-rule="evenodd" clip-rule="evenodd" d="M37.0672 10.8479C45.5534 5.4411 57.2909 7.96221 63.2337 16.4678H63.2365C64.6469 18.4418 65.6487 20.6776 66.1832 23.044C66.7177 25.4104 66.7741 27.8597 66.3491 30.2482C65.9373 32.5289 65.0676 34.7025 63.7925 36.6378C65.6525 40.1871 66.2759 44.2554 65.5639 48.1988C65.1441 50.5402 64.2403 52.7682 62.9102 54.7403C61.5801 56.7125 59.853 58.3853 57.8395 59.6518L42.9351 69.1511C34.4501 74.5596 22.712 72.0379 16.7692 63.5312C15.3592 61.557 14.3575 59.3212 13.8229 56.9549C13.2884 54.5886 13.2316 52.1393 13.6561 49.7508C14.0681 47.4697 14.9384 45.2958 16.2143 43.3606C14.3526 39.812 13.7276 35.7439 14.4384 31.8002C14.8588 29.4585 15.7632 27.2304 17.0939 25.2583C18.4246 23.2862 20.1522 21.6135 22.1663 20.3472L37.0672 10.8479ZM28.5172 63.9743C30.7895 64.8166 33.2656 64.9413 35.6111 64.3317C36.6826 64.0452 37.704 63.5964 38.6396 63.0008L53.5451 53.505C54.7559 52.743 55.7944 51.7369 56.5944 50.5509C57.3943 49.3649 57.938 48.0251 58.1908 46.617C58.446 45.1809 58.4119 43.7082 58.0903 42.2854C57.7688 40.8626 57.1663 39.5183 56.3182 38.3314C54.937 36.3403 52.978 34.8209 50.7058 33.9786C48.4335 33.1362 45.9575 33.0115 43.6121 33.6212C42.5405 33.9072 41.5191 34.3558 40.5836 34.9515L34.8968 38.5754C34.6141 38.7544 34.3058 38.8892 33.9825 38.9754C33.2757 39.1588 32.5295 39.1208 31.8449 38.8667C31.1603 38.6125 30.5701 38.1545 30.154 37.5543C29.8988 37.1962 29.7175 36.7909 29.6208 36.3619C29.5241 35.933 29.5138 35.489 29.5906 35.0561C29.6668 34.632 29.8306 34.2285 30.0716 33.8714C30.3125 33.5142 30.6253 33.2112 30.99 32.9818L45.8978 23.4808C46.1804 23.3017 46.4887 23.1668 46.8121 23.0808C47.5188 22.897 48.265 22.9347 48.9497 23.1886C49.6344 23.4426 50.2246 23.9006 50.6406 24.5008C51.0959 25.1455 51.3088 25.9303 51.2417 26.7168L51.1903 27.2699L51.7446 27.4379C53.8392 28.0703 55.8104 29.0559 57.5731 30.3521L58.3365 30.9116L58.6171 30.0544C58.7674 29.5993 58.8865 29.1344 58.9736 28.663C59.2287 27.2268 59.1945 25.7542 58.8729 24.3314C58.5514 22.9086 57.949 21.5643 57.1011 20.3774C55.7197 18.3862 53.7606 16.8669 51.4883 16.0246C49.216 15.1823 46.7399 15.0575 44.3944 15.6672C43.3229 15.9538 42.3016 16.4026 41.3659 16.998L26.4604 26.4968C25.2489 27.2578 24.2096 28.2633 23.409 29.4489C22.6084 30.6346 22.064 31.9743 21.8107 33.3824C21.5555 34.8186 21.5896 36.2913 21.9112 37.7141C22.2327 39.1369 22.8352 40.4811 23.6833 41.668C25.0646 43.6592 27.0237 45.1786 29.296 46.0209C31.5684 46.8632 34.0445 46.988 36.3899 46.3782C37.4612 46.0919 38.4825 45.6437 39.4185 45.0491L45.1058 41.4234C45.3885 41.2443 45.6968 41.1095 46.0201 41.0234C46.727 40.84 47.4731 40.8779 48.1578 41.1321C48.8424 41.3862 49.4326 41.8443 49.8486 42.4445C50.1038 42.8025 50.2852 43.2078 50.3821 43.6366C50.4791 44.0654 50.4896 44.5093 50.4132 44.9422C50.3366 45.3664 50.1726 45.7699 49.9314 46.1271C49.6903 46.4844 49.3774 46.7874 49.0126 47.017L34.1088 56.5175C33.8262 56.6966 33.5179 56.8315 33.1946 56.9175C32.4878 57.1013 31.7416 57.0637 31.0569 56.8098C30.3722 56.5558 29.782 56.0978 29.366 55.4975C28.9102 54.8537 28.6971 54.0692 28.7643 53.2832L28.8152 52.7301L28.2615 52.5621C26.1669 51.9296 24.1958 50.944 22.433 49.6479L21.669 49.0873L21.3884 49.9444C21.2377 50.3994 21.1188 50.8644 21.0324 51.3358C20.7773 52.772 20.8114 54.2446 21.1329 55.6674C21.4543 57.0902 22.0566 58.4345 22.9044 59.6214C24.2858 61.6126 26.2449 63.1319 28.5172 63.9743Z" fill="white"/>
</svg>
