<svg viewBox="0 0 80 80" xmlns="http://www.w3.org/2000/svg">
<rect width="100%" height="100%" fill="#F05138"/>
<path d="M64.4757 49.8805L64.7067 48.925C68.2032 35.044 59.7087 18.5485 45.2502 9.89648C51.5502 18.4645 54.3747 28.8595 51.9177 37.9C51.6762 38.6875 51.4452 39.4855 51.1197 40.273C50.7271 39.9896 50.3045 39.7502 49.8597 39.559C39.0629 32.4658 29.0463 24.2512 19.9767 15.052C25.4276 23.1264 31.4974 30.7654 38.1312 37.9C33.4587 35.2855 20.5227 25.846 12.2802 18.3805C13.3221 20.0705 14.4873 21.6814 15.7662 23.2C22.5912 31.9255 31.5162 42.6355 42.2577 50.8885C34.7292 55.4875 24.0927 55.8865 13.5507 50.8885C10.9615 49.6806 8.49928 48.2174 6.20068 46.5205C10.9176 54.0384 17.7889 59.962 25.9197 63.52C35.9157 67.804 45.8697 67.5625 53.2827 63.5935C60.6957 59.6245 53.3667 63.5935 53.3667 63.52C53.6817 63.3625 53.9967 63.121 54.3222 62.9635C57.8817 61.1365 64.8222 59.3095 68.6757 66.607C69.7887 68.2765 71.7627 58.7635 64.4757 49.8805V49.8805Z" fill="white"/>
</svg>
