<svg xmlns="http://www.w3.org/2000/svg" viewBox="0 0 80 80">
  <rect width="100%" height="100%" fill="#fff"/>
  <path fill="#1A171B" d="M40 72a32 32 0 1 0 0-64 32 32 0 0 0 0 64Z"/>
  <path fill="#fff" d="M54 19.8c-3.3.2-6.1 2-8.2 4.4-2.3 2.7-4 6-5 9.3-2-1.7-3.6-3.8-6.8-4.7a8.3 8.3 0 0 0-7.5 1.3c-1.1.9-2 2.2-2.3 3.4-1 3.1 1 5.9 2 6.9l1.9 2.1c.4.4 1.4 1.5.9 3-.5 1.7-2.5 2.8-4.6 2.2-1-.3-2.3-1-2-2 .1-.4.4-.7.6-1l.2-.7c.4-1.2-.1-2.8-1.4-3.2-1.3-.4-2.5-.1-3 1.5-.6 1.8.3 5 5 6.5 5.4 1.7 10-1.3 10.6-5.1.4-2.5-.7-4.2-2.7-6.6l-1.6-1.8a3 3 0 0 1-.3-4c.9-1 2-1.5 4-1 3 .9 4.3 2.9 6.5 4.5-.9 3-1.5 6-2 8.6l-.3 2c-1.6 8.2-2.8 12.7-5.9 15.3-.6.4-1.5 1.1-2.8 1.1-.7 0-1-.4-1-.6 0-.5.4-.7.7-1 .4-.2 1-.6 1-1.8 0-1.4-1.2-2.6-3-2.6-1.2 0-3.1 1.3-3 3.5 0 2.2 2.1 4 5.3 3.8 1.7 0 5.5-.7 9.2-5.2 4.4-5 5.6-11 6.5-15.2l1-5.6H48c5.4.2 8.1-2.6 8.2-4.6 0-1.3-.9-2.5-2-2.5-.9 0-2 .6-2.2 1.8-.2 1.1 1.8 2.1.2 3.1-1 .7-3 1.2-5.8.8l.5-2.7c1-5.3 2.3-11.8 7-12 .4 0 1.7 0 1.7 1l-.3 1c-.4.4-.5.8-.5 1.3 0 1.4 1 2.3 2.6 2.2 2 0 2.5-2 2.5-3-.1-2.3-2.6-3.8-5.8-3.7Z"/>
</svg>