<svg xmlns="http://www.w3.org/2000/svg" viewBox="0 0 80 80"><circle cx="40" cy="40" r="40" fill="#1a171b"/><path d="M57.49 14.8c-4.07.14-7.61 2.38-10.25 5.48A34.47 34.47 0 0041 31.82c-2.51-2.06-4.44-4.72-8.46-5.88a10.35 10.35 0 00-9.38 1.72 8.45 8.45 0 00-2.87 4.18c-1.2 3.92 1.27 7.41 2.39 8.66l2.46 2.64a3.71 3.71 0 011.13 3.79 4.53 4.53 0 01-5.77 2.66c-1.16-.35-2.83-1.22-2.45-2.43a10.63 10.63 0 01.7-1.3 6.49 6.49 0 00.31-.81A3.26 3.26 0 0017.2 41a2.73 2.73 0 00-3.75 1.9c-.7 2.26.39 6.37 6.19 8.16 6.8 2.09 12.55-1.62 13.37-6.44.51-3-.85-5.28-3.35-8.17l-2-2.25a3.71 3.71 0 01-.38-5c1.07-1.36 2.61-1.95 5.13-1.26 3.67 1 5.3 3.54 8 5.6-1.13 3.7-1.87 7.41-2.54 10.74l-.4 2.48C35.52 57 34 62.64 30.15 65.87a6.3 6.3 0 01-3.57 1.44 1 1 0 01-1.18-.84c0-.62.5-.9.84-1.18A2.14 2.14 0 0027.49 63a3.4 3.4 0 00-3.65-3.24 4.23 4.23 0 00-3.92 4.29c.1 2.83 2.73 5 6.71 4.81 2.12-.07 6.87-.94 11.54-6.49 5.45-6.38 7-13.68 8.11-19l1.28-7.06a20.09 20.09 0 002.3.16c6.78.15 10.17-3.36 10.22-5.92 0-1.54-1-3.06-2.48-3a2.84 2.84 0 00-2.69 2.18c-.31 1.43 2.16 2.71.23 4-1.37.89-3.82 1.51-7.28 1l.63-3.47c1.28-6.59 2.86-14.69 8.87-14.89.43 0 2 0 2.07 1.08 0 .35-.08.44-.49 1.25a2.88 2.88 0 00-.56 1.79 2.82 2.82 0 003.19 2.72c2.47-.08 3.19-2.49 3.15-3.73-.1-2.91-3.17-4.75-7.23-4.62z" fill="#fff"/></svg>