<svg viewBox="0 0 80 80" xmlns="http://www.w3.org/2000/svg">
<rect width="100%" height="100%" fill="white"/>
<path d="M40 72C57.6731 72 72 57.6731 72 40C72 22.3269 57.6731 8 40 8C22.3269 8 8 22.3269 8 40C8 57.6731 22.3269 72 40 72Z" fill="#1A171B"/>
<path d="M53.9895 19.8407C50.7388 19.954 47.9011 21.7456 45.7891 24.2243C43.4504 26.9417 41.8945 30.1649 40.7735 33.4551C38.768 31.8114 37.221 29.6837 34.0037 28.7559C31.5171 28.042 28.9052 28.3368 26.5034 30.1264C25.3655 30.9763 24.5817 32.2611 24.209 33.4689C23.2437 36.6073 25.2236 39.4005 26.1228 40.4033L28.0888 42.5103C28.4941 42.9234 29.4702 44.0011 28.993 45.5462C28.4773 47.2263 26.4521 48.3138 24.3746 47.6729C23.4468 47.3899 22.1138 46.6988 22.4125 45.7256C22.5358 45.3273 22.8207 45.0295 22.9735 44.6854C23.1136 44.3896 23.1806 44.1678 23.223 44.0376C23.6026 42.7982 23.084 41.1861 21.7568 40.777C20.5185 40.3974 19.2515 40.6981 18.7605 42.2924C18.2034 44.1037 19.07 47.3909 23.713 48.8226C29.1527 50.4938 33.7543 47.5319 34.407 43.6688C34.8181 41.2493 33.7257 39.4518 31.7241 37.1397L30.0933 35.3363C29.1054 34.3494 28.7662 32.6673 29.7886 31.3747C30.6514 30.2842 31.8799 29.8188 33.8923 30.366C36.8295 31.1637 38.1389 33.2017 40.3238 34.8453C39.4217 37.8042 38.8321 40.774 38.2986 43.4371L37.9733 45.4229C36.4115 53.6144 35.2194 58.1125 32.1215 60.6948C31.4973 61.1384 30.605 61.803 29.2602 61.8493C28.5552 61.871 28.3274 61.3859 28.3176 61.1749C28.3008 60.68 28.7179 60.4532 28.9949 60.2304C29.409 60.0046 30.0351 59.6299 29.9927 58.43C29.9474 57.0121 28.7731 55.7826 27.0752 55.8388C25.8033 55.8822 23.8649 57.0792 23.9378 59.27C24.0138 61.5328 26.1228 63.2287 29.3026 63.1213C31.0024 63.0631 34.7984 62.3709 38.5392 57.9242C42.8933 52.8266 44.111 46.9827 45.027 42.7055L46.0494 37.0588C46.6174 37.1269 47.2247 37.1722 47.8853 37.188C53.3082 37.3024 56.0207 34.4933 56.0611 32.4504C56.0877 31.2139 55.2496 29.9972 54.0763 30.0248C53.2362 30.0485 52.1813 30.6076 51.9279 31.769C51.6804 32.9088 53.6533 33.9372 52.1112 34.936C51.0158 35.6449 49.0517 36.1448 46.2861 35.7386L46.7889 32.9591C47.8153 27.6881 49.0813 21.2043 53.884 21.0465C54.2341 21.0288 55.5148 21.0623 55.5444 21.9092C55.5533 22.1922 55.4833 22.2642 55.152 22.912C54.8148 23.4168 54.6876 23.8467 54.7034 24.3407C54.7497 25.6865 55.7732 26.571 57.2531 26.5177C59.235 26.4536 59.8048 24.5241 59.7723 23.5332C59.6924 21.2053 57.2383 19.7342 53.9895 19.8407Z" fill="white"/>
</svg>
