<svg version="1.2" xmlns="http://www.w3.org/2000/svg" viewBox="0 0 633 633" width="1000" height="1000">
	<title>419538465-00988873-8d41-489d-97e2-35502e214f38</title>
	<defs>
		<linearGradient id="g1" x2="1" gradientUnits="userSpaceOnUse" gradientTransform="matrix(0,442.081,-442.081,0,317.5,8)">
			<stop offset="0" stop-color="#6bdaff"/>
			<stop offset=".319" stop-color="#f9ffb5"/>
			<stop offset=".706" stop-color="#ffa770"/>
			<stop offset="1" stop-color="#ff7373"/>
		</linearGradient>
		<clipPath clipPathUnits="userSpaceOnUse" id="cp1">
			<path d="m317.5 625c-170.6 0-308.5-137.9-308.5-308.5 0-170.6 137.9-308.5 308.5-308.5 170.6 0 308.5 137.9 308.5 308.5 0 170.6-137.9 308.5-308.5 308.5z"/>
		</clipPath>
		<clipPath clipPathUnits="userSpaceOnUse" id="cp2">
			<path d="m317.5 625c-170.6 0-308.5-137.9-308.5-308.5 0-170.6 137.9-308.5 308.5-308.5 170.6 0 308.5 137.9 308.5 308.5 0 170.6-137.9 308.5-308.5 308.5z"/>
		</clipPath>
		<clipPath clipPathUnits="userSpaceOnUse" id="cp3">
			<path d="m317.5 625c-170.6 0-308.5-137.9-308.5-308.5 0-170.6 137.9-308.5 308.5-308.5 170.6 0 308.5 137.9 308.5 308.5 0 170.6-137.9 308.5-308.5 308.5z"/>
		</clipPath>
		<clipPath clipPathUnits="userSpaceOnUse" id="cp4">
			<path d="m317.5 625c-170.6 0-308.5-137.9-308.5-308.5 0-170.6 137.9-308.5 308.5-308.5 170.6 0 308.5 137.9 308.5 308.5 0 170.6-137.9 308.5-308.5 308.5z"/>
		</clipPath>
		<clipPath clipPathUnits="userSpaceOnUse" id="cp5">
			<path d="m317.5 625c-170.6 0-308.5-137.9-308.5-308.5 0-170.6 137.9-308.5 308.5-308.5 170.6 0 308.5 137.9 308.5 308.5 0 170.6-137.9 308.5-308.5 308.5z"/>
		</clipPath>
		<clipPath clipPathUnits="userSpaceOnUse" id="cp6">
			<path d="m317.5 625c-170.6 0-308.5-137.9-308.5-308.5 0-170.6 137.9-308.5 308.5-308.5 170.6 0 308.5 137.9 308.5 308.5 0 170.6-137.9 308.5-308.5 308.5z"/>
		</clipPath>
		<clipPath clipPathUnits="userSpaceOnUse" id="cp7">
			<path d="m317.5 625c-170.6 0-308.5-137.9-308.5-308.5 0-170.6 137.9-308.5 308.5-308.5 170.6 0 308.5 137.9 308.5 308.5 0 170.6-137.9 308.5-308.5 308.5z"/>
		</clipPath>
		<linearGradient id="g2" x2="1" gradientUnits="userSpaceOnUse" gradientTransform="matrix(7.133,192.4,-57.725,2.14,252.167,221.272)">
			<stop offset="0" stop-color="#673800"/>
			<stop offset="1" stop-color="#b65e00"/>
		</linearGradient>
		<linearGradient id="g3" x2="1" gradientUnits="userSpaceOnUse" gradientTransform="matrix(0,38.581,-91.209,0,173.269,152.903)">
			<stop offset="0" stop-color="#2f8a00"/>
			<stop offset="1" stop-color="#90ff57"/>
		</linearGradient>
		<linearGradient id="g4" x2="1" gradientUnits="userSpaceOnUse" gradientTransform="matrix(0,119.178,-110.193,0,163.766,182.882)">
			<stop offset="0" stop-color="#2f8a00"/>
			<stop offset="1" stop-color="#90ff57"/>
		</linearGradient>
		<linearGradient id="g5" x2="1" gradientUnits="userSpaceOnUse" gradientTransform="matrix(0,65.45,-63.151,0,250.208,117.666)">
			<stop offset="0" stop-color="#2f8a00"/>
			<stop offset="1" stop-color="#90ff57"/>
		</linearGradient>
		<linearGradient id="g6" x2="1" gradientUnits="userSpaceOnUse" gradientTransform="matrix(0,60.139,-150.05,0,293.887,148.157)">
			<stop offset="0" stop-color="#2f8a00"/>
			<stop offset="1" stop-color="#90ff57"/>
		</linearGradient>
		<linearGradient id="g7" x2="1" gradientUnits="userSpaceOnUse" gradientTransform="matrix(0,100.916,-132.993,0,285.359,179.877)">
			<stop offset="0" stop-color="#2f8a00"/>
			<stop offset="1" stop-color="#90ff57"/>
		</linearGradient>
		<linearGradient id="g8" x2="1" gradientUnits="userSpaceOnUse" gradientTransform="matrix(0,166,-60.971,0,190.053,183.716)">
			<stop offset="0" stop-color="#2f8a00"/>
			<stop offset="1" stop-color="#90ff57"/>
		</linearGradient>
		<linearGradient id="g9" x2="1" gradientUnits="userSpaceOnUse" gradientTransform="matrix(-93.659,5.23,-3.018,-54.055,417.04,379.423)">
			<stop offset="0" stop-color="#ee2700"/>
			<stop offset="1" stop-color="#ff008e"/>
		</linearGradient>
		<clipPath clipPathUnits="userSpaceOnUse" id="cp8">
			<path d="m317.5 625c-170.6 0-308.5-137.9-308.5-308.5 0-170.6 137.9-308.5 308.5-308.5 170.6 0 308.5 137.9 308.5 308.5 0 170.6-137.9 308.5-308.5 308.5z"/>
		</clipPath>
		<linearGradient id="g10" x2="1" gradientUnits="userSpaceOnUse" gradientTransform="matrix(-92.525,249.649,-218.967,-81.154,376.6,434.997)">
			<stop offset="0" stop-color="#fff400"/>
			<stop offset="1" stop-color="#3c8700"/>
		</linearGradient>
		<clipPath clipPathUnits="userSpaceOnUse" id="cp9">
			<path d="m317.5 625c-170.6 0-308.5-137.9-308.5-308.5 0-170.6 137.9-308.5 308.5-308.5 170.6 0 308.5 137.9 308.5 308.5 0 170.6-137.9 308.5-308.5 308.5z"/>
		</clipPath>
		<clipPath clipPathUnits="userSpaceOnUse" id="cp10">
			<path d="m317.5 625c-170.6 0-308.5-137.9-308.5-308.5 0-170.6 137.9-308.5 308.5-308.5 170.6 0 308.5 137.9 308.5 308.5 0 170.6-137.9 308.5-308.5 308.5z"/>
		</clipPath>
		<linearGradient id="g11" x2="1" gradientUnits="userSpaceOnUse" gradientTransform="matrix(0,227,-227,0,566.5,-24)">
			<stop offset="0" stop-color="#ffdf00"/>
			<stop offset="1" stop-color="#ff9d00"/>
		</linearGradient>
		<linearGradient id="g12" x2="1" gradientUnits="userSpaceOnUse" gradientTransform="matrix(NaN,NaN,NaN,NaN,NaN,NaN)">
			<stop offset="0" stop-color="#ffa400"/>
			<stop offset="1" stop-color="#ff5e00"/>
		</linearGradient>
		<linearGradient id="g13" x2="1" gradientUnits="userSpaceOnUse" gradientTransform="matrix(-33.729,.272,-0.059,-7.284,438.729,52.614)">
			<stop offset="0" stop-color="#ffa400"/>
			<stop offset="1" stop-color="#ff5e00"/>
		</linearGradient>
		<linearGradient id="g14" x2="1" gradientUnits="userSpaceOnUse" gradientTransform="matrix(-36.911,.609,-0.157,-9.53,439.911,125.696)">
			<stop offset="0" stop-color="#ffa400"/>
			<stop offset="1" stop-color="#ff5e00"/>
		</linearGradient>
		<linearGradient id="g15" x2="1" gradientUnits="userSpaceOnUse" gradientTransform="matrix(-30.547,3.814,-1.489,-11.925,449.547,157.593)">
			<stop offset="0" stop-color="#ffa400"/>
			<stop offset="1" stop-color="#ff5e00"/>
		</linearGradient>
		<linearGradient id="g16" x2="1" gradientUnits="userSpaceOnUse" gradientTransform="matrix(-25.456,17.148,-2.89,-4.29,470.456,180.926)">
			<stop offset="0" stop-color="#ffa400"/>
			<stop offset="1" stop-color="#ff5e00"/>
		</linearGradient>
		<linearGradient id="g17" x2="1" gradientUnits="userSpaceOnUse" gradientTransform="matrix(-6.456,22.847,-6.3,-1.78,489.376,203)">
			<stop offset="0" stop-color="#ffa400"/>
			<stop offset="1" stop-color="#ff5e00"/>
		</linearGradient>
		<linearGradient id="g18" x2="1" gradientUnits="userSpaceOnUse" gradientTransform="matrix(-0.977,24.5,-6.444,-0.257,522.343,219.5)">
			<stop offset="0" stop-color="#ffa400"/>
			<stop offset="1" stop-color="#ff5e00"/>
		</linearGradient>
		<linearGradient id="g19" x2="1" gradientUnits="userSpaceOnUse" gradientTransform="matrix(-0.004,24.5,-0.504,0,565.752,228.5)">
			<stop offset="0" stop-color="#ffa400"/>
			<stop offset="1" stop-color="#ff5e00"/>
		</linearGradient>
	</defs>
	<style>
		.s0 { fill: #ffffff } 
		.s1 { fill: url(#g1) } 
		.s2 { fill: #015064;stroke: #00cfe2;stroke-width: 25 } 
		.s3 { fill: #015064;stroke: #00a8b8;stroke-width: 25 } 
		.s4 { fill: #015064;stroke: #007782;stroke-width: 25 } 
		.s5 { fill: url(#g2);stroke: #6e3a00;stroke-width: 6.1 } 
		.s6 { fill: url(#g3);stroke: #2f8a00;stroke-width: 9.3 } 
		.s7 { fill: url(#g4);stroke: #2f8a00;stroke-width: 9.3 } 
		.s8 { fill: url(#g5);stroke: #2f8a00;stroke-width: 9.3 } 
		.s9 { fill: url(#g6);stroke: #2f8a00;stroke-width: 9.3 } 
		.s10 { fill: url(#g7);stroke: #2f8a00;stroke-width: 9.3 } 
		.s11 { fill: url(#g8);stroke: #2f8a00;stroke-width: 9.3 } 
		.s12 { fill: none;stroke: #2f8a00;stroke-linecap: round;stroke-width: 5.9 } 
		.s13 { fill: none;stroke: #830305;stroke-linecap: round;stroke-linejoin: bevel;stroke-width: 6.9 } 
		.s14 { fill: url(#g9) } 
		.s15 { fill: #d8d8d8;stroke: #ffffff;stroke-linecap: round;stroke-linejoin: bevel;stroke-width: 4.4 } 
		.s16 { fill: url(#g10) } 
		.s17 { opacity: .5;fill: none;stroke: #6da300;stroke-width: 26 } 
		.s18 { fill: url(#g11) } 
		.s19 { opacity: .53;fill: none;stroke: #ffc900;stroke-width: 15 } 
		.s20 { fill: none;stroke: url(#g12);stroke-linecap: round;stroke-linejoin: bevel;stroke-width: 12 } 
		.s21 { fill: none;stroke: url(#g13);stroke-linecap: round;stroke-linejoin: bevel;stroke-width: 12 } 
		.s22 { fill: none;stroke: url(#g14);stroke-linecap: round;stroke-linejoin: bevel;stroke-width: 12 } 
		.s23 { fill: none;stroke: url(#g15);stroke-linecap: round;stroke-linejoin: bevel;stroke-width: 12 } 
		.s24 { fill: none;stroke: url(#g16);stroke-linecap: round;stroke-linejoin: bevel;stroke-width: 12 } 
		.s25 { fill: none;stroke: url(#g17);stroke-linecap: round;stroke-linejoin: bevel;stroke-width: 12 } 
		.s26 { fill: none;stroke: url(#g18);stroke-linecap: round;stroke-linejoin: bevel;stroke-width: 12 } 
		.s27 { fill: none;stroke: url(#g19);stroke-linecap: round;stroke-linejoin: bevel;stroke-width: 12 } 
		.s28 { fill: none;stroke: #000000;stroke-width: 25 } 
	</style>
	<g>
		<path id="Shape 1" fill-rule="evenodd" class="s0" d="m633 0v633h-633v-633z"/>
		<path id="a" fill-rule="evenodd" class="s1" d="m317.5 625c-170.6 0-308.5-137.9-308.5-308.5 0-170.6 137.9-308.5 308.5-308.5 170.6 0 308.5 137.9 308.5 308.5 0 170.6-137.9 308.5-308.5 308.5z"/>
		<g id="Clip-Path" clip-path="url(#cp1)">
			<path fill-rule="evenodd" class="s2" d="m90.5 796.5c-118.6 0-214.5-83.2-214.5-186 0-102.8 95.9-186 214.5-186 118.6 0 214.5 83.2 214.5 186 0 102.8-95.9 186-214.5 186z"/>
		</g>
		<g id="Clip-Path" clip-path="url(#cp2)">
			<path fill-rule="evenodd" class="s2" d="m544.5 796.5c-118.6 0-214.5-83.2-214.5-186 0-102.8 95.9-186 214.5-186 118.6 0 214.5 83.2 214.5 186 0 102.8-95.9 186-214.5 186z"/>
		</g>
		<g id="Clip-Path" clip-path="url(#cp3)">
			<path fill-rule="evenodd" class="s3" d="m90.5 834.5c-118.6 0-214.5-83.2-214.5-186 0-102.8 95.9-186 214.5-186 118.6 0 214.5 83.2 214.5 186 0 102.8-95.9 186-214.5 186z"/>
		</g>
		<g id="Clip-Path" clip-path="url(#cp4)">
			<path fill-rule="evenodd" class="s3" d="m544.5 834.5c-118.6 0-214.5-83.2-214.5-186 0-102.8 95.9-186 214.5-186 118.6 0 214.5 83.2 214.5 186 0 102.8-95.9 186-214.5 186z"/>
		</g>
		<g id="Clip-Path" clip-path="url(#cp5)">
			<path fill-rule="evenodd" class="s4" d="m90.5 870.5c-118.6 0-214.5-83.2-214.5-186 0-102.8 95.9-186 214.5-186 118.6 0 214.5 83.2 214.5 186 0 102.8-95.9 186-214.5 186z"/>
		</g>
		<g id="Clip-Path" clip-path="url(#cp6)">
			<path fill-rule="evenodd" class="s4" d="m544.5 870.5c-118.6 0-214.5-83.2-214.5-186 0-102.8 95.9-186 214.5-186 118.6 0 214.5 83.2 214.5 186 0 102.8-95.9 186-214.5 186z"/>
		</g>
		<g id="Clip-Path" clip-path="url(#cp7)">
			<g>
				<path fill-rule="evenodd" class="s5" d="m218.9 204.4q13.1 55.4 20.5 107.5 7.4 52.1 3.1 115.6l52-11.4q-24.4-87.9-30.2-115.5-5.8-27.7-23.8-98.6z"/>
				<g>
					<path fill-rule="evenodd" class="s6" d="m218.9 183.1c0 0-13.2-21.5-37-28.4q-23.7-6.9-54.2 12.9 24.2 20.4 40.9 23.4c16.7 2.9 50.3-7.9 50.3-7.9z"/>
					<path fill-rule="evenodd" class="s7" d="m218.9 183.7c0 0-47.1-6.8-81.5 18.5q-34.3 25.4-27.7 99.9 43.4-43.1 62.2-63.8c18.7-20.7 47-54.6 47-54.6z"/>
					<path fill-rule="evenodd" class="s8" d="m218.9 183.1q-2.4-32.6 18.6-48.6 21.1-16 44.3-16.8-7.9 32.1-23.3 43.9-15.4 11.8-39.6 21.5z"/>
					<path fill-rule="evenodd" class="s9" d="m218.9 183.7q45.5-46.4 94.2-32.2 48.7 14.2 55.8 56.8-52.2-6.4-75.1-9.4-22.8-2.9-74.9-15.2z"/>
					<path fill-rule="evenodd" class="s10" d="m218.9 183.7q52.5-13.1 88.6 18.7 36 31.9 44.4 78.4-59.3-12.4-85.7-39.1-6.6-6.7-12.8-13.7-6.3-6.9-12.2-14.2-6-7.2-11.5-14.8-5.6-7.5-10.8-15.3z"/>
					<path fill-rule="evenodd" class="s11" d="m218.9 183.7q-48.9 22.4-57 67.3-8.1 45 12 98.7 38.4-61.5 43.6-89.1 5.3-27.6 1.4-76.9z"/>
					<path fill-rule="evenodd" class="s12" d="m220.3 181.5q-20.8 33-28.3 60.1-7.6 27.1-9.5 45.2"/>
					<path fill-rule="evenodd" class="s12" d="m132.8 247.3q9.1-18.8 29.6-38.7 20.4-19.9 56.4-23.7m9.2-9.6q43.6-11.6 65.9-7.4 22.3 4.3 35.8 14.6zm-7.7 5.3q30.4 13.6 54.2 29.8 23.7 16.2 35.6 30.6z"/>
				</g>
				<path fill-rule="evenodd" class="s13" d="m418.4 406.2l-23.2 18.5m-58.2-41.2l-22.3 28.4m7.2-50.2l53.2 59.8"/>
				<path fill-rule="evenodd" class="s14" d="m359.1 387l61.1 9.7q5.5 1.9 4.6 7.5-0.9 5.6-6.7 6.3l-66.4-10.5-36.5-36.5q-3-4.5 0.4-8.1 3.4-3.5 8.5-1.5c0 0 35 33.1 35 33.1z"/>
				<path fill-rule="evenodd" class="s15" d="m411.9 399.5l0.4-4.1m-21.1 1.4l0.5-4.1m-21.2 0.7l0.5-3.8m-24.4-9.7l2.5-2.5m-15.8-9.8l2.5-2.5"/>
			</g>
		</g>
		<g id="Clip-Path" clip-path="url(#cp8)">
			<path fill-rule="evenodd" class="s16" d="m317.5 1045c-147.1 0-266-141.5-266-316.5 0-175 118.9-316.5 266-316.5 147.1 0 266 141.5 266 316.5 0 175-118.9 316.5-266 316.5z"/>
		</g>
		<g id="Clip-Path" clip-path="url(#cp9)">
			<path fill-rule="evenodd" class="s17" d="m317.5 1032c-139.9 0-253-135.7-253-303.5 0-167.8 113.1-303.5 253-303.5 139.9 0 253 135.7 253 303.5 0 167.8-113.1 303.5-253 303.5z"/>
		</g>
		<g id="Clip-Path" clip-path="url(#cp10)">
			<g>
				<g>
					<path fill-rule="evenodd" class="s18" d="m566.5 203c-62.8 0-113.5-50.7-113.5-113.5 0-62.8 50.7-113.5 113.5-113.5 62.8 0 113.5 50.7 113.5 113.5 0 62.8-50.7 113.5-113.5 113.5z"/>
					<path fill-rule="evenodd" class="s19" d="m566.5 195.5c-58.6 0-106-47.4-106-106 0-58.6 47.4-106 106-106 58.6 0 106 47.4 106 106 0 58.6-47.4 106-106 106z"/>
					<path fill-rule="evenodd" class="s20" d="m428 89h-30"/>
					<path fill-rule="evenodd" class="s21" d="m431.5 55.5l-26.5-5.5"/>
					<path fill-rule="evenodd" class="s22" d="m432 122l-29 8"/>
					<path fill-rule="evenodd" class="s23" d="m443 153l-24 13"/>
					<path fill-rule="evenodd" class="s24" d="m465 180l-20 19"/>
					<path fill-rule="evenodd" class="s25" d="m492.4 203l-13.9 22.8"/>
					<path fill-rule="evenodd" class="s26" d="m525.5 219.5l-7.5 24.5"/>
					<path fill-rule="evenodd" class="s27" d="m565.5 228.5l0.5 24.5"/>
				</g>
			</g>
		</g>
		<path fill-rule="evenodd" class="s28" d="m316.5 620.5c-168.1 0-304-135.9-304-304 0-168.1 135.9-304 304-304 168.1 0 304 135.9 304 304 0 168.1-135.9 304-304 304z"/>
	</g>
</svg>