<svg viewBox="0 0 80 80" fill="none" xmlns="http://www.w3.org/2000/svg">
<g clip-path="url(#clip0_433_3)">
<rect width="100%" height="100%" fill="white"/>
<path fill-rule="evenodd" clip-rule="evenodd" d="M40.09 72C22.39 72 8.09 57.7 8.09 40C8.09 22.3 22.4 8 40.09 8C57.78 8 72.09 22.3 72.09 40C72.09 57.7 57.79 72 40.09 72Z" fill="url(#paint0_linear_433_3)"/>
<mask id="mask0_433_3" style="mask-type:luminance" maskUnits="userSpaceOnUse" x="8" y="8" width="65" height="64">
<path d="M40.09 72C22.39 72 8.09 57.7 8.09 40C8.09 22.3 22.4 8 40.09 8C57.78 8 72.09 22.3 72.09 40C72.09 57.7 57.79 72 40.09 72Z" fill="white"/>
</mask>
<g mask="url(#mask0_433_3)">
<path fill-rule="evenodd" clip-rule="evenodd" d="M16.55 89.79C4.25 89.79 -5.7 81.16 -5.7 70.5C-5.7 59.84 4.25 51.21 16.55 51.21C28.85 51.21 38.8 59.84 38.8 70.5C38.8 81.16 28.85 89.79 16.55 89.79Z" fill="#015064" stroke="#00CFE2" stroke-width="2.59" stroke-miterlimit="6.32"/>
</g>
<mask id="mask1_433_3" style="mask-type:luminance" maskUnits="userSpaceOnUse" x="8" y="8" width="65" height="64">
<path d="M40.09 72C22.39 72 8.09 57.7 8.09 40C8.09 22.3 22.4 8 40.09 8C57.78 8 72.09 22.3 72.09 40C72.09 57.7 57.79 72 40.09 72Z" fill="white"/>
</mask>
<g mask="url(#mask1_433_3)">
<path fill-rule="evenodd" clip-rule="evenodd" d="M63.64 89.79C51.34 89.79 41.39 81.16 41.39 70.5C41.39 59.84 51.34 51.21 63.64 51.21C75.94 51.21 85.89 59.84 85.89 70.5C85.89 81.16 75.94 89.79 63.64 89.79Z" fill="#015064" stroke="#00CFE2" stroke-width="2.59" stroke-miterlimit="6.32"/>
</g>
<mask id="mask2_433_3" style="mask-type:luminance" maskUnits="userSpaceOnUse" x="8" y="8" width="65" height="64">
<path d="M40.09 72C22.39 72 8.09 57.7 8.09 40C8.09 22.3 22.4 8 40.09 8C57.78 8 72.09 22.3 72.09 40C72.09 57.7 57.79 72 40.09 72Z" fill="white"/>
</mask>
<g mask="url(#mask2_433_3)">
<path fill-rule="evenodd" clip-rule="evenodd" d="M16.55 93.7299C4.25 93.7299 -5.7 85.0999 -5.7 74.4399C-5.7 63.7799 4.25 55.1499 16.55 55.1499C28.85 55.1499 38.8 63.7799 38.8 74.4399C38.8 85.0999 28.85 93.7299 16.55 93.7299Z" fill="#015064" stroke="#00A8B8" stroke-width="2.59" stroke-miterlimit="6.32"/>
</g>
<mask id="mask3_433_3" style="mask-type:luminance" maskUnits="userSpaceOnUse" x="8" y="8" width="65" height="64">
<path d="M40.09 72C22.39 72 8.09 57.7 8.09 40C8.09 22.3 22.4 8 40.09 8C57.78 8 72.09 22.3 72.09 40C72.09 57.7 57.79 72 40.09 72Z" fill="white"/>
</mask>
<g mask="url(#mask3_433_3)">
<path fill-rule="evenodd" clip-rule="evenodd" d="M63.64 93.7299C51.34 93.7299 41.39 85.0999 41.39 74.4399C41.39 63.7799 51.34 55.1499 63.64 55.1499C75.94 55.1499 85.89 63.7799 85.89 74.4399C85.89 85.0999 75.94 93.7299 63.64 93.7299Z" fill="#015064" stroke="#00A8B8" stroke-width="2.59" stroke-miterlimit="6.32"/>
</g>
<mask id="mask4_433_3" style="mask-type:luminance" maskUnits="userSpaceOnUse" x="8" y="8" width="65" height="64">
<path d="M40.09 72C22.39 72 8.09 57.7 8.09 40C8.09 22.3 22.4 8 40.09 8C57.78 8 72.09 22.3 72.09 40C72.09 57.7 57.79 72 40.09 72Z" fill="white"/>
</mask>
<g mask="url(#mask4_433_3)">
<path fill-rule="evenodd" clip-rule="evenodd" d="M16.55 97.4599C4.25 97.4599 -5.7 88.8299 -5.7 78.1699C-5.7 67.5099 4.25 58.8799 16.55 58.8799C28.85 58.8799 38.8 67.5099 38.8 78.1699C38.8 88.8299 28.85 97.4599 16.55 97.4599Z" fill="#015064" stroke="#007782" stroke-width="2.59" stroke-miterlimit="6.32"/>
</g>
<mask id="mask5_433_3" style="mask-type:luminance" maskUnits="userSpaceOnUse" x="8" y="8" width="65" height="64">
<path d="M40.09 72C22.39 72 8.09 57.7 8.09 40C8.09 22.3 22.4 8 40.09 8C57.78 8 72.09 22.3 72.09 40C72.09 57.7 57.79 72 40.09 72Z" fill="white"/>
</mask>
<g mask="url(#mask5_433_3)">
<path fill-rule="evenodd" clip-rule="evenodd" d="M63.64 97.4599C51.34 97.4599 41.39 88.8299 41.39 78.1699C41.39 67.5099 51.34 58.8799 63.64 58.8799C75.94 58.8799 85.89 67.5099 85.89 78.1699C85.89 88.8299 75.94 97.4599 63.64 97.4599Z" fill="#015064" stroke="#007782" stroke-width="2.59" stroke-miterlimit="6.32"/>
</g>
<mask id="mask6_433_3" style="mask-type:luminance" maskUnits="userSpaceOnUse" x="8" y="8" width="65" height="64">
<path d="M40.09 72C22.39 72 8.09 57.7 8.09 40C8.09 22.3 22.4 8 40.09 8C57.78 8 72.09 22.3 72.09 40C72.09 57.7 57.79 72 40.09 72Z" fill="white"/>
</mask>
<g mask="url(#mask6_433_3)">
<path fill-rule="evenodd" clip-rule="evenodd" d="M29.86 28.3699C30.77 32.1999 31.47 35.9199 31.99 39.5199C32.5 43.1199 32.61 47.1199 32.31 51.5099L37.7 50.3299C36.01 44.2499 34.97 40.2599 34.57 38.3499C34.17 36.4299 33.35 33.0299 32.1 28.1199L29.86 28.3699Z" fill="url(#paint1_linear_433_3)" stroke="#6E3A00" stroke-width="0.63" stroke-miterlimit="6.32"/>
<path fill-rule="evenodd" clip-rule="evenodd" d="M29.86 26.1599C29.86 26.1599 28.49 23.9299 26.02 23.2099C24.38 22.7299 22.51 23.1799 20.4 24.5499C22.07 25.9599 23.49 26.7699 24.64 26.9799C26.37 27.2799 29.86 26.1599 29.86 26.1599Z" fill="url(#paint2_linear_433_3)" stroke="#2F8A00" stroke-width="0.96" stroke-miterlimit="6.32"/>
<path fill-rule="evenodd" clip-rule="evenodd" d="M29.86 26.2199C29.86 26.2199 24.97 25.5098 21.41 28.1398C19.04 29.8998 18.08 33.3498 18.54 38.4998C21.54 35.5198 23.69 33.3099 24.99 31.8799C26.93 29.7299 29.87 26.2199 29.87 26.2199H29.86Z" fill="url(#paint3_linear_433_3)" stroke="#2F8A00" stroke-width="0.96" stroke-miterlimit="6.32"/>
<path fill-rule="evenodd" clip-rule="evenodd" d="M29.86 26.1599C29.69 23.9099 30.34 22.2299 31.79 21.1199C33.25 20.0099 34.78 19.4299 36.39 19.3799C35.84 21.5999 35.04 23.1199 33.97 23.9299C32.91 24.7499 31.54 25.4899 29.86 26.1599Z" fill="url(#paint4_linear_433_3)" stroke="#2F8A00" stroke-width="0.96" stroke-miterlimit="6.32"/>
<path fill-rule="evenodd" clip-rule="evenodd" d="M29.86 26.2199C33.01 23.0099 36.26 21.8999 39.63 22.8799C43 23.8599 44.93 25.8299 45.42 28.7699C41.81 28.3299 39.21 27.9999 37.63 27.7899C36.05 27.5899 33.46 27.0599 29.86 26.2099V26.2199Z" fill="url(#paint5_linear_433_3)" stroke="#2F8A00" stroke-width="0.96" stroke-miterlimit="6.32"/>
<path fill-rule="evenodd" clip-rule="evenodd" d="M29.86 26.2199C33.49 25.3099 36.55 25.9599 39.05 28.1599C41.54 30.3699 43.07 33.0799 43.66 36.2899C39.56 35.4299 36.6 34.0799 34.77 32.2299C34.31 31.7699 33.87 31.2899 33.44 30.8099C33 30.3299 32.58 29.8399 32.17 29.3399C31.76 28.8399 31.36 28.3299 30.98 27.7999C30.59 27.2799 30.22 26.7499 29.86 26.2099V26.2199Z" fill="url(#paint6_linear_433_3)" stroke="#2F8A00" stroke-width="0.96" stroke-miterlimit="6.32"/>
<path fill-rule="evenodd" clip-rule="evenodd" d="M29.86 26.22C26.48 27.77 24.51 30.1 23.95 33.2C23.39 36.31 23.8 39.72 25.19 43.44C27.85 39.19 29.35 36.11 29.71 34.2C30.08 32.29 30.12 29.63 29.86 26.22Z" fill="url(#paint7_linear_433_3)" stroke="#2F8A00" stroke-width="0.96" stroke-miterlimit="6.32"/>
<path d="M30.01 26C28.57 28.28 27.59 30.36 27.07 32.23C26.54 34.1 26.22 35.67 26.08 36.92" stroke="#2F8A00" stroke-width="0.61" stroke-miterlimit="6.32" stroke-linecap="round"/>
<path d="M20.93 32.82C21.56 31.52 22.58 30.18 24 28.81C25.41 27.43 27.36 26.61 29.85 26.35M30.81 25.35C33.83 24.55 36.1 24.29 37.65 24.58C39.19 24.88 40.43 25.38 41.36 26.09L30.81 25.34V25.35ZM30.01 25.9C32.11 26.84 33.99 27.87 35.63 28.99C37.27 30.11 38.5 31.17 39.32 32.16L30.01 25.89V25.9Z" stroke="#2F8A00" stroke-width="0.61" stroke-miterlimit="6.32" stroke-linecap="round"/>
<path d="M50.56 49.2999L48.15 51.2199M42.12 46.9499L39.81 49.8999M40.55 44.6899L46.07 50.8899" stroke="#830305" stroke-width="0.72" stroke-linecap="round" stroke-linejoin="bevel"/>
<path fill-rule="evenodd" clip-rule="evenodd" d="M44.41 47.3098L50.75 48.3198C51.13 48.4498 51.29 48.7098 51.23 49.0998C51.17 49.4898 50.94 49.7098 50.54 49.7498L43.65 48.6598L39.86 44.8698C39.65 44.5598 39.67 44.2798 39.9 44.0298C40.14 43.7898 40.43 43.7398 40.78 43.8698L44.41 47.2998V47.3098Z" fill="url(#paint8_linear_433_3)"/>
<path fill-rule="evenodd" clip-rule="evenodd" d="M49.88 48.6098L49.92 48.1798ZM47.74 48.3298L47.79 47.8998ZM45.59 47.9798L45.64 47.5898ZM43.11 46.5798L43.37 46.3198ZM41.73 45.2998L41.99 45.0398Z" fill="#D8D8D8"/>
<path d="M49.88 48.6098L49.92 48.1798M47.74 48.3298L47.79 47.8998M45.59 47.9798L45.64 47.5898M43.11 46.5798L43.37 46.3198M41.73 45.2998L41.99 45.0398" stroke="white" stroke-width="0.46" stroke-linecap="round" stroke-linejoin="bevel"/>
</g>
<mask id="mask7_433_3" style="mask-type:luminance" maskUnits="userSpaceOnUse" x="8" y="8" width="65" height="64">
<path d="M40.09 72C22.39 72 8.09 57.7 8.09 40C8.09 22.3 22.4 8 40.09 8C57.78 8 72.09 22.3 72.09 40C72.09 57.7 57.79 72 40.09 72Z" fill="white"/>
</mask>
<g mask="url(#mask7_433_3)">
<path fill-rule="evenodd" clip-rule="evenodd" d="M40.09 115.56C24.83 115.56 12.5 100.88 12.5 82.7299C12.5 64.5799 24.83 49.8999 40.09 49.8999C55.35 49.8999 67.68 64.5799 67.68 82.7299C67.68 100.88 55.35 115.56 40.09 115.56Z" fill="url(#paint9_linear_433_3)"/>
</g>
<mask id="mask8_433_3" style="mask-type:luminance" maskUnits="userSpaceOnUse" x="8" y="8" width="65" height="64">
<path d="M40.09 72C22.39 72 8.09 57.7 8.09 40C8.09 22.3 22.4 8 40.09 8C57.78 8 72.09 22.3 72.09 40C72.09 57.7 57.79 72 40.09 72Z" fill="white"/>
</mask>
<g mask="url(#mask8_433_3)">
<path opacity="0.5" d="M40.09 114.22C25.58 114.22 13.85 100.14 13.85 82.74C13.85 65.34 25.58 51.26 40.09 51.26C54.6 51.26 66.33 65.34 66.33 82.74C66.33 100.14 54.6 114.22 40.09 114.22Z" stroke="#6DA300" stroke-width="2.7" stroke-miterlimit="6.32"/>
</g>
<mask id="mask9_433_3" style="mask-type:luminance" maskUnits="userSpaceOnUse" x="8" y="8" width="65" height="64">
<path d="M40.09 72C22.39 72 8.09 57.7 8.09 40C8.09 22.3 22.4 8 40.09 8C57.78 8 72.09 22.3 72.09 40C72.09 57.7 57.79 72 40.09 72Z" fill="white"/>
</mask>
<g mask="url(#mask9_433_3)">
<path fill-rule="evenodd" clip-rule="evenodd" d="M65.92 28.2299C59.41 28.2299 54.15 22.9699 54.15 16.4599C54.15 9.94993 59.41 4.67993 65.92 4.67993C72.43 4.67993 77.69 9.93993 77.69 16.4499C77.69 22.9599 72.43 28.2199 65.92 28.2199V28.2299Z" fill="url(#paint10_linear_433_3)"/>
<path opacity="0.53" d="M65.92 27.45C59.84 27.45 54.92 22.53 54.92 16.45C54.92 10.37 59.84 5.45996 65.92 5.45996C72 5.45996 76.92 10.38 76.92 16.46C76.92 22.54 72 27.46 65.92 27.46V27.45Z" stroke="#FFC900" stroke-width="1.56" stroke-miterlimit="6.32"/>
<path d="M51.55 16.3999H48.44" stroke="url(#paint11_linear_433_3)" stroke-width="1.24" stroke-linecap="round" stroke-linejoin="bevel"/>
<path d="M51.92 12.9299L49.17 12.3599" stroke="url(#paint12_linear_433_3)" stroke-width="1.24" stroke-linecap="round" stroke-linejoin="bevel"/>
<path d="M51.97 19.8198L48.96 20.6498" stroke="url(#paint13_linear_433_3)" stroke-width="1.24" stroke-linecap="round" stroke-linejoin="bevel"/>
<path d="M53.11 23.04L50.62 24.39" stroke="url(#paint14_linear_433_3)" stroke-width="1.24" stroke-linecap="round" stroke-linejoin="bevel"/>
<path d="M55.39 25.8398L53.32 27.8098" stroke="url(#paint15_linear_433_3)" stroke-width="1.24" stroke-linecap="round" stroke-linejoin="bevel"/>
<path d="M58.23 28.23L56.79 30.59" stroke="url(#paint16_linear_433_3)" stroke-width="1.24" stroke-linecap="round" stroke-linejoin="bevel"/>
<path d="M61.67 29.9399L60.89 32.4799" stroke="url(#paint17_linear_433_3)" stroke-width="1.24" stroke-linecap="round" stroke-linejoin="bevel"/>
<path d="M65.82 30.8699L65.87 33.4099" stroke="url(#paint18_linear_433_3)" stroke-width="1.24" stroke-linecap="round" stroke-linejoin="bevel"/>
</g>
<path d="M39.99 71.53C22.55 71.53 8.46001 57.43 8.46001 40C8.46001 22.57 22.55 8.46997 39.99 8.46997C57.43 8.46997 71.52 22.57 71.52 40C71.52 57.43 57.42 71.53 39.99 71.53Z" stroke="black" stroke-width="2.59" stroke-miterlimit="6.32"/>
</g>
<defs>
<linearGradient id="paint0_linear_433_3" x1="42.2174" y1="4.9912" x2="42.2174" y2="53.8785" gradientUnits="userSpaceOnUse">
<stop stop-color="#6BDAFF"/>
<stop offset="0.32" stop-color="#F9FFB5"/>
<stop offset="0.71" stop-color="#FFA770"/>
<stop offset="1" stop-color="#FF7373"/>
</linearGradient>
<linearGradient id="paint1_linear_433_3" x1="33.5086" y1="28.97" x2="34.2962" y2="50.2467" gradientUnits="userSpaceOnUse">
<stop stop-color="#673800"/>
<stop offset="1" stop-color="#B65E00"/>
</linearGradient>
<linearGradient id="paint2_linear_433_3" x1="25.6431" y1="22.9954" x2="25.6431" y2="27.2619" gradientUnits="userSpaceOnUse">
<stop stop-color="#2F8A00"/>
<stop offset="1" stop-color="#90FF57"/>
</linearGradient>
<linearGradient id="paint3_linear_433_3" x1="24.8776" y1="25.8462" x2="24.8776" y2="39.025" gradientUnits="userSpaceOnUse">
<stop stop-color="#2F8A00"/>
<stop offset="1" stop-color="#90FF57"/>
</linearGradient>
<linearGradient id="paint4_linear_433_3" x1="32.9568" y1="19.1579" x2="32.9568" y2="26.3959" gradientUnits="userSpaceOnUse">
<stop stop-color="#2F8A00"/>
<stop offset="1" stop-color="#90FF57"/>
</linearGradient>
<linearGradient id="paint5_linear_433_3" x1="36.7955" y1="22.9885" x2="36.7955" y2="28.6891" gradientUnits="userSpaceOnUse">
<stop stop-color="#2F8A00"/>
<stop offset="1" stop-color="#90FF57"/>
</linearGradient>
<linearGradient id="paint6_linear_433_3" x1="36.084" y1="26.4873" x2="36.084" y2="36.0525" gradientUnits="userSpaceOnUse">
<stop stop-color="#2F8A00"/>
<stop offset="1" stop-color="#90FF57"/>
</linearGradient>
<linearGradient id="paint7_linear_433_3" x1="26.8404" y1="25.7192" x2="26.8404" y2="44.076" gradientUnits="userSpaceOnUse">
<stop stop-color="#2F8A00"/>
<stop offset="1" stop-color="#90FF57"/>
</linearGradient>
<linearGradient id="paint8_linear_433_3" x1="51.0031" y1="47.0938" x2="40.646" y2="47.6729" gradientUnits="userSpaceOnUse">
<stop stop-color="#EE2700"/>
<stop offset="1" stop-color="#FF008E"/>
</linearGradient>
<linearGradient id="paint9_linear_433_3" x1="50.9032" y1="56.6391" x2="42.1312" y2="80.3021" gradientUnits="userSpaceOnUse">
<stop stop-color="#FFF400"/>
<stop offset="1" stop-color="#3C8700"/>
</linearGradient>
<linearGradient id="paint10_linear_433_3" x1="64.33" y1="5.26803" x2="64.33" y2="26.7846" gradientUnits="userSpaceOnUse">
<stop stop-color="#FFDF00"/>
<stop offset="1" stop-color="#FF9D00"/>
</linearGradient>
<linearGradient id="paint11_linear_433_3" x1="nan" y1="nan" x2="nan" y2="nan" gradientUnits="userSpaceOnUse">
<stop stop-color="#FFA400"/>
<stop offset="1" stop-color="#FF5E00"/>
</linearGradient>
<linearGradient id="paint12_linear_433_3" x1="52.5468" y1="12.7987" x2="48.8167" y2="12.8286" gradientUnits="userSpaceOnUse">
<stop stop-color="#FFA400"/>
<stop offset="1" stop-color="#FF5E00"/>
</linearGradient>
<linearGradient id="paint13_linear_433_3" x1="52.8959" y1="20.4095" x2="48.8141" y2="20.4772" gradientUnits="userSpaceOnUse">
<stop stop-color="#FFA400"/>
<stop offset="1" stop-color="#FF5E00"/>
</linearGradient>
<linearGradient id="paint14_linear_433_3" x1="53.9662" y1="23.7814" x2="50.5884" y2="24.2034" gradientUnits="userSpaceOnUse">
<stop stop-color="#FFA400"/>
<stop offset="1" stop-color="#FF5E00"/>
</linearGradient>
<linearGradient id="paint15_linear_433_3" x1="55.8878" y1="25.869" x2="53.0728" y2="27.7656" gradientUnits="userSpaceOnUse">
<stop stop-color="#FFA400"/>
<stop offset="1" stop-color="#FF5E00"/>
</linearGradient>
<linearGradient id="paint16_linear_433_3" x1="57.8075" y1="28.3982" x2="57.1954" y2="30.564" gradientUnits="userSpaceOnUse">
<stop stop-color="#FFA400"/>
<stop offset="1" stop-color="#FF5E00"/>
</linearGradient>
<linearGradient id="paint17_linear_433_3" x1="61.2911" y1="29.9026" x2="61.1832" y2="32.6122" gradientUnits="userSpaceOnUse">
<stop stop-color="#FFA400"/>
<stop offset="1" stop-color="#FF5E00"/>
</linearGradient>
<linearGradient id="paint18_linear_433_3" x1="62.1829" y1="30.8331" x2="62.1825" y2="33.1551" gradientUnits="userSpaceOnUse">
<stop stop-color="#FFA400"/>
<stop offset="1" stop-color="#FF5E00"/>
</linearGradient>
<clipPath id="clip0_433_3">
<rect width="80" height="80" fill="white"/>
</clipPath>
</defs>
</svg>
