<svg xmlns="http://www.w3.org/2000/svg" viewBox="0 0 80 80">
  <rect width="100%" height="100%" fill="#1B1B1D"/>
  <path fill="#FFC131" d="M52.094 30.746a6.471 6.471 0 1 1-12.943 0 6.471 6.471 0 0 1 12.943 0Z"/>
  <path fill="#24C8DB" d="M34.74 42.806a6.471 6.471 0 1 0 0 12.942 6.471 6.471 0 0 0 0-12.942Z"/>
  <path fill="#FFC131" fill-rule="evenodd" d="M59.036 51.483a24.71 24.71 0 0 1-8.53 3.471 17.354 17.354 0 0 0 .853-7.824 17.354 17.354 0 1 0-19.825-26.502 28.827 28.827 0 0 0-9.471 2.765 24.707 24.707 0 1 1 36.973 28.09Zm-36.68-23.59 6.06.736c.137-1.17.394-2.324.765-3.442a24.712 24.712 0 0 0-6.824 2.706Z" clip-rule="evenodd"/>
  <path fill="#24C8DB" fill-rule="evenodd" d="M21.298 28.54a24.708 24.708 0 0 1 8.589-3.5 17.325 17.325 0 0 0-.971 7.854 17.354 17.354 0 1 0 19.913 26.472 28.826 28.826 0 0 0 9.471-2.735 24.708 24.708 0 1 1-37.002-28.09Z" clip-rule="evenodd"/>
</svg>
