<svg viewBox="0 0 80 80" xmlns="http://www.w3.org/2000/svg">
<rect width="100%" height="100%" fill="white"/>
<path d="M40 38.0391C41.0493 38.0391 41.9004 38.8901 41.9004 39.9395C41.9003 40.9887 41.0493 41.8389 40 41.8389C38.9507 41.8388 38.0997 40.9887 38.0996 39.9395C38.0996 38.8901 38.9507 38.0391 40 38.0391Z" fill="black"/>
<path fill-rule="evenodd" clip-rule="evenodd" d="M60.0869 7.27539L47.1494 29.4834C48.4039 30.3428 49.4932 31.4234 50.3672 32.667L58.8701 27.7588L60.1367 29.9531L51.6113 34.874C52.1282 36.0573 52.4716 37.334 52.6045 38.6729H78V41.2061H52.6045C52.4716 42.5445 52.1281 43.8209 51.6113 45.0039L60.1367 49.9258L58.8701 52.1201L50.3672 47.2109C49.6635 48.2124 48.8198 49.1069 47.8623 49.8662L60.8779 72.208L58.6885 73.4834L45.7275 51.2354C44.3637 51.9282 42.8594 52.3838 41.2666 52.542V62.1055H38.7334V52.542C37.2 52.3897 35.7479 51.9632 34.4248 51.3135L34.1904 51.7168L21.4385 73.6064L19.249 72.332L32.2734 49.9736C31.2594 49.1917 30.3679 48.26 29.6309 47.2109L21.1299 52.1191L19.8633 49.9258L28.3877 45.0039C27.871 43.821 27.5284 42.5444 27.3955 41.2061H2V38.6729H27.3955C27.5284 37.3342 27.8709 36.0572 28.3877 34.874L19.8633 29.9531L21.1299 27.7588L29.6318 32.667C30.4885 31.4478 31.553 30.3862 32.7764 29.5352L19.8086 7.27539L21.9971 6L34.9893 28.3018C36.1569 27.7983 37.4155 27.4658 38.7334 27.335V17.7725H41.2666V27.335C42.5526 27.4626 43.7821 27.7824 44.9258 28.2656L45.1455 27.8896L57.8984 6L60.0869 7.27539ZM40 29.9531C34.4849 29.9531 30.0137 34.4244 30.0137 39.9395C30.0138 45.4544 34.4851 49.9248 40 49.9248C45.5149 49.9248 49.9862 45.4544 49.9863 39.9395C49.9863 34.4244 45.5151 29.9531 40 29.9531Z" fill="black"/>
<path d="M40 64.6387C41.0493 64.6387 41.9004 65.4897 41.9004 66.5391C41.9003 67.5883 41.0493 68.4385 40 68.4385C38.9507 68.4385 38.0997 67.5883 38.0996 66.5391C38.0996 65.4897 38.9507 64.6387 40 64.6387Z" fill="black"/>
<path d="M17.2002 51.3398C18.2494 51.3399 19.0996 52.19 19.0996 53.2393C19.0996 54.2885 18.2495 55.1396 17.2002 55.1396C16.1509 55.1396 15.2998 54.2886 15.2998 53.2393C15.2999 52.19 16.1509 51.3398 17.2002 51.3398Z" fill="black"/>
<path d="M62.7998 51.3398C63.8491 51.3398 64.7001 52.19 64.7002 53.2393C64.7002 54.2886 63.8491 55.1396 62.7998 55.1396C61.7505 55.1396 60.9004 54.2885 60.9004 53.2393C60.9004 52.19 61.7506 51.3399 62.7998 51.3398Z" fill="black"/>
<path d="M17.2002 24.7393C18.2493 24.7394 19.0994 25.5895 19.0996 26.6387C19.0996 27.688 18.2495 28.539 17.2002 28.5391C16.1509 28.5391 15.2998 27.688 15.2998 26.6387C15.3 25.5895 16.151 24.7393 17.2002 24.7393Z" fill="black"/>
<path d="M62.7998 24.7393C63.849 24.7393 64.7 25.5895 64.7002 26.6387C64.7002 27.688 63.8491 28.5391 62.7998 28.5391C61.7505 28.539 60.9004 27.688 60.9004 26.6387C60.9006 25.5895 61.7507 24.7393 62.7998 24.7393Z" fill="black"/>
<path d="M40 11.4395C41.0493 11.4395 41.9004 12.2905 41.9004 13.3398C41.9002 14.389 41.0492 15.2393 40 15.2393C38.9508 15.2392 38.0998 14.389 38.0996 13.3398C38.0996 12.2905 38.9507 11.4395 40 11.4395Z" fill="black"/>
</svg>
