<svg xmlns="http://www.w3.org/2000/svg" viewBox="0 0 80 80">
  <rect width="100%" height="100%" fill="#fff"/>
  <path fill="url(#a)" d="M47.2 75a1.8 1.8 0 0 1-.76-.17 1.84 1.84 0 0 1-.99-2.31c.07-.52-.53-2.25-4.12-4.56a1.86 1.86 0 0 1 1.97-3.13c2.9 1.85 4.74 3.8 5.48 5.76.46 1.05.49 2.25.08 3.32A1.84 1.84 0 0 1 47.2 75Z"/>
  <path fill="url(#b)" d="M47.2 75a1.86 1.86 0 0 1-.56-3.6 12.17 12.17 0 0 0 8.46-8.78 1.86 1.86 0 1 1 3.66.63A15.76 15.76 0 0 1 47.8 74.9c-.2.07-.4.1-.6.09Z"/>
  <path fill="url(#c)" d="M42.65 68.26a9.77 9.77 0 0 1-4.1-.85 7.93 7.93 0 0 1-4.25-4.66l3.6-1.03a4.23 4.23 0 0 0 2.28 2.37c2.03.9 5.04.5 8.72-1.15a1.86 1.86 0 0 1 1.52 3.4 19.22 19.22 0 0 1-7.77 1.92Z"/>
  <path fill="url(#d)" d="M56.94 64.76a1.85 1.85 0 0 1-.8-3.54c2.5-1.19 2.3-2.99 2.24-3.38a1.7 1.7 0 0 1 .64-1.87c.27-.24 3.81-3.52 1.8-11.32a1.86 1.86 0 0 1 3.6-.94c2.12 8.1-.78 12.67-2.26 14.4a7 7 0 0 1-4.46 6.47c-.24.11-.5.17-.76.18Z"/>
  <path fill="url(#e)" d="M36.7 64.11a9.74 9.74 0 0 1-9.65-6.7 1.87 1.87 0 0 1 3.6-1.02 5.91 5.91 0 0 0 3 3.36c2.23 1.07 5.27.8 9.05-.76a1.86 1.86 0 1 1 1.4 3.41 19.53 19.53 0 0 1-7.4 1.71Z"/>
  <path fill="url(#f)" d="M29.62 58.8c-1.05.01-2.11-.07-3.15-.25-.8-.13-9.17-1.7-13.19-9.74-4.02-8.04-1.54-17.29-1.36-17.9C15.41 17.22 30.56 9.2 31.76 8.57A41.54 41.54 0 0 1 50.93 3a1.86 1.86 0 1 1 0 3.72 38.6 38.6 0 0 0-17.34 5.1l-.1.05c-.14.08-14.83 7.68-18 19.96 0 .08-2.27 8.48 1.11 15.24 3.3 6.62 10.4 7.76 10.5 7.78h.11c1.3.2 2.63.24 3.94.13a26.27 26.27 0 0 0 9.66-2.7 1.86 1.86 0 1 1 1.6 3.33 29.01 29.01 0 0 1-12.79 3.19Z"/>
  <path fill="url(#g)" d="M20.65 36.21h-.1a1.41 1.41 0 0 1-1.31-1.51c.6-8.77 6.3-14.07 8.78-15.96C39.15 10.2 48.45 8.97 51.4 8.81h.73a1.42 1.42 0 0 1 0 2.84c-1.04 0-10.63.3-22.33 9.35-2.13 1.65-7.2 6.3-7.68 13.9a1.43 1.43 0 0 1-1.47 1.31Z"/>
  <path fill="url(#h)" d="M58.02 40.66a1.4 1.4 0 0 1-1.4-1.68c.07-.37.29-.7.6-.91 1.13-.8 4.19-3.48 4.66-6.4.56-3.55-1.53-7.45-2.35-8.1l-.07-.06a1.42 1.42 0 0 1 .65-2.7c.2 0 .41.05.6.13 1.55.71 2.7 3.45 3.04 4.27.9 2.19 1.23 4.58.94 6.93-.75 4.76-5.65 8.16-5.85 8.3-.25.15-.54.23-.82.22Z"/>
  <path fill="url(#i)" d="M30.81 37.52a8.76 8.76 0 0 1 .6-7.2c2.08-3.67 6.24-6.86 12.35-9.5 8.1-3.5 14.02-1.97 17.54-.05 2.3 1.23 4.28 3 5.78 5.13.48.68 4.22 6.64-.56 15.44-4.78 8.8-14.96 14.2-15.38 14.4a1.85 1.85 0 0 1-2.63-2.21c.15-.47.48-.86.92-1.1.14-.06 9.55-5.01 13.82-12.88 3.81-7.02.9-11.37.77-11.55l-.06-.1c-.24-.36-6.05-9.16-18.72-3.68a7.33 7.33 0 0 1 2.56 2.36c1.42 2.19 2.28 7.48-4.39 12.38-2.2 1.62-5.4 3.34-8.94 3.34-.84 0-1.67-.1-2.48-.28a9.53 9.53 0 0 1-4.5-2.4c-2.22-2.35-3.22-4.82-2.98-7.4.44-4.67 4.92-8.45 8.77-11.23 6.13-4.41 15.43-7.2 15.83-7.36a1.88 1.88 0 1 1 1.07 3.6c-.1 0-9.1 2.77-14.72 6.81-2.97 2.14-6.94 5.35-7.2 8.57-.14 1.47 0 3.98 2.58 4.94l4.5 1.14"/>
  <linearGradient id="a" x1="40.48" x2="49.17" y1="69.77" y2="69.77" gradientUnits="userSpaceOnUse">
    <stop stop-color="#AEDFE4"/>
    <stop offset="1" stop-color="#5E9DD0"/>
  </linearGradient>
  <linearGradient id="b" x1="45.34" x2="58.79" y1="68.02" y2="68.02" gradientUnits="userSpaceOnUse">
    <stop stop-color="#AEDFE4"/>
    <stop offset="1" stop-color="#5E9DD0"/>
  </linearGradient>
  <linearGradient id="c" x1="34.33" x2="51.52" y1="64.97" y2="64.97" gradientUnits="userSpaceOnUse">
    <stop stop-color="#AEDFE4"/>
    <stop offset="1" stop-color="#5E9DD0"/>
  </linearGradient>
  <linearGradient id="d" x1="55.07" x2="65.14" y1="53.54" y2="53.54" gradientUnits="userSpaceOnUse">
    <stop stop-color="#AEDFE4"/>
    <stop offset="1" stop-color="#5E9DD0"/>
  </linearGradient>
  <linearGradient id="e" x1="26.99" x2="45.26" y1="59.57" y2="59.57" gradientUnits="userSpaceOnUse">
    <stop stop-color="#AEDFE4"/>
    <stop offset="1" stop-color="#5E9DD0"/>
  </linearGradient>
  <linearGradient id="f" x1="11.02" x2="52.8" y1="30.88" y2="30.88" gradientUnits="userSpaceOnUse">
    <stop stop-color="#AEDFE4"/>
    <stop offset="1" stop-color="#5E9DD0"/>
  </linearGradient>
  <linearGradient id="g" x1="19.23" x2="53.59" y1="22.5" y2="22.5" gradientUnits="userSpaceOnUse">
    <stop stop-color="#AEDFE4"/>
    <stop offset="1" stop-color="#5E9DD0"/>
  </linearGradient>
  <linearGradient id="h" x1="56.59" x2="64.81" y1="30.72" y2="30.72" gradientUnits="userSpaceOnUse">
    <stop stop-color="#AEDFE4"/>
    <stop offset="1" stop-color="#5E9DD0"/>
  </linearGradient>
  <linearGradient id="i" x1="24.49" x2="68.92" y1="34.75" y2="34.75" gradientUnits="userSpaceOnUse">
    <stop stop-color="#AEDFE4"/>
    <stop offset="1" stop-color="#5E9DD0"/>
  </linearGradient>
</svg>