<svg viewBox="0 0 80 80" xmlns="http://www.w3.org/2000/svg">
<rect width="100%" height="100%" fill="white"/>
<path d="M45.6974 75C45.4329 74.9999 45.1717 74.9415 44.9324 74.829C44.5069 74.6386 44.1693 74.2943 43.9873 73.8653C43.8054 73.4362 43.7925 72.9542 43.9514 72.516C44.0144 72.003 43.4204 70.266 39.8294 67.962C39.474 67.6755 39.2362 67.2685 39.1611 66.8182C39.086 66.3679 39.1789 65.9058 39.422 65.5194C39.6651 65.1331 40.0416 64.8495 40.4801 64.7224C40.9185 64.5953 41.3883 64.6336 41.8004 64.83C44.6894 66.684 46.5344 68.628 47.2724 70.59C47.736 71.6431 47.7651 72.8366 47.3534 73.911C47.2095 74.2313 46.9773 74.5038 46.684 74.6967C46.3907 74.8896 46.0484 74.9948 45.6974 75V75Z" fill="url(#paint0_linear_66_3900)"/>
<path d="M45.697 75C45.2715 74.9754 44.8673 74.8057 44.5518 74.5192C44.2364 74.2326 44.0287 73.8466 43.9634 73.4255C43.8981 73.0043 43.9792 72.5735 44.1931 72.2049C44.4071 71.8363 44.7409 71.5522 45.139 71.4C47.1962 70.8105 49.0616 69.6888 50.5469 68.1482C52.0323 66.6075 53.085 64.7024 53.599 62.625C53.6397 62.3845 53.7275 62.1544 53.8572 61.9477C53.9869 61.7411 54.1561 61.5621 54.355 61.4209C54.5539 61.2796 54.7786 61.179 55.0165 61.1246C55.2543 61.0702 55.5005 61.0632 55.741 61.104C55.9815 61.1448 56.2116 61.2325 56.4182 61.3622C56.6248 61.492 56.8039 61.6611 56.9451 61.86C57.0863 62.0589 57.187 62.2837 57.2414 62.5215C57.2957 62.7593 57.3027 63.0055 57.262 63.246C56.643 65.992 55.2999 68.5222 53.3721 70.5734C51.4444 72.6246 49.0024 74.122 46.3 74.91C46.1061 74.9765 45.9018 75.007 45.697 75V75Z" fill="url(#paint1_linear_66_3900)"/>
<path d="M41.1428 68.259C39.7328 68.2757 38.3358 67.9871 37.0478 67.413C36.0585 66.9679 35.171 66.3245 34.4403 65.5226C33.7096 64.7207 33.1513 63.7774 32.7998 62.751L36.3998 61.716C36.6013 62.2441 36.9067 62.7264 37.2978 63.1345C37.6889 63.5426 38.1578 63.8682 38.6768 64.092C40.7018 64.992 43.7168 64.596 47.3978 62.94C47.8413 62.7745 48.3312 62.784 48.768 62.9666C49.2047 63.1493 49.5556 63.4914 49.7492 63.9233C49.9429 64.3553 49.9648 64.8448 49.8105 65.2924C49.6563 65.74 49.3375 66.112 48.9188 66.333C46.4908 67.5139 43.8413 68.1702 41.1428 68.259V68.259Z" fill="url(#paint2_linear_66_3900)"/>
<path d="M55.4352 64.758C55.0107 64.7634 54.5971 64.6229 54.2637 64.36C53.9303 64.0971 53.6972 63.7278 53.6034 63.3137C53.5096 62.8995 53.5608 62.4658 53.7485 62.0849C53.9361 61.704 54.2488 61.399 54.6342 61.221C57.1362 60.033 56.9472 58.233 56.8752 57.837C56.7719 57.4974 56.778 57.1339 56.8927 56.7979C57.0074 56.4619 57.2248 56.1706 57.5142 55.965C57.7842 55.731 61.3302 52.446 59.3142 44.652C59.2143 44.1834 59.2987 43.6944 59.5499 43.2865C59.8011 42.8785 60.1998 42.583 60.6632 42.4614C61.1266 42.3397 61.6191 42.4013 62.0383 42.6333C62.4575 42.8652 62.7712 43.2498 62.9142 43.707C65.0382 51.807 62.1402 56.379 60.6552 58.107C60.645 59.5075 60.215 60.8726 59.4208 62.0262C58.6266 63.1797 57.5048 64.0686 56.2002 64.578C55.9616 64.6936 55.7004 64.7551 55.4352 64.758Z" fill="url(#paint3_linear_66_3900)"/>
<path d="M35.194 64.11C33.5546 64.1332 31.9318 63.7791 30.451 63.075C29.2994 62.5009 28.2729 61.7042 27.431 60.731C26.5891 59.7577 25.9484 58.6273 25.546 57.405C25.4112 56.9276 25.4715 56.4162 25.7137 55.9833C25.9559 55.5503 26.3601 55.2314 26.8375 55.0965C27.3149 54.9616 27.8263 55.0219 28.2593 55.2641C28.6922 55.5063 29.0112 55.9106 29.146 56.388C29.6636 57.8633 30.7444 59.0735 32.152 59.754C34.375 60.816 37.417 60.555 41.197 58.989C41.427 58.8536 41.6834 58.7691 41.9488 58.7414C42.2143 58.7137 42.4826 58.7433 42.7356 58.8283C42.9886 58.9133 43.2204 59.0517 43.4152 59.234C43.6101 59.4164 43.7635 59.6384 43.8651 59.8852C43.9667 60.132 44.0141 60.3978 44.004 60.6645C43.994 60.9312 43.9268 61.1926 43.8069 61.4311C43.687 61.6695 43.5173 61.8794 43.3093 62.0466C43.1012 62.2138 42.8597 62.3343 42.601 62.4C40.2679 63.4496 37.7512 64.0307 35.194 64.11Z" fill="url(#paint4_linear_66_3900)"/>
<path d="M28.1198 58.8C27.0613 58.8132 26.0038 58.7288 24.9608 58.548C24.1598 58.422 15.7988 56.856 11.7758 48.81C7.75279 40.764 10.2368 31.521 10.4168 30.9C13.8998 17.229 29.0558 9.192 30.2528 8.58C36.0969 5.18794 42.6801 3.27258 49.4318 3C49.6867 2.98225 49.9426 3.01714 50.1835 3.1025C50.4244 3.18785 50.6451 3.32186 50.832 3.49617C51.0188 3.67049 51.1679 3.88139 51.2697 4.11575C51.3716 4.35012 51.4242 4.60294 51.4242 4.8585C51.4242 5.11405 51.3716 5.36688 51.2697 5.60124C51.1679 5.83561 51.0188 6.04651 50.832 6.22082C50.6451 6.39514 50.4244 6.52914 50.1835 6.6145C49.9426 6.69986 49.6867 6.73475 49.4318 6.717C43.3292 7.0188 37.3853 8.76464 32.0888 11.811L31.9898 11.865C31.8458 11.946 17.1578 19.542 13.9898 31.827C13.9898 31.908 11.7128 40.305 15.0968 47.073C18.3998 53.688 25.5008 54.831 25.5998 54.849H25.7078C27.012 55.0484 28.3355 55.0907 29.6498 54.975C33.0123 54.7034 36.291 53.7867 39.3068 52.275C39.529 52.1286 39.7799 52.0315 40.0427 51.9903C40.3055 51.949 40.5742 51.9645 40.8305 52.0357C41.0868 52.1069 41.3249 52.2322 41.5288 52.4032C41.7326 52.5741 41.8975 52.7868 42.0123 53.0268C42.1272 53.2667 42.1892 53.5286 42.1944 53.7945C42.1996 54.0605 42.1477 54.3246 42.0423 54.5688C41.9369 54.8131 41.7804 55.032 41.5833 55.2107C41.3862 55.3894 41.1532 55.5239 40.8998 55.605C36.9411 57.6357 32.5684 58.7289 28.1198 58.8V58.8Z" fill="url(#paint5_linear_66_3900)"/>
<path d="M19.1468 36.21H19.0478C18.8617 36.1972 18.6801 36.1476 18.5132 36.0642C18.3464 35.9808 18.1977 35.8652 18.0758 35.724C17.953 35.5846 17.8594 35.422 17.8006 35.2457C17.7419 35.0695 17.7191 34.8832 17.7338 34.698C18.3368 25.932 24.0338 20.622 26.5178 18.741C37.6508 10.2 46.9478 8.967 49.8998 8.805L49.9718 8.949L49.8998 8.805H50.6288C50.8156 8.805 51.0005 8.84178 51.173 8.91324C51.3455 8.98471 51.5023 9.08945 51.6343 9.22149C51.7664 9.35354 51.8711 9.5103 51.9426 9.68282C52.014 9.85535 52.0508 10.0403 52.0508 10.227C52.0508 10.4137 52.014 10.5987 51.9426 10.7712C51.8711 10.9437 51.7664 11.1005 51.6343 11.2325C51.5023 11.3646 51.3455 11.4693 51.173 11.5408C51.0005 11.6122 50.8156 11.649 50.6288 11.649C49.5848 11.64 39.9998 11.946 28.2998 21C26.1668 22.647 21.0998 27.3 20.6138 34.896C20.584 35.2612 20.4153 35.601 20.1423 35.8455C19.8694 36.09 19.5131 36.2204 19.1468 36.21V36.21Z" fill="url(#paint6_linear_66_3900)"/>
<path d="M56.5147 40.656C56.2844 40.6578 56.0573 40.6028 55.8533 40.4961C55.6492 40.3894 55.4746 40.2341 55.3447 40.044C55.1329 39.7319 55.0528 39.3489 55.1219 38.9781C55.191 38.6073 55.4037 38.2788 55.7137 38.064C56.8477 37.272 59.9077 34.59 60.3757 31.665C60.9337 28.119 58.8457 24.222 58.0267 23.565H57.9817H58.0267L57.9547 23.511C57.6629 23.3689 57.4285 23.1312 57.2905 22.8375C57.1524 22.5438 57.119 22.2117 57.1957 21.8964C57.2724 21.581 57.4547 21.3014 57.7123 21.104C57.9699 20.9066 58.2873 20.8032 58.6117 20.811C58.8162 20.8119 59.0184 20.8548 59.2057 20.937C60.7537 21.648 61.9057 24.384 62.2477 25.203C63.1554 27.3959 63.481 29.7862 63.1927 32.142C62.4367 36.894 57.5407 40.296 57.3337 40.44C57.0883 40.592 56.8031 40.6672 56.5147 40.656V40.656Z" fill="url(#paint7_linear_66_3900)"/>
<path d="M29.3083 37.515C28.8895 36.3417 28.7258 35.0925 28.8282 33.8509C28.9307 32.6093 29.2969 31.4038 29.9023 30.315C31.9903 26.652 36.1483 23.457 42.2593 20.82C50.3593 17.31 56.2813 18.849 59.8003 20.766C62.1002 22.0018 64.079 23.7586 65.5783 25.896C66.0553 26.58 69.7993 32.538 65.0203 41.34C60.2413 50.142 50.0623 55.542 49.6393 55.74C49.4229 55.8551 49.1858 55.926 48.9417 55.9485C48.6976 55.9709 48.4514 55.9445 48.2177 55.8708C47.9839 55.797 47.7672 55.6775 47.5801 55.519C47.3931 55.3606 47.2395 55.1665 47.1283 54.948C46.9038 54.5084 46.862 53.9979 47.012 53.5276C47.162 53.0574 47.4917 52.6654 47.9293 52.437C48.0643 52.374 57.4783 47.415 61.7533 39.549C65.5603 32.529 62.6533 28.173 62.5183 27.993L62.4553 27.903C62.2213 27.534 56.4073 18.741 43.7353 24.213C44.7685 24.7838 45.6485 25.5959 46.3003 26.58C47.7133 28.767 48.5773 34.059 41.9083 38.955C39.7033 40.575 36.5083 42.303 32.9623 42.303C32.1289 42.3035 31.2983 42.2068 30.4873 42.015C28.7968 41.6378 27.2411 40.807 25.9873 39.612C23.7643 37.272 22.7653 34.797 23.0083 32.223C23.4493 27.543 27.9223 23.763 31.7743 20.991C37.9033 16.572 47.2093 13.791 47.6053 13.629C47.8417 13.5587 48.0896 13.5356 48.3349 13.5611C48.5802 13.5866 48.8181 13.6601 49.035 13.7776C49.2518 13.895 49.4435 14.054 49.5989 14.2454C49.7543 14.4369 49.8705 14.6571 49.9408 14.8935C50.0111 15.1299 50.0342 15.3778 50.0087 15.6231C49.9832 15.8684 49.9097 16.1063 49.7923 16.3231C49.6749 16.54 49.5159 16.7316 49.3244 16.8871C49.1329 17.0425 48.9127 17.1587 48.6763 17.229C48.5863 17.229 39.5683 19.992 33.9523 24.042C30.9913 26.175 27.0133 29.388 26.7523 32.61C26.6173 34.077 26.7523 36.588 29.3353 37.551L33.8353 38.685" fill="url(#paint8_linear_66_3900)"/>
<linearGradient id="paint0_linear_66_3900" x1="38.9744" y1="69.771" x2="47.6684" y2="69.771" gradientUnits="userSpaceOnUse">
<stop stop-color="#AEDFE4"/>
<stop offset="1" stop-color="#5E9DD0"/>
</linearGradient>
<linearGradient id="paint1_linear_66_3900" x1="634.666" y1="1066.88" x2="834.199" y2="1066.88" gradientUnits="userSpaceOnUse">
<stop stop-color="#AEDFE4"/>
<stop offset="1" stop-color="#5E9DD0"/>
</linearGradient>
<linearGradient id="paint2_linear_66_3900" x1="580.91" y1="512.314" x2="907.757" y2="512.314" gradientUnits="userSpaceOnUse">
<stop stop-color="#AEDFE4"/>
<stop offset="1" stop-color="#5E9DD0"/>
</linearGradient>
<linearGradient id="paint3_linear_66_3900" x1="610.339" y1="1298.02" x2="723.353" y2="1298.02" gradientUnits="userSpaceOnUse">
<stop stop-color="#AEDFE4"/>
<stop offset="1" stop-color="#5E9DD0"/>
</linearGradient>
<linearGradient id="paint4_linear_66_3900" x1="467.781" y1="626.111" x2="843.935" y2="626.111" gradientUnits="userSpaceOnUse">
<stop stop-color="#AEDFE4"/>
<stop offset="1" stop-color="#5E9DD0"/>
</linearGradient>
<linearGradient id="paint5_linear_66_3900" x1="266.525" y1="1731.86" x2="2212.92" y2="1731.86" gradientUnits="userSpaceOnUse">
<stop stop-color="#AEDFE4"/>
<stop offset="1" stop-color="#5E9DD0"/>
</linearGradient>
<linearGradient id="paint6_linear_66_3900" x1="541.13" y1="602.41" x2="1851.52" y2="602.41" gradientUnits="userSpaceOnUse">
<stop stop-color="#AEDFE4"/>
<stop offset="1" stop-color="#5E9DD0"/>
</linearGradient>
<linearGradient id="paint7_linear_66_3900" x1="520.441" y1="632.083" x2="595.279" y2="632.083" gradientUnits="userSpaceOnUse">
<stop stop-color="#AEDFE4"/>
<stop offset="1" stop-color="#5E9DD0"/>
</linearGradient>
<linearGradient id="paint8_linear_66_3900" x1="960.878" y1="1509.18" x2="3155.4" y2="1509.18" gradientUnits="userSpaceOnUse">
<stop stop-color="#AEDFE4"/>
<stop offset="1" stop-color="#5E9DD0"/>
</linearGradient>
</svg>
