<svg viewBox="0 0 80 80" xmlns="http://www.w3.org/2000/svg">
<rect width="100%" height="100%" fill="white"/>
<path d="M40.3027 25.5645C42.1721 25.5645 43.8339 27.2264 43.834 29.0957C43.834 30.9651 42.3798 32.6269 40.3027 32.627C38.4333 32.627 36.7715 31.1729 36.7715 29.0957C36.7716 27.2263 38.2256 25.5645 40.3027 25.5645Z" fill="#95CA51"/>
<path fill-rule="evenodd" clip-rule="evenodd" d="M40.3027 5C53.5964 5.00003 64.3973 15.8011 64.3975 29.0947C64.3975 30.964 64.1898 32.8335 63.7744 34.4951C64.1898 36.1568 64.3978 38.027 64.6055 39.8965C64.6054 41.7658 64.3978 43.6353 63.9824 45.2969C64.3978 46.9585 64.6055 48.8279 64.6055 50.6973C64.6055 64.1987 53.5965 75 40.3027 75C26.8012 75 16 63.991 16 50.6973C16 48.8279 16.2076 46.9585 16.623 45.2969C16.2076 43.6353 16 41.7658 16 39.8965C16 38.027 16.2076 36.3648 16.623 34.7031C16.2076 33.0415 16 31.1721 16 29.3027C16 15.8013 26.8012 5 40.3027 5ZM58.7891 55.2666C54.2193 60.6672 47.7805 63.9912 40.3027 63.9912C32.825 63.9912 26.1784 60.4595 21.8164 55.2666C24.1013 63.5752 31.371 69.5996 40.3027 69.5996C49.0267 69.5996 56.5042 63.5752 58.7891 55.2666ZM58.166 45.0889C53.804 50.074 47.3648 53.3975 40.0947 53.3975C32.8248 53.3974 26.3854 50.074 22.0234 45.0889V45.2969C24.3083 53.19 31.5791 58.7981 39.8877 59.0059C48.6115 59.0057 55.8811 53.1898 58.166 45.2969V45.0889ZM40.3027 9.98535C29.7093 9.98535 21.1935 18.5014 21.1934 29.0947C21.1934 39.6882 29.7093 48.2051 40.3027 48.2051C50.6885 48.205 59.2044 39.6882 59.4121 29.0947C59.412 18.5014 50.8961 9.98538 40.3027 9.98535Z" fill="#95CA51"/>
</svg>
