<svg viewBox="0 0 80 80" xmlns="http://www.w3.org/2000/svg">
<rect width="100%" height="100%" fill="white"/>
<path d="M18.6091 49.1927C20.2868 49.1927 21.4612 50.5349 21.4612 52.0448C21.4612 53.7225 20.1191 54.8969 18.6091 54.8969C16.9314 54.8969 15.757 53.5547 15.757 52.0448C15.5893 50.5349 16.9314 49.1927 18.6091 49.1927Z" fill="#A674E5"/>
<path d="M58.2028 36.6099C59.8805 36.6099 61.0549 37.9521 61.0549 39.462C61.0549 41.1397 59.7127 42.3141 58.2028 42.3141C56.6928 42.3141 55.3507 40.972 55.3507 39.462C55.5184 37.9521 56.8606 36.6099 58.2028 36.6099Z" fill="#A674E5"/>
<path d="M2 25.0331V28.8918H42.0971C40.4194 31.4084 39.4128 34.4283 39.0773 37.6159H17.0994V41.6424H38.9095C39.245 44.83 40.2517 47.8499 41.9294 50.3664H25.3201V54.2252H45.2848C48.808 57.245 53.3378 59.2583 58.3709 59.2583C69.2759 59.2583 78 50.5342 78 39.6291C78 28.7241 69.1082 20 58.2031 20C53.17 20 48.6402 21.8455 45.117 25.0331H2ZM42.7682 39.4614C42.7682 30.9051 49.6468 24.0265 58.2031 24.0265C66.7594 24.0265 73.638 30.9051 73.638 39.4614C73.638 48.0177 66.7594 54.8962 58.2031 54.8962C49.8146 54.8962 42.7682 48.0177 42.7682 39.4614Z" fill="#A674E5"/>
</svg>
