<svg viewBox="0 0 80 80" xmlns="http://www.w3.org/2000/svg">
<rect width="100%" height="100%" fill="#202628"/>
<path d="M69.9954 39.6491C66.0064 40.7263 62.7182 47.1898 60.6698 51.068C58.5675 54.9461 54.7402 63.995 49.0802 66.2034C43.474 68.4117 34.6875 65.5031 30.3751 63.8334C26.0626 62.2175 17.4378 61.3019 11.1848 58.3394C4.9857 55.377 9.13639 49.1289 12.6941 51.2295C16.2519 53.3302 15.6589 55.9695 21.319 56.7235C26.979 57.4776 28.4345 56.131 28.7579 53.7611C29.0813 51.3911 28.5962 46.6512 27.2485 44.1197C25.9009 41.5881 20.4026 28.6611 18.1925 24.9445C15.9824 21.228 10.6457 14.1181 15.3894 12.9332C20.187 11.7482 21.9119 17.2422 21.8041 20.7971C21.6424 24.3521 24.9306 29.7383 27.8954 35.34C29.6625 38.7123 32.5364 41.3748 36.0351 42.8808C39.3233 43.7965 39.7546 40.6724 40.3475 39.4875C40.9405 38.3025 43.0428 24.5136 41.1022 18.2656C39.1616 12.0175 42.7193 9.37823 46.1693 12.0175C49.6192 14.6568 49.2958 18.5349 47.6786 19.4505C46.0615 20.3662 46.331 31.6235 46.331 31.6235C46.331 31.6235 45.4146 45.5739 49.5653 47.513C53.716 49.4521 61.7479 41.1034 64.3892 35.7709C67.0845 30.4385 68.5399 32.6469 69.7258 32.6469C70.9117 32.7008 74.0383 38.6257 69.9954 39.6491Z" fill="white"/>
</svg>
