<svg xmlns="http://www.w3.org/2000/svg" viewBox="0 0 80 80">
  <rect width="100%" height="100%" fill="#202628"/>
  <path fill="#fff" d="M70 39.6c-4 1.1-7.3 7.6-9.3 11.5-2.1 3.8-6 12.9-11.6 15.1-5.6 2.2-14.4-.7-18.7-2.4-4.3-1.6-13-2.5-19.2-5.5-6.2-3-2-9.2 1.5-7 3.6 2 3 4.7 8.6 5.4 5.7.8 7.1-.6 7.5-3 .3-2.3-.2-7-1.6-9.6-1.3-2.5-6.8-15.4-9-19.2-2.2-3.7-7.6-10.8-2.8-12 4.8-1.2 6.5 4.3 6.4 7.9-.2 3.6 3.1 9 6.1 14.5 1.8 3.4 4.6 6 8.1 7.6 3.3.9 3.8-2.2 4.3-3.4.6-1.2 2.7-15 .8-21.2-2-6.3 1.6-9 5-6.3 3.5 2.7 3.2 6.5 1.6 7.5-1.6.9-1.4 12.1-1.4 12.1s-.9 14 3.3 16c4.1 1.9 12.1-6.5 14.8-11.8 2.7-5.4 4.1-3.2 5.3-3.2 1.2.1 4.3 6 .3 7Z"/>
</svg>