<svg viewBox="0 0 80 80" xmlns="http://www.w3.org/2000/svg">
<rect width="100%" height="100%" fill="#202628"/>
<path d="M68.1207 39.6027C64.381 40.603 61.2983 46.6049 59.3779 50.206C57.407 53.8071 53.819 62.2096 48.5127 64.2603C43.2569 66.3109 35.0195 63.6101 30.9766 62.0596C26.9337 60.5591 18.8479 59.7089 12.9857 56.958C7.17409 54.2072 11.0654 48.4054 14.4008 50.356C17.7361 52.3066 17.1803 54.7574 22.4865 55.4576C27.7928 56.1578 29.1573 54.9074 29.4605 52.7067C29.7637 50.5061 29.3089 46.1047 28.0455 43.754C26.7821 41.4033 21.6274 29.3996 19.5554 25.9485C17.4835 22.4974 12.4804 15.8954 16.9276 14.7951C21.4253 13.6947 23.0424 18.7963 22.9414 22.0973C22.7897 25.3983 25.8725 30.3999 28.652 35.6015C30.3086 38.7328 33.0029 41.2051 36.2829 42.6036C39.3656 43.4539 39.7699 40.553 40.3258 39.4527C40.8817 38.3523 42.8526 25.5484 41.0333 19.7466C39.214 13.9448 42.5494 11.4941 45.7837 13.9448C49.018 16.3956 48.7148 19.9967 47.1987 20.8469C45.6826 21.6972 45.9353 32.1504 45.9353 32.1504C45.9353 32.1504 45.0762 45.1044 48.9675 46.9049C52.8587 48.7055 60.3886 40.9531 62.8649 36.0016C65.3917 31.0501 66.7562 33.1007 67.868 33.1007C68.9798 33.1507 71.9109 38.6524 68.1207 39.6027Z" fill="white"/>
</svg>
