<svg viewBox="0 0 80 80" xmlns="http://www.w3.org/2000/svg">
<rect width="100%" height="100%" fill="black"/>
<path d="M70.8287 15H9.17128C6.31526 15 4 17.3153 4 20.1713V59.9495C4 62.8055 6.31526 65.1208 9.17128 65.1208H70.8287C73.6847 65.1208 76 62.8055 76 59.9495V20.1713C76 17.3153 73.6847 15 70.8287 15Z" fill="white"/>
<path d="M68.1661 18.355H11.834C9.36029 18.355 7.35498 20.3603 7.35498 22.834V57.2869C7.35498 59.7606 9.36029 61.7659 11.834 61.7659H68.1661C70.6398 61.7659 72.6451 59.7606 72.6451 57.2869V22.834C72.6451 20.3603 70.6398 18.355 68.1661 18.355Z" fill="black"/>
<path d="M62.2322 29.7071V32.323C62.2322 32.5918 62.1793 32.858 62.0764 33.1064C61.9735 33.3547 61.8228 33.5804 61.6327 33.7705C61.4426 33.9606 61.2169 34.1113 60.9686 34.2142C60.7202 34.3171 60.454 34.37 60.1852 34.37H55.459C55.1902 34.37 54.924 34.423 54.6756 34.5258C54.4273 34.6287 54.2016 34.7795 54.0115 34.9696C53.8215 35.1596 53.6707 35.3853 53.5678 35.6337C53.4649 35.882 53.412 36.1482 53.412 36.417V50.4138C53.412 50.6826 53.359 50.9488 53.2562 51.1972C53.1533 51.4455 53.0025 51.6712 52.8124 51.8612C52.6224 52.0513 52.3967 52.2021 52.1484 52.305C51.9 52.4078 51.6338 52.4608 51.365 52.4608H48.7491C48.2062 52.4608 47.6856 52.2451 47.3017 51.8612C46.9178 51.4774 46.7021 50.9567 46.7021 50.4138V36.417C46.7021 35.8741 46.4865 35.3535 46.1026 34.9696C45.7187 34.5857 45.198 34.37 44.6551 34.37H39.9289C39.386 34.37 38.8653 34.1544 38.4814 33.7705C38.0976 33.3866 37.8819 32.8659 37.8819 32.323V29.7071C37.8819 29.1642 38.0976 28.6436 38.4814 28.2597C38.8653 27.8758 39.386 27.6602 39.9289 27.6602H60.1852C60.454 27.6602 60.7202 27.7131 60.9686 27.816C61.2169 27.9188 61.4426 28.0696 61.6327 28.2597C61.8228 28.4498 61.9735 28.6754 62.0764 28.9238C62.1793 29.1721 62.2322 29.4383 62.2322 29.7071Z" fill="white"/>
<path d="M17.168 29.5699L23.2321 38.8278C23.4735 39.1962 23.6019 39.6271 23.6018 40.0675C23.6016 40.508 23.4729 40.9388 23.2313 41.307L17.1671 50.5516C17.0879 50.6724 17.0428 50.8122 17.0367 50.9565C17.0305 51.1007 17.0635 51.2439 17.1321 51.3709C17.2007 51.4979 17.3023 51.6041 17.4263 51.678C17.5503 51.752 17.692 51.791 17.8363 51.791H22.116C22.5706 51.791 23.018 51.6769 23.4172 51.4592C23.8163 51.2415 24.1545 50.9271 24.4006 50.5448L30.3445 41.3139C30.5838 40.9422 30.7111 40.5096 30.7113 40.0675C30.7115 39.6255 30.5844 39.1928 30.3454 38.821L24.4008 29.5767C24.1549 29.1944 23.817 28.8798 23.4179 28.662C23.0189 28.4442 22.5716 28.33 22.1169 28.33H17.8381C17.6937 28.33 17.5519 28.3691 17.4279 28.4431C17.3038 28.517 17.2021 28.6232 17.1334 28.7502C17.0648 28.8773 17.0317 29.0206 17.0378 29.1649C17.0439 29.3092 17.0889 29.4491 17.168 29.5699Z" fill="white"/>
</svg>
