<svg viewBox="0 0 80 80" xmlns="http://www.w3.org/2000/svg">
<rect width="100%" height="100%" fill="#E95420"/>
<path d="M63.0659 18.682C63.0659 23.615 59.0669 27.614 54.1339 27.614C49.2009 27.614 45.2019 23.615 45.2019 18.682C45.2019 13.749 49.2009 9.75 54.1339 9.75C59.0669 9.75 63.0659 13.749 63.0659 18.682Z" fill="white"/>
<path d="M25.864 38.262C25.864 43.195 21.865 47.194 16.932 47.194C11.999 47.194 8 43.195 8 38.262C8 33.329 11.999 29.33 16.932 29.33C21.865 29.33 25.864 33.329 25.864 38.262Z" fill="white"/>
<path d="M14.38 50.692C16.5769 56.2353 20.4109 60.9776 25.371 64.287C30.3311 67.5964 36.182 69.3157 42.1439 69.216C40.4019 67.0243 39.4383 64.3154 39.4049 61.516C38.6056 61.406 37.8393 61.274 37.1059 61.12C33.9439 60.4496 30.9728 59.0776 28.412 57.1051C25.8513 55.1327 23.7663 52.6102 22.311 49.724C19.8415 50.8958 17.0588 51.2354 14.38 50.692Z" fill="white"/>
<path d="M61.0529 61.2959C61.0529 66.2289 57.0539 70.2279 52.1209 70.2279C47.1879 70.2279 43.1889 66.2289 43.1889 61.2959C43.1889 56.3629 47.1879 52.3639 52.1209 52.3639C57.0539 52.3639 61.0529 56.3629 61.0529 61.2959Z" fill="white"/>
<path d="M60.0959 51.3518C62.277 53.0988 63.823 55.5146 64.4959 58.2268C68.4335 53.35 70.7037 47.339 70.9729 41.0767C71.2422 34.8144 69.4964 28.6308 65.9919 23.4339C64.9744 25.9718 63.16 28.1104 60.8219 29.5279C62.6402 32.9052 63.531 36.7042 63.4035 40.5378C63.2759 44.3714 62.1347 48.1028 60.0959 51.3518Z" fill="white"/>
<path d="M19.594 25.8211C18.7261 25.6366 17.8412 25.5444 16.954 25.5461C16.635 25.5461 16.327 25.5571 16.008 25.5791C18.7841 20.6608 22.9098 16.6397 27.8978 13.9908C32.8857 11.3419 38.5275 10.1757 44.1569 10.6301C42.8914 12.198 42.0099 14.04 41.5829 16.0091C41.4475 16.6983 41.3666 17.3972 41.3409 18.0991C37.8679 18.1457 34.4568 19.0252 31.3942 20.6637C28.3317 22.3022 25.7071 24.6518 23.741 27.5151C22.4681 26.7127 21.0646 26.1394 19.594 25.8211Z" fill="white"/>
</svg>
