<svg viewBox="0 0 80 80" xmlns="http://www.w3.org/2000/svg">
<rect width="100%" height="100%" fill="black"/>
<path d="M42.4517 19.4503L52.796 25.298C53.1677 25.5033 53.1813 26.0729 52.796 26.2782L40.5046 33.2318C40.1328 33.4437 39.6933 33.4305 39.3484 33.2318L27.0571 26.2782C26.6785 26.0795 26.6718 25.4967 27.0571 25.298L37.3946 19.4503V8L11 22.9271V52.7813L21.1211 47.0597V35.3643C21.1143 34.9469 21.6146 34.649 21.9865 34.8741L34.2778 41.8277C34.6496 42.0397 34.8592 42.4173 34.8592 42.808V56.7085C34.866 57.1259 34.3657 57.4237 33.9938 57.1987L23.6496 51.3509L13.5286 57.0728L39.9232 72L66.3176 57.0728L56.1965 51.3509L45.8525 57.1987C45.4873 57.4173 44.9735 57.1325 44.987 56.7085V42.808C44.987 42.3907 45.2237 42.02 45.5684 41.8277L57.8598 34.8741C58.2248 34.6556 58.7386 34.9339 58.725 35.3643V47.0597L68.8462 52.7813V22.9271L42.4517 8V19.4503Z" fill="white"/>
</svg>
