<svg xmlns="http://www.w3.org/2000/svg" viewBox="0 0 80 80"><path d="M0 0h80v80H0z"/><path d="M67.03 52.19V23.71L42.36 9.47V20.4l9.67 5.58c.35.19.36.74 0 .94l-11.49 6.63c-.35.2-.76.19-1.08 0l-11.49-6.63c-.35-.19-.36-.74 0-.94l9.66-5.58V9.47L12.97 23.71V52.2l9.46-5.46V35.58c0-.4.46-.68.81-.47l11.49 6.63c.35.2.54.56.54.94v13.27c0 .4-.46.68-.81.47l-9.67-5.58-9.46 5.46L40 70.54 64.67 56.3l-9.46-5.46-9.67 5.58c-.34.21-.82-.06-.81-.47V42.68c0-.4.22-.75.54-.94l11.49-6.63c.34-.21.82.06.81.47v11.16l9.46 5.46z" fill="#ccc"/><path d="M40 70.53l24.67-14.24-9.46-5.46-9.67 5.58c-.34.21-.82-.06-.81-.47V42.67c0-.4.22-.75.54-.94l11.49-6.63c.34-.21.82.06.81.47v11.16l9.46 5.46V23.71L40 39.32v31.22z" fill="#a6a6a6"/><path d="M42.37 9.47V20.4l9.67 5.58c.35.19.36.74 0 .94l-11.49 6.63c-.35.2-.76.19-1.08 0l-11.49-6.63c-.35-.19-.36-.74 0-.94l9.66-5.58V9.47L12.97 23.71 40 39.32l27.03-15.61L42.36 9.47z" fill="#fff"/><path d="M34.46 56.41l-9.67-5.58-9.46 5.46L40 70.53V39.31l-27.03-15.6V52.2l9.46-5.46V35.58c0-.4.46-.68.81-.47l11.49 6.63c.35.2.54.56.54.94v13.27c0 .4-.46.68-.81.47z" fill="#ccc"/></svg>