<svg viewBox="0 0 80 80" xmlns="http://www.w3.org/2000/svg">
<rect width="100%" height="100%" fill="white"/>
<path d="M40 72C57.6732 72 72 57.6731 72 40C72 22.3269 57.6732 8 40 8C22.3269 8 8 22.3269 8 40C8 57.6731 22.3269 72 40 72Z" fill="#1A4049"/>
<path d="M44.572 26.2842V35.4281V44.5722H53.7119V35.4281V26.2842H44.572Z" fill="white"/>
<path d="M35.428 35.4281V26.2842H26.284V35.4281V44.5722V53.7121H35.428H44.572V44.5722H35.428V35.4281Z" fill="white"/>
<path d="M44.572 26.2842V35.4281V44.5722H53.7119V35.4281V26.2842H44.572Z" fill="white"/>
<path d="M35.428 35.4281V26.2842H26.284V35.4281V44.5722V53.7121H35.428H44.572V44.5722H35.428V35.4281Z" fill="white"/>
<path d="M53.716 44.5723H44.572V53.7162H53.716V44.5723Z" fill="#817AFE"/>
</svg>
