<svg xmlns="http://www.w3.org/2000/svg" viewBox="0 0 80 80">
  <rect width="100%" height="100%" fill="#fff"/>
  <path fill="#7A67F8" fill-rule="evenodd" d="M52.2 58c-3.7 0-7-2.6-11-6.7l-8.8-8.9 2.8-2.8 8.8 8.9c3.9 4 6.2 5.5 8.2 5.5 2 0 4.4-1.7 8.3-5.6l4.5-4.6c2.3-2.3 3.3-4.3 3-6.1-.1-1.5-1-3.1-3-5v-.1c-2.1-2.2-4.6-4.7-7.3-6-.5-2.6-2-4.6-2.3-5 4.8.7 9.1 4.8 12.4 8.3 3.5 3.5 7.4 9.2 0 16.7l-4.5 4.6c-4.2 4.1-7.5 6.7-11.1 6.7Z" clip-rule="evenodd"/>
  <path fill="#F85977" fill-rule="evenodd" d="m40.3 44.7 8.2-8.4c4-4 5.5-6.2 5.5-8.2 0-2-1.6-4.5-5.6-8.5L44 15.1c-4.7-4.7-7.5-3.6-11 0-2 1.9-4.2 4.1-5.6 6.5-1.3 0-3 .5-5 1.9 1-4.4 4.7-8.2 7.8-11.2 3.6-3.6 9.1-7.5 16.5 0l4.6 4.5c4.1 4.2 6.7 7.5 6.7 11.3 0 3.6-2.6 7-6.6 11L43 47.5l-2.7-2.8Z" clip-rule="evenodd"/>
  <path fill="#159BFF" fill-rule="evenodd" d="M24 57.7c-4.6-1-8.7-4.8-11.8-8.1a13.1 13.1 0 0 1-4.1-7.4c-.4-3 1-6.1 4.1-9.3l4.5-4.6c4.2-4.2 7.4-6.8 11.1-6.8 3.7 0 7 2.6 11 6.7l9 9-2.8 2.7-9-9c-3.9-3.9-6.2-5.4-8.2-5.4-2 0-4.4 1.6-8.3 5.6L15 35.7c-2.3 2.3-3.3 4.3-3 6.1.1 1.5 1 3 3 5 2 2.2 4.4 4.5 6.9 6 .2 2.2 1.5 4.2 2 5Z" clip-rule="evenodd"/>
  <path fill="#67E5AD" fill-rule="evenodd" d="M41.4 72c-2.4 0-5.2-1.1-8.3-4.3l-4.5-4.5c-9-9-9-13.4-.2-22.3l8.7-8.8 2.8 2.7-8.7 8.9c-3.9 4-5.4 6.2-5.4 8.2 0 2 1.6 4.5 5.5 8.5l4.6 4.5c4.6 4.7 7.4 3.6 11 0a31 31 0 0 0 5.9-7c2-.2 3.6-1 4.8-1.8-1 4.5-4.7 8.5-8 11.6-2 2.1-4.8 4.3-8.2 4.3Z" clip-rule="evenodd"/>
</svg>