<svg xmlns="http://www.w3.org/2000/svg" viewBox="0 0 80 80"><defs><style>.a{fill:#7b68f7}</style></defs><path class="a" d="M59.26 17.35A16.47 16.47 0 0166 20a32.36 32.36 0 015.87 4.68c1.7 1.69 3.37 3.42 4.93 5.23A12.12 12.12 0 0179.85 37c0 .07.1.13.15.19v1.37c-.13.54-.26 1.07-.4 1.61a13.68 13.68 0 01-3.19 5.95 134.88 134.88 0 01-12.32 12.14c-.71.6-1.5 1.12-2.25 1.68a5.45 5.45 0 00-.68.35A12.51 12.51 0 0157 61.93l-1.25.23a12.18 12.18 0 01-6.94-2 33.48 33.48 0 01-5.58-4.49c-1.3-1.24-2.57-2.52-3.84-3.79l-8.81-8.73c.86-.92 1.72-1.84 2.6-2.75a9.2 9.2 0 01.83-.69l5.63 5.55c.22.21.47.39.71.58l3.43 3.44a.71.71 0 00.08.15 45.76 45.76 0 007.23 6.39 7.46 7.46 0 003.61 1.43A6.92 6.92 0 0058.89 56a31.94 31.94 0 005.54-4.56q3.27-3.19 6.46-6.49A17.58 17.58 0 0074 41a6.18 6.18 0 00.84-4.42A8.59 8.59 0 0073 33a53.83 53.83 0 00-6.16-6.29 19.39 19.39 0 00-4.76-3.3 14 14 0 00-.68-2.17c-.64-1.3-1.4-2.58-2.14-3.89z"/><path class="a" d="M0 39.89c.2-.61.39-1.22.61-1.82a17.05 17.05 0 014-6.12c2.16-2.24 4.35-4.45 6.53-6.66a54.68 54.68 0 016.73-5.81l.95-.55a11.32 11.32 0 015.29-1.7c3.32-.21 6.1 1.16 8.63 3.11a43.91 43.91 0 014 3.45c4.15 4 8.25 8.12 12.36 12.18.17.16.31.34.46.51l-3.43 3.45c-.24-.23-.5-.46-.74-.7l-5.6-5.53-3.49-3.45c-.92-.93-1.82-1.88-2.78-2.78a34.2 34.2 0 00-5.17-4.19 6.19 6.19 0 00-7.14 0 4.65 4.65 0 00-.64.41C19 24.9 17.44 26.07 16 27.42c-2.58 2.46-5.07 5-7.56 7.57a22.7 22.7 0 00-2.11 2.57A7.24 7.24 0 005 41.09a6.49 6.49 0 001.42 4.61 44.33 44.33 0 006.76 7c1.27 1.09 2.72 2 4.08 2.94a13.29 13.29 0 001.56 4.63c.29.51.57 1 .85 1.54a15.18 15.18 0 01-5.75-2.46 48 48 0 01-4.86-3.75 44.9 44.9 0 01-6.56-6.94 13 13 0 01-2.33-5.07.87.87 0 00-.17-.27z"/><path d="M36.3 30.25l3.48 3.45c-1.6 1.6-3.22 3.19-4.81 4.8-.35.36-.63.78-.95 1.17a9.2 9.2 0 00-.83.69c-.88.91-1.74 1.83-2.6 2.75a1.26 1.26 0 00-.36.21c-1.58 1.64-3.21 3.24-4.71 5a28.26 28.26 0 00-2.42 3.4 5.8 5.8 0 00-.87 3.08 7 7 0 001.21 3.68 29.47 29.47 0 004.4 5.43Q31.4 67.47 35 71a14.09 14.09 0 004 2.94 6 6 0 003.46.64 8.15 8.15 0 004.16-2 54.72 54.72 0 006.74-6.79c.92-1.11 1.63-2.39 2.44-3.59l1.2-.27a12.51 12.51 0 004.15-1.64 5.45 5.45 0 01.68-.35 33.54 33.54 0 01-1.09 3.3 24.44 24.44 0 01-4.51 6.61c-1.71 1.86-3.52 3.65-5.35 5.41a14.45 14.45 0 01-7 4A10.82 10.82 0 0136.13 78a21.57 21.57 0 01-4.65-3.59c-1.91-1.89-3.87-3.72-5.74-5.64A48.39 48.39 0 0120 62.15a2.33 2.33 0 00-.36-.34c-.28-.51-.56-1-.85-1.54a13.29 13.29 0 01-1.56-4.63 29.46 29.46 0 01.34-3.12 15.85 15.85 0 013.63-6.67c1.29-1.56 2.67-3 4.08-4.48C29 37.64 32.64 34 36.3 30.25z" fill="#68e4ad"/><path d="M24.09 17.23a11.32 11.32 0 00-5.29 1.7l-.95.55c.36-1 .66-2.05 1.11-3a25 25 0 013.91-5.8 54.37 54.37 0 017.38-7.25 11.87 11.87 0 018.1-2.9 11.36 11.36 0 015.9 2.05 31.67 31.67 0 013.47 2.77c1.8 1.65 3.52 3.4 5.28 5.11a75.65 75.65 0 016.27 6.89c.73 1.31 1.5 2.59 2.17 3.92a14 14 0 01.68 2.17 11.55 11.55 0 01-1.61 7.69 34.79 34.79 0 01-4.87 6.14c-1.66 1.72-3.36 3.41-5 5.11q-3.39 3.43-6.8 6.86l-3.48-3.44 5.76-5.87 3.43-3.45c.82-.83 1.67-1.63 2.47-2.49a32.13 32.13 0 004.31-5.4 6.11 6.11 0 000-6.69A28.13 28.13 0 0052 16.48q-3.81-3.88-7.7-7.67a19.56 19.56 0 00-2.46-2 7.13 7.13 0 00-3.7-1.41 7 7 0 00-4.92 1.84c-1 .77-1.84 1.62-2.73 2.46a38.43 38.43 0 00-6.4 7.53z" fill="#f75a78"/></svg>