<svg xmlns="http://www.w3.org/2000/svg" viewBox="0 0 80 80"><defs><style>.a{fill:#fff}</style></defs><path d="M0 0h80v80H0z"/><path class="a" d="M40 75a35 35 0 1135-35 35 35 0 01-35 35zm0-68.6A33.6 33.6 0 1073.6 40 33.63 33.63 0 0040 6.44z"/><path class="a" d="M46.43 28.26a5 5 0 00-4.43-.82s2.53.66 2.72 4.28V48.4c0 2.1-2.95 3.27-4.4 3.44-3.68.47-3.81-1.87-3.81-1.87V28.41S34 29.5 33.56 26.82s1.59-5.45 2.95-6.69l1.36-1.25C30 20.83 22.82 28.06 19.78 32c-6.53 8.17-5.25 13.78-5.25 13.78s1.4-4.13 7.47-10 6.11.89 6.11.89v15.59s0 2.26-3.66 1.21c0 0 6.05 7.36 15.3 7.6 2.29 0 5.39-4.48 6.1-5.31 0 0 4 4 4.28 4.05 0 0 .08.31.59 0a29.09 29.09 0 009-8.55c3.74-5.63 3.1-5.46 3.1-5.46s-3.9 3.54-6.66 4.75-2.88-.86-2.88-.86V29.81A45.71 45.71 0 0159.66 21s-7.04.58-13.23 7.26z"/></svg>