<svg xmlns="http://www.w3.org/2000/svg" viewBox="0 0 80 80">
  <rect width="100%" height="100%"/>
  <path fill="#fff" fill-rule="evenodd" d="M8 40a32 32 0 1 1 64 0 32 32 0 0 1-64 0Zm37 14.3 3.2 3.5A19.5 19.5 0 0 0 59 44.6c-2.8 3-6 6-8.1 3.9L50.7 33c0-6 5.8-10.6 5.8-10.6a19.5 19.5 0 0 0-12 6.8c-1.7-1.3-4-1-4-1 1.2.7 2.4 2.7 2.4 4.3v15.7s-2.6 2.3-4.6 2.3a2.9 2.9 0 0 1-2.4-1.2l-.4-.7V29.2c-.6.5-2.6.9-2.6-2.5 0-2 1.5-4.5 4.2-6A19.8 19.8 0 0 0 20.4 40s2-6 4.4-6.6a2.4 2.4 0 0 1 3 2.3v14.4c0 1.5-1 1.8-1.8 1.8-.6 0-1.2-.2-1.7-.4a19.6 19.6 0 0 0 15.4 8l5.3-5.3Z" clip-rule="evenodd"/>
</svg>