<svg viewBox="0 0 80 80" xmlns="http://www.w3.org/2000/svg">
<rect width="100%" height="100%" fill="black"/>
<path fill-rule="evenodd" clip-rule="evenodd" d="M8 40C8 22.326 22.326 8 40 8C57.674 8 72 22.326 72 40C72 57.674 57.674 72 40 72C22.326 72 8 57.674 8 40ZM45.046 54.258L48.186 57.79C56.01 54.096 58.464 47.268 59.018 44.608C56.156 47.538 52.992 50.508 50.862 48.452C50.862 48.452 50.746 37.482 50.746 32.982C50.746 26.93 56.482 22.422 56.482 22.422C53.328 22.984 49.538 24.108 45.518 28.054C45.1548 28.4141 44.8104 28.7926 44.486 29.188C42.762 27.868 40.528 28.266 40.528 28.266C41.736 28.928 42.942 30.86 42.942 32.458V48.168C42.942 48.168 40.31 50.482 38.282 50.482C37.8246 50.4863 37.3729 50.3809 36.9647 50.1745C36.5565 49.9681 36.2037 49.6669 35.936 49.296C35.7754 49.0858 35.6424 48.8559 35.54 48.612V29.2C34.94 29.696 32.914 30.104 32.914 26.74C32.914 24.65 34.422 22.16 37.102 20.632C33.4205 21.1933 29.9726 22.7838 27.156 25.22C25.0164 27.0695 23.3052 29.3627 22.1412 31.9403C20.9773 34.5179 20.3886 37.318 20.416 40.146C20.416 40.146 22.378 34.02 24.832 33.456C25.1896 33.3616 25.5644 33.3521 25.9264 33.4284C26.2883 33.5047 26.6274 33.6645 26.9166 33.8952C27.2057 34.1258 27.4369 34.4209 27.5917 34.7569C27.7465 35.0928 27.8206 35.4603 27.808 35.83V50.216C27.808 51.674 26.868 51.992 26 51.976C25.4111 51.9351 24.8291 51.825 24.266 51.648C26.0586 54.0753 28.3883 56.0551 31.0731 57.4325C33.7578 58.8099 36.7248 59.5476 39.742 59.588L45.046 54.258Z" fill="white"/>
</svg>
