<svg width="80" height="80" viewBox="0 0 80 80" fill="none" xmlns="http://www.w3.org/2000/svg">
<g clip-path="url(#clip0_1_2)">
<path d="M80 40C80 51.375 75.25 61.625 67.625 69H67.5C60.375 75.875 50.625 80 40 80C17.875 80 0 62.125 0 40C0 29.375 4.125 19.625 11 12.5C18.375 4.75 28.625 0 40 0C62.125 0 80 17.875 80 40Z" fill="#004E8C"/>
<path d="M68.75 67.75C68.375 68.125 68 68.625 67.625 69H67.5C60.375 75.875 50.625 80 40 80C17.875 80 0 62.125 0 40C0 29.375 4.125 19.625 11 12.5C11.375 12.125 11.75 11.75 12.25 11.375L68.75 67.75Z" fill="#0064A1"/>
<path d="M41.625 24.25L30 55.75H25.875L14.5 24.25H18.625L27.375 49.25C27.625 50.125 27.875 51.125 28 52H28.125C28.25 51 28.5 50.125 28.875 49.125L37.75 24.125L41.625 24.25V24.25ZM46.125 55.75V24.25H55.125C57.5 24.125 59.75 24.875 61.625 26.25C63.25 27.5 64.125 29.5 64 31.5C64 33.125 63.5 34.75 62.5 36.125C61.5 37.5 60.125 38.5 58.5 38.875V39C60.375 39.125 62.25 40 63.625 41.375C64.875 42.875 65.625 44.75 65.5 46.625C65.625 49.125 64.5 51.5 62.625 53.125C60.625 54.875 58 55.75 55.375 55.625H46.125V55.75ZM49.875 27.625V37.75H53.625C55.375 37.875 57 37.25 58.375 36.25C59.5 35.25 60.25 33.75 60.125 32.125C60.125 29.125 58.125 27.5 54.125 27.5L49.875 27.625V27.625ZM49.875 41V52.375H54.875C56.625 52.5 58.5 51.875 59.875 50.875C61.125 49.875 61.75 48.25 61.625 46.625C61.625 42.875 59.125 41 54 41H49.875Z" fill="white"/>
</g>
<defs>
<clipPath id="clip0_1_2">
<rect width="80" height="80" fill="white"/>
</clipPath>
</defs>
</svg>
