<svg xmlns="http://www.w3.org/2000/svg" viewBox="0 0 80 80">
  <rect width="100%" height="100%" fill="#fff"/>
  <path fill="#2D4C91" d="M40 73a33 33 0 1 0 0-66 33 33 0 0 0 0 66Z"/>
  <path fill="#425D9C" d="M63 63.4A32.8 32.8 0 0 1 7 40c0-9 3.7-17.3 9.6-23.2l46.5 46.5Z"/>
  <path fill="#fff" d="M41.5 26.1 31 54.5h-3.7L17 26.1h3.7l8 22.6.5 2.4c.2-.9.4-1.7.8-2.6L38 26l3.5.1Zm4 28.4V26.1h8.1a9 9 0 0 1 5.9 1.8c1.5 1.1 2.2 3 2.1 4.8a7 7 0 0 1-1.3 4.1 6.2 6.2 0 0 1-3.6 2.5v.1c1.7.1 3.4 1 4.6 2.2 1.1 1.3 1.8 3 1.7 4.7.1 2.2-1 4.4-2.6 5.8a9.3 9.3 0 0 1-6.5 2.3h-8.4v.1ZM49 29.2v9h3.4c1.6.2 3-.4 4.3-1.3 1-.9 1.7-2.2 1.5-3.7 0-2.7-1.8-4.2-5.4-4.2l-3.8.2Zm0 12v10.3h4.5c1.6 0 3.3-.5 4.5-1.4a4.5 4.5 0 0 0 1.6-3.8c0-3.4-2.3-5-6.9-5H49Z"/>
</svg>