<svg viewBox="0 0 80 80" xmlns="http://www.w3.org/2000/svg">
<rect width="100%" height="100%" fill="white"/>
<path d="M9.48803 30.688C9.48803 30.688 7.97443 29.5968 9.79203 28.1376L14.0256 24.3488C14.0256 24.3488 15.2416 23.0752 16.5216 24.1888L55.6064 53.7792V67.9712C55.6064 67.9712 55.5872 70.1984 52.7264 69.952L9.48803 30.688Z" fill="#2489CA"/>
<path d="M19.5616 39.8336L9.48802 48.9952C9.48802 48.9952 8.45122 49.7632 9.48802 51.1392L14.1664 55.3952C14.1664 55.3952 15.2768 56.5888 16.9184 55.232L27.6 47.1328L19.5616 39.8368V39.8336Z" fill="#1070B3"/>
<path d="M37.248 39.9104L55.728 25.8016L55.6064 11.6896C55.6064 11.6896 54.8192 8.60163 52.1856 10.208L27.6 32.5888L37.248 39.9104Z" fill="#0877B9"/>
<path d="M52.7296 69.9712C53.8016 71.0688 55.104 70.7072 55.104 70.7072L69.504 63.6128C71.344 62.3584 71.0848 60.7968 71.0848 60.7968V18.432C71.0848 16.5696 69.1808 15.9264 69.1808 15.9264L56.7008 9.91037C53.9712 8.22397 52.1888 10.2144 52.1888 10.2144C52.1888 10.2144 54.4832 8.55997 55.6064 11.6896V67.712C55.6064 68.096 55.5264 68.4736 55.36 68.816C55.0336 69.4784 54.32 70.096 52.608 69.84L52.7296 69.9712Z" fill="#3C99D4"/>
</svg>
