<svg xmlns="http://www.w3.org/2000/svg" width="80" height="80"><path fill="#2489CA" d="M1.86 28.36s-1.894-1.366.379-3.188l5.294-4.735s1.515-1.594 3.117-.205l48.86 36.992v17.738s-.024 2.786-3.599 2.478L1.86 28.36Z"/><path fill="#1070B3" d="M14.453 39.793 1.86 51.243s-1.294.962 0 2.682l5.847 5.319s1.389 1.491 3.44-.205l13.351-10.124-10.045-9.122Z"/><path fill="#0877B9" d="M36.563 39.888 59.66 22.252l-.15-17.644s-.986-3.85-4.276-1.846L24.498 30.735l12.065 9.153Z"/><path fill="#3C99D4" d="M55.911 77.463c1.342 1.374 2.967.924 2.967.924l17.999-8.87c2.304-1.57 1.98-3.519 1.98-3.519V13.036c0-2.328-2.383-3.133-2.383-3.133l-15.6-7.52c-3.408-2.106-5.642.38-5.642.38S58.105.694 59.51 4.608v70.03c0 .481-.102.954-.307 1.38-.41.83-1.302 1.602-3.44 1.279l.15.165Z"/></svg>