<svg width="81" height="80" viewBox="0 0 81 80" fill="none" xmlns="http://www.w3.org/2000/svg">
<g clip-path="url(#clip0_1_36)">
<path d="M50.1436 0C50.1436 0.141238 50.1436 0.282475 50.1436 0.431147C50.1436 2.86398 49.1771 5.19717 47.4568 6.91745C45.7366 8.63772 43.4034 9.60416 40.9705 9.60416C38.5377 9.60416 36.2045 8.63772 34.4842 6.91745C32.764 5.19717 31.7975 2.86398 31.7975 0.431147C31.7975 0.282475 31.7975 0.141238 31.7975 0H0.992841V80H80.9928V0H50.1436ZM39.1716 71.4365L35.2764 52.1613H35.2095L30.9947 71.4365H25.6277L19.547 43.1147H24.8471L28.4747 62.3899H28.5416L32.9126 43.1147H37.8707L41.7957 62.6278H41.8626L46.0031 43.1147H51.2066L44.4495 71.4365H39.1716ZM68.3558 71.4365L66.5494 65.1329H57.0122L55.6221 71.4365H50.322L57.1757 43.1147H65.5385L73.8715 71.4365H68.3558Z" fill="#654FF0"/>
<path d="M60.3647 50.0948L58.0529 60.4869H65.2486L62.5948 50.0948H60.3647Z" fill="#654FF0"/>
</g>
<defs>
<clipPath id="clip0_1_36">
<rect width="80" height="80" fill="white" transform="translate(0.992841)"/>
</clipPath>
</defs>
</svg>
