<svg viewBox="0 0 80 80" xmlns="http://www.w3.org/2000/svg">
<path d="M49.145 0C49.145 0.148699 49.145 0.297398 49.145 0.446097C49.145 5.50186 45.0558 9.59108 40 9.59108C34.9442 9.59108 30.855 5.50186 30.855 0.446097C30.855 0.297398 30.855 0.148699 30.855 0H0V80H80V0H49.145Z" fill="#654FF0"/>
<path d="M34.2756 52.1932L38.2161 71.4498H43.495L50.2607 43.1226H45.0563L40.8927 62.6022H40.8184L36.8779 43.1226H31.8964L27.5842 62.3791H27.5098L23.8667 43.1226H18.5879L24.6102 71.4498H30.0377L34.2013 52.1932H34.2756Z" fill="white"/>
<path fill-rule="evenodd" clip-rule="evenodd" d="M56.2083 43.1226H64.5355L72.8626 71.4498H67.3607L65.5763 65.1301H56.0596L54.647 71.4498H49.3682L56.2083 43.1226ZM59.4053 50.1115L57.1005 60.5204H64.3124L61.6358 50.1115H59.4053Z" fill="white"/>
</svg>
