<svg xmlns="http://www.w3.org/2000/svg" viewBox="0 0 80 80"><path d="M39.85 75.76c-5.24 0-10.48-.06-15.71 0a7.14 7.14 0 01-6.8-3.8C11.94 62.6 6.6 53.16 1.17 43.78a7.06 7.06 0 01.1-7.78c5.39-9.26 10.67-18.57 16-27.88a7.43 7.43 0 017.09-4q15.71.13 31.42 0a7.43 7.43 0 017.09 4c5.31 9.3 10.59 18.62 16 27.87a7.32 7.32 0 01-.1 8.09q-8 13.69-15.79 27.53a7.55 7.55 0 01-7.39 4.13c-5.27-.07-10.51.02-15.74.02zm-9.93-17.54c3.18-5.6 6.5-11.43 10.13-17.83l10.08 17.75h7.48L47.62 40l10-18.31H50.2L40 39.6 29.94 21.76h-7.49L32.48 40l-10 18.22z" fill="#3598da"/></svg>