<svg viewBox="0 0 80 80" xmlns="http://www.w3.org/2000/svg">
<rect width="100%" height="100%" fill="white"/>
<path d="M39.8339 70.4163C35.3793 70.4163 30.9247 70.3653 26.4785 70.4163C25.3056 70.4954 24.135 70.2323 23.1088 69.6588C22.0826 69.0854 21.245 68.2262 20.6977 67.1858C16.1071 59.2287 11.5675 51.2036 6.95133 43.2295C6.31601 42.2399 5.98538 41.0856 6.0005 39.9098C6.01561 38.7339 6.3758 37.5884 7.03634 36.6156C11.6185 28.7435 16.1071 20.8289 20.6382 12.9143C21.203 11.8224 22.0741 10.9191 23.1448 10.3151C24.2154 9.7111 25.439 9.43261 26.6656 9.51379C35.5691 9.58747 44.4727 9.58747 53.3763 9.51379C54.6029 9.43261 55.8265 9.7111 56.8971 10.3151C57.9677 10.9191 58.8388 11.8224 59.4036 12.9143C63.9177 20.8204 68.4064 28.7435 73.0055 36.6071C73.6689 37.6349 74.0146 38.8354 73.9995 40.0586C73.9844 41.2818 73.6091 42.4734 72.9205 43.4845C68.3865 51.2433 63.9121 59.0445 59.4971 66.8883C58.9207 68.0343 58.0141 68.9813 56.8943 69.6071C55.7745 70.233 54.4929 70.5089 53.2148 70.3993C48.7346 70.3397 44.28 70.4163 39.8339 70.4163V70.4163ZM31.3922 55.5052C34.0956 50.7445 36.918 45.7883 40.0039 40.3476L48.5731 55.4372H54.932L46.4393 40.016L54.9405 24.4504H48.6326L39.9614 39.676L31.4092 24.5099H25.0418L33.5685 40.016L25.0673 55.5052H31.3922Z" fill="#3598DA"/>
</svg>
