<svg width="143" height="102" viewBox="0 0 143 102" fill="none" xmlns="http://www.w3.org/2000/svg">
<path d="M82.3915 6.23507C82.6385 6.20503 83.1755 6.14231 83.9551 6.08941C84.7695 6.01625 85.5044 5.98715 86.1388 6.00521C91.5108 5.9506 101.624 6.8198 111.365 12.9808C117.481 16.8359 121.236 21.683 128.686 31.3012L128.815 31.4673C132.033 35.6336 134.187 38.9874 135.877 43.121C136.755 45.2587 137.36 47.26 138.571 51.2791C140.114 56.4215 140.109 60.1679 140.474 62.2728C141.69 69.1276 140.212 76.8112 135.13 82.5099C129.824 88.4594 118.639 91.306 111.457 90.0518C108.153 89.4737 101.761 88.4867 92.5346 83.726C88.5428 81.6592 83.6185 79.4888 81.4808 78.4745L81.4481 78.4527C74.7678 85.3565 66.7406 93.231 58.3262 94.8343C47.6324 97.7572 33.2957 95.0906 23.5671 87.8759C11.9462 79.2707 10.2557 62.3874 10.2557 62.3874C9.86305 59.8134 9.73217 55.9252 11.2973 52.0698C13.863 45.778 19.7752 42.9145 26.039 39.8806L26.0592 39.8708C28.3945 38.7125 31.1128 37.7109 34.0523 36.8111C36.5951 34.031 38.771 32.308 41.2212 31.1338C43.8054 29.8385 46.5923 28.9956 49.4611 28.6416C49.7571 28.6023 50.0634 28.5653 50.3783 28.5318C51.9393 25.4401 54.0971 21.8286 56.9002 18.787C60.3081 14.5348 64.784 11.3196 71.0397 9.11894C71.4446 8.97694 71.8508 8.83907 72.2572 8.70549C76.4306 7.14624 80.0805 6.51407 82.3915 6.23507Z" fill="url(#paint0_linear_120_1361)"/>
<g filter="url(#filter0_dii_120_1361)">
<path d="M85.718 6.0086C83.9729 6.04677 82.795 6.18311 82.3915 6.23218C77.6035 6.81023 67.0678 8.90429 58.0372 17.6186C53.0147 22.472 49.8518 29.3595 48.314 33.0295C49.6828 32.6369 51.0516 32.3206 52.404 32.1352C57.53 31.4208 62.2199 32.0643 65.6609 33.3295C70.5143 32.4679 73.699 32.0861 75.3786 32.0916C80.5755 32.1134 86.3015 32.0479 90.5114 35.6362C91.6457 36.6069 94.9831 38.5919 94.465 43.8979C94.0069 48.6259 91.8802 54.4391 86.6777 60.1595C83.5476 63.606 77.4835 68.034 69.9962 71.8841C64.5702 74.6707 56.8429 79.0442 45.6256 79.6604C43.8205 79.764 41.7647 79.884 39.5997 79.8785C34.081 79.8567 26.0756 79.126 20.2679 73.0674C19.0627 71.8077 13.1241 65.1166 14.8037 57.0893C16.1561 50.6272 21.5058 47.2844 25.7975 44.5905C28.2351 43.0581 31.5234 41.7984 35.946 40.4787C39.1362 37.0431 42.8935 34.9327 46.7162 33.5967C39.1144 35.2981 31.5343 37.1522 26.0592 39.8679C19.788 42.9054 13.8657 45.7684 11.2973 52.0669C9.73217 55.9223 9.86305 59.8105 10.2557 62.3845C10.2557 62.3845 11.9462 79.2678 23.5671 87.873C33.2957 95.0877 47.6324 97.7544 58.3262 94.8314C66.7406 93.2281 74.7678 85.3536 81.4481 78.4498L81.4808 78.4716C83.6185 79.4859 88.5428 81.6563 92.5346 83.7231C101.761 88.4838 108.153 89.4708 111.457 90.0489C118.639 91.3031 129.824 88.4565 135.13 82.507C140.212 76.8084 141.69 69.1247 140.474 62.27C140.109 60.165 140.114 56.4186 138.571 51.2762C137.36 47.2571 136.755 45.2558 135.877 43.1181C134.187 38.9845 132.033 35.6307 128.815 31.4644C121.279 21.7358 117.516 16.8551 111.365 12.9779C101.363 6.65209 90.9695 5.90499 85.718 6.0086ZM89.6061 12.1981C94.0451 12.378 100.589 12.4489 106.244 16.1517C109.532 18.3166 112.69 19.8599 118.994 28.2034C127.501 39.4862 128.324 40.7514 131.498 46.7718C133.914 51.3525 135.981 60.6776 135.043 67.9577C134.77 70.0681 134.552 74.5507 129.862 78.9788C123.553 84.9392 112.793 84.2684 111.665 84.1375C108.235 83.7176 105.595 82.1144 97.5843 79.0442L87.6812 74.987C87.0213 74.7252 86.3451 74.3598 85.6634 74.0054C87.9375 71.2842 92.1092 65.8909 93.827 62.4935C95.0867 59.9523 95.9265 57.1221 96.4882 55.0226C96.9135 53.343 97.5516 50.8508 97.8188 48.4568C97.9551 47.208 98.0642 45.932 98.086 44.8413C98.1078 43.7125 98.0805 43.5107 98.0314 42.6491C97.8598 40.9296 97.492 39.2353 96.9353 37.5994C96.3612 36.0987 95.5165 34.7161 94.4432 33.5203C93.5997 32.7442 92.6659 32.0723 91.662 31.519C90.5278 30.9028 89.0772 30.3411 88.1392 29.9757C86.3942 29.2941 84.9491 28.9069 82.3206 28.5797C81.5025 28.5136 80.6819 28.4845 79.8612 28.4924C76.8782 28.5197 72.9137 28.9287 67.1114 29.7848C63.4032 30.3029 59.7113 30.9191 56.074 31.6062L56.0849 31.5735C59.8477 23.928 65.1919 18.5293 74.3534 15.3064C80.2156 13.2505 86.3396 12.0617 89.6061 12.1981ZM91.0894 26.1911C89.7531 26.1615 88.422 26.3682 87.1576 26.8019C89.219 27.3091 91.2094 28.3506 92.9599 29.125C94.3505 29.8775 95.632 30.8319 96.4118 31.6444C97.7697 33.0677 98.9203 35.0036 99.5147 36.7159C100.055 38.2974 100.638 40.5878 100.747 42.4964C100.796 43.3144 100.834 43.6961 100.813 44.8849C100.774 46.181 100.677 47.4747 100.524 48.7622C100.229 51.4234 99.5529 54.0246 99.1276 55.6988C98.5928 57.8289 97.8946 59.9146 97.039 61.9373C98.3423 61.9591 99.602 61.9264 100.322 61.801C105.432 60.9066 108.834 55.6606 109.876 51.4179C111.337 45.4084 108.322 40.4024 106.31 37.0595C104.406 33.913 101.058 29.5122 95.0049 27.0582C93.7613 26.54 92.4356 26.2465 91.0894 26.1911ZM52.7748 34.8291C49.906 35.1831 47.119 36.026 44.5349 37.3213C41.6447 38.7064 39.1362 40.855 35.9569 44.6014C32.4123 49.0458 29.8929 57.6183 31.8124 59.925C32.794 61.1139 33.3121 61.2338 33.6666 61.4683C38.5799 63.8459 43.068 67.1124 50.3972 67.5433H56.4939C57.77 67.5542 59.466 67.2706 59.9404 67.2215C68.3766 65.8364 79.5994 59.8651 79.1686 51.5161C79.005 48.3914 75.444 43.2708 73.0228 40.964C70.6724 38.7282 66.7679 36.6669 65.0937 35.9634C63.6432 35.249 61.9526 35.0527 60.2512 34.8018C57.6882 34.3765 54.9506 34.5401 52.7748 34.8291Z" fill="white" fill-opacity="0.4" shape-rendering="crispEdges"/>
</g>
<defs>
<filter id="filter0_dii_120_1361" x="0" y="-10" width="142.876" height="111.997" filterUnits="userSpaceOnUse" color-interpolation-filters="sRGB">
<feFlood flood-opacity="0" result="BackgroundImageFix"/>
<feColorMatrix in="SourceAlpha" type="matrix" values="0 0 0 0 0 0 0 0 0 0 0 0 0 0 0 0 0 0 127 0" result="hardAlpha"/>
<feOffset dx="-4"/>
<feGaussianBlur stdDeviation="3"/>
<feComposite in2="hardAlpha" operator="out"/>
<feColorMatrix type="matrix" values="0 0 0 0 0.120417 0 0 0 0 0.85 0 0 0 0 0.500842 0 0 0 0.46 0"/>
<feBlend mode="normal" in2="BackgroundImageFix" result="effect1_dropShadow_120_1361"/>
<feBlend mode="normal" in="SourceGraphic" in2="effect1_dropShadow_120_1361" result="shape"/>
<feColorMatrix in="SourceAlpha" type="matrix" values="0 0 0 0 0 0 0 0 0 0 0 0 0 0 0 0 0 0 127 0" result="hardAlpha"/>
<feOffset dy="2"/>
<feGaussianBlur stdDeviation="1.5"/>
<feComposite in2="hardAlpha" operator="arithmetic" k2="-1" k3="1"/>
<feColorMatrix type="matrix" values="0 0 0 0 1 0 0 0 0 1 0 0 0 0 1 0 0 0 0.41 0"/>
<feBlend mode="normal" in2="shape" result="effect2_innerShadow_120_1361"/>
<feColorMatrix in="SourceAlpha" type="matrix" values="0 0 0 0 0 0 0 0 0 0 0 0 0 0 0 0 0 0 127 0" result="hardAlpha"/>
<feOffset dy="-16"/>
<feGaussianBlur stdDeviation="8"/>
<feComposite in2="hardAlpha" operator="arithmetic" k2="-1" k3="1"/>
<feColorMatrix type="matrix" values="0 0 0 0 1 0 0 0 0 1 0 0 0 0 1 0 0 0 0.4 0"/>
<feBlend mode="normal" in2="effect2_innerShadow_120_1361" result="effect3_innerShadow_120_1361"/>
</filter>
<linearGradient id="paint0_linear_120_1361" x1="75.438" y1="6" x2="75.438" y2="96" gradientUnits="userSpaceOnUse">
<stop stop-color="#73F6B1"/>
<stop offset="1" stop-color="#04934A"/>
</linearGradient>
</defs>
</svg>
