<svg width="114" height="116" viewBox="0 0 114 116" fill="none" xmlns="http://www.w3.org/2000/svg">
<path fill-rule="evenodd" clip-rule="evenodd" d="M54.8827 75.2122C49.6417 75.2037 44.6179 73.1177 40.9124 69.4113C37.2069 65.7049 35.122 60.6807 35.1147 55.4397C35.1208 50.1971 37.2058 45.171 40.9124 41.4635C44.619 37.756 49.6447 35.6699 54.8872 35.6626C60.1306 35.6687 65.1575 37.7543 68.8651 41.4619C72.5727 45.1695 74.6583 50.1963 74.6643 55.4397C74.6571 60.6822 72.5709 65.7079 68.8634 69.4145C65.156 73.1212 60.1298 75.2061 54.8872 75.2122H54.8827Z" fill="#292D32"/>
<path fill-rule="evenodd" clip-rule="evenodd" d="M54.8827 75.2122C49.6417 75.2037 44.6179 73.1177 40.9124 69.4113C37.2069 65.7049 35.122 60.6807 35.1147 55.4397C35.1208 50.1971 37.2058 45.171 40.9124 41.4635C44.619 37.756 49.6447 35.6699 54.8872 35.6626C60.1306 35.6687 65.1575 37.7543 68.8651 41.4619C72.5727 45.1695 74.6583 50.1963 74.6643 55.4397C74.6571 60.6822 72.5709 65.7079 68.8634 69.4145C65.156 73.1212 60.1298 75.2061 54.8872 75.2122H54.8827Z" fill="url(#paint0_linear_123_1499)"/>
<path fill-rule="evenodd" clip-rule="evenodd" d="M63.2151 78.7277C59.0906 80.2245 54.6472 80.6203 50.323 79.8761C45.9989 79.1318 41.9435 77.2732 38.5568 74.4835C34.9056 71.4721 32.1767 67.4931 30.6826 63.0023L30.6735 62.9748L8.87971 25.2356C1.06413 37.1945 -1.74371 51.7439 1.06054 65.7523C2.43761 72.829 5.20449 79.5624 9.20105 85.5628C13.1976 91.5631 18.3445 96.7113 24.3439 100.709C30.643 104.944 37.7569 107.816 45.2301 109.143L63.2151 78.7323V78.7277Z" fill="#292D32"/>
<path fill-rule="evenodd" clip-rule="evenodd" d="M63.2151 78.7277C59.0906 80.2245 54.6472 80.6203 50.323 79.8761C45.9989 79.1318 41.9435 77.2732 38.5568 74.4835C34.9056 71.4721 32.1767 67.4931 30.6826 63.0023L30.6735 62.9748L8.87971 25.2356C1.06413 37.1945 -1.74371 51.7439 1.06054 65.7523C2.43761 72.829 5.20449 79.5624 9.20105 85.5628C13.1976 91.5631 18.3445 96.7113 24.3439 100.709C30.643 104.944 37.7569 107.816 45.2301 109.143L63.2151 78.7323V78.7277Z" fill="url(#paint1_linear_123_1499)"/>
<path fill-rule="evenodd" clip-rule="evenodd" d="M104.323 30.7218C100.2 22.4281 94.063 15.3011 86.4729 9.99338C78.8828 4.68568 70.0824 1.36687 60.8775 0.340817C51.6727 -0.685237 42.3575 0.614256 33.7849 4.12031C25.2123 7.62637 17.6562 13.227 11.8085 20.4093L30.2151 52.2909C30.9727 46.388 33.8346 40.9565 38.2752 36.9942C42.7157 33.0318 48.4368 30.8047 54.3876 30.7218H104.323Z" fill="#292D32"/>
<path fill-rule="evenodd" clip-rule="evenodd" d="M104.323 30.7218C100.2 22.4281 94.063 15.3011 86.4729 9.99338C78.8828 4.68568 70.0824 1.36687 60.8775 0.340817C51.6727 -0.685237 42.3575 0.614256 33.7849 4.12031C25.2123 7.62637 17.6562 13.227 11.8085 20.4093L30.2151 52.2909C30.9727 46.388 33.8346 40.9565 38.2752 36.9942C42.7157 33.0318 48.4368 30.8047 54.3876 30.7218H104.323Z" fill="url(#paint2_linear_123_1499)"/>
<path fill-rule="evenodd" clip-rule="evenodd" d="M54.6672 109.981C68.4631 109.981 81.6677 104.807 91.8381 95.4155C102.047 86.0131 108.3 73.0805 109.328 59.2393C109.92 51.2259 108.756 43.1799 105.918 35.6626H69.9114C72.9111 38.0355 75.3322 41.0593 76.9917 44.5053C78.6512 47.9513 79.5057 51.7295 79.4906 55.5543C79.4542 61.1777 77.5483 66.6293 74.0731 71.0505L51.1198 109.871C52.3023 109.945 53.4939 109.981 54.6672 109.981Z" fill="#292D32"/>
<path fill-rule="evenodd" clip-rule="evenodd" d="M54.6672 109.981C68.4631 109.981 81.6677 104.807 91.8381 95.4155C102.047 86.0131 108.3 73.0805 109.328 59.2393C109.92 51.2259 108.756 43.1799 105.918 35.6626H69.9114C72.9111 38.0355 75.3322 41.0593 76.9917 44.5053C78.6512 47.9513 79.5057 51.7295 79.4906 55.5543C79.4542 61.1777 77.5483 66.6293 74.0731 71.0505L51.1198 109.871C52.3023 109.945 53.4939 109.981 54.6672 109.981Z" fill="url(#paint3_linear_123_1499)"/>
<g filter="url(#filter0_dii_123_1499)">
<path fill-rule="evenodd" clip-rule="evenodd" d="M54.8827 75.2122C49.6417 75.2037 44.6179 73.1177 40.9124 69.4113C37.2069 65.7049 35.122 60.6807 35.1147 55.4397C35.1208 50.1971 37.2058 45.171 40.9124 41.4635C44.619 37.756 49.6447 35.6699 54.8872 35.6626C60.1306 35.6687 65.1575 37.7543 68.8651 41.4619C72.5727 45.1695 74.6583 50.1963 74.6643 55.4397C74.6571 60.6822 72.5709 65.7079 68.8634 69.4145C65.156 73.1212 60.1298 75.2061 54.8872 75.2122H54.8827Z" fill="#292D32"/>
<path fill-rule="evenodd" clip-rule="evenodd" d="M54.8827 75.2122C49.6417 75.2037 44.6179 73.1177 40.9124 69.4113C37.2069 65.7049 35.122 60.6807 35.1147 55.4397C35.1208 50.1971 37.2058 45.171 40.9124 41.4635C44.619 37.756 49.6447 35.6699 54.8872 35.6626C60.1306 35.6687 65.1575 37.7543 68.8651 41.4619C72.5727 45.1695 74.6583 50.1963 74.6643 55.4397C74.6571 60.6822 72.5709 65.7079 68.8634 69.4145C65.156 73.1212 60.1298 75.2061 54.8872 75.2122H54.8827Z" fill="url(#paint4_linear_123_1499)"/>
<path fill-rule="evenodd" clip-rule="evenodd" d="M54.6672 109.981C68.4631 109.981 81.6677 104.807 91.8381 95.4155C102.047 86.0131 108.3 73.0805 109.328 59.2393C109.92 51.2259 108.756 43.1799 105.918 35.6626H69.9114C72.9111 38.0355 75.3322 41.0593 76.9917 44.5053C78.6512 47.9513 79.5057 51.7295 79.4906 55.5543C79.4542 61.1777 77.5483 66.6293 74.0731 71.0505L51.1198 109.871C52.3023 109.945 53.4939 109.981 54.6672 109.981Z" fill="#292D32"/>
<path fill-rule="evenodd" clip-rule="evenodd" d="M54.6672 109.981C68.4631 109.981 81.6677 104.807 91.8381 95.4155C102.047 86.0131 108.3 73.0805 109.328 59.2393C109.92 51.2259 108.756 43.1799 105.918 35.6626H69.9114C72.9111 38.0355 75.3322 41.0593 76.9917 44.5053C78.6512 47.9513 79.5057 51.7295 79.4906 55.5543C79.4542 61.1777 77.5483 66.6293 74.0731 71.0505L51.1198 109.871C52.3023 109.945 53.4939 109.981 54.6672 109.981Z" fill="url(#paint5_linear_123_1499)"/>
</g>
<defs>
<filter id="filter0_dii_123_1499" x="23.1147" y="19.6626" width="90.3634" height="96.3188" filterUnits="userSpaceOnUse" color-interpolation-filters="sRGB">
<feFlood flood-opacity="0" result="BackgroundImageFix"/>
<feColorMatrix in="SourceAlpha" type="matrix" values="0 0 0 0 0 0 0 0 0 0 0 0 0 0 0 0 0 0 127 0" result="hardAlpha"/>
<feOffset dx="-4" dy="-2"/>
<feGaussianBlur stdDeviation="4"/>
<feComposite in2="hardAlpha" operator="out"/>
<feColorMatrix type="matrix" values="0 0 0 0 0.0698785 0 0 0 0 0.634776 0 0 0 0 0.670833 0 0 0 0.52 0"/>
<feBlend mode="normal" in2="BackgroundImageFix" result="effect1_dropShadow_123_1499"/>
<feBlend mode="normal" in="SourceGraphic" in2="effect1_dropShadow_123_1499" result="shape"/>
<feColorMatrix in="SourceAlpha" type="matrix" values="0 0 0 0 0 0 0 0 0 0 0 0 0 0 0 0 0 0 127 0" result="hardAlpha"/>
<feOffset dy="-16"/>
<feGaussianBlur stdDeviation="8"/>
<feComposite in2="hardAlpha" operator="arithmetic" k2="-1" k3="1"/>
<feColorMatrix type="matrix" values="0 0 0 0 1 0 0 0 0 1 0 0 0 0 1 0 0 0 0.58 0"/>
<feBlend mode="normal" in2="shape" result="effect2_innerShadow_123_1499"/>
<feColorMatrix in="SourceAlpha" type="matrix" values="0 0 0 0 0 0 0 0 0 0 0 0 0 0 0 0 0 0 127 0" result="hardAlpha"/>
<feOffset dy="2"/>
<feGaussianBlur stdDeviation="1.5"/>
<feComposite in2="hardAlpha" operator="arithmetic" k2="-1" k3="1"/>
<feColorMatrix type="matrix" values="0 0 0 0 1 0 0 0 0 1 0 0 0 0 1 0 0 0 0.41 0"/>
<feBlend mode="normal" in2="effect2_innerShadow_123_1499" result="effect3_innerShadow_123_1499"/>
</filter>
<linearGradient id="paint0_linear_123_1499" x1="54.8895" y1="35.6626" x2="54.8895" y2="75.2122" gradientUnits="userSpaceOnUse">
<stop stop-color="#3AC8F0"/>
<stop offset="0.0001" stop-color="#45D5EE"/>
<stop offset="0.442708" stop-color="#2498F7"/>
<stop offset="0.9999" stop-color="#005FFC"/>
<stop offset="1" stop-color="#3AC8F0" stop-opacity="0"/>
<stop offset="1" stop-color="#3AC8F0" stop-opacity="0"/>
<stop offset="1" stop-color="#3AC8F0" stop-opacity="0"/>
</linearGradient>
<linearGradient id="paint1_linear_123_1499" x1="31.6076" y1="25.2356" x2="31.6076" y2="109.143" gradientUnits="userSpaceOnUse">
<stop stop-color="#3AC8F0"/>
<stop offset="0.0001" stop-color="#45D5EE"/>
<stop offset="0.442708" stop-color="#2498F7"/>
<stop offset="0.9999" stop-color="#005FFC"/>
<stop offset="1" stop-color="#3AC8F0" stop-opacity="0"/>
<stop offset="1" stop-color="#3AC8F0" stop-opacity="0"/>
<stop offset="1" stop-color="#3AC8F0" stop-opacity="0"/>
</linearGradient>
<linearGradient id="paint2_linear_123_1499" x1="58.0658" y1="0" x2="58.0658" y2="52.2909" gradientUnits="userSpaceOnUse">
<stop stop-color="#3AC8F0"/>
<stop offset="0.0001" stop-color="#45D5EE"/>
<stop offset="0.442708" stop-color="#2498F7"/>
<stop offset="0.9999" stop-color="#005FFC"/>
<stop offset="1" stop-color="#3AC8F0" stop-opacity="0"/>
<stop offset="1" stop-color="#3AC8F0" stop-opacity="0"/>
<stop offset="1" stop-color="#3AC8F0" stop-opacity="0"/>
</linearGradient>
<linearGradient id="paint3_linear_123_1499" x1="80.299" y1="35.6626" x2="80.299" y2="109.981" gradientUnits="userSpaceOnUse">
<stop stop-color="#3AC8F0"/>
<stop offset="0.0001" stop-color="#45D5EE"/>
<stop offset="0.442708" stop-color="#2498F7"/>
<stop offset="0.9999" stop-color="#005FFC"/>
<stop offset="1" stop-color="#3AC8F0" stop-opacity="0"/>
<stop offset="1" stop-color="#3AC8F0" stop-opacity="0"/>
<stop offset="1" stop-color="#3AC8F0" stop-opacity="0"/>
</linearGradient>
<linearGradient id="paint4_linear_123_1499" x1="54.8895" y1="35.6626" x2="54.8895" y2="75.2122" gradientUnits="userSpaceOnUse">
<stop stop-color="#3AC8F0"/>
<stop offset="0.0001" stop-color="#45D5EE"/>
<stop offset="0.442708" stop-color="#2498F7"/>
<stop offset="0.9999" stop-color="#005FFC"/>
<stop offset="1" stop-color="#3AC8F0" stop-opacity="0"/>
<stop offset="1" stop-color="#3AC8F0" stop-opacity="0"/>
<stop offset="1" stop-color="#3AC8F0" stop-opacity="0"/>
</linearGradient>
<linearGradient id="paint5_linear_123_1499" x1="80.299" y1="35.6626" x2="80.299" y2="109.981" gradientUnits="userSpaceOnUse">
<stop stop-color="#3AC8F0"/>
<stop offset="0.0001" stop-color="#45D5EE"/>
<stop offset="0.442708" stop-color="#2498F7"/>
<stop offset="0.9999" stop-color="#005FFC"/>
<stop offset="1" stop-color="#3AC8F0" stop-opacity="0"/>
<stop offset="1" stop-color="#3AC8F0" stop-opacity="0"/>
<stop offset="1" stop-color="#3AC8F0" stop-opacity="0"/>
</linearGradient>
</defs>
</svg>
