<svg width="102" height="126" viewBox="0 0 102 126" fill="none" xmlns="http://www.w3.org/2000/svg">
<path d="M45.775 7C45.775 5.89543 46.6704 5 47.775 5H61.76C62.8646 5 63.76 5.89543 63.76 7V86.6047C63.76 87.5655 63.0765 88.3917 62.1312 88.5636C53.7218 90.093 47.3199 90.7129 40.4033 90.7129C18.4446 90.7129 7 80.7854 7 61.7463C7 43.4038 19.1458 31.4963 37.9513 31.4963C39.9144 31.4963 41.5604 31.5999 43.2447 31.8809C44.5366 32.0965 45.775 31.1472 45.775 29.8374V7ZM45.775 46.9008C45.775 46.9031 45.7728 46.9047 45.7707 46.9039C43.8169 46.2445 41.7637 45.9287 39.7021 45.9704C30.5904 45.9704 25.3379 51.5758 25.3379 61.3933C25.3379 70.9725 30.3612 76.225 39.5875 76.225C41.0881 76.225 42.3895 76.1595 44.0445 75.975C45.0377 75.8643 45.775 75.013 45.775 74.0137V46.9008ZM92.3783 32.775V74.4742C92.3783 88.8383 91.3287 95.7317 88.1754 101.685C85.3646 107.197 81.6872 110.758 74.3293 114.558C73.7824 114.84 73.1335 114.846 72.5777 114.581L60.5758 108.873C59.0507 108.148 59.0519 105.961 60.5308 105.145C65.9931 102.134 68.979 99.1751 71.0062 95.0258C73.5775 89.8879 74.3933 83.9296 74.3933 68.2821V34.7704C74.3933 33.6658 75.2888 32.7704 76.3933 32.7704H92.3737C92.3763 32.7704 92.3783 32.7725 92.3783 32.775ZM74.3933 7.09625C74.3933 5.99168 75.2888 5.09625 76.3933 5.09625H90.3783C91.4829 5.09625 92.3783 5.99168 92.3783 7.09625V21.5488C92.3783 22.6533 91.4829 23.5487 90.3783 23.5487H76.3933C75.2888 23.5487 74.3933 22.6533 74.3933 21.5487V7.09625Z" fill="url(#paint0_linear_115_295)"/>
<g filter="url(#filter0_dii_115_295)">
<path d="M50.775 12C50.775 10.8954 51.6704 10 52.775 10H66.76C67.8646 10 68.76 10.8954 68.76 12V91.6047C68.76 92.5655 68.0765 93.3917 67.1312 93.5636C58.7218 95.093 52.3199 95.7129 45.4033 95.7129C23.4446 95.7129 12 85.7854 12 66.7463C12 48.4038 24.1458 36.4963 42.9513 36.4963C44.9144 36.4963 46.5604 36.5999 48.2447 36.8809C49.5366 37.0965 50.775 36.1472 50.775 34.8374V12ZM50.775 51.9008C50.775 51.9031 50.7728 51.9047 50.7707 51.9039C48.8169 51.2445 46.7637 50.9287 44.7021 50.9704C35.5904 50.9704 30.3379 56.5758 30.3379 66.3933C30.3379 75.9725 35.3612 81.225 44.5875 81.225C46.0881 81.225 47.3895 81.1595 49.0445 80.975C50.0377 80.8643 50.775 80.013 50.775 79.0137V51.9008ZM97.3783 37.775V79.4742C97.3783 93.8383 96.3287 100.732 93.1754 106.685C90.3646 112.197 86.6872 115.758 79.3293 119.558C78.7824 119.84 78.1335 119.846 77.5777 119.581L65.5758 113.873C64.0507 113.148 64.0519 110.961 65.5308 110.145C70.9931 107.134 73.979 104.175 76.0062 100.026C78.5775 94.8879 79.3933 88.9296 79.3933 73.2821V39.7704C79.3933 38.6658 80.2888 37.7704 81.3933 37.7704H97.3737C97.3763 37.7704 97.3783 37.7725 97.3783 37.775ZM79.3933 12.0962C79.3933 10.9917 80.2888 10.0963 81.3933 10.0963H95.3783C96.4829 10.0963 97.3783 10.9917 97.3783 12.0963V26.5488C97.3783 27.6533 96.4829 28.5487 95.3783 28.5487H81.3933C80.2888 28.5487 79.3933 27.6533 79.3933 26.5487V12.0962Z" fill="url(#paint1_linear_115_295)"/>
</g>
<defs>
<filter id="filter0_dii_115_295" x="0" y="-6" width="101.378" height="131.775" filterUnits="userSpaceOnUse" color-interpolation-filters="sRGB">
<feFlood flood-opacity="0" result="BackgroundImageFix"/>
<feColorMatrix in="SourceAlpha" type="matrix" values="0 0 0 0 0 0 0 0 0 0 0 0 0 0 0 0 0 0 127 0" result="hardAlpha"/>
<feOffset dx="-4" dy="-2"/>
<feGaussianBlur stdDeviation="4"/>
<feComposite in2="hardAlpha" operator="out"/>
<feColorMatrix type="matrix" values="0 0 0 0 0.0698785 0 0 0 0 0.634776 0 0 0 0 0.670833 0 0 0 0.52 0"/>
<feBlend mode="normal" in2="BackgroundImageFix" result="effect1_dropShadow_115_295"/>
<feBlend mode="normal" in="SourceGraphic" in2="effect1_dropShadow_115_295" result="shape"/>
<feColorMatrix in="SourceAlpha" type="matrix" values="0 0 0 0 0 0 0 0 0 0 0 0 0 0 0 0 0 0 127 0" result="hardAlpha"/>
<feOffset dy="-16"/>
<feGaussianBlur stdDeviation="8"/>
<feComposite in2="hardAlpha" operator="arithmetic" k2="-1" k3="1"/>
<feColorMatrix type="matrix" values="0 0 0 0 1 0 0 0 0 1 0 0 0 0 1 0 0 0 0.58 0"/>
<feBlend mode="normal" in2="shape" result="effect2_innerShadow_115_295"/>
<feColorMatrix in="SourceAlpha" type="matrix" values="0 0 0 0 0 0 0 0 0 0 0 0 0 0 0 0 0 0 127 0" result="hardAlpha"/>
<feOffset dy="2"/>
<feGaussianBlur stdDeviation="1.5"/>
<feComposite in2="hardAlpha" operator="arithmetic" k2="-1" k3="1"/>
<feColorMatrix type="matrix" values="0 0 0 0 1 0 0 0 0 1 0 0 0 0 1 0 0 0 0.41 0"/>
<feBlend mode="normal" in2="effect2_innerShadow_115_295" result="effect3_innerShadow_115_295"/>
</filter>
<linearGradient id="paint0_linear_115_295" x1="49.6892" y1="5" x2="49.6892" y2="115" gradientUnits="userSpaceOnUse">
<stop stop-color="#8EF7FE"/>
<stop offset="0.984375" stop-color="#06B7B7"/>
</linearGradient>
<linearGradient id="paint1_linear_115_295" x1="54.6892" y1="10" x2="54.6892" y2="120" gradientUnits="userSpaceOnUse">
<stop stop-color="#8EF7FE"/>
<stop offset="0.984375" stop-color="#06B7B7"/>
</linearGradient>
</defs>
</svg>
