<svg width="143" height="102" viewBox="0 0 143 102" fill="none" xmlns="http://www.w3.org/2000/svg">
<path d="M131.353 35.439C128.879 33.6989 123.639 32.9 118.953 33.3679C117.795 33.4837 116.713 32.6879 116.431 31.558C115.397 27.403 112.801 23.6964 108.718 20.3585L107.673 19.5917C106.751 18.9149 105.45 19.148 104.82 20.1029L104.071 21.2382C101.689 25.0085 100.498 30.2868 100.855 35.3139C100.948 36.6966 101.337 38.934 102.366 41.171C102.839 42.1965 102.551 43.4609 101.499 43.8706C99.6201 44.6022 96.9363 45.2417 93.707 45.2417H8.60595C8.00039 45.2417 7.4742 45.6579 7.33466 46.2471C6.5004 51.2737 6.5004 66.9826 16.2695 79.047C23.6558 88.2208 34.6163 92.8708 49.0314 92.8708C79.7465 92.8708 102.617 78.1453 113.67 51.45C113.992 50.6711 114.758 50.1657 115.601 50.1638C120.253 50.1529 128.119 49.2125 132.307 40.7169C132.426 40.4656 132.664 39.9629 133.498 38.0782C133.769 37.5052 133.568 36.8197 133.03 36.4842L131.353 35.439ZM76.4321 2C76.4321 0.895429 75.5366 0 74.4321 0H65.3279C64.2233 0 63.3279 0.895431 63.3279 2V10.5671C63.3279 11.6716 64.2233 12.5671 65.3279 12.5671H74.4321C75.5366 12.5671 76.4321 11.6716 76.4321 10.5671V2ZM76.4321 17.0806C76.4321 15.976 75.5366 15.0806 74.4321 15.0806H65.3279C64.2233 15.0806 63.3279 15.976 63.3279 17.0806V25.6476C63.3279 26.7522 64.2233 27.6476 65.3279 27.6476H74.4321C75.5366 27.6476 76.4321 26.7522 76.4321 25.6476V17.0806ZM60.9447 17.0806C60.9447 15.976 60.0492 15.0806 58.9447 15.0806H49.8405C48.7359 15.0806 47.8405 15.976 47.8405 17.0806V25.6476C47.8405 26.7522 48.7359 27.6476 49.8405 27.6476H58.9447C60.0492 27.6476 60.9447 26.7522 60.9447 25.6476V17.0806ZM45.4572 17.0806C45.4572 15.976 44.5618 15.0806 43.4572 15.0806H34.3526C33.248 15.0806 32.3526 15.976 32.3526 17.0806V25.6476C32.3526 26.7522 33.248 27.6476 34.3526 27.6476H43.4572C44.5618 27.6476 45.4572 26.7522 45.4572 25.6476V17.0806ZM29.9698 32.1612C29.9698 31.0566 29.0744 30.1612 27.9698 30.1612H18.8652C17.7606 30.1612 16.8652 31.0566 16.8652 32.1612V40.7282C16.8652 41.8328 17.7606 42.7282 18.8652 42.7282H27.9694C29.074 42.7282 29.9694 41.8328 29.9694 40.7283L29.9698 32.1612ZM45.4572 32.1612C45.4572 31.0566 44.5618 30.1612 43.4572 30.1612H34.3526C33.248 30.1612 32.3526 31.0566 32.3526 32.1612V40.7282C32.3526 41.8328 33.248 42.7282 34.3526 42.7282H43.4572C44.5618 42.7282 45.4572 41.8328 45.4572 40.7282V32.1612ZM60.9447 32.1612C60.9447 31.0566 60.0492 30.1612 58.9447 30.1612H49.8405C48.7359 30.1612 47.8405 31.0566 47.8405 32.1612V40.7282C47.8405 41.8328 48.7359 42.7282 49.8405 42.7282H58.9447C60.0492 42.7282 60.9447 41.8328 60.9447 40.7282V32.1612ZM76.4326 32.1612C76.4326 31.0566 75.5371 30.1612 74.4326 30.1612H65.3274C64.2228 30.1612 63.3274 31.0566 63.3274 32.1612V40.7282C63.3274 41.8328 64.2228 42.7282 65.3274 42.7282H74.4326C75.5371 42.7282 76.4326 41.8328 76.4326 40.7282V32.1612ZM91.92 32.1612C91.92 31.0566 91.0245 30.1612 89.92 30.1612H80.8148C79.7102 30.1612 78.8148 31.0566 78.8148 32.1612V40.7282C78.8148 41.8328 79.7102 42.7282 80.8148 42.7282H89.92C91.0245 42.7282 91.92 41.8328 91.92 40.7282V32.1612Z" fill="#292D32"/>
<path d="M131.353 35.439C128.879 33.6989 123.639 32.9 118.953 33.3679C117.795 33.4837 116.713 32.6879 116.431 31.558C115.397 27.403 112.801 23.6964 108.718 20.3585L107.673 19.5917C106.751 18.9149 105.45 19.148 104.82 20.1029L104.071 21.2382C101.689 25.0085 100.498 30.2868 100.855 35.3139C100.948 36.6966 101.337 38.934 102.366 41.171C102.839 42.1965 102.551 43.4609 101.499 43.8706C99.6201 44.6022 96.9363 45.2417 93.707 45.2417H8.60595C8.00039 45.2417 7.4742 45.6579 7.33466 46.2471C6.5004 51.2737 6.5004 66.9826 16.2695 79.047C23.6558 88.2208 34.6163 92.8708 49.0314 92.8708C79.7465 92.8708 102.617 78.1453 113.67 51.45C113.992 50.6711 114.758 50.1657 115.601 50.1638C120.253 50.1529 128.119 49.2125 132.307 40.7169C132.426 40.4656 132.664 39.9629 133.498 38.0782C133.769 37.5052 133.568 36.8197 133.03 36.4842L131.353 35.439ZM76.4321 2C76.4321 0.895429 75.5366 0 74.4321 0H65.3279C64.2233 0 63.3279 0.895431 63.3279 2V10.5671C63.3279 11.6716 64.2233 12.5671 65.3279 12.5671H74.4321C75.5366 12.5671 76.4321 11.6716 76.4321 10.5671V2ZM76.4321 17.0806C76.4321 15.976 75.5366 15.0806 74.4321 15.0806H65.3279C64.2233 15.0806 63.3279 15.976 63.3279 17.0806V25.6476C63.3279 26.7522 64.2233 27.6476 65.3279 27.6476H74.4321C75.5366 27.6476 76.4321 26.7522 76.4321 25.6476V17.0806ZM60.9447 17.0806C60.9447 15.976 60.0492 15.0806 58.9447 15.0806H49.8405C48.7359 15.0806 47.8405 15.976 47.8405 17.0806V25.6476C47.8405 26.7522 48.7359 27.6476 49.8405 27.6476H58.9447C60.0492 27.6476 60.9447 26.7522 60.9447 25.6476V17.0806ZM45.4572 17.0806C45.4572 15.976 44.5618 15.0806 43.4572 15.0806H34.3526C33.248 15.0806 32.3526 15.976 32.3526 17.0806V25.6476C32.3526 26.7522 33.248 27.6476 34.3526 27.6476H43.4572C44.5618 27.6476 45.4572 26.7522 45.4572 25.6476V17.0806ZM29.9698 32.1612C29.9698 31.0566 29.0744 30.1612 27.9698 30.1612H18.8652C17.7606 30.1612 16.8652 31.0566 16.8652 32.1612V40.7282C16.8652 41.8328 17.7606 42.7282 18.8652 42.7282H27.9694C29.074 42.7282 29.9694 41.8328 29.9694 40.7283L29.9698 32.1612ZM45.4572 32.1612C45.4572 31.0566 44.5618 30.1612 43.4572 30.1612H34.3526C33.248 30.1612 32.3526 31.0566 32.3526 32.1612V40.7282C32.3526 41.8328 33.248 42.7282 34.3526 42.7282H43.4572C44.5618 42.7282 45.4572 41.8328 45.4572 40.7282V32.1612ZM60.9447 32.1612C60.9447 31.0566 60.0492 30.1612 58.9447 30.1612H49.8405C48.7359 30.1612 47.8405 31.0566 47.8405 32.1612V40.7282C47.8405 41.8328 48.7359 42.7282 49.8405 42.7282H58.9447C60.0492 42.7282 60.9447 41.8328 60.9447 40.7282V32.1612ZM76.4326 32.1612C76.4326 31.0566 75.5371 30.1612 74.4326 30.1612H65.3274C64.2228 30.1612 63.3274 31.0566 63.3274 32.1612V40.7282C63.3274 41.8328 64.2228 42.7282 65.3274 42.7282H74.4326C75.5371 42.7282 76.4326 41.8328 76.4326 40.7282V32.1612ZM91.92 32.1612C91.92 31.0566 91.0245 30.1612 89.92 30.1612H80.8148C79.7102 30.1612 78.8148 31.0566 78.8148 32.1612V40.7282C78.8148 41.8328 79.7102 42.7282 80.8148 42.7282H89.92C91.0245 42.7282 91.92 41.8328 91.92 40.7282V32.1612Z" fill="url(#paint0_linear_104_38)"/>
<g filter="url(#filter0_dii_104_38)">
<path d="M136.379 38.4883C133.904 36.7459 128.663 35.9458 123.976 36.4143C122.817 36.5302 121.735 35.7342 121.454 34.6039C120.42 30.4424 117.823 26.7299 113.738 23.3868L112.694 22.6196C111.772 21.9418 110.47 22.175 109.84 23.131L109.091 24.2677C106.708 28.0432 105.517 33.329 105.874 38.363C105.967 39.7485 106.356 41.9908 107.388 44.2323C107.859 45.2572 107.572 46.5205 106.521 46.9306C104.642 47.6636 101.956 48.3047 98.7246 48.3047H13.6074C13.0011 48.3047 12.4743 48.7214 12.3347 49.3115C11.5003 54.345 11.5003 70.0758 21.2714 82.157C28.6592 91.3435 39.6219 96 54.0399 96C84.7616 96 107.637 81.2536 118.692 54.5206C119.014 53.7412 119.78 53.2355 120.624 53.2335C125.277 53.2226 133.143 52.2807 137.332 43.7736C137.451 43.5219 137.689 43.0184 138.523 41.1312C138.795 40.5573 138.594 39.8708 138.055 39.5346L136.379 38.4883Z" fill="#292D32"/>
<path d="M136.379 38.4883C133.904 36.7459 128.663 35.9458 123.976 36.4143C122.817 36.5302 121.735 35.7342 121.454 34.6039C120.42 30.4424 117.823 26.7299 113.738 23.3868L112.694 22.6196C111.772 21.9418 110.47 22.175 109.84 23.131L109.091 24.2677C106.708 28.0432 105.517 33.329 105.874 38.363C105.967 39.7485 106.356 41.9908 107.388 44.2323C107.859 45.2572 107.572 46.5205 106.521 46.9306C104.642 47.6636 101.956 48.3047 98.7246 48.3047H13.6074C13.0011 48.3047 12.4743 48.7214 12.3347 49.3115C11.5003 54.345 11.5003 70.0758 21.2714 82.157C28.6592 91.3435 39.6219 96 54.0399 96C84.7616 96 107.637 81.2536 118.692 54.5206C119.014 53.7412 119.78 53.2355 120.624 53.2335C125.277 53.2226 133.143 52.2807 137.332 43.7736C137.451 43.5219 137.689 43.0184 138.523 41.1312C138.795 40.5573 138.594 39.8708 138.055 39.5346L136.379 38.4883Z" fill="url(#paint1_linear_104_38)"/>
</g>
<defs>
<filter id="filter0_dii_104_38" x="0" y="6.23106" width="142.644" height="95.7689" filterUnits="userSpaceOnUse" color-interpolation-filters="sRGB">
<feFlood flood-opacity="0" result="BackgroundImageFix"/>
<feColorMatrix in="SourceAlpha" type="matrix" values="0 0 0 0 0 0 0 0 0 0 0 0 0 0 0 0 0 0 127 0" result="hardAlpha"/>
<feOffset dx="-4" dy="-2"/>
<feGaussianBlur stdDeviation="4"/>
<feComposite in2="hardAlpha" operator="out"/>
<feColorMatrix type="matrix" values="0 0 0 0 0.117647 0 0 0 0 0.494118 0 0 0 0 0.929412 0 0 0 0.56 0"/>
<feBlend mode="normal" in2="BackgroundImageFix" result="effect1_dropShadow_104_38"/>
<feBlend mode="normal" in="SourceGraphic" in2="effect1_dropShadow_104_38" result="shape"/>
<feColorMatrix in="SourceAlpha" type="matrix" values="0 0 0 0 0 0 0 0 0 0 0 0 0 0 0 0 0 0 127 0" result="hardAlpha"/>
<feOffset dy="2"/>
<feGaussianBlur stdDeviation="1.5"/>
<feComposite in2="hardAlpha" operator="arithmetic" k2="-1" k3="1"/>
<feColorMatrix type="matrix" values="0 0 0 0 1 0 0 0 0 1 0 0 0 0 1 0 0 0 0.41 0"/>
<feBlend mode="normal" in2="shape" result="effect2_innerShadow_104_38"/>
<feColorMatrix in="SourceAlpha" type="matrix" values="0 0 0 0 0 0 0 0 0 0 0 0 0 0 0 0 0 0 127 0" result="hardAlpha"/>
<feOffset dy="-16"/>
<feGaussianBlur stdDeviation="12"/>
<feComposite in2="hardAlpha" operator="arithmetic" k2="-1" k3="1"/>
<feColorMatrix type="matrix" values="0 0 0 0 1 0 0 0 0 1 0 0 0 0 1 0 0 0 0.45 0"/>
<feBlend mode="normal" in2="effect2_innerShadow_104_38" result="effect3_innerShadow_104_38"/>
</filter>
<linearGradient id="paint0_linear_104_38" x1="70.4871" y1="0" x2="70.4871" y2="92.8708" gradientUnits="userSpaceOnUse">
<stop stop-color="#3AC8F0"/>
<stop offset="0.0001" stop-color="#45D5EE"/>
<stop offset="0.442708" stop-color="#2498F7"/>
<stop offset="0.9999" stop-color="#005FFC"/>
<stop offset="1" stop-color="#3AC8F0" stop-opacity="0"/>
<stop offset="1" stop-color="#3AC8F0" stop-opacity="0"/>
<stop offset="1" stop-color="#3AC8F0" stop-opacity="0"/>
</linearGradient>
<linearGradient id="paint1_linear_104_38" x1="75.5" y1="3" x2="75.5" y2="96" gradientUnits="userSpaceOnUse">
<stop stop-color="#3AC8F0"/>
<stop offset="0.0001" stop-color="#45D5EE"/>
<stop offset="0.442708" stop-color="#2498F7"/>
<stop offset="0.9999" stop-color="#005FFC"/>
<stop offset="1" stop-color="#3AC8F0" stop-opacity="0"/>
<stop offset="1" stop-color="#3AC8F0" stop-opacity="0"/>
<stop offset="1" stop-color="#3AC8F0" stop-opacity="0"/>
</linearGradient>
</defs>
</svg>
