<svg width="172" height="81" viewBox="0 0 172 81" fill="none" xmlns="http://www.w3.org/2000/svg">
<path d="M16.0909 59C17.9715 59 19.7751 59.6848 21.1049 60.9038C22.4347 62.1228 23.1818 63.7761 23.1818 65.5C23.1818 67.2239 22.4347 68.8772 21.1049 70.0962C19.7751 71.3152 17.9715 72 16.0909 72C14.2103 72 12.4067 71.3152 11.0769 70.0962C9.74708 68.8772 9 67.2239 9 65.5C9 63.7761 9.74708 62.1228 11.0769 60.9038C12.4067 59.6848 14.2103 59 16.0909 59ZM150.818 70C150.818 71.1046 149.923 72 148.818 72H138.636C137.532 72 136.636 71.1046 136.636 70V22C136.636 20.8954 135.741 20 134.636 20H124.455C123.35 20 122.455 19.1046 122.455 18V9C122.455 7.89543 123.35 7 124.455 7H163C164.105 7 165 7.89543 165 9V18C165 19.1046 164.105 20 163 20H152.818C151.714 20 150.818 20.8954 150.818 22V70ZM113.364 7C114.468 7 115.364 7.89543 115.364 9V18C115.364 19.1046 114.468 20 113.364 20H103.182C102.077 20 101.182 20.8954 101.182 22V31C101.182 32.1046 102.077 33 103.182 33H113.364C114.468 33 115.364 33.8954 115.364 35V44C115.364 45.1046 114.468 46 113.364 46H103.182C102.077 46 101.182 46.8954 101.182 48V57C101.182 58.1046 102.077 59 103.182 59H113.364C114.468 59 115.364 59.8954 115.364 61V70C115.364 71.1046 114.468 72 113.364 72H89C87.8954 72 87 71.1046 87 70V9C87 7.89543 87.8954 7 89 7H113.364ZM77.9091 7C79.0137 7 79.9091 7.89543 79.9091 9V70C79.9091 71.1046 79.0137 72 77.9091 72H66.9145C66.1826 72 65.5092 71.6002 65.1587 70.9577L48.2103 39.8856C47.2181 38.0666 44.4545 38.7713 44.4545 40.8433V70C44.4545 71.1046 43.5591 72 42.4545 72H32.2727C31.1682 72 30.2727 71.1046 30.2727 70V9C30.2727 7.89543 31.1682 7 32.2727 7H43.2673C43.9992 7 44.6726 7.39977 45.0231 8.0423L61.9715 39.1144C62.9637 40.9334 65.7273 40.2287 65.7273 38.1567V9C65.7273 7.89543 66.6227 7 67.7273 7H77.9091Z" fill="url(#paint0_linear_115_284)"/>
<g filter="url(#filter0_dii_115_284)">
<path d="M19.0909 62C20.9715 62 22.7751 62.6848 24.1049 63.9038C25.4347 65.1228 26.1818 66.7761 26.1818 68.5C26.1818 70.2239 25.4347 71.8772 24.1049 73.0962C22.7751 74.3152 20.9715 75 19.0909 75C17.2103 75 15.4067 74.3152 14.0769 73.0962C12.7471 71.8772 12 70.2239 12 68.5C12 66.7761 12.7471 65.1228 14.0769 63.9038C15.4067 62.6848 17.2103 62 19.0909 62ZM153.818 73C153.818 74.1046 152.923 75 151.818 75H141.636C140.532 75 139.636 74.1046 139.636 73V25C139.636 23.8954 138.741 23 137.636 23H127.455C126.35 23 125.455 22.1046 125.455 21V12C125.455 10.8954 126.35 10 127.455 10H166C167.105 10 168 10.8954 168 12V21C168 22.1046 167.105 23 166 23H155.818C154.714 23 153.818 23.8954 153.818 25V73ZM116.364 10C117.468 10 118.364 10.8954 118.364 12V21C118.364 22.1046 117.468 23 116.364 23H106.182C105.077 23 104.182 23.8954 104.182 25V34C104.182 35.1046 105.077 36 106.182 36H116.364C117.468 36 118.364 36.8954 118.364 38V47C118.364 48.1046 117.468 49 116.364 49H106.182C105.077 49 104.182 49.8954 104.182 51V60C104.182 61.1046 105.077 62 106.182 62H116.364C117.468 62 118.364 62.8954 118.364 64V73C118.364 74.1046 117.468 75 116.364 75H92C90.8954 75 90 74.1046 90 73V12C90 10.8954 90.8954 10 92 10H116.364ZM80.9091 10C82.0137 10 82.9091 10.8954 82.9091 12V73C82.9091 74.1046 82.0137 75 80.9091 75H69.9145C69.1826 75 68.5092 74.6002 68.1587 73.9577L51.2103 42.8856C50.2181 41.0666 47.4545 41.7713 47.4545 43.8433V73C47.4545 74.1046 46.5591 75 45.4545 75H35.2727C34.1682 75 33.2727 74.1046 33.2727 73V12C33.2727 10.8954 34.1682 10 35.2727 10H46.2673C46.9992 10 47.6726 10.3998 48.0231 11.0423L64.9715 42.1144C65.9637 43.9334 68.7273 43.2287 68.7273 41.1567V12C68.7273 10.8954 69.6227 10 70.7273 10H80.9091Z" fill="url(#paint1_linear_115_284)"/>
</g>
<defs>
<filter id="filter0_dii_115_284" x="0" y="-6" width="172" height="87" filterUnits="userSpaceOnUse" color-interpolation-filters="sRGB">
<feFlood flood-opacity="0" result="BackgroundImageFix"/>
<feColorMatrix in="SourceAlpha" type="matrix" values="0 0 0 0 0 0 0 0 0 0 0 0 0 0 0 0 0 0 127 0" result="hardAlpha"/>
<feOffset dx="-4" dy="-2"/>
<feGaussianBlur stdDeviation="4"/>
<feComposite in2="hardAlpha" operator="out"/>
<feColorMatrix type="matrix" values="0 0 0 0 0.643137 0 0 0 0 0.0392157 0 0 0 0 0.694118 0 0 0 0.29 0"/>
<feBlend mode="normal" in2="BackgroundImageFix" result="effect1_dropShadow_115_284"/>
<feBlend mode="normal" in="SourceGraphic" in2="effect1_dropShadow_115_284" result="shape"/>
<feColorMatrix in="SourceAlpha" type="matrix" values="0 0 0 0 0 0 0 0 0 0 0 0 0 0 0 0 0 0 127 0" result="hardAlpha"/>
<feOffset dy="2"/>
<feGaussianBlur stdDeviation="1.5"/>
<feComposite in2="hardAlpha" operator="arithmetic" k2="-1" k3="1"/>
<feColorMatrix type="matrix" values="0 0 0 0 1 0 0 0 0 1 0 0 0 0 1 0 0 0 0.41 0"/>
<feBlend mode="normal" in2="shape" result="effect2_innerShadow_115_284"/>
<feColorMatrix in="SourceAlpha" type="matrix" values="0 0 0 0 0 0 0 0 0 0 0 0 0 0 0 0 0 0 127 0" result="hardAlpha"/>
<feOffset dy="-16"/>
<feGaussianBlur stdDeviation="8"/>
<feComposite in2="hardAlpha" operator="arithmetic" k2="-1" k3="1"/>
<feColorMatrix type="matrix" values="0 0 0 0 1 0 0 0 0 1 0 0 0 0 1 0 0 0 0.51 0"/>
<feBlend mode="normal" in2="effect2_innerShadow_115_284" result="effect3_innerShadow_115_284"/>
</filter>
<linearGradient id="paint0_linear_115_284" x1="87" y1="7" x2="87" y2="72" gradientUnits="userSpaceOnUse">
<stop stop-color="#B56BFF"/>
<stop offset="1" stop-color="#6500CB"/>
</linearGradient>
<linearGradient id="paint1_linear_115_284" x1="90" y1="10" x2="90" y2="75" gradientUnits="userSpaceOnUse">
<stop stop-color="#B56BFF"/>
<stop offset="1" stop-color="#6500CB"/>
</linearGradient>
</defs>
</svg>
