<svg width="143" height="127" viewBox="0 0 143 127" fill="none" xmlns="http://www.w3.org/2000/svg">
<path d="M50.5424 8.38556C51.644 8.38556 52.5193 9.00907 52.9907 10.0217C53.3217 10.731 53.4662 11.6326 53.4734 12.765V93.8335C53.4667 95.3344 53.3099 96.5074 52.966 97.3905C52.4895 98.6169 51.5802 99.4085 50.3394 99.4291H50.2906L40.9426 99.4172C39.6792 99.4172 38.7699 98.6082 38.3031 97.3607C37.9747 96.4837 37.8251 95.3179 37.8189 93.8216V26.1213L35.3018 26.7586L34.2974 27.0105L34.0039 27.0825L33.8548 27.1169L33.7849 27.1313L33.7592 27.1354L33.7458 27.137H33.732L33.7304 27.1359L33.7299 27.1344V27.1329L33.732 27.1308L33.7479 27.1154C33.7541 27.1092 33.7566 27.1036 33.7469 27.1L33.7412 27.0979L33.7119 27.0994C32.6515 27.139 31.7689 26.5721 31.2863 25.6C30.9414 24.9061 30.7933 24.0189 30.7866 22.8963V16.9404C30.7866 15.8887 30.9563 15.0056 31.3397 14.2855C31.7766 13.4641 32.4772 12.9002 33.3583 12.6714L33.4112 12.6581L33.4724 12.6437L49.6362 8.48374C49.8853 8.42482 50.14 8.3926 50.3959 8.38762L50.4715 8.38556H50.5424ZM77.5351 6C78.6932 6 79.6158 6.64921 80.1227 7.71888C80.4886 8.49248 80.6521 9.48813 80.6588 10.7403V34.6283L80.6593 34.6848H87.6119C88.7037 34.6848 89.6012 35.2482 90.1291 36.2089L90.1537 36.2551L90.1779 36.3014C90.5598 37.0483 90.7279 38.0013 90.7356 39.1917V42.5807C90.7356 43.7917 90.567 44.7601 90.1712 45.5167C89.6557 46.5021 88.7577 47.0845 87.6628 47.102H80.648V78.5579L80.65 78.8025L80.6526 79.0441L80.6567 79.2821L80.6593 79.4003L80.6665 79.6913L80.6752 79.9765L80.686 80.2572L80.6989 80.5322L80.704 80.6412L80.7158 80.856L80.7292 81.0668L80.7431 81.2755L80.7585 81.48L80.7662 81.5808L80.7832 81.7807L80.7919 81.8789L80.8012 81.9766L80.8202 82.1699L80.8407 82.359L80.851 82.4526L80.8731 82.6371C80.9199 83.0206 80.9749 83.3819 81.0366 83.7207L81.0572 83.8327L81.0726 83.9119L81.1024 84.0599L81.1327 84.2038L81.1481 84.2753L81.1795 84.4146L81.2119 84.5503L81.2283 84.6171L81.2617 84.7477C81.3049 84.9137 81.3501 85.071 81.3964 85.219L81.4365 85.3444C81.6329 85.9386 81.8534 86.3807 82.0867 86.6675C82.5195 87.2006 82.9004 87.5223 83.1934 87.6503L83.2823 87.6868C83.6288 87.8251 84.1084 87.9037 84.7252 87.9089H89.1339C90.1717 87.9089 91.0692 88.3222 91.6578 89.1338C92.1471 89.8077 92.362 90.6635 92.3712 91.6885L92.3717 91.7604V95.43C92.3717 96.5644 92.1517 97.5 91.6382 98.2278C91.042 99.0734 90.1291 99.5159 89.0681 99.5308H89.0116L82.7837 99.5427C81.0571 99.5427 79.5506 99.4214 78.2398 99.1741C76.8376 98.9094 75.4122 98.3275 73.9478 97.4362C72.4227 96.5079 71.1721 95.2347 70.1995 93.6304C69.2537 92.0719 68.5151 89.9691 67.9584 87.3162C67.4156 84.7333 67.1385 81.7237 67.1288 78.2972V47.102H64.2544C63.1714 47.102 62.2754 46.553 61.7444 45.6077L61.7198 45.5625L61.6951 45.5162C61.3086 44.7776 61.1384 43.8364 61.1302 42.665V39.275C61.1302 38.046 61.2978 37.0652 61.6884 36.3014C62.2004 35.3001 63.0994 34.7038 64.2025 34.6858L64.2544 34.6853H67.1283V34.5918L68.2324 10.7547L68.2385 10.6478C68.3167 9.41565 68.5161 8.4457 68.8811 7.70089C69.3869 6.66771 70.254 6.02005 71.3602 6H77.5351V6ZM128.952 34.6627C129.98 34.6627 130.779 35.2708 131.191 36.2099C131.471 36.8468 131.588 37.644 131.588 38.6386C131.588 38.6751 131.588 38.7122 131.587 38.7502L131.586 38.8072L131.582 38.9255L131.58 38.9856L131.572 39.1095L131.568 39.1732L131.558 39.3038C131.55 39.4102 131.539 39.5207 131.527 39.6358L131.517 39.7232L131.5 39.8723L131.48 40.0265L131.459 40.1864L131.442 40.3077L120.541 97.0625L120.516 97.2018L120.462 97.4979L120.407 97.7909L120.325 98.2247L120.269 98.5105L120.185 98.9341L120.129 99.2127L120.073 99.4887L120.016 99.7622L119.96 100.033L119.903 100.3L119.816 100.696L119.759 100.957L119.701 101.215L119.642 101.47L119.583 101.722L119.525 101.971L119.466 102.218L119.406 102.462L119.346 102.702L119.286 102.941L119.226 103.176L119.165 103.409L119.105 103.638L119.044 103.865L118.982 104.089L118.921 104.31L118.859 104.529L118.797 104.745L118.735 104.957L118.672 105.168L118.609 105.375L118.546 105.579L118.482 105.781L118.419 105.98L118.354 106.175L118.29 106.369L118.258 106.464L118.193 106.653L118.161 106.747L118.128 106.839L118.046 107.068L117.964 107.293L117.931 107.381L117.865 107.556L117.799 107.728L117.71 107.953L117.632 108.145L117.551 108.34C117.408 108.679 117.263 109.005 117.116 109.319L117.052 109.452L116.966 109.627L116.881 109.8C115.933 111.683 114.872 113.054 113.652 113.914C112.132 114.996 110.193 115.549 107.848 115.615L107.743 115.618H107.095C103.42 115.618 100.735 114.609 99.1881 112.477L99.1419 112.412L99.1018 112.355L99.0812 112.329C98.6407 111.77 98.4228 111 98.3369 109.924L98.3313 109.851L98.322 109.713L98.3174 109.643L98.3138 109.572L98.3071 109.427L98.304 109.354L98.3015 109.279L98.2963 109.089L98.2927 108.894L98.2917 108.815L98.2906 108.653V108.475L98.2912 108.377L98.2932 108.182L98.2948 108.087L98.2968 107.992L98.3015 107.805L98.304 107.713L98.3076 107.622L98.3148 107.442L98.3236 107.266L98.3338 107.094L98.3457 106.924L98.3518 106.842L98.3657 106.677L98.3811 106.517C98.4531 105.803 98.5693 105.195 98.7343 104.685C99.1624 103.361 100.014 102.472 101.3 102.451H101.346L101.397 102.451L101.439 102.454L101.482 102.457L101.526 102.461L101.587 102.469L101.653 102.48L101.741 102.497L101.824 102.514L101.896 102.531L102.04 102.567L102.233 102.618L102.492 102.689L102.767 102.768L103.13 102.874L104.001 103.129L104.248 103.204L104.469 103.27L104.68 103.331L104.879 103.388L105.067 103.439L105.201 103.475L105.328 103.508L105.486 103.548L105.631 103.584L105.732 103.608L105.825 103.628L105.91 103.647L106.013 103.667L106.08 103.679L106.139 103.688L106.174 103.693L106.204 103.696L106.232 103.699L106.244 103.7L106.266 103.701C106.28 103.7 106.294 103.697 106.307 103.69C106.352 103.67 106.413 103.629 106.489 103.558C106.726 103.336 106.992 102.931 107.259 102.341C107.597 101.592 107.845 100.624 107.995 99.4429L108.008 99.3412L108.028 99.1643L108.047 98.9844L108.056 98.8929L108.065 98.8009L108.081 98.6149C108.134 97.9539 108.161 97.2912 108.162 96.6282L108.163 96.475L108.162 96.4262L108.16 96.3881L108.155 96.3234L108.145 96.2226L108.132 96.1049L108.114 95.9713L108.104 95.8978L108.081 95.7394L108.053 95.5647L108.014 95.3231L107.969 95.0573L107.918 94.7669L107.861 94.4518L107.784 94.0416L107.7 93.5975L107.59 93.0362L107.451 92.3387L107.318 91.6802L107.151 90.8732L106.975 90.0328L94.9655 40.1175L94.9449 39.9679L94.9254 39.8255L94.9079 39.6883L94.8914 39.5562L94.8735 39.3973L94.858 39.2457L94.8524 39.1871L94.8421 39.073L94.8339 38.9625L94.8303 38.909L94.8236 38.8047L94.819 38.7044L94.8174 38.6556L94.8149 38.56L94.8143 38.5137V38.3852C94.8205 37.4991 94.9249 36.7846 95.167 36.2048C95.5437 35.3011 96.2911 34.6936 97.278 34.6745L97.3248 34.674H104.732C105.724 34.674 106.603 35.0364 107.282 35.736C107.907 36.3795 108.28 37.351 108.522 38.705L108.536 38.7821L108.559 38.9167L115.075 73.4058L120.164 39.1568L120.172 39.0915C120.357 37.7201 120.669 36.7008 121.189 35.9971L121.22 35.9555L121.251 35.9149C121.88 35.1192 122.761 34.6786 123.763 34.6627H128.953H128.952ZM19.7666 8.48785C20.8681 8.48785 21.7435 9.11136 22.2154 10.124C22.5459 10.8333 22.6908 11.7349 22.6975 12.8673V93.8396C22.6975 95.3868 22.5413 96.5907 22.1907 97.4933C21.7142 98.7192 20.8044 99.5108 19.5651 99.5308H10.1565C8.89252 99.5308 7.98322 98.7218 7.5165 97.4743C7.18804 96.5973 7.03846 95.4315 7.03229 93.9352V26.2349L5.22654 26.6913L3.8022 27.0475L3.46449 27.1287L3.31542 27.1632L3.20234 27.1868L3.13808 27.1971L3.08514 27.2022L3.02243 27.2074C1.91883 27.2871 0.997196 26.715 0.499626 25.7136C0.155234 25.0197 0.00719626 24.1325 0 23.0099V17.054C0 16.0023 0.169626 15.1192 0.553084 14.3991C0.99 13.5777 1.69061 13.0138 2.57164 12.785L2.62458 12.7717L2.68626 12.7573L18.8609 8.58603C19.11 8.52693 19.3647 8.49454 19.6206 8.48939L19.6962 8.48785H19.7671H19.7666Z" fill="url(#paint0_linear_120_1346)"/>
<g filter="url(#filter0_dii_120_1346)">
<path d="M84.6435 10.6478C85.8016 10.6478 86.7243 11.297 87.2311 12.3666C87.5971 13.1402 87.7605 14.1359 87.7672 15.388V39.276L87.7677 39.3326H94.7203C95.8121 39.3326 96.7096 39.8959 97.2375 40.8566L97.2622 40.9029L97.2863 40.9492C97.6682 41.696 97.8363 42.649 97.844 43.8395V47.2284C97.844 48.4394 97.6754 49.4079 97.2796 50.1645C96.7641 51.1499 95.8661 51.7322 94.7712 51.7497H87.7564V83.2056L87.7585 83.4503L87.761 83.6919L87.7651 83.9299L87.7677 84.0481L87.7749 84.339L87.7836 84.6243L87.7944 84.905L87.8073 85.18L87.8124 85.2889L87.8243 85.5038L87.8376 85.7145L87.8515 85.9232L87.8669 86.1278L87.8746 86.2286L87.8916 86.4285L87.9003 86.5267L87.9096 86.6244L87.9286 86.8176L87.9492 87.0068L87.9594 87.1003L87.9815 87.2849C88.0283 87.6683 88.0833 88.0297 88.145 88.3684L88.1656 88.4805L88.181 88.5596L88.2108 88.7077L88.2411 88.8516L88.2565 88.923L88.2879 89.0623L88.3203 89.198L88.3367 89.2649L88.3701 89.3954C88.4133 89.5615 88.4586 89.7187 88.5048 89.8668L88.5449 89.9922C88.7413 90.5864 88.9618 91.0285 89.1951 91.3153C89.6279 91.8483 90.0088 92.1701 90.3018 92.2981L90.3907 92.3346C90.7372 92.4729 91.2168 92.5515 91.8336 92.5566H96.2423C97.2801 92.5566 98.1776 92.9699 98.7662 93.7815C99.2555 94.4554 99.4704 95.3113 99.4796 96.3362L99.4801 96.4082V100.078C99.4801 101.212 99.2601 102.148 98.7466 102.876C98.1504 103.721 97.2375 104.164 96.1766 104.179H96.12L89.8922 104.19C88.1656 104.19 86.659 104.069 85.3482 103.822C83.946 103.557 82.5206 102.975 81.0562 102.084C79.5311 101.156 78.2805 99.8824 77.3079 98.2782C76.3622 96.7197 75.6235 94.6168 75.0668 91.964C74.524 89.381 74.247 86.3715 74.2372 82.945V51.7497H71.3628C70.2798 51.7497 69.3838 51.2008 68.8529 50.2555L68.8282 50.2102L68.8035 50.164C68.417 49.4253 68.2468 48.4842 68.2386 47.3127V43.9228C68.2386 42.6937 68.4062 41.713 68.7968 40.9492C69.3088 39.9479 70.2078 39.3516 71.3109 39.3336L71.3628 39.3331H74.2367V39.2395L75.3408 15.4024L75.347 15.2955C75.4251 14.0634 75.6245 13.0935 75.9895 12.3486C76.4953 11.3155 77.3624 10.6678 78.4686 10.6478H84.6435ZM136.061 39.3105C137.089 39.3105 137.887 39.9186 138.3 40.8577C138.579 41.4945 138.697 42.2918 138.697 43.2864C138.697 43.3229 138.697 43.3599 138.696 43.3979L138.695 43.455L138.691 43.5732L138.688 43.6334L138.681 43.7572L138.677 43.821L138.666 43.9515C138.658 44.0579 138.647 44.1685 138.636 44.2836L138.625 44.371L138.608 44.5201L138.589 44.6743L138.568 44.8341L138.551 44.9554L127.65 101.71L127.624 101.85L127.57 102.146L127.515 102.439L127.433 102.872L127.377 103.158L127.294 103.582L127.238 103.86L127.181 104.136L127.125 104.41L127.068 104.68L127.011 104.948L126.925 105.344L126.867 105.604L126.809 105.863L126.75 106.117L126.692 106.369L126.633 106.619L126.574 106.866L126.514 107.11L126.455 107.35L126.395 107.589L126.335 107.824L126.274 108.056L126.213 108.286L126.152 108.513L126.091 108.737L126.029 108.958L125.968 109.177L125.906 109.393L125.843 109.605L125.78 109.815L125.717 110.022L125.654 110.227L125.591 110.429L125.527 110.627L125.463 110.823L125.399 111.017L125.366 111.112L125.301 111.301L125.269 111.394L125.237 111.487L125.154 111.716L125.073 111.94L125.04 112.029L124.973 112.203L124.907 112.376L124.818 112.601L124.74 112.793L124.659 112.988C124.516 113.327 124.371 113.653 124.224 113.967L124.16 114.1L124.075 114.275L123.989 114.448C123.042 116.331 121.98 117.701 120.761 118.562C119.241 119.643 117.301 120.196 114.957 120.263L114.851 120.265H114.204C110.528 120.265 107.843 119.257 106.297 117.125L106.25 117.06L106.21 117.003L106.19 116.977C105.749 116.418 105.531 115.648 105.445 114.572L105.44 114.499L105.43 114.361L105.426 114.29L105.422 114.219L105.416 114.075L105.412 114.002L105.41 113.927L105.405 113.737L105.401 113.541L105.4 113.462L105.399 113.3V113.123L105.4 113.024L105.402 112.83L105.403 112.734L105.405 112.64L105.41 112.453L105.412 112.361L105.416 112.27L105.423 112.09L105.432 111.914L105.442 111.741L105.454 111.572L105.46 111.489L105.474 111.325L105.49 111.165C105.562 110.451 105.678 109.843 105.843 109.333C106.271 108.009 107.123 107.12 108.409 107.099H108.455L108.505 107.099L108.547 107.101L108.59 107.104L108.635 107.109L108.695 107.117L108.761 107.128L108.85 107.144L108.932 107.162L109.005 107.179L109.148 107.215L109.341 107.265L109.601 107.337L109.875 107.415L110.239 107.521L111.109 107.777L111.356 107.852L111.578 107.918L111.788 107.979L111.988 108.035L112.176 108.087L112.31 108.123L112.436 108.156L112.594 108.196L112.74 108.232L112.841 108.255L112.934 108.276L113.019 108.294L113.121 108.315L113.188 108.327L113.247 108.336L113.282 108.341L113.313 108.344L113.34 108.347L113.352 108.347L113.374 108.348C113.388 108.348 113.402 108.345 113.415 108.338C113.46 108.318 113.521 108.277 113.597 108.206C113.835 107.983 114.101 107.578 114.367 106.989C114.706 106.24 114.954 105.272 115.104 104.091L115.116 103.989L115.137 103.812L115.156 103.632L115.165 103.541L115.174 103.449L115.19 103.263C115.242 102.602 115.269 101.939 115.271 101.276L115.271 101.123L115.27 101.074L115.268 101.036L115.263 100.971L115.254 100.87L115.24 100.753L115.222 100.619L115.212 100.546L115.189 100.387L115.162 100.212L115.123 99.9708L115.078 99.7051L115.026 99.4147L114.97 99.0996L114.892 98.6894L114.808 98.2453L114.699 97.684L114.56 96.9865L114.426 96.328L114.26 95.521L114.083 94.6806L102.074 44.7652L102.053 44.6157L102.034 44.4733L102.016 44.336L102 44.2039L101.982 44.0451L101.966 43.8935L101.961 43.8349L101.951 43.7208L101.942 43.6102L101.939 43.5568L101.932 43.4524L101.927 43.3522L101.926 43.3034L101.923 43.2078L101.923 43.1615V43.033C101.929 42.1468 102.033 41.4323 102.275 40.8525C102.652 39.9489 103.4 39.3413 104.386 39.3223L104.433 39.3218H111.84C112.832 39.3218 113.711 39.6842 114.39 40.3837C115.015 41.0273 115.388 41.9988 115.631 43.3527L115.644 43.4298L115.667 43.5645L122.183 78.0536L127.272 43.8045L127.28 43.7393C127.465 42.3679 127.778 41.3486 128.297 40.6449L128.328 40.6032L128.36 40.5626C128.988 39.7669 129.869 39.3264 130.871 39.3105H136.061Z" fill="url(#paint1_linear_120_1346)"/>
</g>
<defs>
<filter id="filter0_dii_120_1346" x="56.2386" y="-5.35229" width="86.458" height="131.618" filterUnits="userSpaceOnUse" color-interpolation-filters="sRGB">
<feFlood flood-opacity="0" result="BackgroundImageFix"/>
<feColorMatrix in="SourceAlpha" type="matrix" values="0 0 0 0 0 0 0 0 0 0 0 0 0 0 0 0 0 0 127 0" result="hardAlpha"/>
<feOffset dx="-4" dy="-2"/>
<feGaussianBlur stdDeviation="4"/>
<feComposite in2="hardAlpha" operator="out"/>
<feColorMatrix type="matrix" values="0 0 0 0 0.0698785 0 0 0 0 0.634776 0 0 0 0 0.670833 0 0 0 0.52 0"/>
<feBlend mode="normal" in2="BackgroundImageFix" result="effect1_dropShadow_120_1346"/>
<feBlend mode="normal" in="SourceGraphic" in2="effect1_dropShadow_120_1346" result="shape"/>
<feColorMatrix in="SourceAlpha" type="matrix" values="0 0 0 0 0 0 0 0 0 0 0 0 0 0 0 0 0 0 127 0" result="hardAlpha"/>
<feOffset dy="-16"/>
<feGaussianBlur stdDeviation="8"/>
<feComposite in2="hardAlpha" operator="arithmetic" k2="-1" k3="1"/>
<feColorMatrix type="matrix" values="0 0 0 0 1 0 0 0 0 1 0 0 0 0 1 0 0 0 0.58 0"/>
<feBlend mode="normal" in2="shape" result="effect2_innerShadow_120_1346"/>
<feColorMatrix in="SourceAlpha" type="matrix" values="0 0 0 0 0 0 0 0 0 0 0 0 0 0 0 0 0 0 127 0" result="hardAlpha"/>
<feOffset dy="2"/>
<feGaussianBlur stdDeviation="1.5"/>
<feComposite in2="hardAlpha" operator="arithmetic" k2="-1" k3="1"/>
<feColorMatrix type="matrix" values="0 0 0 0 1 0 0 0 0 1 0 0 0 0 1 0 0 0 0.41 0"/>
<feBlend mode="normal" in2="effect2_innerShadow_120_1346" result="effect3_innerShadow_120_1346"/>
</filter>
<linearGradient id="paint0_linear_120_1346" x1="65.7941" y1="6" x2="65.7941" y2="115.618" gradientUnits="userSpaceOnUse">
<stop stop-color="#8EF7FE"/>
<stop offset="0.984375" stop-color="#06B7B7"/>
</linearGradient>
<linearGradient id="paint1_linear_120_1346" x1="103.468" y1="10.6477" x2="103.468" y2="120.265" gradientUnits="userSpaceOnUse">
<stop stop-color="#8EF7FE"/>
<stop offset="0.984375" stop-color="#06B7B7"/>
</linearGradient>
</defs>
</svg>
