<svg width="172" height="116" viewBox="0 0 172 116" fill="none" xmlns="http://www.w3.org/2000/svg">
<path d="M159.018 15.2002L163.926 2.4886L163.713 1.70106L115.158 14.4937C120.335 7.00558 118.557 1 118.557 1C118.557 1 103.051 10.9019 91.3252 10.643C79.5998 10.3836 75.8198 7.25408 57.8396 12.9898C39.8594 18.7213 34.7796 36.3147 29.5665 40.0941C24.3539 43.8747 8 56.1849 8 56.1849L8.03533 56.4036L22.7794 51.7094C22.7794 51.7094 18.7351 55.5192 10.144 67.0979L9.74259 66.727L9.75782 66.8086C9.75782 66.8086 16.6624 77.3604 23.4397 75.4095C24.1206 75.2115 24.8875 74.8863 25.7256 74.4593C28.4543 75.979 32.0156 77.4724 35.9479 77.8836C35.9479 77.8836 33.2862 74.7894 31.0654 71.2689C31.6648 70.8827 32.2799 70.4814 32.9049 70.0751L32.6149 70.2785L38.2289 72.3409L37.6094 67.0626C37.6295 67.0522 37.6448 67.037 37.6649 67.0266L43.1826 69.0537L42.4967 64.2528C43.1857 63.8918 43.8835 63.548 44.5896 63.2217L50.3411 41.467L74.1229 25.2446L72.2329 30.0004C67.4114 41.858 58.3579 44.6574 58.3579 44.6574L54.5779 46.0899C51.7688 49.4125 50.5848 50.2305 49.62 61.3822C51.8858 60.8134 54.0499 60.6757 56.0105 61.2044C66.1719 63.9428 69.6924 76.1873 66.9539 79.5756C66.2681 80.424 64.6376 81.8718 62.5801 83.5742H58.4548L58.3987 86.9169C58.2562 87.029 58.1143 87.1356 57.9766 87.247H53.78L53.7295 90.5087C53.3586 90.7937 52.9876 91.0678 52.6325 91.337C48.6899 91.418 43.6954 87.9785 43.6954 87.9785C43.6954 91.1086 46.3023 95.9247 46.3023 95.9247C46.3023 95.9247 46.4747 95.8437 46.764 95.7011C46.51 95.8893 46.3681 95.991 46.3681 95.991C46.3681 95.991 56.9199 103.027 63.5656 100.421C69.4737 98.104 84.7715 86.0429 97.9758 80.3327L137.934 69.8059L143.202 56.1545L112.75 64.1761V51.9177L148.481 42.503L153.75 28.8516L112.76 39.6531V27.388L159.018 15.2002Z" fill="url(#paint0_linear_116_353)"/>
<g filter="url(#filter0_dii_116_353)">
<path d="M163.018 24.2002L167.926 11.4886L167.713 10.7011L119.158 23.4937C124.335 16.0056 122.557 10 122.557 10C122.557 10 107.051 19.9019 95.3252 19.643C83.5997 19.3836 79.8198 16.2541 61.8396 21.9898C43.8594 27.7213 38.7796 45.3147 33.5665 49.0941C28.3539 52.8747 12 65.1849 12 65.1849L12.0353 65.4036L26.7794 60.7094C26.7794 60.7094 22.7351 64.5192 14.144 76.0979L13.7426 75.727L13.7578 75.8086C13.7578 75.8086 20.6624 86.3604 27.4397 84.4095C28.1206 84.2115 28.8875 83.8863 29.7256 83.4593C32.4543 84.979 36.0156 86.4724 39.9479 86.8836C39.9479 86.8836 37.2862 83.7894 35.0654 80.2689C35.6648 79.8827 36.2799 79.4813 36.9049 79.0751L36.6149 79.2785L42.2289 81.3409L41.6094 76.0626C41.6295 76.0522 41.6448 76.037 41.6649 76.0266L47.1826 78.0537L46.4967 73.2528C47.1857 72.8918 47.8835 72.548 48.5896 72.2217L54.3411 50.467L78.1229 34.2446L76.2329 39.0004C71.4114 50.858 62.3579 53.6574 62.3579 53.6574L58.5779 55.0899C55.7688 58.4125 54.5848 59.2305 53.62 70.3822C55.8858 69.8134 58.0499 69.6757 60.0105 70.2044C70.1719 72.9428 73.6924 85.1873 70.9539 88.5756C70.2681 89.4241 68.6376 90.8718 66.5801 92.5742H62.4548L62.3987 95.9169C62.2562 96.029 62.1143 96.1356 61.9766 96.247H57.78L57.7295 99.5087C57.3585 99.7937 56.9876 100.068 56.6325 100.337C52.6899 100.418 47.6954 96.9785 47.6954 96.9785C47.6954 100.109 50.3023 104.925 50.3023 104.925C50.3023 104.925 50.4747 104.844 50.764 104.701C50.51 104.889 50.3681 104.991 50.3681 104.991C50.3681 104.991 60.9199 112.027 67.5656 109.421C73.4737 107.104 88.7715 95.0429 101.976 89.3327L141.934 78.8059L147.202 65.1545L116.75 73.1761V60.9177L152.481 51.503L157.75 37.8516L116.76 48.6531V36.388L163.018 24.2002Z" fill="url(#paint1_linear_116_353)"/>
</g>
<defs>
<filter id="filter0_dii_116_353" x="0" y="-6" width="171.926" height="122" filterUnits="userSpaceOnUse" color-interpolation-filters="sRGB">
<feFlood flood-opacity="0" result="BackgroundImageFix"/>
<feColorMatrix in="SourceAlpha" type="matrix" values="0 0 0 0 0 0 0 0 0 0 0 0 0 0 0 0 0 0 127 0" result="hardAlpha"/>
<feOffset dx="-4" dy="-2"/>
<feGaussianBlur stdDeviation="4"/>
<feComposite in2="hardAlpha" operator="out"/>
<feColorMatrix type="matrix" values="0 0 0 0 0.0698785 0 0 0 0 0.634776 0 0 0 0 0.670833 0 0 0 0.52 0"/>
<feBlend mode="normal" in2="BackgroundImageFix" result="effect1_dropShadow_116_353"/>
<feBlend mode="normal" in="SourceGraphic" in2="effect1_dropShadow_116_353" result="shape"/>
<feColorMatrix in="SourceAlpha" type="matrix" values="0 0 0 0 0 0 0 0 0 0 0 0 0 0 0 0 0 0 127 0" result="hardAlpha"/>
<feOffset dy="-16"/>
<feGaussianBlur stdDeviation="8"/>
<feComposite in2="hardAlpha" operator="arithmetic" k2="-1" k3="1"/>
<feColorMatrix type="matrix" values="0 0 0 0 1 0 0 0 0 1 0 0 0 0 1 0 0 0 0.58 0"/>
<feBlend mode="normal" in2="shape" result="effect2_innerShadow_116_353"/>
<feColorMatrix in="SourceAlpha" type="matrix" values="0 0 0 0 0 0 0 0 0 0 0 0 0 0 0 0 0 0 127 0" result="hardAlpha"/>
<feOffset dy="2"/>
<feGaussianBlur stdDeviation="1.5"/>
<feComposite in2="hardAlpha" operator="arithmetic" k2="-1" k3="1"/>
<feColorMatrix type="matrix" values="0 0 0 0 1 0 0 0 0 1 0 0 0 0 1 0 0 0 0.41 0"/>
<feBlend mode="normal" in2="effect2_innerShadow_116_353" result="effect3_innerShadow_116_353"/>
</filter>
<linearGradient id="paint0_linear_116_353" x1="85.9629" y1="1" x2="85.9629" y2="101" gradientUnits="userSpaceOnUse">
<stop stop-color="#8EF7FE"/>
<stop offset="0.984375" stop-color="#06B7B7"/>
</linearGradient>
<linearGradient id="paint1_linear_116_353" x1="89.9629" y1="10" x2="89.9629" y2="110" gradientUnits="userSpaceOnUse">
<stop stop-color="#8EF7FE"/>
<stop offset="0.984375" stop-color="#06B7B7"/>
</linearGradient>
</defs>
</svg>
