<svg width="109" height="109" viewBox="0 0 109 109" fill="none" xmlns="http://www.w3.org/2000/svg">
<path d="M17.0931 12.7104C20.6029 12.7104 23.4482 9.86506 23.4482 6.35519C23.4482 2.84532 20.6029 0 17.0931 0C13.5832 0 10.7379 2.84532 10.7379 6.35519C10.7379 9.86506 13.5832 12.7104 17.0931 12.7104Z" fill="url(#paint0_linear_143_122)"/>
<path d="M92.9904 93.0632C90.4337 92.6249 68.8845 87.1463 68.8845 87.1463C60.4405 85.0368 52.9226 80.2135 47.4856 73.4172C42.0486 66.6209 38.9931 58.2276 38.7887 49.5265L38.3504 34.9169C38.299 34.5419 38.117 34.1972 37.8364 33.9433C37.5558 33.6894 37.1946 33.5426 36.8164 33.5289H25.2748C19.7246 34.0175 14.2812 35.3476 9.13112 37.4736C8.94306 37.5734 8.78382 37.7198 8.6687 37.8989C8.55357 38.078 8.48641 38.2837 8.47369 38.4962C7.71789 51.0945 11.0203 63.6033 17.8963 74.1868C24.7722 84.7702 34.8596 92.8709 46.6779 97.3C52.8547 99.4993 59.4261 100.37 65.9626 99.8567C65.9626 99.8567 90.1415 99.2723 92.7713 98.2496C95.401 97.227 95.6201 93.5745 92.9904 93.0632ZM10.0077 16.5087C12.4805 14.9444 15.2347 13.8775 18.116 13.3677C21.0583 13.151 24.0126 13.151 26.9549 13.3677L27.9775 19.7229L11.0304 23.4483L10.0077 16.5087Z" fill="url(#paint1_linear_143_122)"/>
<path d="M45.6551 25.0555C44.2672 24.3981 41.1261 23.5946 37.6928 22.5719C37.3276 21.257 36.8163 18.7003 36.8163 16.8741C33.4169 16.5132 29.9889 16.5132 26.5895 16.8741C26.5131 16.2678 26.5131 15.6543 26.5895 15.0479C26.5895 14.4635 26.5895 14.3174 25.7129 14.3905H23.9598C23.0832 14.3905 22.718 14.7557 22.3527 14.3905C21.9875 14.0252 21.257 13.9522 21.184 13.9522C21.1109 13.9522 21.184 10.0806 20.3074 8.98492C19.7587 8.68441 19.1433 8.52689 18.5177 8.52689C17.8922 8.52689 17.2767 8.68441 16.728 8.98492C15.5593 9.56931 14.7557 10.2998 14.6827 10.8111C14.6096 11.3225 15.121 13.0756 15.4132 15.4132C15.4132 15.9975 15.4132 16.2167 14.9749 16.3628C14.5366 16.5089 12.5643 16.8011 11.6877 16.9472C10.8111 17.0933 10.9572 17.7507 11.0303 18.7003C11.0042 19.2113 11.0042 19.7233 11.0303 20.2343C8.28885 21.182 5.79332 22.7293 3.72545 24.7633L4.45594 29.3654C2.62644 30.2308 1.08095 31.5989 0 33.31C0.117763 34.7796 0.766993 36.156 1.8262 37.1815C7.64334 32.818 14.3955 29.8671 21.5492 28.5618C30.4508 27.6517 39.4446 28.5461 47.9926 31.1916C48.7259 29.7692 49.1019 28.1897 49.0884 26.5895C48.0657 25.6399 47.2622 25.6399 45.6551 25.0555Z" fill="url(#paint2_linear_143_122)"/>
<g filter="url(#filter0_dii_143_122)">
<path d="M102.115 95.6949C99.4229 95.2334 76.7296 89.4639 76.7296 89.4639C67.8374 87.2424 59.9203 82.163 54.1946 75.0059C48.469 67.8488 45.2513 59.0099 45.036 49.8469L44.5744 34.4616C44.5204 34.0668 44.3287 33.7037 44.0332 33.4363C43.7376 33.1689 43.3572 33.0144 42.959 33H30.8046C24.9599 33.5145 19.2274 34.9152 13.8039 37.154C13.6059 37.2591 13.4382 37.4134 13.317 37.602C13.1957 37.7906 13.125 38.0072 13.1116 38.231C12.3157 51.4981 15.7934 64.671 23.0344 75.8164C30.2754 86.9617 40.8983 95.4925 53.344 100.157C59.8488 102.473 66.769 103.39 73.6526 102.849C73.6526 102.849 99.1152 102.234 101.885 101.157C104.654 100.08 104.885 96.2334 102.115 95.6949Z" fill="url(#paint3_linear_143_122)"/>
</g>
<defs>
<filter id="filter0_dii_143_122" x="1" y="17" width="107.081" height="92" filterUnits="userSpaceOnUse" color-interpolation-filters="sRGB">
<feFlood flood-opacity="0" result="BackgroundImageFix"/>
<feColorMatrix in="SourceAlpha" type="matrix" values="0 0 0 0 0 0 0 0 0 0 0 0 0 0 0 0 0 0 127 0" result="hardAlpha"/>
<feOffset dx="-4" dy="-2"/>
<feGaussianBlur stdDeviation="4"/>
<feComposite in2="hardAlpha" operator="out"/>
<feColorMatrix type="matrix" values="0 0 0 0 0.0698785 0 0 0 0 0.634776 0 0 0 0 0.670833 0 0 0 0.52 0"/>
<feBlend mode="normal" in2="BackgroundImageFix" result="effect1_dropShadow_143_122"/>
<feBlend mode="normal" in="SourceGraphic" in2="effect1_dropShadow_143_122" result="shape"/>
<feColorMatrix in="SourceAlpha" type="matrix" values="0 0 0 0 0 0 0 0 0 0 0 0 0 0 0 0 0 0 127 0" result="hardAlpha"/>
<feOffset dy="-16"/>
<feGaussianBlur stdDeviation="8"/>
<feComposite in2="hardAlpha" operator="arithmetic" k2="-1" k3="1"/>
<feColorMatrix type="matrix" values="0 0 0 0 1 0 0 0 0 1 0 0 0 0 1 0 0 0 0.58 0"/>
<feBlend mode="normal" in2="shape" result="effect2_innerShadow_143_122"/>
<feColorMatrix in="SourceAlpha" type="matrix" values="0 0 0 0 0 0 0 0 0 0 0 0 0 0 0 0 0 0 127 0" result="hardAlpha"/>
<feOffset dy="2"/>
<feGaussianBlur stdDeviation="1.5"/>
<feComposite in2="hardAlpha" operator="arithmetic" k2="-1" k3="1"/>
<feColorMatrix type="matrix" values="0 0 0 0 1 0 0 0 0 1 0 0 0 0 1 0 0 0 0.41 0"/>
<feBlend mode="normal" in2="effect2_innerShadow_143_122" result="effect3_innerShadow_143_122"/>
</filter>
<linearGradient id="paint0_linear_143_122" x1="47.4283" y1="0" x2="47.4283" y2="100" gradientUnits="userSpaceOnUse">
<stop stop-color="#8EF7FE"/>
<stop offset="0.984375" stop-color="#06B7B7"/>
</linearGradient>
<linearGradient id="paint1_linear_143_122" x1="47.4283" y1="0" x2="47.4283" y2="100" gradientUnits="userSpaceOnUse">
<stop stop-color="#8EF7FE"/>
<stop offset="0.984375" stop-color="#06B7B7"/>
</linearGradient>
<linearGradient id="paint2_linear_143_122" x1="47.4283" y1="0" x2="47.4283" y2="100" gradientUnits="userSpaceOnUse">
<stop stop-color="#8EF7FE"/>
<stop offset="0.984375" stop-color="#06B7B7"/>
</linearGradient>
<linearGradient id="paint3_linear_143_122" x1="58.5403" y1="33" x2="58.5403" y2="103" gradientUnits="userSpaceOnUse">
<stop stop-color="#8EF7FE"/>
<stop offset="0.984375" stop-color="#06B7B7"/>
</linearGradient>
</defs>
</svg>
