<svg width="140" height="91" viewBox="0 0 140 91" fill="none" xmlns="http://www.w3.org/2000/svg">
<path d="M131.166 1.35132C130.336 0.52113 129.229 0.54485 129.229 0.54485H129.237C129.237 0.54485 105.652 1.87315 93.4359 2.15779H93.3489C90.7002 2.21313 88.0832 2.27639 85.474 2.2922L82.1058 2.31592C76.2708 2.39498 64.1579 1.87315 64.1579 1.87315C64.1579 1.87315 35.7022 0.442064 32.6108 0.165335L31.8992 0.117895L31.8509 0.114619C29.9929 -0.0114093 27.6676 -0.169132 24.7596 0.465784C23.0043 0.829486 18.0153 1.95222 13.9276 5.87387C5.18292 13.6776 7.04096 25.9249 7.43629 28.4866C7.4521 28.5736 7.46792 28.6527 7.46792 28.7159C7.8079 31.0721 8.85156 37.6187 13.8406 43.3114C23.0517 54.602 42.8972 54.3331 42.8972 54.3331C42.8972 54.3331 45.3403 60.1524 49.0564 65.5051C54.0929 72.1624 59.2638 77.357 64.2923 77.9817L102.307 77.9658C102.307 77.9658 104.719 77.9817 108 75.8864C110.822 74.1786 113.337 71.182 113.337 71.182C113.337 71.182 115.93 68.4068 119.551 62.0658C120.585 60.2322 121.533 58.351 122.39 56.4284C122.39 56.4284 133.498 32.8668 133.498 9.92203C133.285 3.35958 131.751 1.90478 131.245 1.43038L131.166 1.35132Z" fill="url(#paint0_linear_115_314)"/>
<g filter="url(#filter0_dii_115_314)">
<mask id="path-2-inside-1_115_314" fill="white">
<path fill-rule="evenodd" clip-rule="evenodd" d="M133.128 7.56322C133.128 7.56322 134.235 7.5395 135.065 8.36969L135.144 8.44876C135.65 8.92315 137.184 10.378 137.397 16.9404C137.397 39.8852 126.289 63.4468 126.289 63.4468C125.432 65.3694 124.484 67.2506 123.45 69.0841C119.829 75.4252 117.236 78.2004 117.236 78.2004C117.236 78.2004 114.721 81.197 111.899 82.9048C108.618 85 106.206 84.9842 106.206 84.9842L68.1914 85C63.1628 84.3754 57.9919 79.1808 52.9554 72.5235C49.2394 67.1707 46.7962 61.3515 46.7962 61.3515C46.7962 61.3515 26.9508 61.6203 17.7396 50.3298C12.7506 44.6371 11.7069 38.0904 11.367 35.7343C11.367 35.671 11.3512 35.592 11.3353 35.505C10.94 32.9433 9.08197 20.696 17.8266 12.8922C21.9143 8.97059 26.9033 7.84786 28.6586 7.48416C31.5919 6.84373 33.9323 7.00976 35.7982 7.13627L36.5098 7.18371C39.6013 7.46044 68.057 8.89152 68.057 8.89152C68.057 8.89152 80.1698 9.41336 86.0048 9.33429C86.0048 9.33429 86.0286 23.9851 86.0286 31.3145C86.582 31.5675 87.1355 31.8363 87.6968 32.1052L89.373 32.8958V9.31057C91.9822 9.29476 94.5993 9.2315 97.248 9.17616H97.3349C109.551 8.89152 133.136 7.56322 133.136 7.56322H133.128ZM27.5991 45.6728C27.5991 45.6728 29.813 47.7285 35.0313 49.4442C38.4311 50.646 43.6811 51.2707 43.6811 51.2707C43.6811 51.2707 40.1389 41.514 38.692 35.6394C36.9526 28.6342 35.5294 16.6795 35.5294 16.6795C35.5294 16.6795 32.0663 16.5609 29.2911 17.3041C23.2347 18.8063 21.5427 23.3368 21.5427 23.3368C21.5427 23.3368 18.5066 28.7765 21.8273 37.6714C23.7565 42.9846 27.5991 45.6807 27.5991 45.6807V45.6728ZM91.5157 74.1918C94.2356 74.0099 95.4611 71.0924 95.4611 71.0924C95.4611 71.0924 105.265 51.4367 106.53 48.3373C107.021 47.2522 107.148 46.0377 106.894 44.8743C106.341 42.7632 103.81 41.6168 103.81 41.6168L88.5824 34.2241L87.2778 36.9044L85.8546 39.822C86.1987 40.1783 86.4661 40.6014 86.6402 41.0651C86.8143 41.5289 86.8913 42.0234 86.8667 42.5181C86.8667 42.5181 90.2902 43.9887 92.7412 45.5779C92.7412 45.5779 94.7732 46.6453 95.2713 48.9382C95.8643 51.0967 94.9551 52.7966 94.7495 53.1999L94.7337 53.2236C94.7337 53.2236 93.0259 57.2559 92.0217 59.3433L91.9901 59.3986C91.6185 60.1655 91.2627 60.8929 90.8911 61.6124C91.4451 62.2282 91.7691 63.0165 91.8082 63.8439C91.8473 64.6713 91.5991 65.4867 91.1056 66.1519C90.6122 66.8172 89.9038 67.2913 89.1007 67.4939C88.2976 67.6965 87.4491 67.6151 86.6991 67.2636C85.9491 66.912 85.3438 66.3119 84.9858 65.565C84.6277 64.8181 84.539 63.9704 84.7346 63.1655C84.9303 62.3607 85.3982 61.6483 86.0592 61.149C86.7201 60.6498 87.5333 60.3945 88.361 60.4264C88.361 60.4264 91.6027 53.7849 92.0613 52.259C92.0613 52.259 92.8203 50.3614 92.4408 49.2545C92.093 48.6252 91.5715 48.1092 90.9385 47.7681C89.2111 46.758 87.4205 45.8601 85.5779 45.0798C85.5779 45.0798 84.977 45.6175 84.1547 45.7914C83.748 45.9013 83.3252 45.9388 82.9055 45.9021L78.0746 55.7853C78.6697 56.3935 79.0322 57.1915 79.0986 58.0399C79.1651 58.8882 78.9314 59.7329 78.4383 60.4264C77.9317 61.1233 77.1928 61.6161 76.3548 61.8162C75.5169 62.0163 74.635 61.9103 73.8683 61.5176C73.1593 61.1433 72.5946 60.5443 72.2626 59.8146C71.9306 59.0849 71.8502 58.2656 72.034 57.4852C72.2262 56.7042 72.672 56.0089 73.3014 55.5082C73.9309 55.0075 74.7086 54.7296 75.5128 54.7179L80.4703 44.5659C80.0397 44.0324 79.7697 43.3874 79.692 42.7063C79.6142 42.0251 79.7318 41.3359 80.0311 40.7191C80.3304 40.1023 80.799 39.5834 81.3821 39.2229C81.9653 38.8625 82.639 38.6753 83.3245 38.6834L84.7872 35.7185L86.1076 33.0223L81.5297 30.8006C81.5297 30.8006 79.5452 29.8123 77.9085 30.2313C77.598 30.3019 77.2959 30.4052 77.0072 30.5397C75.5128 31.2038 74.5562 33.1488 74.5562 33.1488L63.6135 55.6904C63.6135 55.6904 62.6331 57.6987 63.0758 59.3274C63.4553 61.3199 65.6455 62.4663 65.6455 62.4663L88.3689 73.5355L89.4363 73.9625C89.4363 73.9625 90.3376 74.2787 91.5078 74.1997L91.5157 74.1918Z"/>
</mask>
<path fill-rule="evenodd" clip-rule="evenodd" d="M133.128 7.56322C133.128 7.56322 134.235 7.5395 135.065 8.36969L135.144 8.44876C135.65 8.92315 137.184 10.378 137.397 16.9404C137.397 39.8852 126.289 63.4468 126.289 63.4468C125.432 65.3694 124.484 67.2506 123.45 69.0841C119.829 75.4252 117.236 78.2004 117.236 78.2004C117.236 78.2004 114.721 81.197 111.899 82.9048C108.618 85 106.206 84.9842 106.206 84.9842L68.1914 85C63.1628 84.3754 57.9919 79.1808 52.9554 72.5235C49.2394 67.1707 46.7962 61.3515 46.7962 61.3515C46.7962 61.3515 26.9508 61.6203 17.7396 50.3298C12.7506 44.6371 11.7069 38.0904 11.367 35.7343C11.367 35.671 11.3512 35.592 11.3353 35.505C10.94 32.9433 9.08197 20.696 17.8266 12.8922C21.9143 8.97059 26.9033 7.84786 28.6586 7.48416C31.5919 6.84373 33.9323 7.00976 35.7982 7.13627L36.5098 7.18371C39.6013 7.46044 68.057 8.89152 68.057 8.89152C68.057 8.89152 80.1698 9.41336 86.0048 9.33429C86.0048 9.33429 86.0286 23.9851 86.0286 31.3145C86.582 31.5675 87.1355 31.8363 87.6968 32.1052L89.373 32.8958V9.31057C91.9822 9.29476 94.5993 9.2315 97.248 9.17616H97.3349C109.551 8.89152 133.136 7.56322 133.136 7.56322H133.128ZM27.5991 45.6728C27.5991 45.6728 29.813 47.7285 35.0313 49.4442C38.4311 50.646 43.6811 51.2707 43.6811 51.2707C43.6811 51.2707 40.1389 41.514 38.692 35.6394C36.9526 28.6342 35.5294 16.6795 35.5294 16.6795C35.5294 16.6795 32.0663 16.5609 29.2911 17.3041C23.2347 18.8063 21.5427 23.3368 21.5427 23.3368C21.5427 23.3368 18.5066 28.7765 21.8273 37.6714C23.7565 42.9846 27.5991 45.6807 27.5991 45.6807V45.6728ZM91.5157 74.1918C94.2356 74.0099 95.4611 71.0924 95.4611 71.0924C95.4611 71.0924 105.265 51.4367 106.53 48.3373C107.021 47.2522 107.148 46.0377 106.894 44.8743C106.341 42.7632 103.81 41.6168 103.81 41.6168L88.5824 34.2241L87.2778 36.9044L85.8546 39.822C86.1987 40.1783 86.4661 40.6014 86.6402 41.0651C86.8143 41.5289 86.8913 42.0234 86.8667 42.5181C86.8667 42.5181 90.2902 43.9887 92.7412 45.5779C92.7412 45.5779 94.7732 46.6453 95.2713 48.9382C95.8643 51.0967 94.9551 52.7966 94.7495 53.1999L94.7337 53.2236C94.7337 53.2236 93.0259 57.2559 92.0217 59.3433L91.9901 59.3986C91.6185 60.1655 91.2627 60.8929 90.8911 61.6124C91.4451 62.2282 91.7691 63.0165 91.8082 63.8439C91.8473 64.6713 91.5991 65.4867 91.1056 66.1519C90.6122 66.8172 89.9038 67.2913 89.1007 67.4939C88.2976 67.6965 87.4491 67.6151 86.6991 67.2636C85.9491 66.912 85.3438 66.3119 84.9858 65.565C84.6277 64.8181 84.539 63.9704 84.7346 63.1655C84.9303 62.3607 85.3982 61.6483 86.0592 61.149C86.7201 60.6498 87.5333 60.3945 88.361 60.4264C88.361 60.4264 91.6027 53.7849 92.0613 52.259C92.0613 52.259 92.8203 50.3614 92.4408 49.2545C92.093 48.6252 91.5715 48.1092 90.9385 47.7681C89.2111 46.758 87.4205 45.8601 85.5779 45.0798C85.5779 45.0798 84.977 45.6175 84.1547 45.7914C83.748 45.9013 83.3252 45.9388 82.9055 45.9021L78.0746 55.7853C78.6697 56.3935 79.0322 57.1915 79.0986 58.0399C79.1651 58.8882 78.9314 59.7329 78.4383 60.4264C77.9317 61.1233 77.1928 61.6161 76.3548 61.8162C75.5169 62.0163 74.635 61.9103 73.8683 61.5176C73.1593 61.1433 72.5946 60.5443 72.2626 59.8146C71.9306 59.0849 71.8502 58.2656 72.034 57.4852C72.2262 56.7042 72.672 56.0089 73.3014 55.5082C73.9309 55.0075 74.7086 54.7296 75.5128 54.7179L80.4703 44.5659C80.0397 44.0324 79.7697 43.3874 79.692 42.7063C79.6142 42.0251 79.7318 41.3359 80.0311 40.7191C80.3304 40.1023 80.799 39.5834 81.3821 39.2229C81.9653 38.8625 82.639 38.6753 83.3245 38.6834L84.7872 35.7185L86.1076 33.0223L81.5297 30.8006C81.5297 30.8006 79.5452 29.8123 77.9085 30.2313C77.598 30.3019 77.2959 30.4052 77.0072 30.5397C75.5128 31.2038 74.5562 33.1488 74.5562 33.1488L63.6135 55.6904C63.6135 55.6904 62.6331 57.6987 63.0758 59.3274C63.4553 61.3199 65.6455 62.4663 65.6455 62.4663L88.3689 73.5355L89.4363 73.9625C89.4363 73.9625 90.3376 74.2787 91.5078 74.1997L91.5157 74.1918Z" fill="url(#paint1_linear_115_314)"/>
<path d="M133.128 7.56322L133.106 6.56345L133.128 8.56322V7.56322ZM135.065 8.36969L134.358 9.0768L134.358 9.07681L135.065 8.36969ZM135.144 8.44876L134.437 9.15588L134.448 9.16727L134.46 9.17829L135.144 8.44876ZM137.397 16.9404H138.397V16.9241L138.397 16.9079L137.397 16.9404ZM126.289 63.4468L125.384 63.0203L125.38 63.0299L125.375 63.0395L126.289 63.4468ZM123.45 69.0841L124.319 69.58L124.321 69.5754L123.45 69.0841ZM117.236 78.2004L116.505 77.5176L116.487 77.5372L116.47 77.5576L117.236 78.2004ZM111.899 82.9048L111.381 82.0492L111.371 82.0555L111.361 82.062L111.899 82.9048ZM106.206 84.9842L106.213 83.9842H106.206L106.206 84.9842ZM68.1914 85L68.0681 85.9924L68.1297 86L68.1918 86L68.1914 85ZM52.9554 72.5235L52.134 73.0938L52.1456 73.1105L52.158 73.1268L52.9554 72.5235ZM46.7962 61.3515L47.7183 60.9644L47.4572 60.3425L46.7827 60.3516L46.7962 61.3515ZM17.7396 50.3298L18.5145 49.6976L18.5033 49.684L18.4917 49.6707L17.7396 50.3298ZM11.367 35.7343H10.367V35.8061L10.3772 35.8771L11.367 35.7343ZM11.3353 35.505L10.347 35.6575L10.3491 35.6707L10.3515 35.6839L11.3353 35.505ZM17.8266 12.8922L18.4924 13.6383L18.5059 13.6263L18.5189 13.6139L17.8266 12.8922ZM28.6586 7.48416L28.8615 8.46341L28.8719 8.46114L28.6586 7.48416ZM35.7982 7.13627L35.7306 8.13398L35.7317 8.13405L35.7982 7.13627ZM36.5098 7.18371L36.599 6.18769L36.5877 6.18668L36.5763 6.18592L36.5098 7.18371ZM68.057 8.89152L68.0067 9.89029L68.0139 9.8906L68.057 8.89152ZM86.0048 9.33429L87.0048 9.33267L87.0032 8.32067L85.9913 8.33438L86.0048 9.33429ZM86.0286 31.3145H85.0286V31.9569L85.6128 32.224L86.0286 31.3145ZM87.6968 32.1052L87.2649 33.0071L87.2702 33.0096L87.6968 32.1052ZM89.373 32.8958L88.9464 33.8003L90.373 34.4732V32.8958H89.373ZM89.373 9.31057L89.367 8.31059L88.373 8.31661V9.31057H89.373ZM97.248 9.17616V8.17616H97.2375L97.2271 8.17638L97.248 9.17616ZM97.3349 9.17616V10.1762H97.3466L97.3582 10.1759L97.3349 9.17616ZM133.136 7.56322L133.192 8.56164L133.136 6.56322V7.56322ZM27.5991 45.6728L28.2796 44.94L26.5991 43.3796V45.6728H27.5991ZM35.0313 49.4442L35.3646 48.5014L35.3541 48.4977L35.3436 48.4943L35.0313 49.4442ZM43.6811 51.2707L43.5629 52.2637L45.1751 52.4555L44.621 50.9294L43.6811 51.2707ZM38.692 35.6394L39.663 35.4002L39.6625 35.3984L38.692 35.6394ZM35.5294 16.6795L36.5224 16.5613L36.421 15.7094L35.5636 15.6801L35.5294 16.6795ZM29.2911 17.3041L29.5319 18.2747L29.5409 18.2725L29.5498 18.2701L29.2911 17.3041ZM21.5427 23.3368L22.4159 23.8242L22.4529 23.7578L22.4795 23.6867L21.5427 23.3368ZM21.8273 37.6714L22.7673 37.3301L22.7642 37.3216L21.8273 37.6714ZM27.5991 45.6807L27.0248 46.4993L28.5991 47.604V45.6807H27.5991ZM91.5157 74.1918L91.449 73.194L91.0742 73.219L90.8086 73.4847L91.5157 74.1918ZM95.4611 71.0924L94.5662 70.646L94.5517 70.6751L94.5391 70.7051L95.4611 71.0924ZM106.53 48.3373L105.619 47.9253L105.611 47.9422L105.604 47.9594L106.53 48.3373ZM106.894 44.8743L107.871 44.6605L107.866 44.6405L107.861 44.6207L106.894 44.8743ZM103.81 41.6168L103.374 42.5164L103.386 42.5221L103.398 42.5276L103.81 41.6168ZM88.5824 34.2241L89.0191 33.3245L88.1204 32.8883L87.6832 33.7865L88.5824 34.2241ZM87.2778 36.9044L88.1766 37.3429L88.1769 37.3421L87.2778 36.9044ZM85.8546 39.822L84.9558 39.3835L84.6488 40.013L85.1353 40.5167L85.8546 39.822ZM86.8667 42.5181L85.8679 42.4683L85.8333 43.1626L86.472 43.4369L86.8667 42.5181ZM92.7412 45.5779L92.1972 46.417L92.2356 46.4419L92.2762 46.4632L92.7412 45.5779ZM95.2713 48.9382L94.2941 49.1505L94.2999 49.177L94.3071 49.2031L95.2713 48.9382ZM94.7495 53.1999L95.5816 53.7544L95.6139 53.7059L95.6404 53.654L94.7495 53.1999ZM94.7337 53.2236L93.9015 52.669L93.8495 52.7471L93.8129 52.8336L94.7337 53.2236ZM92.0217 59.3433L92.89 59.8394L92.9075 59.8086L92.9229 59.7768L92.0217 59.3433ZM91.9901 59.3986L91.1218 58.9025L91.105 58.932L91.0902 58.9626L91.9901 59.3986ZM90.8911 61.6124L90.0026 61.1535L89.6855 61.7676L90.1477 62.2813L90.8911 61.6124ZM88.361 60.4264L88.3225 61.4257L88.9738 61.4508L89.2597 60.8651L88.361 60.4264ZM92.0613 52.259L91.1328 51.8876L91.1163 51.9287L91.1036 51.9712L92.0613 52.259ZM92.4408 49.2545L93.3867 48.9302L93.3584 48.8474L93.316 48.7708L92.4408 49.2545ZM90.9385 47.7681L90.4338 48.6313L90.4488 48.6401L90.4641 48.6484L90.9385 47.7681ZM85.5779 45.0798L85.9678 44.159L85.3838 43.9117L84.9111 44.3346L85.5779 45.0798ZM84.1547 45.7914L83.9478 44.8131L83.9206 44.8188L83.8938 44.8261L84.1547 45.7914ZM82.9055 45.9021L82.9926 44.9059L82.3086 44.8461L82.0071 45.463L82.9055 45.9021ZM78.0746 55.7853L77.1761 55.3462L76.8662 55.9802L77.3598 56.4847L78.0746 55.7853ZM78.4383 60.4264L79.2471 61.0145L79.2533 61.0059L78.4383 60.4264ZM73.8683 61.5176L73.4014 62.402L73.4123 62.4076L73.8683 61.5176ZM72.034 57.4852L71.0629 57.2462L71.0606 57.256L72.034 57.4852ZM75.5128 54.7179L75.5273 55.7178L76.1418 55.7089L76.4114 55.1567L75.5128 54.7179ZM80.4703 44.5659L81.3688 45.0047L81.648 44.4329L81.2484 43.9378L80.4703 44.5659ZM81.3821 39.2229L80.8564 38.3723L81.3821 39.2229ZM83.3245 38.6834L83.3127 39.6834L83.9426 39.6908L84.2213 39.1258L83.3245 38.6834ZM84.7872 35.7185L85.684 36.1609L85.6853 36.1583L84.7872 35.7185ZM86.1076 33.0223L87.0057 33.4622L87.4471 32.5609L86.5442 32.1227L86.1076 33.0223ZM81.5297 30.8006L81.0839 31.6958L81.0931 31.7002L81.5297 30.8006ZM77.9085 30.2313L78.13 31.2065L78.1433 31.2034L78.1566 31.2001L77.9085 30.2313ZM77.0072 30.5397L77.4133 31.4535L77.4214 31.4499L77.4294 31.4462L77.0072 30.5397ZM74.5562 33.1488L73.6588 32.7075L73.6565 32.7121L74.5562 33.1488ZM63.6135 55.6904L64.5121 56.1291L64.5131 56.1271L63.6135 55.6904ZM63.0758 59.3274L64.0582 59.1403L64.0509 59.1024L64.0408 59.0651L63.0758 59.3274ZM65.6455 62.4663L65.1817 63.3523L65.1945 63.359L65.2075 63.3653L65.6455 62.4663ZM88.3689 73.5355L87.931 74.4345L87.9637 74.4505L87.9975 74.464L88.3689 73.5355ZM89.4363 73.9625L89.0649 74.8909L89.0849 74.8989L89.1052 74.9061L89.4363 73.9625ZM91.5078 74.1997L91.5752 75.1974L91.9496 75.1721L92.2149 74.9068L91.5078 74.1997ZM133.128 7.56322C133.149 8.56299 133.149 8.563 133.149 8.56301C133.148 8.56301 133.148 8.56302 133.148 8.56302C133.147 8.56303 133.147 8.56304 133.147 8.56305C133.146 8.56306 133.145 8.56308 133.144 8.56309C133.143 8.56311 133.141 8.56313 133.14 8.56314C133.138 8.56315 133.137 8.56315 133.137 8.56315C133.137 8.56315 133.14 8.56316 133.147 8.56336C133.16 8.56376 133.186 8.56493 133.222 8.56828C133.296 8.57504 133.406 8.59024 133.536 8.62363C133.8 8.6915 134.105 8.8241 134.358 9.0768L135.772 7.66258C135.195 7.08509 134.531 6.81446 134.034 6.68664C133.784 6.62219 133.566 6.59143 133.406 6.5767C133.325 6.56929 133.258 6.56583 133.208 6.56429C133.182 6.56352 133.161 6.56322 133.144 6.56316C133.136 6.56313 133.128 6.56316 133.122 6.56322C133.119 6.56325 133.116 6.56329 133.113 6.56333C133.112 6.56335 133.111 6.56337 133.11 6.56339C133.109 6.5634 133.109 6.56341 133.108 6.56342C133.108 6.56342 133.107 6.56343 133.107 6.56343C133.107 6.56344 133.106 6.56345 133.128 7.56322ZM134.358 9.07681L134.437 9.15588L135.851 7.74163L135.772 7.66257L134.358 9.07681ZM134.46 9.17829C134.634 9.34093 135.04 9.70137 135.446 10.7674C135.867 11.8734 136.293 13.7591 136.398 16.9729L138.397 16.9079C138.288 13.5593 137.841 11.4363 137.315 10.0557C136.774 8.63514 136.161 8.03098 135.828 7.71922L134.46 9.17829ZM136.397 16.9404C136.397 28.2676 133.652 39.7836 130.89 48.4956C129.511 52.8456 128.131 56.4829 127.098 59.0309C126.581 60.3046 126.151 61.3054 125.851 61.9862C125.701 62.3265 125.583 62.5868 125.504 62.7612C125.464 62.8483 125.434 62.914 125.414 62.9574C125.403 62.9791 125.396 62.9953 125.391 63.0058C125.389 63.0111 125.387 63.0149 125.386 63.0173C125.385 63.0185 125.385 63.0194 125.384 63.0199C125.384 63.0201 125.384 63.0202 125.384 63.0204C125.384 63.0204 125.384 63.0203 126.289 63.4468C127.193 63.8732 127.193 63.873 127.194 63.8726C127.194 63.8724 127.194 63.8719 127.194 63.8715C127.195 63.8705 127.195 63.8692 127.196 63.8676C127.197 63.8643 127.2 63.8595 127.203 63.8534C127.208 63.841 127.217 63.8231 127.228 63.7995C127.25 63.7524 127.282 63.6829 127.323 63.5919C127.406 63.4099 127.527 63.1416 127.681 62.7929C127.989 62.0955 128.426 61.0763 128.951 59.7826C130 57.1958 131.398 53.5087 132.796 49.1001C135.588 40.2952 138.397 28.558 138.397 16.9404H136.397ZM125.375 63.0395C124.531 64.9335 123.598 66.7867 122.579 68.5929L124.321 69.5754C125.371 67.7145 126.332 65.8052 127.202 63.854L125.375 63.0395ZM122.582 68.5882C120.791 71.724 119.259 73.9699 118.181 75.425C117.643 76.1525 117.217 76.6824 116.93 77.0271C116.786 77.1994 116.677 77.3254 116.605 77.4067C116.569 77.4473 116.542 77.4767 116.526 77.4951C116.517 77.5044 116.511 77.5108 116.508 77.5146C116.506 77.5164 116.505 77.5176 116.505 77.5181C116.504 77.5184 116.504 77.5185 116.504 77.5184C116.504 77.5183 116.505 77.5183 116.505 77.5181C116.505 77.5181 116.505 77.5179 116.505 77.5179C116.505 77.5178 116.505 77.5176 117.236 78.2004C117.966 78.8832 117.967 78.883 117.967 78.8828C117.967 78.8827 117.967 78.8825 117.967 78.8824C117.967 78.8821 117.968 78.8818 117.968 78.8814C117.969 78.8806 117.97 78.8797 117.971 78.8786C117.973 78.8764 117.975 78.8735 117.979 78.8699C117.985 78.8628 117.994 78.8529 118.006 78.8402C118.029 78.8149 118.062 78.7785 118.104 78.7309C118.188 78.6356 118.309 78.4952 118.465 78.3083C118.777 77.9344 119.227 77.3742 119.789 76.6154C120.913 75.0976 122.488 72.7854 124.319 69.58L122.582 68.5882ZM117.236 78.2004C116.47 77.5576 116.47 77.5575 116.47 77.5575C116.47 77.5574 116.47 77.5574 116.47 77.5574C116.47 77.5573 116.47 77.5573 116.47 77.5574C116.47 77.5574 116.47 77.5577 116.469 77.5582C116.468 77.5591 116.467 77.5607 116.465 77.563C116.461 77.5676 116.455 77.5749 116.446 77.5849C116.429 77.605 116.403 77.6356 116.368 77.6757C116.298 77.756 116.194 77.8744 116.059 78.0224C115.789 78.3188 115.4 78.7326 114.926 79.1982C113.968 80.1375 112.697 81.253 111.381 82.0492L112.416 83.7604C113.923 82.8488 115.321 81.6121 116.326 80.6261C116.833 80.1291 117.248 79.687 117.539 79.3682C117.684 79.2086 117.798 79.0795 117.876 78.9892C117.916 78.9441 117.946 78.9087 117.967 78.884C117.978 78.8716 117.986 78.862 117.992 78.8551C117.995 78.8517 117.997 78.849 117.999 78.847C117.999 78.846 118 78.8452 118.001 78.8445C118.001 78.8442 118.001 78.8439 118.001 78.8437C118.001 78.8436 118.002 78.8435 118.002 78.8434C118.002 78.8433 118.002 78.8432 117.236 78.2004ZM111.361 82.062C109.816 83.0481 108.493 83.5275 107.575 83.7611C107.116 83.8781 106.757 83.9338 106.522 83.9602C106.405 83.9735 106.318 83.9794 106.266 83.9821C106.239 83.9834 106.221 83.9839 106.213 83.9841C106.208 83.9842 106.206 83.9842 106.206 83.9842C106.206 83.9842 106.206 83.9842 106.208 83.9842C106.208 83.9842 106.209 83.9842 106.21 83.9842C106.21 83.9842 106.211 83.9842 106.211 83.9842C106.211 83.9842 106.212 83.9842 106.212 83.9842C106.212 83.9842 106.213 83.9842 106.206 84.9842C106.2 85.9842 106.2 85.9842 106.2 85.9842C106.201 85.9842 106.201 85.9842 106.201 85.9842C106.202 85.9842 106.203 85.9842 106.203 85.9842C106.205 85.9842 106.206 85.9842 106.208 85.9842C106.212 85.9842 106.216 85.9842 106.22 85.9842C106.23 85.9841 106.241 85.9839 106.255 85.9836C106.283 85.983 106.321 85.9818 106.367 85.9795C106.459 85.9749 106.586 85.9657 106.746 85.9476C107.066 85.9116 107.515 85.8403 108.069 85.6993C109.177 85.417 110.7 84.8567 112.437 83.7476L111.361 82.062ZM106.206 83.9842L68.191 84L68.1918 86L106.207 85.9842L106.206 83.9842ZM68.3146 84.0077C66.0847 83.7307 63.7169 82.4207 61.231 80.2681C58.7565 78.1253 56.2532 75.2251 53.7529 71.9202L52.158 73.1268C54.6941 76.4792 57.2945 79.505 59.9218 81.78C62.5376 84.0451 65.2694 85.6448 68.0681 85.9924L68.3146 84.0077ZM53.7769 71.9532C51.9541 69.3276 50.4375 66.5782 49.3745 64.4785C48.8438 63.4304 48.4282 62.5481 48.1458 61.9293C48.0047 61.6199 47.8969 61.3767 47.8249 61.2118C47.7889 61.1293 47.7618 61.0664 47.7439 61.0247C47.735 61.0038 47.7284 60.9882 47.7241 60.9781C47.7219 60.9731 47.7204 60.9694 47.7194 60.9671C47.7189 60.9659 47.7186 60.9651 47.7184 60.9647C47.7183 60.9645 47.7182 60.9643 47.7182 60.9643C47.7182 60.9643 47.7182 60.9643 47.7182 60.9643C47.7182 60.9643 47.7183 60.9644 46.7962 61.3515C45.8742 61.7386 45.8743 61.7387 45.8743 61.7389C45.8743 61.739 45.8744 61.7391 45.8745 61.7393C45.8746 61.7396 45.8748 61.74 45.875 61.7405C45.8754 61.7414 45.8759 61.7427 45.8766 61.7444C45.8781 61.7478 45.8801 61.7525 45.8826 61.7586C45.8878 61.7708 45.8954 61.7886 45.9052 61.8116C45.925 61.8578 45.954 61.9251 45.9921 62.0123C46.0682 62.1865 46.1803 62.4397 46.3263 62.7595C46.6181 63.3991 47.0455 64.3062 47.5901 65.3819C48.6777 67.53 50.2407 70.3666 52.134 73.0938L53.7769 71.9532ZM46.7962 61.3515C46.7827 60.3516 46.7829 60.3516 46.783 60.3516C46.783 60.3516 46.783 60.3516 46.7829 60.3516C46.7827 60.3516 46.7822 60.3516 46.7813 60.3516C46.7797 60.3516 46.7768 60.3517 46.7728 60.3517C46.7648 60.3518 46.752 60.3519 46.7347 60.3519C46.7 60.3521 46.6469 60.3522 46.5765 60.3518C46.4354 60.351 46.2247 60.3485 45.9517 60.3414C45.4056 60.327 44.6109 60.2942 43.6267 60.2199C41.6567 60.0713 38.9365 59.7575 35.9369 59.0979C29.9014 57.7708 22.9066 55.0812 18.5145 49.6976L16.9648 50.9619C21.7839 56.8689 29.3174 59.6902 35.5074 61.0513C38.6205 61.7358 41.4373 62.0605 43.4762 62.2143C44.4965 62.2912 45.3242 62.3256 45.8993 62.3407C46.1869 62.3482 46.4116 62.3509 46.5658 62.3518C46.6429 62.3522 46.7024 62.3521 46.7434 62.3519C46.7639 62.3518 46.7797 62.3517 46.7908 62.3516C46.7964 62.3516 46.8007 62.3515 46.8039 62.3515C46.8055 62.3515 46.8068 62.3515 46.8078 62.3514C46.8082 62.3514 46.8087 62.3514 46.809 62.3514C46.8094 62.3514 46.8098 62.3514 46.7962 61.3515ZM18.4917 49.6707C13.7026 44.2061 12.6907 37.906 12.3567 35.5915L10.3772 35.8771C10.7232 38.2749 11.7986 45.068 16.9876 50.9889L18.4917 49.6707ZM12.367 35.7343C12.367 35.5563 12.3255 35.3608 12.3192 35.3261L10.3515 35.6839C10.3536 35.6957 10.3558 35.7076 10.3576 35.7176C10.3596 35.7281 10.3612 35.737 10.3627 35.7454C10.3658 35.7626 10.3676 35.7733 10.3687 35.7806C10.3698 35.7879 10.3696 35.7874 10.369 35.7814C10.3685 35.7758 10.367 35.759 10.367 35.7343H12.367ZM12.3236 35.3525C12.1294 34.0937 11.5851 30.5071 12.1448 26.2961C12.7039 22.0897 14.3542 17.3314 18.4924 13.6383L17.1608 12.1461C12.5544 16.2569 10.7614 21.5241 10.1622 26.0326C9.56358 30.5366 10.146 34.3546 10.347 35.6575L12.3236 35.3525ZM18.5189 13.6139C22.393 9.89714 27.1438 8.81928 28.8615 8.46336L28.4557 6.50496C26.6629 6.87643 21.4356 8.04404 17.1343 12.1706L18.5189 13.6139ZM28.8719 8.46114C31.6551 7.85348 33.8717 8.00795 35.7306 8.13398L35.8659 6.13856C33.9929 6.01158 31.5287 5.83397 28.4453 6.50717L28.8719 8.46114ZM35.7317 8.13405L36.4433 8.18149L36.5763 6.18592L35.8647 6.13848L35.7317 8.13405ZM36.4207 8.17972C37.9905 8.32025 45.9059 8.74849 53.3904 9.14002C57.1412 9.33623 60.7952 9.52379 63.5115 9.66229C64.8697 9.73155 65.9935 9.78854 66.7777 9.82821C67.1698 9.84805 67.4771 9.86356 67.6863 9.87411C67.7909 9.87939 67.871 9.88343 67.9249 9.88614C67.9519 9.8875 67.9724 9.88853 67.9861 9.88922C67.9929 9.88956 67.9981 9.88982 68.0015 9.89C68.0033 9.89009 68.0046 9.89015 68.0054 9.89019C68.0059 9.89022 68.0062 9.89023 68.0064 9.89024C68.0066 9.89025 68.0067 9.89026 68.057 8.89152C68.1072 7.89278 68.1071 7.89278 68.1069 7.89277C68.1067 7.89276 68.1063 7.89274 68.1059 7.89272C68.105 7.89268 68.1037 7.89261 68.102 7.89252C68.0986 7.89235 68.0934 7.89209 68.0866 7.89175C68.0729 7.89106 68.0525 7.89003 68.0255 7.88867C67.9716 7.88596 67.8916 7.88193 67.787 7.87665C67.5779 7.86611 67.2708 7.8506 66.8787 7.83077C66.0947 7.7911 64.9712 7.73413 63.6134 7.66489C60.8976 7.52641 57.2445 7.3389 53.4949 7.14275C45.9787 6.74956 38.1206 6.32389 36.599 6.18769L36.4207 8.17972ZM68.057 8.89152C68.0139 9.8906 68.014 9.8906 68.0141 9.8906C68.0142 9.89061 68.0143 9.89061 68.0145 9.89062C68.0149 9.89064 68.0155 9.89066 68.0162 9.8907C68.0177 9.89076 68.02 9.89086 68.0229 9.89098C68.0289 9.89124 68.0377 9.89161 68.0493 9.89211C68.0725 9.8931 68.107 9.89457 68.1523 9.89648C68.2427 9.90029 68.376 9.90587 68.5477 9.91294C68.891 9.92709 69.3877 9.94719 70.0019 9.97107C71.2303 10.0188 72.9291 10.0817 74.8107 10.142C78.5671 10.2626 83.0752 10.3741 86.0184 10.3342L85.9913 8.33438C83.0994 8.37357 78.6336 8.26368 74.8748 8.14307C72.9989 8.08287 71.3047 8.0202 70.0796 7.97258C69.4671 7.94877 68.9719 7.92872 68.63 7.91464C68.459 7.9076 68.3264 7.90204 68.2366 7.89825C68.1917 7.89636 68.1574 7.8949 68.1345 7.89393C68.123 7.89344 68.1144 7.89307 68.1086 7.89282C68.1057 7.89269 68.1035 7.8926 68.1021 7.89254C68.1014 7.89251 68.1009 7.89249 68.1005 7.89247C68.1003 7.89246 68.1002 7.89246 68.1001 7.89245C68.1 7.89245 68.1 7.89245 68.057 8.89152ZM86.0048 9.33429C85.0048 9.33591 85.0048 9.33596 85.0048 9.33608C85.0048 9.33619 85.0048 9.33635 85.0048 9.33658C85.0049 9.33702 85.0049 9.33769 85.0049 9.33858C85.0049 9.34035 85.0049 9.34302 85.0049 9.34655C85.0049 9.35362 85.0049 9.36418 85.0049 9.37815C85.005 9.40609 85.005 9.44766 85.0051 9.50221C85.0053 9.61129 85.0055 9.77224 85.0059 9.9797C85.0065 10.3946 85.0074 10.9955 85.0086 11.7395C85.0108 13.2275 85.0137 15.2878 85.0167 17.5772C85.0226 22.1561 85.0286 27.6505 85.0286 31.3145H87.0286C87.0286 27.6491 87.0226 22.1535 87.0167 17.5746C87.0137 15.2851 87.0108 13.2246 87.0086 11.7365C87.0074 10.9925 87.0065 10.3915 87.0059 9.97657C87.0055 9.7691 87.0053 9.60813 87.0051 9.49902C87.005 9.44447 87.005 9.40288 87.0049 9.37494C87.0049 9.36096 87.0049 9.3504 87.0049 9.34332C87.0049 9.33979 87.0049 9.33712 87.0049 9.33535C87.0048 9.33446 87.0048 9.33379 87.0048 9.33334C87.0048 9.33312 87.0048 9.33295 87.0048 9.33284C87.0048 9.33273 87.0048 9.33267 86.0048 9.33429ZM85.6128 32.224C86.1556 32.4721 86.6966 32.7349 87.2649 33.0071L88.1287 31.2032C87.5744 30.9378 87.0084 30.6629 86.4443 30.405L85.6128 32.224ZM87.2702 33.0096L88.9464 33.8003L89.7997 31.9914L88.1235 31.2007L87.2702 33.0096ZM90.373 32.8958V9.31057H88.373V32.8958H90.373ZM89.3791 10.3106C91.9978 10.2947 94.6249 10.2312 97.2689 10.1759L97.2271 8.17638C94.5736 8.23182 91.9666 8.29483 89.367 8.31059L89.3791 10.3106ZM97.248 10.1762H97.3349V8.17616H97.248V10.1762ZM97.3582 10.1759C103.481 10.0332 112.443 9.62938 119.866 9.26173C123.579 9.07782 126.91 8.90281 129.313 8.77378C130.515 8.70926 131.484 8.65624 132.154 8.61934C132.488 8.60089 132.748 8.58647 132.924 8.57666C133.012 8.57175 133.079 8.568 133.124 8.56547C133.146 8.56421 133.163 8.56325 133.175 8.56261C133.18 8.56229 133.185 8.56205 133.188 8.56189C133.189 8.5618 133.19 8.56174 133.191 8.5617C133.191 8.56168 133.192 8.56167 133.192 8.56166C133.192 8.56164 133.192 8.56164 133.136 7.56322C133.08 6.5648 133.08 6.56481 133.079 6.56482C133.079 6.56483 133.079 6.56484 133.079 6.56486C133.078 6.5649 133.077 6.56496 133.075 6.56504C133.073 6.5652 133.068 6.56544 133.063 6.56576C133.051 6.5664 133.034 6.56735 133.012 6.56861C132.967 6.57112 132.9 6.57487 132.812 6.57976C132.637 6.58955 132.378 6.60394 132.043 6.62237C131.375 6.65922 130.407 6.7122 129.206 6.77665C126.805 6.90558 123.477 7.08043 119.767 7.26418C112.343 7.63183 103.405 8.03445 97.3116 8.17643L97.3582 10.1759ZM133.136 6.56322H133.128V8.56322H133.136V6.56322ZM27.5991 45.6728C26.9187 46.4056 26.919 46.4059 26.9192 46.4061C26.9193 46.4062 26.9196 46.4065 26.9199 46.4067C26.9203 46.4071 26.9208 46.4075 26.9213 46.408C26.9223 46.4089 26.9234 46.41 26.9247 46.4111C26.9272 46.4135 26.9303 46.4163 26.934 46.4196C26.9413 46.4263 26.9508 46.4348 26.9626 46.4452C26.9861 46.466 27.0186 46.4943 27.0603 46.5294C27.1436 46.5996 27.2636 46.6971 27.4218 46.8172C27.7382 47.0575 28.2072 47.388 28.8413 47.7711C30.1098 48.5374 32.0364 49.5122 34.7189 50.3942L35.3436 48.4943C32.8079 47.6605 31.0183 46.7496 29.8754 46.0592C29.3037 45.7138 28.8931 45.4232 28.6314 45.2244C28.5004 45.125 28.4067 45.0485 28.3486 44.9996C28.3195 44.9751 28.2994 44.9575 28.2879 44.9474C28.2822 44.9424 28.2787 44.9392 28.2773 44.9379C28.2766 44.9373 28.2764 44.9371 28.2768 44.9375C28.277 44.9377 28.2773 44.938 28.2778 44.9384C28.278 44.9386 28.2783 44.9388 28.2786 44.9391C28.2787 44.9392 28.279 44.9395 28.2791 44.9395C28.2793 44.9398 28.2796 44.94 27.5991 45.6728ZM34.698 50.3871C36.4782 51.0164 38.7067 51.4842 40.4574 51.7929C41.3395 51.9485 42.1134 52.0658 42.6672 52.1444C42.9443 52.1837 43.1667 52.2133 43.3206 52.2332C43.3975 52.2432 43.4573 52.2507 43.4983 52.2558C43.5188 52.2583 43.5345 52.2602 43.5454 52.2615C43.5508 52.2622 43.555 52.2627 43.5579 52.2631C43.5594 52.2632 43.5605 52.2634 43.5614 52.2635C43.5618 52.2635 43.5621 52.2636 43.5624 52.2636C43.5625 52.2636 43.5626 52.2636 43.5627 52.2636C43.5628 52.2636 43.5629 52.2637 43.6811 51.2707C43.7992 50.2777 43.7992 50.2777 43.7993 50.2777C43.7993 50.2777 43.7993 50.2777 43.7992 50.2777C43.7992 50.2777 43.799 50.2776 43.7988 50.2776C43.7984 50.2776 43.7976 50.2775 43.7966 50.2773C43.7944 50.2771 43.791 50.2767 43.7864 50.2761C43.7772 50.275 43.7631 50.2733 43.7443 50.2709C43.7067 50.2663 43.6504 50.2592 43.5771 50.2497C43.4306 50.2308 43.2163 50.2022 42.948 50.1642C42.4113 50.0881 41.6601 49.9742 40.8048 49.8233C39.0806 49.5193 36.9842 49.0739 35.3646 48.5014L34.698 50.3871ZM43.6811 51.2707C44.621 50.9294 44.621 50.9294 44.621 50.9294C44.621 50.9293 44.621 50.9292 44.6209 50.9291C44.6208 50.9288 44.6207 50.9284 44.6205 50.9279C44.6201 50.9267 44.6194 50.9251 44.6186 50.9228C44.617 50.9182 44.6145 50.9113 44.6112 50.9022C44.6045 50.8839 44.5946 50.8564 44.5816 50.8203C44.5555 50.7481 44.517 50.6411 44.4674 50.5027C44.3683 50.2259 44.2248 49.8235 44.0481 49.322C43.6947 48.319 43.2083 46.9205 42.677 45.3395C41.6115 42.1686 40.3758 38.2943 39.663 35.4002L37.721 35.8785C38.4551 38.859 39.7139 42.8004 40.7812 45.9765C41.3163 47.5689 41.8059 48.9768 42.1618 49.9868C42.3398 50.4918 42.4844 50.8975 42.5846 51.1772C42.6347 51.3171 42.6737 51.4254 42.7003 51.499C42.7135 51.5358 42.7237 51.5639 42.7305 51.5828C42.734 51.5923 42.7366 51.5995 42.7383 51.6044C42.7392 51.6068 42.7399 51.6086 42.7404 51.6099C42.7406 51.6105 42.7408 51.611 42.7409 51.6114C42.7409 51.6115 42.741 51.6117 42.741 51.6117C42.7411 51.6118 42.7411 51.6119 43.6811 51.2707ZM39.6625 35.3984C38.8052 31.9456 38.0202 27.2461 37.4476 23.3858C37.162 21.4606 36.9306 19.7533 36.7705 18.5274C36.6905 17.9146 36.6284 17.4223 36.5863 17.0835C36.5653 16.9142 36.5492 16.7832 36.5385 16.6948C36.5331 16.6506 36.5291 16.617 36.5264 16.5946C36.525 16.5834 36.524 16.5749 36.5234 16.5694C36.523 16.5666 36.5228 16.5645 36.5226 16.5632C36.5225 16.5625 36.5225 16.562 36.5224 16.5617C36.5224 16.5615 36.5224 16.5614 36.5224 16.5613C36.5224 16.5613 36.5224 16.5613 35.5294 16.6795C34.5364 16.7977 34.5364 16.7978 34.5364 16.7979C34.5364 16.798 34.5365 16.7982 34.5365 16.7984C34.5365 16.7988 34.5366 16.7994 34.5367 16.8002C34.5369 16.8017 34.5372 16.804 34.5375 16.807C34.5382 16.8129 34.5393 16.8218 34.5407 16.8334C34.5435 16.8566 34.5476 16.891 34.5531 16.9361C34.5641 17.0262 34.5803 17.1589 34.6016 17.3301C34.6441 17.6725 34.7068 18.169 34.7874 18.7863C34.9485 20.0208 35.1816 21.74 35.4692 23.6792C36.0431 27.5476 36.8394 32.328 37.7215 35.8804L39.6625 35.3984ZM35.5294 16.6795C35.5636 15.6801 35.5635 15.6801 35.5633 15.6801C35.5633 15.6801 35.5631 15.68 35.563 15.68C35.5627 15.68 35.5624 15.68 35.562 15.68C35.5613 15.68 35.5604 15.68 35.5592 15.6799C35.5569 15.6798 35.5537 15.6797 35.5498 15.6796C35.5418 15.6794 35.5306 15.6791 35.5162 15.6787C35.4874 15.6779 35.4461 15.6769 35.3931 15.676C35.2871 15.6741 35.1345 15.6723 34.9436 15.6726C34.562 15.6731 34.0252 15.6818 33.3989 15.7144C32.1571 15.7792 30.518 15.9403 29.0324 16.3381L29.5498 18.2701C30.8394 17.9247 32.3194 17.7735 33.5031 17.7117C34.0894 17.6811 34.5918 17.673 34.9463 17.6726C35.1233 17.6723 35.263 17.674 35.3573 17.6757C35.4044 17.6765 35.4401 17.6774 35.4634 17.678C35.4751 17.6783 35.4837 17.6785 35.489 17.6787C35.4917 17.6788 35.4935 17.6788 35.4946 17.6789C35.4951 17.6789 35.4954 17.6789 35.4955 17.6789C35.4955 17.6789 35.4955 17.6789 35.4955 17.6789C35.4955 17.6789 35.4954 17.6789 35.4954 17.6789C35.4953 17.6789 35.4952 17.6789 35.5294 16.6795ZM29.0504 16.3335C25.8015 17.1394 23.6954 18.7682 22.4001 20.2174C21.7553 20.9389 21.3141 21.6127 21.0311 22.1135C20.8895 22.3641 20.787 22.5723 20.7181 22.7227C20.6836 22.7979 20.6575 22.8588 20.6391 22.9035C20.6298 22.9258 20.6225 22.9441 20.617 22.958C20.6143 22.965 20.612 22.971 20.6101 22.9758C20.6092 22.9782 20.6084 22.9803 20.6077 22.9822C20.6073 22.9831 20.607 22.984 20.6067 22.9848C20.6066 22.9852 20.6064 22.9857 20.6063 22.9859C20.6061 22.9864 20.6059 22.9869 21.5427 23.3368C22.4795 23.6867 22.4793 23.6871 22.4792 23.6876C22.4791 23.6877 22.4789 23.6882 22.4788 23.6884C22.4787 23.6889 22.4785 23.6894 22.4783 23.6898C22.4781 23.6905 22.4779 23.691 22.4778 23.6912C22.4776 23.6917 22.4778 23.6911 22.4785 23.6895C22.4797 23.6862 22.4827 23.6789 22.4873 23.6676C22.4966 23.6452 22.5127 23.6073 22.5364 23.5557C22.5837 23.4524 22.6607 23.295 22.7723 23.0974C22.9959 22.7018 23.3561 22.1491 23.8914 21.5502C24.9563 20.3586 26.7243 18.9711 29.5319 18.2747L29.0504 16.3335ZM21.5427 23.3368C20.6695 22.8494 20.6692 22.8499 20.6689 22.8505C20.6688 22.8507 20.6685 22.8513 20.6683 22.8517C20.6678 22.8525 20.6673 22.8534 20.6667 22.8544C20.6656 22.8564 20.6644 22.8587 20.6629 22.8614C20.66 22.8668 20.6564 22.8735 20.6521 22.8815C20.6435 22.8976 20.6322 22.919 20.6186 22.9457C20.5913 22.9992 20.5545 23.074 20.5105 23.1695C20.4225 23.3604 20.3057 23.6346 20.1789 23.9881C19.9253 24.6951 19.6317 25.72 19.4493 27.0307C19.0837 29.6582 19.169 33.4101 20.8905 38.0211L22.7642 37.3216C21.1649 33.0378 21.1079 29.6224 21.4302 27.3063C21.5918 26.1452 21.8496 25.2542 22.0615 24.6633C22.1675 24.3679 22.2619 24.1476 22.327 24.0064C22.3595 23.9357 22.3847 23.8849 22.4003 23.8544C22.408 23.8391 22.4134 23.8289 22.4161 23.8239C22.4175 23.8213 22.4182 23.8201 22.4181 23.8201C22.4181 23.8202 22.4179 23.8205 22.4176 23.8212C22.4174 23.8215 22.4171 23.8219 22.4169 23.8224C22.4167 23.8227 22.4165 23.8231 22.4164 23.8232C22.4162 23.8237 22.4159 23.8242 21.5427 23.3368ZM20.8874 38.0127C21.9059 40.8177 23.4276 42.9281 24.6927 44.3367C25.326 45.0419 25.8981 45.5747 26.3165 45.9346C26.5258 46.1146 26.6971 46.2517 26.8188 46.3458C26.8797 46.3928 26.9282 46.4292 26.963 46.4548C26.9804 46.4675 26.9944 46.4777 27.0047 46.4851C27.0099 46.4888 27.0142 46.4918 27.0175 46.4942C27.0192 46.4954 27.0206 46.4964 27.0218 46.4973C27.0224 46.4977 27.023 46.4981 27.0235 46.4984C27.0237 46.4986 27.024 46.4988 27.0242 46.4989C27.0245 46.4991 27.0248 46.4993 27.5991 45.6807C28.1735 44.8621 28.1738 44.8623 28.174 44.8625C28.1741 44.8625 28.1743 44.8627 28.1744 44.8628C28.1747 44.863 28.1749 44.8631 28.175 44.8632C28.1753 44.8634 28.1753 44.8634 28.1751 44.8633C28.1748 44.863 28.1735 44.8621 28.1713 44.8606C28.167 44.8575 28.1592 44.8518 28.148 44.8436C28.1255 44.827 28.0896 44.8003 28.0417 44.7632C27.9457 44.6891 27.8017 44.574 27.6207 44.4183C27.2583 44.1066 26.7491 43.6333 26.1807 43.0003C25.0422 41.7326 23.678 39.8382 22.7673 37.3301L20.8874 38.0127ZM28.5991 45.6807V45.6728H26.5991V45.6807H28.5991ZM91.5824 75.1895C93.3115 75.0739 94.5254 74.0883 95.2668 73.2257C95.6415 72.7896 95.9153 72.3633 96.0961 72.046C96.1869 71.8864 96.2557 71.7519 96.3031 71.6541C96.3268 71.6052 96.3452 71.5652 96.3585 71.5357C96.3652 71.521 96.3705 71.5088 96.3746 71.4994C96.3766 71.4947 96.3784 71.4907 96.3798 71.4874C96.3805 71.4857 96.3811 71.4843 96.3816 71.483C96.3819 71.4823 96.3822 71.4818 96.3824 71.4812C96.3825 71.4809 96.3827 71.4805 96.3827 71.4804C96.3829 71.48 96.383 71.4797 95.4611 71.0924C94.5391 70.7051 94.5393 70.7048 94.5394 70.7045C94.5394 70.7044 94.5396 70.704 94.5396 70.7039C94.5398 70.7035 94.5399 70.7032 94.5401 70.7029C94.5403 70.7023 94.5405 70.7019 94.5406 70.7016C94.5408 70.7011 94.5407 70.7013 94.5404 70.7021C94.5396 70.7038 94.5378 70.708 94.5348 70.7147C94.5288 70.728 94.5183 70.7509 94.5032 70.7821C94.4729 70.8446 94.4247 70.9394 94.3581 71.0562C94.2241 71.2916 94.0215 71.6061 93.7499 71.9221C93.1986 72.5636 92.4398 73.1277 91.449 73.194L91.5824 75.1895ZM95.4611 71.0924C96.3559 71.5387 96.356 71.5387 96.3561 71.5385C96.3561 71.5384 96.3562 71.5381 96.3564 71.5378C96.3567 71.5372 96.3572 71.5363 96.3577 71.5351C96.3589 71.5327 96.3607 71.5291 96.3631 71.5244C96.3678 71.5149 96.3749 71.5008 96.3842 71.4821C96.4028 71.4448 96.4304 71.3893 96.4665 71.3169C96.5387 71.1721 96.6447 70.9593 96.78 70.6874C97.0507 70.1436 97.4388 69.3634 97.9084 68.4174C98.8476 66.5257 100.113 63.9707 101.418 61.3187C104.017 56.0397 106.807 50.3067 107.456 48.7152L105.604 47.9594C104.989 49.4673 102.244 55.1118 99.6241 60.4355C98.3202 63.0848 97.0556 65.6376 96.1171 67.5281C95.6478 68.4733 95.26 69.2529 94.9896 69.7961C94.8544 70.0678 94.7485 70.2803 94.6765 70.4249C94.6404 70.4972 94.6129 70.5525 94.5943 70.5897C94.585 70.6083 94.578 70.6224 94.5733 70.6319C94.5709 70.6366 94.5692 70.6401 94.568 70.6425C94.5674 70.6437 94.567 70.6446 94.5667 70.6452C94.5665 70.6455 94.5664 70.6457 94.5663 70.6458C94.5663 70.646 94.5662 70.646 95.4611 71.0924ZM107.441 48.7493C108.021 47.4681 108.171 46.0342 107.871 44.6605L105.917 45.088C106.126 46.0412 106.021 47.0362 105.619 47.9253L107.441 48.7493ZM107.861 44.6207C107.504 43.2572 106.535 42.2737 105.762 41.6671C105.364 41.355 104.988 41.1191 104.71 40.9606C104.571 40.881 104.455 40.8198 104.371 40.7774C104.329 40.7562 104.295 40.7397 104.27 40.7277C104.257 40.7218 104.247 40.717 104.239 40.7133C104.235 40.7115 104.232 40.71 104.229 40.7087C104.228 40.7081 104.227 40.7076 104.226 40.7071C104.225 40.7069 104.225 40.7066 104.224 40.7064C104.224 40.7063 104.224 40.7062 104.224 40.7062C104.223 40.706 104.223 40.7059 103.81 41.6168C103.398 42.5276 103.397 42.5275 103.397 42.5274C103.397 42.5273 103.397 42.5272 103.397 42.5272C103.396 42.527 103.396 42.5269 103.396 42.5268C103.396 42.5266 103.395 42.5265 103.395 42.5264C103.395 42.5263 103.395 42.5265 103.396 42.5269C103.398 42.5277 103.402 42.5296 103.408 42.5326C103.42 42.5385 103.441 42.5486 103.47 42.5628C103.526 42.5914 103.612 42.6363 103.718 42.6971C103.933 42.8195 104.224 43.0022 104.527 43.2406C105.158 43.735 105.731 44.3802 105.927 45.1279L107.861 44.6207ZM104.247 40.7172L89.0191 33.3245L88.1457 35.1237L103.374 42.5164L104.247 40.7172ZM87.6832 33.7865L86.3786 36.4668L88.1769 37.3421L89.4815 34.6618L87.6832 33.7865ZM86.379 36.466L84.9558 39.3835L86.7534 40.2604L88.1766 37.3429L86.379 36.466ZM85.1353 40.5167C85.3844 40.7746 85.578 41.0808 85.704 41.4165L87.5764 40.7137C87.3542 40.1219 87.0131 39.5819 86.5739 39.1272L85.1353 40.5167ZM85.704 41.4165C85.83 41.7522 85.8858 42.1102 85.8679 42.4683L87.8654 42.5679C87.8969 41.9366 87.7985 41.3055 87.5764 40.7137L85.704 41.4165ZM86.8667 42.5181C86.472 43.4369 86.4719 43.4369 86.4719 43.4369C86.4719 43.4369 86.4719 43.4369 86.4719 43.4369C86.4719 43.4369 86.472 43.4369 86.4721 43.437C86.4724 43.4371 86.4728 43.4373 86.4735 43.4376C86.4748 43.4381 86.477 43.4391 86.4799 43.4403C86.4858 43.4429 86.4949 43.4468 86.5071 43.4521C86.5314 43.4627 86.5679 43.4786 86.6157 43.4996C86.7111 43.5417 86.8512 43.6039 87.0273 43.6837C87.3798 43.8433 87.8757 44.0728 88.4468 44.351C89.5957 44.9108 91.0221 45.6551 92.1972 46.417L93.2853 44.7389C92.0093 43.9116 90.4984 43.1259 89.3228 42.5531C88.7317 42.2651 88.2185 42.0275 87.8524 41.8618C87.6693 41.7789 87.5228 41.7138 87.4214 41.6692C87.3708 41.6468 87.3314 41.6296 87.3043 41.6179C87.2908 41.612 87.2804 41.6075 87.2732 41.6044C87.2696 41.6028 87.2668 41.6016 87.2648 41.6008C87.2638 41.6003 87.263 41.6 87.2625 41.5998C87.2622 41.5996 87.2619 41.5995 87.2617 41.5995C87.2617 41.5994 87.2616 41.5994 87.2615 41.5994C87.2614 41.5993 87.2613 41.5993 86.8667 42.5181ZM92.7412 45.5779C92.2762 46.4632 92.2759 46.4631 92.2755 46.4629C92.2754 46.4628 92.2751 46.4627 92.2749 46.4626C92.2745 46.4624 92.2742 46.4622 92.2738 46.462C92.2732 46.4616 92.2726 46.4613 92.2722 46.4611C92.2713 46.4607 92.2709 46.4604 92.271 46.4605C92.2711 46.4605 92.273 46.4616 92.2767 46.4636C92.2839 46.4677 92.2979 46.4756 92.3179 46.4875C92.3578 46.5113 92.4211 46.5505 92.5012 46.6054C92.6621 46.7157 92.8859 46.8857 93.123 47.1158C93.6008 47.5796 94.0993 48.2537 94.2941 49.1505L96.2485 48.7259C95.9453 47.3299 95.1787 46.3238 94.5159 45.6806C94.1828 45.3573 93.8674 45.1172 93.6318 44.9557C93.5136 44.8747 93.4142 44.8126 93.3411 44.7691C93.3046 44.7473 93.2744 44.7301 93.2517 44.7174C93.2403 44.711 93.2307 44.7058 93.2231 44.7017C93.2193 44.6996 93.216 44.6978 93.2132 44.6963C93.2118 44.6956 93.2105 44.6949 93.2094 44.6943C93.2088 44.694 93.2082 44.6937 93.2077 44.6934C93.2075 44.6933 93.2071 44.6931 93.207 44.693C93.2066 44.6928 93.2063 44.6926 92.7412 45.5779ZM94.3071 49.2031C94.7922 50.9689 94.0526 52.3651 93.8586 52.7457L95.6404 53.654C95.8575 53.2282 96.9365 51.2245 96.2356 48.6733L94.3071 49.2031ZM93.9173 52.6453L93.9015 52.669L95.5658 53.7781L95.5816 53.7544L93.9173 52.6453ZM94.7337 53.2236C93.8129 52.8336 93.8129 52.8336 93.8129 52.8336C93.8128 52.8336 93.8128 52.8337 93.8128 52.8337C93.8128 52.8338 93.8127 52.834 93.8126 52.8342C93.8124 52.8347 93.8121 52.8354 93.8117 52.8363C93.8109 52.8382 93.8097 52.8411 93.8081 52.8448C93.8049 52.8524 93.8001 52.8637 93.7938 52.8786C93.7811 52.9084 93.7624 52.9524 93.7382 53.0093C93.6898 53.1231 93.6194 53.2881 93.5318 53.4927C93.3566 53.902 93.1126 54.4693 92.8374 55.1015C92.285 56.3704 91.6136 57.8848 91.1206 58.9097L92.9229 59.7768C93.434 58.7144 94.1186 57.169 94.6711 55.8998C94.9484 55.263 95.1941 54.6918 95.3704 54.2798C95.4587 54.0738 95.5296 53.9074 95.5785 53.7925C95.6029 53.7351 95.6219 53.6904 95.6348 53.6601C95.6412 53.645 95.6461 53.6334 95.6494 53.6256C95.6511 53.6217 95.6523 53.6187 95.6532 53.6167C95.6536 53.6157 95.6539 53.6149 95.6542 53.6144C95.6543 53.6141 95.6543 53.6139 95.6544 53.6138C95.6544 53.6137 95.6545 53.6137 95.6545 53.6136C95.6545 53.6136 95.6545 53.6136 94.7337 53.2236ZM91.1535 58.8471L91.1218 58.9025L92.8584 59.8947L92.89 59.8394L91.1535 58.8471ZM91.0902 58.9626C90.7191 59.7284 90.368 60.4461 90.0026 61.1535L91.7796 62.0713C92.1574 61.3398 92.5179 60.6027 92.89 59.8346L91.0902 58.9626ZM90.1477 62.2813C90.5474 62.7255 90.7811 63.2942 90.8093 63.8911L92.8071 63.7967C92.7571 62.7389 92.3428 61.7308 91.6345 60.9436L90.1477 62.2813ZM90.8093 63.8911C90.8375 64.488 90.6585 65.0763 90.3025 65.5562L91.9088 66.7477C92.5397 65.8971 92.8571 64.8545 92.8071 63.7967L90.8093 63.8911ZM90.3025 65.5562C89.9465 66.0361 89.4355 66.3781 88.8561 66.5243L89.3453 68.4635C90.3722 68.2045 91.2778 67.5983 91.9088 66.7477L90.3025 65.5562ZM88.8561 66.5243C88.2767 66.6704 87.6646 66.6117 87.1235 66.3581L86.2747 68.169C87.2336 68.6185 88.3184 68.7226 89.3453 68.4635L88.8561 66.5243ZM87.1235 66.3581C86.5825 66.1045 86.1458 65.6716 85.8875 65.1328L84.084 65.9973C84.5418 66.9523 85.3158 67.7195 86.2747 68.169L87.1235 66.3581ZM85.8875 65.1328C85.6292 64.5939 85.5652 63.9824 85.7063 63.4017L83.7629 62.9293C83.5128 63.9584 83.6262 65.0423 84.084 65.9973L85.8875 65.1328ZM85.7063 63.4017C85.8475 62.8211 86.1851 62.3071 86.6619 61.947L85.4564 60.3511C84.6114 60.9894 84.0131 61.9003 83.7629 62.9293L85.7063 63.4017ZM86.6619 61.947C87.1387 61.5868 87.7254 61.4027 88.3225 61.4257L88.3995 59.4272C87.3413 59.3864 86.3015 59.7128 85.4564 60.3511L86.6619 61.947ZM88.361 60.4264C89.2597 60.8651 89.2597 60.865 89.2597 60.865C89.2598 60.8649 89.2598 60.8648 89.2598 60.8647C89.26 60.8645 89.2601 60.8642 89.2603 60.8638C89.2607 60.8629 89.2613 60.8617 89.2621 60.86C89.2637 60.8567 89.2661 60.8519 89.2692 60.8455C89.2755 60.8327 89.2847 60.8138 89.2967 60.7891C89.3207 60.7397 89.356 60.6672 89.4009 60.5745C89.4909 60.3891 89.6197 60.1228 89.7758 59.7985C90.0878 59.15 90.5089 58.269 90.9446 57.3394C91.7956 55.5239 92.763 53.3984 93.019 52.5468L91.1036 51.9712C90.9009 52.6455 90.0182 54.6037 89.1337 56.4905C88.7017 57.4121 88.2837 58.2867 87.9736 58.9313C87.8186 59.2535 87.6906 59.5179 87.6014 59.7017C87.5569 59.7935 87.522 59.8652 87.4984 59.9139C87.4865 59.9382 87.4775 59.9568 87.4714 59.9692C87.4684 59.9754 87.4661 59.9801 87.4646 59.9832C87.4638 59.9848 87.4632 59.986 87.4629 59.9867C87.4627 59.9871 87.4625 59.9874 87.4625 59.9876C87.4624 59.9877 87.4624 59.9877 87.4624 59.9878C87.4623 59.9878 87.4623 59.9878 88.361 60.4264ZM92.0613 52.259C92.9897 52.6304 92.9898 52.6302 92.9899 52.63C92.9899 52.6299 92.99 52.6297 92.99 52.6296C92.9902 52.6293 92.9903 52.629 92.9904 52.6287C92.9907 52.628 92.991 52.6272 92.9914 52.6262C92.9921 52.6244 92.993 52.6221 92.9941 52.6193C92.9963 52.6138 92.9992 52.6065 93.0027 52.5974C93.0097 52.5792 93.0192 52.554 93.0309 52.5225C93.0542 52.4596 93.086 52.371 93.1224 52.2621C93.1947 52.0456 93.2874 51.7427 93.3674 51.3981C93.5135 50.7691 93.6756 49.7726 93.3867 48.9302L91.4948 49.5788C91.5855 49.8433 91.5578 50.349 91.4193 50.9456C91.357 51.2137 91.2836 51.4543 91.2255 51.6282C91.1966 51.7146 91.1721 51.7829 91.1554 51.828C91.147 51.8506 91.1407 51.8673 91.1367 51.8774C91.1348 51.8825 91.1334 51.8859 91.1327 51.8877C91.1324 51.8885 91.1322 51.889 91.1322 51.889C91.1322 51.8889 91.1323 51.8888 91.1324 51.8886C91.1324 51.8885 91.1325 51.8883 91.1326 51.8882C91.1326 51.8881 91.1326 51.8879 91.1327 51.8879C91.1327 51.8877 91.1328 51.8876 92.0613 52.259ZM93.316 48.7708C92.8754 47.9735 92.2148 47.3199 91.4129 46.8877L90.4641 48.6484C90.9282 48.8985 91.3106 49.2768 91.5655 49.7382L93.316 48.7708ZM91.4433 46.9048C89.6789 45.8731 87.8499 44.956 85.9678 44.159L85.188 46.0007C86.9911 46.7642 88.7434 47.6429 90.4338 48.6313L91.4433 46.9048ZM85.5779 45.0798C84.9111 44.3346 84.9113 44.3344 84.9115 44.3343C84.9115 44.3342 84.9117 44.334 84.9118 44.3339C84.9121 44.3337 84.9123 44.3335 84.9125 44.3333C84.9129 44.3329 84.9133 44.3326 84.9137 44.3323C84.9145 44.3316 84.9151 44.3311 84.9155 44.3307C84.9165 44.3298 84.9169 44.3295 84.9168 44.3296C84.9165 44.3298 84.9143 44.3317 84.91 44.3353C84.9015 44.3424 84.8853 44.3556 84.8621 44.3734C84.8154 44.4093 84.7426 44.4619 84.6494 44.5194C84.457 44.6382 84.2101 44.7576 83.9478 44.8131L84.3617 46.7698C84.9216 46.6513 85.3863 46.4149 85.6999 46.2214C85.8597 46.1227 85.9885 46.0301 86.0802 45.9597C86.1262 45.9244 86.1633 45.8943 86.1909 45.8713C86.2047 45.8598 86.2161 45.85 86.2251 45.8422C86.2296 45.8384 86.2335 45.835 86.2368 45.8321C86.2384 45.8307 86.2399 45.8294 86.2412 45.8282C86.2419 45.8276 86.2425 45.827 86.2431 45.8265C86.2433 45.8263 86.2436 45.826 86.2439 45.8258C86.244 45.8256 86.2442 45.8255 86.2443 45.8254C86.2445 45.8252 86.2447 45.8251 85.5779 45.0798ZM83.8938 44.8261C83.6004 44.9054 83.2953 44.9324 82.9926 44.9059L82.8184 46.8983C83.355 46.9452 83.8956 46.8973 84.4156 46.7568L83.8938 44.8261ZM82.0071 45.463L77.1761 55.3462L78.973 56.2244L83.8039 46.3413L82.0071 45.463ZM77.3598 56.4847C77.7909 56.9253 78.0535 57.5034 78.1017 58.118L80.0956 57.9618C80.0108 56.8796 79.5484 55.8617 78.7893 55.0859L77.3598 56.4847ZM78.1017 58.118C78.1499 58.7326 77.9805 59.3445 77.6233 59.847L79.2533 61.0059C79.8822 60.1213 80.1804 59.0439 80.0956 57.9618L78.1017 58.118ZM77.6294 59.8384C77.263 60.3424 76.7286 60.6988 76.1226 60.8435L76.5871 62.7889C77.6569 62.5334 78.6003 61.9041 79.2471 61.0145L77.6294 59.8384ZM76.1226 60.8435C75.5166 60.9882 74.8788 60.9116 74.3242 60.6275L73.4123 62.4076C74.3913 62.9091 75.5172 63.0443 76.5871 62.7889L76.1226 60.8435ZM74.3351 60.6332C73.8219 60.3623 73.4131 59.9287 73.1728 59.4005L71.3524 60.2287C71.776 61.1599 72.4967 61.9243 73.4015 62.4019L74.3351 60.6332ZM73.1728 59.4005C72.9325 58.8723 72.8743 58.2793 73.0073 57.7144L71.0606 57.256C70.8261 58.2519 70.9287 59.2974 71.3524 60.2287L73.1728 59.4005ZM73.005 57.7242C73.1444 57.158 73.4675 56.6539 73.924 56.2908L72.6789 54.7256C71.8764 55.364 71.3081 56.2504 71.063 57.2462L73.005 57.7242ZM73.924 56.2908C74.3804 55.9278 74.9442 55.7263 75.5273 55.7178L75.4984 53.718C74.473 53.7329 73.4814 54.0872 72.6789 54.7256L73.924 56.2908ZM76.4114 55.1567L81.3688 45.0047L79.5717 44.1271L74.6143 54.2791L76.4114 55.1567ZM81.2484 43.9378C80.937 43.552 80.7417 43.0855 80.6855 42.5929L78.6984 42.8197C78.7977 43.6894 79.1423 44.5129 79.6921 45.194L81.2484 43.9378ZM80.6855 42.5929C80.6293 42.1002 80.7143 41.6018 80.9308 41.1557L79.1314 40.2826C78.7493 41.0701 78.5991 41.95 78.6984 42.8197L80.6855 42.5929ZM80.9308 41.1557C81.1473 40.7096 81.4862 40.3342 81.9079 40.0735L80.8564 38.3723C80.1118 38.8325 79.5135 39.4951 79.1314 40.2826L80.9308 41.1557ZM81.9079 40.0735C82.3297 39.8128 82.8169 39.6775 83.3127 39.6834L83.3363 37.6835C82.4611 37.6732 81.6009 37.9121 80.8564 38.3723L81.9079 40.0735ZM84.2213 39.1258L85.684 36.1609L83.8904 35.276L82.4277 38.241L84.2213 39.1258ZM85.6853 36.1583L87.0057 33.4622L85.2095 32.5825L83.8891 35.2786L85.6853 36.1583ZM86.5442 32.1227L81.9664 29.9009L81.0931 31.7002L85.671 33.922L86.5442 32.1227ZM81.5297 30.8006C81.9755 29.9054 81.9753 29.9053 81.9751 29.9052C81.975 29.9052 81.9747 29.9051 81.9746 29.905C81.9742 29.9048 81.9738 29.9046 81.9734 29.9044C81.9726 29.904 81.9716 29.9035 81.9706 29.903C81.9684 29.9019 81.9658 29.9006 81.9626 29.8991C81.9564 29.8961 81.9482 29.8921 81.9382 29.8873C81.9181 29.8777 81.8906 29.8648 81.8562 29.8491C81.7875 29.8177 81.6908 29.7752 81.571 29.7264C81.3323 29.6293 80.996 29.5052 80.6006 29.3953C79.8377 29.1833 78.7301 28.9887 77.6605 29.2626L78.1566 31.2001C78.7236 31.0549 79.4266 31.1449 80.0652 31.3223C80.3705 31.4071 80.6326 31.5039 80.8172 31.579C80.909 31.6163 80.9801 31.6477 81.0263 31.6688C81.0494 31.6793 81.0661 31.6872 81.0759 31.6919C81.0808 31.6942 81.084 31.6958 81.0854 31.6964C81.086 31.6968 81.0863 31.6969 81.086 31.6968C81.0859 31.6967 81.0857 31.6966 81.0853 31.6964C81.0852 31.6963 81.085 31.6962 81.0847 31.6961C81.0846 31.6961 81.0844 31.696 81.0844 31.6959C81.0842 31.6958 81.0839 31.6957 81.5297 30.8006ZM77.687 29.2562C77.3073 29.3424 76.9379 29.4688 76.585 29.6332L77.4294 31.4462C77.6538 31.3417 77.8887 31.2613 78.13 31.2065L77.687 29.2562ZM76.6011 29.6259C75.6212 30.0614 74.8833 30.8759 74.4206 31.4942C74.1805 31.8151 73.9938 32.1115 73.8664 32.3286C73.8025 32.4377 73.7527 32.528 73.718 32.5931C73.7006 32.6257 73.6869 32.652 73.677 32.6713C73.6721 32.681 73.6681 32.6889 73.6651 32.6949C73.6635 32.698 73.6623 32.7005 73.6612 32.7026C73.6607 32.7037 73.6602 32.7046 73.6598 32.7054C73.6596 32.7058 73.6595 32.7062 73.6593 32.7065C73.6592 32.7067 73.6591 32.7069 73.659 32.707C73.6589 32.7072 73.6588 32.7075 74.5562 33.1488C75.4535 33.5902 75.4534 33.5904 75.4533 33.5906C75.4533 33.5907 75.4532 33.5909 75.4531 33.591C75.453 33.5912 75.4529 33.5914 75.4528 33.5916C75.4526 33.5919 75.4525 33.5921 75.4525 33.5922C75.4524 33.5924 75.4525 33.5922 75.4528 33.5915C75.4535 33.5902 75.4551 33.5871 75.4575 33.5823C75.4624 33.5728 75.4707 33.5567 75.4824 33.5348C75.5058 33.4909 75.5425 33.4242 75.5916 33.3405C75.6903 33.1722 75.8361 32.9407 76.022 32.6924C76.4112 32.1722 76.8989 31.6821 77.4133 31.4535L76.6011 29.6259ZM73.6565 32.7121L62.7139 55.2537L64.5131 56.1271L75.4558 33.5855L73.6565 32.7121ZM63.6135 55.6904C62.7149 55.2517 62.7147 55.2519 62.7146 55.2522C62.7146 55.2523 62.7145 55.2525 62.7144 55.2527C62.7142 55.253 62.714 55.2534 62.7138 55.2538C62.7134 55.2547 62.7129 55.2556 62.7124 55.2567C62.7114 55.2589 62.7101 55.2615 62.7086 55.2647C62.7056 55.271 62.7017 55.2792 62.6969 55.2894C62.6874 55.3096 62.6746 55.3374 62.6591 55.3721C62.6281 55.4416 62.5861 55.5391 62.538 55.6601C62.4422 55.901 62.32 56.2403 62.2129 56.6385C62.0066 57.4059 61.8204 58.5211 62.1109 59.5898L64.0408 59.0651C63.8886 58.505 63.9712 57.8017 64.1443 57.1578C64.227 56.8504 64.3222 56.5858 64.3964 56.3992C64.4333 56.3065 64.4644 56.2344 64.4853 56.1877C64.4957 56.1643 64.5036 56.1474 64.5082 56.1374C64.5106 56.1324 64.5121 56.1292 64.5128 56.1278C64.5131 56.1271 64.5132 56.1268 64.5131 56.127C64.5131 56.1272 64.513 56.1274 64.5128 56.1277C64.5127 56.1279 64.5126 56.1281 64.5125 56.1283C64.5124 56.1285 64.5123 56.1287 64.5123 56.1287C64.5122 56.1289 64.5121 56.1291 63.6135 55.6904ZM62.0935 59.5146C62.3417 60.8179 63.1642 61.7843 63.8339 62.3872C64.1774 62.6965 64.5055 62.9326 64.7487 63.0922C64.871 63.1724 64.9735 63.2344 65.0481 63.2777C65.0854 63.2994 65.1159 63.3165 65.1385 63.329C65.1497 63.3352 65.1591 63.3402 65.1663 63.3441C65.1699 63.3461 65.173 63.3477 65.1756 63.3491C65.1769 63.3498 65.1781 63.3504 65.1791 63.3509C65.1796 63.3512 65.18 63.3514 65.1805 63.3517C65.1807 63.3518 65.181 63.3519 65.1811 63.352C65.1814 63.3521 65.1817 63.3523 65.6455 62.4663C66.1092 61.5804 66.1095 61.5805 66.1098 61.5807C66.1098 61.5807 66.1101 61.5808 66.1102 61.5809C66.1106 61.5811 66.1108 61.5812 66.1111 61.5813C66.1116 61.5816 66.1119 61.5818 66.1121 61.5819C66.1126 61.5821 66.1126 61.5821 66.112 61.5818C66.111 61.5813 66.1079 61.5796 66.1031 61.577C66.0934 61.5716 66.0764 61.5622 66.0531 61.5486C66.0065 61.5215 65.9349 61.4784 65.8459 61.42C65.6667 61.3024 65.4235 61.1273 65.1721 60.9009C64.6518 60.4325 64.1894 59.8295 64.0582 59.1403L62.0935 59.5146ZM65.2075 63.3653L87.931 74.4345L88.8068 72.6365L66.0834 61.5673L65.2075 63.3653ZM87.9975 74.464L89.0649 74.8909L89.8077 73.034L88.7403 72.607L87.9975 74.464ZM89.4363 73.9625C89.1052 74.9061 89.1054 74.9062 89.1057 74.9062C89.1057 74.9063 89.106 74.9063 89.1061 74.9064C89.1065 74.9065 89.1068 74.9066 89.1072 74.9068C89.1079 74.907 89.1086 74.9073 89.1095 74.9076C89.1111 74.9081 89.113 74.9088 89.1151 74.9095C89.1193 74.9109 89.1243 74.9126 89.1303 74.9146C89.1422 74.9186 89.1577 74.9237 89.1765 74.9296C89.2142 74.9415 89.2654 74.9569 89.329 74.9745C89.4558 75.0096 89.633 75.0534 89.8502 75.0938C90.2819 75.1742 90.8863 75.2439 91.5752 75.1974L91.4404 73.2019C90.9591 73.2345 90.5278 73.1856 90.2163 73.1276C90.0618 73.0989 89.9406 73.0686 89.8619 73.0468C89.8226 73.0359 89.7943 73.0273 89.7781 73.0222C89.77 73.0197 89.7649 73.018 89.7631 73.0174C89.7622 73.0171 89.762 73.017 89.7628 73.0173C89.7631 73.0174 89.7637 73.0176 89.7644 73.0178C89.7648 73.018 89.7653 73.0181 89.7658 73.0183C89.766 73.0184 89.7663 73.0185 89.7665 73.0186C89.7667 73.0186 89.7669 73.0187 89.7669 73.0187C89.7672 73.0188 89.7674 73.0189 89.4363 73.9625ZM92.2149 74.9068L92.2228 74.8989L90.8086 73.4847L90.8007 73.4926L92.2149 74.9068Z" fill="white" fill-opacity="0.4" mask="url(#path-2-inside-1_115_314)"/>
</g>
<defs>
<filter id="filter0_dii_115_314" x="0.899048" y="-8.98163" width="138.498" height="99.9816" filterUnits="userSpaceOnUse" color-interpolation-filters="sRGB">
<feFlood flood-opacity="0" result="BackgroundImageFix"/>
<feColorMatrix in="SourceAlpha" type="matrix" values="0 0 0 0 0 0 0 0 0 0 0 0 0 0 0 0 0 0 127 0" result="hardAlpha"/>
<feOffset dx="-4"/>
<feGaussianBlur stdDeviation="3"/>
<feComposite in2="hardAlpha" operator="out"/>
<feColorMatrix type="matrix" values="0 0 0 0 0.120417 0 0 0 0 0.85 0 0 0 0 0.500842 0 0 0 0.46 0"/>
<feBlend mode="normal" in2="BackgroundImageFix" result="effect1_dropShadow_115_314"/>
<feBlend mode="normal" in="SourceGraphic" in2="effect1_dropShadow_115_314" result="shape"/>
<feColorMatrix in="SourceAlpha" type="matrix" values="0 0 0 0 0 0 0 0 0 0 0 0 0 0 0 0 0 0 127 0" result="hardAlpha"/>
<feOffset dy="2"/>
<feGaussianBlur stdDeviation="1.5"/>
<feComposite in2="hardAlpha" operator="arithmetic" k2="-1" k3="1"/>
<feColorMatrix type="matrix" values="0 0 0 0 1 0 0 0 0 1 0 0 0 0 1 0 0 0 0.41 0"/>
<feBlend mode="normal" in2="shape" result="effect2_innerShadow_115_314"/>
<feColorMatrix in="SourceAlpha" type="matrix" values="0 0 0 0 0 0 0 0 0 0 0 0 0 0 0 0 0 0 127 0" result="hardAlpha"/>
<feOffset dy="-16"/>
<feGaussianBlur stdDeviation="8"/>
<feComposite in2="hardAlpha" operator="arithmetic" k2="-1" k3="1"/>
<feColorMatrix type="matrix" values="0 0 0 0 1 0 0 0 0 1 0 0 0 0 1 0 0 0 0.4 0"/>
<feBlend mode="normal" in2="effect2_innerShadow_115_314" result="effect3_innerShadow_115_314"/>
</filter>
<linearGradient id="paint0_linear_115_314" x1="70.2492" y1="0" x2="70.2492" y2="77.9817" gradientUnits="userSpaceOnUse">
<stop stop-color="#73F6B1"/>
<stop offset="1" stop-color="#04934A"/>
</linearGradient>
<linearGradient id="paint1_linear_115_314" x1="74.1483" y1="7.01837" x2="74.1483" y2="85" gradientUnits="userSpaceOnUse">
<stop stop-color="#73F6B1"/>
<stop offset="1" stop-color="#04934A"/>
</linearGradient>
</defs>
</svg>
