<svg width="178" height="81" viewBox="0 0 178 81" fill="none" xmlns="http://www.w3.org/2000/svg">
<path d="M13.13 29.6834C12.7913 29.6834 12.7062 29.5138 12.8758 29.2596L14.6549 26.9723C14.7699 26.838 14.9129 26.7306 15.0738 26.6574C15.2347 26.5842 15.4097 26.547 15.5864 26.5485H45.8273C46.166 26.5485 46.2511 26.8026 46.0815 27.0568L44.6416 29.2591C44.4378 29.5341 44.1332 29.7169 43.7946 29.7674L13.13 29.6834ZM0.338912 37.4743C0.000223599 37.4743 -0.0848594 37.3047 0.0847574 37.0506L1.86383 34.7632C1.97886 34.629 2.12183 34.5215 2.28273 34.4483C2.44363 34.3751 2.61859 34.3379 2.79535 34.3394H41.4227C41.4883 34.3302 41.5552 34.3379 41.617 34.3617C41.6789 34.3856 41.7336 34.4248 41.776 34.4757C41.8184 34.5266 41.8472 34.5874 41.8595 34.6525C41.8718 34.7177 41.8674 34.7848 41.8465 34.8477L41.1686 36.8826C41.1169 37.0408 41.0135 37.1769 40.875 37.2692C40.7364 37.3614 40.5709 37.4042 40.405 37.3909L0.338912 37.4743ZM20.8385 45.2674C20.4999 45.2674 20.4148 45.0133 20.5844 44.7591L21.7701 42.6414C21.8632 42.4977 21.9879 42.3772 22.1347 42.2891C22.2815 42.201 22.4465 42.1477 22.6171 42.1331H39.5591C39.8978 42.1331 40.0674 42.3872 40.0674 42.7259L39.8978 44.7591C39.8876 44.913 39.8218 45.0579 39.7128 45.1669C39.6037 45.276 39.4588 45.3417 39.305 45.352L20.8385 45.2674ZM108.765 28.1563C103.429 29.5116 99.7862 30.5282 94.5346 31.8835C93.2638 32.2222 93.1793 32.3073 92.0803 31.0365C90.8096 29.5967 89.878 28.6646 88.099 27.8187C82.7623 25.1926 77.5953 25.9551 72.7669 29.0895C67.007 32.8167 64.0407 38.3224 64.1268 45.184C64.2114 51.9605 68.8717 57.5513 75.5626 58.4834C81.3225 59.2469 86.1508 57.2126 89.9609 52.8925C90.7245 51.961 91.4008 50.9444 92.2483 49.7582H75.8986C74.1195 49.7582 73.6963 48.657 74.2891 47.2172C75.3902 44.5911 77.4235 40.1866 78.6092 37.9843C78.7912 37.5762 79.0888 37.2304 79.4651 36.9895C79.8415 36.7487 80.2801 36.6233 80.7269 36.629H111.561C111.391 38.9163 111.391 41.2032 111.052 43.4905C110.175 49.5222 107.785 55.2337 104.106 60.0933C98.0071 68.139 90.0444 73.1364 79.9645 74.4917C71.663 75.5928 63.9545 73.9834 57.178 68.9009C54.1661 66.6963 51.6518 63.8827 49.7984 60.6428C47.945 57.403 46.794 53.8095 46.4201 50.0958C45.319 40.8628 48.0296 32.5614 53.6193 25.2761C59.6344 17.3985 67.5972 12.401 77.3368 10.622C85.2995 9.18213 92.923 10.1137 99.7845 14.7724C104.173 17.6905 107.593 21.8482 109.611 26.7165C110.121 27.4789 109.782 27.9027 108.765 28.1563Z" fill="url(#paint0_linear_113_213)"/>
<g filter="url(#filter0_dii_113_213)">
<path d="M136.804 75C129.095 74.8304 122.065 72.6281 116.133 67.5456C111.2 63.3877 107.948 57.5766 106.985 51.1969C105.458 41.6247 108.086 33.1543 113.847 25.6153C120.03 17.4835 127.485 13.248 137.565 11.469C146.205 9.94186 154.337 10.791 161.706 15.789C168.398 20.3632 172.549 26.5468 173.651 34.6786C175.09 46.1144 171.787 55.4319 163.909 63.3946C158.386 68.9831 151.297 72.7638 143.579 74.237C141.294 74.6613 139.007 74.7458 136.804 75ZM156.964 40.7783C156.933 39.8425 156.848 38.9092 156.71 37.9832C155.183 29.5972 147.477 24.8534 139.43 26.717C131.552 28.4961 126.47 33.4935 124.606 41.4562C123.836 44.6148 124.193 47.9431 125.616 50.8662C127.039 53.7894 129.438 56.1238 132.399 57.4662C137.058 59.4994 141.717 59.2453 146.207 56.9579C152.898 53.4843 156.541 48.0631 156.964 40.7783Z" fill="url(#paint1_linear_113_213)"/>
</g>
<defs>
<filter id="filter0_dii_113_213" x="94.5576" y="-5.21686" width="83.4213" height="86.2169" filterUnits="userSpaceOnUse" color-interpolation-filters="sRGB">
<feFlood flood-opacity="0" result="BackgroundImageFix"/>
<feColorMatrix in="SourceAlpha" type="matrix" values="0 0 0 0 0 0 0 0 0 0 0 0 0 0 0 0 0 0 127 0" result="hardAlpha"/>
<feOffset dx="-4" dy="-2"/>
<feGaussianBlur stdDeviation="4"/>
<feComposite in2="hardAlpha" operator="out"/>
<feColorMatrix type="matrix" values="0 0 0 0 0.0698785 0 0 0 0 0.634776 0 0 0 0 0.670833 0 0 0 0.52 0"/>
<feBlend mode="normal" in2="BackgroundImageFix" result="effect1_dropShadow_113_213"/>
<feBlend mode="normal" in="SourceGraphic" in2="effect1_dropShadow_113_213" result="shape"/>
<feColorMatrix in="SourceAlpha" type="matrix" values="0 0 0 0 0 0 0 0 0 0 0 0 0 0 0 0 0 0 127 0" result="hardAlpha"/>
<feOffset dy="-16"/>
<feGaussianBlur stdDeviation="8"/>
<feComposite in2="hardAlpha" operator="arithmetic" k2="-1" k3="1"/>
<feColorMatrix type="matrix" values="0 0 0 0 1 0 0 0 0 1 0 0 0 0 1 0 0 0 0.58 0"/>
<feBlend mode="normal" in2="shape" result="effect2_innerShadow_113_213"/>
<feColorMatrix in="SourceAlpha" type="matrix" values="0 0 0 0 0 0 0 0 0 0 0 0 0 0 0 0 0 0 127 0" result="hardAlpha"/>
<feOffset dy="2"/>
<feGaussianBlur stdDeviation="1.5"/>
<feComposite in2="hardAlpha" operator="arithmetic" k2="-1" k3="1"/>
<feColorMatrix type="matrix" values="0 0 0 0 1 0 0 0 0 1 0 0 0 0 1 0 0 0 0.41 0"/>
<feBlend mode="normal" in2="effect2_innerShadow_113_213" result="effect3_innerShadow_113_213"/>
</filter>
<linearGradient id="paint0_linear_113_213" x1="55.7803" y1="10" x2="55.7803" y2="74.8211" gradientUnits="userSpaceOnUse">
<stop stop-color="#8EF7FE"/>
<stop offset="0.984375" stop-color="#06B7B7"/>
</linearGradient>
<linearGradient id="paint1_linear_113_213" x1="140.268" y1="10.7831" x2="140.268" y2="75" gradientUnits="userSpaceOnUse">
<stop stop-color="#8EF7FE"/>
<stop offset="0.984375" stop-color="#06B7B7"/>
</linearGradient>
</defs>
</svg>
