<svg width="118" height="126" viewBox="0 0 118 126" fill="none" xmlns="http://www.w3.org/2000/svg">
<path d="M109.06 55.5453C108.879 53.6968 108.576 51.5755 107.969 49.2122C107.287 46.5944 106.332 44.0552 105.121 41.6363C103.671 38.7342 101.892 36.009 99.8179 33.5148C98.9393 32.4547 97.9694 31.4243 96.9394 30.4243C98.4846 24.2727 95.0605 18.9395 95.0605 18.9395C89.1512 18.5757 85.3937 20.788 83.9999 21.788C83.7575 21.697 83.5452 21.5756 83.3028 21.4847C82.3029 21.0909 81.2724 20.6971 80.1815 20.3637C79.1009 20.0247 78.0094 19.7214 76.9088 19.4543C75.7878 19.1815 74.6669 18.9696 73.5151 18.7877C73.3027 18.7576 73.1213 18.7272 72.9089 18.6967C70.3333 10.455 62.9393 7 62.9393 7C54.6667 12.2422 53.1211 19.5757 53.1211 19.5757C53.1211 19.5757 53.0907 19.7271 53.0302 20C52.5755 20.1214 52.1212 20.2728 51.6664 20.3938C51.0302 20.5757 50.394 20.8181 49.7879 21.0604C49.1564 21.2999 48.5299 21.5525 47.909 21.818C46.6503 22.3691 45.4167 22.9758 44.212 23.6365C43.0301 24.3031 41.8791 25.0303 40.7573 25.7878L40.4545 25.6665C28.9997 21.3028 18.8486 26.5454 18.8486 26.5454C17.9091 38.7273 23.4242 46.3937 24.5151 47.7879C24.2423 48.5455 23.9999 49.3031 23.7575 50.0607C22.909 52.8182 22.2728 55.6362 21.879 58.5756C21.8181 58.9999 21.7576 59.4242 21.7271 59.8484C11.1213 65.0906 8 75.7878 8 75.7878C16.8182 85.9393 27.1212 86.5755 27.1212 86.5755L27.1516 86.5455C28.4545 88.8783 29.9696 91.0906 31.6667 93.1815C32.3819 94.0482 33.1299 94.8873 33.909 95.697C30.6968 104.909 34.3637 112.545 34.3637 112.545C44.1815 112.909 50.6364 108.242 51.9998 107.182C52.9756 107.52 53.9666 107.814 54.9696 108.06C57.9825 108.844 61.0709 109.301 64.1817 109.424C64.9392 109.454 65.7273 109.485 66.4849 109.454H67.5758L68.0605 109.424V109.454C72.697 116.061 80.8181 117 80.8181 117C86.606 110.909 86.9389 104.848 86.9389 103.545V103C88.1512 102.152 89.303 101.242 90.3939 100.242C92.6967 98.1513 94.7271 95.7575 96.4238 93.1815L96.8785 92.4543C103.424 92.8181 108.06 88.3936 108.06 88.3936C106.97 81.5757 103.091 78.2425 102.273 77.6059C102.273 77.6059 102.242 77.5758 102.182 77.5454C102.121 77.5149 102.121 77.4849 102.121 77.4849C102.091 77.4544 102.03 77.424 101.97 77.3939C102 76.9697 102.03 76.5754 102.061 76.1516C102.121 75.424 102.121 74.6665 102.121 73.9393V72.7875L102.091 72.3332L102.061 71.727C102.061 71.5151 102.03 71.3332 102 71.1513C101.97 70.9695 101.97 70.7575 101.939 70.5756L101.879 69.9999L101.788 69.4242C101.666 68.6666 101.545 67.9391 101.364 67.1815C100.666 64.2425 99.515 61.4545 98.0303 58.9394C96.5364 56.4626 94.6654 54.2338 92.4848 52.3334C90.3635 50.4545 87.9693 48.9393 85.4846 47.818C82.9699 46.697 80.3634 45.9695 77.7573 45.6362C76.4545 45.4543 75.1516 45.3938 73.8484 45.4242H72.8785L72.3937 45.4547C72.2118 45.4547 72.03 45.4847 71.8785 45.4847C71.218 45.5438 70.5607 45.6349 69.909 45.7575C67.3029 46.2423 64.8483 47.1818 62.6969 48.4846C60.5456 49.7879 58.6666 51.394 57.1514 53.212C55.6694 54.9909 54.4826 56.9962 53.6363 59.1513C52.842 61.1866 52.3717 63.3339 52.2425 65.5149C52.2121 66.0301 52.2121 66.5758 52.2121 67.091V67.4848L52.2425 67.9091C52.2726 68.1514 52.2726 68.4243 52.303 68.6666C52.394 69.7271 52.6059 70.7575 52.8787 71.727C53.4544 73.6969 54.3635 75.4845 55.4844 76.9997C56.6058 78.5149 57.9695 79.7576 59.3938 80.7576C60.818 81.7271 62.3632 82.4242 63.8788 82.8785C65.394 83.3332 66.9091 83.5151 68.3334 83.5151H69.121C69.2119 83.5151 69.3029 83.5151 69.3934 83.4847C69.5449 83.4847 69.6963 83.4542 69.8481 83.4542C69.8782 83.4542 69.9391 83.4542 69.9691 83.4242L70.1206 83.3937C70.2115 83.3937 70.3025 83.3637 70.3934 83.3637C70.5753 83.3332 70.7267 83.3028 70.9086 83.2727C71.0905 83.2423 71.2419 83.2118 71.3934 83.1514C71.7267 83.0909 72.03 82.9695 72.3328 82.8785C72.939 82.6666 73.5451 82.4238 74.0599 82.1514C74.6056 81.8786 75.0904 81.5452 75.5751 81.242C75.6965 81.151 75.8479 81.0605 75.9693 80.9391C76.4541 80.5453 76.545 79.8181 76.1512 79.3334C75.8175 78.9091 75.2117 78.7877 74.7266 79.0605L74.3628 79.2424C73.9422 79.4552 73.5068 79.6376 73.06 79.7881C72.6053 79.9391 72.1209 80.0605 71.6357 80.1514C71.3934 80.1815 71.151 80.2119 70.8782 80.2424C70.7572 80.2424 70.6358 80.2724 70.4843 80.2724H69.7568C69.6054 80.2724 69.4539 80.2724 69.3025 80.2424H69.121C69.0605 80.2424 68.9696 80.2424 68.9091 80.2119C68.7576 80.1815 68.6362 80.1815 68.4848 80.1514C67.3634 80 66.2425 79.6667 65.1816 79.1815C64.062 78.6812 63.029 78.0061 62.1212 77.1816C61.1818 76.3331 60.3637 75.3331 59.7271 74.1817C59.0905 73.0303 58.6362 71.7575 58.4242 70.4242C58.3333 69.7576 58.2728 69.0605 58.3028 68.3938C58.3028 68.2119 58.3333 68.0301 58.3333 67.8482V67.6058C58.3333 67.5148 58.3637 67.4239 58.3637 67.333C58.3938 66.9696 58.4547 66.6058 58.5152 66.2424C59.0304 63.3331 60.4847 60.4846 62.7274 58.3333C63.3031 57.7876 63.9088 57.3028 64.5454 56.8485C65.1933 56.3901 65.8832 55.9943 66.6059 55.6663C67.329 55.3309 68.0793 55.0574 68.8486 54.8486C69.6058 54.6363 70.3938 54.5149 71.2119 54.4243C71.6061 54.3939 71.9999 54.3634 72.4242 54.3634H73.3636L73.697 54.3939C74.5755 54.4544 75.4241 54.5758 76.2726 54.7877C77.9697 55.1515 79.6363 55.7881 81.1815 56.6362C84.2727 58.3637 86.9089 61.0303 88.515 64.2425C89.3335 65.8482 89.9088 67.5757 90.1816 69.3633C90.2421 69.8181 90.303 70.2728 90.333 70.7275L90.3635 71.0604L90.3939 71.3937V72.697C90.3939 72.9089 90.3635 73.2727 90.3635 73.4846C90.333 73.9698 90.2726 74.485 90.2121 74.9697C90.1516 75.4545 90.0606 75.9392 89.9697 76.424C89.8763 76.9027 89.7651 77.3778 89.6364 77.8482C89.3884 78.8046 89.0847 79.7457 88.7269 80.6667C87.9885 82.5018 87.0322 84.2415 85.8785 85.8484C83.5456 89.0606 80.3634 91.6667 76.7273 93.3333C74.9089 94.1514 72.9999 94.7575 71.0304 95.0604C70.0605 95.2423 69.0605 95.3332 68.0605 95.3633H66.5454C66.0087 95.3632 65.4725 95.3328 64.9392 95.2723C62.8179 95.1209 60.727 94.7271 58.6666 94.1514C56.6362 93.5757 54.6667 92.7576 52.7878 91.7877C49.0604 89.7878 45.6971 87.0603 43.091 83.7571C41.7857 82.118 40.6486 80.3516 39.6969 78.4848C38.7596 76.6346 38.0085 74.6958 37.4546 72.697C36.9089 70.697 36.5756 68.6666 36.4242 66.6058L36.3937 66.212V63.515C36.4242 62.515 36.5151 61.4545 36.6365 60.4241C36.7575 59.3937 36.9394 58.3333 37.1513 57.3028C37.3636 56.2728 37.606 55.2424 37.9089 54.212C38.4755 52.2104 39.1949 50.2552 40.0606 48.3636C41.7878 44.6666 44.0305 41.3635 46.7271 38.7273C47.3937 38.0607 48.0908 37.4541 48.818 36.8484C49.5505 36.2689 50.3088 35.723 51.0907 35.2122C51.8483 34.697 52.6664 34.2423 53.4849 33.818C53.8899 33.5979 54.3044 33.3956 54.7272 33.2119C55.1509 33.0304 55.5764 32.8481 56 32.6666C56.8486 32.3029 57.7271 32 58.6362 31.7272C58.8485 31.6667 59.0909 31.6062 59.3028 31.5152C59.5151 31.4543 59.7575 31.3938 59.9695 31.3333C60.4242 31.2119 60.8789 31.091 61.3336 31C61.5455 30.9395 61.7879 30.9091 62.0303 30.8486C62.2727 30.7877 62.485 30.7576 62.7274 30.6967C62.9698 30.6667 63.1821 30.6058 63.4241 30.5757L63.7574 30.5153L64.1212 30.4544C64.3635 30.4243 64.5759 30.3939 64.8183 30.3634C65.0911 30.3334 65.3331 30.3029 65.6059 30.2725C65.8182 30.2424 66.1816 30.212 66.3939 30.1815C66.5454 30.1515 66.7272 30.1515 66.8787 30.121L67.212 30.091L67.3634 30.0605H67.5453C67.8182 30.0301 68.0605 30.0301 68.3334 30L68.7272 29.9696H69.0305C69.2424 29.9696 69.4848 29.9395 69.6967 29.9395C70.5854 29.9092 71.4749 29.9092 72.3637 29.9395C74.1212 30 75.8483 30.2124 77.515 30.5153C80.8786 31.1518 84.0304 32.2119 86.9089 33.6361C89.7874 35.0303 92.3334 36.7574 94.5757 38.6364C94.7271 38.7574 94.8485 38.8788 95 39.0001C95.1209 39.1211 95.2728 39.2425 95.3938 39.3639C95.6666 39.6059 95.909 39.8483 96.1818 40.0907C96.4546 40.3334 96.697 40.5758 96.9394 40.8182C97.1893 41.0634 97.4318 41.316 97.6665 41.5758C98.606 42.5758 99.4846 43.5757 100.272 44.6061C101.737 46.4943 103.025 48.5127 104.121 50.636L104.303 50.9998L104.485 51.3635C104.606 51.6059 104.727 51.8483 104.818 52.0911C104.939 52.3334 105.03 52.5454 105.151 52.7878C105.242 53.0301 105.363 53.2425 105.454 53.4849C105.818 54.3939 106.182 55.2725 106.455 56.0905C106.909 57.4242 107.242 58.6061 107.515 59.6361C107.557 59.8382 107.674 60.0168 107.843 60.1352C108.012 60.2536 108.22 60.3028 108.424 60.2727C108.879 60.2422 109.212 59.8789 109.212 59.4242C109.242 58.3333 109.212 57.0304 109.06 55.5453Z" fill="url(#paint0_linear_143_128)"/>
<g filter="url(#filter0_dii_143_128)">
<path d="M113.06 58.5453C112.879 56.6968 112.576 54.5755 111.969 52.2122C111.287 49.5944 110.332 47.0552 109.121 44.6363C107.671 41.7342 105.892 39.009 103.818 36.5148C102.939 35.4547 101.969 34.4243 100.939 33.4243C102.485 27.2727 99.0605 21.9395 99.0605 21.9395C93.1512 21.5757 89.3937 23.788 87.9999 24.788C87.7575 24.697 87.5452 24.5756 87.3028 24.4847C86.3029 24.0909 85.2724 23.6971 84.1815 23.3637C83.1009 23.0247 82.0094 22.7214 80.9088 22.4543C79.7878 22.1815 78.6669 21.9696 77.5151 21.7877C77.3027 21.7576 77.1213 21.7272 76.9089 21.6967C74.3333 13.455 66.9393 10 66.9393 10C58.6667 15.2422 57.1211 22.5757 57.1211 22.5757C57.1211 22.5757 57.0907 22.7271 57.0302 23C56.5755 23.1214 56.1212 23.2728 55.6664 23.3938C55.0302 23.5757 54.394 23.8181 53.7879 24.0604C53.1564 24.2999 52.5299 24.5525 51.909 24.818C50.6503 25.3691 49.4167 25.9758 48.212 26.6365C47.0301 27.3031 45.8791 28.0303 44.7573 28.7878L44.4545 28.6665C32.9997 24.3028 22.8486 29.5454 22.8486 29.5454C21.9091 41.7273 27.4242 49.3937 28.5151 50.7879C28.2423 51.5455 27.9999 52.3031 27.7575 53.0607C26.909 55.8182 26.2728 58.6362 25.879 61.5756C25.8181 61.9999 25.7576 62.4242 25.7271 62.8484C15.1213 68.0906 12 78.7878 12 78.7878C20.8182 88.9393 31.1212 89.5755 31.1212 89.5755L31.1516 89.5455C32.4545 91.8783 33.9696 94.0906 35.6667 96.1815C36.3819 97.0482 37.1299 97.8873 37.909 98.697C34.6968 107.909 38.3637 115.545 38.3637 115.545C48.1815 115.909 54.6364 111.242 55.9998 110.182C56.9756 110.52 57.9666 110.814 58.9696 111.06C61.9825 111.844 65.0709 112.301 68.1817 112.424C68.9392 112.454 69.7273 112.485 70.4849 112.454H71.5758L72.0605 112.424V112.454C76.697 119.061 84.8181 120 84.8181 120C90.606 113.909 90.9389 107.848 90.9389 106.545V106C92.1512 105.152 93.303 104.242 94.3939 103.242C96.6967 101.151 98.7271 98.7575 100.424 96.1815L100.879 95.4543C107.424 95.8181 112.06 91.3936 112.06 91.3936C110.97 84.5757 107.091 81.2425 106.273 80.6059C106.273 80.6059 106.242 80.5758 106.182 80.5454C106.121 80.5149 106.121 80.4849 106.121 80.4849C106.091 80.4544 106.03 80.424 105.97 80.3939C106 79.9697 106.03 79.5754 106.061 79.1516C106.121 78.424 106.121 77.6665 106.121 76.9393V75.7875L106.091 75.3332L106.061 74.727C106.061 74.5151 106.03 74.3332 106 74.1513C105.97 73.9695 105.97 73.7575 105.939 73.5756L105.879 72.9999L105.788 72.4242C105.666 71.6666 105.545 70.9391 105.364 70.1815C104.666 67.2425 103.515 64.4545 102.03 61.9394C100.536 59.4626 98.6654 57.2338 96.4848 55.3334C94.3635 53.4545 91.9693 51.9393 89.4846 50.818C86.9699 49.697 84.3634 48.9695 81.7573 48.6362C80.4545 48.4543 79.1516 48.3938 77.8484 48.4242H76.8785L76.3937 48.4547C76.2118 48.4547 76.03 48.4847 75.8785 48.4847C75.218 48.5438 74.5607 48.6349 73.909 48.7575C71.3029 49.2423 68.8483 50.1818 66.6969 51.4846C64.5456 52.7879 62.6666 54.394 61.1514 56.212C59.6694 57.9909 58.4826 59.9962 57.6363 62.1513C56.842 64.1866 56.3717 66.3339 56.2425 68.5149C56.2121 69.0301 56.2121 69.5758 56.2121 70.091V70.4848L56.2425 70.9091C56.2726 71.1514 56.2726 71.4243 56.303 71.6666C56.394 72.7271 56.6059 73.7575 56.8787 74.727C57.4544 76.6969 58.3635 78.4845 59.4844 79.9997C60.6058 81.5149 61.9695 82.7576 63.3938 83.7576C64.818 84.7271 66.3632 85.4242 67.8788 85.8785C69.394 86.3332 70.9091 86.5151 72.3334 86.5151H73.121C73.2119 86.5151 73.3029 86.5151 73.3934 86.4847C73.5449 86.4847 73.6963 86.4542 73.8481 86.4542C73.8782 86.4542 73.9391 86.4542 73.9691 86.4242L74.1206 86.3937C74.2115 86.3937 74.3025 86.3637 74.3934 86.3637C74.5753 86.3332 74.7267 86.3028 74.9086 86.2727C75.0905 86.2423 75.2419 86.2118 75.3934 86.1514C75.7267 86.0909 76.03 85.9695 76.3328 85.8785C76.939 85.6666 77.5451 85.4238 78.0599 85.1514C78.6056 84.8786 79.0904 84.5452 79.5751 84.242C79.6965 84.151 79.8479 84.0605 79.9693 83.9391C80.4541 83.5453 80.545 82.8181 80.1512 82.3334C79.8175 81.9091 79.2117 81.7877 78.7266 82.0605L78.3628 82.2424C77.9422 82.4552 77.5068 82.6376 77.06 82.7881C76.6053 82.9391 76.1209 83.0605 75.6357 83.1514C75.3934 83.1815 75.151 83.2119 74.8782 83.2424C74.7572 83.2424 74.6358 83.2724 74.4843 83.2724H73.7568C73.6054 83.2724 73.4539 83.2724 73.3025 83.2424H73.121C73.0605 83.2424 72.9696 83.2424 72.9091 83.2119C72.7576 83.1815 72.6362 83.1815 72.4848 83.1514C71.3634 83 70.2425 82.6667 69.1816 82.1815C68.062 81.6812 67.029 81.0061 66.1212 80.1816C65.1818 79.3331 64.3637 78.3331 63.7271 77.1817C63.0905 76.0303 62.6362 74.7575 62.4242 73.4242C62.3333 72.7576 62.2728 72.0605 62.3028 71.3938C62.3028 71.2119 62.3333 71.0301 62.3333 70.8482V70.6058C62.3333 70.5148 62.3637 70.4239 62.3637 70.333C62.3938 69.9696 62.4547 69.6058 62.5152 69.2424C63.0304 66.3331 64.4847 63.4846 66.7274 61.3333C67.3031 60.7876 67.9088 60.3028 68.5454 59.8485C69.1933 59.3901 69.8832 58.9943 70.6059 58.6663C71.329 58.3309 72.0793 58.0574 72.8486 57.8486C73.6058 57.6363 74.3938 57.5149 75.2119 57.4243C75.6061 57.3939 75.9999 57.3634 76.4242 57.3634H77.3636L77.697 57.3939C78.5755 57.4544 79.4241 57.5758 80.2726 57.7877C81.9697 58.1515 83.6363 58.7881 85.1815 59.6362C88.2727 61.3637 90.9089 64.0303 92.515 67.2425C93.3335 68.8482 93.9088 70.5757 94.1816 72.3633C94.2421 72.8181 94.303 73.2728 94.333 73.7275L94.3635 74.0604L94.3939 74.3937V75.697C94.3939 75.9089 94.3635 76.2727 94.3635 76.4846C94.333 76.9698 94.2726 77.485 94.2121 77.9697C94.1516 78.4545 94.0606 78.9392 93.9697 79.424C93.8763 79.9027 93.7651 80.3778 93.6364 80.8482C93.3884 81.8046 93.0847 82.7457 92.7269 83.6667C91.9885 85.5018 91.0322 87.2415 89.8785 88.8484C87.5456 92.0606 84.3634 94.6667 80.7273 96.3333C78.9089 97.1514 76.9999 97.7575 75.0304 98.0604C74.0605 98.2423 73.0605 98.3332 72.0605 98.3633H70.5454C70.0087 98.3632 69.4725 98.3328 68.9392 98.2723C66.8179 98.1209 64.727 97.7271 62.6666 97.1514C60.6362 96.5757 58.6667 95.7576 56.7878 94.7877C53.0604 92.7878 49.6971 90.0603 47.091 86.7571C45.7857 85.118 44.6486 83.3516 43.6969 81.4848C42.7596 79.6346 42.0085 77.6958 41.4546 75.697C40.9089 73.697 40.5756 71.6666 40.4242 69.6058L40.3937 69.212V66.515C40.4242 65.515 40.5151 64.4545 40.6365 63.4241C40.7575 62.3937 40.9394 61.3333 41.1513 60.3028C41.3636 59.2728 41.606 58.2424 41.9089 57.212C42.4755 55.2104 43.1949 53.2552 44.0606 51.3636C45.7878 47.6666 48.0305 44.3635 50.7271 41.7273C51.3937 41.0607 52.0908 40.4541 52.818 39.8484C53.5505 39.2689 54.3088 38.723 55.0907 38.2122C55.8483 37.697 56.6664 37.2423 57.4849 36.818C57.8899 36.5979 58.3044 36.3956 58.7272 36.2119C59.1509 36.0304 59.5764 35.8481 60 35.6666C60.8486 35.3029 61.7271 35 62.6362 34.7272C62.8485 34.6667 63.0909 34.6062 63.3028 34.5152C63.5151 34.4543 63.7575 34.3938 63.9695 34.3333C64.4242 34.2119 64.8789 34.091 65.3336 34C65.5455 33.9395 65.7879 33.9091 66.0303 33.8486C66.2727 33.7877 66.485 33.7576 66.7274 33.6967C66.9698 33.6667 67.1821 33.6058 67.4241 33.5757L67.7574 33.5153L68.1212 33.4544C68.3635 33.4243 68.5759 33.3939 68.8183 33.3634C69.0911 33.3334 69.3331 33.3029 69.6059 33.2725C69.8182 33.2424 70.1816 33.212 70.3939 33.1815C70.5454 33.1515 70.7272 33.1515 70.8787 33.121L71.212 33.091L71.3634 33.0605H71.5453C71.8182 33.0301 72.0605 33.0301 72.3334 33L72.7272 32.9696H73.0305C73.2424 32.9696 73.4848 32.9395 73.6967 32.9395C74.5854 32.9092 75.4749 32.9092 76.3637 32.9395C78.1212 33 79.8483 33.2124 81.515 33.5153C84.8786 34.1518 88.0304 35.2119 90.9089 36.6361C93.7874 38.0303 96.3334 39.7574 98.5757 41.6364C98.7271 41.7574 98.8485 41.8788 99 42.0001C99.1209 42.1211 99.2728 42.2425 99.3938 42.3639C99.6666 42.6059 99.909 42.8483 100.182 43.0907C100.455 43.3334 100.697 43.5758 100.939 43.8182C101.189 44.0634 101.432 44.316 101.667 44.5758C102.606 45.5758 103.485 46.5757 104.272 47.6061C105.737 49.4943 107.025 51.5127 108.121 53.636L108.303 53.9998L108.485 54.3635C108.606 54.6059 108.727 54.8483 108.818 55.0911C108.939 55.3334 109.03 55.5454 109.151 55.7878C109.242 56.0301 109.363 56.2425 109.454 56.4849C109.818 57.3939 110.182 58.2725 110.455 59.0905C110.909 60.4242 111.242 61.6061 111.515 62.6361C111.557 62.8382 111.674 63.0168 111.843 63.1352C112.012 63.2536 112.22 63.3028 112.424 63.2727C112.879 63.2422 113.212 62.8789 113.212 62.4242C113.242 61.3333 113.212 60.0304 113.06 58.5453Z" fill="url(#paint1_linear_143_128)"/>
</g>
<defs>
<filter id="filter0_dii_143_128" x="0" y="-6" width="117.222" height="132" filterUnits="userSpaceOnUse" color-interpolation-filters="sRGB">
<feFlood flood-opacity="0" result="BackgroundImageFix"/>
<feColorMatrix in="SourceAlpha" type="matrix" values="0 0 0 0 0 0 0 0 0 0 0 0 0 0 0 0 0 0 127 0" result="hardAlpha"/>
<feOffset dx="-4" dy="-2"/>
<feGaussianBlur stdDeviation="4"/>
<feComposite in2="hardAlpha" operator="out"/>
<feColorMatrix type="matrix" values="0 0 0 0 0.980392 0 0 0 0 0.329412 0 0 0 0 0.333333 0 0 0 0.37 0"/>
<feBlend mode="normal" in2="BackgroundImageFix" result="effect1_dropShadow_143_128"/>
<feBlend mode="normal" in="SourceGraphic" in2="effect1_dropShadow_143_128" result="shape"/>
<feColorMatrix in="SourceAlpha" type="matrix" values="0 0 0 0 0 0 0 0 0 0 0 0 0 0 0 0 0 0 127 0" result="hardAlpha"/>
<feOffset dy="2"/>
<feGaussianBlur stdDeviation="1.5"/>
<feComposite in2="hardAlpha" operator="arithmetic" k2="-1" k3="1"/>
<feColorMatrix type="matrix" values="0 0 0 0 1 0 0 0 0 1 0 0 0 0 1 0 0 0 0.41 0"/>
<feBlend mode="normal" in2="shape" result="effect2_innerShadow_143_128"/>
<feColorMatrix in="SourceAlpha" type="matrix" values="0 0 0 0 0 0 0 0 0 0 0 0 0 0 0 0 0 0 127 0" result="hardAlpha"/>
<feOffset dy="-16"/>
<feGaussianBlur stdDeviation="8"/>
<feComposite in2="hardAlpha" operator="arithmetic" k2="-1" k3="1"/>
<feColorMatrix type="matrix" values="0 0 0 0 1 0 0 0 0 1 0 0 0 0 1 0 0 0 0.4 0"/>
<feBlend mode="normal" in2="effect2_innerShadow_143_128" result="effect3_innerShadow_143_128"/>
</filter>
<linearGradient id="paint0_linear_143_128" x1="58.6112" y1="7" x2="58.6112" y2="117" gradientUnits="userSpaceOnUse">
<stop stop-color="#FF3E00"/>
<stop offset="0.15625" stop-color="#FF3E00"/>
<stop offset="0.8125" stop-color="#FF8D68"/>
</linearGradient>
<linearGradient id="paint1_linear_143_128" x1="62.6112" y1="10" x2="62.6112" y2="120" gradientUnits="userSpaceOnUse">
<stop stop-color="#FF3E00"/>
<stop offset="0.15625" stop-color="#FF3E00"/>
<stop offset="0.8125" stop-color="#FF8D68"/>
</linearGradient>
</defs>
</svg>
