<svg width="127" height="126" viewBox="0 0 127 126" fill="none" xmlns="http://www.w3.org/2000/svg">
<path fill-rule="evenodd" clip-rule="evenodd" d="M111.468 55.534C114.063 55.4118 116.606 56.2948 118.566 57.9996C120.527 59.7043 121.755 62.0995 121.995 64.6866C123.959 90.3375 100.94 119.013 67.9437 119.916C66.6706 119.974 65.3989 119.777 64.2034 119.335C63.008 118.894 61.913 118.218 60.9831 117.346C60.0532 116.475 59.3071 115.426 58.789 114.262C58.2708 113.098 57.9911 111.842 57.9662 110.567C57.8921 108.021 58.8304 105.55 60.5754 103.694C62.3205 101.839 64.73 100.751 67.2759 100.669C89.195 100.079 103.061 81.0278 102.315 65.5901C102.197 63.05 103.09 60.5665 104.797 58.6823C106.505 56.7981 108.889 55.6663 111.428 55.534H111.468Z" fill="url(#paint0_linear_117_892)"/>
<path fill-rule="evenodd" clip-rule="evenodd" d="M21.7096 54.9839C24.2553 54.9943 26.6931 56.0128 28.4894 57.8165C30.2858 59.6203 31.2943 62.0622 31.2943 64.6079C31.1888 69.3461 32.037 74.0573 33.7886 78.4611C35.5402 82.865 38.1593 86.8718 41.4904 90.2432C44.8215 93.6145 48.7965 96.2817 53.179 98.0862C57.5615 99.8906 62.262 100.795 67.0012 100.747C68.2613 100.71 69.5162 100.924 70.6934 101.375C71.8706 101.826 72.9468 102.506 73.8598 103.375C74.7729 104.244 75.5047 105.285 76.013 106.439C76.5214 107.593 76.7962 108.835 76.8216 110.096C76.8582 111.366 76.6428 112.631 76.1878 113.818C75.7328 115.005 75.0472 116.09 74.1707 117.01C73.2942 117.93 72.2441 118.668 71.0809 119.18C69.9178 119.693 68.6648 119.969 67.3941 119.995C60.0927 120.095 52.8454 118.731 46.0801 115.983C39.3149 113.235 33.1691 109.159 28.0058 103.996C22.8425 98.8328 18.7665 92.687 16.0186 85.9218C13.2707 79.1565 11.9067 71.9092 12.0071 64.6079C12.0278 62.0482 13.0592 59.6005 14.8765 57.7979C16.6939 55.9952 19.1499 54.9838 21.7096 54.9839Z" fill="url(#paint1_linear_117_892)"/>
<path d="M86.9409 65.3547C86.9409 64.0566 87.1972 62.7712 87.6952 61.5724C88.1931 60.3736 88.9229 59.285 89.8426 58.3689C90.7623 57.4528 91.8539 56.7274 93.0546 56.2342C94.2554 55.741 95.5418 55.4898 96.8398 55.495H111.256C112.62 55.3729 113.994 55.5361 115.29 55.9742C116.587 56.4122 117.779 57.1155 118.789 58.0393C119.799 58.9631 120.606 60.0872 121.158 61.3399C121.71 62.5926 121.995 63.9465 121.995 65.3154C121.995 66.6843 121.71 68.0382 121.158 69.2909C120.606 70.5436 119.799 71.6676 118.789 72.5914C117.779 73.5152 116.587 74.2186 115.29 74.6566C113.994 75.0947 112.62 75.2578 111.256 75.1358H96.8398C95.5418 75.1409 94.2554 74.8897 93.0546 74.3966C91.8539 73.9034 90.7623 73.1779 89.8426 72.2619C88.9229 71.3458 88.1931 70.2571 87.6952 69.0583C87.1972 67.8595 86.9409 66.5742 86.9409 65.2761V65.3547Z" fill="url(#paint2_linear_117_892)"/>
<path d="M57.2201 65.3547C57.2357 63.4142 57.8258 61.5218 58.916 59.9164C60.0062 58.3109 61.5476 57.0645 63.3457 56.3345C65.1437 55.6044 67.1177 55.4234 69.0185 55.8143C70.9194 56.2053 72.6617 57.1506 74.0257 58.531C75.3897 59.9114 76.3141 61.665 76.6822 63.5704C77.0504 65.4757 76.8458 67.4474 76.0942 69.2366C75.3427 71.0258 74.0779 72.5521 72.4595 73.6231C70.8412 74.694 68.9418 75.2614 67.0012 75.2537C65.7083 75.2486 64.429 74.9882 63.237 74.4874C62.0449 73.9867 60.9634 73.2555 60.0547 72.3357C59.1459 71.416 58.4277 70.3259 57.9413 69.1279C57.4548 67.9299 57.2098 66.6477 57.2201 65.3547Z" fill="url(#paint3_linear_117_892)"/>
<path fill-rule="evenodd" clip-rule="evenodd" d="M76.5857 19.238C76.6437 20.4969 76.4529 21.755 76.0241 22.9401C75.5953 24.1253 74.937 25.2142 74.0869 26.1446C73.2367 27.0751 72.2115 27.8287 71.0697 28.3623C69.928 28.896 68.6922 29.1993 67.4331 29.2547C44.5712 30.1975 30.6263 48.1884 31.294 65.2759C31.3627 66.529 31.1816 67.7832 30.7612 68.9657C30.3407 70.1481 29.6894 71.2352 28.845 72.1636C28.0007 73.0921 26.9801 73.8433 25.8428 74.3738C24.7054 74.9042 23.474 75.2032 22.22 75.2534C19.6269 75.3392 17.1038 74.4035 15.1937 72.6476C13.2836 70.8918 12.1392 68.4562 12.0068 65.8651C11.8925 58.6037 13.2176 51.3916 15.9055 44.6451C18.5934 37.8985 22.591 31.7512 27.6674 26.5579C32.7439 21.3645 38.7987 17.2281 45.4823 14.3874C52.1659 11.5466 59.346 10.0578 66.6081 10.0068C69.1545 9.91113 71.6349 10.8292 73.5053 12.5597C75.3757 14.2902 76.4835 16.6919 76.5857 19.238Z" fill="url(#paint4_linear_117_892)"/>
<g filter="url(#filter0_dii_117_892)">
<path fill-rule="evenodd" clip-rule="evenodd" d="M111.468 55.534C114.063 55.4118 116.606 56.2948 118.566 57.9996C120.527 59.7043 121.755 62.0995 121.995 64.6866C123.959 90.3375 100.94 119.013 67.9437 119.916C66.6706 119.974 65.3989 119.777 64.2034 119.335C63.008 118.894 61.913 118.218 60.9831 117.346C60.0532 116.475 59.3071 115.426 58.789 114.262C58.2708 113.098 57.9911 111.842 57.9662 110.567C57.8921 108.021 58.8304 105.55 60.5754 103.694C62.3205 101.839 64.73 100.751 67.2759 100.669C89.195 100.079 103.061 81.0278 102.315 65.5901C102.197 63.05 103.09 60.5665 104.797 58.6823C106.505 56.7981 108.889 55.6663 111.428 55.534H111.468Z" fill="url(#paint5_linear_117_892)"/>
<path d="M57.2201 65.3547C57.2357 63.4142 57.8258 61.5218 58.916 59.9164C60.0062 58.3109 61.5476 57.0645 63.3457 56.3345C65.1437 55.6044 67.1177 55.4234 69.0185 55.8143C70.9194 56.2053 72.6617 57.1506 74.0257 58.531C75.3897 59.9114 76.3141 61.665 76.6822 63.5704C77.0504 65.4757 76.8458 67.4474 76.0942 69.2366C75.3427 71.0258 74.0779 72.5521 72.4595 73.6231C70.8412 74.694 68.9418 75.2614 67.0012 75.2537C65.7083 75.2486 64.429 74.9882 63.237 74.4874C62.0449 73.9867 60.9634 73.2555 60.0547 72.3357C59.1459 71.416 58.4277 70.3259 57.9413 69.1279C57.4548 67.9299 57.2098 66.6477 57.2201 65.3547Z" fill="url(#paint6_linear_117_892)"/>
<path fill-rule="evenodd" clip-rule="evenodd" d="M76.5857 19.238C76.6437 20.4969 76.4529 21.755 76.0241 22.9401C75.5953 24.1253 74.937 25.2142 74.0869 26.1446C73.2367 27.0751 72.2115 27.8287 71.0697 28.3623C69.928 28.896 68.6922 29.1993 67.4331 29.2547C44.5712 30.1975 30.6263 48.1884 31.294 65.2759C31.3627 66.529 31.1816 67.7832 30.7612 68.9657C30.3407 70.1481 29.6894 71.2352 28.845 72.1636C28.0007 73.0921 26.9801 73.8433 25.8428 74.3738C24.7054 74.9042 23.474 75.2032 22.22 75.2534C19.6269 75.3392 17.1038 74.4035 15.1937 72.6476C13.2836 70.8918 12.1392 68.4562 12.0068 65.8651C11.8925 58.6037 13.2176 51.3916 15.9055 44.6451C18.5934 37.8985 22.591 31.7512 27.6674 26.5579C32.7439 21.3645 38.7987 17.2281 45.4823 14.3874C52.1659 11.5466 59.346 10.0578 66.6081 10.0068C69.1545 9.91113 71.6349 10.8292 73.5053 12.5597C75.3757 14.2902 76.4835 16.6919 76.5857 19.238Z" fill="url(#paint7_linear_117_892)"/>
</g>
<defs>
<filter id="filter0_dii_117_892" x="0" y="-6" width="126.112" height="131.926" filterUnits="userSpaceOnUse" color-interpolation-filters="sRGB">
<feFlood flood-opacity="0" result="BackgroundImageFix"/>
<feColorMatrix in="SourceAlpha" type="matrix" values="0 0 0 0 0 0 0 0 0 0 0 0 0 0 0 0 0 0 127 0" result="hardAlpha"/>
<feOffset dx="-4" dy="-2"/>
<feGaussianBlur stdDeviation="4"/>
<feComposite in2="hardAlpha" operator="out"/>
<feColorMatrix type="matrix" values="0 0 0 0 0.0698785 0 0 0 0 0.634776 0 0 0 0 0.670833 0 0 0 0.52 0"/>
<feBlend mode="normal" in2="BackgroundImageFix" result="effect1_dropShadow_117_892"/>
<feBlend mode="normal" in="SourceGraphic" in2="effect1_dropShadow_117_892" result="shape"/>
<feColorMatrix in="SourceAlpha" type="matrix" values="0 0 0 0 0 0 0 0 0 0 0 0 0 0 0 0 0 0 127 0" result="hardAlpha"/>
<feOffset dy="-16"/>
<feGaussianBlur stdDeviation="8"/>
<feComposite in2="hardAlpha" operator="arithmetic" k2="-1" k3="1"/>
<feColorMatrix type="matrix" values="0 0 0 0 1 0 0 0 0 1 0 0 0 0 1 0 0 0 0.58 0"/>
<feBlend mode="normal" in2="shape" result="effect2_innerShadow_117_892"/>
<feColorMatrix in="SourceAlpha" type="matrix" values="0 0 0 0 0 0 0 0 0 0 0 0 0 0 0 0 0 0 127 0" result="hardAlpha"/>
<feOffset dy="2"/>
<feGaussianBlur stdDeviation="1.5"/>
<feComposite in2="hardAlpha" operator="arithmetic" k2="-1" k3="1"/>
<feColorMatrix type="matrix" values="0 0 0 0 1 0 0 0 0 1 0 0 0 0 1 0 0 0 0.41 0"/>
<feBlend mode="normal" in2="effect2_innerShadow_117_892" result="effect3_innerShadow_117_892"/>
</filter>
<linearGradient id="paint0_linear_117_892" x1="67.0559" y1="10" x2="67.0559" y2="120" gradientUnits="userSpaceOnUse">
<stop stop-color="#8EF7FE"/>
<stop offset="0.984375" stop-color="#06B7B7"/>
</linearGradient>
<linearGradient id="paint1_linear_117_892" x1="67.0559" y1="10" x2="67.0559" y2="120" gradientUnits="userSpaceOnUse">
<stop stop-color="#8EF7FE"/>
<stop offset="0.984375" stop-color="#06B7B7"/>
</linearGradient>
<linearGradient id="paint2_linear_117_892" x1="67.0559" y1="10" x2="67.0559" y2="120" gradientUnits="userSpaceOnUse">
<stop stop-color="#8EF7FE"/>
<stop offset="0.984375" stop-color="#06B7B7"/>
</linearGradient>
<linearGradient id="paint3_linear_117_892" x1="67.0559" y1="10" x2="67.0559" y2="120" gradientUnits="userSpaceOnUse">
<stop stop-color="#8EF7FE"/>
<stop offset="0.984375" stop-color="#06B7B7"/>
</linearGradient>
<linearGradient id="paint4_linear_117_892" x1="67.0559" y1="10" x2="67.0559" y2="120" gradientUnits="userSpaceOnUse">
<stop stop-color="#8EF7FE"/>
<stop offset="0.984375" stop-color="#06B7B7"/>
</linearGradient>
<linearGradient id="paint5_linear_117_892" x1="67.2799" y1="10" x2="67.2799" y2="119.995" gradientUnits="userSpaceOnUse">
<stop stop-color="#8EF7FE"/>
<stop offset="0.984375" stop-color="#06B7B7"/>
</linearGradient>
<linearGradient id="paint6_linear_117_892" x1="67.2799" y1="10" x2="67.2799" y2="119.995" gradientUnits="userSpaceOnUse">
<stop stop-color="#8EF7FE"/>
<stop offset="0.984375" stop-color="#06B7B7"/>
</linearGradient>
<linearGradient id="paint7_linear_117_892" x1="67.2799" y1="10" x2="67.2799" y2="119.995" gradientUnits="userSpaceOnUse">
<stop stop-color="#8EF7FE"/>
<stop offset="0.984375" stop-color="#06B7B7"/>
</linearGradient>
</defs>
</svg>
