<svg width="82" height="147" viewBox="0 0 82 147" fill="none" xmlns="http://www.w3.org/2000/svg">
<path d="M28.2171 120C26.4771 120 24.7595 119.689 23.1207 119.062C19.8369 117.791 17.1388 115.351 15.5452 112.211C13.9517 109.071 13.5751 105.453 14.4879 102.052L14.4092 102.014L14.8592 100.882L49.8403 10.0578C50.369 8.68902 50.1328 5.50517 49.8778 3.70887C49.7919 3.31433 49.8048 2.90469 49.9153 2.51633L49.9528 2.40007L49.9715 2.32132V2.28382L50.0315 2.18632C50.5603 0.742523 52.2779 0 55.0717 0C58.4318 0 63.0782 1.05378 67.8258 2.87259C71.8122 4.39514 75.4423 6.31145 77.9812 8.24276C80.9887 10.4891 82.2 12.5216 81.5175 14.2392L81.36 14.4755L81.2813 14.5355C81.0675 14.8467 80.8312 15.1392 80.5387 15.3755C78.9562 16.7218 76.7099 19.0468 76.3386 20.1006L41.0238 112.192L40.9262 112.174C39.7265 114.515 37.9052 116.481 35.662 117.855C33.4189 119.23 30.8405 119.96 28.2096 119.966H28.1909L28.2171 120ZM17.278 101.407L17.1805 101.662C16.1075 104.57 16.221 107.783 17.4966 110.608C18.7721 113.432 21.1074 115.642 23.9982 116.76C25.3445 117.266 26.7508 117.521 28.1796 117.521C30.549 117.53 32.8649 116.817 34.8191 115.477C36.7733 114.138 38.273 112.234 39.1187 110.021L39.2537 109.71L74.0585 19.2569C74.7823 17.3218 78.2587 14.1604 78.9412 13.5717L79.0199 13.4742C79.0799 13.4142 79.1362 13.4142 79.1362 13.3392C79.1362 13.0279 78.8249 11.9929 76.3424 10.1178C73.9385 8.30276 70.5822 6.5027 66.8321 5.07766C62.4782 3.43511 57.9855 2.38132 54.9779 2.38132C53.0241 2.38132 52.3604 2.79009 52.2629 3.02634V3.22135C52.3416 3.72762 52.9866 8.39651 52.0866 10.8003L17.2818 101.388L17.278 101.407ZM62.0244 43.8651C62.0244 43.8651 57.2018 49.4115 52.8066 51.4254C48.4115 53.4167 45.1714 52.8916 41.2038 55.1942C37.2586 57.5005 35.2673 60.7219 35.2673 60.7219L19.1943 102.521C17.4543 107.246 20.0343 112.774 24.8195 114.63C27.1243 115.497 29.6766 115.429 31.9318 114.44C34.1871 113.451 35.9667 111.621 36.8911 109.338L62.0244 43.8651ZM37.3749 93.8092C37.6183 93.7024 37.894 93.6957 38.1424 93.7904C38.3907 93.8851 38.5919 94.0737 38.7024 94.3154C38.9162 94.8442 38.7024 95.4292 38.1737 95.643C37.6449 95.8567 37.0411 95.643 36.8461 95.1142C36.7436 94.8705 36.7416 94.596 36.8406 94.3508C36.9397 94.1056 37.1318 93.9095 37.3749 93.8054V93.8092ZM32.2972 84.7826C31.536 85.1352 30.6359 84.7826 30.3059 84.0214C29.9759 83.2601 30.3059 82.3413 31.0859 82.0301C31.2662 81.9462 31.4615 81.8994 31.6602 81.8924C31.8589 81.8854 32.057 81.9184 32.2427 81.9894C32.4284 82.0604 32.5979 82.168 32.7413 82.3057C32.8847 82.4435 32.9989 82.6086 33.0773 82.7913C33.4485 83.5526 33.1148 84.3551 32.2972 84.7451V84.7826ZM33.7223 79.315C33.4232 78.6198 33.4067 77.8356 33.6763 77.1285C33.9458 76.4214 34.4802 75.8471 35.1661 75.5274C36.5911 74.9011 38.2337 75.5274 38.9162 76.9524C39.2137 77.6428 39.2314 78.4217 38.9655 79.1249C38.6996 79.8281 38.171 80.4005 37.4911 80.7213C36.7934 81.0323 36.0016 81.0572 35.2857 80.7908C34.5697 80.5243 33.9869 79.9877 33.6623 79.2962L33.7223 79.315ZM45.8539 68.0271C46.0328 67.9411 46.2271 67.8921 46.4254 67.883C46.6237 67.8739 46.8217 67.905 47.0077 67.9743C47.1936 68.0437 47.3637 68.1499 47.5076 68.2865C47.6515 68.4232 47.7664 68.5875 47.8452 68.7697C47.9291 68.9499 47.9759 69.1452 47.9829 69.3439C47.9899 69.5426 47.9569 69.7407 47.8859 69.9264C47.8149 70.1121 47.7073 70.2816 47.5696 70.425C47.4318 70.5684 47.2667 70.6826 47.0839 70.761C46.9028 70.8459 46.7062 70.8931 46.5062 70.8996C46.3062 70.9061 46.107 70.8718 45.9207 70.7989C45.7343 70.7259 45.5648 70.6157 45.4225 70.4751C45.2801 70.3345 45.1679 70.1663 45.0926 69.9809C45.0074 69.8023 44.9596 69.6082 44.952 69.4104C44.9444 69.2126 44.9773 69.0154 45.0485 68.8307C45.1198 68.6461 45.228 68.4779 45.3664 68.3365C45.5049 68.1951 45.6708 68.0835 45.8539 68.0084V68.0271ZM39.3887 61.1307C39.9175 60.9169 40.5212 61.1307 40.7162 61.6369C40.93 62.1657 40.7162 62.7695 40.21 62.9832C39.6812 63.1782 39.0774 62.9832 38.8824 62.4545C38.6687 61.9257 38.9199 61.3219 39.3887 61.1269V61.1307ZM56.2455 5.70018C56.7517 4.39139 61.2256 4.8789 66.2245 6.83271C71.2234 8.74527 74.8761 11.3629 74.3698 12.6716C73.8635 13.9992 69.3896 13.4929 64.3907 11.5766C59.3693 9.64155 55.7167 7.02397 56.2455 5.69643V5.70018Z" fill="url(#paint0_linear_117_1305)"/>
<g filter="url(#filter0_dii_117_1305)">
<path d="M72.7749 41C72.7749 41 66.0176 48.7715 59.8592 51.5932C53.7009 54.3833 49.161 53.6477 43.6017 56.874C38.0739 60.1055 35.2837 64.6192 35.2837 64.6192L12.7627 123.186C10.3246 129.807 13.9397 137.552 20.6445 140.153C23.8739 141.368 27.4501 141.273 30.6101 139.887C33.7701 138.502 36.2637 135.937 37.5589 132.739L72.7749 41ZM38.2368 110.98C38.5779 110.83 38.9641 110.821 39.3121 110.954C39.6601 111.086 39.942 111.351 40.0969 111.689C40.3964 112.43 40.0969 113.25 39.356 113.55C38.6151 113.849 37.7691 113.55 37.4959 112.809C37.3522 112.467 37.3494 112.083 37.4882 111.739C37.627 111.395 37.8961 111.121 38.2368 110.975V110.98ZM31.1221 98.3324C30.0554 98.8263 28.7943 98.3324 28.3319 97.2657C27.8695 96.1991 28.3319 94.9117 29.4249 94.4756C29.6775 94.358 29.9511 94.2924 30.2295 94.2827C30.5079 94.2729 30.7854 94.3191 31.0457 94.4186C31.3059 94.518 31.5435 94.6688 31.7443 94.8618C31.9452 95.0548 32.1053 95.2862 32.2151 95.5422C32.7353 96.6089 32.2676 97.7334 31.1221 98.2799V98.3324ZM33.1188 90.6713C32.6998 89.6972 32.6767 88.5983 33.0544 87.6076C33.4321 86.6168 34.1808 85.8121 35.1418 85.3642C37.1386 84.4867 39.4401 85.3642 40.3964 87.3609C40.8133 88.3282 40.838 89.4197 40.4655 90.4049C40.093 91.3902 39.3523 92.1922 38.3997 92.6417C37.422 93.0775 36.3125 93.1124 35.3094 92.7391C34.3063 92.3657 33.4896 91.6139 33.0348 90.645L33.1188 90.6713ZM50.1173 74.8551C50.3679 74.7345 50.6403 74.6658 50.9181 74.6531C51.1959 74.6404 51.4734 74.684 51.7339 74.7811C51.9945 74.8783 52.2328 75.0271 52.4344 75.2185C52.6361 75.41 52.797 75.6403 52.9075 75.8955C53.025 76.1481 53.0906 76.4217 53.1004 76.7001C53.1102 76.9785 53.0639 77.256 52.9645 77.5162C52.865 77.7764 52.7143 78.014 52.5212 78.2149C52.3282 78.4158 52.0968 78.5759 51.8408 78.6856C51.5869 78.8047 51.3115 78.8708 51.0313 78.8799C50.7511 78.889 50.4719 78.841 50.2108 78.7387C49.9498 78.6365 49.7123 78.4821 49.5128 78.2851C49.3133 78.0881 49.1561 77.8525 49.0506 77.5927C48.9313 77.3424 48.8642 77.0704 48.8536 76.7933C48.843 76.5161 48.889 76.2398 48.9888 75.981C49.0887 75.7223 49.2402 75.4867 49.4343 75.2886C49.6283 75.0905 49.8607 74.934 50.1173 74.8288V74.8551ZM41.0585 65.192C41.7993 64.8924 42.6453 65.192 42.9186 65.9013C43.2181 66.6422 42.9186 67.4882 42.2092 67.7877C41.4683 68.0609 40.6223 67.7877 40.3491 67.0468C40.0496 66.3059 40.4016 65.4599 41.0585 65.1867V65.192Z" fill="url(#paint1_linear_117_1305)"/>
</g>
<defs>
<filter id="filter0_dii_117_1305" x="0" y="25" width="76.7749" height="122" filterUnits="userSpaceOnUse" color-interpolation-filters="sRGB">
<feFlood flood-opacity="0" result="BackgroundImageFix"/>
<feColorMatrix in="SourceAlpha" type="matrix" values="0 0 0 0 0 0 0 0 0 0 0 0 0 0 0 0 0 0 127 0" result="hardAlpha"/>
<feOffset dx="-4" dy="-2"/>
<feGaussianBlur stdDeviation="4"/>
<feComposite in2="hardAlpha" operator="out"/>
<feColorMatrix type="matrix" values="0 0 0 0 0.920833 0 0 0 0 0.0498785 0 0 0 0 0.0498785 0 0 0 0.31 0"/>
<feBlend mode="normal" in2="BackgroundImageFix" result="effect1_dropShadow_117_1305"/>
<feBlend mode="normal" in="SourceGraphic" in2="effect1_dropShadow_117_1305" result="shape"/>
<feColorMatrix in="SourceAlpha" type="matrix" values="0 0 0 0 0 0 0 0 0 0 0 0 0 0 0 0 0 0 127 0" result="hardAlpha"/>
<feOffset dy="2"/>
<feGaussianBlur stdDeviation="1.5"/>
<feComposite in2="hardAlpha" operator="arithmetic" k2="-1" k3="1"/>
<feColorMatrix type="matrix" values="0 0 0 0 1 0 0 0 0 1 0 0 0 0 1 0 0 0 0.41 0"/>
<feBlend mode="normal" in2="shape" result="effect2_innerShadow_117_1305"/>
<feColorMatrix in="SourceAlpha" type="matrix" values="0 0 0 0 0 0 0 0 0 0 0 0 0 0 0 0 0 0 127 0" result="hardAlpha"/>
<feOffset dy="-16"/>
<feGaussianBlur stdDeviation="8"/>
<feComposite in2="hardAlpha" operator="arithmetic" k2="-1" k3="1"/>
<feColorMatrix type="matrix" values="0 0 0 0 1 0 0 0 0 1 0 0 0 0 1 0 0 0 0.4 0"/>
<feBlend mode="normal" in2="effect2_innerShadow_117_1305" result="effect3_innerShadow_117_1305"/>
</filter>
<linearGradient id="paint0_linear_117_1305" x1="47.8513" y1="0" x2="47.8513" y2="120" gradientUnits="userSpaceOnUse">
<stop stop-color="#F98787"/>
<stop offset="0.984375" stop-color="#D60303"/>
</linearGradient>
<linearGradient id="paint1_linear_117_1305" x1="42.3875" y1="41" x2="42.3875" y2="141" gradientUnits="userSpaceOnUse">
<stop stop-color="#F98787"/>
<stop offset="0.984375" stop-color="#D60303"/>
</linearGradient>
</defs>
</svg>
