<svg width="163" height="116" viewBox="0 0 163 116" fill="none" xmlns="http://www.w3.org/2000/svg">
<path d="M146.662 50.8107H146.433C147.649 51.8774 147.345 52.6385 145.52 53.0941L125.661 58.3401L143.687 82.7659C144.295 83.6798 144.448 84.3299 144.145 84.716C143.49 85.3229 142.734 85.8108 141.912 86.1577L141.862 86.1785L118.582 94.6372C103.82 99.8123 95.7546 102.629 94.3851 103.087H94.1559C92.93 103.692 91.5809 104.004 90.2141 104H90.0433H90.0516C89.3442 103.844 88.6769 103.543 88.0922 103.116C87.5075 102.688 87.0183 102.144 86.6557 101.517L86.6432 101.492C85.1209 99.5137 79.5665 89.8509 69.9801 72.5031C53.6879 76.7616 43.4876 79.3492 39.3791 80.2658C37.9343 80.8101 36.333 80.7611 34.9242 80.1297C33.5153 79.4982 32.4132 78.3355 31.858 76.8949L31.8455 76.8532L25.9078 63.8236C10.5379 30.8003 2.47233 13.2997 1.71119 11.3219C0.341702 8.27734 0.950056 6.60229 3.53625 6.29672L6.50302 6.06755C22.3452 4.85362 31.1719 4.17026 32.9831 4.01748C33.9724 3.94326 34.9652 4.10611 35.879 4.49249L35.8373 4.47583C36.5373 4.95501 37.1082 5.56753 37.5332 6.27589L37.5457 6.30089L72.9302 65.4279L117.215 54.9275L102.598 34.1518C101.531 32.6295 102.216 31.717 104.652 31.4142L125.199 28.0016C125.967 27.8306 126.768 27.8724 127.515 28.1224L127.482 28.1141C128.399 28.5933 129.165 29.2516 129.753 30.0475L129.765 30.0642L138.666 41.0229C143.535 47.0925 146.199 50.3565 146.658 50.8149L146.662 50.8107Z" fill="url(#paint0_linear_143_125)"/>
<g filter="url(#filter0_dii_143_125)">
<path d="M157.662 56.8107H157.433C158.649 57.8774 158.345 58.6385 156.52 59.0941L136.661 64.3401L154.687 88.7659C155.295 89.6798 155.448 90.3299 155.145 90.716C154.49 91.3229 153.734 91.8108 152.912 92.1577L152.862 92.1785L129.582 100.637C114.82 105.812 106.755 108.629 105.385 109.087H105.156C103.93 109.692 102.581 110.004 101.214 110H101.043H101.052C100.344 109.844 99.6769 109.543 99.0922 109.116C98.5075 108.688 98.0183 108.144 97.6557 107.517L97.6432 107.492C96.1209 105.514 90.5665 95.8509 80.9801 78.5031C64.6879 82.7616 54.4876 85.3492 50.3791 86.2658C48.9343 86.8101 47.333 86.7611 45.9242 86.1297C44.5153 85.4982 43.4132 84.3355 42.858 82.8949L42.8455 82.8532L36.9078 69.8236C21.5379 36.8003 13.4723 19.2997 12.7112 17.3219C11.3417 14.2773 11.9501 12.6023 14.5363 12.2967L17.503 12.0675C33.3452 10.8536 42.1719 10.1703 43.9831 10.0175C44.9724 9.94326 45.9652 10.1061 46.879 10.4925L46.8373 10.4758C47.5373 10.955 48.1082 11.5675 48.5332 12.2759L48.5457 12.3009L83.9302 71.4279L128.215 60.9275L113.598 40.1518C112.531 38.6295 113.216 37.717 115.652 37.4142L136.199 34.0016C136.967 33.8306 137.768 33.8724 138.515 34.1224L138.482 34.1141C139.399 34.5933 140.165 35.2516 140.753 36.0475L140.765 36.0642L149.666 47.0229C154.535 53.0925 157.199 56.3565 157.658 56.8149L157.662 56.8107Z" fill="url(#paint1_linear_143_125)"/>
</g>
<defs>
<filter id="filter0_dii_143_125" x="0" y="-6" width="162.163" height="122" filterUnits="userSpaceOnUse" color-interpolation-filters="sRGB">
<feFlood flood-opacity="0" result="BackgroundImageFix"/>
<feColorMatrix in="SourceAlpha" type="matrix" values="0 0 0 0 0 0 0 0 0 0 0 0 0 0 0 0 0 0 127 0" result="hardAlpha"/>
<feOffset dx="-4" dy="-2"/>
<feGaussianBlur stdDeviation="4"/>
<feComposite in2="hardAlpha" operator="out"/>
<feColorMatrix type="matrix" values="0 0 0 0 0.920833 0 0 0 0 0.0498785 0 0 0 0 0.0498785 0 0 0 0.31 0"/>
<feBlend mode="normal" in2="BackgroundImageFix" result="effect1_dropShadow_143_125"/>
<feBlend mode="normal" in="SourceGraphic" in2="effect1_dropShadow_143_125" result="shape"/>
<feColorMatrix in="SourceAlpha" type="matrix" values="0 0 0 0 0 0 0 0 0 0 0 0 0 0 0 0 0 0 127 0" result="hardAlpha"/>
<feOffset dy="2"/>
<feGaussianBlur stdDeviation="1.5"/>
<feComposite in2="hardAlpha" operator="arithmetic" k2="-1" k3="1"/>
<feColorMatrix type="matrix" values="0 0 0 0 1 0 0 0 0 1 0 0 0 0 1 0 0 0 0.41 0"/>
<feBlend mode="normal" in2="shape" result="effect2_innerShadow_143_125"/>
<feColorMatrix in="SourceAlpha" type="matrix" values="0 0 0 0 0 0 0 0 0 0 0 0 0 0 0 0 0 0 127 0" result="hardAlpha"/>
<feOffset dy="-16"/>
<feGaussianBlur stdDeviation="8"/>
<feComposite in2="hardAlpha" operator="arithmetic" k2="-1" k3="1"/>
<feColorMatrix type="matrix" values="0 0 0 0 1 0 0 0 0 1 0 0 0 0 1 0 0 0 0.4 0"/>
<feBlend mode="normal" in2="effect2_innerShadow_143_125" result="effect3_innerShadow_143_125"/>
</filter>
<linearGradient id="paint0_linear_143_125" x1="74.0813" y1="4" x2="74.0813" y2="104" gradientUnits="userSpaceOnUse">
<stop stop-color="#F98787"/>
<stop offset="0.984375" stop-color="#D60303"/>
</linearGradient>
<linearGradient id="paint1_linear_143_125" x1="85.0813" y1="10" x2="85.0813" y2="110" gradientUnits="userSpaceOnUse">
<stop stop-color="#F98787"/>
<stop offset="0.984375" stop-color="#D60303"/>
</linearGradient>
</defs>
</svg>
