<svg width="158" height="116" viewBox="0 0 158 116" fill="none" xmlns="http://www.w3.org/2000/svg">
<path d="M148.547 4C146.356 4.07531 147.029 4.74768 142.319 5.98484C136.992 6.56862 131.721 7.62661 126.562 9.14768C111.205 15.9951 108.123 39.399 94.1778 47.7795C83.7391 54.046 73.2143 54.5462 63.7471 57.6983C56.8816 60.1982 50.5422 64.1013 45.0859 69.1878C40.709 73.1951 40.5977 76.7183 36.0235 81.7531C31.1355 87.132 16.5881 81.8445 10 90.0743C12.1252 92.355 13.036 92.9951 17.2408 92.4034C16.3756 94.1516 11.2701 95.6308 12.2669 98.1858C13.3193 100.875 25.6657 102.72 36.8887 95.4963C42.1157 92.1398 46.2801 87.3041 54.4216 86.153C66.1089 85.4853 77.8283 86.4363 89.2848 88.9824C87.1582 94.0898 84.3459 98.8423 80.9359 103.091C80.0352 104.124 82.7423 104.237 85.8339 103.629C90.6428 102.629 95.2826 100.865 99.5971 98.3956C104.753 95.2059 105.532 87.0244 111.857 85.2548C114.157 88.1402 117.394 90.0005 120.924 90.4659C124.454 90.9313 128.02 89.9677 130.913 87.7667C125.696 86.1961 124.254 74.3892 126.015 69.1824C127.685 64.2553 129.335 56.3751 131.015 49.8665C132.821 42.8738 133.484 34.0577 135.67 30.5022C138.483 26.5379 141.884 23.0862 145.739 20.2822C147.654 18.8312 149.198 16.8949 150.231 14.649C151.264 12.4032 151.753 9.91874 151.654 7.42103C151.624 5.19413 150.541 3.95159 148.547 4.02152V4Z" fill="url(#paint0_linear_107_1085)"/>
<g filter="url(#filter0_dii_107_1085)">
<path d="M150.547 10C148.356 10.0753 149.029 10.7477 144.319 11.9848C138.992 12.5686 133.721 13.6266 128.562 15.1477C113.205 21.9951 110.123 45.399 96.1778 53.7795C85.7391 60.046 75.2143 60.5462 65.7471 63.6983C58.8816 66.1982 52.5422 70.1013 47.0859 75.1878C42.709 79.1951 42.5977 82.7183 38.0235 87.7531C33.1355 93.132 18.5881 87.8445 12 96.0743C14.1252 98.355 15.036 98.9951 19.2408 98.4034C18.3756 100.152 13.2701 101.631 14.2669 104.186C15.3193 106.875 27.6657 108.72 38.8887 101.496C44.1157 98.1398 48.2801 93.3041 56.4216 92.153C68.1089 91.4853 79.8283 92.4363 91.2848 94.9824C89.1582 100.09 86.3459 104.842 82.9359 109.091C82.0352 110.124 84.7423 110.237 87.8339 109.629C92.6428 108.629 97.2826 106.865 101.597 104.396C106.753 101.206 107.532 93.0244 113.857 91.2548C116.157 94.1402 119.394 96.0005 122.924 96.4659C126.454 96.9313 130.02 95.9677 132.913 93.7667C127.696 92.1961 126.254 80.3892 128.015 75.1824C129.685 70.2553 131.335 62.3751 133.015 55.8665C134.821 48.8738 135.484 40.0577 137.67 36.5022C140.483 32.5379 143.884 29.0862 147.739 26.2822C149.654 24.8312 151.198 22.8949 152.231 20.649C153.264 18.4032 153.753 15.9187 153.654 13.421C153.624 11.1941 152.541 9.95159 150.547 10.0215V10Z" fill="url(#paint1_linear_107_1085)"/>
</g>
<defs>
<filter id="filter0_dii_107_1085" x="0" y="-6" width="157.667" height="122" filterUnits="userSpaceOnUse" color-interpolation-filters="sRGB">
<feFlood flood-opacity="0" result="BackgroundImageFix"/>
<feColorMatrix in="SourceAlpha" type="matrix" values="0 0 0 0 0 0 0 0 0 0 0 0 0 0 0 0 0 0 127 0" result="hardAlpha"/>
<feOffset dx="-4" dy="-2"/>
<feGaussianBlur stdDeviation="4"/>
<feComposite in2="hardAlpha" operator="out"/>
<feColorMatrix type="matrix" values="0 0 0 0 0.980392 0 0 0 0 0.329412 0 0 0 0 0.333333 0 0 0 0.37 0"/>
<feBlend mode="normal" in2="BackgroundImageFix" result="effect1_dropShadow_107_1085"/>
<feBlend mode="normal" in="SourceGraphic" in2="effect1_dropShadow_107_1085" result="shape"/>
<feColorMatrix in="SourceAlpha" type="matrix" values="0 0 0 0 0 0 0 0 0 0 0 0 0 0 0 0 0 0 127 0" result="hardAlpha"/>
<feOffset dy="2"/>
<feGaussianBlur stdDeviation="1.5"/>
<feComposite in2="hardAlpha" operator="arithmetic" k2="-1" k3="1"/>
<feColorMatrix type="matrix" values="0 0 0 0 1 0 0 0 0 1 0 0 0 0 1 0 0 0 0.41 0"/>
<feBlend mode="normal" in2="shape" result="effect2_innerShadow_107_1085"/>
<feColorMatrix in="SourceAlpha" type="matrix" values="0 0 0 0 0 0 0 0 0 0 0 0 0 0 0 0 0 0 127 0" result="hardAlpha"/>
<feOffset dy="-16"/>
<feGaussianBlur stdDeviation="8"/>
<feComposite in2="hardAlpha" operator="arithmetic" k2="-1" k3="1"/>
<feColorMatrix type="matrix" values="0 0 0 0 1 0 0 0 0 1 0 0 0 0 1 0 0 0 0.4 0"/>
<feBlend mode="normal" in2="effect2_innerShadow_107_1085" result="effect3_innerShadow_107_1085"/>
</filter>
<linearGradient id="paint0_linear_107_1085" x1="80.8333" y1="4" x2="80.8333" y2="104" gradientUnits="userSpaceOnUse">
<stop stop-color="#FFDD85"/>
<stop offset="0.3125" stop-color="#FFD66D"/>
<stop offset="1" stop-color="#FF9900"/>
</linearGradient>
<linearGradient id="paint1_linear_107_1085" x1="82.8333" y1="10" x2="82.8333" y2="110" gradientUnits="userSpaceOnUse">
<stop stop-color="#FFDD85"/>
<stop offset="0.3125" stop-color="#FFD66D"/>
<stop offset="1" stop-color="#FF9900"/>
</linearGradient>
</defs>
</svg>
