<svg width="103" height="126" viewBox="0 0 103 126" fill="none" xmlns="http://www.w3.org/2000/svg">
<path d="M16.5909 42.8203C20.2309 42.8203 23.1817 39.8223 23.1817 36.1241C23.1817 32.4259 20.2309 29.4279 16.5909 29.4279C12.9508 29.4279 10 32.4259 10 36.1241C10 39.8223 12.9508 42.8203 16.5909 42.8203Z" fill="#292D32"/>
<path d="M16.5909 42.8203C20.2309 42.8203 23.1817 39.8223 23.1817 36.1241C23.1817 32.4259 20.2309 29.4279 16.5909 29.4279C12.9508 29.4279 10 32.4259 10 36.1241C10 39.8223 12.9508 42.8203 16.5909 42.8203Z" fill="url(#paint0_linear_116_425)"/>
<path d="M16.5909 61.5696C20.2309 61.5696 23.1817 58.5716 23.1817 54.8733C23.1817 51.1751 20.2309 48.1771 16.5909 48.1771C12.9508 48.1771 10 51.1751 10 54.8733C10 58.5716 12.9508 61.5696 16.5909 61.5696Z" fill="#292D32"/>
<path d="M16.5909 61.5696C20.2309 61.5696 23.1817 58.5716 23.1817 54.8733C23.1817 51.1751 20.2309 48.1771 16.5909 48.1771C12.9508 48.1771 10 51.1751 10 54.8733C10 58.5716 12.9508 61.5696 16.5909 61.5696Z" fill="url(#paint1_linear_116_425)"/>
<g opacity="0.2">
<path d="M35.0453 42.8203C38.6854 42.8203 41.6362 39.8223 41.6362 36.1241C41.6362 32.4259 38.6854 29.4279 35.0453 29.4279C31.4053 29.4279 28.4545 32.4259 28.4545 36.1241C28.4545 39.8223 31.4053 42.8203 35.0453 42.8203Z" fill="#292D32"/>
<path d="M35.0453 42.8203C38.6854 42.8203 41.6362 39.8223 41.6362 36.1241C41.6362 32.4259 38.6854 29.4279 35.0453 29.4279C31.4053 29.4279 28.4545 32.4259 28.4545 36.1241C28.4545 39.8223 31.4053 42.8203 35.0453 42.8203Z" fill="url(#paint2_linear_116_425)"/>
</g>
<path d="M35.0453 61.7519C38.6854 61.7519 41.6362 58.7539 41.6362 55.0557C41.6362 51.3575 38.6854 48.3595 35.0453 48.3595C31.4053 48.3595 28.4545 51.3575 28.4545 55.0557C28.4545 58.7539 31.4053 61.7519 35.0453 61.7519Z" fill="#292D32"/>
<path d="M35.0453 61.7519C38.6854 61.7519 41.6362 58.7539 41.6362 55.0557C41.6362 51.3575 38.6854 48.3595 35.0453 48.3595C31.4053 48.3595 28.4545 51.3575 28.4545 55.0557C28.4545 58.7539 31.4053 61.7519 35.0453 61.7519Z" fill="url(#paint3_linear_116_425)"/>
<g opacity="0.2">
<path d="M53.4998 42.8203C57.1398 42.8203 60.0907 39.8223 60.0907 36.1241C60.0907 32.4259 57.1398 29.4279 53.4998 29.4279C49.8598 29.4279 46.9089 32.4259 46.9089 36.1241C46.9089 39.8223 49.8598 42.8203 53.4998 42.8203Z" fill="#292D32"/>
<path d="M53.4998 42.8203C57.1398 42.8203 60.0907 39.8223 60.0907 36.1241C60.0907 32.4259 57.1398 29.4279 53.4998 29.4279C49.8598 29.4279 46.9089 32.4259 46.9089 36.1241C46.9089 39.8223 49.8598 42.8203 53.4998 42.8203Z" fill="url(#paint4_linear_116_425)"/>
</g>
<g opacity="0.2">
<path d="M53.4998 21.3924C57.1398 21.3924 60.0907 18.3944 60.0907 14.6962C60.0907 10.998 57.1398 8 53.4998 8C49.8598 8 46.9089 10.998 46.9089 14.6962C46.9089 18.3944 49.8598 21.3924 53.4998 21.3924Z" fill="#292D32"/>
<path d="M53.4998 21.3924C57.1398 21.3924 60.0907 18.3944 60.0907 14.6962C60.0907 10.998 57.1398 8 53.4998 8C49.8598 8 46.9089 10.998 46.9089 14.6962C46.9089 18.3944 49.8598 21.3924 53.4998 21.3924Z" fill="url(#paint5_linear_116_425)"/>
</g>
<g opacity="0.2">
<path d="M53.4998 61.7519C57.1398 61.7519 60.0907 58.7539 60.0907 55.0557C60.0907 51.3575 57.1398 48.3595 53.4998 48.3595C49.8598 48.3595 46.9089 51.3575 46.9089 55.0557C46.9089 58.7539 49.8598 61.7519 53.4998 61.7519Z" fill="#292D32"/>
<path d="M53.4998 61.7519C57.1398 61.7519 60.0907 58.7539 60.0907 55.0557C60.0907 51.3575 57.1398 48.3595 53.4998 48.3595C49.8598 48.3595 46.9089 51.3575 46.9089 55.0557C46.9089 58.7539 49.8598 61.7519 53.4998 61.7519Z" fill="url(#paint6_linear_116_425)"/>
</g>
<g opacity="0.2">
<path d="M71.9543 42.8203C75.5943 42.8203 78.5452 39.8223 78.5452 36.1241C78.5452 32.4259 75.5943 29.4279 71.9543 29.4279C68.3142 29.4279 65.3634 32.4259 65.3634 36.1241C65.3634 39.8223 68.3142 42.8203 71.9543 42.8203Z" fill="#292D32"/>
<path d="M71.9543 42.8203C75.5943 42.8203 78.5452 39.8223 78.5452 36.1241C78.5452 32.4259 75.5943 29.4279 71.9543 29.4279C68.3142 29.4279 65.3634 32.4259 65.3634 36.1241C65.3634 39.8223 68.3142 42.8203 71.9543 42.8203Z" fill="url(#paint7_linear_116_425)"/>
</g>
<path d="M90.4086 42.8203C94.0487 42.8203 96.9995 39.8223 96.9995 36.1241C96.9995 32.4259 94.0487 29.4279 90.4086 29.4279C86.7686 29.4279 83.8177 32.4259 83.8177 36.1241C83.8177 39.8223 86.7686 42.8203 90.4086 42.8203Z" fill="#292D32"/>
<path d="M90.4086 42.8203C94.0487 42.8203 96.9995 39.8223 96.9995 36.1241C96.9995 32.4259 94.0487 29.4279 90.4086 29.4279C86.7686 29.4279 83.8177 32.4259 83.8177 36.1241C83.8177 39.8223 86.7686 42.8203 90.4086 42.8203Z" fill="url(#paint8_linear_116_425)"/>
<path d="M71.9543 61.7519C75.5943 61.7519 78.5452 58.7539 78.5452 55.0557C78.5452 51.3575 75.5943 48.3595 71.9543 48.3595C68.3142 48.3595 65.3634 51.3575 65.3634 55.0557C65.3634 58.7539 68.3142 61.7519 71.9543 61.7519Z" fill="#292D32"/>
<path d="M71.9543 61.7519C75.5943 61.7519 78.5452 58.7539 78.5452 55.0557C78.5452 51.3575 75.5943 48.3595 71.9543 48.3595C68.3142 48.3595 65.3634 51.3575 65.3634 55.0557C65.3634 58.7539 68.3142 61.7519 71.9543 61.7519Z" fill="url(#paint9_linear_116_425)"/>
<path d="M90.4086 61.7519C94.0487 61.7519 96.9995 58.7539 96.9995 55.0557C96.9995 51.3575 94.0487 48.3595 90.4086 48.3595C86.7686 48.3595 83.8177 51.3575 83.8177 55.0557C83.8177 58.7539 86.7686 61.7519 90.4086 61.7519Z" fill="#292D32"/>
<path d="M90.4086 61.7519C94.0487 61.7519 96.9995 58.7539 96.9995 55.0557C96.9995 51.3575 94.0487 48.3595 90.4086 48.3595C86.7686 48.3595 83.8177 51.3575 83.8177 55.0557C83.8177 58.7539 86.7686 61.7519 90.4086 61.7519Z" fill="url(#paint10_linear_116_425)"/>
<path d="M16.5909 80.3193C20.2309 80.3193 23.1817 77.3213 23.1817 73.6231C23.1817 69.9249 20.2309 66.9269 16.5909 66.9269C12.9508 66.9269 10 69.9249 10 73.6231C10 77.3213 12.9508 80.3193 16.5909 80.3193Z" fill="#292D32"/>
<path d="M16.5909 80.3193C20.2309 80.3193 23.1817 77.3213 23.1817 73.6231C23.1817 69.9249 20.2309 66.9269 16.5909 66.9269C12.9508 66.9269 10 69.9249 10 73.6231C10 77.3213 12.9508 80.3193 16.5909 80.3193Z" fill="url(#paint11_linear_116_425)"/>
<g opacity="0.2">
<path d="M35.0453 80.5012C38.6854 80.5012 41.6362 77.5032 41.6362 73.805C41.6362 70.1068 38.6854 67.1088 35.0453 67.1088C31.4053 67.1088 28.4545 70.1068 28.4545 73.805C28.4545 77.5032 31.4053 80.5012 35.0453 80.5012Z" fill="#292D32"/>
<path d="M35.0453 80.5012C38.6854 80.5012 41.6362 77.5032 41.6362 73.805C41.6362 70.1068 38.6854 67.1088 35.0453 67.1088C31.4053 67.1088 28.4545 70.1068 28.4545 73.805C28.4545 77.5032 31.4053 80.5012 35.0453 80.5012Z" fill="url(#paint12_linear_116_425)"/>
</g>
<path d="M53.4998 80.5012C57.1398 80.5012 60.0907 77.5032 60.0907 73.805C60.0907 70.1068 57.1398 67.1088 53.4998 67.1088C49.8598 67.1088 46.9089 70.1068 46.9089 73.805C46.9089 77.5032 49.8598 80.5012 53.4998 80.5012Z" fill="#292D32"/>
<path d="M53.4998 80.5012C57.1398 80.5012 60.0907 77.5032 60.0907 73.805C60.0907 70.1068 57.1398 67.1088 53.4998 67.1088C49.8598 67.1088 46.9089 70.1068 46.9089 73.805C46.9089 77.5032 49.8598 80.5012 53.4998 80.5012Z" fill="url(#paint13_linear_116_425)"/>
<g opacity="0.2">
<path d="M71.9543 80.5012C75.5943 80.5012 78.5452 77.5032 78.5452 73.805C78.5452 70.1068 75.5943 67.1088 71.9543 67.1088C68.3142 67.1088 65.3634 70.1068 65.3634 73.805C65.3634 77.5032 68.3142 80.5012 71.9543 80.5012Z" fill="#292D32"/>
<path d="M71.9543 80.5012C75.5943 80.5012 78.5452 77.5032 78.5452 73.805C78.5452 70.1068 75.5943 67.1088 71.9543 67.1088C68.3142 67.1088 65.3634 70.1068 65.3634 73.805C65.3634 77.5032 68.3142 80.5012 71.9543 80.5012Z" fill="url(#paint14_linear_116_425)"/>
</g>
<path d="M90.4086 80.5012C94.0487 80.5012 96.9995 77.5032 96.9995 73.805C96.9995 70.1068 94.0487 67.1088 90.4086 67.1088C86.7686 67.1088 83.8177 70.1068 83.8177 73.805C83.8177 77.5032 86.7686 80.5012 90.4086 80.5012Z" fill="#292D32"/>
<path d="M90.4086 80.5012C94.0487 80.5012 96.9995 77.5032 96.9995 73.805C96.9995 70.1068 94.0487 67.1088 90.4086 67.1088C86.7686 67.1088 83.8177 70.1068 83.8177 73.805C83.8177 77.5032 86.7686 80.5012 90.4086 80.5012Z" fill="url(#paint15_linear_116_425)"/>
<path d="M16.5909 99.0686C20.2309 99.0686 23.1817 96.0706 23.1817 92.3724C23.1817 88.6742 20.2309 85.6761 16.5909 85.6761C12.9508 85.6761 10 88.6742 10 92.3724C10 96.0706 12.9508 99.0686 16.5909 99.0686Z" fill="#292D32"/>
<path d="M16.5909 99.0686C20.2309 99.0686 23.1817 96.0706 23.1817 92.3724C23.1817 88.6742 20.2309 85.6761 16.5909 85.6761C12.9508 85.6761 10 88.6742 10 92.3724C10 96.0706 12.9508 99.0686 16.5909 99.0686Z" fill="url(#paint16_linear_116_425)"/>
<g opacity="0.2">
<path d="M35.0453 99.2505C38.6854 99.2505 41.6362 96.2525 41.6362 92.5543C41.6362 88.856 38.6854 85.858 35.0453 85.858C31.4053 85.858 28.4545 88.856 28.4545 92.5543C28.4545 96.2525 31.4053 99.2505 35.0453 99.2505Z" fill="#292D32"/>
<path d="M35.0453 99.2505C38.6854 99.2505 41.6362 96.2525 41.6362 92.5543C41.6362 88.856 38.6854 85.858 35.0453 85.858C31.4053 85.858 28.4545 88.856 28.4545 92.5543C28.4545 96.2525 31.4053 99.2505 35.0453 99.2505Z" fill="url(#paint17_linear_116_425)"/>
</g>
<g opacity="0.2">
<path d="M53.4998 99.2505C57.1398 99.2505 60.0907 96.2525 60.0907 92.5543C60.0907 88.856 57.1398 85.858 53.4998 85.858C49.8598 85.858 46.9089 88.856 46.9089 92.5543C46.9089 96.2525 49.8598 99.2505 53.4998 99.2505Z" fill="#292D32"/>
<path d="M53.4998 99.2505C57.1398 99.2505 60.0907 96.2525 60.0907 92.5543C60.0907 88.856 57.1398 85.858 53.4998 85.858C49.8598 85.858 46.9089 88.856 46.9089 92.5543C46.9089 96.2525 49.8598 99.2505 53.4998 99.2505Z" fill="url(#paint18_linear_116_425)"/>
</g>
<g opacity="0.2">
<path d="M53.4998 118C57.1398 118 60.0907 115.002 60.0907 111.304C60.0907 107.605 57.1398 104.607 53.4998 104.607C49.8598 104.607 46.9089 107.605 46.9089 111.304C46.9089 115.002 49.8598 118 53.4998 118Z" fill="#292D32"/>
<path d="M53.4998 118C57.1398 118 60.0907 115.002 60.0907 111.304C60.0907 107.605 57.1398 104.607 53.4998 104.607C49.8598 104.607 46.9089 107.605 46.9089 111.304C46.9089 115.002 49.8598 118 53.4998 118Z" fill="url(#paint19_linear_116_425)"/>
</g>
<g opacity="0.2">
<path d="M71.9543 99.2505C75.5943 99.2505 78.5452 96.2525 78.5452 92.5543C78.5452 88.856 75.5943 85.858 71.9543 85.858C68.3142 85.858 65.3634 88.856 65.3634 92.5543C65.3634 96.2525 68.3142 99.2505 71.9543 99.2505Z" fill="#292D32"/>
<path d="M71.9543 99.2505C75.5943 99.2505 78.5452 96.2525 78.5452 92.5543C78.5452 88.856 75.5943 85.858 71.9543 85.858C68.3142 85.858 65.3634 88.856 65.3634 92.5543C65.3634 96.2525 68.3142 99.2505 71.9543 99.2505Z" fill="url(#paint20_linear_116_425)"/>
</g>
<path d="M90.4086 99.2505C94.0487 99.2505 96.9995 96.2525 96.9995 92.5543C96.9995 88.856 94.0487 85.858 90.4086 85.858C86.7686 85.858 83.8177 88.856 83.8177 92.5543C83.8177 96.2525 86.7686 99.2505 90.4086 99.2505Z" fill="#292D32"/>
<path d="M90.4086 99.2505C94.0487 99.2505 96.9995 96.2525 96.9995 92.5543C96.9995 88.856 94.0487 85.858 90.4086 85.858C86.7686 85.858 83.8177 88.856 83.8177 92.5543C83.8177 96.2525 86.7686 99.2505 90.4086 99.2505Z" fill="url(#paint21_linear_116_425)"/>
<g filter="url(#filter0_dii_116_425)">
<path d="M18.5909 44.8203C22.2309 44.8203 25.1817 41.8223 25.1817 38.1241C25.1817 34.4259 22.2309 31.4279 18.5909 31.4279C14.9508 31.4279 12 34.4259 12 38.1241C12 41.8223 14.9508 44.8203 18.5909 44.8203Z" fill="#292D32"/>
<path d="M18.5909 44.8203C22.2309 44.8203 25.1817 41.8223 25.1817 38.1241C25.1817 34.4259 22.2309 31.4279 18.5909 31.4279C14.9508 31.4279 12 34.4259 12 38.1241C12 41.8223 14.9508 44.8203 18.5909 44.8203Z" fill="url(#paint22_linear_116_425)"/>
<path d="M18.5909 63.5696C22.2309 63.5696 25.1817 60.5716 25.1817 56.8733C25.1817 53.1751 22.2309 50.1771 18.5909 50.1771C14.9508 50.1771 12 53.1751 12 56.8733C12 60.5716 14.9508 63.5696 18.5909 63.5696Z" fill="#292D32"/>
<path d="M18.5909 63.5696C22.2309 63.5696 25.1817 60.5716 25.1817 56.8733C25.1817 53.1751 22.2309 50.1771 18.5909 50.1771C14.9508 50.1771 12 53.1751 12 56.8733C12 60.5716 14.9508 63.5696 18.5909 63.5696Z" fill="url(#paint23_linear_116_425)"/>
<g opacity="0.2">
<path d="M37.0453 44.8203C40.6854 44.8203 43.6362 41.8223 43.6362 38.1241C43.6362 34.4259 40.6854 31.4279 37.0453 31.4279C33.4053 31.4279 30.4545 34.4259 30.4545 38.1241C30.4545 41.8223 33.4053 44.8203 37.0453 44.8203Z" fill="#292D32"/>
<path d="M37.0453 44.8203C40.6854 44.8203 43.6362 41.8223 43.6362 38.1241C43.6362 34.4259 40.6854 31.4279 37.0453 31.4279C33.4053 31.4279 30.4545 34.4259 30.4545 38.1241C30.4545 41.8223 33.4053 44.8203 37.0453 44.8203Z" fill="url(#paint24_linear_116_425)"/>
</g>
<path d="M37.0453 63.7519C40.6854 63.7519 43.6362 60.7539 43.6362 57.0557C43.6362 53.3575 40.6854 50.3595 37.0453 50.3595C33.4053 50.3595 30.4545 53.3575 30.4545 57.0557C30.4545 60.7539 33.4053 63.7519 37.0453 63.7519Z" fill="#292D32"/>
<path d="M37.0453 63.7519C40.6854 63.7519 43.6362 60.7539 43.6362 57.0557C43.6362 53.3575 40.6854 50.3595 37.0453 50.3595C33.4053 50.3595 30.4545 53.3575 30.4545 57.0557C30.4545 60.7539 33.4053 63.7519 37.0453 63.7519Z" fill="url(#paint25_linear_116_425)"/>
<g opacity="0.2">
<path d="M55.4998 44.8203C59.1398 44.8203 62.0907 41.8223 62.0907 38.1241C62.0907 34.4259 59.1398 31.4279 55.4998 31.4279C51.8598 31.4279 48.9089 34.4259 48.9089 38.1241C48.9089 41.8223 51.8598 44.8203 55.4998 44.8203Z" fill="#292D32"/>
<path d="M55.4998 44.8203C59.1398 44.8203 62.0907 41.8223 62.0907 38.1241C62.0907 34.4259 59.1398 31.4279 55.4998 31.4279C51.8598 31.4279 48.9089 34.4259 48.9089 38.1241C48.9089 41.8223 51.8598 44.8203 55.4998 44.8203Z" fill="url(#paint26_linear_116_425)"/>
</g>
<g opacity="0.2">
<path d="M55.4998 23.3924C59.1398 23.3924 62.0907 20.3944 62.0907 16.6962C62.0907 12.998 59.1398 10 55.4998 10C51.8598 10 48.9089 12.998 48.9089 16.6962C48.9089 20.3944 51.8598 23.3924 55.4998 23.3924Z" fill="#292D32"/>
<path d="M55.4998 23.3924C59.1398 23.3924 62.0907 20.3944 62.0907 16.6962C62.0907 12.998 59.1398 10 55.4998 10C51.8598 10 48.9089 12.998 48.9089 16.6962C48.9089 20.3944 51.8598 23.3924 55.4998 23.3924Z" fill="url(#paint27_linear_116_425)"/>
</g>
<g opacity="0.2">
<path d="M55.4998 63.7519C59.1398 63.7519 62.0907 60.7539 62.0907 57.0557C62.0907 53.3575 59.1398 50.3595 55.4998 50.3595C51.8598 50.3595 48.9089 53.3575 48.9089 57.0557C48.9089 60.7539 51.8598 63.7519 55.4998 63.7519Z" fill="#292D32"/>
<path d="M55.4998 63.7519C59.1398 63.7519 62.0907 60.7539 62.0907 57.0557C62.0907 53.3575 59.1398 50.3595 55.4998 50.3595C51.8598 50.3595 48.9089 53.3575 48.9089 57.0557C48.9089 60.7539 51.8598 63.7519 55.4998 63.7519Z" fill="url(#paint28_linear_116_425)"/>
</g>
<g opacity="0.2">
<path d="M73.9543 44.8203C77.5943 44.8203 80.5452 41.8223 80.5452 38.1241C80.5452 34.4259 77.5943 31.4279 73.9543 31.4279C70.3142 31.4279 67.3634 34.4259 67.3634 38.1241C67.3634 41.8223 70.3142 44.8203 73.9543 44.8203Z" fill="#292D32"/>
<path d="M73.9543 44.8203C77.5943 44.8203 80.5452 41.8223 80.5452 38.1241C80.5452 34.4259 77.5943 31.4279 73.9543 31.4279C70.3142 31.4279 67.3634 34.4259 67.3634 38.1241C67.3634 41.8223 70.3142 44.8203 73.9543 44.8203Z" fill="url(#paint29_linear_116_425)"/>
</g>
<path d="M92.4086 44.8203C96.0487 44.8203 98.9995 41.8223 98.9995 38.1241C98.9995 34.4259 96.0487 31.4279 92.4086 31.4279C88.7686 31.4279 85.8177 34.4259 85.8177 38.1241C85.8177 41.8223 88.7686 44.8203 92.4086 44.8203Z" fill="#292D32"/>
<path d="M92.4086 44.8203C96.0487 44.8203 98.9995 41.8223 98.9995 38.1241C98.9995 34.4259 96.0487 31.4279 92.4086 31.4279C88.7686 31.4279 85.8177 34.4259 85.8177 38.1241C85.8177 41.8223 88.7686 44.8203 92.4086 44.8203Z" fill="url(#paint30_linear_116_425)"/>
<path d="M73.9543 63.7519C77.5943 63.7519 80.5452 60.7539 80.5452 57.0557C80.5452 53.3575 77.5943 50.3595 73.9543 50.3595C70.3142 50.3595 67.3634 53.3575 67.3634 57.0557C67.3634 60.7539 70.3142 63.7519 73.9543 63.7519Z" fill="#292D32"/>
<path d="M73.9543 63.7519C77.5943 63.7519 80.5452 60.7539 80.5452 57.0557C80.5452 53.3575 77.5943 50.3595 73.9543 50.3595C70.3142 50.3595 67.3634 53.3575 67.3634 57.0557C67.3634 60.7539 70.3142 63.7519 73.9543 63.7519Z" fill="url(#paint31_linear_116_425)"/>
<path d="M92.4086 63.7519C96.0487 63.7519 98.9995 60.7539 98.9995 57.0557C98.9995 53.3575 96.0487 50.3595 92.4086 50.3595C88.7686 50.3595 85.8177 53.3575 85.8177 57.0557C85.8177 60.7539 88.7686 63.7519 92.4086 63.7519Z" fill="#292D32"/>
<path d="M92.4086 63.7519C96.0487 63.7519 98.9995 60.7539 98.9995 57.0557C98.9995 53.3575 96.0487 50.3595 92.4086 50.3595C88.7686 50.3595 85.8177 53.3575 85.8177 57.0557C85.8177 60.7539 88.7686 63.7519 92.4086 63.7519Z" fill="url(#paint32_linear_116_425)"/>
<path d="M18.5909 82.3193C22.2309 82.3193 25.1817 79.3213 25.1817 75.6231C25.1817 71.9249 22.2309 68.9269 18.5909 68.9269C14.9508 68.9269 12 71.9249 12 75.6231C12 79.3213 14.9508 82.3193 18.5909 82.3193Z" fill="#292D32"/>
<path d="M18.5909 82.3193C22.2309 82.3193 25.1817 79.3213 25.1817 75.6231C25.1817 71.9249 22.2309 68.9269 18.5909 68.9269C14.9508 68.9269 12 71.9249 12 75.6231C12 79.3213 14.9508 82.3193 18.5909 82.3193Z" fill="url(#paint33_linear_116_425)"/>
<g opacity="0.2">
<path d="M37.0453 82.5012C40.6854 82.5012 43.6362 79.5032 43.6362 75.805C43.6362 72.1068 40.6854 69.1088 37.0453 69.1088C33.4053 69.1088 30.4545 72.1068 30.4545 75.805C30.4545 79.5032 33.4053 82.5012 37.0453 82.5012Z" fill="#292D32"/>
<path d="M37.0453 82.5012C40.6854 82.5012 43.6362 79.5032 43.6362 75.805C43.6362 72.1068 40.6854 69.1088 37.0453 69.1088C33.4053 69.1088 30.4545 72.1068 30.4545 75.805C30.4545 79.5032 33.4053 82.5012 37.0453 82.5012Z" fill="url(#paint34_linear_116_425)"/>
</g>
<path d="M55.4998 82.5012C59.1398 82.5012 62.0907 79.5032 62.0907 75.805C62.0907 72.1068 59.1398 69.1088 55.4998 69.1088C51.8598 69.1088 48.9089 72.1068 48.9089 75.805C48.9089 79.5032 51.8598 82.5012 55.4998 82.5012Z" fill="#292D32"/>
<path d="M55.4998 82.5012C59.1398 82.5012 62.0907 79.5032 62.0907 75.805C62.0907 72.1068 59.1398 69.1088 55.4998 69.1088C51.8598 69.1088 48.9089 72.1068 48.9089 75.805C48.9089 79.5032 51.8598 82.5012 55.4998 82.5012Z" fill="url(#paint35_linear_116_425)"/>
<g opacity="0.2">
<path d="M73.9543 82.5012C77.5943 82.5012 80.5452 79.5032 80.5452 75.805C80.5452 72.1068 77.5943 69.1088 73.9543 69.1088C70.3142 69.1088 67.3634 72.1068 67.3634 75.805C67.3634 79.5032 70.3142 82.5012 73.9543 82.5012Z" fill="#292D32"/>
<path d="M73.9543 82.5012C77.5943 82.5012 80.5452 79.5032 80.5452 75.805C80.5452 72.1068 77.5943 69.1088 73.9543 69.1088C70.3142 69.1088 67.3634 72.1068 67.3634 75.805C67.3634 79.5032 70.3142 82.5012 73.9543 82.5012Z" fill="url(#paint36_linear_116_425)"/>
</g>
<path d="M92.4086 82.5012C96.0487 82.5012 98.9995 79.5032 98.9995 75.805C98.9995 72.1068 96.0487 69.1088 92.4086 69.1088C88.7686 69.1088 85.8177 72.1068 85.8177 75.805C85.8177 79.5032 88.7686 82.5012 92.4086 82.5012Z" fill="#292D32"/>
<path d="M92.4086 82.5012C96.0487 82.5012 98.9995 79.5032 98.9995 75.805C98.9995 72.1068 96.0487 69.1088 92.4086 69.1088C88.7686 69.1088 85.8177 72.1068 85.8177 75.805C85.8177 79.5032 88.7686 82.5012 92.4086 82.5012Z" fill="url(#paint37_linear_116_425)"/>
<path d="M18.5909 101.069C22.2309 101.069 25.1817 98.0706 25.1817 94.3724C25.1817 90.6742 22.2309 87.6761 18.5909 87.6761C14.9508 87.6761 12 90.6742 12 94.3724C12 98.0706 14.9508 101.069 18.5909 101.069Z" fill="#292D32"/>
<path d="M18.5909 101.069C22.2309 101.069 25.1817 98.0706 25.1817 94.3724C25.1817 90.6742 22.2309 87.6761 18.5909 87.6761C14.9508 87.6761 12 90.6742 12 94.3724C12 98.0706 14.9508 101.069 18.5909 101.069Z" fill="url(#paint38_linear_116_425)"/>
<g opacity="0.2">
<path d="M37.0453 101.25C40.6854 101.25 43.6362 98.2525 43.6362 94.5543C43.6362 90.856 40.6854 87.858 37.0453 87.858C33.4053 87.858 30.4545 90.856 30.4545 94.5543C30.4545 98.2525 33.4053 101.25 37.0453 101.25Z" fill="#292D32"/>
<path d="M37.0453 101.25C40.6854 101.25 43.6362 98.2525 43.6362 94.5543C43.6362 90.856 40.6854 87.858 37.0453 87.858C33.4053 87.858 30.4545 90.856 30.4545 94.5543C30.4545 98.2525 33.4053 101.25 37.0453 101.25Z" fill="url(#paint39_linear_116_425)"/>
</g>
<g opacity="0.2">
<path d="M55.4998 101.25C59.1398 101.25 62.0907 98.2525 62.0907 94.5543C62.0907 90.856 59.1398 87.858 55.4998 87.858C51.8598 87.858 48.9089 90.856 48.9089 94.5543C48.9089 98.2525 51.8598 101.25 55.4998 101.25Z" fill="#292D32"/>
<path d="M55.4998 101.25C59.1398 101.25 62.0907 98.2525 62.0907 94.5543C62.0907 90.856 59.1398 87.858 55.4998 87.858C51.8598 87.858 48.9089 90.856 48.9089 94.5543C48.9089 98.2525 51.8598 101.25 55.4998 101.25Z" fill="url(#paint40_linear_116_425)"/>
</g>
<g opacity="0.2">
<path d="M55.4998 120C59.1398 120 62.0907 117.002 62.0907 113.304C62.0907 109.605 59.1398 106.607 55.4998 106.607C51.8598 106.607 48.9089 109.605 48.9089 113.304C48.9089 117.002 51.8598 120 55.4998 120Z" fill="#292D32"/>
<path d="M55.4998 120C59.1398 120 62.0907 117.002 62.0907 113.304C62.0907 109.605 59.1398 106.607 55.4998 106.607C51.8598 106.607 48.9089 109.605 48.9089 113.304C48.9089 117.002 51.8598 120 55.4998 120Z" fill="url(#paint41_linear_116_425)"/>
</g>
<g opacity="0.2">
<path d="M73.9543 101.25C77.5943 101.25 80.5452 98.2525 80.5452 94.5543C80.5452 90.856 77.5943 87.858 73.9543 87.858C70.3142 87.858 67.3634 90.856 67.3634 94.5543C67.3634 98.2525 70.3142 101.25 73.9543 101.25Z" fill="#292D32"/>
<path d="M73.9543 101.25C77.5943 101.25 80.5452 98.2525 80.5452 94.5543C80.5452 90.856 77.5943 87.858 73.9543 87.858C70.3142 87.858 67.3634 90.856 67.3634 94.5543C67.3634 98.2525 70.3142 101.25 73.9543 101.25Z" fill="url(#paint42_linear_116_425)"/>
</g>
<path d="M92.4086 101.25C96.0487 101.25 98.9995 98.2525 98.9995 94.5543C98.9995 90.856 96.0487 87.858 92.4086 87.858C88.7686 87.858 85.8177 90.856 85.8177 94.5543C85.8177 98.2525 88.7686 101.25 92.4086 101.25Z" fill="#292D32"/>
<path d="M92.4086 101.25C96.0487 101.25 98.9995 98.2525 98.9995 94.5543C98.9995 90.856 96.0487 87.858 92.4086 87.858C88.7686 87.858 85.8177 90.856 85.8177 94.5543C85.8177 98.2525 88.7686 101.25 92.4086 101.25Z" fill="url(#paint43_linear_116_425)"/>
</g>
<defs>
<filter id="filter0_dii_116_425" x="0" y="-6" width="103" height="132" filterUnits="userSpaceOnUse" color-interpolation-filters="sRGB">
<feFlood flood-opacity="0" result="BackgroundImageFix"/>
<feColorMatrix in="SourceAlpha" type="matrix" values="0 0 0 0 0 0 0 0 0 0 0 0 0 0 0 0 0 0 127 0" result="hardAlpha"/>
<feOffset dx="-4" dy="-2"/>
<feGaussianBlur stdDeviation="4"/>
<feComposite in2="hardAlpha" operator="out"/>
<feColorMatrix type="matrix" values="0 0 0 0 0.117647 0 0 0 0 0.494118 0 0 0 0 0.929412 0 0 0 0.56 0"/>
<feBlend mode="normal" in2="BackgroundImageFix" result="effect1_dropShadow_116_425"/>
<feBlend mode="normal" in="SourceGraphic" in2="effect1_dropShadow_116_425" result="shape"/>
<feColorMatrix in="SourceAlpha" type="matrix" values="0 0 0 0 0 0 0 0 0 0 0 0 0 0 0 0 0 0 127 0" result="hardAlpha"/>
<feOffset dy="2"/>
<feGaussianBlur stdDeviation="1.5"/>
<feComposite in2="hardAlpha" operator="arithmetic" k2="-1" k3="1"/>
<feColorMatrix type="matrix" values="0 0 0 0 1 0 0 0 0 1 0 0 0 0 1 0 0 0 0.41 0"/>
<feBlend mode="normal" in2="shape" result="effect2_innerShadow_116_425"/>
<feColorMatrix in="SourceAlpha" type="matrix" values="0 0 0 0 0 0 0 0 0 0 0 0 0 0 0 0 0 0 127 0" result="hardAlpha"/>
<feOffset dy="-16"/>
<feGaussianBlur stdDeviation="12"/>
<feComposite in2="hardAlpha" operator="arithmetic" k2="-1" k3="1"/>
<feColorMatrix type="matrix" values="0 0 0 0 1 0 0 0 0 1 0 0 0 0 1 0 0 0 0.45 0"/>
<feBlend mode="normal" in2="effect2_innerShadow_116_425" result="effect3_innerShadow_116_425"/>
</filter>
<linearGradient id="paint0_linear_116_425" x1="16.5909" y1="29.4279" x2="16.5909" y2="42.8203" gradientUnits="userSpaceOnUse">
<stop stop-color="#3AC8F0"/>
<stop offset="0.0001" stop-color="#45D5EE"/>
<stop offset="0.442708" stop-color="#2498F7"/>
<stop offset="0.9999" stop-color="#005FFC"/>
<stop offset="1" stop-color="#3AC8F0" stop-opacity="0"/>
<stop offset="1" stop-color="#3AC8F0" stop-opacity="0"/>
<stop offset="1" stop-color="#3AC8F0" stop-opacity="0"/>
</linearGradient>
<linearGradient id="paint1_linear_116_425" x1="16.5909" y1="48.1771" x2="16.5909" y2="61.5696" gradientUnits="userSpaceOnUse">
<stop stop-color="#3AC8F0"/>
<stop offset="0.0001" stop-color="#45D5EE"/>
<stop offset="0.442708" stop-color="#2498F7"/>
<stop offset="0.9999" stop-color="#005FFC"/>
<stop offset="1" stop-color="#3AC8F0" stop-opacity="0"/>
<stop offset="1" stop-color="#3AC8F0" stop-opacity="0"/>
<stop offset="1" stop-color="#3AC8F0" stop-opacity="0"/>
</linearGradient>
<linearGradient id="paint2_linear_116_425" x1="35.0453" y1="29.4279" x2="35.0453" y2="42.8203" gradientUnits="userSpaceOnUse">
<stop stop-color="#3AC8F0"/>
<stop offset="0.0001" stop-color="#45D5EE"/>
<stop offset="0.442708" stop-color="#2498F7"/>
<stop offset="0.9999" stop-color="#005FFC"/>
<stop offset="1" stop-color="#3AC8F0" stop-opacity="0"/>
<stop offset="1" stop-color="#3AC8F0" stop-opacity="0"/>
<stop offset="1" stop-color="#3AC8F0" stop-opacity="0"/>
</linearGradient>
<linearGradient id="paint3_linear_116_425" x1="35.0453" y1="48.3595" x2="35.0453" y2="61.7519" gradientUnits="userSpaceOnUse">
<stop stop-color="#3AC8F0"/>
<stop offset="0.0001" stop-color="#45D5EE"/>
<stop offset="0.442708" stop-color="#2498F7"/>
<stop offset="0.9999" stop-color="#005FFC"/>
<stop offset="1" stop-color="#3AC8F0" stop-opacity="0"/>
<stop offset="1" stop-color="#3AC8F0" stop-opacity="0"/>
<stop offset="1" stop-color="#3AC8F0" stop-opacity="0"/>
</linearGradient>
<linearGradient id="paint4_linear_116_425" x1="53.4998" y1="29.4279" x2="53.4998" y2="42.8203" gradientUnits="userSpaceOnUse">
<stop stop-color="#3AC8F0"/>
<stop offset="0.0001" stop-color="#45D5EE"/>
<stop offset="0.442708" stop-color="#2498F7"/>
<stop offset="0.9999" stop-color="#005FFC"/>
<stop offset="1" stop-color="#3AC8F0" stop-opacity="0"/>
<stop offset="1" stop-color="#3AC8F0" stop-opacity="0"/>
<stop offset="1" stop-color="#3AC8F0" stop-opacity="0"/>
</linearGradient>
<linearGradient id="paint5_linear_116_425" x1="53.4998" y1="8" x2="53.4998" y2="21.3924" gradientUnits="userSpaceOnUse">
<stop stop-color="#3AC8F0"/>
<stop offset="0.0001" stop-color="#45D5EE"/>
<stop offset="0.442708" stop-color="#2498F7"/>
<stop offset="0.9999" stop-color="#005FFC"/>
<stop offset="1" stop-color="#3AC8F0" stop-opacity="0"/>
<stop offset="1" stop-color="#3AC8F0" stop-opacity="0"/>
<stop offset="1" stop-color="#3AC8F0" stop-opacity="0"/>
</linearGradient>
<linearGradient id="paint6_linear_116_425" x1="53.4998" y1="48.3595" x2="53.4998" y2="61.7519" gradientUnits="userSpaceOnUse">
<stop stop-color="#3AC8F0"/>
<stop offset="0.0001" stop-color="#45D5EE"/>
<stop offset="0.442708" stop-color="#2498F7"/>
<stop offset="0.9999" stop-color="#005FFC"/>
<stop offset="1" stop-color="#3AC8F0" stop-opacity="0"/>
<stop offset="1" stop-color="#3AC8F0" stop-opacity="0"/>
<stop offset="1" stop-color="#3AC8F0" stop-opacity="0"/>
</linearGradient>
<linearGradient id="paint7_linear_116_425" x1="71.9543" y1="29.4279" x2="71.9543" y2="42.8203" gradientUnits="userSpaceOnUse">
<stop stop-color="#3AC8F0"/>
<stop offset="0.0001" stop-color="#45D5EE"/>
<stop offset="0.442708" stop-color="#2498F7"/>
<stop offset="0.9999" stop-color="#005FFC"/>
<stop offset="1" stop-color="#3AC8F0" stop-opacity="0"/>
<stop offset="1" stop-color="#3AC8F0" stop-opacity="0"/>
<stop offset="1" stop-color="#3AC8F0" stop-opacity="0"/>
</linearGradient>
<linearGradient id="paint8_linear_116_425" x1="90.4086" y1="29.4279" x2="90.4086" y2="42.8203" gradientUnits="userSpaceOnUse">
<stop stop-color="#3AC8F0"/>
<stop offset="0.0001" stop-color="#45D5EE"/>
<stop offset="0.442708" stop-color="#2498F7"/>
<stop offset="0.9999" stop-color="#005FFC"/>
<stop offset="1" stop-color="#3AC8F0" stop-opacity="0"/>
<stop offset="1" stop-color="#3AC8F0" stop-opacity="0"/>
<stop offset="1" stop-color="#3AC8F0" stop-opacity="0"/>
</linearGradient>
<linearGradient id="paint9_linear_116_425" x1="71.9543" y1="48.3595" x2="71.9543" y2="61.7519" gradientUnits="userSpaceOnUse">
<stop stop-color="#3AC8F0"/>
<stop offset="0.0001" stop-color="#45D5EE"/>
<stop offset="0.442708" stop-color="#2498F7"/>
<stop offset="0.9999" stop-color="#005FFC"/>
<stop offset="1" stop-color="#3AC8F0" stop-opacity="0"/>
<stop offset="1" stop-color="#3AC8F0" stop-opacity="0"/>
<stop offset="1" stop-color="#3AC8F0" stop-opacity="0"/>
</linearGradient>
<linearGradient id="paint10_linear_116_425" x1="90.4086" y1="48.3595" x2="90.4086" y2="61.7519" gradientUnits="userSpaceOnUse">
<stop stop-color="#3AC8F0"/>
<stop offset="0.0001" stop-color="#45D5EE"/>
<stop offset="0.442708" stop-color="#2498F7"/>
<stop offset="0.9999" stop-color="#005FFC"/>
<stop offset="1" stop-color="#3AC8F0" stop-opacity="0"/>
<stop offset="1" stop-color="#3AC8F0" stop-opacity="0"/>
<stop offset="1" stop-color="#3AC8F0" stop-opacity="0"/>
</linearGradient>
<linearGradient id="paint11_linear_116_425" x1="16.5909" y1="66.9269" x2="16.5909" y2="80.3193" gradientUnits="userSpaceOnUse">
<stop stop-color="#3AC8F0"/>
<stop offset="0.0001" stop-color="#45D5EE"/>
<stop offset="0.442708" stop-color="#2498F7"/>
<stop offset="0.9999" stop-color="#005FFC"/>
<stop offset="1" stop-color="#3AC8F0" stop-opacity="0"/>
<stop offset="1" stop-color="#3AC8F0" stop-opacity="0"/>
<stop offset="1" stop-color="#3AC8F0" stop-opacity="0"/>
</linearGradient>
<linearGradient id="paint12_linear_116_425" x1="35.0453" y1="67.1088" x2="35.0453" y2="80.5012" gradientUnits="userSpaceOnUse">
<stop stop-color="#3AC8F0"/>
<stop offset="0.0001" stop-color="#45D5EE"/>
<stop offset="0.442708" stop-color="#2498F7"/>
<stop offset="0.9999" stop-color="#005FFC"/>
<stop offset="1" stop-color="#3AC8F0" stop-opacity="0"/>
<stop offset="1" stop-color="#3AC8F0" stop-opacity="0"/>
<stop offset="1" stop-color="#3AC8F0" stop-opacity="0"/>
</linearGradient>
<linearGradient id="paint13_linear_116_425" x1="53.4998" y1="67.1088" x2="53.4998" y2="80.5012" gradientUnits="userSpaceOnUse">
<stop stop-color="#3AC8F0"/>
<stop offset="0.0001" stop-color="#45D5EE"/>
<stop offset="0.442708" stop-color="#2498F7"/>
<stop offset="0.9999" stop-color="#005FFC"/>
<stop offset="1" stop-color="#3AC8F0" stop-opacity="0"/>
<stop offset="1" stop-color="#3AC8F0" stop-opacity="0"/>
<stop offset="1" stop-color="#3AC8F0" stop-opacity="0"/>
</linearGradient>
<linearGradient id="paint14_linear_116_425" x1="71.9543" y1="67.1088" x2="71.9543" y2="80.5012" gradientUnits="userSpaceOnUse">
<stop stop-color="#3AC8F0"/>
<stop offset="0.0001" stop-color="#45D5EE"/>
<stop offset="0.442708" stop-color="#2498F7"/>
<stop offset="0.9999" stop-color="#005FFC"/>
<stop offset="1" stop-color="#3AC8F0" stop-opacity="0"/>
<stop offset="1" stop-color="#3AC8F0" stop-opacity="0"/>
<stop offset="1" stop-color="#3AC8F0" stop-opacity="0"/>
</linearGradient>
<linearGradient id="paint15_linear_116_425" x1="90.4086" y1="67.1088" x2="90.4086" y2="80.5012" gradientUnits="userSpaceOnUse">
<stop stop-color="#3AC8F0"/>
<stop offset="0.0001" stop-color="#45D5EE"/>
<stop offset="0.442708" stop-color="#2498F7"/>
<stop offset="0.9999" stop-color="#005FFC"/>
<stop offset="1" stop-color="#3AC8F0" stop-opacity="0"/>
<stop offset="1" stop-color="#3AC8F0" stop-opacity="0"/>
<stop offset="1" stop-color="#3AC8F0" stop-opacity="0"/>
</linearGradient>
<linearGradient id="paint16_linear_116_425" x1="16.5909" y1="85.6761" x2="16.5909" y2="99.0686" gradientUnits="userSpaceOnUse">
<stop stop-color="#3AC8F0"/>
<stop offset="0.0001" stop-color="#45D5EE"/>
<stop offset="0.442708" stop-color="#2498F7"/>
<stop offset="0.9999" stop-color="#005FFC"/>
<stop offset="1" stop-color="#3AC8F0" stop-opacity="0"/>
<stop offset="1" stop-color="#3AC8F0" stop-opacity="0"/>
<stop offset="1" stop-color="#3AC8F0" stop-opacity="0"/>
</linearGradient>
<linearGradient id="paint17_linear_116_425" x1="35.0453" y1="85.858" x2="35.0453" y2="99.2505" gradientUnits="userSpaceOnUse">
<stop stop-color="#3AC8F0"/>
<stop offset="0.0001" stop-color="#45D5EE"/>
<stop offset="0.442708" stop-color="#2498F7"/>
<stop offset="0.9999" stop-color="#005FFC"/>
<stop offset="1" stop-color="#3AC8F0" stop-opacity="0"/>
<stop offset="1" stop-color="#3AC8F0" stop-opacity="0"/>
<stop offset="1" stop-color="#3AC8F0" stop-opacity="0"/>
</linearGradient>
<linearGradient id="paint18_linear_116_425" x1="53.4998" y1="85.858" x2="53.4998" y2="99.2505" gradientUnits="userSpaceOnUse">
<stop stop-color="#3AC8F0"/>
<stop offset="0.0001" stop-color="#45D5EE"/>
<stop offset="0.442708" stop-color="#2498F7"/>
<stop offset="0.9999" stop-color="#005FFC"/>
<stop offset="1" stop-color="#3AC8F0" stop-opacity="0"/>
<stop offset="1" stop-color="#3AC8F0" stop-opacity="0"/>
<stop offset="1" stop-color="#3AC8F0" stop-opacity="0"/>
</linearGradient>
<linearGradient id="paint19_linear_116_425" x1="53.4998" y1="104.607" x2="53.4998" y2="118" gradientUnits="userSpaceOnUse">
<stop stop-color="#3AC8F0"/>
<stop offset="0.0001" stop-color="#45D5EE"/>
<stop offset="0.442708" stop-color="#2498F7"/>
<stop offset="0.9999" stop-color="#005FFC"/>
<stop offset="1" stop-color="#3AC8F0" stop-opacity="0"/>
<stop offset="1" stop-color="#3AC8F0" stop-opacity="0"/>
<stop offset="1" stop-color="#3AC8F0" stop-opacity="0"/>
</linearGradient>
<linearGradient id="paint20_linear_116_425" x1="71.9543" y1="85.858" x2="71.9543" y2="99.2505" gradientUnits="userSpaceOnUse">
<stop stop-color="#3AC8F0"/>
<stop offset="0.0001" stop-color="#45D5EE"/>
<stop offset="0.442708" stop-color="#2498F7"/>
<stop offset="0.9999" stop-color="#005FFC"/>
<stop offset="1" stop-color="#3AC8F0" stop-opacity="0"/>
<stop offset="1" stop-color="#3AC8F0" stop-opacity="0"/>
<stop offset="1" stop-color="#3AC8F0" stop-opacity="0"/>
</linearGradient>
<linearGradient id="paint21_linear_116_425" x1="90.4086" y1="85.858" x2="90.4086" y2="99.2505" gradientUnits="userSpaceOnUse">
<stop stop-color="#3AC8F0"/>
<stop offset="0.0001" stop-color="#45D5EE"/>
<stop offset="0.442708" stop-color="#2498F7"/>
<stop offset="0.9999" stop-color="#005FFC"/>
<stop offset="1" stop-color="#3AC8F0" stop-opacity="0"/>
<stop offset="1" stop-color="#3AC8F0" stop-opacity="0"/>
<stop offset="1" stop-color="#3AC8F0" stop-opacity="0"/>
</linearGradient>
<linearGradient id="paint22_linear_116_425" x1="18.5909" y1="31.4279" x2="18.5909" y2="44.8203" gradientUnits="userSpaceOnUse">
<stop stop-color="#3AC8F0"/>
<stop offset="0.0001" stop-color="#45D5EE"/>
<stop offset="0.442708" stop-color="#2498F7"/>
<stop offset="0.9999" stop-color="#005FFC"/>
<stop offset="1" stop-color="#3AC8F0" stop-opacity="0"/>
<stop offset="1" stop-color="#3AC8F0" stop-opacity="0"/>
<stop offset="1" stop-color="#3AC8F0" stop-opacity="0"/>
</linearGradient>
<linearGradient id="paint23_linear_116_425" x1="18.5909" y1="50.1771" x2="18.5909" y2="63.5696" gradientUnits="userSpaceOnUse">
<stop stop-color="#3AC8F0"/>
<stop offset="0.0001" stop-color="#45D5EE"/>
<stop offset="0.442708" stop-color="#2498F7"/>
<stop offset="0.9999" stop-color="#005FFC"/>
<stop offset="1" stop-color="#3AC8F0" stop-opacity="0"/>
<stop offset="1" stop-color="#3AC8F0" stop-opacity="0"/>
<stop offset="1" stop-color="#3AC8F0" stop-opacity="0"/>
</linearGradient>
<linearGradient id="paint24_linear_116_425" x1="37.0453" y1="31.4279" x2="37.0453" y2="44.8203" gradientUnits="userSpaceOnUse">
<stop stop-color="#3AC8F0"/>
<stop offset="0.0001" stop-color="#45D5EE"/>
<stop offset="0.442708" stop-color="#2498F7"/>
<stop offset="0.9999" stop-color="#005FFC"/>
<stop offset="1" stop-color="#3AC8F0" stop-opacity="0"/>
<stop offset="1" stop-color="#3AC8F0" stop-opacity="0"/>
<stop offset="1" stop-color="#3AC8F0" stop-opacity="0"/>
</linearGradient>
<linearGradient id="paint25_linear_116_425" x1="37.0453" y1="50.3595" x2="37.0453" y2="63.7519" gradientUnits="userSpaceOnUse">
<stop stop-color="#3AC8F0"/>
<stop offset="0.0001" stop-color="#45D5EE"/>
<stop offset="0.442708" stop-color="#2498F7"/>
<stop offset="0.9999" stop-color="#005FFC"/>
<stop offset="1" stop-color="#3AC8F0" stop-opacity="0"/>
<stop offset="1" stop-color="#3AC8F0" stop-opacity="0"/>
<stop offset="1" stop-color="#3AC8F0" stop-opacity="0"/>
</linearGradient>
<linearGradient id="paint26_linear_116_425" x1="55.4998" y1="31.4279" x2="55.4998" y2="44.8203" gradientUnits="userSpaceOnUse">
<stop stop-color="#3AC8F0"/>
<stop offset="0.0001" stop-color="#45D5EE"/>
<stop offset="0.442708" stop-color="#2498F7"/>
<stop offset="0.9999" stop-color="#005FFC"/>
<stop offset="1" stop-color="#3AC8F0" stop-opacity="0"/>
<stop offset="1" stop-color="#3AC8F0" stop-opacity="0"/>
<stop offset="1" stop-color="#3AC8F0" stop-opacity="0"/>
</linearGradient>
<linearGradient id="paint27_linear_116_425" x1="55.4998" y1="10" x2="55.4998" y2="23.3924" gradientUnits="userSpaceOnUse">
<stop stop-color="#3AC8F0"/>
<stop offset="0.0001" stop-color="#45D5EE"/>
<stop offset="0.442708" stop-color="#2498F7"/>
<stop offset="0.9999" stop-color="#005FFC"/>
<stop offset="1" stop-color="#3AC8F0" stop-opacity="0"/>
<stop offset="1" stop-color="#3AC8F0" stop-opacity="0"/>
<stop offset="1" stop-color="#3AC8F0" stop-opacity="0"/>
</linearGradient>
<linearGradient id="paint28_linear_116_425" x1="55.4998" y1="50.3595" x2="55.4998" y2="63.7519" gradientUnits="userSpaceOnUse">
<stop stop-color="#3AC8F0"/>
<stop offset="0.0001" stop-color="#45D5EE"/>
<stop offset="0.442708" stop-color="#2498F7"/>
<stop offset="0.9999" stop-color="#005FFC"/>
<stop offset="1" stop-color="#3AC8F0" stop-opacity="0"/>
<stop offset="1" stop-color="#3AC8F0" stop-opacity="0"/>
<stop offset="1" stop-color="#3AC8F0" stop-opacity="0"/>
</linearGradient>
<linearGradient id="paint29_linear_116_425" x1="73.9543" y1="31.4279" x2="73.9543" y2="44.8203" gradientUnits="userSpaceOnUse">
<stop stop-color="#3AC8F0"/>
<stop offset="0.0001" stop-color="#45D5EE"/>
<stop offset="0.442708" stop-color="#2498F7"/>
<stop offset="0.9999" stop-color="#005FFC"/>
<stop offset="1" stop-color="#3AC8F0" stop-opacity="0"/>
<stop offset="1" stop-color="#3AC8F0" stop-opacity="0"/>
<stop offset="1" stop-color="#3AC8F0" stop-opacity="0"/>
</linearGradient>
<linearGradient id="paint30_linear_116_425" x1="92.4086" y1="31.4279" x2="92.4086" y2="44.8203" gradientUnits="userSpaceOnUse">
<stop stop-color="#3AC8F0"/>
<stop offset="0.0001" stop-color="#45D5EE"/>
<stop offset="0.442708" stop-color="#2498F7"/>
<stop offset="0.9999" stop-color="#005FFC"/>
<stop offset="1" stop-color="#3AC8F0" stop-opacity="0"/>
<stop offset="1" stop-color="#3AC8F0" stop-opacity="0"/>
<stop offset="1" stop-color="#3AC8F0" stop-opacity="0"/>
</linearGradient>
<linearGradient id="paint31_linear_116_425" x1="73.9543" y1="50.3595" x2="73.9543" y2="63.7519" gradientUnits="userSpaceOnUse">
<stop stop-color="#3AC8F0"/>
<stop offset="0.0001" stop-color="#45D5EE"/>
<stop offset="0.442708" stop-color="#2498F7"/>
<stop offset="0.9999" stop-color="#005FFC"/>
<stop offset="1" stop-color="#3AC8F0" stop-opacity="0"/>
<stop offset="1" stop-color="#3AC8F0" stop-opacity="0"/>
<stop offset="1" stop-color="#3AC8F0" stop-opacity="0"/>
</linearGradient>
<linearGradient id="paint32_linear_116_425" x1="92.4086" y1="50.3595" x2="92.4086" y2="63.7519" gradientUnits="userSpaceOnUse">
<stop stop-color="#3AC8F0"/>
<stop offset="0.0001" stop-color="#45D5EE"/>
<stop offset="0.442708" stop-color="#2498F7"/>
<stop offset="0.9999" stop-color="#005FFC"/>
<stop offset="1" stop-color="#3AC8F0" stop-opacity="0"/>
<stop offset="1" stop-color="#3AC8F0" stop-opacity="0"/>
<stop offset="1" stop-color="#3AC8F0" stop-opacity="0"/>
</linearGradient>
<linearGradient id="paint33_linear_116_425" x1="18.5909" y1="68.9269" x2="18.5909" y2="82.3193" gradientUnits="userSpaceOnUse">
<stop stop-color="#3AC8F0"/>
<stop offset="0.0001" stop-color="#45D5EE"/>
<stop offset="0.442708" stop-color="#2498F7"/>
<stop offset="0.9999" stop-color="#005FFC"/>
<stop offset="1" stop-color="#3AC8F0" stop-opacity="0"/>
<stop offset="1" stop-color="#3AC8F0" stop-opacity="0"/>
<stop offset="1" stop-color="#3AC8F0" stop-opacity="0"/>
</linearGradient>
<linearGradient id="paint34_linear_116_425" x1="37.0453" y1="69.1088" x2="37.0453" y2="82.5012" gradientUnits="userSpaceOnUse">
<stop stop-color="#3AC8F0"/>
<stop offset="0.0001" stop-color="#45D5EE"/>
<stop offset="0.442708" stop-color="#2498F7"/>
<stop offset="0.9999" stop-color="#005FFC"/>
<stop offset="1" stop-color="#3AC8F0" stop-opacity="0"/>
<stop offset="1" stop-color="#3AC8F0" stop-opacity="0"/>
<stop offset="1" stop-color="#3AC8F0" stop-opacity="0"/>
</linearGradient>
<linearGradient id="paint35_linear_116_425" x1="55.4998" y1="69.1088" x2="55.4998" y2="82.5012" gradientUnits="userSpaceOnUse">
<stop stop-color="#3AC8F0"/>
<stop offset="0.0001" stop-color="#45D5EE"/>
<stop offset="0.442708" stop-color="#2498F7"/>
<stop offset="0.9999" stop-color="#005FFC"/>
<stop offset="1" stop-color="#3AC8F0" stop-opacity="0"/>
<stop offset="1" stop-color="#3AC8F0" stop-opacity="0"/>
<stop offset="1" stop-color="#3AC8F0" stop-opacity="0"/>
</linearGradient>
<linearGradient id="paint36_linear_116_425" x1="73.9543" y1="69.1088" x2="73.9543" y2="82.5012" gradientUnits="userSpaceOnUse">
<stop stop-color="#3AC8F0"/>
<stop offset="0.0001" stop-color="#45D5EE"/>
<stop offset="0.442708" stop-color="#2498F7"/>
<stop offset="0.9999" stop-color="#005FFC"/>
<stop offset="1" stop-color="#3AC8F0" stop-opacity="0"/>
<stop offset="1" stop-color="#3AC8F0" stop-opacity="0"/>
<stop offset="1" stop-color="#3AC8F0" stop-opacity="0"/>
</linearGradient>
<linearGradient id="paint37_linear_116_425" x1="92.4086" y1="69.1088" x2="92.4086" y2="82.5012" gradientUnits="userSpaceOnUse">
<stop stop-color="#3AC8F0"/>
<stop offset="0.0001" stop-color="#45D5EE"/>
<stop offset="0.442708" stop-color="#2498F7"/>
<stop offset="0.9999" stop-color="#005FFC"/>
<stop offset="1" stop-color="#3AC8F0" stop-opacity="0"/>
<stop offset="1" stop-color="#3AC8F0" stop-opacity="0"/>
<stop offset="1" stop-color="#3AC8F0" stop-opacity="0"/>
</linearGradient>
<linearGradient id="paint38_linear_116_425" x1="18.5909" y1="87.6761" x2="18.5909" y2="101.069" gradientUnits="userSpaceOnUse">
<stop stop-color="#3AC8F0"/>
<stop offset="0.0001" stop-color="#45D5EE"/>
<stop offset="0.442708" stop-color="#2498F7"/>
<stop offset="0.9999" stop-color="#005FFC"/>
<stop offset="1" stop-color="#3AC8F0" stop-opacity="0"/>
<stop offset="1" stop-color="#3AC8F0" stop-opacity="0"/>
<stop offset="1" stop-color="#3AC8F0" stop-opacity="0"/>
</linearGradient>
<linearGradient id="paint39_linear_116_425" x1="37.0453" y1="87.858" x2="37.0453" y2="101.25" gradientUnits="userSpaceOnUse">
<stop stop-color="#3AC8F0"/>
<stop offset="0.0001" stop-color="#45D5EE"/>
<stop offset="0.442708" stop-color="#2498F7"/>
<stop offset="0.9999" stop-color="#005FFC"/>
<stop offset="1" stop-color="#3AC8F0" stop-opacity="0"/>
<stop offset="1" stop-color="#3AC8F0" stop-opacity="0"/>
<stop offset="1" stop-color="#3AC8F0" stop-opacity="0"/>
</linearGradient>
<linearGradient id="paint40_linear_116_425" x1="55.4998" y1="87.858" x2="55.4998" y2="101.25" gradientUnits="userSpaceOnUse">
<stop stop-color="#3AC8F0"/>
<stop offset="0.0001" stop-color="#45D5EE"/>
<stop offset="0.442708" stop-color="#2498F7"/>
<stop offset="0.9999" stop-color="#005FFC"/>
<stop offset="1" stop-color="#3AC8F0" stop-opacity="0"/>
<stop offset="1" stop-color="#3AC8F0" stop-opacity="0"/>
<stop offset="1" stop-color="#3AC8F0" stop-opacity="0"/>
</linearGradient>
<linearGradient id="paint41_linear_116_425" x1="55.4998" y1="106.607" x2="55.4998" y2="120" gradientUnits="userSpaceOnUse">
<stop stop-color="#3AC8F0"/>
<stop offset="0.0001" stop-color="#45D5EE"/>
<stop offset="0.442708" stop-color="#2498F7"/>
<stop offset="0.9999" stop-color="#005FFC"/>
<stop offset="1" stop-color="#3AC8F0" stop-opacity="0"/>
<stop offset="1" stop-color="#3AC8F0" stop-opacity="0"/>
<stop offset="1" stop-color="#3AC8F0" stop-opacity="0"/>
</linearGradient>
<linearGradient id="paint42_linear_116_425" x1="73.9543" y1="87.858" x2="73.9543" y2="101.25" gradientUnits="userSpaceOnUse">
<stop stop-color="#3AC8F0"/>
<stop offset="0.0001" stop-color="#45D5EE"/>
<stop offset="0.442708" stop-color="#2498F7"/>
<stop offset="0.9999" stop-color="#005FFC"/>
<stop offset="1" stop-color="#3AC8F0" stop-opacity="0"/>
<stop offset="1" stop-color="#3AC8F0" stop-opacity="0"/>
<stop offset="1" stop-color="#3AC8F0" stop-opacity="0"/>
</linearGradient>
<linearGradient id="paint43_linear_116_425" x1="92.4086" y1="87.858" x2="92.4086" y2="101.25" gradientUnits="userSpaceOnUse">
<stop stop-color="#3AC8F0"/>
<stop offset="0.0001" stop-color="#45D5EE"/>
<stop offset="0.442708" stop-color="#2498F7"/>
<stop offset="0.9999" stop-color="#005FFC"/>
<stop offset="1" stop-color="#3AC8F0" stop-opacity="0"/>
<stop offset="1" stop-color="#3AC8F0" stop-opacity="0"/>
<stop offset="1" stop-color="#3AC8F0" stop-opacity="0"/>
</linearGradient>
</defs>
</svg>
