<svg width="70" height="132" viewBox="0 0 70 132" fill="none" xmlns="http://www.w3.org/2000/svg">
<path d="M38.4388 15.3748C33.4025 9.39936 29.0656 3.33026 28.1796 2.07C28.1585 2.04788 28.1332 2.03027 28.1051 2.01824C28.0771 2.0062 28.0468 2 28.0163 2C27.9858 2 27.9555 2.0062 27.9275 2.01824C27.8994 2.03027 27.8741 2.04788 27.853 2.07C26.967 3.33048 22.6301 9.39936 17.5936 15.3748C-25.6351 70.5077 24.4023 107.715 24.4023 107.715L24.8219 107.995C25.1948 113.737 26.1277 122 26.1277 122H29.8583C29.8583 122 30.7907 113.784 31.1639 107.995L31.5837 107.668C31.6303 107.715 81.6677 70.508 38.4388 15.3748ZM27.9929 106.874C27.9929 106.874 25.7545 104.96 25.1482 103.98V103.887L27.853 43.8518C27.853 43.6651 28.133 43.6651 28.133 43.8518L30.8376 103.887V103.98C30.2313 104.96 27.9929 106.874 27.9929 106.874V106.874Z" fill="url(#paint0_linear_104_418)"/>
<rect x="25" y="43" width="6" height="64" fill="url(#paint1_linear_104_418)"/>
<g filter="url(#filter0_dii_104_418)">
<path d="M49.4388 19.3748C44.4025 13.3994 40.0656 7.33026 39.1796 6.07C39.1585 6.04788 39.1332 6.03027 39.1051 6.01824C39.0771 6.0062 39.0468 6 39.0163 6C38.9858 6 38.9555 6.0062 38.9275 6.01824C38.8994 6.03027 38.8741 6.04788 38.853 6.07C37.967 7.33048 33.6301 13.3994 28.5936 19.3748C-14.6351 74.5077 35.4023 111.715 35.4023 111.715L35.8219 111.995C36.1948 117.737 37.1277 126 37.1277 126H40.8583C40.8583 126 41.7907 117.784 42.1639 111.995L42.5837 111.668C42.6303 111.715 92.6677 74.508 49.4388 19.3748ZM38.9929 110.874C38.9929 110.874 36.7545 108.96 36.1482 107.98V107.887L38.853 47.8518C38.853 47.6651 39.133 47.6651 39.133 47.8518L41.8376 107.887V107.98C41.2313 108.96 38.9929 110.874 38.9929 110.874V110.874Z" fill="url(#paint2_linear_104_418)"/>
<path d="M40.5128 124.572C40.4712 124.955 40.4367 125.269 40.4111 125.5H37.5751C37.5495 125.268 37.5148 124.952 37.4732 124.565C37.38 123.702 37.2519 122.491 37.1121 121.101C36.8324 118.319 36.5067 114.824 36.3208 111.962L36.3048 111.716L36.0995 111.579L35.6912 111.306L35.6681 111.289C35.6454 111.272 35.6111 111.246 35.5656 111.21C35.4747 111.14 35.3394 111.034 35.1641 110.894C34.8133 110.612 34.3024 110.19 33.6662 109.632C32.3937 108.517 30.6209 106.861 28.6268 104.7C24.6369 100.379 19.7695 94.0506 16.245 86.0187C12.722 77.9901 10.5413 68.2611 11.9166 57.1234C13.2916 45.9878 18.2252 33.4108 28.9817 19.6902C33.6646 14.1336 37.7415 8.50048 39.0163 6.70521C40.2911 8.50031 44.368 14.1336 49.0507 19.6902C59.8072 33.4109 64.7409 45.9879 66.1152 57.1227C67.4898 68.2597 65.3076 77.9873 61.7818 86.0128C58.2545 94.0418 53.3829 100.365 49.3867 104.68C47.3894 106.837 45.613 108.49 44.3365 109.6C43.6983 110.155 43.1856 110.574 42.8332 110.853C42.7593 110.911 42.6926 110.963 42.6333 111.009L42.6257 111.002L42.2764 111.274L41.8566 111.601L41.6794 111.739L41.6649 111.963C41.4789 114.848 41.1533 118.342 40.8737 121.118C40.734 122.505 40.6059 123.712 40.5128 124.572ZM42.3371 107.864L39.6328 47.8369C39.6289 47.6601 39.5559 47.4927 39.4215 47.3731C39.2925 47.2584 39.1346 47.2118 38.993 47.2118C38.8514 47.2118 38.6935 47.2584 38.5645 47.3731C38.4301 47.4927 38.3571 47.6601 38.3532 47.8369L35.6487 107.864L35.6482 107.875V107.887V107.98V108.122L35.723 108.243C36.0662 108.798 36.8276 109.565 37.4543 110.158C37.7769 110.463 38.0797 110.737 38.3017 110.934C38.3748 110.999 38.4392 111.055 38.4929 111.102V111.96L39.3178 111.254L38.9929 110.874L39.3179 111.254L39.318 111.254L39.3184 111.254L39.3198 111.253L39.325 111.248L39.3446 111.231L39.4183 111.168C39.4819 111.112 39.573 111.033 39.6841 110.934C39.9061 110.737 40.2089 110.463 40.5315 110.158C41.1582 109.565 41.9195 108.798 42.2628 108.243L42.3376 108.122V107.98V107.887V107.875L42.3371 107.864Z" stroke="white" stroke-opacity="0.4"/>
</g>
<defs>
<filter id="filter0_dii_104_418" x="1" y="-10" width="68.0312" height="142" filterUnits="userSpaceOnUse" color-interpolation-filters="sRGB">
<feFlood flood-opacity="0" result="BackgroundImageFix"/>
<feColorMatrix in="SourceAlpha" type="matrix" values="0 0 0 0 0 0 0 0 0 0 0 0 0 0 0 0 0 0 127 0" result="hardAlpha"/>
<feOffset dx="-4"/>
<feGaussianBlur stdDeviation="3"/>
<feComposite in2="hardAlpha" operator="out"/>
<feColorMatrix type="matrix" values="0 0 0 0 0.120417 0 0 0 0 0.85 0 0 0 0 0.500842 0 0 0 0.46 0"/>
<feBlend mode="normal" in2="BackgroundImageFix" result="effect1_dropShadow_104_418"/>
<feBlend mode="normal" in="SourceGraphic" in2="effect1_dropShadow_104_418" result="shape"/>
<feColorMatrix in="SourceAlpha" type="matrix" values="0 0 0 0 0 0 0 0 0 0 0 0 0 0 0 0 0 0 127 0" result="hardAlpha"/>
<feOffset dy="2"/>
<feGaussianBlur stdDeviation="1.5"/>
<feComposite in2="hardAlpha" operator="arithmetic" k2="-1" k3="1"/>
<feColorMatrix type="matrix" values="0 0 0 0 1 0 0 0 0 1 0 0 0 0 1 0 0 0 0.41 0"/>
<feBlend mode="normal" in2="shape" result="effect2_innerShadow_104_418"/>
<feColorMatrix in="SourceAlpha" type="matrix" values="0 0 0 0 0 0 0 0 0 0 0 0 0 0 0 0 0 0 127 0" result="hardAlpha"/>
<feOffset dy="-16"/>
<feGaussianBlur stdDeviation="8"/>
<feComposite in2="hardAlpha" operator="arithmetic" k2="-1" k3="1"/>
<feColorMatrix type="matrix" values="0 0 0 0 1 0 0 0 0 1 0 0 0 0 1 0 0 0 0.4 0"/>
<feBlend mode="normal" in2="effect2_innerShadow_104_418" result="effect3_innerShadow_104_418"/>
</filter>
<linearGradient id="paint0_linear_104_418" x1="28.0156" y1="2" x2="28.0156" y2="122" gradientUnits="userSpaceOnUse">
<stop stop-color="#73F6B1"/>
<stop offset="1" stop-color="#04934A"/>
</linearGradient>
<linearGradient id="paint1_linear_104_418" x1="28" y1="43" x2="28" y2="107" gradientUnits="userSpaceOnUse">
<stop stop-color="#4DD48D"/>
<stop offset="1" stop-color="#119E56"/>
</linearGradient>
<linearGradient id="paint2_linear_104_418" x1="39.0156" y1="6" x2="39.0156" y2="126" gradientUnits="userSpaceOnUse">
<stop stop-color="#73F6B1"/>
<stop offset="1" stop-color="#04934A"/>
</linearGradient>
</defs>
</svg>
