<svg width="117" height="126" viewBox="0 0 117 126" fill="none" xmlns="http://www.w3.org/2000/svg">
<path d="M23.8173 19.6781C23.8603 19.5514 23.9041 19.4818 23.9041 19.4818C23.9064 19.4905 23.9088 19.4992 23.9112 19.5079C24.253 18.9802 25.2404 18.0188 26.0445 17.456C28.5103 15.7235 32.5115 13.7206 37.6585 11.6261C41.458 10.0861 47.375 7.95489 47.7416 8.00073C47.9112 8.02364 47.9433 8.09239 48.255 9.20612C48.9215 11.4935 49.7329 13.7362 50.6841 15.9206C52.3141 19.5553 54.1142 23.1112 56.0786 26.5767L56.4422 27.2097C59.7874 27.7265 63.1239 28.2977 66.4505 28.9233C77.1432 31.0499 85.5993 33.8869 92.1167 37.5398C96.8604 40.1935 100.733 43.4201 103.928 47.3754C105.028 48.7321 105.935 50.0108 107.274 52.0824L107.503 52.4491L105.986 52.6828C95.0614 54.3548 82.5994 56.1695 70.4853 59.4349L70.9925 60.621C68.2838 61.4094 68.0775 61.4781 68.0134 61.524C67.9916 61.7546 68.0102 61.9872 68.0684 62.2114C68.5127 64.7975 68.7928 67.409 68.9071 70.0305C68.9936 72.985 68.9691 75.9418 68.8338 78.8945C68.3938 84.6785 67.7155 89.5551 66.8446 93.2171C65.4055 99.2579 62.7335 106.334 59.0394 113.878C57.9531 116.101 57.0136 117.87 56.8852 117.958C56.8073 118.013 55.1848 118.013 53.9657 117.967C47.9525 117.738 37.0397 116.188 31.3886 114.758C27.997 113.906 23.4825 112.384 20.8013 111.211C15.5535 108.901 11.0389 105.509 8.77024 102.173C6.99194 99.5604 6.54736 96.7279 7.46401 93.9321C7.97733 92.3784 9.16898 90.3618 10.6906 88.4643C12.0135 86.8923 13.4753 85.4427 15.0585 84.1331C15.1286 84.0767 15.1986 84.0203 15.2687 83.9638L15.1318 84.0094C26.4066 74.7421 33.7123 66.4051 37.1772 58.8473C39.1114 54.6262 39.9043 50.9962 39.8034 46.8713C39.6384 40.441 37.8556 35.7798 33.7535 31.0453C32.8461 30.0003 25.4441 22.7771 25.4441 22.7771C24.7383 22.0988 24.0966 21.4572 23.8858 20.9255C23.7911 20.6913 23.7493 20.4777 23.7385 20.2908L23.7116 20.2655C23.7103 20.0734 23.7429 19.8826 23.8079 19.7018C23.8107 19.6941 23.8139 19.6862 23.8173 19.6781Z" fill="url(#paint0_linear_113_235)"/>
<g filter="url(#filter0_dii_113_235)">
<path d="M28.9041 21.4818C28.9041 21.4818 28.5375 22.0638 28.8858 22.9255C29.0966 23.4572 29.7383 24.0988 30.4441 24.7771C30.4441 24.7771 37.8461 32.0003 38.7535 33.0453C42.8556 37.7798 44.6384 42.441 44.8034 48.8713C44.9043 52.9962 44.1114 56.6262 42.1772 60.8473C38.7123 68.4051 31.4066 76.7421 20.1318 86.0094L21.7818 85.4594C22.8497 84.6665 24.2934 83.814 27.7033 81.9486C35.5544 77.6587 44.368 73.7079 55.1983 69.638C70.7767 63.7852 96.4017 56.9149 110.986 54.6828L112.503 54.4491L112.274 54.0824C110.935 52.0108 110.028 50.7321 108.928 49.3754C105.733 45.4201 101.86 42.1935 97.1167 39.5398C90.5993 35.8869 82.1432 33.0499 71.4505 30.9233C68.1128 30.2956 64.765 29.7227 61.4086 29.2046C55.4045 28.2838 49.4094 27.306 43.4239 26.2713C41.476 25.9275 38.5656 25.4417 36.6361 25.0246C35.1481 24.7085 33.6779 24.3138 32.2316 23.8421C31.0033 23.3609 29.2754 22.8934 28.9041 21.4818ZM33.1941 25.648C33.2078 25.6388 33.4828 25.7259 33.822 25.8404C34.4453 26.0513 35.2703 26.2988 36.2328 26.5692C36.9019 26.7525 37.6398 26.9542 38.4281 27.1513C39.4273 27.4079 40.2569 27.6279 40.266 27.6417C40.376 27.7654 42.0581 33.1324 42.631 35.1903C42.851 35.9786 43.016 36.634 43.0022 36.6478C42.8425 36.449 42.7042 36.2339 42.5897 36.0061C40.6464 32.587 37.5619 29.1083 34.0007 26.3079C33.7239 26.0979 33.4548 25.8777 33.1941 25.648ZM41.3981 27.9121C41.6996 27.9409 41.9984 27.993 42.2918 28.0679C45.1289 28.6912 50.1979 29.672 53.452 30.222C53.9974 30.3137 54.442 30.4054 54.442 30.4375C54.3092 30.5566 54.1574 30.6527 53.9929 30.7216C53.4475 30.9966 51.2337 32.3212 50.4958 32.8162C48.8103 33.9232 47.2301 35.1827 45.7751 36.579C45.4816 36.88 45.1806 37.1734 44.8722 37.459C44.7935 37.2548 44.7307 37.0449 44.6843 36.8311C43.906 34.0395 42.9099 31.3133 41.7052 28.6775C41.5842 28.431 41.4756 28.1786 41.3798 27.9212C41.3798 27.9167 41.3797 27.9121 41.3981 27.9121ZM55.8216 30.6529C55.9132 30.6849 56.0966 31.2487 56.4128 32.5045C57.1433 35.4657 57.3802 38.5272 57.1141 41.5656L57.0591 41.7398L56.202 41.4648C53.8279 40.721 51.4412 40.0182 49.0429 39.3565C48.1763 39.1347 47.32 38.8747 46.4763 38.5773C46.4763 38.4765 48.5342 36.4186 49.4188 35.6349C51.11 34.1407 55.6612 30.6024 55.8216 30.6529ZM56.9674 30.8179C57.0178 30.772 63.8606 31.9545 66.968 32.5503C69.2872 32.9949 72.6375 33.6961 72.8392 33.7832C72.94 33.8199 72.5917 34.0124 71.478 34.5165C67.078 36.4965 63.8148 38.2748 60.5698 40.4427C59.7173 41.011 59.0069 41.4785 58.9932 41.4785C58.9749 41.4785 58.9657 41.0018 58.9657 40.4244C58.9657 37.2619 58.3286 34.0674 57.1736 31.3679C57.0879 31.1913 57.0189 31.0072 56.9674 30.8179ZM74.6587 34.3195C74.7092 34.3699 74.4846 35.7219 74.2921 36.5194C73.6871 38.9944 72.083 42.6793 70.103 46.1397C69.8951 46.53 69.6624 46.9066 69.4063 47.2672C69.0578 47.1194 68.7221 46.9431 68.4026 46.7401C66.4685 45.608 64.2777 44.5401 61.8715 43.5456C61.4408 43.3763 61.0159 43.1929 60.5973 42.9956C60.4873 42.8947 65.836 39.3519 68.673 37.6515C70.9417 36.2903 74.5946 34.2553 74.6587 34.3195ZM75.9237 34.5165C76.075 34.5165 79.1091 35.3415 80.6766 35.8136C84.5861 36.9823 89.096 38.6277 92.0201 39.9569L93.2347 40.5069L92.3776 40.7039C85.2231 42.3539 79.0862 44.2468 73.1829 46.6438C72.6925 46.8455 72.2663 47.0105 72.2342 47.0105C72.3174 46.7161 72.4327 46.4318 72.5779 46.1626C74.3563 42.3906 75.5021 38.4306 75.8 35.0711C75.8275 34.764 75.8825 34.5165 75.9237 34.5165ZM45.7659 41.4464C45.8118 41.4006 48.1217 41.9414 49.3821 42.2943C51.275 42.826 55.3037 44.1735 55.3037 44.2789C55.3037 44.2972 54.8591 44.6868 54.3183 45.1405C51.9779 47.1083 49.7107 49.1614 47.5213 51.2958C47.0683 51.7498 46.5974 52.1856 46.1097 52.6021C46.0776 52.6021 46.0638 52.4966 46.0822 52.3729C46.4626 49.5725 46.3801 45.9793 45.853 42.3218C45.801 42.0342 45.7703 41.7431 45.7613 41.451L45.7659 41.4464ZM94.3942 41.4923C94.4263 41.5289 93.3218 43.2568 92.6343 44.2422C91.6259 45.6813 90.1731 47.5696 86.8548 51.745L82.4824 57.2541C82.083 57.7721 81.6719 58.2809 81.2495 58.7803C81.2357 58.7803 81.0203 58.4778 80.7774 58.1111C78.904 55.3155 76.6345 52.8067 74.04 50.6633C73.6336 50.3229 73.221 49.9897 72.8025 49.6642C72.6789 49.5812 72.5651 49.4843 72.4634 49.3754C72.4634 49.3296 75.2912 48.1196 77.4499 47.2397C81.6321 45.5587 85.8795 44.045 90.1822 42.7022C92.208 42.0835 94.3622 41.4648 94.3942 41.4923ZM95.6684 41.8268C96.0024 41.9398 96.321 42.0937 96.6171 42.2852C100.658 44.6004 104.396 47.4085 107.745 50.645C108.634 51.5158 110.802 53.7754 110.77 53.7937L109.106 53.9266C102.094 54.4537 93.1293 55.9433 84.4944 58.0195C83.9078 58.157 83.4036 58.2761 83.3669 58.2761C83.3348 58.2761 83.9765 57.6345 84.7923 56.8461C89.866 51.9742 92.1759 48.8988 94.8984 43.3989C95.3017 42.5831 95.6455 41.8727 95.6592 41.8314H95.6684V41.8268ZM58.599 45.6309C58.8328 45.6768 60.9961 46.6851 62.6277 47.5009C64.1173 48.248 66.3768 49.4534 66.4914 49.5588C66.5051 49.5725 65.7122 49.985 64.7223 50.48C61.7853 51.9383 58.9135 53.5241 56.1149 55.2328C55.3128 55.7233 54.6483 56.122 54.6254 56.122C54.5566 56.122 54.5795 56.0624 55.0287 55.2466C56.5764 52.3598 57.7148 49.2716 58.4111 46.0709C58.4753 45.7868 58.5486 45.6126 58.599 45.6263V45.6309ZM56.422 46.0159C56.4678 46.0618 55.9087 48.1242 55.5512 49.2242C54.5828 52.1182 53.2994 54.897 51.7241 57.5107L51.3117 58.1845L50.3813 57.2816C49.476 56.3589 48.4303 55.5854 47.283 54.9899C46.999 54.8617 46.7288 54.705 46.4763 54.5224C46.4763 54.3849 49.3179 51.8046 51.5087 49.9484C53.0808 48.6192 56.3853 45.9747 56.422 46.0159ZM69.6584 51.4608L70.4697 51.9879C72.335 53.1979 74.5396 54.8249 76.2216 56.2228C77.1658 57.0111 78.9945 58.652 79.3703 59.0461L79.572 59.2615L78.2245 59.6374C71.3347 61.5165 64.5298 63.6941 57.829 66.1639C57.3453 66.3493 56.8562 66.5205 56.3624 66.6772C56.2662 66.6772 56.1699 66.7643 57.8886 65.1831C62.2886 61.1361 66.1706 56.6766 69.0718 52.3408L69.6584 51.4608ZM66.1797 52.3316C66.221 52.3729 63.9248 55.5858 62.5635 57.4007C60.9319 59.5686 58.0261 63.1985 56.0278 65.5589C55.5176 66.1812 54.9887 66.788 54.442 67.3785C54.3962 67.3922 54.3733 67.1493 54.3687 66.7689C54.3687 64.7523 53.8554 62.5981 52.957 60.774C52.5766 60.004 52.5125 59.8207 52.5904 59.7473C52.902 59.4632 57.7557 56.6949 60.8127 55.0587C62.9165 53.9312 66.1431 52.2904 66.1797 52.3316ZM45.1426 57.4878C46.4745 58.1259 47.7241 58.9231 48.8642 59.8619C48.9009 59.8848 48.4655 60.2423 47.9017 60.6502C46.3205 61.7915 43.9143 63.6019 42.5256 64.711C41.0589 65.8797 41.0085 65.9164 41.1735 65.6597C42.2735 63.9777 42.8235 63.029 43.401 61.8098C43.9189 60.7282 44.4276 59.4449 44.7943 58.3265C44.8699 58.0311 44.9888 57.7485 45.1472 57.4878H45.1426ZM50.7479 61.8877C50.8258 61.874 50.9312 62.0161 51.385 62.6898C52.3337 64.1106 53.0625 65.9989 53.2504 67.5389L53.287 67.8735L51.0092 68.7534C47.5102 70.0984 44.0471 71.535 40.6235 73.0617C39.9131 73.3917 38.6619 73.9875 37.8415 74.4C37.0211 74.8125 36.3519 75.1333 36.3519 75.115C36.3519 75.0967 36.8652 74.7071 37.4977 74.2533C42.4797 70.6326 46.7788 66.6726 50.0192 62.7081C50.3629 62.2865 50.6792 61.9198 50.7204 61.8923C50.7289 61.8875 50.7382 61.8843 50.7479 61.8831V61.8877ZM48.163 62.5294C48.2317 62.5935 46.3251 64.7477 45.0418 66.0585C41.9415 69.2442 38.4701 72.0463 34.702 74.4046C34.207 74.7208 33.7578 75.0004 33.6936 75.0371C33.5882 75.1012 33.7303 74.9362 35.4628 73.0479C36.5536 71.8609 37.3877 70.8755 38.3411 69.6426C38.7805 69.0067 39.3451 68.4671 40.0002 68.0568C42.4614 66.2785 48.0988 62.4606 48.163 62.5248V62.5294ZM52.7416 10.0007C52.375 9.95489 46.458 12.0861 42.6585 13.6261C37.5115 15.7206 33.5103 17.7235 31.0445 19.456C30.1279 20.0976 28.9729 21.2572 28.8079 21.7018C28.7429 21.8826 28.7103 22.0734 28.7116 22.2655L30.9483 24.3738L36.2557 26.0696L48.9009 28.3337L63.3519 30.8179L63.4985 29.5804L63.3702 29.5575L61.4681 29.255L61.0786 28.5767C59.1142 25.1112 57.3141 21.5553 55.6841 17.9206C54.7329 15.7362 53.9215 13.4935 53.255 11.2061C52.9433 10.0924 52.9112 10.0236 52.7416 10.0007ZM52.4621 10.8532H52.485C52.4987 10.867 52.5629 11.3345 52.6316 11.8844C52.9158 14.2127 53.4383 16.4677 54.2541 18.8968C54.8683 20.7301 54.8774 20.6247 54.1441 20.4185C52.4483 19.9464 44.8309 18.6402 39.3219 17.8748C38.7749 17.805 38.2293 17.724 37.6856 17.6318C37.6169 17.5631 41.6593 15.4456 43.4514 14.6069C45.7476 13.5436 52.0083 10.9403 52.4621 10.8532ZM36.4115 18.3147L37.0577 18.5347C40.596 19.7356 49.46 21.4314 54.3595 21.8347C54.9095 21.8805 55.377 21.9309 55.3908 21.9447C55.4045 21.9584 54.9324 22.2105 54.3458 22.5038C51.9854 23.6863 49.3821 25.13 47.5809 26.2575C47.0538 26.5875 46.5726 26.8533 46.5038 26.8488C46.2434 26.8121 45.9836 26.7709 45.7247 26.725L45.0647 26.6196L43.3918 24.9925C40.4539 22.1509 38.1623 19.951 37.2732 19.126L36.4115 18.3147ZM35.7561 18.8372L38.0981 21.7614C39.3906 23.3655 40.6831 24.965 40.9673 25.3088C41.256 25.6525 41.476 25.9413 41.4623 25.9504C41.3981 26.0009 38.0706 25.3546 36.3061 24.9467C35.0643 24.6828 33.836 24.3585 32.6257 23.9751L31.7091 23.6817L31.7137 23.4572C31.7274 22.3343 33.1436 20.6751 35.5453 18.9839L35.7561 18.8372ZM55.7024 22.8201C55.7712 22.8247 55.8491 22.9667 56.0553 23.4205C56.6236 24.6671 58.3928 28.0404 58.819 28.6912C58.9565 28.9066 59.1857 28.9204 56.8345 28.54C51.1971 27.6325 49.3684 27.3254 49.3684 27.2888C49.4832 27.1891 49.6112 27.1058 49.7488 27.0413C51.5471 26.0322 53.2459 24.8551 54.8224 23.5259L55.6245 22.8522C55.652 22.8292 55.6795 22.8155 55.7024 22.8201ZM75.4516 61.3561L53.4154 68.5426L34.2574 77.0033L28.895 78.4241C26.0535 81.1107 23.1057 83.6824 20.0585 86.1331C18.4753 87.4427 17.0135 88.8923 15.6906 90.4643C14.169 92.3618 12.9773 94.3784 12.464 95.9321C11.5474 98.7279 11.9919 101.56 13.7702 104.173C16.0389 107.509 20.5535 110.901 25.8013 113.211C28.4825 114.384 32.997 115.906 36.3886 116.758C42.0397 118.188 52.9525 119.738 58.9657 119.967C60.1848 120.013 61.8073 120.013 61.8852 119.958C62.0136 119.87 62.9531 118.101 64.0394 115.878C67.7335 108.334 70.4055 101.258 71.8446 95.2171C72.7155 91.5551 73.3938 86.6785 73.8338 80.8945C73.9691 77.9418 73.9936 74.985 73.9071 72.0305C73.7928 69.409 73.5127 66.7975 73.0684 64.2114C73.0102 63.9872 72.9916 63.7546 73.0134 63.524C73.0775 63.4781 73.2838 63.4094 75.9925 62.621L75.4516 61.3561ZM70.4101 64.3123C70.6163 64.3123 71.1434 69.418 71.2855 72.6538C71.313 73.3459 71.3084 73.7859 71.2671 73.7859C71.1388 73.7859 68.4484 72.2046 66.5372 71.0084C64.7336 69.8723 62.9578 68.6925 61.2115 67.4701C61.0511 67.3418 61.0694 67.3372 62.4306 66.8697C64.7452 66.0722 70.2405 64.3123 70.4147 64.3123H70.4101ZM59.1903 67.9926C59.3278 67.9926 59.7173 68.208 60.634 68.7809C64.0714 70.9351 68.728 73.5246 70.7171 74.3954C71.3405 74.6704 71.4092 74.5604 69.9838 75.5275C66.9497 77.59 63.1731 79.6157 58.5394 81.6782C58.039 81.9071 57.5332 82.1241 57.0224 82.329C57.0562 82.0175 57.1223 81.7103 57.2195 81.4124C58.3424 77.2645 58.9749 73.0709 58.9932 69.7068C59.0023 68.0476 59.0024 68.0385 59.1628 67.9972H59.1903V67.9926ZM56.8803 68.8772C56.9766 68.978 56.9078 72.6996 56.7886 73.7171C56.4396 76.5817 55.7977 79.403 54.8728 82.1365C54.8087 82.2145 52.5308 79.9916 51.7746 79.1116C50.5771 77.7536 49.5476 76.2563 48.7084 74.6521C48.3325 73.9096 47.7276 72.4338 47.7826 72.3925C48.0392 72.2092 56.8161 68.8176 56.8803 68.8772ZM45.9951 73.1671C46.0134 73.1671 46.0318 73.1717 46.0409 73.1854C46.1425 73.3783 46.2284 73.5791 46.2976 73.7859C47.0046 75.5457 47.9317 77.2089 49.0567 78.7358C50.4139 80.5329 51.9785 82.1635 53.7179 83.594C53.8233 83.6857 53.8554 83.6673 51.1421 84.694C47.6686 86.0037 44.1628 87.2263 40.6281 88.3606C39.1294 88.8464 37.8598 89.2543 37.8094 89.2772C37.6581 89.3277 37.704 89.236 38.144 88.5531C40.101 85.5006 43.0618 79.5241 44.7209 75.2983C45.0051 74.565 45.2801 73.8317 45.3305 73.6667C45.3993 73.4284 45.4726 73.3459 45.6972 73.245C45.7892 73.1967 45.8911 73.1701 45.9951 73.1671ZM42.6585 74.5421C42.7043 74.5833 41.861 76.3662 41.0268 77.9841C39.2586 81.4039 37.3425 84.7452 35.284 87.9985L34.4499 89.3185C34.3674 89.4422 34.3307 89.401 34.074 88.8877C33.4749 87.6648 33.0432 86.3668 32.7907 85.0286C32.555 83.3798 32.586 81.7038 32.8824 80.0649C33.0978 79.0245 33.0886 79.0474 33.5791 78.7999C35.6965 77.7137 42.5897 74.4825 42.6585 74.5421ZM71.3863 75.7108V76.4166C71.3391 81.0104 70.9484 85.5942 70.2176 90.1297C67.1953 89.2575 64.2781 88.0556 61.5186 86.5456C59.8961 85.6565 57.554 84.2219 57.6228 84.1532C57.6365 84.1348 58.3286 83.7728 59.1536 83.3419C62.426 81.6461 65.5472 79.8128 68.2651 77.9979C69.2826 77.3195 70.8088 76.215 71.148 75.9171L71.3863 75.7108ZM30.082 80.6286C30.1508 80.6286 30.1324 80.757 30.027 81.3665C29.9362 81.9591 29.8735 82.5556 29.8391 83.154C29.7016 85.5923 30.1004 87.3889 31.3058 89.8456C31.6449 90.5331 31.9108 91.1014 31.897 91.1105C31.7733 91.216 20.7597 94.438 17.2948 95.3867L15.301 95.9367C15.1773 95.9734 15.1681 95.9459 15.2094 95.6617C15.5898 93.2188 17.4552 90.0152 20.0585 87.3202C21.7909 85.5327 23.1751 84.4694 25.5354 83.1265C27.0355 82.2661 28.5513 81.4333 30.082 80.6286ZM56.0645 85.2806C56.0737 85.2715 56.4816 85.4869 56.9674 85.771C60.5286 87.8289 65.4922 89.7585 69.7226 90.7256L70.1076 90.8172L69.5805 91.106C67.3714 92.3343 60.0886 95.3638 52.65 98.1504C51.8651 98.4437 51.0813 98.7401 50.2988 99.0396C50.1798 99.0979 50.0533 99.1396 49.9229 99.1633C49.9229 99.145 50.23 98.5583 50.6058 97.8525C52.6958 93.9476 54.7766 89.2039 55.8491 85.9131C55.9545 85.5786 56.0507 85.2944 56.0645 85.2806ZM53.4154 86.1515C53.336 86.4156 53.2395 86.6744 53.1266 86.926C51.4359 90.9192 49.5059 94.8067 47.3471 98.5675C46.9806 99.2396 46.5955 99.9014 46.1922 100.552C46.1693 100.552 45.6697 100.25 45.0739 99.8875C41.5447 97.7242 38.419 95.0659 36.3657 92.4764L36.0723 92.1097L37.594 91.6926C42.5818 90.3584 47.4678 88.669 52.2146 86.6373C52.8654 86.3623 53.4062 86.1377 53.4154 86.1515ZM69.8692 91.8943C69.8738 91.8943 69.8784 91.8989 69.8784 91.908C69.8784 92.2747 69.0397 95.703 68.3384 98.1871C67.7518 100.263 67.2568 101.89 66.3447 104.773C66.1121 105.551 65.8553 106.321 65.5747 107.083C60.8701 106.279 56.2621 104.987 51.825 103.229C50.8302 102.839 49.8531 102.407 48.8963 101.932C48.8688 101.9 49.8725 101.427 51.1237 100.877C58.709 97.5729 66.5647 93.8055 69.2505 92.1876C69.4382 92.0546 69.6475 91.9554 69.8692 91.8943ZM31.8878 93.1913C31.9291 93.2326 29.807 96.2667 26.8463 100.415L24.1559 104.187C23.7113 104.824 23.033 105.827 22.648 106.423L21.9468 107.505L21.2043 106.877C20.0927 105.902 19.0555 104.844 18.1014 103.714C16.6714 101.932 15.7044 100.057 15.3194 98.3337C15.1452 97.5363 15.136 97.1329 15.3056 97.0825C18.2564 96.3708 21.2111 95.6756 24.1696 94.9971L30.1279 93.5993C31.0858 93.3701 31.8787 93.1868 31.8878 93.1913ZM34.019 94.0072L34.5553 94.6076C36.7949 97.1503 39.4363 99.3086 42.3743 100.997C42.6947 101.156 42.9947 101.353 43.2681 101.583C36.672 103.975 30.0567 106.312 23.4226 108.596C23.3089 108.528 23.1988 108.454 23.0926 108.376L22.7855 108.156L23.2667 107.459C24.825 105.199 26.7867 102.715 31.0812 97.55L34.019 94.0072ZM47.3105 103.508C47.3242 103.494 48.0667 103.756 48.9696 104.095C51.1375 104.906 52.8379 105.433 55.1433 106.011C57.9711 106.721 62.064 107.432 64.4839 107.633C64.8506 107.661 65.0431 107.707 64.9881 107.743C64.8735 107.816 62.4215 108.632 60.6202 109.201C53.5572 111.349 46.4742 113.432 39.3723 115.448C39.2119 115.48 38.6527 115.333 38.6527 115.264C38.6527 115.223 39.0515 114.719 39.5373 114.137C41.9607 111.235 44.2193 108.199 46.3022 105.044C46.6365 104.531 46.9726 104.019 47.3105 103.508ZM44.368 103.591C44.3909 103.614 43.2085 105.507 41.1323 108.779C40.2523 110.159 39.2577 111.735 38.9185 112.271C38.5748 112.812 38.0752 113.637 37.8094 114.105L37.319 114.953L37.0715 114.888C36.4757 114.728 32.2637 113.238 31.1545 112.799C29.8306 112.275 28.5362 111.68 27.2771 111.016C25.9525 110.301 24.2751 109.237 24.4034 109.196L29.4679 107.812C36.7644 105.823 40.8023 104.682 43.4468 103.852C43.9464 103.701 44.3589 103.582 44.3634 103.591H44.368ZM65.0981 108.454H65.1256C65.1943 108.628 62.4902 116.108 61.5048 118.482C61.2802 119.013 61.2023 119.146 61.0832 119.137C58.89 118.86 56.7005 118.555 54.5154 118.22C50.3629 117.588 43.4101 116.373 41.6547 115.975L41.2468 115.883L43.7355 115.324C49.0704 114.123 51.6325 113.477 54.2312 112.679C57.5809 111.648 60.8551 110.387 64.0302 108.903C64.3776 108.734 64.7342 108.584 65.0981 108.454Z" fill="url(#paint1_linear_113_235)"/>
</g>
<defs>
<filter id="filter0_dii_113_235" x="0" y="-6" width="116.503" height="132" filterUnits="userSpaceOnUse" color-interpolation-filters="sRGB">
<feFlood flood-opacity="0" result="BackgroundImageFix"/>
<feColorMatrix in="SourceAlpha" type="matrix" values="0 0 0 0 0 0 0 0 0 0 0 0 0 0 0 0 0 0 127 0" result="hardAlpha"/>
<feOffset dx="-4" dy="-2"/>
<feGaussianBlur stdDeviation="4"/>
<feComposite in2="hardAlpha" operator="out"/>
<feColorMatrix type="matrix" values="0 0 0 0 0.0698785 0 0 0 0 0.634776 0 0 0 0 0.670833 0 0 0 0.52 0"/>
<feBlend mode="normal" in2="BackgroundImageFix" result="effect1_dropShadow_113_235"/>
<feBlend mode="normal" in="SourceGraphic" in2="effect1_dropShadow_113_235" result="shape"/>
<feColorMatrix in="SourceAlpha" type="matrix" values="0 0 0 0 0 0 0 0 0 0 0 0 0 0 0 0 0 0 127 0" result="hardAlpha"/>
<feOffset dy="-16"/>
<feGaussianBlur stdDeviation="8"/>
<feComposite in2="hardAlpha" operator="arithmetic" k2="-1" k3="1"/>
<feColorMatrix type="matrix" values="0 0 0 0 1 0 0 0 0 1 0 0 0 0 1 0 0 0 0.58 0"/>
<feBlend mode="normal" in2="shape" result="effect2_innerShadow_113_235"/>
<feColorMatrix in="SourceAlpha" type="matrix" values="0 0 0 0 0 0 0 0 0 0 0 0 0 0 0 0 0 0 127 0" result="hardAlpha"/>
<feOffset dy="2"/>
<feGaussianBlur stdDeviation="1.5"/>
<feComposite in2="hardAlpha" operator="arithmetic" k2="-1" k3="1"/>
<feColorMatrix type="matrix" values="0 0 0 0 1 0 0 0 0 1 0 0 0 0 1 0 0 0 0.41 0"/>
<feBlend mode="normal" in2="effect2_innerShadow_113_235" result="effect3_innerShadow_113_235"/>
</filter>
<linearGradient id="paint0_linear_113_235" x1="57.2513" y1="8" x2="57.2513" y2="118" gradientUnits="userSpaceOnUse">
<stop stop-color="#8EF7FE"/>
<stop offset="0.984375" stop-color="#06B7B7"/>
</linearGradient>
<linearGradient id="paint1_linear_113_235" x1="62.2513" y1="10" x2="62.2513" y2="120" gradientUnits="userSpaceOnUse">
<stop stop-color="#8EF7FE"/>
<stop offset="0.984375" stop-color="#06B7B7"/>
</linearGradient>
</defs>
</svg>
