<svg width="119" height="126" viewBox="0 0 119 126" fill="none" xmlns="http://www.w3.org/2000/svg">
<path d="M4.64382 11.0411C6.14701 9.20793 8.31012 10.2162 10.1433 10.8944C11.0759 11.2238 11.9828 11.6221 12.8563 12.086C15.5906 13.5631 18.6398 14.3616 21.7471 14.4141C28.8136 14.7065 35.6446 17.0366 41.4168 21.1234C48.3461 25.578 55.0188 30.3442 61.8198 34.927C62.7978 35.5228 63.8913 35.9039 65.0278 36.0452C80.6096 37.5301 87.8138 43.3778 89.812 45.4493C89.8776 45.5126 89.9244 45.5929 89.9473 45.6811C89.9701 45.7694 89.9682 45.8622 89.9417 45.9495C89.9151 46.0367 89.865 46.1149 89.7968 46.1754C89.7286 46.236 89.6451 46.2765 89.5553 46.2926L76.7233 49.3906C79.6013 53.4052 82.2227 56.9982 84.8441 60.7194C91.4618 70.3985 96.4846 80.7558 97.4195 92.6896C97.6395 95.4393 97.5845 98.189 97.8778 100.975C97.9678 102.218 98.4132 103.408 99.161 104.403C102.231 107.702 104.469 111.687 105.687 116.026C105.867 117.087 105.984 118.158 106.035 119.234C106.048 119.363 106.025 119.494 105.967 119.611C105.91 119.728 105.82 119.827 105.71 119.895C105.599 119.964 105.471 120 105.341 120C105.21 120 105.083 119.963 104.972 119.894C103.927 119.289 103.139 118.849 102.314 118.409C100.628 117.455 98.9227 116.466 97.1996 115.586C93.5333 113.752 91.2785 113.551 88.0338 115.696C87.7772 115.879 86.604 116.741 85.8157 117.345C85.7323 117.405 85.6353 117.444 85.5333 117.457C85.4314 117.471 85.3278 117.459 85.2316 117.423C85.1354 117.386 85.0497 117.327 84.9821 117.249C84.9145 117.172 84.8671 117.079 84.8441 116.979C84.2802 114.497 84.0521 111.951 84.1659 109.408C84.5875 106.768 85.5957 104.22 86.1823 101.617C86.4361 100.654 86.3586 99.6341 85.9624 98.7206C80.6014 88.7061 72.3825 80.5127 62.3514 75.183C54.4835 71.16 47.0507 66.3378 40.1703 60.7928C36.5414 63.7406 33.495 67.3403 31.1878 71.4067C31.051 71.6594 30.8485 71.8703 30.6016 72.0174C30.3548 72.1644 30.0728 72.242 29.7855 72.242C29.4982 72.242 29.2162 72.1644 28.9693 72.0174C28.7225 71.8703 28.52 71.6594 28.3831 71.4067C20.9222 56.6132 26.7883 46.8058 26.44 46.2742C19.4007 38.7033 16.101 29.0243 11.9581 23.1032C10.3083 20.7018 7.85183 18.9053 6.00035 16.6505C4.68048 14.9824 3.08565 13.0392 4.64382 11.0411ZM27.7232 25.1563C28.2094 24.5097 28.4188 23.6964 28.3053 22.8954C28.1919 22.0944 27.7649 21.3713 27.1182 20.8851C26.4716 20.3989 25.6583 20.1895 24.8573 20.303C24.0563 20.4164 23.3332 20.8434 22.847 21.49L27.7232 25.1563Z" fill="#292D32"/>
<path d="M4.64382 11.0411C6.14701 9.20793 8.31012 10.2162 10.1433 10.8944C11.0759 11.2238 11.9828 11.6221 12.8563 12.086C15.5906 13.5631 18.6398 14.3616 21.7471 14.4141C28.8136 14.7065 35.6446 17.0366 41.4168 21.1234C48.3461 25.578 55.0188 30.3442 61.8198 34.927C62.7978 35.5228 63.8913 35.9039 65.0278 36.0452C80.6096 37.5301 87.8138 43.3778 89.812 45.4493C89.8776 45.5126 89.9244 45.5929 89.9473 45.6811C89.9701 45.7694 89.9682 45.8622 89.9417 45.9495C89.9151 46.0367 89.865 46.1149 89.7968 46.1754C89.7286 46.236 89.6451 46.2765 89.5553 46.2926L76.7233 49.3906C79.6013 53.4052 82.2227 56.9982 84.8441 60.7194C91.4618 70.3985 96.4846 80.7558 97.4195 92.6896C97.6395 95.4393 97.5845 98.189 97.8778 100.975C97.9678 102.218 98.4132 103.408 99.161 104.403C102.231 107.702 104.469 111.687 105.687 116.026C105.867 117.087 105.984 118.158 106.035 119.234C106.048 119.363 106.025 119.494 105.967 119.611C105.91 119.728 105.82 119.827 105.71 119.895C105.599 119.964 105.471 120 105.341 120C105.21 120 105.083 119.963 104.972 119.894C103.927 119.289 103.139 118.849 102.314 118.409C100.628 117.455 98.9227 116.466 97.1996 115.586C93.5333 113.752 91.2785 113.551 88.0338 115.696C87.7772 115.879 86.604 116.741 85.8157 117.345C85.7323 117.405 85.6353 117.444 85.5333 117.457C85.4314 117.471 85.3278 117.459 85.2316 117.423C85.1354 117.386 85.0497 117.327 84.9821 117.249C84.9145 117.172 84.8671 117.079 84.8441 116.979C84.2802 114.497 84.0521 111.951 84.1659 109.408C84.5875 106.768 85.5957 104.22 86.1823 101.617C86.4361 100.654 86.3586 99.6341 85.9624 98.7206C80.6014 88.7061 72.3825 80.5127 62.3514 75.183C54.4835 71.16 47.0507 66.3378 40.1703 60.7928C36.5414 63.7406 33.495 67.3403 31.1878 71.4067C31.051 71.6594 30.8485 71.8703 30.6016 72.0174C30.3548 72.1644 30.0728 72.242 29.7855 72.242C29.4982 72.242 29.2162 72.1644 28.9693 72.0174C28.7225 71.8703 28.52 71.6594 28.3831 71.4067C20.9222 56.6132 26.7883 46.8058 26.44 46.2742C19.4007 38.7033 16.101 29.0243 11.9581 23.1032C10.3083 20.7018 7.85183 18.9053 6.00035 16.6505C4.68048 14.9824 3.08565 13.0392 4.64382 11.0411ZM27.7232 25.1563C28.2094 24.5097 28.4188 23.6964 28.3053 22.8954C28.1919 22.0944 27.7649 21.3713 27.1182 20.8851C26.4716 20.3989 25.6583 20.1895 24.8573 20.303C24.0563 20.4164 23.3332 20.8434 22.847 21.49L27.7232 25.1563Z" fill="url(#paint0_linear_113_117)"/>
<g filter="url(#filter0_dii_113_117)">
<path d="M13.4439 11.0411C14.9471 9.20793 17.1102 10.2162 18.9433 10.8944C19.876 11.2238 20.7828 11.6221 21.6564 12.086C24.3906 13.5631 27.4398 14.3616 30.5472 14.4141C37.6136 14.7065 44.4447 17.0366 50.2169 21.1234C57.1462 25.578 63.8188 30.3442 70.6198 34.927C71.5979 35.5228 72.6914 35.9039 73.8278 36.0452C89.4096 37.5301 96.6139 43.3778 98.612 45.4493C98.6776 45.5126 98.7244 45.5929 98.7473 45.6811C98.7702 45.7694 98.7682 45.8622 98.7417 45.9495C98.7152 46.0367 98.665 46.1149 98.5969 46.1754C98.5287 46.236 98.4451 46.2765 98.3554 46.2926L85.5233 49.3906C88.4014 53.4052 91.0228 56.9982 93.6442 60.7194C100.262 70.3985 105.285 80.7558 106.22 92.6896C106.44 95.4393 106.385 98.189 106.678 100.975C106.768 102.218 107.213 103.408 107.961 104.403C111.031 107.702 113.269 111.687 114.487 116.026C114.667 117.087 114.784 118.158 114.835 119.234C114.848 119.363 114.825 119.494 114.767 119.611C114.71 119.728 114.62 119.827 114.51 119.895C114.399 119.964 114.271 120 114.141 120C114.01 120 113.883 119.963 113.772 119.894C112.727 119.289 111.939 118.849 111.114 118.409C109.428 117.455 107.723 116.466 106 115.586C102.333 113.752 100.079 113.551 96.8339 115.696C96.5772 115.879 95.404 116.741 94.6158 117.345C94.5323 117.405 94.4353 117.444 94.3334 117.457C94.2315 117.471 94.1278 117.459 94.0316 117.423C93.9355 117.386 93.8498 117.327 93.7822 117.249C93.7145 117.172 93.6672 117.079 93.6442 116.979C93.0802 114.497 92.8521 111.951 92.9659 109.408C93.3876 106.768 94.3958 104.22 94.9824 101.617C95.2362 100.654 95.1587 99.6341 94.7624 98.7206C89.4015 88.7061 81.1826 80.5127 71.1514 75.183C63.2836 71.16 55.8507 66.3378 48.9703 60.7928C45.3414 63.7406 42.295 67.3403 39.9879 71.4067C39.851 71.6594 39.6485 71.8703 39.4017 72.0174C39.1548 72.1644 38.8728 72.242 38.5855 72.242C38.2982 72.242 38.0162 72.1644 37.7694 72.0174C37.5225 71.8703 37.32 71.6594 37.1832 71.4067C29.7222 56.6132 35.5883 46.8058 35.24 46.2742C28.2007 38.7033 24.9011 29.0243 20.7581 23.1032C19.1083 20.7018 16.6519 18.9053 14.8004 16.6505C13.4805 14.9824 11.8857 13.0392 13.4439 11.0411ZM36.5232 25.1563C37.0094 24.5097 37.2188 23.6964 37.1054 22.8954C36.9919 22.0944 36.5649 21.3713 35.9183 20.8851C35.2717 20.3989 34.4584 20.1895 33.6574 20.303C32.8564 20.4164 32.1332 20.8434 31.6471 21.49L36.5232 25.1563Z" fill="#292D32"/>
<path d="M13.4439 11.0411C14.9471 9.20793 17.1102 10.2162 18.9433 10.8944C19.876 11.2238 20.7828 11.6221 21.6564 12.086C24.3906 13.5631 27.4398 14.3616 30.5472 14.4141C37.6136 14.7065 44.4447 17.0366 50.2169 21.1234C57.1462 25.578 63.8188 30.3442 70.6198 34.927C71.5979 35.5228 72.6914 35.9039 73.8278 36.0452C89.4096 37.5301 96.6139 43.3778 98.612 45.4493C98.6776 45.5126 98.7244 45.5929 98.7473 45.6811C98.7702 45.7694 98.7682 45.8622 98.7417 45.9495C98.7152 46.0367 98.665 46.1149 98.5969 46.1754C98.5287 46.236 98.4451 46.2765 98.3554 46.2926L85.5233 49.3906C88.4014 53.4052 91.0228 56.9982 93.6442 60.7194C100.262 70.3985 105.285 80.7558 106.22 92.6896C106.44 95.4393 106.385 98.189 106.678 100.975C106.768 102.218 107.213 103.408 107.961 104.403C111.031 107.702 113.269 111.687 114.487 116.026C114.667 117.087 114.784 118.158 114.835 119.234C114.848 119.363 114.825 119.494 114.767 119.611C114.71 119.728 114.62 119.827 114.51 119.895C114.399 119.964 114.271 120 114.141 120C114.01 120 113.883 119.963 113.772 119.894C112.727 119.289 111.939 118.849 111.114 118.409C109.428 117.455 107.723 116.466 106 115.586C102.333 113.752 100.079 113.551 96.8339 115.696C96.5772 115.879 95.404 116.741 94.6158 117.345C94.5323 117.405 94.4353 117.444 94.3334 117.457C94.2315 117.471 94.1278 117.459 94.0316 117.423C93.9355 117.386 93.8498 117.327 93.7822 117.249C93.7145 117.172 93.6672 117.079 93.6442 116.979C93.0802 114.497 92.8521 111.951 92.9659 109.408C93.3876 106.768 94.3958 104.22 94.9824 101.617C95.2362 100.654 95.1587 99.6341 94.7624 98.7206C89.4015 88.7061 81.1826 80.5127 71.1514 75.183C63.2836 71.16 55.8507 66.3378 48.9703 60.7928C45.3414 63.7406 42.295 67.3403 39.9879 71.4067C39.851 71.6594 39.6485 71.8703 39.4017 72.0174C39.1548 72.1644 38.8728 72.242 38.5855 72.242C38.2982 72.242 38.0162 72.1644 37.7694 72.0174C37.5225 71.8703 37.32 71.6594 37.1832 71.4067C29.7222 56.6132 35.5883 46.8058 35.24 46.2742C28.2007 38.7033 24.9011 29.0243 20.7581 23.1032C19.1083 20.7018 16.6519 18.9053 14.8004 16.6505C13.4805 14.9824 11.8857 13.0392 13.4439 11.0411ZM36.5232 25.1563C37.0094 24.5097 37.2188 23.6964 37.1054 22.8954C36.9919 22.0944 36.5649 21.3713 35.9183 20.8851C35.2717 20.3989 34.4584 20.1895 33.6574 20.303C32.8564 20.4164 32.1332 20.8434 31.6471 21.49L36.5232 25.1563Z" fill="url(#paint1_linear_113_117)"/>
</g>
<defs>
<filter id="filter0_dii_113_117" x="0.800049" y="-6" width="118.039" height="132" filterUnits="userSpaceOnUse" color-interpolation-filters="sRGB">
<feFlood flood-opacity="0" result="BackgroundImageFix"/>
<feColorMatrix in="SourceAlpha" type="matrix" values="0 0 0 0 0 0 0 0 0 0 0 0 0 0 0 0 0 0 127 0" result="hardAlpha"/>
<feOffset dx="-4" dy="-2"/>
<feGaussianBlur stdDeviation="4"/>
<feComposite in2="hardAlpha" operator="out"/>
<feColorMatrix type="matrix" values="0 0 0 0 0.117647 0 0 0 0 0.494118 0 0 0 0 0.929412 0 0 0 0.56 0"/>
<feBlend mode="normal" in2="BackgroundImageFix" result="effect1_dropShadow_113_117"/>
<feBlend mode="normal" in="SourceGraphic" in2="effect1_dropShadow_113_117" result="shape"/>
<feColorMatrix in="SourceAlpha" type="matrix" values="0 0 0 0 0 0 0 0 0 0 0 0 0 0 0 0 0 0 127 0" result="hardAlpha"/>
<feOffset dy="2"/>
<feGaussianBlur stdDeviation="1.5"/>
<feComposite in2="hardAlpha" operator="arithmetic" k2="-1" k3="1"/>
<feColorMatrix type="matrix" values="0 0 0 0 1 0 0 0 0 1 0 0 0 0 1 0 0 0 0.41 0"/>
<feBlend mode="normal" in2="shape" result="effect2_innerShadow_113_117"/>
<feColorMatrix in="SourceAlpha" type="matrix" values="0 0 0 0 0 0 0 0 0 0 0 0 0 0 0 0 0 0 127 0" result="hardAlpha"/>
<feOffset dy="-16"/>
<feGaussianBlur stdDeviation="12"/>
<feComposite in2="hardAlpha" operator="arithmetic" k2="-1" k3="1"/>
<feColorMatrix type="matrix" values="0 0 0 0 1 0 0 0 0 1 0 0 0 0 1 0 0 0 0.45 0"/>
<feBlend mode="normal" in2="effect2_innerShadow_113_117" result="effect3_innerShadow_113_117"/>
</filter>
<linearGradient id="paint0_linear_113_117" x1="55.0194" y1="10" x2="55.0194" y2="120" gradientUnits="userSpaceOnUse">
<stop stop-color="#3AC8F0"/>
<stop offset="0.0001" stop-color="#45D5EE"/>
<stop offset="0.442708" stop-color="#2498F7"/>
<stop offset="0.9999" stop-color="#005FFC"/>
<stop offset="1" stop-color="#3AC8F0" stop-opacity="0"/>
<stop offset="1" stop-color="#3AC8F0" stop-opacity="0"/>
<stop offset="1" stop-color="#3AC8F0" stop-opacity="0"/>
</linearGradient>
<linearGradient id="paint1_linear_113_117" x1="63.8195" y1="10" x2="63.8195" y2="120" gradientUnits="userSpaceOnUse">
<stop stop-color="#3AC8F0"/>
<stop offset="0.0001" stop-color="#45D5EE"/>
<stop offset="0.442708" stop-color="#2498F7"/>
<stop offset="0.9999" stop-color="#005FFC"/>
<stop offset="1" stop-color="#3AC8F0" stop-opacity="0"/>
<stop offset="1" stop-color="#3AC8F0" stop-opacity="0"/>
<stop offset="1" stop-color="#3AC8F0" stop-opacity="0"/>
</linearGradient>
</defs>
</svg>
