<svg width="126" height="126" viewBox="0 0 126 126" fill="none" xmlns="http://www.w3.org/2000/svg">
<path fill-rule="evenodd" clip-rule="evenodd" d="M72.7035 7C71.9486 7.01055 71.2004 7.14322 70.4878 7.39286C76.8325 11.565 69.3485 17.6071 72.845 22.7143C72.604 20.9965 72.8773 19.2458 73.6303 17.6831C74.3833 16.1205 75.5823 14.8159 77.076 13.9339C78.1957 13.0029 78.9146 12.6689 78.6749 11.1289C78.286 8.60679 74.9232 7 72.7035 7ZM81.7392 8.62643C80.8632 13.0382 79.775 13.1993 76.5417 16.0396C75.2807 17.0338 74.3907 18.4234 74.0152 19.9847C73.6397 21.546 73.8003 23.1882 74.4714 24.6471C61.1142 19.4614 43.9935 16.3264 31.4417 25.2993C26.9278 28.5246 24.1739 33.1564 18.6071 35.0461C15.0085 36.2796 11.4728 35.9143 9.21781 39.4814C8.3931 40.5115 7.96228 41.8016 8.00259 43.1205C8.04291 44.4394 8.55173 45.7008 9.43781 46.6786C10.1096 47.3661 11.4021 47.8061 11.9364 48.5054C12.2467 48.8982 12.2389 49.2911 12.5335 49.8136C13.0542 51.0312 13.8068 52.136 14.7492 53.0664C15.3267 53.5418 17.3107 54.0054 17.6485 54.5121C18.0728 55.1446 16.9728 57.655 17.896 58.0479C18.5167 58.3346 20.3357 55.125 20.5125 54.8421C20.151 57.3682 19.6757 61.8507 22.516 58.1186C23.8635 56.3468 23.946 55.7614 26.2128 55.3686C27.6634 55.1166 29.1296 54.9643 30.601 54.9129C39.007 54.6188 47.2056 57.5602 53.5073 63.1311C59.8091 68.702 63.734 76.4779 64.4732 84.8564C64.0489 82.8921 61.4835 79.7493 59.095 80.4957C58.0775 80.81 57.7003 82.5661 57.0325 83.5836C56.1881 84.8737 55.1476 86.0242 53.9485 86.9936C54.1515 85.089 54.0561 83.1644 53.6657 81.2893C52.9507 84.2279 51.5167 89.1032 47.9064 88.3136C46.7037 88.13 45.5768 87.612 44.6543 86.8187C43.7318 86.0254 43.0509 84.9888 42.6892 83.8271C42.2217 80.8414 45.3764 77.3411 40.3046 77.0936C30.1296 76.5946 32.4828 91.5586 38.4896 95.4596C37.1091 95.6124 35.7625 95.9878 34.5021 96.5714C38.3178 98.7874 42.6171 100.037 47.0261 100.213C51.4351 100.388 55.8201 99.4831 59.7996 97.577C63.7791 95.6709 67.2326 92.8212 69.8595 89.2759C72.4864 85.7306 74.2072 81.5971 74.8721 77.235C75.7464 81.2298 75.7263 85.3685 74.8132 89.3546C74.325 91.4729 73.5947 93.528 72.6367 95.4793C71.3381 98.1149 69.6125 100.518 67.5296 102.59C66.296 103.812 64.0332 105.041 63.2553 106.287C68.0166 105.656 72.6693 104.376 77.0839 102.484C72.514 108.743 66.428 113.739 59.3975 117C66.9355 116.467 74.2223 114.066 80.6006 110.013C86.979 105.96 92.2482 100.384 95.9332 93.7861C94.7587 100.384 92.1503 106.645 88.2921 112.125C93.4815 108.651 97.8965 104.141 101.26 98.8792C104.623 93.6174 106.862 87.717 107.837 81.5486C108.804 86.064 109.081 90.7001 108.658 95.2986C112.921 89.3753 115.8 82.571 117.085 75.3871C118.369 68.2032 118.025 60.8227 116.079 53.7893C114.59 48.3217 112.357 43.0844 109.444 38.2243C108.318 36.3306 107.087 34.5022 105.755 32.7479C105.232 32.0682 102.439 29.5814 102.439 28.8193C102.415 28.8952 102.396 28.8952 102.38 28.8193C102.38 41.5793 88.63 49.7704 77.1153 46.3525C81.4937 46.0129 85.632 44.2159 88.8693 41.2485C92.1066 38.2811 94.2561 34.3145 94.9746 29.9821C95.6108 25.437 94.6354 20.8125 92.2177 16.9115C89.8 13.0105 86.0927 10.0792 81.7392 8.62643Z" fill="url(#paint0_linear_116_329)"/>
<g filter="url(#filter0_dii_116_329)">
<path fill-rule="evenodd" clip-rule="evenodd" d="M76.7035 10C75.9486 10.0105 75.2004 10.1432 74.4878 10.3929C80.8325 14.565 73.3485 20.6071 76.845 25.7143C76.604 23.9965 76.8773 22.2458 77.6303 20.6831C78.3833 19.1205 79.5823 17.8159 81.076 16.9339C82.1957 16.0029 82.9146 15.6689 82.6749 14.1289C82.286 11.6068 78.9232 10 76.7035 10ZM85.7392 11.6264C84.8632 16.0382 83.775 16.1993 80.5417 19.0396C79.2807 20.0338 78.3907 21.4234 78.0152 22.9847C77.6397 24.546 77.8003 26.1882 78.4714 27.6471C65.1142 22.4614 47.9935 19.3264 35.4417 28.2993C30.9278 31.5246 28.1739 36.1564 22.6071 38.0461C19.0085 39.2796 15.4728 38.9143 13.2178 42.4814C12.3931 43.5115 11.9623 44.8016 12.0026 46.1205C12.0429 47.4394 12.5517 48.7008 13.4378 49.6786C14.1096 50.3661 15.4021 50.8061 15.9364 51.5054C16.2467 51.8982 16.2389 52.2911 16.5335 52.8136C17.0542 54.0312 17.8068 55.136 18.7492 56.0664C19.3267 56.5418 21.3107 57.0054 21.6485 57.5121C22.0728 58.1446 20.9728 60.655 21.896 61.0479C22.5167 61.3346 24.3357 58.125 24.5125 57.8421C24.151 60.3682 23.6757 64.8507 26.516 61.1186C27.8635 59.3468 27.946 58.7614 30.2128 58.3686C31.6634 58.1166 33.1296 57.9643 34.601 57.9129C43.007 57.6188 51.2056 60.5602 57.5073 66.1311C63.8091 71.702 67.734 79.4779 68.4732 87.8564C68.0489 85.8921 65.4835 82.7493 63.095 83.4957C62.0775 83.81 61.7003 85.5661 61.0325 86.5836C60.1881 87.8737 59.1476 89.0242 57.9485 89.9936C58.1515 88.089 58.0561 86.1644 57.6657 84.2893C56.9507 87.2279 55.5167 92.1032 51.9064 91.3136C50.7037 91.13 49.5768 90.612 48.6543 89.8187C47.7318 89.0254 47.0509 87.9888 46.6892 86.8271C46.2217 83.8414 49.3764 80.3411 44.3046 80.0936C34.1296 79.5946 36.4828 94.5586 42.4896 98.4596C41.1091 98.6124 39.7625 98.9878 38.5021 99.5714C42.3178 101.787 46.6171 103.037 51.0261 103.213C55.4351 103.388 59.8201 102.483 63.7996 100.577C67.7791 98.6709 71.2326 95.8212 73.8595 92.2759C76.4864 88.7306 78.2072 84.5971 78.8721 80.235C79.7464 84.2298 79.7263 88.3685 78.8132 92.3546C78.325 94.4729 77.5947 96.528 76.6367 98.4793C75.3381 101.115 73.6125 103.518 71.5296 105.59C70.296 106.812 68.0332 108.041 67.2553 109.287C72.0166 108.656 76.6693 107.376 81.0839 105.484C76.514 111.743 70.428 116.739 63.3975 120C70.9355 119.467 78.2223 117.066 84.6006 113.013C90.979 108.96 96.2482 103.384 99.9332 96.7861C98.7587 103.384 96.1503 109.645 92.2921 115.125C97.4815 111.651 101.896 107.141 105.26 101.879C108.623 96.6174 110.862 90.717 111.837 84.5486C112.804 89.064 113.081 93.7001 112.658 98.2986C116.921 92.3753 119.8 85.571 121.085 78.3871C122.369 71.2032 122.025 63.8227 120.079 56.7893C118.59 51.3217 116.357 46.0844 113.444 41.2243C112.318 39.3306 111.087 37.5022 109.755 35.7479C109.232 35.0682 106.439 32.5814 106.439 31.8193C106.415 31.8952 106.396 31.8952 106.38 31.8193C106.38 44.5793 92.63 52.7704 81.1153 49.3525C85.4937 49.0129 89.632 47.2159 92.8693 44.2485C96.1066 41.2811 98.2561 37.3145 98.9746 32.9821C99.6108 28.437 98.6354 23.8125 96.2177 19.9115C93.8 16.0105 90.0927 13.0792 85.7392 11.6264Z" fill="url(#paint1_linear_116_329)"/>
</g>
<defs>
<filter id="filter0_dii_116_329" x="0" y="-6" width="125.846" height="132" filterUnits="userSpaceOnUse" color-interpolation-filters="sRGB">
<feFlood flood-opacity="0" result="BackgroundImageFix"/>
<feColorMatrix in="SourceAlpha" type="matrix" values="0 0 0 0 0 0 0 0 0 0 0 0 0 0 0 0 0 0 127 0" result="hardAlpha"/>
<feOffset dx="-4" dy="-2"/>
<feGaussianBlur stdDeviation="4"/>
<feComposite in2="hardAlpha" operator="out"/>
<feColorMatrix type="matrix" values="0 0 0 0 0.920833 0 0 0 0 0.0498785 0 0 0 0 0.0498785 0 0 0 0.31 0"/>
<feBlend mode="normal" in2="BackgroundImageFix" result="effect1_dropShadow_116_329"/>
<feBlend mode="normal" in="SourceGraphic" in2="effect1_dropShadow_116_329" result="shape"/>
<feColorMatrix in="SourceAlpha" type="matrix" values="0 0 0 0 0 0 0 0 0 0 0 0 0 0 0 0 0 0 127 0" result="hardAlpha"/>
<feOffset dy="2"/>
<feGaussianBlur stdDeviation="1.5"/>
<feComposite in2="hardAlpha" operator="arithmetic" k2="-1" k3="1"/>
<feColorMatrix type="matrix" values="0 0 0 0 1 0 0 0 0 1 0 0 0 0 1 0 0 0 0.41 0"/>
<feBlend mode="normal" in2="shape" result="effect2_innerShadow_116_329"/>
<feColorMatrix in="SourceAlpha" type="matrix" values="0 0 0 0 0 0 0 0 0 0 0 0 0 0 0 0 0 0 127 0" result="hardAlpha"/>
<feOffset dy="-16"/>
<feGaussianBlur stdDeviation="8"/>
<feComposite in2="hardAlpha" operator="arithmetic" k2="-1" k3="1"/>
<feColorMatrix type="matrix" values="0 0 0 0 1 0 0 0 0 1 0 0 0 0 1 0 0 0 0.4 0"/>
<feBlend mode="normal" in2="effect2_innerShadow_116_329" result="effect3_innerShadow_116_329"/>
</filter>
<linearGradient id="paint0_linear_116_329" x1="62.9231" y1="7" x2="62.9231" y2="117" gradientUnits="userSpaceOnUse">
<stop stop-color="#F98787"/>
<stop offset="0.984375" stop-color="#D60303"/>
</linearGradient>
<linearGradient id="paint1_linear_116_329" x1="66.9231" y1="10" x2="66.9231" y2="120" gradientUnits="userSpaceOnUse">
<stop stop-color="#F98787"/>
<stop offset="0.984375" stop-color="#D60303"/>
</linearGradient>
</defs>
</svg>
