<svg width="148" height="76" viewBox="0 0 148 76" fill="none" xmlns="http://www.w3.org/2000/svg">
<path d="M75.9967 5C62.268 5 50.7359 14.4014 47.2158 27.0483C44.1406 20.2828 37.3696 15.4887 29.5058 15.4887C24.3391 15.5133 19.3912 17.577 15.7383 21.2309C12.0854 24.8848 10.0231 29.8334 10 35C10.0231 40.1666 12.0854 45.1152 15.7383 48.7691C19.3912 52.423 24.3391 54.4867 29.5058 54.5113C37.3696 54.5113 44.1351 49.7117 47.2103 42.9462C50.7304 55.5986 62.268 65 75.9967 65C89.654 65 101.126 55.7029 104.723 43.1604C107.847 49.8051 114.514 54.5113 122.284 54.5113C127.452 54.4896 132.403 52.427 136.057 48.7726C139.711 45.1182 141.774 40.168 141.796 35C141.773 29.8324 139.71 24.8831 136.055 21.229C132.401 17.5749 127.452 15.5119 122.284 15.4887C114.509 15.4887 107.842 20.2004 104.717 26.8397C101.126 14.2971 89.654 4.99451 75.9967 5ZM75.9967 16.4498C86.3097 16.4498 94.547 24.687 94.547 35C94.547 45.313 86.3097 53.5503 75.9967 53.5503C73.5579 53.5612 71.141 53.0887 68.8858 52.1603C66.6305 51.2319 64.5816 49.8658 62.8573 48.141C61.133 46.4162 59.7676 44.3669 58.8398 42.1113C57.912 39.8558 57.4403 37.4388 57.452 35C57.452 24.687 65.6892 16.4498 75.9967 16.4498ZM29.5058 26.9385C34.0198 26.9385 37.5618 30.4805 37.5618 35C37.5618 39.5195 34.0253 43.056 29.5058 43.0615C28.4443 43.0725 27.3913 42.8715 26.4086 42.4702C25.4258 42.0689 24.5331 41.4755 23.7828 40.7246C23.0324 39.9737 22.4395 39.0806 22.0389 38.0976C21.6383 37.1146 21.438 36.0615 21.4498 35C21.4372 33.9386 21.6371 32.8854 22.0375 31.9024C22.4379 30.9193 23.0308 30.0262 23.7814 29.2756C24.532 28.5251 25.4251 27.9321 26.4081 27.5317C27.3912 27.1313 28.4444 26.9315 29.5058 26.944V26.9385ZM122.284 26.9385C126.804 26.9385 130.346 30.4805 130.346 35C130.346 39.5195 126.804 43.0615 122.284 43.0615C121.223 43.0725 120.17 42.8715 119.187 42.4702C118.205 42.0689 117.312 41.4755 116.561 40.7246C115.811 39.9737 115.218 39.0806 114.818 38.0976C114.417 37.1146 114.217 36.0615 114.228 35C114.216 33.9386 114.416 32.8854 114.816 31.9024C115.217 30.9193 115.81 30.0262 116.56 29.2756C117.311 28.5251 118.204 27.9321 119.187 27.5317C120.17 27.1313 121.223 26.9315 122.284 26.944V26.9385Z" fill="#292D32"/>
<path d="M75.9967 5C62.268 5 50.7359 14.4014 47.2158 27.0483C44.1406 20.2828 37.3696 15.4887 29.5058 15.4887C24.3391 15.5133 19.3912 17.577 15.7383 21.2309C12.0854 24.8848 10.0231 29.8334 10 35C10.0231 40.1666 12.0854 45.1152 15.7383 48.7691C19.3912 52.423 24.3391 54.4867 29.5058 54.5113C37.3696 54.5113 44.1351 49.7117 47.2103 42.9462C50.7304 55.5986 62.268 65 75.9967 65C89.654 65 101.126 55.7029 104.723 43.1604C107.847 49.8051 114.514 54.5113 122.284 54.5113C127.452 54.4896 132.403 52.427 136.057 48.7726C139.711 45.1182 141.774 40.168 141.796 35C141.773 29.8324 139.71 24.8831 136.055 21.229C132.401 17.5749 127.452 15.5119 122.284 15.4887C114.509 15.4887 107.842 20.2004 104.717 26.8397C101.126 14.2971 89.654 4.99451 75.9967 5ZM75.9967 16.4498C86.3097 16.4498 94.547 24.687 94.547 35C94.547 45.313 86.3097 53.5503 75.9967 53.5503C73.5579 53.5612 71.141 53.0887 68.8858 52.1603C66.6305 51.2319 64.5816 49.8658 62.8573 48.141C61.133 46.4162 59.7676 44.3669 58.8398 42.1113C57.912 39.8558 57.4403 37.4388 57.452 35C57.452 24.687 65.6892 16.4498 75.9967 16.4498ZM29.5058 26.9385C34.0198 26.9385 37.5618 30.4805 37.5618 35C37.5618 39.5195 34.0253 43.056 29.5058 43.0615C28.4443 43.0725 27.3913 42.8715 26.4086 42.4702C25.4258 42.0689 24.5331 41.4755 23.7828 40.7246C23.0324 39.9737 22.4395 39.0806 22.0389 38.0976C21.6383 37.1146 21.438 36.0615 21.4498 35C21.4372 33.9386 21.6371 32.8854 22.0375 31.9024C22.4379 30.9193 23.0308 30.0262 23.7814 29.2756C24.532 28.5251 25.4251 27.9321 26.4081 27.5317C27.3912 27.1313 28.4444 26.9315 29.5058 26.944V26.9385ZM122.284 26.9385C126.804 26.9385 130.346 30.4805 130.346 35C130.346 39.5195 126.804 43.0615 122.284 43.0615C121.223 43.0725 120.17 42.8715 119.187 42.4702C118.205 42.0689 117.312 41.4755 116.561 40.7246C115.811 39.9737 115.218 39.0806 114.818 38.0976C114.417 37.1146 114.217 36.0615 114.228 35C114.216 33.9386 114.416 32.8854 114.816 31.9024C115.217 30.9193 115.81 30.0262 116.56 29.2756C117.311 28.5251 118.204 27.9321 119.187 27.5317C120.17 27.1313 121.223 26.9315 122.284 26.944V26.9385Z" fill="url(#paint0_linear_143_121)"/>
<g filter="url(#filter0_dii_143_121)">
<path d="M77.9967 10C64.268 10 52.7359 19.4014 49.2158 32.0483C46.1406 25.2828 39.3696 20.4887 31.5058 20.4887C26.3391 20.5133 21.3912 22.577 17.7383 26.2309C14.0854 29.8848 12.0231 34.8334 12 40C12.0231 45.1666 14.0854 50.1152 17.7383 53.7691C21.3912 57.423 26.3391 59.4867 31.5058 59.5113C39.3696 59.5113 46.1351 54.7117 49.2103 47.9462C52.7304 60.5986 64.268 70 77.9967 70C91.654 70 103.126 60.7029 106.723 48.1604C109.847 54.8051 116.514 59.5113 124.284 59.5113C129.452 59.4896 134.403 57.427 138.057 53.7726C141.711 50.1182 143.774 45.168 143.796 40C143.773 34.8324 141.71 29.8831 138.055 26.229C134.401 22.5749 129.452 20.5119 124.284 20.4887C116.509 20.4887 109.842 25.2004 106.717 31.8397C103.126 19.2971 91.654 9.99451 77.9967 10ZM77.9967 21.4498C88.3097 21.4498 96.547 29.687 96.547 40C96.547 50.313 88.3097 58.5503 77.9967 58.5503C75.5579 58.5612 73.141 58.0887 70.8858 57.1603C68.6305 56.2319 66.5816 54.8658 64.8573 53.141C63.133 51.4162 61.7676 49.3669 60.8398 47.1113C59.912 44.8558 59.4403 42.4388 59.452 40C59.452 29.687 67.6892 21.4498 77.9967 21.4498ZM31.5058 31.9385C36.0198 31.9385 39.5618 35.4805 39.5618 40C39.5618 44.5195 36.0253 48.056 31.5058 48.0615C30.4443 48.0725 29.3913 47.8715 28.4086 47.4702C27.4258 47.0689 26.5331 46.4755 25.7828 45.7246C25.0324 44.9737 24.4395 44.0806 24.0389 43.0976C23.6383 42.1146 23.438 41.0615 23.4498 40C23.4372 38.9386 23.6371 37.8854 24.0375 36.9024C24.4379 35.9193 25.0308 35.0262 25.7814 34.2756C26.532 33.5251 27.4251 32.9321 28.4081 32.5317C29.3912 32.1313 30.4444 31.9315 31.5058 31.944V31.9385ZM124.284 31.9385C128.804 31.9385 132.346 35.4805 132.346 40C132.346 44.5195 128.804 48.0615 124.284 48.0615C123.223 48.0725 122.17 47.8715 121.187 47.4702C120.205 47.0689 119.312 46.4755 118.561 45.7246C117.811 44.9737 117.218 44.0806 116.818 43.0976C116.417 42.1146 116.217 41.0615 116.228 40C116.216 38.9386 116.416 37.8854 116.816 36.9024C117.217 35.9193 117.81 35.0262 118.56 34.2756C119.311 33.5251 120.204 32.9321 121.187 32.5317C122.17 32.1313 123.223 31.9315 124.284 31.944V31.9385Z" fill="#292D32"/>
<path d="M77.9967 10C64.268 10 52.7359 19.4014 49.2158 32.0483C46.1406 25.2828 39.3696 20.4887 31.5058 20.4887C26.3391 20.5133 21.3912 22.577 17.7383 26.2309C14.0854 29.8848 12.0231 34.8334 12 40C12.0231 45.1666 14.0854 50.1152 17.7383 53.7691C21.3912 57.423 26.3391 59.4867 31.5058 59.5113C39.3696 59.5113 46.1351 54.7117 49.2103 47.9462C52.7304 60.5986 64.268 70 77.9967 70C91.654 70 103.126 60.7029 106.723 48.1604C109.847 54.8051 116.514 59.5113 124.284 59.5113C129.452 59.4896 134.403 57.427 138.057 53.7726C141.711 50.1182 143.774 45.168 143.796 40C143.773 34.8324 141.71 29.8831 138.055 26.229C134.401 22.5749 129.452 20.5119 124.284 20.4887C116.509 20.4887 109.842 25.2004 106.717 31.8397C103.126 19.2971 91.654 9.99451 77.9967 10ZM77.9967 21.4498C88.3097 21.4498 96.547 29.687 96.547 40C96.547 50.313 88.3097 58.5503 77.9967 58.5503C75.5579 58.5612 73.141 58.0887 70.8858 57.1603C68.6305 56.2319 66.5816 54.8658 64.8573 53.141C63.133 51.4162 61.7676 49.3669 60.8398 47.1113C59.912 44.8558 59.4403 42.4388 59.452 40C59.452 29.687 67.6892 21.4498 77.9967 21.4498ZM31.5058 31.9385C36.0198 31.9385 39.5618 35.4805 39.5618 40C39.5618 44.5195 36.0253 48.056 31.5058 48.0615C30.4443 48.0725 29.3913 47.8715 28.4086 47.4702C27.4258 47.0689 26.5331 46.4755 25.7828 45.7246C25.0324 44.9737 24.4395 44.0806 24.0389 43.0976C23.6383 42.1146 23.438 41.0615 23.4498 40C23.4372 38.9386 23.6371 37.8854 24.0375 36.9024C24.4379 35.9193 25.0308 35.0262 25.7814 34.2756C26.532 33.5251 27.4251 32.9321 28.4081 32.5317C29.3912 32.1313 30.4444 31.9315 31.5058 31.944V31.9385ZM124.284 31.9385C128.804 31.9385 132.346 35.4805 132.346 40C132.346 44.5195 128.804 48.0615 124.284 48.0615C123.223 48.0725 122.17 47.8715 121.187 47.4702C120.205 47.0689 119.312 46.4755 118.561 45.7246C117.811 44.9737 117.218 44.0806 116.818 43.0976C116.417 42.1146 116.217 41.0615 116.228 40C116.216 38.9386 116.416 37.8854 116.816 36.9024C117.217 35.9193 117.81 35.0262 118.56 34.2756C119.311 33.5251 120.204 32.9321 121.187 32.5317C122.17 32.1313 123.223 31.9315 124.284 31.944V31.9385Z" fill="url(#paint1_linear_143_121)"/>
</g>
<defs>
<filter id="filter0_dii_143_121" x="0" y="-6" width="147.796" height="82" filterUnits="userSpaceOnUse" color-interpolation-filters="sRGB">
<feFlood flood-opacity="0" result="BackgroundImageFix"/>
<feColorMatrix in="SourceAlpha" type="matrix" values="0 0 0 0 0 0 0 0 0 0 0 0 0 0 0 0 0 0 127 0" result="hardAlpha"/>
<feOffset dx="-4" dy="-2"/>
<feGaussianBlur stdDeviation="4"/>
<feComposite in2="hardAlpha" operator="out"/>
<feColorMatrix type="matrix" values="0 0 0 0 0.117647 0 0 0 0 0.494118 0 0 0 0 0.929412 0 0 0 0.56 0"/>
<feBlend mode="normal" in2="BackgroundImageFix" result="effect1_dropShadow_143_121"/>
<feBlend mode="normal" in="SourceGraphic" in2="effect1_dropShadow_143_121" result="shape"/>
<feColorMatrix in="SourceAlpha" type="matrix" values="0 0 0 0 0 0 0 0 0 0 0 0 0 0 0 0 0 0 127 0" result="hardAlpha"/>
<feOffset dy="2"/>
<feGaussianBlur stdDeviation="1.5"/>
<feComposite in2="hardAlpha" operator="arithmetic" k2="-1" k3="1"/>
<feColorMatrix type="matrix" values="0 0 0 0 1 0 0 0 0 1 0 0 0 0 1 0 0 0 0.41 0"/>
<feBlend mode="normal" in2="shape" result="effect2_innerShadow_143_121"/>
<feColorMatrix in="SourceAlpha" type="matrix" values="0 0 0 0 0 0 0 0 0 0 0 0 0 0 0 0 0 0 127 0" result="hardAlpha"/>
<feOffset dy="-16"/>
<feGaussianBlur stdDeviation="12"/>
<feComposite in2="hardAlpha" operator="arithmetic" k2="-1" k3="1"/>
<feColorMatrix type="matrix" values="0 0 0 0 1 0 0 0 0 1 0 0 0 0 1 0 0 0 0.45 0"/>
<feBlend mode="normal" in2="effect2_innerShadow_143_121" result="effect3_innerShadow_143_121"/>
</filter>
<linearGradient id="paint0_linear_143_121" x1="75.8979" y1="5" x2="75.8979" y2="65" gradientUnits="userSpaceOnUse">
<stop stop-color="#3AC8F0"/>
<stop offset="0.0001" stop-color="#45D5EE"/>
<stop offset="0.442708" stop-color="#2498F7"/>
<stop offset="0.9999" stop-color="#005FFC"/>
<stop offset="1" stop-color="#3AC8F0" stop-opacity="0"/>
<stop offset="1" stop-color="#3AC8F0" stop-opacity="0"/>
<stop offset="1" stop-color="#3AC8F0" stop-opacity="0"/>
</linearGradient>
<linearGradient id="paint1_linear_143_121" x1="77.8979" y1="10" x2="77.8979" y2="70" gradientUnits="userSpaceOnUse">
<stop stop-color="#3AC8F0"/>
<stop offset="0.0001" stop-color="#45D5EE"/>
<stop offset="0.442708" stop-color="#2498F7"/>
<stop offset="0.9999" stop-color="#005FFC"/>
<stop offset="1" stop-color="#3AC8F0" stop-opacity="0"/>
<stop offset="1" stop-color="#3AC8F0" stop-opacity="0"/>
<stop offset="1" stop-color="#3AC8F0" stop-opacity="0"/>
</linearGradient>
</defs>
</svg>
