<svg width="174" height="48" viewBox="0 0 174 48" fill="none" xmlns="http://www.w3.org/2000/svg">
<path d="M141.167 8.01323C141.719 8.01323 142.167 8.46095 142.167 9.01323V12.0778C142.167 12.6301 141.719 13.0778 141.167 13.0778H132.282C131.73 13.0778 131.282 13.5256 131.282 14.0778V38.7231C131.282 39.2754 130.834 39.7231 130.282 39.7231H126.839C126.286 39.7231 125.839 39.2754 125.839 38.7231V14.0782C125.839 13.5259 125.391 13.0782 124.839 13.0782H115.727C115.174 13.0782 114.727 12.6304 114.727 12.0782V9.01323C114.727 8.46095 115.174 8.01323 115.727 8.01323H141.167ZM35.9915 39.7231C35.6887 39.7231 35.4022 39.5859 35.2124 39.3499L17.2222 16.9892C16.6305 16.2538 15.4431 16.6722 15.4431 17.6161V38.7102C15.4431 39.2624 14.9954 39.7102 14.4431 39.7102H11C10.4477 39.7102 10 39.2624 10 38.7102V9C10 8.44771 10.4477 8 11 8H16.3247C16.6274 8 16.9138 8.13707 17.1036 8.37279L40.3803 37.277C40.9721 38.0119 42.1591 37.5934 42.1591 36.6498L42.1594 13.0782L42.1577 9.01366C42.1574 8.4612 42.6052 8.01323 43.1577 8.01323H68.5972C69.1495 8.01323 69.5972 8.46095 69.5972 9.01323V12.0778C69.5972 12.6301 69.1495 13.0778 68.5972 13.0778H48.6022C48.0499 13.0778 47.6022 13.5256 47.6022 14.0778V20.2255C47.6022 20.7778 48.0499 21.2255 48.6022 21.2255H64.2908C64.8431 21.2255 65.2908 21.6733 65.2908 22.2255V25.2905C65.2908 25.8427 64.8431 26.2905 64.2908 26.2905H48.6022C48.0499 26.2905 47.6022 26.7382 47.6022 27.2905V33.6585C47.6022 34.2107 48.0499 34.6585 48.6022 34.6585H68.5975C69.1498 34.6585 69.5975 35.1062 69.5975 35.6585V38.7231C69.5975 39.2754 69.1498 39.7231 68.5975 39.7231H35.9915ZM86.2622 27.21C86.6627 26.7127 87.4202 26.7129 87.8203 27.2104L90.1044 30.05C90.3988 30.4161 90.3988 30.9377 90.1043 31.3037L83.5996 39.3875C83.4098 39.6234 83.1233 39.7606 82.8205 39.7606H78.2454C77.4054 39.7606 76.9397 38.7877 77.4665 38.1334L86.2622 27.21ZM82.8207 8.02646C83.1234 8.02646 83.4098 8.16355 83.5996 8.39929L91.7297 18.4961C92.13 18.9932 92.8872 18.9932 93.2875 18.496L101.389 8.43367C101.579 8.19832 101.865 8.06127 102.167 8.06082L106.721 8.05393C107.561 8.05266 108.028 9.02563 107.502 9.68054L96.579 23.2652C96.2846 23.6314 96.2848 24.1531 96.5794 24.519L107.522 38.1091C108.049 38.7634 107.583 39.7363 106.744 39.7363H102.168C101.865 39.7363 101.579 39.5991 101.389 39.3632L77.4855 9.65332C76.9591 8.999 77.4249 8.02646 78.2646 8.02646H82.8207Z" fill="url(#paint0_linear_116_344)"/>
<g filter="url(#filter0_dii_116_344)">
<path d="M143.167 10.0132C143.719 10.0132 144.167 10.4609 144.167 11.0132V14.0778C144.167 14.6301 143.719 15.0778 143.167 15.0778H134.282C133.73 15.0778 133.282 15.5256 133.282 16.0778V40.7231C133.282 41.2754 132.834 41.7231 132.282 41.7231H128.839C128.286 41.7231 127.839 41.2754 127.839 40.7231V16.0782C127.839 15.5259 127.391 15.0782 126.839 15.0782H117.727C117.174 15.0782 116.727 14.6304 116.727 14.0782V11.0132C116.727 10.4609 117.174 10.0132 117.727 10.0132H143.167ZM145.391 38.7025C145.774 38.7025 146.11 38.8403 146.394 39.1166C146.682 39.3926 146.825 39.7234 146.829 40.1086C146.828 40.3614 146.758 40.6091 146.626 40.8246C146.496 41.0373 146.315 41.2136 146.098 41.3369C145.885 41.4647 145.64 41.5313 145.391 41.5295C144.992 41.5295 144.653 41.3914 144.369 41.1154C144.085 40.8391 143.945 40.5046 143.948 40.1086C143.945 39.7234 144.085 39.3926 144.369 39.1166C144.653 38.8403 144.992 38.7025 145.391 38.7025ZM37.9915 41.7231C37.6887 41.7231 37.4022 41.5859 37.2124 41.3499L19.2222 18.9892C18.6305 18.2538 17.4431 18.6722 17.4431 19.6161V40.7102C17.4431 41.2624 16.9954 41.7102 16.4431 41.7102H13C12.4477 41.7102 12 41.2624 12 40.7102V11C12 10.4477 12.4477 10 13 10H18.3247C18.6274 10 18.9138 10.1371 19.1036 10.3728L42.3803 39.277C42.9721 40.0119 44.1591 39.5934 44.1591 38.6498L44.1594 15.0782L44.1577 11.0137C44.1574 10.4612 44.6052 10.0132 45.1577 10.0132H70.5972C71.1495 10.0132 71.5972 10.4609 71.5972 11.0132V14.0778C71.5972 14.6301 71.1495 15.0778 70.5972 15.0778H50.6022C50.0499 15.0778 49.6022 15.5256 49.6022 16.0778V22.2255C49.6022 22.7778 50.0499 23.2255 50.6022 23.2255H66.2908C66.8431 23.2255 67.2908 23.6733 67.2908 24.2255V27.2905C67.2908 27.8427 66.8431 28.2905 66.2908 28.2905H50.6022C50.0499 28.2905 49.6022 28.7382 49.6022 29.2905V35.6585C49.6022 36.2107 50.0499 36.6585 50.6022 36.6585H70.5975C71.1498 36.6585 71.5975 37.1062 71.5975 37.6585V40.7231C71.5975 41.2754 71.1498 41.7231 70.5975 41.7231H37.9915ZM88.2622 29.21C88.6627 28.7127 89.4202 28.7129 89.8203 29.2104L92.1044 32.05C92.3988 32.4161 92.3988 32.9377 92.1043 33.3037L85.5996 41.3875C85.4098 41.6234 85.1233 41.7606 84.8205 41.7606H80.2454C79.4054 41.7606 78.9397 40.7877 79.4665 40.1334L88.2622 29.21ZM84.8207 10.0265C85.1234 10.0265 85.4098 10.1635 85.5996 10.3993L93.7297 20.4961C94.13 20.9932 94.8872 20.9932 95.2875 20.496L103.389 10.4337C103.579 10.1983 103.865 10.0613 104.167 10.0608L108.721 10.0539C109.561 10.0527 110.028 11.0256 109.502 11.6805L98.579 25.2652C98.2846 25.6314 98.2848 26.1531 98.5794 26.519L109.522 40.1091C110.049 40.7634 109.583 41.7363 108.744 41.7363H104.168C103.865 41.7363 103.579 41.5991 103.389 41.3632L79.4855 11.6533C78.9591 10.999 79.4249 10.0265 80.2646 10.0265H84.8207ZM154.68 29.1711C154.68 28.6188 155.128 28.1711 155.68 28.1711H156.092C156.644 28.1711 157.092 28.6188 157.092 29.1711V37.4634C157.089 38.3172 156.904 39.0474 156.543 39.6618C156.178 40.2757 155.672 40.7446 155.023 41.0754C154.378 41.4022 153.622 41.5695 152.762 41.5695C151.977 41.5695 151.273 41.428 150.646 41.1517C150.019 40.8754 149.521 40.4612 149.156 39.916C148.949 39.6098 148.801 39.2611 148.711 38.8699C148.587 38.3316 149.054 37.8775 149.606 37.8775H150.057C150.592 37.8775 150.987 38.342 151.262 38.8006C151.414 39.0557 151.637 39.2613 151.903 39.3926C152.18 39.5311 152.497 39.6 152.854 39.6C153.242 39.6 153.574 39.52 153.843 39.3563C154.112 39.1963 154.319 38.9566 154.463 38.6369C154.603 38.3206 154.677 37.9283 154.68 37.4631V29.1711ZM167.917 31.8049C167.405 31.8049 167.008 31.387 166.722 30.9622C166.6 30.7814 166.442 30.6237 166.249 30.4895C165.795 30.1732 165.209 30.0172 164.49 30.0172C163.985 30.0172 163.55 30.0935 163.188 30.2425C162.827 30.3951 162.546 30.5985 162.354 30.8566C162.163 31.1145 162.067 31.4089 162.059 31.7397C162.059 32.0157 162.126 32.2557 162.255 32.4554C162.389 32.6647 162.569 32.8402 162.782 32.968C163.014 33.1136 163.261 33.2318 163.52 33.3203C163.793 33.4148 164.066 33.4948 164.338 33.5603L165.596 33.8692C166.102 33.9855 166.592 34.1415 167.06 34.3415C167.528 34.5378 167.953 34.7886 168.325 35.0902C168.698 35.3917 168.993 35.7551 169.21 36.1803C169.428 36.6055 169.538 37.1034 169.538 37.6775C169.538 38.4514 169.339 39.1311 168.937 39.7197C168.535 40.3049 167.956 40.7628 167.197 41.0935C166.441 41.4206 165.526 41.5877 164.449 41.5877C163.409 41.5877 162.502 41.4277 161.738 41.108C160.972 40.792 160.374 40.3265 159.942 39.716C159.691 39.36 159.507 38.9582 159.391 38.5114C159.248 37.9625 159.717 37.4849 160.284 37.4849H160.705C161.229 37.4849 161.633 37.9152 161.89 38.3724C161.941 38.4645 162.001 38.5514 162.067 38.6332C162.321 38.9385 162.653 39.1637 163.059 39.3163C163.468 39.4655 163.926 39.5418 164.431 39.5418C164.958 39.5418 165.423 39.4618 165.825 39.3055C166.223 39.1492 166.536 38.9314 166.762 38.6477C166.99 38.3677 167.105 38.0372 167.108 37.6594C167.105 37.3142 167.001 37.0271 166.802 36.8015C166.599 36.5763 166.319 36.3874 165.961 36.2348C165.6 36.0822 165.179 35.944 164.7 35.8243L163.173 35.4391C162.07 35.1591 161.197 34.7342 160.558 34.1634C159.917 33.5929 159.6 32.8372 159.6 31.8886C159.6 31.1111 159.814 30.4277 160.245 29.8425C160.673 29.2578 161.259 28.8034 162.001 28.48C162.745 28.1529 163.586 27.9929 164.523 27.9929C165.474 27.9929 166.308 28.1529 167.027 28.48C167.746 28.8034 168.31 29.2538 168.719 29.828C168.935 30.1303 169.096 30.4557 169.203 30.8047C169.365 31.3386 168.897 31.8049 168.339 31.8049H167.917Z" fill="url(#paint1_linear_116_344)"/>
</g>
<defs>
<filter id="filter0_dii_116_344" x="0" y="-6" width="173.538" height="53.7605" filterUnits="userSpaceOnUse" color-interpolation-filters="sRGB">
<feFlood flood-opacity="0" result="BackgroundImageFix"/>
<feColorMatrix in="SourceAlpha" type="matrix" values="0 0 0 0 0 0 0 0 0 0 0 0 0 0 0 0 0 0 127 0" result="hardAlpha"/>
<feOffset dx="-4" dy="-2"/>
<feGaussianBlur stdDeviation="4"/>
<feComposite in2="hardAlpha" operator="out"/>
<feColorMatrix type="matrix" values="0 0 0 0 0.0698785 0 0 0 0 0.634776 0 0 0 0 0.670833 0 0 0 0.52 0"/>
<feBlend mode="normal" in2="BackgroundImageFix" result="effect1_dropShadow_116_344"/>
<feBlend mode="normal" in="SourceGraphic" in2="effect1_dropShadow_116_344" result="shape"/>
<feColorMatrix in="SourceAlpha" type="matrix" values="0 0 0 0 0 0 0 0 0 0 0 0 0 0 0 0 0 0 127 0" result="hardAlpha"/>
<feOffset dy="-16"/>
<feGaussianBlur stdDeviation="8"/>
<feComposite in2="hardAlpha" operator="arithmetic" k2="-1" k3="1"/>
<feColorMatrix type="matrix" values="0 0 0 0 1 0 0 0 0 1 0 0 0 0 1 0 0 0 0.58 0"/>
<feBlend mode="normal" in2="shape" result="effect2_innerShadow_116_344"/>
<feColorMatrix in="SourceAlpha" type="matrix" values="0 0 0 0 0 0 0 0 0 0 0 0 0 0 0 0 0 0 127 0" result="hardAlpha"/>
<feOffset dy="2"/>
<feGaussianBlur stdDeviation="1.5"/>
<feComposite in2="hardAlpha" operator="arithmetic" k2="-1" k3="1"/>
<feColorMatrix type="matrix" values="0 0 0 0 1 0 0 0 0 1 0 0 0 0 1 0 0 0 0.41 0"/>
<feBlend mode="normal" in2="effect2_innerShadow_116_344" result="effect3_innerShadow_116_344"/>
</filter>
<linearGradient id="paint0_linear_116_344" x1="76.0835" y1="8" x2="76.0835" y2="39.7606" gradientUnits="userSpaceOnUse">
<stop stop-color="#8EF7FE"/>
<stop offset="0.984375" stop-color="#06B7B7"/>
</linearGradient>
<linearGradient id="paint1_linear_116_344" x1="90.7692" y1="10" x2="90.7692" y2="41.7606" gradientUnits="userSpaceOnUse">
<stop stop-color="#8EF7FE"/>
<stop offset="0.984375" stop-color="#06B7B7"/>
</linearGradient>
</defs>
</svg>
