<svg width="109" height="116" viewBox="0 0 109 116" fill="none" xmlns="http://www.w3.org/2000/svg">
<path d="M41.632 3.46403C45.3448 1.32048 49.9191 1.32048 53.6319 3.46403L89.2638 24.0359C92.9767 26.1795 95.2639 30.141 95.2639 34.4282V75.5718C95.2639 79.859 92.9767 83.8205 89.2638 85.9641L53.6319 106.536C49.9191 108.68 45.3448 108.68 41.632 106.536L6.00005 85.9641C2.28721 83.8205 0 79.859 0 75.5718V34.4282C0 30.141 2.28721 26.1795 6.00005 24.0359L41.632 3.46403Z" fill="url(#paint0_linear_116_325)"/>
<g filter="url(#filter0_dii_116_325)">
<path d="M68.7169 110C67.5457 110 66.4525 109.687 65.4373 109.141L55.0513 102.972C53.4896 102.113 54.2705 101.8 54.739 101.644C56.8473 100.941 57.2377 100.785 59.4241 99.5356C59.6587 99.3794 59.971 99.4575 60.205 99.6137L68.1703 104.377C68.4827 104.533 68.8731 104.533 69.1074 104.377L100.265 86.3388C100.577 86.1826 100.734 85.8703 100.734 85.4799V49.4805C100.734 49.0901 100.577 48.7777 100.265 48.6216L69.1074 30.6609C68.795 30.5048 68.4046 30.5048 68.1703 30.6609L37.0126 48.6219C36.7003 48.778 36.5441 49.1685 36.5441 49.4808V85.4799C36.5441 85.7922 36.7003 86.1826 37.0126 86.3388L45.5246 91.2582C50.1319 93.6008 53.0208 90.8678 53.0208 88.1348V52.6039C53.0208 52.1354 53.4115 51.6669 53.9581 51.6669H57.9408C58.4093 51.6669 58.8778 52.0573 58.8778 52.6039V88.1345C58.8778 94.3036 55.5198 97.8955 49.6631 97.8955C47.8671 97.8955 46.4616 97.8955 42.4792 95.9434L34.2796 91.2582C32.2494 90.0866 31 87.9002 31 85.5576V49.5589C31 47.2163 32.2494 45.0299 34.2796 43.8583L65.4373 25.8199C67.3895 24.7267 70.0444 24.7267 71.9966 25.8199L103.154 43.8583C105.185 45.0296 106.434 47.216 106.434 49.5589V85.5579C106.434 87.9005 105.185 90.0869 103.154 91.2582L71.9966 109.297C70.9814 109.766 69.8101 110 68.7169 110ZM78.3218 85.2453C64.6562 85.2453 61.8451 78.9984 61.8451 73.6883C61.8451 73.2198 62.2355 72.7513 62.7821 72.7513H66.8426C67.3111 72.7513 67.7018 73.0636 67.7018 73.5321C68.3265 77.6707 70.1225 79.7012 78.3999 79.7012C84.9594 79.7012 87.7708 78.2176 87.7708 74.7037C87.7708 72.6732 86.9899 71.1896 76.7601 70.1741C68.2484 69.3152 62.9383 67.4411 62.9383 60.6477C62.9383 54.3221 68.2481 50.574 77.1505 50.574C87.1458 50.574 92.0655 54.0098 92.6902 61.5063C92.6902 61.7406 92.6121 61.9748 92.4559 62.2091C92.2998 62.3653 92.0655 62.5214 91.8312 62.5214H87.7708C87.3801 62.5214 86.9899 62.2091 86.9115 61.8187C85.9745 57.5239 83.5538 56.1184 77.1505 56.1184C69.9666 56.1184 69.1074 58.6171 69.1074 60.4912C69.1074 62.756 70.1225 63.4585 79.8054 64.7078C89.4106 65.9572 93.9396 67.7535 93.9396 74.4692C93.8615 81.341 88.2393 85.2453 78.3218 85.2453Z" fill="url(#paint1_linear_116_325)"/>
<path d="M55.3067 102.542L55.2995 102.538L55.2923 102.534C55.0205 102.384 54.8471 102.264 54.7404 102.175C54.7872 102.156 54.8397 102.138 54.8971 102.119C55.9485 101.768 56.5958 101.546 57.256 101.252C57.9158 100.957 58.5794 100.594 59.6723 99.9697L59.6871 99.9612L59.7007 99.9522C59.7011 99.952 59.702 99.9518 59.7032 99.9516C59.7083 99.9507 59.7215 99.9493 59.7441 99.9525C59.7927 99.9594 59.8596 99.9843 59.9274 100.03L59.9377 100.036L59.9484 100.043L67.9137 104.806L67.9299 104.816L67.9467 104.824C68.3693 105.036 68.9493 105.073 69.3694 104.803L100.504 86.7783C101.017 86.514 101.234 86.0022 101.234 85.4799V49.4805C101.234 48.958 101.017 48.446 100.503 48.1818L69.3571 30.2277L69.3442 30.2203L69.331 30.2137C68.9086 30.0025 68.3288 29.965 67.9087 30.2346L36.774 48.1823C36.2451 48.456 36.0441 49.0585 36.0441 49.4808V85.4799C36.0441 85.902 36.245 86.5044 36.7738 86.7783L45.2744 91.6911L45.286 91.6978L45.2979 91.7039C47.712 92.9313 49.7679 92.8689 51.246 92.0354C52.7096 91.21 53.5208 89.6721 53.5208 88.1348V52.6039C53.5208 52.3845 53.714 52.1669 53.9581 52.1669H57.9408C58.1605 52.1669 58.3778 52.36 58.3778 52.6039V88.1345C58.3778 91.1315 57.563 93.4347 56.1027 94.9856C54.6465 96.5323 52.4874 97.3955 49.6631 97.3955C48.7675 97.3955 48.0162 97.3945 47.0019 97.1639C45.9829 96.9323 44.6784 96.4637 42.7135 95.5014L34.5295 90.8251C34.5294 90.8251 34.5293 90.825 34.5292 90.8249C32.6555 89.7436 31.5 87.7233 31.5 85.5576V49.5589C31.5 47.3931 32.6557 45.3727 34.5295 44.2914L34.5301 44.291L65.6816 26.2562C65.6827 26.2556 65.6837 26.255 65.6847 26.2544C67.4838 25.2485 69.9501 25.2485 71.7492 26.2544C71.7502 26.255 71.7512 26.2556 71.7523 26.2562L102.904 44.291L102.904 44.2914C104.778 45.3725 105.934 47.3928 105.934 49.5589V85.5579C105.934 87.7237 104.778 89.7441 102.904 90.8251L102.904 90.8255L71.7664 108.853C70.827 109.282 69.7365 109.5 68.7169 109.5C67.6417 109.5 66.6323 109.215 65.6835 108.705L55.3067 102.542ZM54.5707 102.263C54.5705 102.263 54.5716 102.262 54.5743 102.259C54.5722 102.262 54.5709 102.263 54.5707 102.263ZM67.2018 73.5321V73.5697L67.2074 73.6068C67.528 75.7303 68.1688 77.4461 69.9068 78.5866C71.5994 79.6975 74.2472 80.2012 78.3999 80.2012C81.6957 80.2012 84.1433 79.8323 85.78 78.9616C86.6098 78.5201 87.2416 77.9443 87.6619 77.2172C88.0812 76.4918 88.2708 75.6494 88.2708 74.7037C88.2708 74.1699 88.2215 73.5976 87.9309 73.0483C87.6367 72.4922 87.1289 72.0209 86.3288 71.6128C84.7611 70.8134 81.9206 70.184 76.8103 69.6767C72.5578 69.2475 69.2014 68.5703 66.9133 67.2068C65.7807 66.5319 64.92 65.6943 64.3389 64.64C63.7569 63.5842 63.4383 62.2802 63.4383 60.6477C63.4383 57.6447 64.689 55.2795 66.9949 53.6468C69.3215 51.9996 72.7601 51.074 77.1505 51.074C82.105 51.074 85.712 51.9281 88.147 53.6381C90.5507 55.3262 91.883 57.8996 92.1899 61.5239C92.1866 61.627 92.1538 61.7469 92.0675 61.8885C92.0251 61.9263 91.9786 61.9602 91.9334 61.9849C91.8736 62.0175 91.8395 62.0214 91.8312 62.0214H87.7708C87.6148 62.0214 87.4326 61.8737 87.4018 61.7202L87.4018 61.7202L87.4 61.7121C86.9136 59.4827 86.0176 57.9089 84.3328 56.9261C82.6883 55.9668 80.3668 55.6184 77.1505 55.6184C73.5211 55.6184 71.3739 56.2456 70.1295 57.2062C68.8474 58.1959 68.6074 59.4697 68.6074 60.4912C68.6074 61.0855 68.6713 61.6672 68.9905 62.1903C69.3123 62.7177 69.8472 63.1118 70.6317 63.4413C72.1709 64.0877 74.9192 64.5815 79.7409 65.2037C84.5505 65.8293 87.9814 66.5829 90.2112 67.9637C91.3112 68.6449 92.1085 69.4735 92.636 70.5128C93.1654 71.5559 93.4392 72.8437 93.4396 74.4662C93.4016 77.7455 92.0515 80.2843 89.5362 82.0229C86.9963 83.7783 83.2257 84.7453 78.3218 84.7453C71.5552 84.7453 67.5806 83.1977 65.298 81.0907C63.0234 78.9912 62.3451 76.2578 62.3451 73.6883C62.3451 73.4686 62.5382 73.2513 62.7821 73.2513H66.8426C66.9677 73.2513 67.0622 73.2929 67.1187 73.3424C67.1701 73.3873 67.2018 73.4469 67.2018 73.5321Z" stroke="white" stroke-opacity="0.4"/>
</g>
<defs>
<filter id="filter0_dii_116_325" x="21" y="9" width="87.4339" height="107" filterUnits="userSpaceOnUse" color-interpolation-filters="sRGB">
<feFlood flood-opacity="0" result="BackgroundImageFix"/>
<feColorMatrix in="SourceAlpha" type="matrix" values="0 0 0 0 0 0 0 0 0 0 0 0 0 0 0 0 0 0 127 0" result="hardAlpha"/>
<feOffset dx="-4"/>
<feGaussianBlur stdDeviation="3"/>
<feComposite in2="hardAlpha" operator="out"/>
<feColorMatrix type="matrix" values="0 0 0 0 0.120417 0 0 0 0 0.85 0 0 0 0 0.500842 0 0 0 0.46 0"/>
<feBlend mode="normal" in2="BackgroundImageFix" result="effect1_dropShadow_116_325"/>
<feBlend mode="normal" in="SourceGraphic" in2="effect1_dropShadow_116_325" result="shape"/>
<feColorMatrix in="SourceAlpha" type="matrix" values="0 0 0 0 0 0 0 0 0 0 0 0 0 0 0 0 0 0 127 0" result="hardAlpha"/>
<feOffset dy="2"/>
<feGaussianBlur stdDeviation="1.5"/>
<feComposite in2="hardAlpha" operator="arithmetic" k2="-1" k3="1"/>
<feColorMatrix type="matrix" values="0 0 0 0 1 0 0 0 0 1 0 0 0 0 1 0 0 0 0.41 0"/>
<feBlend mode="normal" in2="shape" result="effect2_innerShadow_116_325"/>
<feColorMatrix in="SourceAlpha" type="matrix" values="0 0 0 0 0 0 0 0 0 0 0 0 0 0 0 0 0 0 127 0" result="hardAlpha"/>
<feOffset dy="-16"/>
<feGaussianBlur stdDeviation="8"/>
<feComposite in2="hardAlpha" operator="arithmetic" k2="-1" k3="1"/>
<feColorMatrix type="matrix" values="0 0 0 0 1 0 0 0 0 1 0 0 0 0 1 0 0 0 0.4 0"/>
<feBlend mode="normal" in2="effect2_innerShadow_116_325" result="effect3_innerShadow_116_325"/>
</filter>
<linearGradient id="paint0_linear_116_325" x1="47.6319" y1="0" x2="47.6319" y2="110" gradientUnits="userSpaceOnUse">
<stop stop-color="#73F6B1"/>
<stop offset="1" stop-color="#04934A"/>
</linearGradient>
<linearGradient id="paint1_linear_116_325" x1="68.7169" y1="25" x2="68.7169" y2="110" gradientUnits="userSpaceOnUse">
<stop stop-color="#73F6B1"/>
<stop offset="1" stop-color="#04934A"/>
</linearGradient>
</defs>
</svg>
