<svg width="189" height="76" viewBox="0 0 189 76" fill="none" xmlns="http://www.w3.org/2000/svg">
<path fill-rule="evenodd" clip-rule="evenodd" d="M165.87 70C170.377 70.0041 174.784 68.6717 178.534 66.1711C182.284 63.6706 185.208 60.1142 186.937 55.9518C188.665 51.7894 189.121 47.2078 188.245 42.7865C187.37 38.3652 185.204 34.3028 182.02 31.1128C178.836 27.9229 174.777 25.7488 170.357 24.8654C165.938 23.9821 161.355 24.4292 157.19 26.1501C153.024 27.8711 149.462 30.7886 146.955 34.5338C144.447 38.279 143.107 42.6837 143.103 47.1908C143.1 50.1834 143.687 53.1472 144.829 55.913C145.972 58.6789 147.648 61.1926 149.762 63.3106C151.877 65.4287 154.387 67.1095 157.151 68.2573C159.915 69.4051 162.877 69.9972 165.87 70ZM165.87 60.6499C168.528 60.654 171.127 59.8699 173.339 58.3968C175.552 56.9236 177.277 54.8276 178.298 52.3736C179.319 49.9197 179.589 47.2182 179.075 44.6106C178.561 42.0031 177.284 39.6067 175.408 37.7244C173.532 35.8421 171.139 34.5585 168.533 34.0359C165.927 33.5133 163.225 33.7752 160.768 34.7885C158.311 35.8018 156.209 37.5209 154.729 39.7285C153.249 41.936 152.457 44.5329 152.453 47.1908C152.45 48.9555 152.795 50.7035 153.468 52.3349C154.141 53.9664 155.128 55.4493 156.374 56.6991C157.62 57.9489 159.1 58.9411 160.729 59.6189C162.358 60.2968 164.105 60.6471 165.87 60.6499Z" fill="url(#paint0_linear_117_477)"/>
<path fill-rule="evenodd" clip-rule="evenodd" d="M117.589 70C122.096 70.0041 126.503 68.6717 130.253 66.1711C134.003 63.6706 136.927 60.1142 138.656 55.9518C140.384 51.7894 140.84 47.2078 139.965 42.7865C139.089 38.3652 136.923 34.3028 133.739 31.1128C130.555 27.9229 126.496 25.7488 122.076 24.8654C117.657 23.9821 113.074 24.4292 108.909 26.1501C104.743 27.8711 101.181 30.7886 98.674 34.5338C96.1665 38.279 94.8259 42.6837 94.8218 47.1908C94.8162 53.231 97.2089 59.0263 101.474 63.3032C105.739 67.5802 111.528 69.9889 117.568 70H117.589ZM117.589 60.6499C120.247 60.654 122.846 59.8699 125.058 58.3968C127.271 56.9236 128.996 54.8276 130.017 52.3736C131.038 49.9197 131.308 47.2182 130.794 44.6106C130.28 42.0031 129.003 39.6067 127.127 37.7244C125.251 35.8421 122.858 34.5585 120.252 34.0359C117.646 33.5133 114.944 33.7752 112.487 34.7885C110.03 35.8018 107.928 37.5209 106.448 39.7285C104.968 41.936 104.176 44.5329 104.172 47.1908C104.169 48.9555 104.514 50.7035 105.187 52.3349C105.86 53.9664 106.847 55.4493 108.093 56.6991C109.339 57.9489 110.819 58.9411 112.448 59.6189C114.077 60.2968 115.824 60.6471 117.589 60.6499Z" fill="url(#paint1_linear_117_477)"/>
<path fill-rule="evenodd" clip-rule="evenodd" d="M92.7675 47.044V47.2117C92.7675 52.3432 91.034 57.3242 87.848 61.3469C84.6621 65.3695 80.2107 68.198 75.2157 69.3735C70.2207 70.549 64.975 70.0026 60.3295 67.8229C55.6839 65.6433 51.911 61.9582 49.6225 57.3653C47.334 52.7724 46.6641 47.541 47.7216 42.5197C48.7791 37.4984 51.5019 32.9816 55.4485 29.7018C59.395 26.422 64.3337 24.5716 69.4638 24.4507C74.5938 24.3297 79.6143 25.9454 83.7109 29.0356V14.5283C83.7109 13.3273 84.188 12.1755 85.0372 11.3263C85.8864 10.4771 87.0382 10 88.2392 10C89.4402 10 90.592 10.4771 91.4412 11.3263C92.2904 12.1755 92.7675 13.3273 92.7675 14.5283V47.044ZM69.9793 60.6499C72.637 60.6623 75.2388 59.8863 77.4556 58.4201C79.6723 56.9538 81.4045 54.8631 82.4331 52.4124C83.4616 49.9617 83.7404 47.261 83.2341 44.6519C82.7278 42.0428 81.4591 39.6424 79.5886 37.7542C77.7181 35.8661 75.3296 34.5751 72.7254 34.0444C70.1211 33.5136 67.4179 33.7671 64.9577 34.7727C62.4975 35.7783 60.3907 37.4908 58.9037 39.6937C57.4168 41.8967 56.6165 44.4911 56.604 47.1488C56.5957 48.9136 56.9351 50.6626 57.6028 52.2962C58.2705 53.9298 59.2534 55.4158 60.4954 56.6695C61.7374 57.9232 63.2142 58.92 64.8415 59.6029C66.4687 60.2859 68.2145 60.6416 69.9793 60.6499Z" fill="url(#paint2_linear_117_477)"/>
<path fill-rule="evenodd" clip-rule="evenodd" d="M22.7883 69.958C27.2953 69.958 31.7012 68.6215 35.4487 66.1175C39.1962 63.6135 42.1171 60.0544 43.8419 55.8904C45.5667 51.7264 46.0179 47.1445 45.1386 42.724C44.2594 38.3035 42.089 34.243 38.902 31.056C35.715 27.869 31.6545 25.6986 27.234 24.8193C22.8135 23.9401 18.2316 24.3913 14.0676 26.1161C9.90356 27.8409 6.34452 30.7618 3.84051 34.5093C1.33651 38.2568 0 42.6626 0 47.1697C0 53.2136 2.4009 59.0098 6.67453 63.2835C10.9482 67.5571 16.7444 69.958 22.7883 69.958ZM22.5786 60.6917C25.24 60.6917 27.8414 59.9014 30.0531 58.4211C32.2648 56.9407 33.9871 54.837 35.0017 52.3766C36.0163 49.9162 36.2774 47.21 35.7521 44.6009C35.2267 41.9919 33.9385 39.5977 32.0508 37.7217C30.163 35.8457 27.7607 34.5725 25.1485 34.0635C22.5362 33.5545 19.8317 33.8326 17.3777 34.8626C14.9237 35.8926 12.8308 37.628 11.3643 39.8489C9.89785 42.0698 9.12385 44.6761 9.14046 47.3375C9.16261 50.8869 10.5882 54.2835 13.1059 56.7855C15.6237 59.2875 19.0291 60.6918 22.5786 60.6917Z" fill="url(#paint3_linear_117_477)"/>
<g filter="url(#filter0_dii_117_477)">
<path fill-rule="evenodd" clip-rule="evenodd" d="M92.7675 47.044V47.2117C92.7675 52.3432 91.034 57.3242 87.848 61.3469C84.6621 65.3695 80.2107 68.198 75.2157 69.3735C70.2207 70.549 64.975 70.0026 60.3295 67.8229C55.6839 65.6433 51.911 61.9582 49.6225 57.3653C47.334 52.7724 46.6641 47.541 47.7216 42.5197C48.7791 37.4984 51.5019 32.9816 55.4485 29.7018C59.395 26.422 64.3337 24.5716 69.4638 24.4507C74.5938 24.3297 79.6143 25.9454 83.7109 29.0356V14.5283C83.7109 13.3273 84.188 12.1755 85.0372 11.3263C85.8864 10.4771 87.0382 10 88.2392 10C89.4402 10 90.592 10.4771 91.4412 11.3263C92.2904 12.1755 92.7675 13.3273 92.7675 14.5283V47.044ZM69.9793 60.6499C72.637 60.6623 75.2388 59.8863 77.4556 58.4201C79.6723 56.9538 81.4045 54.8631 82.4331 52.4124C83.4616 49.9617 83.7404 47.261 83.2341 44.6519C82.7278 42.0428 81.4591 39.6424 79.5886 37.7542C77.7181 35.8661 75.3296 34.5751 72.7254 34.0444C70.1211 33.5136 67.4179 33.7671 64.9577 34.7727C62.4975 35.7783 60.3907 37.4908 58.9037 39.6937C57.4168 41.8967 56.6165 44.4911 56.604 47.1488C56.5957 48.9136 56.9351 50.6626 57.6028 52.2962C58.2705 53.9298 59.2534 55.4158 60.4954 56.6695C61.7374 57.9232 63.2142 58.92 64.8415 59.6029C66.4687 60.2859 68.2145 60.6416 69.9793 60.6499Z" fill="url(#paint4_linear_117_477)"/>
</g>
<defs>
<filter id="filter0_dii_117_477" x="35.2329" y="-6" width="61.5347" height="81.9789" filterUnits="userSpaceOnUse" color-interpolation-filters="sRGB">
<feFlood flood-opacity="0" result="BackgroundImageFix"/>
<feColorMatrix in="SourceAlpha" type="matrix" values="0 0 0 0 0 0 0 0 0 0 0 0 0 0 0 0 0 0 127 0" result="hardAlpha"/>
<feOffset dx="-4" dy="-2"/>
<feGaussianBlur stdDeviation="4"/>
<feComposite in2="hardAlpha" operator="out"/>
<feColorMatrix type="matrix" values="0 0 0 0 0.643137 0 0 0 0 0.0392157 0 0 0 0 0.694118 0 0 0 0.29 0"/>
<feBlend mode="normal" in2="BackgroundImageFix" result="effect1_dropShadow_117_477"/>
<feBlend mode="normal" in="SourceGraphic" in2="effect1_dropShadow_117_477" result="shape"/>
<feColorMatrix in="SourceAlpha" type="matrix" values="0 0 0 0 0 0 0 0 0 0 0 0 0 0 0 0 0 0 127 0" result="hardAlpha"/>
<feOffset dy="2"/>
<feGaussianBlur stdDeviation="1.5"/>
<feComposite in2="hardAlpha" operator="arithmetic" k2="-1" k3="1"/>
<feColorMatrix type="matrix" values="0 0 0 0 1 0 0 0 0 1 0 0 0 0 1 0 0 0 0.41 0"/>
<feBlend mode="normal" in2="shape" result="effect2_innerShadow_117_477"/>
<feColorMatrix in="SourceAlpha" type="matrix" values="0 0 0 0 0 0 0 0 0 0 0 0 0 0 0 0 0 0 127 0" result="hardAlpha"/>
<feOffset dy="-16"/>
<feGaussianBlur stdDeviation="8"/>
<feComposite in2="hardAlpha" operator="arithmetic" k2="-1" k3="1"/>
<feColorMatrix type="matrix" values="0 0 0 0 1 0 0 0 0 1 0 0 0 0 1 0 0 0 0.51 0"/>
<feBlend mode="normal" in2="effect2_innerShadow_117_477" result="effect3_innerShadow_117_477"/>
</filter>
<linearGradient id="paint0_linear_117_477" x1="165.891" y1="24.4235" x2="165.891" y2="70" gradientUnits="userSpaceOnUse">
<stop stop-color="#B56BFF"/>
<stop offset="1" stop-color="#6500CB"/>
</linearGradient>
<linearGradient id="paint1_linear_117_477" x1="117.61" y1="24.4235" x2="117.61" y2="70" gradientUnits="userSpaceOnUse">
<stop stop-color="#B56BFF"/>
<stop offset="1" stop-color="#6500CB"/>
</linearGradient>
<linearGradient id="paint2_linear_117_477" x1="70.0002" y1="10" x2="70.0002" y2="69.9789" gradientUnits="userSpaceOnUse">
<stop stop-color="#B56BFF"/>
<stop offset="1" stop-color="#6500CB"/>
</linearGradient>
<linearGradient id="paint3_linear_117_477" x1="22.7883" y1="24.3815" x2="22.7883" y2="69.958" gradientUnits="userSpaceOnUse">
<stop stop-color="#B56BFF"/>
<stop offset="1" stop-color="#6500CB"/>
</linearGradient>
<linearGradient id="paint4_linear_117_477" x1="70.0002" y1="10" x2="70.0002" y2="69.9789" gradientUnits="userSpaceOnUse">
<stop stop-color="#B56BFF"/>
<stop offset="1" stop-color="#6500CB"/>
</linearGradient>
</defs>
</svg>
