<svg width="161" height="85" viewBox="0 0 161 85" fill="none" xmlns="http://www.w3.org/2000/svg">
<g filter="url(#filter0_dii_114_267)">
<path d="M41.2594 33.3555C45.7595 33.3555 48.7328 34.1591 50.2597 35.8467C51.7865 37.5342 52.108 40.3468 51.3044 44.3648C50.5008 48.5436 48.8936 51.5972 46.5631 53.3652C44.2327 55.1331 40.6968 56.017 35.9556 56.017H31.2313C29.9731 56.017 29.0274 54.8691 29.2683 53.6342L32.908 34.9727C33.0912 34.0334 33.914 33.3555 34.871 33.3555H41.2594ZM12.9526 76.619C12.713 77.8534 13.6585 79 14.9159 79H22.6566C23.6132 79 24.4359 78.3226 24.6194 77.3838L26.8 66.2318C26.9835 65.2929 27.8062 64.6156 28.7628 64.6156H37.2414C41.7415 64.6156 45.3577 64.1334 48.2507 63.1691C51.1436 62.2048 53.7152 60.6779 56.126 58.4278C58.135 56.5796 59.7422 54.5706 60.9476 52.4008C62.153 50.2311 63.0369 47.8203 63.5191 45.1684C64.8048 38.7396 63.8405 33.7573 60.7065 30.1411C57.5724 26.5249 52.5901 24.757 45.7595 24.757H24.6668C23.7092 24.757 22.8859 25.4358 22.7034 26.376L12.9526 76.619ZM71.8838 11.9915C72.0662 11.0514 72.8895 10.3726 73.8471 10.3726H81.5016C82.7602 10.3726 83.7059 11.5212 83.4644 12.7564L81.584 22.3732C81.3425 23.6084 82.2883 24.757 83.5469 24.757H91.5647C98.1542 24.757 102.654 25.882 105.146 28.2125C107.637 30.5429 108.36 34.2395 107.396 39.3825L102.808 62.997C102.626 63.9369 101.802 64.6156 100.845 64.6156H93.0256C91.7683 64.6156 90.8228 63.4691 91.0622 62.2347L95.2613 40.5879C95.8238 37.8557 95.5827 36.0074 94.6988 35.0431C93.8148 34.0788 91.8058 33.5162 88.8325 33.5162H81.08C80.1221 33.5162 79.2988 34.1954 79.1165 35.1357L73.7172 62.9961C73.535 63.9364 72.7116 64.6156 71.7537 64.6156H64.0963C62.8388 64.6156 61.8933 63.4689 62.1329 62.2345L71.8838 11.9915ZM133.432 33.3555C137.932 33.3555 140.906 34.1591 142.433 35.8467C143.959 37.5342 144.281 40.3468 143.477 44.3648C142.674 48.5436 141.066 51.5972 138.736 53.3652C136.406 55.1331 132.87 56.017 128.129 56.017H123.404C122.146 56.017 121.2 54.8691 121.441 53.6342L125.081 34.9727C125.264 34.0334 126.087 33.3555 127.044 33.3555H133.432ZM105.125 76.619C104.886 77.8534 105.831 79 107.089 79H114.83C115.786 79 116.609 78.3226 116.792 77.3838L118.973 66.2318C119.156 65.2929 119.979 64.6156 120.936 64.6156H129.414C133.914 64.6156 137.531 64.1334 140.424 63.1691C143.317 62.2048 145.888 60.6779 148.299 58.4278C150.308 56.5796 151.915 54.5706 153.12 52.4008C154.326 50.2311 155.21 47.8203 155.692 45.1684C156.978 38.7396 156.013 33.7573 152.879 30.1411C149.745 26.5249 144.763 24.757 137.932 24.757H116.84C115.882 24.757 115.059 25.4358 114.876 26.376L105.125 76.619Z" fill="url(#paint0_linear_114_267)"/>
</g>
<path d="M35.7689 31.983C40.269 31.983 43.2424 32.7866 44.7692 34.4741C46.296 36.1617 46.6175 38.9743 45.8139 42.9923C45.0103 47.171 43.4031 50.2247 41.0726 51.9926C38.7422 53.7605 35.2064 54.6445 30.4651 54.6445H25.7408C24.4826 54.6445 23.537 53.4966 23.7778 52.2616L27.4175 33.6001C27.6007 32.6608 28.4235 31.983 29.3805 31.983H35.7689ZM7.4621 75.2464C7.22253 76.4808 8.16802 77.6274 9.42546 77.6274H17.1661C18.1227 77.6274 18.9454 76.9501 19.1289 76.0112L21.3095 64.8592C21.4931 63.9204 22.3157 63.243 23.2723 63.243H31.7509C36.251 63.243 39.8672 62.7608 42.7602 61.7965C45.6532 60.8322 48.2247 59.3054 50.6355 57.0553C52.6445 55.207 54.2517 53.198 55.4571 51.0283C56.6625 48.8586 57.5464 46.4478 58.0286 43.7959C59.3144 37.3671 58.35 32.3848 55.216 28.7686C52.082 25.1524 47.0996 23.3844 40.269 23.3844H19.1763C18.2187 23.3844 17.3954 24.0633 17.213 25.0034L7.4621 75.2464ZM66.3933 10.619C66.5757 9.67885 67.399 9 68.3567 9H76.0111C77.2697 9 78.2155 10.1486 77.9739 11.3838L76.0936 21.0006C75.852 22.2358 76.7978 23.3844 78.0564 23.3844H86.0742C92.6638 23.3844 97.1639 24.5095 99.6551 26.8399C102.146 29.1704 102.869 32.8669 101.905 38.01L97.3176 61.6244C97.135 62.5644 96.3119 63.243 95.3543 63.243H87.5352C86.2778 63.243 85.3323 62.0965 85.5718 60.8621L89.7708 39.2154C90.3333 36.4831 90.0922 34.6348 89.2083 33.6705C88.3243 32.7062 86.3153 32.1437 83.342 32.1437H75.5895C74.6316 32.1437 73.8083 32.8228 73.626 33.7632L68.2267 61.6235C68.0445 62.5639 67.2211 63.243 66.2633 63.243H58.6058C57.3483 63.243 56.4029 62.0964 56.6424 60.862L66.3933 10.619ZM127.942 31.983C132.442 31.983 135.415 32.7866 136.942 34.4741C138.469 36.1617 138.79 38.9743 137.987 42.9923C137.183 47.171 135.576 50.2247 133.246 51.9926C130.915 53.7605 127.379 54.6445 122.638 54.6445H117.914C116.656 54.6445 115.71 53.4966 115.951 52.2616L119.59 33.6001C119.774 32.6608 120.596 31.983 121.553 31.983H127.942ZM99.635 75.2464C99.3955 76.4808 100.341 77.6274 101.598 77.6274H109.339C110.296 77.6274 111.118 76.9501 111.302 76.0112L113.482 64.8592C113.666 63.9204 114.489 63.243 115.445 63.243H123.924C128.424 63.243 132.04 62.7608 134.933 61.7965C137.826 60.8322 140.398 59.3054 142.808 57.0553C144.817 55.207 146.425 53.198 147.63 51.0283C148.835 48.8586 149.719 46.4478 150.202 43.7959C151.487 37.3671 150.523 32.3848 147.389 28.7686C144.255 25.1524 139.273 23.3844 132.442 23.3844H111.349C110.392 23.3844 109.568 24.0633 109.386 25.0034L99.635 75.2464Z" fill="url(#paint1_linear_114_267)"/>
<defs>
<filter id="filter0_dii_114_267" x="0.915283" y="-5.62744" width="159.33" height="90.6274" filterUnits="userSpaceOnUse" color-interpolation-filters="sRGB">
<feFlood flood-opacity="0" result="BackgroundImageFix"/>
<feColorMatrix in="SourceAlpha" type="matrix" values="0 0 0 0 0 0 0 0 0 0 0 0 0 0 0 0 0 0 127 0" result="hardAlpha"/>
<feOffset dx="-4" dy="-2"/>
<feGaussianBlur stdDeviation="4"/>
<feComposite in2="hardAlpha" operator="out"/>
<feColorMatrix type="matrix" values="0 0 0 0 0.0698785 0 0 0 0 0.634776 0 0 0 0 0.670833 0 0 0 0.52 0"/>
<feBlend mode="normal" in2="BackgroundImageFix" result="effect1_dropShadow_114_267"/>
<feBlend mode="normal" in="SourceGraphic" in2="effect1_dropShadow_114_267" result="shape"/>
<feColorMatrix in="SourceAlpha" type="matrix" values="0 0 0 0 0 0 0 0 0 0 0 0 0 0 0 0 0 0 127 0" result="hardAlpha"/>
<feOffset dy="-16"/>
<feGaussianBlur stdDeviation="8"/>
<feComposite in2="hardAlpha" operator="arithmetic" k2="-1" k3="1"/>
<feColorMatrix type="matrix" values="0 0 0 0 1 0 0 0 0 1 0 0 0 0 1 0 0 0 0.58 0"/>
<feBlend mode="normal" in2="shape" result="effect2_innerShadow_114_267"/>
<feColorMatrix in="SourceAlpha" type="matrix" values="0 0 0 0 0 0 0 0 0 0 0 0 0 0 0 0 0 0 127 0" result="hardAlpha"/>
<feOffset dy="2"/>
<feGaussianBlur stdDeviation="1.5"/>
<feComposite in2="hardAlpha" operator="arithmetic" k2="-1" k3="1"/>
<feColorMatrix type="matrix" values="0 0 0 0 1 0 0 0 0 1 0 0 0 0 1 0 0 0 0.41 0"/>
<feBlend mode="normal" in2="effect2_innerShadow_114_267" result="effect3_innerShadow_114_267"/>
</filter>
<linearGradient id="paint0_linear_114_267" x1="84.3677" y1="10.3726" x2="84.3677" y2="79" gradientUnits="userSpaceOnUse">
<stop stop-color="#8EF7FE"/>
<stop offset="0.984375" stop-color="#06B7B7"/>
</linearGradient>
<linearGradient id="paint1_linear_114_267" x1="78.8772" y1="9" x2="78.8772" y2="77.6274" gradientUnits="userSpaceOnUse">
<stop stop-color="#8EF7FE"/>
<stop offset="0.984375" stop-color="#06B7B7"/>
</linearGradient>
</defs>
</svg>
