<svg width="114" height="120" viewBox="0 0 114 120" fill="none" xmlns="http://www.w3.org/2000/svg">
<path d="M106.727 68.2934C106.108 66.3688 104.487 65.0283 102.389 64.7067C101.4 64.5551 100.268 64.6197 98.9278 64.9033C96.5918 65.398 94.8588 65.5864 93.594 65.6228C98.368 57.3494 102.25 47.9148 104.485 39.0338C108.098 24.6733 106.167 18.1311 103.911 15.172C97.9389 7.33955 89.2262 3.13186 78.7151 3.00312C73.1079 2.93274 68.1855 4.06911 65.6176 4.88631C63.2268 4.45328 60.6561 4.21152 57.9588 4.16681C52.9025 4.08402 48.435 5.21542 44.6177 7.54074C42.5043 6.80717 39.1125 5.77305 35.1955 5.11317C25.9831 3.56075 18.5582 4.77039 13.1272 8.70857C6.55084 13.4768 3.50221 21.7613 4.06604 33.332C4.24511 37.0057 6.24714 48.1831 9.39941 58.7834C11.2111 64.8764 13.1429 69.936 15.1413 73.8233C17.9754 79.3354 21.0079 82.5814 24.4122 83.7472C26.3203 84.3996 29.7871 84.8567 33.4335 81.7394C33.8957 82.314 34.5123 82.8849 35.3306 83.4152C36.37 84.0879 37.6408 84.6377 38.91 84.9635C43.484 86.1371 47.7683 85.8436 51.4235 84.1984C51.4461 84.8658 51.4634 85.5033 51.478 86.0539C51.5022 86.9468 51.5264 87.8224 51.5582 88.6413C51.7748 94.1778 52.1418 98.4828 53.2291 101.495C53.2888 101.66 53.3691 101.913 53.4538 102.181C53.9962 103.886 54.9033 106.74 57.211 108.975C59.6006 111.29 62.4912 112 65.1385 112C66.4662 112 67.733 111.821 68.8441 111.577C72.8046 110.705 77.3027 109.378 80.5566 104.622C83.6331 100.127 85.1285 93.3552 85.3992 82.6858C85.4342 82.384 85.4665 82.0958 85.4976 81.8214L85.5621 81.2575L86.2868 81.3229L86.4736 81.3358C90.5075 81.5245 95.44 80.6465 98.4692 79.2021C100.863 78.062 108.533 73.9053 106.727 68.2934Z" fill="url(#paint0_linear_107_120)"/>
<g filter="url(#filter0_dii_107_120)">
<path d="M104.944 73.4856C92.9493 76.0254 92.1245 71.857 92.1245 71.857C104.788 52.5685 110.083 28.0846 105.514 22.0922C93.0505 5.74626 71.4754 13.4769 71.1153 13.6773L70.9995 13.6988C68.6297 13.1937 65.9779 12.8932 62.9971 12.8431C57.5701 12.752 53.4531 14.3036 50.3291 16.7353C50.3291 16.7353 11.8412 0.460167 13.6315 37.2041C14.0122 45.0208 24.5467 96.3505 37.1114 80.8466C41.7039 75.1771 46.1415 70.3837 46.1415 70.3837C48.3452 71.8864 50.9837 72.6531 53.7496 72.3778L53.9645 72.1907C53.8976 72.8945 53.9282 73.5829 54.0504 74.398C50.8135 78.1102 51.7649 78.7618 45.2942 80.1291C38.7464 81.5143 42.5928 83.98 45.1042 84.625C48.1488 85.4061 55.1922 86.5131 59.9513 79.6746L59.7617 80.4549C61.0297 81.4978 61.9202 87.2372 61.771 92.4405C61.6218 97.6433 61.5222 101.216 62.5212 104.006C63.521 106.796 64.5167 113.074 73.0233 111.203C80.1309 109.64 83.8143 105.588 84.3269 98.8294C84.6903 94.0248 85.5135 94.7351 85.5651 90.4393L86.2253 88.4058C86.9864 81.8927 86.3463 79.7913 90.725 80.7687L91.7898 80.8648C95.0122 81.0151 99.2309 80.3324 101.707 79.1513C107.038 76.612 110.2 72.3716 104.944 73.4856Z" fill="#292D32"/>
<path d="M104.944 73.4856C92.9493 76.0254 92.1245 71.857 92.1245 71.857C104.788 52.5685 110.083 28.0846 105.514 22.0922C93.0505 5.74626 71.4754 13.4769 71.1153 13.6773L70.9995 13.6988C68.6297 13.1937 65.9779 12.8932 62.9971 12.8431C57.5701 12.752 53.4531 14.3036 50.3291 16.7353C50.3291 16.7353 11.8412 0.460167 13.6315 37.2041C14.0122 45.0208 24.5467 96.3505 37.1114 80.8466C41.7039 75.1771 46.1415 70.3837 46.1415 70.3837C48.3452 71.8864 50.9837 72.6531 53.7496 72.3778L53.9645 72.1907C53.8976 72.8945 53.9282 73.5829 54.0504 74.398C50.8135 78.1102 51.7649 78.7618 45.2942 80.1291C38.7464 81.5143 42.5928 83.98 45.1042 84.625C48.1488 85.4061 55.1922 86.5131 59.9513 79.6746L59.7617 80.4549C61.0297 81.4978 61.9202 87.2372 61.771 92.4405C61.6218 97.6433 61.5222 101.216 62.5212 104.006C63.521 106.796 64.5167 113.074 73.0233 111.203C80.1309 109.64 83.8143 105.588 84.3269 98.8294C84.6903 94.0248 85.5135 94.7351 85.5651 90.4393L86.2253 88.4058C86.9864 81.8927 86.3463 79.7913 90.725 80.7687L91.7898 80.8648C95.0122 81.0151 99.2309 80.3324 101.707 79.1513C107.038 76.612 110.2 72.3716 104.944 73.4856Z" fill="url(#paint1_linear_107_120)"/>
</g>
<g filter="url(#filter1_dii_107_120)">
<path d="M52.5829 40.6998C51.5021 40.5453 50.5232 40.6882 50.028 41.0732C49.7497 41.2897 49.6634 41.5405 49.64 41.7132C49.5779 42.1706 49.89 42.6765 50.082 42.9373C50.6249 43.6758 51.4178 44.1834 52.2026 44.2952C52.3164 44.3117 52.4297 44.3192 52.5422 44.3192C53.851 44.3192 55.0411 43.273 55.146 42.501C55.2771 41.5339 53.9094 40.8894 52.5829 40.7002M88.3904 40.7304C88.2872 39.9724 86.9732 39.7563 85.7262 39.9343C84.4807 40.1123 83.2732 40.6894 83.3741 41.4491C83.4547 42.0398 84.4941 43.0483 85.7241 43.0483C85.8282 43.0483 85.9331 43.0412 86.0387 43.0259C86.8599 42.9092 87.4624 42.3739 87.7488 42.0655C88.1843 41.5952 88.4368 41.0711 88.3904 40.7304Z" fill="white"/>
</g>
<g filter="url(#filter2_dii_107_120)">
<path d="M108.935 73.1971C108.478 71.7776 107.006 71.321 104.56 71.8393C97.2984 73.3776 94.6979 72.312 93.8441 71.6666C99.4884 62.8406 104.132 52.1716 106.637 42.2174C107.823 37.5022 108.479 33.1231 108.532 29.5538C108.591 25.6363 107.941 22.7575 106.601 20.999C101.196 13.9096 93.2625 10.1068 83.6597 10.0024C77.0579 9.92626 71.4801 11.6604 70.3988 12.1481C68.1217 11.5669 65.6394 11.21 62.9368 11.1645C57.9809 11.0821 53.6969 12.3 50.1502 14.7826C48.6096 14.194 44.6281 12.791 39.759 11.9858C31.3411 10.5948 24.6518 11.6488 19.8782 15.12C14.1822 19.2623 11.5527 26.6667 12.062 37.1271C12.2334 40.6464 14.1871 51.4728 17.27 61.8409C21.3281 75.4873 25.7395 83.2125 30.3808 84.8018C30.924 84.9877 31.5504 85.1176 32.2413 85.1176C33.9343 85.1176 36.0102 84.3344 38.1699 81.6692C40.8042 78.4255 43.5291 75.2605 46.3414 72.1783C48.166 73.1835 50.1704 73.7448 52.2204 73.8011C52.2245 73.8562 52.2297 73.9112 52.2345 73.9659C51.8817 74.3978 51.5361 74.836 51.198 75.2803C49.7776 77.1312 49.482 77.5166 44.9096 78.4828C43.609 78.7585 40.1546 79.4892 40.1038 81.9747C40.0489 84.6904 44.1873 85.8309 44.6588 85.9518C46.3019 86.3741 47.8848 86.5823 49.3944 86.5823C53.0658 86.5823 56.2967 85.3437 58.8787 82.9471C58.7992 92.6284 59.1925 102.168 60.3249 105.075C61.2526 107.454 63.5184 113.269 70.6755 113.269C71.7257 113.269 72.8816 113.144 74.1532 112.864C81.623 111.22 84.8668 107.831 86.1215 100.36C86.793 96.3675 87.9452 86.8332 88.4873 81.7189C89.6311 82.0852 91.1036 82.2529 92.6954 82.2525C96.0155 82.2525 99.8465 81.5284 102.249 80.3838C104.948 79.0971 109.818 75.9401 108.935 73.1971ZM91.1467 38.6382C91.1221 40.148 90.9197 41.5186 90.7051 42.9493C90.474 44.4881 90.2352 46.079 90.1751 48.0102C90.1159 49.8897 90.3445 51.8437 90.5655 53.7335C91.0124 57.5504 91.471 61.4799 89.696 65.3572C89.4012 64.8209 89.1385 64.2667 88.9096 63.6976C88.6889 63.1486 88.2098 62.2668 87.5464 61.0464C84.9656 56.2956 78.922 45.1703 82.0158 40.6307C82.9373 39.2794 85.2761 37.8901 91.1467 38.6382ZM84.0307 13.0597C92.6349 13.2547 99.4412 16.5586 104.26 22.8792C107.956 27.7274 103.886 49.787 92.1042 68.8181C91.9857 68.6634 91.8666 68.5093 91.7468 68.3556L91.5976 68.1644C94.6422 63.0033 94.0469 57.8969 93.517 53.3696C93.2992 51.5117 93.0935 49.7568 93.1459 48.1084C93.2 46.3614 93.425 44.8628 93.6428 43.4138C93.9102 41.6283 94.1824 39.7808 94.1074 37.6028C94.1635 37.3743 94.1861 37.1044 94.1566 36.784C93.965 34.6954 91.642 28.4448 86.9071 22.7873C84.3171 19.6928 80.5401 16.2299 75.3829 13.8942C77.6011 13.4223 80.6344 12.9823 84.0307 13.0597ZM35.8844 79.7185C33.5048 82.6553 31.8617 82.0923 31.3213 81.9076C27.8004 80.7021 23.7149 73.0634 20.1129 60.9504C16.9961 50.4693 15.1748 39.9298 15.0304 36.9744C14.5755 27.6276 16.7828 21.1136 21.5914 17.613C29.4173 11.9167 42.2837 15.3262 47.4537 17.0554C47.3795 17.1307 47.3021 17.2011 47.2287 17.2777C38.7446 26.0723 38.9459 41.098 38.9669 42.0167C38.966 42.371 38.9951 42.8728 39.0346 43.5629C39.1806 46.0902 39.4524 50.7938 38.7265 56.1205C38.0521 61.0704 39.5387 65.9152 42.8043 69.4129C43.1395 69.7712 43.4917 70.1122 43.8598 70.4346C42.4063 72.0326 39.2472 75.5663 35.8844 79.7185ZM44.9504 67.3021C42.3184 64.4829 41.1229 60.5617 41.6702 56.5428C42.4365 50.916 42.1538 46.0153 42.0018 43.3824C41.9804 43.0139 41.9614 42.691 41.9505 42.4364C43.1899 41.3083 48.9334 38.1497 53.0295 39.113C54.8984 39.5522 56.0374 40.8588 56.5108 43.1058C58.9614 54.7399 56.8351 59.5888 55.1267 63.4856C54.7746 64.2883 54.4419 65.0471 54.1579 65.832L53.9377 66.4389C53.3803 67.9731 52.8617 69.3997 52.5403 70.7542C49.7421 70.746 47.0201 69.5193 44.9504 67.3021ZM45.3799 82.9919C44.5628 82.7824 43.828 82.4185 43.3968 82.1167C43.757 81.9428 44.3978 81.706 45.5094 81.4709C50.8883 80.3345 51.7191 79.5322 53.5332 77.168C53.949 76.6257 54.4205 76.0114 55.0734 75.2629C56.0458 74.1451 56.4915 74.3339 57.2981 74.6775C57.9519 74.9549 58.5887 75.7961 58.8468 76.7217C58.969 77.1589 59.1061 77.9885 58.6573 78.6343C54.8678 84.0806 49.3456 84.0107 45.3799 82.9919ZM73.5305 109.881C66.9501 111.328 64.6202 107.882 63.0848 103.942C62.0939 101.398 61.6067 89.9285 61.9523 77.262C61.9567 77.0935 61.9333 76.9308 61.8882 76.7776C61.8478 76.4752 61.7863 76.176 61.7043 75.8826C61.1905 74.0396 59.9382 72.4979 58.4358 71.8587C57.8389 71.605 56.7435 71.1392 55.4271 71.4849C55.7079 70.2976 56.1946 68.9567 56.7226 67.5049L56.944 66.8943C57.1932 66.2059 57.5062 65.4926 57.8369 64.7375C59.6248 60.6606 62.0733 55.0764 59.4159 42.4613C58.4205 37.7361 55.0964 35.4286 50.0575 35.9647C47.0367 36.2855 44.2728 37.5366 42.8943 38.254C42.5979 38.408 42.3268 38.557 42.0735 38.7019C42.4583 33.9412 43.9118 25.0439 49.3493 19.4147C52.773 15.871 57.3324 14.1207 62.8876 14.2151C73.8334 14.3989 80.8526 20.1648 84.8139 24.9698C88.2276 29.11 90.0759 33.2809 90.8136 35.5304C85.266 34.9513 81.4931 36.0752 79.5806 38.882C75.4196 44.9874 81.8569 56.8371 84.9507 62.5322C85.5181 63.5758 86.0077 64.4779 86.1618 64.8612C87.1693 67.3675 88.4736 69.0408 89.4258 70.262C89.7178 70.6362 90.0009 70.9993 90.2163 71.3164C88.5361 71.8136 85.5181 72.9624 85.7932 78.7047C85.5714 81.586 83.994 95.0759 83.1926 99.842C82.1348 106.139 79.8774 108.483 73.5305 109.881ZM100.998 77.6168C99.2795 78.4352 96.4043 79.0491 93.673 79.1812C90.6563 79.3261 89.1205 78.8343 88.7591 78.5316C88.5897 74.9532 89.8872 74.5794 91.2604 74.1836C91.4762 74.1215 91.6867 74.0607 91.89 73.9878C92.0163 74.0934 92.1546 74.1981 92.3062 74.3008C94.7309 75.9435 99.0556 76.1206 105.161 74.827L105.228 74.8133C104.405 75.6036 102.996 76.6642 100.998 77.6168Z" fill="white" fill-opacity="0.4" shape-rendering="crispEdges"/>
</g>
<defs>
<filter id="filter0_dii_107_120" x="1.57092" y="-4.32281" width="110.068" height="121.868" filterUnits="userSpaceOnUse" color-interpolation-filters="sRGB">
<feFlood flood-opacity="0" result="BackgroundImageFix"/>
<feColorMatrix in="SourceAlpha" type="matrix" values="0 0 0 0 0 0 0 0 0 0 0 0 0 0 0 0 0 0 127 0" result="hardAlpha"/>
<feOffset dx="-4" dy="-2"/>
<feGaussianBlur stdDeviation="4"/>
<feComposite in2="hardAlpha" operator="out"/>
<feColorMatrix type="matrix" values="0 0 0 0 0.117647 0 0 0 0 0.494118 0 0 0 0 0.929412 0 0 0 0.56 0"/>
<feBlend mode="normal" in2="BackgroundImageFix" result="effect1_dropShadow_107_120"/>
<feBlend mode="normal" in="SourceGraphic" in2="effect1_dropShadow_107_120" result="shape"/>
<feColorMatrix in="SourceAlpha" type="matrix" values="0 0 0 0 0 0 0 0 0 0 0 0 0 0 0 0 0 0 127 0" result="hardAlpha"/>
<feOffset dy="2"/>
<feGaussianBlur stdDeviation="1.5"/>
<feComposite in2="hardAlpha" operator="arithmetic" k2="-1" k3="1"/>
<feColorMatrix type="matrix" values="0 0 0 0 1 0 0 0 0 1 0 0 0 0 1 0 0 0 0.41 0"/>
<feBlend mode="normal" in2="shape" result="effect2_innerShadow_107_120"/>
<feColorMatrix in="SourceAlpha" type="matrix" values="0 0 0 0 0 0 0 0 0 0 0 0 0 0 0 0 0 0 127 0" result="hardAlpha"/>
<feOffset dy="-16"/>
<feGaussianBlur stdDeviation="12"/>
<feComposite in2="hardAlpha" operator="arithmetic" k2="-1" k3="1"/>
<feColorMatrix type="matrix" values="0 0 0 0 1 0 0 0 0 1 0 0 0 0 1 0 0 0 0.45 0"/>
<feBlend mode="normal" in2="effect2_innerShadow_107_120" result="effect3_innerShadow_107_120"/>
</filter>
<filter id="filter1_dii_107_120" x="37.632" y="23.8756" width="54.7639" height="26.4435" filterUnits="userSpaceOnUse" color-interpolation-filters="sRGB">
<feFlood flood-opacity="0" result="BackgroundImageFix"/>
<feColorMatrix in="SourceAlpha" type="matrix" values="0 0 0 0 0 0 0 0 0 0 0 0 0 0 0 0 0 0 127 0" result="hardAlpha"/>
<feOffset dx="-4" dy="-2"/>
<feGaussianBlur stdDeviation="4"/>
<feComposite in2="hardAlpha" operator="out"/>
<feColorMatrix type="matrix" values="0 0 0 0 0.117647 0 0 0 0 0.494118 0 0 0 0 0.929412 0 0 0 0.56 0"/>
<feBlend mode="normal" in2="BackgroundImageFix" result="effect1_dropShadow_107_120"/>
<feBlend mode="normal" in="SourceGraphic" in2="effect1_dropShadow_107_120" result="shape"/>
<feColorMatrix in="SourceAlpha" type="matrix" values="0 0 0 0 0 0 0 0 0 0 0 0 0 0 0 0 0 0 127 0" result="hardAlpha"/>
<feOffset dy="2"/>
<feGaussianBlur stdDeviation="1.5"/>
<feComposite in2="hardAlpha" operator="arithmetic" k2="-1" k3="1"/>
<feColorMatrix type="matrix" values="0 0 0 0 1 0 0 0 0 1 0 0 0 0 1 0 0 0 0.41 0"/>
<feBlend mode="normal" in2="shape" result="effect2_innerShadow_107_120"/>
<feColorMatrix in="SourceAlpha" type="matrix" values="0 0 0 0 0 0 0 0 0 0 0 0 0 0 0 0 0 0 127 0" result="hardAlpha"/>
<feOffset dy="-16"/>
<feGaussianBlur stdDeviation="12"/>
<feComposite in2="hardAlpha" operator="arithmetic" k2="-1" k3="1"/>
<feColorMatrix type="matrix" values="0 0 0 0 1 0 0 0 0 1 0 0 0 0 1 0 0 0 0.45 0"/>
<feBlend mode="normal" in2="effect2_innerShadow_107_120" result="effect3_innerShadow_107_120"/>
</filter>
<filter id="filter2_dii_107_120" x="0" y="-6" width="113.041" height="125.269" filterUnits="userSpaceOnUse" color-interpolation-filters="sRGB">
<feFlood flood-opacity="0" result="BackgroundImageFix"/>
<feColorMatrix in="SourceAlpha" type="matrix" values="0 0 0 0 0 0 0 0 0 0 0 0 0 0 0 0 0 0 127 0" result="hardAlpha"/>
<feOffset dx="-4" dy="-2"/>
<feGaussianBlur stdDeviation="4"/>
<feComposite in2="hardAlpha" operator="out"/>
<feColorMatrix type="matrix" values="0 0 0 0 0.117647 0 0 0 0 0.494118 0 0 0 0 0.929412 0 0 0 0.56 0"/>
<feBlend mode="normal" in2="BackgroundImageFix" result="effect1_dropShadow_107_120"/>
<feBlend mode="normal" in="SourceGraphic" in2="effect1_dropShadow_107_120" result="shape"/>
<feColorMatrix in="SourceAlpha" type="matrix" values="0 0 0 0 0 0 0 0 0 0 0 0 0 0 0 0 0 0 127 0" result="hardAlpha"/>
<feOffset dy="2"/>
<feGaussianBlur stdDeviation="1.5"/>
<feComposite in2="hardAlpha" operator="arithmetic" k2="-1" k3="1"/>
<feColorMatrix type="matrix" values="0 0 0 0 1 0 0 0 0 1 0 0 0 0 1 0 0 0 0.41 0"/>
<feBlend mode="normal" in2="shape" result="effect2_innerShadow_107_120"/>
<feColorMatrix in="SourceAlpha" type="matrix" values="0 0 0 0 0 0 0 0 0 0 0 0 0 0 0 0 0 0 127 0" result="hardAlpha"/>
<feOffset dy="-16"/>
<feGaussianBlur stdDeviation="12"/>
<feComposite in2="hardAlpha" operator="arithmetic" k2="-1" k3="1"/>
<feColorMatrix type="matrix" values="0 0 0 0 1 0 0 0 0 1 0 0 0 0 1 0 0 0 0.45 0"/>
<feBlend mode="normal" in2="effect2_innerShadow_107_120" result="effect3_innerShadow_107_120"/>
</filter>
<linearGradient id="paint0_linear_107_120" x1="55.5" y1="3" x2="55.5" y2="112" gradientUnits="userSpaceOnUse">
<stop stop-color="#3AC8F0"/>
<stop offset="0.0001" stop-color="#45D5EE"/>
<stop offset="0.239583" stop-color="#2498F7"/>
<stop offset="0.9999" stop-color="#005FFC"/>
<stop offset="1" stop-color="#3AC8F0" stop-opacity="0"/>
<stop offset="1" stop-color="#3AC8F0" stop-opacity="0"/>
<stop offset="1" stop-color="#3AC8F0" stop-opacity="0"/>
</linearGradient>
<linearGradient id="paint1_linear_107_120" x1="60.6051" y1="11.6772" x2="60.6051" y2="111.546" gradientUnits="userSpaceOnUse">
<stop stop-color="#3AC8F0"/>
<stop offset="0.0001" stop-color="#45D5EE"/>
<stop offset="0.442708" stop-color="#2498F7"/>
<stop offset="0.9999" stop-color="#005FFC"/>
<stop offset="1" stop-color="#3AC8F0" stop-opacity="0"/>
<stop offset="1" stop-color="#3AC8F0" stop-opacity="0"/>
<stop offset="1" stop-color="#3AC8F0" stop-opacity="0"/>
</linearGradient>
</defs>
</svg>
