<svg width="126" height="117" viewBox="0 0 126 117" fill="none" xmlns="http://www.w3.org/2000/svg">
<g filter="url(#filter0_dii_148_117)">
<path d="M64.9742 10C35.7142 10 12 33.7233 12 62.9742C12 68.74 12.9213 74.295 14.6308 79.4604L14.64 79.4283C15.2433 76.6412 16.0554 73.9033 17.0692 71.2379L17.1196 71.1004C17.5092 70.0829 17.94 69.0746 18.3892 68.0754L18.7742 67.2458C19.1408 66.4621 19.5304 65.6875 19.9338 64.9221C20.0988 64.6104 20.2546 64.2988 20.4288 63.9917C20.5204 63.8175 20.6304 63.6571 20.7221 63.4875C21.1529 62.7267 21.5929 61.9658 22.0513 61.2279L22.395 60.7054C22.9679 59.8117 23.5683 58.9362 24.1963 58.0792L24.3567 57.85C25.0167 56.9654 25.7088 56.1083 26.4238 55.2696L26.8821 54.7288C27.5925 53.9175 28.3258 53.1246 29.0867 52.3592L29.5404 51.9146C30.3467 51.1163 31.1814 50.3474 32.0429 49.6092C35.4346 38.2425 45.8158 29.9696 58.1038 29.9696C63.0492 29.9696 67.9671 31.3904 72.1792 33.9708C76.5103 36.6428 80.0176 40.461 82.3129 45.0029L82.345 45.0717L82.5283 45.4108V45.4246L82.5467 45.4338C85.1171 47.021 87.523 48.8604 89.7288 50.9246C89.9121 51.0942 90.1 51.25 90.2788 51.4242C90.2879 51.4242 90.3063 51.4471 90.3108 51.4517L90.3017 51.4242L90.2971 51.4058V51.3921L90.4896 51.0071C92.2175 40.0804 97.0438 32.2063 102.727 32.2063C107.008 32.2063 110.803 36.675 113.159 43.5546L113.182 43.6279L113.186 43.6371C113.851 44.3613 114.502 45.1542 115.13 46.025L115.162 46.0708L115.258 46.3779L115.166 46.0204C108.099 25.0792 88.2942 10.0092 64.9696 10.0092L64.9742 10ZM57.4988 30.3638C46.7692 30.5608 36.475 37.9492 32.9642 48.1838L32.9092 48.3396C34.8077 46.8165 36.8229 45.4449 38.9363 44.2375C51.7971 36.6475 68.6317 36.6933 81.4604 44.3108C77.3583 36.7346 69.4017 31.3904 60.8354 30.5425C59.7288 30.404 58.6138 30.3443 57.4988 30.3638ZM102.571 32.6554C101.964 32.6701 101.361 32.7735 100.784 32.9625C94.9858 35.5383 92.905 42.4637 91.475 48.1012L91.4017 48.4312C93.0746 45.5896 95.105 42.8625 97.8 40.9054C101.627 37.7567 107.448 37.9033 111.165 41.1483C112.577 42.6425 111.811 41.185 111.307 40.14C109.74 36.7025 106.609 32.5638 102.571 32.6508V32.6554ZM68.6042 43.3713L63.7 58.3587L63.6908 58.3817L63.6633 58.3908L43.0475 63.4875H43.0063L63.4296 68.4696C63.9108 68.9738 64.47 69.4092 65.0796 69.7529H65.0888C65.2813 69.8629 65.4783 69.9592 65.68 70.0508L65.7258 70.0737C65.9138 70.1562 66.1063 70.225 66.3033 70.2892L66.3996 70.3258C66.5829 70.3854 66.7663 70.4312 66.9496 70.4725L67.1008 70.5092C67.5807 70.6059 68.0688 70.6565 68.5583 70.6604C69.9578 70.6643 71.327 70.2538 72.4935 69.4805C73.6599 68.7073 74.5712 67.6059 75.1125 66.3154C75.4792 65.4629 75.6763 64.5279 75.6763 63.5471V63.4967L75.6717 63.4417C75.668 63.1966 75.6527 62.9519 75.6258 62.7083L75.6213 62.6992C75.5936 62.4635 75.5538 62.2295 75.5021 61.9979L75.4975 61.9796C75.3955 61.5259 75.2481 61.0837 75.0575 60.6596V60.6458C74.6805 59.7986 74.1382 59.0351 73.4625 58.4V58.3862L68.6042 43.3713ZM83.0325 46.2404C83.2525 50.8604 83.1975 55.6179 82.5742 60.2517C81.795 69.5008 77.12 77.6592 73.5358 85.9917L73.3983 86.3583L73.2379 86.7525C80.1588 79.7767 87.7671 72.8192 91.4292 63.46C93.1846 60.545 91.97 57.3092 90.9021 54.4033C90.1229 50.3838 86.0025 48.5458 83.0325 46.2404ZM111.321 48.8621L108.626 61.1821C108.536 61.4832 108.464 61.7893 108.41 62.0988C108.401 62.1904 108.378 62.2821 108.365 62.3738C108.319 62.711 108.294 63.0509 108.291 63.3912L108.282 63.5333H108.296C108.296 66.4117 109.657 68.74 111.335 68.7446C111.625 68.7412 111.91 68.6706 112.169 68.5383L112.293 68.4696C112.405 68.4063 112.512 68.3343 112.613 68.2542C112.673 68.2083 112.723 68.1533 112.778 68.1029C113.024 67.8779 113.235 67.6186 113.406 67.3329L113.544 67.0854C113.631 66.9244 113.711 66.7592 113.782 66.5904L113.86 66.4071C113.952 66.1642 114.034 65.9121 114.103 65.6463L114.112 65.6371L114.117 65.6233L115.968 63.5562L114.103 61.4662V61.4708L114.011 61.1821L111.321 48.8621ZM91.2412 52.7854C94.4037 60.6504 95.1371 69.7758 91.6583 77.6729C89.4125 83.9429 84.3846 88.9617 83.0692 95.5708C86.415 96.0979 89.7975 96.3775 93.1983 96.4233C103.126 96.5563 113.053 94.4983 122 90.1671C112.65 77.0175 103.112 63.79 91.2412 52.7854ZM68.5629 57.2633C69.2716 57.2633 69.9513 57.5449 70.4524 58.046C70.9535 58.5471 71.235 59.2267 71.235 59.9354C71.235 60.6441 70.9535 61.3237 70.4524 61.8249C69.9513 62.326 69.2716 62.6075 68.5629 62.6075C67.8542 62.6075 67.1746 62.326 66.6735 61.8249C66.1724 61.3237 65.8908 60.6441 65.8908 59.9354C65.8908 59.2267 66.1724 58.5471 66.6735 58.046C67.1746 57.5449 67.8542 57.2633 68.5629 57.2633ZM111.426 58.9592C112.059 58.9592 112.567 59.83 112.567 60.9117C112.567 61.9933 112.059 62.8642 111.426 62.8642C110.798 62.8642 110.29 61.9933 110.29 60.9117C110.29 59.8346 110.794 58.9592 111.426 58.9592ZM92.8913 59.8025C92.8291 60.2479 92.7527 60.6912 92.6621 61.1317L92.6346 61.2371C92.5888 61.4663 92.5338 61.6679 92.4833 61.8237C90.2833 68.3183 86.6396 73.3737 81.6667 78.7683C80.9929 79.5017 80.2871 80.235 79.5629 80.9867C77.7623 82.8539 75.9349 84.695 74.0813 86.5096C73.5679 87.0137 72.8942 87.7058 72.1333 88.5079C71.6613 89.8233 71.125 91.3038 70.6758 92.8621C70.4742 92.7888 70.2817 92.72 70.0754 92.6375C60.4137 88.9021 53.9467 83.9108 53.9467 83.9108C53.9467 83.9108 58.9242 90.3917 67.3071 96.4692C68.1183 97.0604 68.9158 97.5692 69.6996 98.0229C69.3558 103.495 71.7713 108.748 82.6704 110.315C84.5373 110.568 86.4288 110.58 88.2988 110.352L88.2529 110.219C88.2481 110.203 88.242 110.188 88.2346 110.173C88.2346 110.173 87.4692 109.564 86.4975 108.445C85.4178 107.207 84.5169 105.823 83.8208 104.334C83.2398 103.078 82.8298 101.749 82.6017 100.383C82.364 98.9085 82.3547 97.4059 82.5742 95.9283C82.6521 95.3783 82.7575 94.8238 82.9042 94.2508C83.3304 92.5367 84.0729 90.7125 85.2279 88.7875L85.2371 88.7738L86.3417 86.9221C91.3971 78.3971 94.5779 71.9117 93.2442 61.9842C93.1446 61.2539 93.0254 60.5264 92.8867 59.8025H92.8913ZM114.346 63.3729L114.36 63.5379V63.5838C114.36 63.6433 114.346 63.6983 114.346 63.7579C114.346 63.6937 114.36 63.6296 114.36 63.5608C114.36 63.4967 114.35 63.4417 114.346 63.3775V63.3729ZM114.291 64.6333V64.6379L114.282 64.6838L114.272 64.7479L114.291 64.6333ZM120.492 91.8033C108.791 97.0192 95.5588 98.4033 82.9454 96.4188C82.3037 101.497 84.7054 106.585 88.5096 109.848L88.5646 109.894C100.953 107.909 111.367 99.9571 120.492 91.8079V91.8033Z" fill="url(#paint0_linear_148_117)"/>
</g>
<defs>
<filter id="filter0_dii_148_117" x="0" y="-6" width="126" height="122.515" filterUnits="userSpaceOnUse" color-interpolation-filters="sRGB">
<feFlood flood-opacity="0" result="BackgroundImageFix"/>
<feColorMatrix in="SourceAlpha" type="matrix" values="0 0 0 0 0 0 0 0 0 0 0 0 0 0 0 0 0 0 127 0" result="hardAlpha"/>
<feOffset dx="-4" dy="-2"/>
<feGaussianBlur stdDeviation="4"/>
<feComposite in2="hardAlpha" operator="out"/>
<feColorMatrix type="matrix" values="0 0 0 0 0.920833 0 0 0 0 0.0498785 0 0 0 0 0.0498785 0 0 0 0.31 0"/>
<feBlend mode="normal" in2="BackgroundImageFix" result="effect1_dropShadow_148_117"/>
<feBlend mode="normal" in="SourceGraphic" in2="effect1_dropShadow_148_117" result="shape"/>
<feColorMatrix in="SourceAlpha" type="matrix" values="0 0 0 0 0 0 0 0 0 0 0 0 0 0 0 0 0 0 127 0" result="hardAlpha"/>
<feOffset dy="2"/>
<feGaussianBlur stdDeviation="1.5"/>
<feComposite in2="hardAlpha" operator="arithmetic" k2="-1" k3="1"/>
<feColorMatrix type="matrix" values="0 0 0 0 1 0 0 0 0 1 0 0 0 0 1 0 0 0 0.41 0"/>
<feBlend mode="normal" in2="shape" result="effect2_innerShadow_148_117"/>
<feColorMatrix in="SourceAlpha" type="matrix" values="0 0 0 0 0 0 0 0 0 0 0 0 0 0 0 0 0 0 127 0" result="hardAlpha"/>
<feOffset dy="-16"/>
<feGaussianBlur stdDeviation="8"/>
<feComposite in2="hardAlpha" operator="arithmetic" k2="-1" k3="1"/>
<feColorMatrix type="matrix" values="0 0 0 0 1 0 0 0 0 1 0 0 0 0 1 0 0 0 0.4 0"/>
<feBlend mode="normal" in2="effect2_innerShadow_148_117" result="effect3_innerShadow_148_117"/>
</filter>
<linearGradient id="paint0_linear_148_117" x1="67" y1="10" x2="67" y2="110.515" gradientUnits="userSpaceOnUse">
<stop stop-color="#F98787"/>
<stop offset="0.984375" stop-color="#D60303"/>
</linearGradient>
</defs>
</svg>
