<svg width="107" height="126" viewBox="0 0 107 126" fill="none" xmlns="http://www.w3.org/2000/svg">
<path fill-rule="evenodd" clip-rule="evenodd" d="M90.3485 91.2502L41.365 105.854C41.0238 105.957 40.6615 105.97 40.3136 105.892C39.9657 105.814 39.644 105.646 39.3801 105.407C39.1162 105.167 38.9189 104.863 38.8076 104.524C38.6963 104.185 38.6748 103.823 38.7452 103.474L56.2474 18.9828C56.3215 18.6377 56.5018 18.3244 56.763 18.087C57.0242 17.8496 57.3533 17.7001 57.7039 17.6593C58.0545 17.6186 58.4091 17.6887 58.7178 17.8599C59.0265 18.0311 59.2738 18.2946 59.425 18.6136L91.8253 87.9823C91.9706 88.2907 92.0472 88.627 92.0499 88.9679C92.0526 89.3089 91.9813 89.6463 91.8409 89.957C91.7005 90.2677 91.4943 90.5442 91.2367 90.7675C90.979 90.9907 90.676 91.1554 90.3485 91.2502ZM98.75 87.8016L61.2436 7.48225C60.7826 6.49157 60.0603 5.64524 59.1544 5.03418C58.2486 4.42312 57.1933 4.07043 56.1021 4.01401C55.0108 3.93895 53.9199 4.16657 52.9497 4.67179C51.9794 5.17701 51.1675 5.94022 50.6032 6.87737L9.93094 73.3316C9.3105 74.3376 8.98784 75.4987 9.00035 76.6805C9.01286 77.8623 9.36004 79.0163 10.0016 80.0089L29.892 111.074C30.6415 112.235 31.7469 113.122 33.0426 113.602C34.3384 114.082 35.7548 114.129 37.0798 113.737L94.8183 96.5213C95.6904 96.2673 96.497 95.8273 97.1826 95.2316C97.8683 94.6359 98.4166 93.8986 98.7899 93.0706C99.1633 92.2426 99.3527 91.3435 99.3451 90.4352C99.3375 89.527 99.1332 88.6312 98.7461 87.8095L98.75 87.8016Z" fill="#292D32"/>
<path fill-rule="evenodd" clip-rule="evenodd" d="M90.3485 91.2502L41.365 105.854C41.0238 105.957 40.6615 105.97 40.3136 105.892C39.9657 105.814 39.644 105.646 39.3801 105.407C39.1162 105.167 38.9189 104.863 38.8076 104.524C38.6963 104.185 38.6748 103.823 38.7452 103.474L56.2474 18.9828C56.3215 18.6377 56.5018 18.3244 56.763 18.087C57.0242 17.8496 57.3533 17.7001 57.7039 17.6593C58.0545 17.6186 58.4091 17.6887 58.7178 17.8599C59.0265 18.0311 59.2738 18.2946 59.425 18.6136L91.8253 87.9823C91.9706 88.2907 92.0472 88.627 92.0499 88.9679C92.0526 89.3089 91.9813 89.6463 91.8409 89.957C91.7005 90.2677 91.4943 90.5442 91.2367 90.7675C90.979 90.9907 90.676 91.1554 90.3485 91.2502ZM98.75 87.8016L61.2436 7.48225C60.7826 6.49157 60.0603 5.64524 59.1544 5.03418C58.2486 4.42312 57.1933 4.07043 56.1021 4.01401C55.0108 3.93895 53.9199 4.16657 52.9497 4.67179C51.9794 5.17701 51.1675 5.94022 50.6032 6.87737L9.93094 73.3316C9.3105 74.3376 8.98784 75.4987 9.00035 76.6805C9.01286 77.8623 9.36004 79.0163 10.0016 80.0089L29.892 111.074C30.6415 112.235 31.7469 113.122 33.0426 113.602C34.3384 114.082 35.7548 114.129 37.0798 113.737L94.8183 96.5213C95.6904 96.2673 96.497 95.8273 97.1826 95.2316C97.8683 94.6359 98.4166 93.8986 98.7899 93.0706C99.1633 92.2426 99.3527 91.3435 99.3451 90.4352C99.3375 89.527 99.1332 88.6312 98.7461 87.8095L98.75 87.8016Z" fill="url(#paint0_linear_117_1301)"/>
<g filter="url(#filter0_dii_117_1301)">
<path fill-rule="evenodd" clip-rule="evenodd" d="M93.3485 97.2502L44.365 111.854C44.0238 111.957 43.6615 111.97 43.3136 111.892C42.9657 111.814 42.644 111.646 42.3801 111.407C42.1162 111.167 41.9189 110.863 41.8076 110.524C41.6963 110.185 41.6748 109.823 41.7452 109.474L59.2474 24.9828C59.3215 24.6377 59.5018 24.3244 59.763 24.087C60.0242 23.8496 60.3533 23.7001 60.7039 23.6593C61.0545 23.6186 61.4091 23.6887 61.7178 23.8599C62.0265 24.0311 62.2738 24.2946 62.425 24.6136L94.8253 93.9823C94.9706 94.2907 95.0472 94.627 95.0499 94.9679C95.0526 95.3089 94.9813 95.6463 94.8409 95.957C94.7005 96.2677 94.4943 96.5442 94.2367 96.7675C93.979 96.9907 93.676 97.1554 93.3485 97.2502ZM101.75 93.8016L64.2436 13.4822C63.7826 12.4916 63.0603 11.6452 62.1544 11.0342C61.2486 10.4231 60.1933 10.0704 59.1021 10.014C58.0108 9.93895 56.9199 10.1666 55.9497 10.6718C54.9794 11.177 54.1675 11.9402 53.6032 12.8774L12.9309 79.3316C12.3105 80.3376 11.9878 81.4987 12.0004 82.6805C12.0129 83.8623 12.36 85.0163 13.0016 86.0089L32.892 117.074C33.6415 118.235 34.7469 119.122 36.0426 119.602C37.3384 120.082 38.7548 120.129 40.0798 119.737L97.8183 102.521C98.6904 102.267 99.497 101.827 100.183 101.232C100.868 100.636 101.417 99.8986 101.79 99.0706C102.163 98.2426 102.353 97.3435 102.345 96.4352C102.338 95.527 102.133 94.6312 101.746 93.8095L101.75 93.8016Z" fill="#292D32"/>
<path fill-rule="evenodd" clip-rule="evenodd" d="M93.3485 97.2502L44.365 111.854C44.0238 111.957 43.6615 111.97 43.3136 111.892C42.9657 111.814 42.644 111.646 42.3801 111.407C42.1162 111.167 41.9189 110.863 41.8076 110.524C41.6963 110.185 41.6748 109.823 41.7452 109.474L59.2474 24.9828C59.3215 24.6377 59.5018 24.3244 59.763 24.087C60.0242 23.8496 60.3533 23.7001 60.7039 23.6593C61.0545 23.6186 61.4091 23.6887 61.7178 23.8599C62.0265 24.0311 62.2738 24.2946 62.425 24.6136L94.8253 93.9823C94.9706 94.2907 95.0472 94.627 95.0499 94.9679C95.0526 95.3089 94.9813 95.6463 94.8409 95.957C94.7005 96.2677 94.4943 96.5442 94.2367 96.7675C93.979 96.9907 93.676 97.1554 93.3485 97.2502ZM101.75 93.8016L64.2436 13.4822C63.7826 12.4916 63.0603 11.6452 62.1544 11.0342C61.2486 10.4231 60.1933 10.0704 59.1021 10.014C58.0108 9.93895 56.9199 10.1666 55.9497 10.6718C54.9794 11.177 54.1675 11.9402 53.6032 12.8774L12.9309 79.3316C12.3105 80.3376 11.9878 81.4987 12.0004 82.6805C12.0129 83.8623 12.36 85.0163 13.0016 86.0089L32.892 117.074C33.6415 118.235 34.7469 119.122 36.0426 119.602C37.3384 120.082 38.7548 120.129 40.0798 119.737L97.8183 102.521C98.6904 102.267 99.497 101.827 100.183 101.232C100.868 100.636 101.417 99.8986 101.79 99.0706C102.163 98.2426 102.353 97.3435 102.345 96.4352C102.338 95.527 102.133 94.6312 101.746 93.8095L101.75 93.8016Z" fill="url(#paint1_linear_117_1301)"/>
</g>
<defs>
<filter id="filter0_dii_117_1301" x="0" y="-6" width="106.345" height="132" filterUnits="userSpaceOnUse" color-interpolation-filters="sRGB">
<feFlood flood-opacity="0" result="BackgroundImageFix"/>
<feColorMatrix in="SourceAlpha" type="matrix" values="0 0 0 0 0 0 0 0 0 0 0 0 0 0 0 0 0 0 127 0" result="hardAlpha"/>
<feOffset dx="-4" dy="-2"/>
<feGaussianBlur stdDeviation="4"/>
<feComposite in2="hardAlpha" operator="out"/>
<feColorMatrix type="matrix" values="0 0 0 0 0.117647 0 0 0 0 0.494118 0 0 0 0 0.929412 0 0 0 0.56 0"/>
<feBlend mode="normal" in2="BackgroundImageFix" result="effect1_dropShadow_117_1301"/>
<feBlend mode="normal" in="SourceGraphic" in2="effect1_dropShadow_117_1301" result="shape"/>
<feColorMatrix in="SourceAlpha" type="matrix" values="0 0 0 0 0 0 0 0 0 0 0 0 0 0 0 0 0 0 127 0" result="hardAlpha"/>
<feOffset dy="2"/>
<feGaussianBlur stdDeviation="1.5"/>
<feComposite in2="hardAlpha" operator="arithmetic" k2="-1" k3="1"/>
<feColorMatrix type="matrix" values="0 0 0 0 1 0 0 0 0 1 0 0 0 0 1 0 0 0 0.41 0"/>
<feBlend mode="normal" in2="shape" result="effect2_innerShadow_117_1301"/>
<feColorMatrix in="SourceAlpha" type="matrix" values="0 0 0 0 0 0 0 0 0 0 0 0 0 0 0 0 0 0 127 0" result="hardAlpha"/>
<feOffset dy="-16"/>
<feGaussianBlur stdDeviation="12"/>
<feComposite in2="hardAlpha" operator="arithmetic" k2="-1" k3="1"/>
<feColorMatrix type="matrix" values="0 0 0 0 1 0 0 0 0 1 0 0 0 0 1 0 0 0 0.45 0"/>
<feBlend mode="normal" in2="effect2_innerShadow_117_1301" result="effect3_innerShadow_117_1301"/>
</filter>
<linearGradient id="paint0_linear_117_1301" x1="54.1727" y1="4" x2="54.1727" y2="114" gradientUnits="userSpaceOnUse">
<stop stop-color="#3AC8F0"/>
<stop offset="0.0001" stop-color="#45D5EE"/>
<stop offset="0.442708" stop-color="#2498F7"/>
<stop offset="0.9999" stop-color="#005FFC"/>
<stop offset="1" stop-color="#3AC8F0" stop-opacity="0"/>
<stop offset="1" stop-color="#3AC8F0" stop-opacity="0"/>
<stop offset="1" stop-color="#3AC8F0" stop-opacity="0"/>
</linearGradient>
<linearGradient id="paint1_linear_117_1301" x1="57.1727" y1="10" x2="57.1727" y2="120" gradientUnits="userSpaceOnUse">
<stop stop-color="#3AC8F0"/>
<stop offset="0.0001" stop-color="#45D5EE"/>
<stop offset="0.442708" stop-color="#2498F7"/>
<stop offset="0.9999" stop-color="#005FFC"/>
<stop offset="1" stop-color="#3AC8F0" stop-opacity="0"/>
<stop offset="1" stop-color="#3AC8F0" stop-opacity="0"/>
<stop offset="1" stop-color="#3AC8F0" stop-opacity="0"/>
</linearGradient>
</defs>
</svg>
