<svg width="103" height="107" viewBox="0 0 103 107" fill="none" xmlns="http://www.w3.org/2000/svg">
<path d="M48.3799 0.0431277C23.6412 0.0431277 25.2056 11.0768 25.2056 11.0768V22.5417H48.7318V26.1357H15.8363C15.8363 26.1357 0 24.1231 0 50.018C0 75.9129 13.9826 74.8598 13.9826 74.8598H22.0558V62.7803C22.0558 62.7803 21.6028 48.3575 35.6447 48.3575H59.2057C59.2057 48.3575 72.3486 48.5732 72.3486 35.2322V13.341C72.3486 13.341 74.3417 0 48.5089 0L48.3799 0.0431277ZM35.3764 7.72355C36.2128 7.70178 37.0366 7.93634 37.7438 8.39755C38.4509 8.85877 39.0096 9.52592 39.3491 10.3146C39.6886 11.1034 39.7938 11.9782 39.6512 12.8286C39.5087 13.679 39.1249 14.4667 38.5484 15.092C37.9718 15.7174 37.2284 16.1523 36.4122 16.3419C35.596 16.5314 34.7436 16.4671 33.9629 16.1569C33.1821 15.8468 32.5081 15.3048 32.026 14.5995C31.5439 13.8942 31.2754 13.0572 31.2544 12.1945V12.1226C31.2544 10.9655 31.7001 9.85567 32.4934 9.03742C33.2867 8.21917 34.3626 7.75949 35.4844 7.75949L35.3764 7.72355Z" fill="#292D32"/>
<path d="M48.3799 0.0431277C23.6412 0.0431277 25.2056 11.0768 25.2056 11.0768V22.5417H48.7318V26.1357H15.8363C15.8363 26.1357 0 24.1231 0 50.018C0 75.9129 13.9826 74.8598 13.9826 74.8598H22.0558V62.7803C22.0558 62.7803 21.6028 48.3575 35.6447 48.3575H59.2057C59.2057 48.3575 72.3486 48.5732 72.3486 35.2322V13.341C72.3486 13.341 74.3417 0 48.5089 0L48.3799 0.0431277ZM35.3764 7.72355C36.2128 7.70178 37.0366 7.93634 37.7438 8.39755C38.4509 8.85877 39.0096 9.52592 39.3491 10.3146C39.6886 11.1034 39.7938 11.9782 39.6512 12.8286C39.5087 13.679 39.1249 14.4667 38.5484 15.092C37.9718 15.7174 37.2284 16.1523 36.4122 16.3419C35.596 16.5314 34.7436 16.4671 33.9629 16.1569C33.1821 15.8468 32.5081 15.3048 32.026 14.5995C31.5439 13.8942 31.2754 13.0572 31.2544 12.1945V12.1226C31.2544 10.9655 31.7001 9.85567 32.4934 9.03742C33.2867 8.21917 34.3626 7.75949 35.4844 7.75949L35.3764 7.72355Z" fill="url(#paint0_linear_104_33)"/>
<path d="M49.0765 99.9928C73.8152 99.9928 72.2508 88.9232 72.2508 88.9232V77.4942H48.7281V73.9002H81.7247C81.7247 73.9002 97.561 75.726 97.561 49.982C97.561 24.2381 83.5783 25.1402 83.5783 25.1402H75.4006V37.0615C75.4006 37.0615 75.8536 51.4843 61.8117 51.4843H38.2402C38.2402 51.4843 25.0869 51.2795 25.0869 64.6205V86.659C25.0869 86.659 23.0938 100 48.9267 100H49.066L49.0765 99.9928ZM62.08 92.2764C61.2436 92.2982 60.4198 92.0636 59.7127 91.6024C59.0055 91.1412 58.4469 90.4741 58.1073 89.6853C57.7678 88.8966 57.6627 88.0217 57.8052 87.1714C57.9477 86.321 58.3315 85.5333 58.9081 84.908C59.4846 84.2826 60.228 83.8477 61.0442 83.6581C61.8604 83.4685 62.7128 83.5329 63.4936 83.8431C64.2743 84.1532 64.9484 84.6952 65.4305 85.4005C65.9126 86.1058 66.181 86.9428 66.202 87.8055V87.9133C66.202 89.0705 65.7563 90.1803 64.9631 90.9985C64.1698 91.8167 63.0939 92.2764 61.972 92.2764H62.08Z" fill="url(#paint1_linear_104_33)"/>
<rect x="57" y="83" width="10" height="10" fill="url(#paint2_linear_104_33)"/>
<g filter="url(#filter0_ii_104_33)">
<path d="M54.0252 106.857C78.764 106.857 77.1995 95.7869 77.1995 95.7869V84.358H53.6768V80.7639H86.6734C86.6734 80.7639 102.51 82.5897 102.51 56.8457C102.51 31.1018 88.5271 32.0039 88.5271 32.0039H80.3494V43.9252C80.3494 43.9252 80.8023 58.348 66.7605 58.348H43.189C43.189 58.348 30.0356 58.1432 30.0356 71.4842V93.5227C30.0356 93.5227 28.0426 106.864 53.8754 106.864H54.0148L54.0252 106.857ZM67.0288 99.1402C66.1924 99.1619 65.3685 98.9274 64.6614 98.4661C63.9543 98.0049 63.3956 97.3378 63.0561 96.5491C62.7165 95.7603 62.6114 94.8855 62.7539 94.0351C62.8965 93.1847 63.2803 92.3971 63.8568 91.7717C64.4334 91.1463 65.1768 90.7114 65.993 90.5218C66.8092 90.3323 67.6616 90.3966 68.4423 90.7068C69.223 91.0169 69.8971 91.5589 70.3792 92.2642C70.8613 92.9696 71.1298 93.8065 71.1507 94.6692V94.777C71.1507 95.9342 70.7051 97.044 69.9118 97.8622C69.1185 98.6805 68.0426 99.1402 66.9207 99.1402H67.0288Z" fill="url(#paint3_linear_104_33)"/>
</g>
<defs>
<filter id="filter0_ii_104_33" x="30" y="16" width="72.5098" height="92.8637" filterUnits="userSpaceOnUse" color-interpolation-filters="sRGB">
<feFlood flood-opacity="0" result="BackgroundImageFix"/>
<feBlend mode="normal" in="SourceGraphic" in2="BackgroundImageFix" result="shape"/>
<feColorMatrix in="SourceAlpha" type="matrix" values="0 0 0 0 0 0 0 0 0 0 0 0 0 0 0 0 0 0 127 0" result="hardAlpha"/>
<feOffset dy="-16"/>
<feGaussianBlur stdDeviation="12"/>
<feComposite in2="hardAlpha" operator="arithmetic" k2="-1" k3="1"/>
<feColorMatrix type="matrix" values="0 0 0 0 1 0 0 0 0 1 0 0 0 0 1 0 0 0 0.62 0"/>
<feBlend mode="normal" in2="shape" result="effect1_innerShadow_104_33"/>
<feColorMatrix in="SourceAlpha" type="matrix" values="0 0 0 0 0 0 0 0 0 0 0 0 0 0 0 0 0 0 127 0" result="hardAlpha"/>
<feOffset dy="2"/>
<feGaussianBlur stdDeviation="1.5"/>
<feComposite in2="hardAlpha" operator="arithmetic" k2="-1" k3="1"/>
<feColorMatrix type="matrix" values="0 0 0 0 1 0 0 0 0 1 0 0 0 0 1 0 0 0 0.41 0"/>
<feBlend mode="normal" in2="effect1_innerShadow_104_33" result="effect2_innerShadow_104_33"/>
</filter>
<linearGradient id="paint0_linear_104_33" x1="36.1921" y1="0" x2="36.1921" y2="74.8658" gradientUnits="userSpaceOnUse">
<stop stop-color="#3AC8F0"/>
<stop offset="0.0001" stop-color="#45D5EE"/>
<stop offset="0.442708" stop-color="#2498F7"/>
<stop offset="0.9999" stop-color="#005FFC"/>
<stop offset="1" stop-color="#3AC8F0" stop-opacity="0"/>
<stop offset="1" stop-color="#3AC8F0" stop-opacity="0"/>
<stop offset="1" stop-color="#3AC8F0" stop-opacity="0"/>
</linearGradient>
<linearGradient id="paint1_linear_104_33" x1="61.3061" y1="25.1363" x2="61.3061" y2="100" gradientUnits="userSpaceOnUse">
<stop stop-color="#FFDD85"/>
<stop offset="0.3125" stop-color="#FFD66D"/>
<stop offset="1" stop-color="#FF9900"/>
</linearGradient>
<linearGradient id="paint2_linear_104_33" x1="62" y1="83" x2="62" y2="93" gradientUnits="userSpaceOnUse">
<stop stop-color="#FFAE25"/>
<stop offset="1" stop-color="#FFA10E"/>
</linearGradient>
<linearGradient id="paint3_linear_104_33" x1="66.2549" y1="32" x2="66.2549" y2="106.864" gradientUnits="userSpaceOnUse">
<stop stop-color="#FFDD85"/>
<stop offset="0.3125" stop-color="#FFD66D"/>
<stop offset="1" stop-color="#FF9900"/>
</linearGradient>
</defs>
</svg>
