<svg width="107" height="113" viewBox="0 0 107 113" fill="none" xmlns="http://www.w3.org/2000/svg">
<path d="M89.3507 38.8048H60.2339C59.754 38.808 59.2782 38.7096 58.8343 38.5154C58.3903 38.3212 57.9869 38.0349 57.6475 37.6733C57.3082 37.3116 57.0396 36.8817 56.8573 36.4086C56.675 35.9355 56.5827 35.4285 56.5858 34.917V3.88824C56.5858 3.37879 56.4913 2.87436 56.3077 2.40399C56.1241 1.93361 55.8551 1.50657 55.516 1.14745C55.1769 0.788329 54.7746 0.504216 54.3321 0.311463C53.8895 0.11871 53.4156 0.0211239 52.9376 0.0243208H42.0389C41.5609 0.0210738 41.0869 0.118623 40.6444 0.311354C40.2018 0.504084 39.7994 0.788189 39.4603 1.14732C39.1212 1.50644 38.8521 1.9335 38.6685 2.4039C38.4849 2.8743 38.3904 3.37876 38.3904 3.88824V34.917C38.3934 35.4285 38.3011 35.9355 38.1189 36.4086C37.9366 36.8817 37.668 37.3116 37.3286 37.6733C36.9893 38.0349 36.5859 38.3212 36.1419 38.5154C35.6979 38.7096 35.2222 38.808 34.7422 38.8048H23.8436C23.3637 38.808 22.8879 38.7096 22.4439 38.5154C21.9999 38.3212 21.5966 38.0349 21.2572 37.6733C20.9178 37.3116 20.6492 36.8817 20.467 36.4086C20.2847 35.9355 20.1924 35.4285 20.1954 34.917V3.88824C20.1985 3.37676 20.1062 2.86972 19.924 2.39653C19.7417 1.92335 19.4731 1.49343 19.1338 1.13174C18.7944 0.77004 18.391 0.483756 17.947 0.289494C17.503 0.095231 17.0272 -0.00314356 16.5472 7.65713e-05H5.62549C5.14749 0.000116796 4.67421 0.100882 4.23288 0.296575C3.79156 0.492268 3.3909 0.779026 3.05396 1.14035C2.71702 1.50168 2.45045 1.93043 2.26958 2.40196C2.08871 2.87349 1.99712 3.37847 2.00007 3.88786V93.1121C1.9971 93.6236 2.08943 94.1305 2.27171 94.6037C2.454 95.0768 2.72261 95.5066 3.06196 95.8683C3.40132 96.2299 3.80468 96.5162 4.24863 96.7104C4.69259 96.9047 5.16832 97.0031 5.64824 96.9999H89.3503C89.8303 97.0032 90.306 96.9048 90.75 96.7105C91.194 96.5163 91.5974 96.2301 91.9368 95.8684C92.2762 95.5068 92.5449 95.0769 92.7272 94.6038C92.9095 94.1306 93.0018 93.6236 92.9988 93.1121V42.7657C93.0111 42.2481 92.9256 41.7332 92.7475 41.2516C92.5694 40.7699 92.3022 40.3313 91.9619 39.9619C91.6216 39.5924 91.2151 39.2996 90.7665 39.1008C90.318 38.902 89.8365 38.8014 89.3507 38.8048ZM74.7125 71.7538C74.7154 72.5184 74.5767 73.2761 74.3042 73.9835C74.0316 74.6908 73.6307 75.3339 73.1244 75.8757C72.6181 76.4175 72.0164 76.8474 71.3538 77.1408C70.6911 77.4342 69.9807 77.5852 69.2632 77.5853H61.9668C61.2493 77.5853 60.5388 77.4342 59.8762 77.1409C59.2136 76.8475 58.6118 76.4176 58.1055 75.8758C57.5992 75.334 57.1983 74.6909 56.9258 73.9836C56.6533 73.2762 56.5145 72.5184 56.5175 71.7538V64.0024C56.5146 63.2378 56.6533 62.4801 56.9259 61.7727C57.1984 61.0654 57.5993 60.4224 58.1056 59.8805C58.6119 59.3387 59.2136 58.9088 59.8763 58.6154C60.5389 58.3221 61.2493 58.171 61.9668 58.171H69.2628C69.9804 58.171 70.6908 58.322 71.3535 58.6153C72.0161 58.9087 72.6178 59.3386 73.1241 59.8804C73.6305 60.4223 74.0314 61.0653 74.3039 61.7727C74.5764 62.48 74.7151 63.2378 74.7121 64.0024L74.7125 71.7538Z" fill="url(#paint0_linear_104_44)"/>
<rect x="54" y="57" width="23" height="23" fill="url(#paint1_linear_104_44)"/>
<g filter="url(#filter0_dii_104_44)">
<path d="M99.3507 48.8048H70.2339C69.754 48.808 69.2782 48.7096 68.8343 48.5154C68.3903 48.3212 67.9869 48.0349 67.6475 47.6733C67.3082 47.3116 67.0396 46.8817 66.8573 46.4086C66.675 45.9355 66.5827 45.4285 66.5858 44.917V13.8882C66.5858 13.3788 66.4913 12.8744 66.3077 12.404C66.1241 11.9336 65.8551 11.5066 65.516 11.1475C65.1769 10.7883 64.7746 10.5042 64.3321 10.3115C63.8895 10.1187 63.4156 10.0211 62.9376 10.0243H52.0389C51.5609 10.0211 51.0869 10.1186 50.6444 10.3114C50.2018 10.5041 49.7994 10.7882 49.4603 11.1473C49.1212 11.5064 48.8521 11.9335 48.6685 12.4039C48.4849 12.8743 48.3904 13.3788 48.3904 13.8882V44.917C48.3934 45.4285 48.3011 45.9355 48.1189 46.4086C47.9366 46.8817 47.668 47.3116 47.3286 47.6733C46.9893 48.0349 46.5859 48.3212 46.1419 48.5154C45.6979 48.7096 45.2222 48.808 44.7422 48.8048H33.8436C33.3637 48.808 32.8879 48.7096 32.4439 48.5154C31.9999 48.3212 31.5966 48.0349 31.2572 47.6733C30.9178 47.3116 30.6492 46.8817 30.467 46.4086C30.2847 45.9355 30.1924 45.4285 30.1954 44.917V13.8882C30.1985 13.3768 30.1062 12.8697 29.924 12.3965C29.7417 11.9233 29.4731 11.4934 29.1338 11.1317C28.7944 10.77 28.391 10.4838 27.947 10.2895C27.503 10.0952 27.0272 9.99686 26.5472 10.0001H15.6255C15.1475 10.0001 14.6742 10.1009 14.2329 10.2966C13.7916 10.4923 13.3909 10.779 13.054 11.1404C12.717 11.5017 12.4504 11.9304 12.2696 12.402C12.0887 12.8735 11.9971 13.3785 12.0001 13.8879V103.112C11.9971 103.624 12.0894 104.131 12.2717 104.604C12.454 105.077 12.7226 105.507 13.062 105.868C13.4013 106.23 13.8047 106.516 14.2486 106.71C14.6926 106.905 15.1683 107.003 15.6482 107H99.3503C99.8303 107.003 100.306 106.905 100.75 106.711C101.194 106.516 101.597 106.23 101.937 105.868C102.276 105.507 102.545 105.077 102.727 104.604C102.909 104.131 103.002 103.624 102.999 103.112V52.7657C103.011 52.2481 102.926 51.7332 102.747 51.2516C102.569 50.7699 102.302 50.3313 101.962 49.9619C101.622 49.5924 101.215 49.2996 100.767 49.1008C100.318 48.902 99.8365 48.8014 99.3507 48.8048ZM84.7125 81.7538C84.7154 82.5184 84.5767 83.2761 84.3042 83.9835C84.0316 84.6908 83.6307 85.3339 83.1244 85.8757C82.6181 86.4175 82.0164 86.8474 81.3538 87.1408C80.6911 87.4342 79.9807 87.5852 79.2632 87.5853H71.9668C71.2493 87.5853 70.5388 87.4342 69.8762 87.1409C69.2136 86.8475 68.6118 86.4176 68.1055 85.8758C67.5992 85.334 67.1983 84.6909 66.9258 83.9836C66.6533 83.2762 66.5145 82.5184 66.5175 81.7538V74.0024C66.5146 73.2378 66.6533 72.4801 66.9259 71.7727C67.1984 71.0654 67.5993 70.4224 68.1056 69.8805C68.6119 69.3387 69.2136 68.9088 69.8763 68.6154C70.5389 68.3221 71.2493 68.171 71.9668 68.171H79.2628C79.9804 68.171 80.6908 68.322 81.3535 68.6153C82.0161 68.9087 82.6178 69.3386 83.1241 69.8804C83.6305 70.4223 84.0314 71.0653 84.3039 71.7727C84.5764 72.48 84.7151 73.2378 84.7121 74.0024L84.7125 81.7538Z" fill="url(#paint2_linear_104_44)"/>
</g>
<defs>
<filter id="filter0_dii_104_44" x="0" y="-6" width="107" height="119" filterUnits="userSpaceOnUse" color-interpolation-filters="sRGB">
<feFlood flood-opacity="0" result="BackgroundImageFix"/>
<feColorMatrix in="SourceAlpha" type="matrix" values="0 0 0 0 0 0 0 0 0 0 0 0 0 0 0 0 0 0 127 0" result="hardAlpha"/>
<feOffset dx="-4" dy="-2"/>
<feGaussianBlur stdDeviation="4"/>
<feComposite in2="hardAlpha" operator="out"/>
<feColorMatrix type="matrix" values="0 0 0 0 0.980392 0 0 0 0 0.329412 0 0 0 0 0.333333 0 0 0 0.37 0"/>
<feBlend mode="normal" in2="BackgroundImageFix" result="effect1_dropShadow_104_44"/>
<feBlend mode="normal" in="SourceGraphic" in2="effect1_dropShadow_104_44" result="shape"/>
<feColorMatrix in="SourceAlpha" type="matrix" values="0 0 0 0 0 0 0 0 0 0 0 0 0 0 0 0 0 0 127 0" result="hardAlpha"/>
<feOffset dy="2"/>
<feGaussianBlur stdDeviation="1.5"/>
<feComposite in2="hardAlpha" operator="arithmetic" k2="-1" k3="1"/>
<feColorMatrix type="matrix" values="0 0 0 0 1 0 0 0 0 1 0 0 0 0 1 0 0 0 0.41 0"/>
<feBlend mode="normal" in2="shape" result="effect2_innerShadow_104_44"/>
<feColorMatrix in="SourceAlpha" type="matrix" values="0 0 0 0 0 0 0 0 0 0 0 0 0 0 0 0 0 0 127 0" result="hardAlpha"/>
<feOffset dy="-16"/>
<feGaussianBlur stdDeviation="8"/>
<feComposite in2="hardAlpha" operator="arithmetic" k2="-1" k3="1"/>
<feColorMatrix type="matrix" values="0 0 0 0 1 0 0 0 0 1 0 0 0 0 1 0 0 0 0.4 0"/>
<feBlend mode="normal" in2="effect2_innerShadow_104_44" result="effect3_innerShadow_104_44"/>
</filter>
<linearGradient id="paint0_linear_104_44" x1="47.5" y1="0" x2="47.5" y2="97" gradientUnits="userSpaceOnUse">
<stop stop-color="#FF3E00"/>
<stop offset="0.15625" stop-color="#FF3E00"/>
<stop offset="0.8125" stop-color="#FF8D68"/>
</linearGradient>
<linearGradient id="paint1_linear_104_44" x1="65.5" y1="57" x2="65.5" y2="80" gradientUnits="userSpaceOnUse">
<stop stop-color="#FF7144"/>
<stop offset="1" stop-color="#FF8D69"/>
</linearGradient>
<linearGradient id="paint2_linear_104_44" x1="57.5" y1="10" x2="57.5" y2="107" gradientUnits="userSpaceOnUse">
<stop stop-color="#FF3E00"/>
<stop offset="0.15625" stop-color="#FF3E00"/>
<stop offset="0.8125" stop-color="#FF8D68"/>
</linearGradient>
</defs>
</svg>
