<svg width="99" height="110" viewBox="0 0 99 110" fill="none" xmlns="http://www.w3.org/2000/svg">
<path d="M46.632 2.30936C49.1072 0.880319 52.1567 0.880319 54.6319 2.30936L94.2638 25.1906C96.7391 26.6197 98.2639 29.2607 98.2639 32.1188V77.8812C98.2639 80.7393 96.7391 83.3803 94.2638 84.8094L54.6319 107.691C52.1567 109.12 49.1072 109.12 46.632 107.691L7.00003 84.8094C4.5248 83.3803 3 80.7393 3 77.8812V32.1188C3 29.2607 4.52481 26.6197 7.00003 25.1906L46.632 2.30936Z" fill="#292D32"/>
<path d="M46.632 2.30936C49.1072 0.880319 52.1567 0.880319 54.6319 2.30936L94.2638 25.1906C96.7391 26.6197 98.2639 29.2607 98.2639 32.1188V77.8812C98.2639 80.7393 96.7391 83.3803 94.2638 84.8094L54.6319 107.691C52.1567 109.12 49.1072 109.12 46.632 107.691L7.00003 84.8094C4.5248 83.3803 3 80.7393 3 77.8812V32.1188C3 29.2607 4.52481 26.6197 7.00003 25.1906L46.632 2.30936Z" fill="url(#paint0_linear_143_120)"/>
<g filter="url(#filter0_dii_143_120)">
<path d="M51.1233 48.1216C54.8719 48.1216 57.9289 51.1787 57.9289 55C57.9289 58.6394 54.8719 61.7328 51.1233 61.7328C47.3747 61.7328 44.3177 58.6394 44.3177 55C44.3177 51.1787 47.3747 48.1216 51.1233 48.1216ZM34.273 84.115C36.5658 85.498 41.5881 83.3871 47.3747 77.9281C45.4823 75.7808 43.6262 73.4516 41.8793 71.0133C38.9465 70.7326 36.0308 70.2952 33.1448 69.7031C31.2887 77.4913 31.9802 82.8412 34.273 84.115ZM36.8569 63.225L35.8015 61.3689C35.4012 62.4243 35.0009 63.4797 34.7461 64.4988C35.7287 64.7171 36.8205 64.8991 37.9488 65.0811L36.8569 63.225ZM60.6585 60.4591L63.6064 55L60.6585 49.5409C59.5666 47.6121 58.402 45.9016 57.3466 44.1911C55.3814 44.0819 53.3069 44.0819 51.1233 44.0819C48.9397 44.0819 46.8652 44.0819 44.9 44.1911C43.8445 45.9016 42.6799 47.6121 41.5881 49.5409L38.6402 55L41.5881 60.4591C42.6799 62.3879 43.8445 64.0984 44.9 65.8089C46.8652 65.9181 48.9397 65.9181 51.1233 65.9181C53.3069 65.9181 55.3814 65.9181 57.3466 65.8089C58.402 64.0984 59.5666 62.3879 60.6585 60.4591ZM51.1233 36.0025C50.4318 36.8031 49.7039 37.6402 48.9761 38.6228H53.2705C52.5427 37.6402 51.8148 36.8031 51.1233 36.0025ZM51.1233 73.9975C51.8148 73.1969 52.5427 72.3598 53.2705 71.3772H48.9761C49.7039 72.3598 50.4318 73.1969 51.1233 73.9975ZM67.9372 25.885C65.6808 24.502 60.6585 26.6129 54.8718 32.0719C56.7643 34.2192 58.6204 36.5484 60.3673 38.9867C63.3516 39.2779 66.2995 39.7146 69.1018 40.2969C70.9579 32.5087 70.2664 27.1588 67.9372 25.885ZM65.3896 46.775L66.4451 48.6311C66.8454 47.5757 67.2457 46.5203 67.5005 45.5012C66.5179 45.2829 65.426 45.1009 64.2978 44.9189L65.3896 46.775ZM70.6667 21.1174C76.0166 24.1745 76.5989 32.2175 74.3425 41.6071C83.5865 44.3366 90.2466 48.8495 90.2466 55C90.2466 61.1505 83.5865 65.6634 74.3425 68.3929C76.5989 77.7825 76.0166 85.8255 70.6667 88.8826C65.3533 91.9397 58.1109 88.4459 51.1233 81.7858C44.1357 88.4459 36.8933 91.9397 31.5434 88.8826C26.23 85.8255 25.6477 77.7825 27.9041 68.3929C18.6601 65.6634 12 61.1505 12 55C12 48.8495 18.6601 44.3366 27.9041 41.6071C25.6477 32.2175 26.23 24.1745 31.5434 21.1174C36.8933 18.0603 44.1357 21.5541 51.1233 28.2142C58.1109 21.5541 65.3533 18.0603 70.6667 21.1174ZM69.6113 55C70.8487 57.7295 71.9405 60.4591 72.8504 63.225C80.4931 60.9322 84.7875 57.6567 84.7875 55C84.7875 52.3433 80.4931 49.0678 72.8504 46.775C71.9405 49.5409 70.8487 52.2705 69.6113 55ZM32.6353 55C31.3979 52.2705 30.3061 49.5409 29.3962 46.775C21.7535 49.0678 17.4591 52.3433 17.4591 55C17.4591 57.6567 21.7535 60.9322 29.3962 63.225C30.3061 60.4591 31.3979 57.7295 32.6353 55ZM65.3896 63.225L64.2978 65.0811C65.426 64.8991 66.5179 64.7171 67.5005 64.4988C67.2457 63.4797 66.8454 62.4243 66.4451 61.3689L65.3896 63.225ZM54.8718 77.9281C60.6585 83.3871 65.6808 85.498 67.9372 84.115C70.2664 82.8412 70.9579 77.4913 69.1018 69.7031C66.2995 70.2854 63.3516 70.7221 60.3673 71.0133C58.6204 73.4516 56.7643 75.7808 54.8718 77.9281ZM36.8569 46.775L37.9488 44.9189C36.8205 45.1009 35.7287 45.2829 34.7461 45.5012C35.0009 46.5203 35.4012 47.5757 35.8015 48.6311L36.8569 46.775ZM47.3747 32.0719C41.5881 26.6129 36.5658 24.502 34.273 25.885C31.9802 27.1588 31.2887 32.5087 33.1448 40.2969C36.0308 39.7048 38.9465 39.2674 41.8793 38.9867C43.6262 36.5484 45.4823 34.2192 47.3747 32.0719Z" fill="#292D32"/>
<path d="M51.1233 48.1216C54.8719 48.1216 57.9289 51.1787 57.9289 55C57.9289 58.6394 54.8719 61.7328 51.1233 61.7328C47.3747 61.7328 44.3177 58.6394 44.3177 55C44.3177 51.1787 47.3747 48.1216 51.1233 48.1216ZM34.273 84.115C36.5658 85.498 41.5881 83.3871 47.3747 77.9281C45.4823 75.7808 43.6262 73.4516 41.8793 71.0133C38.9465 70.7326 36.0308 70.2952 33.1448 69.7031C31.2887 77.4913 31.9802 82.8412 34.273 84.115ZM36.8569 63.225L35.8015 61.3689C35.4012 62.4243 35.0009 63.4797 34.7461 64.4988C35.7287 64.7171 36.8205 64.8991 37.9488 65.0811L36.8569 63.225ZM60.6585 60.4591L63.6064 55L60.6585 49.5409C59.5666 47.6121 58.402 45.9016 57.3466 44.1911C55.3814 44.0819 53.3069 44.0819 51.1233 44.0819C48.9397 44.0819 46.8652 44.0819 44.9 44.1911C43.8445 45.9016 42.6799 47.6121 41.5881 49.5409L38.6402 55L41.5881 60.4591C42.6799 62.3879 43.8445 64.0984 44.9 65.8089C46.8652 65.9181 48.9397 65.9181 51.1233 65.9181C53.3069 65.9181 55.3814 65.9181 57.3466 65.8089C58.402 64.0984 59.5666 62.3879 60.6585 60.4591ZM51.1233 36.0025C50.4318 36.8031 49.7039 37.6402 48.9761 38.6228H53.2705C52.5427 37.6402 51.8148 36.8031 51.1233 36.0025ZM51.1233 73.9975C51.8148 73.1969 52.5427 72.3598 53.2705 71.3772H48.9761C49.7039 72.3598 50.4318 73.1969 51.1233 73.9975ZM67.9372 25.885C65.6808 24.502 60.6585 26.6129 54.8718 32.0719C56.7643 34.2192 58.6204 36.5484 60.3673 38.9867C63.3516 39.2779 66.2995 39.7146 69.1018 40.2969C70.9579 32.5087 70.2664 27.1588 67.9372 25.885ZM65.3896 46.775L66.4451 48.6311C66.8454 47.5757 67.2457 46.5203 67.5005 45.5012C66.5179 45.2829 65.426 45.1009 64.2978 44.9189L65.3896 46.775ZM70.6667 21.1174C76.0166 24.1745 76.5989 32.2175 74.3425 41.6071C83.5865 44.3366 90.2466 48.8495 90.2466 55C90.2466 61.1505 83.5865 65.6634 74.3425 68.3929C76.5989 77.7825 76.0166 85.8255 70.6667 88.8826C65.3533 91.9397 58.1109 88.4459 51.1233 81.7858C44.1357 88.4459 36.8933 91.9397 31.5434 88.8826C26.23 85.8255 25.6477 77.7825 27.9041 68.3929C18.6601 65.6634 12 61.1505 12 55C12 48.8495 18.6601 44.3366 27.9041 41.6071C25.6477 32.2175 26.23 24.1745 31.5434 21.1174C36.8933 18.0603 44.1357 21.5541 51.1233 28.2142C58.1109 21.5541 65.3533 18.0603 70.6667 21.1174ZM69.6113 55C70.8487 57.7295 71.9405 60.4591 72.8504 63.225C80.4931 60.9322 84.7875 57.6567 84.7875 55C84.7875 52.3433 80.4931 49.0678 72.8504 46.775C71.9405 49.5409 70.8487 52.2705 69.6113 55ZM32.6353 55C31.3979 52.2705 30.3061 49.5409 29.3962 46.775C21.7535 49.0678 17.4591 52.3433 17.4591 55C17.4591 57.6567 21.7535 60.9322 29.3962 63.225C30.3061 60.4591 31.3979 57.7295 32.6353 55ZM65.3896 63.225L64.2978 65.0811C65.426 64.8991 66.5179 64.7171 67.5005 64.4988C67.2457 63.4797 66.8454 62.4243 66.4451 61.3689L65.3896 63.225ZM54.8718 77.9281C60.6585 83.3871 65.6808 85.498 67.9372 84.115C70.2664 82.8412 70.9579 77.4913 69.1018 69.7031C66.2995 70.2854 63.3516 70.7221 60.3673 71.0133C58.6204 73.4516 56.7643 75.7808 54.8718 77.9281ZM36.8569 46.775L37.9488 44.9189C36.8205 45.1009 35.7287 45.2829 34.7461 45.5012C35.0009 46.5203 35.4012 47.5757 35.8015 48.6311L36.8569 46.775ZM47.3747 32.0719C41.5881 26.6129 36.5658 24.502 34.273 25.885C31.9802 27.1588 31.2887 32.5087 33.1448 40.2969C36.0308 39.7048 38.9465 39.2674 41.8793 38.9867C43.6262 36.5484 45.4823 34.2192 47.3747 32.0719Z" fill="url(#paint1_linear_143_120)"/>
<path d="M47.7178 78.2918L48.0694 77.9601L47.7498 77.5975C45.8686 75.4629 44.0229 73.1469 42.2857 70.7221L42.1533 70.5372L41.9269 70.5155C39.0119 70.2366 36.1139 69.8019 33.2453 69.2133L32.7707 69.1159L32.6584 69.5872C31.7225 73.5144 31.4211 76.8563 31.6552 79.3978C31.8848 81.8922 32.6483 83.7789 34.0224 84.5477C35.396 85.3707 37.4332 85.0897 39.7218 84.0419C42.0526 82.9748 44.7997 81.0448 47.7178 78.2918ZM36.2362 61.1218L35.7109 60.198L35.334 61.1916L35.3282 61.207C34.932 62.2515 34.5229 63.3298 34.261 64.3775L34.1365 64.8755L34.6376 64.9869C35.6365 65.2088 36.7419 65.3929 37.8691 65.5747L38.9188 65.744L38.3797 64.8276L37.2916 62.9778L37.2879 62.9715L36.2362 61.1218ZM61.0936 60.7054L61.0937 60.7054L61.0984 60.6966L64.0463 55.2376L64.1746 55L64.0463 54.7624L61.0984 49.3034L61.0985 49.3033L61.0936 49.2946C60.3666 48.0102 59.6004 46.8105 58.8638 45.6571C58.4892 45.0706 58.1223 44.4961 57.7721 43.9285L57.635 43.7063L57.3744 43.6918C55.3952 43.5819 53.3092 43.5819 51.1317 43.5819H51.1233H51.1149C48.9374 43.5819 46.8514 43.5819 44.8722 43.6918L44.6115 43.7063L44.4744 43.9285C44.1242 44.4961 43.7573 45.0706 43.3828 45.6571C42.6462 46.8105 41.88 48.0102 41.153 49.2946L41.1529 49.2946L41.1482 49.3034L38.2003 54.7624L38.072 55L38.2003 55.2376L41.1482 60.6966L41.1481 60.6967L41.153 60.7054C41.88 61.9898 42.6462 63.1895 43.3828 64.3429C43.7573 64.9294 44.1242 65.5039 44.4744 66.0715L44.6115 66.2937L44.8722 66.3082C46.8514 66.4181 48.9374 66.4181 51.1149 66.4181H51.1233H51.1317C53.3092 66.4181 55.3952 66.4181 57.3744 66.3082L57.635 66.2937L57.7721 66.0715C58.1223 65.5039 58.4892 64.9294 58.8638 64.3429C59.6004 63.1895 60.3666 61.9898 61.0936 60.7054ZM51.5017 35.6756L51.1233 35.2375L50.7449 35.6756L50.6632 35.7702C49.9972 36.5411 49.286 37.3644 48.5743 38.3252L47.9835 39.1228H48.9761H53.2705H54.2631L53.6723 38.3252C52.9606 37.3644 52.2494 36.5411 51.5834 35.7702L51.5017 35.6756ZM50.7449 74.3244L51.1233 74.7625L51.5017 74.3244L51.5834 74.2298C52.2494 73.4588 52.9606 72.6356 53.6723 71.6748L54.2631 70.8772H53.2705H48.9761H47.9835L48.5743 71.6748C49.286 72.6356 49.9972 73.4588 50.6632 74.2298L50.7449 74.3244ZM54.5287 31.7082L54.1772 32.0399L54.4967 32.4025C56.378 34.5371 58.2237 36.8531 59.9609 39.2779L60.093 39.4624L60.3188 39.4844C63.287 39.774 66.217 40.2082 69.0001 40.7865L69.4756 40.8853L69.5882 40.4128C70.5241 36.4857 70.8256 33.1434 70.5868 30.6013C70.3525 28.1068 69.5796 26.2208 68.1879 25.4522C67.5041 25.0372 66.6516 24.9078 65.7073 25.0031C64.7576 25.099 63.6828 25.4248 62.5199 25.9582C60.1938 27.0253 57.4469 28.9552 54.5287 31.7082ZM66.0104 48.8782L66.5357 49.802L66.9126 48.8084L66.9185 48.7927C67.3147 47.7483 67.7237 46.6701 67.9856 45.6225L68.1101 45.1245L67.609 45.0131C66.6101 44.7912 65.5047 44.6071 64.3775 44.4253L63.3278 44.256L63.8669 45.1724L64.955 47.0222L64.9587 47.0285L66.0104 48.8782ZM70.4174 21.5508L70.4187 21.5515C72.9165 22.9788 74.3441 25.5877 74.8625 29.0614C75.3816 32.5402 74.9766 36.8285 73.8563 41.4903L73.7454 41.9521L74.2009 42.0866C78.7903 43.4418 82.6991 45.2292 85.4502 47.4123C88.1974 49.5923 89.7466 52.1278 89.7466 55C89.7466 57.8722 88.1974 60.4077 85.4502 62.5877C82.6991 64.7708 78.7903 66.5582 74.2009 67.9134L73.7454 68.0479L73.8563 68.5097C74.9766 73.1715 75.3816 77.4598 74.8625 80.9386C74.3441 84.4123 72.9165 87.0212 70.4187 88.4485L70.4174 88.4492C67.9364 89.8766 64.9679 89.8026 61.7067 88.5132C58.4409 87.2219 54.9371 84.7301 51.4683 81.4239L51.1233 81.0951L50.7783 81.4239C47.3095 84.7301 43.8058 87.2218 40.5356 88.5131C37.2706 89.8022 34.2922 89.8771 31.7922 88.4489C29.3128 87.0221 27.8937 84.4136 27.3797 80.9393C26.8649 77.4601 27.27 73.1714 28.3902 68.5097L28.5012 68.0479L28.0457 67.9134C23.4563 66.5582 19.5474 64.7708 16.7963 62.5877C14.0492 60.4077 12.5 57.8722 12.5 55C12.5 52.1278 14.0492 49.5923 16.7963 47.4123C19.5474 45.2292 23.4563 43.4418 28.0457 42.0866L28.5012 41.9521L28.3902 41.4903C27.27 36.8286 26.8649 32.5399 27.3797 29.0607C27.8937 25.5864 29.3128 22.9779 31.7922 21.5511C34.2922 20.1229 37.2705 20.1977 40.5356 21.4869C43.8058 22.7782 47.3095 25.2699 50.7783 28.5761L51.1233 28.9049L51.4683 28.5761C54.9371 25.2699 58.4409 22.7781 61.7067 21.4868C64.9679 20.1974 67.9364 20.1234 70.4174 21.5508ZM69.1559 54.7936L69.0623 55L69.1559 55.2064C70.3873 57.9226 71.4721 60.6353 72.3754 63.3812L72.5276 63.8438L72.994 63.7039C76.848 62.5477 79.8868 61.1358 81.974 59.6569C84.0285 58.2013 85.2875 56.5877 85.2875 55C85.2875 53.4123 84.0285 51.7987 81.974 50.3431C79.8868 48.8642 76.848 47.4523 72.994 46.2961L72.5276 46.1562L72.3754 46.6188C71.4721 49.3647 70.3873 52.0774 69.1559 54.7936ZM33.0907 55.2064L33.1842 55L33.0907 54.7936C31.8593 52.0774 30.7745 49.3647 29.8712 46.6188L29.719 46.1562L29.2525 46.2961C25.3986 47.4523 22.3597 48.8642 20.2726 50.3431C18.2181 51.7987 16.9591 53.4123 16.9591 55C16.9591 56.5877 18.2181 58.2013 20.2726 59.6569C22.3597 61.1358 25.3986 62.5477 29.2525 63.7039L29.719 63.8438L29.8712 63.3812C30.7745 60.6353 31.8593 57.9226 33.0907 55.2064ZM63.8669 64.8276L63.3278 65.744L64.3775 65.5747C65.5047 65.3929 66.6101 65.2088 67.609 64.9869L68.1101 64.8755L67.9856 64.3775C67.7237 63.3299 67.3147 62.2517 66.9185 61.2073L66.9126 61.1916L66.5357 60.198L66.0104 61.1218L64.9587 62.9715L64.955 62.9778L63.8669 64.8276ZM54.4967 77.5975L54.1772 77.9601L54.5287 78.2918C57.4469 81.0448 60.1938 82.9747 62.5199 84.0418C63.6828 84.5752 64.7576 84.901 65.7073 84.9969C66.6516 85.0922 67.5042 84.9628 68.188 84.5477C69.5796 83.7791 70.3525 81.8932 70.5868 79.3987C70.8256 76.8566 70.5241 73.5143 69.5882 69.5872L69.4756 69.1147L69.0001 69.2135C66.217 69.7918 63.287 70.226 60.3188 70.5156L60.093 70.5376L59.9609 70.7221C58.2237 73.1469 56.378 75.4629 54.4967 77.5975ZM38.3797 45.1724L38.9188 44.256L37.8691 44.4253C36.7419 44.6071 35.6365 44.7912 34.6376 45.0131L34.1365 45.1245L34.261 45.6225C34.5229 46.6701 34.932 47.7484 35.3281 48.7929L35.334 48.8084L35.7109 49.802L36.2362 48.8782L37.2897 47.0254L38.3797 45.1724ZM47.7498 32.4025L48.0694 32.0399L47.7178 31.7082C44.7997 28.9552 42.0526 27.0252 39.7218 25.9581C37.4332 24.9103 35.396 24.6293 34.0223 25.4523C32.6483 26.2211 31.8848 28.1078 31.6552 30.6022C31.4211 33.1437 31.7225 36.4856 32.6584 40.4128L32.7707 40.8841L33.2453 40.7867C36.1139 40.1981 39.0119 39.7634 41.9269 39.4845L42.1533 39.4628L42.2857 39.2779C44.0229 36.8531 45.8686 34.5371 47.7498 32.4025ZM51.1233 48.6216C54.5923 48.6216 57.4289 51.4513 57.4289 55C57.4289 58.3615 54.5975 61.2328 51.1233 61.2328C47.6491 61.2328 44.8177 58.3615 44.8177 55C44.8177 51.4513 47.6543 48.6216 51.1233 48.6216Z" stroke="white" stroke-opacity="0.4"/>
</g>
<defs>
<filter id="filter0_dii_143_120" x="0" y="4" width="94.2466" height="92" filterUnits="userSpaceOnUse" color-interpolation-filters="sRGB">
<feFlood flood-opacity="0" result="BackgroundImageFix"/>
<feColorMatrix in="SourceAlpha" type="matrix" values="0 0 0 0 0 0 0 0 0 0 0 0 0 0 0 0 0 0 127 0" result="hardAlpha"/>
<feOffset dx="-4" dy="-2"/>
<feGaussianBlur stdDeviation="4"/>
<feComposite in2="hardAlpha" operator="out"/>
<feColorMatrix type="matrix" values="0 0 0 0 0.117647 0 0 0 0 0.494118 0 0 0 0 0.929412 0 0 0 0.56 0"/>
<feBlend mode="normal" in2="BackgroundImageFix" result="effect1_dropShadow_143_120"/>
<feBlend mode="normal" in="SourceGraphic" in2="effect1_dropShadow_143_120" result="shape"/>
<feColorMatrix in="SourceAlpha" type="matrix" values="0 0 0 0 0 0 0 0 0 0 0 0 0 0 0 0 0 0 127 0" result="hardAlpha"/>
<feOffset dy="2"/>
<feGaussianBlur stdDeviation="1.5"/>
<feComposite in2="hardAlpha" operator="arithmetic" k2="-1" k3="1"/>
<feColorMatrix type="matrix" values="0 0 0 0 1 0 0 0 0 1 0 0 0 0 1 0 0 0 0.41 0"/>
<feBlend mode="normal" in2="shape" result="effect2_innerShadow_143_120"/>
<feColorMatrix in="SourceAlpha" type="matrix" values="0 0 0 0 0 0 0 0 0 0 0 0 0 0 0 0 0 0 127 0" result="hardAlpha"/>
<feOffset dy="-16"/>
<feGaussianBlur stdDeviation="12"/>
<feComposite in2="hardAlpha" operator="arithmetic" k2="-1" k3="1"/>
<feColorMatrix type="matrix" values="0 0 0 0 1 0 0 0 0 1 0 0 0 0 1 0 0 0 0.45 0"/>
<feBlend mode="normal" in2="effect2_innerShadow_143_120" result="effect3_innerShadow_143_120"/>
</filter>
<linearGradient id="paint0_linear_143_120" x1="50.6319" y1="0" x2="50.6319" y2="110" gradientUnits="userSpaceOnUse">
<stop stop-color="#3AC8F0"/>
<stop offset="0.0001" stop-color="#45D5EE"/>
<stop offset="0.442708" stop-color="#2498F7"/>
<stop offset="0.9999" stop-color="#005FFC"/>
<stop offset="1" stop-color="#3AC8F0" stop-opacity="0"/>
<stop offset="1" stop-color="#3AC8F0" stop-opacity="0"/>
<stop offset="1" stop-color="#3AC8F0" stop-opacity="0"/>
</linearGradient>
<linearGradient id="paint1_linear_143_120" x1="51.1233" y1="20" x2="51.1233" y2="90" gradientUnits="userSpaceOnUse">
<stop stop-color="#3AC8F0"/>
<stop offset="0.0001" stop-color="#45D5EE"/>
<stop offset="0.442708" stop-color="#2498F7"/>
<stop offset="0.9999" stop-color="#005FFC"/>
<stop offset="1" stop-color="#3AC8F0" stop-opacity="0"/>
<stop offset="1" stop-color="#3AC8F0" stop-opacity="0"/>
<stop offset="1" stop-color="#3AC8F0" stop-opacity="0"/>
</linearGradient>
</defs>
</svg>
