<svg width="145" height="114" viewBox="0 0 145 114" fill="none" xmlns="http://www.w3.org/2000/svg">
<path d="M135.78 88.7236C128.905 92.3072 93.2901 106.951 85.7079 110.904C78.1257 114.857 73.9137 114.819 67.9237 111.955C61.9342 109.092 24.0338 93.7826 17.2064 90.5192C13.7945 88.8887 12 87.5119 12 86.2115V73.1899C12 73.1899 61.3419 62.4484 69.3076 59.5905C77.2728 56.7327 80.0365 56.6295 86.815 59.1124C93.5946 61.5964 134.128 68.9094 140.827 71.3631L140.824 84.2006C140.825 85.4879 139.28 86.8999 135.78 88.7236Z" fill="url(#paint0_linear_107_1056)"/>
<path d="M135.778 75.779C128.904 79.361 93.2899 94.0051 85.7077 97.9575C78.126 101.911 73.9139 101.873 67.9244 99.0092C61.9345 96.1479 24.0355 80.836 17.2087 77.5746C10.3818 74.3111 10.2389 72.0652 16.945 69.4393C23.6511 66.8124 61.3422 52.025 69.3088 49.1671C77.274 46.3102 80.0372 46.2061 86.8158 48.69C93.5948 51.173 128.996 65.264 135.695 67.7172C142.396 70.1735 142.653 72.196 135.778 75.779Z" fill="url(#paint1_linear_107_1056)"/>
<g filter="url(#filter0_dii_107_1056)">
<path d="M135.78 67.6538C128.905 71.2379 93.2901 85.8809 85.7079 89.8353C78.1257 93.7872 73.9137 93.749 67.9237 90.8856C61.9337 88.0237 24.0338 72.7128 17.2064 69.4494C13.7945 67.8189 12 66.4441 12 65.1432V52.1201C12 52.1201 61.3419 41.3791 69.3076 38.5212C77.2728 35.6634 80.0365 35.5597 86.815 38.0432C93.5951 40.5266 134.128 47.8381 140.827 50.2923L140.824 63.1313C140.825 64.4181 139.28 65.8301 135.78 67.6538Z" fill="url(#paint2_linear_107_1056)"/>
</g>
<g filter="url(#filter1_dii_107_1056)">
<path d="M135.778 54.7092C128.904 58.2922 93.2899 72.9353 85.7077 76.8892C78.126 80.8416 73.9139 80.8028 67.9244 77.9394C61.9345 75.078 24.0355 59.7667 17.2087 56.5048C10.3818 53.2423 10.2389 50.9959 16.945 48.369C23.6511 45.7436 61.3427 30.9552 69.3088 28.0978C77.274 25.2404 80.0372 25.1368 86.8158 27.6202C93.5948 30.1032 128.996 44.1932 135.695 46.6474C142.396 49.1032 142.653 51.1262 135.778 54.7092Z" fill="white" fill-opacity="0.4" shape-rendering="crispEdges"/>
</g>
<path d="M135.78 45.8031C128.905 49.3861 93.2901 64.0302 85.7079 67.9846C78.1257 71.9369 73.9137 71.8982 67.9237 69.0348C61.9337 66.1729 24.0338 50.8616 17.2064 47.5996C13.7945 45.9676 12 44.5923 12 43.293V30.2693C12 30.2693 61.3419 19.5288 69.3076 16.6715C77.2728 13.8131 80.0365 13.7105 86.815 16.1934C93.5951 18.6769 134.128 25.9883 140.827 28.4426L140.824 41.281C140.825 42.5668 139.28 43.9789 135.78 45.8031Z" fill="url(#paint3_linear_107_1056)"/>
<path d="M135.778 32.8583C128.903 36.4414 93.2895 51.0854 85.7073 55.0378C78.1256 58.9902 73.9135 58.9514 67.9241 56.0896C61.9346 53.2262 24.0352 37.9158 17.2088 34.6534C10.3815 31.3914 10.2391 29.1445 16.9446 26.5181C23.6507 23.8923 61.3423 9.10578 69.3085 6.24742C77.2736 3.38957 80.0369 3.28691 86.8154 5.77036C93.5945 8.25381 128.996 22.3438 135.694 24.7981C142.395 27.2518 142.653 29.2753 135.778 32.8583Z" fill="url(#paint4_linear_107_1056)"/>
<g filter="url(#filter2_dii_107_1056)">
<path d="M92.1569 20.1905L81.0808 21.3404L78.6013 27.3067L74.5966 20.6489L61.807 19.4995L71.3503 16.0579L68.4869 10.775L77.4218 14.2694L85.8449 11.5117L83.5683 16.9743L92.1569 20.1905ZM77.9401 49.1354L57.2688 40.5618L86.8891 36.0151L77.9401 49.1354ZM49.281 23.5068C58.0247 23.5068 65.1127 26.2544 65.1127 29.6432C65.1127 33.033 58.0247 35.7801 49.281 35.7801C40.5374 35.7801 33.4493 33.0325 33.4493 29.6432C33.4493 26.2544 40.5374 23.5068 49.281 23.5068Z" fill="url(#paint5_linear_107_1056)"/>
</g>
<path d="M105.247 21.8215L122.777 28.749L105.262 35.67L105.247 21.821" fill="url(#paint6_linear_107_1056)"/>
<path d="M85.8518 29.4932L105.246 21.8215L105.261 35.6699L103.36 36.4137L85.8518 29.4932Z" fill="url(#paint7_linear_107_1056)"/>
<defs>
<filter id="filter0_dii_107_1056" x="0" y="20.2733" width="144.828" height="78.657" filterUnits="userSpaceOnUse" color-interpolation-filters="sRGB">
<feFlood flood-opacity="0" result="BackgroundImageFix"/>
<feColorMatrix in="SourceAlpha" type="matrix" values="0 0 0 0 0 0 0 0 0 0 0 0 0 0 0 0 0 0 127 0" result="hardAlpha"/>
<feOffset dx="-4" dy="-2"/>
<feGaussianBlur stdDeviation="4"/>
<feComposite in2="hardAlpha" operator="out"/>
<feColorMatrix type="matrix" values="0 0 0 0 0.920833 0 0 0 0 0.0498785 0 0 0 0 0.0498785 0 0 0 0.31 0"/>
<feBlend mode="normal" in2="BackgroundImageFix" result="effect1_dropShadow_107_1056"/>
<feBlend mode="normal" in="SourceGraphic" in2="effect1_dropShadow_107_1056" result="shape"/>
<feColorMatrix in="SourceAlpha" type="matrix" values="0 0 0 0 0 0 0 0 0 0 0 0 0 0 0 0 0 0 127 0" result="hardAlpha"/>
<feOffset dy="2"/>
<feGaussianBlur stdDeviation="1.5"/>
<feComposite in2="hardAlpha" operator="arithmetic" k2="-1" k3="1"/>
<feColorMatrix type="matrix" values="0 0 0 0 1 0 0 0 0 1 0 0 0 0 1 0 0 0 0.41 0"/>
<feBlend mode="normal" in2="shape" result="effect2_innerShadow_107_1056"/>
<feColorMatrix in="SourceAlpha" type="matrix" values="0 0 0 0 0 0 0 0 0 0 0 0 0 0 0 0 0 0 127 0" result="hardAlpha"/>
<feOffset dy="-16"/>
<feGaussianBlur stdDeviation="8"/>
<feComposite in2="hardAlpha" operator="arithmetic" k2="-1" k3="1"/>
<feColorMatrix type="matrix" values="0 0 0 0 1 0 0 0 0 1 0 0 0 0 1 0 0 0 0.4 0"/>
<feBlend mode="normal" in2="effect2_innerShadow_107_1056" result="effect3_innerShadow_107_1056"/>
</filter>
<filter id="filter1_dii_107_1056" x="0.000854492" y="9.85028" width="144.827" height="76.1341" filterUnits="userSpaceOnUse" color-interpolation-filters="sRGB">
<feFlood flood-opacity="0" result="BackgroundImageFix"/>
<feColorMatrix in="SourceAlpha" type="matrix" values="0 0 0 0 0 0 0 0 0 0 0 0 0 0 0 0 0 0 127 0" result="hardAlpha"/>
<feOffset dx="-4" dy="-2"/>
<feGaussianBlur stdDeviation="4"/>
<feComposite in2="hardAlpha" operator="out"/>
<feColorMatrix type="matrix" values="0 0 0 0 0.920833 0 0 0 0 0.0498785 0 0 0 0 0.0498785 0 0 0 0.31 0"/>
<feBlend mode="normal" in2="BackgroundImageFix" result="effect1_dropShadow_107_1056"/>
<feBlend mode="normal" in="SourceGraphic" in2="effect1_dropShadow_107_1056" result="shape"/>
<feColorMatrix in="SourceAlpha" type="matrix" values="0 0 0 0 0 0 0 0 0 0 0 0 0 0 0 0 0 0 127 0" result="hardAlpha"/>
<feOffset dy="2"/>
<feGaussianBlur stdDeviation="1.5"/>
<feComposite in2="hardAlpha" operator="arithmetic" k2="-1" k3="1"/>
<feColorMatrix type="matrix" values="0 0 0 0 1 0 0 0 0 1 0 0 0 0 1 0 0 0 0.41 0"/>
<feBlend mode="normal" in2="shape" result="effect2_innerShadow_107_1056"/>
<feColorMatrix in="SourceAlpha" type="matrix" values="0 0 0 0 0 0 0 0 0 0 0 0 0 0 0 0 0 0 127 0" result="hardAlpha"/>
<feOffset dy="-16"/>
<feGaussianBlur stdDeviation="8"/>
<feComposite in2="hardAlpha" operator="arithmetic" k2="-1" k3="1"/>
<feColorMatrix type="matrix" values="0 0 0 0 1 0 0 0 0 1 0 0 0 0 1 0 0 0 0.4 0"/>
<feBlend mode="normal" in2="effect2_innerShadow_107_1056" result="effect3_innerShadow_107_1056"/>
</filter>
<filter id="filter2_dii_107_1056" x="21.4493" y="-5.22501" width="74.7075" height="60.3604" filterUnits="userSpaceOnUse" color-interpolation-filters="sRGB">
<feFlood flood-opacity="0" result="BackgroundImageFix"/>
<feColorMatrix in="SourceAlpha" type="matrix" values="0 0 0 0 0 0 0 0 0 0 0 0 0 0 0 0 0 0 127 0" result="hardAlpha"/>
<feOffset dx="-4" dy="-2"/>
<feGaussianBlur stdDeviation="4"/>
<feComposite in2="hardAlpha" operator="out"/>
<feColorMatrix type="matrix" values="0 0 0 0 0.920833 0 0 0 0 0.0498785 0 0 0 0 0.0498785 0 0 0 0.31 0"/>
<feBlend mode="normal" in2="BackgroundImageFix" result="effect1_dropShadow_107_1056"/>
<feBlend mode="normal" in="SourceGraphic" in2="effect1_dropShadow_107_1056" result="shape"/>
<feColorMatrix in="SourceAlpha" type="matrix" values="0 0 0 0 0 0 0 0 0 0 0 0 0 0 0 0 0 0 127 0" result="hardAlpha"/>
<feOffset dy="2"/>
<feGaussianBlur stdDeviation="1.5"/>
<feComposite in2="hardAlpha" operator="arithmetic" k2="-1" k3="1"/>
<feColorMatrix type="matrix" values="0 0 0 0 1 0 0 0 0 1 0 0 0 0 1 0 0 0 0.41 0"/>
<feBlend mode="normal" in2="shape" result="effect2_innerShadow_107_1056"/>
<feColorMatrix in="SourceAlpha" type="matrix" values="0 0 0 0 0 0 0 0 0 0 0 0 0 0 0 0 0 0 127 0" result="hardAlpha"/>
<feOffset dy="-16"/>
<feGaussianBlur stdDeviation="8"/>
<feComposite in2="hardAlpha" operator="arithmetic" k2="-1" k3="1"/>
<feColorMatrix type="matrix" values="0 0 0 0 1 0 0 0 0 1 0 0 0 0 1 0 0 0 0.4 0"/>
<feBlend mode="normal" in2="effect2_innerShadow_107_1056" result="effect3_innerShadow_107_1056"/>
</filter>
<linearGradient id="paint0_linear_107_1056" x1="76.4137" y1="57.3427" x2="76.4137" y2="114" gradientUnits="userSpaceOnUse">
<stop stop-color="#F98787"/>
<stop offset="0.984375" stop-color="#D60303"/>
</linearGradient>
<linearGradient id="paint1_linear_107_1056" x1="76.4145" y1="46.9198" x2="76.4145" y2="101.054" gradientUnits="userSpaceOnUse">
<stop stop-color="#F98787"/>
<stop offset="0.984375" stop-color="#D60303"/>
</linearGradient>
<linearGradient id="paint2_linear_107_1056" x1="76.4137" y1="36.2733" x2="76.4137" y2="92.9303" gradientUnits="userSpaceOnUse">
<stop stop-color="#F98787"/>
<stop offset="0.984375" stop-color="#D60303"/>
</linearGradient>
<linearGradient id="paint3_linear_107_1056" x1="76.4137" y1="14.4235" x2="76.4137" y2="71.0797" gradientUnits="userSpaceOnUse">
<stop stop-color="#F98787"/>
<stop offset="0.984375" stop-color="#D60303"/>
</linearGradient>
<linearGradient id="paint4_linear_107_1056" x1="76.4143" y1="4" x2="76.4143" y2="58.1332" gradientUnits="userSpaceOnUse">
<stop stop-color="#F98787"/>
<stop offset="0.984375" stop-color="#D60303"/>
</linearGradient>
<linearGradient id="paint5_linear_107_1056" x1="62.8031" y1="10.775" x2="62.8031" y2="49.1354" gradientUnits="userSpaceOnUse">
<stop stop-color="#F98787"/>
<stop offset="0.984375" stop-color="#D60303"/>
</linearGradient>
<linearGradient id="paint6_linear_107_1056" x1="114.012" y1="21.821" x2="114.012" y2="35.67" gradientUnits="userSpaceOnUse">
<stop stop-color="#F98787"/>
<stop offset="0.984375" stop-color="#D60303"/>
</linearGradient>
<linearGradient id="paint7_linear_107_1056" x1="95.5566" y1="21.8215" x2="95.5566" y2="36.4137" gradientUnits="userSpaceOnUse">
<stop stop-color="#F98787"/>
<stop offset="0.984375" stop-color="#D60303"/>
</linearGradient>
</defs>
</svg>
