<svg width="87" height="106" viewBox="0 0 87 106" fill="none" xmlns="http://www.w3.org/2000/svg">
<path d="M47.7202 0C73.4445 0 86.2281 12.2437 86.2281 31.8013C86.2281 46.4298 77.2324 55.9698 65.0803 57.5599C75.3384 59.6271 81.3353 65.5105 82.4405 77.1179L82.6001 79.2524L82.7399 81.2477L82.8605 83.1144L82.9444 84.5221L83.0343 86.1826L83.0808 87.1304L83.1475 88.6361L83.201 90.0582L83.2276 90.8757L83.2637 92.1852L83.2947 93.6828L83.3058 94.4063L83.326 96.5034L83.3327 98.6914V100H56.8048L56.8061 99.4543L56.8156 98.3943L56.8314 97.362L56.8772 94.8614L56.889 94.023L56.8981 92.7087L56.8967 91.8679L56.889 90.9865L56.8782 90.2946L56.8567 89.3259L56.825 88.2986L56.7829 87.2066L56.729 86.0428L56.6967 85.4322L56.6428 84.4779L56.5801 83.4755L56.4834 82.0595L56.4003 80.9338C56.3769 80.5944 56.3492 80.2553 56.3171 79.9166L56.249 79.2652C55.3733 71.5764 52.3233 68.4338 47.0997 67.3856L46.6595 67.303C46.357 67.2503 46.0533 67.2045 45.7487 67.1656L45.2782 67.1104C45.1987 67.102 45.1192 67.0935 45.039 67.0858L44.5533 67.043L44.0578 67.0083L43.5519 66.981L43.042 66.9615L42.5219 66.9484L41.9917 66.9423L0 66.9413V46.1118H42.9861C43.6887 46.1118 44.3697 46.0983 45.0293 46.0714L45.6814 46.0394L46.319 45.9983L46.9421 45.9478C47.0448 45.9384 47.1469 45.9289 47.2483 45.9188L47.8495 45.8538C48.237 45.8083 48.6235 45.7549 49.0089 45.6938L49.567 45.5995C56.5424 44.3347 60.0299 40.6316 60.0299 33.4063C60.0299 25.2972 54.3486 20.3825 42.9857 20.3825H0V0H47.7202ZM28.0497 84.4715C31.5302 84.4715 32.9866 86.4043 33.5053 88.2541L33.5737 88.5202L33.63 88.7836L33.6667 88.9914L33.6822 89.0945L33.7085 89.2976L33.728 89.4963L33.7357 89.594L33.7462 89.7857L33.7495 89.8793L33.7522 90.0612V100H0V84.4715H28.0497Z" fill="url(#paint0_linear_143_123)"/>
<g filter="url(#filter0_dii_143_123)">
<path d="M56.4953 34C73.4733 34 81.9105 42.0809 81.9105 54.9889C81.9105 64.6437 75.9734 70.9401 67.953 71.9896C74.7234 73.3539 78.6813 77.2369 79.4107 84.8978L79.5161 86.3066L79.6083 87.6235L79.6879 88.8555L79.7433 89.7846L79.8026 90.8805L79.8333 91.5061L79.8773 92.4998L79.9127 93.4384L79.9302 93.9779L79.954 94.8423L79.9745 95.8306L79.9818 96.3082L79.9951 97.6922L79.9996 99.1363V100H62.4911L62.492 99.6399L62.4983 98.9403L62.5087 98.2589L62.5389 96.6085L62.5467 96.0552L62.5527 95.1877L62.5518 94.6328L62.5467 94.0511L62.5396 93.5945L62.5254 92.9551L62.5045 92.2771L62.4767 91.5563L62.4411 90.7883L62.4198 90.3852L62.3842 89.7554L62.3429 89.0939L62.2791 88.1593L62.2242 87.4163C62.2088 87.1923 62.1905 86.9685 62.1692 86.745L62.1243 86.315C61.5463 81.2404 59.5334 79.1663 56.0858 78.4745L55.7953 78.42C55.5956 78.3852 55.3952 78.355 55.1942 78.3293L54.8836 78.2929C54.8311 78.2873 54.7787 78.2817 54.7257 78.2766L54.4052 78.2484L54.0782 78.2255L53.7443 78.2075L53.4077 78.1946L53.0644 78.1859L52.7145 78.1819L25 78.1813V64.4338H53.3708C53.8345 64.4338 54.284 64.4249 54.7193 64.4071L55.1497 64.386L55.5705 64.3589L55.9818 64.3255C56.0496 64.3193 56.1169 64.3131 56.1839 64.3064L56.5807 64.2635C56.8364 64.2335 57.0915 64.1982 57.3459 64.1579L57.7142 64.0957C62.318 63.2609 64.6197 60.8169 64.6197 56.0482C64.6197 50.6961 60.8701 47.4525 53.3706 47.4525H25V34H56.4953Z" fill="url(#paint1_linear_143_123)"/>
</g>
<defs>
<filter id="filter0_dii_143_123" x="13" y="18" width="72.9105" height="88" filterUnits="userSpaceOnUse" color-interpolation-filters="sRGB">
<feFlood flood-opacity="0" result="BackgroundImageFix"/>
<feColorMatrix in="SourceAlpha" type="matrix" values="0 0 0 0 0 0 0 0 0 0 0 0 0 0 0 0 0 0 127 0" result="hardAlpha"/>
<feOffset dx="-4" dy="-2"/>
<feGaussianBlur stdDeviation="4"/>
<feComposite in2="hardAlpha" operator="out"/>
<feColorMatrix type="matrix" values="0 0 0 0 0.0698785 0 0 0 0 0.634776 0 0 0 0 0.670833 0 0 0 0.52 0"/>
<feBlend mode="normal" in2="BackgroundImageFix" result="effect1_dropShadow_143_123"/>
<feBlend mode="normal" in="SourceGraphic" in2="effect1_dropShadow_143_123" result="shape"/>
<feColorMatrix in="SourceAlpha" type="matrix" values="0 0 0 0 0 0 0 0 0 0 0 0 0 0 0 0 0 0 127 0" result="hardAlpha"/>
<feOffset dy="-16"/>
<feGaussianBlur stdDeviation="8"/>
<feComposite in2="hardAlpha" operator="arithmetic" k2="-1" k3="1"/>
<feColorMatrix type="matrix" values="0 0 0 0 1 0 0 0 0 1 0 0 0 0 1 0 0 0 0.58 0"/>
<feBlend mode="normal" in2="shape" result="effect2_innerShadow_143_123"/>
<feColorMatrix in="SourceAlpha" type="matrix" values="0 0 0 0 0 0 0 0 0 0 0 0 0 0 0 0 0 0 127 0" result="hardAlpha"/>
<feOffset dy="2"/>
<feGaussianBlur stdDeviation="1.5"/>
<feComposite in2="hardAlpha" operator="arithmetic" k2="-1" k3="1"/>
<feColorMatrix type="matrix" values="0 0 0 0 1 0 0 0 0 1 0 0 0 0 1 0 0 0 0.41 0"/>
<feBlend mode="normal" in2="effect2_innerShadow_143_123" result="effect3_innerShadow_143_123"/>
</filter>
<linearGradient id="paint0_linear_143_123" x1="43.114" y1="0" x2="43.114" y2="100" gradientUnits="userSpaceOnUse">
<stop stop-color="#8EF7FE"/>
<stop offset="0.984375" stop-color="#06B7B7"/>
</linearGradient>
<linearGradient id="paint1_linear_143_123" x1="53.4553" y1="34" x2="53.4553" y2="100" gradientUnits="userSpaceOnUse">
<stop stop-color="#8EF7FE"/>
<stop offset="0.984375" stop-color="#06B7B7"/>
</linearGradient>
</defs>
</svg>
