<svg width="127" height="114" viewBox="0 0 127 114" fill="none" xmlns="http://www.w3.org/2000/svg">
<path d="M39.3774 8.64727C25.0564 1.48365 12.4305 4.15572 6.05374 6.45238C3.95919 7.2085 3.31206 9.87145 4.86173 11.471C9.35903 16.1277 16.7997 25.3312 14.9706 33.7003C7.85545 40.9877 4 49.7697 4 58.9136C4 68.2318 7.85593 77.0137 14.9658 84.2959C16.7949 92.6655 9.35423 101.873 4.85693 106.53C3.31206 108.129 3.95439 110.788 6.04942 111.544C12.4262 113.845 25.0468 116.517 39.3731 109.353C43.2385 107.203 46.8089 104.561 49.9951 101.493C55.0195 102.4 60.1952 102.859 65.4491 102.859C81.1781 102.859 96.0863 98.7422 107.428 91.2627C113.301 87.3852 117.972 82.7923 121.305 77.5951C125.018 71.8107 126.898 65.5822 126.898 59.0917C126.902 52.4182 125.018 46.1984 121.31 40.4102C117.977 35.2173 113.305 30.6201 107.433 26.7426C96.0863 19.2626 81.1781 15.1417 65.4539 15.1417C60.2 15.1417 55.0243 15.6001 49.9994 16.508C46.8133 13.4398 43.2429 10.7975 39.3774 8.64727Z" fill="url(#paint0_linear_116_321)"/>
<g filter="url(#filter0_dii_116_321)">
<path d="M14.2737 13.0993C19.7809 11.1158 30.6851 8.80812 43.0532 14.9949C46.3916 16.8519 49.4751 19.1339 52.2268 21.7837C56.5665 20.9996 61.0363 20.6037 65.5738 20.6037C79.1538 20.6037 92.029 24.1627 101.828 30.6227C106.9 33.9714 110.934 37.9417 113.813 42.4265C117.016 47.4254 118.643 52.7971 118.639 58.5605C118.639 64.166 117.016 69.5451 113.809 74.5407C110.931 79.0292 106.896 82.9958 101.825 86.3446C92.029 92.8041 79.1538 96.3594 65.5697 96.3594C61.0322 96.3594 56.5623 95.963 52.2231 95.1794C49.4713 97.8291 46.3878 100.111 43.0495 101.968C30.6768 108.155 19.7772 105.847 14.27 103.86C12.4606 103.207 11.9059 100.911 13.2401 99.5299C17.1241 95.5082 23.5501 87.556 21.9704 80.3278C15.8301 74.0386 12.5 66.4542 12.5 58.4067C12.5 50.5097 15.8297 42.9253 21.9746 36.6316C23.5542 29.4037 17.1283 21.4553 13.2442 17.4336C11.9059 16.0521 12.4648 13.7523 14.2737 13.0993ZM65.0195 31.189C41.1924 31.189 21.8755 43.6894 21.8755 59.1074C21.8755 65.8244 25.5415 71.9917 31.6548 76.809C33.3771 82.2997 32.368 88.4902 28.6299 95.3776C28.4516 95.7105 28.2857 96.0426 28.1033 96.3714C31.3103 96.1061 34.5529 95.2234 37.835 93.6126C40.3345 92.2022 42.6465 90.4826 44.7162 88.4943L48.446 84.8959C53.5494 86.2695 59.1478 87.0295 65.0195 87.0295C88.8461 87.0295 108.163 74.5332 108.167 59.1074C108.167 43.6894 88.8461 31.189 65.0195 31.189ZM44.3758 52.6909C47.8875 52.6909 50.7342 55.5252 50.7342 59.0203C50.7342 62.5155 47.8875 65.3501 44.3758 65.3501C40.8641 65.3501 38.0174 62.5159 38.0174 59.0203C38.0174 55.5252 40.8641 52.6913 44.3758 52.6913V52.6909ZM64.8449 52.6909C68.3566 52.6909 71.2038 55.5252 71.2038 59.0203C71.2038 62.5155 68.3566 65.3501 64.8453 65.3501C61.3336 65.3501 58.4865 62.5159 58.4865 59.0203C58.4865 55.5252 61.3332 52.6913 64.8453 52.6913L64.8449 52.6909ZM85.3141 52.6909C88.8216 52.6909 91.6725 55.5252 91.6725 59.0203C91.6725 62.5155 88.8258 65.3501 85.3145 65.3501C81.8028 65.3501 78.9557 62.5159 78.9557 59.0203C78.9557 55.5252 81.8023 52.6913 85.3145 52.6913L85.3141 52.6909Z" fill="url(#paint1_linear_116_321)"/>
<path d="M113.813 42.4265C117.016 47.4254 118.643 52.7971 118.639 58.5605C118.639 64.166 117.016 69.5451 113.809 74.5407L113.813 42.4265ZM113.813 42.4265L113.392 42.6963C113.392 42.6964 113.392 42.6965 113.392 42.6966L113.813 42.4265ZM28.3847 95.8443C28.3972 95.8204 28.4097 95.7965 28.4221 95.7725C28.4906 95.6411 28.5593 95.5094 28.6299 95.3776C32.368 88.4902 33.3771 82.2997 31.6548 76.809L31.1778 76.9587C31.193 77.0073 31.208 77.056 31.2229 77.1048M28.3847 95.8443L31.2229 77.1048M28.3847 95.8443C28.2771 95.8546 28.1696 95.8642 28.0621 95.8731L28.1033 96.3714M28.3847 95.8443L28.1033 96.3714M31.2229 77.1048C25.0999 72.2362 21.3755 65.9744 21.3755 59.1074C21.3755 51.1721 26.3459 44.0555 34.2407 38.9467C42.1405 33.8347 53.0239 30.689 65.0195 30.689C77.0148 30.689 87.899 33.8347 95.7997 38.9467C103.695 44.0554 108.667 51.1721 108.667 59.1074V59.1075C108.665 67.0466 103.694 74.1642 95.7983 79.2729C87.8981 84.3849 77.0148 87.5295 65.0195 87.5295C59.2098 87.5295 53.6628 86.7909 48.59 85.4518L45.0633 88.8541L45.0626 88.8549C42.9626 90.8722 40.6168 92.617 38.0807 94.0481L38.0682 94.0551L38.0552 94.0615C34.7198 95.6985 31.4166 96.599 28.1445 96.8697L27.2122 96.9469L27.6661 96.1288C27.7746 95.9333 27.8721 95.7461 27.9732 95.5521C28.0419 95.42 28.1124 95.2848 28.1891 95.1416L28.1904 95.1391C31.8542 88.3885 32.8288 82.3895 31.2229 77.1048ZM28.1033 96.3714L28.5405 96.614C28.5948 96.5162 28.6488 96.4158 28.7024 96.3147M28.1033 96.3714L28.7024 96.3147M28.7024 96.3147C31.714 95.9934 34.7572 95.1231 37.835 93.6126C40.3345 92.2022 42.6465 90.4826 44.7162 88.4943L28.7024 96.3147ZM101.553 31.0401L101.828 30.6227L101.553 31.0399C101.553 31.04 101.553 31.04 101.553 31.0401ZM42.8101 15.4318C42.8133 15.4336 42.8165 15.4354 42.8197 15.4372C42.823 15.4388 42.8263 15.4404 42.8295 15.4421L43.0532 14.9949L42.8101 15.4318ZM14.4435 13.5696L14.2737 13.0993L14.4431 13.5697C14.4432 13.5697 14.4432 13.5697 14.4433 13.5697C14.4433 13.5696 14.4434 13.5696 14.4435 13.5696ZM42.8258 101.521C42.8226 101.523 42.8193 101.524 42.816 101.526C42.8128 101.528 42.8096 101.529 42.8064 101.531L43.0495 101.968L42.8258 101.521ZM101.825 86.3446L101.549 85.9272C101.549 85.9272 101.549 85.9273 101.549 85.9273L101.825 86.3446ZM44.3758 53.1913H44.4462C47.6514 53.2289 50.2342 55.8268 50.2342 59.0203C50.2342 62.2372 47.6135 64.8501 44.3758 64.8501C41.1381 64.8501 38.5174 62.2376 38.5174 59.0203C38.5174 55.8035 41.138 53.1913 44.3758 53.1913ZM64.8453 53.1913H64.9153C68.1206 53.2289 70.7038 55.8268 70.7038 59.0203C70.7038 62.2372 68.0826 64.8501 64.8453 64.8501C61.6076 64.8501 58.9865 62.2376 58.9865 59.0203C58.9865 55.8035 61.6072 53.1913 64.8453 53.1913ZM85.3145 53.1913H85.3844C88.5858 53.2289 91.1725 55.827 91.1725 59.0203C91.1725 62.2373 88.5517 64.8501 85.3145 64.8501C82.0767 64.8501 79.4557 62.2376 79.4557 59.0203C79.4557 55.8035 82.0763 53.1913 85.3145 53.1913Z" stroke="white" stroke-opacity="0.4"/>
</g>
<defs>
<filter id="filter0_dii_116_321" x="0.5" y="-5.01868" width="122.139" height="117" filterUnits="userSpaceOnUse" color-interpolation-filters="sRGB">
<feFlood flood-opacity="0" result="BackgroundImageFix"/>
<feColorMatrix in="SourceAlpha" type="matrix" values="0 0 0 0 0 0 0 0 0 0 0 0 0 0 0 0 0 0 127 0" result="hardAlpha"/>
<feOffset dx="-4" dy="-2"/>
<feGaussianBlur stdDeviation="4"/>
<feComposite in2="hardAlpha" operator="out"/>
<feColorMatrix type="matrix" values="0 0 0 0 0.920833 0 0 0 0 0.0498785 0 0 0 0 0.0498785 0 0 0 0.31 0"/>
<feBlend mode="normal" in2="BackgroundImageFix" result="effect1_dropShadow_116_321"/>
<feBlend mode="normal" in="SourceGraphic" in2="effect1_dropShadow_116_321" result="shape"/>
<feColorMatrix in="SourceAlpha" type="matrix" values="0 0 0 0 0 0 0 0 0 0 0 0 0 0 0 0 0 0 127 0" result="hardAlpha"/>
<feOffset dy="2"/>
<feGaussianBlur stdDeviation="1.5"/>
<feComposite in2="hardAlpha" operator="arithmetic" k2="-1" k3="1"/>
<feColorMatrix type="matrix" values="0 0 0 0 1 0 0 0 0 1 0 0 0 0 1 0 0 0 0.41 0"/>
<feBlend mode="normal" in2="shape" result="effect2_innerShadow_116_321"/>
<feColorMatrix in="SourceAlpha" type="matrix" values="0 0 0 0 0 0 0 0 0 0 0 0 0 0 0 0 0 0 127 0" result="hardAlpha"/>
<feOffset dy="-16"/>
<feGaussianBlur stdDeviation="8"/>
<feComposite in2="hardAlpha" operator="arithmetic" k2="-1" k3="1"/>
<feColorMatrix type="matrix" values="0 0 0 0 1 0 0 0 0 1 0 0 0 0 1 0 0 0 0.4 0"/>
<feBlend mode="normal" in2="effect2_innerShadow_116_321" result="effect3_innerShadow_116_321"/>
</filter>
<linearGradient id="paint0_linear_116_321" x1="65.4491" y1="4" x2="65.4491" y2="114" gradientUnits="userSpaceOnUse">
<stop stop-color="#F98787"/>
<stop offset="0.984375" stop-color="#D60303"/>
</linearGradient>
<linearGradient id="paint1_linear_116_321" x1="65.5697" y1="10.9813" x2="65.5697" y2="105.981" gradientUnits="userSpaceOnUse">
<stop stop-color="#F98787"/>
<stop offset="0.984375" stop-color="#D60303"/>
</linearGradient>
</defs>
</svg>
