<svg width="154" height="89" viewBox="0 0 154 89" fill="none" xmlns="http://www.w3.org/2000/svg">
<path d="M98.6144 35.4641L137.966 14.7161C139.302 13.9362 141.143 15.4043 140.5 16.9354L120.349 68.6104L98.6144 35.4641ZM49.5487 34.1508L69.4652 4.40521C70.6293 2.52425 72.7798 2.59306 74.0128 4.24464L119.236 71.6268L49.5487 34.1508ZM30.1943 75.7271C28.5886 75.7271 25.4059 74.0984 24.4998 71.6211L3.16688 17.3713C2.49019 15.4731 3.96399 13.8502 5.91951 14.7104L117.596 73.8117C116.742 74.6547 114.998 75.7443 113.467 75.7271H30.1943Z" fill="url(#paint0_linear_117_1322)"/>
<g filter="url(#filter0_dii_117_1322)">
<path d="M107.705 42.7368L147.057 21.9888C148.393 21.2089 150.234 22.677 149.591 24.2081L129.44 75.8831L107.705 42.7368ZM58.6397 41.4236L78.5561 11.6779C79.7203 9.79695 81.8708 9.86577 83.1037 11.5173L128.327 78.8995L58.6397 41.4236ZM39.2852 82.9998C37.6795 82.9998 34.4968 81.3711 33.5907 78.8938L12.2578 24.644C11.5811 22.7458 13.0549 21.1229 15.0105 21.9831L126.687 81.0844C125.833 81.9274 124.089 83.017 122.558 82.9998H39.2852Z" fill="url(#paint1_linear_117_1322)"/>
</g>
<defs>
<filter id="filter0_dii_117_1322" x="0.0909424" y="-5.72729" width="153.632" height="94.7273" filterUnits="userSpaceOnUse" color-interpolation-filters="sRGB">
<feFlood flood-opacity="0" result="BackgroundImageFix"/>
<feColorMatrix in="SourceAlpha" type="matrix" values="0 0 0 0 0 0 0 0 0 0 0 0 0 0 0 0 0 0 127 0" result="hardAlpha"/>
<feOffset dx="-4" dy="-2"/>
<feGaussianBlur stdDeviation="4"/>
<feComposite in2="hardAlpha" operator="out"/>
<feColorMatrix type="matrix" values="0 0 0 0 0.920833 0 0 0 0 0.0498785 0 0 0 0 0.0498785 0 0 0 0.31 0"/>
<feBlend mode="normal" in2="BackgroundImageFix" result="effect1_dropShadow_117_1322"/>
<feBlend mode="normal" in="SourceGraphic" in2="effect1_dropShadow_117_1322" result="shape"/>
<feColorMatrix in="SourceAlpha" type="matrix" values="0 0 0 0 0 0 0 0 0 0 0 0 0 0 0 0 0 0 127 0" result="hardAlpha"/>
<feOffset dy="2"/>
<feGaussianBlur stdDeviation="1.5"/>
<feComposite in2="hardAlpha" operator="arithmetic" k2="-1" k3="1"/>
<feColorMatrix type="matrix" values="0 0 0 0 1 0 0 0 0 1 0 0 0 0 1 0 0 0 0.41 0"/>
<feBlend mode="normal" in2="shape" result="effect2_innerShadow_117_1322"/>
<feColorMatrix in="SourceAlpha" type="matrix" values="0 0 0 0 0 0 0 0 0 0 0 0 0 0 0 0 0 0 127 0" result="hardAlpha"/>
<feOffset dy="-16"/>
<feGaussianBlur stdDeviation="8"/>
<feComposite in2="hardAlpha" operator="arithmetic" k2="-1" k3="1"/>
<feColorMatrix type="matrix" values="0 0 0 0 1 0 0 0 0 1 0 0 0 0 1 0 0 0 0.4 0"/>
<feBlend mode="normal" in2="effect2_innerShadow_117_1322" result="effect3_innerShadow_117_1322"/>
</filter>
<linearGradient id="paint0_linear_117_1322" x1="71.8161" y1="3" x2="71.8161" y2="75.7273" gradientUnits="userSpaceOnUse">
<stop stop-color="#F98787"/>
<stop offset="0.984375" stop-color="#D60303"/>
</linearGradient>
<linearGradient id="paint1_linear_117_1322" x1="80.9071" y1="10.2727" x2="80.9071" y2="83" gradientUnits="userSpaceOnUse">
<stop stop-color="#F98787"/>
<stop offset="0.984375" stop-color="#D60303"/>
</linearGradient>
</defs>
</svg>
