<svg width="92" height="113" viewBox="0 0 92 113" fill="none" xmlns="http://www.w3.org/2000/svg">
<path d="M86.2653 18.3712C81.3481 11.3612 74.0985 6.50049 65.9249 4.73335C57.7512 2.96621 49.2372 4.41883 42.0367 8.80901L16.8452 24.9954C13.4685 27.1096 10.56 29.9413 8.31011 33.3049C6.06027 36.6685 4.51992 40.4881 3.79003 44.5134C2.59236 51.2462 3.65127 58.2021 6.79035 64.2223C4.63913 67.5089 3.16911 71.2243 2.47363 75.1327C1.75772 79.2128 1.85428 83.4021 2.75734 87.442C3.6604 91.4819 5.3508 95.2866 7.72421 98.6213C12.6415 105.632 19.8906 110.494 28.0643 112.264C36.238 114.034 44.7531 112.585 51.9565 108.199L77.1518 92.0166C80.5274 89.901 83.4351 87.0689 85.6848 83.7056C87.9345 80.3422 89.4755 76.5233 90.207 72.4986C91.4122 65.7608 90.353 58.7974 87.2066 52.7741C89.3602 49.4883 90.8316 45.7727 91.5271 41.8637C92.2429 37.7822 92.1452 33.5915 91.2402 29.5507C90.3351 25.51 88.6419 21.7051 86.2653 18.3712Z" fill="url(#paint0_linear_143_124)"/>
<g filter="url(#filter0_dii_143_124)">
<path d="M38.9717 106.239C34.7087 107.447 30.2157 107.213 26.0747 105.566C21.9338 103.919 18.3357 100.936 15.7468 97.0034C14.1966 94.6979 13.0912 92.0651 12.4991 89.2683C11.9071 86.4715 11.841 83.57 12.3049 80.7438C12.4592 79.8156 12.6749 78.9011 12.9502 78.0077L13.4657 76.3257L14.862 77.3932C18.1031 79.9442 21.7088 81.8758 25.5287 83.1076L26.5231 83.4351L26.4216 84.4981C26.3048 86.0444 26.6952 87.5855 27.5216 88.84C28.2984 90.0541 29.3917 90.9776 30.6558 91.4873C31.9198 91.997 33.2944 92.0686 34.5962 91.6927C35.1844 91.5238 35.7466 91.2592 36.2644 90.9078L63.4589 72.2754C64.121 71.8317 64.6917 71.2397 65.1342 70.5374C65.5768 69.8352 65.8813 69.0383 66.0281 68.1981C66.1744 67.3509 66.162 66.4796 65.9916 65.638C65.8213 64.7963 65.4967 64.0022 65.0378 63.3045C64.2569 62.1181 63.1717 61.2179 61.9227 60.7205C60.6737 60.2231 59.3184 60.1514 58.0321 60.5146C57.4409 60.6839 56.8759 60.95 56.3558 61.304L45.9164 68.4089C44.2005 69.5824 42.334 70.4625 40.3801 71.0194C36.1138 72.2308 31.6166 71.9975 27.4717 70.3499C23.3268 68.7023 19.7255 65.7164 17.1349 61.7795C15.595 59.4665 14.5011 56.8287 13.9209 54.0296C13.3407 51.2305 13.2867 48.3296 13.762 45.5064C14.2411 42.7254 15.2434 40.0865 16.704 37.7608C18.1646 35.435 20.051 33.4742 22.241 32.0054L49.4679 13.373C51.184 12.201 53.0505 11.3224 55.0042 10.7669C59.2707 9.55293 63.7689 9.78441 67.9148 11.4313C72.0607 13.0782 75.6628 16.0645 78.2535 20.0024C79.8035 22.3081 80.9087 24.9408 81.5008 27.7376C82.0928 30.5344 82.159 33.4358 81.6954 36.262C81.5415 37.1904 81.3258 38.1049 81.05 38.9981L80.5345 40.6801L79.1383 39.6171C75.899 37.0626 72.2928 35.1307 68.4716 33.9027L67.4771 33.5708L67.5786 32.5077C67.6954 30.9608 67.3034 29.4192 66.4746 28.1658C65.6959 26.9778 64.6115 26.0764 63.3628 25.5788C62.114 25.0812 60.7587 25.0105 59.473 25.3759C58.8841 25.5445 58.3217 25.8106 57.8049 26.1654L30.5211 44.735C29.8587 45.1762 29.2882 45.7671 28.8468 46.469C28.4055 47.1708 28.1033 47.9678 27.9599 48.8077C27.8099 49.6554 27.8205 50.5283 27.9909 51.3714C28.1614 52.2144 28.488 53.0092 28.9503 53.7058C29.7317 54.8914 30.8171 55.7907 32.0661 56.2873C33.315 56.7839 34.6701 56.8549 35.9559 56.4912C36.5464 56.3215 37.1112 56.057 37.6322 55.7063L48.0311 48.5969C49.7462 47.4229 51.613 46.5442 53.5674 45.9909C57.8339 44.7794 62.3314 45.012 66.4768 46.6588C70.6222 48.3055 74.2245 51.2903 76.8166 55.2263C78.3627 57.534 79.464 60.1675 80.0526 62.9642C80.6411 65.7608 80.7043 68.6612 80.2382 71.4859C79.7624 74.2701 78.7615 76.9123 77.3007 79.2407C75.8398 81.5692 73.9517 83.5316 71.7593 85.0005L44.5364 103.633C42.8212 104.807 40.9544 105.686 39.0001 106.239" fill="white" fill-opacity="0.4" shape-rendering="crispEdges"/>
</g>
<defs>
<filter id="filter0_dii_143_124" x="0" y="-6" width="86" height="119" filterUnits="userSpaceOnUse" color-interpolation-filters="sRGB">
<feFlood flood-opacity="0" result="BackgroundImageFix"/>
<feColorMatrix in="SourceAlpha" type="matrix" values="0 0 0 0 0 0 0 0 0 0 0 0 0 0 0 0 0 0 127 0" result="hardAlpha"/>
<feOffset dx="-4" dy="-2"/>
<feGaussianBlur stdDeviation="4"/>
<feComposite in2="hardAlpha" operator="out"/>
<feColorMatrix type="matrix" values="0 0 0 0 0.920833 0 0 0 0 0.0498785 0 0 0 0 0.0498785 0 0 0 0.31 0"/>
<feBlend mode="normal" in2="BackgroundImageFix" result="effect1_dropShadow_143_124"/>
<feBlend mode="normal" in="SourceGraphic" in2="effect1_dropShadow_143_124" result="shape"/>
<feColorMatrix in="SourceAlpha" type="matrix" values="0 0 0 0 0 0 0 0 0 0 0 0 0 0 0 0 0 0 127 0" result="hardAlpha"/>
<feOffset dy="2"/>
<feGaussianBlur stdDeviation="1.5"/>
<feComposite in2="hardAlpha" operator="arithmetic" k2="-1" k3="1"/>
<feColorMatrix type="matrix" values="0 0 0 0 1 0 0 0 0 1 0 0 0 0 1 0 0 0 0.41 0"/>
<feBlend mode="normal" in2="shape" result="effect2_innerShadow_143_124"/>
<feColorMatrix in="SourceAlpha" type="matrix" values="0 0 0 0 0 0 0 0 0 0 0 0 0 0 0 0 0 0 127 0" result="hardAlpha"/>
<feOffset dy="-16"/>
<feGaussianBlur stdDeviation="8"/>
<feComposite in2="hardAlpha" operator="arithmetic" k2="-1" k3="1"/>
<feColorMatrix type="matrix" values="0 0 0 0 1 0 0 0 0 1 0 0 0 0 1 0 0 0 0.4 0"/>
<feBlend mode="normal" in2="effect2_innerShadow_143_124" result="effect3_innerShadow_143_124"/>
</filter>
<linearGradient id="paint0_linear_143_124" x1="47" y1="4" x2="47" y2="113" gradientUnits="userSpaceOnUse">
<stop stop-color="#F98787"/>
<stop offset="0.984375" stop-color="#D60303"/>
</linearGradient>
</defs>
</svg>
