<svg width="126" height="121" viewBox="0 0 126 121" fill="none" xmlns="http://www.w3.org/2000/svg">
<path d="M113.487 16.2836L61.8811 108.563C61.6388 108.997 61.2854 109.359 60.8573 109.611C60.4291 109.864 59.9415 109.998 59.4444 110C58.9473 110.002 58.4587 109.872 58.0285 109.623C57.5983 109.374 57.242 109.015 56.9962 108.583L4.36935 16.2914C4.10476 15.8284 3.97774 15.2994 4.0032 14.7667C4.02865 14.234 4.20552 13.7195 4.51305 13.2838C4.82059 12.8481 5.24602 12.5091 5.73944 12.3066C6.23285 12.1042 6.77378 12.0467 7.29874 12.1408L58.9596 21.3766C59.2881 21.4358 59.6246 21.4358 59.9531 21.3766L110.534 12.1565C111.057 12.061 111.596 12.116 112.089 12.3153C112.582 12.5146 113.008 12.8499 113.317 13.2821C113.627 13.7143 113.807 14.2255 113.837 14.7563C113.867 15.287 113.746 15.8153 113.487 16.2797V16.2836Z" fill="url(#paint0_linear_143_127)"/>
<path d="M83.5649 0.0305355L45.3808 7.51107C45.0751 7.57076 44.798 7.73053 44.5933 7.96518C44.3885 8.19982 44.2677 8.49598 44.2499 8.80691L41.9016 48.4832C41.8887 48.7009 41.9267 48.9186 42.0126 49.119C42.0985 49.3194 42.23 49.497 42.3966 49.6376C42.5632 49.7783 42.7603 49.8782 42.9723 49.9293C43.1843 49.9805 43.4052 49.9814 43.6177 49.9322L54.2475 47.4779C54.4765 47.425 54.7151 47.4305 54.9414 47.494C55.1677 47.5574 55.3745 47.6767 55.5426 47.841C55.7108 48.0052 55.8349 48.2091 55.9036 48.4338C55.9724 48.6586 55.9835 48.897 55.936 49.1272L52.7789 64.5948C52.7301 64.8329 52.7442 65.0796 52.8196 65.3107C52.895 65.5418 53.0291 65.7493 53.2089 65.9128C53.3887 66.0764 53.608 66.1904 53.8451 66.2436C54.0822 66.2969 54.3292 66.2876 54.5616 66.2166L61.1272 64.2218C61.36 64.1505 61.6074 64.1412 61.845 64.1946C62.0825 64.248 62.3021 64.3624 62.482 64.5264C62.6619 64.6905 62.796 64.8986 62.8711 65.1302C62.9461 65.3619 62.9595 65.6091 62.91 65.8475L57.8876 90.1425C57.5735 91.6622 59.5958 92.4907 60.44 91.191L61.0016 90.3192L92.1214 28.217C92.2382 27.983 92.2872 27.721 92.2629 27.4606C92.2386 27.2002 92.142 26.9518 91.9839 26.7435C91.8258 26.5351 91.6125 26.3752 91.3683 26.2817C91.124 26.1882 90.8585 26.1649 90.6017 26.2144L79.6577 28.3231C79.4222 28.3681 79.179 28.352 78.9514 28.2763C78.7238 28.2005 78.5195 28.0676 78.358 27.8903C78.1964 27.713 78.0831 27.4973 78.0288 27.2636C77.9745 27.03 77.981 26.7864 78.0478 26.556L85.1867 1.79367C85.2539 1.56255 85.2606 1.318 85.2059 1.08358C85.1513 0.849155 85.0372 0.632752 84.8746 0.455214C84.7121 0.277676 84.5066 0.144983 84.2778 0.0699148C84.0491 -0.00515345 83.805 -0.0200674 83.5688 0.026609L83.5649 0.0305355Z" fill="url(#paint1_linear_143_127)"/>
<g filter="url(#filter0_dii_143_127)">
<path d="M121.487 21.2836L69.8811 113.563C69.6388 113.997 69.2854 114.359 68.8573 114.611C68.4291 114.864 67.9415 114.998 67.4444 115C66.9473 115.002 66.4587 114.872 66.0285 114.623C65.5983 114.374 65.242 114.015 64.9962 113.583L12.3694 21.2915C12.1048 20.8284 11.9777 20.2995 12.0032 19.7667C12.0286 19.234 12.2055 18.7196 12.5131 18.2838C12.8206 17.8481 13.246 17.5091 13.7394 17.3067C14.2329 17.1042 14.7738 17.0467 15.2987 17.1408L66.9596 26.3767C67.2881 26.4358 67.6246 26.4358 67.9531 26.3767L118.534 17.1566C119.057 17.061 119.596 17.1161 120.089 17.3154C120.582 17.5146 121.008 17.8499 121.317 18.2821C121.627 18.7143 121.807 19.2256 121.837 19.7563C121.867 20.287 121.746 20.8154 121.487 21.2797V21.2836Z" fill="url(#paint2_linear_143_127)"/>
</g>
<path d="M91.5649 5.03054L53.3808 12.5111C53.0751 12.5708 52.798 12.7305 52.5932 12.9652C52.3885 13.1998 52.2677 13.496 52.2499 13.8069L49.9016 53.4832C49.8887 53.7009 49.9267 53.9186 50.0126 54.119C50.0985 54.3194 50.23 54.497 50.3966 54.6376C50.5632 54.7783 50.7603 54.8782 50.9723 54.9293C51.1843 54.9805 51.4052 54.9814 51.6177 54.9322L62.2475 52.4779C62.4765 52.425 62.7151 52.4305 62.9414 52.494C63.1677 52.5574 63.3745 52.6767 63.5426 52.841C63.7108 53.0052 63.8349 53.2091 63.9036 53.4338C63.9724 53.6586 63.9835 53.897 63.936 54.1272L60.7789 69.5948C60.7301 69.8329 60.7442 70.0796 60.8196 70.3107C60.895 70.5418 61.0291 70.7493 61.2089 70.9128C61.3887 71.0764 61.608 71.1904 61.8451 71.2436C62.0822 71.2969 62.3292 71.2876 62.5616 71.2166L69.1272 69.2218C69.36 69.1505 69.6074 69.1412 69.845 69.1946C70.0825 69.248 70.3021 69.3624 70.482 69.5264C70.6619 69.6905 70.796 69.8986 70.8711 70.1302C70.9461 70.3619 70.9595 70.6091 70.91 70.8475L65.8876 95.1425C65.5735 96.6622 67.5958 97.4907 68.44 96.191L69.0016 95.3192L100.121 33.217C100.238 32.983 100.287 32.721 100.263 32.4606C100.239 32.2002 100.142 31.9518 99.9839 31.7435C99.8258 31.5351 99.6125 31.3752 99.3683 31.2817C99.124 31.1882 98.8585 31.1649 98.6017 31.2144L87.6577 33.3231C87.4222 33.3681 87.179 33.352 86.9514 33.2763C86.7238 33.2005 86.5195 33.0676 86.358 32.8903C86.1964 32.713 86.0831 32.4973 86.0288 32.2636C85.9745 32.03 85.981 31.7864 86.0478 31.556L93.1867 6.79367C93.2539 6.56255 93.2606 6.318 93.2059 6.08358C93.1513 5.84915 93.0372 5.63275 92.8746 5.45521C92.7121 5.27768 92.5066 5.14498 92.2778 5.06991C92.0491 4.99485 91.805 4.97993 91.5688 5.02661L91.5649 5.03054Z" fill="url(#paint3_linear_143_127)"/>
<defs>
<filter id="filter0_dii_143_127" x="0" y="1.0968" width="125.842" height="119.903" filterUnits="userSpaceOnUse" color-interpolation-filters="sRGB">
<feFlood flood-opacity="0" result="BackgroundImageFix"/>
<feColorMatrix in="SourceAlpha" type="matrix" values="0 0 0 0 0 0 0 0 0 0 0 0 0 0 0 0 0 0 127 0" result="hardAlpha"/>
<feOffset dx="-4" dy="-2"/>
<feGaussianBlur stdDeviation="4"/>
<feComposite in2="hardAlpha" operator="out"/>
<feColorMatrix type="matrix" values="0 0 0 0 0.643137 0 0 0 0 0.0392157 0 0 0 0 0.694118 0 0 0 0.29 0"/>
<feBlend mode="normal" in2="BackgroundImageFix" result="effect1_dropShadow_143_127"/>
<feBlend mode="normal" in="SourceGraphic" in2="effect1_dropShadow_143_127" result="shape"/>
<feColorMatrix in="SourceAlpha" type="matrix" values="0 0 0 0 0 0 0 0 0 0 0 0 0 0 0 0 0 0 127 0" result="hardAlpha"/>
<feOffset dy="2"/>
<feGaussianBlur stdDeviation="1.5"/>
<feComposite in2="hardAlpha" operator="arithmetic" k2="-1" k3="1"/>
<feColorMatrix type="matrix" values="0 0 0 0 1 0 0 0 0 1 0 0 0 0 1 0 0 0 0.41 0"/>
<feBlend mode="normal" in2="shape" result="effect2_innerShadow_143_127"/>
<feColorMatrix in="SourceAlpha" type="matrix" values="0 0 0 0 0 0 0 0 0 0 0 0 0 0 0 0 0 0 127 0" result="hardAlpha"/>
<feOffset dy="-16"/>
<feGaussianBlur stdDeviation="8"/>
<feComposite in2="hardAlpha" operator="arithmetic" k2="-1" k3="1"/>
<feColorMatrix type="matrix" values="0 0 0 0 1 0 0 0 0 1 0 0 0 0 1 0 0 0 0.51 0"/>
<feBlend mode="normal" in2="effect2_innerShadow_143_127" result="effect3_innerShadow_143_127"/>
</filter>
<linearGradient id="paint0_linear_143_127" x1="58.9209" y1="0" x2="58.9209" y2="110" gradientUnits="userSpaceOnUse">
<stop stop-color="#B56BFF"/>
<stop offset="1" stop-color="#6500CB"/>
</linearGradient>
<linearGradient id="paint1_linear_143_127" x1="58.9209" y1="0" x2="58.9209" y2="110" gradientUnits="userSpaceOnUse">
<stop stop-color="#B56BFF"/>
<stop offset="1" stop-color="#6500CB"/>
</linearGradient>
<linearGradient id="paint2_linear_143_127" x1="66.9209" y1="17.0968" x2="66.9209" y2="115" gradientUnits="userSpaceOnUse">
<stop stop-color="#B56BFF"/>
<stop offset="1" stop-color="#6500CB"/>
</linearGradient>
<linearGradient id="paint3_linear_143_127" x1="75.0841" y1="5" x2="75.0841" y2="96.8353" gradientUnits="userSpaceOnUse">
<stop stop-color="#FFDD85"/>
<stop offset="0.3125" stop-color="#FFD66D"/>
<stop offset="1" stop-color="#FF9900"/>
</linearGradient>
</defs>
</svg>
