<svg width="115" height="112" viewBox="0 0 115 112" fill="none" xmlns="http://www.w3.org/2000/svg">
<path d="M100.033 10.5937L79.3207 0.621862C78.151 0.0578855 76.8349 -0.128227 75.5547 0.0893236C74.2745 0.306874 73.0937 0.917311 72.1759 1.83601L4.37389 63.6499C3.55126 64.3964 3.05883 65.439 3.00494 66.5485C2.95104 67.6581 3.3401 68.7435 4.08652 69.5662C4.17633 69.6632 4.26613 69.7566 4.36312 69.8428L9.89864 74.8718C10.622 75.5302 11.553 75.9143 12.5301 75.9576C13.5072 76.0009 14.4686 75.7007 15.2474 75.1089L96.9151 13.1801C97.532 12.712 98.2673 12.4254 99.0382 12.3525C99.8091 12.2796 100.585 12.4234 101.279 12.7676C101.972 13.1118 102.556 13.6428 102.964 14.3008C103.373 14.9588 103.589 15.7177 103.589 16.492V16.2514C103.589 15.0692 103.256 13.911 102.626 12.9102C101.997 11.9093 101.098 11.1063 100.033 10.5937Z" fill="#292D32"/>
<path d="M100.033 10.5937L79.3207 0.621862C78.151 0.0578855 76.8349 -0.128227 75.5547 0.0893236C74.2745 0.306874 73.0937 0.917311 72.1759 1.83601L4.37389 63.6499C3.55126 64.3964 3.05883 65.439 3.00494 66.5485C2.95104 67.6581 3.3401 68.7435 4.08652 69.5662C4.17633 69.6632 4.26613 69.7566 4.36312 69.8428L9.89864 74.8718C10.622 75.5302 11.553 75.9143 12.5301 75.9576C13.5072 76.0009 14.4686 75.7007 15.2474 75.1089L96.9151 13.1801C97.532 12.712 98.2673 12.4254 99.0382 12.3525C99.8091 12.2796 100.585 12.4234 101.279 12.7676C101.972 13.1118 102.556 13.6428 102.964 14.3008C103.373 14.9588 103.589 15.7177 103.589 16.492V16.2514C103.589 15.0692 103.256 13.911 102.626 12.9102C101.997 11.9093 101.098 11.1063 100.033 10.5937Z" fill="url(#paint0_linear_104_52)"/>
<path d="M100.033 89.4058L79.3207 99.3813C78.1507 99.9436 76.8349 100.129 75.5551 99.9114C74.2753 99.6939 73.0945 99.0844 72.1759 98.1671L4.37389 36.3496C3.55126 35.6032 3.05883 34.5605 3.00494 33.451C2.95104 32.3415 3.3401 31.256 4.08652 30.4333C4.17633 30.3363 4.26613 30.2429 4.36312 30.1567L9.89864 25.1277C10.6227 24.4666 11.5559 24.0807 12.5354 24.0374C13.5149 23.9941 14.4785 24.296 15.2581 24.8906L96.9151 86.8195C97.532 87.2876 98.2673 87.5742 99.0382 87.6471C99.8091 87.7199 100.585 87.5762 101.279 87.232C101.972 86.8878 102.556 86.3568 102.964 85.6988C103.373 85.0407 103.589 84.2819 103.589 83.5075V83.7661C103.586 84.9452 103.25 86.0993 102.621 87.0966C101.992 88.094 101.095 88.8942 100.033 89.4058Z" fill="#292D32"/>
<path d="M100.033 89.4058L79.3207 99.3813C78.1507 99.9436 76.8349 100.129 75.5551 99.9114C74.2753 99.6939 73.0945 99.0844 72.1759 98.1671L4.37389 36.3496C3.55126 35.6032 3.05883 34.5605 3.00494 33.451C2.95104 32.3415 3.3401 31.256 4.08652 30.4333C4.17633 30.3363 4.26613 30.2429 4.36312 30.1567L9.89864 25.1277C10.6227 24.4666 11.5559 24.0807 12.5354 24.0374C13.5149 23.9941 14.4785 24.296 15.2581 24.8906L96.9151 86.8195C97.532 87.2876 98.2673 87.5742 99.0382 87.6471C99.8091 87.7199 100.585 87.5762 101.279 87.232C101.972 86.8878 102.556 86.3568 102.964 85.6988C103.373 85.0407 103.589 84.2819 103.589 83.5075V83.7661C103.586 84.9452 103.25 86.0993 102.621 87.0966C101.992 88.094 101.095 88.8942 100.033 89.4058Z" fill="url(#paint1_linear_104_52)"/>
<path d="M79.3207 99.3813C78.1507 99.9436 76.8349 100.129 75.5551 99.9114C74.2753 99.6939 73.0945 99.0844 72.1759 98.1671C72.6918 98.6762 73.3462 99.0217 74.0576 99.1604C74.769 99.2991 75.5055 99.2247 76.1748 98.9466C76.8441 98.6686 77.4165 98.1991 77.8202 97.5972C78.2238 96.9952 78.4409 96.2875 78.4441 95.5627V4.43678C78.4447 3.70861 78.2291 2.99664 77.8248 2.39107C77.4204 1.7855 76.8454 1.31356 76.1726 1.03505C75.4998 0.756545 74.7594 0.683993 74.0454 0.826588C73.3313 0.969183 72.6756 1.32051 72.1614 1.83606C73.0793 0.917692 74.2598 0.307217 75.5398 0.0890616C76.8198 -0.129094 78.1359 0.0558511 79.3062 0.618318L100.015 10.5758C101.084 11.0859 101.986 11.8877 102.619 12.8888C103.251 13.8899 103.588 15.0493 103.589 16.2334L103.589 83.7661C103.59 84.9493 103.255 86.1084 102.626 87.11C101.996 88.1116 101.096 88.9149 100.029 89.4273L79.3207 99.3813Z" fill="#292D32"/>
<path d="M79.3207 99.3813C78.1507 99.9436 76.8349 100.129 75.5551 99.9114C74.2753 99.6939 73.0945 99.0844 72.1759 98.1671C72.6918 98.6762 73.3462 99.0217 74.0576 99.1604C74.769 99.2991 75.5055 99.2247 76.1748 98.9466C76.8441 98.6686 77.4165 98.1991 77.8202 97.5972C78.2238 96.9952 78.4409 96.2875 78.4441 95.5627V4.43678C78.4447 3.70861 78.2291 2.99664 77.8248 2.39107C77.4204 1.7855 76.8454 1.31356 76.1726 1.03505C75.4998 0.756545 74.7594 0.683993 74.0454 0.826588C73.3313 0.969183 72.6756 1.32051 72.1614 1.83606C73.0793 0.917692 74.2598 0.307217 75.5398 0.0890616C76.8198 -0.129094 78.1359 0.0558511 79.3062 0.618318L100.015 10.5758C101.084 11.0859 101.986 11.8877 102.619 12.8888C103.251 13.8899 103.588 15.0493 103.589 16.2334L103.589 83.7661C103.59 84.9493 103.255 86.1084 102.626 87.11C101.996 88.1116 101.096 88.9149 100.029 89.4273L79.3207 99.3813Z" fill="url(#paint2_linear_104_52)"/>
<g filter="url(#filter0_dii_104_52)">
<path d="M107.5 21.9581L87.1148 12.5846C85.9636 12.0544 84.6682 11.8795 83.4083 12.084C82.1483 12.2885 80.9861 12.8623 80.0829 13.7259L13.3522 71.8309C12.5425 72.5326 12.0579 73.5127 12.0049 74.5556C11.9518 75.5986 12.3347 76.6189 13.0694 77.3922C13.1577 77.4834 13.2461 77.5712 13.3416 77.6522L18.7896 82.3795C19.5015 82.9983 20.4179 83.3595 21.3795 83.4002C22.3412 83.4409 23.2874 83.1586 24.0538 82.6024L104.431 24.3893C105.038 23.9493 105.762 23.6798 106.521 23.6113C107.279 23.5428 108.043 23.678 108.726 24.0015C109.409 24.3251 109.983 24.8242 110.385 25.4427C110.787 26.0613 111 26.7746 111 27.5025V27.2763C111 26.165 110.671 25.0764 110.052 24.1355C109.433 23.1947 108.548 22.44 107.5 21.9581Z" fill="#0099FF"/>
<path d="M107.5 96.0415L87.1148 105.418C85.9633 105.947 84.6683 106.121 83.4087 105.917C82.1491 105.712 80.987 105.139 80.0829 104.277L13.3522 46.1686C12.5425 45.467 12.0579 44.4869 12.0049 43.4439C11.9518 42.401 12.3347 41.3806 13.0694 40.6073C13.1577 40.5162 13.2461 40.4284 13.3416 40.3473L18.7896 35.62C19.5023 34.9986 20.4207 34.6359 21.3847 34.5952C22.3488 34.5544 23.2972 34.8383 24.0645 35.3972L104.431 93.6103C105.038 94.0503 105.762 94.3197 106.521 94.3882C107.279 94.4567 108.043 94.3216 108.726 93.998C109.409 93.6745 109.983 93.1754 110.385 92.5568C110.787 91.9383 111 91.2249 111 90.4971V90.7402C110.996 91.8485 110.666 92.9334 110.047 93.8708C109.428 94.8083 108.545 95.5605 107.5 96.0415Z" fill="#0099FF"/>
<path d="M87.1148 105.418C85.9633 105.947 84.6683 106.121 83.4087 105.917C82.1491 105.712 80.987 105.139 80.0829 104.277C80.5906 104.756 81.2347 105.08 81.9349 105.211C82.635 105.341 83.3599 105.271 84.0186 105.01C84.6773 104.748 85.2407 104.307 85.6379 103.741C86.0352 103.175 86.2489 102.51 86.252 101.829V16.1706C86.2526 15.4861 86.0405 14.8168 85.6425 14.2476C85.2445 13.6784 84.6786 13.2347 84.0164 12.973C83.3542 12.7112 82.6256 12.643 81.9228 12.777C81.22 12.911 80.5747 13.2413 80.0686 13.7259C80.972 12.8626 82.1339 12.2888 83.3936 12.0837C84.6534 11.8787 85.9487 12.0525 87.1005 12.5812L107.482 21.9412C108.534 22.4207 109.422 23.1745 110.045 24.1155C110.667 25.0565 110.998 26.1464 111 27.2594L111 90.7402C111 91.8524 110.671 92.9419 110.051 93.8834C109.432 94.8249 108.546 95.58 107.496 96.0617L87.1148 105.418Z" fill="#0099FF"/>
</g>
<defs>
<filter id="filter0_dii_104_52" x="0" y="-4" width="115" height="116" filterUnits="userSpaceOnUse" color-interpolation-filters="sRGB">
<feFlood flood-opacity="0" result="BackgroundImageFix"/>
<feColorMatrix in="SourceAlpha" type="matrix" values="0 0 0 0 0 0 0 0 0 0 0 0 0 0 0 0 0 0 127 0" result="hardAlpha"/>
<feOffset dx="-4" dy="-2"/>
<feGaussianBlur stdDeviation="4"/>
<feComposite in2="hardAlpha" operator="out"/>
<feColorMatrix type="matrix" values="0 0 0 0 0.0698785 0 0 0 0 0.634776 0 0 0 0 0.670833 0 0 0 0.52 0"/>
<feBlend mode="normal" in2="BackgroundImageFix" result="effect1_dropShadow_104_52"/>
<feBlend mode="normal" in="SourceGraphic" in2="effect1_dropShadow_104_52" result="shape"/>
<feColorMatrix in="SourceAlpha" type="matrix" values="0 0 0 0 0 0 0 0 0 0 0 0 0 0 0 0 0 0 127 0" result="hardAlpha"/>
<feOffset dy="-16"/>
<feGaussianBlur stdDeviation="8"/>
<feComposite in2="hardAlpha" operator="arithmetic" k2="-1" k3="1"/>
<feColorMatrix type="matrix" values="0 0 0 0 1 0 0 0 0 1 0 0 0 0 1 0 0 0 0.58 0"/>
<feBlend mode="normal" in2="shape" result="effect2_innerShadow_104_52"/>
<feColorMatrix in="SourceAlpha" type="matrix" values="0 0 0 0 0 0 0 0 0 0 0 0 0 0 0 0 0 0 127 0" result="hardAlpha"/>
<feOffset dy="2"/>
<feGaussianBlur stdDeviation="1.5"/>
<feComposite in2="hardAlpha" operator="arithmetic" k2="-1" k3="1"/>
<feColorMatrix type="matrix" values="0 0 0 0 1 0 0 0 0 1 0 0 0 0 1 0 0 0 0.41 0"/>
<feBlend mode="normal" in2="effect2_innerShadow_104_52" result="effect3_innerShadow_104_52"/>
</filter>
<linearGradient id="paint0_linear_104_52" x1="53.2947" y1="0" x2="53.2947" y2="100" gradientUnits="userSpaceOnUse">
<stop stop-color="#3AC8F0"/>
<stop offset="0.0001" stop-color="#45D5EE"/>
<stop offset="0.442708" stop-color="#2498F7"/>
<stop offset="0.9999" stop-color="#005FFC"/>
<stop offset="1" stop-color="#3AC8F0" stop-opacity="0"/>
<stop offset="1" stop-color="#3AC8F0" stop-opacity="0"/>
<stop offset="1" stop-color="#3AC8F0" stop-opacity="0"/>
</linearGradient>
<linearGradient id="paint1_linear_104_52" x1="53.2947" y1="0" x2="53.2947" y2="100" gradientUnits="userSpaceOnUse">
<stop stop-color="#3AC8F0"/>
<stop offset="0.0001" stop-color="#45D5EE"/>
<stop offset="0.442708" stop-color="#2498F7"/>
<stop offset="0.9999" stop-color="#005FFC"/>
<stop offset="1" stop-color="#3AC8F0" stop-opacity="0"/>
<stop offset="1" stop-color="#3AC8F0" stop-opacity="0"/>
<stop offset="1" stop-color="#3AC8F0" stop-opacity="0"/>
</linearGradient>
<linearGradient id="paint2_linear_104_52" x1="53.2947" y1="0" x2="53.2947" y2="100" gradientUnits="userSpaceOnUse">
<stop stop-color="#3AC8F0"/>
<stop offset="0.0001" stop-color="#45D5EE"/>
<stop offset="0.442708" stop-color="#2498F7"/>
<stop offset="0.9999" stop-color="#005FFC"/>
<stop offset="1" stop-color="#3AC8F0" stop-opacity="0"/>
<stop offset="1" stop-color="#3AC8F0" stop-opacity="0"/>
<stop offset="1" stop-color="#3AC8F0" stop-opacity="0"/>
</linearGradient>
</defs>
</svg>
