<svg width="112" height="111" viewBox="0 0 112 111" fill="none" xmlns="http://www.w3.org/2000/svg">
<rect x="3" y="2" width="109" height="109" rx="54.5" fill="url(#paint0_linear_102_69)"/>
<g filter="url(#filter0_dii_102_69)">
<path d="M17.1751 33.3855C21.0233 26.2509 26.5633 20.5697 33.7953 16.3418C41.0272 12.1139 49.0221 10 57.78 10C68.7937 10 78.7459 13.8976 87.6365 21.6927C85.248 21.2964 82.8595 21.7588 80.471 23.08C77.2863 24.9297 75.528 27.7373 75.1963 31.5027C74.8646 35.2682 76.5564 38.4061 80.2719 40.9164C84.5182 43.5588 86.6413 48.5794 86.6413 55.9782C86.6413 57.2994 85.7124 60.0739 83.8547 64.3018C81.997 68.5297 80.1392 72.4273 78.2815 75.9945L75.4949 81.3455L64.7465 44.88C64.4811 43.1624 64.3484 42.0394 64.3484 41.5109C64.3484 40.4539 64.6802 39.5951 65.3437 38.9345C66.0071 38.0097 66.5379 37.5473 66.936 37.5473H72.1111V33.3855H44.4441V37.5473H45.4393C45.8374 37.5473 46.6999 38.2079 48.0269 39.5291C48.2923 39.7933 49.5529 42.7661 51.8087 48.4473L55.7896 61.7255L47.2307 81.5436L37.6766 41.9073C37.942 40.0576 38.2737 39.0006 38.6718 38.7364C39.0699 37.9436 39.6007 37.5473 40.2642 37.5473H40.4632V33.3855H17.1751ZM22.5493 40.3218C21.0897 38.4721 19.5637 37.5473 17.9713 37.5473H15.5828C13.1943 42.5679 12 48.5794 12 55.5818C12 64.8303 14.5876 73.22 19.7627 80.7509C24.9378 88.2818 31.7053 93.8309 40.0651 97.3982L22.5493 40.3218ZM97.1906 33.1873C98.2522 37.5473 97.9204 42.3697 96.1954 47.6545C92.6126 59.2812 86.0442 75.9285 76.4901 97.5964C84.7172 94.0291 91.2856 88.513 96.1954 81.0482C101.105 73.5833 103.56 65.2927 103.56 56.1764C103.56 47.7206 101.437 40.0576 97.1906 33.1873ZM58.7752 71.6345L47.0317 100.173C51.0125 101.098 54.5953 101.56 57.78 101.56C60.9647 101.56 64.6802 101.098 68.9264 100.173L58.7752 71.6345Z" fill="white" fill-opacity="0.4" shape-rendering="crispEdges"/>
<path d="M48.711 42.152C49.3376 43.6295 50.2123 45.782 51.336 48.6116L55.2583 61.6945L47.3657 79.9699L38.1853 41.8838C38.3127 41.0165 38.4527 40.3512 38.6015 39.877C38.6786 39.6313 38.7539 39.4507 38.8234 39.3249C38.8577 39.2628 38.8876 39.2196 38.9113 39.1908C38.9353 39.1618 38.9485 39.1528 38.9483 39.1529L39.059 39.0795L39.1187 38.9607C39.4653 38.2705 39.8542 38.0473 40.2642 38.0473H40.4632H40.9632V37.5473V33.3855V32.8855H40.4632H18.022C21.8047 26.1793 27.1434 20.8098 34.0476 16.7735C41.1994 12.5924 49.1066 10.5 57.78 10.5C68.1766 10.5 77.6186 14.0108 86.1197 21.0564C84.144 21.0305 82.1778 21.5645 80.2289 22.6425L80.2289 22.6424L80.2198 22.6476C76.8902 24.5815 75.0438 27.5365 74.6982 31.4588C74.3473 35.4423 76.1594 38.7413 79.992 41.3307L79.9998 41.3359L80.0077 41.3409C84.0449 43.8531 86.1413 48.6628 86.1413 55.9782C86.1413 56.5512 85.9335 57.5084 85.4705 58.8913C85.0128 60.2584 84.3228 61.9937 83.3969 64.1007C81.543 68.3199 79.69 72.2074 77.838 75.7636L75.624 80.015L65.2356 44.7707C64.9723 43.0633 64.8484 41.9907 64.8484 41.5109C64.8484 40.5682 65.1397 39.8432 65.6964 39.2889L65.7258 39.2596L65.7499 39.226C66.0711 38.7783 66.3438 38.4662 66.5678 38.2711C66.8053 38.0641 66.9211 38.0473 66.936 38.0473H72.1111H72.6111V37.5473V33.3855V32.8855H72.1111H44.4441H43.9441V33.3855V37.5473V38.0473H44.4441H45.4338C45.4337 38.0473 45.4336 38.0473 45.4336 38.0473C45.4335 38.0481 45.4811 38.0554 45.5929 38.114C45.7157 38.1784 45.8773 38.2838 46.0807 38.4397C46.4845 38.7489 47.0105 39.2233 47.6626 39.872C47.6625 39.8719 47.6625 39.8719 47.6625 39.872C47.6617 39.8726 47.6845 39.9037 47.7342 39.9948C47.7917 40.1 47.8667 40.2499 47.9603 40.4483C48.1468 40.8441 48.3968 41.4109 48.711 42.152ZM17.9713 38.0473C19.3293 38.0473 20.7069 38.8209 22.0991 40.5589L39.2668 96.501C31.4512 92.962 25.0896 87.6199 20.1748 80.4677C15.0576 73.0212 12.5 64.7305 12.5 55.5818C12.5 48.7682 13.6399 42.9285 15.9004 38.0473H17.9713ZM77.4721 96.6067C86.7437 75.5163 93.1463 59.2462 96.672 47.8057C98.0575 43.5597 98.5617 39.5865 98.1672 35.8939C101.428 42.0416 103.06 48.7995 103.06 56.1764C103.06 65.1972 100.633 73.3919 95.7776 80.7734C91.1588 87.7959 85.0598 93.0716 77.4721 96.6067ZM57.78 101.06C54.795 101.06 51.4423 100.647 47.7189 99.8165L58.7413 73.031L68.2643 99.8032C64.2735 100.643 60.7802 101.06 57.78 101.06Z" stroke="white" stroke-opacity="0.4" shape-rendering="crispEdges"/>
</g>
<defs>
<filter id="filter0_dii_102_69" x="0" y="-6" width="107.56" height="113.56" filterUnits="userSpaceOnUse" color-interpolation-filters="sRGB">
<feFlood flood-opacity="0" result="BackgroundImageFix"/>
<feColorMatrix in="SourceAlpha" type="matrix" values="0 0 0 0 0 0 0 0 0 0 0 0 0 0 0 0 0 0 127 0" result="hardAlpha"/>
<feOffset dx="-4" dy="-2"/>
<feGaussianBlur stdDeviation="4"/>
<feComposite in2="hardAlpha" operator="out"/>
<feColorMatrix type="matrix" values="0 0 0 0 0.0698785 0 0 0 0 0.634776 0 0 0 0 0.670833 0 0 0 0.52 0"/>
<feBlend mode="normal" in2="BackgroundImageFix" result="effect1_dropShadow_102_69"/>
<feBlend mode="normal" in="SourceGraphic" in2="effect1_dropShadow_102_69" result="shape"/>
<feColorMatrix in="SourceAlpha" type="matrix" values="0 0 0 0 0 0 0 0 0 0 0 0 0 0 0 0 0 0 127 0" result="hardAlpha"/>
<feOffset dy="-16"/>
<feGaussianBlur stdDeviation="8"/>
<feComposite in2="hardAlpha" operator="arithmetic" k2="-1" k3="1"/>
<feColorMatrix type="matrix" values="0 0 0 0 1 0 0 0 0 1 0 0 0 0 1 0 0 0 0.58 0"/>
<feBlend mode="normal" in2="shape" result="effect2_innerShadow_102_69"/>
<feColorMatrix in="SourceAlpha" type="matrix" values="0 0 0 0 0 0 0 0 0 0 0 0 0 0 0 0 0 0 127 0" result="hardAlpha"/>
<feOffset dy="2"/>
<feGaussianBlur stdDeviation="1.5"/>
<feComposite in2="hardAlpha" operator="arithmetic" k2="-1" k3="1"/>
<feColorMatrix type="matrix" values="0 0 0 0 1 0 0 0 0 1 0 0 0 0 1 0 0 0 0.41 0"/>
<feBlend mode="normal" in2="effect2_innerShadow_102_69" result="effect3_innerShadow_102_69"/>
</filter>
<linearGradient id="paint0_linear_102_69" x1="57.5" y1="2" x2="57.5" y2="111" gradientUnits="userSpaceOnUse">
<stop stop-color="#8EF7FE"/>
<stop offset="0.984375" stop-color="#06B7B7"/>
</linearGradient>
</defs>
</svg>
