<svg width="113" height="124" viewBox="0 0 113 124" fill="none" xmlns="http://www.w3.org/2000/svg">
<path d="M89.0076 10C96.4748 13.805 102.888 23.7901 102.567 37.3394C101.591 54.0341 89.4866 68.422 76.3167 81.6782C75.5792 65.5119 72.064 55.2092 66.5752 40.7213C61.3932 26.1214 76.5435 10.4673 89.0076 10Z" fill="url(#paint0_linear_120_1356)"/>
<g filter="url(#filter0_dii_120_1356)">
<path d="M94.4766 10C101.944 13.805 108.357 23.7901 108.036 37.3394C107.06 54.0341 94.9556 68.422 81.7857 81.6782C81.0482 65.5119 77.533 55.2092 72.0442 40.7213C66.8622 26.1214 82.0125 10.4673 94.4766 10Z" fill="url(#paint1_linear_120_1356)"/>
</g>
<path d="M0.109009 20.1339C21.5851 11.6354 44.6983 20.341 58.0421 38.4794C59.3399 40.2457 60.5641 42.0648 61.7118 43.932C63.797 57.2424 62.2068 64.6345 58.1485 68.5532C55.48 67.2067 52.6328 66.0127 49.5933 64.9087C42.5277 62.3418 36.0059 60.6428 26.6925 57.8852C4.57686 51.8496 -0.876977 32.8863 0.109009 20.1339Z" fill="url(#paint2_linear_120_1356)"/>
<path d="M48.6158 81.1097C52.6256 76.122 55.4675 71.6802 57.4507 67.6672C71.0361 74.7703 67.8305 73.4438 74.3827 81.0118C74.4048 81.2474 74.4257 81.4823 74.4453 81.7163C74.9889 92.2097 67.3343 116.468 37.1927 119.793C35.1063 103.492 41.8894 89.5882 48.6158 81.1097Z" fill="url(#paint3_linear_120_1356)"/>
<path d="M60.8908 42.6289C61.0318 42.8477 61.1711 43.0649 61.3084 43.2853L61.4778 43.5571C61.8222 44.1107 62.1603 44.6675 62.4935 45.2312L62.5497 45.3251L62.6392 45.4777L62.7207 45.6186L62.9592 46.0281L62.9756 46.0578L63.2988 46.6246L63.3088 46.6411C63.5428 47.0539 63.7731 47.4688 63.9997 47.8856L64.0278 47.9386L64.28 48.4059L64.2868 48.418L64.5634 48.9378L64.6429 49.0904L64.797 49.3875L65.1684 50.1081C65.3539 50.4758 65.5377 50.844 65.7184 51.2117L65.765 51.3028C66.0906 51.9696 66.4081 52.6402 66.7176 53.3146L66.9533 53.83L66.9762 53.8814L67.1271 54.2162L67.303 54.6125L67.4021 54.8413L67.5615 55.2074L67.6755 55.4708L67.916 56.0377L67.9324 56.0774L68.1894 56.6937L68.2207 56.7683C68.4945 57.4347 68.7595 58.1012 69.0164 58.7716L69.0413 58.8334L69.2532 59.3955L69.2665 59.4264L69.3893 59.758C69.5253 60.1258 69.6595 60.4942 69.792 60.8632L69.8434 61.0077C69.9891 61.42 70.1333 61.8347 70.2726 62.247L70.3171 62.3779C70.448 62.7657 70.5741 63.1535 70.7001 63.5414L70.7615 63.732L70.7764 63.7766L70.9751 64.4049L70.9831 64.433L71.1674 65.0328L71.3513 65.651L71.3565 65.6643L71.5091 66.1862L71.5572 66.3556L71.6496 66.6788C71.7539 67.0513 71.8567 67.4227 71.9563 67.7956L72.031 68.0738L72.1751 68.6238L72.1815 68.6507C72.3573 69.3268 72.5227 70.0028 72.6805 70.6773L72.6954 70.7472L72.7118 70.8182C72.9174 71.7082 73.1065 72.5951 73.2803 73.4783L73.2972 73.5662C73.5631 74.9243 73.793 76.2892 73.9865 77.6595L73.9897 77.6776C74.0495 78.0951 74.1041 78.511 74.1555 78.9273L74.1768 79.106L74.2466 79.7009V79.7025L74.306 80.2529L74.3261 80.4352L74.369 80.8712L74.3859 81.0466L74.3923 81.1181L74.4453 81.7163C69.7009 75.6061 64.0331 71.3947 57.2319 68.1003C62.7207 57.2489 61.9499 49.5168 60.8908 42.6289Z" fill="url(#paint4_linear_120_1356)"/>
<g filter="url(#filter1_dii_120_1356)">
<path d="M42.8072 78.4808C46.817 73.4931 49.6589 69.0513 51.6421 65.0383C65.2275 72.1414 62.0219 70.8149 68.5741 78.3829C68.5962 78.6185 68.6171 78.8534 68.6367 79.0874C69.1803 89.5808 61.5257 113.839 31.3841 117.164C29.2977 100.863 36.0808 86.9592 42.8072 78.4808Z" fill="url(#paint5_linear_120_1356)"/>
<path d="M55.0822 40C55.2232 40.2188 55.3625 40.436 55.4998 40.6564L55.6692 40.9282C56.0136 41.4818 56.3517 42.0386 56.6849 42.6023L56.7411 42.6962L56.8306 42.8488L56.9121 42.9897L57.1506 43.3992L57.167 43.4289L57.4902 43.9957L57.5002 44.0122C57.7342 44.425 57.9645 44.8399 58.1912 45.2567L58.2192 45.3097L58.4714 45.777L58.4782 45.7891L58.7548 46.3089L58.8343 46.4615L58.9884 46.7586L59.3598 47.4792C59.5453 47.8469 59.7291 48.2151 59.9098 48.5828L59.9564 48.6739C60.282 49.3407 60.5995 50.0113 60.909 50.6857L61.1447 51.2011L61.1676 51.2525L61.3185 51.5873L61.4944 51.9836L61.5935 52.2124L61.7529 52.5785L61.8669 52.8419L62.1074 53.4088L62.1238 53.4485L62.3808 54.0647L62.4121 54.1394C62.6859 54.8058 62.9509 55.4723 63.2078 56.1427L63.2327 56.2045L63.4447 56.7666L63.4579 56.7975L63.5807 57.1291C63.7167 57.4969 63.8509 57.8653 63.9834 58.2343L64.0348 58.3788C64.1805 58.7911 64.3247 59.2058 64.464 59.6181L64.5085 59.749C64.6394 60.1368 64.7655 60.5246 64.8915 60.9124L64.9529 61.1031L64.9678 61.1477L65.1665 61.776L65.1745 61.8041L65.3588 62.4039L65.5427 63.0221L65.5479 63.0354L65.7005 63.5573L65.7486 63.7267L65.841 64.0499C65.9453 64.4224 66.0481 64.7938 66.1477 65.1667L66.2224 65.4449L66.3665 65.9949L66.3729 66.0218C66.5487 66.6979 66.7141 67.3739 66.8719 68.0484L66.8868 68.1182L66.9032 68.1893C67.1088 69.0793 67.2979 69.9662 67.4717 70.8494L67.4886 70.9373C67.7545 72.2954 67.9844 73.6603 68.1779 75.0306L68.1811 75.0486C68.2409 75.4662 68.2955 75.8821 68.3469 76.2984L68.3682 76.477L68.438 77.072V77.0736L68.4974 77.624L68.5175 77.8063L68.5605 78.2423L68.5773 78.4177L68.5837 78.4892L68.6367 79.0874C63.8923 72.9772 58.2245 68.7658 51.4233 65.4714C56.9121 54.62 56.1413 46.8878 55.0822 40Z" fill="url(#paint6_linear_120_1356)"/>
</g>
<defs>
<filter id="filter0_dii_120_1356" x="59" y="-6" width="53.0476" height="93.6782" filterUnits="userSpaceOnUse" color-interpolation-filters="sRGB">
<feFlood flood-opacity="0" result="BackgroundImageFix"/>
<feColorMatrix in="SourceAlpha" type="matrix" values="0 0 0 0 0 0 0 0 0 0 0 0 0 0 0 0 0 0 127 0" result="hardAlpha"/>
<feOffset dx="-4" dy="-2"/>
<feGaussianBlur stdDeviation="4"/>
<feComposite in2="hardAlpha" operator="out"/>
<feColorMatrix type="matrix" values="0 0 0 0 0.980392 0 0 0 0 0.329412 0 0 0 0 0.333333 0 0 0 0.37 0"/>
<feBlend mode="normal" in2="BackgroundImageFix" result="effect1_dropShadow_120_1356"/>
<feBlend mode="normal" in="SourceGraphic" in2="effect1_dropShadow_120_1356" result="shape"/>
<feColorMatrix in="SourceAlpha" type="matrix" values="0 0 0 0 0 0 0 0 0 0 0 0 0 0 0 0 0 0 127 0" result="hardAlpha"/>
<feOffset dy="2"/>
<feGaussianBlur stdDeviation="1.5"/>
<feComposite in2="hardAlpha" operator="arithmetic" k2="-1" k3="1"/>
<feColorMatrix type="matrix" values="0 0 0 0 1 0 0 0 0 1 0 0 0 0 1 0 0 0 0.41 0"/>
<feBlend mode="normal" in2="shape" result="effect2_innerShadow_120_1356"/>
<feColorMatrix in="SourceAlpha" type="matrix" values="0 0 0 0 0 0 0 0 0 0 0 0 0 0 0 0 0 0 127 0" result="hardAlpha"/>
<feOffset dy="-16"/>
<feGaussianBlur stdDeviation="8"/>
<feComposite in2="hardAlpha" operator="arithmetic" k2="-1" k3="1"/>
<feColorMatrix type="matrix" values="0 0 0 0 1 0 0 0 0 1 0 0 0 0 1 0 0 0 0.4 0"/>
<feBlend mode="normal" in2="effect2_innerShadow_120_1356" result="effect3_innerShadow_120_1356"/>
</filter>
<filter id="filter1_dii_120_1356" x="19" y="24" width="53.6633" height="99.1639" filterUnits="userSpaceOnUse" color-interpolation-filters="sRGB">
<feFlood flood-opacity="0" result="BackgroundImageFix"/>
<feColorMatrix in="SourceAlpha" type="matrix" values="0 0 0 0 0 0 0 0 0 0 0 0 0 0 0 0 0 0 127 0" result="hardAlpha"/>
<feOffset dx="-4" dy="-2"/>
<feGaussianBlur stdDeviation="4"/>
<feComposite in2="hardAlpha" operator="out"/>
<feColorMatrix type="matrix" values="0 0 0 0 0.0698785 0 0 0 0 0.634776 0 0 0 0 0.670833 0 0 0 0.52 0"/>
<feBlend mode="normal" in2="BackgroundImageFix" result="effect1_dropShadow_120_1356"/>
<feBlend mode="normal" in="SourceGraphic" in2="effect1_dropShadow_120_1356" result="shape"/>
<feColorMatrix in="SourceAlpha" type="matrix" values="0 0 0 0 0 0 0 0 0 0 0 0 0 0 0 0 0 0 127 0" result="hardAlpha"/>
<feOffset dy="-16"/>
<feGaussianBlur stdDeviation="8"/>
<feComposite in2="hardAlpha" operator="arithmetic" k2="-1" k3="1"/>
<feColorMatrix type="matrix" values="0 0 0 0 1 0 0 0 0 1 0 0 0 0 1 0 0 0 0.58 0"/>
<feBlend mode="normal" in2="shape" result="effect2_innerShadow_120_1356"/>
<feColorMatrix in="SourceAlpha" type="matrix" values="0 0 0 0 0 0 0 0 0 0 0 0 0 0 0 0 0 0 127 0" result="hardAlpha"/>
<feOffset dy="2"/>
<feGaussianBlur stdDeviation="1.5"/>
<feComposite in2="hardAlpha" operator="arithmetic" k2="-1" k3="1"/>
<feColorMatrix type="matrix" values="0 0 0 0 1 0 0 0 0 1 0 0 0 0 1 0 0 0 0.41 0"/>
<feBlend mode="normal" in2="effect2_innerShadow_120_1356" result="effect3_innerShadow_120_1356"/>
</filter>
<linearGradient id="paint0_linear_120_1356" x1="84.0548" y1="10" x2="84.0548" y2="81.6782" gradientUnits="userSpaceOnUse">
<stop stop-color="#FF3E00"/>
<stop offset="0.15625" stop-color="#FF3E00"/>
<stop offset="0.8125" stop-color="#FF8D68"/>
</linearGradient>
<linearGradient id="paint1_linear_120_1356" x1="89.5238" y1="10" x2="89.5238" y2="81.6782" gradientUnits="userSpaceOnUse">
<stop stop-color="#FF3E00"/>
<stop offset="0.15625" stop-color="#FF3E00"/>
<stop offset="0.8125" stop-color="#FF8D68"/>
</linearGradient>
<linearGradient id="paint2_linear_120_1356" x1="31.3144" y1="16.8572" x2="31.3144" y2="68.5532" gradientUnits="userSpaceOnUse">
<stop stop-color="#73F6B1"/>
<stop offset="1" stop-color="#04934A"/>
</linearGradient>
<linearGradient id="paint3_linear_120_1356" x1="55.6402" y1="42.6289" x2="55.6402" y2="119.793" gradientUnits="userSpaceOnUse">
<stop stop-color="#8EF7FE"/>
<stop offset="0.984375" stop-color="#06B7B7"/>
</linearGradient>
<linearGradient id="paint4_linear_120_1356" x1="55.6402" y1="42.6289" x2="55.6402" y2="119.793" gradientUnits="userSpaceOnUse">
<stop stop-color="#8EF7FE"/>
<stop offset="0.984375" stop-color="#06B7B7"/>
</linearGradient>
<linearGradient id="paint5_linear_120_1356" x1="49.8316" y1="40" x2="49.8316" y2="117.164" gradientUnits="userSpaceOnUse">
<stop stop-color="#8EF7FE"/>
<stop offset="0.984375" stop-color="#06B7B7"/>
</linearGradient>
<linearGradient id="paint6_linear_120_1356" x1="49.8316" y1="40" x2="49.8316" y2="117.164" gradientUnits="userSpaceOnUse">
<stop stop-color="#8EF7FE"/>
<stop offset="0.984375" stop-color="#06B7B7"/>
</linearGradient>
</defs>
</svg>
